# https://github.com/mikedh/trimesh
v -6.51968565 1.91817321 -5.02047052
v -6.51968565 1.91817321 -5.01834281
v -6.51968565 1.92014436 -5.08335086
v -6.51963737 1.91817321 -5.08333419
v -6.02693987 1.91817321 -5.01834281
v -6.51968565 2.09490013 -5.01834281
v -6.51968565 2.03666699 -5.09712714
v -6.51963737 2.03666699 -5.09712714
v -6.02693987 2.03666699 -5.09688714
v -6.02693987 1.91817321 -5.08243983
v -6.02693987 2.09495640 -5.01834281
v -6.51963737 2.09495640 -5.01834281
v -6.51968565 2.13511138 -5.02023868
v -6.51968565 2.09495640 -5.10292260
v -6.02693987 2.09495640 -5.10291426
v -6.02693987 2.06843052 -5.10017387
v -6.02693987 2.11325988 -5.01920382
v -6.02693987 2.13511138 -5.02023868
v -6.51963737 2.44452420 -5.04197147
v -6.51968565 2.44446785 -5.04197147
v -6.51968565 2.44452420 -5.09244104
v -6.02693987 2.44452420 -5.09244104
v -6.02693987 2.44452420 -5.04197147
v -6.51968565 2.49352111 -5.06117088
v -6.51968565 2.49352111 -5.08641391
v -6.02693987 2.49352111 -5.08641391
v -6.02693987 2.49352111 -5.06117088
f 1 2 6
f 1 6 13
f 1 13 20
f 1 20 24
f 1 24 25
f 1 25 21
f 1 21 14
f 1 14 7
f 1 7 3
f 1 3 4
f 1 4 10
f 1 10 5
f 1 5 2
f 2 5 11
f 2 11 12
f 2 12 6
f 3 7 4
f 4 7 8
f 4 8 9
f 4 9 10
f 5 10 9
f 5 9 16
f 5 16 15
f 5 15 22
f 5 22 26
f 5 26 27
f 5 27 23
f 5 23 18
f 5 18 17
f 5 17 11
f 6 12 13
f 7 14 8
f 8 14 15
f 8 15 16
f 8 16 9
f 11 17 12
f 12 17 13
f 13 17 18
f 13 18 23
f 13 23 19
f 13 19 20
f 14 21 22
f 14 22 15
f 19 23 27
f 19 27 24
f 19 24 20
f 21 25 26
f 21 26 22
f 24 27 26
f 24 26 25

