# https://github.com/mikedh/trimesh
v -5.76079049 1.45403239 -3.66798588
v -5.76074725 1.51214327 -3.66798588
v -5.76075806 1.39712216 -3.66798588
v -5.67440383 1.45397237 -3.63231095
v -5.76053078 1.57043424 -3.66798588
v -5.76045506 1.33907132 -3.66798588
v -5.67429564 1.44742888 -3.63231095
v -5.67377621 1.51220331 -3.63231095
v -5.75997892 1.62872521 -3.66798588
v -5.75921060 1.28210104 -3.66798588
v -5.67212056 1.39574142 -3.63231095
v -5.67085447 1.57037422 -3.63231095
v -5.75852884 1.68701618 -3.66798588
v -5.75427607 1.22945308 -3.66798588
v -5.67177428 1.39111897 -3.63231095
v -5.66714275 1.62866521 -3.63231095
v -5.66179699 1.68695617 -3.63231095
v -5.75085653 1.74524714 -3.66798241
v -5.75395145 1.69446012 -3.66798588
v -5.65025066 1.18605001 -3.66798241
v -5.67795323 1.18893154 -3.66798241
v -5.75394060 1.22873268 -3.66798241
v -5.65025066 1.29032541 -3.63235645
v -5.66421015 1.33745045 -3.63231095
v -5.75395145 1.27753863 -3.66798588
v -5.65025066 1.71715223 -3.63231095
v -5.70383785 1.79309258 -3.66798241
v -5.65025066 1.79933587 -3.66798241
v -5.65025066 1.33745045 -3.63231095
f 1 2 5
f 1 5 9
f 1 9 13
f 1 13 19
f 1 19 25
f 1 25 14
f 1 14 10
f 1 10 6
f 1 6 3
f 1 3 4
f 1 4 2
f 2 4 5
f 3 6 4
f 4 6 7
f 4 7 11
f 4 11 15
f 4 15 24
f 4 24 29
f 4 29 26
f 4 26 17
f 4 17 16
f 4 16 12
f 4 12 8
f 4 8 9
f 4 9 5
f 6 10 7
f 7 10 11
f 8 12 13
f 8 13 9
f 10 14 15
f 10 15 11
f 12 16 13
f 13 16 17
f 13 17 18
f 13 18 19
f 14 20 21
f 14 21 22
f 14 22 23
f 14 23 24
f 14 24 15
f 14 25 20
f 17 26 18
f 18 27 19
f 18 26 27
f 19 27 28
f 19 28 20
f 19 20 25
f 20 23 21
f 20 28 26
f 20 26 29
f 20 29 23
f 21 23 22
f 23 29 24
f 26 28 27

