# https://github.com/mikedh/trimesh
v -3.81805087 2.03241157 -2.53182495
v -3.79321021 2.03241157 -2.53182495
v -3.82654208 2.03241157 -2.48730211
v -3.81851402 2.10188891 -2.66399491
v -3.79191330 2.03241157 -2.52902769
v -3.79244332 2.10188891 -2.66399491
v -3.82696929 2.03241157 -2.43322193
v -3.82700012 2.15322192 -2.66399491
v -3.82673251 2.15158073 -2.66399491
v -3.77562551 2.03241157 -2.48730211
v -3.77485879 2.15322192 -2.66399491
v -3.82700012 2.03241157 -2.42902607
v -3.82700012 2.44453454 -2.66399491
v -3.82726261 2.03241157 -0.28260475
v -3.77485879 2.03241157 -2.42902607
v -3.77485879 2.44453454 -2.66399491
v -3.77469399 2.03241157 -0.28260475
v -3.81851402 2.49810145 -2.66399491
v -3.82726261 2.09495935 -0.28260475
v -3.82700012 2.44453454 -0.28260475
v -3.77541972 2.44626690 -2.66399491
v -3.77485879 2.44453454 -0.28260475
v -3.77469399 2.10457868 -0.28260475
v -3.79244332 2.49810145 -2.66399491
v -3.81851402 2.49810145 -0.28260475
v -3.79244332 2.49810145 -0.28260475
v -3.77775600 2.45337881 -0.28260475
f 1 2 5
f 1 5 10
f 1 10 15
f 1 15 17
f 1 17 14
f 1 14 12
f 1 12 7
f 1 7 3
f 1 3 4
f 1 4 6
f 1 6 2
f 2 6 5
f 3 7 8
f 3 8 9
f 3 9 4
f 4 9 8
f 4 8 13
f 4 13 18
f 4 18 24
f 4 24 21
f 4 21 16
f 4 16 11
f 4 11 6
f 5 6 10
f 6 11 10
f 7 12 8
f 8 12 14
f 8 14 19
f 8 19 13
f 10 11 15
f 11 16 23
f 11 23 17
f 11 17 15
f 13 19 20
f 13 20 25
f 13 25 18
f 14 17 23
f 14 23 22
f 14 22 27
f 14 27 26
f 14 26 25
f 14 25 20
f 14 20 19
f 16 21 22
f 16 22 23
f 18 25 26
f 18 26 24
f 21 24 26
f 21 26 27
f 21 27 22

