# https://github.com/mikedh/trimesh
v -5.09086937 0.05565367 -3.74325112
v -5.05885230 0.00761277 -3.74325112
v -5.05167581 0.01401813 -3.72607662
v -5.00328303 -0.00298098 -3.68775056
v -5.06102740 0.05565367 -3.71786152
v -5.06140146 0.11379564 -3.71667714
v -5.06140146 2.38625859 -3.71667714
v -5.08761364 2.38625859 -3.74325112
v -5.04474870 -0.00174919 -3.74325112
v -5.00573523 -0.01382098 -3.74325112
v -4.99062027 -0.00298098 -3.68775056
v -5.02562987 0.05565367 -3.68775056
v -5.02312228 2.38625859 -3.68775056
v -5.02249883 2.44440038 -3.68775056
v -5.06102740 2.44440038 -3.71786152
v -5.08711488 2.44440038 -3.74325112
v -4.98574359 -0.01258919 -3.74325112
v -4.96239923 -0.00199544 -3.68775056
v -5.02201394 2.44587859 -3.68775056
v -5.00137116 2.49884699 -3.68775056
v -5.05167581 2.48578967 -3.72607662
v -5.08448260 2.45055949 -3.74325112
v -4.96239923 -0.00199544 -3.71101575
v -4.96335518 -0.00051740 -3.74325112
v -4.94934858 0.05565367 -3.68775056
v -4.96740062 2.49736877 -3.68775056
v -5.00520877 2.50303520 -3.74325112
v -5.00604003 2.49983235 -3.70840231
v -5.05863062 2.48874609 -3.74325112
v -4.94934858 0.05565367 -3.71101575
v -4.95124660 0.05565367 -3.74325112
v -4.95933746 2.44440038 -3.68775056
v -4.96740062 2.49736877 -3.71101575
v -4.96911853 2.49244145 -3.74325112
v -4.95933746 2.44440038 -3.71101575
v -4.96277330 2.44440038 -3.74325112
v -4.96551645 2.46879056 -3.74325112
f 1 2 3
f 1 3 4
f 1 4 5
f 1 5 6
f 1 6 7
f 1 7 8
f 1 8 16
f 1 16 22
f 1 22 29
f 1 29 27
f 1 27 34
f 1 34 37
f 1 37 36
f 1 36 31
f 1 31 24
f 1 24 17
f 1 17 10
f 1 10 9
f 1 9 2
f 2 9 4
f 2 4 3
f 4 9 10
f 4 10 11
f 4 11 18
f 4 18 25
f 4 25 32
f 4 32 26
f 4 26 20
f 4 20 19
f 4 19 14
f 4 14 13
f 4 13 12
f 4 12 5
f 5 12 6
f 6 12 7
f 7 13 14
f 7 14 15
f 7 15 16
f 7 16 8
f 7 12 13
f 10 17 18
f 10 18 11
f 14 19 15
f 15 19 20
f 15 20 21
f 15 21 22
f 15 22 16
f 17 23 18
f 17 24 23
f 18 23 30
f 18 30 25
f 20 26 27
f 20 27 28
f 20 28 29
f 20 29 21
f 21 29 22
f 23 24 30
f 24 31 30
f 25 30 35
f 25 35 32
f 26 33 27
f 26 32 35
f 26 35 33
f 27 33 34
f 27 29 28
f 30 31 35
f 31 36 35
f 33 35 37
f 33 37 34
f 35 36 37

