# https://github.com/mikedh/trimesh
v -5.59562805 1.68710335 -3.21067503
v -5.58812690 1.27923503 -3.21067503
v -5.56784863 1.04009539 -3.14111902
v -5.56648480 1.04009539 -3.13589092
v -5.56650275 1.68710335 -3.13595170
v -5.56625150 2.44445048 -3.13595170
v -5.57434486 2.44445048 -3.18657105
v -5.57434486 2.44445048 -3.21067503
v -5.57561898 1.04009539 -3.21067503
v -5.57560105 1.04009539 -3.19251855
v -5.57524213 1.04009539 -3.18657105
v -5.53301673 1.04009539 -3.11117895
v -5.52901492 2.38620406 -3.10842310
v -5.52901492 2.44445048 -3.10861560
v -5.56355969 2.48953070 -3.14311501
v -5.56625150 2.49740177 -3.18657105
v -5.56960729 2.47550573 -3.21067503
v -5.52693325 1.04009539 -3.21067503
v -5.52901492 1.04009539 -3.10836223
v -5.47076431 2.38620406 -3.10717681
v -5.47076431 2.44445048 -3.10735924
v -5.47672216 1.04009539 -3.10723759
v -5.52901492 2.49725867 -3.13312482
v -5.56625150 2.49740177 -3.21067503
v -5.52725626 2.50198142 -3.18986395
v -5.50966983 1.04009539 -3.21053323
v -5.50990310 1.04610606 -3.21067503
v -5.41229835 2.44445048 -3.11195912
v -5.47076431 1.04009539 -3.10717681
v -5.41249575 2.48838574 -3.13469534
v -5.47076431 2.49267911 -3.13249669
v -5.41229835 2.48838574 -3.13478651
v -5.53199384 2.50026407 -3.21067503
v -5.41249575 2.48838574 -3.16169705
v -5.41229835 1.04596296 -3.16596263
v -5.41249575 1.04009539 -3.16596263
v -5.50617047 1.68710335 -3.21067503
v -5.41229835 1.04610606 -3.11195912
v -5.41845360 1.04009539 -3.11146262
v -5.41229835 2.48824265 -3.16170721
v -5.51056708 2.44559535 -3.21067503
v -5.41229835 1.04009539 -3.16060280
v -5.41229835 2.44430730 -3.16596263
v -5.51017230 2.44445048 -3.21067503
v -5.41249575 1.04009539 -3.11195912
f 1 2 3
f 1 3 4
f 1 4 5
f 1 5 6
f 1 6 7
f 1 7 8
f 1 8 17
f 1 17 24
f 1 24 33
f 1 33 41
f 1 41 44
f 1 44 37
f 1 37 27
f 1 27 18
f 1 18 9
f 1 9 2
f 2 9 10
f 2 10 11
f 2 11 3
f 3 11 10
f 3 10 9
f 3 9 18
f 3 18 26
f 3 26 36
f 3 36 42
f 3 42 45
f 3 45 39
f 3 39 29
f 3 29 22
f 3 22 19
f 3 19 12
f 3 12 4
f 4 12 5
f 5 12 13
f 5 13 6
f 6 13 14
f 6 14 15
f 6 15 7
f 7 15 16
f 7 16 17
f 7 17 8
f 12 19 13
f 13 20 21
f 13 21 14
f 13 19 22
f 13 22 20
f 14 21 23
f 14 23 15
f 15 23 16
f 16 24 17
f 16 23 25
f 16 25 24
f 18 27 26
f 20 28 21
f 20 22 29
f 20 29 38
f 20 38 28
f 21 28 30
f 21 30 31
f 21 31 23
f 23 31 32
f 23 32 25
f 24 25 33
f 25 32 34
f 25 34 33
f 26 35 36
f 26 27 35
f 27 37 35
f 28 32 30
f 28 38 42
f 28 42 35
f 28 35 43
f 28 43 40
f 28 40 32
f 29 39 38
f 30 32 31
f 32 40 34
f 33 34 40
f 33 40 41
f 35 42 36
f 35 37 43
f 37 44 43
f 38 39 45
f 38 45 42
f 40 43 44
f 40 44 41

