# https://github.com/mikedh/trimesh
v -6.63819055 0.90282674 -3.31667016
v -6.57791809 0.85825707 -3.31667016
v -6.57771682 0.85822845 -3.31682585
v -6.57771682 0.87460069 -3.46122120
v -6.63819055 0.91453755 -3.46122120
v -6.63819055 0.76847422 -3.31667016
v -6.57771682 0.76977538 -3.31667016
v -6.57771682 0.87335670 -3.46122120
v -6.63819055 0.76884599 -3.46122120
v -6.57771682 0.76847422 -3.31667016
v -6.57771682 0.76884599 -3.46109382
v -6.57791809 0.76884599 -3.46122120
f 1 2 3
f 1 3 4
f 1 4 5
f 1 5 9
f 1 9 6
f 1 6 10
f 1 10 7
f 1 7 2
f 2 7 3
f 3 7 10
f 3 10 11
f 3 11 8
f 3 8 4
f 4 8 12
f 4 12 9
f 4 9 5
f 6 9 12
f 6 12 10
f 8 11 12
f 10 12 11

