# https://github.com/mikedh/trimesh
v -5.93639886 0.00129832 0.03937645
v -5.89058822 0.01051658 0.04247650
v -5.83237661 0.00843324 0.08746563
v -5.81880252 0.00328945 0.15854891
v -5.93639886 0.00129832 0.06839143
v -5.93639886 0.05494843 0.03316351
v -5.88091423 0.18964517 0.03626356
v -5.88687098 0.05544623 0.04128518
v -5.85774229 0.05544623 0.05125148
v -5.78810471 0.01420386 0.15058094
v -5.81593843 0.00612865 0.13265968
v -5.82590187 0.05544623 0.08039445
v -5.79677323 0.05544623 0.12259091
v -5.86604522 0.00618397 0.15854891
v -5.78810471 0.01420386 0.15854891
v -5.93639886 0.00177763 0.06889088
v -5.93639886 0.18951613 0.02768082
v -5.89531096 0.18964517 0.03490569
v -5.86161192 0.18964517 0.04493608
v -5.82366237 0.18964517 0.06818634
v -5.78521010 0.18964517 0.12389755
v -5.78226983 0.18964517 0.13122488
v -5.78085300 0.18964517 0.13488864
v -5.78077685 0.18964517 0.15854891
v -5.81858926 0.18964517 0.07304141
v -5.80137407 0.18964517 0.09317895
v -5.88540843 0.05494843 0.15854891
v -5.93639886 0.05426628 0.09609960
v -5.93639886 0.18964517 0.03728834
v -5.86507019 0.18964517 0.15854891
v -5.93639886 0.05467187 0.09620206
v -5.88757179 0.08667757 0.15854891
v -5.93639886 0.11680269 0.11088243
v -5.93639886 0.18964517 0.09843102
v -5.87931458 0.17878606 0.15854891
v -5.88778505 0.11370542 0.15854891
v -5.93639886 0.15738140 0.11051097
f 1 2 3
f 1 3 4
f 1 4 5
f 1 5 16
f 1 16 28
f 1 28 31
f 1 31 33
f 1 33 37
f 1 37 34
f 1 34 29
f 1 29 17
f 1 17 6
f 1 6 2
f 2 6 7
f 2 7 8
f 2 8 9
f 2 9 3
f 3 10 11
f 3 11 4
f 3 9 12
f 3 12 13
f 3 13 10
f 4 14 5
f 4 11 10
f 4 10 15
f 4 15 24
f 4 24 30
f 4 30 35
f 4 35 36
f 4 36 32
f 4 32 27
f 4 27 14
f 5 14 16
f 6 17 7
f 7 17 18
f 7 18 29
f 7 29 34
f 7 34 30
f 7 30 24
f 7 24 23
f 7 23 22
f 7 22 21
f 7 21 26
f 7 26 25
f 7 25 20
f 7 20 19
f 7 19 9
f 7 9 8
f 9 19 20
f 9 20 12
f 10 13 21
f 10 21 22
f 10 22 23
f 10 23 24
f 10 24 15
f 12 20 25
f 12 25 26
f 12 26 13
f 13 26 21
f 14 27 28
f 14 28 16
f 17 29 18
f 27 31 28
f 27 32 33
f 27 33 31
f 30 34 35
f 32 36 33
f 33 36 37
f 34 37 35
f 35 37 36

