# https://github.com/mikedh/trimesh
v -4.95930971 0.49908274 -0.94087779
v -4.95934032 0.49908274 -1.32997175
v -5.02555943 0.49908274 -0.94087779
v -4.94933475 0.05548305 -0.94087779
v -4.94933475 0.05548305 -1.32997175
v -5.02753454 0.49908274 -1.32997175
v -5.02632498 0.49908274 -0.94110633
v -5.02617187 0.49888659 -0.94087779
v -4.95637005 0.02452965 -0.94087779
v -4.96057285 0.00603609 -1.32997175
v -5.02753454 0.49908274 -1.08706898
v -5.02753454 0.10399796 -1.32997175
v -5.02753454 0.23026417 -1.11053267
v -5.02753454 0.17198744 -1.11929350
v -5.02382932 0.05548305 -0.94087779
v -4.96239483 -0.00195976 -0.94087779
v -4.96239483 -0.00195976 -1.32997175
v -5.01788875 0.05548305 -1.32997175
v -5.02753454 0.09933773 -1.32185850
v -5.02753454 0.11655582 -1.14797556
v -5.02753454 0.11420122 -1.15144177
v -5.02753454 0.09492288 -1.20533978
v -5.02753454 0.09453041 -1.20766330
v -5.02753454 0.09060607 -1.26358004
v -5.01927438 0.04297415 -0.94087779
v -4.97809603 -0.00195976 -0.94087779
v -4.99634648 -0.00195976 -1.32997175
v -5.01494141 0.04743805 -1.32997175
v -5.00210334 -0.00058626 -0.94087779
v -4.99640772 -0.00195976 -0.97226439
f 1 2 6
f 1 6 11
f 1 11 7
f 1 7 3
f 1 3 8
f 1 8 15
f 1 15 25
f 1 25 29
f 1 29 26
f 1 26 16
f 1 16 9
f 1 9 4
f 1 4 5
f 1 5 2
f 2 5 10
f 2 10 17
f 2 17 27
f 2 27 28
f 2 28 18
f 2 18 12
f 2 12 6
f 3 7 8
f 4 9 10
f 4 10 5
f 6 12 19
f 6 19 24
f 6 24 23
f 6 23 22
f 6 22 21
f 6 21 20
f 6 20 14
f 6 14 13
f 6 13 11
f 7 11 13
f 7 13 14
f 7 14 15
f 7 15 8
f 9 16 10
f 10 16 17
f 12 18 19
f 14 20 15
f 15 20 21
f 15 21 22
f 15 22 23
f 15 23 24
f 15 24 18
f 15 18 25
f 16 26 30
f 16 30 27
f 16 27 17
f 18 28 25
f 18 24 19
f 25 28 27
f 25 27 29
f 26 29 30
f 27 30 29

