# https://github.com/mikedh/trimesh
v -6.75788191 2.48744640 -2.44133669
v -6.78557149 2.48744640 -2.44133669
v -6.73390244 2.44446038 -2.44133669
v -6.73553313 2.44739962 -3.24880372
v -6.75788191 2.48744640 -3.12826853
v -6.78557149 2.48744640 -3.12826853
v -6.78928161 2.44446038 -2.44133669
v -6.73338250 1.74584506 -3.13443363
v -6.73338250 1.80279241 -3.18644158
v -6.73338250 1.80352717 -3.18723201
v -6.73338250 1.85551463 -3.24429848
v -6.73390244 2.44446038 -3.24880372
v -6.73390244 0.61075585 -2.44133669
v -6.73338250 0.75477747 -3.01500502
v -6.73338250 0.81301078 -3.01516305
v -6.73338250 0.87161139 -3.01848278
v -6.75788191 2.48726276 -3.24880372
v -6.78557149 2.48726276 -3.24880372
v -6.78582330 2.48450726 -3.24880372
v -6.78928161 2.44446038 -3.24880372
v -6.78928717 1.97822693 -3.07001646
v -6.78928717 1.91999371 -3.01168538
v -6.78928717 1.86176048 -2.95343331
v -6.78928161 0.61075585 -2.44133669
v -6.73338250 1.85551463 -3.24880372
v -6.73338250 0.61075585 -3.01500502
v -6.78928717 1.97822693 -3.18652060
v -6.78928161 0.87124401 -3.24880372
v -6.78928717 0.69654425 -2.95343331
v -6.78928717 0.61075585 -3.01168538
v -6.73338250 0.76139071 -3.24880372
v -6.73338250 0.61075585 -3.18976123
v -6.78928717 1.27924421 -3.18652060
v -6.78671523 0.81301078 -3.24880372
v -6.78928161 0.61075585 -3.12826853
v -6.78928717 0.61075585 -3.07001646
v -6.75479002 0.76653432 -3.24880372
v -6.74363760 0.61075585 -3.18810145
v -6.78300494 0.78159788 -3.24880372
v -6.78557149 0.61075585 -3.16628651
v -6.78754152 0.61075585 -3.14613152
v -6.75273247 0.61075585 -3.18659970
v -6.77013430 0.61075585 -3.17608740
f 1 2 7
f 1 7 24
f 1 24 13
f 1 13 3
f 1 3 4
f 1 4 5
f 1 5 6
f 1 6 2
f 2 6 20
f 2 20 7
f 3 8 9
f 3 9 10
f 3 10 11
f 3 11 25
f 3 25 12
f 3 12 4
f 3 13 26
f 3 26 14
f 3 14 15
f 3 15 16
f 3 16 8
f 4 17 5
f 4 12 25
f 4 25 31
f 4 31 37
f 4 37 39
f 4 39 34
f 4 34 28
f 4 28 20
f 4 20 19
f 4 19 18
f 4 18 17
f 5 17 18
f 5 18 6
f 6 18 19
f 6 19 20
f 7 20 27
f 7 27 21
f 7 21 22
f 7 22 23
f 7 23 29
f 7 29 24
f 8 16 15
f 8 15 14
f 8 14 26
f 8 26 32
f 8 32 31
f 8 31 25
f 8 25 11
f 8 11 10
f 8 10 9
f 13 24 30
f 13 30 36
f 13 36 35
f 13 35 41
f 13 41 40
f 13 40 43
f 13 43 42
f 13 42 38
f 13 38 32
f 13 32 26
f 20 28 33
f 20 33 27
f 21 27 33
f 21 33 36
f 21 36 30
f 21 30 29
f 21 29 23
f 21 23 22
f 24 29 30
f 28 34 35
f 28 35 36
f 28 36 33
f 31 32 37
f 32 38 37
f 34 39 40
f 34 40 41
f 34 41 35
f 37 38 42
f 37 42 39
f 39 42 43
f 39 43 40

