# https://github.com/mikedh/trimesh
v -5.21641027 0.63208193 -1.55497514
v -5.21641027 0.62579822 -1.50344224
v -5.21641027 0.62055162 -1.60773410
v -6.30653879 0.62049062 -1.60773410
v -6.30653879 0.62207681 -1.58964682
v -6.30653879 0.62506614 -1.55497514
v -5.24009945 0.62354096 -1.50344224
v -5.21641027 0.21247568 -1.50344224
v -6.30653879 0.61353584 -1.52135816
v -6.30653879 0.60200548 -1.51761413
v -6.30653879 0.57985994 -1.51045568
v -5.21641027 0.57985994 -1.63370490
v -5.29601442 0.57985994 -1.63462775
v -5.35427695 0.57985994 -1.63474640
v -6.30653879 0.57985994 -1.63474640
v -5.27477956 0.61994154 -1.50344224
v -6.30653879 0.52159823 -1.50403547
v -5.22750790 0.16775755 -1.50344224
v -5.21641027 0.00889527 -1.57906076
v -5.21641027 0.52159823 -1.63485186
v -5.23775189 0.52159823 -1.63620972
v -5.29601442 0.52159823 -1.63787080
v -5.35427695 0.52159823 -1.63812127
v -6.30653879 0.52159823 -1.63812127
v -6.30653879 0.28537912 -1.50344224
v -5.23038904 0.16080272 -1.50344224
v -5.21641027 0.00889527 -1.60458334
v -5.25098365 0.13804714 -1.50344224
v -5.29057232 0.12883514 -1.50344224
v -5.29217292 0.12853001 -1.50344224
v -5.35427695 0.11773178 -1.50344224
v -5.36238676 0.11754883 -1.50344224
v -5.41253952 0.11651171 -1.50344224
v -5.42064932 0.11645067 -1.50344224
v -5.47080206 0.11632867 -1.50344224
v -5.35427695 0.00889527 -1.57900805
v -5.21641027 0.23028979 -1.63367855
v -5.23775189 0.23028979 -1.63595921
v -5.29601442 0.23028979 -1.63787080
v -5.35427695 0.40501386 -1.63812127
v -6.30653879 0.23028979 -1.63812127
v -6.30653879 0.11632867 -1.50344224
v -5.47080206 0.05544363 -1.62762746
v -5.41253952 0.05544363 -1.62760111
v -5.35427695 0.05544363 -1.62740335
v -5.21641027 0.03848368 -1.61772693
v -6.30653879 0.00889527 -1.60458334
v -6.30653879 0.02481810 -1.61249323
v -5.41253952 0.00889527 -1.57899485
v -5.21641027 0.17202808 -1.63321713
v -5.23775189 0.17202808 -1.63549784
v -5.29601442 0.17202808 -1.63775215
v -5.35427695 0.23028979 -1.63810807
v -5.70385227 0.23028979 -1.63812127
v -6.30653879 0.17202808 -1.63787080
v -6.30653879 0.00889527 -1.57899485
v -5.58732716 0.11376637 -1.63391586
v -5.47080206 0.11376637 -1.63390266
v -5.41253952 0.11376637 -1.63388946
v -6.30653879 0.05544363 -1.62762746
v -6.30653879 0.07545395 -1.62978951
v -5.35427695 0.11376637 -1.63367855
v -5.21641027 0.05544363 -1.62520179
v -5.21641027 0.15073656 -1.63237339
v -5.21641027 0.09247494 -1.62836574
v -5.29601442 0.11376637 -1.63262390
v -5.35427695 0.17202808 -1.63787080
v -6.30653879 0.13371566 -1.63527373
v -6.30653879 0.11376637 -1.63391586
f 1 2 8
f 1 8 19
f 1 19 27
f 1 27 46
f 1 46 63
f 1 63 65
f 1 65 64
f 1 64 50
f 1 50 37
f 1 37 20
f 1 20 12
f 1 12 3
f 1 3 4
f 1 4 5
f 1 5 6
f 1 6 2
f 2 7 16
f 2 16 25
f 2 25 42
f 2 42 35
f 2 35 34
f 2 34 33
f 2 33 32
f 2 32 31
f 2 31 30
f 2 30 29
f 2 29 28
f 2 28 26
f 2 26 18
f 2 18 8
f 2 6 9
f 2 9 10
f 2 10 11
f 2 11 7
f 3 12 13
f 3 13 14
f 3 14 15
f 3 15 4
f 4 15 24
f 4 24 41
f 4 41 55
f 4 55 68
f 4 68 69
f 4 69 61
f 4 61 60
f 4 60 48
f 4 48 47
f 4 47 56
f 4 56 42
f 4 42 25
f 4 25 17
f 4 17 11
f 4 11 10
f 4 10 9
f 4 9 6
f 4 6 5
f 7 11 17
f 7 17 16
f 8 18 19
f 12 20 21
f 12 21 22
f 12 22 13
f 13 22 23
f 13 23 14
f 14 23 24
f 14 24 15
f 16 17 25
f 18 26 19
f 19 26 28
f 19 28 29
f 19 29 30
f 19 30 31
f 19 31 32
f 19 32 33
f 19 33 34
f 19 34 35
f 19 35 36
f 19 36 49
f 19 49 56
f 19 56 47
f 19 47 27
f 20 37 38
f 20 38 21
f 21 38 39
f 21 39 22
f 22 39 40
f 22 40 23
f 23 40 54
f 23 54 41
f 23 41 24
f 27 43 44
f 27 44 45
f 27 45 46
f 27 47 48
f 27 48 43
f 35 49 36
f 35 42 56
f 35 56 49
f 37 50 51
f 37 51 38
f 38 51 52
f 38 52 39
f 39 52 53
f 39 53 40
f 40 53 54
f 41 54 67
f 41 67 55
f 43 57 58
f 43 58 59
f 43 59 44
f 43 48 60
f 43 60 61
f 43 61 57
f 44 59 45
f 45 59 62
f 45 62 63
f 45 63 46
f 50 64 51
f 51 64 65
f 51 65 52
f 52 66 62
f 52 62 59
f 52 59 67
f 52 67 53
f 52 65 63
f 52 63 66
f 53 67 54
f 55 67 68
f 57 67 58
f 57 61 69
f 57 69 68
f 57 68 67
f 58 67 59
f 62 66 63

