# https://github.com/mikedh/trimesh
v -6.32873604 1.10130766 0.36782328
v -6.31248959 0.98321482 0.19312716
v -6.32858799 1.10130766 0.19312716
v -6.38215309 1.10130766 0.36782328
v -6.30654617 0.86017004 0.36782328
v -6.30654617 0.87620997 0.32917369
v -6.30654617 0.88449913 0.22203707
v -6.30654617 0.88600622 0.19312716
v -6.30654617 0.88622152 0.16638178
v -6.30654617 0.88632916 0.13489524
v -6.31248959 0.98332249 0.13489524
v -6.30654617 0.87836304 0.30969433
v -6.30654617 0.88159255 0.27630116
v -6.32858799 1.10130766 0.07965204
v -6.38215309 1.10130766 -0.15863539
v -6.38215309 0.11361225 0.36782328
v -6.30654617 0.31868694 0.36782328
v -6.30654617 0.88503736 0.10634602
v -6.30654617 0.88353027 0.07666314
v -6.30654617 0.87965482 0.01837964
v -6.30654617 0.86942802 -0.03990386
v -6.32873604 1.10130766 -0.15863539
v -6.38215309 0.05548088 -0.15863539
v -6.38215309 0.05548088 0.30969433
v -6.38213833 0.05537321 0.36782328
v -6.32872119 0.05548088 0.36782328
v -6.31533183 0.02523099 0.28583470
v -6.30796725 0.05548088 0.19312716
v -6.30709390 0.05548088 0.13489524
v -6.30654617 0.30652241 0.34834392
v -6.30654617 0.85134266 -0.07875959
v -6.30654617 0.83228852 -0.09648686
v -6.30654617 0.81291136 -0.10401061
v -6.30654617 0.78653692 -0.11143137
v -6.30654617 0.75467232 -0.11292591
v -6.32861760 0.81506438 -0.15863539
v -6.37805266 0.01145175 -0.15863539
v -6.37805266 0.01145175 0.36782328
v -6.35131822 0.01145175 0.36782328
v -6.31353321 0.02178622 0.25141083
v -6.31035059 0.01715725 0.19312716
v -6.30981762 0.01651132 0.13489524
v -6.31234901 0.01963316 0.07666314
v -6.31446578 0.02329326 0.03703444
v -6.30654617 0.34689143 -0.08015097
v -6.30654617 0.31039778 -0.03990386
v -6.30654617 0.28983651 0.01389637
v -6.30654617 0.28832938 0.01837964
v -6.30654617 0.27228941 0.07630244
v -6.30654617 0.25786423 0.13489524
v -6.30654617 0.25926369 0.17339009
v -6.30654617 0.26023255 0.19312716
v -6.30654617 0.26658391 0.21863589
v -6.30654617 0.29263542 0.30969433
v -6.32861760 0.75467232 -0.15863539
v -6.30654617 0.69632565 -0.11246206
v -6.32873604 0.05548088 -0.15863539
v -6.35134783 0.01145175 -0.15863539
v -6.34482707 0.00154788 0.13489524
v -6.34482707 0.00219381 0.19312716
v -6.35050400 0.01306646 -0.15863539
v -6.30654617 0.36303899 -0.08757173
v -6.30654617 0.63808661 -0.11174049
v -6.30654617 0.57984756 -0.11076138
v -6.30654617 0.52160852 -0.10942158
v -6.30654617 0.46336952 -0.10772108
v -6.30654617 0.40513048 -0.10390763
f 1 2 3
f 1 3 14
f 1 14 22
f 1 22 15
f 1 15 4
f 1 4 16
f 1 16 25
f 1 25 38
f 1 38 39
f 1 39 26
f 1 26 17
f 1 17 5
f 1 5 6
f 1 6 2
f 2 7 8
f 2 8 9
f 2 9 10
f 2 10 11
f 2 11 3
f 2 6 12
f 2 12 13
f 2 13 7
f 3 11 14
f 4 15 23
f 4 23 24
f 4 24 16
f 5 17 30
f 5 30 54
f 5 54 53
f 5 53 52
f 5 52 51
f 5 51 50
f 5 50 49
f 5 49 48
f 5 48 47
f 5 47 46
f 5 46 45
f 5 45 62
f 5 62 67
f 5 67 66
f 5 66 65
f 5 65 64
f 5 64 63
f 5 63 56
f 5 56 35
f 5 35 34
f 5 34 33
f 5 33 32
f 5 32 31
f 5 31 21
f 5 21 20
f 5 20 19
f 5 19 18
f 5 18 10
f 5 10 9
f 5 9 8
f 5 8 7
f 5 7 13
f 5 13 12
f 5 12 6
f 10 18 11
f 11 18 19
f 11 19 20
f 11 20 21
f 11 21 22
f 11 22 14
f 15 22 36
f 15 36 55
f 15 55 57
f 15 57 61
f 15 61 58
f 15 58 37
f 15 37 23
f 16 24 25
f 17 26 27
f 17 27 28
f 17 28 29
f 17 29 30
f 21 31 22
f 22 31 32
f 22 32 33
f 22 33 34
f 22 34 35
f 22 35 36
f 23 37 38
f 23 38 24
f 24 38 25
f 26 39 27
f 27 39 40
f 27 40 41
f 27 41 28
f 28 41 29
f 29 41 42
f 29 42 43
f 29 43 44
f 29 44 45
f 29 45 46
f 29 46 47
f 29 47 48
f 29 48 49
f 29 49 50
f 29 50 51
f 29 51 52
f 29 52 53
f 29 53 54
f 29 54 30
f 35 55 36
f 35 56 57
f 35 57 55
f 37 58 59
f 37 59 38
f 38 59 60
f 38 60 39
f 39 60 41
f 39 41 40
f 41 60 42
f 42 60 59
f 42 59 58
f 42 58 43
f 43 58 44
f 44 58 61
f 44 61 57
f 44 57 45
f 45 57 62
f 56 63 57
f 57 63 64
f 57 64 65
f 57 65 66
f 57 66 67
f 57 67 62

