# https://github.com/mikedh/trimesh
v -6.21382725 0.00784565 0.50787915
v -6.21382725 0.00784565 0.53342782
v -6.21382725 0.04384307 0.50345684
v -5.21650791 0.00784565 0.50802919
v -5.21650791 0.00784565 0.53342782
v -5.21650791 0.02511463 0.54063655
v -6.21382725 0.01952045 0.53829540
v -6.21382725 0.05551787 0.50209098
v -5.21650791 0.05551787 0.50239628
v -6.21382725 0.05551787 0.55318834
v -5.21650791 0.05551787 0.55319337
v -5.58735369 0.05551787 0.55319337
v -6.21382725 2.44448287 0.50209098
v -5.21650791 2.44448287 0.50239628
v -6.21382725 2.44448287 0.55318834
v -5.21650791 0.13505277 0.55319337
v -5.58735369 0.46340773 0.55319337
v -6.21382725 2.49215526 0.50787411
v -5.21650791 2.47488628 0.50591815
v -5.21650791 2.44448287 0.55318834
v -5.21650791 2.46199515 0.54597944
v -6.21382725 2.49215526 0.53342279
v -5.21650791 2.49215526 0.50802919
v -5.21650791 2.49215526 0.53342279
v -5.47076869 2.49215526 0.53342782
v -5.82032844 2.49215526 0.53342782
f 1 2 7
f 1 7 10
f 1 10 15
f 1 15 22
f 1 22 18
f 1 18 13
f 1 13 8
f 1 8 3
f 1 3 4
f 1 4 5
f 1 5 2
f 2 5 6
f 2 6 7
f 3 8 9
f 3 9 4
f 4 9 14
f 4 14 19
f 4 19 23
f 4 23 24
f 4 24 21
f 4 21 20
f 4 20 16
f 4 16 11
f 4 11 6
f 4 6 5
f 6 10 7
f 6 11 12
f 6 12 10
f 8 13 14
f 8 14 9
f 10 12 17
f 10 17 15
f 11 16 17
f 11 17 12
f 13 18 19
f 13 19 14
f 15 20 21
f 15 21 22
f 15 17 20
f 16 20 17
f 18 22 26
f 18 26 25
f 18 25 24
f 18 24 23
f 18 23 19
f 21 24 25
f 21 25 26
f 21 26 22

