# https://github.com/mikedh/trimesh
v -5.41310796 0.69341277 -0.94207545
v -5.41310796 0.19076312 -0.94207545
v -5.41310796 0.59942738 -0.99868884
v -6.30653879 0.59716382 -0.99809622
v -6.30653879 0.61069576 -0.98812427
v -6.30653879 0.63662789 -0.96897722
v -6.30618903 0.66575844 -0.94207545
v -6.30653879 0.66575844 -0.94206521
v -5.41310796 0.19076312 -1.04644389
v -6.30653879 0.19076312 -0.94207545
v -5.41310796 0.57029683 -1.00527890
v -6.30653879 0.56803327 -1.00474758
v -6.30653879 0.57802233 -1.00246913
v -6.30653879 0.19076312 -1.04631104
f 1 2 9
f 1 9 11
f 1 11 3
f 1 3 4
f 1 4 5
f 1 5 6
f 1 6 7
f 1 7 8
f 1 8 2
f 2 8 10
f 2 10 14
f 2 14 9
f 3 11 12
f 3 12 13
f 3 13 4
f 4 13 12
f 4 12 14
f 4 14 10
f 4 10 8
f 4 8 6
f 4 6 5
f 6 8 7
f 9 14 11
f 11 14 12

