# https://github.com/mikedh/trimesh
v -6.09278524 0.18963805 0.15854856
v -6.04902607 0.22631830 0.15669298
v -6.02809915 0.28849167 0.15669298
v -6.02798419 0.29212538 0.15669298
v -6.09432927 0.18963805 0.15854856
v -6.09432927 0.18577545 0.15854856
v -5.93644145 0.11682109 0.11087705
v -6.09432927 0.29212538 0.15669298
v -5.93644145 0.15736395 0.11050940
v -5.92655290 0.18963805 0.10096805
v -5.92655290 0.19018170 0.10077563
v -5.92655290 0.23083899 0.08631477
v -5.92655290 0.29192506 0.05961662
v -5.92655290 0.29212538 0.05947648
v -6.09432927 0.05284520 0.09286236
v -5.93644145 0.05427575 0.09608362
v -5.93644145 0.05470495 0.09618869
v -6.09432927 0.29212538 0.00980923
v -5.93644145 0.00180177 0.06891276
v -5.93644145 0.00131543 0.06840515
v -5.92655290 0.18963805 0.02939955
v -5.92655290 0.29212538 -0.01988268
v -6.09432927 -0.00017242 0.06642679
v -6.02216937 0.29212538 -0.00719005
v -6.09432927 0.05544884 0.03108026
v -5.93695063 0.00125812 0.06833516
v -5.93644145 0.00131543 0.03939608
v -5.92655290 0.26414308 -0.00719005
v -5.93695063 0.29212538 -0.02028540
v -5.93695063 0.00125812 0.03906334
v -6.09432927 -0.00017242 0.03813546
v -5.99521411 -0.00014386 0.06532386
v -5.99521411 0.29212538 -0.01254719
v -6.09432927 0.03885401 0.03318105
v -5.98000351 0.29212538 -0.01531345
v -5.99521411 -0.00014386 0.03813546
f 1 2 3
f 1 3 4
f 1 4 8
f 1 8 5
f 1 5 6
f 1 6 2
f 2 6 7
f 2 7 3
f 3 7 4
f 4 7 9
f 4 9 10
f 4 10 11
f 4 11 12
f 4 12 13
f 4 13 14
f 4 14 22
f 4 22 29
f 4 29 35
f 4 35 33
f 4 33 24
f 4 24 18
f 4 18 8
f 5 8 18
f 5 18 25
f 5 25 34
f 5 34 31
f 5 31 23
f 5 23 15
f 5 15 6
f 6 15 16
f 6 16 17
f 6 17 7
f 7 17 10
f 7 10 9
f 10 17 16
f 10 16 19
f 10 19 20
f 10 20 27
f 10 27 21
f 10 21 28
f 10 28 22
f 10 22 14
f 10 14 13
f 10 13 12
f 10 12 11
f 15 23 16
f 16 23 19
f 18 24 25
f 19 23 20
f 20 23 26
f 20 26 30
f 20 30 27
f 21 27 28
f 22 28 27
f 22 27 30
f 22 30 29
f 23 31 36
f 23 36 32
f 23 32 26
f 24 33 25
f 25 33 35
f 25 35 34
f 26 32 36
f 26 36 30
f 29 30 36
f 29 36 31
f 29 31 35
f 31 34 35

