# https://github.com/mikedh/trimesh
v -6.66697681 0.46304712 -1.45486529
v -6.58805215 0.46304712 -1.45486529
v -6.66744005 0.46304712 -1.43848924
v -6.71594159 0.56298791 -1.45486529
v -6.58805215 0.46333982 -1.45486529
v -6.60224957 0.46304712 -1.09120996
v -6.71594159 0.56287815 -1.44411403
v -6.66744005 0.46304712 -1.09120996
v -6.71594159 0.56176220 -1.26362137
v -6.71594159 0.64993988 -1.45486529
v -6.58811476 0.48388416 -1.45486529
v -6.60234969 0.52162489 -1.09120996
v -6.60224957 0.46571804 -1.09120996
v -6.71594159 0.56271352 -1.09120996
v -6.68844824 0.64993988 -1.45486529
v -6.71594159 0.64993988 -1.09120996
v -6.58825247 0.52162489 -1.45486529
v -6.60242479 0.52321650 -1.09120996
v -6.67274839 0.64190878 -1.45486529
v -6.64814704 0.64993988 -1.31759119
v -6.68867357 0.64993988 -1.09120996
v -6.59541379 0.57008605 -1.45486529
v -6.60475352 0.56139633 -1.09120996
v -6.64005924 0.62127301 -1.45486529
v -6.64188712 0.64993988 -1.27394542
v -6.60297574 0.58962414 -1.45486529
v -6.64305153 0.62109006 -1.09120996
v -6.64769630 0.64993988 -1.21242833
v -6.61390544 0.59052059 -1.09120996
v -6.64107334 0.64993988 -1.26362137
v -6.61509485 0.59180117 -1.09120996
f 1 2 6
f 1 6 8
f 1 8 3
f 1 3 4
f 1 4 10
f 1 10 15
f 1 15 19
f 1 19 24
f 1 24 26
f 1 26 22
f 1 22 17
f 1 17 11
f 1 11 5
f 1 5 2
f 2 5 13
f 2 13 6
f 3 7 4
f 3 8 9
f 3 9 7
f 4 7 9
f 4 9 14
f 4 14 16
f 4 16 10
f 5 11 12
f 5 12 13
f 6 13 12
f 6 12 18
f 6 18 23
f 6 23 29
f 6 29 31
f 6 31 27
f 6 27 21
f 6 21 16
f 6 16 14
f 6 14 8
f 8 14 9
f 10 16 21
f 10 21 28
f 10 28 30
f 10 30 25
f 10 25 20
f 10 20 15
f 11 17 12
f 12 17 18
f 15 20 19
f 17 22 23
f 17 23 18
f 19 20 24
f 20 25 26
f 20 26 24
f 21 27 28
f 22 26 29
f 22 29 23
f 25 30 26
f 26 30 29
f 27 31 28
f 28 31 29
f 28 29 30

