# https://github.com/mikedh/trimesh
v -6.30653879 0.18901616 -1.47831417
v -6.39645956 0.18901616 -1.47831417
v -6.30653879 0.11843980 -1.47831417
v -6.30653879 0.52156949 -1.50403096
v -6.39645956 0.11843980 -1.47831417
v -6.39645956 0.52156949 -1.50403096
v -6.30653879 0.00889562 -1.57899138
v -6.30653879 0.57984018 -1.51044452
v -6.39645956 0.00889562 -1.57899138
v -6.39645956 0.57984018 -1.51044452
v -6.30653879 0.00889562 -1.60458304
v -6.30653879 0.61355997 -1.52136324
v -6.39645956 0.00889562 -1.60458304
v -6.39645956 0.61355997 -1.52136324
v -6.30653879 0.02482062 -1.61248268
v -6.30653879 0.62110022 -1.54345091
v -6.39645956 0.05546403 -1.62762494
v -6.39645956 0.62502112 -1.55497966
v -6.30653879 0.05546403 -1.62762494
v -6.30653879 0.62502112 -1.55497966
v -6.39645956 0.11373468 -1.63391334
v -6.30653879 0.07543051 -1.62978365
v -6.39645956 0.62453856 -1.56098651
v -6.30653879 0.62206535 -1.58964417
v -6.30653879 0.11373468 -1.63391334
v -6.39645956 0.17200542 -1.63787098
v -6.30653879 0.13370116 -1.63527425
v -6.39645956 0.62049700 -1.60774291
v -6.30653879 0.62049700 -1.60774291
v -6.39645956 0.23027615 -1.63812127
v -6.30653879 0.17200542 -1.63787098
v -6.39645956 0.57984018 -1.63474241
v -6.30653879 0.57984018 -1.63474241
v -6.30653879 0.23027615 -1.63812127
v -6.39645956 0.52156949 -1.63812127
v -6.39645956 0.57320481 -1.63513349
v -6.30653879 0.54153597 -1.63696368
v -6.30653879 0.52156949 -1.63812127
f 1 2 5
f 1 5 3
f 1 3 7
f 1 7 11
f 1 11 15
f 1 15 19
f 1 19 22
f 1 22 25
f 1 25 27
f 1 27 31
f 1 31 34
f 1 34 38
f 1 38 37
f 1 37 33
f 1 33 29
f 1 29 24
f 1 24 20
f 1 20 16
f 1 16 12
f 1 12 8
f 1 8 4
f 1 4 6
f 1 6 2
f 2 6 10
f 2 10 14
f 2 14 18
f 2 18 23
f 2 23 28
f 2 28 32
f 2 32 36
f 2 36 35
f 2 35 30
f 2 30 26
f 2 26 21
f 2 21 17
f 2 17 13
f 2 13 9
f 2 9 5
f 3 5 9
f 3 9 7
f 4 8 10
f 4 10 6
f 7 9 13
f 7 13 11
f 8 12 14
f 8 14 10
f 11 13 15
f 12 16 14
f 13 17 15
f 14 16 18
f 15 17 19
f 16 20 18
f 17 21 22
f 17 22 19
f 18 20 23
f 20 24 23
f 21 25 22
f 21 26 27
f 21 27 25
f 23 24 28
f 24 29 28
f 26 30 34
f 26 34 31
f 26 31 27
f 28 29 33
f 28 33 32
f 30 35 38
f 30 38 34
f 32 33 36
f 33 37 36
f 35 36 38
f 36 37 38

