# https://github.com/mikedh/trimesh
v -4.92445923 2.02517906 -0.27571504
v -4.93432956 2.02517906 -0.27245471
v -5.00459570 2.04328604 -0.33168484
v -4.96471760 2.05710783 -0.33168484
v -4.96442001 2.05721723 -0.33168484
v -4.95129264 2.09494459 -0.33168484
v -4.92445923 2.03849036 -0.27633606
v -4.92445923 2.02517906 -0.05501873
v -4.98769875 2.02517906 -0.19618517
v -5.06284219 2.05101749 -0.33168484
v -5.00504210 2.04334075 -0.33168484
v -4.95130916 2.09540045 -0.33168484
v -4.92445923 2.07550648 -0.27563742
v -4.92445923 2.03666690 -0.05501873
v -4.95562434 2.02517906 0.06480009
v -5.05622889 2.02517906 -0.09037829
v -5.09256889 2.06494868 -0.33168484
v -5.09276729 2.02517906 -0.02932383
v -4.95421900 2.15320404 -0.33168484
v -4.95425208 2.15364167 -0.33168484
v -4.92445923 2.09299349 -0.27206657
v -4.92445923 2.09751566 -0.09270710
v -4.95932778 2.21144525 0.06480009
v -4.95575661 2.09494459 0.06480009
v -4.95562434 2.03666690 0.06480009
v -5.08679879 2.02517906 0.06480009
v -5.09327982 2.09470754 -0.33168484
v -5.09270115 2.02517906 -0.00269758
v -5.09334595 2.09494459 -0.03992019
v -4.95929471 2.21144525 -0.33168484
v -4.92445923 2.11244975 -0.21590279
v -4.92445923 2.11883184 -0.15643978
v -5.08342603 2.21144525 0.06480009
v -4.95903018 2.21144525 -0.09821880
v -5.08679879 2.08119566 0.06480009
v -5.09327982 2.09494459 -0.33125798
v -5.09271768 2.12800381 -0.33168484
v -5.09270115 2.09494459 -0.00269758
v -5.09246969 2.12685504 -0.00541453
v -5.09270115 2.12825910 -0.03992019
v -5.08342603 2.21144525 -0.33168484
v -4.95899710 2.21144525 -0.21469949
v -4.92445923 2.11864949 -0.15950596
v -4.92445923 2.11266856 -0.21469949
v -4.95893098 2.21144525 -0.15643978
v -5.08426923 2.19931919 0.06480009
v -5.08678226 2.09494459 0.06480009
v -5.09270115 2.12825910 -0.33125798
v -5.09266808 2.12847791 -0.33168484
v -5.08588948 2.13945510 0.06480009
f 1 2 3
f 1 3 4
f 1 4 5
f 1 5 6
f 1 6 7
f 1 7 13
f 1 13 21
f 1 21 31
f 1 31 44
f 1 44 43
f 1 43 32
f 1 32 22
f 1 22 14
f 1 14 8
f 1 8 15
f 1 15 26
f 1 26 28
f 1 28 18
f 1 18 16
f 1 16 9
f 1 9 2
f 2 9 10
f 2 10 11
f 2 11 3
f 3 11 10
f 3 10 17
f 3 17 27
f 3 27 37
f 3 37 49
f 3 49 41
f 3 41 30
f 3 30 20
f 3 20 19
f 3 19 12
f 3 12 6
f 3 6 5
f 3 5 4
f 6 12 13
f 6 13 7
f 8 14 25
f 8 25 15
f 9 16 10
f 10 16 18
f 10 18 17
f 12 19 13
f 13 19 20
f 13 20 21
f 14 22 23
f 14 23 24
f 14 24 25
f 15 25 24
f 15 24 23
f 15 23 33
f 15 33 46
f 15 46 50
f 15 50 47
f 15 47 35
f 15 35 26
f 17 18 27
f 18 28 29
f 18 29 27
f 20 30 21
f 21 30 31
f 22 32 23
f 23 32 34
f 23 34 45
f 23 45 42
f 23 42 30
f 23 30 41
f 23 41 33
f 26 35 38
f 26 38 28
f 27 36 37
f 27 29 36
f 28 38 29
f 29 38 39
f 29 39 40
f 29 40 37
f 29 37 36
f 30 42 32
f 30 32 43
f 30 43 44
f 30 44 31
f 32 45 34
f 32 42 45
f 33 41 48
f 33 48 40
f 33 40 39
f 33 39 46
f 35 47 38
f 37 48 49
f 37 40 48
f 38 47 39
f 39 47 50
f 39 50 46
f 41 49 48

