# https://github.com/mikedh/trimesh
v -6.73338250 0.72740499 -3.01501657
v -6.63819055 0.63812759 -3.12557520
v -6.63819055 0.72740499 -3.12608933
v -6.73338250 0.72740499 -3.20241027
v -6.73338250 0.46352512 -3.01501657
v -6.63819055 0.46352512 -3.12557520
v -6.63819055 0.72740499 -3.20873227
v -6.69445218 0.72740499 -3.20953198
v -6.73338250 0.46352512 -3.18862374
v -6.63819055 0.46352512 -3.19048991
v -6.63819055 0.52162263 -3.19521231
v -6.69463852 0.46352512 -3.19365091
f 1 2 3
f 1 3 7
f 1 7 8
f 1 8 4
f 1 4 9
f 1 9 5
f 1 5 6
f 1 6 2
f 2 6 10
f 2 10 11
f 2 11 7
f 2 7 3
f 4 8 9
f 5 9 12
f 5 12 10
f 5 10 6
f 7 11 12
f 7 12 8
f 8 12 9
f 10 12 11

