# https://github.com/mikedh/trimesh
v -6.35130302 0.92535818 -3.66798658
v -6.39665337 0.92535818 -3.63847458
v -6.33058520 0.91028755 -3.66798658
v -6.52439311 0.92535818 -3.66798658
v -6.46943672 0.92535818 -3.63847458
v -6.33058520 0.85156959 -3.63847458
v -6.33058520 0.76229527 -3.66798658
v -6.63819055 0.89879300 -3.66798658
v -6.52472437 0.92535818 -3.66794611
v -6.63819055 0.84773808 -3.63847458
v -6.33058520 0.76832990 -3.63847458
v -6.40312768 0.76801063 -3.63847458
v -6.40312768 0.76227934 -3.66798658
v -6.63819055 0.76229527 -3.66798658
v -6.63819055 0.76832990 -3.63847458
v -6.50536163 0.76801063 -3.63847458
v -6.47717581 0.76227934 -3.66798658
f 1 2 3
f 1 3 7
f 1 7 13
f 1 13 17
f 1 17 14
f 1 14 8
f 1 8 4
f 1 4 9
f 1 9 5
f 1 5 2
f 2 5 10
f 2 10 15
f 2 15 16
f 2 16 12
f 2 12 11
f 2 11 6
f 2 6 3
f 3 6 11
f 3 11 7
f 4 8 9
f 5 9 8
f 5 8 10
f 7 11 12
f 7 12 13
f 8 14 15
f 8 15 10
f 12 16 17
f 12 17 13
f 14 17 16
f 14 16 15

