# https://github.com/mikedh/trimesh
v -5.09320222 0.52166826 -1.33002723
v -5.09320222 0.52166826 -1.34568489
v -5.17261935 0.52166826 -1.33002723
v -5.09320222 0.19376452 -1.33002723
v -5.13805451 0.52166826 -1.42369347
v -5.09320222 0.49664226 -1.34568489
v -5.21641033 0.52166826 -1.41179300
v -5.21641033 0.18373830 -1.33002723
v -5.13506355 0.13238375 -1.33002723
v -5.14262536 0.13676525 -1.38016310
v -5.14901733 0.14162050 -1.41123381
v -5.14524246 0.17201479 -1.41689572
v -5.09320222 0.21085645 -1.33556680
v -5.16305553 0.52166826 -1.45282437
v -5.09320222 0.28853968 -1.34566735
v -5.14209472 0.23027720 -1.42157896
v -5.16367061 0.23027720 -1.45070990
v -5.21639827 0.52166826 -1.50853485
v -5.21641033 0.52158929 -1.50851735
v -5.21641033 0.11844970 -1.33002723
v -5.14018919 0.13064696 -1.33002723
v -5.17939725 0.12433121 -1.38016310
v -5.18203845 0.13479158 -1.43375911
v -5.20322842 0.13897580 -1.47262361
v -5.16755402 0.17201479 -1.44600912
v -5.09320222 0.23027720 -1.34184035
v -5.19220529 0.52166826 -1.48363289
v -5.19280831 0.23027720 -1.48263680
v -5.09320222 0.26390838 -1.34405967
v -5.19669173 0.17201479 -1.47891466
v -5.21641033 0.23027720 -1.50608833
v -5.21641033 0.11844970 -1.35889598
v -5.18751384 0.11904180 -1.33002723
v -5.17939725 0.11994971 -1.33002723
v -5.21641033 0.12239704 -1.41717532
v -5.21641033 0.12646274 -1.43664251
v -5.21641033 0.14955461 -1.48758227
v -5.21641033 0.13696262 -1.47760403
v -5.21641033 0.16929116 -1.49464216
v -5.21641033 0.21717212 -1.50437576
f 1 2 5
f 1 5 14
f 1 14 27
f 1 27 18
f 1 18 7
f 1 7 3
f 1 3 8
f 1 8 20
f 1 20 33
f 1 33 34
f 1 34 21
f 1 21 9
f 1 9 4
f 1 4 13
f 1 13 26
f 1 26 29
f 1 29 15
f 1 15 6
f 1 6 2
f 2 6 5
f 3 7 8
f 4 9 10
f 4 10 11
f 4 11 12
f 4 12 13
f 5 6 15
f 5 15 16
f 5 16 17
f 5 17 14
f 7 18 19
f 7 19 31
f 7 31 40
f 7 40 39
f 7 39 37
f 7 37 38
f 7 38 36
f 7 36 35
f 7 35 32
f 7 32 20
f 7 20 8
f 9 21 10
f 10 21 22
f 10 22 23
f 10 23 11
f 11 23 24
f 11 24 25
f 11 25 12
f 12 25 17
f 12 17 16
f 12 16 26
f 12 26 13
f 14 17 28
f 14 28 27
f 15 29 16
f 16 29 26
f 17 25 30
f 17 30 28
f 18 27 28
f 18 28 31
f 18 31 19
f 20 32 33
f 21 34 22
f 22 34 35
f 22 35 23
f 23 35 36
f 23 36 24
f 24 37 30
f 24 30 25
f 24 36 38
f 24 38 37
f 28 30 31
f 30 37 39
f 30 39 40
f 30 40 31
f 32 35 33
f 33 35 34

