# https://github.com/mikedh/trimesh
v -5.08253510 2.21156595 -2.54516656
v -5.08342154 2.21156595 -2.54560159
v -5.08342154 2.21147399 -2.54516656
v -4.95929220 2.21147399 -2.54516656
v -4.95929220 2.21156595 -2.54569224
v -5.08342154 2.21156595 -2.73034867
v -5.09270802 2.12825241 -2.54516656
v -4.95924997 2.21103749 -2.54516656
v -4.95429719 2.15320508 -2.54516656
v -4.95929220 2.21156595 -2.66221048
v -4.95932033 2.21156595 -2.73034867
v -5.08608085 2.14996541 -2.73034867
v -5.09246883 2.12682786 -2.69402281
v -5.09270802 2.12822949 -2.66211987
v -5.09270802 2.12825241 -2.60386073
v -5.09342562 2.09491324 -2.66211987
v -5.09328491 2.09491324 -2.54516656
v -4.95428310 2.15276858 -2.54516656
v -4.94968207 2.09491324 -2.66211987
v -4.95429719 2.15320508 -2.66211987
v -4.95723790 2.16315402 -2.73034867
v -5.08724869 2.09491324 -2.73034867
v -5.09269396 2.09491324 -2.69540043
v -5.09342562 1.97685900 -2.66211987
v -5.09270802 1.97685900 -2.63172142
v -5.09256731 2.06506651 -2.54516656
v -4.95276349 2.09491324 -2.54560159
v -4.95286200 2.09466048 -2.54516656
v -4.95047002 1.97685900 -2.66211987
v -4.95431126 1.97685900 -2.72039712
v -4.95431126 2.09491324 -2.72039712
v -4.95516954 2.10486218 -2.73034867
v -5.08724869 1.97685900 -2.73034867
v -5.09269396 1.97685900 -2.69540043
v -5.06365258 1.97685900 -2.61569747
v -5.09235626 2.06476781 -2.54516656
v -4.96582086 2.05626643 -2.54516656
v -4.96351332 1.97685900 -2.62082732
v -4.95516954 1.97685900 -2.73034867
v -5.06285057 1.97685900 -2.61526240
v -5.06285057 2.04967213 -2.54516656
v -5.00459898 2.04107888 -2.54516656
v -5.00459898 1.97685900 -2.60436826
v -5.00614672 1.97685900 -2.60464017
f 1 2 3
f 1 3 7
f 1 7 17
f 1 17 26
f 1 26 36
f 1 36 41
f 1 41 42
f 1 42 37
f 1 37 28
f 1 28 18
f 1 18 9
f 1 9 8
f 1 8 4
f 1 4 5
f 1 5 10
f 1 10 11
f 1 11 6
f 1 6 2
f 2 6 15
f 2 15 7
f 2 7 3
f 4 8 5
f 5 8 9
f 5 9 20
f 5 20 10
f 6 11 21
f 6 21 32
f 6 32 39
f 6 39 33
f 6 33 22
f 6 22 12
f 6 12 13
f 6 13 14
f 6 14 15
f 7 15 16
f 7 16 17
f 9 18 19
f 9 19 20
f 10 20 11
f 11 20 19
f 11 19 21
f 12 22 13
f 13 22 23
f 13 23 16
f 13 16 14
f 14 16 15
f 16 23 34
f 16 34 24
f 16 24 17
f 17 24 25
f 17 25 26
f 18 27 19
f 18 28 27
f 19 27 29
f 19 29 30
f 19 30 31
f 19 31 32
f 19 32 21
f 22 33 34
f 22 34 23
f 24 34 33
f 24 33 39
f 24 39 30
f 24 30 29
f 24 29 38
f 24 38 43
f 24 43 44
f 24 44 40
f 24 40 35
f 24 35 25
f 25 35 36
f 25 36 26
f 27 28 29
f 28 37 38
f 28 38 29
f 30 39 32
f 30 32 31
f 35 40 36
f 36 40 41
f 37 42 43
f 37 43 38
f 40 44 41
f 41 44 43
f 41 43 42

