# https://github.com/mikedh/trimesh
v -5.51091896 0.90684639 -3.66798935
v -5.51668594 0.90684639 -3.60367395
v -5.51495096 0.88041047 -3.60367395
v -5.51045467 0.89669941 -3.66798935
v -5.64817822 0.90684639 -3.66798935
v -5.59830353 0.90684639 -3.60367395
v -5.51453554 0.87121171 -3.60367395
v -5.51045467 0.87121171 -3.66798935
v -5.76004804 0.90180827 -3.66798935
v -5.68935355 0.85725786 -3.60367395
v -5.51546414 0.81297631 -3.66798935
v -5.51890964 0.82217507 -3.60367395
v -5.76004804 0.76228390 -3.66798935
v -5.76004804 0.83280321 -3.62000620
v -5.75931497 0.83280321 -3.61972921
v -5.76004804 0.81560856 -3.61972921
v -5.68935355 0.76875138 -3.60367395
v -5.51976493 0.81297631 -3.60367395
v -5.53865426 0.77001087 -3.66798935
v -5.68937799 0.76228390 -3.66798935
v -5.76004804 0.76855323 -3.61972921
v -5.58733159 0.76875138 -3.60367395
v -5.54295507 0.77629436 -3.60367395
v -5.54994387 0.77506314 -3.60367395
v -5.58733159 0.76229805 -3.66798935
f 1 2 3
f 1 3 4
f 1 4 8
f 1 8 11
f 1 11 19
f 1 19 25
f 1 25 20
f 1 20 13
f 1 13 9
f 1 9 5
f 1 5 6
f 1 6 2
f 2 6 10
f 2 10 17
f 2 17 22
f 2 22 24
f 2 24 23
f 2 23 18
f 2 18 12
f 2 12 7
f 2 7 3
f 3 7 4
f 4 7 8
f 5 9 6
f 6 9 10
f 7 11 8
f 7 12 11
f 9 13 21
f 9 21 16
f 9 16 14
f 9 14 10
f 10 14 15
f 10 15 16
f 10 16 21
f 10 21 17
f 11 12 18
f 11 18 19
f 13 20 22
f 13 22 17
f 13 17 21
f 14 16 15
f 18 23 19
f 19 23 24
f 19 24 22
f 19 22 25
f 20 25 22

