# https://github.com/mikedh/trimesh
v -4.77304923 2.08896123 -2.30204033
v -4.71321749 2.09579840 -2.37079187
v -4.78322858 2.08812157 -2.30204033
v -4.72423380 2.08596243 -2.30204033
v -4.65284283 2.08800157 -2.42966344
v -4.65496920 2.09495874 -2.48731023
v -4.77451959 2.08884123 -2.31349892
v -4.71443903 2.08680208 -2.42691447
v -4.75610634 2.08188414 -2.37079187
v -4.79444842 2.08116448 -2.30204033
v -4.71828452 2.08332354 -2.30204033
v -4.71290081 2.08500285 -2.31624790
v -4.60988616 2.08368346 -2.48731023
v -4.60812170 2.08272380 -2.54558300
v -4.63126268 2.07324774 -2.57829851
v -4.65239044 2.08008491 -2.54033002
v -4.69333389 2.07708620 -2.48731023
v -4.74590442 2.07240808 -2.40606583
v -4.80433367 2.06784997 -2.30204033
v -4.70086658 2.03666291 -2.30204033
v -4.68206881 2.06988911 -2.33813081
v -4.67265857 2.07960508 -2.37079187
v -4.62081195 2.07444723 -2.44945061
v -4.59391591 2.03666291 -2.48731023
v -4.59040971 2.03666291 -2.54558300
v -4.61845939 2.07324774 -2.57829851
v -4.68464756 2.06689031 -2.51738563
v -4.63397720 2.03666291 -2.58009487
v -4.66311266 2.03666291 -2.54699831
v -4.80951380 2.03666291 -2.30204033
v -4.69785805 2.03666291 -2.30723888
v -4.69790329 0.98769774 -2.30204033
v -4.61884392 1.02704146 -2.39022520
v -4.61827843 2.03666291 -2.44509581
v -4.59746735 0.98781770 -2.42906467
v -4.57844338 0.98781770 -2.48731023
v -4.61477219 2.03666291 -2.58009487
v -4.59022876 0.98781770 -2.54558300
v -4.74775931 1.02524218 -2.46806742
v -4.63513084 1.04611353 -2.58009487
v -4.66426629 0.98781770 -2.55712325
v -4.69717943 0.98781770 -2.52800048
v -4.80951380 0.87038638 -2.30204033
v -4.70086658 0.87038638 -2.30204033
v -4.62029166 0.98781770 -2.39223932
v -4.61843677 0.87038638 -2.44466033
v -4.59382543 0.87038638 -2.48731023
v -4.59045495 0.87038638 -2.54471204
v -4.59040971 0.87038638 -2.54558300
v -4.61477219 0.87038638 -2.58009487
v -4.74775931 0.99933294 -2.46806742
v -4.63513084 0.98781770 -2.58009487
v -4.63397720 0.87038638 -2.58009487
v -4.66268284 0.87038638 -2.54748825
v -4.66311266 0.87038638 -2.54699831
v -4.79777366 0.87038638 -2.32239907
v -4.68494162 0.87038638 -2.51787553
v -4.70235955 0.87038638 -2.48774571
v -4.73090686 0.87038638 -2.43831864
f 1 2 3
f 1 3 10
f 1 10 19
f 1 19 30
f 1 30 43
f 1 43 44
f 1 44 32
f 1 32 20
f 1 20 11
f 1 11 4
f 1 4 2
f 2 4 5
f 2 5 6
f 2 6 7
f 2 7 3
f 3 7 8
f 3 8 9
f 3 9 10
f 4 11 12
f 4 12 5
f 5 12 13
f 5 13 6
f 6 13 14
f 6 14 15
f 6 15 16
f 6 16 8
f 6 8 7
f 8 16 17
f 8 17 9
f 9 17 18
f 9 18 10
f 10 18 19
f 11 13 12
f 11 20 21
f 11 21 22
f 11 22 13
f 13 22 23
f 13 23 24
f 13 24 25
f 13 25 14
f 14 26 15
f 14 25 26
f 15 27 16
f 15 26 37
f 15 37 28
f 15 28 29
f 15 29 27
f 16 27 17
f 17 27 18
f 18 27 30
f 18 30 19
f 20 31 21
f 20 32 33
f 20 33 31
f 21 23 22
f 21 31 34
f 21 34 24
f 21 24 23
f 24 34 33
f 24 33 35
f 24 35 36
f 24 36 25
f 25 37 26
f 25 36 38
f 25 38 37
f 27 29 39
f 27 39 30
f 28 37 50
f 28 50 53
f 28 53 52
f 28 52 40
f 28 40 41
f 28 41 42
f 28 42 29
f 29 42 39
f 30 39 51
f 30 51 43
f 31 33 34
f 32 44 33
f 33 44 45
f 33 45 35
f 35 45 44
f 35 44 46
f 35 46 47
f 35 47 36
f 36 47 48
f 36 48 49
f 36 49 38
f 37 38 50
f 38 49 50
f 39 42 51
f 40 52 41
f 41 52 53
f 41 53 42
f 42 53 54
f 42 54 55
f 42 55 51
f 43 51 56
f 43 56 59
f 43 59 58
f 43 58 57
f 43 57 55
f 43 55 54
f 43 54 53
f 43 53 50
f 43 50 49
f 43 49 48
f 43 48 47
f 43 47 46
f 43 46 44
f 51 55 57
f 51 57 58
f 51 58 59
f 51 59 56

