# https://github.com/mikedh/trimesh
v -6.73338250 1.04294799 -3.50921008
v -6.68797779 0.95732516 -3.50921008
v -6.68797779 1.07896345 -3.65995122
v -6.73338250 1.07896345 -3.57607328
v -6.73338250 0.77305135 -3.50921008
v -6.68797779 0.76885471 -3.50921008
v -6.68797779 1.07896345 -3.67650732
v -6.73338250 1.07896345 -3.67650732
v -6.73338250 0.76719489 -3.67650732
v -6.69446226 0.75902095 -3.67650732
v -6.69446226 0.76885471 -3.50921008
v -6.68797779 0.75902095 -3.67650732
f 1 2 3
f 1 3 4
f 1 4 8
f 1 8 9
f 1 9 5
f 1 5 11
f 1 11 6
f 1 6 2
f 2 6 12
f 2 12 7
f 2 7 3
f 3 7 8
f 3 8 4
f 5 9 10
f 5 10 11
f 6 11 10
f 6 10 12
f 7 12 10
f 7 10 9
f 7 9 8

