# https://github.com/mikedh/trimesh
v -5.08343328 2.21156595 -2.73034867
v -5.08343328 2.44456267 -2.73034867
v -4.95932628 2.21156595 -2.73034867
v -5.08343328 2.21156595 -2.41358361
v -5.05855826 2.50047820 -2.73034867
v -5.08343328 2.44456267 -2.41358361
v -4.95932628 2.22148198 -2.73034867
v -4.95892410 2.21187203 -2.02154686
v -4.95930192 2.21156595 -2.66211618
v -4.95928972 2.21156595 -2.41358361
v -5.08343328 2.21187203 -1.91315881
v -5.00459127 2.52419717 -2.73034867
v -5.05855826 2.50047820 -2.41358361
v -5.00459127 2.52422773 -2.41350362
v -5.08343328 2.44453202 -1.91315881
v -5.06220237 2.49227595 -1.91315881
v -4.95935066 2.44456267 -2.73034867
v -4.95933848 2.44453202 -2.41350362
v -4.95892410 2.21187203 -2.02122689
v -4.95928972 2.21156595 -2.60388261
v -4.95902159 2.21187203 -1.96291332
v -4.95918003 2.21187203 -1.91315881
v -4.99825368 2.51963697 -2.73034867
v -5.05855826 2.50044755 -1.91315881
v -5.05067285 2.50393651 -1.91315881
v -5.00459127 2.52422773 -1.91315881
v -4.97729091 2.50454867 -2.41358361
v -4.96740670 2.49741766 -2.73034867
v -4.96739452 2.49738701 -2.41350362
v -4.95933848 2.44453202 -1.91315881
v -4.96739452 2.49738701 -1.91315881
v -4.96740670 2.49741766 -2.41358361
f 1 2 5
f 1 5 12
f 1 12 23
f 1 23 28
f 1 28 17
f 1 17 7
f 1 7 3
f 1 3 9
f 1 9 20
f 1 20 10
f 1 10 4
f 1 4 11
f 1 11 15
f 1 15 6
f 1 6 2
f 2 6 13
f 2 13 5
f 3 7 8
f 3 8 9
f 4 10 22
f 4 22 11
f 5 13 26
f 5 26 14
f 5 14 12
f 6 15 16
f 6 16 13
f 7 17 8
f 8 18 30
f 8 30 19
f 8 19 10
f 8 10 20
f 8 20 9
f 8 17 18
f 10 19 21
f 10 21 22
f 11 22 30
f 11 30 31
f 11 31 26
f 11 26 25
f 11 25 24
f 11 24 16
f 11 16 15
f 12 14 23
f 13 16 24
f 13 24 25
f 13 25 26
f 14 26 27
f 14 27 28
f 14 28 23
f 17 28 29
f 17 29 18
f 18 29 31
f 18 31 30
f 19 30 21
f 21 30 22
f 26 31 32
f 26 32 27
f 27 32 28
f 28 32 31
f 28 31 29

