# https://github.com/mikedh/trimesh
v -5.82976864 0.76227977 -3.66798935
v -5.82038210 0.76227977 -3.66798935
v -5.82976864 0.76792627 -3.61972608
v -5.82976864 1.01199627 -3.66798935
v -5.76008620 0.76230421 -3.66798935
v -5.82038210 0.76792627 -3.61972608
v -5.82976864 0.88281148 -3.61972608
v -5.82976864 1.01199627 -3.64884465
v -5.79240003 1.01199627 -3.66798935
v -5.76008620 0.76853734 -3.61972608
v -5.76008620 0.90180421 -3.66798935
v -5.82180783 0.87870493 -3.61972608
v -5.82836336 1.01199627 -3.64948720
v -5.81601632 0.87569836 -3.61972608
v -5.76008620 0.83279973 -3.62000481
v -5.82256504 1.01199627 -3.65215674
v -5.76008620 0.81561585 -3.61972608
v -5.76211901 0.83279973 -3.61972608
f 1 2 6
f 1 6 3
f 1 3 7
f 1 7 8
f 1 8 4
f 1 4 9
f 1 9 11
f 1 11 5
f 1 5 2
f 2 5 6
f 3 6 10
f 3 10 17
f 3 17 18
f 3 18 14
f 3 14 12
f 3 12 7
f 4 8 13
f 4 13 16
f 4 16 9
f 5 10 6
f 5 11 15
f 5 15 17
f 5 17 10
f 7 12 8
f 8 12 14
f 8 14 15
f 8 15 13
f 9 16 15
f 9 15 11
f 13 15 16
f 14 18 15
f 15 18 17

