# https://github.com/mikedh/trimesh
v -5.00459859 2.52422756 -0.58148626
v -5.00459859 2.52422756 -0.73846361
v -5.05923596 2.50049278 -0.73846361
v -5.05857463 2.50049278 -0.58148626
v -4.96739506 2.49742851 -0.58148626
v -4.96739506 2.49742851 -0.73846361
v -5.08484503 2.44455763 -0.73846361
v -5.08342386 2.44455763 -0.58148626
v -4.96171042 2.46008652 -0.58148626
v -4.95934651 2.44455763 -0.73846361
v -5.09573591 2.09497619 -0.73846361
v -5.09271067 2.12826717 -0.58148626
v -4.95934651 2.44455763 -0.58148626
v -4.95198742 2.09497619 -0.73846361
v -5.09370971 2.04439045 -0.73846361
v -5.09256996 2.06495710 -0.58148626
v -5.09328758 2.09497619 -0.58148626
v -4.95276132 2.09497619 -0.58148626
v -4.96334265 2.03940460 -0.73846361
v -5.06285217 2.01156688 -0.73846361
v -5.06285217 2.05103824 -0.58148626
v -4.96197775 2.06833292 -0.58148626
v -4.96581912 2.05727063 -0.58148626
v -5.00459859 1.99364893 -0.73846361
v -5.02172288 2.04558498 -0.58148626
v -4.97721658 2.05316769 -0.58148626
v -5.00459859 2.04335177 -0.58148626
f 1 2 3
f 1 3 4
f 1 4 8
f 1 8 12
f 1 12 17
f 1 17 16
f 1 16 21
f 1 21 25
f 1 25 27
f 1 27 26
f 1 26 23
f 1 23 22
f 1 22 18
f 1 18 13
f 1 13 9
f 1 9 5
f 1 5 6
f 1 6 2
f 2 6 10
f 2 10 14
f 2 14 19
f 2 19 24
f 2 24 20
f 2 20 15
f 2 15 11
f 2 11 7
f 2 7 3
f 3 7 4
f 4 7 8
f 5 9 6
f 6 9 10
f 7 11 8
f 8 11 12
f 9 13 10
f 10 13 14
f 11 15 16
f 11 16 17
f 11 17 12
f 13 18 14
f 14 18 19
f 15 20 16
f 16 20 21
f 18 22 19
f 19 22 23
f 19 23 24
f 20 24 21
f 21 24 25
f 23 26 24
f 24 26 27
f 24 27 25

