# https://github.com/mikedh/trimesh
v -5.92652008 0.34938627 -0.03862432
v -5.92652008 0.34678863 -0.03825251
v -5.92652008 0.34938627 0.10239711
v -5.88123841 0.34938627 -0.03680277
v -5.92652008 0.33766363 -0.03525996
v -5.87863491 0.34678863 -0.03631947
v -5.88442590 0.30078288 -0.02150556
v -5.92652008 0.30078288 0.05236014
v -5.78310792 0.30078288 0.15126291
v -5.81736724 0.34938627 0.15126291
v -5.87863491 0.34938627 -0.03669128
v -5.92652008 0.30078288 -0.02291813
v -5.87863491 0.30078288 -0.02126382
v -5.81678326 0.34938627 -0.02453527
v -5.81636964 0.34272562 -0.02330852
v -5.83310994 0.30551665 -0.01592926
v -5.85508166 0.30078288 -0.01771364
v -5.70259369 0.30078288 0.15126291
v -5.67843214 0.34938627 0.15126291
v -5.80269508 0.34938627 -0.02039030
v -5.79427627 0.32059818 -0.00918213
v -5.82880321 0.30078288 -0.01193312
v -5.70145008 0.30078288 0.13488760
v -5.68354185 0.33619826 0.13488760
v -5.69164433 0.32246314 0.15126291
v -5.67923511 0.34743569 0.15126291
v -5.67794550 0.34938627 0.13488760
v -5.77026069 0.34938627 -0.00388474
v -5.77298584 0.30078288 0.01730467
v -5.80731814 0.30078288 -0.00395906
v -5.76245014 0.34272562 0.00412631
v -5.72960209 0.31247226 0.04384722
v -5.74782669 0.30078288 0.03626373
v -5.71721714 0.30078288 0.08007387
v -5.69310426 0.34938627 0.08068724
v -5.76089291 0.34938627 0.00371733
v -5.72220520 0.34678863 0.03579901
v -5.72536833 0.30078288 0.06379129
v -5.69502649 0.34938627 0.07722997
v -5.69332325 0.34938627 0.07998078
v -5.72334881 0.34938627 0.03421903
v -5.72193755 0.34938627 0.03552011
f 1 2 5
f 1 5 12
f 1 12 8
f 1 8 3
f 1 3 10
f 1 10 19
f 1 19 27
f 1 27 35
f 1 35 40
f 1 40 39
f 1 39 42
f 1 42 41
f 1 41 36
f 1 36 28
f 1 28 20
f 1 20 14
f 1 14 11
f 1 11 4
f 1 4 2
f 2 4 6
f 2 6 7
f 2 7 5
f 3 8 9
f 3 9 10
f 4 11 6
f 5 7 12
f 6 13 7
f 6 11 14
f 6 14 15
f 6 15 16
f 6 16 17
f 6 17 13
f 7 13 17
f 7 17 22
f 7 22 30
f 7 30 29
f 7 29 33
f 7 33 38
f 7 38 34
f 7 34 23
f 7 23 18
f 7 18 9
f 7 9 8
f 7 8 12
f 9 18 25
f 9 25 26
f 9 26 19
f 9 19 10
f 14 20 15
f 15 20 21
f 15 21 16
f 16 22 17
f 16 21 22
f 18 23 24
f 18 24 25
f 19 26 27
f 20 28 21
f 21 29 30
f 21 30 22
f 21 28 31
f 21 31 32
f 21 32 33
f 21 33 29
f 23 34 24
f 24 35 27
f 24 27 26
f 24 26 25
f 24 34 35
f 28 36 31
f 31 36 37
f 31 37 32
f 32 38 33
f 32 37 39
f 32 39 40
f 32 40 38
f 34 38 40
f 34 40 35
f 36 41 37
f 37 41 42
f 37 42 39

