# https://github.com/mikedh/trimesh
v -4.76871197 2.08938392 -0.39918564
v -4.71320971 2.09514100 -0.50610292
v -4.77527971 2.08926401 -0.45014181
v -4.81657673 2.08410667 -0.39918564
v -4.75654675 2.08818461 -0.39918564
v -4.65362748 2.08698521 -0.56625573
v -4.65497089 2.09574066 -0.62262356
v -4.71522481 2.08782478 -0.56353426
v -4.75801455 2.08338701 -0.50610292
v -4.82237328 2.08098822 -0.39918564
v -4.74127181 2.08086830 -0.39918564
v -4.71365750 2.08326710 -0.45289453
v -4.73338554 2.07822968 -0.40318960
v -4.61178311 2.08206770 -0.62262356
v -4.60626022 2.08482633 -0.68089942
v -4.63389940 2.07631062 -0.71580867
v -4.65397576 2.08326710 -0.67695798
v -4.69524795 2.07930908 -0.62262356
v -4.80846661 2.07739011 -0.43228064
v -4.83595653 2.03577141 -0.39918564
v -4.73472895 2.07367200 -0.39918564
v -4.68335638 2.06731526 -0.47566687
v -4.62208250 2.07271251 -0.58696357
v -4.59775207 2.03661099 -0.62262356
v -4.58668144 2.03661099 -0.68089942
v -4.61469378 2.07631062 -0.71580867
v -4.68594369 2.06947415 -0.65490512
v -4.63795450 2.03661099 -0.71871768
v -4.66708635 2.03661099 -0.68562286
v -4.74719269 2.07427165 -0.54360842
v -4.68683927 2.03661099 -0.65650038
v -4.74873512 1.02684832 -0.60554422
v -4.83595653 2.01981958 -0.39918564
v -4.73107192 2.05676068 -0.39918564
v -4.72674317 2.03661099 -0.39918564
v -4.61999274 1.02552901 -0.52765528
v -4.60521538 0.98331066 -0.55924880
v -4.58180540 0.98786830 -0.62262356
v -4.60914605 2.03661099 -0.71871768
v -4.58650730 0.98786830 -0.68089942
v -4.64026812 1.04615844 -0.71871768
v -4.66942485 0.98786830 -0.69582031
v -4.70007425 0.98786830 -0.66666675
v -4.72918122 0.98786830 -0.63222674
v -4.74744146 0.98786830 -0.60307300
v -4.83535944 0.87044846 -0.39918564
v -4.72651928 0.98786830 -0.39918564
v -4.61999274 0.99974224 -0.52765528
v -4.72674317 0.87044846 -0.39918564
v -4.62034102 0.87044846 -0.58330363
v -4.59800084 0.87044846 -0.62209163
v -4.59770227 0.87044846 -0.62262356
v -4.58688046 0.87044846 -0.68008616
v -4.58673120 0.87044846 -0.68089942
v -4.60914605 0.87044846 -0.71871768
v -4.64026812 0.98786830 -0.71871768
v -4.63795450 0.87044846 -0.71871768
v -4.66708635 0.87044846 -0.68562286
v -4.68691390 0.87044846 -0.65650038
v -4.81214852 0.87044846 -0.43944386
v -4.72651928 0.93437571 -0.39918564
v -4.72666854 0.87584571 -0.39918564
f 1 2 3
f 1 3 4
f 1 4 10
f 1 10 20
f 1 20 33
f 1 33 46
f 1 46 49
f 1 49 62
f 1 62 61
f 1 61 47
f 1 47 35
f 1 35 34
f 1 34 21
f 1 21 11
f 1 11 5
f 1 5 2
f 2 5 6
f 2 6 7
f 2 7 3
f 3 7 8
f 3 8 4
f 4 9 10
f 4 8 9
f 5 11 12
f 5 12 6
f 6 12 13
f 6 13 14
f 6 14 7
f 7 14 15
f 7 15 16
f 7 16 17
f 7 17 8
f 8 17 18
f 8 18 9
f 9 18 19
f 9 19 10
f 10 19 20
f 11 21 13
f 11 13 12
f 13 21 22
f 13 22 23
f 13 23 14
f 14 23 24
f 14 24 25
f 14 25 15
f 15 26 16
f 15 25 26
f 16 27 17
f 16 26 39
f 16 39 28
f 16 28 29
f 16 29 27
f 17 27 18
f 18 27 30
f 18 30 19
f 19 30 20
f 20 31 32
f 20 32 33
f 20 30 27
f 20 27 31
f 21 34 22
f 22 24 23
f 22 34 35
f 22 35 36
f 22 36 24
f 24 36 37
f 24 37 38
f 24 38 25
f 25 39 26
f 25 38 40
f 25 40 39
f 27 29 31
f 28 39 55
f 28 55 57
f 28 57 56
f 28 56 41
f 28 41 42
f 28 42 43
f 28 43 29
f 29 43 44
f 29 44 32
f 29 32 31
f 32 44 45
f 32 45 46
f 32 46 33
f 35 47 36
f 36 47 61
f 36 61 48
f 36 48 37
f 37 48 49
f 37 49 50
f 37 50 51
f 37 51 52
f 37 52 38
f 38 52 53
f 38 53 54
f 38 54 40
f 39 40 55
f 40 54 55
f 41 56 42
f 42 56 57
f 42 57 43
f 43 57 58
f 43 58 44
f 44 58 59
f 44 59 45
f 45 59 60
f 45 60 46
f 46 60 59
f 46 59 58
f 46 58 57
f 46 57 55
f 46 55 54
f 46 54 53
f 46 53 52
f 46 52 51
f 46 51 50
f 46 50 49
f 48 61 62
f 48 62 49

