# https://github.com/mikedh/trimesh
v -6.64759054 0.49763292 -1.02622926
v -6.55725080 0.49763292 -1.02622926
v -6.64759054 0.49763292 -0.98533517
v -6.64759054 0.62895097 -1.02622926
v -6.51904614 0.49763292 -1.00874658
v -6.55725080 0.52161564 -1.02622926
v -6.63764924 0.49763292 -0.97100864
v -6.64759054 0.55747582 -0.94460875
v -6.64759054 0.66256878 -0.96895508
v -6.51904614 0.66006366 -0.94460875
v -6.51904614 0.63664152 -0.96897106
v -6.63303095 0.62217132 -1.02622926
v -6.51904614 0.49763292 -1.00369674
v -6.51904614 0.52137039 -1.00874658
v -6.57980111 0.57940889 -1.02622926
v -6.51904614 0.56807447 -1.00507111
v -6.57792617 0.49763292 -0.94637464
v -6.63735983 0.54071072 -0.94460875
v -6.64759054 0.67660104 -0.94460875
v -6.51904614 0.49789567 -0.94460875
v -6.51904614 0.63622108 -0.96928269
v -6.62565682 0.61852750 -1.02622926
v -6.51965022 0.49763292 -0.94460875
v -6.51904614 0.59719009 -0.99810360
v -6.57759899 0.49763292 -0.94635067
v -6.57792617 0.50103149 -0.94460875
v -6.52944043 0.49763292 -0.94460875
v -6.57169716 0.50020816 -0.94460875
f 1 2 5
f 1 5 13
f 1 13 23
f 1 23 27
f 1 27 25
f 1 25 17
f 1 17 7
f 1 7 3
f 1 3 8
f 1 8 19
f 1 19 9
f 1 9 4
f 1 4 12
f 1 12 22
f 1 22 15
f 1 15 6
f 1 6 2
f 2 6 14
f 2 14 5
f 3 7 8
f 4 9 10
f 4 10 11
f 4 11 12
f 5 14 16
f 5 16 24
f 5 24 21
f 5 21 11
f 5 11 10
f 5 10 20
f 5 20 13
f 6 15 16
f 6 16 14
f 7 17 18
f 7 18 8
f 8 18 26
f 8 26 28
f 8 28 27
f 8 27 23
f 8 23 20
f 8 20 10
f 8 10 19
f 9 19 10
f 11 21 22
f 11 22 12
f 13 20 23
f 15 22 24
f 15 24 16
f 17 25 26
f 17 26 18
f 21 24 22
f 25 27 28
f 25 28 26

