# https://github.com/mikedh/trimesh
v -6.63687844 -0.01122612 -5.05644640
v -6.63687844 -0.00380952 -5.08903969
v -6.60725617 -0.03199231 -5.08042465
v -6.60725617 -0.03199231 -5.08026957
v -6.63687844 0.01794551 -5.01946380
v -6.63047673 -0.00479853 -5.08930678
v -6.63687844 0.05552238 -5.10276735
v -6.63617867 0.05552238 -5.10288787
v -6.60694644 -0.03199231 -5.08042465
v -6.60694644 -0.03199231 -5.08026957
v -6.51968565 0.01868704 -5.02026421
v -6.63687844 0.05552238 -5.01675275
v -6.58367995 0.00064023 -5.08738746
v -6.63687844 0.11386545 -5.10300839
v -6.63617867 0.11386545 -5.10312891
v -6.51968565 2.09481087 -5.10292225
v -6.57792070 0.05552238 -5.09796489
v -6.51968565 0.02115930 -5.08172434
v -6.51968565 0.01374270 -5.05128255
v -6.51968565 0.05552238 -5.01834489
v -6.51968565 2.09481087 -5.01834489
v -6.63687844 2.09481087 -5.01766500
v -6.63687844 2.03720951 -5.10300839
v -6.63617867 2.03646780 -5.10312891
v -6.57792070 2.03646780 -5.10466930
v -6.51968565 0.05552238 -5.08320463
v -6.57792070 2.09481087 -5.10333557
v -6.51968565 2.44437485 -5.09243930
v -6.51968565 2.13486000 -5.02023833
v -6.63687844 2.13486000 -5.01970467
v -6.63687844 2.44437485 -5.09243930
v -6.63687844 2.44511656 -5.09236185
v -6.51968565 2.49332383 -5.08641461
v -6.51968565 2.44437485 -5.04197008
v -6.63687844 2.44437485 -5.04109222
v -6.63687844 2.49332383 -5.08641461
v -6.63687844 2.49357095 -5.08593287
v -6.51968565 2.49332383 -5.06117158
v -6.63687844 2.49357095 -5.06074975
f 1 2 3
f 1 3 4
f 1 4 5
f 1 5 12
f 1 12 22
f 1 22 30
f 1 30 35
f 1 35 39
f 1 39 37
f 1 37 36
f 1 36 32
f 1 32 31
f 1 31 23
f 1 23 14
f 1 14 7
f 1 7 2
f 2 6 3
f 2 7 8
f 2 8 6
f 3 9 10
f 3 10 4
f 3 6 9
f 4 10 5
f 5 11 12
f 5 10 11
f 6 13 9
f 6 8 13
f 7 14 15
f 7 15 8
f 8 15 16
f 8 16 17
f 8 17 13
f 9 13 18
f 9 18 19
f 9 19 10
f 10 19 11
f 11 20 12
f 11 19 18
f 11 18 26
f 11 26 16
f 11 16 28
f 11 28 33
f 11 33 38
f 11 38 34
f 11 34 29
f 11 29 21
f 11 21 20
f 12 20 21
f 12 21 22
f 13 17 18
f 14 23 24
f 14 24 15
f 15 24 25
f 15 25 16
f 16 26 17
f 16 25 27
f 16 27 28
f 17 26 18
f 21 29 22
f 22 29 30
f 23 31 24
f 24 31 27
f 24 27 25
f 27 31 28
f 28 31 32
f 28 32 33
f 29 34 35
f 29 35 30
f 32 36 33
f 33 36 37
f 33 37 39
f 33 39 38
f 34 38 35
f 35 38 39

