# https://github.com/mikedh/trimesh
v -5.76211067 0.76847422 -3.31667016
v -5.65279412 0.76847422 -3.31667016
v -5.76216425 0.85134426 -3.31667016
v -5.76216425 0.76848802 -3.31671262
v -5.76216425 0.76884811 -3.46122120
v -5.65279412 0.90345654 -3.31667016
v -5.65279412 0.76884811 -3.46122120
v -5.76216425 0.85164891 -3.31667016
v -5.76216425 0.76918046 -3.46122120
v -5.65279412 0.90993769 -3.46122120
v -5.76211067 0.86958284 -3.46122120
v -5.76216425 0.86955514 -3.46119289
f 1 2 6
f 1 6 8
f 1 8 3
f 1 3 4
f 1 4 5
f 1 5 7
f 1 7 2
f 2 7 10
f 2 10 6
f 3 8 12
f 3 12 9
f 3 9 5
f 3 5 4
f 5 9 11
f 5 11 10
f 5 10 7
f 6 10 11
f 6 11 12
f 6 12 8
f 9 12 11

