# https://github.com/mikedh/trimesh
v -3.78986287 0.05545656 0.76145338
v -3.82350456 0.05545656 0.76145338
v -3.79657943 0.00739135 0.75654325
v -3.77066797 0.05545656 0.71758975
v -3.77695351 1.97748184 0.71758975
v -3.77722390 1.97748184 0.71818646
v -3.79452640 1.97748184 0.75459024
v -3.83699682 0.05545656 0.71758975
v -3.81901000 0.00739135 0.75654325
v -3.81729500 1.97748184 0.75459024
v -3.79105402 -0.00210537 0.71758975
v -3.75105056 0.02367150 0.57821360
v -3.75069577 0.05545656 0.58179434
v -3.75069577 0.11379373 0.58222832
v -3.75069577 1.97748184 0.58222832
v -3.75514812 1.97748184 0.61136226
v -3.83700524 0.05545656 0.65932188
v -3.82351307 -0.00249299 0.60108127
v -3.82351307 -0.00210537 0.71758975
v -3.81743020 1.97748184 0.75402063
v -3.82583641 1.97748184 0.71758975
v -3.83205447 1.97748184 0.65932188
v -3.83700524 1.97748184 0.60108127
v -3.77659038 0.00177086 0.59901973
v -3.78847722 -0.00229918 0.65932188
v -3.75105056 0.02367150 0.57031978
v -3.75069577 0.05545656 0.56950599
v -3.75069577 1.97748184 0.56947890
v -3.83700524 0.05545656 0.48454571
v -3.82351307 -0.00249299 0.48435589
v -3.79369838 -0.00249299 0.48454571
v -3.83700524 1.97748184 0.48454571
v -3.79369838 -0.00249299 0.48435589
v -3.78018936 0.00177086 0.54766917
v -3.77736752 0.05545656 0.48435589
v -3.77731681 1.97748184 0.48435589
v -3.83700524 0.11359992 0.48435589
v -3.83695453 0.05526276 0.48435589
v -3.79029373 1.97748184 0.48435589
v -3.83700524 1.97709422 0.48435589
f 1 2 9
f 1 9 3
f 1 3 4
f 1 4 5
f 1 5 6
f 1 6 7
f 1 7 10
f 1 10 2
f 2 8 9
f 2 10 8
f 3 9 19
f 3 19 11
f 3 11 4
f 4 11 12
f 4 12 13
f 4 13 14
f 4 14 15
f 4 15 16
f 4 16 5
f 5 16 15
f 5 15 28
f 5 28 36
f 5 36 39
f 5 39 32
f 5 32 23
f 5 23 22
f 5 22 21
f 5 21 20
f 5 20 10
f 5 10 7
f 5 7 6
f 8 17 18
f 8 18 19
f 8 19 9
f 8 10 20
f 8 20 21
f 8 21 22
f 8 22 23
f 8 23 17
f 11 24 12
f 11 19 18
f 11 18 25
f 11 25 24
f 12 24 26
f 12 26 27
f 12 27 13
f 13 27 28
f 13 28 15
f 13 15 14
f 17 29 30
f 17 30 18
f 17 23 32
f 17 32 40
f 17 40 37
f 17 37 29
f 18 30 33
f 18 33 31
f 18 31 25
f 24 25 33
f 24 33 34
f 24 34 26
f 25 31 33
f 26 35 27
f 26 34 33
f 26 33 35
f 27 35 36
f 27 36 28
f 29 37 38
f 29 38 30
f 30 38 37
f 30 37 40
f 30 40 39
f 30 39 36
f 30 36 35
f 30 35 33
f 32 39 40

