# https://github.com/mikedh/trimesh
v -6.72885738 0.76893277 -1.41272236
v -6.72742136 0.76893277 -1.41276473
v -6.78928613 0.76893277 -1.41272236
v -6.71594880 0.72065852 -1.41272236
v -6.73390435 0.76893277 -1.52080804
v -6.78928613 0.76893277 -1.52080804
v -6.78928613 0.63816080 -1.41272236
v -6.71594880 0.56279128 -1.41272236
v -6.71594880 0.68787307 -1.52080804
v -6.78928613 0.63816080 -1.52080804
v -6.78774974 0.61911817 -1.52080804
v -6.78557427 0.59787744 -1.52080804
v -6.78557427 0.60192430 -1.41272236
v -6.73493104 0.57306240 -1.41272236
v -6.75508351 0.57505500 -1.52080804
v -6.73102555 0.56235990 -1.52080804
v -6.71594880 0.55909370 -1.52080804
v -6.75272865 0.58277890 -1.41272236
f 1 2 5
f 1 5 6
f 1 6 3
f 1 3 7
f 1 7 13
f 1 13 18
f 1 18 14
f 1 14 8
f 1 8 4
f 1 4 2
f 2 4 5
f 3 6 10
f 3 10 7
f 4 8 17
f 4 17 9
f 4 9 5
f 5 9 17
f 5 17 16
f 5 16 15
f 5 15 12
f 5 12 11
f 5 11 10
f 5 10 6
f 7 10 11
f 7 11 12
f 7 12 13
f 8 14 15
f 8 15 16
f 8 16 17
f 12 15 13
f 13 15 18
f 14 18 15

