# https://github.com/mikedh/trimesh
v -6.55675456 0.28825097 -1.02624332
v -6.53682047 0.24834754 -1.02624332
v -6.52916596 0.17877269 -1.08864166
v -6.60187012 0.28805352 -1.08864166
v -6.60222170 0.28825097 -1.08864166
v -6.66437726 0.28825097 -1.02624332
v -6.52916596 0.23010527 -1.02624332
v -6.52916596 0.16215963 -1.08864166
v -6.66732544 0.28825097 -1.08864166
v -6.66632471 0.28825097 -1.04665177
v -6.66437726 0.23024107 -1.02624332
v -6.52916596 0.16215963 -1.02624332
v -6.65012314 0.16215963 -1.08864166
v -6.66732544 0.23024107 -1.08864166
v -6.66632471 0.23024107 -1.04665177
v -6.66418788 0.22161362 -1.02624332
v -6.64671511 0.16215963 -1.02624332
v -6.64950100 0.16215963 -1.04813007
v -6.65530271 0.16219662 -1.08864166
v -6.66632471 0.19521295 -1.08864166
v -6.66598659 0.19710136 -1.05098881
v -6.65795340 0.17540321 -1.03115458
v -6.65996849 0.19516355 -1.02624332
v -6.65534335 0.17506995 -1.02624332
v -6.64833798 0.16215963 -1.02957243
v -6.64901414 0.16215963 -1.03097128
v -6.65839972 0.16597352 -1.08864166
f 1 2 3
f 1 3 4
f 1 4 5
f 1 5 9
f 1 9 10
f 1 10 6
f 1 6 11
f 1 11 16
f 1 16 23
f 1 23 24
f 1 24 17
f 1 17 12
f 1 12 7
f 1 7 2
f 2 7 3
f 3 7 12
f 3 12 8
f 3 8 13
f 3 13 19
f 3 19 27
f 3 27 20
f 3 20 14
f 3 14 9
f 3 9 5
f 3 5 4
f 6 10 15
f 6 15 11
f 8 12 17
f 8 17 25
f 8 25 26
f 8 26 18
f 8 18 13
f 9 14 15
f 9 15 10
f 11 15 16
f 13 18 19
f 14 20 21
f 14 21 15
f 15 21 16
f 16 22 23
f 16 21 22
f 17 24 25
f 18 26 19
f 19 26 27
f 20 27 21
f 21 27 22
f 22 27 26
f 22 26 25
f 22 25 24
f 22 24 23

