# https://github.com/mikedh/trimesh
v -6.46898346 0.99040364 -3.63846329
v -6.46884557 0.93325550 -3.63846329
v -6.51311644 0.93325550 -3.57442071
v -6.49468652 0.97293922 -3.56965507
v -6.47226959 0.99040364 -3.59101015
v -6.39894059 0.99040364 -3.63846329
v -6.39742391 0.93325550 -3.63846329
v -6.51457563 0.93325550 -3.54137738
v -6.49468652 0.97293922 -3.56134342
v -6.46642116 0.99040364 -3.54783701
v -6.41370519 0.99040364 -3.54575905
v -6.40172110 0.93325550 -3.53497427
v -6.39742391 0.97948419 -3.63846329
v -6.39720562 0.93325550 -3.59586610
v -6.51346116 0.93325550 -3.54010131
v -6.46447936 0.93325550 -3.52315048
v -6.46382447 0.99040364 -3.54767889
v -6.46136559 0.93325550 -3.52311661
v -6.40594943 0.93325550 -3.53408208
f 1 2 3
f 1 3 4
f 1 4 5
f 1 5 10
f 1 10 17
f 1 17 11
f 1 11 6
f 1 6 13
f 1 13 7
f 1 7 2
f 2 7 14
f 2 14 12
f 2 12 19
f 2 19 18
f 2 18 16
f 2 16 15
f 2 15 8
f 2 8 3
f 3 8 4
f 4 8 9
f 4 9 5
f 5 9 10
f 6 11 12
f 6 12 13
f 7 13 14
f 8 15 9
f 9 15 10
f 10 16 17
f 10 15 16
f 11 17 16
f 11 16 18
f 11 18 19
f 11 19 12
f 12 14 13

