# https://github.com/mikedh/trimesh
v -5.65023985 1.18635930 -3.66797668
v -5.64817496 0.90687470 -3.66798935
v -5.65023985 1.29038619 -3.63235923
v -5.65023985 1.79913551 -3.66797668
v -5.62656342 1.01214931 -3.66798935
v -5.51090185 0.90687470 -3.66798935
v -5.59826888 0.90687470 -3.60367395
v -5.63698551 2.16315167 -3.66797668
v -5.62601930 2.44435193 -3.66797668
v -5.65023985 1.33748684 -3.63231530
v -5.65023985 1.71709926 -3.63231530
v -5.51194826 1.01214931 -3.66798935
v -5.60814686 2.48770933 -3.66797668
v -5.58543309 2.50018644 -3.66797668
v -5.51667795 0.90687470 -3.60367395
v -5.51196219 2.38602189 -3.66797668
v -5.50770686 1.62882458 -3.66797668
v -5.50770686 1.33748684 -3.66797668
v -5.51017634 1.33748684 -3.63231530
v -5.59507389 0.92699382 -3.60367395
v -5.58950706 2.44435193 -3.63231530
v -5.58685619 2.46088389 -3.63231530
v -5.57767581 2.49659928 -3.63231530
v -5.53471782 2.49940653 -3.66797668
v -5.51260398 2.44435193 -3.66797668
v -5.54808376 2.49800299 -3.63231530
v -5.53887549 2.49800299 -3.63231530
v -5.52082168 1.01214931 -3.60367395
v -5.51009263 1.57065060 -3.63231530
v -5.51009263 1.62882458 -3.63231530
v -5.51053909 1.68715450 -3.63231530
v -5.51924511 2.44435193 -3.63231530
v -5.58008950 1.01214931 -3.60367395
f 1 2 3
f 1 3 10
f 1 10 11
f 1 11 4
f 1 4 2
f 2 5 12
f 2 12 6
f 2 6 15
f 2 15 7
f 2 7 3
f 2 4 8
f 2 8 9
f 2 9 5
f 3 7 10
f 4 11 8
f 5 9 13
f 5 13 14
f 5 14 12
f 6 12 16
f 6 16 17
f 6 17 18
f 6 18 19
f 6 19 15
f 7 15 28
f 7 28 33
f 7 33 20
f 7 20 21
f 7 21 11
f 7 11 10
f 8 11 9
f 9 21 22
f 9 22 23
f 9 23 13
f 9 11 21
f 12 14 24
f 12 24 25
f 12 25 16
f 13 23 14
f 14 23 26
f 14 26 27
f 14 27 24
f 15 19 29
f 15 29 30
f 15 30 31
f 15 31 32
f 15 32 28
f 16 31 30
f 16 30 17
f 16 25 31
f 17 30 29
f 17 29 18
f 18 29 19
f 20 33 22
f 20 22 21
f 22 33 23
f 23 33 26
f 24 27 25
f 25 27 32
f 25 32 31
f 26 33 28
f 26 28 27
f 27 28 32

