# https://github.com/mikedh/trimesh
v -6.30653879 0.81780182 0.42911652
v -6.30584171 0.81294115 0.42911652
v -6.26230769 0.75467484 0.38401347
v -6.26230769 0.81048009 0.36544150
v -6.30653879 0.86007106 0.36804157
v -6.30653879 0.52345537 0.42911652
v -6.30015696 0.75467484 0.42911652
v -6.30016564 0.75122933 0.42911652
v -6.26230769 0.71148272 0.38311129
v -6.26230769 0.81798638 0.34893906
v -6.30653879 0.87619122 0.32919991
v -6.30653879 0.35979289 0.41627523
v -6.26230769 0.40507690 0.37127846
v -6.26230769 0.42691910 0.37297636
v -6.26230769 0.46334330 0.37488664
v -6.26230769 0.48389337 0.37578865
v -6.30652576 0.52388606 0.42911652
v -6.30159870 0.69296298 0.42911652
v -6.26230769 0.69640853 0.38268686
v -6.26230769 0.83164544 0.30967297
v -6.30653879 0.87834463 0.30967297
v -6.30653879 0.34625687 0.40698934
v -6.26230769 0.35284024 0.35875567
v -6.26230769 0.37480556 0.36443339
v -6.26230769 0.54117523 0.37769893
v -6.26230769 0.65493914 0.38146636
v -6.26230769 0.83244533 0.29948508
v -6.30653879 0.88166713 0.27629682
v -6.30653879 0.31986168 0.37000500
v -6.30653879 0.30651026 0.34830242
v -6.26230769 0.33407446 0.31099958
v -6.26230769 0.83490639 0.25141049
v -6.30653879 0.88603557 0.19314800
v -6.30653879 0.29260512 0.30967297
v -6.26230769 0.32459927 0.19314800
v -6.30653879 0.26651757 0.21867097
v -6.30653879 0.26018019 0.19314800
v -6.26230769 0.83515251 0.24610424
v -6.30653879 0.88622015 0.16635156
v -6.29248924 0.87046913 0.19314800
v -6.29214722 0.87053069 0.13493865
v -6.26230769 0.32398399 0.13493865
v -6.30653879 0.25925727 0.17340885
v -6.30653879 0.25784218 0.13493865
v -6.26230769 0.83693680 0.19314800
v -6.30653879 0.88640473 0.13493865
v -6.26230769 0.83718293 0.13493865
v -6.26230769 0.83718293 0.13371815
v -6.26230769 0.83570628 0.07667616
v -6.26230769 0.33216713 0.01836054
v -6.30653879 0.27223957 0.07630470
v -6.30653879 0.88505112 0.10644414
v -6.26230769 0.83293754 0.01836054
v -6.26230769 0.33979646 -0.01103598
v -6.30653879 0.28835968 0.01836054
v -6.30653879 0.88357447 0.07667616
v -6.30653879 0.86948472 -0.03990195
v -6.30653879 0.87969824 0.01836054
v -6.26230769 0.81244894 -0.04372252
v -6.26230769 0.34730284 -0.03517938
v -6.30653879 0.28977486 0.01390332
v -6.30653879 0.85133419 -0.07874361
v -6.26230769 0.80131254 -0.04998374
v -6.30653879 0.83226073 -0.09646654
v -6.30653879 0.31038649 -0.03990195
v -6.30653879 0.34687216 -0.08017632
v -6.30653879 0.36299227 -0.08755194
v -6.30653879 0.40507690 -0.10389512
v -6.26230769 0.39412506 -0.05184106
v -6.26230769 0.76002772 -0.07009453
v -6.30653879 0.81294115 -0.10400140
v -6.30653879 0.46334330 -0.10771569
v -6.26230769 0.46334330 -0.06033106
v -6.26230769 0.45645220 -0.05980035
v -6.26230769 0.40507690 -0.05555535
v -6.26230769 0.75467484 -0.07136800
v -6.30653879 0.78654595 -0.11142998
v -6.30653879 0.52160956 -0.10941376
v -6.28997375 0.63814222 -0.09678487
v -6.29167095 0.57987587 -0.09657265
v -6.26230769 0.69640853 -0.06988232
v -6.28774401 0.75467484 -0.09699708
v -6.28861857 0.69640853 -0.09689097
v -6.30653879 0.75467484 -0.11291584
v -6.30653879 0.57987587 -0.11079334
v -6.30653879 0.63814222 -0.11174848
v -6.30653879 0.69640853 -0.11243826
f 1 2 3
f 1 3 4
f 1 4 5
f 1 5 11
f 1 11 21
f 1 21 28
f 1 28 33
f 1 33 39
f 1 39 46
f 1 46 52
f 1 52 56
f 1 56 58
f 1 58 57
f 1 57 62
f 1 62 64
f 1 64 71
f 1 71 77
f 1 77 84
f 1 84 87
f 1 87 86
f 1 86 85
f 1 85 78
f 1 78 72
f 1 72 68
f 1 68 67
f 1 67 66
f 1 66 65
f 1 65 61
f 1 61 55
f 1 55 51
f 1 51 44
f 1 44 43
f 1 43 37
f 1 37 36
f 1 36 34
f 1 34 30
f 1 30 29
f 1 29 22
f 1 22 12
f 1 12 6
f 1 6 17
f 1 17 18
f 1 18 8
f 1 8 7
f 1 7 2
f 2 7 3
f 3 7 8
f 3 8 9
f 3 9 19
f 3 19 26
f 3 26 25
f 3 25 16
f 3 16 15
f 3 15 14
f 3 14 13
f 3 13 24
f 3 24 23
f 3 23 31
f 3 31 35
f 3 35 42
f 3 42 50
f 3 50 54
f 3 54 60
f 3 60 69
f 3 69 75
f 3 75 74
f 3 74 73
f 3 73 81
f 3 81 76
f 3 76 70
f 3 70 63
f 3 63 59
f 3 59 53
f 3 53 49
f 3 49 48
f 3 48 47
f 3 47 45
f 3 45 38
f 3 38 32
f 3 32 27
f 3 27 20
f 3 20 10
f 3 10 4
f 4 10 5
f 5 10 11
f 6 12 13
f 6 13 14
f 6 14 15
f 6 15 16
f 6 16 17
f 8 18 19
f 8 19 9
f 10 20 11
f 11 20 21
f 12 22 23
f 12 23 24
f 12 24 13
f 16 25 18
f 16 18 17
f 18 26 19
f 18 25 26
f 20 27 28
f 20 28 21
f 22 29 23
f 23 29 30
f 23 30 31
f 27 32 33
f 27 33 28
f 30 34 31
f 31 34 36
f 31 36 37
f 31 37 35
f 32 38 33
f 33 38 40
f 33 40 41
f 33 41 39
f 35 37 43
f 35 43 44
f 35 44 42
f 38 45 40
f 39 41 46
f 40 45 41
f 41 45 47
f 41 47 48
f 41 48 49
f 41 49 46
f 42 44 50
f 44 51 50
f 46 49 53
f 46 53 52
f 50 51 54
f 51 55 54
f 52 53 56
f 53 57 58
f 53 58 56
f 53 59 57
f 54 55 60
f 55 61 60
f 57 59 62
f 59 63 64
f 59 64 62
f 60 61 65
f 60 65 66
f 60 66 67
f 60 67 68
f 60 68 69
f 63 70 64
f 64 70 71
f 68 72 73
f 68 73 74
f 68 74 75
f 68 75 69
f 70 76 77
f 70 77 71
f 72 78 79
f 72 79 80
f 72 80 73
f 73 80 81
f 76 82 77
f 76 81 83
f 76 83 82
f 77 82 84
f 78 85 79
f 79 83 81
f 79 81 80
f 79 85 83
f 82 83 86
f 82 86 87
f 82 87 84
f 83 85 86

