# https://github.com/mikedh/trimesh
v -5.92652008 0.30077202 -0.02292629
v -5.92652008 0.29329829 -0.02041982
v -5.92652008 0.30077202 0.05236935
v -5.88443875 0.30077202 -0.02149409
v -5.87864433 0.29570256 -0.01960135
v -5.92652008 0.26415402 -0.00718849
v -5.92652008 0.29193843 0.05961575
v -5.78309108 0.30077202 0.15126291
v -5.87864433 0.30077202 -0.02127233
v -5.87864433 0.26656914 -0.00633598
v -5.85509199 0.30077202 -0.01770878
v -5.92652008 0.18964525 0.02938497
v -5.92652008 0.23084316 0.08633405
v -5.86632837 0.18964525 0.15126291
v -5.83451400 0.24105833 0.15126291
v -5.80948553 0.27356417 0.15126291
v -5.78908382 0.29513685 0.15126291
v -5.70260780 0.30077202 0.15126291
v -5.82880768 0.30077202 -0.01192860
v -5.88091362 0.18964525 0.03625644
v -5.92652008 0.18964525 0.10098055
v -5.78079973 0.18964525 0.15126291
v -5.71479156 0.27646885 0.15126291
v -5.70227732 0.30077202 0.14669333
v -5.80734844 0.30077202 -0.00394899
v -5.81635956 0.28705392 -0.00033421
v -5.86161349 0.18964525 0.04493521
v -5.78086585 0.18964525 0.13489437
v -5.72796675 0.25334050 0.13489437
v -5.72807690 0.25344930 0.15126291
v -5.70765313 0.28851164 0.13489437
v -5.70144010 0.30077202 0.13489437
v -5.77297833 0.30077202 0.01731318
v -5.78254026 0.25188278 0.03995649
v -5.82534867 0.23158296 0.03317028
v -5.82363015 0.18964525 0.06815820
v -5.78227591 0.18964525 0.13121134
v -5.73096312 0.25703934 0.10185025
v -5.71721506 0.30077202 0.08007647
v -5.74783971 0.30077202 0.03625644
v -5.76271137 0.29123136 0.03006711
v -5.80137772 0.18964525 0.09317148
v -5.81856277 0.18964525 0.07301762
v -5.74369769 0.27361862 0.06300894
v -5.78520615 0.18964525 0.12389668
v -5.72536694 0.30077202 0.06381022
v -5.72190794 0.29123136 0.08009367
v -5.78859912 0.19641183 0.10219115
f 1 2 6
f 1 6 12
f 1 12 21
f 1 21 13
f 1 13 7
f 1 7 3
f 1 3 8
f 1 8 18
f 1 18 24
f 1 24 32
f 1 32 39
f 1 39 46
f 1 46 40
f 1 40 33
f 1 33 25
f 1 25 19
f 1 19 11
f 1 11 9
f 1 9 4
f 1 4 5
f 1 5 2
f 2 5 6
f 3 7 8
f 4 9 5
f 5 10 6
f 5 9 11
f 5 11 10
f 6 10 12
f 7 13 14
f 7 14 15
f 7 15 16
f 7 16 17
f 7 17 8
f 8 17 16
f 8 16 15
f 8 15 14
f 8 14 22
f 8 22 30
f 8 30 23
f 8 23 18
f 10 11 19
f 10 19 20
f 10 20 12
f 12 20 27
f 12 27 36
f 12 36 43
f 12 43 42
f 12 42 45
f 12 45 37
f 12 37 28
f 12 28 22
f 12 22 14
f 12 14 21
f 13 21 14
f 18 23 24
f 19 25 26
f 19 26 20
f 20 26 27
f 22 28 29
f 22 29 30
f 23 30 31
f 23 31 32
f 23 32 24
f 25 33 34
f 25 34 26
f 26 34 35
f 26 35 27
f 27 35 34
f 27 34 36
f 28 37 38
f 28 38 29
f 29 38 31
f 29 31 30
f 31 38 32
f 32 38 39
f 33 40 41
f 33 41 34
f 34 42 43
f 34 43 36
f 34 41 40
f 34 40 44
f 34 44 42
f 37 45 38
f 38 44 46
f 38 46 47
f 38 47 39
f 38 45 48
f 38 48 42
f 38 42 44
f 39 47 46
f 40 46 44
f 42 48 45

