# https://github.com/mikedh/trimesh
v -6.28654921 2.38627283 0.55957407
v -6.21392485 2.44411505 0.55317635
v -6.28654921 2.44411505 0.55921650
v -6.30653879 2.38627283 0.55680294
v -6.28654921 0.11407515 0.55957407
v -6.21392485 2.45631804 0.54831103
v -6.21392485 0.05574484 0.55317635
v -6.30653879 2.44411505 0.55644537
v -6.21392485 2.49219485 0.53340855
v -6.28654921 2.49561166 0.53625626
v -6.30653879 2.49487950 0.53486418
v -6.30653879 0.11407515 0.55680294
v -6.30653879 0.09381822 0.55668815
v -6.28654921 0.05574484 0.55921650
v -6.21392485 0.00766504 0.53340855
v -6.21392485 2.49219485 0.50786873
v -6.30653879 2.49414734 0.48697698
v -6.30653879 0.05574484 0.55644537
v -6.30653879 0.03866064 0.54995839
v -6.28654921 0.00473632 0.53625626
v -6.30653879 0.00229575 0.51850606
v -6.21392485 0.00766504 0.50786873
v -6.30653879 2.48658148 0.47462855
v -6.21392485 2.44411505 0.50208386
v -6.30653879 2.44411505 0.45658469
v -6.30653879 2.46534822 0.45950898
v -6.30653879 2.48072402 0.46535758
v -6.30653879 0.00546856 0.53486418
v -6.30653879 0.00571256 0.48697698
v -6.30653879 0.00912945 0.47462855
v -6.30653879 0.01034969 0.47100196
v -6.30653879 0.01937996 0.46535758
v -6.30653879 0.05574484 0.45658469
v -6.21392485 0.04378594 0.50345024
v -6.30015661 0.75497649 0.42911652
v -6.30653879 2.38602875 0.45507782
v -6.21392485 0.05574484 0.50208386
v -6.30653879 0.39498816 0.43555262
v -6.30016573 0.75155964 0.42911652
v -6.30584075 0.81306271 0.42911652
v -6.30653879 0.81794392 0.42911652
v -6.30653879 0.45697935 0.43211740
v -6.30653879 0.51848247 0.42924416
v -6.30652064 0.52409580 0.42911652
v -6.30158898 0.69322934 0.42911652
v -6.30653879 0.52385176 0.42911652
f 1 2 3
f 1 3 8
f 1 8 4
f 1 4 12
f 1 12 5
f 1 5 7
f 1 7 2
f 2 6 3
f 2 7 15
f 2 15 22
f 2 22 34
f 2 34 37
f 2 37 24
f 2 24 16
f 2 16 9
f 2 9 6
f 3 6 9
f 3 9 10
f 3 10 11
f 3 11 8
f 4 8 11
f 4 11 17
f 4 17 23
f 4 23 27
f 4 27 26
f 4 26 25
f 4 25 36
f 4 36 41
f 4 41 46
f 4 46 43
f 4 43 42
f 4 42 38
f 4 38 33
f 4 33 32
f 4 32 31
f 4 31 30
f 4 30 29
f 4 29 21
f 4 21 28
f 4 28 19
f 4 19 18
f 4 18 13
f 4 13 12
f 5 12 13
f 5 13 14
f 5 14 7
f 7 14 15
f 9 16 10
f 10 16 17
f 10 17 11
f 13 18 14
f 14 18 19
f 14 19 20
f 14 20 15
f 15 20 21
f 15 21 22
f 16 23 17
f 16 24 25
f 16 25 26
f 16 26 27
f 16 27 23
f 19 28 20
f 20 28 21
f 21 29 22
f 22 29 30
f 22 30 31
f 22 31 32
f 22 32 33
f 22 33 34
f 24 35 36
f 24 36 25
f 24 37 35
f 33 38 37
f 33 37 34
f 35 39 45
f 35 45 44
f 35 44 46
f 35 46 41
f 35 41 40
f 35 40 36
f 35 37 39
f 36 40 41
f 37 38 42
f 37 42 43
f 37 43 44
f 37 44 45
f 37 45 39
f 43 46 44

