# https://github.com/mikedh/trimesh
v -5.05297878 0.49966581 -1.54094783
v -5.02470115 0.49966581 -1.43734098
v -4.95933896 0.49966581 -1.54094783
v -5.04120912 0.05547636 -1.54094783
v -5.01736541 0.05656192 -1.43734098
v -4.95933896 0.49966581 -1.43734098
v -4.94933475 0.05547636 -1.54094783
v -5.03564897 0.04348585 -1.54094783
v -4.99636265 -0.00200873 -1.43734098
v -4.99675836 -0.00092316 -1.43734098
v -5.01725379 0.05547636 -1.43734098
v -4.94933475 0.05547636 -1.43734098
v -4.95248008 0.04161081 -1.54094783
v -5.00553486 -0.00437722 -1.54094783
v -4.96240312 -0.00200873 -1.43734098
v -4.96240312 -0.00200873 -1.54094783
v -4.99878761 -0.00437722 -1.54094783
f 1 2 6
f 1 6 3
f 1 3 7
f 1 7 13
f 1 13 16
f 1 16 17
f 1 17 14
f 1 14 8
f 1 8 4
f 1 4 5
f 1 5 2
f 2 5 11
f 2 11 10
f 2 10 9
f 2 9 15
f 2 15 12
f 2 12 6
f 3 6 12
f 3 12 7
f 4 8 9
f 4 9 10
f 4 10 11
f 4 11 5
f 7 12 13
f 8 14 9
f 9 14 17
f 9 17 15
f 12 15 13
f 13 15 16
f 15 17 16

