# https://github.com/mikedh/trimesh
v -6.51968565 0.01370181 -5.05127977
v -6.02693987 0.01444751 -5.05125424
v -6.51963737 0.01370181 -5.05125424
v -6.51968565 0.01873558 -5.02025813
v -6.51968565 0.02115930 -5.08172225
v -6.02693987 0.01854916 -5.06767818
v -6.02693987 0.01631195 -5.03713394
v -6.02693987 0.01873558 -5.02023277
v -6.51963737 0.01873558 -5.02023277
v -6.51968565 0.05546403 -5.01834923
v -6.51968565 0.05546403 -5.08320498
v -6.02693987 0.02209152 -5.08141036
v -6.02693987 0.05546403 -5.01834281
v -6.51963737 0.05546403 -5.01834281
v -6.51968565 0.11381934 -5.01834281
v -6.51968565 0.11381934 -5.08335121
v -6.02693987 0.05546403 -5.08243496
v -6.02693987 1.91798678 -5.01834281
v -6.51968565 1.91798678 -5.01834281
v -6.51968565 1.86168233 -5.08335121
v -6.02693987 1.89356335 -5.08244122
v -6.02693987 1.91798678 -5.08244122
v -6.51968565 1.91798678 -5.02047451
v -6.51963737 1.91798678 -5.08333835
f 1 2 3
f 1 3 9
f 1 9 4
f 1 4 10
f 1 10 15
f 1 15 19
f 1 19 23
f 1 23 20
f 1 20 16
f 1 16 11
f 1 11 5
f 1 5 2
f 2 5 6
f 2 6 12
f 2 12 17
f 2 17 21
f 2 21 22
f 2 22 18
f 2 18 13
f 2 13 8
f 2 8 7
f 2 7 3
f 3 7 8
f 3 8 9
f 4 9 10
f 5 11 12
f 5 12 6
f 8 13 14
f 8 14 9
f 9 14 10
f 10 14 15
f 11 16 17
f 11 17 12
f 13 18 19
f 13 19 15
f 13 15 14
f 16 20 22
f 16 22 21
f 16 21 17
f 18 22 24
f 18 24 23
f 18 23 19
f 20 23 24
f 20 24 22

