# https://github.com/mikedh/trimesh
v -5.09342560 0.05543677 -2.66213576
v -5.09269218 0.05543677 -2.69540977
v -5.09246650 0.02440210 -2.69402846
v -5.09270628 0.02342004 -2.66213576
v -5.09246650 0.02440210 -2.63214229
v -5.09270628 0.05543677 -2.63172294
v -5.09342560 1.97683607 -2.66213576
v -5.08724786 0.05543677 -2.73033638
v -5.09269218 1.97683607 -2.69540977
v -5.06507570 0.00279573 -2.73033638
v -5.06284720 -0.00466828 -2.66213576
v -5.06284720 0.01025973 -2.62427391
v -5.06284720 0.05543677 -2.61555459
v -5.06365115 1.97683607 -2.61569026
v -5.09270628 1.97683607 -2.63172294
v -5.08724786 1.97683607 -2.73033638
v -5.01380607 -0.02411412 -2.73033638
v -5.00459589 -0.02882818 -2.73033638
v -5.00459589 -0.02981033 -2.66213576
v -5.00459589 0.05543677 -2.60513333
v -5.00459589 -0.00191842 -2.61906947
v -5.00459589 1.97683607 -2.60435636
v -5.00614737 1.97683607 -2.60464004
v -5.06284720 1.97683607 -2.61525862
v -4.95515986 1.97683607 -2.73033638
v -4.96239541 -0.00211484 -2.73033638
v -4.96239541 -0.00211484 -2.72039608
v -4.96295960 -0.00172201 -2.66213576
v -4.96748713 0.00809911 -2.62519888
v -4.96350967 0.05543677 -2.62130172
v -4.96350967 1.97683607 -2.62082072
v -4.95431358 1.97683607 -2.72039608
v -4.94934881 0.05543677 -2.73033638
v -4.96016693 0.00770629 -2.73033638
v -4.94934881 0.05543677 -2.72039608
v -4.95044896 0.05543677 -2.66213576
v -4.95081570 1.97683607 -2.66105046
v -4.95047718 1.97683607 -2.66213576
f 1 2 3
f 1 3 4
f 1 4 5
f 1 5 6
f 1 6 15
f 1 15 7
f 1 7 9
f 1 9 2
f 2 8 3
f 2 9 16
f 2 16 8
f 3 8 10
f 3 10 11
f 3 11 4
f 4 11 5
f 5 11 12
f 5 12 13
f 5 13 6
f 6 13 14
f 6 14 15
f 7 15 14
f 7 14 24
f 7 24 23
f 7 23 22
f 7 22 31
f 7 31 37
f 7 37 38
f 7 38 32
f 7 32 25
f 7 25 16
f 7 16 9
f 8 16 25
f 8 25 33
f 8 33 34
f 8 34 26
f 8 26 18
f 8 18 17
f 8 17 10
f 10 17 11
f 11 17 18
f 11 18 19
f 11 19 12
f 12 20 13
f 12 19 21
f 12 21 20
f 13 20 22
f 13 22 23
f 13 23 24
f 13 24 14
f 18 26 19
f 19 26 27
f 19 27 28
f 19 28 29
f 19 29 21
f 20 21 29
f 20 29 30
f 20 30 22
f 22 30 31
f 25 32 33
f 26 34 27
f 27 34 35
f 27 35 28
f 28 36 29
f 28 35 36
f 29 36 30
f 30 36 31
f 31 36 37
f 32 38 33
f 33 35 34
f 33 38 35
f 35 38 36
f 36 38 37

