# https://github.com/mikedh/trimesh
v -5.21650934 0.49652791 -0.81375195
v -5.21650934 0.05547376 -0.81375195
v -5.21650934 0.49652791 -0.87864000
v -6.22847246 0.49652791 -0.81327290
v -5.21650934 0.02401796 -0.81773576
v -6.22847246 0.17183636 -0.81327290
v -6.22847246 0.11353497 -0.81328549
v -6.22847246 0.05532970 -0.81331076
v -5.21650934 0.22038886 -0.87410142
v -5.23255813 0.49652791 -0.89023839
v -6.22847246 0.49652791 -0.94206556
v -5.21650934 0.00596081 -0.82016894
v -6.22847246 0.00591279 -0.82005546
v -6.22827440 0.00596081 -0.81996715
v -5.21650934 0.15728502 -0.87275250
v -5.32785996 0.23028180 -0.94206556
v -5.32756278 0.24339243 -0.94206556
v -5.32657212 0.28848715 -0.94206556
v -5.32568050 0.49652791 -0.94186385
v -6.22847246 0.14619147 -0.94206556
v -5.32637398 0.49652791 -0.94206556
v -5.21650934 0.00596081 -0.84555933
v -6.22847246 0.00591279 -0.84555933
v -5.21650934 0.09250038 -0.86942426
v -5.35005083 0.16933909 -0.94206556
v -5.21650934 0.05547376 -0.86452021
v -5.32607680 0.49623980 -0.94206556
v -5.47081276 0.14619147 -0.94206556
v -5.43237502 0.14768019 -0.94206556
v -5.41256173 0.14849658 -0.94206556
v -5.21650934 0.03736859 -0.85759899
f 1 2 5
f 1 5 12
f 1 12 22
f 1 22 31
f 1 31 26
f 1 26 24
f 1 24 15
f 1 15 9
f 1 9 3
f 1 3 10
f 1 10 19
f 1 19 21
f 1 21 11
f 1 11 4
f 1 4 6
f 1 6 2
f 2 6 7
f 2 7 8
f 2 8 5
f 3 9 10
f 4 11 20
f 4 20 23
f 4 23 13
f 4 13 8
f 4 8 7
f 4 7 6
f 5 8 12
f 8 13 14
f 8 14 12
f 9 15 10
f 10 15 16
f 10 16 17
f 10 17 18
f 10 18 19
f 11 21 27
f 11 27 18
f 11 18 17
f 11 17 16
f 11 16 25
f 11 25 30
f 11 30 29
f 11 29 28
f 11 28 20
f 12 14 13
f 12 13 23
f 12 23 22
f 15 24 16
f 16 24 26
f 16 26 25
f 18 27 19
f 19 27 21
f 20 28 23
f 22 28 29
f 22 29 30
f 22 30 25
f 22 25 31
f 22 23 28
f 25 26 31

