# https://github.com/mikedh/trimesh
v -4.96739730 2.49726926 -3.34323815
v -5.00135646 2.49909064 -3.68775039
v -4.99323226 2.49726926 -3.34323815
v -4.96488503 2.48087659 -3.34323815
v -4.96417886 2.47632299 -3.68775039
v -4.96739730 2.49726926 -3.68775039
v -5.02201696 2.44581434 -3.68775039
v -5.02250441 2.44444831 -3.68775039
v -5.01101178 2.44444831 -3.34323815
v -4.95933559 2.44444831 -3.34323815
v -4.95933559 2.44444831 -3.68775039
v -5.02312933 2.38616307 -3.68775039
v -5.01101178 0.17314629 -3.34323815
v -4.95929183 0.17314629 -3.34323815
v -4.95929183 0.17314629 -3.68775039
v -5.02312933 0.17314629 -3.68775039
f 1 2 3
f 1 3 9
f 1 9 13
f 1 13 14
f 1 14 10
f 1 10 4
f 1 4 5
f 1 5 6
f 1 6 2
f 2 6 5
f 2 5 11
f 2 11 15
f 2 15 16
f 2 16 12
f 2 12 8
f 2 8 7
f 2 7 3
f 3 7 8
f 3 8 9
f 4 10 5
f 5 10 11
f 8 12 9
f 9 12 16
f 9 16 13
f 10 14 15
f 10 15 11
f 13 16 15
f 13 15 14

