# https://github.com/mikedh/trimesh
v -6.71594168 0.57848423 -0.94460875
v -6.57791714 0.50103531 -0.94460875
v -6.71594168 0.58511266 -0.91224756
v -6.71594168 0.75510708 -0.94460875
v -6.57171079 0.50020364 -0.94460875
v -6.71594168 0.60076371 -0.88025272
v -6.71594168 0.75510708 -0.87606502
v -6.67550380 0.75510708 -0.94460875
v -6.52944182 0.49763292 -0.94460875
v -6.69445062 0.59930195 -0.87943728
v -6.71594168 0.62213590 -0.87727432
v -6.69445062 0.75510708 -0.87402649
v -6.71594168 0.63813983 -0.87606502
v -6.51965039 0.75510708 -0.92470688
v -6.51903363 0.75508190 -0.92470688
v -6.51903363 0.66004126 -0.94460875
v -6.51965039 0.49763292 -0.94460875
v -6.51965039 0.49763292 -0.94424936
v -6.51903363 0.59930195 -0.87943728
v -6.51903363 0.59970520 -0.87937503
v -6.51903363 0.63813983 -0.87401954
v -6.69445062 0.63813983 -0.87402649
v -6.51924567 0.75510708 -0.87401954
v -6.51903363 0.75510708 -0.87401954
v -6.51903363 0.49791017 -0.94460875
v -6.51903363 0.49791017 -0.94409046
f 1 2 3
f 1 3 6
f 1 6 11
f 1 11 13
f 1 13 7
f 1 7 4
f 1 4 8
f 1 8 16
f 1 16 25
f 1 25 17
f 1 17 9
f 1 9 5
f 1 5 2
f 2 5 6
f 2 6 3
f 4 7 12
f 4 12 23
f 4 23 24
f 4 24 14
f 4 14 8
f 5 9 10
f 5 10 6
f 6 10 11
f 7 13 22
f 7 22 12
f 8 14 15
f 8 15 16
f 9 17 18
f 9 18 10
f 10 19 20
f 10 20 21
f 10 21 22
f 10 22 11
f 10 18 19
f 11 22 13
f 12 22 23
f 14 24 15
f 15 24 21
f 15 21 20
f 15 20 19
f 15 19 26
f 15 26 25
f 15 25 16
f 17 25 26
f 17 26 18
f 18 26 19
f 21 24 23
f 21 23 22

