# https://github.com/mikedh/trimesh
v -3.83699656 1.97748184 0.14002088
v -3.83699656 2.09494737 0.14002088
v -3.77736630 1.97748184 0.14002088
v -3.83699656 1.97748184 0.60101407
v -3.82699977 2.44454122 0.14002088
v -3.83699656 2.09494737 0.60101407
v -3.74749847 2.05749093 0.14002088
v -3.75069646 1.97748184 0.56943097
v -3.83205508 1.97748184 0.65930747
v -3.81850994 2.49805057 0.14002088
v -3.82699977 2.44454122 0.65930747
v -3.83205508 2.09494737 0.65930747
v -3.82578196 2.44454122 0.71760087
v -3.74749847 2.07879269 0.14002088
v -3.74749847 2.05743996 0.48448736
v -3.74792794 2.03914489 0.54759346
v -3.75069646 1.97748184 0.58218456
v -3.82593088 1.97748184 0.71669852
v -3.79243585 2.49805057 0.14002088
v -3.81850994 2.49805057 0.65930747
v -3.81790542 2.49677650 0.71760087
v -3.82583450 2.09494737 0.71760087
v -3.81486521 2.48821503 0.75195127
v -3.81729214 2.44454122 0.75459823
v -3.77486053 2.44454122 0.14002088
v -3.74749847 2.07879269 0.54278075
v -3.74910190 2.03669877 0.58723778
v -3.75076662 1.97748184 0.58266578
v -3.82583450 1.97748184 0.71760087
v -3.79089390 2.49336204 0.14002088
v -3.79243585 2.49805057 0.65930747
v -3.79347852 2.49677650 0.71760087
v -3.79969042 2.48821503 0.75195127
v -3.81729214 1.97748184 0.75459823
v -3.79452987 2.44454122 0.75459823
v -3.77486053 2.44454122 0.65930747
v -3.77694569 2.44454122 0.71760087
v -3.74891799 2.07446095 0.58549317
v -3.75518233 2.03669877 0.61635435
v -3.77694569 1.97748184 0.71760087
v -3.75515611 1.97748184 0.61130113
v -3.79452987 1.97748184 0.75459823
f 1 2 5
f 1 5 10
f 1 10 19
f 1 19 30
f 1 30 25
f 1 25 14
f 1 14 7
f 1 7 3
f 1 3 8
f 1 8 17
f 1 17 28
f 1 28 41
f 1 41 40
f 1 40 42
f 1 42 34
f 1 34 29
f 1 29 18
f 1 18 9
f 1 9 4
f 1 4 6
f 1 6 2
f 2 6 11
f 2 11 5
f 3 7 8
f 4 9 12
f 4 12 6
f 5 11 20
f 5 20 10
f 6 12 13
f 6 13 11
f 7 14 26
f 7 26 15
f 7 15 16
f 7 16 8
f 8 16 17
f 9 18 12
f 10 20 31
f 10 31 19
f 11 13 21
f 11 21 20
f 12 18 22
f 12 22 13
f 13 23 21
f 13 22 24
f 13 24 23
f 14 25 36
f 14 36 26
f 15 26 16
f 16 26 27
f 16 27 17
f 17 27 28
f 18 29 22
f 19 31 30
f 20 21 32
f 20 32 31
f 21 23 33
f 21 33 32
f 22 29 34
f 22 34 24
f 23 24 35
f 23 35 33
f 24 34 42
f 24 42 35
f 25 30 36
f 26 36 37
f 26 37 38
f 26 38 27
f 27 38 37
f 27 37 39
f 27 39 40
f 27 40 41
f 27 41 28
f 30 31 36
f 31 32 36
f 32 33 37
f 32 37 36
f 33 35 37
f 35 42 40
f 35 40 37
f 37 40 39

