# https://github.com/mikedh/trimesh
v -5.12150297 0.82017453 -0.79001023
v -5.12150297 0.82017453 -0.94087779
v -5.21641033 0.82017453 -0.81375681
v -5.12150297 0.46246074 -0.79001023
v -5.12192106 0.82017453 -0.94087779
v -5.12150297 0.56304369 -0.94087779
v -5.21641033 0.82017453 -0.93811621
v -5.21641033 0.46246074 -0.81375681
v -5.12150297 0.46246074 -0.87081947
v -5.14715537 0.82013949 -0.94087779
v -5.14742480 0.82017453 -0.94061200
v -5.13570888 0.56104745 -0.94087779
v -5.21641033 0.70607314 -0.94087779
v -5.21641033 0.46246074 -0.87417176
v -5.20149831 0.56031199 -0.94087779
v -5.21641033 0.56031199 -0.94087779
f 1 2 5
f 1 5 11
f 1 11 7
f 1 7 3
f 1 3 8
f 1 8 4
f 1 4 9
f 1 9 6
f 1 6 2
f 2 6 12
f 2 12 15
f 2 15 16
f 2 16 13
f 2 13 10
f 2 10 5
f 3 7 13
f 3 13 16
f 3 16 14
f 3 14 8
f 4 8 14
f 4 14 9
f 5 10 11
f 6 9 12
f 7 11 10
f 7 10 13
f 9 14 12
f 12 14 15
f 14 16 15

