# https://github.com/mikedh/trimesh
v -6.69556822 0.35826423 -3.57648808
v -6.69556822 0.36744107 -3.67770316
v -6.70236780 0.36744107 -3.68325601
v -6.73338250 0.36744107 -3.71091260
v -6.73338250 0.35250472 -3.57648808
v -6.69556822 0.27413717 -3.57648808
v -6.69556822 0.36744107 -3.83408710
v -6.73338250 0.36744107 -3.93930458
v -6.73338250 0.09440242 -3.57648808
v -6.69556822 0.05519946 -3.65325567
v -6.69556822 0.05546820 -3.85377468
v -6.71515646 0.05546820 -3.94482148
v -6.71937238 0.10906994 -3.94482148
v -6.73338250 0.16866155 -3.94482148
v -6.73338250 0.05546820 -3.59527426
v -6.69556822 0.02225511 -3.66760678
v -6.69556822 0.05162852 -3.65462587
v -6.69556822 -0.00124366 -3.82514454
v -6.71932063 0.01192637 -3.94482148
v -6.73338250 0.00559100 -3.94482148
v -6.73338250 0.00893148 -3.65303929
v -6.70438141 0.01250241 -3.66338800
v -6.69556822 0.00417026 -3.68700607
v -6.69556822 -0.00201159 -3.82395478
v -6.71955750 0.01127366 -3.94482148
v -6.69556822 -0.02481918 -3.77037231
v -6.73338250 -0.01475927 -3.80819735
v -6.73338250 -0.00988284 -3.76748778
v -6.69556822 -0.02466558 -3.76921850
f 1 2 3
f 1 3 4
f 1 4 5
f 1 5 9
f 1 9 6
f 1 6 10
f 1 10 17
f 1 17 16
f 1 16 23
f 1 23 29
f 1 29 26
f 1 26 24
f 1 24 18
f 1 18 11
f 1 11 7
f 1 7 2
f 2 7 8
f 2 8 4
f 2 4 3
f 4 8 14
f 4 14 20
f 4 20 27
f 4 27 28
f 4 28 21
f 4 21 15
f 4 15 9
f 4 9 5
f 6 9 10
f 7 11 12
f 7 12 8
f 8 12 13
f 8 13 14
f 9 15 16
f 9 16 17
f 9 17 10
f 11 18 19
f 11 19 12
f 12 19 25
f 12 25 20
f 12 20 14
f 12 14 13
f 15 21 22
f 15 22 16
f 16 22 23
f 18 24 25
f 18 25 19
f 20 25 26
f 20 26 27
f 21 28 29
f 21 29 23
f 21 23 22
f 24 26 25
f 26 29 28
f 26 28 27

