# https://github.com/mikedh/trimesh
v -6.02693987 1.10572303 -5.08243531
v -5.64558296 1.10572303 -5.10287710
v -6.02693987 1.10572303 -5.01834541
v -6.02693987 2.09481443 -5.10291913
v -5.53774573 1.10572303 -5.09275676
v -5.70385913 2.03653674 -5.10337134
v -5.64558296 2.03653674 -5.10314524
v -5.76213529 1.10572303 -5.01779264
v -6.02693987 2.09481443 -5.01834541
v -6.02693987 2.44448087 -5.09243826
v -5.70385913 2.09481443 -5.10291913
v -5.53774573 1.10572303 -5.04013604
v -5.53774573 2.03653674 -5.09275676
v -5.53774573 2.44448087 -5.09243826
v -5.76074664 1.10572303 -5.01779264
v -5.64558296 2.09481443 -5.01834541
v -6.02693987 2.11315360 -5.01920834
v -6.02693987 2.49352111 -5.08641496
v -5.60545525 1.10572303 -5.02023885
v -5.53774573 2.14236039 -5.04013604
v -5.53774573 2.49352111 -5.08641496
v -5.64558296 1.10572303 -5.01832874
v -5.60545525 2.09481443 -5.02023885
v -5.60914240 2.13135688 -5.02086716
v -5.64558296 2.13502472 -5.02023885
v -5.64462526 1.10572303 -5.01837059
v -6.02693987 2.13502472 -5.02023885
v -6.02693987 2.49352111 -5.06117262
v -5.53774573 2.44448087 -5.04197078
v -5.53774573 2.49352111 -5.06117262
v -6.02693987 2.44448087 -5.04197078
f 1 2 5
f 1 5 12
f 1 12 19
f 1 19 26
f 1 26 22
f 1 22 15
f 1 15 8
f 1 8 3
f 1 3 9
f 1 9 17
f 1 17 27
f 1 27 31
f 1 31 28
f 1 28 18
f 1 18 10
f 1 10 4
f 1 4 2
f 2 4 6
f 2 6 7
f 2 7 5
f 3 8 9
f 4 10 14
f 4 14 11
f 4 11 6
f 5 7 13
f 5 13 14
f 5 14 21
f 5 21 30
f 5 30 29
f 5 29 20
f 5 20 12
f 6 11 7
f 7 11 14
f 7 14 13
f 8 15 16
f 8 16 9
f 9 16 17
f 10 18 21
f 10 21 14
f 12 20 23
f 12 23 19
f 15 22 16
f 16 23 24
f 16 24 25
f 16 25 17
f 16 22 26
f 16 26 23
f 17 25 27
f 18 28 30
f 18 30 21
f 19 23 26
f 20 29 23
f 23 29 24
f 24 29 25
f 25 29 31
f 25 31 27
f 28 31 29
f 28 29 30

