# https://github.com/mikedh/trimesh
v -6.71594168 0.69274582 -1.45486533
v -6.66728028 0.64204702 -1.52075425
v -6.66728028 0.64204702 -1.53148823
v -6.71594168 0.68787268 -1.53148823
v -6.71594168 0.56300336 -1.45486533
v -6.66728028 0.63844804 -1.45486533
v -6.66728028 0.63911864 -1.46037859
v -6.66728028 0.48541274 -1.53148823
v -6.71594168 0.55786196 -1.53148823
v -6.66728028 0.46439995 -1.45486533
v -6.66728028 0.46723889 -1.47723339
v -6.69178247 0.51807184 -1.53148823
v -6.69833197 0.52703581 -1.53148823
v -6.66728028 0.46630007 -1.47403045
f 1 2 3
f 1 3 4
f 1 4 9
f 1 9 5
f 1 5 10
f 1 10 6
f 1 6 7
f 1 7 2
f 2 7 6
f 2 6 10
f 2 10 14
f 2 14 11
f 2 11 8
f 2 8 3
f 3 8 12
f 3 12 13
f 3 13 9
f 3 9 4
f 5 9 10
f 8 11 12
f 9 13 14
f 9 14 10
f 11 14 13
f 11 13 12

