# https://github.com/mikedh/trimesh
v -6.69198410 0.27919387 -3.57648799
v -6.69198410 0.35823288 -3.57648799
v -6.63819055 0.29967491 -3.57648799
v -6.69198410 0.27948754 -3.24446008
v -6.63819055 0.35340412 -3.57648799
v -6.69198410 0.36743247 -3.25237421
v -6.64682703 0.36743247 -3.24556439
v -6.64537357 0.36743247 -3.24528827
v -6.63819055 0.36743247 -3.24326372
v -6.63819055 0.30009813 -3.24487417
v -6.69198410 0.28140520 -3.18657600
v -6.69198410 0.36743247 -3.10646783
v -6.63819055 0.36743247 -3.13136076
v -6.63819055 0.30309554 -3.18657600
v -6.69198410 0.29164138 -3.13255704
v -6.69198410 0.36319980 -3.10697397
v -6.69198410 0.34678732 -3.10899853
v -6.63819055 0.34678732 -3.13458159
v -6.63819055 0.31156097 -3.15027198
v -6.69198410 0.29661698 -3.13030246
v -6.69198410 0.33918578 -3.11143727
v -6.63819055 0.34499061 -3.13513384
f 1 2 5
f 1 5 3
f 1 3 4
f 1 4 11
f 1 11 15
f 1 15 20
f 1 20 21
f 1 21 17
f 1 17 16
f 1 16 12
f 1 12 6
f 1 6 2
f 2 6 7
f 2 7 8
f 2 8 9
f 2 9 5
f 3 5 9
f 3 9 13
f 3 13 18
f 3 18 22
f 3 22 19
f 3 19 14
f 3 14 10
f 3 10 4
f 4 10 11
f 6 12 13
f 6 13 9
f 6 9 8
f 6 8 7
f 10 14 11
f 11 14 15
f 12 16 13
f 13 16 17
f 13 17 18
f 14 19 15
f 15 19 20
f 17 21 22
f 17 22 18
f 19 22 20
f 20 22 21

