# https://github.com/mikedh/trimesh
v -5.21641033 0.52240841 -0.99534324
v -5.20785211 0.52240841 -1.00006052
v -5.21641033 0.52240841 -1.09817390
v -5.21641033 0.23025540 -1.00982277
v -5.17761679 0.52240841 -1.02954369
v -5.18670428 0.23025540 -1.03776625
v -5.17252690 0.52240841 -1.33000978
v -5.21641033 0.18375315 -1.33000978
v -5.21641033 0.17199899 -1.01834012
v -5.19062304 0.17199899 -1.04166453
v -5.14918320 0.52240841 -1.05928891
v -5.15759503 0.23025540 -1.06905117
v -5.10136973 0.52240841 -1.33000978
v -5.21641033 0.11845204 -1.33000978
v -5.21641033 0.13475754 -1.04192659
v -5.19915875 0.13673643 -1.05028018
v -5.16149129 0.17199899 -1.07419426
v -5.13386848 0.52240841 -1.08677375
v -5.13803498 0.23025540 -1.09820672
v -5.14128936 0.17199899 -1.10331708
v -5.10136973 0.52240841 -1.14544521
v -5.10136973 0.19376600 -1.33000978
v -5.18750380 0.11904571 -1.33000978
v -5.17939600 0.11833334 -1.26357440
v -5.21641033 0.11813546 -1.30059217
v -5.21641033 0.12905856 -1.06754421
v -5.17959869 0.13210589 -1.09083589
v -5.14645808 0.13938799 -1.11163785
v -5.10136973 0.23025540 -1.17027658
v -5.12097483 0.17199899 -1.14711593
v -5.10136973 0.21877823 -1.17309390
v -5.10136973 0.17057418 -1.32247518
v -5.10894827 0.17077207 -1.33000978
v -5.17939600 0.11995596 -1.33000978
v -5.17939600 0.11924360 -1.32185277
v -5.13027627 0.13076036 -1.26357440
v -5.17939600 0.11876872 -1.20529602
v -5.21641033 0.11825424 -1.20529602
v -5.21641033 0.11813546 -1.26357440
v -5.21641033 0.12419071 -1.08959108
v -5.17939600 0.12221183 -1.14711593
v -5.13963402 0.13467844 -1.14711593
v -5.10136973 0.16950563 -1.20146320
v -5.10136973 0.15236907 -1.26357440
v -5.13506212 0.13238297 -1.33000978
v -5.14020832 0.13068117 -1.33000978
v -5.13384595 0.13167061 -1.32185277
v -5.13221314 0.13119573 -1.20529602
v -5.10136973 0.15236907 -1.26311575
v -5.21641033 0.11952067 -1.14711593
f 1 2 5
f 1 5 11
f 1 11 18
f 1 18 21
f 1 21 13
f 1 13 7
f 1 7 3
f 1 3 8
f 1 8 14
f 1 14 25
f 1 25 39
f 1 39 38
f 1 38 50
f 1 50 40
f 1 40 26
f 1 26 15
f 1 15 9
f 1 9 4
f 1 4 2
f 2 4 6
f 2 6 5
f 3 7 8
f 4 9 10
f 4 10 6
f 5 6 11
f 6 10 12
f 6 12 11
f 7 13 22
f 7 22 33
f 7 33 45
f 7 45 46
f 7 46 34
f 7 34 23
f 7 23 14
f 7 14 8
f 9 15 16
f 9 16 10
f 10 16 17
f 10 17 12
f 11 12 19
f 11 19 18
f 12 17 20
f 12 20 19
f 13 21 29
f 13 29 31
f 13 31 43
f 13 43 49
f 13 49 44
f 13 44 32
f 13 32 22
f 14 23 24
f 14 24 25
f 15 26 16
f 16 26 27
f 16 27 28
f 16 28 17
f 17 28 20
f 18 19 21
f 19 29 21
f 19 20 29
f 20 28 30
f 20 30 31
f 20 31 29
f 22 32 33
f 23 34 35
f 23 35 24
f 24 35 36
f 24 36 37
f 24 37 38
f 24 38 39
f 24 39 25
f 26 40 27
f 27 40 41
f 27 41 42
f 27 42 28
f 28 43 30
f 28 42 43
f 30 43 31
f 32 44 45
f 32 45 33
f 34 46 47
f 34 47 35
f 35 47 36
f 36 48 37
f 36 47 44
f 36 44 49
f 36 49 48
f 37 50 38
f 37 48 41
f 37 41 50
f 40 50 41
f 41 48 42
f 42 48 49
f 42 49 43
f 44 47 45
f 45 47 46

