# https://github.com/mikedh/trimesh
v -6.46897157 0.99040364 -3.63847458
v -6.39894215 0.99040364 -3.63847458
v -6.47226568 0.99040364 -3.59098384
v -6.49369127 1.06006148 -3.57186128
v -6.47343729 1.04507600 -3.63847458
v -6.39558092 1.04605772 -3.63847458
v -6.41633426 1.05447441 -3.41966381
v -6.41371248 0.99040364 -3.54574142
v -6.46641708 0.99040364 -3.54783814
v -6.49369127 1.06006148 -3.55604794
v -6.49369127 1.09049436 -3.57186128
v -6.47351414 1.04605772 -3.63847458
v -6.40448346 1.10464248 -3.63847458
v -6.40738370 1.10888692 -3.53285837
v -6.41633426 1.09208242 -3.41966381
v -6.42197160 1.06104317 -3.38043358
v -6.44588455 1.06104317 -3.38043358
v -6.46381449 0.99040364 -3.54766126
v -6.49369127 1.09049436 -3.55604794
v -6.44880407 1.13789056 -3.57961643
v -6.46107748 1.11542681 -3.63847458
v -6.46646510 1.10703900 -3.63847458
v -6.40490598 1.10731330 -3.63847458
v -6.42112647 1.13789056 -3.55003583
v -6.42197160 1.08619218 -3.38043358
v -6.44588455 1.08619218 -3.38043358
v -6.44880407 1.13789056 -3.55003583
v -6.45340422 1.09208242 -3.41966381
v -6.42112647 1.13789056 -3.57961643
v -6.45354827 1.11445954 -3.63847458
f 1 2 8
f 1 8 18
f 1 18 9
f 1 9 3
f 1 3 4
f 1 4 5
f 1 5 12
f 1 12 22
f 1 22 21
f 1 21 30
f 1 30 23
f 1 23 13
f 1 13 6
f 1 6 2
f 2 6 7
f 2 7 8
f 3 9 10
f 3 10 4
f 4 11 12
f 4 12 5
f 4 10 19
f 4 19 11
f 6 13 14
f 6 14 15
f 6 15 7
f 7 15 25
f 7 25 16
f 7 16 8
f 8 16 17
f 8 17 18
f 9 18 17
f 9 17 10
f 10 17 26
f 10 26 19
f 11 19 27
f 11 27 20
f 11 20 21
f 11 21 22
f 11 22 12
f 13 23 14
f 14 23 24
f 14 24 15
f 15 24 25
f 16 25 26
f 16 26 17
f 19 26 28
f 19 28 27
f 20 27 24
f 20 24 29
f 20 29 21
f 21 29 30
f 23 30 29
f 23 29 24
f 24 27 26
f 24 26 25
f 26 27 28

