# https://github.com/mikedh/trimesh
v -3.77737030 1.10399279 0.14002088
v -3.75134596 1.10399279 -0.12631267
v -3.83700064 1.10399279 0.14002088
v -3.77737030 0.05545813 0.14002088
v -3.75134596 1.10399279 -0.13591029
v -3.75134596 0.11373407 -0.12631267
v -3.83701227 1.05113276 0.14002088
v -3.83761696 1.10399279 -0.03993425
v -3.87014157 1.02004499 -0.03993425
v -3.86959505 1.01917846 -0.00803874
v -3.77880058 0.05036704 0.14002088
v -3.75162503 0.02577846 -0.12697467
v -3.75145068 0.05545813 -0.12656083
v -3.75354366 1.10399279 -0.16503398
v -3.75134596 0.11373407 -0.13591029
v -3.83701227 0.98776573 0.14002088
v -3.83748906 1.10399279 -0.09814047
v -3.86944388 1.01885350 -0.07555291
v -3.87014157 1.00942967 -0.03993425
v -3.83717508 1.10399279 -0.15642936
v -3.86959505 1.01148774 -0.00803874
v -3.79369646 -0.00249299 0.14002088
v -3.77591674 0.00303139 -0.15237521
v -3.75162503 0.02577846 -0.13024282
v -3.75145068 0.05545813 -0.13380047
v -3.77469572 1.10399279 -0.28260475
v -3.75354366 0.11373407 -0.16503398
v -3.76880024 0.05545813 -0.28260475
v -3.83700064 0.05545813 0.14002088
v -3.86944388 1.01235431 -0.07555291
v -3.82725610 1.10399279 -0.28260475
v -3.83700064 0.05545813 -0.28260475
v -3.82351176 -0.00249299 0.14002088
v -3.79369646 -0.00249299 -0.03993425
v -3.78620780 -0.00227634 -0.21471824
v -3.78941725 -0.00216806 -0.28260475
v -3.75370655 0.05545813 -0.16292433
v -3.82351176 -0.00216806 -0.28260475
v -3.82351176 -0.00249299 -0.15642936
f 1 2 5
f 1 5 14
f 1 14 26
f 1 26 31
f 1 31 20
f 1 20 17
f 1 17 8
f 1 8 3
f 1 3 7
f 1 7 16
f 1 16 29
f 1 29 33
f 1 33 22
f 1 22 11
f 1 11 4
f 1 4 6
f 1 6 2
f 2 6 15
f 2 15 5
f 3 8 9
f 3 9 10
f 3 10 7
f 4 11 12
f 4 12 13
f 4 13 6
f 5 15 27
f 5 27 14
f 6 13 25
f 6 25 15
f 7 10 21
f 7 21 16
f 8 17 9
f 9 18 30
f 9 30 19
f 9 19 21
f 9 21 10
f 9 17 20
f 9 20 18
f 11 22 12
f 12 22 23
f 12 23 24
f 12 24 25
f 12 25 13
f 14 27 28
f 14 28 26
f 15 25 27
f 16 21 29
f 18 20 31
f 18 31 32
f 18 32 30
f 19 30 32
f 19 32 29
f 19 29 21
f 22 33 39
f 22 39 34
f 22 34 35
f 22 35 23
f 23 36 24
f 23 35 36
f 24 36 28
f 24 28 37
f 24 37 25
f 25 37 27
f 26 28 36
f 26 36 38
f 26 38 32
f 26 32 31
f 27 37 28
f 29 32 39
f 29 39 33
f 32 38 39
f 34 39 35
f 35 39 36
f 36 39 38

