# https://github.com/mikedh/trimesh
v -4.93526550 1.97846997 -1.91310984
v -4.93526550 1.97846997 -2.08623266
v -5.05154635 1.97846997 -1.91310984
v -4.93526550 0.02608367 -1.91310984
v -5.05195760 1.97846997 -1.91312677
v -4.93526550 0.05545170 -2.08428384
v -5.05078097 0.11379616 -1.91310984
v -5.05193474 1.97827421 -1.91310984
v -4.94093160 0.00474283 -1.91310984
v -4.93526550 0.00865857 -1.91731251
v -4.93526550 0.05055703 -2.08394492
v -5.05060961 0.05545170 -1.91310984
v -4.94590086 -0.00034756 -1.91310984
v -4.93526550 -0.02168840 -1.97401464
v -4.93526550 0.01374913 -2.06357553
v -4.97981754 0.01374913 -1.99956957
v -4.99126399 0.00278496 -1.96288096
v -5.00745123 -0.00661278 -1.91310984
v -4.93526550 -0.02149251 -1.98079314
v -4.93526550 -0.00171810 -2.05062861
v -4.93526550 -0.01601051 -2.03261475
f 1 2 5
f 1 5 3
f 1 3 8
f 1 8 7
f 1 7 12
f 1 12 18
f 1 18 13
f 1 13 9
f 1 9 4
f 1 4 10
f 1 10 14
f 1 14 19
f 1 19 21
f 1 21 20
f 1 20 15
f 1 15 11
f 1 11 6
f 1 6 2
f 2 6 7
f 2 7 5
f 3 5 8
f 4 9 10
f 5 7 8
f 6 11 12
f 6 12 7
f 9 13 14
f 9 14 10
f 11 15 16
f 11 16 12
f 12 16 17
f 12 17 18
f 13 18 14
f 14 18 19
f 15 20 16
f 16 20 21
f 16 21 17
f 17 21 18
f 18 21 19

