# https://github.com/mikedh/trimesh
v -6.09432935 0.29212538 0.15670879
v -6.09432935 0.44820837 0.15670879
v -6.02799417 0.29212538 0.15670879
v -6.09432935 0.29212538 0.30240608
v -6.09432935 0.48261573 0.19285416
v -6.09429644 0.48274633 0.15670879
v -5.92653649 0.36187293 0.15670879
v -5.92653649 0.29214404 0.24900005
v -6.02099593 0.29212538 0.18281492
v -6.02099593 0.29212538 0.31142783
v -5.94199499 0.29214404 0.32829687
v -5.99147534 0.29214404 0.32082123
v -5.99520439 0.29214404 0.32019500
v -6.09432935 0.30197732 0.31058626
v -5.92653649 0.47160684 0.25144626
v -6.09432935 0.48185066 0.25144626
v -5.92653649 0.47160684 0.15670879
v -5.92653649 0.29214404 0.32745547
v -5.94156787 0.29214404 0.32827742
v -5.92653649 0.30360072 0.33334593
v -5.94214282 0.29397262 0.32921676
v -6.09432935 0.35623794 0.34790595
v -6.09432935 0.33578755 0.33628151
v -6.09432935 0.32709245 0.33129115
v -5.92653649 0.46628904 0.29927494
v -6.09432935 0.46438579 0.31268028
v -6.05345715 0.46526279 0.30970562
v -5.93693526 0.46513219 0.30968600
v -5.92653649 0.46490825 0.30968600
v -5.92653649 0.31651277 0.33886457
v -5.96502665 0.31772563 0.33878642
v -5.99520439 0.35144251 0.34790595
v -6.09432935 0.37079197 0.35048917
v -5.94214282 0.34101210 0.34592932
v -6.09432935 0.44246145 0.34469649
v -6.05345715 0.44645446 0.34753414
v -6.02099593 0.44645446 0.34753414
v -5.93693526 0.44643580 0.34751451
v -5.92653649 0.44953324 0.34076287
v -5.92653649 0.31752036 0.33923655
v -5.99520439 0.40504998 0.35659497
v -6.05345715 0.40503132 0.35663404
v -6.09432935 0.40630018 0.35181977
v -5.92653649 0.34172116 0.34563583
v -5.93693526 0.40504998 0.35618391
v -6.02099593 0.42811260 0.35156553
v -5.99520439 0.44643580 0.34753414
v -5.92653649 0.44619319 0.34731879
v -5.92653649 0.41221512 0.35444225
v -5.92653649 0.40504998 0.35575340
f 1 2 6
f 1 6 17
f 1 17 7
f 1 7 3
f 1 3 9
f 1 9 10
f 1 10 4
f 1 4 14
f 1 14 24
f 1 24 23
f 1 23 22
f 1 22 33
f 1 33 43
f 1 43 35
f 1 35 26
f 1 26 16
f 1 16 5
f 1 5 2
f 2 5 6
f 3 7 8
f 3 8 9
f 4 10 11
f 4 11 12
f 4 12 13
f 4 13 14
f 5 15 6
f 5 16 15
f 6 15 17
f 7 17 15
f 7 15 25
f 7 25 29
f 7 29 39
f 7 39 48
f 7 48 49
f 7 49 50
f 7 50 44
f 7 44 40
f 7 40 30
f 7 30 20
f 7 20 18
f 7 18 8
f 8 18 10
f 8 10 9
f 10 18 19
f 10 19 11
f 11 19 20
f 11 20 21
f 11 21 22
f 11 22 23
f 11 23 24
f 11 24 12
f 12 24 13
f 13 24 14
f 15 16 25
f 16 26 27
f 16 27 28
f 16 28 29
f 16 29 25
f 18 20 19
f 20 30 21
f 21 30 31
f 21 31 22
f 22 32 33
f 22 31 34
f 22 34 32
f 26 28 27
f 26 35 36
f 26 36 37
f 26 37 38
f 26 38 28
f 28 38 29
f 29 38 39
f 30 40 31
f 31 40 34
f 32 41 42
f 32 42 33
f 32 34 41
f 33 42 43
f 34 40 44
f 34 44 45
f 34 45 41
f 35 43 42
f 35 42 36
f 36 42 46
f 36 46 37
f 37 46 47
f 37 47 38
f 38 48 39
f 38 47 46
f 38 46 42
f 38 42 41
f 38 41 45
f 38 45 49
f 38 49 48
f 44 50 45
f 45 50 49

