# https://github.com/mikedh/trimesh
v -6.52916605 0.17877269 -1.08867744
v -6.60198335 0.28825097 -1.08882088
v -6.60186161 0.28805352 -1.08867744
v -6.52916605 0.16215963 -1.08867744
v -6.52916605 0.18409231 -1.45486529
v -6.58787702 0.28825097 -1.45486529
v -6.60222673 0.28825097 -1.08867744
v -6.65011793 0.16215963 -1.08867744
v -6.52916605 0.16215963 -1.45486529
v -6.66688859 0.28825097 -1.45486529
v -6.66732144 0.28825097 -1.08867744
v -6.65531139 0.16219662 -1.08867744
v -6.65529793 0.16215963 -1.08882088
v -6.65314747 0.16215963 -1.45486529
v -6.66688859 0.23024107 -1.45486529
v -6.66732144 0.28825097 -1.43848273
v -6.66732144 0.23024107 -1.08867744
v -6.65840857 0.16597352 -1.08867744
v -6.65840857 0.16594877 -1.08882088
v -6.65529793 0.16215963 -1.43841100
v -6.65755650 0.16873822 -1.45486529
v -6.65479753 0.16215963 -1.44482783
v -6.65840857 0.16594877 -1.43841100
v -6.66668575 0.21449199 -1.45486529
v -6.66732144 0.23024107 -1.43841100
v -6.66632054 0.19508948 -1.08882088
v -6.66632054 0.19521295 -1.08867744
v -6.65516265 0.16215963 -1.44016760
v -6.66200616 0.18075982 -1.45486529
v -6.66632054 0.19508948 -1.43841100
v -6.66615825 0.19603993 -1.45486529
f 1 2 3
f 1 3 7
f 1 7 11
f 1 11 17
f 1 17 27
f 1 27 18
f 1 18 12
f 1 12 8
f 1 8 4
f 1 4 9
f 1 9 5
f 1 5 6
f 1 6 2
f 2 7 3
f 2 6 10
f 2 10 16
f 2 16 11
f 2 11 7
f 4 8 13
f 4 13 20
f 4 20 28
f 4 28 22
f 4 22 14
f 4 14 9
f 5 9 14
f 5 14 21
f 5 21 29
f 5 29 31
f 5 31 24
f 5 24 15
f 5 15 10
f 5 10 6
f 8 12 13
f 10 15 16
f 11 16 25
f 11 25 17
f 12 18 19
f 12 19 13
f 13 19 23
f 13 23 20
f 14 22 23
f 14 23 21
f 15 24 25
f 15 25 16
f 17 26 27
f 17 25 30
f 17 30 26
f 18 27 26
f 18 26 19
f 19 26 30
f 19 30 23
f 20 23 28
f 21 23 29
f 22 28 23
f 23 30 31
f 23 31 29
f 24 31 30
f 24 30 25

