# https://github.com/mikedh/trimesh
v -6.67552377 0.75510708 -0.94460875
v -6.69698713 0.75510708 -0.97159188
v -6.71594159 0.75510708 -0.94460875
v -6.64759723 0.67659965 -0.94460875
v -6.64759723 0.66256157 -0.96895508
v -6.64759723 0.62894072 -1.02622926
v -6.71594159 0.75510708 -0.98885088
v -6.71594159 0.57848423 -0.94460875
v -6.64759723 0.55749010 -0.94460875
v -6.71594159 0.69081417 -1.02622926
v -6.64759723 0.49763292 -1.02622926
v -6.71594159 0.57024287 -0.97235895
v -6.67021144 0.49763292 -1.02622926
v -6.66582239 0.49763292 -1.01434780
v -6.66109878 0.49763292 -1.00677300
v -6.64785815 0.49763292 -0.98571071
v -6.64759723 0.49763292 -0.98533517
v -6.69437117 0.57107453 -0.94460875
v -6.71594159 0.56439574 -1.02622926
f 1 2 7
f 1 7 3
f 1 3 8
f 1 8 18
f 1 18 9
f 1 9 4
f 1 4 5
f 1 5 6
f 1 6 2
f 2 6 7
f 3 7 10
f 3 10 19
f 3 19 12
f 3 12 8
f 4 9 17
f 4 17 11
f 4 11 6
f 4 6 5
f 6 10 7
f 6 11 13
f 6 13 19
f 6 19 10
f 8 12 13
f 8 13 14
f 8 14 15
f 8 15 16
f 8 16 17
f 8 17 18
f 9 18 17
f 11 17 16
f 11 16 15
f 11 15 14
f 11 14 13
f 12 19 13

