# https://github.com/mikedh/trimesh
v -6.66725380 0.26138532 -1.64001019
v -6.66725380 0.26138532 -1.53278388
v -6.66725380 0.28854958 -1.64002834
v -6.39645956 0.26138532 -1.63810711
v -6.66688269 0.26138532 -1.45486533
v -6.66725380 0.46435340 -1.45486533
v -6.66725380 0.46331004 -1.64002834
v -6.39645956 0.26138532 -1.50028610
v -6.39645956 0.52158842 -1.63810711
v -6.58223794 0.26138532 -1.45486533
v -6.66725380 0.63844318 -1.45486533
v -6.66725380 0.52158842 -1.64001019
v -6.39645956 0.52158842 -1.50403795
v -6.58822912 0.52158842 -1.45486533
v -6.66725380 0.57912152 -1.63843334
v -6.39645956 0.57986675 -1.63473589
v -6.64002859 0.62126524 -1.45486533
v -6.39645956 0.61355194 -1.52136523
v -6.39645956 0.62506601 -1.55496863
v -6.66725380 0.63911395 -1.46037529
v -6.39645956 0.52822110 -1.50476294
v -6.60296836 0.58959223 -1.45486533
v -6.59538661 0.57006677 -1.45486533
v -6.66725380 0.57986675 -1.63837898
v -6.66725380 0.61496790 -1.62373413
v -6.66725380 0.63080442 -1.61333049
v -6.39645956 0.62052001 -1.60772993
v -6.39645956 0.58370478 -1.51168660
v -6.66725380 0.64202036 -1.55496863
v -6.66725380 0.64202036 -1.52076714
v -6.39645956 0.57986675 -1.51045412
v -6.66725380 0.63807059 -1.57675465
f 1 2 6
f 1 6 11
f 1 11 20
f 1 20 30
f 1 30 29
f 1 29 32
f 1 32 26
f 1 26 25
f 1 25 24
f 1 24 15
f 1 15 12
f 1 12 7
f 1 7 3
f 1 3 4
f 1 4 8
f 1 8 10
f 1 10 5
f 1 5 2
f 2 5 6
f 3 7 9
f 3 9 4
f 4 9 16
f 4 16 27
f 4 27 19
f 4 19 18
f 4 18 28
f 4 28 31
f 4 31 21
f 4 21 13
f 4 13 8
f 5 10 14
f 5 14 23
f 5 23 22
f 5 22 17
f 5 17 11
f 5 11 6
f 7 12 9
f 8 13 14
f 8 14 10
f 9 12 15
f 9 15 16
f 11 17 18
f 11 18 19
f 11 19 20
f 13 21 22
f 13 22 23
f 13 23 14
f 15 24 16
f 16 24 25
f 16 25 26
f 16 26 27
f 17 22 18
f 18 22 28
f 19 27 29
f 19 29 30
f 19 30 20
f 21 31 22
f 22 31 28
f 26 32 27
f 27 32 29

