# https://github.com/mikedh/trimesh
v -5.04778712 0.49913180 -1.32995994
v -5.05298690 0.49966607 -1.54094779
v -4.95933553 0.49913180 -1.32995994
v -5.10135582 0.49913180 -1.23862199
v -5.10135582 0.49916323 -1.32995994
v -5.09319469 0.54523801 -1.54094779
v -4.95933553 0.49966607 -1.54094779
v -4.95932163 0.49913180 -0.94980595
v -5.10135582 0.49913180 -1.16320201
v -5.10135582 0.65376202 -1.32995994
v -5.09319469 0.66473070 -1.54094779
v -4.95933553 0.82020952 -1.54094779
v -4.95932163 0.82020952 -0.94093649
v -4.95932163 0.49913180 -0.94093649
v -5.02633464 0.49913180 -0.94111267
v -5.05967428 0.52311204 -0.94093649
v -5.10135582 0.56085815 -0.94093649
v -5.10135582 0.82020952 -0.98416781
v -5.08342080 0.82020952 -1.54094779
v -5.10135582 0.82020952 -0.94093649
v -5.02556996 0.49913180 -0.94093649
v -5.02709929 0.49994897 -0.94093649
f 1 2 7
f 1 7 3
f 1 3 8
f 1 8 14
f 1 14 21
f 1 21 15
f 1 15 9
f 1 9 4
f 1 4 5
f 1 5 2
f 2 6 11
f 2 11 19
f 2 19 12
f 2 12 7
f 2 5 6
f 3 7 8
f 4 9 17
f 4 17 20
f 4 20 18
f 4 18 10
f 4 10 5
f 5 10 11
f 5 11 6
f 7 12 8
f 8 13 14
f 8 12 13
f 9 15 16
f 9 16 17
f 10 18 19
f 10 19 11
f 12 19 18
f 12 18 20
f 12 20 13
f 13 20 17
f 13 17 16
f 13 16 22
f 13 22 21
f 13 21 14
f 15 21 22
f 15 22 16

