# https://github.com/mikedh/trimesh
v -6.35135469 2.48833720 -0.15868645
v -6.37805509 2.48833720 -0.15868645
v -6.32958030 2.44614595 -0.15868645
v -6.35126030 2.48833720 -0.68148240
v -6.37805509 2.48833720 -0.68148240
v -6.37809703 2.48809469 -0.68148240
v -6.37820705 2.48688235 -0.15868645
v -6.32873656 2.44444857 -0.15868645
v -6.32886238 2.44493352 -0.68148240
v -6.38215318 2.44444857 -0.15868645
v -6.38215318 2.44444857 -0.68148240
v -6.32865798 2.44444857 -0.68148240
v -6.32861604 0.81523601 -0.15868645
v -6.38215318 0.05555112 -0.15868645
v -6.38215318 0.05555112 -0.68148240
v -6.32865798 0.05555112 -0.68148240
v -6.32861604 0.75485888 -0.15868645
v -6.38211124 0.05506617 -0.68148240
v -6.38199593 0.05385375 -0.15868645
v -6.32873656 0.05555112 -0.15868645
v -6.35050565 0.01311735 -0.15868645
v -6.35099833 0.01214744 -0.68148240
v -6.37805509 0.01166249 -0.68148240
v -6.37805509 0.01166249 -0.15868645
v -6.35135469 0.01166249 -0.15868645
v -6.35126030 0.01166249 -0.68148240
f 1 2 7
f 1 7 10
f 1 10 14
f 1 14 19
f 1 19 24
f 1 24 25
f 1 25 21
f 1 21 20
f 1 20 17
f 1 17 13
f 1 13 8
f 1 8 3
f 1 3 4
f 1 4 5
f 1 5 2
f 2 5 6
f 2 6 7
f 3 8 9
f 3 9 4
f 4 9 12
f 4 12 16
f 4 16 22
f 4 22 26
f 4 26 23
f 4 23 18
f 4 18 15
f 4 15 11
f 4 11 6
f 4 6 5
f 6 10 7
f 6 11 10
f 8 12 9
f 8 13 12
f 10 11 15
f 10 15 14
f 12 13 17
f 12 17 16
f 14 15 18
f 14 18 19
f 16 17 20
f 16 20 21
f 16 21 22
f 18 23 24
f 18 24 19
f 21 25 26
f 21 26 22
f 23 26 25
f 23 25 24

