# https://github.com/mikedh/trimesh
v -6.73390435 1.16395465 -1.03080717
v -6.71594880 1.04635926 -1.16438031
v -6.71594880 1.09705200 -1.19152112
v -6.71594880 1.10259285 -1.20535315
v -6.71594880 1.11343874 -1.23477441
v -6.71594880 1.11727016 -1.26359749
v -6.73390435 1.16395465 -1.41272236
v -6.78928613 1.16395465 -1.03080717
v -6.71595601 0.68809119 -1.03080717
v -6.71594880 0.68355240 -1.03080717
v -6.71594880 1.09669834 -1.31429021
v -6.78928613 1.16395465 -1.41272236
v -6.71594880 1.08078317 -1.32524370
v -6.71594880 1.05685148 -1.33952448
v -6.71594880 1.03109248 -1.34954331
v -6.71594880 0.98175547 -1.35963700
v -6.71594880 0.72068782 -1.41272236
v -6.78928613 0.69616666 -1.03080717
v -6.71594880 0.56365815 -1.03080717
v -6.78928613 0.63816471 -1.41272236
v -6.71594880 0.56283296 -1.41272236
v -6.78928613 0.63816471 -1.08882714
v -6.78926460 0.63798788 -1.03080717
v -6.75139336 0.58210795 -1.03080717
v -6.71594880 0.56277400 -1.08882714
v -6.78557427 0.60191349 -1.41272236
v -6.71594880 0.56177192 -1.26359749
v -6.73493104 0.57308936 -1.41272236
v -6.78557427 0.60191349 -1.03080717
v -6.75272865 0.58281532 -1.03080717
v -6.77107920 0.59348435 -1.41272236
v -6.75272865 0.58187216 -1.26359749
v -6.75272865 0.58281532 -1.41272236
f 1 2 3
f 1 3 4
f 1 4 5
f 1 5 6
f 1 6 7
f 1 7 12
f 1 12 8
f 1 8 18
f 1 18 23
f 1 23 29
f 1 29 30
f 1 30 24
f 1 24 19
f 1 19 10
f 1 10 9
f 1 9 2
f 2 9 10
f 2 10 19
f 2 19 25
f 2 25 27
f 2 27 21
f 2 21 17
f 2 17 16
f 2 16 15
f 2 15 14
f 2 14 13
f 2 13 11
f 2 11 6
f 2 6 5
f 2 5 4
f 2 4 3
f 6 11 7
f 7 11 13
f 7 13 14
f 7 14 15
f 7 15 16
f 7 16 17
f 7 17 21
f 7 21 28
f 7 28 33
f 7 33 31
f 7 31 26
f 7 26 20
f 7 20 12
f 8 12 20
f 8 20 22
f 8 22 18
f 18 22 23
f 19 24 25
f 20 26 29
f 20 29 22
f 21 27 28
f 22 29 23
f 24 30 25
f 25 30 27
f 26 31 32
f 26 32 29
f 27 32 33
f 27 33 28
f 27 30 32
f 29 32 30
f 31 33 32

