# https://github.com/mikedh/trimesh
v -6.39648492 0.16215963 -1.02627918
v -6.64671580 0.16215963 -1.02627918
v -6.39648492 0.11921008 -1.02627918
v -6.39648492 0.16215963 -1.45482340
v -6.64833737 0.16215963 -1.02959379
v -6.62702875 0.13128786 -1.02627918
v -6.39818247 0.11921008 -1.02627918
v -6.39648492 0.11815847 -1.03055874
v -6.39648492 0.11814987 -1.45482340
v -6.65312611 0.16215963 -1.45482340
v -6.64899616 0.16215963 -1.03097831
v -6.62783958 0.13084650 -1.03055874
v -6.57789977 0.11850032 -1.03055874
v -6.57789977 0.11959952 -1.02627918
v -6.51964935 0.11923604 -1.02627918
v -6.51964935 0.11815847 -1.03055874
v -6.39648492 0.11795077 -1.08883643
v -6.39648492 0.11795077 -1.43841839
v -6.51964935 0.11814987 -1.45482340
v -6.65479839 0.16215963 -1.44483773
v -6.64917356 0.15624843 -1.45482340
v -6.65527979 0.16215963 -1.08883643
v -6.62925840 0.13045697 -1.08883643
v -6.57285766 0.11954759 -1.02627918
v -6.57789977 0.11801138 -1.08883643
v -6.51964935 0.11795077 -1.08883643
v -6.51964935 0.11795077 -1.43841839
v -6.57789977 0.11842678 -1.45482340
v -6.57789977 0.11801138 -1.43841839
v -6.65515310 0.16215963 -1.44018054
v -6.62827026 0.13077286 -1.45482340
v -6.65527979 0.16215963 -1.43841839
v -6.62925840 0.13045697 -1.43841839
f 1 2 6
f 1 6 14
f 1 14 24
f 1 24 15
f 1 15 7
f 1 7 3
f 1 3 8
f 1 8 17
f 1 17 18
f 1 18 9
f 1 9 4
f 1 4 10
f 1 10 20
f 1 20 30
f 1 30 32
f 1 32 22
f 1 22 11
f 1 11 5
f 1 5 2
f 2 5 6
f 3 7 16
f 3 16 8
f 4 9 19
f 4 19 28
f 4 28 31
f 4 31 21
f 4 21 10
f 5 11 6
f 6 11 12
f 6 12 13
f 6 13 14
f 7 15 16
f 8 16 26
f 8 26 17
f 9 18 27
f 9 27 19
f 10 21 20
f 11 22 12
f 12 22 23
f 12 23 13
f 13 16 24
f 13 24 14
f 13 23 25
f 13 25 16
f 15 24 16
f 16 25 26
f 17 26 27
f 17 27 18
f 19 27 29
f 19 29 28
f 20 21 31
f 20 31 30
f 22 32 33
f 22 33 23
f 23 33 29
f 23 29 25
f 25 29 27
f 25 27 26
f 28 29 33
f 28 33 31
f 30 33 32
f 30 31 33

