# https://github.com/mikedh/trimesh
v -6.39646590 0.78309081 -0.82409041
v -6.39646590 0.75510713 -0.82409041
v -6.39646590 2.38617957 -0.82410101
v -6.46153838 2.44436513 -0.87311711
v -6.46153838 0.75510713 -0.87311711
v -6.39646590 0.75510713 -0.93186038
v -6.39646590 2.41433388 -0.82431201
v -6.39646590 2.44453566 -0.82454411
v -6.46153838 2.49197152 -0.87897239
v -6.46153838 0.75510713 -0.89458663
v -6.39646590 1.09773643 -0.93187097
v -6.46136637 0.75510713 -0.92470740
v -6.46153838 0.75544837 -0.92470740
v -6.39646590 2.46211081 -0.82855310
v -6.39646590 2.49589594 -0.85051860
v -6.39646590 2.49828484 -0.85884267
v -6.46153838 2.49197152 -0.90477809
v -6.39646590 2.38617957 -0.93187097
v -6.46153838 2.44453566 -0.92470740
v -6.39646590 2.49572541 -0.90800647
v -6.40310441 2.49538416 -0.90762667
v -6.39646590 2.48958262 -0.91102385
v -6.39646590 2.44453566 -0.93151227
v -6.39646590 2.43788110 -0.93155447
f 1 2 6
f 1 6 11
f 1 11 18
f 1 18 24
f 1 24 23
f 1 23 22
f 1 22 20
f 1 20 16
f 1 16 15
f 1 15 14
f 1 14 8
f 1 8 7
f 1 7 3
f 1 3 4
f 1 4 5
f 1 5 2
f 2 5 10
f 2 10 12
f 2 12 6
f 3 7 4
f 4 7 8
f 4 8 9
f 4 9 17
f 4 17 19
f 4 19 13
f 4 13 10
f 4 10 5
f 6 12 13
f 6 13 11
f 8 14 9
f 9 14 15
f 9 15 16
f 9 16 17
f 10 13 12
f 11 13 19
f 11 19 18
f 16 20 21
f 16 21 17
f 17 22 23
f 17 23 19
f 17 21 20
f 17 20 22
f 18 19 24
f 19 23 24

