# https://github.com/mikedh/trimesh
v -6.73338805 0.00058891 -3.71312349
v -6.75186746 0.00196293 -3.71312349
v -6.73338805 0.36998044 -3.71312349
v -6.73338805 0.00073357 -3.71080545
v -6.75788139 0.01255728 -3.24884913
v -6.78557045 0.01255728 -3.24884913
v -6.75796891 0.00243295 -3.71312349
v -6.75673226 0.35486635 -3.71312349
v -6.75161582 0.35678272 -3.24884913
v -6.73338805 0.36029009 -3.24884913
v -6.73338805 0.00894146 -3.65299275
v -6.73389688 0.05544085 -3.24884913
v -6.78928057 0.05544085 -3.24884913
v -6.78557045 0.01255728 -3.65272010
v -6.75923856 0.00304771 -3.71312349
v -6.76092395 0.34774316 -3.71312349
v -6.78433380 0.32355339 -3.69671588
v -6.78557045 0.32651833 -3.65272010
v -6.78557045 0.32655454 -3.24884913
v -6.73338805 0.17573890 -3.24884913
v -6.78928057 0.28851615 -3.24884913
v -6.78928057 0.05544085 -3.65272010
v -6.78433380 0.01714935 -3.69635240
v -6.78406028 0.05544085 -3.71312349
v -6.78275243 0.30793307 -3.71312349
v -6.78557045 0.28851615 -3.70426064
v -6.78928057 0.28851615 -3.65272010
v -6.78582764 0.32395116 -3.24884913
v -6.78557045 0.11372773 -3.70439696
v -6.78557045 0.05544085 -3.70398799
v -6.78414781 0.11372773 -3.71312349
v -6.78412037 0.28851615 -3.71312349
v -6.78413687 0.27090714 -3.71312349
v -6.78557045 0.23022926 -3.70439696
v -6.78414781 0.23022926 -3.71312349
f 1 2 7
f 1 7 15
f 1 15 24
f 1 24 31
f 1 31 35
f 1 35 33
f 1 33 32
f 1 32 25
f 1 25 16
f 1 16 8
f 1 8 3
f 1 3 10
f 1 10 20
f 1 20 11
f 1 11 4
f 1 4 5
f 1 5 6
f 1 6 2
f 2 6 7
f 3 8 9
f 3 9 10
f 4 11 12
f 4 12 5
f 5 12 20
f 5 20 10
f 5 10 9
f 5 9 19
f 5 19 28
f 5 28 21
f 5 21 13
f 5 13 6
f 6 13 22
f 6 22 14
f 6 14 7
f 7 14 15
f 8 16 17
f 8 17 18
f 8 18 19
f 8 19 9
f 11 20 12
f 13 21 27
f 13 27 22
f 14 22 23
f 14 23 15
f 15 23 24
f 16 25 17
f 17 25 26
f 17 26 27
f 17 27 18
f 18 27 28
f 18 28 19
f 21 28 27
f 22 27 34
f 22 34 29
f 22 29 30
f 22 30 23
f 23 30 24
f 24 30 31
f 25 32 26
f 26 32 33
f 26 33 34
f 26 34 27
f 29 34 35
f 29 35 31
f 29 31 30
f 33 35 34

