# https://github.com/mikedh/trimesh
v -5.00459353 1.95564389 -0.74487314
v -4.96571052 1.95564389 -0.75926445
v -5.02733982 1.95564389 -0.74789113
v -5.00459353 0.82020952 -0.74557178
v -4.99976541 0.82020952 -0.74730432
v -4.96571052 0.82020952 -0.75962766
v -4.95264625 1.95564389 -0.79746416
v -4.96408393 0.82020952 -0.76432227
v -4.95264625 0.82020952 -0.79746416
v -5.06286637 1.95564389 -0.75300487
v -5.06286637 0.82020952 -0.75336818
v -5.05563713 0.82020952 -0.75239011
v -4.95365316 1.95564389 -0.83298123
v -4.95429865 0.82020952 -0.85572778
v -5.21641033 1.95564389 -0.81375560
v -5.21641033 0.82020952 -0.81375560
v -4.95429865 1.95564389 -0.85572778
v -4.95935910 0.82020952 -1.03032308
v -5.21641033 1.95564389 -0.93810718
v -5.21641033 0.82020952 -0.93810718
v -4.95935910 1.95564389 -1.03032308
v -5.08365045 0.82020952 -1.03032308
v -5.08365045 1.95564389 -1.03032308
f 1 2 7
f 1 7 13
f 1 13 17
f 1 17 21
f 1 21 23
f 1 23 19
f 1 19 15
f 1 15 10
f 1 10 3
f 1 3 4
f 1 4 5
f 1 5 6
f 1 6 2
f 2 6 8
f 2 8 9
f 2 9 7
f 3 10 11
f 3 11 12
f 3 12 4
f 4 12 11
f 4 11 16
f 4 16 20
f 4 20 22
f 4 22 18
f 4 18 14
f 4 14 9
f 4 9 8
f 4 8 6
f 4 6 5
f 7 9 13
f 9 14 13
f 10 15 16
f 10 16 11
f 13 14 17
f 14 18 21
f 14 21 17
f 15 19 20
f 15 20 16
f 18 22 23
f 18 23 21
f 19 23 22
f 19 22 20

