# https://github.com/mikedh/trimesh
v -5.21641033 0.00164712 -3.80737037
v -5.06288187 0.00164712 -3.80737037
v -5.00461113 -0.02135341 -3.76928692
v -5.21641033 0.00164712 -3.77232706
v -5.21641033 0.05556250 -3.81633326
v -5.00461113 0.00214189 -3.80711995
v -5.06288187 0.05556250 -3.81633326
v -4.96414606 0.00041065 -3.76928692
v -4.98574127 -0.01269721 -3.74325651
v -5.00575320 -0.01368656 -3.74325651
v -4.96905171 0.01055062 -3.80405134
v -5.04476475 -0.00181535 -3.74325651
v -5.21641033 0.05556250 -3.74623221
v -5.21641033 2.44440872 -3.80633309
v -5.00461113 0.05556250 -3.81582547
v -5.06288187 2.44440872 -3.80633309
v -4.96336740 -0.00057871 -3.74325651
v -4.95280339 0.05556250 -3.76928692
v -4.95124605 0.05556250 -3.74325651
v -4.96585915 0.05556250 -3.80686970
v -5.05885872 0.00758273 -3.74325651
v -5.09086221 0.05556250 -3.74325651
v -5.08759178 2.38628898 -3.74325651
v -5.08709862 2.44440872 -3.74325651
v -5.21641033 2.44440872 -3.75230518
v -5.21641033 2.47210838 -3.80381516
v -5.00461113 2.44440872 -3.80402980
v -4.97361994 2.44440872 -3.80007412
v -5.06288187 2.48793665 -3.80237029
v -5.00461113 2.48397958 -3.80122585
v -4.96554769 2.44440872 -3.76928692
v -4.96277041 2.44440872 -3.74325651
v -5.08447708 2.45059162 -3.74325651
v -5.05865109 2.48867871 -3.74325651
v -5.21641033 2.48793665 -3.77536701
v -5.21641033 2.48793665 -3.80237029
v -4.97421691 2.47779668 -3.79952327
v -5.00461113 2.50524905 -3.76928692
v -4.97050522 2.48867871 -3.76928692
v -4.96552172 2.46889319 -3.74325651
v -5.00520812 2.50302304 -3.74325651
v -4.96912958 2.49263578 -3.74325651
f 1 2 3
f 1 3 4
f 1 4 13
f 1 13 25
f 1 25 35
f 1 35 36
f 1 36 26
f 1 26 14
f 1 14 5
f 1 5 7
f 1 7 2
f 2 6 3
f 2 7 6
f 3 8 9
f 3 9 10
f 3 10 4
f 3 6 11
f 3 11 8
f 4 10 12
f 4 12 13
f 5 14 16
f 5 16 7
f 6 7 15
f 6 15 11
f 7 16 15
f 8 17 9
f 8 11 18
f 8 18 19
f 8 19 17
f 9 17 19
f 9 19 32
f 9 32 40
f 9 40 42
f 9 42 41
f 9 41 34
f 9 34 33
f 9 33 24
f 9 24 23
f 9 23 22
f 9 22 21
f 9 21 12
f 9 12 10
f 11 15 20
f 11 20 18
f 12 21 13
f 13 21 22
f 13 22 23
f 13 23 24
f 13 24 25
f 14 26 16
f 15 16 27
f 15 27 28
f 15 28 20
f 16 26 29
f 16 29 30
f 16 30 27
f 18 20 28
f 18 28 31
f 18 31 32
f 18 32 19
f 24 33 25
f 25 33 34
f 25 34 35
f 26 36 29
f 27 30 37
f 27 37 28
f 28 37 31
f 29 38 30
f 29 36 38
f 30 38 37
f 31 37 39
f 31 39 32
f 32 39 40
f 34 41 35
f 35 41 38
f 35 38 36
f 37 38 39
f 38 41 42
f 38 42 39
f 39 42 40

