# https://github.com/mikedh/trimesh
v -6.72916407 0.20980267 -3.53145753
v -6.73338215 0.20980267 -3.53145753
v -6.72874502 0.20972357 -3.53145753
v -6.72872053 0.20980267 -3.53620033
v -6.73338215 0.20980267 -3.57648365
v -6.73338215 0.17573655 -3.53145753
v -6.72912239 0.20695539 -3.53145753
v -6.73338215 0.09506251 -3.57581800
v -6.73338215 0.09438453 -3.57648365
v -6.72835810 0.20980267 -3.57648365
f 1 2 6
f 1 6 7
f 1 7 3
f 1 3 4
f 1 4 10
f 1 10 5
f 1 5 2
f 2 5 9
f 2 9 8
f 2 8 6
f 3 7 8
f 3 8 9
f 3 9 10
f 3 10 4
f 5 10 9
f 6 8 7

