# https://github.com/mikedh/trimesh
v -4.97156967 0.05566114 0.63309470
v -4.98125727 0.05566114 0.63309470
v -4.97286955 0.01917503 0.63212879
v -4.95851606 0.05566114 0.60105349
v -4.96739634 2.44450788 0.59230456
v -5.00460054 2.38627995 0.59869568
v -5.08912068 0.11388907 0.56645579
v -5.08912068 0.09989449 0.56637052
v -5.08912068 0.05566114 0.56557515
v -4.97932794 0.01917503 0.63212879
v -5.08912068 2.38627995 0.56639883
v -5.00460054 -0.01681144 0.54279413
v -4.96698585 0.00692958 0.60105349
v -4.94933473 0.05566114 0.54279413
v -4.95933702 2.44450788 0.54279413
v -4.97009191 2.48949093 0.58551575
v -5.00460054 2.44450788 0.59687778
v -5.08912068 2.44450788 0.56551836
v -5.08912068 0.04066679 0.55892822
v -5.08912068 0.00468048 0.54191349
v -5.00460054 -0.02855692 0.48453476
v -4.96240203 -0.00181709 0.54279413
v -4.94933473 0.05566114 0.34293417
v -4.95933702 2.44450788 0.34293417
v -4.96281251 2.46724930 0.34293417
v -4.96739634 2.49723801 0.54279413
v -5.00460054 2.51223218 0.54279413
v -5.00460054 2.48699176 0.58349883
v -5.03986174 2.47574608 0.57375586
v -5.08912068 2.49548853 0.54191349
v -5.08912068 -0.00106739 0.48763099
v -5.00460054 -0.02855692 0.34293417
v -4.96240203 -0.00181709 0.34293417
v -4.96739634 2.49723801 0.34293417
v -4.98859137 2.51248226 0.34293417
v -5.00460054 2.52397783 0.48453476
v -5.08912068 2.50098651 0.50291293
v -5.05856645 -0.00031769 0.34293417
v -5.02782064 -0.01656154 0.34293417
v -5.08912068 0.05566114 0.45936762
v -5.08342853 0.05566114 0.34293417
v -5.07272839 0.03142031 0.34293417
v -5.00460054 2.52397783 0.34293417
v -5.08912068 2.50098651 0.48763099
v -5.08912068 0.11388907 0.45885636
v -5.08342853 2.44450788 0.34293417
v -5.05856645 2.50048671 0.34293417
v -5.08912068 2.44450788 0.45936762
v -5.08912068 2.38627995 0.45885636
f 1 2 10
f 1 10 3
f 1 3 4
f 1 4 5
f 1 5 6
f 1 6 2
f 2 7 8
f 2 8 9
f 2 9 10
f 2 6 11
f 2 11 7
f 3 10 12
f 3 12 13
f 3 13 4
f 4 13 14
f 4 14 15
f 4 15 5
f 5 15 16
f 5 16 17
f 5 17 6
f 6 17 18
f 6 18 11
f 7 11 18
f 7 18 30
f 7 30 37
f 7 37 44
f 7 44 48
f 7 48 49
f 7 49 45
f 7 45 40
f 7 40 31
f 7 31 20
f 7 20 19
f 7 19 9
f 7 9 8
f 9 19 10
f 10 20 12
f 10 19 20
f 12 21 13
f 12 20 21
f 13 21 22
f 13 22 14
f 14 22 33
f 14 33 23
f 14 23 24
f 14 24 15
f 15 24 25
f 15 25 26
f 15 26 16
f 16 26 27
f 16 27 28
f 16 28 17
f 17 28 18
f 18 28 29
f 18 29 30
f 20 31 21
f 21 32 33
f 21 33 22
f 21 31 32
f 23 33 32
f 23 32 39
f 23 39 38
f 23 38 42
f 23 42 41
f 23 41 46
f 23 46 47
f 23 47 43
f 23 43 35
f 23 35 34
f 23 34 25
f 23 25 24
f 25 34 26
f 26 34 35
f 26 35 36
f 26 36 27
f 27 36 30
f 27 30 28
f 28 30 29
f 30 36 37
f 31 38 39
f 31 39 32
f 31 40 41
f 31 41 42
f 31 42 38
f 35 43 36
f 36 43 44
f 36 44 37
f 40 45 41
f 41 45 49
f 41 49 46
f 43 47 44
f 44 47 46
f 44 46 48
f 46 49 48

