# https://github.com/mikedh/trimesh
v -5.41229835 0.01153980 -3.16160857
v -5.41229835 0.01153980 -3.13469595
v -5.41229835 0.05542426 -3.16594952
v -5.21641033 0.01153980 -3.16148700
v -5.21641033 0.01153980 -3.13469595
v -5.41229835 0.05566669 -3.11195496
v -5.21641033 0.03942215 -3.16406190
v -5.41229835 0.11361329 -3.16596532
v -5.21641033 0.05566669 -3.16553707
v -5.21641033 0.05566669 -3.11195496
v -5.41229835 2.44433317 -3.11195496
v -5.41229835 2.44433317 -3.16596532
v -5.21641033 2.44433317 -3.16553707
v -5.21641033 2.44433317 -3.11195496
v -5.21641033 2.46057755 -3.12025089
v -5.35419922 2.48845990 -3.13469595
v -5.41229835 2.48845990 -3.13478052
v -5.41229835 2.48821746 -3.16170903
v -5.21641033 2.48845990 -3.16148700
v -5.21641033 2.48845990 -3.13469595
v -5.35419922 2.48845990 -3.16148700
f 1 2 6
f 1 6 11
f 1 11 17
f 1 17 18
f 1 18 12
f 1 12 8
f 1 8 3
f 1 3 4
f 1 4 5
f 1 5 2
f 2 5 10
f 2 10 6
f 3 7 4
f 3 8 9
f 3 9 7
f 4 7 9
f 4 9 13
f 4 13 19
f 4 19 20
f 4 20 15
f 4 15 14
f 4 14 10
f 4 10 5
f 6 10 14
f 6 14 11
f 8 12 13
f 8 13 9
f 11 14 15
f 11 15 16
f 11 16 17
f 12 18 19
f 12 19 13
f 15 20 16
f 16 20 19
f 16 19 21
f 16 21 17
f 17 21 18
f 18 21 19

