# https://github.com/mikedh/trimesh
v -6.63819055 0.43433969 -3.80779654
v -5.21641027 0.43433969 -3.80632996
v -6.63819055 0.43433969 -3.74645954
v -6.63819055 2.38592976 -3.80779654
v -5.21641027 0.43433969 -3.75230779
v -5.21641027 2.44436548 -3.80632996
v -6.63819055 0.68070633 -3.74588384
v -5.58438083 0.43433969 -3.74655053
v -5.58744260 0.68090986 -3.74588384
v -6.63819055 2.44436548 -3.80778438
v -5.44353885 0.87128408 -3.74588384
v -5.44367800 0.81305199 -3.74588384
v -5.52356270 0.43433969 -3.74680495
v -5.21641027 2.44436548 -3.75230779
v -5.21641027 2.47225990 -3.80381481
v -6.63819055 2.50768779 -3.74588384
v -5.46594555 0.74932244 -3.74588384
v -5.46650222 0.74871162 -3.74588384
v -5.52523277 0.69638413 -3.74588384
v -5.52578945 0.69597698 -3.74588384
v -5.58535503 0.68131710 -3.74588384
v -6.63819055 2.48793778 -3.80332404
v -5.21641027 2.48793778 -3.80237255
v -5.44353885 2.38613338 -3.74588384
v -5.21641027 2.46045060 -3.76071964
v -5.52787704 2.50687340 -3.74588384
v -5.48682132 2.49567487 -3.74588384
v -5.47415669 2.48915941 -3.74588384
v -5.44395638 2.44436548 -3.74588384
v -5.58744260 2.51440687 -3.74588384
v -6.63819055 2.51298162 -3.76684662
v -6.63819055 2.51359248 -3.76929509
v -5.58744260 2.51338886 -3.76928901
v -5.21641027 2.48793778 -3.77536754
v -5.52912958 2.50992751 -3.76928901
v -5.55251047 2.51196361 -3.74588384
f 1 2 5
f 1 5 13
f 1 13 8
f 1 8 3
f 1 3 7
f 1 7 16
f 1 16 31
f 1 31 32
f 1 32 22
f 1 22 10
f 1 10 4
f 1 4 6
f 1 6 2
f 2 6 15
f 2 15 23
f 2 23 34
f 2 34 25
f 2 25 14
f 2 14 5
f 3 8 9
f 3 9 7
f 4 10 6
f 5 11 12
f 5 12 13
f 5 14 24
f 5 24 11
f 6 10 15
f 7 9 21
f 7 21 20
f 7 20 19
f 7 19 18
f 7 18 17
f 7 17 12
f 7 12 11
f 7 11 24
f 7 24 29
f 7 29 28
f 7 28 27
f 7 27 26
f 7 26 36
f 7 36 30
f 7 30 16
f 8 13 17
f 8 17 18
f 8 18 19
f 8 19 20
f 8 20 21
f 8 21 9
f 10 22 23
f 10 23 15
f 12 17 13
f 14 25 26
f 14 26 27
f 14 27 28
f 14 28 29
f 14 29 24
f 16 30 31
f 22 32 33
f 22 33 23
f 23 33 35
f 23 35 30
f 23 30 36
f 23 36 34
f 25 34 26
f 26 34 36
f 30 35 33
f 30 33 32
f 30 32 31

