# https://github.com/mikedh/trimesh
v -6.39645956 0.26138524 -1.54505881
v -6.39645956 0.10199520 -1.54505881
v -6.39645956 0.26138524 -1.63811310
v -6.66725380 0.26138524 -1.54505881
v -6.39645956 0.00885324 -1.57901165
v -6.51964909 0.10199520 -1.54505881
v -6.39645956 0.23024637 -1.63811310
v -6.66725380 0.23024637 -1.64002834
v -6.66725380 0.26138524 -1.64000971
v -6.66725380 0.14739252 -1.54505881
v -6.39645956 0.00885324 -1.60458790
v -6.57789039 0.00885324 -1.57901165
v -6.66725380 0.00628122 -1.60025546
v -6.57789039 0.10289416 -1.54505881
v -6.66725380 0.00885324 -1.57905815
v -6.39645956 0.17196400 -1.63787141
v -6.66725380 0.17196400 -1.63967502
v -6.63594613 0.11615371 -1.54505881
v -6.39645956 0.05544918 -1.62763532
v -6.66725380 0.00628122 -1.61111443
v -6.63395796 0.11565434 -1.54505881
v -6.39645956 0.16532168 -1.63742514
v -6.66725380 0.05544918 -1.63409677
v -6.66725380 0.11373155 -1.63689521
v -6.39645956 0.11373155 -1.63391087
f 1 2 5
f 1 5 11
f 1 11 19
f 1 19 25
f 1 25 22
f 1 22 16
f 1 16 7
f 1 7 3
f 1 3 9
f 1 9 4
f 1 4 10
f 1 10 18
f 1 18 21
f 1 21 14
f 1 14 6
f 1 6 2
f 2 6 12
f 2 12 5
f 3 7 8
f 3 8 9
f 4 9 8
f 4 8 17
f 4 17 24
f 4 24 23
f 4 23 20
f 4 20 13
f 4 13 15
f 4 15 10
f 5 12 13
f 5 13 20
f 5 20 11
f 6 14 15
f 6 15 12
f 7 16 8
f 8 16 17
f 10 15 18
f 11 20 19
f 12 15 13
f 14 21 15
f 15 21 18
f 16 22 23
f 16 23 24
f 16 24 17
f 19 20 23
f 19 23 25
f 22 25 23

