# https://github.com/mikedh/trimesh
v -4.93525408 2.09802258 -1.91310984
v -4.93151387 2.08973784 -1.91310984
v -4.73214481 2.07890392 -2.26560665
v -4.93525408 2.12818772 -1.96290633
v -4.93525408 0.02598485 -1.91310984
v -4.93039878 2.08655149 -1.91310984
v -4.71832233 2.08336496 -2.30204033
v -4.79342837 2.07677968 -2.15428786
v -4.70089901 2.03663052 -2.30204033
v -4.93525408 2.13817191 -2.02115454
v -4.93525408 0.00856566 -1.91733569
v -4.92477686 0.05551248 -1.91310984
v -4.92500917 2.04895134 -1.91310984
v -4.91594904 2.06828256 -1.93161221
v -4.72424626 2.08591415 -2.30204033
v -4.92454454 2.03663052 -1.91310984
v -4.69792543 0.98786580 -2.30204033
v -4.93525408 2.13583511 -2.05142077
v -4.93525408 -0.02159949 -1.97402298
v -4.91741262 -0.03179607 -1.99187815
v -4.91711062 -0.03179607 -1.99187815
v -4.91594904 0.02216098 -1.93161221
v -4.70089901 0.05551248 -2.30204033
v -4.92452131 0.11371818 -1.91310984
v -4.77307797 2.08888811 -2.30204033
v -4.92452131 0.13729788 -1.91310984
v -4.93525408 2.12691304 -2.10091271
v -4.93525408 -0.02159949 -1.98079958
v -4.91738939 -0.03200846 -2.02115454
v -4.91697121 -0.03200846 -2.02115454
v -4.71832233 0.00155543 -2.30204033
v -4.73214481 0.00729098 -2.26560665
v -4.79342837 0.00941521 -2.15428786
v -4.85466548 0.01408881 -2.04296906
v -4.70217673 0.04956455 -2.30204033
v -4.78325315 2.08803839 -2.30204033
v -4.79447377 2.08102833 -2.30204033
v -4.80720439 2.07614234 -2.29469268
v -4.93525408 2.09398649 -2.13616619
v -4.91722676 -0.03179607 -2.05043092
v -4.93525408 -0.01586377 -2.03265189
v -4.91694799 -0.03179607 -2.05043092
v -4.77307797 -0.00630453 -2.30204033
v -4.80437023 2.06785761 -2.30204033
v -4.93525408 2.09334915 -2.13624233
v -4.80955075 2.03663052 -2.30204033
v -4.93525408 -0.00184349 -2.05065935
v -4.92554349 0.00028075 -2.07369214
v -4.86846473 0.00750336 -2.18337389
v -4.80720439 0.01005255 -2.29469268
v -4.79447377 0.00367967 -2.30204033
v -4.93525408 2.03939210 -2.13532864
v -4.80955075 0.05551248 -2.30204033
v -4.93525408 0.01366386 -2.06360340
v -4.91852771 0.02173621 -2.11088723
v -4.93525408 0.05551248 -2.08431387
v -4.93525408 0.05062667 -2.08397123
f 1 2 3
f 1 3 4
f 1 4 10
f 1 10 18
f 1 18 27
f 1 27 39
f 1 39 45
f 1 45 52
f 1 52 56
f 1 56 57
f 1 57 54
f 1 54 47
f 1 47 41
f 1 41 28
f 1 28 19
f 1 19 11
f 1 11 5
f 1 5 12
f 1 12 24
f 1 24 26
f 1 26 16
f 1 16 13
f 1 13 6
f 1 6 2
f 2 6 3
f 3 7 4
f 3 6 8
f 3 8 9
f 3 9 7
f 4 7 10
f 5 11 12
f 6 13 14
f 6 14 9
f 6 9 8
f 7 15 10
f 7 9 17
f 7 17 23
f 7 23 35
f 7 35 31
f 7 31 43
f 7 43 51
f 7 51 53
f 7 53 46
f 7 46 44
f 7 44 37
f 7 37 36
f 7 36 25
f 7 25 15
f 9 14 13
f 9 13 16
f 9 16 17
f 10 15 18
f 11 19 20
f 11 20 21
f 11 21 22
f 11 22 12
f 12 22 23
f 12 23 24
f 15 25 18
f 16 26 17
f 17 26 24
f 17 24 23
f 18 25 27
f 19 28 29
f 19 29 20
f 20 29 30
f 20 30 21
f 21 30 31
f 21 31 32
f 21 32 33
f 21 33 34
f 21 34 22
f 22 34 23
f 23 34 35
f 25 36 27
f 27 36 37
f 27 37 38
f 27 38 39
f 28 40 29
f 28 41 40
f 29 40 42
f 29 42 30
f 30 42 31
f 31 35 32
f 31 42 43
f 32 35 33
f 33 35 34
f 37 44 38
f 38 44 39
f 39 44 46
f 39 46 45
f 40 41 47
f 40 47 48
f 40 48 49
f 40 49 50
f 40 50 51
f 40 51 43
f 40 43 42
f 45 46 53
f 45 53 52
f 47 54 55
f 47 55 48
f 48 55 49
f 49 55 50
f 50 55 53
f 50 53 51
f 52 53 56
f 53 55 57
f 53 57 56
f 54 57 55

