# https://github.com/mikedh/trimesh
v -5.00458007 2.52400492 -3.04517520
v -5.00458007 2.52425500 -3.07003279
v -5.04480608 2.51625785 -3.12832575
v -5.04480608 2.50826070 -3.04517520
v -4.98328011 2.50876050 -3.04517520
v -4.96740092 2.49726458 -3.04517520
v -4.96740092 2.49726458 -3.34320438
v -5.00458007 2.52125602 -3.12832575
v -4.99324313 2.49726458 -3.34320438
v -5.04480608 2.51001000 -3.14793179
v -5.04480608 -0.01159028 -3.04517520
v -4.96395219 2.47477253 -3.04517520
v -4.95933516 2.44453341 -3.34320438
v -5.04480608 2.49451550 -3.17693236
v -5.00546796 2.46102750 -3.34320438
v -5.04480608 -0.01184019 -3.04724664
v -5.04243216 -0.01283979 -3.04517520
v -4.95933516 2.44453341 -3.04517520
v -4.94933475 0.05563578 -3.34320438
v -5.01101024 2.44453341 -3.34320438
v -5.04480608 2.46977435 -3.18883604
v -5.04480608 -0.01858766 -3.11026600
v -5.00458007 -0.02858418 -3.04517520
v -4.94933475 0.05563578 -3.04517520
v -4.95340967 0.03764211 -3.34320438
v -5.04480608 2.38605419 -3.19729695
v -5.04480608 2.41754298 -3.19685932
v -5.04480608 2.44453341 -3.19648005
v -5.01725351 0.05563578 -3.34320438
v -5.00458007 -0.02883408 -3.07003279
v -5.04480608 -0.01783796 -3.12832575
v -4.98656996 -0.01733816 -3.04517520
v -4.96240071 -0.00184366 -3.04517520
v -4.96240071 -0.00184366 -3.34320438
v -5.04480608 0.08487530 -3.19779302
v -4.99635542 -0.00184366 -3.34320438
v -5.04480608 0.00440401 -3.17704906
v -5.04480608 0.05563578 -3.19741365
v -5.00458007 -0.02583511 -3.12832575
f 1 2 3
f 1 3 4
f 1 4 11
f 1 11 17
f 1 17 23
f 1 23 32
f 1 32 33
f 1 33 24
f 1 24 18
f 1 18 12
f 1 12 6
f 1 6 5
f 1 5 2
f 2 5 6
f 2 6 7
f 2 7 8
f 2 8 3
f 3 8 9
f 3 9 10
f 3 10 14
f 3 14 21
f 3 21 28
f 3 28 27
f 3 27 26
f 3 26 35
f 3 35 38
f 3 38 37
f 3 37 31
f 3 31 22
f 3 22 16
f 3 16 11
f 3 11 4
f 6 12 7
f 7 9 8
f 7 12 13
f 7 13 19
f 7 19 25
f 7 25 34
f 7 34 36
f 7 36 29
f 7 29 20
f 7 20 15
f 7 15 9
f 9 14 10
f 9 15 14
f 11 16 17
f 12 18 13
f 13 18 24
f 13 24 19
f 14 15 20
f 14 20 21
f 16 22 17
f 17 22 23
f 19 24 25
f 20 26 27
f 20 27 28
f 20 28 21
f 20 29 26
f 22 30 23
f 22 31 30
f 23 30 32
f 24 33 25
f 25 33 34
f 26 29 35
f 29 36 37
f 29 37 38
f 29 38 35
f 30 31 39
f 30 39 34
f 30 34 32
f 31 37 36
f 31 36 39
f 32 34 33
f 34 39 36

