# https://github.com/mikedh/trimesh
v -6.68797328 1.79508271 -3.64308392
v -6.64225911 1.73962231 -3.64308392
v -6.68797328 2.15305469 -3.64863174
v -6.68797328 0.76828219 -3.64308392
v -6.64114819 1.73597127 -3.64308392
v -6.63986179 1.73058171 -3.64308392
v -6.63819541 1.72345357 -3.64308392
v -6.68797328 2.44443928 -3.66032963
v -6.68797328 0.74185591 -3.71270531
v -6.63819541 0.74185591 -3.71261414
v -6.63819541 0.76828219 -3.64308392
v -6.63819541 2.44443928 -3.68222879
v -6.63819541 2.49903055 -3.71097164
v -6.68797328 2.50215994 -3.70536912
v -6.68797328 0.74185591 -3.82951978
v -6.63819541 0.74185591 -3.80776650
v -6.63819541 2.51311282 -3.76681484
v -6.68797328 2.51798093 -3.76927859
v -6.68797328 2.38619711 -3.82951978
v -6.68161463 0.74185591 -3.82674588
v -6.66234376 1.01307310 -3.81833298
v -6.63819541 2.44443928 -3.80776650
v -6.63819541 2.51363451 -3.76927859
v -6.68797328 2.48912068 -3.81953733
v -6.68797328 2.44443928 -3.82944685
v -6.63819541 2.48790366 -3.80329539
f 1 2 3
f 1 3 8
f 1 8 14
f 1 14 18
f 1 18 24
f 1 24 25
f 1 25 19
f 1 19 15
f 1 15 9
f 1 9 4
f 1 4 11
f 1 11 7
f 1 7 6
f 1 6 5
f 1 5 2
f 2 5 3
f 3 5 6
f 3 6 7
f 3 7 8
f 4 9 10
f 4 10 11
f 7 12 8
f 7 11 10
f 7 10 16
f 7 16 22
f 7 22 26
f 7 26 23
f 7 23 17
f 7 17 13
f 7 13 12
f 8 12 13
f 8 13 14
f 9 15 20
f 9 20 16
f 9 16 10
f 13 17 14
f 14 17 18
f 15 19 20
f 16 20 21
f 16 21 22
f 17 23 18
f 18 23 24
f 19 25 22
f 19 22 21
f 19 21 20
f 22 25 26
f 23 26 24
f 24 26 25

