# https://github.com/mikedh/trimesh
v -5.21641033 0.00594796 -0.84554405
v -5.12150297 0.00338670 -0.84828739
v -5.21641033 0.00594796 -0.82016209
v -5.21641033 0.03740124 -0.85759656
v -5.12150297 0.05546446 -0.87039877
v -5.12150297 0.00684657 -0.80224396
v -5.21641033 0.02401118 -0.81773177
v -5.12150297 0.05546446 -0.79001839
v -5.21641033 0.05546446 -0.86451665
v -5.21641033 0.09248953 -0.86941020
v -5.21641033 0.15728346 -0.87274668
v -5.21641033 0.22041483 -0.87409778
v -5.21641033 0.23025523 -0.87417184
v -5.12150297 0.11374302 -0.87080245
v -5.21641033 0.05546446 -0.81374448
v -5.12150297 0.46238086 -0.79001839
v -5.12150297 0.17238105 -0.87081070
v -5.21641033 0.46238086 -0.87417184
v -5.12150297 0.46238086 -0.87081895
v -5.21641033 0.46238086 -0.81374448
f 1 2 3
f 1 3 7
f 1 7 15
f 1 15 20
f 1 20 18
f 1 18 13
f 1 13 12
f 1 12 11
f 1 11 10
f 1 10 9
f 1 9 4
f 1 4 5
f 1 5 2
f 2 6 3
f 2 5 14
f 2 14 17
f 2 17 19
f 2 19 16
f 2 16 8
f 2 8 6
f 3 6 8
f 3 8 7
f 4 9 5
f 5 9 10
f 5 10 11
f 5 11 12
f 5 12 13
f 5 13 14
f 7 8 15
f 8 16 20
f 8 20 15
f 13 17 14
f 13 18 19
f 13 19 17
f 16 19 18
f 16 18 20

