# https://github.com/mikedh/trimesh
v -6.73337347 1.68701366 -3.13157168
v -6.73337347 1.74583464 -3.13452888
v -6.73337347 1.63458939 -3.13157168
v -6.66154483 1.62870732 -3.26882420
v -6.66204576 1.68701366 -3.26886111
v -6.66376701 1.71840937 -3.27126390
v -6.73337347 1.80281750 -3.18653918
v -6.73337347 1.22673915 -3.13201530
v -6.65309329 1.62870732 -3.30312806
v -6.65356687 1.68701366 -3.30312806
v -6.66248286 1.27916339 -3.27041365
v -6.66024245 1.72311505 -3.30312806
v -6.73337347 1.85553586 -3.24435310
v -6.73337347 1.80362633 -3.18731545
v -6.73337347 1.16880045 -3.13456587
v -6.64806611 1.62870732 -3.36138552
v -6.64801150 1.68701366 -3.36138552
v -6.65629910 1.27916339 -3.30312806
v -6.66347552 1.24703241 -3.27167053
v -6.65732822 1.72693840 -3.36138552
v -6.73337347 1.85847692 -3.30312806
v -6.73337347 1.11042059 -3.19260156
v -6.64034326 1.27916339 -3.50921008
v -6.64549791 1.62870732 -3.50921008
v -6.64758342 1.68701366 -3.50921008
v -6.66087996 1.24313552 -3.30312806
v -6.65727352 1.72686490 -3.41964297
v -6.73337347 1.85862397 -3.41380244
v -6.73337347 1.10762658 -3.25071114
v -6.65258333 1.23651814 -3.50921008
v -6.65857590 1.24012094 -3.36138552
v -6.64432308 1.26012008 -3.50921008
v -6.65763786 1.72627666 -3.50921008
v -6.73337347 1.85855047 -3.50921008
v -6.73337347 1.10755304 -3.30896859
v -6.73337347 1.10755304 -3.50921008
f 1 2 7
f 1 7 14
f 1 14 13
f 1 13 21
f 1 21 28
f 1 28 34
f 1 34 36
f 1 36 35
f 1 35 29
f 1 29 22
f 1 22 15
f 1 15 8
f 1 8 3
f 1 3 4
f 1 4 5
f 1 5 2
f 2 5 6
f 2 6 7
f 3 8 4
f 4 9 10
f 4 10 5
f 4 8 11
f 4 11 9
f 5 10 6
f 6 12 13
f 6 13 14
f 6 14 7
f 6 10 12
f 8 15 11
f 9 16 17
f 9 17 10
f 9 11 18
f 9 18 16
f 10 17 12
f 11 15 19
f 11 19 18
f 12 20 13
f 12 17 20
f 13 20 21
f 15 22 19
f 16 18 23
f 16 23 17
f 17 24 25
f 17 25 20
f 17 23 24
f 18 19 26
f 18 26 23
f 19 22 26
f 20 27 28
f 20 28 21
f 20 25 27
f 22 29 30
f 22 30 31
f 22 31 26
f 23 26 32
f 23 32 30
f 23 30 36
f 23 36 34
f 23 34 33
f 23 33 25
f 23 25 24
f 25 33 27
f 26 31 32
f 27 33 34
f 27 34 28
f 29 35 30
f 30 32 31
f 30 35 36

