# https://github.com/mikedh/trimesh
v -5.00327050 -0.00309412 -3.68775039
v -5.02564103 0.05543998 -3.68775039
v -4.99061004 -0.00309412 -3.68775039
v -4.99634646 -0.00200725 -3.34323815
v -5.02464015 0.11369795 -3.68775039
v -5.01725301 0.05543998 -3.34323815
v -4.96239852 -0.00200725 -3.68775039
v -4.96239852 -0.00200725 -3.34323815
v -5.02312388 0.17314638 -3.68775039
v -5.01101615 0.17314638 -3.34323815
v -4.95454829 0.03251282 -3.68775039
v -4.94933473 0.05543998 -3.34323815
v -4.95929128 0.17314638 -3.68775039
v -4.95929128 0.17314638 -3.34323815
v -4.94933473 0.05543998 -3.68775039
f 1 2 5
f 1 5 9
f 1 9 13
f 1 13 15
f 1 15 11
f 1 11 7
f 1 7 3
f 1 3 8
f 1 8 4
f 1 4 2
f 2 4 6
f 2 6 5
f 3 7 8
f 4 8 12
f 4 12 14
f 4 14 10
f 4 10 6
f 5 6 9
f 6 10 9
f 7 11 8
f 8 11 12
f 9 10 14
f 9 14 13
f 11 15 12
f 12 15 13
f 12 13 14

