# https://github.com/mikedh/trimesh
v -4.95934918 0.82020952 -1.54094787
v -4.92456093 0.82020952 -1.91310984
v -5.08342781 0.82020952 -1.54094787
v -4.94934363 0.05547263 -1.54094787
v -5.05078596 0.82020952 -1.91310984
v -4.92454441 0.13712665 -1.91310984
v -5.09270688 0.82020952 -1.85795584
v -5.09320221 0.66471772 -1.54094787
v -4.95248068 0.04166969 -1.54094787
v -4.92479207 0.05547263 -1.91310984
v -4.92454441 0.11376125 -1.91310984
v -5.06285536 0.82020952 -1.90309178
v -5.05078596 0.11376125 -1.91310984
v -5.09270688 0.82020952 -1.87729980
v -5.09320221 0.66471772 -1.55497314
v -5.09320221 0.54514706 -1.54094787
v -4.96240366 -0.00198450 -1.54094787
v -4.94092313 0.00466763 -1.91310984
v -5.06657031 0.82020952 -1.89988598
v -5.06285536 0.11376125 -1.90309178
v -5.05060436 0.05547263 -1.91310984
v -5.06285536 0.05547263 -1.90298248
v -5.09320221 0.52153224 -1.69125525
v -5.09320221 0.57982086 -1.69103669
v -5.09320221 0.63852523 -1.67118271
v -5.09320221 0.64168502 -1.66688404
v -5.09320221 0.66263894 -1.61355152
v -5.09320221 0.66355362 -1.60768638
v -5.09270688 0.05547263 -1.87729980
v -5.09320221 0.05547263 -1.56473622
v -5.04119321 0.05547263 -1.54094787
v -4.99879347 -0.00439580 -1.54094787
v -5.00458875 -0.02618130 -1.61326007
v -5.00458875 -0.02875897 -1.67154701
v -4.94590939 -0.00040461 -1.91310984
v -5.00746165 -0.00664091 -1.91310984
v -5.06285536 0.01115340 -1.88917579
v -5.09245923 0.02429113 -1.87668052
v -5.09320221 0.11376125 -1.69125525
v -5.09320221 0.00849254 -1.66335040
v -5.09320221 0.05547263 -1.68957949
v -5.09320221 0.06553384 -1.69001669
v -5.09320221 0.03119264 -1.56750488
v -5.03564556 0.04349896 -1.54094787
v -5.00554639 -0.00439580 -1.54094787
v -5.06285536 -0.01537178 -1.61326007
v -5.00458875 -0.02925791 -1.84629845
v -5.00879902 -0.00738922 -1.90899333
v -5.06838649 0.00342030 -1.84589775
v -5.09320221 -0.00522730 -1.61442583
v -5.09320221 0.00791043 -1.57460858
f 1 2 5
f 1 5 12
f 1 12 19
f 1 19 14
f 1 14 7
f 1 7 3
f 1 3 8
f 1 8 16
f 1 16 31
f 1 31 44
f 1 44 45
f 1 45 32
f 1 32 17
f 1 17 9
f 1 9 4
f 1 4 2
f 2 4 6
f 2 6 11
f 2 11 10
f 2 10 18
f 2 18 35
f 2 35 36
f 2 36 21
f 2 21 13
f 2 13 5
f 3 7 8
f 4 9 10
f 4 10 11
f 4 11 6
f 5 13 20
f 5 20 12
f 7 14 15
f 7 15 8
f 8 15 28
f 8 28 27
f 8 27 26
f 8 26 25
f 8 25 24
f 8 24 23
f 8 23 39
f 8 39 42
f 8 42 41
f 8 41 40
f 8 40 50
f 8 50 51
f 8 51 43
f 8 43 30
f 8 30 16
f 9 17 10
f 10 17 18
f 12 20 19
f 13 21 22
f 13 22 20
f 14 23 24
f 14 24 25
f 14 25 26
f 14 26 27
f 14 27 28
f 14 28 15
f 14 19 29
f 14 29 39
f 14 39 23
f 16 30 31
f 17 32 33
f 17 33 34
f 17 34 35
f 17 35 18
f 19 20 29
f 20 22 29
f 21 36 37
f 21 37 38
f 21 38 22
f 22 38 29
f 29 38 40
f 29 40 41
f 29 41 42
f 29 42 39
f 30 43 31
f 31 43 44
f 32 45 33
f 33 45 46
f 33 46 34
f 34 46 47
f 34 47 35
f 35 47 36
f 36 47 48
f 36 48 37
f 37 48 47
f 37 47 49
f 37 49 38
f 38 49 50
f 38 50 40
f 43 51 45
f 43 45 44
f 45 51 46
f 46 51 50
f 46 50 47
f 47 50 49

