# https://github.com/mikedh/trimesh
v -6.75788330 2.48744571 -1.03080717
v -6.78557219 2.48744571 -1.08883096
v -6.78558851 2.48718661 -1.03080717
v -6.73389758 2.44443485 -1.03080717
v -6.73677655 2.44961685 -1.56191156
v -6.75788330 2.48744571 -1.56191156
v -6.78557219 2.48744571 -1.56191156
v -6.78928613 2.44443485 -1.08883096
v -6.78928613 2.44417575 -1.03080717
v -6.73389758 2.44443485 -1.56191156
v -6.73389758 1.16395469 -1.03080717
v -6.78928613 2.44443485 -1.56191156
v -6.78928613 1.16395469 -1.03080717
v -6.73389758 1.16395469 -1.56191156
v -6.78928613 1.16395469 -1.56191156
f 1 2 3
f 1 3 9
f 1 9 13
f 1 13 11
f 1 11 4
f 1 4 5
f 1 5 6
f 1 6 7
f 1 7 2
f 2 7 12
f 2 12 8
f 2 8 3
f 3 8 9
f 4 10 5
f 4 11 14
f 4 14 10
f 5 10 14
f 5 14 15
f 5 15 12
f 5 12 7
f 5 7 6
f 8 12 15
f 8 15 13
f 8 13 9
f 11 13 15
f 11 15 14

