# https://github.com/mikedh/trimesh
v -3.95937482 0.17220105 -5.09244034
v -3.88860778 0.17220105 -5.09244034
v -3.95937482 0.17220105 -5.04196609
v -3.95937482 2.44438215 -5.09244034
v -3.88860778 0.17220105 -5.04196609
v -3.88860778 2.44438215 -5.09244034
v -3.88860778 2.15317026 -5.03102953
v -3.88860778 2.17044740 -5.03102345
v -3.95937482 2.44438215 -5.04196609
v -3.95937482 2.44756486 -5.09205551
v -3.88860778 2.49348586 -5.08641565
v -3.88860778 2.38618530 -5.03102345
v -3.88860778 2.44438215 -5.03172696
v -3.95937482 2.49348586 -5.06118165
v -3.95937482 2.49348586 -5.08641565
v -3.88860778 2.49462248 -5.05599905
f 1 2 5
f 1 5 3
f 1 3 9
f 1 9 14
f 1 14 15
f 1 15 10
f 1 10 4
f 1 4 6
f 1 6 2
f 2 6 11
f 2 11 16
f 2 16 13
f 2 13 12
f 2 12 8
f 2 8 7
f 2 7 5
f 3 5 7
f 3 7 8
f 3 8 12
f 3 12 9
f 4 10 6
f 6 10 11
f 9 12 13
f 9 13 14
f 10 15 11
f 11 15 16
f 13 16 14
f 14 16 15

