# https://github.com/mikedh/trimesh
v -3.82018127 2.09029582 -4.23901133
v -3.78897598 2.09029582 -4.23901133
v -3.82699995 2.09029582 -4.17679924
v -3.81877834 2.10191209 -4.93401031
v -3.78874917 2.09029582 -4.23856693
v -3.79244210 2.10191209 -4.93401031
v -3.82699995 2.09029582 -3.36159738
v -3.82754672 2.15324702 -4.93401031
v -3.77485897 2.09029582 -4.17679924
v -3.77485376 2.15324702 -4.93401031
v -3.82019672 2.09029582 -3.29894081
v -3.81850491 2.10195195 -2.66415429
v -3.82699995 2.15324702 -2.66415429
v -3.82754672 2.44453106 -4.93401031
v -3.77485897 2.09029582 -3.36159738
v -3.77485376 2.44453106 -4.93401031
v -3.77485376 2.15324702 -4.29478020
v -3.78894506 2.09029582 -3.29894081
v -3.79244731 2.10195195 -2.66415429
v -3.82699995 2.44453106 -2.66415429
v -3.82745390 2.44512985 -4.93401031
v -3.77485897 2.15324702 -2.66415429
v -3.79244210 2.49810145 -4.93401031
v -3.77485376 2.44453106 -4.29478020
v -3.81850491 2.49810145 -2.66415429
v -3.81877834 2.49810145 -4.93401031
v -3.77485897 2.44453106 -2.66415429
v -3.79244210 2.49810145 -4.29478020
v -3.79244731 2.49810145 -2.66415429
f 1 2 5
f 1 5 9
f 1 9 15
f 1 15 18
f 1 18 11
f 1 11 7
f 1 7 3
f 1 3 4
f 1 4 6
f 1 6 2
f 2 6 5
f 3 7 8
f 3 8 4
f 4 8 14
f 4 14 21
f 4 21 26
f 4 26 23
f 4 23 16
f 4 16 10
f 4 10 6
f 5 6 9
f 6 10 9
f 7 11 12
f 7 12 13
f 7 13 8
f 8 13 20
f 8 20 14
f 9 10 17
f 9 17 15
f 10 16 24
f 10 24 17
f 11 18 19
f 11 19 12
f 12 19 22
f 12 22 27
f 12 27 29
f 12 29 25
f 12 25 20
f 12 20 13
f 14 20 21
f 15 22 19
f 15 19 18
f 15 17 22
f 16 23 28
f 16 28 24
f 17 24 27
f 17 27 22
f 20 25 21
f 21 25 26
f 23 26 25
f 23 25 29
f 23 29 28
f 24 28 29
f 24 29 27

