# https://github.com/mikedh/trimesh
v -6.09434576 0.01266730 0.21533562
v -5.94518600 0.01254591 0.21771861
v -6.09434576 0.01266730 0.25114774
v -6.09434576 0.18577936 0.15854891
v -5.94518600 0.05545118 0.21049113
v -5.94518600 0.01254591 0.24829255
v -5.99520769 0.01563163 0.25104649
v -6.09434576 0.05545118 0.27337009
v -6.09434576 0.18964517 0.15854891
v -6.09323615 0.18851836 0.15854891
v -5.94518600 0.11369847 0.20534291
v -6.09279809 0.18964517 0.15854891
v -5.99520769 0.05545118 0.27134675
v -5.94518600 0.05545118 0.26823315
v -5.94518600 0.18964517 0.27337009
v -5.96104223 0.18964517 0.27278554
v -6.09434576 0.18964517 0.26520952
v -5.94518600 0.12195012 0.20484832
v -5.94518600 0.18964517 0.20847908
v -5.94518600 0.18059606 0.20636578
f 1 2 6
f 1 6 3
f 1 3 8
f 1 8 17
f 1 17 9
f 1 9 4
f 1 4 2
f 2 5 11
f 2 11 18
f 2 18 20
f 2 20 19
f 2 19 15
f 2 15 14
f 2 14 6
f 2 4 5
f 3 6 7
f 3 7 8
f 4 9 12
f 4 12 10
f 4 10 5
f 5 10 12
f 5 12 11
f 6 13 7
f 6 14 13
f 7 13 8
f 8 13 15
f 8 15 16
f 8 16 17
f 9 17 16
f 9 16 15
f 9 15 19
f 9 19 12
f 11 12 18
f 12 19 20
f 12 20 18
f 13 14 15

