# https://github.com/mikedh/trimesh
v -5.21641033 0.18991078 -1.36925286
v -5.23347672 0.18991078 -1.37987925
v -5.21641033 0.18991078 -1.49884492
v -5.21641033 0.54836289 -1.41325585
v -5.29409457 0.18991078 -1.44049830
v -5.30642078 0.57925807 -1.48733845
v -5.30642078 0.56671222 -1.48582793
v -5.30642078 0.52156437 -1.48082338
v -5.22197872 0.18991078 -1.50344224
v -5.21641033 0.21248471 -1.50344224
v -5.21641033 0.56112208 -1.41560706
v -5.30642078 0.57972743 -1.48740414
v -5.30642078 0.19016685 -1.45903206
v -5.30642078 0.18991078 -1.47549051
v -5.30642078 0.18991078 -1.50344224
v -5.21641033 0.62585683 -1.50344224
v -5.21641033 0.58753659 -1.42565551
v -5.30642078 0.60396565 -1.50344224
v -5.24004953 0.62355250 -1.50344224
v -5.21641033 0.62568612 -1.49475986
v -5.21641033 0.61646882 -1.45147931
v -5.22296552 0.61544464 -1.45435594
v -5.29519591 0.60972647 -1.50344224
v -5.27474620 0.61992531 -1.50344224
f 1 2 5
f 1 5 14
f 1 14 15
f 1 15 9
f 1 9 3
f 1 3 10
f 1 10 16
f 1 16 20
f 1 20 21
f 1 21 17
f 1 17 11
f 1 11 4
f 1 4 2
f 2 4 6
f 2 6 7
f 2 7 8
f 2 8 5
f 3 9 10
f 4 11 12
f 4 12 6
f 5 13 14
f 5 8 13
f 6 12 18
f 6 18 15
f 6 15 14
f 6 14 13
f 6 13 8
f 6 8 7
f 9 15 18
f 9 18 23
f 9 23 24
f 9 24 19
f 9 19 16
f 9 16 10
f 11 17 12
f 12 17 18
f 16 19 20
f 17 21 22
f 17 22 18
f 18 22 23
f 19 24 20
f 20 24 21
f 21 24 22
f 22 24 23

