# https://github.com/mikedh/trimesh
v -6.39645956 0.26136969 -1.50027525
v -6.39645956 0.18113814 -1.45486533
v -6.39645956 0.26136969 -1.54504070
v -6.58223794 0.26136969 -1.45486533
v -6.39645956 0.11814805 -1.45486533
v -6.39645956 0.10198313 -1.54504070
v -6.66725380 0.26136969 -1.54504070
v -6.66688269 0.26136969 -1.45486533
v -6.46138131 0.11814805 -1.45486533
v -6.46138131 0.10198313 -1.54504070
v -6.66725380 0.14741961 -1.54504070
v -6.66725380 0.26136969 -1.53277897
v -6.66688269 0.23024133 -1.45486533
v -6.51964909 0.11816368 -1.45486533
v -6.51964909 0.10199876 -1.54504070
v -6.63594613 0.11616647 -1.54504070
v -6.62825836 0.13078667 -1.45486533
v -6.64917434 0.15626666 -1.45486533
v -6.65755138 0.16873362 -1.45486533
v -6.66200495 0.18076364 -1.45486533
v -6.66616694 0.19602352 -1.45486533
v -6.66669713 0.21446655 -1.45486533
v -6.66725380 0.15547086 -1.54201281
v -6.66725380 0.23024133 -1.53284961
v -6.66725380 0.22058293 -1.53342339
v -6.66725380 0.17197902 -1.53902018
v -6.57789039 0.11842895 -1.45486533
v -6.57789039 0.10288817 -1.54504070
v -6.63395796 0.11565156 -1.54504070
f 1 2 5
f 1 5 6
f 1 6 3
f 1 3 7
f 1 7 12
f 1 12 8
f 1 8 4
f 1 4 2
f 2 4 8
f 2 8 13
f 2 13 22
f 2 22 21
f 2 21 20
f 2 20 19
f 2 19 18
f 2 18 17
f 2 17 27
f 2 27 14
f 2 14 9
f 2 9 5
f 3 6 10
f 3 10 15
f 3 15 28
f 3 28 29
f 3 29 16
f 3 16 11
f 3 11 7
f 5 9 10
f 5 10 6
f 7 11 23
f 7 23 26
f 7 26 25
f 7 25 24
f 7 24 12
f 8 12 13
f 9 14 15
f 9 15 10
f 11 16 17
f 11 17 18
f 11 18 19
f 11 19 20
f 11 20 21
f 11 21 22
f 11 22 13
f 11 13 23
f 12 24 13
f 13 24 25
f 13 25 26
f 13 26 23
f 14 27 15
f 15 27 28
f 16 29 17
f 17 29 27
f 27 29 28

