# https://github.com/mikedh/trimesh
v -6.73338250 1.86152725 -3.53989465
v -6.73338250 1.86152725 -3.67651235
v -6.68797779 1.86152725 -3.64848274
v -6.68797779 2.10001605 -3.64853622
v -6.73338250 2.15325570 -3.54030918
v -6.68797779 1.86152725 -3.67651235
v -6.73338250 2.49648032 -3.67651235
v -6.68797779 2.15325570 -3.64861646
v -6.68797779 2.44454825 -3.66029108
v -6.73338250 2.21166363 -3.54287678
v -6.68797779 2.46503468 -3.67651235
v -6.73338250 2.49535950 -3.66240385
v -6.71869648 2.49760113 -3.67651235
v -6.70437950 2.48745135 -3.66335344
v -6.73338250 2.44454825 -3.59528528
v -6.73338250 2.38626484 -3.57610854
v -6.69947676 2.49212148 -3.67651235
v -6.73338250 2.49106292 -3.65300282
f 1 2 6
f 1 6 3
f 1 3 4
f 1 4 5
f 1 5 10
f 1 10 16
f 1 16 15
f 1 15 18
f 1 18 12
f 1 12 7
f 1 7 2
f 2 7 13
f 2 13 17
f 2 17 11
f 2 11 6
f 3 6 11
f 3 11 9
f 3 9 8
f 3 8 4
f 4 8 5
f 5 8 9
f 5 9 10
f 7 12 13
f 9 11 14
f 9 14 15
f 9 15 16
f 9 16 10
f 11 17 14
f 12 18 17
f 12 17 13
f 14 17 18
f 14 18 15

