# https://github.com/mikedh/trimesh
v -6.73301346 0.36744107 -3.73561884
v -6.68797779 0.36744107 -3.73561884
v -6.73338250 0.36744107 -3.72161297
v -6.73338250 0.36751262 -3.73561884
v -6.68797779 0.42339428 -3.73561884
v -6.68797779 0.36744107 -3.67668793
v -6.73338250 0.36744107 -3.71089506
v -6.73338250 0.40593228 -3.73561884
v -6.69445844 0.42368056 -3.73561884
v -6.69445844 0.36744107 -3.67679178
v -6.70237040 0.36744107 -3.68325253
v -6.73338250 0.39531309 -3.72419151
v -6.73338250 0.39884729 -3.72742754
v -6.71384714 0.41578084 -3.73561884
f 1 2 6
f 1 6 10
f 1 10 11
f 1 11 7
f 1 7 3
f 1 3 4
f 1 4 8
f 1 8 14
f 1 14 9
f 1 9 5
f 1 5 2
f 2 5 6
f 3 7 12
f 3 12 13
f 3 13 8
f 3 8 4
f 5 9 6
f 6 9 10
f 7 11 12
f 8 13 14
f 9 14 10
f 10 14 13
f 10 13 12
f 10 12 11

