# https://github.com/mikedh/trimesh
v -5.00459268 2.04106186 -2.54516656
v -5.06242898 2.04961933 -2.54516656
v -4.96582681 2.05627138 -2.54516656
v -4.96442396 2.05685636 -2.19455574
v -5.00321762 2.04325140 -2.19455574
v -5.00459268 2.04331826 -2.19455574
v -5.06142892 2.05082273 -2.19455574
v -5.06284568 2.05102331 -2.19455574
v -5.06284568 2.04968619 -2.54516656
v -4.95285393 2.09467967 -2.54516656
v -4.95161776 2.09372695 -2.19455574
v -5.09183326 2.06459484 -2.19455574
v -5.09234717 2.06476199 -2.54516656
v -5.09256942 2.06494581 -2.19455574
v -4.95428456 2.15277674 -2.54516656
v -4.95139551 2.09489692 -2.19455574
v -5.09256942 2.06494581 -2.41355022
v -5.09255553 2.06494581 -2.48730341
v -5.09256942 2.06507953 -2.54516656
v -5.09327779 2.09494711 -2.19455574
v -4.95429845 2.15319457 -2.54516656
v -4.95378454 2.15177393 -2.19455574
v -5.09327779 2.09494711 -2.54516656
v -5.09270831 2.12825762 -2.19455574
v -4.95925703 2.21104096 -2.54516656
v -4.95929871 2.21180977 -2.41355022
v -4.95910425 2.21003806 -2.19455574
v -5.09270831 2.12825762 -2.41355022
v -5.09269442 2.12824086 -2.54516656
v -5.08343005 2.21180977 -2.19455574
v -4.95929871 2.21145880 -2.54516656
v -5.08343005 2.21180977 -2.41355022
v -4.95928482 2.21180977 -2.19455574
v -5.08252722 2.21154233 -2.54516656
v -5.08341616 2.21145880 -2.54516656
f 1 2 9
f 1 9 13
f 1 13 19
f 1 19 23
f 1 23 29
f 1 29 35
f 1 35 34
f 1 34 31
f 1 31 25
f 1 25 21
f 1 21 15
f 1 15 10
f 1 10 3
f 1 3 4
f 1 4 5
f 1 5 6
f 1 6 7
f 1 7 8
f 1 8 2
f 2 8 9
f 3 10 11
f 3 11 4
f 4 11 16
f 4 16 22
f 4 22 27
f 4 27 33
f 4 33 30
f 4 30 24
f 4 24 20
f 4 20 14
f 4 14 12
f 4 12 8
f 4 8 7
f 4 7 6
f 4 6 5
f 8 12 9
f 9 12 14
f 9 14 13
f 10 15 16
f 10 16 11
f 13 14 17
f 13 17 18
f 13 18 19
f 14 20 23
f 14 23 17
f 15 21 16
f 16 21 22
f 17 23 19
f 17 19 18
f 20 24 28
f 20 28 23
f 21 25 22
f 22 26 27
f 22 25 26
f 23 28 29
f 24 30 32
f 24 32 28
f 25 31 26
f 26 32 30
f 26 30 33
f 26 33 27
f 26 31 34
f 26 34 32
f 28 32 29
f 29 32 35
f 32 34 35

