# https://github.com/mikedh/trimesh
v -6.75787635 2.48744571 -1.56196357
v -6.78557427 2.48744571 -1.56196357
v -6.73390435 2.44443520 -1.56196357
v -6.73494546 2.44637918 -1.73230754
v -6.75787635 2.48744571 -1.73230754
v -6.78557427 2.48744571 -1.73230754
v -6.78928613 2.44443520 -1.56196357
v -6.73390435 2.44443520 -1.73230754
v -6.71594880 0.68732282 -1.56196357
v -6.78928613 2.44443520 -1.73230754
v -6.78928613 0.63823739 -1.56196357
v -6.71594880 0.68367787 -1.60552094
v -6.71594880 0.68246288 -1.61370877
v -6.71594880 0.67225701 -1.64796102
v -6.71594880 0.65719120 -1.66820553
v -6.71594880 0.61490968 -1.68524827
v -6.71594880 0.57991807 -1.68808313
v -6.71594880 0.55683336 -1.68824989
v -6.71594880 0.20740344 -1.68826660
v -6.73389723 0.58259104 -1.73230754
v -6.71594880 0.46546641 -1.56196357
v -6.78928613 0.51916878 -1.73230754
v -6.78928613 0.52184175 -1.67150732
v -6.78927884 0.05553020 -1.67150732
v -6.78557427 0.05553020 -1.61656035
v -6.77934987 0.05553020 -1.58742759
v -6.78889122 0.62997549 -1.56196357
v -6.71594880 0.11384956 -1.68826660
v -6.73389723 0.05553020 -1.73230754
v -6.71594880 0.20788943 -1.56259722
v -6.78566770 0.59012394 -1.56196357
v -6.78927884 0.05553020 -1.73230754
v -6.78912098 0.05358622 -1.73230754
v -6.78557427 0.01276273 -1.67150732
v -6.78433224 0.01713667 -1.62516510
v -6.74134943 0.01470670 -1.58075726
v -6.75022305 0.05553020 -1.57907300
v -6.71594880 0.05553020 -1.68768293
v -6.71594880 0.03123050 -1.67729388
v -6.71594880 0.01203378 -1.66438673
v -6.75682812 0.01446375 -1.73230754
v -6.71594880 0.14957016 -1.56481511
v -6.78557427 0.01276273 -1.73230754
v -6.75754604 0.00595881 -1.60875606
v -6.71594880 0.01154779 -1.57984007
v -6.71594880 0.03681947 -1.57700520
v -6.71594880 0.00595881 -1.64260805
v -6.75787635 0.01276273 -1.73230754
v -6.74896678 0.00741679 -1.67674355
v -6.71594880 0.00498682 -1.61307508
v -6.71594880 0.00790279 -1.58917858
f 1 2 7
f 1 7 11
f 1 11 27
f 1 27 31
f 1 31 21
f 1 21 9
f 1 9 3
f 1 3 4
f 1 4 5
f 1 5 6
f 1 6 2
f 2 6 10
f 2 10 7
f 3 8 4
f 3 9 8
f 4 8 20
f 4 20 29
f 4 29 41
f 4 41 48
f 4 48 43
f 4 43 33
f 4 33 32
f 4 32 22
f 4 22 10
f 4 10 6
f 4 6 5
f 7 10 22
f 7 22 23
f 7 23 11
f 8 9 12
f 8 12 13
f 8 13 14
f 8 14 15
f 8 15 16
f 8 16 17
f 8 17 18
f 8 18 19
f 8 19 20
f 9 21 30
f 9 30 42
f 9 42 46
f 9 46 45
f 9 45 51
f 9 51 50
f 9 50 47
f 9 47 40
f 9 40 39
f 9 39 38
f 9 38 28
f 9 28 19
f 9 19 18
f 9 18 17
f 9 17 16
f 9 16 15
f 9 15 14
f 9 14 13
f 9 13 12
f 11 23 24
f 11 24 25
f 11 25 26
f 11 26 27
f 19 28 29
f 19 29 20
f 21 31 30
f 22 32 24
f 22 24 23
f 24 32 33
f 24 33 34
f 24 34 35
f 24 35 25
f 25 35 26
f 26 35 36
f 26 36 37
f 26 37 31
f 26 31 27
f 28 38 29
f 29 38 39
f 29 39 40
f 29 40 41
f 30 31 42
f 31 37 42
f 33 43 34
f 34 43 44
f 34 44 35
f 35 44 36
f 36 44 45
f 36 45 46
f 36 46 42
f 36 42 37
f 40 47 48
f 40 48 41
f 43 48 49
f 43 49 44
f 44 49 50
f 44 50 51
f 44 51 45
f 47 50 49
f 47 49 48

