# https://github.com/mikedh/trimesh
v -4.92447570 2.02516091 -0.05500033
v -4.95563183 2.02516091 0.06476692
v -4.92447570 2.00840519 -0.05500033
v -4.92447570 2.02516091 -0.27573432
v -5.08679730 2.02516091 0.06476692
v -4.95563183 1.97884691 0.06476692
v -4.92447570 1.97884691 -0.05503367
v -4.92447570 2.00979240 -0.27500112
v -4.93432835 2.02516091 -0.27243439
v -5.08679730 1.97884691 0.06476692
v -5.09271218 2.02516091 -0.00266667
v -4.92447570 1.97884691 -0.24693434
v -4.92447570 1.98550208 -0.25326763
v -5.09271218 1.97884691 -0.01313347
v -4.98769412 2.02516091 -0.19620080
v -5.09271218 1.97884691 -0.00266667
v -5.09277807 2.02516091 -0.02930022
v -5.05623432 2.02516091 -0.09040034
f 1 2 6
f 1 6 3
f 1 3 7
f 1 7 12
f 1 12 13
f 1 13 8
f 1 8 4
f 1 4 9
f 1 9 15
f 1 15 18
f 1 18 17
f 1 17 11
f 1 11 5
f 1 5 2
f 2 5 10
f 2 10 6
f 3 6 7
f 4 8 9
f 5 11 16
f 5 16 10
f 6 10 16
f 6 16 14
f 6 14 12
f 6 12 7
f 8 13 14
f 8 14 9
f 9 14 15
f 11 17 16
f 12 14 13
f 14 16 17
f 14 17 18
f 14 18 15

