# https://github.com/mikedh/trimesh
v -5.53200028 2.50037139 -3.21067512
v -5.56626253 2.49743407 -3.21067512
v -5.51056977 2.44562409 -3.21067512
v -5.54040291 2.49743407 -3.46123526
v -5.56626253 2.49743407 -3.46123526
v -5.57435513 2.44456163 -3.21067512
v -5.51019012 2.44456163 -3.21067512
v -5.53531578 2.48230982 -3.46123526
v -5.57435513 2.44456163 -3.46123526
v -5.57455760 1.86190297 -3.36136442
v -5.57450700 1.86190297 -3.30311452
v -5.57438044 1.89602631 -3.21067512
v -5.50992437 2.38625199 -3.21067512
v -5.52264223 2.44456163 -3.46123526
v -5.57454496 1.86190297 -3.46123526
v -5.57455128 1.86190297 -3.41963871
v -5.57438044 1.86190297 -3.21067512
v -5.50992437 1.92015009 -3.21067512
v -5.52264223 1.86190297 -3.46123526
v -5.50993069 1.86190297 -3.21072418
f 1 2 6
f 1 6 12
f 1 12 17
f 1 17 18
f 1 18 13
f 1 13 7
f 1 7 3
f 1 3 4
f 1 4 5
f 1 5 2
f 2 5 9
f 2 9 6
f 3 7 4
f 4 7 8
f 4 8 14
f 4 14 19
f 4 19 15
f 4 15 9
f 4 9 5
f 6 9 10
f 6 10 11
f 6 11 12
f 7 13 14
f 7 14 8
f 9 15 16
f 9 16 10
f 10 16 15
f 10 15 19
f 10 19 20
f 10 20 17
f 10 17 11
f 11 17 12
f 13 18 19
f 13 19 14
f 17 20 18
f 18 20 19

