# https://github.com/mikedh/trimesh
v -6.75787878 2.48728403 -4.84882721
v -6.75300859 2.49021475 -4.96366037
v -6.78556802 2.48728403 -4.84882721
v -6.73389810 2.44454374 -4.84882721
v -6.76558834 2.49021475 -4.96366037
v -6.74212396 2.47067636 -4.96366037
v -6.78556802 2.48728403 -4.96366037
v -6.78741804 2.46603601 -4.96366037
v -6.78928526 2.44454374 -4.84882721
v -6.72483744 2.09480601 -4.96366037
v -6.72898485 2.44454374 -4.96366037
v -6.71519180 0.05548374 -4.84882721
v -6.70139025 0.05548374 -4.96366037
v -6.78928526 2.44454374 -4.96366037
v -6.78928526 0.05548374 -4.84882721
v -6.71939087 0.01152234 -4.84882721
v -6.70355851 0.03447998 -4.96366037
v -6.78928526 0.05548374 -4.96366037
v -6.78733208 0.03301462 -4.84882721
v -6.75272466 -0.00239877 -4.84882721
v -6.70950428 0.00932430 -4.96366037
v -6.78556802 0.01274354 -4.96366037
v -6.78556802 0.01274354 -4.84882721
v -6.75272466 -0.00484107 -4.96366037
f 1 2 5
f 1 5 3
f 1 3 9
f 1 9 15
f 1 15 19
f 1 19 23
f 1 23 20
f 1 20 16
f 1 16 12
f 1 12 4
f 1 4 2
f 2 4 6
f 2 6 11
f 2 11 10
f 2 10 13
f 2 13 17
f 2 17 21
f 2 21 24
f 2 24 22
f 2 22 18
f 2 18 14
f 2 14 8
f 2 8 7
f 2 7 5
f 3 5 7
f 3 7 8
f 3 8 9
f 4 10 11
f 4 11 6
f 4 12 13
f 4 13 10
f 8 14 9
f 9 14 18
f 9 18 15
f 12 16 13
f 13 16 17
f 15 18 19
f 16 20 21
f 16 21 17
f 18 22 19
f 19 22 23
f 20 24 21
f 20 23 24
f 22 24 23

