# https://github.com/mikedh/trimesh
v -6.78557080 0.01259289 -3.24880372
v -6.78902928 0.05252697 -3.24880372
v -6.75788156 0.01259289 -3.24880372
v -6.78557080 0.01259289 -2.44133669
v -6.78849840 0.04639504 -2.44133669
v -6.78928092 0.05543963 -3.24880372
v -6.78928092 0.05543963 -2.44133669
v -6.75625087 0.01550555 -3.24880372
v -6.75788156 0.01259289 -2.44133669
v -6.78928092 0.28849062 -3.24880372
v -6.78928092 0.40407721 -2.44133669
v -6.73389688 0.05543963 -3.24880372
v -6.73389688 0.05543963 -2.44133669
v -6.78923716 0.40407721 -3.12913797
v -6.78557080 0.32654681 -3.24880372
v -6.78928092 0.40407721 -3.12826853
v -6.73389688 0.40407721 -2.44133669
v -6.73338805 0.17574011 -3.24880372
v -6.73338805 0.17574011 -3.19236955
v -6.73338805 0.17581670 -3.13403846
v -6.73338805 0.17903596 -3.07705100
v -6.73338805 0.23698256 -3.01848278
v -6.73338805 0.29431595 -3.01500502
v -6.73338805 0.35260744 -3.01492600
v -6.78558730 0.40407721 -3.16660266
v -6.75161582 0.35678480 -3.24880372
v -6.78521514 0.40407721 -3.16715595
v -6.73338805 0.40407721 -3.01492600
v -6.73338805 0.36027229 -3.24880372
v -6.75161044 0.40407721 -3.19568919
v -6.73338805 0.38583468 -3.22264166
v -6.73338805 0.38104421 -3.22770019
v -6.73338805 0.40407721 -3.20027353
f 1 2 6
f 1 6 10
f 1 10 15
f 1 15 26
f 1 26 29
f 1 29 18
f 1 18 12
f 1 12 8
f 1 8 3
f 1 3 9
f 1 9 4
f 1 4 5
f 1 5 2
f 2 5 7
f 2 7 6
f 3 8 9
f 4 9 13
f 4 13 17
f 4 17 11
f 4 11 7
f 4 7 5
f 6 7 11
f 6 11 16
f 6 16 10
f 8 12 13
f 8 13 9
f 10 14 15
f 10 16 14
f 11 17 28
f 11 28 33
f 11 33 30
f 11 30 27
f 11 27 25
f 11 25 14
f 11 14 16
f 12 18 19
f 12 19 13
f 13 19 20
f 13 20 21
f 13 21 22
f 13 22 23
f 13 23 24
f 13 24 28
f 13 28 17
f 14 25 15
f 15 25 27
f 15 27 26
f 18 29 32
f 18 32 31
f 18 31 33
f 18 33 28
f 18 28 24
f 18 24 23
f 18 23 22
f 18 22 21
f 18 21 20
f 18 20 19
f 26 27 30
f 26 30 31
f 26 31 32
f 26 32 29
f 30 33 31

