# https://github.com/mikedh/trimesh
v -6.71594880 0.69656022 -0.87606033
v -6.75154410 0.63831337 -0.87943824
v -6.71594880 0.63831337 -0.87607553
v -6.71594880 2.44453323 -0.87607553
v -6.75154410 2.44453323 -0.87943824
v -6.78067092 0.63831337 -0.88655753
v -6.74222538 0.60257097 -0.88125596
v -6.71594880 0.62223875 -0.87727215
v -6.71594880 2.48916392 -0.88025619
v -6.74223250 2.48594900 -0.88125596
v -6.78067092 2.44453323 -0.88655753
v -6.78557427 0.63831337 -0.91570136
v -6.78433224 0.60446215 -0.92483530
v -6.75807728 0.59481738 -0.90885464
v -6.71594880 0.58517261 -0.91226285
v -6.71594880 0.60086899 -0.88025619
v -6.71594880 2.49559377 -0.91348977
v -6.75807728 2.49426994 -0.90885464
v -6.78433224 2.48273408 -0.92483530
v -6.78557427 2.44453323 -0.91570136
v -6.78928613 0.69656022 -0.97224694
v -6.78927884 0.63831337 -0.97224694
v -6.78557427 0.60200362 -0.97224694
v -6.75272865 0.58309231 -0.97224694
v -6.71594880 0.57023262 -0.97235296
v -6.71594880 2.48802921 -0.96502163
v -6.75787635 2.48727274 -1.03080717
v -6.74896678 2.49256797 -0.97748798
v -6.78557427 2.48727274 -1.03051932
v -6.78557427 2.48727274 -0.97224694
v -6.78928613 2.44453323 -0.97224694
v -6.78928613 0.69618199 -1.03080717
v -6.78927884 0.63831337 -1.03051932
v -6.78926460 0.63812425 -1.03080717
v -6.78557427 0.60200362 -1.03080717
v -6.75272865 0.58290319 -1.03051932
v -6.75139336 0.58214681 -1.03080717
v -6.71594880 0.56361365 -1.03051932
v -6.71594880 2.44453323 -0.98824271
v -6.73390435 2.44453323 -1.03080717
v -6.78558869 2.48708362 -1.03080717
v -6.78928613 2.44453323 -1.03051932
v -6.78928613 2.44415500 -1.03080717
v -6.75272865 0.58290319 -1.03080717
v -6.71594880 0.56361365 -1.03080717
v -6.71594880 0.68370053 -1.03080717
v -6.71595601 0.68823928 -1.03080717
f 1 2 3
f 1 3 8
f 1 8 16
f 1 16 15
f 1 15 25
f 1 25 38
f 1 38 45
f 1 45 46
f 1 46 39
f 1 39 26
f 1 26 17
f 1 17 9
f 1 9 4
f 1 4 5
f 1 5 2
f 2 6 7
f 2 7 8
f 2 8 3
f 2 5 11
f 2 11 6
f 4 9 10
f 4 10 5
f 5 10 11
f 6 12 13
f 6 13 7
f 6 11 20
f 6 20 12
f 7 13 14
f 7 14 15
f 7 15 16
f 7 16 8
f 9 17 18
f 9 18 10
f 10 18 19
f 10 19 11
f 11 19 20
f 12 21 22
f 12 22 13
f 12 20 31
f 12 31 21
f 13 22 23
f 13 23 24
f 13 24 14
f 14 24 25
f 14 25 15
f 17 26 27
f 17 27 28
f 17 28 18
f 18 28 29
f 18 29 30
f 18 30 19
f 19 30 31
f 19 31 20
f 21 32 22
f 21 31 42
f 21 42 43
f 21 43 32
f 22 33 34
f 22 34 23
f 22 32 33
f 23 34 35
f 23 35 44
f 23 44 36
f 23 36 24
f 24 36 37
f 24 37 38
f 24 38 25
f 26 39 40
f 26 40 27
f 27 41 29
f 27 29 28
f 27 40 47
f 27 47 46
f 27 46 45
f 27 45 37
f 27 37 44
f 27 44 35
f 27 35 34
f 27 34 32
f 27 32 43
f 27 43 41
f 29 41 42
f 29 42 31
f 29 31 30
f 32 34 33
f 36 44 37
f 37 45 38
f 39 46 47
f 39 47 40
f 41 43 42

