# https://github.com/mikedh/trimesh
v -6.71594159 0.64993993 -1.45486529
v -6.71594159 0.69275402 -1.45486529
v -6.68844781 0.64993993 -1.45486529
v -6.71594159 0.64993993 -1.09120996
v -6.71594159 0.73740916 -1.40662707
v -6.67677154 0.73740916 -1.36319491
v -6.66571099 0.73740916 -1.34867005
v -6.66374660 0.72929162 -1.35269294
v -6.64814166 0.64993993 -1.31759119
v -6.68867505 0.64993993 -1.09120996
v -6.71594159 0.68836988 -1.09120996
v -6.71594159 0.73740916 -1.15222855
v -6.66275716 0.73740916 -1.33948523
v -6.64188938 0.64993993 -1.27394542
v -6.69035358 0.65239742 -1.09120996
v -6.64768718 0.64993993 -1.21242833
v -6.65989851 0.73740916 -1.22770080
v -6.65574260 0.73740916 -1.26362137
v -6.64106848 0.64993993 -1.26362137
f 1 2 3
f 1 3 9
f 1 9 14
f 1 14 19
f 1 19 16
f 1 16 10
f 1 10 4
f 1 4 11
f 1 11 12
f 1 12 5
f 1 5 2
f 2 5 6
f 2 6 7
f 2 7 3
f 3 7 8
f 3 8 9
f 4 10 15
f 4 15 11
f 5 12 17
f 5 17 18
f 5 18 13
f 5 13 7
f 5 7 6
f 7 13 8
f 8 13 9
f 9 13 14
f 10 16 17
f 10 17 15
f 11 15 17
f 11 17 12
f 13 18 14
f 14 18 19
f 16 19 17
f 17 19 18

