# https://github.com/mikedh/trimesh
v -6.39645956 0.11795077 -1.08923003
v -6.30653879 0.11795077 -1.08923003
v -6.39645956 0.11795077 -1.08879978
v -6.39645956 0.17583502 -1.08923003
v -6.30653879 0.11795077 -1.08879978
v -6.30653879 0.17583502 -1.08923003
v -6.39645956 0.11816420 -1.03053356
v -6.39645956 0.23270821 -1.02161131
v -6.30653879 0.11816420 -1.03053356
v -6.30653879 0.23270821 -1.02161131
v -6.39286840 0.12034340 -1.02161131
v -6.39645956 0.11957955 -1.02474210
v -6.39645956 0.12035469 -1.02161131
v -6.30653879 0.12034340 -1.02161131
f 1 2 5
f 1 5 3
f 1 3 7
f 1 7 12
f 1 12 13
f 1 13 8
f 1 8 4
f 1 4 6
f 1 6 2
f 2 6 10
f 2 10 14
f 2 14 9
f 2 9 5
f 3 5 9
f 3 9 7
f 4 8 10
f 4 10 6
f 7 9 14
f 7 14 11
f 7 11 12
f 8 13 11
f 8 11 14
f 8 14 10
f 11 13 12

