# https://github.com/mikedh/trimesh
v -3.82351150 -0.00216667 -4.17710558
v -3.83700515 0.05544215 -4.17710558
v -3.81901148 0.00732649 -4.21686279
v -3.78941360 -0.00216667 -4.17710558
v -3.82351150 -0.00216667 -3.36146045
v -3.82705022 0.17254125 -4.17710558
v -3.81853738 0.17254125 -4.21829533
v -3.82103447 0.11370090 -4.22026535
v -3.82351150 0.05544215 -4.22214577
v -3.83700515 0.05544215 -3.36146045
v -3.79628403 0.00732649 -4.21686279
v -3.76880267 0.05544215 -4.17710558
v -3.78941360 -0.00216667 -3.36146045
v -3.81901148 0.00732649 -3.31579369
v -3.82705022 0.17254125 -3.36146045
v -3.79269860 0.17254125 -4.21829533
v -3.79092933 0.11370090 -4.22026535
v -3.78941360 0.05544215 -4.22214577
v -3.82351150 0.05544215 -3.30746624
v -3.81853738 0.17254125 -3.31194334
v -3.82697008 0.17254125 -3.36092323
v -3.79244488 0.17197676 -4.21829533
v -3.77503193 0.17254125 -4.17755346
v -3.77485845 0.17254125 -4.17710558
v -3.76880267 0.05544215 -3.36146045
v -3.79628403 0.00732649 -3.31579369
v -3.78941360 0.05544215 -3.30746624
v -3.79244488 0.17254125 -3.31194334
v -3.77485845 0.17254125 -3.36146045
f 1 2 3
f 1 3 11
f 1 11 4
f 1 4 13
f 1 13 5
f 1 5 10
f 1 10 2
f 2 6 7
f 2 7 8
f 2 8 9
f 2 9 3
f 2 10 15
f 2 15 6
f 3 9 18
f 3 18 11
f 4 11 12
f 4 12 25
f 4 25 13
f 5 13 26
f 5 26 14
f 5 14 10
f 6 15 21
f 6 21 20
f 6 20 28
f 6 28 29
f 6 29 24
f 6 24 23
f 6 23 16
f 6 16 7
f 7 16 17
f 7 17 8
f 8 17 18
f 8 18 9
f 10 14 19
f 10 19 20
f 10 20 21
f 10 21 15
f 11 18 12
f 12 18 17
f 12 17 22
f 12 22 23
f 12 23 24
f 12 24 29
f 12 29 25
f 13 25 26
f 14 26 27
f 14 27 19
f 16 23 22
f 16 22 17
f 19 27 28
f 19 28 20
f 25 29 28
f 25 28 27
f 25 27 26

