# https://github.com/mikedh/trimesh
v -5.00459930 2.52406102 -1.72989793
v -4.99916315 2.52022464 -1.91310984
v -5.00459930 2.52406102 -1.91310984
v -5.05068281 2.50387833 -1.91310984
v -5.05861399 2.50037556 -1.72989793
v -4.96740535 2.49737320 -1.72989793
v -4.96740535 2.49737320 -1.91310984
v -5.05856441 2.50037556 -1.91310984
v -5.08343198 2.44449789 -1.78807524
v -5.08343198 2.44433109 -1.72989793
v -5.08343198 2.44449789 -1.91310984
v -4.95934199 2.44449789 -1.72989793
v -4.95934199 2.44449789 -1.91310984
v -5.09270155 2.12824711 -1.90459127
v -5.09247024 2.12674589 -1.86429397
v -5.09270155 2.09488728 -1.85835789
v -5.09146230 2.09488728 -1.82921542
v -5.09149536 2.03650766 -1.82883882
v -5.08343198 0.82037632 -1.72989793
v -5.09270155 2.12824711 -1.91310984
v -4.95929241 2.09488728 -1.72989793
v -4.92456043 2.03650766 -1.91310984
v -4.92502309 2.04885079 -1.91310984
v -5.09334597 2.09488728 -1.90459127
v -5.09270155 2.03650766 -1.85798128
v -5.09255285 0.82037632 -1.85435864
v -5.09149536 0.82037632 -1.82883882
v -4.95929241 0.82037632 -1.72989793
v -5.09334597 2.09488728 -1.91310984
v -4.92456043 0.82037632 -1.91310984
v -5.09270155 0.82037632 -1.85798128
v -5.09275112 2.04668236 -1.91310984
v -5.09270155 0.82037632 -1.87731393
v -5.05078193 0.82037632 -1.91310984
v -5.06284395 0.82037632 -1.90310277
v -5.06656169 0.82037632 -1.89991055
f 1 2 3
f 1 3 4
f 1 4 5
f 1 5 10
f 1 10 19
f 1 19 28
f 1 28 21
f 1 21 12
f 1 12 6
f 1 6 2
f 2 6 7
f 2 7 13
f 2 13 23
f 2 23 22
f 2 22 30
f 2 30 34
f 2 34 32
f 2 32 29
f 2 29 20
f 2 20 11
f 2 11 8
f 2 8 4
f 2 4 3
f 4 8 5
f 5 9 10
f 5 8 11
f 5 11 9
f 6 12 13
f 6 13 7
f 9 11 20
f 9 20 14
f 9 14 10
f 10 14 15
f 10 15 16
f 10 16 17
f 10 17 18
f 10 18 27
f 10 27 19
f 12 21 22
f 12 22 23
f 12 23 13
f 14 20 29
f 14 29 24
f 14 24 15
f 15 24 16
f 16 24 25
f 16 25 18
f 16 18 17
f 18 25 26
f 18 26 27
f 19 27 26
f 19 26 31
f 19 31 33
f 19 33 36
f 19 36 35
f 19 35 34
f 19 34 30
f 19 30 28
f 21 28 30
f 21 30 22
f 24 29 33
f 24 33 31
f 24 31 25
f 25 31 26
f 29 32 33
f 32 34 35
f 32 35 36
f 32 36 33

