# https://github.com/mikedh/trimesh
v -5.21641033 0.00763899 0.50803492
v -5.08913314 -0.00117906 0.48763064
v -5.21641033 0.00763899 0.53342175
v -5.21641033 0.05564811 0.50239923
v -5.08913314 0.05564811 0.45936797
v -5.08913314 0.00445472 0.54193328
v -5.12114245 0.00469959 0.53613956
v -5.08913314 0.04070656 0.55892458
v -5.08913314 0.05564811 0.56559251
v -5.21641033 0.05564811 0.55318347
v -5.08913314 0.63837232 0.45884125
v -5.08913314 0.11394499 0.45885185
v -5.21641033 2.44435176 0.50239923
v -5.08913314 0.09998323 0.56637208
v -5.08913314 0.11394499 0.56645631
v -5.21641033 2.44435176 0.55318347
v -5.08913314 2.38605488 0.45884125
v -5.21641033 2.47472495 0.50591763
v -5.08913314 2.44435176 0.45936797
v -5.08913314 2.38605488 0.56642470
v -5.08913314 2.44435176 0.56553989
v -5.21641033 2.46198786 0.54597822
v -5.21641033 2.49236105 0.50803492
v -5.08913314 2.50117910 0.48763064
v -5.08913314 2.49530028 0.54191210
v -5.21641033 2.49236105 0.53342175
v -5.08913314 2.50117910 0.50292595
v -5.12114245 2.49530028 0.53613956
f 1 2 3
f 1 3 10
f 1 10 16
f 1 16 22
f 1 22 26
f 1 26 23
f 1 23 18
f 1 18 13
f 1 13 4
f 1 4 5
f 1 5 2
f 2 6 7
f 2 7 3
f 2 5 12
f 2 12 11
f 2 11 17
f 2 17 19
f 2 19 24
f 2 24 27
f 2 27 25
f 2 25 21
f 2 21 20
f 2 20 15
f 2 15 14
f 2 14 9
f 2 9 8
f 2 8 6
f 3 7 6
f 3 6 8
f 3 8 9
f 3 9 10
f 4 11 12
f 4 12 5
f 4 13 17
f 4 17 11
f 9 14 10
f 10 14 15
f 10 15 16
f 13 18 19
f 13 19 17
f 15 20 16
f 16 20 21
f 16 21 22
f 18 23 19
f 19 23 24
f 21 25 26
f 21 26 22
f 23 26 27
f 23 27 24
f 25 27 28
f 25 28 26
f 26 28 27

