# https://github.com/mikedh/trimesh
v -5.44937588 0.18995125 -1.50344224
v -5.30642078 0.18995125 -1.50344224
v -5.44937588 0.18995125 -1.47866996
v -5.44937588 0.28848941 -1.50344224
v -5.30642078 0.18995125 -1.47549681
v -5.30642078 0.60400577 -1.50344224
v -5.30658870 0.18995125 -1.45903996
v -5.30642078 0.52160023 -1.48082598
v -5.44051815 0.52160023 -1.50344224
v -5.30642078 0.19015391 -1.45903996
v -5.35348010 0.57984752 -1.50344224
v -5.30642078 0.57972596 -1.48740696
v -5.30642078 0.56671457 -1.48583345
f 1 2 5
f 1 5 7
f 1 7 3
f 1 3 4
f 1 4 9
f 1 9 11
f 1 11 6
f 1 6 2
f 2 6 12
f 2 12 13
f 2 13 8
f 2 8 10
f 2 10 5
f 3 7 8
f 3 8 9
f 3 9 4
f 5 10 7
f 6 11 12
f 7 10 8
f 8 13 9
f 9 13 12
f 9 12 11

