# https://github.com/mikedh/trimesh
v -5.09320222 0.19373074 -1.33002029
v -5.09320222 0.21740014 -1.33767853
v -5.01726903 0.05544606 -1.43732032
v -4.99676481 -0.00087940 -1.43732032
v -4.99635642 -0.00195976 -1.43732032
v -4.99635642 -0.00195976 -1.33002029
v -5.09320222 0.49966581 -1.33002029
v -5.09320222 0.23026617 -1.34183861
v -5.01738169 0.05657547 -1.43732032
v -4.96240336 -0.00195976 -1.43732032
v -4.96240336 -0.00195976 -1.33002029
v -4.95934742 0.49966581 -1.33002029
v -5.09320222 0.49966581 -1.34567299
v -5.09320222 0.26385515 -1.34405524
v -5.09320222 0.28850677 -1.34567299
v -5.02470462 0.49966581 -1.43732032
v -4.94933473 0.05544606 -1.43732032
v -4.94933473 0.05544606 -1.33002029
v -4.95934742 0.49966581 -1.43732032
f 1 2 3
f 1 3 4
f 1 4 5
f 1 5 6
f 1 6 11
f 1 11 18
f 1 18 12
f 1 12 7
f 1 7 13
f 1 13 15
f 1 15 14
f 1 14 8
f 1 8 2
f 2 8 3
f 3 9 16
f 3 16 19
f 3 19 17
f 3 17 10
f 3 10 5
f 3 5 4
f 3 8 9
f 5 10 11
f 5 11 6
f 7 12 19
f 7 19 16
f 7 16 13
f 8 14 9
f 9 14 15
f 9 15 16
f 10 17 18
f 10 18 11
f 12 18 17
f 12 17 19
f 13 16 15

