# https://github.com/mikedh/trimesh
v -6.30653879 0.17583571 -1.08923003
v -6.39645956 0.17583571 -1.08923003
v -6.30653879 0.11795085 -1.08923003
v -6.30653879 0.18898568 -1.47831417
v -6.39645956 0.11795085 -1.08923003
v -6.39645956 0.18898568 -1.47831417
v -6.30653879 0.11795085 -1.43840032
v -6.30653879 0.11843060 -1.47831417
v -6.39645956 0.11795085 -1.43840032
v -6.39645956 0.11843060 -1.47831417
f 1 2 5
f 1 5 3
f 1 3 7
f 1 7 8
f 1 8 4
f 1 4 6
f 1 6 2
f 2 6 10
f 2 10 9
f 2 9 5
f 3 5 9
f 3 9 7
f 4 8 10
f 4 10 6
f 7 9 10
f 7 10 8

