# https://github.com/mikedh/trimesh
v -6.73338788 2.50572540 -3.74696072
v -6.73338788 2.50646555 -3.76756142
v -6.74285908 2.50294976 -3.74696072
v -6.73338788 0.70376864 -3.74696072
v -6.75808092 2.49887877 -3.76648280
v -6.75808092 2.49832357 -3.74696072
v -6.73338788 2.49591800 -3.82612781
v -6.73389671 2.44429080 -4.84882721
v -6.74651953 2.46705116 -4.84882721
v -6.75788399 2.48740594 -4.84882721
v -6.78557010 2.48740594 -4.84882721
v -6.75000493 0.70728444 -3.74696072
v -6.73338788 0.61642796 -3.75451069
v -6.78557010 2.48740594 -3.94584887
v -6.78557010 2.48722099 -3.82763763
v -6.78432807 2.48259480 -3.78395566
v -6.78072770 2.44429080 -3.74696072
v -6.73338788 2.47815391 -3.86883901
v -6.73338788 2.44429080 -3.93916183
v -6.73338788 2.43855439 -3.93937752
v -6.73389671 0.61605789 -4.84882721
v -6.78928526 2.44429080 -4.84882721
v -6.77154097 0.77130965 -3.74696072
v -6.75273525 0.61642796 -3.75806990
v -6.78928526 0.61605789 -3.94584887
v -6.73389671 0.61605789 -3.94584887
v -6.73338788 0.61642796 -3.93937752
v -6.78928526 2.44429080 -3.94584887
v -6.78927970 2.44429080 -3.82763763
v -6.78557010 2.44429080 -3.77629784
v -6.78083711 2.38600209 -3.74696072
v -6.78928526 0.61605789 -4.84882721
v -6.77950217 0.81331456 -3.74696072
v -6.78557010 0.61642796 -3.78611289
v -6.78927970 0.61642796 -3.82763763
v -6.78557010 2.38600209 -3.77597431
v -6.78083711 0.92933705 -3.74696072
v -6.78082079 0.87123329 -3.74696072
v -6.78557010 0.87141832 -3.77597431
f 1 2 3
f 1 3 6
f 1 6 17
f 1 17 31
f 1 31 37
f 1 37 38
f 1 38 33
f 1 33 23
f 1 23 12
f 1 12 4
f 1 4 13
f 1 13 27
f 1 27 20
f 1 20 19
f 1 19 18
f 1 18 7
f 1 7 2
f 2 5 6
f 2 6 3
f 2 7 8
f 2 8 9
f 2 9 10
f 2 10 11
f 2 11 5
f 4 12 13
f 5 11 14
f 5 14 15
f 5 15 6
f 6 15 16
f 6 16 17
f 7 18 8
f 8 18 19
f 8 19 20
f 8 20 27
f 8 27 21
f 8 21 32
f 8 32 22
f 8 22 11
f 8 11 10
f 8 10 9
f 11 22 28
f 11 28 14
f 12 23 24
f 12 24 13
f 13 24 25
f 13 25 26
f 13 26 21
f 13 21 27
f 14 28 29
f 14 29 15
f 15 29 16
f 16 29 30
f 16 30 17
f 17 30 31
f 21 26 25
f 21 25 32
f 22 32 25
f 22 25 28
f 23 33 34
f 23 34 24
f 24 34 25
f 25 34 35
f 25 35 29
f 25 29 28
f 29 35 39
f 29 39 36
f 29 36 30
f 30 36 31
f 31 36 39
f 31 39 37
f 33 38 34
f 34 38 39
f 34 39 35
f 37 39 38

