# https://github.com/mikedh/trimesh
v -6.75435205 2.48948555 -3.61547743
v -6.77106409 2.48948555 -3.61547743
v -6.73964268 2.46372465 -3.61547743
v -6.73338250 2.49089707 -3.65302383
v -6.73338250 2.49530818 -3.66242000
v -6.73338250 2.50571846 -3.73538891
v -6.78557080 2.48736826 -3.61547743
v -6.73338250 2.45137353 -3.61547743
v -6.73338250 2.50607134 -3.74696055
v -6.78557080 2.48736826 -3.65275344
v -6.78928092 2.44449225 -3.61547743
v -6.75807311 2.49848421 -3.74696055
v -6.73338250 0.77303337 -3.61547743
v -6.73338250 0.70351427 -3.74696055
v -6.78433415 2.48278071 -3.69638818
v -6.78928092 2.44449225 -3.65275344
v -6.78928092 0.87131295 -3.61547743
v -6.78072788 2.44449225 -3.74696055
v -6.74229676 0.77391567 -3.61547743
v -6.75273230 0.77497431 -3.61547743
v -6.75000163 0.70704317 -3.74696055
v -6.78557080 2.44449225 -3.70402098
v -6.78557080 2.38626554 -3.70440703
v -6.78928092 0.87131295 -3.65275344
v -6.78835061 0.85031614 -3.61547743
v -6.78084284 2.38626554 -3.74696055
v -6.78297698 0.78273788 -3.61547743
v -6.78297698 0.78273788 -3.65275344
v -6.78260482 0.78309077 -3.68676017
v -6.77154010 0.77109252 -3.74696055
v -6.78557080 0.92953969 -3.70440703
v -6.78557080 0.87131295 -3.70436848
v -6.78427389 0.81308633 -3.69677423
v -6.78668710 0.81308633 -3.65275344
v -6.78668710 0.81308633 -3.61547743
v -6.78084284 0.92918681 -3.74696055
v -6.78535181 0.80214673 -3.61547743
v -6.77950755 0.81308633 -3.74696055
v -6.78082634 0.87096007 -3.74696055
f 1 2 7
f 1 7 11
f 1 11 17
f 1 17 25
f 1 25 35
f 1 35 37
f 1 37 27
f 1 27 20
f 1 20 19
f 1 19 13
f 1 13 8
f 1 8 3
f 1 3 4
f 1 4 5
f 1 5 6
f 1 6 2
f 2 6 7
f 3 8 4
f 4 8 13
f 4 13 14
f 4 14 9
f 4 9 6
f 4 6 5
f 6 9 7
f 7 10 16
f 7 16 11
f 7 9 12
f 7 12 10
f 9 14 21
f 9 21 30
f 9 30 38
f 9 38 39
f 9 39 36
f 9 36 26
f 9 26 18
f 9 18 12
f 10 15 16
f 10 12 15
f 11 16 24
f 11 24 17
f 12 18 15
f 13 19 14
f 14 19 20
f 14 20 21
f 15 22 16
f 15 18 22
f 16 22 23
f 16 23 31
f 16 31 24
f 17 24 25
f 18 26 22
f 20 27 21
f 21 27 28
f 21 28 29
f 21 29 30
f 22 26 23
f 23 26 36
f 23 36 31
f 24 31 32
f 24 32 33
f 24 33 34
f 24 34 25
f 25 34 35
f 27 37 28
f 28 37 34
f 28 34 29
f 29 34 33
f 29 33 38
f 29 38 30
f 31 36 32
f 32 36 39
f 32 39 38
f 32 38 33
f 34 37 35

