# https://github.com/mikedh/trimesh
v -5.65287982 0.69048534 -3.12673301
v -5.65287982 0.63813215 -3.12626794
v -5.65287982 0.69048534 -3.19602279
v -6.63809416 0.69048534 -3.12605729
v -5.65287982 0.40507699 -3.12626794
v -6.63809416 0.63813215 -3.12559222
v -5.65287982 0.38593645 -3.21507398
v -6.63809416 0.38593645 -3.21524070
v -6.63809416 0.69048534 -3.19607541
v -5.65287982 0.39786201 -3.12737365
v -6.63809416 0.40507699 -3.12559222
v -6.63809416 0.40275148 -3.12580279
v -5.65287982 0.38593645 -3.12923401
v -6.63809416 0.38593645 -3.12843542
f 1 2 5
f 1 5 10
f 1 10 13
f 1 13 7
f 1 7 3
f 1 3 9
f 1 9 4
f 1 4 6
f 1 6 2
f 2 6 11
f 2 11 5
f 3 7 8
f 3 8 9
f 4 9 8
f 4 8 14
f 4 14 12
f 4 12 11
f 4 11 6
f 5 11 12
f 5 12 10
f 7 13 14
f 7 14 8
f 10 12 13
f 12 14 13

