# https://github.com/mikedh/trimesh
v -5.21641033 0.69953185 -0.94206556
v -5.21641033 0.61376585 -1.06815802
v -5.22183719 0.69943225 -0.94206556
v -5.21641033 0.56027417 -0.94206556
v -5.21641033 0.61301876 -1.06871687
v -5.30597535 0.61496121 -1.00927209
v -5.30139891 0.69265864 -0.94206556
v -5.23767939 0.69823693 -0.94206556
v -5.30597535 0.51096619 -0.94206556
v -5.30597535 0.23025931 -0.95856191
v -5.29593699 0.19076312 -0.96913855
v -5.25031283 0.19076312 -0.99120270
v -5.24092323 0.19076312 -0.99753634
v -5.22117965 0.19076312 -1.01125913
v -5.21663828 0.19076312 -1.01552289
v -5.21641033 0.23025931 -1.00978960
v -5.21641033 0.57984795 -1.08804887
v -5.30597535 0.58736866 -1.02198069
v -5.30597535 0.68797688 -0.94206556
v -5.30597535 0.19076312 -0.96570273
v -5.21641033 0.19076312 -1.02916293
v -5.21641033 0.52157487 -1.09827367
v -5.30597535 0.58034602 -1.02448516
v -5.30597535 0.19076312 -1.06298349
v -5.21641033 0.19076312 -1.15351678
v -5.23591720 0.19076312 -1.13913163
v -5.29371014 0.19076312 -1.08208782
v -5.30597535 0.52157487 -1.03129481
f 1 2 3
f 1 3 8
f 1 8 7
f 1 7 19
f 1 19 9
f 1 9 4
f 1 4 16
f 1 16 21
f 1 21 25
f 1 25 22
f 1 22 17
f 1 17 5
f 1 5 2
f 2 5 6
f 2 6 7
f 2 7 8
f 2 8 3
f 4 9 10
f 4 10 11
f 4 11 12
f 4 12 13
f 4 13 14
f 4 14 15
f 4 15 16
f 5 17 6
f 6 17 18
f 6 18 23
f 6 23 28
f 6 28 24
f 6 24 20
f 6 20 10
f 6 10 9
f 6 9 19
f 6 19 7
f 10 20 11
f 11 20 24
f 11 24 27
f 11 27 26
f 11 26 25
f 11 25 21
f 11 21 15
f 11 15 14
f 11 14 13
f 11 13 12
f 15 21 16
f 17 22 23
f 17 23 18
f 22 25 23
f 23 25 26
f 23 26 27
f 23 27 28
f 24 28 27

