# https://github.com/mikedh/trimesh
v -5.65284331 0.91292210 -3.25126816
v -5.65278344 0.88967153 -3.25126816
v -5.65278344 0.91115525 -3.26326536
v -5.65278344 0.90346238 -3.31666383
v -5.95853598 0.87958636 -3.25126816
v -5.65278344 0.75320140 -3.25126816
v -5.65278344 0.76847765 -3.31666383
v -5.95853598 0.85347441 -3.31666383
v -5.95853598 0.75320140 -3.25126816
v -5.95853598 0.76847765 -3.31666383
f 1 2 3
f 1 3 4
f 1 4 5
f 1 5 9
f 1 9 6
f 1 6 2
f 2 6 7
f 2 7 4
f 2 4 3
f 4 7 10
f 4 10 8
f 4 8 5
f 5 8 10
f 5 10 9
f 6 9 10
f 6 10 7

