# https://github.com/mikedh/trimesh
v -3.88860778 0.17220113 -5.04196557
v -3.88860778 0.09556682 -5.02023486
v -3.88860778 0.17220113 -5.09243374
v -5.21641031 0.17220113 -5.04196557
v -3.88860778 0.05544354 -5.01834176
v -5.21641031 0.09556682 -5.02023486
v -3.88860778 0.05544354 -5.09243374
v -4.65492765 0.17196374 -5.09244104
v -4.65505759 0.17220113 -5.09244104
v -5.21641031 0.17220113 -5.09244104
v -3.88860778 0.01877978 -5.02023486
v -4.01403156 0.05544354 -5.01834176
v -5.21641031 0.05544354 -5.01834906
v -3.88860778 0.04803285 -5.09152723
v -4.65492765 0.05544354 -5.09244104
v -5.21641031 0.05544354 -5.09244104
v -3.88860778 -0.00104438 -5.05125702
v -5.21641031 0.01877978 -5.02023486
v -5.21641031 0.03215985 -5.01954576
v -3.88860778 0.00648510 -5.08641357
v -5.21641031 0.00648510 -5.08641357
v -3.95580380 -0.00104438 -5.05125702
v -5.21641031 0.00619682 -5.03994188
v -5.21641031 0.00373784 -5.07358253
v -5.21641031 -0.00102745 -5.05125702
f 1 2 5
f 1 5 11
f 1 11 17
f 1 17 20
f 1 20 14
f 1 14 7
f 1 7 3
f 1 3 9
f 1 9 10
f 1 10 4
f 1 4 6
f 1 6 2
f 2 6 12
f 2 12 5
f 3 7 15
f 3 15 8
f 3 8 9
f 4 10 16
f 4 16 21
f 4 21 24
f 4 24 25
f 4 25 23
f 4 23 18
f 4 18 19
f 4 19 13
f 4 13 6
f 5 12 18
f 5 18 11
f 6 13 12
f 7 14 15
f 8 15 16
f 8 16 10
f 8 10 9
f 11 18 22
f 11 22 17
f 12 13 19
f 12 19 18
f 14 20 15
f 15 20 21
f 15 21 16
f 17 22 21
f 17 21 20
f 18 23 22
f 21 22 24
f 22 23 25
f 22 25 24

