# https://github.com/mikedh/trimesh
v -5.02754220 0.49909411 -1.08705804
v -5.02754220 0.49909411 -1.32998607
v -5.10136252 0.49913414 -1.32998607
v -5.10136252 0.49909411 -1.16320644
v -5.10136252 0.23028666 -1.17031713
v -5.02754220 0.23028666 -1.11053041
v -5.02754220 0.10400073 -1.32998607
v -5.10136252 0.19373656 -1.32998607
v -5.10136252 0.21876981 -1.17317084
v -5.02754220 0.17198241 -1.11928203
v -5.02754220 0.09932201 -1.32187657
v -5.10136252 0.17058278 -1.32249489
v -5.10136252 0.16950303 -1.20149464
v -5.02754220 0.11655730 -1.14801003
v -5.02754220 0.09060434 -1.26361191
v -5.10136252 0.15238765 -1.26361191
v -5.10136252 0.15238765 -1.26313625
v -5.02754220 0.09492315 -1.20534725
v -5.02754220 0.11419801 -1.15145836
v -5.02754220 0.09452329 -1.20770159
f 1 2 3
f 1 3 4
f 1 4 5
f 1 5 6
f 1 6 10
f 1 10 14
f 1 14 19
f 1 19 18
f 1 18 20
f 1 20 15
f 1 15 11
f 1 11 7
f 1 7 2
f 2 7 8
f 2 8 3
f 3 8 12
f 3 12 16
f 3 16 17
f 3 17 13
f 3 13 9
f 3 9 5
f 3 5 4
f 5 9 10
f 5 10 6
f 7 11 12
f 7 12 8
f 9 13 14
f 9 14 10
f 11 15 16
f 11 16 12
f 13 17 18
f 13 18 19
f 13 19 14
f 15 20 17
f 15 17 16
f 17 20 18

