# https://github.com/mikedh/trimesh
v -5.21641033 0.52240845 -1.02361607
v -5.18393411 0.52240845 -1.02361607
v -5.21641033 0.52240845 -0.99534281
v -5.21641033 0.62786762 -1.02361607
v -5.20785211 0.52240845 -1.00005644
v -5.10136973 0.56186531 -1.02361607
v -5.10136973 0.56084956 -0.94088587
v -5.20902323 0.52240845 -0.99940850
v -5.20150100 0.56030265 -0.94088587
v -5.21641033 0.56030265 -0.94088587
v -5.10136973 0.66164034 -1.02361607
v -5.21641033 0.70607809 -0.94087779
v -5.10136973 0.72195851 -0.98589957
v -5.10136973 0.67824345 -0.94087779
v -5.21577973 0.67824345 -0.94087779
v -5.21641033 0.69637015 -0.94087779
v -5.15351861 0.72195851 -0.94087779
v -5.10136973 0.72195851 -0.94087779
f 1 2 5
f 1 5 8
f 1 8 3
f 1 3 10
f 1 10 16
f 1 16 12
f 1 12 4
f 1 4 11
f 1 11 6
f 1 6 2
f 2 6 7
f 2 7 5
f 3 8 7
f 3 7 9
f 3 9 10
f 4 12 13
f 4 13 11
f 5 7 8
f 6 11 13
f 6 13 18
f 6 18 14
f 6 14 7
f 7 14 9
f 9 14 15
f 9 15 10
f 10 15 16
f 12 16 15
f 12 15 14
f 12 14 18
f 12 18 17
f 12 17 13
f 13 17 18

