# https://github.com/mikedh/trimesh
v -3.77731073 1.97748184 0.48432863
v -3.77736335 1.97748184 0.14005457
v -3.79029199 1.97748184 0.48432863
v -3.77736335 0.05545656 0.48432863
v -3.77736335 0.05545656 0.14005457
v -3.83700315 1.97748184 0.14005457
v -3.83700315 1.97748184 0.48358726
v -3.83700315 1.97709422 0.48432863
v -3.79369351 -0.00249299 0.48432863
v -3.79369351 -0.00249299 0.14005457
v -3.83701479 1.05106447 0.14005457
v -3.83700315 0.11359992 0.48432863
v -3.82351341 -0.00249299 0.48432863
v -3.82351341 -0.00249299 0.14005457
v -3.83701479 0.98768821 0.14005457
v -3.83700315 0.05545656 0.42622504
v -3.83695635 0.05526276 0.48432863
v -3.83700315 0.05545656 0.14005457
f 1 2 6
f 1 6 7
f 1 7 3
f 1 3 8
f 1 8 12
f 1 12 17
f 1 17 13
f 1 13 9
f 1 9 4
f 1 4 5
f 1 5 2
f 2 5 10
f 2 10 14
f 2 14 18
f 2 18 15
f 2 15 11
f 2 11 6
f 3 7 8
f 4 9 10
f 4 10 5
f 6 11 7
f 7 11 8
f 8 11 15
f 8 15 12
f 9 13 14
f 9 14 10
f 12 15 16
f 12 16 17
f 13 17 16
f 13 16 18
f 13 18 14
f 15 18 16

