# https://github.com/mikedh/trimesh
v -5.52016808 1.01202314 -3.46125193
v -5.52265371 2.44439864 -3.46126869
v -5.54041908 2.49721751 -3.46126869
v -5.58068662 1.01202314 -3.46125193
v -5.51223276 0.92957818 -3.46125193
v -5.51028175 1.68698839 -3.46126869
v -5.51924885 2.44439864 -3.63231095
v -5.51027237 0.87134191 -3.46125193
v -5.53888080 2.49823326 -3.63231095
v -5.56625109 2.49721751 -3.46126869
v -5.60589956 0.94735377 -3.46125193
v -5.51007539 1.62892140 -3.63231095
v -5.51028175 1.68698839 -3.53622317
v -5.51053501 1.68698839 -3.63231095
v -5.51276740 0.85458202 -3.46125193
v -5.51027237 0.87134191 -3.47794757
v -5.51010353 1.51244885 -3.63231095
v -5.54806363 2.49823326 -3.63231095
v -5.57765695 2.49670973 -3.63231095
v -5.58686791 2.46098913 -3.63231095
v -5.58953178 2.44439864 -3.63231095
v -5.57202905 2.45963491 -3.46126869
v -5.60589956 0.94701517 -3.47794757
v -5.60589956 0.76892049 -3.46125193
v -5.57435526 2.44439864 -3.46126869
v -5.59539417 1.77925226 -3.46126869
v -5.51898622 0.81310565 -3.46125193
v -5.51898622 0.81310565 -3.47794757
v -5.51974598 0.81310565 -3.60365876
v -5.51106028 0.87134191 -3.53620641
v -5.51018795 1.33774001 -3.63231095
v -5.51013166 1.45404329 -3.63231095
v -5.59539417 1.80007511 -3.63231095
v -5.60589956 0.88336160 -3.60365876
v -5.60589956 0.89047186 -3.60039330
v -5.60589956 0.92196005 -3.58590813
v -5.60589956 0.92500730 -3.57853998
v -5.60589956 0.94058212 -3.53620641
v -5.60589956 0.76875125 -3.60365876
v -5.58729002 0.76892049 -3.46125193
v -5.54294227 0.77636938 -3.46125193
v -5.54294227 0.77636938 -3.60365876
v -5.53925600 0.78212525 -3.60365876
v -5.51890180 0.82224732 -3.60365876
v -5.51838592 1.01202314 -3.63231095
v -5.51451205 0.87134191 -3.60365876
v -5.51044121 1.31708644 -3.63231095
v -5.59539417 1.17132644 -3.63231095
v -5.58729002 0.76875125 -3.60365876
v -5.58961620 1.01202314 -3.63231095
v -5.51093834 1.27933443 -3.63231095
f 1 2 3
f 1 3 10
f 1 10 4
f 1 4 11
f 1 11 24
f 1 24 40
f 1 40 41
f 1 41 27
f 1 27 15
f 1 15 8
f 1 8 5
f 1 5 2
f 2 6 7
f 2 7 3
f 2 5 8
f 2 8 6
f 3 9 18
f 3 18 10
f 3 7 9
f 4 10 11
f 6 12 13
f 6 13 7
f 6 8 12
f 7 13 14
f 7 14 12
f 7 12 17
f 7 17 32
f 7 32 31
f 7 31 47
f 7 47 51
f 7 51 45
f 7 45 50
f 7 50 48
f 7 48 33
f 7 33 21
f 7 21 20
f 7 20 19
f 7 19 18
f 7 18 9
f 8 15 16
f 8 16 17
f 8 17 12
f 10 18 19
f 10 19 20
f 10 20 21
f 10 21 22
f 10 22 11
f 11 23 38
f 11 38 37
f 11 37 36
f 11 36 35
f 11 35 34
f 11 34 39
f 11 39 24
f 11 22 25
f 11 25 26
f 11 26 21
f 11 21 23
f 12 14 13
f 15 27 28
f 15 28 16
f 16 28 29
f 16 29 30
f 16 30 31
f 16 31 32
f 16 32 17
f 21 33 34
f 21 34 35
f 21 35 36
f 21 36 37
f 21 37 38
f 21 38 23
f 21 26 25
f 21 25 22
f 24 39 49
f 24 49 40
f 27 41 42
f 27 42 28
f 28 42 43
f 28 43 29
f 29 44 30
f 29 43 45
f 29 45 44
f 30 44 46
f 30 46 47
f 30 47 31
f 33 48 39
f 33 39 34
f 39 48 50
f 39 50 45
f 39 45 49
f 40 49 41
f 41 49 42
f 42 49 45
f 42 45 43
f 44 45 46
f 45 51 46
f 46 51 47

