# https://github.com/mikedh/trimesh
v -6.63819055 0.24722690 -3.66796921
v -6.63819055 0.30010872 -3.46123535
v -6.63819055 0.36403546 -3.66796921
v -5.63850049 0.23739674 -3.66796921
v -6.63819055 0.35339960 -3.46123535
v -5.63840259 0.29723278 -3.46123535
v -5.63840259 0.35369709 -3.46123535
v -5.64564461 0.36394872 -3.66796921
v -5.63840259 0.28725389 -3.66796921
v -5.63840259 0.23743391 -3.66792875
v -5.63840259 0.36383714 -3.66796921
f 1 2 5
f 1 5 3
f 1 3 8
f 1 8 11
f 1 11 9
f 1 9 4
f 1 4 2
f 2 4 6
f 2 6 7
f 2 7 5
f 3 5 7
f 3 7 8
f 4 9 10
f 4 10 6
f 6 10 9
f 6 9 11
f 6 11 7
f 7 11 8

