# https://github.com/mikedh/trimesh
v -4.93525408 1.97849290 -2.08621784
v -5.06284987 2.05101697 -2.19453429
v -5.06142612 2.05081135 -2.19453429
v -5.00459995 2.04329629 -2.19453429
v -5.00322264 2.04325053 -2.19453429
v -4.96442546 2.05686453 -2.19453429
v -4.93525408 2.01794142 -2.12561065
v -4.93525408 1.97849290 -1.91310984
v -5.05195510 1.97849290 -1.91313739
v -5.09183554 2.06460804 -2.19453429
v -4.95161172 2.09370907 -2.19453429
v -4.93525408 2.02758081 -2.13472884
v -4.93525408 2.09802623 -1.91310984
v -5.05155273 1.97849290 -1.91310984
v -5.09274861 2.04676823 -1.91310984
v -5.09256291 2.06495068 -2.19453429
v -4.95141053 2.09489683 -2.19453429
v -4.93525408 2.03961864 -2.13533489
v -4.95917927 2.21182627 -1.91310984
v -4.93525408 2.12824651 -1.96288803
v -5.09333668 2.09494250 -1.91310984
v -5.09329025 2.09494250 -2.19453429
v -4.95379377 2.15177401 -2.19453429
v -4.93525408 2.09352629 -2.13624395
v -5.08343233 2.21182627 -1.91310984
v -4.93525408 2.13816002 -2.02115082
v -4.95902450 2.21182627 -1.96288803
v -5.09279503 2.12338110 -1.91310984
v -5.09270218 2.12824651 -2.19453429
v -4.95910188 2.21004449 -2.19453429
v -4.93525408 2.09402887 -2.13616131
v -5.08343233 2.21182627 -2.19453429
v -5.09270218 2.12824651 -1.91310984
v -4.95893165 2.21182627 -2.02150894
v -4.95893165 2.21182627 -2.02115082
v -4.93525408 2.13583016 -2.05142544
v -4.95928759 2.21180334 -2.19453429
v -4.95902450 2.21182627 -2.07974419
v -4.93525408 2.12696731 -2.10090061
v -5.08111101 2.21182627 -2.19453429
v -4.93525408 2.13085048 -2.07941362
v -4.95921021 2.21182627 -2.13803453
f 1 2 3
f 1 3 4
f 1 4 5
f 1 5 6
f 1 6 7
f 1 7 12
f 1 12 18
f 1 18 24
f 1 24 31
f 1 31 39
f 1 39 41
f 1 41 36
f 1 36 26
f 1 26 20
f 1 20 13
f 1 13 8
f 1 8 14
f 1 14 9
f 1 9 2
f 2 10 16
f 2 16 22
f 2 22 29
f 2 29 32
f 2 32 40
f 2 40 37
f 2 37 30
f 2 30 23
f 2 23 17
f 2 17 11
f 2 11 6
f 2 6 5
f 2 5 4
f 2 4 3
f 2 9 10
f 6 11 12
f 6 12 7
f 8 13 19
f 8 19 25
f 8 25 33
f 8 33 28
f 8 28 21
f 8 21 15
f 8 15 14
f 9 14 15
f 9 15 16
f 9 16 10
f 11 17 12
f 12 17 18
f 13 20 19
f 15 21 22
f 15 22 16
f 17 23 24
f 17 24 18
f 19 20 26
f 19 26 27
f 19 27 35
f 19 35 34
f 19 34 38
f 19 38 42
f 19 42 40
f 19 40 32
f 19 32 25
f 21 28 29
f 21 29 22
f 23 30 31
f 23 31 24
f 25 32 29
f 25 29 33
f 26 34 35
f 26 35 27
f 26 36 37
f 26 37 38
f 26 38 34
f 28 33 29
f 30 37 31
f 31 37 39
f 36 41 37
f 37 40 42
f 37 42 38
f 37 41 39

