# https://github.com/mikedh/trimesh
v -5.59258765 0.22997607 -3.63843272
v -5.63839187 0.28023020 -3.63843272
v -5.51833959 0.22997607 -3.63843272
v -5.57559486 0.22997607 -3.46121590
v -5.57556658 0.23037723 -3.21067520
v -5.65278344 0.30047949 -3.24488737
v -5.63839187 0.35769731 -3.63843272
v -5.65278344 0.30046342 -3.30313614
v -5.65278344 0.30046342 -3.46121590
v -5.52265141 0.22997607 -3.46121590
v -5.51664313 0.28852570 -3.63843272
v -5.50995628 0.23037723 -3.21075891
v -5.50835879 0.28854177 -3.21067520
v -5.65278344 0.30226048 -3.21067520
v -5.58728624 0.35928580 -3.63843272
v -5.65278344 0.35323671 -3.46121590
v -5.65278344 0.39336616 -3.21067520
v -5.53656230 0.33930934 -3.63843272
v -5.52704804 0.35134335 -3.21067520
v -5.58919475 0.39387959 -3.21067520
v -5.57648549 0.39075080 -3.21067520
f 1 2 7
f 1 7 15
f 1 15 18
f 1 18 11
f 1 11 3
f 1 3 10
f 1 10 4
f 1 4 5
f 1 5 6
f 1 6 2
f 2 6 8
f 2 8 9
f 2 9 16
f 2 16 7
f 3 11 12
f 3 12 10
f 4 10 5
f 5 12 13
f 5 13 19
f 5 19 21
f 5 21 20
f 5 20 17
f 5 17 14
f 5 14 6
f 5 10 12
f 6 14 17
f 6 17 16
f 6 16 9
f 6 9 8
f 7 16 17
f 7 17 15
f 11 18 19
f 11 19 13
f 11 13 12
f 15 17 20
f 15 20 21
f 15 21 18
f 18 21 19

