# https://github.com/mikedh/trimesh
v -4.70086332 0.87038638 -2.30204033
v -4.61819156 0.87038638 -2.44509581
v -4.80953360 0.87038638 -2.30204033
v -4.70086332 0.05546030 -2.30204033
v -4.59382335 0.87038638 -2.48731023
v -4.61827739 0.05546030 -2.44509581
v -4.73048703 0.87038638 -2.43902629
v -4.80953360 0.05546030 -2.30204033
v -4.70215038 0.04945393 -2.30204033
v -4.68207237 0.01951020 -2.33813081
v -4.59045556 0.87038638 -2.54471204
v -4.59393059 0.05546030 -2.48731023
v -4.59041266 0.05546030 -2.54558300
v -4.70260086 0.87038638 -2.48731023
v -4.68492534 0.05546030 -2.51787553
v -4.76984946 0.05546030 -2.37079187
v -4.68464648 0.02428001 -2.51738563
v -4.74591024 0.01544711 -2.40606583
v -4.79445363 0.00361098 -2.30204033
v -4.71830293 0.00149109 -2.30204033
v -4.67265540 0.00661421 -2.37079187
v -4.62080856 0.01235558 -2.44945061
v -4.59041266 0.87038638 -2.54558300
v -4.60986862 0.00184440 -2.48731023
v -4.60810964 0.00316936 -2.54558300
v -4.61844897 0.01412216 -2.57829851
v -4.61475943 0.05546030 -2.58009487
v -4.68494678 0.87038638 -2.51787553
v -4.66310975 0.05546030 -2.54699831
v -4.63125517 0.01412216 -2.57829851
v -4.68413166 -0.03198571 -2.45824187
v -4.77452575 -0.00645856 -2.31349892
v -4.77304563 -0.00628195 -2.30204033
v -4.68393859 -0.03198571 -2.44182970
v -4.65798297 -0.00972671 -2.42626126
v -4.61475943 0.87038638 -2.58009487
v -4.68393859 -0.03198571 -2.45824187
v -4.63397941 0.05546030 -2.58009487
v -4.66310975 0.87038638 -2.54699831
v -4.66268076 0.87038638 -2.54748825
v -4.68413166 -0.03198571 -2.44182970
v -4.63397941 0.87038638 -2.58009487
f 1 2 5
f 1 5 11
f 1 11 23
f 1 23 36
f 1 36 42
f 1 42 40
f 1 40 39
f 1 39 28
f 1 28 14
f 1 14 7
f 1 7 3
f 1 3 8
f 1 8 19
f 1 19 33
f 1 33 20
f 1 20 9
f 1 9 4
f 1 4 2
f 2 4 6
f 2 6 5
f 3 7 8
f 4 9 10
f 4 10 6
f 5 6 12
f 5 12 13
f 5 13 11
f 6 10 12
f 7 14 15
f 7 15 16
f 7 16 8
f 8 16 17
f 8 17 18
f 8 18 19
f 9 20 10
f 10 20 21
f 10 21 22
f 10 22 12
f 11 13 23
f 12 22 24
f 12 24 13
f 13 24 25
f 13 25 26
f 13 26 27
f 13 27 36
f 13 36 23
f 14 28 15
f 15 29 17
f 15 17 16
f 15 28 29
f 17 29 30
f 17 30 31
f 17 31 18
f 18 31 19
f 19 31 32
f 19 32 33
f 20 33 34
f 20 34 35
f 20 35 21
f 21 35 24
f 21 24 22
f 24 35 34
f 24 34 37
f 24 37 25
f 25 37 26
f 26 37 31
f 26 31 30
f 26 30 38
f 26 38 27
f 27 38 42
f 27 42 36
f 28 39 29
f 29 38 30
f 29 39 40
f 29 40 38
f 31 37 34
f 31 34 41
f 31 41 32
f 32 41 33
f 33 41 34
f 38 40 42

