# https://github.com/mikedh/trimesh
v -6.05349935 0.95648745 -3.59604358
v -6.11129920 0.94922164 -3.59604358
v -6.22607748 0.91866843 -3.46123526
v -6.17806498 0.91835573 -3.46123526
v -6.05883790 0.91664502 -3.46123526
v -6.03700473 0.95321323 -3.59604358
v -6.17378733 0.93560973 -3.59604358
v -6.33055515 0.90939762 -3.57095832
v -6.33055515 0.91440092 -3.53618739
v -6.33055515 0.90535083 -3.50294721
v -6.33055515 0.87181770 -3.46123526
v -5.98095018 0.87286619 -3.46123526
v -5.98095018 0.91211999 -3.51067996
v -5.98095018 0.92135401 -3.53630618
v -5.99717111 0.93233552 -3.59604358
v -5.98095018 0.92788406 -3.59353633
v -6.21906213 0.92332223 -3.59604358
v -6.33055515 0.90062346 -3.57704162
v -6.33055515 0.76886387 -3.46123526
v -5.98095018 0.76886387 -3.46123526
v -5.98095018 0.92216336 -3.59604358
v -6.33055515 0.87262706 -3.59604358
v -6.33055515 0.76884546 -3.52193597
v -5.98095018 0.76856956 -3.59604358
v -5.98095018 0.76860638 -3.53618739
v -6.33055515 0.76884546 -3.59604358
f 1 2 3
f 1 3 4
f 1 4 5
f 1 5 6
f 1 6 15
f 1 15 21
f 1 21 24
f 1 24 26
f 1 26 22
f 1 22 17
f 1 17 7
f 1 7 2
f 2 7 8
f 2 8 9
f 2 9 3
f 3 9 10
f 3 10 11
f 3 11 19
f 3 19 20
f 3 20 12
f 3 12 5
f 3 5 4
f 5 12 13
f 5 13 14
f 5 14 6
f 6 14 16
f 6 16 15
f 7 17 8
f 8 18 22
f 8 22 26
f 8 26 23
f 8 23 19
f 8 19 11
f 8 11 10
f 8 10 9
f 8 17 18
f 12 20 25
f 12 25 24
f 12 24 21
f 12 21 16
f 12 16 14
f 12 14 13
f 15 16 21
f 17 22 18
f 19 23 24
f 19 24 25
f 19 25 20
f 23 26 24

