# https://github.com/mikedh/trimesh
v -6.71594168 0.73741771 -1.15222516
v -6.71594168 0.73741771 -1.40665937
v -6.65990163 0.73741771 -1.22769611
v -6.65546795 0.98923144 -1.21556597
v -6.65546795 1.02537482 -1.21397193
v -6.71594168 0.98774406 -1.15733136
v -6.71594168 0.73834732 -1.40653485
v -6.65546795 1.03255146 -1.30448724
v -6.67677223 0.73741771 -1.36319508
v -6.65574025 0.73741771 -1.26363822
v -6.65546795 0.97171753 -1.21763334
v -6.65546795 1.04857797 -1.21733446
v -6.71594168 1.04634691 -1.16435530
v -6.71594168 0.99350766 -1.15797894
v -6.71594168 0.98175736 -1.35965819
v -6.71594168 1.03110125 -1.34954557
v -6.71594168 1.05683296 -1.33950772
v -6.71594168 1.08077980 -1.32526038
v -6.71594168 1.09673197 -1.31430089
v -6.65546795 1.05928712 -1.26378765
v -6.65546795 0.99670554 -1.30518458
v -6.66275491 0.73741771 -1.33948280
v -6.66570873 0.73741771 -1.34867379
v -6.65546795 0.96996986 -1.27878226
v -6.65546795 0.94479592 -1.25379964
v -6.65546795 0.94479592 -1.24211781
v -6.65546795 0.94777067 -1.22936501
v -6.71594168 1.11346500 -1.23481983
v -6.71594168 1.10260712 -1.20535376
v -6.71594168 1.09710381 -1.19150497
v -6.71594168 1.11729502 -1.26363822
f 1 2 9
f 1 9 23
f 1 23 22
f 1 22 10
f 1 10 3
f 1 3 4
f 1 4 5
f 1 5 6
f 1 6 14
f 1 14 13
f 1 13 30
f 1 30 29
f 1 29 28
f 1 28 31
f 1 31 19
f 1 19 18
f 1 18 17
f 1 17 16
f 1 16 15
f 1 15 7
f 1 7 2
f 2 7 8
f 2 8 9
f 3 10 11
f 3 11 4
f 4 11 27
f 4 27 26
f 4 26 25
f 4 25 24
f 4 24 21
f 4 21 8
f 4 8 20
f 4 20 12
f 4 12 5
f 5 12 13
f 5 13 14
f 5 14 6
f 7 15 8
f 8 16 17
f 8 17 18
f 8 18 19
f 8 19 20
f 8 21 22
f 8 22 23
f 8 23 9
f 8 15 16
f 10 22 21
f 10 21 24
f 10 24 25
f 10 25 26
f 10 26 27
f 10 27 11
f 12 20 28
f 12 28 29
f 12 29 30
f 12 30 13
f 19 31 20
f 20 31 28

