# https://github.com/mikedh/trimesh
v -6.73338250 0.17573759 -3.53142297
v -6.73338250 0.20983089 -3.53142297
v -6.73337850 0.20983089 -3.57643302
v -6.72835428 0.20983089 -3.57643302
v -6.69198939 0.27919960 -3.57643302
v -6.73338250 0.17573759 -3.19244587
v -6.73337850 0.35248996 -3.57643302
v -6.73338250 0.20983089 -3.07709034
v -6.73337850 0.36742570 -3.24124802
v -6.69198939 0.35821283 -3.57643302
v -6.69198939 0.27948111 -3.24449047
v -6.73338250 0.17581262 -3.13413606
v -6.69446095 0.35843798 -3.57643302
v -6.73338250 0.17902120 -3.07709034
v -6.73337850 0.35260249 -3.01498852
v -6.73337850 0.36742570 -3.01509845
v -6.73275853 0.36742570 -3.24146787
v -6.69198939 0.36742570 -3.25240434
v -6.69198939 0.28139496 -3.18662037
v -6.69500799 0.36742570 -3.25410806
v -6.69446095 0.36742570 -3.25410806
v -6.73337850 0.23701929 -3.01861572
v -6.73337850 0.29432307 -3.01515342
v -6.69198939 0.29160230 -3.13259733
v -6.69198939 0.36742570 -3.10649258
v -6.69198939 0.29659345 -3.13034406
v -6.69198939 0.33918656 -3.11149371
v -6.69198939 0.34676709 -3.10907555
f 1 2 7
f 1 7 3
f 1 3 4
f 1 4 5
f 1 5 6
f 1 6 12
f 1 12 14
f 1 14 8
f 1 8 2
f 2 8 16
f 2 16 9
f 2 9 7
f 3 7 13
f 3 13 10
f 3 10 5
f 3 5 4
f 5 10 18
f 5 18 25
f 5 25 28
f 5 28 27
f 5 27 26
f 5 26 24
f 5 24 19
f 5 19 11
f 5 11 6
f 6 11 12
f 7 9 13
f 8 14 15
f 8 15 16
f 9 17 13
f 9 16 25
f 9 25 18
f 9 18 21
f 9 21 20
f 9 20 17
f 10 13 18
f 11 19 12
f 12 19 14
f 13 17 20
f 13 20 21
f 13 21 18
f 14 22 23
f 14 23 15
f 14 19 24
f 14 24 22
f 15 23 25
f 15 25 16
f 22 24 26
f 22 26 27
f 22 27 28
f 22 28 25
f 22 25 23

