# https://github.com/mikedh/trimesh
v -6.02693987 0.01436980 -5.05124851
v -5.64558296 0.00185673 -5.09124659
v -5.64558296 -0.00586872 -5.05124851
v -6.02693987 0.01632836 -5.03713081
v -6.02693987 0.02209517 -5.08141209
v -5.53774573 0.00642666 -5.08652645
v -5.53774573 -0.00108111 -5.05124851
v -5.64558296 0.05549946 -5.10248740
v -5.53774573 0.01578428 -5.02487789
v -5.53774573 0.01883092 -5.02023243
v -5.58730682 0.01872212 -5.02023243
v -6.02693987 0.01872212 -5.02023243
v -6.02693987 0.05549946 -5.08243496
v -5.53774573 0.01382571 -5.08758127
v -5.53774573 0.05549946 -5.09271681
v -5.64558296 0.11371228 -5.10288162
v -5.53774573 0.05549946 -5.01834645
v -6.02693987 0.05549946 -5.01834645
v -6.02693987 1.10572303 -5.08243496
v -5.53774573 0.06420428 -5.09275953
v -5.64558296 1.10572303 -5.10288162
v -5.53774573 1.10572303 -5.04013551
v -5.60545525 1.10572303 -5.02023243
v -5.76213529 0.98777415 -4.99404293
v -5.82036357 0.98777415 -4.99707959
v -6.02693987 1.10572303 -5.01834645
v -5.53774573 1.10572303 -5.09275953
v -5.64558296 1.10572303 -5.01832509
v -5.76213529 1.04598693 -5.00221513
v -5.76213529 1.10572303 -5.01780306
v -5.76074664 1.10572303 -5.01780306
f 1 2 3
f 1 3 4
f 1 4 12
f 1 12 18
f 1 18 26
f 1 26 19
f 1 19 13
f 1 13 5
f 1 5 2
f 2 6 7
f 2 7 3
f 2 5 8
f 2 8 6
f 3 7 9
f 3 9 10
f 3 10 11
f 3 11 12
f 3 12 4
f 5 13 8
f 6 8 14
f 6 14 15
f 6 15 20
f 6 20 27
f 6 27 22
f 6 22 17
f 6 17 10
f 6 10 9
f 6 9 7
f 8 15 14
f 8 13 16
f 8 16 15
f 10 17 11
f 11 17 18
f 11 18 12
f 13 19 21
f 13 21 16
f 15 16 20
f 16 21 27
f 16 27 20
f 17 22 23
f 17 23 24
f 17 24 18
f 18 24 25
f 18 25 26
f 19 26 30
f 19 30 31
f 19 31 28
f 19 28 23
f 19 23 22
f 19 22 27
f 19 27 21
f 23 28 29
f 23 29 24
f 24 29 26
f 24 26 25
f 26 29 30
f 28 31 29
f 29 31 30

