# https://github.com/mikedh/trimesh
v -3.79244679 2.49810145 0.14002088
v -3.81850699 2.49810145 0.14002088
v -3.77485567 2.44447558 0.14002088
v -3.77775809 2.45334503 -0.28260475
v -3.79244679 2.49810145 -0.28260475
v -3.81850699 2.49810145 -0.28260475
v -3.82625268 2.44925138 0.14002088
v -3.77485567 2.44447558 -0.28260475
v -3.74749847 2.07864603 0.14002088
v -3.82700255 2.44447558 -0.28260475
v -3.82700255 2.44447558 0.14002088
v -3.74749847 2.07864603 -0.09818181
v -3.74891886 2.07441597 -0.14314992
v -3.75361225 2.03661854 -0.17264594
v -3.77469677 2.10443558 -0.28260475
v -3.74749847 2.05735938 0.14002088
v -3.82726721 2.09488381 -0.28260475
v -3.83699794 2.09488381 -0.15642936
v -3.83699794 2.09488381 0.14002088
v -3.74749847 2.05735938 -0.03993425
v -3.75135377 1.10410111 -0.13591029
v -3.75354157 1.10410111 -0.16503398
v -3.77469677 1.10410111 -0.28260475
v -3.77736109 1.10410111 0.14002088
v -3.75135377 1.10410111 -0.12631267
v -3.82726721 1.10410111 -0.28260475
v -3.83717439 1.10410111 -0.15642936
v -3.83748316 1.10410111 -0.09814047
v -3.83761549 1.10410111 -0.03993425
v -3.83699794 1.10410111 0.14002088
f 1 2 7
f 1 7 11
f 1 11 19
f 1 19 30
f 1 30 24
f 1 24 16
f 1 16 9
f 1 9 3
f 1 3 4
f 1 4 5
f 1 5 6
f 1 6 2
f 2 6 7
f 3 8 4
f 3 9 12
f 3 12 8
f 4 8 15
f 4 15 23
f 4 23 26
f 4 26 17
f 4 17 10
f 4 10 6
f 4 6 5
f 6 10 7
f 7 10 11
f 8 12 13
f 8 13 14
f 8 14 15
f 9 16 20
f 9 20 12
f 10 17 18
f 10 18 19
f 10 19 11
f 12 20 21
f 12 21 13
f 13 21 22
f 13 22 14
f 14 22 23
f 14 23 15
f 16 24 25
f 16 25 21
f 16 21 20
f 17 26 27
f 17 27 18
f 18 27 28
f 18 28 29
f 18 29 19
f 19 29 30
f 21 25 24
f 21 24 30
f 21 30 29
f 21 29 28
f 21 28 27
f 21 27 26
f 21 26 23
f 21 23 22

