# https://github.com/mikedh/trimesh
v -6.78928613 0.63814656 -1.56196353
v -6.78889122 0.62988514 -1.56196353
v -6.78928613 0.63814656 -1.52081859
v -6.78928613 0.76893282 -1.56196353
v -6.78566770 0.58991524 -1.56196353
v -6.78774974 0.61909772 -1.52081859
v -6.78928613 0.76893282 -1.52081859
v -6.73390435 0.76893282 -1.56196353
v -6.78557427 0.59787953 -1.52081859
v -6.71594880 0.46536968 -1.56196353
v -6.73390435 0.76893282 -1.52081859
v -6.71594880 0.68786378 -1.55497180
v -6.71594880 0.68726942 -1.56196353
v -6.75508351 0.57505657 -1.52081859
v -6.71594880 0.55909830 -1.52081859
v -6.73102555 0.56236724 -1.52081859
v -6.71594880 0.68786378 -1.52081859
f 1 2 3
f 1 3 7
f 1 7 4
f 1 4 8
f 1 8 13
f 1 13 10
f 1 10 5
f 1 5 2
f 2 5 3
f 3 5 6
f 3 6 9
f 3 9 14
f 3 14 16
f 3 16 15
f 3 15 17
f 3 17 11
f 3 11 7
f 4 7 11
f 4 11 8
f 5 9 6
f 5 10 9
f 8 11 17
f 8 17 12
f 8 12 13
f 9 10 14
f 10 15 16
f 10 16 14
f 10 13 12
f 10 12 17
f 10 17 15

