# https://github.com/mikedh/trimesh
v -6.11044157 0.21925459 0.03825720
v -6.10189217 0.21925459 0.03825720
v -6.15445428 0.21925459 0.03851544
v -6.17002398 0.30938038 -0.01652648
v -6.09436218 0.21925459 0.03830027
v -6.16502589 0.21925459 0.03941917
v -6.26230769 0.34725630 -0.03520387
v -6.20504341 0.31065471 -0.01566581
v -6.17002398 0.34681172 -0.03503177
v -6.09436218 0.34681172 -0.03145971
v -6.09436218 0.21925459 0.26634388
v -6.18924353 0.21925459 0.07574099
v -6.26230769 0.33978778 -0.01106116
v -6.26230769 0.39405291 -0.05181536
v -6.19912466 0.21925459 0.10689844
v -6.26230769 0.40504816 -0.05555952
v -6.09436218 0.40504816 -0.04036806
v -6.09436218 0.32710322 0.33128403
v -6.26230769 0.35285760 0.35878346
v -6.10912625 0.21925459 0.26651598
v -6.26230769 0.33217112 0.01837495
v -6.20379391 0.21925459 0.13805589
v -6.26230769 0.45637926 -0.05981998
v -6.26230769 0.46331430 -0.06037952
v -6.26230769 0.52202492 -0.06274636
v -6.22852126 0.52202492 -0.05598985
v -6.17276958 0.52202492 -0.03283685
v -6.17237502 0.52202492 -0.03266475
v -6.09436218 0.45021477 -0.02190602
v -6.09436218 0.33578677 0.33627613
v -6.09436218 0.35623620 0.34789553
v -6.26230769 0.37475928 0.36446413
v -6.26230769 0.33406786 0.31101434
v -6.20328422 0.21925459 0.18900963
v -6.18210809 0.21925459 0.24525659
v -6.17699496 0.21925459 0.25528385
v -6.15915636 0.24886184 0.28506416
v -6.11374619 0.21925459 0.26655905
v -6.26230769 0.32399128 0.13491434
v -6.26230769 0.32405059 0.14235942
v -6.20338286 0.21925459 0.17941270
v -6.26230769 0.32458408 0.19314105
v -6.26230769 0.52202492 0.37690130
v -6.14345521 0.52202492 -0.00503612
v -6.09436218 0.46989367 0.00107489
v -6.09436218 0.37075828 0.35052078
v -6.26230769 0.40504816 0.37130677
v -6.26230769 0.48388225 0.37578239
v -6.09436218 0.40629289 0.35181179
v -6.09436218 0.44244990 0.34471091
v -6.17969132 0.52158034 0.35250036
v -6.17947754 0.52202492 0.35228519
v -6.13000636 0.52202492 0.02414175
v -6.09436218 0.47540614 0.01463096
v -6.26230769 0.46331430 0.37492172
v -6.26230769 0.42689054 0.37294197
v -6.09436218 0.46441080 0.31269279
v -6.13189711 0.52202492 0.29367121
v -6.15057415 0.52202492 0.32310732
v -6.11678780 0.52202492 0.07630036
v -6.11672198 0.52202492 0.07664473
v -6.09436218 0.48210404 0.07556872
v -6.09436218 0.48186699 0.25141066
v -6.11928680 0.52202492 0.25141066
v -6.11348309 0.52202492 0.13491434
v -6.09436218 0.48213364 0.07664473
v -6.09436218 0.48260783 0.19314105
v -6.11402570 0.52202492 0.19314105
v -6.11923748 0.52202492 0.25098033
v -6.09436218 0.48293388 0.13491434
f 1 2 5
f 1 5 11
f 1 11 20
f 1 20 38
f 1 38 36
f 1 36 35
f 1 35 34
f 1 34 41
f 1 41 22
f 1 22 15
f 1 15 12
f 1 12 6
f 1 6 3
f 1 3 4
f 1 4 2
f 2 4 5
f 3 6 7
f 3 7 8
f 3 8 4
f 4 8 7
f 4 7 9
f 4 9 10
f 4 10 5
f 5 10 17
f 5 17 29
f 5 29 45
f 5 45 54
f 5 54 62
f 5 62 66
f 5 66 70
f 5 70 67
f 5 67 63
f 5 63 57
f 5 57 50
f 5 50 49
f 5 49 46
f 5 46 31
f 5 31 30
f 5 30 18
f 5 18 11
f 6 12 7
f 7 13 21
f 7 21 39
f 7 39 40
f 7 40 42
f 7 42 33
f 7 33 19
f 7 19 32
f 7 32 47
f 7 47 56
f 7 56 55
f 7 55 48
f 7 48 43
f 7 43 25
f 7 25 24
f 7 24 23
f 7 23 16
f 7 16 14
f 7 14 9
f 7 12 15
f 7 15 13
f 9 14 16
f 9 16 10
f 10 16 17
f 11 18 19
f 11 19 20
f 13 15 21
f 15 22 21
f 16 23 17
f 17 23 24
f 17 24 25
f 17 25 26
f 17 26 27
f 17 27 28
f 17 28 29
f 18 30 19
f 19 30 31
f 19 31 32
f 19 33 34
f 19 34 35
f 19 35 36
f 19 36 37
f 19 37 38
f 19 38 20
f 21 22 39
f 22 40 39
f 22 41 42
f 22 42 40
f 25 43 52
f 25 52 59
f 25 59 58
f 25 58 64
f 25 64 69
f 25 69 68
f 25 68 65
f 25 65 61
f 25 61 60
f 25 60 53
f 25 53 44
f 25 44 28
f 25 28 27
f 25 27 26
f 28 44 29
f 29 44 45
f 31 46 47
f 31 47 32
f 33 42 34
f 34 42 41
f 36 38 37
f 43 48 49
f 43 49 50
f 43 50 51
f 43 51 52
f 44 53 45
f 45 53 54
f 46 49 48
f 46 48 55
f 46 55 56
f 46 56 47
f 50 57 58
f 50 58 59
f 50 59 52
f 50 52 51
f 53 60 54
f 54 60 61
f 54 61 62
f 57 63 64
f 57 64 58
f 61 65 62
f 62 65 66
f 63 67 65
f 63 65 68
f 63 68 69
f 63 69 64
f 65 70 66
f 65 67 70

