# https://github.com/mikedh/trimesh
v -3.79244019 2.49808756 -4.93408828
v -3.79039306 2.49911304 -4.99299558
v -3.84445535 2.50013860 -5.04672513
v -3.81879675 2.49808756 -4.93408828
v -3.77486539 2.44455494 -4.93408828
v -3.77027098 2.44455494 -4.99299558
v -3.79282399 2.49680567 -5.05125181
v -3.83915153 2.49347266 -5.08641009
v -3.88860778 2.49347266 -5.08641009
v -3.88860778 2.49460077 -5.05599540
v -3.82755514 2.44455494 -4.93408828
v -3.88860778 2.44455494 -5.03171932
v -3.76978247 2.38625355 -4.99299558
v -3.77486539 2.15325327 -4.93408828
v -3.77513283 2.44455494 -5.05125181
v -3.80154756 2.48690927 -5.08439492
v -3.83915153 2.44455494 -5.09242471
v -3.88860778 2.48608889 -5.08732460
v -3.88860778 2.38625355 -5.03100626
v -3.82755514 2.15325327 -4.93408828
v -3.77465596 2.38625355 -5.05125181
v -3.76978247 2.21150334 -4.99299558
v -3.77505139 2.15268930 -4.93408828
v -3.79731368 1.97629824 -5.06117297
v -3.77036407 2.15325327 -4.99299558
v -3.79731368 2.44455494 -5.08641009
v -3.88860778 2.44455494 -5.09242471
v -3.83765109 1.97629824 -5.09222327
v -3.83915153 1.97629824 -5.09242471
v -3.88860778 2.17053345 -5.03100626
v -3.88860778 2.15325327 -5.03102172
v -3.88860778 2.11218083 -5.03251000
v -3.88860778 2.09495197 -5.03336251
v -3.88860778 1.98747645 -5.04043144
v -3.88860778 1.97629824 -5.04195063
v -3.81879675 2.10192555 -4.93408828
v -3.77465596 2.21150334 -5.05125181
v -3.79244019 2.10192555 -4.93408828
v -3.79881412 1.97629824 -5.06047536
v -3.79731368 1.97629824 -5.08641009
v -3.77523755 2.15325327 -5.05125181
v -3.78120441 2.09495197 -5.05125181
v -3.88860778 1.97629824 -5.09242471
v -3.83915153 1.97629824 -5.04195063
f 1 2 3
f 1 3 4
f 1 4 11
f 1 11 20
f 1 20 36
f 1 36 38
f 1 38 23
f 1 23 14
f 1 14 5
f 1 5 6
f 1 6 2
f 2 7 3
f 2 6 7
f 3 7 8
f 3 8 9
f 3 9 10
f 3 10 4
f 4 10 12
f 4 12 11
f 5 13 6
f 5 14 22
f 5 22 13
f 6 13 15
f 6 15 7
f 7 16 8
f 7 15 16
f 8 16 17
f 8 17 18
f 8 18 9
f 9 18 27
f 9 27 43
f 9 43 35
f 9 35 34
f 9 34 33
f 9 33 32
f 9 32 31
f 9 31 30
f 9 30 19
f 9 19 12
f 9 12 10
f 11 12 19
f 11 19 30
f 11 30 20
f 13 21 15
f 13 22 37
f 13 37 21
f 14 23 24
f 14 24 25
f 14 25 22
f 15 21 26
f 15 26 16
f 16 26 17
f 17 27 18
f 17 26 28
f 17 28 29
f 17 29 43
f 17 43 27
f 20 30 31
f 20 31 32
f 20 32 33
f 20 33 34
f 20 34 35
f 20 35 36
f 21 37 40
f 21 40 26
f 22 25 41
f 22 41 37
f 23 38 24
f 24 39 44
f 24 44 35
f 24 35 43
f 24 43 29
f 24 29 28
f 24 28 40
f 24 40 25
f 24 38 39
f 25 40 42
f 25 42 41
f 26 40 28
f 35 44 38
f 35 38 36
f 37 41 40
f 38 44 39
f 40 41 42

