# https://github.com/mikedh/trimesh
v -6.75788660 2.48720415 -1.73232421
v -6.75788660 2.48744640 -2.19593064
v -6.78557219 2.48720415 -1.73232421
v -6.73494546 2.44626274 -1.73232421
v -6.78557219 2.48744640 -2.19593064
v -6.73895793 2.45353050 -2.44133669
v -6.75788660 2.48744640 -2.44133669
v -6.78573474 2.48550833 -1.73232421
v -6.73389897 2.44432466 -1.73232421
v -6.73389897 2.44432466 -2.44133669
v -6.78557219 2.48744640 -2.44133669
v -6.78928092 2.44432466 -1.73232421
v -6.73389897 0.05567503 -1.73232421
v -6.73389358 0.05567503 -1.78812351
v -6.73389897 0.05567503 -2.44133669
v -6.78928092 2.44432466 -2.44133669
v -6.78928630 1.96586804 -2.44133669
v -6.78928092 0.05567503 -1.73232421
v -6.75683472 0.01449136 -1.73232421
v -6.75788121 0.01255329 -2.13763282
v -6.75282226 0.02175913 -2.44133669
v -6.78928630 0.63830208 -2.44133669
v -6.78928092 0.05567503 -2.44133669
v -6.78912358 0.05373696 -1.73232421
v -6.75788121 0.01279555 -1.73232421
v -6.78557219 0.01255329 -2.13763282
v -6.75788121 0.01279555 -2.44133669
v -6.78850013 0.04646937 -2.44133669
v -6.78557219 0.01279555 -1.73232421
v -6.78557219 0.01279555 -2.44133669
f 1 2 5
f 1 5 3
f 1 3 8
f 1 8 12
f 1 12 18
f 1 18 24
f 1 24 29
f 1 29 25
f 1 25 19
f 1 19 13
f 1 13 9
f 1 9 4
f 1 4 2
f 2 4 6
f 2 6 7
f 2 7 11
f 2 11 5
f 3 5 8
f 4 9 10
f 4 10 6
f 5 11 16
f 5 16 12
f 5 12 8
f 6 10 15
f 6 15 21
f 6 21 27
f 6 27 30
f 6 30 28
f 6 28 23
f 6 23 22
f 6 22 17
f 6 17 16
f 6 16 11
f 6 11 7
f 9 13 14
f 9 14 10
f 10 14 15
f 12 16 17
f 12 17 22
f 12 22 18
f 13 19 14
f 14 19 20
f 14 20 15
f 15 20 21
f 18 22 23
f 18 23 24
f 19 25 20
f 20 25 29
f 20 29 26
f 20 26 30
f 20 30 27
f 20 27 21
f 23 28 24
f 24 28 26
f 24 26 29
f 26 28 30

