# https://github.com/mikedh/trimesh
v -5.98095023 1.04956433 -3.66798918
v -6.05349944 0.95645691 -3.59605756
v -6.03700473 0.95319490 -3.59605756
v -5.99717111 0.93230129 -3.59605756
v -5.98095023 0.92214973 -3.59605756
v -5.98095023 0.76231207 -3.66798918
v -6.11177825 1.04742715 -3.66798918
v -6.11129920 0.94920178 -3.59605756
v -6.11177825 0.97313244 -3.61080305
v -5.98095023 0.76858297 -3.59605756
v -6.28832604 0.76228394 -3.66798918
v -6.17046786 1.04034075 -3.66798918
v -6.15985926 0.96987046 -3.61452108
v -6.17375311 0.93559141 -3.59605756
v -6.33052086 0.76883604 -3.59605756
v -6.33052086 0.76228394 -3.66798918
v -6.23350345 0.99096092 -3.66798918
v -6.33052086 0.87265745 -3.59605756
v -6.21906204 0.92330269 -3.59605756
v -6.33052086 0.91028284 -3.66798918
f 1 2 3
f 1 3 4
f 1 4 5
f 1 5 10
f 1 10 6
f 1 6 11
f 1 11 16
f 1 16 20
f 1 20 17
f 1 17 12
f 1 12 7
f 1 7 2
f 2 8 14
f 2 14 19
f 2 19 18
f 2 18 15
f 2 15 10
f 2 10 5
f 2 5 4
f 2 4 3
f 2 7 9
f 2 9 8
f 6 10 11
f 7 12 9
f 8 9 13
f 8 13 14
f 9 12 13
f 10 15 16
f 10 16 11
f 12 17 18
f 12 18 19
f 12 19 13
f 13 19 14
f 15 18 20
f 15 20 16
f 17 20 18

