# https://github.com/mikedh/trimesh
v -5.21641033 0.01169983 -3.16147719
v -5.04481541 0.00425466 -3.17703282
v -5.04481541 -0.01783266 -3.12828876
v -5.04481541 -0.01882532 -3.11026757
v -5.21641033 0.01169983 -3.13468440
v -5.21641033 0.03949500 -3.16406233
v -5.04481541 0.05562614 -3.19741504
v -5.04481541 -0.01187648 -3.04725298
v -5.04481541 -0.01162832 -3.04516096
v -5.06377886 -0.00170152 -3.04516096
v -5.21641033 0.02758281 -3.12639098
v -5.21641033 0.05562614 -3.16552674
v -5.04481541 0.08491047 -3.19780353
v -5.04481541 2.50805873 -3.04516096
v -5.07363853 0.02038581 -3.04516096
v -5.21641033 0.05562614 -3.11195608
v -5.21641033 2.44452681 -3.16552674
v -5.04481541 2.38620640 -3.19729548
v -5.04481541 2.51649655 -3.12828876
v -5.06287184 2.51426299 -3.12828876
v -5.21641033 2.48845312 -3.13468440
v -5.06377886 2.50160622 -3.04516096
v -5.08784852 0.05562614 -3.04516096
v -5.08801648 0.11394655 -3.04516096
v -5.21641033 2.44452681 -3.11195608
v -5.21641033 2.48845312 -3.16147719
v -5.04481541 2.44452681 -3.19650349
v -5.04481541 2.41747604 -3.19687712
v -5.04481541 2.51004412 -3.14790896
v -5.08784852 2.44452681 -3.04516096
v -5.08801648 2.38620640 -3.04516096
v -5.04481541 2.49440931 -3.17691325
v -5.04481541 2.46984026 -3.18882284
f 1 2 3
f 1 3 4
f 1 4 5
f 1 5 11
f 1 11 16
f 1 16 25
f 1 25 21
f 1 21 26
f 1 26 17
f 1 17 12
f 1 12 6
f 1 6 7
f 1 7 2
f 2 7 13
f 2 13 18
f 2 18 28
f 2 28 27
f 2 27 33
f 2 33 32
f 2 32 29
f 2 29 19
f 2 19 14
f 2 14 9
f 2 9 8
f 2 8 4
f 2 4 3
f 4 8 5
f 5 8 9
f 5 9 10
f 5 10 11
f 6 12 7
f 7 12 13
f 9 14 22
f 9 22 30
f 9 30 31
f 9 31 24
f 9 24 23
f 9 23 15
f 9 15 10
f 10 15 16
f 10 16 11
f 12 17 13
f 13 17 18
f 14 19 20
f 14 20 21
f 14 21 22
f 15 23 16
f 16 23 24
f 16 24 31
f 16 31 25
f 17 26 27
f 17 27 28
f 17 28 18
f 19 29 26
f 19 26 20
f 20 26 21
f 21 25 22
f 22 25 30
f 25 31 30
f 26 29 32
f 26 32 33
f 26 33 27

