# https://github.com/mikedh/trimesh
v -5.93693526 0.29212538 -0.02028766
v -5.93693526 0.29277913 -0.02058723
v -5.92653649 0.29212538 -0.01986809
v -5.97999235 0.29212538 -0.01533395
v -6.09432935 0.34680148 -0.03147343
v -5.92653649 0.29330220 -0.02040749
v -5.99520439 0.34680148 -0.03660706
v -5.93693526 0.34680148 -0.03866443
v -5.92653649 0.33768568 -0.03526864
v -5.92653649 0.29212538 0.05945164
v -6.09432935 0.33708794 -0.02596052
v -5.99520439 0.29212538 -0.01255743
v -6.09432935 0.31450393 -0.01299680
v -6.09432935 0.40506405 -0.04038230
v -6.05345715 0.40506405 -0.04643461
v -5.99520439 0.40506405 -0.04735345
v -5.93693526 0.40506405 -0.04693406
v -5.92653649 0.39464067 -0.04503645
v -5.92653649 0.34680148 -0.03824504
v -5.92653649 0.36185748 0.15670879
v -6.02799417 0.29212538 0.15670879
v -6.02217874 0.29212538 -0.00720412
v -6.09432935 0.29212538 0.00979430
v -6.09432935 0.45023205 -0.02190567
v -6.05345715 0.45176384 -0.02795798
v -5.99520439 0.45267913 -0.02887683
v -5.93693526 0.45267913 -0.02885686
v -5.92653649 0.40506405 -0.04649452
v -5.92653649 0.45258570 -0.02865714
v -5.92653649 0.47162056 0.15670879
v -6.09432935 0.29212538 0.15670879
v -6.09432935 0.46988333 0.00104536
v -6.09432935 0.47541257 0.01460821
v -5.92653649 0.47128427 0.01836349
v -6.09429644 0.48273512 0.15670879
v -5.92653649 0.47162056 0.07661000
v -6.09432935 0.48295924 0.13489628
v -6.09432935 0.44821462 0.15670879
v -6.09432935 0.48211862 0.07553138
v -6.09432935 0.48213729 0.07661000
f 1 2 6
f 1 6 3
f 1 3 10
f 1 10 21
f 1 21 31
f 1 31 23
f 1 23 22
f 1 22 12
f 1 12 4
f 1 4 5
f 1 5 2
f 2 5 7
f 2 7 8
f 2 8 9
f 2 9 6
f 3 6 9
f 3 9 19
f 3 19 18
f 3 18 28
f 3 28 29
f 3 29 34
f 3 34 36
f 3 36 30
f 3 30 20
f 3 20 10
f 4 11 5
f 4 12 13
f 4 13 11
f 5 14 15
f 5 15 7
f 5 11 13
f 5 13 23
f 5 23 31
f 5 31 38
f 5 38 37
f 5 37 40
f 5 40 39
f 5 39 33
f 5 33 32
f 5 32 24
f 5 24 14
f 7 15 8
f 8 15 16
f 8 16 17
f 8 17 18
f 8 18 19
f 8 19 9
f 10 20 21
f 12 22 13
f 13 22 23
f 14 24 25
f 14 25 15
f 15 25 26
f 15 26 16
f 16 26 27
f 16 27 17
f 17 28 18
f 17 27 29
f 17 29 28
f 20 30 35
f 20 35 38
f 20 38 31
f 20 31 21
f 24 32 25
f 25 32 26
f 26 32 27
f 27 32 29
f 29 32 33
f 29 33 34
f 30 36 37
f 30 37 35
f 33 39 34
f 34 39 40
f 34 40 37
f 34 37 36
f 35 37 38

