# https://github.com/mikedh/trimesh
v -6.57837986 0.99973501 -1.26387396
v -6.49217641 0.89897089 -1.24298438
v -6.49217641 0.89897089 -1.23282227
v -6.57837986 1.00390814 -1.22519338
v -6.57837986 1.01244570 -1.29531483
v -6.49660028 0.94544931 -1.29621058
v -6.48478465 0.89897089 -1.24298438
v -6.48478465 0.89897089 -1.23282227
v -6.50045289 0.92952180 -1.22714647
v -6.57837986 1.00397769 -1.22487757
v -6.57837986 1.02877315 -1.29531483
v -6.51747632 0.99084967 -1.29697417
v -6.48123438 0.94544931 -1.29621058
v -6.47093074 0.92741784 -1.26289008
v -6.47299150 0.92952180 -1.22714647
v -6.52078024 0.98705908 -1.22196994
v -6.57837986 1.04562224 -1.22318150
v -6.57790941 1.02877315 -1.29530745
v -6.51964909 1.02477388 -1.29543231
v -6.57837986 1.05789823 -1.27164240
v -6.57790941 1.05791562 -1.27170848
v -6.48223112 0.98778937 -1.29621796
v -6.46397573 0.98778937 -1.26360965
v -6.47225231 0.98778937 -1.22421679
v -6.57790941 1.04603955 -1.22317412
v -6.57837986 1.04605694 -1.22318879
v -6.48876056 1.01884453 -1.29391233
v -6.57837986 1.07659046 -1.24260988
v -6.57790941 1.07659046 -1.24258053
v -6.54856647 1.07526895 -1.23502501
v -6.48415747 1.02392187 -1.26360965
v -6.48379911 1.02432180 -1.22891600
v -6.52533844 1.04466588 -1.22677197
v -6.54856647 1.07526895 -1.23437152
v -6.57790941 1.07659046 -1.23277087
v -6.57837986 1.07659046 -1.23276349
f 1 2 3
f 1 3 4
f 1 4 10
f 1 10 17
f 1 17 26
f 1 26 36
f 1 36 28
f 1 28 20
f 1 20 11
f 1 11 5
f 1 5 2
f 2 6 13
f 2 13 7
f 2 7 8
f 2 8 3
f 2 5 6
f 3 8 15
f 3 15 9
f 3 9 10
f 3 10 4
f 5 11 12
f 5 12 6
f 6 12 13
f 7 13 14
f 7 14 8
f 8 14 15
f 9 15 16
f 9 16 10
f 10 16 17
f 11 18 19
f 11 19 12
f 11 20 21
f 11 21 18
f 12 22 13
f 12 19 22
f 13 22 23
f 13 23 14
f 14 23 15
f 15 23 24
f 15 24 16
f 16 24 25
f 16 25 17
f 17 25 26
f 18 21 19
f 19 21 27
f 19 27 22
f 20 28 21
f 21 28 29
f 21 29 30
f 21 30 27
f 22 27 23
f 23 27 31
f 23 31 32
f 23 32 24
f 24 32 33
f 24 33 25
f 25 33 34
f 25 34 35
f 25 35 36
f 25 36 26
f 27 30 31
f 28 36 35
f 28 35 29
f 29 35 34
f 29 34 30
f 30 32 31
f 30 34 32
f 32 34 33

