# https://github.com/mikedh/trimesh
v -5.57439533 1.86190297 -3.21067512
v -5.50993130 1.86182660 -3.21067512
v -5.50993130 1.86190297 -3.21072418
v -5.57450982 1.86190297 -3.30311452
v -5.63344918 1.73400077 -3.36136442
v -5.65202696 1.68696329 -3.36136442
v -5.63014295 1.73087003 -3.30311452
v -5.64495652 1.68696329 -3.30311452
v -5.62337309 1.72384496 -3.26433859
v -5.62725182 1.68696329 -3.26002195
v -5.59367443 1.71353641 -3.21067512
v -5.50618141 1.68696329 -3.21067512
v -5.51287972 1.74530198 -3.46123526
v -5.52264090 1.86190297 -3.46123526
v -5.51027480 1.68696329 -3.46123526
v -5.57456708 1.86190297 -3.36136442
v -5.57456708 1.86190297 -3.41963871
v -5.57455276 1.86190297 -3.46123526
v -5.63337763 1.73377171 -3.41963871
v -5.64673126 1.70040259 -3.46123526
v -5.65211284 1.68696329 -3.46123526
v -5.65217006 1.68696329 -3.41963871
v -5.65237047 1.62870098 -3.41963871
v -5.65202696 1.62870098 -3.36136442
v -5.64499946 1.62870098 -3.30311452
v -5.59562093 1.68696329 -3.21067512
v -5.62675087 1.27920351 -3.26286698
v -5.50993130 1.08181416 -3.21067512
v -5.51027480 1.27920351 -3.46123526
v -5.63330604 1.73361898 -3.46123526
v -5.65234181 1.64542375 -3.46123526
v -5.65239908 1.62870098 -3.46123526
v -5.65022357 1.39572814 -3.46123526
v -5.64723223 1.39572814 -3.36136442
v -5.64205106 1.39572814 -3.30311452
v -5.58813543 1.27920351 -3.21067512
v -5.64076292 1.33746582 -3.30311452
v -5.63885932 1.27920351 -3.30311452
v -5.62327291 1.24125282 -3.26654593
v -5.57446690 1.08181416 -3.21067512
v -5.52264090 1.08181416 -3.46123526
v -5.51237876 1.22086485 -3.46123526
v -5.51087593 1.26248078 -3.46123526
v -5.64864919 1.35411219 -3.46123526
v -5.64468456 1.33746582 -3.36136442
v -5.64076292 1.27920351 -3.36136442
v -5.62735200 1.23567859 -3.30311452
v -5.57448121 1.08181416 -3.21295608
v -5.62796744 1.23438049 -3.36136442
v -5.57462433 1.08181416 -3.46123526
v -5.64791924 1.33746582 -3.46123526
v -5.64202245 1.27920351 -3.46123526
v -5.57452415 1.08181416 -3.24486471
v -5.62786726 1.23438049 -3.41963871
v -5.57462433 1.08181416 -3.36136442
v -5.57459570 1.08181416 -3.30311452
v -5.62778138 1.23445683 -3.46123526
f 1 2 3
f 1 3 14
f 1 14 18
f 1 18 17
f 1 17 16
f 1 16 4
f 1 4 5
f 1 5 6
f 1 6 7
f 1 7 8
f 1 8 9
f 1 9 10
f 1 10 11
f 1 11 26
f 1 26 36
f 1 36 40
f 1 40 28
f 1 28 12
f 1 12 2
f 2 12 3
f 3 13 14
f 3 12 15
f 3 15 13
f 4 16 5
f 5 16 17
f 5 17 18
f 5 18 19
f 5 19 20
f 5 20 21
f 5 21 22
f 5 22 6
f 6 8 7
f 6 22 23
f 6 23 24
f 6 24 25
f 6 25 8
f 8 10 9
f 8 25 10
f 10 26 11
f 10 25 27
f 10 27 26
f 12 28 29
f 12 29 15
f 13 15 29
f 13 29 43
f 13 43 42
f 13 42 41
f 13 41 50
f 13 50 57
f 13 57 52
f 13 52 51
f 13 51 44
f 13 44 33
f 13 33 32
f 13 32 31
f 13 31 21
f 13 21 20
f 13 20 30
f 13 30 18
f 13 18 14
f 18 30 19
f 19 30 20
f 21 31 22
f 22 31 23
f 23 31 32
f 23 32 33
f 23 33 24
f 24 33 34
f 24 34 35
f 24 35 25
f 25 35 27
f 26 27 36
f 27 35 37
f 27 37 38
f 27 38 39
f 27 39 40
f 27 40 36
f 28 40 48
f 28 48 53
f 28 53 56
f 28 56 55
f 28 55 50
f 28 50 41
f 28 41 42
f 28 42 43
f 28 43 29
f 33 44 34
f 34 44 45
f 34 45 38
f 34 38 37
f 34 37 35
f 38 46 47
f 38 47 40
f 38 40 39
f 38 45 46
f 40 47 49
f 40 49 48
f 44 51 45
f 45 51 46
f 46 51 52
f 46 52 49
f 46 49 47
f 48 49 53
f 49 52 54
f 49 54 50
f 49 50 55
f 49 55 56
f 49 56 53
f 50 54 57
f 52 57 54

