# https://github.com/mikedh/trimesh
v -6.71594168 0.56271526 -1.09117436
v -6.71594168 0.56271526 -1.08879701
v -6.71594168 0.68834226 -1.09117436
v -6.66732136 0.28852683 -1.09117436
v -6.66732136 0.28829039 -1.08879701
v -6.71594168 0.56358218 -1.03053417
v -6.71594168 0.69078543 -1.02624358
v -6.62566680 0.61851447 -1.02624358
v -6.57980476 0.57938410 -1.02624358
v -6.64302678 0.62107586 -1.09117436
v -6.66470331 0.28829039 -1.09117436
v -6.66632401 0.28829039 -1.04665403
v -6.71594168 0.56437030 -1.02624358
v -6.55725549 0.52157513 -1.02624358
v -6.61391690 0.59053604 -1.09117436
v -6.61510127 0.59179705 -1.09117436
v -6.60204230 0.28829039 -1.09117436
v -6.66437604 0.28829039 -1.02624358
v -6.55674128 0.28829039 -1.02624358
v -6.60235403 0.52157513 -1.09117436
v -6.60243191 0.52319080 -1.09117436
v -6.60475387 0.56137545 -1.09117436
v -6.60226051 0.46573654 -1.09117436
f 1 2 6
f 1 6 13
f 1 13 7
f 1 7 3
f 1 3 10
f 1 10 16
f 1 16 15
f 1 15 22
f 1 22 21
f 1 21 20
f 1 20 23
f 1 23 17
f 1 17 11
f 1 11 4
f 1 4 5
f 1 5 2
f 2 5 6
f 3 7 8
f 3 8 9
f 3 9 10
f 4 11 5
f 5 11 17
f 5 17 19
f 5 19 18
f 5 18 12
f 5 12 6
f 6 12 13
f 7 13 18
f 7 18 19
f 7 19 14
f 7 14 9
f 7 9 8
f 9 14 15
f 9 15 16
f 9 16 10
f 12 18 13
f 14 19 20
f 14 20 21
f 14 21 22
f 14 22 15
f 17 23 19
f 19 23 20

