# https://github.com/mikedh/trimesh
v -5.21641027 0.43433961 -3.75230397
v -5.46803310 0.39800850 -3.74327318
v -5.21641027 0.05546412 -3.74623221
v -5.21641027 0.43433961 -3.80632666
v -5.52356270 0.43433961 -3.74680356
v -5.53497479 0.42850872 -3.74327318
v -5.52912958 0.42743219 -3.74327318
v -5.47791431 0.40792106 -3.74327318
v -5.47206910 0.40388428 -3.74327318
v -5.44840986 0.34678611 -3.74327318
v -5.21641027 0.02124109 -3.76280672
v -5.44729647 0.34091033 -3.74327318
v -5.44604393 0.28847682 -3.74327318
v -5.44270380 0.05546412 -3.74327318
v -5.47485251 0.00742626 -3.74327318
v -5.52773785 -0.01239886 -3.74327318
v -5.21641027 0.05546412 -3.81633135
v -6.63819055 0.05546412 -3.81808916
v -6.63819055 0.43433961 -3.80779150
v -5.58438083 0.43433961 -3.74654723
v -5.58730343 0.42980945 -3.74327318
v -5.21641027 0.00159537 -3.77232810
v -5.58730343 -0.02015844 -3.74327318
v -5.21641027 0.03581840 -3.81306493
v -6.63819055 0.00370346 -3.80902190
v -5.21641027 0.00159537 -3.80737402
v -6.63819055 0.43433961 -3.74645919
v -6.63805144 0.42980945 -3.74327318
v -5.52912958 -0.02033783 -3.76928849
v -5.61959132 -0.02015844 -3.74327318
v -5.64561648 -0.02383643 -3.76928849
v -5.58730343 -0.02379154 -3.76928849
v -6.63819055 0.00150568 -3.80844326
v -6.63819055 0.43173815 -3.74522879
v -6.63819055 0.40401886 -3.74327318
v -6.63819055 -0.01280253 -3.74327318
v -6.63819055 -0.02383643 -3.76928849
v -6.63819055 -0.02307388 -3.77113417
f 1 2 3
f 1 3 11
f 1 11 22
f 1 22 26
f 1 26 24
f 1 24 17
f 1 17 4
f 1 4 19
f 1 19 27
f 1 27 20
f 1 20 5
f 1 5 6
f 1 6 7
f 1 7 8
f 1 8 9
f 1 9 2
f 2 10 3
f 2 9 8
f 2 8 7
f 2 7 6
f 2 6 21
f 2 21 28
f 2 28 35
f 2 35 36
f 2 36 30
f 2 30 23
f 2 23 16
f 2 16 15
f 2 15 14
f 2 14 13
f 2 13 12
f 2 12 10
f 3 10 12
f 3 12 13
f 3 13 14
f 3 14 15
f 3 15 16
f 3 16 11
f 4 17 18
f 4 18 19
f 5 20 21
f 5 21 6
f 11 16 22
f 16 23 22
f 17 24 18
f 18 25 33
f 18 33 38
f 18 38 37
f 18 37 36
f 18 36 35
f 18 35 34
f 18 34 27
f 18 27 19
f 18 24 26
f 18 26 25
f 20 27 21
f 21 27 28
f 22 23 29
f 22 29 26
f 23 30 37
f 23 37 31
f 23 31 32
f 23 32 29
f 25 26 33
f 26 29 32
f 26 32 31
f 26 31 33
f 27 34 28
f 28 34 35
f 30 36 37
f 31 37 38
f 31 38 33

