# https://github.com/mikedh/trimesh
v -6.63809416 0.30009257 -3.46120270
v -6.63809416 0.30009257 -3.24486063
v -6.63809416 0.35339882 -3.46120270
v -5.65287982 0.30046221 -3.46120270
v -6.63809416 0.30309979 -3.18658086
v -5.65287982 0.30046221 -3.24486063
v -6.63809416 0.38589833 -3.21524834
v -5.65287982 0.38589833 -3.21508553
v -5.65287982 0.35323080 -3.46120270
v -6.63809416 0.31156696 -3.15025783
v -5.65287982 0.30349461 -3.18658086
v -6.63809416 0.38589833 -3.12843134
v -5.65287982 0.38589833 -3.12924582
v -6.63809416 0.34499044 -3.13510961
v -5.65287982 0.31208777 -3.15094188
v -6.63809416 0.34678802 -3.13455580
v -5.65287982 0.34678802 -3.13533763
f 1 2 5
f 1 5 10
f 1 10 14
f 1 14 16
f 1 16 12
f 1 12 7
f 1 7 3
f 1 3 9
f 1 9 4
f 1 4 6
f 1 6 2
f 2 6 5
f 3 7 8
f 3 8 9
f 4 9 8
f 4 8 13
f 4 13 17
f 4 17 15
f 4 15 11
f 4 11 6
f 5 6 11
f 5 11 10
f 7 12 13
f 7 13 8
f 10 11 15
f 10 15 14
f 12 16 17
f 12 17 13
f 14 15 17
f 14 17 16

