# https://github.com/mikedh/trimesh
v -6.66688737 0.28825097 -1.45486529
v -6.58787337 0.28825097 -1.45486529
v -6.66733134 0.28825097 -1.43848924
v -6.66744822 0.46304712 -1.43848924
v -6.66698089 0.46304712 -1.45486529
v -6.58804477 0.46304712 -1.45486529
v -6.60203423 0.28826808 -1.09120996
v -6.60298451 0.28825097 -1.14710213
v -6.66732361 0.28825097 -1.14710213
v -6.66732361 0.28852475 -1.09120996
v -6.66744040 0.46095969 -1.09120996
v -6.66744040 0.46304712 -1.09120996
v -6.60225226 0.46304712 -1.09120996
v -6.66470644 0.28825097 -1.09120996
f 1 2 8
f 1 8 14
f 1 14 9
f 1 9 3
f 1 3 4
f 1 4 5
f 1 5 6
f 1 6 2
f 2 6 7
f 2 7 8
f 3 9 10
f 3 10 11
f 3 11 4
f 4 11 12
f 4 12 13
f 4 13 6
f 4 6 5
f 6 13 7
f 7 13 12
f 7 12 11
f 7 11 10
f 7 10 14
f 7 14 8
f 9 14 10

