# https://github.com/mikedh/trimesh
v -3.81805825 0.17199995 -2.52565330
v -3.81804791 2.03218390 -2.53203869
v -3.79320847 0.17199995 -2.52565330
v -3.82658020 0.17199995 -2.48712050
v -3.79321368 2.03218390 -2.53203869
v -3.82653905 2.03218390 -2.48712050
v -3.77561839 0.17199995 -2.48712050
v -3.82706967 0.17199995 -2.42899104
v -3.79191521 2.03218390 -2.52917630
v -3.82700272 2.03218390 -2.42899104
v -3.77562864 2.03218390 -2.48712050
v -3.77557202 2.03218390 -2.48293698
v -3.77484560 0.17199995 -2.42899104
v -3.82732218 0.17199995 -0.28260475
v -3.82726548 2.03218390 -0.28260475
v -3.77485584 2.03218390 -2.42899104
v -3.77468583 0.17199995 -0.28260475
v -3.77469607 2.03218390 -0.28260475
f 1 2 5
f 1 5 3
f 1 3 7
f 1 7 13
f 1 13 17
f 1 17 14
f 1 14 8
f 1 8 4
f 1 4 2
f 2 4 6
f 2 6 10
f 2 10 15
f 2 15 18
f 2 18 16
f 2 16 12
f 2 12 11
f 2 11 9
f 2 9 5
f 3 5 7
f 4 8 6
f 5 9 7
f 6 8 10
f 7 9 11
f 7 11 12
f 7 12 13
f 8 14 15
f 8 15 10
f 12 16 13
f 13 16 18
f 13 18 17
f 14 17 18
f 14 18 15

