# https://github.com/mikedh/trimesh
v -5.00459201 2.04327832 -0.33172374
v -4.96441932 2.05720438 -0.33172374
v -5.06284937 2.05101497 -0.33172374
v -5.06284937 2.05101497 -0.58146194
v -5.02171754 2.04558281 -0.58146194
v -5.00459201 2.04332764 -0.58146194
v -4.95129715 2.09494980 -0.33172374
v -4.96582327 2.05723729 -0.58146194
v -5.09256883 2.06494112 -0.33172374
v -5.09256883 2.06494112 -0.58146194
v -4.95129715 2.09539429 -0.33172374
v -4.95275672 2.09494980 -0.58146194
v -5.09327777 2.09470285 -0.33172374
v -5.09329167 2.09494980 -0.38956805
v -5.09329167 2.09494980 -0.58146194
v -4.95421626 2.15320577 -0.33172374
v -4.95428577 2.15320577 -0.58146194
v -5.09270785 2.12800373 -0.33172374
v -5.09270785 2.12825067 -0.38956805
v -5.09270785 2.12825067 -0.58146194
v -4.95928998 2.21142884 -0.33172374
v -4.95928998 2.21142884 -0.58146194
v -5.09266615 2.12848112 -0.33172374
v -5.08343615 2.21142884 -0.33172374
v -5.08343615 2.21142884 -0.58146194
f 1 2 7
f 1 7 11
f 1 11 16
f 1 16 21
f 1 21 24
f 1 24 23
f 1 23 18
f 1 18 13
f 1 13 9
f 1 9 3
f 1 3 4
f 1 4 5
f 1 5 6
f 1 6 2
f 2 6 8
f 2 8 7
f 3 9 10
f 3 10 4
f 4 10 15
f 4 15 20
f 4 20 25
f 4 25 22
f 4 22 17
f 4 17 12
f 4 12 8
f 4 8 6
f 4 6 5
f 7 8 12
f 7 12 11
f 9 13 14
f 9 14 15
f 9 15 10
f 11 12 17
f 11 17 16
f 13 18 14
f 14 18 19
f 14 19 20
f 14 20 15
f 16 17 22
f 16 22 21
f 18 23 19
f 19 23 24
f 19 24 25
f 19 25 20
f 21 22 25
f 21 25 24

