# https://github.com/mikedh/trimesh
v -5.82976864 1.01199627 -3.66798935
v -5.79239169 1.01199627 -3.66798935
v -5.82976864 1.01199627 -3.64884760
v -5.82976864 1.18569034 -3.66798935
v -5.82976864 1.05125938 -3.63262094
v -5.82256335 1.01199627 -3.65215743
v -5.75396105 1.22867760 -3.66798935
v -5.82835876 1.01199627 -3.64949154
v -5.82976864 1.18569034 -3.66382441
v -5.82976121 1.21861178 -3.66798935
v -5.82976864 1.09886458 -3.63345869
v -5.75396105 1.22899681 -3.66795480
v -5.75397590 1.22940115 -3.66795480
v -5.75428753 1.22940115 -3.66798935
f 1 2 6
f 1 6 8
f 1 8 3
f 1 3 5
f 1 5 11
f 1 11 9
f 1 9 4
f 1 4 10
f 1 10 14
f 1 14 7
f 1 7 2
f 2 5 6
f 2 7 5
f 3 8 5
f 4 9 10
f 5 8 6
f 5 7 12
f 5 12 13
f 5 13 11
f 7 14 13
f 7 13 12
f 9 11 10
f 10 13 14
f 10 11 13

