# https://github.com/mikedh/trimesh
v -6.63653146 0.81305589 -0.87402267
v -6.63653146 0.75510704 -0.87402267
v -6.63653146 2.44448582 -0.87403396
v -6.69445462 2.44448582 -0.87403396
v -6.69445462 0.75510704 -0.87403396
v -6.63653146 0.75510704 -0.87467468
v -6.63653146 2.49203786 -0.87944067
v -6.69445462 2.49203786 -0.87944067
v -6.71594159 2.48931084 -0.88024994
v -6.71594159 2.44448582 -0.87606850
v -6.71594159 0.75510704 -0.87606850
v -6.66783687 0.75510704 -0.93493507
v -6.63653146 0.75544794 -0.92558292
v -6.63653146 2.49203786 -0.90509146
v -6.69018678 2.49629884 -0.91632073
v -6.71594159 2.49544668 -0.91348812
v -6.71594159 0.75510704 -0.98884454
v -6.69698114 0.75510704 -0.97157912
v -6.63653146 2.38687787 -0.92558292
v -6.63653146 2.44448582 -0.92542558
v -6.71594159 2.44448582 -0.98824879
v -6.70676849 2.48675436 -0.96156384
v -6.71594159 2.48794742 -0.96502588
v -6.71594159 2.38619607 -0.98884454
v -6.71594159 2.42113571 -0.98867591
f 1 2 6
f 1 6 13
f 1 13 19
f 1 19 20
f 1 20 14
f 1 14 7
f 1 7 3
f 1 3 4
f 1 4 5
f 1 5 2
f 2 5 11
f 2 11 17
f 2 17 18
f 2 18 12
f 2 12 6
f 3 7 8
f 3 8 4
f 4 8 9
f 4 9 10
f 4 10 11
f 4 11 5
f 6 12 13
f 7 14 15
f 7 15 8
f 8 15 16
f 8 16 9
f 9 16 23
f 9 23 21
f 9 21 25
f 9 25 24
f 9 24 17
f 9 17 11
f 9 11 10
f 12 18 13
f 13 18 17
f 13 17 24
f 13 24 19
f 14 20 21
f 14 21 22
f 14 22 23
f 14 23 15
f 15 23 16
f 19 24 20
f 20 24 25
f 20 25 21
f 21 23 22

