# https://github.com/mikedh/trimesh
v -6.30654617 0.17202565 0.55681093
v -6.30654617 0.11394881 0.55681093
v -6.30654617 2.38605158 0.55679235
v -6.34482707 2.38605158 0.55148315
v -6.34482707 0.11394881 0.55148315
v -6.34482707 0.05562693 0.55113165
v -6.30654617 0.05562693 0.55644103
v -6.30654617 2.42452447 0.55657041
v -6.34482707 2.44437346 0.55113165
v -6.37805266 2.44437346 0.52534384
v -6.37805266 0.05562693 0.52534384
v -6.37669080 0.01641893 0.52144044
v -6.34482707 0.00637187 0.53220698
v -6.30654617 0.03871847 0.54996621
v -6.30654617 2.44437346 0.55644103
v -6.34482707 2.49362852 0.53220698
v -6.37669080 2.48358146 0.52144044
v -6.38215309 2.44437346 0.48451618
v -6.38215309 0.05562693 0.48451618
v -6.37805266 0.01151792 0.48451618
v -6.34482707 -0.00171480 0.48451618
v -6.30654617 0.00514659 0.53487096
v -6.30654617 2.49485380 0.53487096
v -6.34482707 2.50171519 0.48451618
v -6.37805266 2.48848247 0.48451618
v -6.38215309 2.44437346 0.36782328
v -6.38215309 0.05562693 0.36798982
v -6.38213833 0.05538189 0.36782328
v -6.37805266 0.01151792 0.36782328
v -6.35131822 0.01151792 0.36782328
v -6.30654617 0.00563676 0.48695805
v -6.30654617 0.00245109 0.51851770
v -6.30654617 2.49436363 0.48695805
v -6.37805266 2.48848247 0.36798982
v -6.35134783 2.48848247 0.36782328
v -6.37806751 2.48823744 0.36782328
v -6.38215309 0.11370377 0.36782328
v -6.32872119 0.05562693 0.36782328
v -6.30654617 0.01004760 0.47099327
v -6.30654617 2.48088588 0.46533240
v -6.32873604 2.44437346 0.36782328
v -6.30654617 0.31881050 0.36782328
v -6.30654617 0.01911451 0.46533240
v -6.30654617 2.46544773 0.45952375
v -6.30654617 2.44437346 0.45660084
v -6.30654617 0.86037084 0.36782328
f 1 2 7
f 1 7 14
f 1 14 22
f 1 22 32
f 1 32 31
f 1 31 39
f 1 39 43
f 1 43 42
f 1 42 46
f 1 46 45
f 1 45 44
f 1 44 40
f 1 40 33
f 1 33 23
f 1 23 15
f 1 15 8
f 1 8 3
f 1 3 4
f 1 4 5
f 1 5 2
f 2 5 6
f 2 6 7
f 3 8 4
f 4 8 9
f 4 9 10
f 4 10 11
f 4 11 5
f 5 11 6
f 6 11 12
f 6 12 13
f 6 13 14
f 6 14 7
f 8 15 9
f 9 15 16
f 9 16 17
f 9 17 10
f 10 17 18
f 10 18 19
f 10 19 11
f 11 19 12
f 12 20 21
f 12 21 13
f 12 19 20
f 13 21 22
f 13 22 14
f 15 23 16
f 16 23 24
f 16 24 17
f 17 24 25
f 17 25 18
f 18 25 34
f 18 34 26
f 18 26 37
f 18 37 27
f 18 27 19
f 19 27 28
f 19 28 20
f 20 28 29
f 20 29 21
f 21 29 30
f 21 30 31
f 21 31 32
f 21 32 22
f 23 33 24
f 24 34 25
f 24 33 35
f 24 35 34
f 26 34 36
f 26 36 35
f 26 35 41
f 26 41 46
f 26 46 42
f 26 42 38
f 26 38 30
f 26 30 29
f 26 29 28
f 26 28 37
f 27 37 28
f 30 38 39
f 30 39 31
f 33 40 35
f 34 35 36
f 35 40 41
f 38 42 43
f 38 43 39
f 40 44 41
f 41 44 45
f 41 45 46

