# https://github.com/mikedh/trimesh
v -3.78894159 2.09028471 -3.29870393
v -3.77485879 2.09028471 -3.36148476
v -3.82020367 2.09028471 -3.29870393
v -3.79244175 0.17255827 -3.31195975
v -3.77485879 0.17255827 -3.36148476
v -3.77485879 2.09028471 -4.17708335
v -3.82699977 2.09028471 -3.36148476
v -3.82700489 1.97615223 -3.36148476
v -3.82705595 0.17255827 -3.36148476
v -3.81853790 0.17255827 -3.31195975
v -3.77485879 0.17255827 -4.17708335
v -3.78874744 2.09028471 -4.23848340
v -3.82699977 2.09028471 -4.17708335
v -3.82700489 1.97615223 -4.17708335
v -3.82705595 0.17255827 -4.17708335
v -3.79270242 0.17255827 -4.21823142
v -3.78897233 2.09028471 -4.23912768
v -3.82018839 2.09028471 -4.23912768
v -3.81861449 0.17255827 -4.21786326
v -3.81853790 0.17255827 -4.21823142
f 1 2 6
f 1 6 12
f 1 12 17
f 1 17 18
f 1 18 13
f 1 13 7
f 1 7 3
f 1 3 10
f 1 10 4
f 1 4 5
f 1 5 2
f 2 5 11
f 2 11 6
f 3 7 8
f 3 8 9
f 3 9 10
f 4 10 9
f 4 9 15
f 4 15 19
f 4 19 20
f 4 20 16
f 4 16 11
f 4 11 5
f 6 11 12
f 7 13 14
f 7 14 8
f 8 14 15
f 8 15 9
f 11 16 17
f 11 17 12
f 13 18 14
f 14 18 15
f 15 18 19
f 16 20 18
f 16 18 17
f 18 20 19

