# https://github.com/mikedh/trimesh
v -6.69500191 0.36744107 -3.25405761
v -6.69445218 0.36744107 -3.25401081
v -6.73275818 0.36744107 -3.24137410
v -6.73338250 0.46352512 -3.18862756
v -6.69463852 0.46352512 -3.19365881
v -6.63819055 0.46352512 -3.19047619
v -6.64537470 0.36744107 -3.24525875
v -6.73338250 0.36744107 -3.24116353
v -6.73338250 0.46352512 -3.01501318
v -6.63819055 0.36744107 -3.24324618
v -6.63819055 0.46352512 -3.12560776
v -6.73338250 0.36744107 -3.01498974
v -6.63819055 0.36744107 -3.13134105
v -6.63819055 0.40507152 -3.12560776
v -6.63819055 0.40274835 -3.12581842
f 1 2 7
f 1 7 10
f 1 10 13
f 1 13 12
f 1 12 8
f 1 8 3
f 1 3 4
f 1 4 5
f 1 5 6
f 1 6 2
f 2 6 7
f 3 8 4
f 4 8 12
f 4 12 9
f 4 9 11
f 4 11 6
f 4 6 5
f 6 10 7
f 6 11 14
f 6 14 15
f 6 15 13
f 6 13 10
f 9 12 11
f 11 12 14
f 12 13 15
f 12 15 14

