# https://github.com/mikedh/trimesh
v -3.82351150 -0.00218369 -2.42898235
v -3.83700515 0.05543642 -2.42898235
v -3.82304418 -0.00179200 -2.48724814
v -3.78941360 -0.00218369 -2.42898235
v -3.82351150 -0.00218369 -0.28260475
v -3.83205100 0.11370386 -2.42898235
v -3.82657612 0.17180093 -2.48724814
v -3.83132995 0.11370386 -2.48724814
v -3.83607041 0.05543642 -2.48724814
v -3.83700515 0.05543642 -0.28260475
v -3.83299242 0.10409764 -0.28260475
v -3.82813179 0.16236508 -0.28260475
v -3.81839055 0.00783124 -2.52462609
v -3.78990108 -0.00179200 -2.48724814
v -3.76880267 0.05543642 -2.42898235
v -3.78941360 -0.00218369 -0.28260475
v -3.82707019 0.17180093 -2.42898235
v -3.81805668 0.17180093 -2.52550560
v -3.82031343 0.11370386 -2.52704468
v -3.82257677 0.05543642 -2.52858376
v -3.82731723 0.17180093 -0.28260475
v -3.79693822 0.00783124 -2.52462609
v -3.76977743 0.05543642 -2.48724814
v -3.77270191 0.11370386 -2.48724814
v -3.77561961 0.17180093 -2.48724814
v -3.77182717 0.11370386 -2.42898235
v -3.77469156 0.17180093 -0.28260475
v -3.77174711 0.11370386 -0.28260475
v -3.76880267 0.05543642 -0.28260475
v -3.79320604 0.17180093 -2.52550560
v -3.79180389 0.11370386 -2.52704468
v -3.79038837 0.05543642 -2.52858376
v -3.77485167 0.17180093 -2.42898235
f 1 2 3
f 1 3 14
f 1 14 4
f 1 4 16
f 1 16 5
f 1 5 10
f 1 10 2
f 2 6 7
f 2 7 8
f 2 8 9
f 2 9 3
f 2 10 11
f 2 11 12
f 2 12 6
f 3 13 22
f 3 22 14
f 3 9 13
f 4 14 15
f 4 15 29
f 4 29 16
f 5 16 29
f 5 29 28
f 5 28 27
f 5 27 21
f 5 21 12
f 5 12 11
f 5 11 10
f 6 17 7
f 6 12 17
f 7 18 8
f 7 17 21
f 7 21 27
f 7 27 33
f 7 33 25
f 7 25 30
f 7 30 18
f 8 18 9
f 9 18 19
f 9 19 20
f 9 20 13
f 12 21 17
f 13 20 32
f 13 32 22
f 14 22 23
f 14 23 15
f 15 23 24
f 15 24 25
f 15 25 26
f 15 26 27
f 15 27 28
f 15 28 29
f 18 30 31
f 18 31 19
f 19 31 32
f 19 32 20
f 22 32 23
f 23 32 30
f 23 30 24
f 24 30 25
f 25 33 26
f 26 33 27
f 30 32 31

