# https://github.com/mikedh/trimesh
v -5.59320420 0.42983689 -3.74327318
v -5.58735252 0.36411361 -3.66799665
v -5.58735252 0.42979287 -3.74327318
v -6.63608394 0.42983689 -3.74327318
v -5.56511627 0.35622856 -3.66799665
v -5.52907019 0.42741413 -3.74327318
v -5.53492183 0.42851541 -3.74327318
v -6.63819055 0.36402556 -3.66799665
v -6.63795645 0.42979287 -3.74327318
v -5.53281521 0.34310160 -3.66799665
v -5.47780976 0.40789978 -3.74327318
v -6.63819055 0.40358288 -3.71668496
v -6.63819055 0.24720371 -3.66799665
v -6.63819055 0.40402338 -3.74327318
v -5.51970753 0.31072452 -3.66799665
v -5.46797904 0.39798844 -3.74327318
v -5.47195813 0.40384711 -3.74327318
v -6.63819055 0.05545205 -3.68222654
v -5.58548000 -0.00022773 -3.66799665
v -6.63819055 -0.01278213 -3.74327318
v -5.51186633 0.28847899 -3.66799665
v -5.44843452 0.34675771 -3.74327318
v -6.63819055 0.05324949 -3.68311829
v -5.55095533 -0.00313510 -3.66799665
v -5.61965362 -0.02013855 -3.74327318
v -5.58735252 -0.01564547 -3.71101072
v -6.63819055 0.00078541 -3.71095914
v -5.51198338 0.11373077 -3.66799665
v -5.44269993 0.05545205 -3.74327318
v -5.44609386 0.28847899 -3.74327318
v -5.44738126 0.34094307 -3.74327318
v -5.52778283 -0.01238566 -3.74327318
v -5.53480478 0.00047707 -3.66799665
v -5.58735252 -0.02013855 -3.74327318
v -5.51221743 0.08095722 -3.66799665
v -5.48202298 0.01404462 -3.72612489
v -5.47488394 0.00739300 -3.74327318
v -5.51268558 0.05545205 -3.66799665
v -5.52450591 0.02422027 -3.66799665
f 1 2 3
f 1 3 7
f 1 7 6
f 1 6 11
f 1 11 17
f 1 17 16
f 1 16 22
f 1 22 31
f 1 31 30
f 1 30 29
f 1 29 37
f 1 37 32
f 1 32 34
f 1 34 25
f 1 25 20
f 1 20 14
f 1 14 9
f 1 9 4
f 1 4 2
f 2 5 6
f 2 6 7
f 2 7 3
f 2 4 8
f 2 8 13
f 2 13 19
f 2 19 24
f 2 24 33
f 2 33 39
f 2 39 38
f 2 38 35
f 2 35 28
f 2 28 21
f 2 21 15
f 2 15 10
f 2 10 5
f 4 9 8
f 5 10 11
f 5 11 6
f 8 9 12
f 8 12 14
f 8 14 20
f 8 20 27
f 8 27 23
f 8 23 18
f 8 18 13
f 9 14 12
f 10 15 16
f 10 16 17
f 10 17 11
f 13 18 19
f 15 21 22
f 15 22 16
f 18 23 19
f 19 23 24
f 20 25 26
f 20 26 24
f 20 24 27
f 21 28 29
f 21 29 30
f 21 30 31
f 21 31 22
f 23 27 24
f 24 26 32
f 24 32 33
f 25 34 26
f 26 34 32
f 28 35 29
f 29 36 37
f 29 35 38
f 29 38 39
f 29 39 33
f 29 33 36
f 32 37 33
f 33 37 36

