# https://github.com/mikedh/trimesh
v -6.65546786 1.02540076 -1.21396767
v -6.65546786 0.98925265 -1.21554843
v -6.57838733 1.00400170 -1.22488096
v -6.57838733 1.04562248 -1.22318410
v -6.57838733 1.04606236 -1.22318410
v -6.65546786 1.04857228 -1.21732561
v -6.65546786 0.97173492 -1.21761145
v -6.65546786 0.94778715 -1.22934634
v -6.57838733 1.00392407 -1.22519355
v -6.57838733 1.07659547 -1.23276679
v -6.61374706 1.07697067 -1.23231127
v -6.65546786 1.05929769 -1.26376508
v -6.65546786 0.94481144 -1.24210826
v -6.57838733 0.99974517 -1.26387223
v -6.57838733 1.07659547 -1.24260832
v -6.61374706 1.07697067 -1.24473386
v -6.65546786 1.03255534 -1.30448889
v -6.65546786 0.94481144 -1.25378957
v -6.57838733 1.01245007 -1.29531709
v -6.57838733 1.05791334 -1.27164196
v -6.57838733 1.02876458 -1.29531709
v -6.65546786 0.99671774 -1.30519439
v -6.65546786 0.97000127 -1.27876863
f 1 2 3
f 1 3 4
f 1 4 5
f 1 5 6
f 1 6 12
f 1 12 17
f 1 17 22
f 1 22 23
f 1 23 18
f 1 18 13
f 1 13 8
f 1 8 7
f 1 7 2
f 2 7 3
f 3 7 8
f 3 8 9
f 3 9 14
f 3 14 19
f 3 19 21
f 3 21 20
f 3 20 15
f 3 15 10
f 3 10 5
f 3 5 4
f 5 10 6
f 6 10 11
f 6 11 12
f 8 13 9
f 9 13 14
f 10 15 16
f 10 16 11
f 11 16 12
f 12 16 17
f 13 18 14
f 14 18 19
f 15 20 16
f 16 20 17
f 17 20 21
f 17 21 22
f 18 23 19
f 19 23 22
f 19 22 21

