# https://github.com/mikedh/trimesh
v -6.57771682 0.87335857 -3.46122120
v -6.57771682 0.87460520 -3.46122120
v -6.56120223 0.76883778 -3.46122120
v -6.57771682 0.76883778 -3.46109382
v -6.57771682 0.85822220 -3.31682585
v -6.37469325 0.86946280 -3.46122120
v -6.57771682 0.76847417 -3.31667016
v -6.37469325 0.76883778 -3.46122120
v -6.57771682 0.76976236 -3.31667016
v -6.56434221 0.85652887 -3.31667016
v -6.37469325 0.85149031 -3.31667016
v -6.37469325 0.76847417 -3.31667016
f 1 2 6
f 1 6 8
f 1 8 3
f 1 3 4
f 1 4 7
f 1 7 9
f 1 9 5
f 1 5 2
f 2 5 6
f 3 7 4
f 3 8 12
f 3 12 7
f 5 9 10
f 5 10 11
f 5 11 6
f 6 11 12
f 6 12 8
f 7 12 11
f 7 11 10
f 7 10 9

