# https://github.com/mikedh/trimesh
v -6.73338250 0.00555852 -3.96857154
v -6.71955924 0.01125708 -3.94494582
v -6.73338250 0.00555852 -3.94494582
v -6.73338250 0.00557450 -4.84882721
v -6.71939148 0.01133687 -4.84882721
v -6.71939148 0.01133687 -4.00237300
v -6.71932193 0.01191152 -3.94494582
v -6.73338250 0.16861214 -3.94494582
v -6.73338250 0.16861214 -4.84882721
v -6.71518694 0.05544033 -4.84882721
v -6.71515837 0.05544033 -3.94494582
v -6.71937724 0.10905726 -3.94494582
v -6.71939148 0.10905726 -4.84882721
v -6.71739897 0.08366149 -4.84882721
f 1 2 3
f 1 3 8
f 1 8 9
f 1 9 4
f 1 4 5
f 1 5 2
f 2 6 7
f 2 7 11
f 2 11 12
f 2 12 8
f 2 8 3
f 2 5 6
f 4 9 13
f 4 13 14
f 4 14 10
f 4 10 5
f 5 10 11
f 5 11 7
f 5 7 6
f 8 12 9
f 9 12 13
f 10 14 11
f 11 14 13
f 11 13 12

