# https://github.com/mikedh/trimesh
v -6.22847246 0.49652799 -0.94206556
v -6.22847246 0.49652799 -0.81328462
v -6.22847246 0.66788493 -0.94206556
v -5.32646228 0.49652799 -0.94206556
v -5.21650938 0.49652799 -0.81376367
v -5.21650938 0.75485102 -0.81375108
v -6.22847246 1.80319886 -0.81327203
v -5.22195747 0.69958099 -0.94206556
v -6.22847246 2.44445022 -0.93811951
v -5.32576889 0.49652799 -0.94186385
v -5.21650938 0.56051439 -0.94206556
v -5.21650938 0.49652799 -0.87863957
v -5.21650938 2.09480288 -0.81375108
v -6.22847246 2.44425216 -0.81327203
v -5.21650938 0.69958099 -0.94206556
v -6.22847246 2.49991840 -0.91146825
v -6.22827440 2.44445022 -0.93811951
v -5.23265559 0.49652799 -0.89023804
v -5.21650938 2.44445022 -0.81383939
v -5.21650938 2.49397533 -0.82021853
v -6.22847246 2.49397533 -0.81991592
v -5.21650938 2.44445022 -0.93810692
v -6.22847246 2.52032268 -0.85573255
v -5.21650938 2.49991840 -0.91146825
v -5.21650938 2.52012461 -0.85573255
f 1 2 7
f 1 7 14
f 1 14 21
f 1 21 23
f 1 23 16
f 1 16 9
f 1 9 3
f 1 3 8
f 1 8 15
f 1 15 11
f 1 11 4
f 1 4 10
f 1 10 18
f 1 18 12
f 1 12 5
f 1 5 2
f 2 5 6
f 2 6 7
f 3 9 8
f 4 11 10
f 5 12 11
f 5 11 15
f 5 15 22
f 5 22 24
f 5 24 25
f 5 25 20
f 5 20 19
f 5 19 13
f 5 13 6
f 6 13 14
f 6 14 7
f 8 9 17
f 8 17 15
f 9 16 24
f 9 24 17
f 10 11 18
f 11 12 18
f 13 19 14
f 14 19 20
f 14 20 21
f 15 17 22
f 16 23 24
f 17 24 22
f 20 25 21
f 21 25 23
f 23 25 24

