# https://github.com/mikedh/trimesh
v -6.73338250 1.85853974 -3.50921008
v -6.68797779 1.75957025 -3.50921008
v -6.68797779 1.86152721 -3.64849211
v -6.73338250 1.86152721 -3.53989960
v -6.73338250 1.10753591 -3.50921008
v -6.68797779 1.19976447 -3.50921008
v -6.68797779 1.86152721 -3.67651235
v -6.73338250 1.86152721 -3.67651235
v -6.73338250 1.07896345 -3.57607528
v -6.68797779 1.07896345 -3.65995574
v -6.68797779 1.07896345 -3.67651235
v -6.73338250 1.07896345 -3.67651235
f 1 2 3
f 1 3 4
f 1 4 8
f 1 8 12
f 1 12 9
f 1 9 5
f 1 5 6
f 1 6 2
f 2 6 10
f 2 10 11
f 2 11 7
f 2 7 3
f 3 7 8
f 3 8 4
f 5 9 10
f 5 10 6
f 7 11 12
f 7 12 8
f 9 12 11
f 9 11 10

