# https://github.com/mikedh/trimesh
v -5.92653649 0.29212538 0.32746798
v -5.94197858 0.29212538 0.32832465
v -5.92653649 0.24327269 0.30316029
v -5.92653649 0.29212538 0.24896741
v -5.99147534 0.29212538 0.32083251
v -6.09432935 0.18964517 0.26521178
v -5.93693526 0.23125517 0.29773421
v -5.92653649 0.23225834 0.29746538
v -5.92653649 0.20863453 0.21012870
v -6.02799417 0.29212538 0.15672546
v -5.99520439 0.29212538 0.32021098
v -5.96105118 0.18964517 0.27278814
v -6.09432935 0.29212538 0.30240434
v -6.09432935 0.18964517 0.15672546
v -5.93693526 0.18964517 0.27367834
v -5.92653649 0.18964517 0.27253616
v -5.92653649 0.18964517 0.20571073
v -6.02810914 0.28851407 0.15672546
v -6.09432935 0.29212538 0.15672546
v -6.09278515 0.18964517 0.15672546
v -6.04903805 0.22633984 0.15672546
f 1 2 3
f 1 3 8
f 1 8 16
f 1 16 17
f 1 17 9
f 1 9 4
f 1 4 10
f 1 10 19
f 1 19 13
f 1 13 11
f 1 11 5
f 1 5 2
f 2 5 6
f 2 6 7
f 2 7 3
f 3 7 8
f 4 9 10
f 5 11 6
f 6 12 7
f 6 11 13
f 6 13 19
f 6 19 14
f 6 14 20
f 6 20 17
f 6 17 16
f 6 16 15
f 6 15 12
f 7 12 15
f 7 15 8
f 8 15 16
f 9 17 10
f 10 17 18
f 10 18 21
f 10 21 20
f 10 20 14
f 10 14 19
f 17 20 21
f 17 21 18

