# https://github.com/mikedh/trimesh
v -6.68797328 0.95736224 -3.50921008
v -6.63819541 0.92017551 -3.50921008
v -6.63819541 0.92111952 -3.53341375
v -6.63819541 0.92080484 -3.53620502
v -6.68797328 0.95306791 -3.53620502
v -6.68797328 0.76883717 -3.50921008
v -6.63819541 0.76883717 -3.50921008
v -6.63819541 0.90866225 -3.56815333
v -6.68797328 0.94910676 -3.54612496
v -6.68797328 0.76828184 -3.64308392
v -6.63819541 0.76828184 -3.64308392
v -6.63819541 0.90766269 -3.57047285
v -6.68797328 0.90086950 -3.64308392
v -6.63819541 0.85407606 -3.64308392
f 1 2 3
f 1 3 4
f 1 4 5
f 1 5 9
f 1 9 13
f 1 13 10
f 1 10 6
f 1 6 7
f 1 7 2
f 2 7 11
f 2 11 14
f 2 14 12
f 2 12 8
f 2 8 4
f 2 4 3
f 4 8 5
f 5 8 9
f 6 10 11
f 6 11 7
f 8 12 9
f 9 12 13
f 10 13 14
f 10 14 11
f 12 14 13

