# https://github.com/mikedh/trimesh
v -6.73338163 2.47888468 -3.86672954
v -6.73091146 2.47723124 -3.86672954
v -6.73338163 2.47826470 -3.86884718
v -6.73338163 0.36764790 -3.86672954
v -6.72361451 2.44436912 -3.86672954
v -6.73338163 2.44436912 -3.93909115
v -6.73338163 0.36744124 -3.87470967
v -6.72293766 0.36744124 -3.86672954
v -6.72293766 2.38608527 -3.86672954
v -6.73338163 2.43858200 -3.93932559
v -6.73338163 0.36744124 -3.93932559
f 1 2 3
f 1 3 6
f 1 6 10
f 1 10 11
f 1 11 7
f 1 7 4
f 1 4 8
f 1 8 9
f 1 9 5
f 1 5 2
f 2 5 6
f 2 6 3
f 4 7 8
f 5 9 6
f 6 9 10
f 7 11 8
f 8 11 10
f 8 10 9

