# https://github.com/mikedh/trimesh
v -6.63652374 0.75510713 -0.87467659
v -6.63652374 0.75510713 -0.87402440
v -6.63652374 0.75544716 -0.92557606
v -6.63640382 0.75510713 -0.92554011
v -6.46154472 0.75510713 -0.87311025
v -6.63652374 2.44451118 -0.87402440
v -6.46154472 0.75544716 -0.92470810
v -6.46180166 0.75510713 -0.92470810
v -6.63652374 2.38619138 -0.92557606
v -6.46154472 0.75510713 -0.89459271
v -6.46154472 2.44434116 -0.87311537
v -6.63652374 2.49194912 -0.87943737
v -6.46154472 2.44451118 -0.92470810
v -6.63652374 2.44451118 -0.92542202
v -6.46154472 2.49194912 -0.87898542
v -6.63652374 2.49211914 -0.90507965
v -6.46154472 2.49194912 -0.90477670
f 1 2 6
f 1 6 12
f 1 12 16
f 1 16 14
f 1 14 9
f 1 9 3
f 1 3 4
f 1 4 8
f 1 8 10
f 1 10 5
f 1 5 2
f 2 5 6
f 3 7 8
f 3 8 4
f 3 9 13
f 3 13 7
f 5 10 7
f 5 7 13
f 5 13 17
f 5 17 15
f 5 15 11
f 5 11 6
f 6 11 12
f 7 10 8
f 9 14 13
f 11 15 12
f 12 15 16
f 13 14 17
f 14 16 17
f 15 17 16

