# https://github.com/mikedh/trimesh
v -6.71594168 0.68789118 -1.53149569
v -6.66728028 0.64199605 -1.53149569
v -6.71594168 0.68789118 -1.55497453
v -6.71594168 0.55783274 -1.53149569
v -6.66728028 0.64199605 -1.55497453
v -6.66728028 0.48537731 -1.53149569
v -6.71594168 0.68347559 -1.60550779
v -6.69833197 0.52699071 -1.53149569
v -6.71594168 0.14959378 -1.56482644
v -6.66728028 0.22064423 -1.53342925
v -6.66728028 0.23027815 -1.53286146
v -6.71594168 0.68220443 -1.61368702
v -6.66728028 0.63804879 -1.57676538
v -6.69178247 0.51802574 -1.53149569
v -6.71594168 0.03679620 -1.57701089
v -6.66728028 0.17200611 -1.53903042
v -6.71594168 0.01150706 -1.57984984
v -6.71594168 0.67203529 -1.64796922
v -6.66728028 0.63082331 -1.61333405
v -6.66728028 0.15548119 -1.54202280
v -6.71594168 0.00789437 -1.58918002
v -6.69445462 0.00889787 -1.57906723
v -6.71594168 0.65711604 -1.66819480
v -6.66728028 0.61496742 -1.62373842
v -6.66728028 0.00889787 -1.57906723
v -6.71594168 0.00501756 -1.61305784
v -6.68999627 0.00441539 -1.61574336
v -6.66728028 0.00628868 -1.60025958
v -6.66728028 0.57984366 -1.63839353
v -6.71594168 0.61476675 -1.68524384
v -6.71594168 0.00575346 -1.64258291
v -6.66728028 0.00628868 -1.61110896
v -6.69681720 0.57984366 -1.67063476
v -6.66728028 0.57910772 -1.63842422
v -6.71594168 0.57984366 -1.68808278
v -6.71594168 0.01184162 -1.66438908
v -6.70643896 0.01311274 -1.66082887
v -6.69713162 0.05546203 -1.67035855
v -6.66728028 0.05546203 -1.63409673
v -6.66728028 0.52157157 -1.64002018
v -6.69639807 0.52157157 -1.67065008
v -6.71594168 0.55676229 -1.68825158
v -6.71594168 0.03117640 -1.67729475
v -6.71594168 0.05546203 -1.68768379
v -6.69639807 0.11373407 -1.67065008
v -6.66728028 0.17200611 -1.63966721
v -6.66728028 0.11373407 -1.63688965
v -6.66728028 0.23027815 -1.64002018
v -6.71594168 0.11373407 -1.68826691
f 1 2 5
f 1 5 3
f 1 3 7
f 1 7 12
f 1 12 18
f 1 18 23
f 1 23 30
f 1 30 35
f 1 35 42
f 1 42 49
f 1 49 44
f 1 44 43
f 1 43 36
f 1 36 31
f 1 31 26
f 1 26 21
f 1 21 17
f 1 17 15
f 1 15 9
f 1 9 4
f 1 4 8
f 1 8 14
f 1 14 6
f 1 6 2
f 2 6 11
f 2 11 10
f 2 10 16
f 2 16 20
f 2 20 25
f 2 25 28
f 2 28 32
f 2 32 39
f 2 39 47
f 2 47 46
f 2 46 48
f 2 48 40
f 2 40 34
f 2 34 29
f 2 29 24
f 2 24 19
f 2 19 13
f 2 13 5
f 3 5 7
f 4 9 10
f 4 10 11
f 4 11 8
f 5 12 7
f 5 13 12
f 6 14 11
f 8 11 14
f 9 15 10
f 10 15 17
f 10 17 16
f 12 13 19
f 12 19 18
f 16 17 20
f 17 21 22
f 17 22 20
f 18 19 23
f 19 24 23
f 20 22 25
f 21 26 27
f 21 27 22
f 22 27 28
f 22 28 25
f 23 24 29
f 23 29 30
f 26 31 27
f 27 31 32
f 27 32 28
f 29 33 30
f 29 34 33
f 30 33 35
f 31 36 32
f 32 36 37
f 32 37 38
f 32 38 39
f 33 34 40
f 33 40 41
f 33 41 42
f 33 42 35
f 36 43 37
f 37 43 44
f 37 44 38
f 38 44 45
f 38 45 46
f 38 46 47
f 38 47 39
f 40 48 45
f 40 45 41
f 41 45 49
f 41 49 42
f 44 49 45
f 45 48 46

