# https://github.com/mikedh/trimesh
v -5.98095018 0.76232067 -3.66798658
v -5.89446770 0.76227591 -3.66798658
v -5.92265887 0.76782316 -3.63847458
v -5.98092058 0.76809155 -3.63847458
v -5.98095018 0.76809155 -3.63849194
v -5.98095018 1.04952465 -3.66798658
v -5.87866291 0.76227591 -3.66798658
v -5.87866291 0.76782316 -3.63847458
v -5.98095018 0.80808537 -3.63847458
v -5.98095018 1.00219414 -3.64893026
v -5.97936673 1.06902945 -3.66798658
v -5.82976864 0.76232067 -3.66798658
v -5.82976864 0.76804684 -3.63847458
v -5.98095018 0.93070629 -3.63847458
v -5.98095018 0.98747604 -3.64649760
v -5.93692462 1.21370512 -3.66798658
v -5.95932957 1.16060369 -3.66798658
v -5.82976864 1.21858132 -3.66798658
v -5.82976864 1.09882351 -3.63847458
v -5.89751621 1.10070242 -3.63847458
v -5.87866291 1.21929709 -3.66798658
v -5.87747901 1.12154931 -3.63847458
v -5.82976864 1.21146833 -3.66618379
v -5.86253255 1.11497315 -3.63847458
f 1 2 3
f 1 3 4
f 1 4 5
f 1 5 9
f 1 9 14
f 1 14 15
f 1 15 10
f 1 10 6
f 1 6 11
f 1 11 17
f 1 17 16
f 1 16 21
f 1 21 18
f 1 18 12
f 1 12 7
f 1 7 2
f 2 7 8
f 2 8 3
f 3 8 13
f 3 13 19
f 3 19 24
f 3 24 22
f 3 22 20
f 3 20 14
f 3 14 9
f 3 9 4
f 4 9 5
f 6 10 11
f 7 12 8
f 8 12 13
f 10 15 16
f 10 16 17
f 10 17 11
f 12 18 23
f 12 23 19
f 12 19 13
f 14 20 15
f 15 20 16
f 16 20 22
f 16 22 21
f 18 21 22
f 18 22 23
f 19 23 24
f 22 24 23

