# https://github.com/mikedh/trimesh
v -5.59651950 0.28016056 -3.21067512
v -5.57435743 0.05551613 -3.21067512
v -5.57435743 0.05551613 -3.18656714
v -5.59651950 0.28087466 -3.18656714
v -5.59651950 0.95909287 -3.21067512
v -5.57100336 0.03358206 -3.21067512
v -5.56626079 0.00256858 -3.18656714
v -5.56355590 0.01052596 -3.14311666
v -5.59651950 0.29576933 -3.13875609
v -5.59651950 0.95654238 -3.20174627
v -5.57524102 1.04009544 -3.18656714
v -5.57560168 1.04009544 -3.19251629
v -5.57561972 1.04009544 -3.21067512
v -5.56626079 0.00256858 -3.21067512
v -5.52902343 0.00267052 -3.13311840
v -5.52725624 -0.00212430 -3.18985839
v -5.52902343 0.05551613 -3.10861586
v -5.56626079 0.05551613 -3.13595283
v -5.59651950 0.34688058 -3.12314089
v -5.59651950 0.95113540 -3.18315129
v -5.59651950 0.94368807 -3.17078584
v -5.56784766 1.04009544 -3.14112328
v -5.52694968 1.04009544 -3.21067512
v -5.54200692 -0.00028799 -3.21067512
v -5.41231638 0.01154614 -3.13469656
v -5.47076007 0.00726137 -3.13249547
v -5.47076007 0.05551613 -3.10735959
v -5.53198079 -0.00028799 -3.21067512
v -5.41231638 0.01154614 -3.16160779
v -5.52902343 0.34688058 -3.10511700
v -5.59651950 0.40513308 -3.11801195
v -5.56647718 1.04009544 -3.13589048
v -5.59651950 0.91308256 -3.14554619
v -5.50965641 1.04009544 -3.21052976
v -5.50796134 0.98776000 -3.21067512
v -5.41231638 0.05551613 -3.11195904
v -5.47076007 0.11376854 -3.10717273
v -5.41249669 0.01154614 -3.16170122
v -5.51017935 0.05551613 -3.21067512
v -5.41231638 0.05531208 -3.16594761
v -5.59651950 0.45420388 -3.11794969
v -5.52902343 0.81290051 -3.10463943
v -5.53302667 1.04009544 -3.11118033
v -5.59651950 0.87003081 -3.13626429
v -5.59651950 0.80371885 -3.12343160
v -5.41249669 1.04009544 -3.16595803
v -5.50513023 0.92940551 -3.21067512
v -5.41231638 0.98776000 -3.11195904
v -5.47076007 1.04009544 -3.10717273
v -5.52902343 0.87115301 -3.10460826
v -5.50835807 0.28852605 -3.21067512
v -5.41231638 0.11356449 -3.16595803
v -5.50428269 0.87115301 -3.21067512
v -5.59651950 0.57978852 -3.11794969
v -5.52902343 1.04009544 -3.10836666
v -5.59651950 0.75464801 -3.11824040
v -5.41231638 1.04009544 -3.16060072
v -5.41231638 0.98755599 -3.16595803
v -5.41249669 1.04009544 -3.11195904
v -5.47672887 1.04009544 -3.10724541
v -5.59651950 0.63814305 -3.11796002
f 1 2 3
f 1 3 4
f 1 4 9
f 1 9 19
f 1 19 31
f 1 31 41
f 1 41 54
f 1 54 61
f 1 61 56
f 1 56 45
f 1 45 44
f 1 44 33
f 1 33 21
f 1 21 20
f 1 20 10
f 1 10 5
f 1 5 13
f 1 13 23
f 1 23 35
f 1 35 47
f 1 47 53
f 1 53 51
f 1 51 39
f 1 39 28
f 1 28 24
f 1 24 14
f 1 14 6
f 1 6 2
f 2 6 3
f 3 6 7
f 3 7 8
f 3 8 9
f 3 9 4
f 5 10 11
f 5 11 12
f 5 12 13
f 6 14 7
f 7 15 8
f 7 14 16
f 7 16 15
f 8 15 17
f 8 17 18
f 8 18 9
f 9 18 19
f 10 20 11
f 11 20 21
f 11 21 22
f 11 22 32
f 11 32 43
f 11 43 55
f 11 55 60
f 11 60 49
f 11 49 59
f 11 59 57
f 11 57 46
f 11 46 34
f 11 34 23
f 11 23 13
f 11 13 12
f 14 24 16
f 15 16 25
f 15 25 26
f 15 26 27
f 15 27 17
f 16 24 28
f 16 28 29
f 16 29 25
f 17 27 30
f 17 30 31
f 17 31 19
f 17 19 18
f 21 32 22
f 21 33 32
f 23 34 35
f 25 29 40
f 25 40 52
f 25 52 58
f 25 58 57
f 25 57 48
f 25 48 36
f 25 36 27
f 25 27 26
f 27 36 37
f 27 37 30
f 28 38 29
f 28 39 38
f 29 38 40
f 30 41 31
f 30 37 42
f 30 42 41
f 32 33 44
f 32 44 45
f 32 45 43
f 34 46 47
f 34 47 35
f 36 48 49
f 36 49 37
f 37 49 50
f 37 50 42
f 38 39 40
f 39 51 40
f 40 51 53
f 40 53 52
f 41 42 50
f 41 50 54
f 43 45 55
f 45 56 55
f 46 57 58
f 46 58 53
f 46 53 47
f 48 57 59
f 48 59 49
f 49 60 50
f 50 60 55
f 50 55 56
f 50 56 61
f 50 61 54
f 52 53 58

