# https://github.com/mikedh/trimesh
v -5.54202943 -0.00032620 -3.21067520
v -5.53201029 -0.00032620 -3.21067520
v -5.56625181 0.00254175 -3.21067520
v -5.57946768 0.00326435 -3.63843272
v -5.56661598 0.00251917 -3.59442166
v -5.53861419 0.00159329 -3.63843272
v -5.51019155 0.05547367 -3.21067520
v -5.57101048 0.03356921 -3.21067520
v -5.59188234 0.05547367 -3.63843272
v -5.52304324 0.04248911 -3.63843272
v -5.50992448 0.11373485 -3.21067520
v -5.51869729 0.05547367 -3.63843272
v -5.51832503 0.09946311 -3.63843272
v -5.57435289 0.05547367 -3.21067520
v -5.59260263 0.22994116 -3.63843272
v -5.57555066 0.23034770 -3.21067520
v -5.50992448 0.23021216 -3.21067520
v -5.51833312 0.22994116 -3.63843272
v -5.57561542 0.23034770 -3.24488737
v -5.57561542 0.23034770 -3.46121590
v -5.50994068 0.23034770 -3.21075891
v -5.52263860 0.23034770 -3.46121590
f 1 2 7
f 1 7 11
f 1 11 17
f 1 17 16
f 1 16 14
f 1 14 8
f 1 8 3
f 1 3 4
f 1 4 5
f 1 5 6
f 1 6 2
f 2 6 7
f 3 8 9
f 3 9 4
f 4 9 15
f 4 15 18
f 4 18 13
f 4 13 12
f 4 12 10
f 4 10 6
f 4 6 5
f 6 10 7
f 7 10 12
f 7 12 13
f 7 13 11
f 8 14 9
f 9 14 16
f 9 16 15
f 11 13 17
f 13 18 17
f 15 16 19
f 15 19 20
f 15 20 22
f 15 22 18
f 16 17 21
f 16 21 22
f 16 22 20
f 16 20 19
f 17 18 21
f 18 22 21

