# https://github.com/mikedh/trimesh
v -6.22074101 0.05543598 0.16537818
v -6.20968020 -0.00848303 0.16537818
v -6.20945748 -0.00838465 0.18878908
v -6.22009768 0.05543598 0.19317926
v -6.20329611 0.21925450 0.18902352
v -6.20353116 0.21925450 0.16537818
v -6.19918848 -0.03196999 0.16537818
v -6.19918848 -0.03196999 0.16644377
v -6.20658710 0.00733074 0.23939358
v -6.20787385 0.05543598 0.24268621
v -6.18211478 0.21925450 0.24526493
v -6.09434576 0.21925450 0.16537818
v -6.19910191 -0.03196999 0.16644377
v -6.17842784 -0.00880274 0.16537818
v -6.09434576 0.01266756 0.21533266
v -6.17001469 0.00251031 0.24963375
v -6.17001469 0.05543598 0.27010367
v -6.17698028 0.21925450 0.25530261
v -6.09434576 0.18578257 0.16537818
v -6.09434576 0.21925450 0.26635274
v -6.09434576 0.01266756 0.25114687
v -6.16427393 0.01938161 0.16537818
v -6.11557659 0.11893691 0.16537818
v -6.09434576 0.04355722 0.20556121
v -6.11175359 0.05543598 0.27423805
v -6.11374549 0.21925450 0.26658718
v -6.10913068 0.21925450 0.26653387
v -6.09434576 0.05543598 0.27336435
f 1 2 3
f 1 3 4
f 1 4 5
f 1 5 6
f 1 6 12
f 1 12 19
f 1 19 23
f 1 23 22
f 1 22 14
f 1 14 7
f 1 7 2
f 2 7 8
f 2 8 3
f 3 9 4
f 3 8 9
f 4 9 10
f 4 10 5
f 5 11 18
f 5 18 26
f 5 26 27
f 5 27 20
f 5 20 12
f 5 12 6
f 5 10 11
f 7 13 8
f 7 14 15
f 7 15 13
f 8 13 16
f 8 16 9
f 9 16 17
f 9 17 10
f 10 17 18
f 10 18 11
f 12 20 28
f 12 28 21
f 12 21 15
f 12 15 24
f 12 24 19
f 13 15 21
f 13 21 16
f 14 22 15
f 15 22 23
f 15 23 24
f 16 21 25
f 16 25 17
f 17 25 26
f 17 26 18
f 19 24 23
f 20 27 25
f 20 25 28
f 21 28 25
f 25 27 26

