# https://github.com/mikedh/trimesh
v -5.86631960 0.18964525 0.15128201
v -5.92652008 0.18964525 0.20572601
v -5.92652008 0.34938627 0.21831809
v -5.81733841 0.34938627 0.15128201
v -5.78081497 0.18964525 0.15128201
v -5.92652008 0.18964525 0.27251341
v -5.92652008 0.34938627 0.34676412
v -5.67843288 0.34938627 0.15128201
v -5.72809405 0.25345721 0.15128201
v -5.78074212 0.18964525 0.17686785
v -5.90811265 0.18964525 0.27052324
v -5.87863165 0.23686707 0.29626208
v -5.92652008 0.23226997 0.29746764
v -5.92652008 0.34169320 0.34563496
v -5.92069188 0.34938627 0.34663005
v -5.67850573 0.34938627 0.15413337
v -5.67925856 0.34743170 0.15128201
v -5.72831260 0.25366048 0.18226441
v -5.71481057 0.27645834 0.15128201
v -5.78137351 0.18964525 0.18308722
v -5.87863165 0.18964525 0.26637045
v -5.88263856 0.29393971 0.32598143
v -5.82037394 0.24871944 0.28912403
v -5.82037394 0.28851389 0.31000224
v -5.92652008 0.24329362 0.30313216
v -5.92652008 0.31751941 0.33922422
v -5.92613151 0.31698774 0.33909015
v -5.90473718 0.31698774 0.33909015
v -5.88263856 0.34371029 0.34485036
v -5.88227431 0.34938627 0.34567317
v -5.70126001 0.30615173 0.17066741
v -5.69166777 0.32246045 0.15128201
v -5.68197837 0.34938627 0.19481811
v -5.70346986 0.30615173 0.19772695
v -5.71490774 0.28297867 0.19828180
v -5.73343655 0.25989938 0.22111197
v -5.78640034 0.18964525 0.19895162
v -5.85357040 0.18964525 0.25682128
v -5.87540188 0.30615173 0.33001942
v -5.89439212 0.30615173 0.33294720
v -5.78853734 0.25695980 0.28267509
v -5.81918401 0.30615173 0.31691070
v -5.84341962 0.34938627 0.34071685
v -5.86590677 0.32224155 0.33530119
v -5.77663813 0.28851389 0.29109510
v -5.92652008 0.30355609 0.33334922
v -5.92229461 0.30615173 0.33445910
v -5.92652008 0.31647170 0.33886057
v -5.92652008 0.30615173 0.33445910
v -5.86668386 0.34938627 0.34425713
v -5.68297402 0.34938627 0.19747810
v -5.68324116 0.34719717 0.19671259
v -5.73564640 0.32288262 0.27771859
v -5.73950761 0.30615173 0.26841810
v -5.74487439 0.28297867 0.25553913
v -5.80823182 0.18964525 0.22742720
v -5.79601689 0.18964525 0.21171580
v -5.71568483 0.30615173 0.23244101
v -5.72156157 0.29874009 0.23889013
v -5.82418652 0.18964525 0.24378914
v -5.75558375 0.30615173 0.28422502
v -5.81673129 0.34371029 0.33158864
v -5.82226808 0.34938627 0.33532029
v -5.77068851 0.30615173 0.29465466
v -5.70835099 0.34938627 0.25220933
v -5.71143510 0.34410120 0.25553913
v -5.71988599 0.30615173 0.24164580
v -5.71612194 0.34938627 0.26480124
v -5.72984248 0.34938627 0.28367017
v -5.75789072 0.34410120 0.30227097
v -5.81478857 0.34938627 0.33212438
v -5.71009946 0.34938627 0.25519459
v -5.74868701 0.34938627 0.29752512
v -5.75827925 0.34938627 0.30355329
f 1 2 3
f 1 3 4
f 1 4 8
f 1 8 17
f 1 17 32
f 1 32 19
f 1 19 9
f 1 9 5
f 1 5 10
f 1 10 20
f 1 20 37
f 1 37 57
f 1 57 56
f 1 56 60
f 1 60 38
f 1 38 21
f 1 21 11
f 1 11 6
f 1 6 2
f 2 6 13
f 2 13 25
f 2 25 46
f 2 46 49
f 2 49 48
f 2 48 26
f 2 26 14
f 2 14 7
f 2 7 3
f 3 7 15
f 3 15 30
f 3 30 50
f 3 50 43
f 3 43 63
f 3 63 71
f 3 71 74
f 3 74 73
f 3 73 69
f 3 69 68
f 3 68 72
f 3 72 65
f 3 65 51
f 3 51 33
f 3 33 16
f 3 16 8
f 3 8 4
f 5 9 10
f 6 11 12
f 6 12 13
f 7 14 15
f 8 16 17
f 9 18 10
f 9 19 18
f 10 18 20
f 11 21 12
f 12 22 13
f 12 21 23
f 12 23 24
f 12 24 22
f 13 22 25
f 14 26 27
f 14 27 28
f 14 28 29
f 14 29 15
f 15 29 30
f 16 31 32
f 16 32 17
f 16 33 34
f 16 34 35
f 16 35 31
f 18 36 20
f 18 19 32
f 18 32 31
f 18 31 35
f 18 35 36
f 20 36 37
f 21 38 23
f 22 24 39
f 22 39 40
f 22 40 25
f 23 38 41
f 23 41 24
f 24 42 43
f 24 43 44
f 24 44 39
f 24 41 45
f 24 45 42
f 25 40 28
f 25 28 47
f 25 47 46
f 26 48 27
f 27 48 49
f 27 49 47
f 27 47 28
f 28 40 39
f 28 39 44
f 28 44 29
f 29 44 43
f 29 43 50
f 29 50 30
f 33 51 52
f 33 52 34
f 34 52 36
f 34 36 35
f 36 53 54
f 36 54 55
f 36 55 41
f 36 41 56
f 36 56 57
f 36 57 37
f 36 52 58
f 36 58 59
f 36 59 53
f 38 60 41
f 41 55 54
f 41 54 53
f 41 53 61
f 41 61 45
f 41 60 56
f 42 62 63
f 42 63 43
f 42 45 62
f 45 61 64
f 45 64 62
f 46 47 49
f 51 65 52
f 52 65 66
f 52 66 67
f 52 67 58
f 53 59 67
f 53 67 66
f 53 66 68
f 53 68 69
f 53 69 70
f 53 70 64
f 53 64 61
f 58 67 59
f 62 64 70
f 62 70 71
f 62 71 63
f 65 72 66
f 66 72 68
f 69 73 70
f 70 73 74
f 70 74 71

