# https://github.com/mikedh/trimesh
v -6.63800620 0.91886938 -3.25126816
v -6.63819055 0.91886938 -3.25201725
v -6.63819055 0.89485036 -3.25126816
v -6.40310171 0.87835652 -3.25126816
v -6.40275604 0.87835652 -3.25128101
v -6.63819055 0.90281345 -3.31666383
v -6.63819055 0.75320136 -3.25126816
v -6.40275604 0.87752941 -3.25126816
v -6.40275604 0.85136962 -3.31666383
v -6.63819055 0.76847882 -3.31666383
v -6.40275604 0.75320136 -3.25126816
v -6.40275604 0.77058717 -3.31666383
v -6.40310171 0.76847882 -3.31666383
v -6.40275604 0.76847882 -3.31658698
f 1 2 3
f 1 3 7
f 1 7 11
f 1 11 8
f 1 8 4
f 1 4 5
f 1 5 2
f 2 6 10
f 2 10 7
f 2 7 3
f 2 5 6
f 4 8 5
f 5 8 11
f 5 11 14
f 5 14 12
f 5 12 9
f 5 9 6
f 6 9 12
f 6 12 13
f 6 13 10
f 7 10 13
f 7 13 11
f 11 13 14
f 12 14 13

