# https://github.com/mikedh/trimesh
v -6.69445844 0.42369081 -3.73561901
v -6.71384714 0.41580836 -3.73561901
v -6.68797779 0.42341642 -3.73561901
v -6.69445844 0.62224856 -3.74736188
v -6.73338250 0.40595529 -3.73561901
v -6.68797779 0.36746599 -3.73561901
v -6.68797779 0.62224856 -3.74790093
v -6.71033560 0.62224856 -3.75026239
v -6.73338250 0.36751592 -3.73561901
v -6.73338250 0.62224856 -3.75448464
v -6.73301346 0.36746599 -3.73561901
v -6.68797779 0.36746599 -3.82951145
v -6.68797779 0.62224856 -3.82951145
v -6.73338250 0.36746599 -3.73615789
v -6.73338250 0.62224856 -3.86671686
v -6.72293697 0.36746599 -3.86671686
v -6.72293697 0.62224856 -3.86671686
v -6.73338250 0.36759076 -3.86671686
f 1 2 5
f 1 5 9
f 1 9 11
f 1 11 6
f 1 6 3
f 1 3 4
f 1 4 2
f 2 4 5
f 3 6 12
f 3 12 13
f 3 13 7
f 3 7 4
f 4 7 13
f 4 13 17
f 4 17 15
f 4 15 10
f 4 10 8
f 4 8 5
f 5 8 10
f 5 10 15
f 5 15 18
f 5 18 14
f 5 14 9
f 6 11 14
f 6 14 16
f 6 16 12
f 9 14 11
f 12 16 17
f 12 17 13
f 14 18 16
f 15 17 16
f 15 16 18

