# https://github.com/mikedh/trimesh
v -6.63819055 1.21990753 -3.66798432
v -6.63817935 1.17133273 -3.66798432
v -6.63819055 1.21990753 -3.64631942
v -6.63819055 1.85291460 -3.66798432
v -6.52750392 1.22097510 -3.66798432
v -6.63819055 1.23071675 -3.63719573
v -6.63819055 1.71366240 -3.63719573
v -6.60354639 1.83616700 -3.66798432
v -6.52376289 1.27922483 -3.66798432
v -6.62404393 1.27922483 -3.63719573
v -6.63185092 1.68697293 -3.63719573
v -6.54147141 1.72340407 -3.66798432
v -6.58033825 1.80100360 -3.66798432
v -6.52387490 1.33327098 -3.66798432
v -6.62222933 1.33747456 -3.63719573
v -6.62225173 1.33640698 -3.63719573
v -6.63092122 1.67896610 -3.63719573
v -6.53111063 1.67556319 -3.66798432
v -6.52424454 1.39118708 -3.66798432
v -6.52470379 1.44896974 -3.66798432
v -6.62320384 1.45143853 -3.63719573
v -6.63075320 1.67669751 -3.63719573
v -6.52796317 1.62038273 -3.66798432
v -6.62722490 1.62865648 -3.63719573
v -6.52531977 1.50661896 -3.66798432
v -6.62394312 1.50882085 -3.63719573
v -6.62687775 1.62251791 -3.63719573
v -6.62502955 1.56580284 -3.63719573
v -6.52633908 1.56373439 -3.66798432
f 1 2 3
f 1 3 6
f 1 6 7
f 1 7 4
f 1 4 8
f 1 8 13
f 1 13 12
f 1 12 18
f 1 18 23
f 1 23 29
f 1 29 25
f 1 25 20
f 1 20 19
f 1 19 14
f 1 14 9
f 1 9 5
f 1 5 2
f 2 5 6
f 2 6 3
f 4 7 8
f 5 9 10
f 5 10 6
f 6 10 16
f 6 16 15
f 6 15 21
f 6 21 26
f 6 26 28
f 6 28 27
f 6 27 24
f 6 24 22
f 6 22 17
f 6 17 11
f 6 11 7
f 7 11 12
f 7 12 13
f 7 13 8
f 9 14 15
f 9 15 16
f 9 16 10
f 11 17 18
f 11 18 12
f 14 19 15
f 15 19 20
f 15 20 21
f 17 22 18
f 18 22 24
f 18 24 23
f 20 25 21
f 21 25 26
f 23 24 27
f 23 27 28
f 23 28 29
f 25 29 26
f 26 29 28

