# https://github.com/mikedh/trimesh
v -5.63840259 0.23741090 -3.66795480
v -5.63840259 0.28019599 -3.63847458
v -5.63840259 0.28724295 -3.66798658
v -5.62603021 0.05544857 -3.66798658
v -5.63840259 0.35767647 -3.63847458
v -5.59188844 0.05544857 -3.63847458
v -5.63840259 0.36382455 -3.66798658
v -5.61928617 0.03502684 -3.66798658
v -5.57946649 0.00324369 -3.63847458
v -5.58728909 0.35925845 -3.63847458
v -5.58728909 0.36414817 -3.66798658
v -5.60816592 0.01208831 -3.66798658
v -5.59947551 0.00349533 -3.66798658
v -5.58545432 -0.00024388 -3.66798658
v -5.55092821 -0.00315611 -3.66798658
v -5.53861784 0.00158982 -3.63847458
v -5.56507338 0.35623829 -3.66798658
v -5.53654752 0.33930404 -3.63847458
v -5.53470034 0.00047525 -3.66798658
v -5.52449748 0.02420473 -3.66798658
v -5.51259619 0.05544857 -3.66798658
v -5.52303460 0.04250526 -3.63847458
v -5.53275398 0.34307920 -3.66798658
v -5.51662529 0.28850130 -3.63847458
v -5.51962539 0.31075674 -3.66798658
v -5.51869560 0.05544857 -3.63847458
v -5.51222429 0.08093986 -3.66798658
v -5.51175319 0.28850130 -3.66798658
v -5.51195156 0.11372982 -3.66798658
f 1 2 5
f 1 5 7
f 1 7 3
f 1 3 4
f 1 4 2
f 2 4 6
f 2 6 9
f 2 9 16
f 2 16 22
f 2 22 26
f 2 26 24
f 2 24 18
f 2 18 10
f 2 10 5
f 3 7 11
f 3 11 17
f 3 17 23
f 3 23 25
f 3 25 28
f 3 28 29
f 3 29 27
f 3 27 21
f 3 21 20
f 3 20 19
f 3 19 15
f 3 15 14
f 3 14 13
f 3 13 12
f 3 12 8
f 3 8 4
f 4 8 9
f 4 9 6
f 5 10 7
f 7 10 11
f 8 12 9
f 9 12 13
f 9 13 14
f 9 14 15
f 9 15 16
f 10 17 11
f 10 18 17
f 15 19 16
f 16 19 20
f 16 20 21
f 16 21 22
f 17 18 23
f 18 24 25
f 18 25 23
f 21 26 22
f 21 27 26
f 24 28 25
f 24 26 27
f 24 27 29
f 24 29 28

