# https://github.com/mikedh/trimesh
v -3.04610508 0.05657800 -2.26113062
v -3.02921132 0.02518998 -2.26113062
v -3.02476364 0.02525984 -2.22860117
v -3.03777607 0.05657800 -2.22860117
v -3.03597119 0.10817726 -2.22860117
v -3.04543261 0.07564830 -2.26113062
v -3.00578168 0.02518998 -2.26113062
v -2.97532090 0.02870601 -2.17601585
v -2.98318973 0.02882242 -2.17601585
v -3.01687121 0.02931143 -2.20056291
v -3.00140489 0.02525984 -2.22860117
v -3.02029243 0.05657800 -2.19525516
v -3.02084695 0.10817726 -2.19297211
v -3.04014746 0.10817726 -2.26113062
v -3.01761441 0.14447836 -2.19751321
v -2.98990247 0.26295175 -2.17601585
v -3.01822798 0.19607762 -2.24266620
v -2.96896216 0.03517920 -2.19944634
v -2.96222582 0.03059208 -2.17601585
v -2.98223416 0.05813806 -2.26113062
v -3.00357560 0.05082663 -2.17601585
v -3.00518003 0.05657800 -2.17601585
v -3.00976919 0.09192441 -2.17601585
v -3.01038268 0.10817726 -2.17601585
v -3.00408283 0.16371167 -2.17601585
v -3.03569978 0.12699143 -2.26113062
v -2.98987886 0.26304490 -2.17601585
v -2.99131814 0.26304490 -2.22860955
v -3.01822798 0.19607762 -2.26113062
v -2.95579626 0.04705449 -2.17601585
v -2.95455752 0.05406321 -2.18014868
v -2.94156861 0.19339987 -2.26113062
v -2.93295658 0.26304490 -2.17601585
v -2.98646940 0.26304490 -2.26113062
v -2.95373173 0.05424951 -2.17601585
v -2.93716822 0.21137579 -2.26113062
v -2.92558322 0.26304490 -2.26113062
f 1 2 3
f 1 3 4
f 1 4 5
f 1 5 6
f 1 6 14
f 1 14 26
f 1 26 29
f 1 29 34
f 1 34 37
f 1 37 36
f 1 36 32
f 1 32 20
f 1 20 7
f 1 7 2
f 2 7 11
f 2 11 3
f 3 8 9
f 3 9 10
f 3 10 4
f 3 11 8
f 4 10 12
f 4 12 13
f 4 13 5
f 5 14 6
f 5 13 15
f 5 15 16
f 5 16 17
f 5 17 14
f 7 18 19
f 7 19 11
f 7 20 18
f 8 11 19
f 8 19 30
f 8 30 35
f 8 35 33
f 8 33 27
f 8 27 16
f 8 16 25
f 8 25 24
f 8 24 23
f 8 23 22
f 8 22 21
f 8 21 9
f 9 21 10
f 10 21 22
f 10 22 12
f 12 22 23
f 12 23 13
f 13 23 24
f 13 24 25
f 13 25 16
f 13 16 15
f 14 17 26
f 16 27 17
f 17 27 28
f 17 28 29
f 17 29 26
f 18 20 19
f 19 20 30
f 20 31 30
f 20 32 31
f 27 33 37
f 27 37 34
f 27 34 28
f 28 34 29
f 30 31 35
f 31 32 36
f 31 36 37
f 31 37 35
f 33 35 37

