# https://github.com/mikedh/trimesh
v -2.68052886 0.51867351 -1.13462729
v -2.73205751 0.51168801 -1.13462729
v -2.68052886 0.44539223 -1.13462729
v -2.68052886 0.54953967 -1.21510831
v -2.71642657 0.54803328 -1.21911681
v -2.78299188 0.52759368 -1.19666157
v -2.77612736 0.50238386 -1.13462729
v -2.73271129 0.53796117 -1.19981383
v -2.75080873 0.54595093 -1.22581055
v -2.79820677 0.41653458 -1.13462729
v -2.68052886 0.44000173 -1.13478291
v -2.68052886 0.55760327 -1.24764315
v -2.73271129 0.55225708 -1.24511352
v -2.83648186 0.50926597 -1.19463787
v -2.82058343 0.50033104 -1.15976793
v -2.78718191 0.54333690 -1.24511352
v -2.83455027 0.52911484 -1.24826594
v -2.78875689 0.49786470 -1.13462729
v -2.77276934 0.54976120 -1.26021347
v -2.90022406 0.41653458 -1.13462729
v -2.79817709 0.41653458 -1.19666157
v -2.79823653 0.41653458 -1.24826594
v -2.79826621 0.41653458 -1.26795812
v -2.79850395 0.41653458 -1.31979593
v -2.79886055 0.41653458 -1.35139689
v -2.68052886 0.44006080 -1.14579655
v -2.68052886 0.55772142 -1.24818813
v -2.73137404 0.55869613 -1.29983141
v -2.85496559 0.49194253 -1.17611316
v -2.86827865 0.50084793 -1.21051608
v -2.83612526 0.48006866 -1.13462729
v -2.80718126 0.54642352 -1.28403086
v -2.82985501 0.53883251 -1.30064858
v -2.88911001 0.50842417 -1.30333399
v -2.87645073 0.50696209 -1.24826594
v -2.78718191 0.55055869 -1.30064858
v -2.89873820 0.42001995 -1.13462729
v -2.91588476 0.41653458 -1.16284238
v -2.80465532 0.41653458 -1.40300126
v -2.68052886 0.44212839 -1.35139689
v -2.68052886 0.44138996 -1.30909369
v -2.68052886 0.44134566 -1.30380085
v -2.68052886 0.56324484 -1.29983141
v -2.68052886 0.56556349 -1.40222284
v -2.68052886 0.56664159 -1.45382722
v -2.73137404 0.56042405 -1.40300126
v -2.87252812 0.45555295 -1.13462729
v -2.84177140 0.47689343 -1.13462729
v -2.90224477 0.48624189 -1.24826594
v -2.91903472 0.45225958 -1.20954313
v -2.88863453 0.47209367 -1.19284760
v -2.80949913 0.54696995 -1.31843378
v -2.83567946 0.53840422 -1.35139689
v -2.88613835 0.51415435 -1.35139689
v -2.91261593 0.49572327 -1.32287039
v -2.90830703 0.49178008 -1.28846747
v -2.78299188 0.55200601 -1.35139689
v -2.89561799 0.42462772 -1.13462729
v -2.90899049 0.43938145 -1.17514021
v -2.93062417 0.42041870 -1.19405413
v -2.92780114 0.41653458 -1.18467498
v -2.90765325 0.41653458 -1.53220673
v -2.70076587 0.44328033 -1.42919251
v -2.68052886 0.44356093 -1.40300126
v -2.73137404 0.56123632 -1.45460564
v -2.68052886 0.56740955 -1.50621002
v -2.92637471 0.46044132 -1.24826594
v -2.93484396 0.41653458 -1.19798466
v -2.95968704 0.43724002 -1.29983141
v -2.95410034 0.41793759 -1.24417964
v -2.95454614 0.41653458 -1.24316779
v -2.78299188 0.55306935 -1.45460564
v -2.80991517 0.54710287 -1.35139689
v -2.83606582 0.53807931 -1.40300126
v -2.81065807 0.54738347 -1.45460564
v -2.81047977 0.54732439 -1.50621002
v -2.88613835 0.51372606 -1.40300126
v -2.91350737 0.49657984 -1.40300126
v -2.91362624 0.49669798 -1.35139689
v -2.83624412 0.53739996 -1.50621002
v -2.94420473 0.46493095 -1.34699918
v -2.96346111 0.44344279 -1.32687889
v -2.73137404 0.56181229 -1.50621002
v -2.98283635 0.41653458 -1.53220673
v -2.68052886 0.51670930 -1.53220673
v -2.68052886 0.46459127 -1.44067316
v -2.68052886 0.56706988 -1.53220673
v -2.97210866 0.41653458 -1.29983141
v -2.95525927 0.41653458 -1.24534711
v -2.78299188 0.55318749 -1.50621002
v -2.80988542 0.54711763 -1.53220673
v -2.88426620 0.51118588 -1.53220673
v -2.96441199 0.44456519 -1.43915539
v -2.93933116 0.47103034 -1.40300126
v -2.89728209 0.50202941 -1.53220673
v -2.91008999 0.49290248 -1.53220673
v -2.93897456 0.46497525 -1.53220673
v -2.95362486 0.45073842 -1.53220673
v -2.96215354 0.44237945 -1.53220673
v -2.96497665 0.44522977 -1.40300126
v -2.96459029 0.44477195 -1.36124290
v -2.83300497 0.53732612 -1.53220673
v -2.97820053 0.42285550 -1.34699918
v -2.98200427 0.41653458 -1.34758292
v -2.97329728 0.41653458 -1.30415116
v -2.70540170 0.56432294 -1.53220673
v -2.70578799 0.56427863 -1.53220673
v -2.73137404 0.56133970 -1.53220673
v -2.75698978 0.55707160 -1.53220673
v -2.98411416 0.41653458 -1.40300126
v -2.98334151 0.41776037 -1.40300126
v -2.98072646 0.41919291 -1.53220673
v -2.78492347 0.55215369 -1.53220673
v -2.98242031 0.41653458 -1.35501617
f 1 2 7
f 1 7 18
f 1 18 31
f 1 31 48
f 1 48 47
f 1 47 58
f 1 58 37
f 1 37 20
f 1 20 10
f 1 10 3
f 1 3 11
f 1 11 26
f 1 26 42
f 1 42 41
f 1 41 40
f 1 40 64
f 1 64 86
f 1 86 85
f 1 85 87
f 1 87 66
f 1 66 45
f 1 45 44
f 1 44 43
f 1 43 27
f 1 27 12
f 1 12 4
f 1 4 5
f 1 5 2
f 2 6 7
f 2 5 8
f 2 8 9
f 2 9 6
f 3 10 11
f 4 12 5
f 5 12 13
f 5 13 9
f 5 9 8
f 6 14 15
f 6 15 7
f 6 9 16
f 6 16 17
f 6 17 14
f 7 15 18
f 9 13 19
f 9 19 16
f 10 20 38
f 10 38 61
f 10 61 68
f 10 68 71
f 10 71 89
f 10 89 88
f 10 88 105
f 10 105 104
f 10 104 114
f 10 114 110
f 10 110 84
f 10 84 62
f 10 62 39
f 10 39 25
f 10 25 24
f 10 24 23
f 10 23 22
f 10 22 21
f 10 21 11
f 11 21 22
f 11 22 23
f 11 23 24
f 11 24 25
f 11 25 26
f 12 27 13
f 13 27 28
f 13 28 19
f 14 29 15
f 14 17 30
f 14 30 29
f 15 29 31
f 15 31 18
f 16 19 32
f 16 32 17
f 17 32 33
f 17 33 34
f 17 34 35
f 17 35 30
f 19 28 36
f 19 36 32
f 20 37 38
f 25 39 40
f 25 40 41
f 25 41 42
f 25 42 26
f 27 43 28
f 28 43 44
f 28 44 45
f 28 45 46
f 28 46 36
f 29 47 48
f 29 48 31
f 29 30 47
f 30 35 49
f 30 49 50
f 30 50 51
f 30 51 47
f 32 36 52
f 32 52 33
f 33 52 53
f 33 53 54
f 33 54 34
f 34 54 55
f 34 55 35
f 35 56 49
f 35 55 56
f 36 46 57
f 36 57 52
f 37 58 59
f 37 59 60
f 37 60 61
f 37 61 38
f 39 62 63
f 39 63 64
f 39 64 40
f 45 65 46
f 45 66 65
f 46 65 57
f 47 51 50
f 47 50 59
f 47 59 58
f 49 56 67
f 49 67 50
f 50 68 60
f 50 60 59
f 50 67 69
f 50 69 70
f 50 70 71
f 50 71 68
f 52 57 72
f 52 72 73
f 52 73 53
f 53 74 54
f 53 73 75
f 53 75 76
f 53 76 74
f 54 77 78
f 54 78 79
f 54 79 55
f 54 74 80
f 54 80 77
f 55 81 82
f 55 82 56
f 55 79 81
f 56 82 67
f 57 65 83
f 57 83 72
f 60 68 61
f 62 84 112
f 62 112 99
f 62 99 98
f 62 98 97
f 62 97 96
f 62 96 95
f 62 95 92
f 62 92 102
f 62 102 91
f 62 91 113
f 62 113 109
f 62 109 108
f 62 108 107
f 62 107 106
f 62 106 87
f 62 87 85
f 62 85 63
f 63 86 64
f 63 85 86
f 65 66 83
f 66 87 83
f 67 82 69
f 69 82 88
f 69 88 70
f 70 89 71
f 70 88 89
f 72 83 90
f 72 90 75
f 72 75 73
f 74 76 80
f 75 90 76
f 76 90 91
f 76 91 80
f 77 80 92
f 77 92 78
f 78 93 94
f 78 94 79
f 78 92 95
f 78 95 96
f 78 96 97
f 78 97 98
f 78 98 99
f 78 99 93
f 79 94 100
f 79 100 101
f 79 101 81
f 80 91 102
f 80 102 92
f 81 101 82
f 82 101 103
f 82 103 104
f 82 104 105
f 82 105 88
f 83 87 106
f 83 106 107
f 83 107 108
f 83 108 109
f 83 109 90
f 84 110 111
f 84 111 100
f 84 100 93
f 84 93 112
f 90 109 113
f 90 113 91
f 93 100 94
f 93 99 112
f 100 111 101
f 101 111 103
f 103 111 110
f 103 110 114
f 103 114 104

