# https://github.com/mikedh/trimesh
v -2.10357304 0.53803593 -1.50606516
v -2.10357304 0.47731998 -1.43715014
v -2.10357304 0.60028544 -1.50606516
v -1.43041441 0.50817265 -1.50606516
v -1.43041441 0.43947557 -1.43316179
v -2.10357304 0.47349431 -1.43149224
v -2.10357304 0.59896624 -1.47221045
v -2.06074285 0.60030193 -1.50606516
v -1.43041441 0.56041278 -1.50606516
v -1.43041441 0.43746380 -1.42617448
v -2.10357304 0.45436599 -1.40301726
v -2.10357304 0.59683904 -1.44642534
v -2.06054521 0.59896624 -1.47211773
v -2.00895129 0.59878486 -1.47449834
v -2.00914897 0.59997213 -1.50606516
v -1.43041441 0.55793928 -1.31082153
v -1.44155027 0.56202878 -1.50606516
v -1.44141848 0.55940689 -1.29984572
v -1.43041441 0.43373708 -1.40301726
v -2.10357304 0.45345904 -1.39439131
v -2.10357304 0.58077785 -1.29984572
v -2.06054521 0.58094274 -1.29984572
v -2.00895129 0.58102520 -1.29984572
v -2.06054521 0.59683904 -1.44633261
v -2.00895129 0.59664116 -1.44871322
v -1.97897016 0.59852101 -1.47811579
v -1.96276058 0.59883432 -1.50606516
v -1.43041441 0.55770842 -1.30009314
v -1.49314415 0.56728908 -1.50606516
v -1.49301236 0.56404056 -1.29984572
v -1.49301236 0.55833504 -1.24824457
v -1.43950757 0.55249761 -1.24478183
v -1.43041441 0.55190397 -1.24821366
v -1.43041441 0.43325887 -1.39204160
v -2.10357304 0.44907272 -1.35141611
v -2.10357304 0.57330790 -1.24824457
v -2.06054521 0.57348929 -1.24824457
v -2.00895129 0.57358823 -1.24824457
v -1.95735739 0.58067891 -1.29984572
v -1.90576351 0.58001931 -1.29984572
v -1.85416962 0.57922780 -1.29984572
v -1.80257572 0.57820541 -1.29984572
v -1.75104772 0.57686973 -1.29984572
v -1.69938793 0.57518776 -1.29984572
v -1.64779404 0.57319247 -1.29984572
v -1.59620014 0.57066951 -1.29984572
v -1.54460626 0.56753643 -1.29984572
v -1.54473805 0.57177434 -1.50606516
v -1.54460626 0.56186389 -1.24824457
v -1.49301236 0.54977676 -1.21435911
v -1.45538771 0.54814426 -1.21893489
v -1.69938793 0.55863185 -1.19024339
v -1.43041441 0.54936452 -1.23525920
v -1.43041441 0.43203862 -1.35141611
v -2.10357304 0.44900676 -1.34282107
v -2.10357304 0.56052821 -1.19664342
v -2.00842414 0.56305116 -1.19024339
v -1.95735739 0.56369427 -1.19024339
v -1.90576351 0.56341394 -1.19024339
v -1.95735739 0.57322545 -1.24824457
v -1.90576351 0.57259883 -1.24824457
v -1.85416962 0.57190626 -1.24824457
v -1.80257572 0.57104878 -1.24824457
v -1.75104772 0.57005938 -1.24824457
v -1.69938793 0.56875668 -1.24824457
v -1.64779404 0.56712417 -1.24824457
v -1.59620014 0.56489804 -1.24824457
v -1.44827131 0.53844817 -1.19024339
v -1.75104772 0.56021489 -1.19024339
v -1.43041441 0.54192755 -1.21219486
v -1.43041441 0.43195616 -1.29984572
v -2.10357304 0.44790194 -1.19664342
v -2.10357304 0.55838450 -1.19024339
v -1.85416962 0.56283680 -1.19024339
v -1.80257572 0.56169899 -1.19024339
v -1.43041441 0.53294054 -1.19024339
v -1.43041441 0.43193967 -1.28887006
v -2.10357304 0.44796789 -1.19024339
v -1.43041441 0.43189020 -1.24824457
v -1.43041441 0.43184073 -1.19024339
f 1 2 6
f 1 6 11
f 1 11 20
f 1 20 35
f 1 35 55
f 1 55 72
f 1 72 78
f 1 78 73
f 1 73 56
f 1 56 36
f 1 36 21
f 1 21 12
f 1 12 7
f 1 7 3
f 1 3 8
f 1 8 15
f 1 15 27
f 1 27 48
f 1 48 29
f 1 29 17
f 1 17 9
f 1 9 4
f 1 4 5
f 1 5 2
f 2 5 6
f 3 7 8
f 4 9 16
f 4 16 28
f 4 28 33
f 4 33 53
f 4 53 70
f 4 70 76
f 4 76 80
f 4 80 79
f 4 79 77
f 4 77 71
f 4 71 54
f 4 54 34
f 4 34 19
f 4 19 10
f 4 10 5
f 5 10 11
f 5 11 6
f 7 12 24
f 7 24 13
f 7 13 8
f 8 13 14
f 8 14 15
f 9 17 18
f 9 18 16
f 10 19 11
f 11 19 20
f 12 21 22
f 12 22 23
f 12 23 24
f 13 24 14
f 14 25 26
f 14 26 15
f 14 24 25
f 15 26 27
f 16 18 28
f 17 29 18
f 18 29 30
f 18 30 31
f 18 31 32
f 18 32 33
f 18 33 28
f 19 34 35
f 19 35 20
f 21 36 37
f 21 37 22
f 22 37 38
f 22 38 23
f 23 38 39
f 23 39 24
f 24 39 25
f 25 39 40
f 25 40 41
f 25 41 42
f 25 42 26
f 26 42 43
f 26 43 44
f 26 44 45
f 26 45 46
f 26 46 27
f 27 46 47
f 27 47 48
f 29 48 30
f 30 48 47
f 30 47 49
f 30 49 31
f 31 50 51
f 31 51 32
f 31 49 52
f 31 52 50
f 32 53 33
f 32 51 53
f 34 54 35
f 35 54 55
f 36 56 57
f 36 57 58
f 36 58 37
f 37 58 38
f 38 58 59
f 38 59 60
f 38 60 39
f 39 60 61
f 39 61 40
f 40 61 62
f 40 62 41
f 41 62 63
f 41 63 64
f 41 64 42
f 42 64 65
f 42 65 43
f 43 65 66
f 43 66 44
f 44 66 45
f 45 66 67
f 45 67 46
f 46 67 49
f 46 49 47
f 49 67 52
f 50 68 51
f 50 52 68
f 51 68 53
f 52 67 66
f 52 66 65
f 52 65 69
f 52 69 75
f 52 75 74
f 52 74 59
f 52 59 58
f 52 58 57
f 52 57 73
f 52 73 78
f 52 78 80
f 52 80 76
f 52 76 68
f 53 68 70
f 54 71 72
f 54 72 55
f 56 73 57
f 59 74 60
f 60 74 61
f 61 74 62
f 62 74 63
f 63 74 64
f 64 74 75
f 64 75 65
f 65 75 69
f 68 76 70
f 71 77 72
f 72 77 79
f 72 79 80
f 72 80 78

