# https://github.com/mikedh/trimesh
v -2.78619643 0.28029476 -0.56357806
v -2.78619643 0.28029476 -0.49461230
v -2.78619643 0.35767369 -0.55460350
v -2.10363982 0.35767369 -0.54577518
v -2.10363982 0.28029476 -0.53944220
v -2.78619643 0.31099335 -0.48993995
v -2.78292229 0.28029476 -0.49420787
v -2.78619643 0.35767369 -0.49078326
v -2.10363982 0.35767369 -0.48531927
v -2.10363982 0.28029476 -0.47971749
v -2.78619643 0.31456084 -0.48955274
v -2.78292229 0.31456084 -0.48899330
v -2.72966751 0.28029476 -0.49144573
v -2.78345682 0.35767369 -0.49030994
v -2.10363982 0.31456084 -0.47569070
v -2.11219265 0.35767369 -0.48530205
v -2.11219265 0.31456084 -0.47576820
v -2.10537711 0.28029476 -0.47973471
v -2.78292229 0.35767369 -0.49022382
v -2.73133798 0.31456084 -0.48655840
v -2.21542808 0.28029476 -0.48139550
v -2.16384377 0.35767369 -0.48544844
v -2.21542808 0.35767369 -0.48574092
v -2.16384377 0.31456084 -0.47637039
v -2.11219265 0.28029476 -0.47980361
v -2.21542808 0.31456084 -0.47711897
v -2.16384377 0.28029476 -0.48056080
f 1 2 6
f 1 6 11
f 1 11 8
f 1 8 3
f 1 3 4
f 1 4 5
f 1 5 10
f 1 10 18
f 1 18 25
f 1 25 27
f 1 27 21
f 1 21 13
f 1 13 7
f 1 7 2
f 2 7 6
f 3 8 14
f 3 14 19
f 3 19 23
f 3 23 22
f 3 22 16
f 3 16 9
f 3 9 4
f 4 9 15
f 4 15 10
f 4 10 5
f 6 7 12
f 6 12 11
f 7 13 12
f 8 11 14
f 9 16 15
f 10 15 17
f 10 17 18
f 11 12 14
f 12 19 14
f 12 13 20
f 12 20 19
f 13 21 20
f 15 16 22
f 15 22 23
f 15 23 19
f 15 19 17
f 17 24 25
f 17 25 18
f 17 19 24
f 19 20 26
f 19 26 24
f 20 21 26
f 21 27 26
f 24 26 25
f 25 26 27

