# https://github.com/mikedh/trimesh
v -2.97115632 0.02877006 -1.21951955
v -2.95860630 0.02877006 -1.21951955
v -2.98875606 0.05465986 -1.20912701
v -3.02158984 0.07059205 -1.21503188
v -3.02992823 0.06474915 -1.24823396
v -2.99632003 0.03894166 -1.24823396
v -2.97051984 0.02891818 -1.24823396
v -2.95918981 0.02891818 -1.24823396
v -2.94648063 0.04667731 -1.24631067
v -2.94648063 0.04628230 -1.23412971
v -2.94648063 0.04857007 -1.21471126
v -2.94648063 0.19689739 -1.16392959
v -2.98936079 0.10816765 -1.19389251
v -3.04430297 0.10816765 -1.24823396
v -3.02523927 0.10816765 -1.21108397
v -3.05449790 0.10816765 -1.29982542
v -3.03401254 0.06809029 -1.29982542
v -3.02956747 0.07227087 -1.33626680
v -2.98820447 0.05047933 -1.33626680
v -2.98521282 0.04205237 -1.29739605
v -2.96524738 0.03030075 -1.27860178
v -2.96269069 0.03030075 -1.27860178
v -2.95272919 0.05971273 -1.33626680
v -2.94648063 0.05660202 -1.26900211
v -2.95258064 0.19689739 -1.16541430
v -2.94648063 0.19689739 -1.25341331
v -3.02421020 0.15974973 -1.21162388
v -3.04118407 0.15974973 -1.24823396
v -3.05172900 0.15974973 -1.29982542
v -2.99465448 0.19689739 -1.19261032
v -3.05484789 0.15974973 -1.33626680
v -3.05074237 0.10816765 -1.33626680
v -2.95252759 0.09240004 -1.33626680
v -2.94648063 0.07357109 -1.27139780
v -2.94648063 0.09891775 -1.26949143
v -2.99866459 0.19689739 -1.33626680
v -3.02096397 0.19689739 -1.21496437
v -3.02571660 0.19689739 -1.22522189
v -3.03546588 0.19689739 -1.24823396
v -3.04666867 0.19689739 -1.29982542
v -3.05068931 0.19689739 -1.33626680
f 1 2 3
f 1 3 4
f 1 4 5
f 1 5 6
f 1 6 7
f 1 7 8
f 1 8 2
f 2 8 9
f 2 9 10
f 2 10 11
f 2 11 12
f 2 12 3
f 3 12 13
f 3 13 4
f 4 14 5
f 4 13 15
f 4 15 14
f 5 14 16
f 5 16 17
f 5 17 6
f 6 17 18
f 6 18 19
f 6 19 20
f 6 20 21
f 6 21 7
f 7 21 22
f 7 22 8
f 8 22 9
f 9 22 23
f 9 23 24
f 9 24 34
f 9 34 35
f 9 35 26
f 9 26 12
f 9 12 11
f 9 11 10
f 12 25 13
f 12 26 36
f 12 36 41
f 12 41 40
f 12 40 39
f 12 39 38
f 12 38 37
f 12 37 30
f 12 30 25
f 13 25 15
f 14 15 27
f 14 27 28
f 14 28 29
f 14 29 16
f 15 25 30
f 15 30 27
f 16 29 31
f 16 31 32
f 16 32 17
f 17 32 18
f 18 32 31
f 18 31 41
f 18 41 36
f 18 36 33
f 18 33 23
f 18 23 19
f 19 23 22
f 19 22 21
f 19 21 20
f 23 33 34
f 23 34 24
f 26 35 33
f 26 33 36
f 27 37 28
f 27 30 37
f 28 37 38
f 28 38 39
f 28 39 40
f 28 40 29
f 29 40 41
f 29 41 31
f 33 35 34

