# https://github.com/mikedh/trimesh
v -2.78620166 0.37189670 -0.49202762
v -2.82138745 0.37189670 -0.49566567
v -2.78620166 0.37189670 -0.56416349
v -2.78619643 0.49685833 -0.51123095
v -2.78619643 0.51458989 -0.51006163
v -2.78619643 0.72366177 -0.52321030
v -2.82935339 0.37189670 -0.49896572
v -2.83232036 0.37189670 -0.60368748
v -2.83232036 0.39176828 -0.75744401
v -2.78620166 0.41935919 -0.75744401
v -2.78619643 0.49685833 -0.75746985
v -2.78619643 0.72733036 -0.52380803
v -2.82104269 0.72733036 -0.54124431
v -2.82862726 0.67574071 -0.53677479
v -2.83232036 0.37189670 -0.50023914
v -2.83956016 0.49685833 -0.57746810
v -2.83909007 0.49685833 -0.60662385
v -2.83794612 0.49685833 -0.65856899
v -2.83232036 0.48164893 -0.75744401
v -2.81292528 0.49685833 -0.75746985
v -2.78619643 0.52120101 -0.75746985
v -2.78619643 0.76229670 -0.54059460
v -2.81199031 0.75644986 -0.54776675
v -2.82104269 0.72733036 -0.56764561
v -2.82998541 0.68051753 -0.58240540
v -2.83232036 0.38160320 -0.50182427
v -2.82396267 0.48971221 -0.75744401
v -2.81199031 0.75644986 -0.55610805
v -2.79852401 0.72733036 -0.59342319
v -2.78619643 0.72733036 -0.60412928
v -2.78619643 0.76145598 -0.57136147
f 1 2 7
f 1 7 15
f 1 15 8
f 1 8 3
f 1 3 11
f 1 11 4
f 1 4 5
f 1 5 6
f 1 6 2
f 2 6 7
f 3 8 9
f 3 9 10
f 3 10 11
f 4 11 21
f 4 21 30
f 4 30 31
f 4 31 22
f 4 22 12
f 4 12 6
f 4 6 5
f 6 12 13
f 6 13 14
f 6 14 15
f 6 15 7
f 8 15 16
f 8 16 9
f 9 11 10
f 9 16 17
f 9 17 18
f 9 18 19
f 9 19 20
f 9 20 11
f 11 20 21
f 12 22 23
f 12 23 13
f 13 24 25
f 13 25 14
f 13 23 28
f 13 28 24
f 14 25 16
f 14 16 26
f 14 26 15
f 15 26 16
f 16 25 17
f 17 25 18
f 18 25 19
f 19 27 20
f 19 25 24
f 19 24 28
f 19 28 29
f 19 29 30
f 19 30 27
f 20 27 21
f 21 27 30
f 22 31 28
f 22 28 23
f 28 31 30
f 28 30 29

