# https://github.com/mikedh/trimesh
v -1.28098381 0.36977667 -0.73213652
v -1.25758469 0.36977667 -0.73213652
v -1.32491669 0.36977667 -0.73208977
v -1.38880502 0.41919650 -0.73213652
v -1.26206920 0.38941143 -0.73213652
v -1.26129821 0.39065433 -0.62903818
v -1.25754613 0.36977667 -0.71974612
v -1.38880502 0.36977667 -0.56250347
v -1.38880502 0.36999862 -0.56409322
v -1.38880502 0.52093624 -0.73213652
v -1.27831110 0.41771687 -0.73213652
v -1.25857409 0.36977667 -0.62903818
v -1.25790593 0.36977667 -0.66899182
v -1.27751442 0.41776125 -0.62903818
v -1.28199897 0.41776125 -0.57744226
v -1.26741464 0.37106395 -0.57959314
v -1.26666936 0.36977667 -0.58129975
v -1.38880502 0.36977667 -0.49332703
v -1.35967491 0.52093624 -0.73213652
v -1.38880502 0.52093624 -0.51011268
v -1.30282817 0.45448581 -0.73213652
v -1.34254638 0.52093624 -0.62903818
v -1.34483358 0.52093624 -0.57744226
v -1.30692721 0.44764989 -0.54728419
v -1.29962862 0.41776125 -0.53872775
v -1.27457186 0.36977667 -0.56736620
v -1.26745319 0.36977667 -0.57940599
v -1.29513127 0.36977667 -0.53314043
v -1.38592671 0.36977667 -0.49335041
v -1.35546024 0.52093624 -0.72498283
v -1.35481776 0.36977667 -0.49652990
v -1.32918277 0.36977667 -0.50754107
v -1.32618881 0.36977667 -0.50915419
v -1.35556304 0.52093624 -0.53491717
v -1.35053885 0.52093624 -0.70127723
v -1.34733929 0.52093624 -0.68495922
f 1 2 7
f 1 7 13
f 1 13 12
f 1 12 17
f 1 17 27
f 1 27 26
f 1 26 28
f 1 28 33
f 1 33 32
f 1 32 31
f 1 31 29
f 1 29 18
f 1 18 8
f 1 8 3
f 1 3 4
f 1 4 10
f 1 10 19
f 1 19 21
f 1 21 11
f 1 11 5
f 1 5 2
f 2 5 6
f 2 6 7
f 3 8 9
f 3 9 4
f 4 9 8
f 4 8 18
f 4 18 20
f 4 20 10
f 5 11 6
f 6 12 13
f 6 13 7
f 6 11 14
f 6 14 15
f 6 15 16
f 6 16 17
f 6 17 12
f 10 20 34
f 10 34 23
f 10 23 22
f 10 22 36
f 10 36 35
f 10 35 30
f 10 30 19
f 11 21 22
f 11 22 14
f 14 22 23
f 14 23 15
f 15 23 24
f 15 24 25
f 15 25 16
f 16 26 27
f 16 27 17
f 16 25 28
f 16 28 26
f 18 29 20
f 19 30 21
f 20 29 31
f 20 31 32
f 20 32 33
f 20 33 25
f 20 25 34
f 21 30 35
f 21 35 36
f 21 36 22
f 23 34 24
f 24 34 25
f 25 33 28

