# https://github.com/mikedh/trimesh
v -0.43954114 0.35889343 -5.46474119
v -0.36972107 0.35889343 -5.46474119
v -0.44072614 0.35889343 -5.45644478
v -0.44373678 0.36208501 -5.46474119
v -0.37228314 0.36953829 -5.46474119
v -0.35966438 0.36615897 -5.37609155
v -0.35843125 0.35889343 -5.37609155
v -0.44141476 0.35889343 -5.07648984
v -0.51342876 0.44399594 -5.46474119
v -0.38274027 0.39370041 -5.46474119
v -0.37486136 0.40901999 -5.37609155
v -0.35759855 0.35889343 -5.36886589
v -0.35687795 0.36615897 -5.32450763
v -0.35449195 0.35889343 -5.31754954
v -0.44141476 0.35889343 -5.07588765
v -0.51342876 0.47471019 -5.46474119
v -0.51342876 0.44517870 -5.08130705
v -0.39375775 0.41741197 -5.46474119
v -0.38887350 0.43483423 -5.37609155
v -0.38230785 0.44587334 -5.20294071
v -0.35228203 0.36615897 -5.22133978
v -0.34999199 0.35889343 -5.22133978
v -0.51342876 0.44611740 -5.06658785
v -0.41396708 0.35889343 -4.78130382
v -0.51342876 0.47628720 -4.78130382
v -0.51320463 0.51229572 -5.46474119
v -0.51342876 0.51195778 -5.42767563
v -0.41411117 0.45113005 -5.46474119
v -0.42138158 0.46143697 -5.46474119
v -0.43310367 0.49691982 -5.35688977
v -0.42632980 0.50345316 -5.22133978
v -0.39828955 0.46556725 -5.22060380
v -0.40125221 0.47121822 -5.16968881
v -0.38254805 0.44544153 -5.16968881
v -0.37090607 0.41776867 -5.16968881
v -0.35173750 0.36615897 -5.16968881
v -0.34984790 0.35889343 -5.17002342
v -0.35686196 0.35889343 -4.78130382
v -0.51342876 0.53245899 -4.78130382
v -0.51261205 0.51220185 -5.46474119
v -0.51342876 0.54832300 -5.22133978
v -0.44722775 0.48723244 -5.46474119
v -0.46577175 0.49744549 -5.46474119
v -0.47304201 0.50116274 -5.46474119
v -0.49807154 0.54332912 -5.22133978
v -0.46099960 0.52583177 -5.22133978
v -0.43023711 0.49996120 -4.78130382
v -0.41979614 0.48383434 -4.78130382
v -0.39961879 0.45203120 -4.78130382
v -0.38980231 0.43612963 -4.78130382
v -0.37486136 0.41033417 -4.78130382
v -0.51342876 0.55068853 -5.16968881
v -0.51261205 0.53230878 -4.78130382
v -0.49486884 0.54325402 -5.16968881
v -0.46099960 0.52489306 -5.16968881
v -0.44645909 0.50839073 -4.78130382
v -0.48825513 0.52528732 -4.78130382
v -0.46099960 0.51580645 -4.78130382
f 1 2 7
f 1 7 12
f 1 12 14
f 1 14 22
f 1 22 37
f 1 37 38
f 1 38 24
f 1 24 15
f 1 15 8
f 1 8 3
f 1 3 4
f 1 4 9
f 1 9 16
f 1 16 26
f 1 26 40
f 1 40 44
f 1 44 43
f 1 43 42
f 1 42 29
f 1 29 28
f 1 28 18
f 1 18 10
f 1 10 5
f 1 5 2
f 2 5 6
f 2 6 7
f 3 8 4
f 4 8 9
f 5 10 11
f 5 11 6
f 6 12 7
f 6 11 13
f 6 13 14
f 6 14 12
f 8 15 9
f 9 15 17
f 9 17 23
f 9 23 25
f 9 25 39
f 9 39 52
f 9 52 41
f 9 41 27
f 9 27 16
f 10 18 11
f 11 18 19
f 11 19 20
f 11 20 21
f 11 21 13
f 13 21 22
f 13 22 14
f 15 23 17
f 15 24 25
f 15 25 23
f 16 27 26
f 18 28 19
f 19 28 29
f 19 29 30
f 19 30 31
f 19 31 32
f 19 32 20
f 20 32 31
f 20 31 33
f 20 33 34
f 20 34 35
f 20 35 21
f 21 35 36
f 21 36 22
f 22 36 37
f 24 38 51
f 24 51 50
f 24 50 49
f 24 49 48
f 24 48 47
f 24 47 56
f 24 56 58
f 24 58 57
f 24 57 53
f 24 53 39
f 24 39 25
f 26 27 41
f 26 41 40
f 29 42 30
f 30 42 43
f 30 43 44
f 30 44 45
f 30 45 46
f 30 46 31
f 31 46 47
f 31 47 33
f 33 47 34
f 34 47 48
f 34 48 49
f 34 49 50
f 34 50 51
f 34 51 35
f 35 51 36
f 36 51 38
f 36 38 37
f 39 53 52
f 40 41 44
f 41 52 45
f 41 45 44
f 45 52 54
f 45 54 46
f 46 54 55
f 46 55 47
f 47 55 54
f 47 54 56
f 52 53 57
f 52 57 58
f 52 58 54
f 54 58 56

