# https://github.com/mikedh/trimesh
v -2.06055182 0.72988682 -0.96021793
v -2.03790286 0.72887451 -0.96021793
v -2.00897345 0.71360316 -0.97490745
v -2.06055182 0.71502039 -0.97579843
v -2.10357304 0.72956866 -0.96021793
v -2.00897345 0.72719698 -0.96021793
v -1.95735585 0.72352376 -0.96021793
v -1.70256503 0.62518551 -1.04507375
v -1.94895571 0.63927102 -1.04529027
v -2.10357304 0.71490471 -0.97558191
v -1.95456888 0.63938671 -1.04529027
v -2.10357304 0.43964435 -0.96021793
v -1.90577748 0.71889608 -0.96021793
v -1.70256503 0.62582180 -1.04182614
v -1.70256503 0.47302151 -1.04529027
v -1.74754890 0.62454919 -1.04529027
v -1.88438464 0.71484685 -0.96021793
v -1.86911524 0.71068194 -0.96021793
v -2.00897345 0.63467225 -1.04529027
v -2.00983703 0.63455655 -1.04529027
v -2.10357304 0.70755826 -0.98036176
v -1.82417062 0.43484313 -0.96021793
v -2.10357304 0.44499511 -1.00435292
v -1.99833591 0.44094589 -1.04529027
v -1.96088862 0.43819820 -1.04529027
v -1.95735585 0.43805358 -1.04529027
v -1.95735585 0.43793789 -1.04182614
v -1.70256503 0.62509875 -1.03868663
v -1.84124566 0.69506352 -0.96021793
v -1.70256503 0.43464067 -1.04529027
v -2.04834415 0.62093382 -1.04529027
v -2.10357304 0.67499093 -1.00053064
v -1.90577748 0.43709913 -1.04182614
v -1.80262076 0.43455390 -0.96021793
v -2.10357304 0.45118464 -1.04529027
v -1.90989904 0.43730158 -1.04529027
v -1.70256503 0.60910430 -1.00323711
v -1.83975404 0.69410907 -0.96021793
v -1.83869422 0.69335706 -0.96021793
v -1.70256503 0.43458282 -1.04459074
v -1.70338935 0.43464067 -1.04529027
v -2.05517418 0.61483106 -1.04529027
v -2.10357304 0.64074608 -1.01784328
v -2.10357304 0.66851217 -1.00381162
v -1.70256503 0.43440929 -1.04204266
v -1.75100315 0.43680989 -0.96021793
v -2.10357304 0.54058568 -1.04529027
v -1.75594902 0.62084705 -0.96021793
v -1.71414464 0.57399176 -0.96021793
v -1.70256503 0.56025333 -0.96021793
v -1.70256503 0.44077235 -0.96021793
f 1 2 3
f 1 3 4
f 1 4 5
f 1 5 12
f 1 12 22
f 1 22 34
f 1 34 46
f 1 46 51
f 1 51 50
f 1 50 49
f 1 49 48
f 1 48 39
f 1 39 38
f 1 38 29
f 1 29 18
f 1 18 17
f 1 17 13
f 1 13 7
f 1 7 6
f 1 6 2
f 2 6 3
f 3 6 7
f 3 7 8
f 3 8 9
f 3 9 4
f 4 10 5
f 4 9 11
f 4 11 10
f 5 10 21
f 5 21 32
f 5 32 44
f 5 44 43
f 5 43 47
f 5 47 35
f 5 35 23
f 5 23 12
f 7 13 8
f 8 14 28
f 8 28 37
f 8 37 50
f 8 50 51
f 8 51 45
f 8 45 40
f 8 40 30
f 8 30 15
f 8 15 16
f 8 16 9
f 8 13 17
f 8 17 18
f 8 18 14
f 9 16 15
f 9 15 30
f 9 30 41
f 9 41 36
f 9 36 26
f 9 26 25
f 9 25 24
f 9 24 35
f 9 35 47
f 9 47 42
f 9 42 31
f 9 31 20
f 9 20 19
f 9 19 11
f 10 19 20
f 10 20 21
f 10 11 19
f 12 23 24
f 12 24 25
f 12 25 26
f 12 26 27
f 12 27 22
f 14 18 29
f 14 29 28
f 20 31 32
f 20 32 21
f 22 33 34
f 22 27 33
f 23 35 24
f 26 36 33
f 26 33 27
f 28 29 38
f 28 38 39
f 28 39 37
f 30 40 41
f 31 42 43
f 31 43 44
f 31 44 32
f 33 36 45
f 33 45 34
f 34 45 46
f 36 41 45
f 37 48 49
f 37 49 50
f 37 39 48
f 40 45 41
f 42 47 43
f 45 51 46

