# https://github.com/mikedh/trimesh
v -1.21992801 0.04622586 -2.17707829
v -1.22556673 0.05909513 -2.07379642
v -1.22627411 0.05874917 -2.12539195
v -1.22120955 0.04963921 -2.17707829
v -1.19364143 0.04622586 -2.17707829
v -1.22528990 0.06409983 -1.91904042
v -1.23519354 0.10817353 -2.12539195
v -1.22211172 0.05199168 -2.17347085
v -1.22660219 0.06972725 -1.86741466
v -1.23730547 0.10817353 -1.86741466
v -1.22167088 0.05238374 -2.17707829
v -1.18838204 0.05247600 -2.17707829
v -1.15564683 0.08054386 -2.00346658
v -1.15564683 0.08054386 -1.98855178
v -1.17980095 0.06493011 -1.97106030
v -1.19133466 0.06409983 -1.91904042
v -1.24176519 0.28181604 -2.15655533
v -1.24128333 0.28181604 -2.17707829
v -1.23050827 0.10817353 -2.17698733
v -1.23047752 0.10803513 -2.17707829
v -1.19825488 0.06972725 -1.86741466
v -1.24382587 0.28181604 -1.86741466
v -1.17194777 0.10817353 -2.17707829
v -1.15067450 0.10798900 -2.02129153
v -1.14858306 0.10531367 -1.97106030
v -1.15129987 0.12500962 -1.86741466
v -1.17246038 0.09922500 -1.86741466
v -1.21946668 0.28181604 -2.17707829
v -1.16182888 0.28181604 -1.86741466
v -1.17273722 0.15976580 -2.17707829
v -1.15452933 0.21135808 -2.10841570
v -1.15541101 0.17531037 -2.10608152
v -1.14234972 0.15976580 -2.02223133
v -1.13909976 0.15976580 -1.97063587
v -1.14076063 0.15976580 -1.86741466
v -1.18470151 0.28181604 -2.17704800
v -1.18055961 0.26295037 -2.17707829
v -1.16140853 0.28082431 -1.86741466
v -1.16163408 0.28181604 -1.86899095
v -1.15568781 0.24235496 -2.10483862
v -1.15006961 0.21135808 -2.07379642
v -1.14480000 0.21135808 -2.02223133
v -1.14249327 0.21135808 -1.97063587
v -1.14021726 0.21135808 -1.86741466
v -1.17775053 0.28181604 -2.14427788
v -1.15075650 0.25501665 -1.86741466
v -1.16083440 0.28181604 -1.87969204
v -1.16836977 0.28181604 -2.08558886
v -1.16653464 0.28181604 -2.07379642
v -1.16045508 0.28181604 -2.02223133
v -1.16011677 0.28063980 -2.02223133
v -1.15285820 0.25483213 -2.02223133
v -1.15118711 0.26110532 -1.97063587
v -1.15816884 0.28181604 -1.91904042
v -1.15698983 0.28181604 -1.97063587
v -1.15793306 0.28181604 -1.92601273
f 1 2 3
f 1 3 4
f 1 4 11
f 1 11 20
f 1 20 18
f 1 18 28
f 1 28 37
f 1 37 30
f 1 30 23
f 1 23 12
f 1 12 5
f 1 5 16
f 1 16 6
f 1 6 2
f 2 6 3
f 3 7 8
f 3 8 4
f 3 6 9
f 3 9 10
f 3 10 7
f 4 8 11
f 5 12 13
f 5 13 14
f 5 14 15
f 5 15 16
f 6 16 21
f 6 21 9
f 7 17 18
f 7 18 19
f 7 19 8
f 7 10 17
f 8 19 20
f 8 20 11
f 9 21 27
f 9 27 26
f 9 26 35
f 9 35 44
f 9 44 46
f 9 46 38
f 9 38 29
f 9 29 22
f 9 22 10
f 10 22 17
f 12 23 13
f 13 24 25
f 13 25 14
f 13 23 24
f 14 25 26
f 14 26 27
f 14 27 21
f 14 21 16
f 14 16 15
f 17 22 29
f 17 29 39
f 17 39 47
f 17 47 54
f 17 54 56
f 17 56 55
f 17 55 50
f 17 50 49
f 17 49 48
f 17 48 45
f 17 45 36
f 17 36 28
f 17 28 18
f 18 20 19
f 23 30 31
f 23 31 32
f 23 32 33
f 23 33 24
f 24 34 25
f 24 33 34
f 25 34 35
f 25 35 26
f 28 36 37
f 29 38 39
f 30 37 40
f 30 40 31
f 31 40 41
f 31 41 33
f 31 33 32
f 33 41 42
f 33 42 34
f 34 43 44
f 34 44 35
f 34 42 43
f 36 45 40
f 36 40 37
f 38 46 39
f 39 46 47
f 40 42 41
f 40 45 48
f 40 48 49
f 40 49 50
f 40 50 51
f 40 51 52
f 40 52 42
f 42 52 53
f 42 53 43
f 43 53 44
f 44 53 46
f 46 54 47
f 46 53 55
f 46 55 56
f 46 56 54
f 50 55 51
f 51 55 52
f 52 55 53

