# https://github.com/mikedh/trimesh
v -0.84541192 0.51270625 -4.78127906
v -0.84541192 0.45890691 -4.65376037
v -0.84541192 0.56138761 -4.78127906
v -0.69666658 0.49459930 -4.78127906
v -0.84541192 0.45718475 -4.60216399
v -0.55899648 0.48521231 -4.78127906
v -0.55899648 0.44523877 -4.66182780
v -0.55899648 0.44079997 -4.63878883
v -0.55899648 0.44053315 -4.63282491
v -0.84541192 0.56443171 -4.70533215
v -0.77060464 0.55926524 -4.78127906
v -0.84541192 0.45952543 -4.52849374
v -0.55899648 0.44053315 -4.61527976
v -0.55899648 0.53880547 -4.78127906
v -0.84541192 0.56332808 -4.65376037
v -0.82219587 0.56270955 -4.65376037
v -0.71898535 0.55961695 -4.65376037
v -0.77060464 0.56188486 -4.70533215
v -0.66742218 0.55458386 -4.78127906
v -0.71898535 0.56002929 -4.70533215
v -0.66742218 0.55812522 -4.70533215
v -0.84541192 0.53083745 -4.52849374
v -0.55899648 0.45411639 -4.52849374
v -0.55899648 0.54649457 -4.73129119
v -0.61647589 0.55092124 -4.78127906
v -0.84541192 0.55874374 -4.63500269
v -0.71898535 0.55206126 -4.62032794
v -0.66742218 0.55100614 -4.62158998
v -0.61583095 0.54945377 -4.62359446
v -0.66742218 0.55728838 -4.65376037
v -0.64566417 0.55337108 -4.78127906
v -0.61583095 0.55346810 -4.65376037
v -0.61583095 0.55384406 -4.70533215
v -0.66742218 0.52365774 -4.52849374
v -0.55899648 0.51564120 -4.52849374
v -0.55899648 0.54746479 -4.71240957
v -0.61583095 0.52157174 -4.52849374
v -0.57646466 0.54805905 -4.62574749
v -0.55899648 0.54824097 -4.65148371
v -0.55899648 0.54836226 -4.65504733
v -0.55899648 0.54836226 -4.65712593
v -0.55899648 0.54770735 -4.70612394
v -0.56177238 0.51618695 -4.52849374
v -0.58964278 0.51951000 -4.52849374
v -0.56488466 0.51679335 -4.52849374
f 1 2 5
f 1 5 12
f 1 12 22
f 1 22 26
f 1 26 15
f 1 15 10
f 1 10 3
f 1 3 11
f 1 11 19
f 1 19 31
f 1 31 25
f 1 25 14
f 1 14 6
f 1 6 4
f 1 4 2
f 2 4 6
f 2 6 7
f 2 7 8
f 2 8 9
f 2 9 5
f 3 10 11
f 5 9 13
f 5 13 12
f 6 14 24
f 6 24 36
f 6 36 42
f 6 42 41
f 6 41 40
f 6 40 39
f 6 39 35
f 6 35 23
f 6 23 13
f 6 13 9
f 6 9 8
f 6 8 7
f 10 15 16
f 10 16 17
f 10 17 18
f 10 18 11
f 11 18 20
f 11 20 21
f 11 21 19
f 12 13 23
f 12 23 35
f 12 35 43
f 12 43 45
f 12 45 44
f 12 44 37
f 12 37 34
f 12 34 22
f 14 25 24
f 15 26 27
f 15 27 28
f 15 28 16
f 16 28 17
f 17 20 18
f 17 28 29
f 17 29 30
f 17 30 21
f 17 21 20
f 19 21 31
f 21 30 32
f 21 32 33
f 21 33 31
f 22 27 26
f 22 34 28
f 22 28 27
f 24 25 36
f 25 31 33
f 25 33 36
f 28 34 37
f 28 37 29
f 29 37 38
f 29 38 30
f 30 38 32
f 32 38 39
f 32 39 40
f 32 40 33
f 33 40 41
f 33 41 42
f 33 42 36
f 35 39 38
f 35 38 43
f 37 44 38
f 38 44 45
f 38 45 43

