# https://github.com/mikedh/trimesh
v -1.33796584 0.49286835 -2.17710859
v -1.32704931 0.48849623 -2.17710859
v -1.33796584 0.49117172 -2.18729414
v -1.33796584 0.42565521 -2.17710859
v -1.32551931 0.48755003 -2.17710859
v -1.29352065 0.45701047 -2.22860878
v -1.33796584 0.48082872 -2.22640724
v -1.33796584 0.48353682 -2.21636846
v -1.33796584 0.26271230 -2.32704469
v -1.24207308 0.28444237 -2.17710859
v -1.28379620 0.46151310 -2.17710859
v -1.28172179 0.45971857 -2.18022003
v -1.26126853 0.44307843 -2.19954906
v -1.26773584 0.43700967 -2.22860878
v -1.30396785 0.44957135 -2.26279057
v -1.33796584 0.47981726 -2.22901967
v -1.24207308 0.15960866 -2.32704469
v -1.33796584 0.37841026 -2.32704469
v -1.24207308 0.41589952 -2.17710859
v -1.28199397 0.46027324 -2.17710859
v -1.24701977 0.41123376 -2.22860878
v -1.27715054 0.45668419 -2.17710859
v -1.24911298 0.42722135 -2.17710859
v -1.24594972 0.42235982 -2.17710859
v -1.24642842 0.42262083 -2.18022003
v -1.24207308 0.41541011 -2.17972102
v -1.24207308 0.40372938 -2.22860878
v -1.25360914 0.40089076 -2.26367117
v -1.33796584 0.45704310 -2.26992334
v -1.28701578 0.41743302 -2.28043183
v -1.30443718 0.39955302 -2.31046011
v -1.33796584 0.43081039 -2.29578351
v -1.24207308 0.31485143 -2.32704469
v -1.33796584 0.40506712 -2.31373301
v -1.28690314 0.35837682 -2.32704469
v -1.24469194 0.42030426 -2.17710859
v -1.24207308 0.39064566 -2.25121072
v -1.27004495 0.38379383 -2.29807309
v -1.24207308 0.37628945 -2.27329897
v -1.25326184 0.34937157 -2.31357155
v -1.24207308 0.31977821 -2.32428548
v -1.24207308 0.35883361 -2.29032382
v -1.24207308 0.34173668 -2.30677631
v -1.24207308 0.32114857 -2.32321411
f 1 2 3
f 1 3 8
f 1 8 7
f 1 7 16
f 1 16 29
f 1 29 32
f 1 32 34
f 1 34 18
f 1 18 9
f 1 9 4
f 1 4 10
f 1 10 19
f 1 19 36
f 1 36 24
f 1 24 23
f 1 23 22
f 1 22 20
f 1 20 11
f 1 11 5
f 1 5 2
f 2 5 6
f 2 6 7
f 2 7 8
f 2 8 3
f 4 9 10
f 5 11 12
f 5 12 13
f 5 13 6
f 6 13 14
f 6 14 15
f 6 15 7
f 7 15 16
f 9 17 10
f 9 18 35
f 9 35 33
f 9 33 17
f 10 17 33
f 10 33 41
f 10 41 44
f 10 44 43
f 10 43 42
f 10 42 39
f 10 39 37
f 10 37 27
f 10 27 26
f 10 26 19
f 11 20 12
f 12 20 13
f 13 21 14
f 13 20 22
f 13 22 23
f 13 23 24
f 13 24 25
f 13 25 26
f 13 26 27
f 13 27 21
f 14 21 28
f 14 28 15
f 15 29 16
f 15 28 30
f 15 30 31
f 15 31 32
f 15 32 29
f 18 34 31
f 18 31 35
f 19 26 36
f 21 27 37
f 21 37 28
f 24 36 25
f 25 36 26
f 28 38 30
f 28 37 39
f 28 39 40
f 28 40 38
f 30 38 31
f 31 38 40
f 31 40 35
f 31 34 32
f 33 35 41
f 35 40 41
f 39 42 40
f 40 43 44
f 40 44 41
f 40 42 43

