# https://github.com/mikedh/trimesh
v -1.18341828 0.86339831 -4.25696834
v -1.17658094 0.86309325 -4.25730842
v -1.18341828 0.86339831 -4.28225691
v -1.23353598 0.86242771 -4.29604161
v -1.23500601 0.86226132 -4.25892899
v -1.49297876 0.83289363 -4.20254977
v -1.37660726 0.83513988 -4.20254977
v -1.32368629 0.83450206 -4.20254977
v -1.17658094 0.83053646 -4.24178312
v -1.17658094 0.86309325 -4.28233696
v -1.28218362 0.82754147 -4.20254977
v -1.24977464 0.85857303 -4.32147027
v -1.27414975 0.85857303 -4.32147027
v -1.27698727 0.85937724 -4.29258048
v -1.52576379 0.83491802 -4.29258048
v -1.52576379 0.83142387 -4.20254977
v -1.51598638 0.83186756 -4.20254977
v -1.17658094 0.72002639 -4.20254977
v -1.23298900 0.79029803 -4.20254977
v -1.22533119 0.78322649 -4.20254977
v -1.17658094 0.86120753 -4.28577817
v -1.28426902 0.77479611 -4.40693943
v -1.33821561 0.78527864 -4.40693943
v -1.38976912 0.79054761 -4.40693943
v -1.38976912 0.81406395 -4.38007034
v -1.21538284 0.85371999 -4.31552827
v -1.17658094 0.73949393 -4.40693943
v -1.44139103 0.81345387 -4.38067053
v -1.52576379 0.81209503 -4.37911000
v -1.52576379 0.82962134 -4.34415802
v -1.52576379 0.83300458 -4.31134685
v -1.52576379 0.58009319 -4.20254977
v -1.17658094 0.58009319 -4.20254977
v -1.17658094 0.84559466 -4.30812576
v -1.44080987 0.79168463 -4.40693943
v -1.17658094 0.84215598 -4.31136684
v -1.17658094 0.58009319 -4.40693943
v -1.52576379 0.80280496 -4.38849315
v -1.52576379 0.58009319 -4.40693943
v -1.44139103 0.79162916 -4.40693943
v -1.52576379 0.78325425 -4.40693943
f 1 2 10
f 1 10 3
f 1 3 4
f 1 4 5
f 1 5 6
f 1 6 7
f 1 7 8
f 1 8 2
f 2 9 18
f 2 18 33
f 2 33 37
f 2 37 27
f 2 27 36
f 2 36 34
f 2 34 21
f 2 21 10
f 2 8 11
f 2 11 9
f 3 12 4
f 3 10 12
f 4 12 13
f 4 13 14
f 4 14 5
f 5 14 15
f 5 15 16
f 5 16 17
f 5 17 6
f 6 17 16
f 6 16 32
f 6 32 33
f 6 33 18
f 6 18 20
f 6 20 19
f 6 19 11
f 6 11 8
f 6 8 7
f 9 11 19
f 9 19 20
f 9 20 18
f 10 21 12
f 12 22 23
f 12 23 24
f 12 24 25
f 12 25 13
f 12 21 26
f 12 26 27
f 12 27 22
f 13 25 28
f 13 28 29
f 13 29 30
f 13 30 31
f 13 31 15
f 13 15 14
f 15 31 30
f 15 30 29
f 15 29 38
f 15 38 41
f 15 41 39
f 15 39 32
f 15 32 16
f 21 34 26
f 22 27 37
f 22 37 39
f 22 39 41
f 22 41 40
f 22 40 35
f 22 35 24
f 22 24 23
f 24 35 25
f 25 35 28
f 26 34 36
f 26 36 27
f 28 35 29
f 29 35 38
f 32 39 37
f 32 37 33
f 35 40 38
f 38 40 41

