# https://github.com/mikedh/trimesh
v -1.32751160 0.31456060 -0.50671099
v -1.32751160 0.31419956 -0.50676589
v -1.32751160 0.35021998 -0.50709466
v -1.32819902 0.36615417 -0.50691659
v -1.35175499 0.31456060 -0.49492877
v -1.32751160 0.31281554 -0.50698502
v -1.35274358 0.30830246 -0.49540825
v -1.33152486 0.30830246 -0.50572451
v -1.32751160 0.36615417 -0.50745081
v -1.32751160 0.36740580 -0.50769747
v -1.32751160 0.36977066 -0.50843728
v -1.32918761 0.36977066 -0.50753308
v -1.35482553 0.36977066 -0.49651790
v -1.35400059 0.36615417 -0.49612054
v -1.38979280 0.31456060 -0.48900991
v -1.32751160 0.30852510 -0.50776590
v -1.38979280 0.30830246 -0.48992796
v -1.32756396 0.30830246 -0.50777958
v -1.32751160 0.36977066 -0.62886426
v -1.38593013 0.36977066 -0.49333934
v -1.38979280 0.36615417 -0.49246250
v -1.39438881 0.31456060 -0.48890042
v -1.39438881 0.30900049 -0.48957181
v -1.32751160 0.30830246 -0.54437351
v -1.39438881 0.30830246 -0.48968130
v -1.32751160 0.30830246 -0.61145105
v -1.39438881 0.36977066 -0.56330757
v -1.38979280 0.36977066 -0.49332580
v -1.39438881 0.36945174 -0.49329812
v -1.39438881 0.36615417 -0.49251725
v -1.39438881 0.36155685 -0.49205161
v -1.39438881 0.30830246 -0.54577103
v -1.39438881 0.36977066 -0.49338055
f 1 2 6
f 1 6 16
f 1 16 24
f 1 24 26
f 1 26 19
f 1 19 11
f 1 11 10
f 1 10 9
f 1 9 3
f 1 3 4
f 1 4 5
f 1 5 2
f 2 5 7
f 2 7 8
f 2 8 6
f 3 9 4
f 4 9 10
f 4 10 11
f 4 11 12
f 4 12 13
f 4 13 14
f 4 14 5
f 5 14 15
f 5 15 7
f 6 8 16
f 7 15 17
f 7 17 25
f 7 25 32
f 7 32 26
f 7 26 24
f 7 24 18
f 7 18 8
f 8 18 16
f 11 19 27
f 11 27 33
f 11 33 28
f 11 28 20
f 11 20 13
f 11 13 12
f 13 20 21
f 13 21 14
f 14 21 15
f 15 22 23
f 15 23 17
f 15 21 22
f 16 18 24
f 17 23 25
f 19 26 27
f 20 28 21
f 21 29 30
f 21 30 31
f 21 31 22
f 21 28 29
f 22 31 30
f 22 30 29
f 22 29 33
f 22 33 27
f 22 27 32
f 22 32 25
f 22 25 23
f 26 32 27
f 28 33 29

