# https://github.com/mikedh/trimesh
v -1.81293128 0.48198660 -4.78130352
v -1.81293128 0.44544443 -4.66934702
v -1.81293128 0.53697441 -4.78130352
v -1.70229905 0.49413474 -4.78130352
v -1.17654677 0.51467488 -4.78127599
v -1.17654677 0.46116720 -4.65374238
v -1.81293128 0.43742945 -4.64358712
v -1.81293128 0.54403988 -4.70534476
v -1.77817183 0.54690237 -4.78130352
v -1.55516316 0.51110026 -4.78130352
v -1.17654677 0.56314179 -4.78127599
v -1.17654677 0.44033383 -4.53608908
v -1.81293128 0.43881182 -4.60447941
v -1.28668066 0.43924468 -4.53749260
v -1.33825920 0.43895145 -4.53809801
v -1.33825920 0.43895145 -4.51200796
v -1.81293128 0.54596683 -4.65371485
v -1.78994518 0.54808926 -4.70534476
v -1.75094982 0.55266925 -4.70534476
v -1.75163503 0.54959730 -4.78130352
v -1.55516316 0.55980453 -4.78130352
v -1.18346126 0.56316971 -4.78127599
v -1.17654677 0.58007937 -4.64314671
v -1.17654677 0.44033383 -4.51456741
v -1.81293128 0.44783216 -4.50017376
v -1.38977543 0.43949603 -4.51531046
v -1.28668066 0.43924468 -4.51162259
v -1.28668066 0.44315443 -4.50014624
v -1.31489933 0.44307065 -4.50014624
v -1.81293128 0.54572945 -4.65096271
v -1.48956871 0.58007937 -4.50014624
v -1.69930898 0.55674655 -4.70534476
v -1.48956871 0.58007937 -4.50017376
v -1.69930898 0.55326968 -4.78130352
v -1.64779274 0.55576913 -4.78130352
v -1.54451107 0.56036307 -4.78127599
v -1.49293253 0.56146619 -4.78127599
v -1.36548121 0.56245759 -4.78127599
v -1.28668066 0.56287648 -4.78127599
v -1.21074559 0.56311387 -4.78127599
v -1.18346126 0.58007937 -4.64311918
v -1.17654677 0.58007937 -4.50014624
v -1.17654677 0.44515120 -4.50014624
v -1.26244873 0.44350351 -4.50014624
v -1.81293128 0.51125386 -4.50017376
v -1.33825920 0.44344766 -4.50014624
v -1.36298949 0.44429943 -4.50014624
v -1.38977543 0.44647772 -4.50014624
v -1.44135399 0.45093204 -4.50014624
v -1.48850972 0.45523276 -4.50014624
v -1.55503857 0.46321981 -4.50014624
v -1.80252836 0.51513567 -4.50017376
v -1.75393987 0.52969948 -4.50017376
v -1.55503857 0.54525469 -4.50014624
v -1.43630825 0.58007937 -4.58975544
v -1.38971315 0.58007937 -4.61620349
v -1.33825920 0.58007937 -4.62891821
v -1.28668066 0.58007937 -4.63538575
v -1.23510212 0.58007937 -4.63956894
v -1.20133934 0.58007937 -4.64193587
f 1 2 7
f 1 7 13
f 1 13 25
f 1 25 45
f 1 45 30
f 1 30 17
f 1 17 8
f 1 8 3
f 1 3 9
f 1 9 20
f 1 20 34
f 1 34 35
f 1 35 21
f 1 21 10
f 1 10 4
f 1 4 5
f 1 5 6
f 1 6 2
f 2 6 7
f 3 8 9
f 4 10 5
f 5 11 23
f 5 23 42
f 5 42 43
f 5 43 24
f 5 24 12
f 5 12 6
f 5 10 21
f 5 21 11
f 6 12 7
f 7 12 14
f 7 14 15
f 7 15 16
f 7 16 13
f 8 17 18
f 8 18 9
f 9 18 19
f 9 19 20
f 11 21 22
f 11 22 23
f 12 24 27
f 12 27 14
f 13 16 26
f 13 26 25
f 14 27 16
f 14 16 15
f 16 27 28
f 16 28 29
f 16 29 25
f 16 25 26
f 17 19 18
f 17 30 31
f 17 31 19
f 19 32 20
f 19 31 33
f 19 33 32
f 20 32 34
f 21 35 36
f 21 36 37
f 21 37 38
f 21 38 39
f 21 39 40
f 21 40 22
f 22 40 41
f 22 41 23
f 23 41 60
f 23 60 59
f 23 59 58
f 23 58 57
f 23 57 56
f 23 56 55
f 23 55 33
f 23 33 31
f 23 31 42
f 24 43 44
f 24 44 27
f 25 29 46
f 25 46 47
f 25 47 48
f 25 48 49
f 25 49 50
f 25 50 51
f 25 51 54
f 25 54 45
f 27 44 28
f 28 44 43
f 28 43 42
f 28 42 31
f 28 31 54
f 28 54 51
f 28 51 50
f 28 50 49
f 28 49 48
f 28 48 47
f 28 47 46
f 28 46 29
f 30 45 52
f 30 52 53
f 30 53 31
f 31 53 52
f 31 52 45
f 31 45 54
f 32 33 55
f 32 55 34
f 34 55 35
f 35 55 36
f 36 55 56
f 36 56 57
f 36 57 37
f 37 57 58
f 37 58 59
f 37 59 60
f 37 60 38
f 38 60 41
f 38 41 39
f 39 41 40

