# https://github.com/mikedh/trimesh
v -2.78306923 0.55249221 -1.53220673
v -2.78491839 0.55215951 -1.53220673
v -2.78306923 0.49386914 -1.53220673
v -2.78306923 0.54861949 -1.71261215
v -2.80972664 0.54707574 -1.53873655
v -2.80987212 0.54712897 -1.53220673
v -2.90765063 0.41654789 -1.53220673
v -2.85375398 0.41654789 -1.86739075
v -2.78306923 0.46345966 -1.86742358
v -2.78306923 0.54764799 -1.73062647
v -2.83457642 0.52791177 -1.76419407
v -2.83303888 0.53732075 -1.53220673
v -2.88824455 0.50640556 -1.76156910
v -2.89088328 0.50732383 -1.71034809
v -2.98284412 0.41654789 -1.53220673
v -2.85375398 0.41654789 -1.86742358
v -2.78306923 0.51986026 -1.86742358
v -2.78306923 0.54519927 -1.76419407
v -2.83172993 0.50486180 -1.86739075
v -2.87241217 0.50277239 -1.80603063
v -2.88429680 0.51119654 -1.53220673
v -2.91332291 0.49615817 -1.74263596
v -2.90679879 0.49027590 -1.77702397
v -2.98072485 0.41919624 -1.53220673
v -2.99379386 0.41654789 -1.65272859
v -2.92903059 0.41654789 -1.86742358
v -2.83172993 0.50484849 -1.86742358
v -2.78306923 0.53386058 -1.81075565
v -2.85753550 0.49291094 -1.86742358
v -2.89728270 0.50204044 -1.53220673
v -2.91332291 0.49615817 -1.72606545
v -2.96667935 0.44669120 -1.74332504
v -2.96802981 0.44778248 -1.71261215
v -2.88616680 0.46726584 -1.86742358
v -2.91205549 0.44368352 -1.86742358
v -2.96217061 0.44237931 -1.53220673
v -2.99412625 0.41654789 -1.65751934
v -2.97621619 0.41654789 -1.76094569
v -2.92830338 0.41775894 -1.86742358
v -2.91008161 0.49289763 -1.53220673
v -2.99531064 0.41654789 -1.71569660
v -2.96670011 0.44639841 -1.66103022
v -2.95363109 0.45073692 -1.53220673
v -2.93898301 0.46497681 -1.53220673
f 1 2 6
f 1 6 12
f 1 12 21
f 1 21 30
f 1 30 40
f 1 40 44
f 1 44 43
f 1 43 36
f 1 36 24
f 1 24 15
f 1 15 7
f 1 7 3
f 1 3 9
f 1 9 17
f 1 17 28
f 1 28 18
f 1 18 10
f 1 10 4
f 1 4 2
f 2 5 6
f 2 4 5
f 3 7 8
f 3 8 9
f 4 10 11
f 4 11 5
f 5 12 6
f 5 11 13
f 5 13 14
f 5 14 12
f 7 15 25
f 7 25 37
f 7 37 41
f 7 41 38
f 7 38 26
f 7 26 16
f 7 16 8
f 8 16 9
f 9 16 26
f 9 26 39
f 9 39 35
f 9 35 34
f 9 34 29
f 9 29 27
f 9 27 17
f 10 18 11
f 11 18 19
f 11 19 20
f 11 20 13
f 12 14 22
f 12 22 21
f 13 20 23
f 13 23 22
f 13 22 14
f 15 24 25
f 17 27 19
f 17 19 28
f 18 28 19
f 19 27 29
f 19 29 20
f 20 29 23
f 21 22 31
f 21 31 30
f 22 32 33
f 22 33 31
f 22 23 32
f 23 29 34
f 23 34 35
f 23 35 32
f 24 36 25
f 25 36 37
f 26 38 32
f 26 32 39
f 30 31 40
f 31 33 40
f 32 38 41
f 32 41 33
f 32 35 39
f 33 41 37
f 33 37 42
f 33 42 40
f 36 43 42
f 36 42 37
f 40 42 44
f 42 43 44

