# https://github.com/mikedh/trimesh
v -2.57656630 0.52377156 -2.17601585
v -2.57656630 0.52365687 -2.17701694
v -2.62813108 0.52294000 -2.17601585
v -2.16381817 0.52027325 -2.17601585
v -2.57656630 0.50771369 -2.22068482
v -2.69084812 0.50625129 -2.22567026
v -2.62813108 0.52282530 -2.17701694
v -2.69084812 0.52130553 -2.17701694
v -2.69084812 0.52139156 -2.17601585
v -2.11219587 0.51929831 -2.17601585
v -2.16381817 0.51987180 -2.17701694
v -2.69084812 0.49177053 -2.25055756
v -2.11219587 0.51886818 -2.17701694
v -2.10363051 0.51577131 -2.18304352
v -2.10363051 0.50043031 -2.21343687
v -2.10363051 0.49796428 -2.21774154
v -2.10363051 0.48557678 -2.23922514
v -2.69084812 0.45148248 -2.17601585
v -2.10363051 0.51895421 -2.17601585
v -2.69084812 0.47413555 -2.26641493
v -2.10363051 0.48124689 -2.24437074
v -2.10363051 0.45976949 -2.26983869
v -2.10363051 0.51852409 -2.17701694
v -2.69084812 0.23083015 -2.32229622
v -2.68613425 0.23083015 -2.32227615
v -2.67975337 0.23083015 -2.32225616
v -2.37019223 0.45153983 -2.17601585
v -2.10363051 0.45214200 -2.17601585
v -2.69084812 0.46688083 -2.27212120
v -2.10363051 0.45489478 -2.27412337
v -2.10363051 0.43040653 -2.29560697
v -2.69084812 0.23083015 -2.37313194
v -2.65992079 0.23083015 -2.32235627
v -2.11162102 0.45211333 -2.17601585
v -2.10363051 0.23083015 -2.32760205
v -2.62657893 0.23083015 -2.32263660
v -2.69084812 0.44029932 -2.29240342
v -2.10363051 0.42610531 -2.29887050
v -2.69084812 0.26297455 -2.37038895
v -2.47332179 0.23083015 -2.37747667
v -2.10363051 0.23083015 -2.38054006
v -2.69084812 0.43126677 -2.29859024
v -2.10363051 0.40459924 -2.31510831
v -2.69084812 0.29801512 -2.36149920
v -2.52494408 0.30489707 -2.36316099
v -2.37019223 0.26297455 -2.37665581
v -2.42175701 0.23083015 -2.37839772
v -2.10684971 0.23083015 -2.38054006
v -2.10363051 0.26297455 -2.37835766
v -2.52494408 0.40514406 -2.31426739
v -2.57656630 0.40554550 -2.31394707
v -2.69084812 0.41099371 -2.30998271
v -2.16381817 0.40465659 -2.31510831
v -2.10363051 0.39820476 -2.31869223
v -2.69084812 0.40545948 -2.31296597
v -2.37019223 0.30787924 -2.36460257
v -2.31862745 0.26297455 -2.37753680
v -2.31862745 0.23083015 -2.37987936
v -2.26700520 0.23083015 -2.38021974
v -2.11219587 0.26297455 -2.37833767
v -2.10363051 0.30231634 -2.36778605
v -2.10363051 0.36118564 -2.33923480
v -2.10363051 0.33603787 -2.35312998
v -2.11219587 0.33598052 -2.35310999
v -2.16381817 0.33569377 -2.35288978
v -2.21538295 0.33526365 -2.35262944
v -2.31862745 0.30845274 -2.36504306
v -2.26700520 0.30896888 -2.36524328
v -2.26700520 0.26297455 -2.37785712
v -2.28649289 0.23083015 -2.38009957
v -2.11219587 0.31020190 -2.36562372
v -2.10363051 0.31023058 -2.36564371
v -2.16381817 0.30988648 -2.36550354
v -2.21538295 0.30945636 -2.36536345
f 1 2 7
f 1 7 3
f 1 3 9
f 1 9 18
f 1 18 27
f 1 27 34
f 1 34 28
f 1 28 19
f 1 19 10
f 1 10 4
f 1 4 2
f 2 5 6
f 2 6 7
f 2 4 5
f 3 7 8
f 3 8 9
f 4 10 11
f 4 11 5
f 5 12 6
f 5 11 13
f 5 13 14
f 5 14 15
f 5 15 16
f 5 16 17
f 5 17 12
f 6 12 20
f 6 20 29
f 6 29 37
f 6 37 42
f 6 42 52
f 6 52 55
f 6 55 44
f 6 44 39
f 6 39 32
f 6 32 24
f 6 24 18
f 6 18 9
f 6 9 8
f 6 8 7
f 10 19 23
f 10 23 13
f 10 13 11
f 12 17 21
f 12 21 22
f 12 22 20
f 13 23 14
f 14 23 19
f 14 19 28
f 14 28 35
f 14 35 41
f 14 41 49
f 14 49 61
f 14 61 72
f 14 72 63
f 14 63 62
f 14 62 54
f 14 54 43
f 14 43 38
f 14 38 31
f 14 31 30
f 14 30 22
f 14 22 21
f 14 21 17
f 14 17 16
f 14 16 15
f 18 24 25
f 18 25 26
f 18 26 27
f 20 22 30
f 20 30 31
f 20 31 29
f 24 32 40
f 24 40 47
f 24 47 58
f 24 58 70
f 24 70 59
f 24 59 48
f 24 48 41
f 24 41 35
f 24 35 36
f 24 36 33
f 24 33 26
f 24 26 25
f 26 33 28
f 26 28 34
f 26 34 27
f 28 33 36
f 28 36 35
f 29 31 37
f 31 38 37
f 32 39 40
f 37 38 43
f 37 43 42
f 39 44 45
f 39 45 46
f 39 46 40
f 40 46 47
f 41 48 49
f 42 50 51
f 42 51 52
f 42 43 53
f 42 53 50
f 43 54 53
f 44 55 45
f 45 55 56
f 45 56 57
f 45 57 46
f 46 57 47
f 47 57 58
f 48 59 49
f 49 59 60
f 49 60 61
f 50 53 62
f 50 62 63
f 50 63 51
f 51 55 52
f 51 63 64
f 51 64 65
f 51 65 55
f 53 54 62
f 55 65 66
f 55 66 67
f 55 67 56
f 56 67 57
f 57 67 68
f 57 68 69
f 57 69 70
f 57 70 58
f 59 70 69
f 59 69 60
f 60 69 61
f 61 71 72
f 61 69 71
f 63 72 71
f 63 71 73
f 63 73 64
f 64 73 74
f 64 74 68
f 64 68 65
f 65 68 67
f 65 67 66
f 68 74 73
f 68 73 69
f 69 73 71

