# https://github.com/mikedh/trimesh
v -1.80469027 0.40152988 -5.61874069
v -1.80469027 0.31421009 -5.63026702
v -1.80469027 0.40152988 -5.67726056
v -1.87273880 0.40152988 -5.48503510
v -1.80469027 0.31421009 -5.68639704
v -1.91544329 0.31800549 -5.47037864
v -1.91301433 0.31421009 -5.47864798
v -1.80469027 0.36827742 -5.68402857
v -1.83766011 0.40152988 -5.67248087
v -1.88806572 0.40152988 -5.47037864
v -1.85419208 0.31421009 -5.68036961
v -1.80469027 0.31456057 -5.68643949
v -1.91898317 0.31421009 -5.47037864
v -1.80469027 0.36614892 -5.68445146
v -1.85419208 0.36614892 -5.67700682
v -1.85428623 0.40152988 -5.66996416
v -1.96021898 0.40152988 -5.47037864
v -1.85419208 0.31456057 -5.68039083
v -1.89055115 0.31421009 -5.66713036
v -1.99684167 0.31421009 -5.47037864
v -1.88723723 0.36614892 -5.66499410
v -1.88301950 0.40152988 -5.66209664
v -1.96029429 0.40152988 -5.47541222
v -1.97415255 0.37296182 -5.47934598
v -1.97025491 0.38073213 -5.47037864
v -1.89058881 0.31456057 -5.66713036
v -1.91636591 0.31421009 -5.64153962
v -1.91636591 0.31456057 -5.64160313
v -1.99674752 0.31456057 -5.47037864
v -1.99704878 0.31421009 -5.47934598
v -1.97556472 0.31421009 -5.57513085
v -1.91632825 0.36979899 -5.63132454
v -1.93090202 0.38942564 -5.60755282
v -1.90480483 0.40152988 -5.63553325
v -1.96035079 0.40152988 -5.47934598
v -1.95741344 0.40152988 -5.53224023
v -1.98509228 0.34495794 -5.52088306
v -1.98595841 0.34717193 -5.47934598
v -1.97403956 0.37267118 -5.47037864
v -1.98584544 0.34688128 -5.47037864
v -1.99695463 0.31456057 -5.47934598
v -1.99424324 0.31421009 -5.53484152
v -1.99168248 0.31421009 -5.54609305
v -1.98292693 0.33991451 -5.55529289
v -1.92918856 0.40152988 -5.60319602
v -1.97479274 0.36374687 -5.53522227
v -1.94255725 0.40152988 -5.57686515
v -1.99279340 0.31945868 -5.53522227
f 1 2 5
f 1 5 12
f 1 12 14
f 1 14 8
f 1 8 3
f 1 3 9
f 1 9 16
f 1 16 22
f 1 22 34
f 1 34 45
f 1 45 47
f 1 47 36
f 1 36 35
f 1 35 23
f 1 23 17
f 1 17 10
f 1 10 4
f 1 4 2
f 2 4 6
f 2 6 7
f 2 7 13
f 2 13 20
f 2 20 30
f 2 30 42
f 2 42 43
f 2 43 31
f 2 31 27
f 2 27 19
f 2 19 11
f 2 11 5
f 3 8 9
f 4 10 6
f 5 11 12
f 6 13 7
f 6 10 17
f 6 17 25
f 6 25 39
f 6 39 40
f 6 40 29
f 6 29 20
f 6 20 13
f 8 14 9
f 9 14 15
f 9 15 16
f 11 18 12
f 11 19 18
f 12 18 14
f 14 18 15
f 15 18 21
f 15 21 22
f 15 22 16
f 17 23 24
f 17 24 25
f 18 26 21
f 18 19 26
f 19 27 28
f 19 28 26
f 20 29 41
f 20 41 30
f 21 28 31
f 21 31 32
f 21 32 22
f 21 26 28
f 22 32 33
f 22 33 34
f 23 35 24
f 24 35 36
f 24 36 37
f 24 37 38
f 24 38 40
f 24 40 39
f 24 39 25
f 27 31 28
f 29 40 38
f 29 38 41
f 30 41 42
f 31 43 44
f 31 44 33
f 31 33 32
f 33 45 34
f 33 44 45
f 36 44 46
f 36 46 37
f 36 47 44
f 37 46 44
f 37 44 48
f 37 48 41
f 37 41 38
f 41 48 42
f 42 48 44
f 42 44 43
f 44 47 45

