# https://github.com/mikedh/trimesh
v -1.24381953 0.28183161 -1.86741451
v -1.22562152 0.20542340 -1.86741451
v -1.24083353 0.28183161 -1.84874118
v -1.16182077 0.28183161 -1.86741451
v -1.21741004 0.20542340 -1.82427823
v -1.14027181 0.20542340 -1.86741451
v -1.23413163 0.28183161 -1.81447950
v -1.16138946 0.28082181 -1.86741451
v -1.10775766 0.28183161 -1.78395514
v -1.09548189 0.25059512 -1.79746412
v -1.16905350 0.20542340 -1.72858739
v -1.14022206 0.21136252 -1.86741451
v -1.08954308 0.21136252 -1.80258780
v -1.09038912 0.20542340 -1.80204412
v -1.21603316 0.28183161 -1.78282719
v -1.15075600 0.25502330 -1.86741451
v -1.10614854 0.28183161 -1.77967415
v -1.09169964 0.26585433 -1.76491482
v -1.07436424 0.21136252 -1.76422175
v -1.17461080 0.28183161 -1.72858739
v -1.08435077 0.20542340 -1.72858739
v -1.07676962 0.20542340 -1.76422175
v -1.09833518 0.28183161 -1.75541511
v -1.09861717 0.28183161 -1.72858739
v -1.09145079 0.26384222 -1.72858739
v -1.08226056 0.21136252 -1.72858739
v -1.07846170 0.20542340 -1.75521121
f 1 2 3
f 1 3 7
f 1 7 15
f 1 15 20
f 1 20 24
f 1 24 23
f 1 23 17
f 1 17 9
f 1 9 4
f 1 4 8
f 1 8 16
f 1 16 12
f 1 12 6
f 1 6 2
f 2 5 3
f 2 6 14
f 2 14 22
f 2 22 27
f 2 27 21
f 2 21 11
f 2 11 5
f 3 5 7
f 4 9 10
f 4 10 8
f 5 11 7
f 6 12 13
f 6 13 14
f 7 11 15
f 8 10 16
f 9 17 18
f 9 18 10
f 10 18 19
f 10 19 13
f 10 13 16
f 11 20 15
f 11 21 26
f 11 26 25
f 11 25 24
f 11 24 20
f 12 16 13
f 13 19 14
f 14 19 22
f 17 23 18
f 18 23 24
f 18 24 25
f 18 25 19
f 19 25 26
f 19 26 21
f 19 21 27
f 19 27 22

