# https://github.com/mikedh/trimesh
v -1.17654677 0.51469487 -4.78127906
v -1.17654677 0.46115724 -4.65376037
v -1.17654677 0.56317124 -4.78127906
v -0.84543990 0.51270847 -4.78127906
v -0.84543990 0.45891234 -4.65376037
v -1.02859231 0.43949729 -4.53913478
v -1.17654677 0.44032723 -4.53609092
v -1.17654677 0.57847742 -4.64693038
v -1.13178768 0.57847742 -4.64712844
v -1.08019000 0.56311683 -4.78127906
v -0.84543990 0.56138893 -4.78127906
v -0.84543990 0.45718444 -4.60216399
v -0.89982495 0.44336126 -4.52849374
v -0.90374664 0.44284424 -4.52849374
v -0.92542930 0.44145649 -4.53549704
v -0.97702699 0.43968777 -4.54163426
v -1.02859231 0.43949729 -4.52849374
v -1.05902587 0.43961974 -4.52849374
v -1.08019000 0.43971498 -4.53742724
v -1.17654677 0.44032723 -4.52849374
v -1.17654677 0.57847742 -4.52849374
v -1.09270050 0.57847742 -4.64574261
v -0.90105655 0.56287193 -4.78127906
v -0.84543990 0.56442295 -4.70533215
v -0.84945878 0.56155219 -4.78127906
v -0.96007626 0.57847742 -4.62725696
v -0.92565620 0.57847742 -4.59533400
v -0.88922666 0.57847742 -4.52849374
v -0.84543990 0.45952458 -4.52849374
v -0.89681077 0.44408234 -4.52849374
v -0.92542930 0.44145649 -4.52849374
v -0.94507012 0.44077621 -4.52849374
v -0.97702699 0.43968777 -4.52849374
v -1.08019000 0.43971498 -4.52849374
v -1.08019000 0.57847742 -4.64504969
v -1.04538103 0.57847742 -4.64277303
v -1.02859231 0.57847742 -4.64091710
v -1.00143219 0.57847742 -4.63698226
v -0.84543990 0.56333452 -4.65376037
v -0.84543990 0.53084459 -4.52849374
v -0.84543990 0.55874946 -4.63500269
f 1 2 7
f 1 7 20
f 1 20 21
f 1 21 8
f 1 8 3
f 1 3 10
f 1 10 23
f 1 23 25
f 1 25 11
f 1 11 4
f 1 4 5
f 1 5 2
f 2 6 7
f 2 5 6
f 3 8 9
f 3 9 10
f 4 11 24
f 4 24 39
f 4 39 41
f 4 41 40
f 4 40 29
f 4 29 12
f 4 12 5
f 5 12 13
f 5 13 14
f 5 14 15
f 5 15 16
f 5 16 6
f 6 17 18
f 6 18 19
f 6 19 7
f 6 16 33
f 6 33 17
f 7 19 34
f 7 34 20
f 8 21 28
f 8 28 27
f 8 27 26
f 8 26 38
f 8 38 37
f 8 37 36
f 8 36 35
f 8 35 22
f 8 22 9
f 9 22 23
f 9 23 10
f 11 25 26
f 11 26 27
f 11 27 28
f 11 28 24
f 12 29 30
f 12 30 13
f 13 30 29
f 13 29 40
f 13 40 28
f 13 28 21
f 13 21 20
f 13 20 34
f 13 34 18
f 13 18 17
f 13 17 33
f 13 33 32
f 13 32 31
f 13 31 14
f 14 31 15
f 15 31 32
f 15 32 16
f 16 32 33
f 18 34 19
f 22 35 23
f 23 26 25
f 23 35 36
f 23 36 37
f 23 37 38
f 23 38 26
f 24 28 39
f 28 40 41
f 28 41 39

