# https://github.com/mikedh/trimesh
v -2.98820339 0.05048725 -1.33626680
v -2.95273034 0.05970431 -1.33626680
v -3.02957085 0.07226129 -1.33626680
v -2.98299836 0.05762579 -1.50659169
v -2.94683600 0.05762579 -1.50659169
v -2.94683600 0.05761145 -1.50620817
v -2.94671721 0.05758281 -1.45460718
v -2.95252835 0.09240123 -1.33626680
v -2.94756091 0.06030635 -1.40303955
v -2.95101911 0.06214117 -1.35143871
v -3.05073575 0.10816915 -1.33626680
v -3.04917907 0.10816915 -1.35143871
v -3.03031944 0.11513569 -1.50659169
v -2.94683600 0.10335275 -1.50659169
v -2.94671721 0.10067223 -1.45460718
v -2.99866113 0.19691382 -1.33626680
v -2.95101911 0.09383466 -1.35143871
v -2.94756091 0.09759031 -1.40303955
v -3.05484759 0.15975888 -1.33626680
v -3.06777713 0.18144694 -1.41572736
v -3.06810990 0.18064421 -1.45460718
v -3.06755139 0.18312407 -1.48705175
v -3.05892375 0.15485650 -1.45460718
v -3.05571520 0.16341417 -1.50659169
v -3.00069329 0.19691382 -1.50659169
v -3.00066953 0.19691382 -1.50632489
v -2.94683600 0.10333841 -1.50620817
v -3.05068824 0.19691382 -1.33626680
v -3.06764642 0.19691382 -1.41734447
v -3.06797919 0.19691382 -1.45190640
v -3.06755139 0.19235546 -1.48705175
v -3.06529348 0.19691382 -1.49161984
v -3.05780671 0.19691382 -1.50659169
v -3.06762274 0.19691382 -1.47758172
f 1 2 8
f 1 8 16
f 1 16 28
f 1 28 19
f 1 19 11
f 1 11 3
f 1 3 4
f 1 4 5
f 1 5 6
f 1 6 7
f 1 7 2
f 2 7 9
f 2 9 10
f 2 10 8
f 3 11 12
f 3 12 13
f 3 13 4
f 4 13 24
f 4 24 33
f 4 33 25
f 4 25 14
f 4 14 5
f 5 14 15
f 5 15 7
f 5 7 6
f 7 15 18
f 7 18 9
f 8 10 17
f 8 17 16
f 9 18 17
f 9 17 10
f 11 19 20
f 11 20 21
f 11 21 22
f 11 22 23
f 11 23 12
f 12 23 13
f 13 23 24
f 14 25 26
f 14 26 16
f 14 16 27
f 14 27 15
f 15 27 16
f 15 16 18
f 16 17 18
f 16 26 25
f 16 25 33
f 16 33 32
f 16 32 34
f 16 34 30
f 16 30 29
f 16 29 28
f 19 28 29
f 19 29 20
f 20 29 30
f 20 30 21
f 21 30 31
f 21 31 22
f 22 31 32
f 22 32 33
f 22 33 24
f 22 24 23
f 30 34 31
f 31 34 32

