# https://github.com/mikedh/trimesh
v -1.17654677 0.86441754 -4.08974412
v -1.17654677 0.86441754 -4.12249471
v -1.17654677 0.84455740 -4.06394893
v -1.13175377 0.84739454 -4.06796766
v -0.58226942 0.85691278 -4.10951981
v -1.10557922 0.85430442 -4.13236964
v -1.17654677 0.86135154 -4.12592086
v -0.58226942 0.85691278 -4.11327234
v -0.61237321 0.84519807 -4.13236964
v -1.17654677 0.81874837 -4.05860788
v -1.13175377 0.82158551 -4.05670159
v -0.57592221 0.81376043 -4.05644402
v -0.56189801 0.83169863 -4.08863639
v -0.55905691 0.82977669 -4.09021637
v -1.17654677 0.85457899 -4.13236964
v -0.55905691 0.82977669 -4.09165903
v -0.55905691 0.82693955 -4.12727763
v -0.56552491 0.83041736 -4.13109882
v -0.56606897 0.82986823 -4.13236964
v -1.17654677 0.65272857 -4.04465411
v -1.08019053 0.77893655 -4.04944564
v -1.02856678 0.77893655 -4.04884453
v -0.61581880 0.77893655 -4.04983208
v -0.58251124 0.63707841 -4.04465411
v -0.57924694 0.62989398 -4.04465411
v -0.56431600 0.58266895 -4.04465411
v -0.56201888 0.57255584 -4.04465411
v -0.55905691 0.55800394 -4.04465411
v -0.55905691 0.77792985 -4.07188327
v -1.17654677 0.43522801 -4.13236964
v -0.55905691 0.80987080 -4.13236964
v -1.17654677 0.39884826 -4.04465411
v -1.02856678 0.71885277 -4.04465411
v -0.97694303 0.73326739 -4.04465411
v -0.81439485 0.73477750 -4.04465411
v -0.71175185 0.73523510 -4.04465411
v -0.66538725 0.72937775 -4.04465411
v -0.55905691 0.41161549 -4.04465411
v -1.17654677 0.43321454 -4.12886622
v -1.08538918 0.43371791 -4.13236964
v -1.08019053 0.43211628 -4.12985370
v -0.55905691 0.44762916 -4.13236964
v -1.08019053 0.39692630 -4.04465411
v -0.82225323 0.43490768 -4.12805043
v -0.66744256 0.44213787 -4.13236964
v -0.61581880 0.44428863 -4.13236964
v -0.97192576 0.39990074 -4.04465411
v -1.08019053 0.43367214 -4.13236964
v -1.02856678 0.43344334 -4.13236964
v -1.02856678 0.43252812 -4.13079827
v -0.97694303 0.43293997 -4.13139938
v -0.92537979 0.43335182 -4.13038607
v -0.87375603 0.43385519 -4.12914102
v -1.07257390 0.39710935 -4.04465411
v -0.82225323 0.43719572 -4.13236964
v -1.02221965 0.39848217 -4.04465411
v -0.97694303 0.43348911 -4.13236964
v -0.92918807 0.43435856 -4.13236964
v -0.87992186 0.43550256 -4.13236964
f 1 2 7
f 1 7 15
f 1 15 30
f 1 30 39
f 1 39 32
f 1 32 20
f 1 20 10
f 1 10 3
f 1 3 4
f 1 4 5
f 1 5 8
f 1 8 2
f 2 6 7
f 2 8 9
f 2 9 6
f 3 10 11
f 3 11 12
f 3 12 4
f 4 12 5
f 5 12 13
f 5 13 14
f 5 14 16
f 5 16 8
f 6 15 7
f 6 9 19
f 6 19 31
f 6 31 42
f 6 42 46
f 6 46 45
f 6 45 55
f 6 55 59
f 6 59 58
f 6 58 57
f 6 57 49
f 6 49 48
f 6 48 40
f 6 40 30
f 6 30 15
f 8 16 17
f 8 17 18
f 8 18 19
f 8 19 9
f 10 20 21
f 10 21 11
f 11 21 22
f 11 22 12
f 12 23 24
f 12 24 25
f 12 25 26
f 12 26 27
f 12 27 28
f 12 28 29
f 12 29 14
f 12 14 13
f 12 22 23
f 14 29 28
f 14 28 38
f 14 38 42
f 14 42 31
f 14 31 17
f 14 17 16
f 17 31 19
f 17 19 18
f 20 32 43
f 20 43 54
f 20 54 56
f 20 56 47
f 20 47 38
f 20 38 28
f 20 28 27
f 20 27 26
f 20 26 25
f 20 25 24
f 20 24 37
f 20 37 36
f 20 36 35
f 20 35 34
f 20 34 33
f 20 33 21
f 21 33 34
f 21 34 22
f 22 34 35
f 22 35 36
f 22 36 23
f 23 36 37
f 23 37 24
f 30 40 41
f 30 41 39
f 32 39 43
f 38 44 45
f 38 45 46
f 38 46 42
f 38 47 44
f 39 41 43
f 40 48 41
f 41 48 49
f 41 49 50
f 41 50 43
f 43 50 51
f 43 51 52
f 43 52 53
f 43 53 54
f 44 53 55
f 44 55 45
f 44 47 53
f 47 56 53
f 49 57 50
f 50 57 51
f 51 57 58
f 51 58 52
f 52 58 53
f 53 56 54
f 53 58 59
f 53 59 55

