# https://github.com/mikedh/trimesh
v -3.05780087 0.19691384 -1.50659169
v -3.00069505 0.19691384 -1.50659169
v -3.06528087 0.19691384 -1.49159662
v -3.05870461 0.21037009 -1.50659169
v -2.94822722 0.36410677 -1.50659169
v -2.94650292 0.36649278 -1.50655663
v -2.94650292 0.31857904 -1.45907823
v -2.94649101 0.19691384 -1.25343222
v -3.06762366 0.19691384 -1.47754989
v -3.05040390 0.26299137 -1.50659169
v -2.94650292 0.40802231 -1.50659169
v -2.94649101 0.28796928 -1.35105796
v -2.94649101 0.19691384 -1.16395373
v -3.06798042 0.19691384 -1.45187918
v -3.06784956 0.21030562 -1.44966679
v -3.06676743 0.23728262 -1.42915837
v -3.03949883 0.31417244 -1.50659169
v -2.94650292 0.41647009 -1.50659169
v -2.94649101 0.41651308 -1.35105796
v -2.94649101 0.20299711 -1.16110932
v -2.95259163 0.19691384 -1.16542875
v -3.06763550 0.19691384 -1.41732387
v -3.06752847 0.21138040 -1.41883396
v -3.06676743 0.23728262 -1.42859647
v -3.03940380 0.31453787 -1.50659169
v -2.98173908 0.41636261 -1.50659169
v -2.98160829 0.41651308 -1.50648635
v -2.94650292 0.41651308 -1.50620540
v -2.94649101 0.41651308 -1.22463616
v -2.94649101 0.24661171 -1.14825636
v -2.99465394 0.19691384 -1.19264446
v -3.04665790 0.19691384 -1.29982203
v -3.03285122 0.31453787 -1.35140903
v -3.03826216 0.31453787 -1.40303125
v -3.04468387 0.21138040 -1.29982203
v -3.03550310 0.26299137 -1.29982203
v -3.02317113 0.35415430 -1.50659169
v -2.98194130 0.41608317 -1.50659169
v -2.98412938 0.41651308 -1.40303125
v -2.95457758 0.41651308 -1.24317809
v -2.96297340 0.39058936 -1.22428509
v -2.94649101 0.40578677 -1.20886867
v -2.94649101 0.26015394 -1.14808075
v -3.02094721 0.19691384 -1.21497898
v -3.03546742 0.19691384 -1.24827010
v -3.03277987 0.31451637 -1.35105796
v -3.03266100 0.31486030 -1.35105796
v -3.01969855 0.34931778 -1.35105796
v -3.01973422 0.34938226 -1.35140903
v -3.02181543 0.35297203 -1.40303125
v -3.03324366 0.21138040 -1.24827010
v -3.02161322 0.25985302 -1.24970975
v -3.01733208 0.29465442 -1.26786540
v -3.02136349 0.31290420 -1.30280699
v -3.02302843 0.35447673 -1.50659169
v -3.00753304 0.38027147 -1.50659169
v -3.00769950 0.37876678 -1.40303125
v -2.98246452 0.41651308 -1.35502617
v -2.95529111 0.41651308 -1.24535526
v -2.96851513 0.40082128 -1.25862957
v -3.00382272 0.31290420 -1.24970975
v -2.97033462 0.35617488 -1.21083516
v -2.94649101 0.36988909 -1.17807089
v -2.94649101 0.37900323 -1.18537528
v -3.00120644 0.36251610 -1.30280699
v -3.01629747 0.34291209 -1.32194573
v -3.01079142 0.32900442 -1.28756603
v -2.94649101 0.31200138 -1.14783501
v -3.01969855 0.21138040 -1.21627824
v -3.02570414 0.19691384 -1.22523312
v -3.00702166 0.37481158 -1.35105796
v -3.00691463 0.37517701 -1.35140903
v -3.01614292 0.24057144 -1.22091384
v -3.01102931 0.27498593 -1.23348570
v -2.98223855 0.41651308 -1.35105796
v -2.97213034 0.41651308 -1.29982203
v -2.97518658 0.41139713 -1.29982203
v -2.94649101 0.34454575 -1.16195202
v -3.00670057 0.37543496 -1.35105796
v -2.98203641 0.41651308 -1.34754616
v -2.97333142 0.41651308 -1.30414131
f 1 2 8
f 1 8 13
f 1 13 21
f 1 21 31
f 1 31 44
f 1 44 70
f 1 70 45
f 1 45 32
f 1 32 22
f 1 22 14
f 1 14 9
f 1 9 3
f 1 3 4
f 1 4 10
f 1 10 17
f 1 17 25
f 1 25 37
f 1 37 55
f 1 55 56
f 1 56 38
f 1 38 26
f 1 26 18
f 1 18 11
f 1 11 5
f 1 5 2
f 2 5 6
f 2 6 7
f 2 7 8
f 3 9 10
f 3 10 4
f 5 11 6
f 6 11 12
f 6 12 7
f 7 12 8
f 8 12 19
f 8 19 29
f 8 29 42
f 8 42 64
f 8 64 63
f 8 63 78
f 8 78 68
f 8 68 43
f 8 43 30
f 8 30 20
f 8 20 13
f 9 14 15
f 9 15 16
f 9 16 10
f 10 16 17
f 11 18 19
f 11 19 12
f 13 20 21
f 14 22 15
f 15 22 23
f 15 23 24
f 15 24 16
f 16 24 25
f 16 25 17
f 18 26 27
f 18 27 28
f 18 28 19
f 19 28 27
f 19 27 39
f 19 39 58
f 19 58 75
f 19 75 80
f 19 80 81
f 19 81 76
f 19 76 59
f 19 59 40
f 19 40 29
f 20 30 21
f 21 30 31
f 22 32 23
f 23 32 24
f 24 33 34
f 24 34 25
f 24 32 35
f 24 35 36
f 24 36 33
f 25 34 37
f 26 38 39
f 26 39 27
f 29 40 41
f 29 41 42
f 30 43 44
f 30 44 31
f 32 45 35
f 33 46 47
f 33 47 48
f 33 48 49
f 33 49 34
f 33 36 46
f 34 49 50
f 34 50 37
f 35 45 51
f 35 51 36
f 36 51 52
f 36 52 53
f 36 53 54
f 36 54 46
f 37 50 55
f 38 56 39
f 39 56 57
f 39 57 58
f 40 59 60
f 40 60 41
f 41 61 62
f 41 62 63
f 41 63 64
f 41 64 42
f 41 60 65
f 41 65 66
f 41 66 67
f 41 67 61
f 43 68 44
f 44 68 69
f 44 69 70
f 45 70 69
f 45 69 51
f 46 54 66
f 46 66 47
f 47 66 48
f 48 66 71
f 48 71 72
f 48 72 49
f 49 72 50
f 50 57 55
f 50 72 57
f 51 69 73
f 51 73 52
f 52 73 74
f 52 74 53
f 53 74 61
f 53 61 67
f 53 67 66
f 53 66 54
f 55 57 56
f 57 72 58
f 58 72 75
f 59 76 77
f 59 77 60
f 60 77 65
f 61 74 62
f 62 78 63
f 62 74 73
f 62 73 78
f 65 77 66
f 66 77 79
f 66 79 71
f 68 78 73
f 68 73 69
f 71 79 72
f 72 79 80
f 72 80 75
f 76 81 77
f 77 81 79
f 79 81 80

