# https://github.com/mikedh/trimesh
v -1.38880502 0.36977667 -0.49333811
v -1.38880502 0.52093624 -0.51011760
v -1.39173197 0.52093624 -0.50794120
v -1.39205521 0.52093624 -0.50775390
v -1.41020954 0.50423115 -0.49909489
v -1.44140053 0.50832974 -0.49860373
v -1.57225179 0.36977667 -0.49310406
v -1.38880502 0.36977667 -0.56249225
v -1.38880502 0.52093624 -0.73215974
v -1.44140053 0.52093624 -0.50010136
v -1.49299043 0.50735318 -0.49855667
v -1.54458035 0.50648020 -0.49853330
v -1.57225179 0.50608070 -0.49853330
v -1.57225179 0.36977667 -0.55930953
v -1.38941555 0.36977667 -0.56356868
v -1.38880502 0.36999862 -0.56408353
v -1.38880502 0.41919650 -0.73215974
v -1.57225179 0.52093624 -0.73215974
v -1.46682736 0.52093624 -0.50014811
v -1.51663955 0.52093624 -0.50035878
v -1.57225179 0.51805096 -0.50024176
v -1.57225179 0.42952436 -0.73215974
v -1.57225179 0.52093624 -0.50070985
v -1.56664926 0.52093624 -0.50066295
f 1 2 3
f 1 3 4
f 1 4 5
f 1 5 6
f 1 6 7
f 1 7 14
f 1 14 15
f 1 15 8
f 1 8 16
f 1 16 17
f 1 17 9
f 1 9 2
f 2 9 18
f 2 18 23
f 2 23 24
f 2 24 20
f 2 20 19
f 2 19 10
f 2 10 4
f 2 4 3
f 4 10 5
f 5 10 6
f 6 10 11
f 6 11 7
f 7 11 12
f 7 12 13
f 7 13 21
f 7 21 23
f 7 23 18
f 7 18 22
f 7 22 14
f 8 15 16
f 9 17 22
f 9 22 18
f 10 19 13
f 10 13 12
f 10 12 11
f 13 19 20
f 13 20 21
f 14 22 17
f 14 17 15
f 15 17 16
f 20 24 21
f 21 24 23

