# https://github.com/mikedh/trimesh
v -1.76900149 0.85907326 -4.26292334
v -1.76900149 0.85907326 -4.27886783
v -1.78713019 0.85907326 -4.26292334
v -1.74752595 0.82821505 -4.23983308
v -1.64779020 0.82725925 -4.23983308
v -1.52579797 0.82564810 -4.23983308
v -1.52579797 0.83490557 -4.29257617
v -1.69935938 0.83446861 -4.34417686
v -1.78713019 0.85907326 -4.27886783
v -1.52579797 0.83299397 -4.31136438
v -1.52579797 0.82960777 -4.34417686
v -1.64779020 0.83375862 -4.34417686
v -1.79767273 0.83452324 -4.29466646
v -1.79485581 0.83053623 -4.25585046
v -1.79083960 0.77449994 -4.23983308
v -1.52579797 0.58009319 -4.23983308
v -1.69935938 0.81180285 -4.37613873
v -1.74995240 0.82551154 -4.34626715
v -1.52579797 0.81207592 -4.37910400
v -1.59619313 0.81245825 -4.37927408
v -1.64779020 0.81300442 -4.37832620
v -1.78746488 0.81999530 -4.33046852
v -1.81072539 0.77892386 -4.29257617
v -1.79134162 0.77698497 -4.34626715
v -1.80662551 0.58009319 -4.23983308
v -1.52579797 0.58009319 -4.48813874
v -1.52579797 0.77605646 -4.41777407
v -1.52579797 0.75890696 -4.43075328
v -1.69935938 0.77892386 -4.39728456
v -1.73207471 0.80855317 -4.37302752
v -1.76649136 0.79290562 -4.36483660
v -1.77901411 0.75849734 -4.37232276
v -1.80280454 0.58009319 -4.39575325
v -1.80350180 0.58009319 -4.38821850
v -1.79998762 0.72733874 -4.34417686
v -1.79025390 0.58009319 -4.43340255
v -1.78180314 0.62416855 -4.42846862
v -1.78816213 0.58009319 -4.43816655
v -1.52579797 0.59216340 -4.48466308
v -1.66064763 0.58009319 -4.48157617
v -1.69935938 0.60286819 -4.47440618
v -1.64779020 0.60726480 -4.47569421
v -1.64779020 0.75016835 -4.42008318
v -1.52579797 0.74574443 -4.43661094
v -1.69935938 0.67575365 -4.44852064
v -1.69935938 0.71799935 -4.42961088
v -1.69935938 0.74377824 -4.41689908
v -1.73263252 0.71021654 -4.42577061
v -1.76704917 0.68585766 -4.41400670
v -1.77736858 0.65147671 -4.42219776
v -1.76465060 0.58009319 -4.46021167
v -1.52579797 0.72733874 -4.44453459
v -1.64779020 0.63307101 -4.46811102
v -1.69935938 0.58009319 -4.47965611
v -1.72552049 0.59871736 -4.47326377
v -1.69935938 0.62867440 -4.46623940
v -1.64779020 0.67575365 -4.45321160
v -1.75918410 0.58009319 -4.46385740
v -1.75028709 0.67149357 -4.43131226
v -1.70691766 0.58009319 -4.47904839
v -1.73291143 0.58009319 -4.47537835
f 1 2 9
f 1 9 3
f 1 3 4
f 1 4 5
f 1 5 6
f 1 6 7
f 1 7 2
f 2 8 9
f 2 7 10
f 2 10 11
f 2 11 12
f 2 12 8
f 3 9 13
f 3 13 14
f 3 14 4
f 4 14 15
f 4 15 25
f 4 25 16
f 4 16 6
f 4 6 5
f 6 16 26
f 6 26 39
f 6 39 52
f 6 52 44
f 6 44 28
f 6 28 27
f 6 27 19
f 6 19 11
f 6 11 10
f 6 10 7
f 8 17 18
f 8 18 9
f 8 12 19
f 8 19 20
f 8 20 21
f 8 21 17
f 9 22 13
f 9 18 22
f 11 19 12
f 13 23 14
f 13 22 24
f 13 24 23
f 14 23 25
f 14 25 15
f 16 25 34
f 16 34 33
f 16 33 36
f 16 36 38
f 16 38 51
f 16 51 58
f 16 58 61
f 16 61 60
f 16 60 54
f 16 54 40
f 16 40 26
f 17 21 27
f 17 27 28
f 17 28 29
f 17 29 30
f 17 30 18
f 18 30 22
f 19 27 20
f 20 27 21
f 22 30 31
f 22 31 32
f 22 32 24
f 23 33 34
f 23 34 25
f 23 24 35
f 23 35 36
f 23 36 33
f 24 37 38
f 24 38 36
f 24 36 35
f 24 32 37
f 26 40 41
f 26 41 42
f 26 42 39
f 28 43 29
f 28 44 45
f 28 45 46
f 28 46 43
f 29 47 30
f 29 43 47
f 30 47 48
f 30 48 31
f 31 48 49
f 31 49 32
f 32 49 50
f 32 50 37
f 37 50 51
f 37 51 38
f 39 42 53
f 39 53 52
f 40 54 41
f 41 54 55
f 41 55 56
f 41 56 53
f 41 53 42
f 43 46 47
f 44 52 45
f 45 56 55
f 45 55 48
f 45 48 46
f 45 52 57
f 45 57 56
f 46 48 47
f 48 55 58
f 48 58 59
f 48 59 49
f 49 59 50
f 50 59 58
f 50 58 51
f 52 53 56
f 52 56 57
f 54 60 55
f 55 60 61
f 55 61 58

