# https://github.com/mikedh/trimesh
v -0.55899648 0.31976393 -3.97523486
v -0.55899648 0.31455746 -3.97539625
v -0.52622390 0.35100284 -3.97727371
v -0.52622390 0.35253525 -3.97722973
v -0.52622390 0.36621612 -3.97722973
v -0.55899648 0.36614226 -3.97524955
v -0.52622390 0.31455746 -3.97846179
v -0.55899648 0.26817912 -3.97874043
v -0.52622390 0.36621612 -4.03846729
v -0.55899648 0.36621612 -3.97526423
v -0.52622390 0.30093197 -3.97944450
v -0.55899648 0.26297265 -3.97941520
v -0.52622390 0.29939956 -3.97963518
v -0.55881364 0.36621612 -4.02550107
v -0.52622390 0.20679061 -4.12336394
v -0.55899648 0.36621612 -4.02484099
v -0.52622390 0.26297265 -3.98435820
v -0.55899648 0.22287163 -3.99392150
v -0.55899648 0.36614226 -4.02541304
v -0.52622390 0.19864856 -4.12506532
v -0.55899648 0.20902460 -4.08169299
v -0.52622390 0.25119343 -3.98862650
v -0.55899648 0.21908678 -3.99531494
v -0.52622390 0.22370245 -3.99870318
v -0.52622390 0.18361990 -4.12164779
v -0.53848152 0.18552158 -4.11209910
v -0.53848152 0.18566929 -4.11209910
v -0.55899648 0.17893037 -4.08491992
v -0.52622390 0.21688972 -4.00483426
v -0.55899648 0.19589761 -4.01623111
v -0.52622390 0.17841343 -4.08579991
v -0.55899648 0.17760107 -4.04462774
v -0.52622390 0.21611428 -4.00559699
v -0.55899648 0.19329438 -4.01882724
v -0.52622390 0.17979813 -4.04958542
v -0.52622390 0.19789159 -4.02378493
f 1 2 3
f 1 3 4
f 1 4 5
f 1 5 6
f 1 6 10
f 1 10 16
f 1 16 19
f 1 19 21
f 1 21 28
f 1 28 32
f 1 32 34
f 1 34 30
f 1 30 23
f 1 23 18
f 1 18 12
f 1 12 8
f 1 8 2
f 2 7 3
f 2 8 7
f 3 7 11
f 3 11 13
f 3 13 17
f 3 17 22
f 3 22 24
f 3 24 29
f 3 29 33
f 3 33 36
f 3 36 35
f 3 35 31
f 3 31 25
f 3 25 20
f 3 20 15
f 3 15 9
f 3 9 5
f 3 5 4
f 5 9 14
f 5 14 16
f 5 16 10
f 5 10 6
f 7 8 11
f 8 12 13
f 8 13 11
f 9 15 14
f 12 17 13
f 12 18 17
f 14 19 16
f 14 15 19
f 15 20 21
f 15 21 19
f 17 18 22
f 18 23 24
f 18 24 22
f 20 25 26
f 20 26 27
f 20 27 21
f 21 27 28
f 23 29 24
f 23 30 29
f 25 31 28
f 25 28 26
f 26 28 27
f 28 31 32
f 29 30 33
f 30 34 33
f 31 35 32
f 32 35 34
f 33 34 36
f 34 35 36

