# https://github.com/mikedh/trimesh
v -1.13176815 0.57849104 -4.64711645
v -1.17654677 0.57849104 -4.64690839
v -1.13176815 0.71602697 -4.58429637
v -1.09267466 0.57849104 -4.64572969
v -1.17654677 0.71547918 -4.58413460
v -1.17654677 0.57849104 -4.41099821
v -1.13176815 0.74183600 -4.56758608
v -1.08016739 0.73996091 -4.56747044
v -1.08016739 0.71415186 -4.58272477
v -1.08016739 0.57849104 -4.64501325
v -1.17654677 0.74126716 -4.56677706
v -1.17654677 0.74120396 -4.41099821
v -0.83490497 0.57849104 -4.41099821
v -1.13176815 0.76518003 -4.54176928
v -1.08016739 0.76614921 -4.54167686
v -1.02860007 0.76709728 -4.54012833
v -1.02860007 0.73431452 -4.56592190
v -1.02860007 0.70850546 -4.57951207
v -1.02860007 0.57849104 -4.64089911
v -1.04538787 0.57849104 -4.64274812
v -1.17654677 0.76425303 -4.54098348
v -1.17654677 0.76572782 -4.45327111
v -1.08193982 0.77522976 -4.41099821
v -0.83490497 0.57849104 -4.49461950
v -0.83490497 0.78504775 -4.41099821
v -0.97703276 0.78715460 -4.49896477
v -0.97703276 0.76522217 -4.53525145
v -0.97987532 0.72340098 -4.56185405
v -0.99897061 0.70359647 -4.57722403
v -1.00144534 0.57849104 -4.63696996
v -1.17654677 0.77685207 -4.49896477
v -1.17654677 0.76732902 -4.45946539
v -1.06715850 0.77862180 -4.41099821
v -0.83490497 0.58422170 -4.49420354
v -0.92566612 0.57849104 -4.59532108
v -0.87406536 0.78974605 -4.41099821
v -0.83490497 0.76568569 -4.43350988
v -0.92600051 0.77501909 -4.49815575
v -0.92543199 0.79075736 -4.44737746
v -0.97138108 0.79181077 -4.41099821
v -0.92543199 0.79372802 -4.41099821
v -0.94359094 0.75953366 -4.52928846
v -0.96007772 0.57849104 -4.62723958
v -1.01997213 0.78633294 -4.41099821
v -0.97703276 0.79151579 -4.41099821
v -0.83490497 0.62412567 -4.48814797
v -0.83490497 0.66327115 -4.48022047
v -0.83490497 0.73770656 -4.44955002
v -0.93489603 0.72734080 -4.53823303
v -0.83490497 0.72734080 -4.45468093
v -0.83490497 0.69915100 -4.46637596
f 1 2 3
f 1 3 4
f 1 4 10
f 1 10 20
f 1 20 19
f 1 19 30
f 1 30 43
f 1 43 35
f 1 35 24
f 1 24 13
f 1 13 6
f 1 6 2
f 2 5 3
f 2 6 12
f 2 12 22
f 2 22 32
f 2 32 31
f 2 31 21
f 2 21 11
f 2 11 5
f 3 5 7
f 3 7 8
f 3 8 9
f 3 9 4
f 4 9 10
f 5 11 7
f 6 13 25
f 6 25 36
f 6 36 41
f 6 41 40
f 6 40 45
f 6 45 44
f 6 44 33
f 6 33 23
f 6 23 12
f 7 14 15
f 7 15 16
f 7 16 8
f 7 11 14
f 8 16 17
f 8 17 9
f 9 17 18
f 9 18 19
f 9 19 20
f 9 20 10
f 11 21 14
f 12 23 22
f 13 24 34
f 13 34 46
f 13 46 47
f 13 47 51
f 13 51 50
f 13 50 48
f 13 48 37
f 13 37 25
f 14 21 26
f 14 26 15
f 15 26 16
f 16 26 27
f 16 27 17
f 17 27 28
f 17 28 29
f 17 29 18
f 18 29 30
f 18 30 19
f 21 31 26
f 22 23 33
f 22 33 32
f 24 35 34
f 25 37 38
f 25 38 26
f 25 26 39
f 25 39 36
f 26 40 41
f 26 41 39
f 26 38 27
f 26 31 40
f 27 38 42
f 27 42 28
f 28 42 43
f 28 43 29
f 29 43 30
f 31 32 33
f 31 33 44
f 31 44 45
f 31 45 40
f 34 35 46
f 35 43 47
f 35 47 46
f 36 39 41
f 37 48 42
f 37 42 38
f 42 49 43
f 42 48 49
f 43 49 50
f 43 50 51
f 43 51 47
f 48 50 49

