# https://github.com/mikedh/trimesh
v -0.51260259 0.17818165 -4.08615728
v -0.47886138 0.18249741 -4.08615728
v -0.51260259 0.18071103 -4.05163580
v -0.52622390 0.17979413 -4.04959057
v -0.52622390 0.17840297 -4.08578545
v -0.49742068 0.18050552 -4.18868880
v -0.46901882 0.18050552 -4.18868880
v -0.47011118 0.18042648 -4.13776397
v -0.44432875 0.19566604 -4.13776397
v -0.48518160 0.18480548 -4.05919708
v -0.51260259 0.19980790 -4.02585315
v -0.52622390 0.19789507 -4.02378723
v -0.52622390 0.18361983 -4.12162910
v -0.49795575 0.18052134 -4.18868880
v -0.44354848 0.19275724 -4.18868880
v -0.44321410 0.19294694 -4.18868880
v -0.43052914 0.22146579 -4.13776397
v -0.43291452 0.22976534 -4.10092861
v -0.45062667 0.21209125 -4.08469049
v -0.43710563 0.24217514 -4.06655176
v -0.47426891 0.21432026 -4.03903365
v -0.48286303 0.23349618 -4.00593768
v -0.51260259 0.22560766 -4.00011178
v -0.52622390 0.21688128 -4.00484272
v -0.52622390 0.19863806 -4.12505855
v -0.50397503 0.21130082 -4.18868880
v -0.49803379 0.18080589 -4.18868880
v -0.42941441 0.21874669 -4.18868880
v -0.42117690 0.26294774 -4.13776397
v -0.41913705 0.26241025 -4.18868880
v -0.41901449 0.26294774 -4.18868880
v -0.42862292 0.26079776 -4.08469049
v -0.43208966 0.27655901 -4.05337117
v -0.44827473 0.26079776 -4.03554231
v -0.47590748 0.26294774 -4.00085552
v -0.51260259 0.26294774 -3.98643542
v -0.52622390 0.25120191 -3.98862527
v -0.52622390 0.22369482 -3.99870695
v -0.52622390 0.20677954 -4.12336447
v -0.46453777 0.33966722 -4.18868880
v -0.52622390 0.33966722 -4.03893039
v -0.41450007 0.31454725 -4.13776397
v -0.42035204 0.31454725 -4.08615728
v -0.41234873 0.31454725 -4.18868880
v -0.42967075 0.31454725 -4.04783452
v -0.44376023 0.31454725 -4.02205186
v -0.46954266 0.31454725 -3.99608321
v -0.51260259 0.31454725 -3.97974183
v -0.52622390 0.29940253 -3.97963856
v -0.52622390 0.26294774 -3.98436950
v -0.41246022 0.33966722 -4.18868880
v -0.52622390 0.33966722 -3.97765523
v -0.41457804 0.33966722 -4.13776397
v -0.42019611 0.33966722 -4.08615728
v -0.42949237 0.33966722 -4.04700813
v -0.44285741 0.33966722 -4.02120478
v -0.46865099 0.33966722 -3.99525689
v -0.49073263 0.33966722 -3.98686922
v -0.51260259 0.33966722 -3.97891543
v -0.52622390 0.31454725 -3.97846094
v -0.52622390 0.30093598 -3.97945257
f 1 2 3
f 1 3 4
f 1 4 5
f 1 5 6
f 1 6 7
f 1 7 8
f 1 8 2
f 2 8 9
f 2 9 10
f 2 10 3
f 3 10 11
f 3 11 12
f 3 12 4
f 4 12 24
f 4 24 38
f 4 38 37
f 4 37 50
f 4 50 49
f 4 49 61
f 4 61 60
f 4 60 52
f 4 52 41
f 4 41 39
f 4 39 25
f 4 25 13
f 4 13 5
f 5 13 14
f 5 14 6
f 6 14 27
f 6 27 26
f 6 26 40
f 6 40 51
f 6 51 44
f 6 44 31
f 6 31 30
f 6 30 28
f 6 28 16
f 6 16 15
f 6 15 7
f 7 15 8
f 8 15 16
f 8 16 9
f 9 16 28
f 9 28 17
f 9 17 18
f 9 18 19
f 9 19 10
f 10 20 21
f 10 21 22
f 10 22 11
f 10 19 20
f 11 22 23
f 11 23 24
f 11 24 12
f 13 25 26
f 13 26 27
f 13 27 14
f 17 29 18
f 17 28 30
f 17 30 31
f 17 31 29
f 18 32 20
f 18 20 19
f 18 29 32
f 20 33 34
f 20 34 22
f 20 22 21
f 20 32 33
f 22 35 36
f 22 36 23
f 22 34 35
f 23 36 37
f 23 37 38
f 23 38 24
f 25 39 26
f 26 39 41
f 26 41 40
f 29 31 42
f 29 42 43
f 29 43 32
f 31 44 42
f 32 43 33
f 33 45 46
f 33 46 34
f 33 43 45
f 34 46 35
f 35 46 47
f 35 47 36
f 36 47 48
f 36 48 49
f 36 49 50
f 36 50 37
f 40 41 52
f 40 52 59
f 40 59 58
f 40 58 57
f 40 57 56
f 40 56 55
f 40 55 54
f 40 54 53
f 40 53 51
f 42 44 53
f 42 53 54
f 42 54 43
f 43 54 55
f 43 55 45
f 44 51 53
f 45 55 56
f 45 56 46
f 46 56 47
f 47 57 58
f 47 58 48
f 47 56 57
f 48 59 60
f 48 60 61
f 48 61 49
f 48 58 59
f 52 60 59

