# https://github.com/mikedh/trimesh
v -1.23207737 0.31456317 -1.13472432
v -1.23207737 0.30537240 -1.13786459
v -1.23207737 0.36792671 -1.16177948
v -1.24643584 0.31456317 -0.96021793
v -1.24739837 0.30537240 -0.96021793
v -1.23207737 0.30537240 -1.41281360
v -1.23207737 0.37011982 -1.16351885
v -1.25425089 0.36239957 -0.96021793
v -1.29747644 0.30537240 -0.96021793
v -1.24633870 0.30537240 -1.43518241
v -1.23207737 0.31571678 -1.42073694
v -1.25700603 0.37011982 -0.96021793
v -1.23207737 0.37011982 -1.45378293
v -1.32081562 0.37011982 -0.96021793
v -1.30365784 0.30537240 -1.19666141
v -1.27676879 0.30537240 -1.43523070
v -1.23207737 0.35313907 -1.44643933
v -1.29672585 0.37011982 -1.43387808
v -1.32211369 0.37011982 -1.19666141
v -1.32223733 0.37011982 -1.24821135
v -1.32228150 0.37011982 -1.29705575
v -1.32228150 0.37011982 -1.29980958
v -1.32225501 0.37011982 -1.35140780
v -1.30356953 0.30537240 -1.24821135
v -1.29700842 0.30537240 -1.40300603
v -1.31323901 0.37011982 -1.42223457
v -1.31949987 0.37011982 -1.39595229
v -1.30097336 0.30537240 -1.36459723
v -1.30148555 0.30537240 -1.35140780
v -1.30228027 0.30537240 -1.31411019
v -1.30258052 0.30537240 -1.29980958
v -1.30329581 0.30537240 -1.26256025
v -1.31882875 0.37011982 -1.40300603
f 1 2 6
f 1 6 11
f 1 11 17
f 1 17 13
f 1 13 7
f 1 7 3
f 1 3 4
f 1 4 2
f 2 4 5
f 2 5 9
f 2 9 15
f 2 15 24
f 2 24 32
f 2 32 31
f 2 31 30
f 2 30 29
f 2 29 28
f 2 28 25
f 2 25 16
f 2 16 10
f 2 10 6
f 3 7 4
f 4 8 12
f 4 12 14
f 4 14 9
f 4 9 5
f 4 7 8
f 6 10 11
f 7 12 8
f 7 13 18
f 7 18 26
f 7 26 33
f 7 33 27
f 7 27 23
f 7 23 22
f 7 22 21
f 7 21 20
f 7 20 19
f 7 19 14
f 7 14 12
f 9 14 15
f 10 16 13
f 10 13 17
f 10 17 11
f 13 16 18
f 14 19 15
f 15 19 20
f 15 20 21
f 15 21 22
f 15 22 23
f 15 23 24
f 16 25 26
f 16 26 18
f 23 27 28
f 23 28 29
f 23 29 30
f 23 30 31
f 23 31 32
f 23 32 24
f 25 28 33
f 25 33 26
f 27 33 28

