# https://github.com/mikedh/trimesh
v -2.69084812 0.52141940 -2.17603269
v -2.69084812 0.52130852 -2.17701640
v -2.78296227 0.51999650 -2.17701640
v -2.78296227 0.52008889 -2.17603269
v -2.69084812 0.45149414 -2.17603269
v -2.78296227 0.50841004 -2.22860886
v -2.69084812 0.50626646 -2.22567472
v -2.83454751 0.51463754 -2.17701640
v -2.83454751 0.51469297 -2.17603269
v -2.85793586 0.39258247 -2.17603269
v -2.69084812 0.33263598 -2.28371204
v -2.78296227 0.49758124 -2.25706777
v -2.81508445 0.49756276 -2.25710168
v -2.83318997 0.50314348 -2.22796438
v -2.69084812 0.49179726 -2.25055510
v -2.71484167 0.49382997 -2.25274295
v -2.74925358 0.49597355 -2.25525305
v -2.85793586 0.49976179 -2.21449808
v -2.85793586 0.50674692 -2.17701640
v -2.83534891 0.51443426 -2.17603269
v -2.85793586 0.39147372 -2.17730473
v -2.85793586 0.50680236 -2.17603269
v -2.85793586 0.33263598 -2.27324769
v -2.69084812 0.33263598 -2.34407277
v -2.69084812 0.44029575 -2.29241249
v -2.78296227 0.46934504 -2.27796256
v -2.84948007 0.49007869 -2.24473780
v -2.85793586 0.49460609 -2.22669234
v -2.83454751 0.43587922 -2.30112994
v -2.83318997 0.47147014 -2.27275583
v -2.85793586 0.46182401 -2.26929594
v -2.69084812 0.47414963 -2.26639578
v -2.69084812 0.46688730 -2.27211136
v -2.85793586 0.50678388 -2.17638884
v -2.85793586 0.33263598 -2.34573486
v -2.83454751 0.33263598 -2.34927957
v -2.78296227 0.40974964 -2.31573257
v -2.69084812 0.40548095 -2.31296805
v -2.69084812 0.43125942 -2.29860293
v -2.78296227 0.43552812 -2.30111302
v -2.85793586 0.48549585 -2.24112536
v -2.85793586 0.44768742 -2.28081181
v -2.83454751 0.41010075 -2.31613962
v -2.85793586 0.40426133 -2.31267980
v -2.69084812 0.41102471 -2.30998309
f 1 2 3
f 1 3 4
f 1 4 9
f 1 9 20
f 1 20 22
f 1 22 10
f 1 10 5
f 1 5 11
f 1 11 24
f 1 24 38
f 1 38 45
f 1 45 39
f 1 39 25
f 1 25 33
f 1 33 32
f 1 32 15
f 1 15 7
f 1 7 2
f 2 6 3
f 2 7 6
f 3 6 8
f 3 8 4
f 4 8 9
f 5 10 11
f 6 7 12
f 6 12 13
f 6 13 14
f 6 14 8
f 7 15 16
f 7 16 17
f 7 17 12
f 8 14 18
f 8 18 19
f 8 19 20
f 8 20 9
f 10 21 11
f 10 22 34
f 10 34 19
f 10 19 18
f 10 18 28
f 10 28 41
f 10 41 31
f 10 31 42
f 10 42 44
f 10 44 35
f 10 35 23
f 10 23 21
f 11 21 23
f 11 23 35
f 11 35 36
f 11 36 24
f 12 17 25
f 12 25 26
f 12 26 13
f 13 27 28
f 13 28 18
f 13 18 14
f 13 26 29
f 13 29 30
f 13 30 31
f 13 31 27
f 15 32 16
f 16 32 17
f 17 32 33
f 17 33 25
f 19 34 20
f 20 34 22
f 24 36 37
f 24 37 38
f 25 39 26
f 26 39 40
f 26 40 29
f 27 41 28
f 27 31 41
f 29 42 31
f 29 31 30
f 29 40 43
f 29 43 44
f 29 44 42
f 35 44 43
f 35 43 36
f 36 43 37
f 37 43 40
f 37 40 39
f 37 39 45
f 37 45 38

