# https://github.com/mikedh/trimesh
v -1.17654677 0.67649768 -4.06966351
v -1.17654677 0.66146030 -4.05328552
v -1.17654677 0.67649768 -4.12062379
v -1.27428023 0.67649768 -4.04658339
v -1.17654677 0.63743538 -4.02803178
v -1.17654677 0.43043140 -4.12062379
v -1.79601085 0.67649768 -4.12062379
v -1.28568138 0.67649768 -4.04462105
v -1.17654677 0.61085091 -4.00590270
v -1.17654677 0.37935666 -4.03283199
v -1.23500951 0.42874442 -4.12062379
v -1.82362704 0.51940501 -4.12062379
v -1.82362704 0.52071388 -4.08616220
v -1.82362704 0.51649643 -4.07348247
v -1.82362704 0.50070281 -4.03443204
v -1.79588417 0.67649768 -4.12023135
v -1.17654677 0.60741879 -4.00329126
v -1.33825351 0.67649768 -4.04068129
v -1.17654677 0.37935666 -3.96670126
v -1.20226276 0.37935666 -4.03339051
v -1.23500951 0.37935666 -4.03396410
v -1.82362704 0.37935666 -4.03719441
v -1.27542033 0.42883168 -4.12062379
v -1.82362704 0.44494525 -4.12062379
v -1.82362704 0.47481641 -4.01041604
v -1.78574979 0.67649768 -4.09543048
v -1.82362704 0.45954634 -3.99670993
v -1.17654677 0.57254486 -3.99251352
v -1.23500951 0.61006561 -4.00169122
v -1.23500951 0.57254486 -3.98963043
v -1.38981218 0.67649768 -4.03941333
v -1.17756023 0.37935666 -3.96668619
v -1.82362704 0.37935666 -3.97749415
v -1.69536378 0.43874996 -4.12062379
v -1.53568393 0.43302005 -4.12062379
v -1.48317517 0.43147849 -4.12062379
v -1.43104643 0.43057683 -4.12062379
v -1.37834767 0.42973334 -4.12062379
v -1.32628227 0.42906437 -4.12062379
v -1.78391293 0.61346865 -4.04608524
v -1.77010484 0.59092712 -4.01169916
v -1.75699349 0.67649768 -4.06773130
v -1.82362704 0.44421809 -3.99088325
v -1.28663149 0.60965841 -4.00187237
v -1.28663149 0.57254486 -3.98988701
v -1.44143418 0.67649768 -4.03945861
v -1.49299285 0.67649768 -4.03971519
v -1.23500951 0.37935666 -3.96642953
v -1.38981218 0.37935666 -3.96703334
v -1.33825351 0.37935666 -3.96680698
v -1.28663149 0.37935666 -3.96661068
v -1.82362704 0.41777906 -3.98086024
v -1.80253486 0.37935666 -3.97501857
v -1.75103953 0.67649768 -4.06401798
v -1.75211631 0.57324292 -4.00238559
v -1.73571128 0.60270688 -4.00624985
v -1.73457116 0.67649768 -4.05477992
v -1.54379144 0.67649768 -4.04012278
v -1.33825351 0.60913484 -4.00217423
v -1.38981218 0.60858223 -4.00246102
v -1.33825351 0.57254486 -3.99041531
v -1.44143418 0.37935666 -3.96748621
v -1.54455152 0.60704067 -4.00344219
v -1.80253486 0.41777906 -3.97870168
v -1.69935419 0.57254486 -3.99550232
v -1.59617352 0.37935666 -3.97050523
v -1.69935419 0.60520827 -4.00475545
v -1.70245785 0.67649768 -4.04631167
v -1.70619491 0.67649768 -4.04721742
v -1.59541344 0.67649768 -4.04107373
v -1.64773219 0.60590632 -4.00428750
v -1.59617352 0.60654620 -4.00381956
v -1.38981218 0.57254486 -3.99094369
v -1.44143418 0.57254486 -3.99151727
v -1.49299285 0.57254486 -3.99218144
v -1.54455152 0.57254486 -3.99287581
v -1.59617352 0.57254486 -3.99369091
v -1.49299285 0.37935666 -3.96830130
v -1.54455152 0.37935666 -3.96938820
v -1.64773219 0.67649768 -4.04231156
v -1.59617352 0.67649768 -4.04108888
f 1 2 5
f 1 5 9
f 1 9 17
f 1 17 28
f 1 28 19
f 1 19 10
f 1 10 6
f 1 6 3
f 1 3 7
f 1 7 16
f 1 16 26
f 1 26 42
f 1 42 54
f 1 54 57
f 1 57 69
f 1 69 68
f 1 68 80
f 1 80 81
f 1 81 70
f 1 70 58
f 1 58 47
f 1 47 46
f 1 46 31
f 1 31 18
f 1 18 8
f 1 8 4
f 1 4 2
f 2 4 5
f 3 6 11
f 3 11 23
f 3 23 39
f 3 39 38
f 3 38 37
f 3 37 36
f 3 36 35
f 3 35 34
f 3 34 24
f 3 24 12
f 3 12 7
f 4 8 5
f 5 8 9
f 6 10 11
f 7 12 13
f 7 13 14
f 7 14 15
f 7 15 16
f 8 17 9
f 8 18 17
f 10 19 32
f 10 32 48
f 10 48 51
f 10 51 50
f 10 50 49
f 10 49 62
f 10 62 78
f 10 78 79
f 10 79 66
f 10 66 53
f 10 53 33
f 10 33 22
f 10 22 21
f 10 21 20
f 10 20 11
f 11 20 21
f 11 21 22
f 11 22 23
f 12 24 22
f 12 22 33
f 12 33 52
f 12 52 43
f 12 43 27
f 12 27 25
f 12 25 15
f 12 15 14
f 12 14 13
f 15 25 16
f 16 25 27
f 16 27 26
f 17 18 29
f 17 29 30
f 17 30 28
f 18 31 29
f 19 28 30
f 19 30 32
f 22 24 34
f 22 34 35
f 22 35 36
f 22 36 37
f 22 37 38
f 22 38 39
f 22 39 23
f 26 27 40
f 26 40 41
f 26 41 42
f 27 43 41
f 27 41 40
f 29 44 45
f 29 45 30
f 29 31 46
f 29 46 47
f 29 47 44
f 30 48 32
f 30 45 49
f 30 49 50
f 30 50 51
f 30 51 48
f 33 53 52
f 41 54 42
f 41 43 52
f 41 52 55
f 41 55 56
f 41 56 57
f 41 57 54
f 44 47 58
f 44 58 59
f 44 59 60
f 44 60 45
f 45 61 62
f 45 62 49
f 45 60 63
f 45 63 61
f 52 53 64
f 52 64 65
f 52 65 55
f 53 66 64
f 55 65 56
f 56 65 67
f 56 67 68
f 56 68 69
f 56 69 57
f 58 70 67
f 58 67 71
f 58 71 72
f 58 72 63
f 58 63 60
f 58 60 59
f 61 73 62
f 61 63 73
f 62 73 74
f 62 74 75
f 62 75 76
f 62 76 77
f 62 77 78
f 63 72 73
f 64 66 79
f 64 79 78
f 64 78 65
f 65 77 67
f 65 78 77
f 67 80 68
f 67 77 76
f 67 76 75
f 67 75 71
f 67 70 81
f 67 81 80
f 71 75 74
f 71 74 72
f 72 74 73

