# https://github.com/mikedh/trimesh
v -1.49320550 0.10973951 -2.36560219
v -1.49320550 0.11167541 -2.33064399
v -1.49320550 0.11191199 -2.36611627
v -1.39291901 0.10814781 -2.42497275
v -1.37779776 0.06854851 -2.42076273
v -1.47060721 0.08102414 -2.35912743
v -1.47060721 0.08102414 -2.35251364
v -1.49320550 0.11232069 -2.32968527
v -1.49320550 0.15977101 -2.37610629
v -1.34339123 0.10816934 -2.45306714
v -1.33798102 0.10268436 -2.45480393
v -1.33798102 0.05783673 -2.43344831
v -1.44138296 0.07377538 -2.36943700
v -1.44138296 0.07377538 -2.34633067
v -1.49320550 0.15609284 -2.31612439
v -1.44138296 0.10816934 -2.33206119
v -1.49320550 0.21135116 -2.37666204
v -1.33798102 0.10816934 -2.45497066
v -1.49320550 0.26295283 -2.37191019
v -1.33798102 0.05056644 -2.39159852
v -1.33798102 0.05056644 -2.38976443
v -1.38980357 0.07226971 -2.34951254
v -1.33820900 0.27028763 -2.32334944
v -1.37756979 0.27028763 -2.31948680
v -1.43916415 0.27028763 -2.31474886
v -1.44305464 0.27028763 -2.31445707
v -1.44699073 0.27028763 -2.31420695
v -1.48393519 0.27028763 -2.31316488
v -1.49297753 0.27028763 -2.31303979
v -1.49320550 0.27028763 -2.31305370
v -1.33798102 0.13879908 -2.44712032
v -1.49320550 0.27028763 -2.37002058
v -1.33798102 0.05658914 -2.38602689
v -1.36267652 0.07902374 -2.35676534
v -1.33798102 0.26293134 -2.32694804
v -1.33798102 0.27028763 -2.33377019
v -1.33798102 0.15572718 -2.44249353
v -1.34728174 0.27028763 -2.38237262
v -1.33798102 0.15865249 -2.44109020
v -1.33798102 0.26280228 -2.38604073
v -1.33820900 0.27028763 -2.38303954
f 1 2 8
f 1 8 15
f 1 15 30
f 1 30 32
f 1 32 19
f 1 19 17
f 1 17 9
f 1 9 3
f 1 3 4
f 1 4 5
f 1 5 6
f 1 6 7
f 1 7 2
f 2 7 8
f 3 9 4
f 4 10 11
f 4 11 5
f 4 9 10
f 5 11 12
f 5 12 6
f 6 12 13
f 6 13 14
f 6 14 7
f 7 14 8
f 8 14 16
f 8 16 15
f 9 17 10
f 10 18 11
f 10 17 19
f 10 19 18
f 11 18 31
f 11 31 37
f 11 37 39
f 11 39 40
f 11 40 36
f 11 36 35
f 11 35 33
f 11 33 21
f 11 21 20
f 11 20 12
f 12 20 13
f 13 20 21
f 13 21 14
f 14 21 22
f 14 22 16
f 15 16 23
f 15 23 24
f 15 24 25
f 15 25 26
f 15 26 27
f 15 27 28
f 15 28 29
f 15 29 30
f 16 22 23
f 18 19 31
f 19 32 31
f 21 33 34
f 21 34 22
f 22 34 23
f 23 35 36
f 23 36 41
f 23 41 38
f 23 38 32
f 23 32 30
f 23 30 29
f 23 29 28
f 23 28 27
f 23 27 26
f 23 26 25
f 23 25 24
f 23 34 33
f 23 33 35
f 31 32 37
f 32 38 39
f 32 39 37
f 36 40 41
f 38 41 39
f 39 41 40

