# https://github.com/mikedh/trimesh
v -2.10357308 0.60028801 -1.50654848
v -2.10357308 0.53815252 -1.50654848
v -2.10357308 0.60024431 -1.55785945
v -2.11226946 0.60027344 -1.55785945
v -2.16388321 0.60037540 -1.55785945
v -2.11226946 0.60028801 -1.50654848
v -2.57651086 0.51965461 -1.50654848
v -2.10357308 0.48278988 -1.86742912
v -2.10357308 0.59891887 -1.59173907
v -2.11226946 0.59896257 -1.59226344
v -2.16388321 0.59909365 -1.59468804
v -2.16947376 0.60001127 -1.50654848
v -2.16388321 0.60012780 -1.50654848
v -2.20431587 0.59887517 -1.59147703
v -2.21911107 0.59922474 -1.55858035
v -2.62806810 0.51774656 -1.50654848
v -2.11226946 0.48264423 -1.86742912
v -2.10357308 0.45218823 -2.17595026
v -2.68047243 0.51678525 -1.50654848
v -2.10357308 0.56046652 -2.02214845
v -2.16388321 0.56364176 -2.02214845
v -2.21544050 0.56476328 -2.02214845
v -2.21448051 0.59907909 -1.50910425
v -2.21312520 0.59903539 -1.50654848
v -2.23870622 0.59753517 -1.57627374
v -2.24407087 0.59846735 -1.54186990
v -2.68047243 0.54859583 -2.00465158
v -2.24407087 0.59846735 -1.52817378
v -2.68047243 0.47418181 -1.86742912
v -2.11164831 0.45214453 -2.17595026
v -2.10357308 0.51898461 -2.17595026
v -2.68047243 0.56739960 -1.50654848
v -2.10357308 0.55949066 -2.03073303
v -2.10357308 0.55398498 -2.07372153
v -2.16388321 0.55519390 -2.07372153
v -2.62908457 0.52293180 -2.17595026
v -2.68047243 0.52160636 -2.17595026
v -2.62778577 0.57213332 -1.50654848
v -2.67968186 0.56074326 -1.76428295
v -2.67968186 0.56330676 -1.71270979
v -2.62806810 0.57144875 -1.55785945
v -2.68047243 0.56071414 -1.76349654
v -2.68047243 0.45175127 -2.17595026
v -2.37022529 0.45157649 -2.17595026
v -2.11226946 0.53933230 -2.12883332
v -2.10357308 0.53904100 -2.12870223
v -2.11226946 0.51931961 -2.17595026
v -2.67968186 0.56748700 -1.50654848
v -2.68047243 0.56674417 -1.55707319
v -2.10357308 0.55306737 -2.07857080
v -2.10357308 0.54773647 -2.10294848
v -2.11226946 0.54773647 -2.10301399
v -2.57651086 0.52377659 -2.17595026
v -2.68047243 0.56324850 -1.71270979
v -2.67968186 0.56681699 -1.55785945
v -2.16388321 0.52031005 -2.17595026
v -2.16388321 0.54011883 -2.12778480
f 1 2 8
f 1 8 18
f 1 18 31
f 1 31 46
f 1 46 51
f 1 51 50
f 1 50 34
f 1 34 33
f 1 33 20
f 1 20 9
f 1 9 3
f 1 3 4
f 1 4 5
f 1 5 6
f 1 6 13
f 1 13 12
f 1 12 24
f 1 24 38
f 1 38 48
f 1 48 32
f 1 32 19
f 1 19 16
f 1 16 7
f 1 7 2
f 2 7 8
f 3 9 10
f 3 10 11
f 3 11 4
f 4 11 5
f 5 12 13
f 5 13 6
f 5 11 14
f 5 14 15
f 5 15 12
f 7 16 8
f 8 17 18
f 8 16 19
f 8 19 17
f 9 20 21
f 9 21 22
f 9 22 10
f 10 22 11
f 11 22 14
f 12 15 23
f 12 23 24
f 14 25 26
f 14 26 15
f 14 22 27
f 14 27 25
f 15 26 28
f 15 28 23
f 17 29 18
f 17 19 29
f 18 30 44
f 18 44 43
f 18 43 37
f 18 37 36
f 18 36 53
f 18 53 56
f 18 56 47
f 18 47 31
f 18 29 30
f 19 32 49
f 19 49 54
f 19 54 42
f 19 42 27
f 19 27 37
f 19 37 43
f 19 43 29
f 20 33 21
f 21 33 34
f 21 34 22
f 22 34 35
f 22 35 36
f 22 36 37
f 22 37 27
f 23 28 24
f 24 28 38
f 25 27 39
f 25 39 40
f 25 40 26
f 26 41 38
f 26 38 28
f 26 40 41
f 27 42 39
f 29 43 44
f 29 44 30
f 31 45 46
f 31 47 45
f 32 48 49
f 34 50 35
f 35 50 51
f 35 51 52
f 35 52 53
f 35 53 36
f 38 41 48
f 39 42 54
f 39 54 40
f 40 54 41
f 41 55 48
f 41 54 55
f 45 47 56
f 45 56 53
f 45 53 57
f 45 57 51
f 45 51 46
f 48 55 49
f 49 55 54
f 51 57 52
f 52 57 53

