# https://github.com/mikedh/trimesh
v -2.94589597 0.10287577 -1.66100900
v -2.94589597 0.05902443 -1.66100900
v -2.94700108 0.10154295 -1.69387969
v -3.00321422 0.22273066 -1.50659169
v -2.94614339 0.10481743 -1.60940216
v -2.94714955 0.05463107 -1.69387969
v -2.94700108 0.08561495 -1.69387969
v -2.94614339 0.05915606 -1.60940216
v -2.94683616 0.05762579 -1.50659169
v -3.02792298 0.22273066 -1.69387969
v -3.00685950 0.22273066 -1.55783192
v -3.05675534 0.22273066 -1.50659169
v -2.94683616 0.10335298 -1.50659169
v -2.94655575 0.10493261 -1.55783192
v -2.98347037 0.05463107 -1.69387969
v -2.98299205 0.05762579 -1.50659169
v -3.10020171 0.22273066 -1.69387969
v -3.05871815 0.21032393 -1.50659169
v -3.09014010 0.22273066 -1.64988095
v -3.10340165 0.21066947 -1.69387969
v -3.11438699 0.15975913 -1.69387969
v -3.09127820 0.12355914 -1.69387969
v -3.03031467 0.11513442 -1.50659169
v -3.05571612 0.16341203 -1.50659169
f 1 2 7
f 1 7 3
f 1 3 4
f 1 4 5
f 1 5 8
f 1 8 2
f 2 6 7
f 2 8 9
f 2 9 6
f 3 7 6
f 3 6 15
f 3 15 22
f 3 22 21
f 3 21 20
f 3 20 17
f 3 17 10
f 3 10 11
f 3 11 4
f 4 12 18
f 4 18 24
f 4 24 23
f 4 23 16
f 4 16 9
f 4 9 13
f 4 13 14
f 4 14 5
f 4 11 10
f 4 10 17
f 4 17 19
f 4 19 12
f 5 14 13
f 5 13 9
f 5 9 8
f 6 9 16
f 6 16 15
f 12 19 20
f 12 20 21
f 12 21 18
f 15 16 22
f 16 23 22
f 17 20 19
f 18 21 24
f 21 22 23
f 21 23 24

