# https://github.com/mikedh/trimesh
v -1.80469026 0.20963611 -5.57828312
v -1.80469026 0.17749454 -5.58356950
v -1.80469026 0.31418797 -5.63027947
v -1.82800435 0.18703509 -5.50446493
v -1.82800435 0.18515959 -5.50446493
v -1.85420266 0.17536083 -5.58253335
v -1.80469026 0.17791585 -5.62112361
v -1.85420266 0.17946517 -5.53093882
v -1.80469026 0.31418797 -5.68639920
v -1.91302867 0.31418797 -5.47864645
v -1.91897737 0.31418797 -5.47037864
v -1.95330757 0.21285708 -5.47037864
v -1.95605158 0.20652388 -5.47037864
v -1.97491917 0.18125912 -5.47037864
v -1.85420266 0.18358309 -5.50137771
v -1.98657621 0.18288998 -5.56018284
v -1.85420266 0.17949235 -5.61763457
v -1.98899975 0.18125912 -5.47037864
v -1.98911992 0.18117758 -5.47934428
v -1.98879945 0.18128630 -5.53093882
v -1.80469026 0.19853267 -5.64692088
v -1.80469026 0.26295171 -5.68062642
v -1.85420266 0.26295171 -5.67514982
v -1.85420266 0.31418797 -5.68035177
v -1.99683119 0.31418797 -5.47037864
v -1.99264508 0.21136212 -5.56565944
v -1.88210345 0.23460189 -5.66127855
v -1.88252407 0.18346078 -5.61190424
v -2.00356103 0.21136212 -5.53093882
v -1.85420266 0.20333011 -5.64343184
v -2.00402171 0.21136212 -5.47037864
v -2.00426206 0.21136212 -5.47934428
v -1.80469026 0.19957914 -5.64778787
v -1.80469026 0.22432747 -5.66758001
v -1.85420266 0.22912492 -5.66476743
v -1.88719088 0.26295171 -5.66470408
v -1.89055580 0.31418797 -5.66711468
v -1.99703148 0.31418797 -5.47934428
v -2.00696602 0.27190786 -5.47037864
v -1.99510868 0.26295171 -5.56857751
v -2.00850826 0.26295171 -5.53093882
v -2.00930944 0.26295171 -5.47934428
v -2.00494306 0.22031827 -5.47037864
v -1.91635353 0.31418797 -5.64154992
v -1.99703148 0.31418797 -5.47970366
v -2.00910914 0.26295171 -5.47037864
v -1.98986099 0.30550362 -5.56409476
v -1.99424743 0.31418797 -5.53482952
v -1.97556011 0.31418797 -5.57511132
v -1.99168367 0.31418797 -5.54609997
f 1 2 7
f 1 7 21
f 1 21 33
f 1 33 34
f 1 34 22
f 1 22 9
f 1 9 3
f 1 3 4
f 1 4 5
f 1 5 2
f 2 6 7
f 2 5 8
f 2 8 6
f 3 9 24
f 3 24 37
f 3 37 44
f 3 44 49
f 3 49 50
f 3 50 48
f 3 48 45
f 3 45 38
f 3 38 25
f 3 25 11
f 3 11 10
f 3 10 4
f 4 10 11
f 4 11 5
f 5 11 12
f 5 12 13
f 5 13 14
f 5 14 15
f 5 15 8
f 6 16 17
f 6 17 7
f 6 8 14
f 6 14 18
f 6 18 19
f 6 19 20
f 6 20 16
f 7 17 21
f 8 15 14
f 9 22 23
f 9 23 24
f 11 25 39
f 11 39 46
f 11 46 43
f 11 43 31
f 11 31 18
f 11 18 14
f 11 14 13
f 11 13 12
f 16 26 27
f 16 27 28
f 16 28 17
f 16 20 29
f 16 29 26
f 17 30 21
f 17 28 30
f 18 31 32
f 18 32 19
f 19 32 20
f 20 32 29
f 21 30 33
f 22 34 35
f 22 35 23
f 23 35 27
f 23 27 36
f 23 36 24
f 24 36 37
f 25 38 39
f 26 40 37
f 26 37 36
f 26 36 27
f 26 29 41
f 26 41 40
f 27 35 30
f 27 30 28
f 29 32 42
f 29 42 41
f 30 35 33
f 31 43 32
f 32 43 42
f 33 35 34
f 37 40 44
f 38 42 39
f 38 45 42
f 39 42 46
f 40 41 47
f 40 47 44
f 41 42 45
f 41 45 48
f 41 48 47
f 42 43 46
f 44 47 49
f 47 48 50
f 47 50 49

