# https://github.com/mikedh/trimesh
v -0.51342883 0.53245476 -4.78130367
v -0.61646428 0.55091866 -4.78130367
v -0.51342883 0.47630563 -4.78130367
v -0.51342883 0.55067571 -5.16971064
v -0.52069032 0.55357677 -5.16971064
v -0.56422396 0.56496665 -5.16971064
v -0.64565117 0.55337670 -4.78130367
v -0.77057673 0.58906118 -5.16971064
v -0.69662253 0.49459804 -4.78130367
v -0.87354167 0.47579116 -5.06659785
v -0.51342883 0.44610886 -5.06659785
v -0.51342883 0.54831771 -5.22130056
v -0.52389803 0.55171895 -5.22130056
v -0.56422396 0.55855002 -5.22130056
v -0.71900618 0.57830010 -5.22130056
v -0.66743556 0.55459143 -4.78130367
v -0.82218257 0.58916122 -5.16971064
v -0.82218257 0.58577426 -5.11818792
v -0.87354167 0.56206559 -4.78150573
v -0.84943072 0.56155111 -4.78130367
v -0.77057673 0.55926457 -4.78130367
v -0.77057673 0.57920043 -5.22130056
v -0.87354167 0.51383365 -4.78130367
v -0.51342883 0.44516566 -5.08128014
v -0.87354167 0.45855628 -5.46908092
v -0.51342883 0.51239026 -5.46935034
v -0.52262906 0.51370503 -5.46935034
v -0.56422396 0.51960719 -5.46935034
v -0.57419961 0.52003592 -5.46935034
v -0.61582972 0.52117920 -5.46935034
v -0.62580545 0.52136498 -5.46935034
v -0.87354167 0.58227299 -5.16971064
v -0.87354167 0.58458813 -5.11845734
v -0.87354167 0.58457382 -5.11818792
v -0.87354167 0.52202236 -5.46935034
v -0.87354167 0.51434813 -4.78130367
v -0.67741128 0.52182229 -5.46935034
v -0.71900618 0.52217956 -5.46935034
v -0.72898191 0.52219385 -5.46935034
v -0.51342883 0.44316493 -5.46935034
v -0.87354167 0.52035032 -5.46935034
v -0.86381268 0.45849911 -5.46935034
f 1 2 7
f 1 7 16
f 1 16 21
f 1 21 20
f 1 20 36
f 1 36 23
f 1 23 9
f 1 9 3
f 1 3 11
f 1 11 24
f 1 24 40
f 1 40 26
f 1 26 12
f 1 12 4
f 1 4 5
f 1 5 6
f 1 6 2
f 2 6 8
f 2 8 7
f 3 9 10
f 3 10 11
f 4 12 5
f 5 12 13
f 5 13 6
f 6 13 14
f 6 14 15
f 6 15 8
f 7 8 16
f 8 17 18
f 8 18 19
f 8 19 20
f 8 20 21
f 8 21 16
f 8 15 22
f 8 22 17
f 9 23 10
f 10 24 11
f 10 23 36
f 10 36 19
f 10 19 34
f 10 34 33
f 10 33 32
f 10 32 35
f 10 35 41
f 10 41 25
f 10 25 24
f 12 26 13
f 13 26 14
f 14 26 27
f 14 27 28
f 14 28 15
f 15 28 29
f 15 29 30
f 15 30 31
f 15 31 22
f 17 32 33
f 17 33 34
f 17 34 18
f 17 22 35
f 17 35 32
f 18 34 19
f 19 36 20
f 22 31 37
f 22 37 38
f 22 38 39
f 22 39 35
f 24 25 40
f 25 41 42
f 25 42 40
f 26 40 42
f 26 42 41
f 26 41 35
f 26 35 39
f 26 39 38
f 26 38 37
f 26 37 31
f 26 31 30
f 26 30 29
f 26 29 28
f 26 28 27

