# https://github.com/mikedh/trimesh
v -1.79242899 0.86196742 -4.12063894
v -1.75095991 0.86163634 -4.12063894
v -1.79242899 0.86196742 -4.12310075
v -1.80050957 0.83225142 -4.13929504
v -1.79666569 0.84637823 -4.12063894
v -1.75095991 0.86163634 -4.12635589
v -1.52579797 0.84044606 -4.12063894
v -1.52579797 0.84750949 -4.13776666
v -1.74753690 0.82822309 -4.23982147
v -1.79085777 0.77450251 -4.23982147
v -1.81243404 0.77894474 -4.13776666
v -1.80758008 0.79483744 -4.12063894
v -1.52579797 0.82562949 -4.23982147
v -1.64779226 0.82725737 -4.23982147
v -1.52579797 0.58009319 -4.12063894
v -1.80662612 0.58009319 -4.23982147
v -1.80808511 0.58009319 -4.23341606
v -1.80993691 0.72734874 -4.13776666
v -1.80735562 0.77888957 -4.12063894
v -1.52579797 0.58009319 -4.23982147
v -1.79660958 0.58009319 -4.12063894
v -1.80558799 0.58009319 -4.18935989
v -1.80561605 0.74310347 -4.12063894
f 1 2 6
f 1 6 3
f 1 3 4
f 1 4 5
f 1 5 12
f 1 12 19
f 1 19 23
f 1 23 21
f 1 21 15
f 1 15 7
f 1 7 2
f 2 7 8
f 2 8 6
f 3 6 9
f 3 9 10
f 3 10 4
f 4 11 5
f 4 10 11
f 5 11 12
f 6 8 13
f 6 13 14
f 6 14 9
f 7 15 20
f 7 20 13
f 7 13 8
f 9 14 13
f 9 13 20
f 9 20 16
f 9 16 10
f 10 16 17
f 10 17 11
f 11 17 18
f 11 18 19
f 11 19 12
f 15 21 22
f 15 22 17
f 15 17 16
f 15 16 20
f 17 22 18
f 18 23 19
f 18 22 21
f 18 21 23

