# https://github.com/mikedh/trimesh
v -1.81293128 0.44782138 -4.50010918
v -1.79274838 0.44060933 -4.43201625
v -1.81293128 0.44516832 -4.46229211
v -1.81293128 0.51126611 -4.50010918
v -1.31489933 0.44306417 -4.50010918
v -1.79274838 0.44060933 -4.41169605
v -1.38983775 0.43507450 -4.39575940
v -1.23503980 0.42434028 -4.24099948
v -1.48315255 0.43147610 -4.12063894
v -1.53566547 0.43300084 -4.12063894
v -1.81293128 0.44553426 -4.12063894
v -1.81293128 0.54813449 -4.39575940
v -1.80277754 0.58007794 -4.39575940
v -1.79025666 0.58007794 -4.43339071
v -1.78813869 0.58007794 -4.43818285
v -1.76465426 0.58007794 -4.46021182
v -1.75917249 0.58007794 -4.46385233
v -1.73288487 0.58007794 -4.47536836
v -1.80290212 0.51501699 -4.50010918
v -1.28661834 0.44315566 -4.50010918
v -1.18339898 0.43751409 -4.43532245
v -1.69532224 0.43874914 -4.12063894
v -1.69937128 0.43894736 -4.12063894
v -1.18339898 0.42601750 -4.24099948
v -1.17654677 0.43042402 -4.12063894
v -1.23503980 0.42873155 -4.12063894
v -1.27540564 0.42882304 -4.12063894
v -1.32629895 0.42905175 -4.12063894
v -1.37831353 0.42973788 -4.12063894
v -1.43107565 0.43057649 -4.12063894
v -1.81293128 0.52991376 -4.12063894
v -1.81293128 0.56030197 -4.24099948
v -1.80807244 0.58007794 -4.23345842
v -1.80346275 0.58007794 -4.38821835
v -1.70690872 0.58007794 -4.47904608
v -1.75393987 0.52971555 -4.50010918
v -1.80252836 0.51513897 -4.50010918
v -1.26244873 0.44349110 -4.50010918
v -1.17654677 0.44513783 -4.50010918
v -1.17654677 0.43774280 -4.43498814
v -1.17654677 0.42624621 -4.24099948
v -1.17654677 0.58007794 -4.12063894
v -1.81293128 0.55630713 -4.21414123
v -1.79661054 0.58007794 -4.12063894
v -1.80558072 0.58007794 -4.18940048
v -1.48963100 0.58007794 -4.50010918
v -1.17654677 0.58007794 -4.50010918
f 1 2 3
f 1 3 11
f 1 11 31
f 1 31 43
f 1 43 32
f 1 32 12
f 1 12 4
f 1 4 19
f 1 19 37
f 1 37 36
f 1 36 46
f 1 46 47
f 1 47 39
f 1 39 38
f 1 38 20
f 1 20 5
f 1 5 2
f 2 6 3
f 2 5 7
f 2 7 8
f 2 8 9
f 2 9 10
f 2 10 6
f 3 6 11
f 4 12 13
f 4 13 14
f 4 14 15
f 4 15 16
f 4 16 17
f 4 17 18
f 4 18 19
f 5 20 21
f 5 21 7
f 6 22 23
f 6 23 11
f 6 10 22
f 7 21 8
f 8 21 24
f 8 24 25
f 8 25 26
f 8 26 27
f 8 27 28
f 8 28 29
f 8 29 30
f 8 30 9
f 9 30 29
f 9 29 28
f 9 28 27
f 9 27 26
f 9 26 25
f 9 25 42
f 9 42 44
f 9 44 31
f 9 31 11
f 9 11 23
f 9 23 22
f 9 22 10
f 12 32 33
f 12 33 34
f 12 34 13
f 13 34 33
f 13 33 45
f 13 45 44
f 13 44 42
f 13 42 47
f 13 47 46
f 13 46 35
f 13 35 18
f 13 18 17
f 13 17 16
f 13 16 15
f 13 15 14
f 18 35 36
f 18 36 37
f 18 37 19
f 20 38 21
f 21 38 39
f 21 39 40
f 21 40 41
f 21 41 24
f 24 41 25
f 25 41 40
f 25 40 39
f 25 39 47
f 25 47 42
f 31 44 45
f 31 45 43
f 32 43 33
f 33 43 45
f 35 46 36

