# https://github.com/mikedh/trimesh
v -2.99132313 0.26306818 -2.22860955
v -2.98987387 0.26306818 -2.17601585
v -2.98963882 0.26397479 -2.17601585
v -2.97647769 0.31457860 -2.17601585
v -2.96594091 0.34573775 -2.17701571
v -2.97201224 0.31932644 -2.23089259
v -2.96287260 0.33970157 -2.24962367
v -2.97151608 0.30890029 -2.26113062
v -2.98646602 0.26306818 -2.26113062
v -2.93294659 0.26306818 -2.17601585
v -2.96595398 0.34578547 -2.17601585
v -2.93536211 0.41855379 -2.17601585
v -2.93563629 0.41774260 -2.17701571
v -2.96094017 0.33314048 -2.26113062
v -2.91911960 0.45491409 -2.17701571
v -2.91581625 0.44949822 -2.21279477
v -2.90815194 0.43792686 -2.24718231
v -2.92558261 0.26306818 -2.26113062
v -2.85793586 0.35289530 -2.26113062
v -2.85793586 0.39145058 -2.17729896
v -2.85793586 0.39254806 -2.17601585
v -2.91915874 0.45498567 -2.17601585
v -2.91938072 0.40471588 -2.26113062
v -2.89697538 0.48080053 -2.17601585
v -2.89689703 0.48070509 -2.17701571
v -2.86560017 0.49869438 -2.21033673
v -2.88688255 0.46977791 -2.22875118
v -2.87578434 0.45784868 -2.26113062
v -2.90035708 0.43076932 -2.26113062
v -2.85793586 0.46612757 -2.26113062
v -2.85793586 0.50680625 -2.17601585
v -2.87117534 0.50232086 -2.17601585
v -2.87109699 0.50229700 -2.17701571
v -2.85793586 0.49459072 -2.22668473
v -2.85793586 0.48547678 -2.24111636
v -2.85793586 0.50673468 -2.17701571
v -2.85793586 0.49974414 -2.21450285
v -2.86377223 0.46343156 -2.26113062
v -2.85793586 0.50678239 -2.17638245
f 1 2 3
f 1 3 4
f 1 4 5
f 1 5 6
f 1 6 7
f 1 7 8
f 1 8 9
f 1 9 18
f 1 18 10
f 1 10 2
f 2 10 21
f 2 21 31
f 2 31 32
f 2 32 24
f 2 24 22
f 2 22 12
f 2 12 11
f 2 11 4
f 2 4 3
f 4 11 5
f 5 7 6
f 5 11 12
f 5 12 13
f 5 13 7
f 7 14 8
f 7 13 15
f 7 15 16
f 7 16 17
f 7 17 14
f 8 14 23
f 8 23 29
f 8 29 28
f 8 28 38
f 8 38 30
f 8 30 19
f 8 19 18
f 8 18 9
f 10 18 19
f 10 19 20
f 10 20 21
f 12 22 15
f 12 15 13
f 14 17 23
f 15 22 24
f 15 24 25
f 15 25 16
f 16 25 26
f 16 26 27
f 16 27 17
f 17 27 28
f 17 28 29
f 17 29 23
f 19 30 35
f 19 35 34
f 19 34 37
f 19 37 36
f 19 36 39
f 19 39 31
f 19 31 21
f 19 21 20
f 24 32 33
f 24 33 25
f 25 33 26
f 26 34 35
f 26 35 27
f 26 33 36
f 26 36 37
f 26 37 34
f 27 35 28
f 28 35 38
f 30 38 35
f 31 39 33
f 31 33 32
f 33 39 36

