# https://github.com/mikedh/trimesh
v -2.78304839 0.44530760 -2.17595280
v -2.78304839 0.45173189 -2.17595280
v -2.68053886 0.45174380 -2.17595280
v -2.78304839 0.46344816 -1.86753446
v -2.78304839 0.52009865 -2.17588975
v -2.78295812 0.52009865 -2.17595280
v -2.68053886 0.52160043 -2.17595280
v -2.68053886 0.47416324 -1.86740844
v -2.78304839 0.49388901 -1.53220673
v -2.78304839 0.53733336 -2.02218474
v -2.71653513 0.54775048 -2.00088413
v -2.68075961 0.52160043 -2.17595280
v -2.68053886 0.54860863 -2.00466527
v -2.68053886 0.51671368 -1.53220673
v -2.78304839 0.55248228 -1.53220673
v -2.78304839 0.54862055 -1.71263214
v -2.77597359 0.55155261 -1.71263214
v -2.73136712 0.55906150 -1.71263214
v -2.68053886 0.56325696 -1.71263214
v -2.68053886 0.56071824 -1.76348900
v -2.68053886 0.56707100 -1.53220673
v -2.75697702 0.55707105 -1.53220673
v -2.73136712 0.56134993 -1.53220673
v -2.70538602 0.56432965 -1.53220673
v -2.68053886 0.56673727 -1.55709948
v -2.68053886 0.56672535 -1.55785576
f 1 2 6
f 1 6 12
f 1 12 7
f 1 7 3
f 1 3 4
f 1 4 9
f 1 9 15
f 1 15 16
f 1 16 10
f 1 10 5
f 1 5 2
f 2 5 6
f 3 7 13
f 3 13 20
f 3 20 19
f 3 19 26
f 3 26 25
f 3 25 21
f 3 21 14
f 3 14 8
f 3 8 4
f 4 8 9
f 5 10 11
f 5 11 6
f 6 11 13
f 6 13 12
f 7 12 13
f 8 14 9
f 9 14 21
f 9 21 24
f 9 24 23
f 9 23 22
f 9 22 15
f 10 16 17
f 10 17 18
f 10 18 11
f 11 18 19
f 11 19 20
f 11 20 13
f 15 22 17
f 15 17 16
f 17 22 18
f 18 22 23
f 18 23 24
f 18 24 21
f 18 21 25
f 18 25 26
f 18 26 19

