# https://github.com/mikedh/trimesh
v -1.85358110 0.17569043 -4.12067584
v -1.83732831 0.17651390 -4.12067584
v -1.87709776 0.17653180 -4.12067584
v -1.88871527 0.17774909 -4.18938180
v -1.88757700 0.17912751 -4.24096688
v -1.86336797 0.17912751 -4.24096688
v -1.86276949 0.18064915 -4.29258894
v -1.82300004 0.18098928 -4.12067584
v -1.86298072 0.18227818 -4.34413688
v -1.86643077 0.18397882 -4.39575894
v -1.88723669 0.17919913 -4.12067584
v -1.88846884 0.17807133 -4.13779680
v -1.90877017 0.21136814 -4.13779680
v -1.90908701 0.21136814 -4.18938180
v -1.92917708 0.24428901 -4.49892910
v -1.92908320 0.24414581 -4.49922558
v -1.90340732 0.21285396 -4.49922558
v -1.88612187 0.18064915 -4.29258894
v -1.82300004 0.19208821 -4.12067584
v -1.85771177 0.21283607 -4.49922558
v -1.84813611 0.21136814 -4.39575894
v -1.88432643 0.18227818 -4.34413688
v -1.88220242 0.18397882 -4.39575894
v -1.87299056 0.18508872 -4.42859257
v -1.89345617 0.18911657 -4.12067584
v -1.90702167 0.21136814 -4.12067584
v -1.92607908 0.25089468 -4.13779680
v -1.92614949 0.24720696 -4.18938180
v -1.92744033 0.24622239 -4.29258894
v -1.92801534 0.24573903 -4.34413688
v -1.92850821 0.24523779 -4.39575894
v -1.92891891 0.24475446 -4.44734409
v -1.93530268 0.27298514 -4.18938180
v -1.93614761 0.27001349 -4.49922558
v -1.88070036 0.18508872 -4.42859257
v -1.88564074 0.35857226 -4.12067584
v -1.85771177 0.26075840 -4.49922558
v -1.89423066 0.35857226 -4.49896616
v -1.92549235 0.25545956 -4.12067584
v -1.93425829 0.27667284 -4.13779680
v -1.93348377 0.27980562 -4.12067584
v -1.94114666 0.31455245 -4.18938180
v -1.94288341 0.31455245 -4.49922558
v -1.93788436 0.35857226 -4.12067584
v -1.89617865 0.31482097 -4.49922558
v -1.93568993 0.35857226 -4.49922558
v -1.93921040 0.31455245 -4.13779680
v -1.93750884 0.31562653 -4.12067584
v -1.93964459 0.35857226 -4.14535669
v -1.94100584 0.35857226 -4.18938180
v -1.94237881 0.35857226 -4.49922558
v -1.94104103 0.35857226 -4.19697875
v -1.93903438 0.35857226 -4.13401681
v -1.93780221 0.33168420 -4.12067584
v -1.93935122 0.35857226 -4.13779680
f 1 2 8
f 1 8 19
f 1 19 36
f 1 36 44
f 1 44 54
f 1 54 48
f 1 48 41
f 1 41 39
f 1 39 26
f 1 26 25
f 1 25 11
f 1 11 3
f 1 3 4
f 1 4 5
f 1 5 6
f 1 6 7
f 1 7 2
f 2 7 9
f 2 9 10
f 2 10 8
f 3 11 12
f 3 12 4
f 4 12 13
f 4 13 14
f 4 14 15
f 4 15 16
f 4 16 5
f 5 16 17
f 5 17 18
f 5 18 7
f 5 7 6
f 7 18 22
f 7 22 9
f 8 10 20
f 8 20 21
f 8 21 19
f 9 22 23
f 9 23 10
f 10 23 35
f 10 35 24
f 10 24 20
f 11 25 12
f 12 25 13
f 13 25 26
f 13 26 27
f 13 27 28
f 13 28 29
f 13 29 30
f 13 30 31
f 13 31 32
f 13 32 15
f 13 15 14
f 15 32 33
f 15 33 34
f 15 34 16
f 16 34 43
f 16 43 51
f 16 51 46
f 16 46 45
f 16 45 37
f 16 37 20
f 16 20 17
f 17 20 35
f 17 35 23
f 17 23 22
f 17 22 18
f 19 21 37
f 19 37 38
f 19 38 36
f 20 37 21
f 20 24 35
f 26 39 27
f 27 40 33
f 27 33 28
f 27 39 41
f 27 41 40
f 28 33 29
f 29 33 30
f 30 33 31
f 31 33 32
f 33 40 42
f 33 42 43
f 33 43 34
f 36 38 46
f 36 46 51
f 36 51 52
f 36 52 50
f 36 50 49
f 36 49 55
f 36 55 53
f 36 53 44
f 37 45 38
f 38 45 46
f 40 47 42
f 40 41 47
f 41 48 47
f 42 47 49
f 42 49 50
f 42 50 43
f 43 50 52
f 43 52 51
f 44 53 54
f 47 48 54
f 47 54 53
f 47 53 55
f 47 55 49

