# https://github.com/mikedh/trimesh
v -1.17654677 0.86309914 -4.25730903
v -1.17654677 0.86309914 -4.28235179
v -1.17654677 0.83053189 -4.24178182
v -1.03331540 0.82069764 -4.22929600
v -0.97703276 0.82289853 -4.22929600
v -0.83490497 0.81807890 -4.22929600
v -1.13176815 0.86112115 -4.25955002
v -1.17654677 0.86120472 -4.28576671
v -1.13176815 0.86112115 -4.28292092
v -0.97703276 0.83242630 -4.34415825
v -1.02860007 0.83434859 -4.34415825
v -1.17654677 0.73374954 -4.22968728
v -1.12956100 0.78063632 -4.22929600
v -1.07993326 0.81481941 -4.22929600
v -0.83490497 0.57849104 -4.22929600
v -0.83490497 0.82813601 -4.29257871
v -1.09638668 0.85942172 -4.26232469
v -1.17654677 0.84560366 -4.30814153
v -1.02860007 0.81225634 -4.37789839
v -1.09638668 0.85942172 -4.28203163
v -0.83490497 0.82632517 -4.34415825
v -0.83490497 0.81551587 -4.37131752
v -0.83490497 0.81175487 -4.38038850
v -0.87383131 0.81236779 -4.38102867
v -0.92543199 0.81295283 -4.38166900
v -0.97703276 0.81323144 -4.38074419
v -1.17654677 0.72739768 -4.22931376
v -1.17651332 0.72739768 -4.22929600
v -0.83490497 0.57849104 -4.41099821
v -1.17654677 0.57849104 -4.22929600
v -1.06883059 0.80902472 -4.37402107
v -1.06715850 0.77863049 -4.41099821
v -1.08193982 0.77523168 -4.41099821
v -1.17654677 0.74118791 -4.41099821
v -0.97703276 0.79150137 -4.41099821
v -1.01997213 0.78631960 -4.41099821
v -0.83490497 0.79024771 -4.40619592
v -0.87406536 0.78974624 -4.41099821
v -0.92543199 0.79370222 -4.41099821
v -0.97138108 0.79180781 -4.41099821
v -1.17654677 0.71736842 -4.22929600
v -0.83490497 0.78503806 -4.41099821
v -1.17654677 0.57849104 -4.41099821
f 1 2 8
f 1 8 18
f 1 18 34
f 1 34 43
f 1 43 30
f 1 30 41
f 1 41 27
f 1 27 12
f 1 12 3
f 1 3 4
f 1 4 5
f 1 5 6
f 1 6 7
f 1 7 9
f 1 9 2
f 2 9 10
f 2 10 11
f 2 11 8
f 3 12 13
f 3 13 14
f 3 14 4
f 4 14 13
f 4 13 28
f 4 28 41
f 4 41 30
f 4 30 15
f 4 15 6
f 4 6 5
f 6 15 29
f 6 29 42
f 6 42 37
f 6 37 23
f 6 23 22
f 6 22 21
f 6 21 16
f 6 16 17
f 6 17 7
f 7 17 20
f 7 20 9
f 8 11 19
f 8 19 18
f 9 20 21
f 9 21 10
f 10 21 22
f 10 22 23
f 10 23 11
f 11 23 24
f 11 24 25
f 11 25 26
f 11 26 19
f 12 27 28
f 12 28 13
f 15 30 43
f 15 43 29
f 16 21 20
f 16 20 17
f 18 31 32
f 18 32 33
f 18 33 34
f 18 19 31
f 19 26 35
f 19 35 36
f 19 36 31
f 23 37 38
f 23 38 39
f 23 39 24
f 24 39 25
f 25 39 26
f 26 39 40
f 26 40 35
f 27 41 28
f 29 43 34
f 29 34 33
f 29 33 32
f 29 32 36
f 29 36 35
f 29 35 40
f 29 40 39
f 29 39 38
f 29 38 42
f 31 36 32
f 37 42 38

