# https://github.com/mikedh/trimesh
v -1.17658094 0.58009320 -4.64314163
v -1.17658094 0.71547247 -4.58413737
v -1.17658094 0.58009320 -4.40693943
v -1.18341828 0.58009320 -4.64311856
v -1.17658094 0.74128071 -4.56677352
v -1.18341828 0.71538962 -4.58411415
v -1.52576379 0.58009320 -4.40693943
v -1.17658094 0.73949940 -4.40693943
v -1.20122954 0.58009320 -4.64193940
v -1.23500601 0.71367046 -4.58295821
v -1.17658094 0.76425126 -4.54097072
v -1.18341828 0.74119785 -4.56665803
v -1.28662792 0.76408556 -4.53849691
v -1.23500601 0.76387843 -4.54002284
v -1.23500601 0.73945798 -4.56582564
v -1.52576379 0.78324499 -4.40693943
v -1.52576379 0.58009320 -4.48813966
v -1.17658094 0.76574259 -4.45327357
v -1.28426902 0.77479411 -4.40693943
v -1.23500601 0.58009320 -4.63951158
v -1.28662792 0.58009320 -4.63532685
v -1.28662792 0.70911363 -4.58029925
v -1.28662792 0.73492186 -4.56429971
v -1.17658094 0.77684468 -4.49896031
v -1.33821561 0.78001375 -4.49896031
v -1.33821561 0.76340205 -4.53562990
v -1.52576379 0.77607830 -4.41778314
v -1.44080987 0.79169582 -4.40693943
v -1.39469201 0.77332351 -4.50400065
v -1.44139103 0.76710966 -4.48707614
v -1.52576379 0.59216880 -4.48469476
v -1.43629722 0.58009320 -4.58970946
v -1.17658094 0.76733748 -4.45944678
v -1.33821561 0.78529552 -4.40693943
v -1.33821561 0.58009320 -4.62887608
v -1.31968644 0.70420468 -4.57770966
v -1.33739513 0.72377833 -4.56325926
v -1.38976912 0.79053588 -4.40693943
v -1.38074385 0.75952874 -4.53095939
v -1.52576379 0.75892807 -4.43077696
v -1.41513566 0.75281777 -4.52455506
v -1.52576379 0.72734095 -4.44455705
v -1.38976912 0.58009320 -4.61615967
v -1.52576379 0.74575469 -4.43664970
v -1.35404403 0.69612665 -4.57440346
v -1.39469201 0.73231204 -4.54258922
f 1 2 5
f 1 5 11
f 1 11 24
f 1 24 33
f 1 33 18
f 1 18 8
f 1 8 3
f 1 3 7
f 1 7 17
f 1 17 32
f 1 32 43
f 1 43 35
f 1 35 21
f 1 21 20
f 1 20 9
f 1 9 4
f 1 4 2
f 2 4 6
f 2 6 5
f 3 8 19
f 3 19 34
f 3 34 38
f 3 38 28
f 3 28 16
f 3 16 7
f 4 9 10
f 4 10 6
f 5 6 12
f 5 12 13
f 5 13 14
f 5 14 11
f 6 10 15
f 6 15 12
f 7 16 27
f 7 27 40
f 7 40 44
f 7 44 42
f 7 42 31
f 7 31 17
f 8 18 19
f 9 20 10
f 10 20 21
f 10 21 22
f 10 22 23
f 10 23 15
f 11 14 13
f 11 13 25
f 11 25 24
f 12 15 13
f 13 15 26
f 13 26 25
f 15 23 26
f 16 28 29
f 16 29 30
f 16 30 27
f 17 31 32
f 18 33 19
f 19 33 34
f 21 35 22
f 22 36 37
f 22 37 23
f 22 35 36
f 23 37 26
f 24 25 28
f 24 28 38
f 24 38 34
f 24 34 33
f 25 26 29
f 25 29 28
f 26 39 29
f 26 37 39
f 27 30 41
f 27 41 40
f 29 39 41
f 29 41 30
f 31 42 32
f 32 41 43
f 32 42 44
f 32 44 40
f 32 40 41
f 35 43 45
f 35 45 36
f 36 45 37
f 37 45 39
f 39 45 46
f 39 46 41
f 41 46 43
f 43 46 45

