# https://github.com/mikedh/trimesh
v -1.88045231 0.39311085 -4.60216092
v -1.88673101 0.33965614 -4.60216092
v -1.88136742 0.39311085 -4.65197180
v -1.88436696 0.39311085 -4.49922558
v -1.88741734 0.33965614 -4.62725958
v -1.89508141 0.33965614 -4.49922558
v -1.88141826 0.39311085 -4.65373900
v -1.93777403 0.39311085 -4.49922558
v -1.88965429 0.33965614 -4.65373900
v -1.94260379 0.33965614 -4.49922558
v -1.89078547 0.39311085 -4.68331087
v -1.94227334 0.36616110 -4.49922558
v -1.98515658 0.39311085 -4.62494032
v -2.00598815 0.33965614 -4.63648187
v -1.94780215 0.33965614 -4.78130367
v -1.92351351 0.39311085 -4.78130367
v -1.94229875 0.36589422 -4.49922558
v -1.99607442 0.33965614 -4.61384056
v -1.98586834 0.39311085 -4.62781194
v -2.01028409 0.33965614 -4.65373900
v -2.00462819 0.33965614 -4.78130367
v -1.98713934 0.39311085 -4.78130367
v -1.98876622 0.39311085 -4.65373900
v -1.98856285 0.39311085 -4.70534476
v -2.00842845 0.33965614 -4.70534476
v -2.00397998 0.34180689 -4.78130367
v -1.99649384 0.36616110 -4.78130367
f 1 2 3
f 1 3 7
f 1 7 11
f 1 11 16
f 1 16 22
f 1 22 24
f 1 24 23
f 1 23 19
f 1 19 13
f 1 13 8
f 1 8 4
f 1 4 2
f 2 5 3
f 2 4 6
f 2 6 10
f 2 10 18
f 2 18 14
f 2 14 20
f 2 20 25
f 2 25 21
f 2 21 15
f 2 15 9
f 2 9 5
f 3 5 7
f 4 8 12
f 4 12 17
f 4 17 10
f 4 10 6
f 5 9 7
f 7 9 11
f 8 13 14
f 8 14 12
f 9 15 16
f 9 16 11
f 10 17 18
f 12 14 18
f 12 18 17
f 13 19 20
f 13 20 14
f 15 21 26
f 15 26 27
f 15 27 22
f 15 22 16
f 19 23 20
f 20 23 24
f 20 24 22
f 20 22 25
f 21 25 26
f 22 27 25
f 25 27 26

