# https://github.com/mikedh/trimesh
v -2.94648055 0.16101550 -1.24389253
v -2.94133518 0.23254130 -1.27142317
v -2.93013047 0.22153618 -1.27142317
v -2.81880070 0.18259035 -1.27142317
v -2.80406735 0.18259035 -1.27142317
v -2.90017170 0.16101550 -1.22975231
v -2.94648055 0.16101550 -1.18071677
v -2.94648055 0.23760096 -1.27142317
v -2.80405328 0.18259035 -1.14503151
v -2.80406735 0.18257534 -1.24821766
v -2.89811917 0.16101550 -1.19602201
v -2.80287236 0.21137183 -1.27142317
v -2.94168664 0.16101550 -1.17960543
v -2.81877263 0.18259035 -1.13464067
v -2.88185336 0.20421024 -1.13464067
v -2.92291843 0.22667090 -1.13464067
v -2.94648055 0.20296409 -1.16108656
v -2.94648055 0.31438156 -1.27142317
v -2.80405328 0.18259035 -1.13464067
v -2.80406735 0.18256032 -1.19663788
v -2.80498117 0.22333782 -1.27142317
v -2.80287236 0.21137183 -1.19663788
v -2.93510723 0.25926588 -1.13464067
v -2.94648055 0.24657921 -1.14825867
v -2.94648055 0.31438156 -1.14947704
v -2.87042376 0.31438156 -1.27142317
v -2.80315354 0.20556147 -1.13464067
v -2.80756793 0.23797629 -1.27142317
v -2.80756793 0.23799130 -1.24821766
v -2.80756793 0.23799130 -1.19663788
v -2.80292864 0.21137183 -1.14503151
v -2.94153194 0.31262494 -1.13464067
v -2.94648055 0.26012167 -1.14804430
v -2.94549646 0.31438156 -1.14643749
v -2.94648055 0.31283514 -1.14828542
v -2.86984740 0.31438156 -1.24821766
v -2.80295670 0.21137183 -1.13464067
v -2.86876489 0.31438156 -1.19663788
v -2.80763820 0.23794626 -1.14503151
v -2.80671039 0.23260135 -1.13464067
v -2.94118048 0.31438156 -1.13464067
v -2.94648055 0.31200939 -1.14784347
v -2.87278561 0.31438156 -1.13464067
v -2.80766634 0.23791624 -1.13464067
f 1 2 3
f 1 3 4
f 1 4 5
f 1 5 6
f 1 6 11
f 1 11 13
f 1 13 7
f 1 7 17
f 1 17 24
f 1 24 33
f 1 33 42
f 1 42 35
f 1 35 25
f 1 25 18
f 1 18 8
f 1 8 2
f 2 8 18
f 2 18 26
f 2 26 28
f 2 28 21
f 2 21 12
f 2 12 5
f 2 5 4
f 2 4 3
f 5 9 10
f 5 10 11
f 5 11 6
f 5 12 9
f 7 13 14
f 7 14 15
f 7 15 16
f 7 16 17
f 9 19 20
f 9 20 10
f 9 12 22
f 9 22 19
f 10 20 11
f 11 20 19
f 11 19 13
f 12 21 22
f 13 19 14
f 14 19 27
f 14 27 37
f 14 37 40
f 14 40 44
f 14 44 43
f 14 43 41
f 14 41 32
f 14 32 23
f 14 23 16
f 14 16 15
f 16 23 17
f 17 23 24
f 18 25 34
f 18 34 41
f 18 41 43
f 18 43 38
f 18 38 36
f 18 36 26
f 19 22 27
f 21 28 29
f 21 29 30
f 21 30 22
f 22 31 27
f 22 30 31
f 23 32 24
f 24 32 33
f 25 35 34
f 26 36 28
f 27 31 37
f 28 36 38
f 28 38 29
f 29 38 30
f 30 38 39
f 30 39 31
f 31 39 40
f 31 40 37
f 32 41 34
f 32 34 35
f 32 35 42
f 32 42 33
f 38 43 44
f 38 44 39
f 39 44 40

