# https://github.com/mikedh/trimesh
v -1.83160639 0.53329840 -4.78137102
v -1.85419008 0.52954521 -4.78137102
v -1.83160639 0.47704749 -4.78137102
v -1.83160639 0.53467457 -4.88403079
v -1.90430159 0.51051342 -4.78137102
v -1.83160639 0.53492478 -4.91175304
v -1.85419008 0.53070245 -4.96335265
v -1.93253120 0.37519533 -4.78137102
v -1.91072902 0.37519533 -5.06655202
v -1.83160639 0.44993070 -5.16192708
v -1.90462058 0.51041959 -4.86015327
v -1.90450894 0.51043522 -4.80855366
v -1.91036220 0.50762033 -4.91579998
v -1.93165400 0.49523481 -4.93569791
v -1.91645468 0.50269428 -4.78137102
v -1.83160639 0.53495606 -4.96166633
v -1.91031434 0.50755778 -4.95930555
v -1.85419008 0.52599532 -5.16968389
v -1.99328066 0.37519533 -4.78137102
v -1.89717243 0.37519533 -5.47037864
v -1.83160639 0.44944591 -5.16968389
v -1.93165400 0.49523481 -4.93940777
v -1.94477998 0.47395111 -4.91579998
v -1.94742749 0.46783653 -4.78137102
v -1.93932544 0.48001876 -4.78137102
v -1.93009102 0.49363971 -4.78137102
v -1.83160639 0.52768426 -5.24387959
v -1.89415808 0.50733885 -5.16968389
v -1.85419008 0.52404053 -5.22128365
v -1.98565707 0.39752680 -4.78137102
v -1.98618339 0.39859021 -4.86015327
v -1.99447683 0.37519533 -4.89738599
v -1.97286604 0.37519533 -5.47037864
v -1.83160639 0.44806974 -5.47037864
v -1.83160639 0.44724091 -5.27288326
v -1.93052163 0.49418705 -4.97380746
v -1.93572099 0.44971176 -5.47037864
v -1.94450885 0.47393547 -4.95930555
v -1.97382297 0.42456540 -4.91175304
v -1.97359969 0.42439338 -4.86015327
v -1.94779433 0.46821185 -4.86015327
v -1.97321690 0.42332997 -4.78137102
v -1.83160639 0.51171756 -5.47037864
v -1.85419008 0.50746395 -5.47037864
v -1.88388697 0.49737726 -5.47037864
v -1.85950106 0.50575938 -5.47037864
v -1.98623123 0.39876222 -4.91175304
v -1.99452467 0.37519533 -4.91175304
v -1.97348804 0.42125008 -4.96335265
v -1.97026635 0.38074692 -5.47037864
v -1.90521068 0.47936195 -5.47037864
v -1.90967639 0.47548366 -5.47037864
v -1.94958060 0.42331433 -5.47037864
v -1.95237166 0.41776274 -5.47037864
f 1 2 5
f 1 5 15
f 1 15 26
f 1 26 25
f 1 25 24
f 1 24 42
f 1 42 30
f 1 30 19
f 1 19 8
f 1 8 3
f 1 3 10
f 1 10 21
f 1 21 35
f 1 35 34
f 1 34 43
f 1 43 27
f 1 27 16
f 1 16 6
f 1 6 4
f 1 4 2
f 2 4 6
f 2 6 7
f 2 7 5
f 3 8 9
f 3 9 10
f 5 11 12
f 5 12 13
f 5 13 14
f 5 14 15
f 5 7 11
f 6 16 7
f 7 17 11
f 7 16 18
f 7 18 17
f 8 19 32
f 8 32 48
f 8 48 33
f 8 33 20
f 8 20 9
f 9 20 21
f 9 21 10
f 11 17 13
f 11 13 12
f 13 17 22
f 13 22 14
f 14 22 23
f 14 23 24
f 14 24 25
f 14 25 26
f 14 26 15
f 16 27 18
f 17 18 28
f 17 28 22
f 18 27 29
f 18 29 28
f 19 30 31
f 19 31 32
f 20 33 50
f 20 50 54
f 20 54 53
f 20 53 37
f 20 37 52
f 20 52 51
f 20 51 45
f 20 45 46
f 20 46 44
f 20 44 43
f 20 43 34
f 20 34 35
f 20 35 21
f 22 28 36
f 22 36 37
f 22 37 38
f 22 38 23
f 23 38 39
f 23 39 40
f 23 40 41
f 23 41 24
f 24 41 40
f 24 40 42
f 27 43 44
f 27 44 29
f 28 29 45
f 28 45 36
f 29 44 46
f 29 46 45
f 30 42 31
f 31 40 39
f 31 39 47
f 31 47 48
f 31 48 32
f 31 42 40
f 33 48 47
f 33 47 49
f 33 49 50
f 36 45 51
f 36 51 52
f 36 52 37
f 37 53 49
f 37 49 38
f 38 49 39
f 39 49 47
f 49 53 54
f 49 54 50

