# https://github.com/mikedh/trimesh
v -2.46050681 0.53916234 -1.11087002
v -2.46050681 0.59473778 -1.08010623
v -2.46050681 0.53916234 -0.91066417
v -2.57657137 0.53916234 -1.09290445
v -2.47339245 0.60235937 -1.07175123
v -2.46050681 0.60387864 -1.07353812
v -2.47467172 0.53916234 -0.89760053
v -2.46050681 0.58052706 -0.93070650
v -2.62671003 0.53916234 -1.08128954
v -2.70371193 0.59760007 -1.01529474
v -2.66929825 0.60189771 -1.02010011
v -2.46050681 0.61633507 -1.05110533
v -2.62814522 0.60599388 -1.02553319
v -2.52499752 0.53916234 -0.88642020
v -2.46050681 0.60843649 -0.95036254
v -2.68137264 0.56998443 -0.86418056
v -2.73319614 0.53916234 -1.04048044
v -2.74998179 0.53916234 -1.03299474
v -2.76052741 0.55280229 -1.01913424
v -2.73135528 0.58942450 -1.00744690
v -2.76052741 0.60192289 -0.97093601
v -2.73135528 0.60757191 -0.98168162
v -2.68380631 0.61142469 -0.99493855
v -2.46050681 0.62067467 -1.04180861
v -2.65631896 0.53916234 -0.86418056
v -2.46050681 0.62409095 -0.99022976
v -2.67975029 0.61799703 -0.93865106
v -2.67975029 0.60430673 -0.90590724
v -2.73135528 0.60247688 -0.90791141
v -2.72314968 0.56441093 -0.86418056
v -2.76358503 0.53916234 -1.02374631
v -2.76732903 0.53916234 -1.01502917
v -2.76670508 0.57102525 -0.98895003
v -2.77746914 0.53916234 -0.98977104
v -2.77877955 0.53916234 -0.97204690
v -2.76988749 0.57255293 -0.93865106
v -2.75977860 0.60112547 -0.93865106
v -2.73135528 0.61170168 -0.93865106
v -2.62814522 0.62016265 -0.99022976
v -2.57657137 0.62299975 -0.99022976
v -2.46050681 0.62491354 -1.00312455
v -2.73887450 0.53916234 -0.86418056
v -2.47339245 0.62459457 -0.99022976
v -2.52499752 0.62407417 -0.99022976
v -2.75725143 0.59848143 -0.91269264
v -2.77921635 0.53916234 -0.93865106
v -2.76629950 0.53916234 -0.89535478
f 1 2 6
f 1 6 12
f 1 12 24
f 1 24 41
f 1 41 26
f 1 26 15
f 1 15 8
f 1 8 3
f 1 3 7
f 1 7 14
f 1 14 25
f 1 25 42
f 1 42 47
f 1 47 46
f 1 46 35
f 1 35 34
f 1 34 32
f 1 32 31
f 1 31 18
f 1 18 17
f 1 17 9
f 1 9 4
f 1 4 2
f 2 5 6
f 2 4 5
f 3 8 7
f 4 9 5
f 5 9 10
f 5 10 11
f 5 11 6
f 6 11 13
f 6 13 12
f 7 8 15
f 7 15 16
f 7 16 14
f 9 17 10
f 10 17 18
f 10 18 19
f 10 19 20
f 10 20 21
f 10 21 22
f 10 22 23
f 10 23 11
f 11 23 13
f 12 13 24
f 13 23 24
f 14 16 25
f 15 26 27
f 15 27 28
f 15 28 16
f 16 28 29
f 16 29 30
f 16 30 42
f 16 42 25
f 18 31 19
f 19 31 32
f 19 32 33
f 19 33 21
f 19 21 20
f 21 33 34
f 21 34 35
f 21 35 36
f 21 36 37
f 21 37 38
f 21 38 22
f 22 38 39
f 22 39 23
f 23 39 24
f 24 40 41
f 24 39 40
f 26 41 43
f 26 43 27
f 27 39 38
f 27 38 29
f 27 29 28
f 27 43 44
f 27 44 40
f 27 40 39
f 29 38 45
f 29 45 30
f 30 45 42
f 32 34 33
f 35 46 36
f 36 46 45
f 36 45 37
f 37 45 38
f 40 44 41
f 41 44 43
f 42 45 47
f 45 46 47

