# https://github.com/mikedh/trimesh
v -1.29446315 0.56279195 -4.78137102
v -1.36549478 0.56247814 -4.78137102
v -1.29446315 0.51476755 -4.78137102
v -1.29446315 0.56519377 -5.11815178
v -1.44141606 0.57052848 -5.27288326
v -1.49299416 0.56147638 -4.78137102
v -1.83159046 0.47706255 -4.78137102
v -1.29446315 0.48307314 -5.01495241
v -1.29446315 0.56479548 -5.16968389
v -1.44141606 0.57002155 -5.32448302
v -1.49299416 0.56888703 -5.32448302
v -1.54462483 0.56037806 -4.78137102
v -1.29446315 0.47615734 -5.06655202
v -1.83159046 0.53330625 -4.78137102
v -1.83159046 0.44993039 -5.16192708
v -1.29446315 0.56417994 -5.22128365
v -1.29446315 0.55965389 -5.27288326
v -1.29446315 0.52211786 -5.47037864
v -1.54462483 0.55071041 -5.41270839
v -1.54462483 0.55909870 -5.37608263
v -1.60077713 0.55407780 -5.38046696
v -1.59615036 0.55892972 -5.32448302
v -1.75093723 0.55009487 -4.91175304
v -1.69935914 0.55326914 -4.78137102
v -1.64778103 0.55577959 -4.78137102
v -1.83159046 0.44944761 -5.16968389
v -1.29446315 0.45770313 -5.47037864
v -1.77822473 0.54690853 -4.78137102
v -1.83159046 0.53467010 -4.88403079
v -1.59699159 0.53383731 -5.47037864
v -1.58668648 0.55078283 -5.41223614
v -1.65256555 0.55197771 -5.32933944
v -1.80256792 0.51743490 -5.47037864
v -1.68553137 0.54915345 -5.31530978
v -1.69099938 0.54992590 -5.27288326
v -1.77727835 0.54678784 -4.93907039
v -1.77943401 0.54699302 -4.91175304
v -1.77974946 0.54702923 -4.88187238
v -1.75162073 0.54960003 -4.78137102
v -1.83159046 0.44722683 -5.27288326
v -1.83159046 0.44805962 -5.47037864
v -1.83159046 0.53493563 -4.91175304
v -1.64778103 0.53290796 -5.47037864
v -1.83159046 0.51172605 -5.47037864
v -1.80256792 0.53027682 -5.32448302
v -1.80256792 0.53236484 -5.27288326
v -1.83159046 0.53494770 -4.96166633
v -1.83159046 0.52768187 -5.24387959
f 1 2 6
f 1 6 12
f 1 12 25
f 1 25 24
f 1 24 39
f 1 39 28
f 1 28 14
f 1 14 7
f 1 7 3
f 1 3 8
f 1 8 13
f 1 13 27
f 1 27 18
f 1 18 17
f 1 17 16
f 1 16 9
f 1 9 4
f 1 4 5
f 1 5 2
f 2 5 6
f 3 7 8
f 4 9 5
f 5 9 10
f 5 10 11
f 5 11 12
f 5 12 6
f 7 13 8
f 7 14 29
f 7 29 42
f 7 42 47
f 7 47 48
f 7 48 44
f 7 44 41
f 7 41 40
f 7 40 26
f 7 26 15
f 7 15 13
f 9 16 10
f 10 16 17
f 10 17 18
f 10 18 19
f 10 19 20
f 10 20 11
f 11 20 21
f 11 21 22
f 11 22 23
f 11 23 24
f 11 24 25
f 11 25 12
f 13 15 26
f 13 26 27
f 14 28 29
f 18 27 41
f 18 41 44
f 18 44 33
f 18 33 43
f 18 43 30
f 18 30 19
f 19 31 20
f 19 30 31
f 20 31 21
f 21 32 22
f 21 31 33
f 21 33 34
f 21 34 32
f 22 34 35
f 22 35 23
f 22 32 34
f 23 36 37
f 23 37 38
f 23 38 28
f 23 28 39
f 23 39 24
f 23 35 36
f 26 40 27
f 27 40 41
f 28 38 42
f 28 42 29
f 30 43 31
f 31 43 33
f 33 44 45
f 33 45 34
f 34 46 35
f 34 45 46
f 35 46 36
f 36 47 37
f 36 46 48
f 36 48 47
f 37 47 38
f 38 47 42
f 44 48 45
f 45 48 46

