# https://github.com/mikedh/trimesh
v -2.78843273 0.21263235 -0.64615322
v -2.79009621 0.22256811 -0.64615322
v -2.79334827 0.18298459 -0.64615322
v -2.80406351 0.18260748 -1.13462729
v -2.80314938 0.20556853 -1.13462729
v -2.80296954 0.21137044 -1.13462729
v -2.86441378 0.33070122 -0.64615322
v -2.80671616 0.23260543 -1.13462729
v -2.80767526 0.23794319 -1.13462729
v -2.79878836 0.18298459 -0.64615322
v -2.80406351 0.18260748 -0.73226739
v -2.80400361 0.18256396 -0.75751352
v -2.80395863 0.18252044 -0.78385931
v -2.81878017 0.18260748 -1.13462729
v -2.91839485 0.33070122 -0.64615322
v -2.87277623 0.31447038 -1.13462729
v -2.87198198 0.33070122 -0.75751352
v -2.81788104 0.18314416 -0.64615322
v -2.81878017 0.18286855 -0.68067531
v -2.81958950 0.18260748 -0.73226739
v -2.81955951 0.18256396 -0.75751352
v -2.81951453 0.18252044 -0.78385931
v -2.88184298 0.20421958 -1.13462729
v -2.91983351 0.33070122 -0.66451400
v -2.91875454 0.31454290 -0.64615322
v -2.94115918 0.31447038 -1.13462729
v -2.92260603 0.33070122 -0.75751352
v -2.84367261 0.19207908 -0.64615322
v -2.84458682 0.19170196 -0.68067531
v -2.84538107 0.19144087 -0.73226739
v -2.83273256 0.18707494 -0.75751352
v -2.92290574 0.22667297 -1.13462729
v -2.92188666 0.33070122 -0.71672764
v -2.94153386 0.31262827 -1.13462729
v -2.92417962 0.31454290 -0.73226739
v -2.92143709 0.31454290 -0.68067531
v -2.91478310 0.27955738 -0.64615322
v -2.92223135 0.33070122 -0.73226739
v -2.87940024 0.21786858 -0.64615322
v -2.93508970 0.25925069 -1.13462729
v -2.90595617 0.25009819 -0.68067531
v -2.91625182 0.27585867 -0.68067531
v -2.90860874 0.26232571 -0.64615322
v -2.90519182 0.25379691 -0.64615322
f 1 2 7
f 1 7 15
f 1 15 25
f 1 25 37
f 1 37 43
f 1 43 44
f 1 44 39
f 1 39 28
f 1 28 18
f 1 18 10
f 1 10 3
f 1 3 4
f 1 4 5
f 1 5 6
f 1 6 2
f 2 6 8
f 2 8 9
f 2 9 7
f 3 10 20
f 3 20 11
f 3 11 12
f 3 12 13
f 3 13 4
f 4 13 22
f 4 22 14
f 4 14 23
f 4 23 32
f 4 32 40
f 4 40 34
f 4 34 26
f 4 26 16
f 4 16 9
f 4 9 8
f 4 8 6
f 4 6 5
f 7 9 16
f 7 16 17
f 7 17 27
f 7 27 38
f 7 38 33
f 7 33 24
f 7 24 15
f 10 18 19
f 10 19 20
f 11 20 21
f 11 21 12
f 12 21 22
f 12 22 13
f 14 22 23
f 15 24 25
f 16 26 27
f 16 27 17
f 18 28 29
f 18 29 19
f 19 29 20
f 20 29 30
f 20 30 31
f 20 31 21
f 21 31 22
f 22 31 23
f 23 31 30
f 23 30 29
f 23 29 32
f 24 33 34
f 24 34 35
f 24 35 36
f 24 36 25
f 25 36 37
f 26 34 33
f 26 33 38
f 26 38 27
f 28 39 32
f 28 32 29
f 32 39 41
f 32 41 42
f 32 42 40
f 34 40 35
f 35 42 36
f 35 40 42
f 36 42 37
f 37 42 43
f 39 44 41
f 41 44 43
f 41 43 42

