# https://github.com/mikedh/trimesh
v -2.62810255 0.77816297 -0.62903572
v -2.61560743 0.77532295 -0.64157959
v -2.62810255 0.77462323 -0.64157959
v -2.66799353 0.77194786 -0.64157959
v -2.67975368 0.77466440 -0.62903572
v -2.73133798 0.77577571 -0.57743765
v -2.67975368 0.77742208 -0.57743765
v -2.37064872 0.77536408 -0.64157959
v -2.41067333 0.77577571 -0.64157959
v -2.67975368 0.76993100 -0.64157959
v -2.71008951 0.76116394 -0.64157959
v -2.72799703 0.76186366 -0.62596096
v -2.78011587 0.76268685 -0.57494416
v -2.78619643 0.76149322 -0.57134932
v -2.78619643 0.76227527 -0.54057107
v -2.78292229 0.76301614 -0.53966856
v -2.73133798 0.76647356 -0.53540049
v -2.10363982 0.76252221 -0.54240671
v -2.10363982 0.76367469 -0.54901510
v -2.10363982 0.76754373 -0.57743765
v -2.26701239 0.77067190 -0.64157959
v -2.71844189 0.75865319 -0.64157959
v -2.76100566 0.75585432 -0.60670150
v -2.78619643 0.72733052 -0.60410099
v -2.78619643 0.72733052 -0.52378989
v -2.78292229 0.72733052 -0.52216831
v -2.73133798 0.72733052 -0.51399954
v -2.10363982 0.73395727 -0.52854728
v -2.10363982 0.75815928 -0.61422779
v -2.16170558 0.76083467 -0.64157959
v -2.21542808 0.76791414 -0.64157959
v -2.74390000 0.72733052 -0.64157959
v -2.78572872 0.66847192 -0.64157959
v -2.78619643 0.66777220 -0.64157959
v -2.77771042 0.68024364 -0.64157959
v -2.78619643 0.72366729 -0.52320846
v -2.78619643 0.36619378 -0.49085461
v -2.78292229 0.36619378 -0.49047202
v -2.67975368 0.67571603 -0.50639667
v -2.62810255 0.67571603 -0.50333728
v -2.52493393 0.67719780 -0.50347491
v -2.47334962 0.67690968 -0.50399498
v -2.37018101 0.67571603 -0.50546355
v -2.26701239 0.67571603 -0.50729934
v -2.10363982 0.72733052 -0.52565612
v -2.10363982 0.73099375 -0.64157959
v -2.15208362 0.75606011 -0.64157959
v -2.78619643 0.41723203 -0.64157959
v -2.78619643 0.35767369 -0.49077803
v -2.78292229 0.35767369 -0.49022751
v -2.55841027 0.65056735 -0.49997172
v -2.21542808 0.35767369 -0.48574523
v -2.57598371 0.67094149 -0.50240416
v -2.47334962 0.65110244 -0.49988007
v -2.44000692 0.65019692 -0.50001786
v -2.42243347 0.67073570 -0.50368912
v -2.21542808 0.67571603 -0.50843129
v -2.16384377 0.67571603 -0.51285221
v -2.10363982 0.50671359 -0.49848809
v -2.10363982 0.42554632 -0.64157959
v -2.78619643 0.35767369 -0.55461396
v -2.12475462 0.42509356 -0.64157959
v -2.10363982 0.35767369 -0.54578749
v -2.52493393 0.65139056 -0.49986470
v -2.16384377 0.35767369 -0.48545459
v -2.10363982 0.35767369 -0.48531681
v -2.11219265 0.35767369 -0.48531681
f 1 2 3
f 1 3 4
f 1 4 5
f 1 5 6
f 1 6 7
f 1 7 8
f 1 8 9
f 1 9 2
f 2 9 8
f 2 8 21
f 2 21 31
f 2 31 30
f 2 30 47
f 2 47 46
f 2 46 60
f 2 60 62
f 2 62 48
f 2 48 34
f 2 34 33
f 2 33 35
f 2 35 32
f 2 32 22
f 2 22 11
f 2 11 10
f 2 10 4
f 2 4 3
f 4 10 5
f 5 10 11
f 5 11 12
f 5 12 13
f 5 13 6
f 6 13 14
f 6 14 15
f 6 15 16
f 6 16 17
f 6 17 7
f 7 17 18
f 7 18 19
f 7 19 20
f 7 20 8
f 8 20 21
f 11 22 12
f 12 22 13
f 13 22 23
f 13 23 14
f 14 24 34
f 14 34 48
f 14 48 61
f 14 61 49
f 14 49 37
f 14 37 36
f 14 36 25
f 14 25 15
f 14 23 24
f 15 25 26
f 15 26 16
f 16 26 27
f 16 27 17
f 17 27 18
f 18 28 45
f 18 45 59
f 18 59 66
f 18 66 63
f 18 63 60
f 18 60 46
f 18 46 29
f 18 29 20
f 18 20 19
f 18 27 28
f 20 29 30
f 20 30 31
f 20 31 21
f 22 32 23
f 23 32 24
f 24 33 34
f 24 32 35
f 24 35 33
f 25 36 26
f 26 36 37
f 26 37 27
f 27 37 38
f 27 38 39
f 27 39 40
f 27 40 41
f 27 41 42
f 27 42 43
f 27 43 44
f 27 44 45
f 27 45 28
f 29 46 47
f 29 47 30
f 37 49 50
f 37 50 38
f 38 51 40
f 38 40 39
f 38 50 52
f 38 52 51
f 40 51 53
f 40 53 41
f 41 53 54
f 41 54 55
f 41 55 42
f 42 55 56
f 42 56 43
f 43 56 44
f 44 56 55
f 44 55 57
f 44 57 45
f 45 57 58
f 45 58 59
f 48 62 63
f 48 63 61
f 49 61 63
f 49 63 66
f 49 66 67
f 49 67 65
f 49 65 52
f 49 52 50
f 51 64 53
f 51 52 65
f 51 65 64
f 53 64 54
f 54 64 66
f 54 66 55
f 55 66 57
f 57 66 59
f 57 59 58
f 60 63 62
f 64 65 67
f 64 67 66

