# https://github.com/mikedh/trimesh
v -1.17654677 0.44032120 -4.52849374
v -1.17654677 0.57849103 -4.52849374
v -1.08019053 0.43971016 -4.52849374
v -1.17654677 0.42623744 -4.24097810
v -1.17654677 0.57849103 -4.13240846
v -0.88917068 0.57849103 -4.52849374
v -1.05897281 0.43962073 -4.52849374
v -0.87992186 0.43547758 -4.13240846
v -0.92918807 0.43433001 -4.13240846
v -0.97694303 0.43345071 -4.13240846
v -1.02856678 0.43342090 -4.13240846
v -1.08019053 0.43365936 -4.13240846
v -1.08538918 0.43371897 -4.13240846
v -1.17654677 0.43522422 -4.13240846
v -1.02856678 0.43950150 -4.52849374
v -1.00396390 0.43959093 -4.52849374
v -0.97694303 0.43969525 -4.52849374
v -0.55905691 0.43819000 -4.44074615
v -0.55905691 0.43819000 -4.40235904
v -0.55905691 0.57849103 -4.13240846
v -0.62125927 0.57849103 -4.47843528
v -0.56492042 0.51679077 -4.52849374
v -0.87375603 0.43564151 -4.13240846
v -0.94502583 0.44078320 -4.52849374
v -0.55905691 0.45412178 -4.52849374
v -0.92537979 0.44145386 -4.52849374
v -0.55905691 0.44760898 -4.13240846
v -0.61581880 0.44427061 -4.13240846
v -0.66744256 0.44209470 -4.13240846
v -0.82225323 0.43717657 -4.13240846
v -0.55905691 0.57849103 -4.42864839
v -0.59587051 0.57849103 -4.47203755
v -0.55905691 0.51564321 -4.52849374
v -0.56177707 0.51617973 -4.52849374
v -0.56582724 0.57849103 -4.44415830
f 1 2 6
f 1 6 22
f 1 22 34
f 1 34 33
f 1 33 25
f 1 25 26
f 1 26 24
f 1 24 17
f 1 17 16
f 1 16 15
f 1 15 7
f 1 7 3
f 1 3 4
f 1 4 14
f 1 14 5
f 1 5 2
f 2 5 20
f 2 20 31
f 2 31 35
f 2 35 32
f 2 32 21
f 2 21 6
f 3 7 4
f 4 8 9
f 4 9 10
f 4 10 11
f 4 11 12
f 4 12 13
f 4 13 14
f 4 7 15
f 4 15 16
f 4 16 17
f 4 17 18
f 4 18 19
f 4 19 8
f 5 14 13
f 5 13 12
f 5 12 11
f 5 11 10
f 5 10 9
f 5 9 8
f 5 8 23
f 5 23 30
f 5 30 29
f 5 29 28
f 5 28 27
f 5 27 20
f 6 21 22
f 8 19 23
f 17 24 18
f 18 25 33
f 18 33 31
f 18 31 20
f 18 20 27
f 18 27 19
f 18 24 26
f 18 26 25
f 19 27 28
f 19 28 29
f 19 29 30
f 19 30 23
f 21 32 33
f 21 33 34
f 21 34 22
f 31 33 35
f 32 35 33

