# https://github.com/mikedh/trimesh
v -1.29438676 0.36611411 -5.68532337
v -1.29438676 0.36611411 -5.63092318
v -1.29438676 0.36616011 -5.68532337
v -1.23498348 0.36611411 -5.68532337
v -1.29438676 0.45793602 -5.46935049
v -0.51342883 0.36611411 -5.61400913
v -0.51342883 0.44316907 -5.46935049
v -1.29438676 0.37402662 -5.68397045
v -1.23498348 0.36616011 -5.68532337
v -0.97695771 0.36611411 -5.68521788
v -1.29438676 0.52217149 -5.46935049
v -0.51342883 0.36611411 -5.67919199
v -0.51342883 0.51237286 -5.46935049
v -1.29438676 0.41776010 -5.67644369
v -1.28658863 0.41776010 -5.67644369
v -0.97695771 0.36616011 -5.68521788
v -0.71900849 0.36611411 -5.68492171
v -1.29438676 0.52169613 -5.47935090
v -1.18337833 0.52276953 -5.46935049
v -1.18337833 0.52235550 -5.47935090
v -0.51342883 0.36616011 -5.67919199
v -0.56426948 0.36611411 -5.68403380
v -0.51342883 0.51246487 -5.47852635
v -0.52260307 0.51369161 -5.46935049
v -1.29438676 0.44945614 -5.66441344
v -1.13177319 0.44947148 -5.66447679
v -0.97695771 0.44948681 -5.66451893
v -0.92535257 0.44947148 -5.66451893
v -0.97695771 0.41776010 -5.67631667
v -0.71900849 0.41776010 -5.67618996
v -0.71900849 0.36616011 -5.68492171
v -0.66747977 0.36611411 -5.68483713
v -1.29438676 0.51554706 -5.53093928
v -0.72902366 0.52218682 -5.46935049
v -0.71900849 0.52184947 -5.47935090
v -1.18337833 0.51611443 -5.53093928
v -0.77061364 0.51643646 -5.53093928
v -0.51342883 0.41776010 -5.67263803
v -0.56426948 0.36616011 -5.68403380
v -0.61587463 0.36611411 -5.68466798
v -0.51342883 0.51246487 -5.47935090
v -0.56426948 0.51968733 -5.47935090
v -0.56426948 0.51961066 -5.46935049
v -1.29438676 0.45261501 -5.65980429
v -0.77061364 0.47047949 -5.63411574
v -0.71900849 0.47049483 -5.63411574
v -0.71900849 0.44944081 -5.66439222
v -0.66747977 0.41776010 -5.67606294
v -0.66747977 0.36616011 -5.68483713
v -1.29438676 0.50553375 -5.56831962
v -0.71900849 0.52217149 -5.46935049
v -0.61587463 0.52111342 -5.47935090
v -0.61587463 0.51574641 -5.53093928
v -1.29438676 0.50369364 -5.57508534
v -0.77061364 0.50469036 -5.57614240
v -0.61587463 0.50424567 -5.57580409
v -0.51342883 0.44818339 -5.66314478
v -0.56426948 0.41776010 -5.67509046
v -0.61587463 0.36616011 -5.68466798
v -0.51342883 0.50907598 -5.53013580
v -0.56426948 0.51445832 -5.53093928
v -0.57420822 0.52004002 -5.46935049
v -1.29438676 0.47017281 -5.63411574
v -1.28658863 0.47018814 -5.63411574
v -0.77061364 0.49038344 -5.60193659
v -0.61587463 0.49042945 -5.60157706
v -0.66747977 0.47038749 -5.63411574
v -0.66747977 0.44933347 -5.66428642
v -0.61587463 0.44907278 -5.66409635
v -0.61587463 0.41776010 -5.67572463
v -0.67741851 0.52181880 -5.46935049
v -0.62581337 0.52137410 -5.46935049
v -0.61587463 0.52117476 -5.46935049
v -1.29438676 0.49222356 -5.59692578
v -1.29438676 0.49006142 -5.60085831
v -0.56426948 0.50327960 -5.57451436
v -0.56426948 0.49009209 -5.60028749
v -0.51342883 0.44850541 -5.66267976
v -0.56426948 0.44864342 -5.66369438
v -0.56426948 0.46937542 -5.63411574
v -0.51342883 0.50898398 -5.53093928
v -0.51342883 0.50082611 -5.56905960
v -1.29438676 0.47320900 -5.62908386
v -0.61587463 0.47015747 -5.63411574
v -0.51342883 0.50064210 -5.56973621
v -0.51342883 0.48940205 -5.59510752
v -0.51342883 0.48918736 -5.59553025
v -0.51342883 0.46834802 -5.63358721
v -0.51342883 0.46801067 -5.63411574
f 1 2 5
f 1 5 11
f 1 11 18
f 1 18 33
f 1 33 50
f 1 50 54
f 1 54 74
f 1 74 75
f 1 75 83
f 1 83 63
f 1 63 44
f 1 44 25
f 1 25 14
f 1 14 8
f 1 8 3
f 1 3 9
f 1 9 4
f 1 4 10
f 1 10 17
f 1 17 32
f 1 32 40
f 1 40 22
f 1 22 12
f 1 12 6
f 1 6 2
f 2 6 7
f 2 7 5
f 3 8 9
f 4 9 16
f 4 16 10
f 5 7 13
f 5 13 24
f 5 24 43
f 5 43 62
f 5 62 73
f 5 73 72
f 5 72 71
f 5 71 51
f 5 51 34
f 5 34 19
f 5 19 11
f 6 12 21
f 6 21 38
f 6 38 57
f 6 57 78
f 6 78 89
f 6 89 88
f 6 88 87
f 6 87 86
f 6 86 85
f 6 85 82
f 6 82 81
f 6 81 60
f 6 60 41
f 6 41 23
f 6 23 13
f 6 13 7
f 8 14 15
f 8 15 9
f 9 15 29
f 9 29 16
f 10 16 31
f 10 31 17
f 11 19 20
f 11 20 18
f 12 22 39
f 12 39 21
f 13 23 24
f 14 25 26
f 14 26 27
f 14 27 15
f 15 27 28
f 15 28 29
f 16 29 30
f 16 30 31
f 17 31 49
f 17 49 32
f 18 20 33
f 19 34 35
f 19 35 20
f 20 36 33
f 20 35 37
f 20 37 36
f 21 39 38
f 22 40 59
f 22 59 39
f 23 41 42
f 23 42 43
f 23 43 24
f 25 44 45
f 25 45 26
f 26 45 46
f 26 46 27
f 27 46 28
f 28 46 47
f 28 47 30
f 28 30 29
f 30 47 48
f 30 48 49
f 30 49 31
f 32 49 59
f 32 59 40
f 33 36 50
f 34 51 35
f 35 51 52
f 35 52 53
f 35 53 37
f 36 54 50
f 36 37 55
f 36 55 54
f 37 53 56
f 37 56 55
f 38 39 58
f 38 58 57
f 39 59 70
f 39 70 58
f 41 60 42
f 42 61 52
f 42 52 62
f 42 62 43
f 42 60 61
f 44 63 64
f 44 64 45
f 45 65 46
f 45 64 65
f 46 65 66
f 46 66 67
f 46 67 47
f 47 67 68
f 47 68 48
f 48 68 69
f 48 69 70
f 48 70 59
f 48 59 49
f 51 71 52
f 52 72 73
f 52 73 62
f 52 61 53
f 52 71 72
f 53 61 56
f 54 55 74
f 55 56 66
f 55 66 65
f 55 65 75
f 55 75 74
f 56 61 76
f 56 76 77
f 56 77 66
f 57 58 79
f 57 79 80
f 57 80 78
f 58 70 79
f 60 81 61
f 61 81 82
f 61 82 76
f 63 83 64
f 64 83 65
f 65 83 75
f 66 77 80
f 66 80 84
f 66 84 67
f 67 84 68
f 68 84 69
f 69 84 79
f 69 79 70
f 76 82 85
f 76 85 86
f 76 86 87
f 76 87 77
f 77 87 88
f 77 88 80
f 78 80 89
f 79 84 80
f 80 88 89

