# https://github.com/mikedh/trimesh
v -2.99550694 0.22273066 -2.17598586
v -2.93800953 0.22273066 -2.17598586
v -2.99603278 0.22273066 -2.16562947
v -2.99249976 0.26296736 -2.12540095
v -2.98990339 0.26296736 -2.17598586
v -2.83601292 0.41653459 -2.17598586
v -2.94556850 0.22273066 -1.87023124
v -3.00387108 0.22273066 -1.87023124
v -2.96844255 0.41653459 -2.01543102
v -2.97647807 0.31456747 -2.17598586
v -2.93618558 0.41653459 -2.17598586
v -2.85376006 0.41653459 -1.87023124
v -2.98040545 0.31456747 -1.87023124
v -2.96870551 0.41653459 -1.97361614
v -2.96862331 0.41653459 -1.99343111
v -2.96596129 0.34575518 -2.17598586
v -2.92384470 0.41653459 -1.87023124
v -2.96773595 0.34949239 -1.87023124
v -2.96060424 0.41653459 -1.94993999
v -2.96698006 0.35104799 -1.87023124
v -2.93728655 0.41653459 -1.89510469
v -2.92977687 0.41649665 -1.87023124
v -2.95427772 0.37493200 -1.87023124
f 1 2 7
f 1 7 8
f 1 8 3
f 1 3 4
f 1 4 5
f 1 5 10
f 1 10 16
f 1 16 11
f 1 11 6
f 1 6 2
f 2 6 7
f 3 8 4
f 4 8 9
f 4 9 5
f 5 9 10
f 6 11 9
f 6 9 15
f 6 15 14
f 6 14 19
f 6 19 21
f 6 21 17
f 6 17 12
f 6 12 7
f 7 12 17
f 7 17 22
f 7 22 23
f 7 23 20
f 7 20 18
f 7 18 13
f 7 13 8
f 8 13 14
f 8 14 15
f 8 15 9
f 9 11 16
f 9 16 10
f 13 18 14
f 14 18 20
f 14 20 19
f 17 21 22
f 19 20 23
f 19 23 22
f 19 22 21

