# https://github.com/mikedh/trimesh
v -1.43038656 0.56042898 -1.50622524
v -1.38976766 0.55372271 -1.47772335
v -1.38976766 0.55448648 -1.50622524
v -1.43038656 0.56033585 -1.55781901
v -1.43038656 0.55951618 -1.47772335
v -1.35954032 0.54804100 -1.47772335
v -1.38976766 0.55361095 -1.55781901
v -1.35867671 0.54833906 -1.50622524
v -1.43038656 0.55890144 -1.60900157
v -1.43038656 0.49962543 -1.47772335
v -1.34527638 0.54310445 -1.47772335
v -1.38976766 0.55210203 -1.60900157
v -1.36093331 0.54770569 -1.55781901
v -1.36366349 0.54696055 -1.60900157
v -1.33287898 0.53820514 -1.50622524
v -1.33513558 0.53803748 -1.55781901
v -1.43038656 0.50985250 -1.60900157
v -1.22275112 0.37011982 -1.47772335
v -1.21659421 0.37011982 -1.60900157
v -1.33374259 0.53855908 -1.47772335
v -1.33761507 0.53736685 -1.60900157
v -1.36321777 0.54683015 -1.60900157
v -1.31298743 0.52922618 -1.47772335
v -1.28660466 0.51734117 -1.50622524
v -1.28660466 0.51560872 -1.55781901
v -1.14677876 0.37011982 -1.47772335
v -1.15101338 0.37011982 -1.60900157
v -1.28699467 0.51368998 -1.60900157
v -1.28660466 0.51728529 -1.47772335
v -1.27192279 0.50957307 -1.47772335
v -1.25384211 0.50009115 -1.50622524
v -1.28660466 0.51350369 -1.60900157
v -1.14641661 0.37011982 -1.48899303
v -1.14605443 0.37073456 -1.50761307
v -1.15669666 0.39342412 -1.47772335
v -1.16157207 0.38828265 -1.60900157
v -1.15669666 0.39342412 -1.49133182
v -1.14583157 0.37011982 -1.50760016
v -1.25453857 0.49966269 -1.47772335
v -1.25799312 0.49690566 -1.60900157
v -1.25846675 0.49722235 -1.60900157
v -1.22804438 0.47958112 -1.50622524
v -1.19990648 0.45379922 -1.50622524
v -1.20113227 0.45253248 -1.47772335
v -1.18179793 0.41752946 -1.60900157
v -1.20146659 0.45191774 -1.55781901
v -1.22874088 0.47831438 -1.47772335
v -1.23032885 0.47769964 -1.55781901
v -1.23241829 0.47507301 -1.60900157
v -1.21614845 0.46676469 -1.47772335
v -1.20377893 0.44929112 -1.60900157
f 1 2 3
f 1 3 4
f 1 4 9
f 1 9 17
f 1 17 10
f 1 10 5
f 1 5 2
f 2 5 10
f 2 10 18
f 2 18 26
f 2 26 35
f 2 35 44
f 2 44 50
f 2 50 47
f 2 47 39
f 2 39 30
f 2 30 29
f 2 29 23
f 2 23 20
f 2 20 11
f 2 11 6
f 2 6 3
f 3 7 4
f 3 6 8
f 3 8 7
f 4 7 9
f 6 11 8
f 7 12 9
f 7 8 13
f 7 13 14
f 7 14 12
f 8 11 15
f 8 15 16
f 8 16 13
f 9 12 14
f 9 14 22
f 9 22 21
f 9 21 28
f 9 28 32
f 9 32 41
f 9 41 40
f 9 40 49
f 9 49 51
f 9 51 45
f 9 45 36
f 9 36 27
f 9 27 19
f 9 19 17
f 10 17 19
f 10 19 18
f 11 20 15
f 13 16 21
f 13 21 22
f 13 22 14
f 15 20 23
f 15 23 24
f 15 24 16
f 16 24 25
f 16 25 21
f 18 19 27
f 18 27 38
f 18 38 33
f 18 33 26
f 21 25 28
f 23 29 24
f 24 29 30
f 24 30 31
f 24 31 25
f 25 32 28
f 25 31 32
f 26 33 34
f 26 34 35
f 27 36 37
f 27 37 34
f 27 34 38
f 30 39 31
f 31 40 41
f 31 41 32
f 31 39 42
f 31 42 40
f 33 38 34
f 34 37 35
f 35 37 43
f 35 43 44
f 36 45 46
f 36 46 37
f 37 46 43
f 39 47 42
f 40 42 48
f 40 48 49
f 42 47 43
f 42 43 46
f 42 46 48
f 43 47 50
f 43 50 44
f 45 51 46
f 46 51 49
f 46 49 48

