# https://github.com/mikedh/trimesh
v -1.69222620 0.76007989 -0.67207458
v -1.57225181 0.75882550 -0.67207458
v -1.69222620 0.76565872 -0.71123212
v -1.69222620 0.42868503 -0.67207458
v -1.57225181 0.74908732 -0.69665778
v -1.57225181 0.42842093 -0.67207458
v -1.69222620 0.74938442 -0.74791170
v -1.69222620 0.43013750 -0.73224478
v -1.64778341 0.42987341 -0.73224478
v -1.57225181 0.42951029 -0.73224478
v -1.57225181 0.72538561 -0.73224478
v -1.57225181 0.70366454 -0.76032040
v -1.69222620 0.72185345 -0.77823093
v -1.58053197 0.44033782 -0.87137377
v -1.57225181 0.44020577 -0.87137377
v -1.69222620 0.44251653 -0.87137377
v -1.57225181 0.67319561 -0.78660099
v -1.69222620 0.71950970 -0.78041609
v -1.57225181 0.52953285 -0.87137377
v -1.69222620 0.50969340 -0.87137377
v -1.57225181 0.64774432 -0.80814049
v -1.69222620 0.68847959 -0.80318488
v -1.69214399 0.55488510 -0.87137377
v -1.69222620 0.62747573 -0.84089846
v -1.69222620 0.63196520 -0.83898655
v -1.57225181 0.62407563 -0.82181739
v -1.69222620 0.57162155 -0.86423299
v -1.57225181 0.63988777 -0.81295954
v -1.69222620 0.66325939 -0.81972972
f 1 2 3
f 1 3 7
f 1 7 13
f 1 13 18
f 1 18 22
f 1 22 29
f 1 29 25
f 1 25 24
f 1 24 27
f 1 27 20
f 1 20 16
f 1 16 8
f 1 8 4
f 1 4 6
f 1 6 2
f 2 5 3
f 2 6 10
f 2 10 15
f 2 15 19
f 2 19 26
f 2 26 28
f 2 28 21
f 2 21 17
f 2 17 12
f 2 12 11
f 2 11 5
f 3 5 7
f 4 8 9
f 4 9 10
f 4 10 6
f 5 11 7
f 7 11 12
f 7 12 13
f 8 14 15
f 8 15 9
f 8 16 14
f 9 15 10
f 12 17 18
f 12 18 13
f 14 16 20
f 14 20 23
f 14 23 19
f 14 19 15
f 17 21 18
f 18 21 22
f 19 23 24
f 19 24 25
f 19 25 26
f 20 27 23
f 21 28 25
f 21 25 29
f 21 29 22
f 23 27 24
f 25 28 26

