# https://github.com/mikedh/trimesh
v -1.69222620 0.55492862 -0.87146988
v -1.69222620 0.55191673 -0.96021793
v -1.69222620 0.50966931 -0.87139084
v -1.69213275 0.55484758 -0.87139084
v -1.57223761 0.53915337 -0.85925463
v -1.54457670 0.53812689 -0.85925463
v -1.53987309 0.53768118 -0.85925463
v -1.54457670 0.54005828 -0.96020809
v -1.69222620 0.44148996 -0.96021793
v -1.57223761 0.54000425 -0.96021793
v -1.69222620 0.44252994 -0.87139084
v -1.57223761 0.43997727 -0.85925463
v -1.49268132 0.53067147 -0.85925463
v -1.49236982 0.52899669 -0.96020809
v -1.37400102 0.41694918 -0.96020809
v -1.37400102 0.41696269 -0.93862384
v -1.37400102 0.41707074 -0.85925463
v -1.57223761 0.44034194 -0.96021793
v -1.37400102 0.47312151 -0.96020809
v -1.44583218 0.51216796 -0.85925463
v -1.37400102 0.48076602 -0.85925463
f 1 2 9
f 1 9 11
f 1 11 3
f 1 3 4
f 1 4 5
f 1 5 6
f 1 6 7
f 1 7 8
f 1 8 2
f 2 8 10
f 2 10 18
f 2 18 9
f 3 11 12
f 3 12 5
f 3 5 4
f 5 12 17
f 5 17 21
f 5 21 20
f 5 20 13
f 5 13 7
f 5 7 6
f 7 13 8
f 8 13 14
f 8 14 10
f 9 15 16
f 9 16 17
f 9 17 11
f 9 18 15
f 10 14 19
f 10 19 15
f 10 15 18
f 11 17 12
f 13 20 14
f 14 20 21
f 14 21 19
f 15 19 21
f 15 21 17
f 15 17 16

