# https://github.com/mikedh/trimesh
v -1.57225180 0.66326145 -0.49871445
v -1.57225180 0.64540880 -0.49871445
v -1.44141379 0.52093623 -0.50010843
v -1.55543331 0.66012940 -0.49896572
v -1.57225180 0.68625584 -0.50115980
v -1.57225180 0.52093623 -0.50070263
v -1.56665313 0.52093623 -0.50065695
v -1.51662485 0.52093623 -0.50035986
v -1.46682141 0.52093623 -0.50015426
v -1.39206005 0.52093623 -0.50776436
v -1.38981157 0.67573740 -0.51130660
v -1.54077332 0.67670312 -0.50136540
v -1.57225180 0.70919806 -0.51110085
v -1.38981157 0.72733780 -0.51679136
v -1.57225180 0.52093623 -0.73215990
v -1.39172278 0.52093623 -0.50794720
v -1.39172278 0.52124944 -0.50792429
v -1.34576424 0.67573740 -0.53013763
v -1.34769790 0.72733780 -0.53310845
v -1.44141379 0.72733780 -0.51743122
v -1.49297103 0.72733780 -0.51807109
v -1.44141379 0.77006409 -0.53690212
v -1.57225180 0.72733780 -0.52415003
v -1.35725385 0.76090285 -0.54307256
v -1.38981157 0.76907227 -0.53706204
v -1.35970467 0.52093623 -0.73215990
v -1.57225180 0.72545857 -0.73215990
v -1.35556750 0.52093623 -0.53491394
v -1.34769790 0.72733780 -0.57077051
v -1.34484234 0.52093623 -0.57744365
v -1.34254892 0.52093623 -0.62902342
v -1.44141379 0.78757741 -0.57744365
v -1.57225180 0.75531737 -0.54874015
v -1.57225180 0.74096219 -0.53541663
v -1.35725385 0.76090285 -0.56226912
v -1.38765308 0.77246532 -0.57865494
v -1.43907538 0.66242623 -0.73215990
v -1.41926645 0.74764388 -0.65201365
v -1.35547758 0.52093623 -0.72498391
v -1.57225180 0.74907938 -0.69662318
v -1.54457322 0.75030610 -0.70023386
v -1.54468565 0.72621548 -0.73215990
v -1.34736063 0.52093623 -0.68496799
v -1.35055346 0.52093623 -0.70126232
v -1.49297103 0.77865110 -0.62902342
v -1.54457322 0.77183891 -0.62902342
v -1.57225180 0.76808045 -0.62902342
v -1.49297103 0.77859889 -0.57744365
v -1.57225180 0.76022423 -0.56284055
v -1.43844582 0.77097760 -0.63249708
v -1.40341478 0.76411321 -0.61761965
v -1.44375219 0.67056955 -0.73215990
v -1.45710806 0.71246060 -0.71668827
v -1.45366791 0.75957174 -0.66485723
v -1.57225180 0.75936293 -0.67082192
v -1.54457322 0.76129436 -0.67443259
v -1.49297103 0.76293868 -0.67319854
v -1.49297103 0.74730457 -0.69899980
v -1.49755788 0.71864638 -0.73215990
v -1.57225180 0.76617512 -0.60139390
v -1.57225180 0.76406100 -0.57744365
v -1.44737221 0.67422359 -0.73215990
v -1.49506209 0.71736748 -0.73215990
f 1 2 3
f 1 3 4
f 1 4 5
f 1 5 13
f 1 13 23
f 1 23 34
f 1 34 33
f 1 33 49
f 1 49 61
f 1 61 60
f 1 60 47
f 1 47 55
f 1 55 40
f 1 40 27
f 1 27 15
f 1 15 6
f 1 6 2
f 2 6 7
f 2 7 8
f 2 8 9
f 2 9 3
f 3 9 8
f 3 8 7
f 3 7 6
f 3 6 15
f 3 15 26
f 3 26 39
f 3 39 44
f 3 44 43
f 3 43 31
f 3 31 30
f 3 30 28
f 3 28 16
f 3 16 10
f 3 10 11
f 3 11 4
f 4 11 12
f 4 12 5
f 5 12 14
f 5 14 13
f 10 16 17
f 10 17 18
f 10 18 11
f 11 18 19
f 11 19 14
f 11 14 12
f 13 14 20
f 13 20 21
f 13 21 22
f 13 22 23
f 14 24 25
f 14 25 22
f 14 22 20
f 14 19 24
f 15 27 42
f 15 42 59
f 15 59 63
f 15 63 62
f 15 62 52
f 15 52 37
f 15 37 26
f 16 28 18
f 16 18 17
f 18 29 19
f 18 28 30
f 18 30 31
f 18 31 29
f 19 29 35
f 19 35 24
f 20 22 21
f 22 25 32
f 22 32 33
f 22 33 34
f 22 34 23
f 24 35 36
f 24 36 32
f 24 32 25
f 26 37 38
f 26 38 35
f 26 35 29
f 26 29 39
f 27 40 41
f 27 41 42
f 29 31 43
f 29 43 44
f 29 44 39
f 32 45 46
f 32 46 47
f 32 47 48
f 32 48 49
f 32 49 33
f 32 36 50
f 32 50 45
f 35 38 51
f 35 51 36
f 36 51 50
f 37 52 38
f 38 52 53
f 38 53 54
f 38 54 51
f 40 55 56
f 40 56 41
f 41 56 57
f 41 57 58
f 41 58 42
f 42 58 59
f 45 50 57
f 45 57 56
f 45 56 55
f 45 55 46
f 46 55 47
f 47 60 48
f 48 60 61
f 48 61 49
f 50 51 54
f 50 54 57
f 52 62 53
f 53 62 63
f 53 63 54
f 54 58 57
f 54 63 59
f 54 59 58

