# https://github.com/mikedh/trimesh
v -0.55899648 0.73486786 -4.16288938
v -0.55690811 0.72731193 -4.16288938
v -0.53489821 0.81907368 -4.26079330
v -0.55899648 0.82499381 -4.25440973
v -0.55899648 0.44957293 -4.16288938
v -0.52622390 0.52096482 -4.16288938
v -0.52622390 0.53241557 -4.40682978
v -0.53489821 0.81907368 -4.28120700
v -0.55899648 0.82951177 -4.29568093
v -0.52622390 0.52968920 -4.24099402
v -0.55899648 0.43820009 -4.40239210
v -0.52622390 0.43524003 -4.25301013
v -0.52622390 0.44022539 -4.16288938
v -0.52622390 0.53241557 -4.40764911
v -0.55899648 0.80033965 -4.32015694
v -0.52622390 0.53007869 -4.43598261
v -0.52622390 0.50698245 -4.51162936
v -0.55899648 0.43820009 -4.44072755
v -0.52622390 0.43161785 -4.44806700
v -0.52622390 0.43165680 -4.39617921
v -0.55899648 0.78004766 -4.33432362
v -0.55214104 0.51901741 -4.51162936
v -0.52622390 0.44010854 -4.51162936
v -0.55899648 0.45342879 -4.51162936
v -0.55899648 0.52038061 -4.51162936
f 1 2 3
f 1 3 4
f 1 4 9
f 1 9 15
f 1 15 21
f 1 21 25
f 1 25 24
f 1 24 18
f 1 18 11
f 1 11 5
f 1 5 13
f 1 13 6
f 1 6 2
f 2 6 3
f 3 7 14
f 3 14 8
f 3 8 9
f 3 9 4
f 3 6 10
f 3 10 7
f 5 11 12
f 5 12 13
f 6 13 12
f 6 12 20
f 6 20 19
f 6 19 23
f 6 23 17
f 6 17 16
f 6 16 14
f 6 14 7
f 6 7 10
f 8 15 9
f 8 14 16
f 8 16 17
f 8 17 15
f 11 18 19
f 11 19 20
f 11 20 12
f 15 17 21
f 17 22 21
f 17 23 24
f 17 24 25
f 17 25 22
f 18 23 19
f 18 24 23
f 21 22 25

