# https://github.com/mikedh/trimesh
v -2.96694730 0.02828439 -1.76423774
v -2.95676144 0.02828439 -1.76423774
v -2.96499195 0.02961672 -1.72870380
v -3.12238369 0.13036106 -1.72519769
v -3.12238369 0.13036106 -1.74793342
v -2.96659177 0.02870313 -1.81579645
v -2.95948129 0.02870313 -1.81579645
v -2.95055755 0.05352284 -1.91362240
v -2.94408694 0.05656819 -1.76423774
v -2.94714448 0.05464579 -1.69387969
v -2.95861022 0.02961672 -1.72870380
v -2.98346153 0.05464579 -1.69387969
v -3.12451688 0.15974880 -1.71951918
v -3.09127513 0.12356611 -1.69387969
v -3.11438438 0.15974880 -1.69387969
v -3.12451688 0.15974880 -1.75262253
v -3.00139789 0.10835833 -1.91362240
v -2.98271495 0.06397219 -1.91362240
v -2.97723981 0.05352284 -1.91362240
v -2.96451194 0.03014967 -1.84515718
v -2.96221882 0.03014967 -1.84515718
v -2.94342924 0.10278150 -1.91362240
v -2.94700224 0.10154433 -1.69387969
v -2.94700224 0.08561330 -1.69387969
v -2.94291370 0.10816799 -1.91362240
v -2.94554459 0.22273066 -1.86739813
v -3.12252593 0.19242933 -1.72646681
v -3.10339857 0.21066342 -1.69387969
v -3.12252593 0.19242933 -1.74786899
v -3.00297994 0.21113926 -1.91362240
v -3.00770850 0.15974880 -1.91362240
v -3.00273113 0.11743731 -1.91362240
v -3.02792021 0.22273066 -1.69387969
v -2.95153519 0.22273066 -1.83420874
v -2.95437944 0.22273066 -1.82181919
v -2.96783613 0.22273066 -1.79643773
v -2.94682447 0.22273066 -1.91362240
v -2.94568683 0.22273066 -1.87877676
v -3.10238534 0.21450818 -1.69387969
v -3.10019879 0.22273066 -1.69387969
v -3.10146099 0.22273066 -1.69893448
v -3.10250975 0.22273066 -1.71108745
v -3.08802198 0.22273066 -1.76367861
v -3.00031353 0.22273066 -1.91362240
f 1 2 11
f 1 11 3
f 1 3 4
f 1 4 5
f 1 5 6
f 1 6 7
f 1 7 2
f 2 7 8
f 2 8 9
f 2 9 10
f 2 10 11
f 3 11 10
f 3 10 12
f 3 12 4
f 4 13 16
f 4 16 5
f 4 12 14
f 4 14 15
f 4 15 13
f 5 16 17
f 5 17 18
f 5 18 19
f 5 19 20
f 5 20 6
f 6 20 21
f 6 21 7
f 7 21 8
f 8 21 20
f 8 20 19
f 8 19 18
f 8 18 17
f 8 17 32
f 8 32 31
f 8 31 30
f 8 30 44
f 8 44 37
f 8 37 25
f 8 25 22
f 8 22 9
f 9 23 24
f 9 24 10
f 9 22 25
f 9 25 26
f 9 26 23
f 10 24 23
f 10 23 33
f 10 33 40
f 10 40 39
f 10 39 28
f 10 28 15
f 10 15 14
f 10 14 12
f 13 27 29
f 13 29 16
f 13 15 27
f 15 28 27
f 16 29 30
f 16 30 31
f 16 31 32
f 16 32 17
f 23 26 34
f 23 34 35
f 23 35 36
f 23 36 33
f 25 37 38
f 25 38 26
f 26 38 37
f 26 37 44
f 26 44 43
f 26 43 42
f 26 42 41
f 26 41 40
f 26 40 33
f 26 33 36
f 26 36 35
f 26 35 34
f 27 28 39
f 27 39 40
f 27 40 41
f 27 41 42
f 27 42 29
f 29 43 44
f 29 44 30
f 29 42 43

