# https://github.com/mikedh/trimesh
v -2.26688829 0.63330752 -1.04388183
v -2.21543527 0.62035154 -1.04388183
v -2.26398995 0.61311589 -1.09833261
v -2.31584475 0.61269917 -1.09631629
v -2.31845611 0.63145126 -1.04388183
v -2.17543219 0.57254319 -1.04388183
v -2.16731105 0.53541786 -1.13456516
v -2.23124709 0.60936547 -1.08442243
v -2.24476321 0.59784904 -1.11880720
v -2.27917047 0.59957271 -1.12035281
v -2.29687628 0.59957271 -1.12035281
v -2.37016744 0.61218775 -1.08490206
v -2.41929605 0.62518161 -1.04388183
v -2.36812997 0.62847743 -1.04388183
v -2.16731105 0.56168971 -1.04388183
v -2.16731105 0.53445185 -1.13462729
v -2.22860701 0.57689973 -1.13462729
v -2.25873847 0.58521505 -1.13462729
v -2.26843794 0.58608636 -1.13462729
v -2.27363201 0.58608636 -1.13462729
v -2.31030629 0.58432480 -1.13462729
v -2.37016744 0.57182341 -1.13462729
v -2.42176393 0.60845626 -1.07895060
v -2.42176393 0.62487854 -1.04388183
v -2.16731105 0.54642287 -1.04388183
v -2.16731105 0.44974546 -1.13462729
v -2.41722990 0.55816660 -1.13462729
v -2.46047567 0.60387243 -1.07355888
v -2.46047567 0.61633594 -1.05111225
v -2.43031553 0.62374205 -1.04388183
v -2.20062784 0.44715048 -1.04388183
v -2.16731105 0.44953710 -1.04390843
v -2.23833519 0.44332430 -1.07022792
v -2.26700308 0.44239616 -1.07601054
v -2.21603788 0.44826802 -1.13462729
v -2.43634181 0.55053318 -1.13462729
v -2.46047567 0.53856214 -1.13462729
v -2.46047567 0.61970753 -1.04388183
v -2.21741534 0.44584351 -1.04388183
v -2.23833519 0.44332430 -1.06413437
v -2.26700308 0.44735884 -1.13462729
v -2.26700308 0.44239616 -1.05407922
v -2.29779456 0.44175215 -1.04388183
v -2.37805898 0.44010424 -1.04388183
v -2.31857090 0.44196051 -1.07884403
v -2.46047567 0.44739672 -1.13462729
v -2.46047567 0.43982012 -1.04388183
v -2.26700308 0.44326748 -1.04388183
v -2.31857090 0.44724519 -1.13462729
v -2.35688090 0.44720730 -1.13462729
f 1 2 3
f 1 3 4
f 1 4 5
f 1 5 14
f 1 14 13
f 1 13 24
f 1 24 30
f 1 30 38
f 1 38 47
f 1 47 44
f 1 44 43
f 1 43 48
f 1 48 39
f 1 39 31
f 1 31 25
f 1 25 15
f 1 15 6
f 1 6 2
f 2 6 7
f 2 7 8
f 2 8 3
f 3 8 9
f 3 9 10
f 3 10 11
f 3 11 4
f 4 11 12
f 4 12 13
f 4 13 14
f 4 14 5
f 6 15 7
f 7 15 25
f 7 25 32
f 7 32 26
f 7 26 16
f 7 16 17
f 7 17 9
f 7 9 8
f 9 18 19
f 9 19 10
f 9 17 18
f 10 19 20
f 10 20 11
f 11 20 21
f 11 21 22
f 11 22 23
f 11 23 12
f 12 23 24
f 12 24 13
f 16 26 35
f 16 35 41
f 16 41 49
f 16 49 50
f 16 50 46
f 16 46 37
f 16 37 36
f 16 36 27
f 16 27 22
f 16 22 21
f 16 21 20
f 16 20 19
f 16 19 18
f 16 18 17
f 22 27 28
f 22 28 23
f 23 28 29
f 23 29 30
f 23 30 24
f 25 31 32
f 26 32 33
f 26 33 34
f 26 34 35
f 27 36 28
f 28 36 37
f 28 37 46
f 28 46 47
f 28 47 38
f 28 38 29
f 29 38 30
f 31 39 32
f 32 39 40
f 32 40 33
f 33 40 42
f 33 42 34
f 34 41 35
f 34 42 43
f 34 43 44
f 34 44 45
f 34 45 41
f 39 48 42
f 39 42 40
f 41 45 49
f 42 48 43
f 44 47 45
f 45 47 46
f 45 46 50
f 45 50 49

