# https://github.com/mikedh/trimesh
v -0.38967928 0.18100097 -4.78127737
v -0.39234162 0.19690202 -4.78127737
v -0.37444155 0.18100097 -4.78127737
v -0.38942125 0.18126249 -4.75693914
v -0.41222248 0.19941271 -4.65018860
v -0.41222248 0.21424151 -4.70116172
v -0.39467241 0.21136468 -4.78127737
v -0.34865551 0.20259031 -4.78127737
v -0.32210474 0.22283278 -4.65375222
v -0.35089419 0.19967425 -4.70533246
v -0.37489304 0.18126249 -4.75693914
v -0.38874878 0.18228247 -4.70533246
v -0.38700757 0.18372088 -4.66425840
v -0.41222248 0.21949827 -4.59364569
v -0.41222248 0.25535413 -4.71863675
v -0.40188592 0.31459082 -4.78127737
v -0.33715825 0.21621606 -4.78127737
v -0.31810655 0.26295160 -4.65375222
v -0.32611231 0.22706958 -4.62006929
v -0.36062272 0.19501900 -4.64973988
v -0.32384595 0.22547424 -4.70533246
v -0.31948838 0.26295160 -4.70533246
v -0.37668023 0.18228247 -4.70533246
v -0.37968365 0.18372088 -4.66425840
v -0.41222248 0.24370293 -4.56521592
v -0.35782214 0.21703988 -4.61415642
v -0.41222248 0.31455159 -4.73241606
v -0.33936925 0.31459082 -4.78127737
v -0.41222248 0.31459082 -4.71626090
v -0.32765085 0.22839031 -4.78127737
v -0.32802852 0.29854591 -4.65375222
v -0.33035009 0.29339376 -4.62524326
v -0.32634267 0.26295160 -4.61999009
v -0.32766930 0.29893821 -4.70533246
v -0.40945866 0.31455159 -4.51162936
v -0.41222248 0.29786594 -4.51162936
v -0.32502527 0.26295160 -4.78127737
v -0.32691380 0.27784575 -4.78127737
v -0.32939191 0.29498910 -4.78127737
v -0.41222248 0.26295160 -4.54552358
v -0.33550914 0.31459082 -4.70533246
v -0.41222248 0.31459082 -4.51355649
v -0.33469843 0.31459082 -4.67357650
v -0.33490111 0.31459082 -4.65375222
v -0.35621902 0.31459082 -4.61090942
v -0.40946788 0.31459082 -4.51162936
v -0.41222248 0.31455159 -4.51162936
f 1 2 7
f 1 7 16
f 1 16 28
f 1 28 39
f 1 39 38
f 1 38 37
f 1 37 30
f 1 30 17
f 1 17 8
f 1 8 3
f 1 3 11
f 1 11 4
f 1 4 5
f 1 5 6
f 1 6 2
f 2 6 7
f 3 8 9
f 3 9 10
f 3 10 11
f 4 11 23
f 4 23 12
f 4 12 5
f 5 12 13
f 5 13 14
f 5 14 25
f 5 25 40
f 5 40 36
f 5 36 47
f 5 47 42
f 5 42 29
f 5 29 27
f 5 27 15
f 5 15 6
f 6 15 7
f 7 15 16
f 8 17 9
f 9 18 19
f 9 19 20
f 9 20 10
f 9 17 21
f 9 21 22
f 9 22 18
f 10 20 11
f 11 20 23
f 12 23 24
f 12 24 13
f 13 24 14
f 14 24 20
f 14 20 26
f 14 26 25
f 15 27 16
f 16 27 29
f 16 29 42
f 16 42 46
f 16 46 45
f 16 45 44
f 16 44 43
f 16 43 41
f 16 41 28
f 17 30 21
f 18 31 32
f 18 32 33
f 18 33 19
f 18 22 34
f 18 34 31
f 19 26 20
f 19 33 35
f 19 35 36
f 19 36 26
f 20 24 23
f 21 30 22
f 22 30 37
f 22 37 38
f 22 38 39
f 22 39 34
f 25 26 40
f 26 36 40
f 28 41 39
f 31 34 43
f 31 43 44
f 31 44 32
f 32 45 46
f 32 46 33
f 32 44 45
f 33 46 35
f 34 41 43
f 34 39 41
f 35 46 47
f 35 47 36
f 42 47 46

