# https://github.com/mikedh/trimesh
v -1.49322069 0.27030912 -2.31435250
v -1.49322069 0.27030912 -2.37001950
v -1.53671487 0.27030912 -2.31433682
v -1.49322069 0.27029342 -2.31305516
v -1.49322069 0.26295289 -2.37189512
v -1.69939981 0.26295289 -2.37549011
v -1.69939981 0.27030912 -2.37349724
v -1.54101648 0.27030912 -2.31434466
v -1.69939981 0.14160633 -2.30224689
v -1.64784010 0.14229794 -2.30217654
v -1.59622063 0.14237654 -2.30266886
v -1.54460117 0.13964152 -2.30416941
v -1.51425084 0.13618345 -2.30545106
v -1.51425084 0.13115355 -2.30545106
v -1.49322069 0.15609876 -2.31612655
v -2.10357304 0.27030912 -2.32373065
v -2.10357304 0.13916997 -2.30352070
v -2.06055682 0.13935859 -2.30337223
v -1.49322069 0.21134916 -2.37664674
v -1.69939981 0.21134916 -2.38010103
v -2.00893736 0.26295289 -2.37851451
v -2.00893736 0.27030912 -2.37653733
v -1.69939981 0.12261843 -2.30224689
v -1.64784010 0.12305854 -2.30217654
v -1.59622063 0.12390734 -2.30266886
v -1.54460117 0.12714534 -2.30416941
v -1.49322069 0.11230712 -2.32968573
v -2.10357304 0.27030912 -2.37639662
v -2.10357304 0.12373442 -2.30352070
v -2.06055682 0.12324716 -2.30337223
v -1.49322069 0.15976116 -2.37609184
v -2.00893736 0.21134916 -2.38186723
v -2.06055682 0.21134916 -2.38201570
v -2.06055682 0.26295289 -2.37855357
v -2.06055682 0.27030912 -2.37656855
v -2.00893736 0.12279133 -2.30323937
v -1.75101928 0.12230405 -2.30246572
v -1.49322069 0.11166265 -2.33064699
v -2.06856263 0.27030912 -2.37653733
v -2.10357304 0.26295289 -2.37837388
v -2.10357304 0.11584376 -2.32706768
v -1.49322069 0.11189842 -2.36610412
v -2.10357304 0.15976116 -2.37507591
v -2.10357304 0.21134916 -2.38188284
v -2.10357304 0.11428761 -2.33181146
v -2.06055682 0.11398898 -2.33181146
v -1.95737763 0.12253983 -2.30318470
v -1.80257900 0.12216259 -2.30284086
v -1.49322069 0.10974501 -2.36559612
v -1.85413872 0.12219402 -2.30309090
v -2.00893736 0.11376892 -2.33181146
v -2.10357304 0.12452036 -2.36350952
v -2.10357304 0.12274418 -2.35822652
f 1 2 7
f 1 7 22
f 1 22 35
f 1 35 39
f 1 39 28
f 1 28 16
f 1 16 8
f 1 8 3
f 1 3 4
f 1 4 15
f 1 15 27
f 1 27 38
f 1 38 49
f 1 49 42
f 1 42 31
f 1 31 19
f 1 19 5
f 1 5 2
f 2 5 6
f 2 6 7
f 3 8 4
f 4 9 10
f 4 10 11
f 4 11 12
f 4 12 13
f 4 13 14
f 4 14 15
f 4 8 16
f 4 16 17
f 4 17 18
f 4 18 9
f 5 19 6
f 6 19 20
f 6 20 21
f 6 21 22
f 6 22 7
f 9 23 24
f 9 24 10
f 9 18 30
f 9 30 23
f 10 24 25
f 10 25 11
f 11 25 26
f 11 26 12
f 12 26 14
f 12 14 13
f 14 27 15
f 14 26 27
f 16 28 40
f 16 40 44
f 16 44 43
f 16 43 52
f 16 52 53
f 16 53 45
f 16 45 41
f 16 41 29
f 16 29 17
f 17 29 30
f 17 30 18
f 19 31 20
f 20 31 32
f 20 32 21
f 21 32 33
f 21 33 34
f 21 34 22
f 22 34 35
f 23 30 36
f 23 36 37
f 23 37 38
f 23 38 24
f 24 38 25
f 25 38 27
f 25 27 26
f 28 39 34
f 28 34 40
f 29 41 30
f 30 41 36
f 31 42 43
f 31 43 33
f 31 33 32
f 33 43 44
f 33 44 34
f 34 44 40
f 34 39 35
f 36 41 45
f 36 45 46
f 36 46 47
f 36 47 37
f 37 47 48
f 37 48 38
f 38 48 50
f 38 50 47
f 38 47 46
f 38 46 51
f 38 51 49
f 42 49 43
f 43 49 52
f 45 53 49
f 45 49 46
f 46 49 51
f 47 50 48
f 49 53 52

