# https://github.com/mikedh/trimesh
v -1.39438881 0.36977667 -0.56331326
v -1.39438881 0.36977667 -0.49337594
v -1.39438881 0.30974838 -0.54537767
v -1.57225179 0.36977667 -0.55928816
v -1.39438881 0.36615088 -0.49251048
v -1.57225179 0.36977667 -0.49308745
v -1.39438881 0.30974838 -0.48948416
v -1.57225179 0.30974838 -0.53547753
v -1.39438881 0.36156134 -0.49205161
v -1.57225179 0.36615088 -0.49232533
v -1.39438881 0.31456122 -0.48890688
v -1.44621908 0.30974838 -0.48819674
v -1.57225179 0.30974838 -0.48818936
v -1.49298297 0.31456122 -0.48773787
v -1.44139645 0.31456122 -0.48784151
v -1.57225179 0.31456122 -0.48793040
v -1.49780562 0.30974838 -0.48804880
f 1 2 5
f 1 5 9
f 1 9 11
f 1 11 7
f 1 7 3
f 1 3 4
f 1 4 6
f 1 6 2
f 2 6 5
f 3 7 12
f 3 12 17
f 3 17 13
f 3 13 8
f 3 8 4
f 4 8 13
f 4 13 16
f 4 16 10
f 4 10 6
f 5 6 10
f 5 10 9
f 7 11 12
f 9 10 14
f 9 14 15
f 9 15 11
f 10 16 14
f 11 15 12
f 12 15 17
f 13 17 14
f 13 14 16
f 14 17 15

