# https://github.com/mikedh/trimesh
v -1.23232111 0.19148539 -1.18743558
v -1.23207737 0.15975628 -1.20008264
v -1.23207737 0.19148539 -1.19084835
v -1.28866765 0.19148539 -1.19585439
v -1.23207737 0.11231762 -1.21562177
v -1.23207737 0.19148539 -1.25152416
v -1.28551546 0.19148539 -1.24284178
v -1.26097358 0.13357628 -1.22276716
v -1.26097358 0.13357628 -1.22219003
v -1.23207737 0.11231762 -1.23367023
v -1.27950463 0.19148539 -1.24513782
v -1.23207737 0.11277487 -1.23387721
f 1 2 3
f 1 3 6
f 1 6 11
f 1 11 7
f 1 7 4
f 1 4 5
f 1 5 2
f 2 5 10
f 2 10 12
f 2 12 6
f 2 6 3
f 4 7 8
f 4 8 9
f 4 9 5
f 5 9 8
f 5 8 10
f 6 12 11
f 7 11 12
f 7 12 10
f 7 10 8

