# https://github.com/mikedh/trimesh
v -1.09832023 0.28183908 -1.75540619
v -1.10614723 0.28183908 -1.77964709
v -1.15641667 0.39359757 -1.74129103
v -1.10337387 0.29399348 -1.74815932
v -1.10329171 0.29445775 -1.71263121
v -1.09850510 0.28183908 -1.71263121
v -1.10777015 0.28183908 -1.78393976
v -1.10900275 0.28500565 -1.78255101
v -1.21328052 0.38596685 -1.86693942
v -1.22459986 0.40344250 -1.86693942
v -1.16851666 0.40344250 -1.75020455
v -1.16633907 0.40344250 -1.72757984
v -1.15641667 0.39359757 -1.73121589
v -1.11604910 0.32025457 -1.71263121
v -1.10501735 0.29111261 -1.67957784
v -1.14655589 0.36246757 -1.60900157
v -1.10380529 0.28183908 -1.67604267
v -1.16184010 0.28183908 -1.86693942
v -1.17529595 0.31456427 -1.86693942
v -1.19723619 0.36020574 -1.86693942
v -1.30819056 0.40344250 -1.86693942
v -1.16633907 0.40344250 -1.72245385
v -1.17207067 0.40344250 -1.60900157
v -1.16157303 0.38826439 -1.60900157
v -1.12765605 0.31456427 -1.60900157
v -1.12753280 0.31421904 -1.60900157
v -1.11834995 0.28183908 -1.60900157
v -1.24374625 0.28183908 -1.86693942
v -1.24276016 0.40344250 -1.60900157
v -1.24082907 0.28183908 -1.84873357
v -1.26453605 0.33177803 -1.83393648
v -1.15487594 0.28183908 -1.60900157
v -1.17541924 0.28183908 -1.60915304
v -1.18419120 0.31456427 -1.60900157
v -1.23413198 0.28183908 -1.81446805
f 1 2 3
f 1 3 4
f 1 4 5
f 1 5 6
f 1 6 17
f 1 17 27
f 1 27 32
f 1 32 33
f 1 33 35
f 1 35 30
f 1 30 28
f 1 28 18
f 1 18 7
f 1 7 2
f 2 7 8
f 2 8 3
f 3 8 9
f 3 9 10
f 3 10 11
f 3 11 12
f 3 12 22
f 3 22 13
f 3 13 14
f 3 14 4
f 4 14 5
f 5 15 6
f 5 14 16
f 5 16 15
f 6 15 17
f 7 18 19
f 7 19 20
f 7 20 8
f 8 20 9
f 9 20 19
f 9 19 18
f 9 18 28
f 9 28 21
f 9 21 10
f 10 21 29
f 10 29 23
f 10 23 22
f 10 22 12
f 10 12 11
f 13 22 23
f 13 23 24
f 13 24 16
f 13 16 14
f 15 16 25
f 15 25 26
f 15 26 27
f 15 27 17
f 16 24 23
f 16 23 29
f 16 29 34
f 16 34 32
f 16 32 27
f 16 27 26
f 16 26 25
f 21 28 30
f 21 30 31
f 21 31 29
f 29 33 34
f 29 31 35
f 29 35 33
f 30 35 31
f 32 34 33

