# https://github.com/mikedh/trimesh
v -1.22276769 0.07389006 -1.60900157
v -1.22284316 0.07415336 -1.60900157
v -1.20020131 0.07389006 -1.60900157
v -1.18394946 0.07846472 -1.27383208
v -1.21439021 0.07823436 -1.35145655
v -1.21440278 0.07823436 -1.35155497
v -1.23026465 0.10818372 -1.55778779
v -1.23169866 0.10818372 -1.60900157
v -1.17422605 0.10645588 -1.60900157
v -1.10321863 0.12802927 -1.28751313
v -1.15108104 0.07920523 -1.28311681
v -1.15060303 0.07889261 -1.27383208
v -1.19861637 0.10851284 -1.27383208
v -1.21216375 0.07984702 -1.31749989
v -1.22166077 0.10818372 -1.40306400
v -1.19281753 0.24200137 -1.27383208
v -1.23161058 0.10847993 -1.60900157
v -1.13534492 0.15950901 -1.60900157
v -1.10321863 0.14920774 -1.28751313
v -1.10321863 0.12802927 -1.27383208
v -1.10882879 0.19790012 -1.55778779
v -1.10408658 0.22370264 -1.55778779
v -1.10329409 0.21769632 -1.50618034
v -1.21216375 0.09283054 -1.31749989
v -1.21588707 0.10925335 -1.35155497
v -1.21564810 0.10930271 -1.34952081
v -1.12889199 0.24200137 -1.27383208
v -1.17628896 0.24200137 -1.35145655
v -1.17281722 0.24198492 -1.60900157
v -1.21811353 0.14565331 -1.60900157
v -1.11033826 0.21323683 -1.60900157
v -1.10321863 0.14920774 -1.27383208
v -1.10329409 0.24198492 -1.50618034
v -1.10943255 0.21807480 -1.60900157
v -1.10557087 0.23326340 -1.59669852
v -1.10408658 0.24198492 -1.55778779
v -1.12775989 0.24200137 -1.27891733
v -1.12413722 0.24200137 -1.35155497
v -1.11028793 0.24198492 -1.60900157
v -1.10386015 0.24198492 -1.48590488
v -1.10474067 0.24198492 -1.45460579
v -1.10505515 0.24198492 -1.44646932
v -1.10516836 0.24198492 -1.44377899
v -1.10583502 0.23800264 -1.42717803
v -1.12328183 0.24200137 -1.33049202
v -1.10647654 0.24198492 -1.59886385
v -1.10557087 0.23922036 -1.59669852
v -1.10499225 0.24198492 -1.58147539
v -1.12379756 0.24200137 -1.35155497
v -1.10797344 0.24198492 -1.42324104
v -1.12499256 0.24200137 -1.29984910
f 1 2 8
f 1 8 17
f 1 17 30
f 1 30 29
f 1 29 39
f 1 39 34
f 1 34 31
f 1 31 18
f 1 18 9
f 1 9 3
f 1 3 4
f 1 4 5
f 1 5 6
f 1 6 2
f 2 6 7
f 2 7 8
f 3 9 10
f 3 10 11
f 3 11 12
f 3 12 4
f 4 12 20
f 4 20 32
f 4 32 27
f 4 27 16
f 4 16 13
f 4 13 14
f 4 14 5
f 5 14 6
f 6 15 7
f 6 14 15
f 7 15 16
f 7 16 8
f 8 16 17
f 9 18 10
f 10 19 32
f 10 32 20
f 10 20 12
f 10 12 11
f 10 18 21
f 10 21 22
f 10 22 23
f 10 23 33
f 10 33 19
f 13 16 24
f 13 24 14
f 14 24 15
f 15 24 25
f 15 25 16
f 16 25 26
f 16 26 24
f 16 27 37
f 16 37 51
f 16 51 45
f 16 45 49
f 16 49 38
f 16 38 28
f 16 28 29
f 16 29 30
f 16 30 17
f 18 31 21
f 19 33 32
f 21 31 34
f 21 34 35
f 21 35 22
f 22 36 33
f 22 33 23
f 22 35 47
f 22 47 36
f 24 26 25
f 27 32 37
f 28 38 29
f 29 38 49
f 29 49 39
f 32 33 40
f 32 40 41
f 32 41 42
f 32 42 43
f 32 43 44
f 32 44 37
f 33 36 45
f 33 45 40
f 34 39 46
f 34 46 47
f 34 47 35
f 36 47 48
f 36 48 49
f 36 49 45
f 37 44 50
f 37 50 43
f 37 43 51
f 39 49 46
f 40 45 41
f 41 45 42
f 42 45 43
f 43 50 44
f 43 45 51
f 46 49 48
f 46 48 47

