# https://github.com/mikedh/trimesh
v -3.05096550 0.05656804 -2.28021869
v -3.04609016 0.05656804 -2.26113893
v -3.04542877 0.07566326 -2.26113893
v -3.04259435 0.10818141 -2.28021869
v -3.02745812 0.10818141 -2.31885162
v -3.03348616 0.05656804 -2.31962497
v -3.02628649 0.02920256 -2.31075574
v -3.03182322 0.02517564 -2.28021869
v -3.02921548 0.02521897 -2.26113893
v -3.04013777 0.10818141 -2.26113893
v -3.03569701 0.12697354 -2.26113893
v -3.01823644 0.19612333 -2.26113893
v -3.01823644 0.19612333 -2.26407429
v -3.01181165 0.17750442 -2.29846207
v -3.00128617 0.10818141 -2.34463851
v -2.97964949 0.05656804 -2.37320291
v -2.96353061 0.28869835 -2.30598982
v -2.97137269 0.25431829 -2.31470111
v -2.92998900 0.21136487 -2.37626453
v -2.92494359 0.02379008 -2.41500787
v -2.97239315 0.02725409 -2.36864205
v -2.89818583 0.02379008 -2.39842159
v -3.00578360 0.02521897 -2.26113893
v -2.97152385 0.30887606 -2.26113893
v -2.97135385 0.30528218 -2.27158629
v -3.00500880 0.21253397 -2.28084995
v -2.98072654 0.26808762 -2.28536345
v -2.95317522 0.05656804 -2.39900556
v -2.91644004 0.14801726 -2.41246710
v -2.95687893 0.31931131 -2.28536345
v -2.91893438 0.40352946 -2.26367978
v -2.91874546 0.34901498 -2.31282312
v -2.92685211 0.31013175 -2.33073510
v -2.91281191 0.29004064 -2.35827366
v -2.94905569 0.26808762 -2.33185552
v -2.91963360 0.26293495 -2.36477564
v -2.89818583 0.02379008 -2.41500787
v -2.92738126 0.05656804 -2.41698059
v -2.88306851 0.05332054 -2.41917422
v -2.85793594 0.06219700 -2.38099893
v -2.98221940 0.05812683 -2.26113893
v -2.96094171 0.33312395 -2.26113893
v -2.92101306 0.10818141 -2.41508683
v -2.88616757 0.18122822 -2.40618609
v -2.88616757 0.15542153 -2.41423460
v -2.88616757 0.10818141 -2.42234625
v -2.88616757 0.26293495 -2.37670641
v -2.91938794 0.40469855 -2.26113893
v -2.90035893 0.43076503 -2.26113893
v -2.87375241 0.45566243 -2.26708855
v -2.86855583 0.40158096 -2.31111873
v -2.88616757 0.29874391 -2.36218743
v -2.85793594 0.06319293 -2.41672809
v -2.85793594 0.06232694 -2.40056793
v -2.85793594 0.08103241 -2.41764337
v -2.85793594 0.10809480 -2.36087763
v -2.85793594 0.35286868 -2.26113893
v -2.85793594 0.26293495 -2.37893155
v -2.85793594 0.15009563 -2.41298786
v -2.85793594 0.10818141 -2.41870074
v -2.85793594 0.30190479 -2.36400230
v -2.87579326 0.45787072 -2.26113893
v -2.85793594 0.46181100 -2.26931377
v -2.85793594 0.44769526 -2.28083418
v -2.85793594 0.40422225 -2.31269687
v -2.85793594 0.46614099 -2.26113893
f 1 2 3
f 1 3 4
f 1 4 5
f 1 5 6
f 1 6 7
f 1 7 8
f 1 8 9
f 1 9 2
f 2 9 23
f 2 23 41
f 2 41 57
f 2 57 66
f 2 66 62
f 2 62 49
f 2 49 48
f 2 48 42
f 2 42 24
f 2 24 12
f 2 12 11
f 2 11 10
f 2 10 3
f 3 10 4
f 4 10 11
f 4 11 12
f 4 12 13
f 4 13 14
f 4 14 5
f 5 15 16
f 5 16 6
f 5 14 17
f 5 17 18
f 5 18 19
f 5 19 15
f 6 20 21
f 6 21 7
f 6 16 20
f 7 21 20
f 7 20 8
f 8 20 9
f 9 20 22
f 9 22 23
f 12 24 13
f 13 24 25
f 13 25 26
f 13 26 14
f 14 26 27
f 14 27 17
f 15 28 16
f 15 19 29
f 15 29 28
f 16 28 20
f 17 27 25
f 17 25 30
f 17 30 31
f 17 31 32
f 17 32 33
f 17 33 34
f 17 34 35
f 17 35 18
f 18 35 36
f 18 36 19
f 19 36 29
f 20 37 22
f 20 28 38
f 20 38 39
f 20 39 37
f 22 37 40
f 22 40 23
f 23 40 41
f 24 42 25
f 25 27 26
f 25 42 30
f 28 29 43
f 28 43 38
f 29 44 45
f 29 45 46
f 29 46 43
f 29 36 34
f 29 34 47
f 29 47 44
f 30 42 31
f 31 48 49
f 31 49 32
f 31 42 48
f 32 49 50
f 32 50 51
f 32 51 34
f 32 34 33
f 34 36 35
f 34 51 52
f 34 52 47
f 37 39 53
f 37 53 54
f 37 54 40
f 38 43 46
f 38 46 39
f 39 46 55
f 39 55 53
f 40 54 53
f 40 53 55
f 40 55 60
f 40 60 59
f 40 59 58
f 40 58 61
f 40 61 65
f 40 65 64
f 40 64 63
f 40 63 66
f 40 66 57
f 40 57 56
f 40 56 41
f 41 56 57
f 44 47 58
f 44 58 45
f 45 58 59
f 45 59 46
f 46 60 55
f 46 59 60
f 47 52 61
f 47 61 58
f 49 62 50
f 50 62 63
f 50 63 64
f 50 64 51
f 51 64 65
f 51 65 52
f 52 65 61
f 62 66 63

