# https://github.com/mikedh/trimesh
v -0.55899648 0.36621612 -3.97525078
v -0.52622390 0.36621612 -3.97723442
v -0.52622390 0.40415835 -3.97936500
v -0.55899648 0.37138675 -3.97554464
v -0.55899648 0.36621612 -4.02484206
v -0.52622390 0.36621612 -4.03847044
v -0.52622390 0.41777677 -3.98030173
v -0.55899648 0.41777677 -3.97872213
v -0.55881364 0.36621612 -4.02550323
v -0.55899648 0.44957736 -4.16288938
v -0.52622390 0.44020711 -4.16288938
v -0.52622390 0.46139941 -3.99635463
v -0.55899648 0.46880336 -3.99646481
v -0.55899648 0.61421216 -4.16288938
v -0.52622390 0.52092234 -4.16288938
v -0.52622390 0.50732820 -4.05046418
v -0.55899648 0.60617706 -4.08615152
v -0.55899648 0.57253154 -4.05626817
v -0.55899648 0.54478492 -4.03417254
v -0.55899648 0.61421216 -4.09786976
v -0.55277944 0.61421216 -4.16288938
v -0.52622390 0.52157778 -4.08615152
v -0.55428722 0.61421216 -4.12782653
v -0.55721282 0.61421216 -4.10920226
f 1 2 3
f 1 3 4
f 1 4 8
f 1 8 13
f 1 13 19
f 1 19 18
f 1 18 17
f 1 17 20
f 1 20 14
f 1 14 10
f 1 10 5
f 1 5 9
f 1 9 6
f 1 6 2
f 2 6 11
f 2 11 15
f 2 15 22
f 2 22 16
f 2 16 12
f 2 12 7
f 2 7 3
f 3 7 8
f 3 8 4
f 5 10 9
f 6 9 11
f 7 12 13
f 7 13 8
f 9 10 11
f 10 14 21
f 10 21 15
f 10 15 11
f 12 16 17
f 12 17 18
f 12 18 19
f 12 19 13
f 14 20 24
f 14 24 23
f 14 23 21
f 15 21 22
f 16 22 23
f 16 23 24
f 16 24 20
f 16 20 17
f 21 23 22

