# https://github.com/mikedh/trimesh
v -0.51339808 0.31705945 -5.67936760
v -0.51342876 0.36616235 -5.67917846
v -0.51259867 0.36616235 -5.67909450
v -0.51259867 0.31705945 -5.67928364
v -0.51342876 0.31705945 -5.64889322
v -0.51342876 0.41775197 -5.67262573
v -0.51259867 0.41775197 -5.67258390
v -0.47576662 0.41775197 -5.66523307
v -0.47215410 0.36616235 -5.66733335
v -0.47046317 0.31705945 -5.66741731
v -0.47243082 0.31705945 -5.66798444
v -0.51342876 0.31705945 -5.61829289
v -0.51342876 0.44816631 -5.66315370
v -0.51259867 0.44816631 -5.66313279
v -0.48160813 0.44650213 -5.66189365
v -0.44997189 0.41775197 -5.64805314
v -0.44634399 0.36616235 -5.65111944
v -0.44591357 0.31705945 -5.65340872
v -0.44840391 0.31705945 -5.48780554
v -0.51342876 0.44397716 -5.46480793
v -0.51342876 0.44851062 -5.66269175
v -0.51259867 0.46800258 -5.63412866
v -0.51259867 0.48917785 -5.59544229
v -0.48157738 0.49719270 -5.56274168
v -0.46303837 0.45581772 -5.63345650
v -0.43177104 0.44816631 -5.61583554
v -0.42720541 0.41775197 -5.62224126
v -0.42416171 0.36616235 -5.62530757
v -0.44466844 0.31705945 -5.65261062
v -0.42852743 0.31705945 -5.46480793
v -0.51342876 0.47471669 -5.46480793
v -0.51342876 0.46802171 -5.63412866
v -0.51342876 0.46834690 -5.63358260
v -0.51342876 0.48917785 -5.59552641
v -0.51342876 0.48938826 -5.59510629
v -0.51342876 0.50063584 -5.56973544
v -0.51259867 0.50059757 -5.56967255
v -0.46302299 0.48074218 -5.58097175
v -0.51259867 0.50889935 -5.53094420
v -0.47636612 0.49944987 -5.53094420
v -0.45057139 0.48579210 -5.53094420
v -0.42728230 0.45459349 -5.58252597
v -0.38526974 0.38835143 -5.53094420
v -0.41055724 0.41775197 -5.58252597
v -0.37878267 0.35284891 -5.56251071
v -0.37229560 0.31705945 -5.56795025
v -0.37300267 0.31705945 -5.56891643
v -0.35640063 0.31705945 -5.46480793
v -0.51319825 0.51228510 -5.46480793
v -0.51342876 0.51245726 -5.47852250
v -0.51342876 0.50082712 -5.56906344
v -0.51342876 0.50897587 -5.53094420
v -0.51342876 0.50907151 -5.53012519
v -0.51342876 0.51247639 -5.47934152
v -0.51259867 0.51234249 -5.47934152
v -0.47346074 0.50107579 -5.47934152
v -0.42331624 0.45998773 -5.53094420
v -0.44766601 0.48686330 -5.47934152
v -0.39916638 0.41775197 -5.53094420
v -0.37486275 0.36254706 -5.53094420
v -0.38370183 0.39185196 -5.50368329
v -0.35952122 0.31705945 -5.53300250
v -0.35904466 0.31705945 -5.53094420
v -0.35640063 0.31705945 -5.46564801
v -0.37229560 0.36954810 -5.46480793
v -0.51259867 0.51220859 -5.46480793
v -0.47303032 0.50117143 -5.46480793
v -0.46577460 0.49744137 -5.46480793
v -0.44723559 0.48722674 -5.46480793
v -0.42137942 0.46142237 -5.46480793
v -0.41410825 0.45111210 -5.46480793
v -0.39375529 0.41740765 -5.46480793
v -0.38274872 0.39370742 -5.46480793
v -0.35663114 0.31705945 -5.47953051
f 1 2 3
f 1 3 4
f 1 4 11
f 1 11 10
f 1 10 18
f 1 18 29
f 1 29 47
f 1 47 46
f 1 46 62
f 1 62 63
f 1 63 74
f 1 74 64
f 1 64 48
f 1 48 30
f 1 30 19
f 1 19 12
f 1 12 5
f 1 5 2
f 2 6 7
f 2 7 3
f 2 5 12
f 2 12 20
f 2 20 31
f 2 31 50
f 2 50 54
f 2 54 53
f 2 53 52
f 2 52 51
f 2 51 36
f 2 36 35
f 2 35 34
f 2 34 33
f 2 33 32
f 2 32 21
f 2 21 13
f 2 13 6
f 3 7 8
f 3 8 9
f 3 9 10
f 3 10 11
f 3 11 4
f 6 13 14
f 6 14 7
f 7 14 15
f 7 15 8
f 8 15 16
f 8 16 17
f 8 17 9
f 9 17 18
f 9 18 10
f 12 19 20
f 13 21 14
f 14 21 22
f 14 22 15
f 15 22 23
f 15 23 24
f 15 24 25
f 15 25 26
f 15 26 16
f 16 27 17
f 16 26 27
f 17 27 28
f 17 28 29
f 17 29 18
f 19 30 20
f 20 30 48
f 20 48 65
f 20 65 73
f 20 73 72
f 20 72 71
f 20 71 70
f 20 70 69
f 20 69 68
f 20 68 67
f 20 67 66
f 20 66 49
f 20 49 31
f 21 32 22
f 22 32 33
f 22 33 34
f 22 34 23
f 23 34 35
f 23 35 36
f 23 36 37
f 23 37 24
f 24 38 25
f 24 37 39
f 24 39 40
f 24 40 41
f 24 41 38
f 25 38 26
f 26 38 42
f 26 42 43
f 26 43 44
f 26 44 45
f 26 45 46
f 26 46 27
f 27 46 47
f 27 47 28
f 28 47 29
f 31 49 50
f 36 51 37
f 37 51 39
f 38 41 42
f 39 52 53
f 39 53 54
f 39 54 55
f 39 55 40
f 39 51 52
f 40 55 56
f 40 56 41
f 41 57 42
f 41 56 58
f 41 58 57
f 42 57 59
f 42 59 43
f 43 60 45
f 43 45 44
f 43 59 61
f 43 61 60
f 45 62 46
f 45 60 63
f 45 63 62
f 48 64 65
f 49 54 50
f 49 66 54
f 54 66 55
f 55 66 67
f 55 67 56
f 56 67 68
f 56 68 69
f 56 69 58
f 57 58 69
f 57 69 70
f 57 70 71
f 57 71 72
f 57 72 59
f 59 72 61
f 60 61 65
f 60 65 63
f 61 72 73
f 61 73 65
f 63 65 74
f 64 74 65

