# https://github.com/mikedh/trimesh
v -1.80502264 0.36615262 -3.97402610
v -1.85418736 0.36615262 -3.97983840
v -1.80502264 0.31454601 -3.97461453
v -1.80502264 0.37935665 -3.97530337
v -1.85418736 0.37935665 -3.98090038
v -1.89234565 0.36615262 -3.99796405
v -1.89122679 0.31454601 -3.99909785
v -1.85418736 0.31454601 -3.98171847
v -1.89195534 0.37935665 -3.99830851
v -1.80502264 0.26295956 -3.98001063
v -1.80502264 0.37935665 -4.03111554
v -1.91814443 0.36615262 -4.03405759
v -1.91115807 0.37935665 -4.02515977
v -1.91831357 0.31777143 -4.03935320
v -1.88552841 0.26295956 -4.00402032
v -1.85418736 0.26295956 -3.99031482
v -1.85418736 0.22786303 -4.00274305
v -1.80502264 0.21147390 -3.99849512
v -1.88085783 0.37935665 -4.12062456
v -1.80502264 0.21145373 -4.08348342
v -1.82300244 0.19210126 -4.12062456
v -1.93179192 0.36615262 -4.05983249
v -1.93184396 0.33712389 -4.05973199
v -1.91770210 0.37935665 -4.03565057
v -1.93170085 0.37935665 -4.06007645
v -1.90488727 0.26295956 -4.03457421
v -1.88062365 0.23639022 -4.00821089
v -1.81424672 0.19115381 -4.01505649
v -1.80502264 0.20248305 -4.00453701
v -1.93676172 0.37935665 -4.12062456
v -1.80502264 0.17619595 -4.08598052
v -1.82300244 0.18099374 -4.12062456
v -1.93496635 0.36615262 -4.08615275
v -1.93780251 0.33168101 -4.12062456
v -1.93750330 0.31561442 -4.12062456
v -1.93406866 0.31777143 -4.08612407
v -1.93270261 0.28297727 -4.10331692
v -1.92887768 0.30273293 -4.06891684
v -1.93324903 0.37935665 -4.07299262
v -1.92428516 0.26467305 -4.08612407
v -1.90349521 0.21137310 -4.08615275
v -1.88789624 0.21607011 -4.03887964
v -1.88120910 0.18448121 -4.05892836
v -1.85418736 0.20207987 -4.02531762
v -1.85418736 0.18010676 -4.05109259
v -1.80502264 0.17831261 -4.03506214
v -1.80502264 0.18311042 -4.02623613
v -1.93715202 0.37631267 -4.12062456
v -1.93648851 0.37935665 -4.11551548
v -1.80502264 0.17593388 -4.08598052
v -1.83732643 0.17649831 -4.12062456
v -1.93791962 0.36615262 -4.12062456
v -1.93348322 0.27981235 -4.12062456
v -1.92548208 0.25546046 -4.12062456
v -1.90702090 0.21137310 -4.12062456
v -1.89345149 0.18911775 -4.12062456
v -1.88724572 0.17919959 -4.12062456
v -1.88478684 0.18149771 -4.08615275
v -1.85418736 0.17341401 -4.08615275
v -1.80502264 0.17760704 -4.03873609
v -1.80502264 0.17583308 -4.08560738
v -1.80502264 0.17579277 -4.08514812
v -1.85357590 0.17569197 -4.12062456
v -1.87708494 0.17653864 -4.12062456
f 1 2 3
f 1 3 10
f 1 10 18
f 1 18 29
f 1 29 47
f 1 47 46
f 1 46 60
f 1 60 62
f 1 62 61
f 1 61 50
f 1 50 31
f 1 31 20
f 1 20 11
f 1 11 4
f 1 4 5
f 1 5 2
f 2 6 7
f 2 7 8
f 2 8 3
f 2 5 9
f 2 9 6
f 3 8 10
f 4 11 19
f 4 19 30
f 4 30 49
f 4 49 39
f 4 39 25
f 4 25 24
f 4 24 13
f 4 13 9
f 4 9 5
f 6 12 7
f 6 9 13
f 6 13 12
f 7 12 14
f 7 14 15
f 7 15 8
f 8 15 16
f 8 16 10
f 10 16 17
f 10 17 18
f 11 20 21
f 11 21 19
f 12 22 23
f 12 23 14
f 12 13 24
f 12 24 25
f 12 25 22
f 14 23 26
f 14 26 15
f 15 26 27
f 15 27 16
f 16 27 17
f 17 27 28
f 17 28 29
f 17 29 18
f 19 21 32
f 19 32 51
f 19 51 63
f 19 63 64
f 19 64 57
f 19 57 56
f 19 56 55
f 19 55 54
f 19 54 53
f 19 53 35
f 19 35 34
f 19 34 52
f 19 52 48
f 19 48 30
f 20 31 21
f 21 31 50
f 21 50 32
f 22 33 23
f 22 25 33
f 23 34 35
f 23 35 36
f 23 36 37
f 23 37 38
f 23 38 26
f 23 33 34
f 25 39 33
f 26 38 40
f 26 40 41
f 26 41 42
f 26 42 27
f 27 42 43
f 27 43 44
f 27 44 28
f 28 44 43
f 28 43 45
f 28 45 46
f 28 46 47
f 28 47 29
f 30 48 49
f 32 50 51
f 33 52 34
f 33 39 52
f 35 53 37
f 35 37 36
f 37 53 54
f 37 54 40
f 37 40 38
f 39 49 48
f 39 48 52
f 40 54 41
f 41 54 55
f 41 55 56
f 41 56 57
f 41 57 58
f 41 58 43
f 41 43 42
f 43 58 59
f 43 59 45
f 45 59 60
f 45 60 46
f 50 61 51
f 51 61 62
f 51 62 59
f 51 59 63
f 57 64 59
f 57 59 58
f 59 64 63
f 59 62 60

