# https://github.com/mikedh/trimesh
v -2.46047567 0.60705434 -0.83350119
v -2.46047567 0.44086227 -0.83350119
v -2.46047567 0.53226429 -0.86418056
v -2.68136387 0.56996762 -0.86418056
v -2.72316299 0.56440007 -0.86418056
v -2.67976967 0.57261536 -0.83350119
v -2.46047567 0.44164209 -0.86418056
v -2.78616460 0.42182019 -0.83350119
v -2.78616460 0.42178391 -0.86418056
v -2.71525594 0.55736356 -0.83350119
v -2.76897944 0.51227916 -0.86418056
v -2.78594139 0.49193133 -0.83350119
v -2.78616460 0.48823173 -0.83350119
v -2.78616460 0.49180438 -0.86418056
v -2.78616460 0.49109711 -0.83543816
f 1 2 7
f 1 7 3
f 1 3 4
f 1 4 5
f 1 5 6
f 1 6 10
f 1 10 12
f 1 12 13
f 1 13 8
f 1 8 2
f 2 8 9
f 2 9 7
f 3 7 9
f 3 9 14
f 3 14 11
f 3 11 5
f 3 5 4
f 5 10 6
f 5 11 12
f 5 12 10
f 8 13 15
f 8 15 14
f 8 14 9
f 11 14 12
f 12 14 15
f 12 15 13

