# https://github.com/mikedh/trimesh
v -2.10357308 0.66443361 -0.91853384
v -2.10357308 0.43653411 -0.91853384
v -2.10357308 0.66443361 -1.00569446
v -2.37565192 0.66443361 -0.91853384
v -2.10357308 0.43694129 -0.93864599
v -2.14367919 0.43628529 -0.91853384
v -2.37016701 0.43336728 -0.93864599
v -2.31856706 0.43397802 -0.93864599
v -2.10357308 0.64075015 -1.01784282
v -2.21543704 0.62034664 -1.04388167
v -2.26525526 0.63287829 -1.04388167
v -2.26689725 0.63328547 -1.04388167
v -2.16380214 0.66443361 -1.00284760
v -2.35863826 0.66443361 -0.94664668
v -2.46044076 0.62066333 -1.04182030
v -2.46044076 0.62489332 -1.00311763
v -2.46044076 0.62407899 -0.99023314
v -2.46044076 0.60842574 -0.95034024
v -2.46044076 0.58051230 -0.93070665
v -2.41457026 0.61611665 -0.91853384
v -2.10357308 0.44499411 -1.00435691
v -2.37016701 0.43538048 -0.99023314
v -2.29778037 0.44175941 -1.04388167
v -2.35004410 0.43506380 -0.91853384
v -2.37016701 0.43508642 -0.91853384
v -2.46044076 0.44175941 -0.91853384
v -2.46044076 0.43764251 -0.97734865
v -2.46044076 0.43691866 -0.99023314
v -2.42176701 0.43574240 -0.99023314
v -2.10357308 0.60957939 -1.02632207
v -2.10357308 0.54366384 -1.04388167
v -2.31846226 0.63145322 -1.04388167
v -2.21540209 0.66443361 -0.99953448
v -2.31856706 0.66443361 -0.97262433
v -2.31297735 0.66443361 -0.97478397
v -2.26808506 0.66443361 -0.99160744
v -2.42176701 0.62584337 -1.04182030
v -2.46044076 0.61971327 -1.04388167
v -2.46044076 0.57107964 -0.92638737
v -2.46044076 0.54560919 -0.91853384
v -2.10357308 0.45112421 -1.04388167
v -2.46044076 0.43752941 -1.02592932
v -2.46044076 0.43818540 -1.03762358
v -2.42176701 0.43834374 -1.03702231
v -2.37806244 0.44010812 -1.04388167
v -2.36810583 0.62848994 -1.04388167
v -2.41928659 0.62518740 -1.04388167
v -2.42176701 0.62487069 -1.04388167
v -2.43029131 0.62373969 -1.04388167
v -2.46044076 0.43981406 -1.04388167
f 1 2 5
f 1 5 21
f 1 21 41
f 1 41 31
f 1 31 30
f 1 30 9
f 1 9 3
f 1 3 13
f 1 13 33
f 1 33 36
f 1 36 35
f 1 35 34
f 1 34 14
f 1 14 4
f 1 4 20
f 1 20 40
f 1 40 26
f 1 26 25
f 1 25 24
f 1 24 6
f 1 6 2
f 2 6 7
f 2 7 8
f 2 8 5
f 3 9 10
f 3 10 11
f 3 11 12
f 3 12 13
f 4 14 15
f 4 15 16
f 4 16 17
f 4 17 18
f 4 18 19
f 4 19 20
f 5 8 22
f 5 22 23
f 5 23 21
f 6 24 7
f 7 22 8
f 7 24 25
f 7 25 26
f 7 26 27
f 7 27 28
f 7 28 29
f 7 29 22
f 9 30 10
f 10 30 31
f 10 31 41
f 10 41 23
f 10 23 45
f 10 45 50
f 10 50 38
f 10 38 49
f 10 49 48
f 10 48 47
f 10 47 46
f 10 46 32
f 10 32 12
f 10 12 11
f 12 32 13
f 13 32 33
f 14 34 15
f 15 34 35
f 15 35 36
f 15 36 37
f 15 37 38
f 15 38 50
f 15 50 43
f 15 43 42
f 15 42 28
f 15 28 27
f 15 27 26
f 15 26 40
f 15 40 39
f 15 39 19
f 15 19 18
f 15 18 17
f 15 17 16
f 19 39 20
f 20 39 40
f 21 23 41
f 22 29 42
f 22 42 43
f 22 43 44
f 22 44 23
f 23 44 45
f 28 42 29
f 32 46 33
f 33 46 47
f 33 47 36
f 36 47 37
f 37 47 48
f 37 48 49
f 37 49 38
f 43 50 45
f 43 45 44

