# https://github.com/mikedh/trimesh
v -1.25186935 0.31450042 -0.73215990
v -1.25278009 0.30830246 -0.72397236
v -1.25253574 0.30830246 -0.73215990
v -1.25614907 0.36351854 -0.73215990
v -1.25691915 0.36369304 -0.68062933
v -1.25792615 0.36483635 -0.62903264
v -1.25372786 0.31456060 -0.68062933
v -1.25466082 0.30830246 -0.67140473
v -1.30272261 0.30830246 -0.73215990
v -1.25757812 0.36977066 -0.73215990
v -1.25753371 0.36977066 -0.71975719
v -1.25790393 0.36977066 -0.66897706
v -1.25604543 0.31456060 -0.62903264
v -1.25857032 0.36977066 -0.62903264
v -1.25922191 0.35711598 -0.59820273
v -1.25655631 0.30830246 -0.62903264
v -1.32492092 0.36977066 -0.73209362
v -1.32489128 0.36973455 -0.73215990
v -1.32750502 0.30830246 -0.61146597
v -1.28098335 0.36977066 -0.73215990
v -1.25900716 0.31456060 -0.59729791
v -1.25920707 0.30830246 -0.59793792
v -1.25685990 0.30830246 -0.62311824
v -1.26666328 0.36977066 -0.58129806
v -1.26744816 0.36977066 -0.57940015
v -1.26883276 0.31456060 -0.57149956
v -1.32750502 0.36977066 -0.62885611
v -1.32750502 0.30830246 -0.54437720
v -1.26919560 0.30830246 -0.57269133
v -1.27456375 0.36977066 -0.56735067
v -1.29478512 0.36615417 -0.53272493
v -1.27233503 0.30830246 -0.56724026
v -1.29462223 0.31456060 -0.53327652
v -1.29499983 0.30830246 -0.53362959
v -1.32750502 0.36977066 -0.50844928
v -1.29999038 0.30830246 -0.53049593
v -1.32750502 0.30852510 -0.50776513
v -1.29512573 0.36977066 -0.53314412
v -1.32618708 0.36977066 -0.50915542
v -1.32750502 0.36615417 -0.50745619
v -1.32595011 0.31456060 -0.50747818
v -1.32750502 0.36740580 -0.50769900
v -1.32750502 0.31281554 -0.50699271
v -1.32750502 0.35021998 -0.50710312
v -1.32750502 0.31456060 -0.50672790
v -1.32750502 0.31419956 -0.50677204
f 1 2 3
f 1 3 9
f 1 9 18
f 1 18 20
f 1 20 10
f 1 10 4
f 1 4 5
f 1 5 6
f 1 6 7
f 1 7 8
f 1 8 2
f 2 8 16
f 2 16 23
f 2 23 22
f 2 22 29
f 2 29 32
f 2 32 34
f 2 34 36
f 2 36 28
f 2 28 19
f 2 19 9
f 2 9 3
f 4 10 11
f 4 11 12
f 4 12 5
f 5 12 6
f 6 13 7
f 6 12 14
f 6 14 15
f 6 15 13
f 7 13 16
f 7 16 8
f 9 17 18
f 9 19 17
f 10 20 17
f 10 17 27
f 10 27 35
f 10 35 39
f 10 39 38
f 10 38 30
f 10 30 25
f 10 25 24
f 10 24 14
f 10 14 12
f 10 12 11
f 13 15 21
f 13 21 22
f 13 22 23
f 13 23 16
f 14 24 15
f 15 24 25
f 15 25 26
f 15 26 21
f 17 20 18
f 17 19 27
f 19 28 37
f 19 37 43
f 19 43 46
f 19 46 45
f 19 45 44
f 19 44 40
f 19 40 42
f 19 42 35
f 19 35 27
f 21 26 22
f 22 26 29
f 25 30 31
f 25 31 26
f 26 32 29
f 26 31 33
f 26 33 34
f 26 34 32
f 28 36 37
f 30 38 31
f 31 38 39
f 31 39 40
f 31 40 41
f 31 41 33
f 33 41 34
f 34 41 37
f 34 37 36
f 35 42 39
f 37 41 43
f 39 42 40
f 40 44 41
f 41 44 45
f 41 45 46
f 41 46 43

