# https://github.com/mikedh/trimesh
v -2.85374491 0.41653459 -1.87023116
v -2.92385393 0.41653459 -1.87023116
v -2.85376928 0.41653459 -1.86740821
v -2.94555143 0.22273066 -1.86740821
v -2.94560010 0.22273066 -1.87023116
v -2.92979578 0.41649665 -1.87023116
v -2.92930869 0.41653459 -1.86866479
v -2.86691927 0.41653459 -1.81580345
v -2.95439113 0.22273066 -1.82182803
v -2.95154195 0.22273066 -1.83422143
v -3.00387408 0.22273066 -1.87023116
v -2.95429371 0.37493200 -1.87023116
v -3.01471064 0.39147439 -1.73543568
v -2.97623472 0.41653459 -1.76097983
v -2.91053341 0.41653459 -1.69439960
v -2.96783336 0.22273066 -1.79642151
v -3.08800968 0.22273066 -1.76368230
v -2.98039892 0.31456747 -1.87023116
v -2.96698106 0.35104799 -1.87023116
v -3.06894230 0.29299786 -1.74220032
v -3.05683930 0.32268690 -1.71262829
v -3.02861559 0.37102405 -1.71600200
v -3.01643971 0.39367498 -1.70104399
v -2.99783481 0.41363209 -1.71600200
v -2.99530226 0.41653459 -1.71570952
v -2.99476650 0.41653459 -1.69439960
v -3.02778766 0.22273066 -1.69439960
v -3.10252343 0.22273066 -1.71107915
v -2.96776032 0.34949239 -1.87023116
v -3.08572072 0.26296736 -1.71262829
v -3.07067121 0.29690582 -1.71262829
v -3.05705859 0.32242131 -1.69439960
v -3.01643971 0.39367498 -1.69439960
v -3.00691809 0.40386221 -1.69439960
v -3.10033181 0.22273066 -1.69439960
v -3.10147637 0.22273066 -1.69892664
v -3.08019275 0.27471017 -1.69439960
v -3.07045208 0.29664022 -1.69439960
v -3.09904116 0.22754921 -1.69439960
f 1 2 7
f 1 7 14
f 1 14 25
f 1 25 26
f 1 26 15
f 1 15 8
f 1 8 3
f 1 3 4
f 1 4 5
f 1 5 11
f 1 11 18
f 1 18 29
f 1 29 19
f 1 19 12
f 1 12 6
f 1 6 2
f 2 6 7
f 3 8 9
f 3 9 10
f 3 10 4
f 4 10 9
f 4 9 16
f 4 16 27
f 4 27 35
f 4 35 36
f 4 36 28
f 4 28 17
f 4 17 11
f 4 11 5
f 6 12 13
f 6 13 14
f 6 14 7
f 8 15 9
f 9 15 16
f 11 17 18
f 12 19 20
f 12 20 13
f 13 20 21
f 13 21 22
f 13 22 23
f 13 23 24
f 13 24 25
f 13 25 14
f 15 26 34
f 15 34 33
f 15 33 32
f 15 32 38
f 15 38 37
f 15 37 39
f 15 39 35
f 15 35 27
f 15 27 16
f 17 28 20
f 17 20 29
f 17 29 18
f 19 29 20
f 20 28 30
f 20 30 31
f 20 31 21
f 21 31 32
f 21 32 23
f 21 23 22
f 23 32 33
f 23 33 25
f 23 25 24
f 25 33 34
f 25 34 26
f 28 36 37
f 28 37 30
f 30 37 31
f 31 38 32
f 31 37 38
f 35 39 36
f 36 39 37

