# https://github.com/mikedh/trimesh
v -1.39445824 0.21364176 -0.62606829
v -1.39438881 0.30972097 -0.54539612
v -1.39438881 0.21393736 -0.62577319
v -1.39438881 0.21355180 -0.62606829
v -2.10352102 0.18300336 -0.60636873
v -2.10352102 0.20175396 -0.60636873
v -2.10352102 0.22324198 -0.60113033
v -2.10352102 0.22754729 -0.60006788
v -2.10352102 0.31423191 -0.53077273
v -1.39438881 0.30972097 -0.48949953
v -1.57236601 0.31423191 -0.53406340
v -1.39438881 0.18314473 -0.62354497
v -2.06055382 0.18299050 -0.60638349
v -2.10352102 0.18300336 -0.59145024
v -2.10352102 0.31423191 -0.47573191
v -1.39438881 0.30897557 -0.48957335
v -1.57236601 0.31423191 -0.48796484
v -2.00890989 0.31423191 -0.47590906
v -1.44624099 0.30972097 -0.48820104
v -1.49302593 0.26294083 -0.49165394
v -1.39438881 0.18360739 -0.59510982
v -1.44145143 0.18336321 -0.59336860
v -1.49302593 0.18313187 -0.59204043
v -1.54460046 0.18300336 -0.59150929
v -1.59624438 0.18295196 -0.59137643
v -1.59624438 0.18295196 -0.60644254
v -2.06055382 0.18299050 -0.59130261
v -1.59624438 0.18973764 -0.56556778
v -2.10352102 0.19121559 -0.56565636
v -2.10352102 0.26294083 -0.48172305
v -2.06055382 0.26294083 -0.48101475
v -2.06076204 0.31423191 -0.47531886
v -1.43659245 0.25794154 -0.49473809
v -1.39438881 0.26787587 -0.49562354
v -2.00890989 0.26294083 -0.48120666
v -1.49302593 0.23372896 -0.49739412
v -1.45061406 0.23516834 -0.49851577
v -1.39438881 0.19130555 -0.56931593
v -1.44145143 0.19027742 -0.56757472
v -1.49302593 0.18976334 -0.56623194
v -1.54460046 0.18968624 -0.56570064
v -2.00890989 0.21108428 -0.52585895
v -2.06055382 0.21112284 -0.52585895
v -2.10352102 0.19453132 -0.55903089
v -2.10352102 0.23676195 -0.49262797
v -2.06055382 0.23124858 -0.49456094
v -2.00890989 0.23128714 -0.49460523
v -1.41618477 0.23743025 -0.50013873
v -1.39438881 0.26346775 -0.49647915
v -1.54460046 0.23299640 -0.49678916
v -1.49302593 0.21212527 -0.52585895
v -1.43659245 0.21910374 -0.52075326
v -1.39438881 0.21738161 -0.52734920
v -1.54460046 0.21131562 -0.52585895
v -1.57229660 0.21127706 -0.52585895
v -1.59624438 0.21126420 -0.52585895
v -2.10352102 0.21466991 -0.52063516
v -2.10352102 0.21131562 -0.52585895
v -2.10352102 0.23147991 -0.49488572
v -1.39438881 0.24218537 -0.50189486
f 1 2 3
f 1 3 4
f 1 4 5
f 1 5 6
f 1 6 7
f 1 7 8
f 1 8 9
f 1 9 2
f 2 10 16
f 2 16 34
f 2 34 49
f 2 49 60
f 2 60 53
f 2 53 38
f 2 38 21
f 2 21 12
f 2 12 4
f 2 4 3
f 2 9 11
f 2 11 17
f 2 17 10
f 4 12 5
f 5 12 13
f 5 13 27
f 5 27 14
f 5 14 29
f 5 29 44
f 5 44 58
f 5 58 57
f 5 57 59
f 5 59 45
f 5 45 30
f 5 30 15
f 5 15 9
f 5 9 8
f 5 8 7
f 5 7 6
f 9 15 32
f 9 32 18
f 9 18 17
f 9 17 11
f 10 17 18
f 10 18 19
f 10 19 20
f 10 20 16
f 12 21 22
f 12 22 23
f 12 23 24
f 12 24 25
f 12 25 26
f 12 26 13
f 13 26 25
f 13 25 27
f 14 27 28
f 14 28 29
f 15 30 31
f 15 31 32
f 16 20 33
f 16 33 34
f 18 32 35
f 18 35 20
f 18 20 19
f 20 36 37
f 20 37 33
f 20 35 36
f 21 38 39
f 21 39 40
f 21 40 22
f 22 40 23
f 23 40 24
f 24 40 41
f 24 41 25
f 25 41 27
f 27 41 28
f 28 42 43
f 28 43 44
f 28 44 29
f 28 41 42
f 30 45 31
f 31 45 59
f 31 59 46
f 31 46 47
f 31 47 35
f 31 35 32
f 33 37 48
f 33 48 49
f 33 49 34
f 35 47 50
f 35 50 36
f 36 50 51
f 36 51 37
f 37 51 52
f 37 52 53
f 37 53 48
f 38 53 51
f 38 51 39
f 39 51 40
f 40 51 54
f 40 54 41
f 41 54 55
f 41 55 56
f 41 56 42
f 42 56 46
f 42 46 43
f 43 46 57
f 43 57 58
f 43 58 44
f 46 59 57
f 46 56 55
f 46 55 47
f 47 55 54
f 47 54 50
f 48 53 60
f 48 60 49
f 50 54 51
f 51 53 52

