# https://github.com/mikedh/trimesh
v -1.94238196 0.35857226 -4.49922558
v -1.94229325 0.36589867 -4.49922558
v -1.93569149 0.35857226 -4.49922558
v -1.94103880 0.35857226 -4.19697875
v -1.94097545 0.36617513 -4.18938180
v -1.94120354 0.36617513 -4.24096688
v -1.94226792 0.36617513 -4.49922558
v -1.89387598 0.36617513 -4.49922558
v -1.89423078 0.35857226 -4.49896616
v -1.94100078 0.35857226 -4.18938180
v -1.93514662 0.40697391 -4.18938180
v -1.93937884 0.36617513 -4.13779680
v -1.93442435 0.40418948 -4.13779680
v -1.93560278 0.40608526 -4.49922558
v -1.93523531 0.40691467 -4.24096688
v -1.81293128 0.44783192 -4.49922558
v -1.81293128 0.44516598 -4.46227842
v -1.88563958 0.35857226 -4.12067584
v -1.93963228 0.35857226 -4.14535669
v -1.92796196 0.43276442 -4.18938180
v -1.93903673 0.35857226 -4.13401681
v -1.93790897 0.36617513 -4.12067584
v -1.93716136 0.37632546 -4.12067584
v -1.93935351 0.35857226 -4.13779680
v -1.92713831 0.42999974 -4.13779680
v -1.93384146 0.40174076 -4.12067584
v -1.92897566 0.41898052 -4.12067584
v -1.92713831 0.43211274 -4.49922558
v -1.92782256 0.43272492 -4.24096688
v -1.81293128 0.51139980 -4.49922558
v -1.81293128 0.44552144 -4.12067584
v -1.93788363 0.35857226 -4.12067584
v -1.90215037 0.46607881 -4.18938180
v -1.90133941 0.46544688 -4.13779680
v -1.92646673 0.42753127 -4.12067584
v -1.91790089 0.44099921 -4.12067584
v -1.90146612 0.46469647 -4.49922558
v -1.90202366 0.46588133 -4.24096688
v -1.90188428 0.46568385 -4.29258894
v -1.86892605 0.49064496 -4.49922558
v -1.81293128 0.54813056 -4.39575894
v -1.81293128 0.52992316 -4.12067584
v -1.81293128 0.56031488 -4.24096688
v -1.90066783 0.46467672 -4.12067584
v -1.90132673 0.46485445 -4.49892910
v -1.90117468 0.46499268 -4.49922558
v -1.81293128 0.55630610 -4.21413669
v -1.87110552 0.49048698 -4.12067584
v -1.88139467 0.48191647 -4.12067584
f 1 2 7
f 1 7 14
f 1 14 28
f 1 28 37
f 1 37 46
f 1 46 40
f 1 40 30
f 1 30 16
f 1 16 8
f 1 8 3
f 1 3 9
f 1 9 18
f 1 18 32
f 1 32 21
f 1 21 24
f 1 24 19
f 1 19 10
f 1 10 4
f 1 4 5
f 1 5 6
f 1 6 2
f 2 6 7
f 3 8 9
f 4 10 5
f 5 11 6
f 5 10 12
f 5 12 13
f 5 13 11
f 6 11 7
f 7 11 15
f 7 15 14
f 8 16 9
f 9 16 17
f 9 17 18
f 10 19 12
f 11 20 15
f 11 13 20
f 12 21 22
f 12 22 23
f 12 23 13
f 12 19 24
f 12 24 21
f 13 25 20
f 13 23 26
f 13 26 27
f 13 27 25
f 14 15 20
f 14 20 29
f 14 29 28
f 16 30 41
f 16 41 43
f 16 43 47
f 16 47 42
f 16 42 31
f 16 31 17
f 17 31 18
f 18 31 42
f 18 42 48
f 18 48 49
f 18 49 44
f 18 44 36
f 18 36 35
f 18 35 27
f 18 27 26
f 18 26 23
f 18 23 22
f 18 22 32
f 20 33 29
f 20 25 34
f 20 34 33
f 21 32 22
f 25 27 35
f 25 35 36
f 25 36 34
f 28 29 33
f 28 33 38
f 28 38 39
f 28 39 37
f 30 40 41
f 33 43 38
f 33 34 43
f 34 36 44
f 34 44 43
f 37 45 46
f 37 39 45
f 38 43 39
f 39 43 45
f 40 46 41
f 41 46 43
f 42 47 48
f 43 46 45
f 43 44 49
f 43 49 47
f 47 49 48

