# https://github.com/mikedh/trimesh
v -2.85793586 0.06218919 -2.38100116
v -2.85793586 0.06229510 -2.40056347
v -2.78296227 0.07111054 -2.37415287
v -2.78296227 0.07111054 -2.34459584
v -2.82470149 0.07285776 -2.35003461
v -2.85793586 0.10809314 -2.36088356
v -2.85793586 0.06319516 -2.41673724
v -2.74560631 0.07688163 -2.36391611
v -2.74560631 0.07688163 -2.34781354
v -2.69084812 0.11651153 -2.33763375
v -2.69084812 0.14798775 -2.32563156
v -2.78296227 0.10817257 -2.33239435
v -2.85793586 0.33260952 -2.27325176
v -2.84473698 0.06835737 -2.41545582
v -2.85793586 0.08103787 -2.41764845
v -2.69084812 0.11651153 -2.36492704
v -2.69084812 0.15976818 -2.32275555
v -2.69084812 0.33260952 -2.28373057
v -2.85793586 0.33260952 -2.34574909
v -2.84071349 0.10817257 -2.41646675
v -2.69084812 0.15976818 -2.37305659
v -2.85793586 0.10817257 -2.41868775
v -2.69084812 0.33260952 -2.34408330
v -2.85793586 0.32771203 -2.34876749
v -2.83454751 0.33260952 -2.34926580
v -2.69084812 0.21133732 -2.37507837
v -2.84979085 0.14854367 -2.41263686
v -2.69084812 0.26293293 -2.37039418
v -2.85793586 0.15010558 -2.41299278
v -2.69084812 0.29798301 -2.36149574
v -2.83454751 0.30454828 -2.36549647
v -2.85793586 0.30192747 -2.36400153
v -2.85793586 0.26293293 -2.37892248
v -2.83454751 0.26293293 -2.38075911
v -2.78296227 0.26293293 -2.37775501
f 1 2 3
f 1 3 4
f 1 4 5
f 1 5 6
f 1 6 13
f 1 13 19
f 1 19 24
f 1 24 32
f 1 32 33
f 1 33 29
f 1 29 22
f 1 22 15
f 1 15 7
f 1 7 2
f 2 7 3
f 3 7 8
f 3 8 9
f 3 9 4
f 4 9 10
f 4 10 11
f 4 11 12
f 4 12 5
f 5 12 13
f 5 13 6
f 7 14 8
f 7 15 14
f 8 14 16
f 8 16 10
f 8 10 9
f 10 16 21
f 10 21 26
f 10 26 28
f 10 28 30
f 10 30 23
f 10 23 18
f 10 18 17
f 10 17 11
f 11 17 13
f 11 13 12
f 13 18 23
f 13 23 25
f 13 25 19
f 13 17 18
f 14 15 20
f 14 20 21
f 14 21 16
f 15 22 20
f 19 25 24
f 20 26 21
f 20 22 27
f 20 27 28
f 20 28 26
f 22 29 27
f 23 30 31
f 23 31 25
f 24 25 32
f 25 31 32
f 27 29 28
f 28 29 30
f 29 33 34
f 29 34 35
f 29 35 30
f 30 35 34
f 30 34 31
f 31 34 33
f 31 33 32

