# https://github.com/mikedh/trimesh
v -0.49133120 0.18351168 -4.60216707
v -0.48284350 0.18351168 -4.60216707
v -0.49074916 0.18379396 -4.51162936
v -0.49846367 0.20456698 -4.51162936
v -0.50091357 0.21136727 -4.51162936
v -0.50096562 0.21136727 -4.60216707
v -0.49004540 0.18410190 -4.65373623
v -0.48392939 0.18410190 -4.65373623
v -0.41222248 0.19940900 -4.65019168
v -0.48348636 0.18379396 -4.51162936
v -0.49798581 0.24000554 -4.51162936
v -0.49696943 0.24921805 -4.51162936
v -0.49676959 0.24892294 -4.55057638
v -0.49644812 0.24853802 -4.60216707
v -0.49324242 0.24484276 -4.65373623
v -0.49648288 0.21136727 -4.65373623
v -0.48797780 0.18503853 -4.68014753
v -0.48575380 0.18503853 -4.68014753
v -0.41222248 0.21424138 -4.70117710
v -0.41222248 0.21950198 -4.59362985
v -0.42973657 0.22993340 -4.51162936
v -0.45768441 0.20413071 -4.51162936
v -0.47714446 0.18849001 -4.51162936
v -0.46460835 0.31459081 -4.51162936
v -0.46663252 0.31459081 -4.60216707
v -0.46274919 0.31459081 -4.65373623
v -0.48907245 0.23991574 -4.68101206
v -0.48938516 0.21136727 -4.68109848
v -0.41222248 0.31455232 -4.73240822
v -0.41222248 0.25535115 -4.71861907
v -0.41222248 0.24370082 -4.56520853
v -0.41760882 0.26294697 -4.51162936
v -0.42595751 0.23836321 -4.51162936
v -0.41222248 0.31455232 -4.51162936
v -0.41222248 0.31459081 -4.51355295
v -0.44690312 0.31459081 -4.68980855
v -0.41921594 0.31459081 -4.71563642
v -0.41222248 0.31459081 -4.71626321
v -0.41222248 0.26294697 -4.54551897
v -0.41222248 0.29785948 -4.51162936
f 1 2 10
f 1 10 3
f 1 3 4
f 1 4 5
f 1 5 6
f 1 6 7
f 1 7 8
f 1 8 2
f 2 8 9
f 2 9 10
f 3 10 23
f 3 23 22
f 3 22 21
f 3 21 33
f 3 33 32
f 3 32 40
f 3 40 34
f 3 34 24
f 3 24 12
f 3 12 11
f 3 11 5
f 3 5 4
f 5 11 6
f 6 11 12
f 6 12 13
f 6 13 14
f 6 14 15
f 6 15 16
f 6 16 17
f 6 17 7
f 7 17 18
f 7 18 8
f 8 18 9
f 9 18 19
f 9 19 30
f 9 30 29
f 9 29 38
f 9 38 35
f 9 35 34
f 9 34 40
f 9 40 39
f 9 39 31
f 9 31 20
f 9 20 21
f 9 21 22
f 9 22 23
f 9 23 10
f 12 24 25
f 12 25 13
f 13 25 14
f 14 26 15
f 14 25 26
f 15 26 27
f 15 27 16
f 16 27 28
f 16 28 17
f 17 28 29
f 17 29 30
f 17 30 19
f 17 19 18
f 20 31 32
f 20 32 33
f 20 33 21
f 24 34 35
f 24 35 38
f 24 38 37
f 24 37 36
f 24 36 26
f 24 26 25
f 26 36 27
f 27 36 29
f 27 29 28
f 29 36 37
f 29 37 38
f 31 39 32
f 32 39 40

