# https://github.com/mikedh/trimesh
v -2.10357308 0.66443361 -0.83350949
v -2.10357308 0.43665419 -0.83350949
v -2.10357308 0.66443361 -0.91852170
v -2.42917335 0.66443361 -0.83350949
v -2.11024576 0.43647456 -0.83350949
v -2.10357308 0.43586836 -0.88703008
v -2.10357308 0.43654193 -0.91852170
v -2.37565192 0.66443361 -0.91852170
v -2.38379193 0.66443361 -0.90765276
v -2.41457026 0.61611607 -0.91852170
v -2.45638821 0.62413159 -0.83350949
v -2.11220218 0.43642966 -0.83350949
v -2.11220218 0.43580099 -0.88703008
v -2.10587881 0.43651948 -0.91852170
v -2.46044076 0.54561560 -0.91852170
v -2.46044076 0.60704533 -0.83350949
v -2.46044076 0.44085279 -0.83350949
v -2.37016701 0.43508252 -0.91852170
v -2.35004410 0.43506007 -0.91852170
v -2.11220218 0.43647456 -0.91852170
v -2.46044076 0.44177333 -0.91852170
f 1 2 6
f 1 6 7
f 1 7 3
f 1 3 8
f 1 8 9
f 1 9 4
f 1 4 11
f 1 11 16
f 1 16 17
f 1 17 12
f 1 12 5
f 1 5 2
f 2 5 6
f 3 7 14
f 3 14 20
f 3 20 19
f 3 19 18
f 3 18 21
f 3 21 15
f 3 15 10
f 3 10 8
f 4 9 10
f 4 10 11
f 5 12 6
f 6 12 13
f 6 13 14
f 6 14 7
f 8 10 9
f 10 15 11
f 11 15 16
f 12 17 18
f 12 18 19
f 12 19 13
f 13 20 14
f 13 19 20
f 15 21 17
f 15 17 16
f 17 21 18

