# https://github.com/mikedh/trimesh
v -1.75085902 0.37935664 -3.97541701
v -1.75085902 0.37935664 -4.02754008
v -1.78927670 0.37935664 -3.97496452
v -1.17666702 0.37933672 -3.96671194
v -1.80500967 0.37935664 -4.03107686
v -1.17666702 0.37933672 -4.03279170
v -1.80244848 0.37935664 -3.97502403
v -1.38973275 0.37933672 -3.96704541
v -1.33814326 0.37933672 -3.96681913
v -1.28655380 0.37933672 -3.96662860
v -1.23496434 0.37933672 -3.96644998
v -0.97701699 0.36584640 -3.96448510
v -0.92542753 0.36584640 -3.96500910
v -0.87408196 0.36584640 -3.96594983
v -0.82237056 0.36584640 -3.96700965
v -0.71906969 0.36584640 -3.96920082
v -0.66748023 0.36584640 -3.97101092
v -0.56430123 0.36584640 -3.97495260
v -0.55905691 0.36584640 -3.97526223
v -1.80500967 0.37935664 -3.97530983
v -1.20227880 0.37933672 -4.03336329
v -1.23496434 0.37933672 -4.03392296
v -1.80500967 0.21147497 -4.08347380
v -0.55905691 0.36584640 -4.02539658
v -1.80244848 0.36614530 -3.97376176
v -1.59609060 0.36612538 -3.96892694
v -1.54450114 0.36612538 -3.96773610
v -1.49291166 0.36612538 -3.96655717
v -1.59609060 0.37933672 -3.97051077
v -1.54450114 0.37933672 -3.96939135
v -1.49291166 0.37933672 -3.96830768
v -1.44132220 0.37933672 -3.96749790
v -1.80500967 0.37871899 -3.97523840
v -1.38973275 0.36612538 -3.96510436
v -1.33814326 0.36612538 -3.96483041
v -1.28655380 0.36612538 -3.96459229
v -1.23496434 0.36612538 -3.96436600
v -1.08019592 0.36584640 -3.96433033
v -0.92542753 0.31453539 -3.96742647
v -0.97701699 0.31453539 -3.96717643
v -0.71906969 0.31453539 -3.96968906
v -0.66748023 0.31453539 -3.97099901
v -0.61589077 0.31453539 -3.97289246
v -0.56430123 0.31453539 -3.97491685
v -0.55905691 0.31975616 -3.97523840
v -0.55905691 0.20904394 -4.08167562
v -1.80500967 0.17620487 -4.08597460
v -0.55905691 0.17893483 -4.08492661
v -1.80500967 0.36614530 -3.97404755
v -1.80244848 0.31453539 -3.97426192
v -1.64768006 0.31453539 -3.97042742
v -1.44132220 0.36612538 -3.96562828
v -1.59609060 0.31453539 -3.96961763
v -1.44132220 0.31453539 -3.96854588
v -1.38973275 0.31453539 -3.96821242
v -1.33814326 0.31453539 -3.96805764
v -1.08056183 0.36584640 -3.96433033
v -0.71906969 0.26298526 -3.97633398
v -0.66748023 0.26298526 -3.97673887
v -0.61589077 0.26298526 -3.97719136
v -0.92542753 0.26298526 -3.97607195
v -0.87383807 0.26298526 -3.97610770
v -0.77065915 0.26298526 -3.97622680
v -1.59609060 0.26300519 -3.97617913
v -1.38973275 0.26300519 -3.97609578
v -0.56430123 0.26298526 -3.97862033
v -0.55905691 0.31453539 -3.97539317
v -1.80500967 0.17594583 -4.08597460
v -0.55905691 0.17761967 -4.04460483
v -0.55917886 0.17891491 -4.08479567
v -1.80500967 0.17582627 -4.08560538
v -1.80500967 0.31453539 -3.97461914
v -1.80244848 0.26296532 -3.97950163
v -1.75085902 0.26296532 -3.97742956
v -1.69926952 0.26300519 -3.97685790
v -1.64768006 0.26300519 -3.97633398
v -0.61589077 0.21781165 -3.99389881
v -0.56430123 0.21834965 -3.99476819
v -1.75256644 0.20756935 -3.99668540
v -0.92542753 0.21803082 -3.99344633
v -0.55905691 0.26298526 -3.97941820
v -0.55905691 0.26818610 -3.97873943
v -0.55905691 0.19330191 -4.01883501
v -0.56430123 0.19256463 -4.01806097
v -0.56430123 0.17728092 -4.04383072
v -1.80500967 0.17578642 -4.08514097
v -1.80500967 0.26296532 -3.98002554
v -1.79915554 0.20958194 -3.99799535
v -1.80500967 0.26131142 -3.98060905
v -1.75085902 0.20926313 -3.99607806
v -1.77086059 0.18481317 -4.00797453
v -0.55905691 0.19591229 -4.01623903
v -0.55905691 0.21908694 -3.99531594
v -0.55905691 0.22287300 -3.99393457
v -1.77976373 0.18481317 -4.00797453
v -1.79915554 0.17809790 -4.03314893
v -1.80500967 0.17759974 -4.03869827
v -1.80500967 0.21147497 -3.99850742
v -1.80500967 0.20248807 -4.00455684
v -1.80500967 0.18309949 -4.02621821
v -1.80500967 0.17829717 -4.03503046
f 1 2 5
f 1 5 20
f 1 20 7
f 1 7 3
f 1 3 4
f 1 4 6
f 1 6 2
f 2 6 5
f 3 7 8
f 3 8 9
f 3 9 10
f 3 10 11
f 3 11 4
f 4 12 13
f 4 13 14
f 4 14 15
f 4 15 16
f 4 16 17
f 4 17 18
f 4 18 19
f 4 19 24
f 4 24 6
f 4 11 12
f 5 6 21
f 5 21 22
f 5 22 23
f 5 23 47
f 5 47 68
f 5 68 71
f 5 71 86
f 5 86 97
f 5 97 101
f 5 101 100
f 5 100 99
f 5 99 98
f 5 98 89
f 5 89 87
f 5 87 72
f 5 72 49
f 5 49 33
f 5 33 20
f 6 24 21
f 7 25 26
f 7 26 27
f 7 27 28
f 7 28 29
f 7 29 30
f 7 30 31
f 7 31 32
f 7 32 8
f 7 20 33
f 7 33 25
f 8 32 34
f 8 34 35
f 8 35 36
f 8 36 37
f 8 37 9
f 9 37 10
f 10 37 11
f 11 37 38
f 11 38 12
f 12 39 13
f 12 38 40
f 12 40 39
f 13 39 41
f 13 41 14
f 14 41 15
f 15 41 16
f 16 41 42
f 16 42 17
f 17 42 43
f 17 43 18
f 18 44 19
f 18 43 44
f 19 44 45
f 19 45 67
f 19 67 82
f 19 82 81
f 19 81 94
f 19 94 93
f 19 93 92
f 19 92 83
f 19 83 69
f 19 69 48
f 19 48 46
f 19 46 24
f 21 24 46
f 21 46 22
f 22 46 23
f 23 46 48
f 23 48 47
f 25 33 49
f 25 49 50
f 25 50 51
f 25 51 26
f 26 51 27
f 27 51 28
f 28 30 29
f 28 51 52
f 28 52 31
f 28 31 30
f 31 52 32
f 32 52 34
f 34 52 53
f 34 53 54
f 34 54 55
f 34 55 35
f 35 55 36
f 36 55 37
f 37 55 56
f 37 56 40
f 37 40 57
f 37 57 38
f 38 57 40
f 39 40 58
f 39 58 59
f 39 59 60
f 39 60 41
f 40 61 62
f 40 62 63
f 40 63 58
f 40 56 64
f 40 64 65
f 40 65 61
f 41 60 42
f 42 60 66
f 42 66 43
f 43 66 44
f 44 67 45
f 44 66 67
f 47 48 68
f 48 69 70
f 48 70 71
f 48 71 68
f 49 72 50
f 50 72 73
f 50 73 74
f 50 74 51
f 51 53 52
f 51 74 53
f 53 74 75
f 53 75 76
f 53 76 54
f 54 76 55
f 55 76 64
f 55 64 56
f 58 63 77
f 58 77 59
f 59 77 60
f 60 77 78
f 60 78 66
f 61 65 79
f 61 79 62
f 62 79 80
f 62 80 63
f 63 80 77
f 64 76 79
f 64 79 65
f 66 78 81
f 66 81 82
f 66 82 67
f 69 83 84
f 69 84 85
f 69 85 70
f 70 85 86
f 70 86 71
f 72 87 73
f 73 88 79
f 73 79 74
f 73 87 89
f 73 89 88
f 74 79 90
f 74 90 75
f 75 90 76
f 76 90 79
f 77 84 78
f 77 80 79
f 77 79 91
f 77 91 84
f 78 84 92
f 78 92 93
f 78 93 94
f 78 94 81
f 79 88 95
f 79 95 91
f 83 92 84
f 84 91 85
f 85 91 96
f 85 96 97
f 85 97 86
f 88 89 98
f 88 98 95
f 91 95 96
f 95 98 99
f 95 99 100
f 95 100 101
f 95 101 96
f 96 101 97

