# https://github.com/mikedh/trimesh
v -1.14679663 0.37011983 -1.47772335
v -1.22276123 0.37011983 -1.47772335
v -1.15670869 0.39342554 -1.47772335
v -1.15670869 0.39342554 -1.47505317
v -1.14743523 0.37011983 -1.45734010
v -1.43038666 0.46999879 -1.45677589
v -1.43038666 0.49962689 -1.47772335
v -1.29672674 0.37011983 -1.43391053
v -1.43038666 0.43948073 -1.43315841
v -1.20113243 0.45253341 -1.47772335
v -1.20210418 0.45151367 -1.45459472
v -1.19333049 0.41341246 -1.29980204
v -1.16753695 0.37536686 -1.29980204
v -1.16448283 0.37011983 -1.29980204
v -1.43038666 0.55953202 -1.47772335
v -1.31321906 0.37011983 -1.42225226
v -1.43038666 0.43745979 -1.42616341
v -1.21615318 0.46677270 -1.47772335
v -1.22931373 0.47728530 -1.45459472
v -1.26235388 0.49386072 -1.29980204
v -1.23839282 0.46807055 -1.29980204
v -1.21259929 0.43920262 -1.29980204
v -1.21754144 0.43082221 -1.24824211
v -1.20032725 0.40501350 -1.24824211
v -1.17925374 0.37011983 -1.25046095
v -1.43038666 0.55793751 -1.31078339
v -1.38976670 0.55252361 -1.35139965
v -1.38976670 0.55372876 -1.47772335
v -1.31882756 0.37011983 -1.40299711
v -1.43038666 0.43373310 -1.40299711
v -1.22873065 0.47832358 -1.47772335
v -1.25510727 0.49933024 -1.45459472
v -1.28814742 0.51169691 -1.29980204
v -1.29389471 0.50754379 -1.24824211
v -1.26812897 0.48892888 -1.24824211
v -1.24336273 0.46315726 -1.24824211
v -1.25183098 0.45397959 -1.20841564
v -1.20693527 0.39598416 -1.21894581
v -1.26449176 0.38765937 -1.09352463
v -1.25707857 0.37011983 -1.09352463
v -1.43038666 0.55771502 -1.30006531
v -1.36189080 0.54733221 -1.35139965
v -1.38571303 0.55081786 -1.30104302
v -1.36322350 0.54697994 -1.31905704
v -1.35953079 0.54803676 -1.47772335
v -1.31949391 0.37011983 -1.39596460
v -1.43038666 0.43326959 -1.39201576
v -1.25452419 0.49966397 -1.47772335
v -1.27193275 0.50956472 -1.47772335
v -1.28662034 0.51724059 -1.45459472
v -1.28662034 0.51570171 -1.40299711
v -1.28159492 0.51025073 -1.34805255
v -1.33606950 0.53913720 -1.35139965
v -1.34287189 0.53911867 -1.30104302
v -1.33817962 0.52975559 -1.24824211
v -1.30314042 0.50125848 -1.21010811
v -1.30486183 0.45023436 -1.09352463
v -1.28273325 0.41776953 -1.09352463
v -1.32149297 0.37011983 -1.09352463
v -1.43038666 0.55189322 -1.24820443
v -1.40017850 0.54985374 -1.25967479
v -1.33559752 0.53965635 -1.40299711
v -1.36577789 0.54634956 -1.28468380
v -1.34528745 0.54310493 -1.47772335
v -1.32224263 0.37011983 -1.35139965
v -1.43038666 0.43204590 -1.35139965
v -1.28662034 0.51729621 -1.47772335
v -1.38571303 0.54347574 -1.24478213
v -1.43038666 0.50454019 -1.09352463
v -1.33645821 0.50936078 -1.19442565
v -1.33817962 0.46621648 -1.09352463
v -1.43038666 0.43176779 -1.09352463
v -1.32179837 0.37011983 -1.14504704
v -1.43038666 0.54937169 -1.23526751
v -1.42094661 0.54608998 -1.22526387
v -1.31299693 0.52923645 -1.47772335
v -1.33373729 0.53856244 -1.47772335
v -1.32227039 0.37011983 -1.29980204
v -1.43038666 0.43180487 -1.14504704
v -1.43038666 0.43189757 -1.24824211
v -1.43038666 0.43195319 -1.29980204
v -1.32227039 0.37011983 -1.29705667
v -1.32224263 0.37011983 -1.24824211
v -1.32210381 0.37011983 -1.19664450
f 1 2 7
f 1 7 15
f 1 15 28
f 1 28 45
f 1 45 64
f 1 64 77
f 1 77 76
f 1 76 67
f 1 67 49
f 1 49 48
f 1 48 31
f 1 31 18
f 1 18 10
f 1 10 3
f 1 3 4
f 1 4 5
f 1 5 14
f 1 14 25
f 1 25 40
f 1 40 59
f 1 59 73
f 1 73 84
f 1 84 83
f 1 83 82
f 1 82 78
f 1 78 65
f 1 65 46
f 1 46 29
f 1 29 16
f 1 16 8
f 1 8 2
f 2 6 7
f 2 8 9
f 2 9 6
f 3 10 4
f 4 10 11
f 4 11 12
f 4 12 13
f 4 13 14
f 4 14 5
f 6 9 17
f 6 17 30
f 6 30 47
f 6 47 66
f 6 66 81
f 6 81 80
f 6 80 79
f 6 79 72
f 6 72 69
f 6 69 74
f 6 74 60
f 6 60 41
f 6 41 26
f 6 26 15
f 6 15 7
f 8 16 9
f 9 16 17
f 10 18 11
f 11 18 19
f 11 19 20
f 11 20 21
f 11 21 22
f 11 22 12
f 12 22 23
f 12 23 13
f 13 23 24
f 13 24 25
f 13 25 14
f 15 26 27
f 15 27 28
f 16 29 17
f 17 29 30
f 18 31 19
f 19 31 32
f 19 32 20
f 20 33 34
f 20 34 35
f 20 35 36
f 20 36 21
f 20 32 33
f 21 36 22
f 22 36 23
f 23 36 37
f 23 37 38
f 23 38 24
f 24 38 25
f 25 38 39
f 25 39 40
f 26 41 27
f 27 42 28
f 27 41 43
f 27 43 44
f 27 44 42
f 28 42 45
f 29 46 30
f 30 46 47
f 31 48 32
f 32 48 49
f 32 49 50
f 32 50 51
f 32 51 52
f 32 52 33
f 33 52 51
f 33 51 53
f 33 53 54
f 33 54 55
f 33 55 34
f 34 55 56
f 34 56 35
f 35 56 57
f 35 57 37
f 35 37 36
f 37 57 38
f 38 57 58
f 38 58 39
f 39 58 57
f 39 57 71
f 39 71 69
f 39 69 72
f 39 72 59
f 39 59 40
f 41 60 61
f 41 61 43
f 42 53 62
f 42 62 45
f 42 44 53
f 43 61 63
f 43 63 44
f 44 63 53
f 45 62 64
f 46 65 47
f 47 65 66
f 49 67 50
f 50 62 53
f 50 53 51
f 50 67 62
f 53 63 54
f 54 63 55
f 55 63 68
f 55 68 69
f 55 69 70
f 55 70 56
f 56 70 71
f 56 71 57
f 59 72 73
f 60 74 75
f 60 75 61
f 61 75 68
f 61 68 63
f 62 67 76
f 62 76 77
f 62 77 64
f 65 78 72
f 65 72 79
f 65 79 80
f 65 80 81
f 65 81 66
f 68 75 69
f 69 71 70
f 69 75 74
f 72 78 82
f 72 82 83
f 72 83 84
f 72 84 73

