# https://github.com/mikedh/trimesh
v -0.52622390 0.35255762 -3.97721520
v -0.51260513 0.36616232 -3.97804928
v -0.52622390 0.36616232 -3.97723096
v -0.52622390 0.33968302 -3.97764016
v -0.52198305 0.33968302 -3.97803352
v -0.52622390 0.40263147 -3.97927680
v -0.51260513 0.33968302 -3.97891481
v -0.49073424 0.33968302 -3.98686207
v -0.46770480 0.36616232 -3.99436860
v -0.47016407 0.41776759 -3.99589507
v -0.51260513 0.41776759 -3.98096066
v -0.52622390 0.33968302 -4.03893593
v -0.52622390 0.40414508 -3.97937122
v -0.46865576 0.33968302 -3.99524990
v -0.44189915 0.36616232 -4.02033472
v -0.44263144 0.42264676 -4.03416754
v -0.47766199 0.45252724 -4.00160764
v -0.51260513 0.45829677 -3.99632003
v -0.52622390 0.46137742 -3.99636724
v -0.52622390 0.41776759 -3.98029973
v -0.46511443 0.33968302 -4.13796911
v -0.52622390 0.43911842 -4.13776451
v -0.52614740 0.43908280 -4.13796911
v -0.44285003 0.33968302 -4.02121601
v -0.42949360 0.33968302 -4.04700897
v -0.42931876 0.36616232 -4.04612775
v -0.43161403 0.40870372 -4.05110066
v -0.43537395 0.44308942 -4.06158154
v -0.46716927 0.46077197 -4.03457674
v -0.52622390 0.50731999 -4.05045541
v -0.41498954 0.33968302 -4.13796911
v -0.52622390 0.51821800 -4.13796911
v -0.42019227 0.33968302 -4.08616274
v -0.42002819 0.36616232 -4.08616274
v -0.42894708 0.42264676 -4.08172490
v -0.43388746 0.44558243 -4.09598269
v -0.52622390 0.52160136 -4.08616274
v -0.42335099 0.41776759 -4.13776451
v -0.41456327 0.33980767 -4.13796911
v -0.41457419 0.33968302 -4.13776451
v -0.52622390 0.51917958 -4.13796911
v -0.41466169 0.36616232 -4.13776451
v -0.42334008 0.41776759 -4.13796911
v -0.43254315 0.44759465 -4.13776451
v -0.52622390 0.52117399 -4.11933645
v -0.43254315 0.44759465 -4.13796911
v -0.41465077 0.36616232 -4.13796911
v -0.46101567 0.46965776 -4.13796911
f 1 2 3
f 1 3 6
f 1 6 13
f 1 13 20
f 1 20 19
f 1 19 30
f 1 30 37
f 1 37 45
f 1 45 41
f 1 41 32
f 1 32 22
f 1 22 12
f 1 12 4
f 1 4 5
f 1 5 2
f 2 6 3
f 2 5 7
f 2 7 8
f 2 8 9
f 2 9 10
f 2 10 11
f 2 11 6
f 4 12 21
f 4 21 31
f 4 31 40
f 4 40 33
f 4 33 25
f 4 25 24
f 4 24 14
f 4 14 8
f 4 8 7
f 4 7 5
f 6 11 13
f 8 14 9
f 9 14 24
f 9 24 15
f 9 15 10
f 10 16 17
f 10 17 11
f 10 15 16
f 11 17 18
f 11 18 19
f 11 19 20
f 11 20 13
f 12 22 23
f 12 23 21
f 15 24 25
f 15 25 26
f 15 26 27
f 15 27 16
f 16 27 28
f 16 28 17
f 17 28 29
f 17 29 30
f 17 30 18
f 18 30 19
f 21 23 32
f 21 32 41
f 21 41 48
f 21 48 46
f 21 46 43
f 21 43 47
f 21 47 39
f 21 39 31
f 22 32 23
f 25 33 26
f 26 33 34
f 26 34 27
f 27 35 28
f 27 34 35
f 28 36 37
f 28 37 29
f 28 35 38
f 28 38 36
f 29 37 30
f 31 39 40
f 33 40 34
f 34 40 42
f 34 42 35
f 35 42 38
f 36 38 43
f 36 43 44
f 36 44 37
f 37 44 46
f 37 46 45
f 38 42 47
f 38 47 43
f 39 47 42
f 39 42 40
f 41 45 48
f 43 46 44
f 45 46 48

