# https://github.com/mikedh/trimesh
v -2.79815257 0.41652460 -1.19663358
v -2.86877389 0.31439657 -1.19663358
v -2.79822515 0.41652460 -1.24826287
v -2.79819616 0.41652460 -1.14504058
v -2.79826874 0.41652460 -1.26796074
v -2.79821062 0.41652460 -1.13462744
v -2.87276670 0.31439657 -1.13462744
v -2.87192454 0.31439657 -1.35141242
v -2.79883495 0.41652460 -1.35141242
v -2.79848649 0.41652460 -1.31977210
v -2.79839938 0.41652460 -1.29985586
v -2.90023698 0.41652460 -1.13462744
v -2.94118110 0.31439657 -1.13462744
v -2.87818233 0.31439657 -1.40300541
v -2.80465717 0.41652460 -1.40300541
v -2.92571816 0.36718521 -1.13462744
v -2.91590321 0.41652460 -1.16284515
v -2.91938779 0.40496708 -1.15665533
v -2.93925005 0.32431443 -1.13462744
v -2.94648063 0.34458007 -1.16193479
v -2.94549330 0.31439657 -1.14646056
v -2.89792849 0.31439657 -1.43591993
v -2.83892245 0.41652460 -1.44003438
v -2.94648063 0.40580690 -1.20886728
v -2.94648063 0.37903266 -1.18538282
v -2.94648063 0.36990462 -1.17806443
v -2.92782344 0.41652460 -1.18469113
v -2.94648063 0.31439657 -1.14948257
v -2.93743517 0.31439657 -1.44957376
v -2.94648063 0.31860567 -1.45911314
v -2.94648063 0.36650536 -1.50655540
v -2.90690128 0.41652460 -1.50655540
v -2.93483627 0.41652460 -1.19798066
v -2.94648063 0.41652460 -1.22463277
v -2.94648063 0.31439657 -1.44021645
v -2.93907582 0.31439657 -1.44928251
v -2.94648063 0.31685603 -1.45135788
v -2.94648063 0.41647461 -1.50655540
v -2.92282885 0.41652460 -1.50655540
v -2.94648063 0.41652460 -1.50619126
f 1 2 3
f 1 3 5
f 1 5 11
f 1 11 10
f 1 10 9
f 1 9 15
f 1 15 23
f 1 23 32
f 1 32 39
f 1 39 40
f 1 40 34
f 1 34 33
f 1 33 27
f 1 27 17
f 1 17 12
f 1 12 6
f 1 6 4
f 1 4 2
f 2 5 3
f 2 4 6
f 2 6 7
f 2 7 13
f 2 13 21
f 2 21 28
f 2 28 35
f 2 35 36
f 2 36 29
f 2 29 22
f 2 22 14
f 2 14 8
f 2 8 9
f 2 9 10
f 2 10 11
f 2 11 5
f 6 12 16
f 6 16 19
f 6 19 13
f 6 13 7
f 8 14 15
f 8 15 9
f 12 17 18
f 12 18 16
f 13 19 20
f 13 20 21
f 14 22 15
f 15 22 23
f 16 18 24
f 16 24 25
f 16 25 26
f 16 26 20
f 16 20 19
f 17 27 18
f 18 27 24
f 20 28 21
f 20 26 25
f 20 25 24
f 20 24 34
f 20 34 40
f 20 40 38
f 20 38 31
f 20 31 30
f 20 30 37
f 20 37 35
f 20 35 28
f 22 29 30
f 22 30 31
f 22 31 32
f 22 32 23
f 24 27 33
f 24 33 34
f 29 36 30
f 30 36 37
f 31 38 39
f 31 39 32
f 35 37 36
f 38 40 39

