# https://github.com/mikedh/trimesh
v -2.79878420 0.18296330 -0.64615306
v -2.79333382 0.18296330 -0.64615306
v -2.78620935 0.18303561 -0.62489098
v -2.78652082 0.18303561 -0.62499831
v -2.81743232 0.18325253 -0.62903003
v -2.81787350 0.18312238 -0.64615306
v -2.78844141 0.21263814 -0.64615306
v -2.78620935 0.21281168 -0.64118638
v -2.78620935 0.18361406 -0.59761976
v -2.81408421 0.18416360 -0.59699112
v -2.84323081 0.19224754 -0.62903003
v -2.84367200 0.19205953 -0.64615306
v -2.79007652 0.22255870 -0.64615306
v -2.78620935 0.21939163 -0.63881023
v -2.78620935 0.18371530 -0.59464572
v -2.78620935 0.18981803 -0.57152878
v -2.83260254 0.19636905 -0.57885624
v -2.87902164 0.21804671 -0.62903003
v -2.87462240 0.22228392 -0.57743073
v -2.87939801 0.21785872 -0.64615306
v -2.86440948 0.33068676 -0.64615306
v -2.78620935 0.33068676 -0.54493203
v -2.78620935 0.19085925 -0.56924473
v -2.83457503 0.22138730 -0.53456917
v -2.86732931 0.22987618 -0.54361355
v -2.90482014 0.25561751 -0.62903003
v -2.90519651 0.25379537 -0.64615306
v -2.89951254 0.26646357 -0.58115581
v -2.91839424 0.33068676 -0.64615306
v -2.78620935 0.33068676 -0.49002145
v -2.78620935 0.21660058 -0.52877456
v -2.78620935 0.24358560 -0.50458456
v -2.83282313 0.26274700 -0.50985787
v -2.87446670 0.26294945 -0.53627071
v -2.91264537 0.28601543 -0.60085430
v -2.91407288 0.28140222 -0.62903003
v -2.90860951 0.26232761 -0.64615306
v -2.90404157 0.31454783 -0.57185063
v -2.91852403 0.32533605 -0.64615306
v -2.91634386 0.33068676 -0.61895843
v -2.82155899 0.33068676 -0.49547868
v -2.78620935 0.31454783 -0.48956166
v -2.78620935 0.24621758 -0.50306694
v -2.81447350 0.27981148 -0.49823805
v -2.84691630 0.31454783 -0.50634746
v -2.87824307 0.31454783 -0.53214703
v -2.91369652 0.31454783 -0.59765036
v -2.91743390 0.31454783 -0.62903003
v -2.91877061 0.31454783 -0.64615306
v -2.91479956 0.27958009 -0.64615306
v -2.90406748 0.33068676 -0.57159014
v -2.91377440 0.33068676 -0.59738971
v -2.83929874 0.33068676 -0.50285227
v -2.82111780 0.31454783 -0.49561677
v -2.78620935 0.31099031 -0.48994487
v -2.78620935 0.27177092 -0.49590802
v -2.84737048 0.33068676 -0.50620952
v -2.86888653 0.33068676 -0.52394582
v -2.87826898 0.33068676 -0.53200910
f 1 2 3
f 1 3 4
f 1 4 5
f 1 5 6
f 1 6 12
f 1 12 20
f 1 20 27
f 1 27 37
f 1 37 50
f 1 50 49
f 1 49 39
f 1 39 29
f 1 29 21
f 1 21 13
f 1 13 7
f 1 7 2
f 2 7 8
f 2 8 3
f 3 9 4
f 3 8 14
f 3 14 22
f 3 22 30
f 3 30 42
f 3 42 55
f 3 55 56
f 3 56 43
f 3 43 32
f 3 32 31
f 3 31 23
f 3 23 16
f 3 16 15
f 3 15 9
f 4 9 5
f 5 9 10
f 5 10 11
f 5 11 12
f 5 12 6
f 7 13 14
f 7 14 8
f 9 15 10
f 10 15 16
f 10 16 17
f 10 17 11
f 11 18 12
f 11 17 19
f 11 19 18
f 12 18 20
f 13 21 22
f 13 22 14
f 16 23 17
f 17 23 24
f 17 24 25
f 17 25 19
f 18 26 27
f 18 27 20
f 18 19 26
f 19 25 28
f 19 28 26
f 21 29 40
f 21 40 52
f 21 52 51
f 21 51 59
f 21 59 58
f 21 58 57
f 21 57 53
f 21 53 41
f 21 41 30
f 21 30 22
f 23 31 24
f 24 31 32
f 24 32 33
f 24 33 25
f 25 33 34
f 25 34 28
f 26 28 35
f 26 35 36
f 26 36 37
f 26 37 27
f 28 34 38
f 28 38 35
f 29 39 40
f 30 41 42
f 32 43 33
f 33 43 44
f 33 44 45
f 33 45 34
f 34 45 46
f 34 46 38
f 35 47 48
f 35 48 49
f 35 49 36
f 35 38 47
f 36 49 50
f 36 50 37
f 38 51 52
f 38 52 47
f 38 46 51
f 39 49 40
f 40 49 48
f 40 48 47
f 40 47 52
f 41 53 54
f 41 54 42
f 42 54 55
f 43 56 44
f 44 56 55
f 44 55 54
f 44 54 45
f 45 54 57
f 45 57 46
f 46 58 59
f 46 59 51
f 46 57 58
f 53 57 54

