# https://github.com/mikedh/trimesh
v -0.71175185 0.73527810 -4.04463774
v -0.77062955 0.60672635 -4.00368647
v -0.71906623 0.60611161 -4.00412688
v -0.66744256 0.60546071 -4.00459091
v -0.66538725 0.72938388 -4.04463774
v -0.81439485 0.73477185 -4.04463774
v -1.08019053 0.60983618 -4.00177541
v -1.08019053 0.57251819 -3.98970317
v -0.97694303 0.57251819 -3.99075700
v -0.92537979 0.57251819 -3.99132329
v -0.87375603 0.57251819 -3.99194454
v -0.82225323 0.57251819 -3.99263669
v -0.77062955 0.57251819 -3.99341526
v -0.71906623 0.57251819 -3.99429610
v -0.66744256 0.57251819 -3.99520053
v -0.61581880 0.60307410 -4.00603018
v -0.58861663 0.60010891 -4.00775255
v -0.58251124 0.63710144 -4.04463774
v -0.97694303 0.73325309 -4.04463774
v -1.17654677 0.60741339 -4.00328542
v -1.17654677 0.57251819 -3.99251083
v -1.17654677 0.36618450 -3.96455984
v -1.08019053 0.36618450 -3.96430034
v -0.97694303 0.36618450 -3.96446550
v -0.92537979 0.36618450 -3.96499241
v -0.66744256 0.41778600 -3.97629392
v -0.56425549 0.41778600 -3.97847240
v -0.55905691 0.41778600 -3.97871621
v -0.61581880 0.57251819 -3.99796890
v -0.87375603 0.36618450 -3.96594398
v -0.56461825 0.57251819 -4.03456313
v -0.57924694 0.62983311 -4.04463774
v -0.55905691 0.46880894 -3.99645105
v -1.02856678 0.71886107 -4.04463774
v -1.17654677 0.61084868 -4.00588863
v -1.17654677 0.36585905 -3.96457560
v -1.08049278 0.36585905 -3.96432387
v -1.08019053 0.36585905 -3.96432387
v -0.97694303 0.36585905 -3.96448118
v -0.92568203 0.36585905 -3.96500026
v -0.87375603 0.36585905 -3.96595190
v -0.82225323 0.36618450 -3.96699005
v -0.56425549 0.36618450 -3.97493331
v -0.71906623 0.36618450 -3.96918429
v -0.66744256 0.36618450 -3.97100101
v -0.55905691 0.37139166 -3.97554680
v -0.55905691 0.54481900 -4.03416201
v -0.56201888 0.57251819 -4.04463774
v -0.56431600 0.58260707 -4.04463774
v -1.17654677 0.65272292 -4.04463774
v -1.17654677 0.63742689 -4.02801971
v -1.17654677 0.36585905 -4.02476379
v -0.82225323 0.36585905 -3.96699789
v -0.71930805 0.36585905 -3.96918429
v -0.56425549 0.36585905 -3.97493331
v -0.55905691 0.36618450 -3.97524793
v -0.71906623 0.36585905 -3.96919213
v -0.66744256 0.36585905 -3.97100101
v -0.55905691 0.55794538 -4.04463774
v -1.17654677 0.39883772 -4.04463774
v -1.17654677 0.39847612 -4.04442537
v -1.08019053 0.39695736 -4.04463774
v -1.08019053 0.36585905 -4.02533000
v -0.55905691 0.36585905 -3.97524793
v -0.55905691 0.41160250 -4.04463774
v -1.07257390 0.39706585 -4.04463774
v -0.55905691 0.36585905 -4.02540081
v -0.55905691 0.40729936 -4.04311204
v -1.02221965 0.39843996 -4.04463774
f 1 2 3
f 1 3 4
f 1 4 5
f 1 5 18
f 1 18 32
f 1 32 49
f 1 49 48
f 1 48 59
f 1 59 65
f 1 65 69
f 1 69 66
f 1 66 62
f 1 62 60
f 1 60 50
f 1 50 34
f 1 34 19
f 1 19 6
f 1 6 7
f 1 7 8
f 1 8 9
f 1 9 2
f 2 9 10
f 2 10 11
f 2 11 3
f 3 11 4
f 4 11 12
f 4 12 13
f 4 13 14
f 4 14 15
f 4 15 16
f 4 16 5
f 5 16 17
f 5 17 18
f 6 19 7
f 7 19 20
f 7 20 8
f 8 20 21
f 8 21 22
f 8 22 23
f 8 23 24
f 8 24 9
f 9 24 25
f 9 25 10
f 10 25 11
f 11 25 12
f 12 25 13
f 13 25 14
f 14 25 15
f 15 26 27
f 15 27 28
f 15 28 29
f 15 29 16
f 15 25 30
f 15 30 26
f 16 29 17
f 17 31 32
f 17 32 18
f 17 29 28
f 17 28 33
f 17 33 31
f 19 34 20
f 20 35 51
f 20 51 50
f 20 50 60
f 20 60 61
f 20 61 52
f 20 52 36
f 20 36 22
f 20 22 21
f 20 34 35
f 22 36 23
f 23 36 37
f 23 37 38
f 23 38 39
f 23 39 24
f 24 39 40
f 24 40 25
f 25 40 41
f 25 41 30
f 26 42 27
f 26 30 42
f 27 43 28
f 27 42 44
f 27 44 45
f 27 45 43
f 28 43 46
f 28 46 56
f 28 56 64
f 28 64 67
f 28 67 68
f 28 68 65
f 28 65 59
f 28 59 47
f 28 47 33
f 30 41 53
f 30 53 42
f 31 33 47
f 31 47 48
f 31 48 49
f 31 49 32
f 34 50 51
f 34 51 35
f 36 52 63
f 36 63 67
f 36 67 64
f 36 64 55
f 36 55 58
f 36 58 57
f 36 57 54
f 36 54 53
f 36 53 41
f 36 41 40
f 36 40 39
f 36 39 38
f 36 38 37
f 42 53 54
f 42 54 44
f 43 55 64
f 43 64 56
f 43 56 46
f 43 45 58
f 43 58 55
f 44 54 57
f 44 57 58
f 44 58 45
f 47 59 48
f 52 61 62
f 52 62 63
f 60 62 61
f 62 66 67
f 62 67 63
f 65 68 69
f 66 69 68
f 66 68 67

