# https://github.com/mikedh/trimesh
v -0.49778713 0.18051054 -4.18938426
v -0.46898545 0.18051054 -4.18938426
v -0.49795367 0.18051054 -4.18872048
v -0.49675091 0.18096243 -4.24097380
v -0.44320003 0.19291401 -4.18938426
v -0.44355164 0.19274259 -4.18872048
v -0.46900398 0.18051054 -4.18872048
v -0.47277882 0.18096243 -4.24097380
v -0.47814501 0.18189737 -4.34418455
v -0.48014349 0.18241158 -4.39574249
v -0.48348344 0.18379840 -4.51162936
v -0.49803694 0.18080662 -4.18872048
v -0.50091434 0.21136337 -4.51162936
v -0.49469691 0.18189737 -4.34418455
v -0.42940518 0.21871816 -4.18938426
v -0.42941456 0.21874934 -4.18872048
v -0.44303349 0.19328798 -4.18872048
v -0.44321856 0.19294517 -4.18872048
v -0.47714577 0.18848865 -4.51162936
v -0.45768871 0.20413321 -4.51162936
v -0.42972904 0.22993738 -4.51162936
v -0.49358665 0.18241158 -4.39574249
v -0.49074631 0.18379840 -4.51162936
v -0.50398595 0.21130103 -4.18872048
v -0.50283870 0.21136337 -4.39574249
v -0.49799066 0.24000351 -4.51162936
v -0.49847175 0.20456952 -4.51162936
v -0.41897820 0.26295612 -4.18938426
v -0.42595428 0.23836736 -4.51162936
v -0.41760882 0.26295612 -4.51162936
v -0.41900588 0.26295612 -4.18872048
v -0.46452601 0.33968301 -4.18872048
v -0.49682488 0.24919701 -4.44733210
v -0.49703770 0.24933725 -4.49895324
v -0.49697296 0.24922818 -4.51162936
v -0.41232598 0.31454888 -4.18938426
v -0.41243700 0.31387884 -4.18872048
v -0.40947634 0.31454888 -4.51162936
v -0.46454454 0.33968301 -4.51162936
v -0.41246468 0.33968301 -4.18872048
v -0.41243700 0.33968301 -4.18938426
v -0.41235366 0.31454888 -4.18872048
v -0.41003147 0.33968301 -4.51162936
f 1 2 7
f 1 7 3
f 1 3 4
f 1 4 8
f 1 8 2
f 2 5 6
f 2 6 7
f 2 8 9
f 2 9 10
f 2 10 11
f 2 11 5
f 3 7 6
f 3 6 18
f 3 18 17
f 3 17 16
f 3 16 31
f 3 31 37
f 3 37 42
f 3 42 40
f 3 40 32
f 3 32 24
f 3 24 12
f 3 12 13
f 3 13 14
f 3 14 4
f 4 14 9
f 4 9 8
f 5 15 16
f 5 16 17
f 5 17 18
f 5 18 6
f 5 11 19
f 5 19 20
f 5 20 21
f 5 21 15
f 9 14 22
f 9 22 10
f 10 22 23
f 10 23 11
f 11 23 27
f 11 27 13
f 11 13 26
f 11 26 35
f 11 35 39
f 11 39 43
f 11 43 38
f 11 38 30
f 11 30 29
f 11 29 21
f 11 21 20
f 11 20 19
f 12 24 25
f 12 25 13
f 13 27 22
f 13 22 14
f 13 25 26
f 15 28 16
f 15 21 29
f 15 29 30
f 15 30 28
f 16 28 31
f 22 27 23
f 24 32 33
f 24 33 34
f 24 34 25
f 25 34 35
f 25 35 26
f 28 36 37
f 28 37 31
f 28 30 38
f 28 38 36
f 32 39 34
f 32 34 33
f 32 40 41
f 32 41 43
f 32 43 39
f 34 39 35
f 36 41 40
f 36 40 42
f 36 42 37
f 36 38 41
f 38 43 41

