# https://github.com/mikedh/trimesh
v -1.07675524 0.20542340 -1.76421129
v -1.07845255 0.20542340 -1.75518107
v -1.09773595 0.17738241 -1.71263490
v -1.09028663 0.17185656 -1.76421129
v -1.09457707 0.17642602 -1.79934596
v -1.09039665 0.20542340 -1.80202721
v -1.08788210 0.20542340 -1.71263490
v -1.11420620 0.20542340 -1.60900157
v -1.13534408 0.15951641 -1.60900157
v -1.17424085 0.10643643 -1.60900157
v -1.19825473 0.06972148 -1.86738929
v -1.17244923 0.09921035 -1.86738929
v -1.15131140 0.12500646 -1.86738929
v -1.20020350 0.07387914 -1.60900157
v -1.19718606 0.07087711 -1.66103330
v -1.19608594 0.07006682 -1.71263490
v -1.14076605 0.15975551 -1.86738929
v -1.14027885 0.20542340 -1.86738929
v -1.17981998 0.20542340 -1.60900157
v -1.22660615 0.06972148 -1.86738929
v -1.22277150 0.07387914 -1.60900157
v -1.22368301 0.07087711 -1.66103330
v -1.22428020 0.07006682 -1.71263490
v -1.22563178 0.20542340 -1.86738929
v -1.21811960 0.14563539 -1.60900157
v -1.23729298 0.10816327 -1.86738929
v -1.22580467 0.07211248 -1.76421129
v -1.22706194 0.07342750 -1.81581298
v -1.23726153 0.10816327 -1.81581298
v -1.22285008 0.07414483 -1.60900157
v -1.22278722 0.07386588 -1.60943169
v -1.23171384 0.10816327 -1.60943169
v -1.23169812 0.10816327 -1.60900157
v -1.23160382 0.10846878 -1.60900157
f 1 2 3
f 1 3 4
f 1 4 5
f 1 5 6
f 1 6 18
f 1 18 24
f 1 24 19
f 1 19 8
f 1 8 7
f 1 7 2
f 2 7 3
f 3 7 8
f 3 8 9
f 3 9 10
f 3 10 4
f 4 11 12
f 4 12 13
f 4 13 5
f 4 10 14
f 4 14 15
f 4 15 16
f 4 16 11
f 5 13 17
f 5 17 6
f 6 17 18
f 8 19 25
f 8 25 34
f 8 34 33
f 8 33 30
f 8 30 21
f 8 21 14
f 8 14 10
f 8 10 9
f 11 20 26
f 11 26 24
f 11 24 18
f 11 18 17
f 11 17 13
f 11 13 12
f 11 16 23
f 11 23 20
f 14 21 22
f 14 22 15
f 15 22 23
f 15 23 16
f 19 24 25
f 20 23 27
f 20 27 28
f 20 28 29
f 20 29 26
f 21 30 31
f 21 31 22
f 22 31 30
f 22 30 32
f 22 32 29
f 22 29 27
f 22 27 23
f 24 26 29
f 24 29 32
f 24 32 33
f 24 33 34
f 24 34 25
f 27 29 28
f 30 33 32

