# https://github.com/mikedh/trimesh
v -2.68047243 0.51679009 -1.50650004
v -2.68047243 0.46530701 -1.44177267
v -2.68047243 0.56739446 -1.50650004
v -2.62811947 0.51774726 -1.50650004
v -2.68047243 0.46458521 -1.44068055
v -2.10357308 0.47732653 -1.43714937
v -2.10357308 0.47349786 -1.43147025
v -2.10357308 0.45437019 -1.40300188
v -2.68047243 0.56739446 -1.50544436
v -2.67973822 0.56748861 -1.50650004
v -2.57683948 0.51963021 -1.50650004
v -2.68047243 0.44355890 -1.40300188
v -2.10357308 0.53814592 -1.50650004
v -2.10357308 0.45346009 -1.39441037
v -2.68047243 0.56664128 -1.45385905
v -2.67973822 0.56673542 -1.45458719
v -2.67973822 0.56748861 -1.50620879
v -2.62811947 0.57211754 -1.50650004
v -2.68047243 0.44213099 -1.35141657
v -2.10357308 0.44906653 -1.35141657
v -2.10357308 0.60028338 -1.50650004
v -2.68047243 0.56555859 -1.40223730
v -2.67973822 0.56565273 -1.40300188
v -2.62811947 0.57130159 -1.45458719
v -2.62811947 0.57211754 -1.50620879
v -2.21307945 0.59904377 -1.50650004
v -2.68047243 0.44139350 -1.30911445
v -2.10357308 0.44790538 -1.19666064
v -2.68047243 0.44005974 -1.14580347
v -2.68047243 0.44134643 -1.30379931
v -2.10357308 0.60029908 -1.50620879
v -2.11221383 0.60028338 -1.50650004
v -2.68047243 0.56323627 -1.29983126
v -2.67973822 0.56331474 -1.29983126
v -2.57655707 0.57475367 -1.45458719
v -2.31033062 0.58432535 -1.13466373
v -2.27362140 0.58608278 -1.13466373
v -2.19664503 0.59863580 -1.47664830
v -2.16383262 0.60014216 -1.50650004
v -2.10357308 0.44799953 -1.18803285
v -2.68047243 0.43999697 -1.13480936
v -2.10357308 0.59896531 -1.47220692
v -2.11221383 0.60028338 -1.50620879
v -2.26842563 0.58608278 -1.13466373
v -2.68047243 0.56315782 -1.29906684
v -2.68047243 0.55772864 -1.24820951
v -2.68047243 0.55760311 -1.24762715
v -2.68047243 0.54953779 -1.21511784
v -2.67973822 0.51887703 -1.13466373
v -2.10357308 0.44906653 -1.14503904
v -2.67973822 0.44009112 -1.13466373
v -2.68047243 0.44539477 -1.13466373
v -2.10357308 0.44936467 -1.13644754
v -2.10357308 0.44952158 -1.13466373
v -2.10357308 0.59719220 -1.45072831
v -2.25876831 0.58520406 -1.13466373
v -2.68047243 0.51868874 -1.13466373
v -2.10357308 0.53503905 -1.13466373
v -2.10357308 0.59683131 -1.44643256
v -2.22861028 0.57690338 -1.13466373
v -2.10357308 0.56052168 -1.19666064
v -2.10357308 0.57331008 -1.24824595
v -2.10357308 0.58077913 -1.29983126
v -2.10357308 0.53828714 -1.14037915
v -2.10357308 0.55043219 -1.16200353
f 1 2 5
f 1 5 12
f 1 12 19
f 1 19 27
f 1 27 30
f 1 30 29
f 1 29 41
f 1 41 52
f 1 52 57
f 1 57 48
f 1 48 47
f 1 47 46
f 1 46 45
f 1 45 33
f 1 33 22
f 1 22 15
f 1 15 9
f 1 9 3
f 1 3 10
f 1 10 18
f 1 18 26
f 1 26 39
f 1 39 32
f 1 32 21
f 1 21 13
f 1 13 11
f 1 11 4
f 1 4 2
f 2 4 6
f 2 6 7
f 2 7 8
f 2 8 5
f 3 9 17
f 3 17 10
f 4 11 6
f 5 8 12
f 6 13 21
f 6 21 31
f 6 31 42
f 6 42 55
f 6 55 59
f 6 59 63
f 6 63 62
f 6 62 61
f 6 61 65
f 6 65 64
f 6 64 58
f 6 58 54
f 6 54 53
f 6 53 50
f 6 50 40
f 6 40 28
f 6 28 20
f 6 20 14
f 6 14 8
f 6 8 7
f 6 11 13
f 8 14 12
f 9 15 16
f 9 16 17
f 10 17 25
f 10 25 18
f 12 14 20
f 12 20 19
f 15 22 16
f 16 22 23
f 16 23 24
f 16 24 25
f 16 25 17
f 18 25 26
f 19 20 27
f 20 28 29
f 20 29 30
f 20 30 27
f 21 32 31
f 22 33 34
f 22 34 23
f 23 34 24
f 24 35 25
f 24 34 36
f 24 36 35
f 25 35 26
f 26 36 37
f 26 37 38
f 26 38 39
f 26 35 36
f 28 40 41
f 28 41 29
f 31 32 43
f 31 43 37
f 31 37 44
f 31 44 42
f 32 39 43
f 33 45 34
f 34 45 36
f 36 45 46
f 36 46 47
f 36 47 48
f 36 48 49
f 36 49 57
f 36 57 52
f 36 52 51
f 36 51 54
f 36 54 58
f 36 58 60
f 36 60 56
f 36 56 44
f 36 44 37
f 37 43 39
f 37 39 38
f 40 50 41
f 41 51 52
f 41 50 53
f 41 53 54
f 41 54 51
f 42 44 55
f 44 56 55
f 48 57 49
f 55 56 59
f 56 60 61
f 56 61 62
f 56 62 63
f 56 63 59
f 58 64 60
f 60 64 65
f 60 65 61

