# https://github.com/mikedh/trimesh
v -1.37154359 0.18263166 -0.93863092
v -1.35261241 0.18263166 -0.93863092
v -1.37149450 0.18266178 -0.88701870
v -1.37166638 0.21136095 -0.73218219
v -1.37185053 0.21136095 -0.96021793
v -1.37154359 0.18264673 -0.96021793
v -1.35260011 0.18266178 -0.88701870
v -1.35264924 0.18264673 -0.96021793
v -1.32662192 0.19020547 -0.78383901
v -1.35241596 0.18272200 -0.78383901
v -1.37137170 0.18272200 -0.78383901
v -1.37117529 0.18279729 -0.73224909
v -1.37117529 0.18284247 -0.73218219
v -1.36448432 0.23741004 -0.73218219
v -1.36428787 0.23730465 -0.96021793
v -1.36448432 0.23741004 -0.73224909
v -1.32685516 0.19050662 -0.96021793
v -1.32680607 0.19041628 -0.93863092
v -1.32679377 0.19028076 -0.88701870
v -1.32695339 0.19047650 -0.73224909
v -1.32700248 0.19046145 -0.73218219
v -1.35275973 0.18279729 -0.73218219
v -1.28659874 0.21482413 -0.96021793
v -1.28659874 0.21491448 -0.93863092
v -1.29228301 0.33645685 -0.73218219
v -1.30475649 0.33645685 -0.73224909
v -1.30108565 0.33645685 -0.96021793
v -1.28831754 0.21599860 -0.78383901
v -1.28974166 0.21626963 -0.73218219
v -1.25973657 0.23569353 -0.96021793
v -1.25987162 0.23585915 -0.93863092
v -1.25186701 0.31448828 -0.73218219
v -1.25378222 0.33645685 -0.73224909
v -1.25019734 0.33645685 -0.96021793
v -1.26038727 0.23656685 -0.89840371
v -1.26393532 0.24561628 -0.73224909
v -1.26398445 0.24558616 -0.73218219
v -1.26091519 0.23745521 -0.86400310
v -1.26252346 0.24185194 -0.78383901
v -1.25627448 0.24719727 -0.96021793
v -1.25650772 0.27140939 -0.73218219
v -1.25185474 0.31454850 -0.73224909
v -1.25282461 0.33645685 -0.78383901
v -1.25054107 0.31454850 -0.78383901
v -1.24813477 0.31454850 -0.88701870
v -1.24642827 0.31454850 -0.96021793
v -1.25035692 0.33645685 -0.93863092
v -1.25191610 0.26294720 -0.96021793
v -1.25237036 0.26294720 -0.93863092
v -1.25564834 0.26763002 -0.78383901
v -1.25518182 0.25797829 -0.88353627
v -1.25117951 0.33645685 -0.88701870
v -1.24959576 0.28453935 -0.96021793
v -1.25486261 0.26479925 -0.83545123
f 1 2 7
f 1 7 3
f 1 3 4
f 1 4 5
f 1 5 6
f 1 6 8
f 1 8 2
f 2 8 9
f 2 9 10
f 2 10 7
f 3 7 10
f 3 10 11
f 3 11 4
f 4 11 12
f 4 12 13
f 4 13 22
f 4 22 21
f 4 21 29
f 4 29 37
f 4 37 41
f 4 41 32
f 4 32 25
f 4 25 14
f 4 14 5
f 5 15 27
f 5 27 34
f 5 34 46
f 5 46 53
f 5 53 48
f 5 48 40
f 5 40 30
f 5 30 23
f 5 23 17
f 5 17 8
f 5 8 6
f 5 14 16
f 5 16 15
f 8 17 18
f 8 18 19
f 8 19 9
f 9 20 21
f 9 21 22
f 9 22 10
f 9 19 23
f 9 23 24
f 9 24 20
f 10 22 11
f 11 22 12
f 12 22 13
f 14 25 26
f 14 26 16
f 15 16 26
f 15 26 27
f 17 23 18
f 18 23 19
f 20 28 29
f 20 29 21
f 20 24 28
f 23 30 24
f 24 30 31
f 24 31 28
f 25 32 33
f 25 33 43
f 25 43 52
f 25 52 47
f 25 47 34
f 25 34 27
f 25 27 26
f 28 31 35
f 28 35 29
f 29 36 37
f 29 35 38
f 29 38 39
f 29 39 36
f 30 40 31
f 31 40 35
f 32 41 42
f 32 42 33
f 33 42 44
f 33 44 45
f 33 45 46
f 33 46 43
f 34 47 46
f 35 40 48
f 35 48 49
f 35 49 38
f 36 41 37
f 36 39 41
f 38 50 39
f 38 49 51
f 38 51 50
f 39 50 41
f 41 50 44
f 41 44 42
f 43 46 52
f 44 50 49
f 44 49 45
f 45 49 46
f 46 47 52
f 46 49 53
f 48 53 49
f 49 50 54
f 49 54 51
f 50 51 54

