# https://github.com/mikedh/trimesh
v -0.51342883 0.36609575 -5.61402251
v -0.51342883 0.21136785 -5.55848607
v -0.51342883 0.36609575 -5.67918338
v -1.29438676 0.36609575 -5.63093672
v -0.51342883 0.17847165 -5.58282676
v -1.29438676 0.25175800 -5.59580428
v -1.29438676 0.24560490 -5.59549381
v -1.29438676 0.21136785 -5.59376766
v -1.29438676 0.20732700 -5.59566757
v -1.29438676 0.18482680 -5.60629800
v -0.51342883 0.31536469 -5.67936945
v -0.56426948 0.36609575 -5.68402673
v -1.29438676 0.36609575 -5.68534306
v -0.56426948 0.18012471 -5.61822000
v -0.51342883 0.18038187 -5.61668008
v -1.29438676 0.18482680 -5.60958898
v -0.51342883 0.31455651 -5.67936945
v -0.56426948 0.31455651 -5.68380314
v -0.61587463 0.36609575 -5.68468489
v -1.29438676 0.31455651 -5.68346791
v -1.18337833 0.36609575 -5.68530584
v -0.56426948 0.20102694 -5.64400112
v -0.51342883 0.18071249 -5.61708990
v -1.29438676 0.20765762 -5.63538255
v -0.51342883 0.26378872 -5.67467526
v -0.71900849 0.36609575 -5.68492079
v -0.66747977 0.36609575 -5.68484636
v -0.56426948 0.26296219 -5.67696038
v -0.97695771 0.36609575 -5.68523111
v -1.29438676 0.26296219 -5.67256422
v -0.56426948 0.22683330 -5.66579589
v -0.51342883 0.22885372 -5.66490183
v -0.51342883 0.20304738 -5.64247366
v -1.29438676 0.23346396 -5.66240573
v -0.51342883 0.26296219 -5.67456362
v -0.51342883 0.22942311 -5.66507560
v -1.29438676 0.23796400 -5.66395795
f 1 2 5
f 1 5 15
f 1 15 23
f 1 23 33
f 1 33 32
f 1 32 36
f 1 36 35
f 1 35 25
f 1 25 17
f 1 17 11
f 1 11 3
f 1 3 12
f 1 12 19
f 1 19 27
f 1 27 26
f 1 26 29
f 1 29 21
f 1 21 13
f 1 13 4
f 1 4 2
f 2 4 6
f 2 6 7
f 2 7 8
f 2 8 9
f 2 9 10
f 2 10 5
f 3 11 12
f 4 13 20
f 4 20 30
f 4 30 37
f 4 37 34
f 4 34 24
f 4 24 16
f 4 16 10
f 4 10 9
f 4 9 8
f 4 8 7
f 4 7 6
f 5 14 15
f 5 10 16
f 5 16 14
f 11 17 12
f 12 18 19
f 12 17 18
f 13 21 18
f 13 18 20
f 14 22 23
f 14 23 15
f 14 16 22
f 16 24 22
f 17 25 18
f 18 26 27
f 18 27 19
f 18 25 28
f 18 28 20
f 18 21 29
f 18 29 26
f 20 28 30
f 22 31 32
f 22 32 33
f 22 33 23
f 22 24 34
f 22 34 31
f 25 35 28
f 28 35 36
f 28 36 32
f 28 32 31
f 28 31 30
f 30 31 37
f 31 34 37

