# https://github.com/mikedh/trimesh
v -2.10360491 0.66443363 -1.00568370
v -2.10360491 0.66851949 -1.00381270
v -2.10360491 0.66443363 -0.83350134
v -2.16377907 0.66443363 -1.00285190
v -2.10360491 0.67501669 -1.00052588
v -2.16377907 0.67575349 -0.99728949
v -2.11217842 0.67575349 -0.99978421
v -2.42917650 0.66443363 -0.83350134
v -2.10360491 0.78660785 -0.83350134
v -2.21537968 0.66443363 -0.99953125
v -2.10360491 0.70756970 -0.98034930
v -2.11217842 0.71489746 -0.97552855
v -2.21537968 0.67575349 -0.99275523
v -2.16377907 0.71314256 -0.97406214
v -2.40540002 0.72953962 -0.83350134
v -2.39708147 0.70475647 -0.86326866
v -2.38379086 0.66443363 -0.90766691
v -2.10360491 0.78664802 -0.83543969
v -2.21636773 0.79666846 -0.83350134
v -2.26806395 0.66443363 -0.99160898
v -2.10360491 0.71492426 -0.97557915
v -2.11217842 0.74068535 -0.94847493
v -2.16377907 0.73893043 -0.94732883
v -2.21537968 0.70988724 -0.97129770
v -2.21537968 0.73567513 -0.94532297
v -2.39599780 0.75374674 -0.83350134
v -2.35864395 0.66443363 -0.94663761
v -2.10360491 0.78478594 -0.84405303
v -2.26694846 0.80052660 -0.83350134
v -2.10360491 0.77424305 -0.88705222
v -2.31297147 0.66443363 -0.97477013
v -2.28725086 0.69925059 -0.96278554
v -2.25289292 0.70558703 -0.96769056
v -2.10360491 0.74071213 -0.94852552
v -2.11217842 0.75901147 -0.92268551
v -2.21537968 0.75799336 -0.91953355
v -2.16377907 0.75883732 -0.92152249
v -2.25400846 0.75567579 -0.91611171
v -2.37065964 0.78025799 -0.83350134
v -2.35402250 0.76120846 -0.86933684
v -2.35029349 0.70819931 -0.91845465
v -2.31854906 0.68833262 -0.95449252
v -2.31854906 0.66443363 -0.97261249
v -2.28521105 0.80127680 -0.83350134
v -2.10360491 0.77181834 -0.89303613
v -2.31854906 0.71871541 -0.92870310
v -2.31854906 0.74450328 -0.90512175
v -2.28839826 0.75219276 -0.91166187
v -2.10360491 0.75902487 -0.92271918
v -2.21537968 0.77626591 -0.88705222
v -2.31854906 0.79389544 -0.84385082
v -2.31854906 0.79980320 -0.83350134
v -2.37034093 0.78040534 -0.83350134
v -2.33046918 0.79854396 -0.83350134
v -2.31854906 0.76809418 -0.87933232
v -2.16377907 0.77577025 -0.88705222
v -2.26694846 0.79725788 -0.84197982
f 1 2 5
f 1 5 11
f 1 11 21
f 1 21 34
f 1 34 49
f 1 49 45
f 1 45 30
f 1 30 28
f 1 28 18
f 1 18 9
f 1 9 3
f 1 3 8
f 1 8 17
f 1 17 27
f 1 27 43
f 1 43 31
f 1 31 20
f 1 20 10
f 1 10 4
f 1 4 2
f 2 4 6
f 2 6 7
f 2 7 5
f 3 9 19
f 3 19 29
f 3 29 44
f 3 44 52
f 3 52 54
f 3 54 53
f 3 53 39
f 3 39 26
f 3 26 15
f 3 15 8
f 4 10 6
f 5 7 12
f 5 12 11
f 6 10 13
f 6 13 14
f 6 14 12
f 6 12 7
f 8 15 16
f 8 16 17
f 9 18 19
f 10 20 13
f 11 12 21
f 12 22 34
f 12 34 21
f 12 14 23
f 12 23 22
f 13 20 24
f 13 24 14
f 14 24 25
f 14 25 23
f 15 26 16
f 16 26 27
f 16 27 17
f 18 28 19
f 19 28 30
f 19 30 29
f 20 31 32
f 20 32 33
f 20 33 24
f 22 35 34
f 22 23 36
f 22 36 37
f 22 37 35
f 23 25 36
f 24 33 25
f 25 33 38
f 25 38 36
f 26 39 40
f 26 40 41
f 26 41 27
f 27 41 42
f 27 42 43
f 29 30 44
f 30 45 44
f 31 43 32
f 32 43 42
f 32 42 46
f 32 46 47
f 32 47 48
f 32 48 33
f 33 48 38
f 34 35 49
f 35 37 50
f 35 50 49
f 36 38 51
f 36 51 52
f 36 52 50
f 36 50 37
f 38 48 51
f 39 53 40
f 40 54 55
f 40 55 48
f 40 48 47
f 40 47 46
f 40 46 41
f 40 53 54
f 41 46 42
f 44 45 56
f 44 56 57
f 44 57 50
f 44 50 52
f 45 49 56
f 48 55 54
f 48 54 51
f 49 50 57
f 49 57 56
f 51 54 52

