# https://github.com/mikedh/trimesh
v -0.87354167 0.51435971 -4.78130367
v -0.87354167 0.51383344 -4.78130367
v -0.87354167 0.56205734 -4.78150573
v -0.87383008 0.56207018 -4.78130367
v -0.87383008 0.51383344 -4.78130367
v -0.87354167 0.47578828 -5.06659785
v -0.87354167 0.58458409 -5.11818792
v -0.90106470 0.56287884 -4.78130367
v -1.23496722 0.51460359 -4.78130367
v -1.28659355 0.48296346 -5.01500792
v -1.28659355 0.47603216 -5.06659785
v -1.18338206 0.45707376 -5.46935034
v -1.13179695 0.45717645 -5.46935034
v -0.87383008 0.45851136 -5.46935034
v -0.87354167 0.45856270 -5.46908092
v -1.02862668 0.58820376 -5.11818792
v -0.87354167 0.58459693 -5.11845734
v -1.08021183 0.56312271 -4.78130367
v -1.29442197 0.51478328 -4.78130367
v -1.29442197 0.48307899 -5.01500792
v -1.29442197 0.47616052 -5.06659785
v -1.29442197 0.45794659 -5.46935034
v -1.27658142 0.45774122 -5.46935034
v -0.87354167 0.52035400 -5.46935034
v -0.87354167 0.58227365 -5.16971064
v -1.02862668 0.58081037 -5.16971064
v -1.08021183 0.58015575 -5.16971064
v -1.29442197 0.55965706 -5.27289064
v -1.08021183 0.58552110 -5.11818792
v -1.29442197 0.56278898 -4.78130367
v -1.28659355 0.56289167 -4.78130367
v -1.21061672 0.56313555 -4.78130367
v -1.18338206 0.56319973 -4.78130367
v -1.29442197 0.52217667 -5.46935034
v -0.87354167 0.52203548 -5.46935034
v -0.92541523 0.52222802 -5.46935034
v -1.13179695 0.52269011 -5.46935034
v -1.18338206 0.52276712 -5.46935034
v -1.29442197 0.56417525 -5.22130056
v -1.29442197 0.56479136 -5.16971064
v -1.29442197 0.56520211 -5.11818792
f 1 2 6
f 1 6 15
f 1 15 24
f 1 24 35
f 1 35 25
f 1 25 17
f 1 17 7
f 1 7 3
f 1 3 4
f 1 4 8
f 1 8 18
f 1 18 33
f 1 33 32
f 1 32 31
f 1 31 30
f 1 30 19
f 1 19 9
f 1 9 5
f 1 5 2
f 2 5 6
f 3 7 4
f 4 7 8
f 5 9 10
f 5 10 11
f 5 11 6
f 6 11 12
f 6 12 13
f 6 13 14
f 6 14 15
f 7 16 8
f 7 17 16
f 8 16 18
f 9 19 10
f 10 20 11
f 10 19 20
f 11 20 21
f 11 21 22
f 11 22 23
f 11 23 12
f 12 23 22
f 12 22 34
f 12 34 38
f 12 38 37
f 12 37 36
f 12 36 35
f 12 35 24
f 12 24 14
f 12 14 13
f 14 24 15
f 16 17 25
f 16 25 26
f 16 26 27
f 16 27 28
f 16 28 29
f 16 29 30
f 16 30 31
f 16 31 32
f 16 32 33
f 16 33 18
f 19 30 41
f 19 41 40
f 19 40 39
f 19 39 28
f 19 28 34
f 19 34 22
f 19 22 21
f 19 21 20
f 25 28 26
f 25 35 36
f 25 36 37
f 25 37 38
f 25 38 34
f 25 34 28
f 26 28 27
f 28 39 29
f 29 39 40
f 29 40 41
f 29 41 30

