# https://github.com/mikedh/trimesh
v -0.55899440 0.77794130 -4.07187574
v -0.54688241 0.77718153 -4.08544399
v -0.53726937 0.81527524 -4.10214829
v -0.55899440 0.82981629 -4.09021922
v -0.55899440 0.61421216 -4.09788091
v -0.53726937 0.79319987 -4.10214829
v -0.53726937 0.81527524 -4.11453169
v -0.55899440 0.82981629 -4.09167133
v -0.55899440 0.61421216 -4.16288054
v -0.55428784 0.61421216 -4.12782384
v -0.53726937 0.79319987 -4.11453169
v -0.55277990 0.61421216 -4.16288054
v -0.55292245 0.62415240 -4.16288054
v -0.55690804 0.72733257 -4.16288054
v -0.55899440 0.77724485 -4.15407844
v -0.55899440 0.82694609 -4.12727148
v -0.55899440 0.73486690 -4.16288054
f 1 2 3
f 1 3 4
f 1 4 8
f 1 8 16
f 1 16 15
f 1 15 17
f 1 17 9
f 1 9 5
f 1 5 2
f 2 6 3
f 2 5 6
f 3 6 11
f 3 11 7
f 3 7 8
f 3 8 4
f 5 9 12
f 5 12 10
f 5 10 6
f 6 10 12
f 6 12 11
f 7 11 12
f 7 12 13
f 7 13 14
f 7 14 15
f 7 15 16
f 7 16 8
f 9 17 14
f 9 14 13
f 9 13 12
f 14 17 15

