# https://github.com/mikedh/trimesh
v -2.10357304 0.54055746 -1.60900142
v -2.10357304 0.53805889 -1.50610591
v -2.10357304 0.59438969 -1.60900142
v -1.43041441 0.50986192 -1.60900142
v -2.10357304 0.60028886 -1.50610591
v -1.43041441 0.50815711 -1.50610591
v -2.10357304 0.59892682 -1.59169616
v -2.06054521 0.59876445 -1.58900661
v -2.01909874 0.59855699 -1.58622648
v -2.00196668 0.59158442 -1.60900142
v -1.43041441 0.55889542 -1.60900142
v -2.06074285 0.60029787 -1.50610591
v -2.10357304 0.60029787 -1.50622678
v -1.43041441 0.56041982 -1.50610591
v -2.10357304 0.60025278 -1.55782070
v -2.06054521 0.60009041 -1.55782070
v -2.00473416 0.59942292 -1.56267589
v -1.98470282 0.59815108 -1.58311389
v -1.59620014 0.57563680 -1.60900142
v -1.44141848 0.56073553 -1.60900142
v -1.43041441 0.56033864 -1.55782070
v -2.00914897 0.59998217 -1.50610591
v -2.06054521 0.60030690 -1.50622678
v -1.43041441 0.56042884 -1.50622678
v -1.44141848 0.56202541 -1.50622678
v -1.44155027 0.56203443 -1.50610591
v -2.00895129 0.59998217 -1.50622678
v -1.95735739 0.59889074 -1.54542076
v -1.93080270 0.59837659 -1.53318214
v -1.54506751 0.57267820 -1.60900142
v -1.44141848 0.56215169 -1.55782070
v -1.44181384 0.56078965 -1.60900142
v -1.96276058 0.59883661 -1.50610591
v -1.49301236 0.56816812 -1.55782070
v -1.49301236 0.56728416 -1.50622678
v -1.49314415 0.56729317 -1.50610591
v -1.95999310 0.59889074 -1.51085023
v -1.93080270 0.59837659 -1.53112722
v -1.54460626 0.57284958 -1.55782070
v -1.54460626 0.57265113 -1.60900142
v -1.49301236 0.56706767 -1.60900142
v -1.54473805 0.57177618 -1.50610591
f 1 2 5
f 1 5 13
f 1 13 15
f 1 15 7
f 1 7 3
f 1 3 10
f 1 10 19
f 1 19 30
f 1 30 40
f 1 40 41
f 1 41 32
f 1 32 20
f 1 20 11
f 1 11 4
f 1 4 2
f 2 4 6
f 2 6 14
f 2 14 26
f 2 26 36
f 2 36 42
f 2 42 33
f 2 33 22
f 2 22 12
f 2 12 5
f 3 7 8
f 3 8 9
f 3 9 10
f 4 11 21
f 4 21 24
f 4 24 14
f 4 14 6
f 5 12 13
f 7 15 16
f 7 16 8
f 8 16 9
f 9 16 17
f 9 17 18
f 9 18 10
f 10 18 19
f 11 20 21
f 12 22 23
f 12 23 13
f 13 23 15
f 14 24 25
f 14 25 26
f 15 23 16
f 16 23 27
f 16 27 17
f 17 27 28
f 17 28 18
f 18 28 29
f 18 29 19
f 19 29 30
f 20 31 21
f 20 32 31
f 21 31 24
f 22 27 23
f 22 33 27
f 24 31 25
f 25 31 34
f 25 34 35
f 25 35 36
f 25 36 26
f 27 33 37
f 27 37 38
f 27 38 29
f 27 29 28
f 29 38 39
f 29 39 40
f 29 40 30
f 31 32 41
f 31 41 34
f 33 38 37
f 33 42 38
f 34 41 40
f 34 40 39
f 34 39 35
f 35 39 36
f 36 39 42
f 38 42 39

