# https://github.com/mikedh/trimesh
v -2.92262779 0.33070123 -0.75747061
v -2.92159364 0.33919044 -0.75747061
v -2.87200750 0.33070123 -0.75747061
v -2.92223889 0.33070123 -0.73221695
v -2.91299345 0.39502079 -0.59975480
v -2.91848243 0.36238126 -0.75747061
v -2.91835864 0.36280409 -0.73221695
v -2.83233858 0.39173570 -0.75747061
v -2.83233858 0.33070123 -0.58446094
v -2.92188535 0.33070123 -0.71669550
v -2.89755189 0.41442237 -0.58051749
v -2.87208708 0.45231480 -0.57745872
v -2.89802921 0.42047215 -0.62902788
v -2.91291387 0.39469554 -0.62902788
v -2.91627266 0.36617050 -0.62902788
v -2.91395686 0.36617050 -0.59684765
v -2.90414575 0.36617050 -0.57103777
v -2.87456197 0.41773999 -0.53678478
v -2.90916618 0.38817413 -0.75747061
v -2.83233858 0.48160419 -0.75747061
v -2.83233858 0.33070123 -0.49995327
v -2.91983474 0.33070123 -0.66449431
v -2.86733177 0.44886708 -0.54484868
v -2.83956885 0.49684247 -0.57745872
v -2.83796012 0.49684247 -0.65857914
v -2.86897580 0.45333936 -0.73221695
v -2.86821568 0.45210338 -0.75747061
v -2.87923778 0.43592185 -0.75747061
v -2.89121444 0.41773999 -0.75747061
v -2.90038922 0.40305464 -0.75747061
v -2.83909153 0.49684247 -0.60660539
v -2.91634340 0.33070123 -0.61896688
v -2.91378009 0.33070123 -0.59740386
v -2.90407502 0.33070123 -0.57161920
v -2.87827429 0.33070123 -0.53200694
v -2.87834503 0.36617050 -0.53172892
v -2.83233858 0.47264336 -0.53349842
v -2.84834581 0.36617050 -0.50591904
v -2.83396500 0.41559329 -0.51287082
v -2.83233858 0.49684247 -0.71234762
v -2.83233858 0.35218446 -0.49952331
v -2.84736472 0.33070123 -0.50622244
v -2.83233858 0.49074391 -0.54795804
v -2.83233858 0.49684247 -0.55283692
v -2.83433622 0.49684247 -0.55844884
v -2.83295738 0.49684247 -0.71083076
v -2.86889622 0.33070123 -0.52394305
v -2.83233858 0.41386943 -0.51145515
v -2.83233858 0.36617050 -0.49924528
v -2.83233858 0.38158768 -0.50179859
f 1 2 6
f 1 6 19
f 1 19 30
f 1 30 29
f 1 29 28
f 1 28 27
f 1 27 20
f 1 20 8
f 1 8 3
f 1 3 9
f 1 9 21
f 1 21 42
f 1 42 47
f 1 47 35
f 1 35 34
f 1 34 33
f 1 33 32
f 1 32 22
f 1 22 10
f 1 10 4
f 1 4 5
f 1 5 2
f 2 5 7
f 2 7 6
f 3 8 9
f 4 10 5
f 5 11 12
f 5 12 13
f 5 13 14
f 5 14 6
f 5 6 7
f 5 10 15
f 5 15 16
f 5 16 17
f 5 17 18
f 5 18 11
f 6 14 19
f 8 20 40
f 8 40 44
f 8 44 43
f 8 43 37
f 8 37 48
f 8 48 50
f 8 50 49
f 8 49 41
f 8 41 21
f 8 21 9
f 10 22 15
f 11 18 23
f 11 23 12
f 12 24 13
f 12 23 24
f 13 25 26
f 13 26 27
f 13 27 28
f 13 28 29
f 13 29 30
f 13 30 19
f 13 19 14
f 13 24 31
f 13 31 25
f 15 22 16
f 16 32 33
f 16 33 34
f 16 34 17
f 16 22 32
f 17 35 36
f 17 36 18
f 17 34 35
f 18 37 23
f 18 36 38
f 18 38 39
f 18 39 37
f 20 27 40
f 21 41 38
f 21 38 42
f 23 37 43
f 23 43 44
f 23 44 45
f 23 45 24
f 24 45 44
f 24 44 40
f 24 40 46
f 24 46 25
f 24 25 31
f 25 46 27
f 25 27 26
f 27 46 40
f 35 47 38
f 35 38 36
f 37 39 48
f 38 48 39
f 38 47 42
f 38 41 49
f 38 49 50
f 38 50 48

