# https://github.com/mikedh/trimesh
v -2.00896915 0.77926640 -0.57744380
v -1.95737648 0.77499929 -0.62903141
v -2.06056182 0.77407966 -0.57744380
v -2.06056182 0.76705369 -0.53777418
v -1.57230379 0.75531914 -0.54873861
v -1.57230379 0.76021158 -0.56283594
v -1.57230379 0.76403726 -0.57744380
v -1.57230379 0.76617081 -0.60136484
v -1.57230379 0.76808364 -0.62903141
v -1.86272058 0.76675936 -0.67205521
v -1.91436526 0.76642831 -0.67205521
v -1.96002893 0.76381655 -0.67205521
v -1.75100582 0.76639152 -0.67205521
v -2.10352102 0.75818840 -0.61421918
v -2.10352102 0.76756868 -0.57744380
v -2.10352102 0.76366941 -0.54901111
v -2.10352102 0.76252906 -0.54240517
v -1.97292711 0.76201408 -0.67205521
v -2.00896915 0.76536153 -0.53792735
v -2.10352102 0.73394685 -0.52854620
v -2.10352102 0.72732550 -0.52565197
v -2.06056182 0.72732550 -0.52044201
v -2.00896915 0.72732550 -0.51581103
v -1.69941314 0.69859615 -0.50035186
v -1.64782047 0.69727187 -0.50050502
v -1.57230379 0.74093606 -0.53542463
v -1.57230379 0.75932873 -0.67082930
v -1.57230379 0.75881375 -0.67205521
v -2.01026937 0.75388450 -0.67205521
v -2.10346905 0.71904880 -0.67205521
v -2.10352102 0.71912238 -0.66972272
v -1.99352257 0.75774697 -0.67205521
v -1.57230379 0.70919033 -0.51111208
v -1.57230379 0.72732550 -0.52413665
v -2.10352102 0.50672382 -0.49849608
v -1.95685641 0.67663531 -0.50176491
v -1.90573181 0.69274728 -0.50089669
v -1.85413914 0.69557975 -0.50065834
v -1.80259849 0.69760295 -0.50043690
v -1.75100582 0.69863294 -0.50033479
v -1.69941314 0.67280961 -0.49812148
v -1.64782047 0.67148536 -0.49817254
v -1.59622780 0.66769646 -0.49830878
v -1.59622780 0.69351977 -0.50099880
v -1.57230379 0.42844463 -0.67205521
v -2.10352102 0.65824264 -0.67205521
v -1.57230379 0.68623628 -0.50115211
v -2.10352102 0.49046471 -0.49849608
v -1.75100582 0.67284640 -0.49817254
v -1.85413914 0.66979322 -0.49827465
v -1.90573181 0.66692396 -0.49854714
v -1.93932944 0.66004511 -0.49921115
v -1.80259849 0.67181643 -0.49824051
v -1.69941314 0.64054888 -0.49812148
v -1.64782047 0.64202029 -0.49817254
v -1.59622780 0.64374920 -0.49830878
v -1.57230379 0.50609848 -0.49853022
v -1.57230379 0.66324543 -0.49870030
v -1.69941314 0.42866534 -0.67205521
v -1.57230379 0.40346738 -0.58876591
v -2.10352102 0.40346738 -0.58750602
v -2.10352102 0.43124031 -0.67205521
v -2.10352102 0.40346738 -0.50093068
v -1.68765918 0.40346738 -0.50011351
v -2.06056182 0.49050149 -0.49847917
v -1.59622780 0.49046471 -0.49851300
v -1.57230379 0.49053828 -0.49853022
v -1.85413914 0.42895963 -0.67205521
v -1.57230379 0.40346738 -0.50108399
v -2.00896915 0.42965855 -0.67205521
v -1.95737648 0.42921713 -0.67205521
v -1.63585847 0.40346738 -0.50018163
v -1.58260152 0.40346738 -0.50089669
f 1 2 3
f 1 3 4
f 1 4 5
f 1 5 6
f 1 6 7
f 1 7 8
f 1 8 9
f 1 9 2
f 2 10 11
f 2 11 12
f 2 12 3
f 2 9 13
f 2 13 10
f 3 14 15
f 3 15 16
f 3 16 17
f 3 17 4
f 3 12 18
f 3 18 14
f 4 19 5
f 4 17 20
f 4 20 21
f 4 21 22
f 4 22 23
f 4 23 24
f 4 24 25
f 4 25 19
f 5 26 34
f 5 34 33
f 5 33 47
f 5 47 58
f 5 58 57
f 5 57 67
f 5 67 69
f 5 69 60
f 5 60 45
f 5 45 28
f 5 28 27
f 5 27 9
f 5 9 8
f 5 8 7
f 5 7 6
f 5 19 26
f 9 27 13
f 10 13 28
f 10 28 45
f 10 45 59
f 10 59 68
f 10 68 71
f 10 71 70
f 10 70 62
f 10 62 46
f 10 46 30
f 10 30 29
f 10 29 32
f 10 32 18
f 10 18 12
f 10 12 11
f 13 27 28
f 14 29 30
f 14 30 31
f 14 31 46
f 14 46 62
f 14 62 61
f 14 61 63
f 14 63 48
f 14 48 35
f 14 35 21
f 14 21 20
f 14 20 17
f 14 17 16
f 14 16 15
f 14 18 32
f 14 32 29
f 19 25 33
f 19 33 34
f 19 34 26
f 21 35 22
f 22 35 36
f 22 36 23
f 23 36 37
f 23 37 38
f 23 38 39
f 23 39 40
f 23 40 24
f 24 40 41
f 24 41 42
f 24 42 25
f 25 42 43
f 25 43 44
f 25 44 33
f 30 46 31
f 33 44 47
f 35 48 54
f 35 54 41
f 35 41 49
f 35 49 50
f 35 50 51
f 35 51 52
f 35 52 36
f 36 52 37
f 37 51 50
f 37 50 38
f 37 52 51
f 38 50 39
f 39 53 40
f 39 50 53
f 40 53 49
f 40 49 41
f 41 54 55
f 41 55 42
f 42 55 56
f 42 56 43
f 43 56 67
f 43 67 57
f 43 57 58
f 43 58 44
f 44 58 47
f 45 60 61
f 45 61 59
f 48 63 64
f 48 64 65
f 48 65 54
f 49 53 50
f 54 66 67
f 54 67 55
f 54 65 66
f 55 67 56
f 59 61 68
f 60 69 73
f 60 73 72
f 60 72 64
f 60 64 63
f 60 63 61
f 61 62 70
f 61 70 71
f 61 71 68
f 64 72 67
f 64 67 66
f 64 66 65
f 67 72 73
f 67 73 69

