# https://github.com/mikedh/trimesh
v -2.78619643 0.21280874 -0.64119192
v -2.78619643 0.18303717 -0.62489574
v -2.78619643 0.21938019 -0.63880515
v -2.10363982 0.22753260 -0.60006435
v -2.10363982 0.22322784 -0.60113925
v -2.10363982 0.20173249 -0.60637104
v -2.10363982 0.18299907 -0.60637104
v -2.47334962 0.18308478 -0.59220882
v -2.57651824 0.18311336 -0.59228771
v -2.62810255 0.18315146 -0.59249331
v -2.67975368 0.18327525 -0.59312548
v -2.78619643 0.18308478 -0.62225617
v -2.10363982 0.18299907 -0.59146593
v -2.78619643 0.23629457 -0.61967979
v -2.10363982 0.24666603 -0.57856806
v -2.57651824 0.19006576 -0.56647645
v -2.62810255 0.19008481 -0.56669773
v -2.78292229 0.19047531 -0.56856273
v -2.78292229 0.18365621 -0.59437415
v -2.78619643 0.18361812 -0.59761438
v -2.10363982 0.19120863 -0.56565451
v -2.52493393 0.19014196 -0.56644477
v -2.78619643 0.28029476 -0.56358391
v -2.10363982 0.28029476 -0.53944789
v -2.10363982 0.25043748 -0.57426877
v -2.10363982 0.21130397 -0.52585465
v -2.57651824 0.21441826 -0.52585465
v -2.31859670 0.21213254 -0.52585465
v -2.37018101 0.21250397 -0.52585465
v -2.78292229 0.21627542 -0.52838366
v -2.78619643 0.21659923 -0.52877871
v -2.78619643 0.19085625 -0.56924243
v -2.78619643 0.18981814 -0.57151848
v -2.78619643 0.18370383 -0.59464295
v -2.62810255 0.21497064 -0.52585465
v -2.67975368 0.21564684 -0.52585465
v -2.10363982 0.19452294 -0.55906333
v -2.78619643 0.28029476 -0.49462183
v -2.10363982 0.28029476 -0.47971657
v -2.10363982 0.21466588 -0.52063870
v -2.10363982 0.23146596 -0.49487464
v -2.16384377 0.23177073 -0.49534889
v -2.72866527 0.22023734 -0.52125503
v -2.70968861 0.23686598 -0.49983763
v -2.74410045 0.23941839 -0.50097573
v -2.78292229 0.24505651 -0.50258808
v -2.78619643 0.24357078 -0.50459548
v -2.26701239 0.23235167 -0.49609163
v -2.31859670 0.23268502 -0.49647115
v -2.78619643 0.27177092 -0.49591786
v -2.78292229 0.28029476 -0.49421064
v -2.10363982 0.26295183 -0.48170828
v -2.11219265 0.28029476 -0.47981130
v -2.10363982 0.23675171 -0.49263012
v -2.72866527 0.25915182 -0.49446375
v -2.16384377 0.26295183 -0.48268815
v -2.21542808 0.26295183 -0.48355760
v -2.78292229 0.27084711 -0.49564906
v -2.78619643 0.24619936 -0.50306217
v -2.72966751 0.28029476 -0.49144481
v -2.16384377 0.28029476 -0.48057003
v -2.21542808 0.28029476 -0.48140780
v -2.67975368 0.26295183 -0.49277252
f 1 2 12
f 1 12 20
f 1 20 34
f 1 34 33
f 1 33 32
f 1 32 31
f 1 31 47
f 1 47 59
f 1 59 50
f 1 50 38
f 1 38 23
f 1 23 14
f 1 14 3
f 1 3 4
f 1 4 5
f 1 5 6
f 1 6 7
f 1 7 2
f 2 8 9
f 2 9 10
f 2 10 11
f 2 11 12
f 2 7 13
f 2 13 8
f 3 14 15
f 3 15 4
f 4 15 25
f 4 25 24
f 4 24 39
f 4 39 52
f 4 52 54
f 4 54 41
f 4 41 40
f 4 40 26
f 4 26 37
f 4 37 21
f 4 21 13
f 4 13 7
f 4 7 6
f 4 6 5
f 8 13 9
f 9 13 16
f 9 16 17
f 9 17 10
f 10 17 11
f 11 18 19
f 11 19 12
f 11 17 18
f 12 19 20
f 13 21 22
f 13 22 16
f 14 23 24
f 14 24 25
f 14 25 15
f 16 22 26
f 16 26 17
f 17 27 18
f 17 26 28
f 17 28 29
f 17 29 27
f 18 30 31
f 18 31 32
f 18 32 33
f 18 33 34
f 18 34 19
f 18 27 35
f 18 35 36
f 18 36 30
f 19 34 20
f 21 37 22
f 22 37 26
f 23 38 51
f 23 51 60
f 23 60 62
f 23 62 61
f 23 61 53
f 23 53 39
f 23 39 24
f 26 40 28
f 27 29 41
f 27 41 42
f 27 42 35
f 28 40 41
f 28 41 29
f 30 43 44
f 30 44 45
f 30 45 46
f 30 46 47
f 30 47 31
f 30 36 43
f 35 42 48
f 35 48 49
f 35 49 36
f 36 44 43
f 36 49 44
f 38 50 51
f 39 53 52
f 41 54 48
f 41 48 42
f 44 55 45
f 44 49 52
f 44 52 56
f 44 56 57
f 44 57 55
f 45 58 46
f 45 55 58
f 46 58 50
f 46 50 59
f 46 59 47
f 48 54 52
f 48 52 49
f 50 58 51
f 51 58 55
f 51 55 60
f 52 53 61
f 52 61 62
f 52 62 56
f 55 57 63
f 55 63 60
f 56 62 57
f 57 62 60
f 57 60 63

