# https://github.com/mikedh/trimesh
v -2.78619643 0.41722356 -0.64157959
v -2.78619643 0.41788962 -0.73224263
v -2.47337038 0.42479572 -0.64157959
v -2.78619643 0.66777070 -0.64157959
v -2.78619643 0.42181593 -0.83350119
v -2.47337038 0.43086046 -0.73224263
v -2.47337038 0.77188781 -0.64157959
v -2.78576770 0.66847180 -0.64157959
v -2.78595146 0.49196352 -0.83350119
v -2.78619643 0.48824756 -0.83350119
v -2.47337038 0.44064114 -0.83350119
v -2.47337038 0.77038037 -0.68065532
v -2.51244304 0.77318488 -0.64157959
v -2.77771434 0.68025071 -0.64157959
v -2.71524718 0.55737851 -0.83350119
v -2.74390854 0.72733129 -0.64157959
v -2.70854113 0.75530619 -0.65784855
v -2.70780615 0.70457976 -0.70924809
v -2.65385169 0.70149481 -0.75799868
v -2.47337038 0.58461723 -0.83350119
v -2.47337038 0.76095025 -0.71719481
v -2.61563641 0.77535836 -0.64157959
v -2.67975721 0.57262798 -0.83350119
v -2.71846234 0.75863653 -0.64157959
v -2.71007213 0.76116058 -0.64157959
v -2.67975721 0.75996866 -0.66804963
v -2.64515523 0.75159021 -0.70383762
v -2.67975721 0.74135380 -0.69384321
v -2.63229435 0.72890880 -0.73320081
v -2.61949467 0.70622740 -0.76224446
v -2.59294613 0.64733289 -0.80836500
v -2.63324361 0.68088173 -0.77659720
v -2.47337038 0.62412565 -0.82617450
v -2.47337038 0.74142390 -0.74296963
v -2.61076761 0.75435965 -0.70838387
v -2.62806864 0.76263295 -0.68424339
v -2.57659444 0.76659432 -0.68065532
v -2.62816045 0.77462219 -0.64157959
v -2.55855851 0.65157469 -0.81060061
v -2.52499767 0.62412565 -0.82348802
v -2.67975721 0.76995968 -0.64157959
v -2.66799868 0.77195789 -0.64157959
v -2.57659444 0.71025888 -0.76603936
v -2.57607383 0.67155675 -0.79463213
v -2.57659444 0.73606030 -0.73626297
v -2.47337038 0.65630730 -0.81371920
v -2.47337038 0.71562250 -0.77028498
v -2.52499767 0.67958465 -0.79429398
v -2.52499767 0.65378325 -0.81187803
v -2.52499767 0.71260765 -0.76850040
v -2.47337038 0.68210870 -0.79607871
f 1 2 3
f 1 3 7
f 1 7 13
f 1 13 22
f 1 22 38
f 1 38 42
f 1 42 41
f 1 41 25
f 1 25 24
f 1 24 16
f 1 16 14
f 1 14 8
f 1 8 4
f 1 4 10
f 1 10 5
f 1 5 2
f 2 5 3
f 3 5 6
f 3 6 11
f 3 11 20
f 3 20 33
f 3 33 46
f 3 46 51
f 3 51 47
f 3 47 34
f 3 34 21
f 3 21 12
f 3 12 7
f 4 8 9
f 4 9 10
f 5 10 9
f 5 9 15
f 5 15 23
f 5 23 20
f 5 20 11
f 5 11 6
f 7 12 13
f 8 14 9
f 9 14 16
f 9 16 17
f 9 17 18
f 9 18 19
f 9 19 15
f 12 21 22
f 12 22 13
f 15 19 23
f 16 24 17
f 17 24 25
f 17 25 26
f 17 26 27
f 17 27 28
f 17 28 19
f 17 19 18
f 19 28 27
f 19 27 29
f 19 29 30
f 19 30 31
f 19 31 32
f 19 32 23
f 20 23 33
f 21 34 35
f 21 35 36
f 21 36 37
f 21 37 22
f 22 37 36
f 22 36 38
f 23 32 31
f 23 31 39
f 23 39 40
f 23 40 33
f 25 41 26
f 26 41 42
f 26 42 36
f 26 36 27
f 27 36 35
f 27 35 29
f 29 35 30
f 30 43 44
f 30 44 31
f 30 35 45
f 30 45 43
f 31 44 39
f 33 40 46
f 34 47 43
f 34 43 45
f 34 45 35
f 36 42 38
f 39 44 48
f 39 48 49
f 39 49 40
f 40 49 46
f 43 47 50
f 43 50 48
f 43 48 44
f 46 49 48
f 46 48 51
f 47 51 48
f 47 48 50

