# https://github.com/mikedh/trimesh
v -2.94169563 0.16101550 -1.17959712
v -2.89812870 0.16101550 -1.19602508
v -2.94647594 0.16101550 -1.18071154
v -2.94647594 0.15578123 -1.18100802
v -2.94647594 0.09901298 -1.19837064
v -2.93775780 0.10815608 -1.19615087
v -2.90018285 0.16101550 -1.22976153
v -2.93994443 0.05923925 -1.21210244
v -2.91033034 0.07822191 -1.21998380
v -2.91033034 0.07822191 -1.22556466
v -2.90633100 0.10815608 -1.22911444
v -2.94647594 0.16101550 -1.24389776
v -2.94647594 0.04856854 -1.21469957
v -2.94647594 0.05659964 -1.26899796
v -2.94647594 0.07357170 -1.27140641
v -2.94647594 0.09891187 -1.26949220
v -2.94647594 0.04626589 -1.23412018
v -2.94647594 0.04668147 -1.24630621
f 1 2 7
f 1 7 12
f 1 12 3
f 1 3 4
f 1 4 5
f 1 5 6
f 1 6 2
f 2 6 8
f 2 8 9
f 2 9 10
f 2 10 11
f 2 11 7
f 3 12 16
f 3 16 15
f 3 15 14
f 3 14 18
f 3 18 17
f 3 17 13
f 3 13 5
f 3 5 4
f 5 13 6
f 6 13 8
f 7 11 14
f 7 14 15
f 7 15 16
f 7 16 12
f 8 13 9
f 9 13 17
f 9 17 10
f 10 17 18
f 10 18 14
f 10 14 11

