# https://github.com/mikedh/trimesh
v -0.33469321 0.31459917 -4.67357650
v -0.33490142 0.31459917 -4.65375222
v -0.33551222 0.31459917 -4.70533246
v -0.36867662 0.39984049 -4.70533246
v -0.36853776 0.39984049 -4.69131556
v -0.35622440 0.31459917 -4.61090942
v -0.35561360 0.36614955 -4.65375222
v -0.37778312 0.39984049 -4.62030687
v -0.41634754 0.39984049 -4.51162936
v -0.40998965 0.36614955 -4.51162936
v -0.33937155 0.31459917 -4.78127737
v -0.37123085 0.39984049 -4.78127737
v -0.36956499 0.39984049 -4.65375222
v -0.40946204 0.31459917 -4.51162936
v -0.47495768 0.39984049 -4.51162936
v -0.40189638 0.31459917 -4.78127737
v -0.43121529 0.39984049 -4.78127737
v -0.46460166 0.31459917 -4.51162936
v -0.47649860 0.39984049 -4.60217199
v -0.46662844 0.31459917 -4.60217199
v -0.44688813 0.31459917 -4.68978456
v -0.47456901 0.39984049 -4.65375222
v -0.46274143 0.31459917 -4.65375222
f 1 2 6
f 1 6 14
f 1 14 18
f 1 18 20
f 1 20 23
f 1 23 21
f 1 21 16
f 1 16 11
f 1 11 3
f 1 3 4
f 1 4 5
f 1 5 2
f 2 5 7
f 2 7 8
f 2 8 9
f 2 9 10
f 2 10 6
f 3 11 12
f 3 12 4
f 4 12 17
f 4 17 22
f 4 22 19
f 4 19 15
f 4 15 9
f 4 9 8
f 4 8 13
f 4 13 5
f 5 13 7
f 6 10 14
f 7 13 8
f 9 15 18
f 9 18 14
f 9 14 10
f 11 16 17
f 11 17 12
f 15 19 20
f 15 20 18
f 16 21 17
f 17 21 23
f 17 23 22
f 19 22 20
f 20 22 23

