# https://github.com/mikedh/trimesh
v -1.98566895 0.18388799 -4.78130367
v -1.99700288 0.19819013 -4.78130367
v -1.97959367 0.18388799 -4.78130367
v -1.98513052 0.18428443 -4.75693099
v -2.03524032 0.23635454 -4.62709796
v -2.03561720 0.23583612 -4.65372823
v -2.03542877 0.23618683 -4.68593491
v -2.00670358 0.21136395 -4.78130367
v -1.98044619 0.18428443 -4.75693099
v -1.96657267 0.21136395 -4.78130367
v -1.94394966 0.21395601 -4.69618997
v -1.94394966 0.20922929 -4.68628860
v -1.94394966 0.20823820 -4.65372823
v -1.94394966 0.20822296 -4.64031783
v -1.98389213 0.18510779 -4.71811437
v -2.03524032 0.24185888 -4.62709796
v -2.00897395 0.21243127 -4.65372823
v -2.00897395 0.22591003 -4.61874696
v -1.94394966 0.31454357 -4.50341230
v -2.03561720 0.24888795 -4.65372823
v -2.03542877 0.24809510 -4.68593491
v -2.02249750 0.26294612 -4.78130367
v -2.01528255 0.23861117 -4.78130367
v -1.98211532 0.18510779 -4.71811437
v -1.94780842 0.33964091 -4.78130367
v -1.94394966 0.33964091 -4.74414630
v -1.94394966 0.22350092 -4.58885247
v -1.99607857 0.33964091 -4.61382349
v -2.00598567 0.33964091 -4.63648249
v -2.02057710 0.31454357 -4.65372823
v -2.03340069 0.27467144 -4.65372823
v -1.94394966 0.33964091 -4.50455471
v -1.94394966 0.25853961 -4.55365360
v -1.94394966 0.26062851 -4.55155916
v -2.03045727 0.26434889 -4.70402397
v -2.01227631 0.31454357 -4.78130367
v -2.00463063 0.33964091 -4.78130367
v -2.01029311 0.33964091 -4.65372823
v -2.00842655 0.33964091 -4.70532969
v -2.01754395 0.31454357 -4.70532969
f 1 2 8
f 1 8 23
f 1 23 22
f 1 22 36
f 1 36 37
f 1 37 25
f 1 25 10
f 1 10 3
f 1 3 9
f 1 9 4
f 1 4 5
f 1 5 6
f 1 6 7
f 1 7 2
f 2 7 8
f 3 10 11
f 3 11 12
f 3 12 13
f 3 13 14
f 3 14 9
f 4 9 24
f 4 24 15
f 4 15 5
f 5 16 20
f 5 20 6
f 5 15 17
f 5 17 18
f 5 18 19
f 5 19 16
f 6 20 21
f 6 21 7
f 7 21 22
f 7 22 23
f 7 23 8
f 9 14 24
f 10 25 11
f 11 25 26
f 11 26 32
f 11 32 19
f 11 19 34
f 11 34 33
f 11 33 27
f 11 27 14
f 11 14 13
f 11 13 12
f 14 27 24
f 15 24 27
f 15 27 17
f 16 28 29
f 16 29 30
f 16 30 31
f 16 31 20
f 16 19 32
f 16 32 28
f 17 27 18
f 18 27 33
f 18 33 34
f 18 34 19
f 20 31 21
f 21 31 35
f 21 35 22
f 22 35 36
f 25 37 39
f 25 39 38
f 25 38 29
f 25 29 28
f 25 28 32
f 25 32 26
f 29 38 30
f 30 38 39
f 30 39 37
f 30 37 40
f 30 40 31
f 31 40 37
f 31 37 36
f 31 36 35

