# https://github.com/mikedh/trimesh
v -0.34346463 0.26295598 -5.47934213
v -0.35556101 0.31454963 -5.46480793
v -0.34442973 0.26295598 -5.46480793
v -0.35183392 0.21136233 -5.47934213
v -0.34398039 0.26295598 -5.53094697
v -0.35579383 0.31454963 -5.47934213
v -0.35639294 0.31705944 -5.46480793
v -0.35281563 0.21136233 -5.46480793
v -0.35847277 0.20305958 -5.46480793
v -0.37486183 0.18173295 -5.47934213
v -0.37534438 0.18176007 -5.53094697
v -0.35238291 0.21136233 -5.53094697
v -0.36933771 0.21136233 -5.56684137
v -0.36477884 0.26295598 -5.57169318
v -0.37185026 0.31454963 -5.56833269
v -0.37229944 0.31705944 -5.56795456
v -0.35952091 0.31705944 -5.53300527
v -0.35817321 0.31454963 -5.53094697
v -0.35664252 0.31705944 -5.47953112
v -0.42850497 0.31705944 -5.46480793
v -0.37502821 0.18177364 -5.46480793
v -0.47188199 0.17918243 -5.53094697
v -0.51316257 0.17847696 -5.58263577
v -0.47389531 0.17961656 -5.58253074
v -0.37885510 0.18307603 -5.55997339
v -0.48166557 0.23378785 -5.66211202
v -0.44825505 0.26295598 -5.65024507
v -0.44457794 0.31454963 -5.65270242
v -0.44466114 0.31705944 -5.65261846
v -0.37299836 0.31705944 -5.56892074
v -0.35903836 0.31705944 -5.53094697
v -0.44840483 0.31705944 -5.48778539
v -0.49261378 0.21136233 -5.49927420
v -0.49361210 0.18199072 -5.49839199
v -0.42883775 0.31022190 -5.46480793
v -0.39116769 0.18177364 -5.46480793
v -0.49906963 0.17918243 -5.53094697
v -0.51342876 0.17847696 -5.58280385
v -0.51259683 0.18038986 -5.61663995
v -0.48048418 0.18256050 -5.61239740
v -0.51259683 0.20307315 -5.64245290
v -0.51259683 0.22887676 -5.66488430
v -0.51259683 0.26295598 -5.67452487
v -0.47406170 0.26295598 -5.66549356
v -0.47038451 0.31454963 -5.66742561
v -0.47046771 0.31705944 -5.66742561
v -0.44592564 0.31705944 -5.65339565
v -0.48773867 0.23822412 -5.50406296
v -0.51342876 0.31705944 -5.61829920
v -0.51342876 0.21136233 -5.55848222
v -0.41238210 0.21010063 -5.46480793
v -0.42610898 0.26216913 -5.46480793
v -0.42617556 0.26287458 -5.46480793
v -0.51342876 0.18038986 -5.61666101
v -0.51342876 0.18071545 -5.61708113
v -0.51342876 0.20304601 -5.64247397
v -0.51342876 0.22884962 -5.66490522
v -0.51342876 0.22941942 -5.66507345
v -0.51342876 0.26295598 -5.67456670
v -0.51342876 0.26376998 -5.67467188
v -0.51259683 0.31454963 -5.67929256
v -0.51259683 0.31705944 -5.67929256
v -0.47243105 0.31705944 -5.66799274
v -0.51342876 0.31705944 -5.64887984
v -0.51342876 0.31454963 -5.67935561
v -0.51342876 0.31536363 -5.67937652
v -0.51339554 0.31705944 -5.67935561
f 1 2 3
f 1 3 4
f 1 4 5
f 1 5 2
f 2 5 6
f 2 6 7
f 2 7 20
f 2 20 35
f 2 35 53
f 2 53 52
f 2 52 51
f 2 51 36
f 2 36 21
f 2 21 9
f 2 9 8
f 2 8 3
f 3 8 4
f 4 8 9
f 4 9 10
f 4 10 11
f 4 11 12
f 4 12 5
f 5 12 13
f 5 13 14
f 5 14 15
f 5 15 16
f 5 16 17
f 5 17 18
f 5 18 6
f 6 19 7
f 6 18 19
f 7 19 31
f 7 31 17
f 7 17 16
f 7 16 30
f 7 30 29
f 7 29 47
f 7 47 46
f 7 46 63
f 7 63 62
f 7 62 67
f 7 67 64
f 7 64 49
f 7 49 32
f 7 32 20
f 9 21 10
f 10 21 22
f 10 22 11
f 11 22 23
f 11 23 24
f 11 24 25
f 11 25 12
f 12 25 13
f 13 25 26
f 13 26 27
f 13 27 14
f 14 27 28
f 14 28 29
f 14 29 15
f 15 29 30
f 15 30 16
f 17 31 18
f 18 31 19
f 20 32 33
f 20 33 34
f 20 34 35
f 21 36 37
f 21 37 22
f 22 37 23
f 23 38 24
f 23 37 38
f 24 38 39
f 24 39 25
f 25 39 40
f 25 40 26
f 26 40 41
f 26 41 42
f 26 42 43
f 26 43 44
f 26 44 27
f 27 44 28
f 28 44 45
f 28 45 46
f 28 46 47
f 28 47 29
f 32 48 33
f 32 49 48
f 33 48 49
f 33 49 50
f 33 50 34
f 34 50 38
f 34 38 37
f 34 37 36
f 34 36 51
f 34 51 52
f 34 52 53
f 34 53 35
f 38 54 39
f 38 50 49
f 38 49 64
f 38 64 66
f 38 66 65
f 38 65 60
f 38 60 59
f 38 59 58
f 38 58 57
f 38 57 56
f 38 56 55
f 38 55 54
f 39 54 55
f 39 55 41
f 39 41 40
f 41 56 57
f 41 57 42
f 41 55 56
f 42 57 58
f 42 58 59
f 42 59 43
f 43 59 60
f 43 60 61
f 43 61 44
f 44 61 45
f 45 61 62
f 45 62 63
f 45 63 46
f 60 65 61
f 61 65 66
f 61 66 62
f 62 66 67
f 64 67 66

