# https://github.com/mikedh/trimesh
v -1.30108123 0.33645685 -0.96021793
v -1.37400102 0.41696427 -0.96021793
v -1.25019372 0.33645685 -0.96021793
v -1.30475327 0.33645685 -0.73224909
v -1.37400102 0.47309716 -0.96021793
v -1.37400102 0.41297463 -0.73224909
v -1.25035127 0.33645685 -0.93863092
v -1.25425358 0.36241930 -0.96021793
v -1.25527158 0.36339190 -0.83545123
v -1.25569574 0.36380873 -0.78383901
v -1.29228286 0.33645685 -0.73218219
v -1.30594092 0.34390021 -0.73218219
v -1.33818950 0.46615002 -0.96021793
v -1.37400102 0.53923392 -0.73240532
v -1.35064780 0.40312954 -0.73218219
v -1.37400102 0.43474895 -0.73218219
v -1.25117536 0.33645685 -0.88701870
v -1.25615626 0.36361024 -0.73224909
v -1.25962227 0.37742512 -0.96021793
v -1.26221571 0.38961239 -0.78383901
v -1.26207032 0.38941390 -0.73224909
v -1.26207032 0.38941390 -0.73218219
v -1.25615626 0.36353084 -0.73218219
v -1.25378095 0.33645685 -0.73224909
v -1.30468057 0.45015175 -0.96021793
v -1.37400102 0.53530384 -0.73218219
v -1.37272851 0.53732843 -0.73218219
v -1.30282637 0.45447882 -0.73218219
v -1.30286273 0.45453837 -0.73224909
v -1.25199945 0.33645685 -0.83545123
v -1.25283565 0.33645685 -0.78383901
v -1.26382756 0.38822296 -0.96021793
v -1.27833393 0.41775823 -0.73224909
v -1.27830971 0.41771853 -0.73218219
v -1.29133760 0.43127538 -0.96021793
v -1.27912169 0.41775823 -0.78383901
v -1.28190905 0.41775823 -0.96021793
f 1 2 5
f 1 5 13
f 1 13 25
f 1 25 35
f 1 35 37
f 1 37 32
f 1 32 19
f 1 19 8
f 1 8 3
f 1 3 7
f 1 7 17
f 1 17 30
f 1 30 31
f 1 31 24
f 1 24 11
f 1 11 4
f 1 4 2
f 2 4 6
f 2 6 16
f 2 16 26
f 2 26 14
f 2 14 5
f 3 8 9
f 3 9 10
f 3 10 7
f 4 11 12
f 4 12 6
f 5 14 13
f 6 12 15
f 6 15 16
f 7 10 18
f 7 18 17
f 8 19 20
f 8 20 21
f 8 21 22
f 8 22 10
f 8 10 9
f 10 22 18
f 11 23 22
f 11 22 34
f 11 34 28
f 11 28 27
f 11 27 26
f 11 26 16
f 11 16 15
f 11 15 12
f 11 24 23
f 13 14 25
f 14 26 27
f 14 27 28
f 14 28 29
f 14 29 25
f 17 18 30
f 18 22 23
f 18 23 24
f 18 24 31
f 18 31 30
f 19 32 20
f 20 33 34
f 20 34 21
f 20 32 33
f 21 34 22
f 25 29 35
f 28 34 29
f 29 34 33
f 29 33 36
f 29 36 37
f 29 37 35
f 32 37 36
f 32 36 33

