# https://github.com/mikedh/trimesh
v -1.24129467 0.28183908 -2.17707829
v -1.33796584 0.42566257 -2.17707829
v -1.21948740 0.28183908 -2.17707829
v -1.24179067 0.28183908 -2.15655580
v -1.33796584 0.49288442 -2.17707829
v -1.24384563 0.28183908 -1.86742005
v -1.33796584 0.43097319 -1.86742005
v -1.19186961 0.31457640 -2.17707829
v -1.18469497 0.28183908 -2.17704792
v -1.32705334 0.48849339 -2.17707829
v -1.33796584 0.49290741 -2.17698718
v -1.24377478 0.28183908 -1.86696471
v -1.33796584 0.43113412 -1.86696471
v -1.17775069 0.28183908 -2.14429095
v -1.20476617 0.34961268 -2.17707829
v -1.17681176 0.31457640 -2.07379811
v -1.16653702 0.28183908 -2.07379811
v -1.16837938 0.28183908 -2.08557733
v -1.32551216 0.48757380 -2.17707829
v -1.32694705 0.48847040 -2.17698718
v -1.33796584 0.51665576 -2.02249206
v -1.30696446 0.49872380 -2.06286905
v -1.16182480 0.28183908 -1.86696471
v -1.33796584 0.51058648 -1.86696471
v -1.21807020 0.37549908 -2.17707829
v -1.21801703 0.37543011 -2.17698718
v -1.20799033 0.39382185 -2.05379176
v -1.19849504 0.36844124 -2.07209803
v -1.19050554 0.36616526 -2.02218843
v -1.16969033 0.31457640 -2.02218843
v -1.16046077 0.28183908 -2.02218843
v -1.28377540 0.46152649 -2.17707829
v -1.33796584 0.51670174 -2.02218843
v -1.25948802 0.44499690 -2.16511693
v -1.27713224 0.45669865 -2.17707829
v -1.28198621 0.46028504 -2.17707829
v -1.30267740 0.50173545 -2.02218843
v -1.27688424 0.48187236 -2.02218843
v -1.16164765 0.28183908 -1.86896835
v -1.16905258 0.31457640 -1.91902973
v -1.17528826 0.31457640 -1.86696471
v -1.33796584 0.51532235 -1.97063949
v -1.30882454 0.49801113 -1.86696471
v -1.30395290 0.50095381 -1.97063949
v -1.21890278 0.37692444 -2.17707829
v -1.25307519 0.45235360 -2.07379811
v -1.22437677 0.42145546 -2.02218843
v -1.20671483 0.39568402 -2.02218843
v -1.24469594 0.42030598 -2.17707829
v -1.24595372 0.42235206 -2.17707829
v -1.24910702 0.42722587 -2.17707829
v -1.19000953 0.36616526 -1.97063949
v -1.16728107 0.31457640 -1.97063949
v -1.15842353 0.28694280 -1.97063949
v -1.15753778 0.28183908 -1.97880595
v -1.27815974 0.48021711 -1.97063949
v -1.25015220 0.45607793 -2.02218843
v -1.16083279 0.28183908 -1.87968497
v -1.15900811 0.28510362 -1.91902973
v -1.19606806 0.36972866 -1.92076018
v -1.19723727 0.36021093 -1.86696471
v -1.30825764 0.49768926 -1.86696471
v -1.22572309 0.42099567 -1.97063949
v -1.20694511 0.39520124 -1.97063949
v -1.15698860 0.28183908 -1.97063949
v -1.25149856 0.45442267 -1.97063949
v -1.28267709 0.47573411 -1.86696471
v -1.25550213 0.44991669 -1.86696471
v -1.15817553 0.28183908 -1.91902973
v -1.15794521 0.28183908 -1.92601227
v -1.20829146 0.39317815 -1.93912719
v -1.21328713 0.38598237 -1.86696471
v -1.25525413 0.44957185 -1.86696471
v -1.23378345 0.41777711 -1.86696471
f 1 2 5
f 1 5 10
f 1 10 19
f 1 19 32
f 1 32 36
f 1 36 35
f 1 35 51
f 1 51 50
f 1 50 49
f 1 49 45
f 1 45 25
f 1 25 15
f 1 15 8
f 1 8 3
f 1 3 9
f 1 9 14
f 1 14 18
f 1 18 17
f 1 17 31
f 1 31 55
f 1 55 65
f 1 65 70
f 1 70 69
f 1 69 58
f 1 58 39
f 1 39 23
f 1 23 12
f 1 12 6
f 1 6 4
f 1 4 2
f 2 4 6
f 2 6 7
f 2 7 13
f 2 13 24
f 2 24 42
f 2 42 33
f 2 33 21
f 2 21 11
f 2 11 5
f 3 8 9
f 5 11 10
f 6 12 7
f 7 12 13
f 8 14 9
f 8 15 16
f 8 16 17
f 8 17 18
f 8 18 14
f 10 11 20
f 10 20 19
f 11 21 22
f 11 22 20
f 12 23 41
f 12 41 61
f 12 61 72
f 12 72 74
f 12 74 73
f 12 73 68
f 12 68 67
f 12 67 62
f 12 62 43
f 12 43 24
f 12 24 13
f 15 25 26
f 15 26 27
f 15 27 28
f 15 28 29
f 15 29 30
f 15 30 16
f 16 30 17
f 17 30 31
f 19 20 22
f 19 22 32
f 21 33 22
f 22 34 35
f 22 35 36
f 22 36 32
f 22 33 37
f 22 37 38
f 22 38 34
f 23 39 40
f 23 40 41
f 24 43 44
f 24 44 42
f 25 45 27
f 25 27 26
f 27 46 47
f 27 47 48
f 27 48 29
f 27 29 28
f 27 45 49
f 27 49 50
f 27 50 51
f 27 51 34
f 27 34 46
f 29 48 52
f 29 52 53
f 29 53 30
f 30 53 54
f 30 54 31
f 31 54 55
f 33 42 44
f 33 44 37
f 34 51 35
f 34 38 46
f 37 44 38
f 38 44 56
f 38 56 57
f 38 57 46
f 39 58 40
f 40 59 53
f 40 53 52
f 40 52 60
f 40 60 61
f 40 61 41
f 40 58 59
f 43 62 44
f 44 62 56
f 46 57 47
f 47 57 63
f 47 63 64
f 47 64 48
f 48 64 52
f 52 64 60
f 53 59 54
f 54 59 65
f 54 65 55
f 56 66 57
f 56 62 67
f 56 67 68
f 56 68 66
f 57 66 63
f 58 69 59
f 59 69 70
f 59 70 65
f 60 64 71
f 60 71 72
f 60 72 61
f 63 66 68
f 63 68 64
f 64 68 73
f 64 73 71
f 71 73 74
f 71 74 72

