# https://github.com/mikedh/trimesh
v -2.78619651 0.33070123 -0.49000730
v -2.78619651 0.36615451 -0.49085308
v -2.82253509 0.36615451 -0.49517020
v -2.82155515 0.33070123 -0.49547068
v -2.78619651 0.33070123 -0.54492818
v -2.78619651 0.37189671 -0.49203254
v -2.82138807 0.37189671 -0.49563738
v -2.83232536 0.36615451 -0.49925359
v -2.83232536 0.34543176 -0.49965402
v -2.83232536 0.37189671 -0.50018824
v -2.83232536 0.33070123 -0.49995450
v -2.83232536 0.33070123 -0.58443864
v -2.83232536 0.37189671 -0.60366534
v -2.78619651 0.37189671 -0.56413258
f 1 2 3
f 1 3 4
f 1 4 11
f 1 11 12
f 1 12 5
f 1 5 14
f 1 14 6
f 1 6 2
f 2 6 7
f 2 7 3
f 3 8 9
f 3 9 4
f 3 7 10
f 3 10 8
f 4 9 11
f 5 12 13
f 5 13 14
f 6 14 13
f 6 13 10
f 6 10 7
f 8 10 13
f 8 13 12
f 8 12 11
f 8 11 9

