# https://github.com/mikedh/trimesh
v -2.80286467 0.21136812 -1.27142317
v -2.80757408 0.23799939 -1.27142317
v -2.80407366 0.18258208 -1.27142317
v -2.80407366 0.18260788 -1.29983587
v -2.80287874 0.21136812 -1.35142841
v -2.80756008 0.23799939 -1.35142841
v -2.87042722 0.31438367 -1.27142317
v -2.81880639 0.18258208 -1.27142317
v -2.80408773 0.18260788 -1.35142841
v -2.80483286 0.18309818 -1.40302095
v -2.80514210 0.21581957 -1.40649184
v -2.80796775 0.23771552 -1.39161410
v -2.94646663 0.31438367 -1.27142317
v -2.87191731 0.31438367 -1.35142841
v -2.93013124 0.22153548 -1.27142317
v -2.81818790 0.18260788 -1.35142841
v -2.81682421 0.18309818 -1.40302095
v -2.80664627 0.18423363 -1.43045686
v -2.80664627 0.20160074 -1.43045686
v -2.80912046 0.23599947 -1.42600917
v -2.94646663 0.23759940 -1.27142317
v -2.94646663 0.31438367 -1.44024167
v -2.87818717 0.31438367 -1.40302095
v -2.94133549 0.23254153 -1.27142317
v -2.91061883 0.23819294 -1.41887547
v -2.84262055 0.19502033 -1.40302095
v -2.81318324 0.18423363 -1.43045686
v -2.93742733 0.31438367 -1.44959037
v -2.89792449 0.31438367 -1.43591608
v -2.93907213 0.31438367 -1.44929389
v -2.87621906 0.22780621 -1.43366602
f 1 2 7
f 1 7 13
f 1 13 21
f 1 21 24
f 1 24 15
f 1 15 8
f 1 8 3
f 1 3 4
f 1 4 5
f 1 5 6
f 1 6 2
f 2 6 7
f 3 8 16
f 3 16 9
f 3 9 4
f 4 9 5
f 5 9 10
f 5 10 11
f 5 11 12
f 5 12 6
f 6 12 7
f 7 12 14
f 7 14 23
f 7 23 29
f 7 29 28
f 7 28 30
f 7 30 22
f 7 22 13
f 8 15 16
f 9 16 17
f 9 17 10
f 10 17 27
f 10 27 18
f 10 18 19
f 10 19 11
f 11 19 20
f 11 20 12
f 12 20 14
f 13 22 21
f 14 20 23
f 15 24 25
f 15 25 26
f 15 26 27
f 15 27 17
f 15 17 16
f 18 27 28
f 18 28 19
f 19 28 20
f 20 28 29
f 20 29 23
f 21 22 25
f 21 25 24
f 22 30 25
f 25 30 31
f 25 31 27
f 25 27 26
f 27 31 28
f 28 31 30

