# https://github.com/mikedh/trimesh
v -1.23504465 0.86639865 -4.09283934
v -1.18340344 0.86481863 -4.08912579
v -1.23504465 0.86639865 -4.12063886
v -1.79241170 0.86195600 -4.10008338
v -1.18340344 0.84411095 -4.06333014
v -1.17654677 0.84455709 -4.06395039
v -1.17654677 0.86440970 -4.08973813
v -1.18340344 0.86481863 -4.12063886
v -1.79241170 0.86195600 -4.12063886
v -1.79667397 0.84637877 -4.12063886
v -1.80754581 0.79485120 -4.12063886
v -1.79729169 0.82870102 -4.08419571
v -1.77943964 0.81026112 -4.05919516
v -1.75096283 0.83583903 -4.07524990
v -1.28662411 0.81329106 -4.05664262
v -1.17654677 0.81875613 -4.05860673
v -1.75096283 0.81003807 -4.05890098
v -1.17654677 0.86440970 -4.12063886
v -1.80729873 0.77890218 -4.12063886
v -1.79580917 0.77880926 -4.08187376
v -1.77943964 0.79592933 -4.05919516
v -1.70247196 0.67651624 -4.04632912
v -1.64774213 0.67651624 -4.04231348
v -1.59616267 0.67651624 -4.04108096
v -1.59542141 0.67651624 -4.04106504
v -1.54458321 0.67651624 -4.04013469
v -1.54384193 0.67651624 -4.04012670
v -1.28662411 0.77893935 -4.05112411
v -1.17654677 0.79789971 -4.05843181
v -1.33820357 0.67651624 -4.04067537
v -1.28569753 0.67651624 -4.04462743
v -1.33820357 0.77893935 -4.05145012
v -1.17654677 0.67651624 -4.12063886
v -1.80563088 0.74313774 -4.12063886
v -1.79902129 0.69568109 -4.12063886
v -1.79284412 0.72735602 -4.09338802
v -1.78574035 0.67651624 -4.09543955
v -1.75701646 0.67651624 -4.06774337
v -1.75102460 0.67651624 -4.06403782
v -1.73453153 0.67651624 -4.05478984
v -1.70617826 0.67651624 -4.04723564
v -1.49294197 0.67651624 -4.03971319
v -1.44142428 0.67651624 -4.03945877
v -1.38984482 0.67651624 -4.03940310
v -1.17654677 0.67651624 -4.06967565
v -1.27426977 0.67651624 -4.04659154
v -1.79599447 0.67651624 -4.12063886
v -1.79587093 0.67651624 -4.12024127
f 1 2 8
f 1 8 3
f 1 3 9
f 1 9 4
f 1 4 2
f 2 5 6
f 2 6 7
f 2 7 18
f 2 18 8
f 2 4 5
f 3 8 18
f 3 18 33
f 3 33 47
f 3 47 35
f 3 35 34
f 3 34 19
f 3 19 11
f 3 11 10
f 3 10 9
f 4 9 10
f 4 10 11
f 4 11 12
f 4 12 13
f 4 13 14
f 4 14 5
f 5 15 16
f 5 16 6
f 5 14 13
f 5 13 17
f 5 17 15
f 6 16 29
f 6 29 45
f 6 45 33
f 6 33 18
f 6 18 7
f 11 19 12
f 12 19 20
f 12 20 13
f 13 20 21
f 13 21 22
f 13 22 23
f 13 23 24
f 13 24 25
f 13 25 26
f 13 26 27
f 13 27 17
f 15 28 16
f 15 17 28
f 16 28 30
f 16 30 31
f 16 31 29
f 17 27 32
f 17 32 28
f 19 34 20
f 20 34 35
f 20 35 36
f 20 36 37
f 20 37 21
f 21 37 38
f 21 38 39
f 21 39 40
f 21 40 41
f 21 41 22
f 22 41 40
f 22 40 39
f 22 39 38
f 22 38 37
f 22 37 48
f 22 48 47
f 22 47 33
f 22 33 45
f 22 45 46
f 22 46 31
f 22 31 30
f 22 30 44
f 22 44 43
f 22 43 42
f 22 42 27
f 22 27 26
f 22 26 25
f 22 25 24
f 22 24 23
f 27 42 32
f 28 32 42
f 28 42 43
f 28 43 44
f 28 44 30
f 29 31 46
f 29 46 45
f 35 47 48
f 35 48 36
f 36 48 37

