# https://github.com/mikedh/trimesh
v -2.78306661 0.51987016 -1.86742358
v -2.83173508 0.50485286 -1.86742358
v -2.78306661 0.46346661 -1.86742358
v -2.78306661 0.53604628 -1.97064010
v -2.83457019 0.53278268 -1.97064010
v -2.85752328 0.49290997 -1.86742358
v -2.89118053 0.51153379 -1.96577684
v -2.91173471 0.49495564 -1.94532685
v -2.85376136 0.41653459 -1.86742358
v -2.78306661 0.46344296 -1.86757467
v -2.78306661 0.53733517 -2.02220304
v -2.83457019 0.53145831 -2.02220304
v -2.89116231 0.51024490 -2.02700587
v -2.88614642 0.46726232 -1.86742358
v -2.91624167 0.49916521 -2.01305040
v -2.91624167 0.49916521 -1.97973230
v -2.96554632 0.44668744 -1.99169421
v -2.91206179 0.44368398 -1.86742358
v -2.92903582 0.41653459 -1.86742358
v -2.83602407 0.41653459 -2.17598563
v -2.78306661 0.44531578 -2.17598563
v -2.78306661 0.52009483 -2.17592520
v -2.83457019 0.51470280 -2.17598563
v -2.87118972 0.50232239 -2.17598563
v -2.96554632 0.44668744 -2.00643508
v -2.89695969 0.48080154 -2.17598563
v -2.96870851 0.41653459 -1.97363060
v -2.96060309 0.41653459 -1.94994845
v -2.92830891 0.41775253 -1.86742358
v -2.93617797 0.41653459 -2.17598563
v -2.78306661 0.45172473 -2.17598563
v -2.78395706 0.51996477 -2.17598563
v -2.96841771 0.41776435 -2.01516483
v -2.91914944 0.45501198 -2.17598563
v -2.93536019 0.41856843 -2.17598563
v -2.93568727 0.41776435 -2.17598563
v -2.96861762 0.41653459 -1.99341597
v -2.96843586 0.41653459 -2.01543671
f 1 2 6
f 1 6 14
f 1 14 18
f 1 18 29
f 1 29 19
f 1 19 9
f 1 9 3
f 1 3 10
f 1 10 21
f 1 21 31
f 1 31 22
f 1 22 11
f 1 11 4
f 1 4 5
f 1 5 2
f 2 5 7
f 2 7 8
f 2 8 6
f 3 9 10
f 4 11 5
f 5 11 12
f 5 12 13
f 5 13 7
f 6 8 14
f 7 15 16
f 7 16 8
f 7 13 15
f 8 16 17
f 8 17 18
f 8 18 14
f 9 19 28
f 9 28 27
f 9 27 37
f 9 37 38
f 9 38 30
f 9 30 20
f 9 20 21
f 9 21 10
f 11 22 23
f 11 23 12
f 12 23 24
f 12 24 13
f 13 24 15
f 15 25 17
f 15 17 16
f 15 24 26
f 15 26 25
f 17 25 27
f 17 27 28
f 17 28 19
f 17 19 29
f 17 29 18
f 20 30 36
f 20 36 35
f 20 35 34
f 20 34 26
f 20 26 24
f 20 24 23
f 20 23 32
f 20 32 31
f 20 31 21
f 22 31 32
f 22 32 23
f 25 33 27
f 25 26 34
f 25 34 35
f 25 35 36
f 25 36 30
f 25 30 33
f 27 33 37
f 30 38 33
f 33 38 37

