# https://github.com/mikedh/trimesh
v -3.10031950 0.22273066 -1.69438254
v -3.09013334 0.22273066 -1.64987957
v -3.06887110 0.24858763 -1.57324496
v -3.03950544 0.31420703 -1.50659169
v -3.03941087 0.31456747 -1.50659169
v -3.09905100 0.22754921 -1.69438254
v -3.02778566 0.22273066 -1.69438254
v -3.05675380 0.22273066 -1.50659169
v -3.05041113 0.26298633 -1.50659169
v -3.06813282 0.29201139 -1.62559700
v -3.02316606 0.35415917 -1.50659169
v -3.07006394 0.29616596 -1.66100069
v -3.08017445 0.27471017 -1.69438254
v -3.00684543 0.22273066 -1.55782239
v -2.91053125 0.41653459 -1.69438254
v -3.00321023 0.22273066 -1.50659169
v -3.05751115 0.32194704 -1.66100069
v -3.02303350 0.35448167 -1.50659169
v -3.07046161 0.29664022 -1.69438254
v -2.99480379 0.41653459 -1.69438254
v -2.90776696 0.41653459 -1.55782239
v -2.90691504 0.41653459 -1.50659169
v -3.02670646 0.35928124 -1.55782239
v -3.02984950 0.36349272 -1.60940247
v -3.02916781 0.37113788 -1.65715889
v -3.01644463 0.39367498 -1.67180935
v -3.01644463 0.39367498 -1.69438254
v -3.05707566 0.32242131 -1.69438254
v -3.00754596 0.38028172 -1.50659169
v -3.00694008 0.40386221 -1.69438254
v -2.99414109 0.41653459 -1.65750812
v -2.92283800 0.41653459 -1.50659169
v -3.01474063 0.39166410 -1.63739828
v -2.98194799 0.41611723 -1.50659169
v -2.98172078 0.41638282 -1.50659169
v -2.99381924 0.41653459 -1.65271044
v -2.98168295 0.41653459 -1.50797030
f 1 2 3
f 1 3 4
f 1 4 5
f 1 5 6
f 1 6 13
f 1 13 19
f 1 19 28
f 1 28 27
f 1 27 30
f 1 30 20
f 1 20 15
f 1 15 7
f 1 7 14
f 1 14 16
f 1 16 8
f 1 8 2
f 2 8 3
f 3 8 9
f 3 9 4
f 4 9 8
f 4 8 16
f 4 16 22
f 4 22 32
f 4 32 35
f 4 35 34
f 4 34 29
f 4 29 18
f 4 18 11
f 4 11 5
f 5 10 6
f 5 11 10
f 6 10 12
f 6 12 13
f 7 15 14
f 10 17 12
f 10 11 18
f 10 18 17
f 12 17 19
f 12 19 13
f 14 15 16
f 15 20 31
f 15 31 36
f 15 36 37
f 15 37 32
f 15 32 22
f 15 22 21
f 15 21 16
f 16 21 22
f 17 18 23
f 17 23 24
f 17 24 25
f 17 25 26
f 17 26 27
f 17 27 28
f 17 28 19
f 18 29 23
f 20 30 26
f 20 26 31
f 23 29 24
f 24 29 33
f 24 33 26
f 24 26 25
f 26 33 34
f 26 34 35
f 26 35 36
f 26 36 31
f 26 30 27
f 29 34 33
f 32 37 35
f 35 37 36

