# https://github.com/mikedh/trimesh
v -0.83487798 0.57849104 -4.49461120
v -0.83487798 0.57849104 -4.22452923
v -0.83487798 0.58423133 -4.49416171
v -0.67286011 0.57849104 -4.48453867
v -0.83487798 0.81870769 -4.22452923
v -0.55899648 0.57849104 -4.22452923
v -0.83487798 0.58881325 -4.49347433
v -0.70054276 0.64809518 -4.47269479
v -0.66743156 0.57849104 -4.48408919
v -0.83487798 0.62413014 -4.48810768
v -0.83487798 0.82812898 -4.29257848
v -0.83366269 0.81870769 -4.22452923
v -0.61582027 0.84146291 -4.29257848
v -0.55899648 0.57849104 -4.42865054
v -0.55899648 0.73036399 -4.22452923
v -0.71825967 0.67169984 -4.46534535
v -0.66743156 0.67576695 -4.45630374
v -0.66743156 0.63926596 -4.47013042
v -0.66743156 0.61347331 -4.47668684
v -0.83487798 0.66325674 -4.48020294
v -0.83487798 0.69916568 -4.46634982
v -0.62475976 0.57849104 -4.47898688
v -0.83487798 0.82632710 -4.34418378
v -0.71898888 0.81806418 -4.22452923
v -0.56423596 0.82630138 -4.25300206
v -0.55967171 0.82977642 -4.29606814
v -0.61687356 0.82138479 -4.34732982
v -0.66743156 0.82758841 -4.34418378
v -0.71898888 0.82810326 -4.34418378
v -0.56580240 0.57849104 -4.44416907
v -0.55899648 0.78007019 -4.33432270
v -0.55899648 0.78846182 -4.24168694
v -0.56680164 0.76611849 -4.22452923
v -0.77060018 0.72732652 -4.44734163
v -0.71898888 0.72732652 -4.44120810
v -0.83487798 0.72732652 -4.45466463
v -0.67010535 0.72959175 -4.43161151
v -0.65471108 0.74830558 -4.41892155
v -0.62837874 0.71391537 -4.42769882
v -0.61776477 0.62189066 -4.46190844
v -0.60185742 0.59012605 -4.46954883
v -0.63626495 0.60317683 -4.47443970
v -0.62124881 0.57849104 -4.47843174
v -0.83487798 0.81554155 -4.37130830
v -0.68555360 0.81724047 -4.22452923
v -0.61398379 0.79456249 -4.22452923
v -0.56998859 0.77739313 -4.22452923
v -0.55899648 0.82501431 -4.25440319
v -0.67123961 0.81600488 -4.22452923
v -0.57385061 0.81772956 -4.33223418
v -0.55899648 0.82949324 -4.29567162
v -0.63477955 0.80699548 -4.37215437
v -0.66743156 0.80964683 -4.37551178
v -0.60037201 0.79883552 -4.36660250
v -0.71898888 0.81157741 -4.37889579
v -0.77060018 0.81157741 -4.37995331
v -0.83487798 0.81175760 -4.38037620
v -0.57617326 0.62415588 -4.43597354
v -0.57625430 0.72732652 -4.38587525
v -0.56717978 0.78055928 -4.34732982
v -0.59586174 0.57849104 -4.47203386
v -0.55899648 0.80035425 -4.32015241
v -0.83487798 0.73772595 -4.44953587
v -0.71898888 0.75808724 -4.42481704
v -0.68911861 0.75440625 -4.42233201
v -0.67010535 0.77453584 -4.40379961
v -0.61303852 0.72959175 -4.41207434
v -0.59399820 0.69682322 -4.41897445
v -0.61303852 0.67808365 -4.43679317
v -0.58327628 0.76444531 -4.37654285
v -0.71898888 0.78390565 -4.40469844
v -0.83487798 0.76568088 -4.43348851
v -0.83487798 0.79026370 -4.40617885
v -0.58405946 0.66243301 -4.42719643
v -0.77060018 0.76254045 -4.42809525
f 1 2 5
f 1 5 11
f 1 11 23
f 1 23 44
f 1 44 57
f 1 57 73
f 1 73 72
f 1 72 63
f 1 63 36
f 1 36 21
f 1 21 20
f 1 20 10
f 1 10 7
f 1 7 3
f 1 3 4
f 1 4 9
f 1 9 22
f 1 22 43
f 1 43 61
f 1 61 30
f 1 30 14
f 1 14 6
f 1 6 2
f 2 6 15
f 2 15 33
f 2 33 47
f 2 47 46
f 2 46 49
f 2 49 45
f 2 45 24
f 2 24 12
f 2 12 5
f 3 7 4
f 4 8 9
f 4 7 10
f 4 10 8
f 5 12 13
f 5 13 11
f 6 14 31
f 6 31 62
f 6 62 51
f 6 51 48
f 6 48 32
f 6 32 15
f 8 16 17
f 8 17 18
f 8 18 19
f 8 19 9
f 8 10 20
f 8 20 21
f 8 21 16
f 9 19 22
f 11 13 23
f 12 24 13
f 13 25 26
f 13 26 27
f 13 27 28
f 13 28 29
f 13 29 23
f 13 24 25
f 14 30 31
f 15 32 33
f 16 34 35
f 16 35 17
f 16 21 36
f 16 36 34
f 17 35 37
f 17 37 38
f 17 38 39
f 17 39 40
f 17 40 41
f 17 41 18
f 18 41 42
f 18 42 43
f 18 43 22
f 18 22 19
f 23 29 44
f 24 45 25
f 25 46 47
f 25 47 48
f 25 48 26
f 25 45 49
f 25 49 46
f 26 50 27
f 26 48 51
f 26 51 50
f 27 52 53
f 27 53 28
f 27 50 54
f 27 54 52
f 28 53 55
f 28 55 29
f 29 55 56
f 29 56 57
f 29 57 44
f 30 58 59
f 30 59 60
f 30 60 31
f 30 61 58
f 31 60 62
f 32 48 47
f 32 47 33
f 34 36 63
f 34 63 35
f 35 63 64
f 35 64 65
f 35 65 37
f 37 65 38
f 38 52 54
f 38 54 39
f 38 65 66
f 38 66 52
f 39 54 67
f 39 67 68
f 39 68 69
f 39 69 41
f 39 41 40
f 41 69 61
f 41 61 42
f 42 61 43
f 50 51 62
f 50 62 60
f 50 60 70
f 50 70 54
f 52 66 71
f 52 71 53
f 53 71 72
f 53 72 55
f 54 70 67
f 55 72 73
f 55 73 56
f 56 73 57
f 58 74 59
f 58 61 74
f 59 74 70
f 59 70 60
f 61 69 68
f 61 68 74
f 63 72 75
f 63 75 64
f 64 75 71
f 64 71 66
f 64 66 65
f 67 70 68
f 68 70 74
f 71 75 72

