# https://github.com/mikedh/trimesh
v -1.93676856 0.37937048 -4.12062486
v -1.88085123 0.37937048 -4.12062486
v -1.93649170 0.37937048 -4.11551033
v -1.93269300 0.39678869 -4.08615405
v -1.93384478 0.40174160 -4.12062486
v -1.84143554 0.42380836 -4.12062486
v -1.82362705 0.37937048 -4.03719418
v -1.93324675 0.37937048 -4.07298224
v -1.93159659 0.39208481 -4.06028690
v -1.92898288 0.41896612 -4.12062486
v -1.92510667 0.42257705 -4.08615405
v -1.82362705 0.44494817 -4.12062486
v -1.82362705 0.37937048 -3.97748669
v -1.93169625 0.37937048 -4.06007668
v -1.91656790 0.41267122 -4.03968843
v -1.91769754 0.37937048 -4.03565279
v -1.92645781 0.42752996 -4.12062486
v -1.89374246 0.45719211 -4.03457382
v -1.89931313 0.46314114 -4.08615405
v -1.91789689 0.44100521 -4.12062486
v -1.82362705 0.51938023 -4.12062486
v -1.82362705 0.41776249 -3.98086378
v -1.85419387 0.41776249 -3.98400259
v -1.85419387 0.37937048 -3.98090576
v -1.91116332 0.37937048 -4.02515738
v -1.89082974 0.41776249 -3.99930429
v -1.88620042 0.44973507 -4.00343797
v -1.82362705 0.51647489 -4.07348670
v -1.82362705 0.52068072 -4.08615405
v -1.86825903 0.48894333 -4.08615405
v -1.87109421 0.49049285 -4.12062486
v -1.88139390 0.48192901 -4.12062486
v -1.90066429 0.46469065 -4.12062486
v -1.82362705 0.44421492 -3.99088271
v -1.82362705 0.45953021 -3.99671193
v -1.85419387 0.45532439 -3.99832335
v -1.89195938 0.37937048 -3.99830936
v -1.82362705 0.50067537 -4.03443373
v -1.82362705 0.47480401 -4.01040220
f 1 2 7
f 1 7 13
f 1 13 24
f 1 24 37
f 1 37 25
f 1 25 16
f 1 16 14
f 1 14 8
f 1 8 3
f 1 3 4
f 1 4 5
f 1 5 10
f 1 10 17
f 1 17 20
f 1 20 33
f 1 33 32
f 1 32 31
f 1 31 21
f 1 21 12
f 1 12 6
f 1 6 2
f 2 6 7
f 3 8 9
f 3 9 4
f 4 10 5
f 4 9 11
f 4 11 10
f 6 12 7
f 7 12 21
f 7 21 29
f 7 29 28
f 7 28 38
f 7 38 39
f 7 39 35
f 7 35 34
f 7 34 22
f 7 22 13
f 8 14 9
f 9 15 11
f 9 14 16
f 9 16 15
f 10 11 17
f 11 15 18
f 11 18 19
f 11 19 20
f 11 20 17
f 13 22 23
f 13 23 24
f 15 16 25
f 15 25 26
f 15 26 27
f 15 27 18
f 18 27 28
f 18 28 29
f 18 29 30
f 18 30 19
f 19 30 31
f 19 31 32
f 19 32 33
f 19 33 20
f 21 31 29
f 22 34 23
f 23 34 35
f 23 35 36
f 23 36 27
f 23 27 26
f 23 26 24
f 24 26 37
f 25 37 26
f 27 36 38
f 27 38 28
f 29 31 30
f 35 39 36
f 36 39 38

