# https://github.com/mikedh/trimesh
v -2.10357304 0.43783433 -2.20507157
v -2.10357304 0.48278115 -1.86744442
v -2.10357304 0.50463717 -2.20507157
v -2.07011939 0.43740215 -2.20507157
v -1.48218633 0.47169879 -1.86744442
v -2.10357304 0.48387704 -1.86108406
v -1.48218633 0.51578126 -1.60905985
v -2.10357304 0.51576583 -2.18301438
v -1.81654055 0.50445195 -2.20507157
v -2.06853791 0.43738671 -2.20507157
v -1.75005899 0.43670757 -2.20507157
v -1.49301315 0.43843629 -2.20507157
v -1.48218633 0.43855977 -2.20507157
v -2.06056989 0.43734040 -2.20507157
v -2.10357304 0.48968061 -1.82840667
v -1.54422768 0.51778782 -1.60905985
v -1.48218633 0.52553621 -1.60905985
v -2.10357304 0.51854413 -2.17700402
v -1.80255083 0.50439021 -2.20507157
v -1.48218633 0.50232191 -2.20507157
v -2.10357304 0.54053907 -1.60905985
v -1.48218633 0.56574448 -1.60911829
v -1.49301315 0.56707189 -1.60905985
v -2.10357304 0.53904186 -2.12874659
v -1.75103218 0.55253209 -2.06496741
v -1.69939189 0.55159055 -2.06158294
v -1.48218633 0.50811005 -2.18488169
v -1.93076963 0.54677482 -2.09962875
v -2.10357304 0.59439191 -1.60905985
v -1.48218633 0.56591425 -1.62026356
v -1.54459263 0.57264395 -1.60905985
v -2.10357304 0.54773179 -2.10295486
v -2.06056989 0.54771635 -2.10242971
v -1.95735009 0.54700634 -2.10009554
v -1.75103218 0.55838197 -2.02219504
v -1.80255083 0.55257840 -2.06765158
v -1.80255083 0.55879871 -2.02219504
v -1.64781240 0.55001617 -2.05743996
v -1.48218633 0.51017834 -2.17700402
v -2.10357304 0.56048113 -2.02219504
v -2.00199553 0.59158273 -1.60905985
v -1.48218633 0.56589883 -1.71263552
v -1.54459263 0.57264395 -1.60946844
v -1.54501840 0.57267481 -1.60905985
v -2.10357304 0.55307231 -2.07856357
v -1.64781240 0.57455789 -1.71263552
v -1.69939189 0.55605127 -2.02219504
v -1.59623292 0.54830289 -2.05265505
v -2.10357304 0.55399841 -2.07377866
v -2.10357304 0.55949329 -2.03077286
v -1.48218633 0.52956476 -2.08457378
v -1.56466483 0.54717612 -2.04932894
v -1.59623292 0.57562291 -1.60905985
v -1.59623292 0.57563834 -1.60946844
v -1.59623292 0.57466593 -1.66105190
v -1.48218633 0.56220985 -1.76421898
v -1.49301315 0.56322856 -1.76421898
v -1.49301315 0.56682493 -1.71263552
v -1.59623292 0.57215001 -1.71263552
v -1.48218633 0.53167935 -2.07377866
v -1.48218633 0.53834729 -2.02219504
v -1.48218633 0.53700443 -2.03299032
f 1 2 6
f 1 6 15
f 1 15 21
f 1 21 29
f 1 29 40
f 1 40 50
f 1 50 49
f 1 49 45
f 1 45 32
f 1 32 24
f 1 24 18
f 1 18 8
f 1 8 3
f 1 3 9
f 1 9 19
f 1 19 20
f 1 20 13
f 1 13 12
f 1 12 11
f 1 11 14
f 1 14 10
f 1 10 4
f 1 4 5
f 1 5 2
f 2 5 7
f 2 7 6
f 3 8 9
f 4 10 5
f 5 11 12
f 5 12 13
f 5 13 20
f 5 20 27
f 5 27 39
f 5 39 51
f 5 51 60
f 5 60 62
f 5 62 61
f 5 61 56
f 5 56 42
f 5 42 30
f 5 30 22
f 5 22 17
f 5 17 7
f 5 10 14
f 5 14 11
f 6 7 15
f 7 16 15
f 7 17 23
f 7 23 31
f 7 31 44
f 7 44 53
f 7 53 41
f 7 41 29
f 7 29 21
f 7 21 16
f 8 18 9
f 9 18 19
f 15 16 21
f 17 22 23
f 18 24 20
f 18 20 19
f 20 25 26
f 20 26 27
f 20 24 28
f 20 28 25
f 22 30 23
f 23 30 31
f 24 32 33
f 24 33 34
f 24 34 28
f 25 35 26
f 25 28 36
f 25 36 37
f 25 37 35
f 26 35 38
f 26 38 39
f 26 39 27
f 28 34 36
f 29 41 35
f 29 35 37
f 29 37 40
f 30 42 43
f 30 43 31
f 31 43 44
f 32 45 33
f 33 45 36
f 33 36 34
f 35 46 47
f 35 47 48
f 35 48 38
f 35 41 46
f 36 45 49
f 36 49 37
f 37 49 50
f 37 50 40
f 38 48 39
f 39 48 52
f 39 52 51
f 41 53 54
f 41 54 55
f 41 55 46
f 42 56 57
f 42 57 58
f 42 58 43
f 43 58 55
f 43 55 54
f 43 54 44
f 44 54 53
f 46 55 59
f 46 59 47
f 47 59 58
f 47 58 52
f 47 52 48
f 51 52 60
f 52 58 57
f 52 57 56
f 52 56 61
f 52 61 62
f 52 62 60
f 55 58 59

