# https://github.com/mikedh/trimesh
v -1.57225179 0.42951556 -0.73224709
v -1.37400102 0.41706583 -0.85923248
v -1.37400102 0.41295681 -0.73224709
v -1.57225179 0.42951556 -0.73216005
v -1.57225179 0.43997211 -0.85923248
v -1.37400102 0.48078637 -0.85923248
v -1.38979742 0.41961097 -0.73216005
v -1.37400102 0.43475917 -0.73216005
v -1.57225179 0.72545731 -0.73216005
v -1.57225179 0.53920198 -0.85923248
v -1.44582230 0.51218668 -0.85923248
v -1.50171132 0.61043529 -0.81709890
v -1.51805109 0.70184576 -0.75833330
v -1.49771370 0.67492245 -0.76947934
v -1.48366382 0.69160385 -0.75110580
v -1.44737477 0.67421717 -0.73216005
v -1.44374585 0.67056811 -0.73216005
v -1.43906904 0.66241139 -0.73216005
v -1.41865401 0.62414225 -0.73216005
v -1.37400102 0.53926332 -0.73239625
v -1.37400102 0.53533827 -0.73216005
v -1.54469539 0.72622392 -0.73216005
v -1.57225179 0.72539597 -0.73224709
v -1.57225179 0.60083734 -0.83207629
v -1.54457897 0.53815939 -0.85923248
v -1.49266815 0.53070795 -0.85923248
v -1.54457897 0.61948128 -0.82226134
v -1.54457897 0.64527002 -0.80646279
v -1.57225179 0.64775382 -0.80815464
v -1.54457897 0.70319498 -0.75975143
v -1.54457897 0.72616258 -0.73224709
v -1.49755844 0.71864982 -0.73216005
v -1.49771370 0.71769921 -0.73324218
v -1.49507449 0.71736191 -0.73216005
v -1.57225179 0.70365494 -0.76031118
v -1.57225179 0.62408094 -0.82182600
v -1.53990214 0.53769943 -0.85923248
v -1.57225179 0.63990375 -0.81295647
v -1.57225179 0.67320524 -0.78660899
f 1 2 3
f 1 3 4
f 1 4 9
f 1 9 23
f 1 23 35
f 1 35 39
f 1 39 29
f 1 29 38
f 1 38 36
f 1 36 24
f 1 24 10
f 1 10 5
f 1 5 2
f 2 5 10
f 2 10 25
f 2 25 37
f 2 37 26
f 2 26 11
f 2 11 6
f 2 6 20
f 2 20 21
f 2 21 8
f 2 8 3
f 3 7 4
f 3 8 7
f 4 7 8
f 4 8 21
f 4 21 19
f 4 19 18
f 4 18 17
f 4 17 16
f 4 16 34
f 4 34 32
f 4 32 22
f 4 22 9
f 6 11 12
f 6 12 13
f 6 13 14
f 6 14 15
f 6 15 16
f 6 16 17
f 6 17 18
f 6 18 19
f 6 19 20
f 9 22 23
f 10 24 25
f 11 26 27
f 11 27 12
f 12 27 28
f 12 28 13
f 13 28 29
f 13 29 30
f 13 30 31
f 13 31 32
f 13 32 33
f 13 33 15
f 13 15 14
f 15 33 34
f 15 34 16
f 19 21 20
f 22 32 31
f 22 31 23
f 23 31 35
f 24 36 25
f 25 36 37
f 26 37 27
f 27 37 36
f 27 36 38
f 27 38 29
f 27 29 28
f 29 39 30
f 30 35 31
f 30 39 35
f 32 34 33

