# https://github.com/mikedh/trimesh
v -2.47333648 0.42480739 -0.64157959
v -2.47333648 0.43084655 -0.73224263
v -2.43427874 0.42450161 -0.64157959
v -2.47333648 0.77190595 -0.64157959
v -2.11218819 0.43642703 -0.83350119
v -2.11218819 0.43191678 -0.78382994
v -2.47333648 0.44063151 -0.83350119
v -2.42175417 0.42450161 -0.64157959
v -2.46092047 0.77546062 -0.64157959
v -2.40513929 0.81074002 -0.73224263
v -2.40629761 0.81158087 -0.77022870
v -2.47333648 0.77037703 -0.68065532
v -2.11026971 0.43646526 -0.83350119
v -2.10357308 0.43600658 -0.82681328
v -2.10357308 0.43210788 -0.78382994
v -2.10357308 0.42553362 -0.64157959
v -2.12474893 0.42507495 -0.64157959
v -2.17633121 0.42484561 -0.64157959
v -2.26700739 0.42465450 -0.64157959
v -2.47333648 0.58461567 -0.83350119
v -2.41064134 0.77576640 -0.64157959
v -2.39789964 0.80588576 -0.70519024
v -2.37205424 0.81307159 -0.72948111
v -2.36999094 0.81387422 -0.78599050
v -2.35265204 0.80718532 -0.81420760
v -2.38707637 0.79904392 -0.80462654
v -2.40170046 0.76464366 -0.81879152
v -2.47333648 0.71560420 -0.77028498
v -2.47333648 0.74140439 -0.74296963
v -2.47333648 0.76097430 -0.71719481
v -2.10357308 0.43665637 -0.83350119
v -2.10357308 0.73100786 -0.64157959
v -2.47333648 0.62413774 -0.82617450
v -2.45639575 0.62413774 -0.83350119
v -2.39055142 0.80588576 -0.70519024
v -2.37057006 0.77538419 -0.64157959
v -2.21538894 0.76793079 -0.64157959
v -2.31855345 0.81104581 -0.74413433
v -2.31855345 0.81494447 -0.78382994
v -2.31855345 0.80859953 -0.81802126
v -2.31855345 0.79977013 -0.83350119
v -2.33046260 0.79850878 -0.83350119
v -2.37035293 0.78039135 -0.83350119
v -2.37064249 0.78023842 -0.83350119
v -2.39601733 0.75375025 -0.83350119
v -2.47333648 0.68208306 -0.79607871
v -2.10357308 0.78658340 -0.83350119
v -2.10357308 0.78555137 -0.78382994
v -2.15211468 0.75608183 -0.64157959
v -2.47333648 0.65628287 -0.81371920
v -2.26700739 0.77064460 -0.64157959
v -2.16170720 0.76082142 -0.64157959
v -2.28134184 0.80722354 -0.75271984
v -2.26526987 0.80821732 -0.78563343
v -2.23743356 0.80531240 -0.80402543
v -2.23743356 0.80531240 -0.81170903
v -2.26700739 0.80722354 -0.81616133
v -2.26700739 0.80053460 -0.83350119
v -2.28525122 0.80126085 -0.83350119
v -2.10389885 0.78662161 -0.83350119
v -2.10357308 0.78574247 -0.79243420
v -2.21636627 0.79667411 -0.83350119
f 1 2 3
f 1 3 8
f 1 8 19
f 1 19 18
f 1 18 17
f 1 17 16
f 1 16 32
f 1 32 49
f 1 49 52
f 1 52 37
f 1 37 51
f 1 51 36
f 1 36 21
f 1 21 9
f 1 9 4
f 1 4 12
f 1 12 30
f 1 30 29
f 1 29 28
f 1 28 46
f 1 46 50
f 1 50 33
f 1 33 20
f 1 20 7
f 1 7 2
f 2 5 6
f 2 6 3
f 2 7 5
f 3 6 8
f 4 9 10
f 4 10 11
f 4 11 12
f 5 7 20
f 5 20 34
f 5 34 45
f 5 45 44
f 5 44 43
f 5 43 42
f 5 42 41
f 5 41 59
f 5 59 58
f 5 58 62
f 5 62 60
f 5 60 47
f 5 47 31
f 5 31 13
f 5 13 6
f 6 13 14
f 6 14 15
f 6 15 16
f 6 16 17
f 6 17 18
f 6 18 19
f 6 19 8
f 9 21 22
f 9 22 10
f 10 22 23
f 10 23 11
f 11 23 24
f 11 24 25
f 11 25 26
f 11 26 27
f 11 27 28
f 11 28 29
f 11 29 30
f 11 30 12
f 13 31 14
f 14 31 47
f 14 47 61
f 14 61 48
f 14 48 32
f 14 32 16
f 14 16 15
f 20 33 34
f 21 35 22
f 21 36 35
f 22 35 23
f 23 35 37
f 23 37 38
f 23 38 39
f 23 39 24
f 24 39 40
f 24 40 25
f 25 40 41
f 25 41 42
f 25 42 43
f 25 43 26
f 26 43 44
f 26 44 45
f 26 45 27
f 27 45 46
f 27 46 28
f 32 48 49
f 33 50 45
f 33 45 34
f 35 36 51
f 35 51 37
f 37 52 38
f 38 53 39
f 38 52 53
f 39 53 54
f 39 54 55
f 39 55 56
f 39 56 57
f 39 57 40
f 40 57 58
f 40 58 59
f 40 59 41
f 45 50 46
f 47 60 56
f 47 56 55
f 47 55 61
f 48 61 55
f 48 55 54
f 48 54 53
f 48 53 52
f 48 52 49
f 56 60 57
f 57 60 62
f 57 62 58

