# https://github.com/mikedh/trimesh
v -1.33821403 0.40121257 -5.67931624
v -1.29446318 0.41776485 -5.67645292
v -1.29446318 0.40121257 -5.67929594
v -1.42486673 0.40121257 -5.67929594
v -1.38980611 0.41776485 -5.67645292
v -1.29446318 0.44946734 -5.66442728
v -1.29446318 0.40121257 -5.62000550
v -1.47645880 0.40121257 -5.67923443
v -1.54463227 0.41776485 -5.67637111
v -1.49304019 0.41776485 -5.67641202
v -1.49304019 0.44941541 -5.66438637
v -1.33821403 0.44946734 -5.66440667
v -1.64776646 0.47027778 -5.63411728
v -1.29446318 0.47017393 -5.63411728
v -1.44139818 0.44944138 -5.66438637
v -1.29446318 0.44394992 -5.50580156
v -1.58608571 0.45271289 -5.47037864
v -1.59892130 0.45259605 -5.47037864
v -1.63907621 0.45223255 -5.47037864
v -1.64776646 0.45216764 -5.47037864
v -1.80469025 0.44096401 -5.50048396
v -1.80469025 0.40121257 -5.61900334
v -1.69935853 0.40121257 -5.67880509
v -1.64776646 0.41776485 -5.67618719
v -1.59617439 0.44932454 -5.66432486
v -1.64776646 0.44920770 -5.66422275
v -1.69935853 0.46994024 -5.63411728
v -1.69935853 0.49040016 -5.60200763
v -1.64776646 0.49042613 -5.60225306
v -1.29446318 0.47321175 -5.62908617
v -1.29446318 0.45771103 -5.47037864
v -1.69935853 0.45293359 -5.47037864
v -1.80469025 0.45512758 -5.47037864
v -1.80469025 0.40121257 -5.67733252
v -1.75095061 0.40121257 -5.67862086
v -1.69935853 0.41776485 -5.67596207
v -1.69935853 0.44889613 -5.66397733
v -1.75095061 0.46938201 -5.63411728
v -1.75095061 0.49028333 -5.60147587
v -1.64776646 0.50527775 -5.57646317
v -1.29446318 0.49007561 -5.60086246
v -1.29446318 0.52211564 -5.47037864
v -1.80469025 0.51698767 -5.47037864
v -1.80469025 0.41779082 -5.67395774
v -1.80254266 0.40121257 -5.67763915
v -1.75095061 0.41776485 -5.67543031
v -1.75095061 0.44845473 -5.66360919
v -1.80254266 0.44771475 -5.66303652
v -1.80254266 0.46818765 -5.63411728
v -1.75095061 0.50410935 -5.57568599
v -1.69935853 0.50464162 -5.57621775
v -1.80254266 0.48982895 -5.60020798
v -1.64776646 0.52102513 -5.53093697
v -1.33821403 0.50414830 -5.57527694
v -1.29446318 0.49221767 -5.59693562
v -1.29446318 0.52170021 -5.47935705
v -1.59697349 0.53383855 -5.47037864
v -1.80469025 0.51672803 -5.47935705
v -1.80254266 0.51744205 -5.47037864
v -1.80469025 0.41947850 -5.67350779
v -1.80254266 0.41776485 -5.67426468
v -1.80469025 0.44761089 -5.66295471
v -1.80469025 0.46783713 -5.63428090
v -1.80254266 0.50348620 -5.57443840
v -1.80469025 0.48979000 -5.59959442
v -1.80469025 0.49036122 -5.59855135
v -1.80469025 0.50333042 -5.57409071
v -1.80254266 0.51402774 -5.53093697
v -1.64776646 0.53142386 -5.47935705
v -1.59617439 0.53187823 -5.47935705
v -1.29446318 0.51554665 -5.53093697
v -1.29446318 0.50553739 -5.56832331
v -1.29446318 0.50370690 -5.57507242
v -1.64776646 0.53291682 -5.47037864
v -1.80469025 0.51375511 -5.52883039
v -1.80254266 0.51711749 -5.47935705
v -1.80469025 0.51359932 -5.53099833
f 1 2 3
f 1 3 7
f 1 7 22
f 1 22 34
f 1 34 45
f 1 45 35
f 1 35 23
f 1 23 8
f 1 8 4
f 1 4 5
f 1 5 2
f 2 6 14
f 2 14 30
f 2 30 41
f 2 41 55
f 2 55 73
f 2 73 72
f 2 72 71
f 2 71 56
f 2 56 42
f 2 42 31
f 2 31 16
f 2 16 7
f 2 7 3
f 2 5 6
f 4 8 9
f 4 9 10
f 4 10 5
f 5 10 11
f 5 11 6
f 6 12 13
f 6 13 14
f 6 11 15
f 6 15 12
f 7 16 17
f 7 17 18
f 7 18 19
f 7 19 20
f 7 20 21
f 7 21 22
f 8 23 24
f 8 24 9
f 9 11 10
f 9 24 25
f 9 25 11
f 11 25 13
f 11 13 15
f 12 15 13
f 13 25 26
f 13 26 27
f 13 27 28
f 13 28 29
f 13 29 14
f 14 29 30
f 16 31 17
f 17 31 42
f 17 42 57
f 17 57 74
f 17 74 59
f 17 59 43
f 17 43 33
f 17 33 32
f 17 32 20
f 17 20 19
f 17 19 18
f 20 32 21
f 21 32 33
f 21 33 43
f 21 43 58
f 21 58 75
f 21 75 77
f 21 77 67
f 21 67 66
f 21 66 65
f 21 65 63
f 21 63 62
f 21 62 60
f 21 60 44
f 21 44 34
f 21 34 22
f 23 35 24
f 24 35 36
f 24 36 26
f 24 26 25
f 26 36 37
f 26 37 27
f 27 37 38
f 27 38 39
f 27 39 28
f 28 40 29
f 28 39 40
f 29 40 41
f 29 41 30
f 34 44 45
f 35 45 46
f 35 46 36
f 36 46 37
f 37 46 47
f 37 47 38
f 38 47 48
f 38 48 49
f 38 49 39
f 39 50 51
f 39 51 40
f 39 49 52
f 39 52 50
f 40 51 50
f 40 50 53
f 40 53 54
f 40 54 55
f 40 55 41
f 42 56 57
f 43 59 58
f 44 60 61
f 44 61 45
f 45 61 46
f 46 61 48
f 46 48 47
f 48 61 60
f 48 60 62
f 48 62 49
f 49 62 63
f 49 63 52
f 50 52 64
f 50 64 53
f 52 63 65
f 52 65 66
f 52 66 67
f 52 67 64
f 53 64 68
f 53 68 69
f 53 69 57
f 53 57 70
f 53 70 71
f 53 71 72
f 53 72 73
f 53 73 54
f 54 73 55
f 56 71 57
f 57 69 74
f 57 71 70
f 58 59 76
f 58 76 68
f 58 68 75
f 59 74 76
f 64 67 68
f 67 77 68
f 68 77 75
f 68 76 74
f 68 74 69

