# https://github.com/mikedh/trimesh
v -1.57230379 0.40346737 -0.58876499
v -1.57230379 0.40346737 -0.50107907
v -1.57230379 0.31425760 -0.53404464
v -2.10352102 0.40346737 -0.58750956
v -1.57230379 0.39640289 -0.49851238
v -1.58260152 0.40346737 -0.50090130
v -1.59622780 0.39697923 -0.49827926
v -1.57230379 0.31425760 -0.48794608
v -2.10352102 0.31425760 -0.53076689
v -2.10352102 0.40346737 -0.50092345
v -1.57230379 0.36615400 -0.49232380
v -1.69941314 0.36615400 -0.49030163
v -1.63585847 0.40346737 -0.50017902
v -1.64782047 0.39762542 -0.49780132
v -1.57230379 0.31456323 -0.48793501
v -2.00896915 0.31456323 -0.47586877
v -2.00896915 0.31425760 -0.47590198
v -2.10352102 0.31425760 -0.47572422
v -2.10352102 0.39666486 -0.49837921
v -1.75100582 0.39735472 -0.49761248
v -1.69941314 0.39755556 -0.49755682
v -1.68765918 0.40346737 -0.50011243
v -2.06056182 0.31456323 -0.47526873
v -2.06056182 0.36615400 -0.48723502
v -2.06082186 0.31425760 -0.47531333
v -2.10352102 0.31456323 -0.47569100
v -2.10352102 0.36615400 -0.48719073
f 1 2 5
f 1 5 11
f 1 11 15
f 1 15 8
f 1 8 3
f 1 3 4
f 1 4 10
f 1 10 22
f 1 22 13
f 1 13 6
f 1 6 2
f 2 6 7
f 2 7 5
f 3 8 17
f 3 17 25
f 3 25 18
f 3 18 9
f 3 9 4
f 4 9 18
f 4 18 26
f 4 26 27
f 4 27 19
f 4 19 10
f 5 7 12
f 5 12 11
f 6 13 14
f 6 14 7
f 7 14 12
f 8 15 16
f 8 16 17
f 10 19 20
f 10 20 21
f 10 21 22
f 11 12 16
f 11 16 15
f 12 14 23
f 12 23 16
f 13 22 21
f 13 21 14
f 14 21 24
f 14 24 23
f 16 23 17
f 17 23 25
f 18 25 23
f 18 23 26
f 19 27 20
f 20 27 21
f 21 27 24
f 23 24 27
f 23 27 26

