# https://github.com/mikedh/trimesh
v -1.17282060 0.24201740 -1.60895990
v -1.21657418 0.37010730 -1.60895990
v -1.11030120 0.24201740 -1.60895990
v -1.19881767 0.24201740 -1.26304188
v -1.15100481 0.37010730 -1.60895990
v -1.19881767 0.24201740 -1.18973746
v -1.21656311 0.37010730 -1.59876235
v -1.11071155 0.25503202 -1.60895990
v -1.10646374 0.24201740 -1.59888784
v -1.14655736 0.36244647 -1.60895990
v -1.14581427 0.37010730 -1.50752896
v -1.18339021 0.24201740 -1.19408396
v -1.19881767 0.26298122 -1.18204755
v -1.21509908 0.37010730 -1.55780563
v -1.12752538 0.31419962 -1.60895990
v -1.10409027 0.24634306 -1.55780563
v -1.10497756 0.24201740 -1.58150200
v -1.12764736 0.31453815 -1.60895990
v -1.14640208 0.37010730 -1.48897303
v -1.14701207 0.36904155 -1.45654200
v -1.12418700 0.31453815 -1.50619172
v -1.15099370 0.24201740 -1.21606695
v -1.19881767 0.31245682 -1.18714633
v -1.19881767 0.36391344 -1.20967261
v -1.19881767 0.36605747 -1.21105168
v -1.19881767 0.37010730 -1.21518920
v -1.10345810 0.25043053 -1.51755920
v -1.10328064 0.25158402 -1.50619172
v -1.10409027 0.24201740 -1.55780563
v -1.14743354 0.37010730 -1.45733594
v -1.15245769 0.34954471 -1.29986125
v -1.13890462 0.31453815 -1.29986125
v -1.13490081 0.31453815 -1.35143333
v -1.12707062 0.31453815 -1.45461948
v -1.15368879 0.26298122 -1.21811464
v -1.13456808 0.24201740 -1.24824718
v -1.15735986 0.28941167 -1.22208500
v -1.16415860 0.32377878 -1.23550048
v -1.17506094 0.36319877 -1.25092197
v -1.17923113 0.37010730 -1.25050401
v -1.10345810 0.24201740 -1.51755920
v -1.10472249 0.24463787 -1.45461948
v -1.10384631 0.24201740 -1.48592226
v -1.10328064 0.24201740 -1.50619172
v -1.16444697 0.37010730 -1.29986125
v -1.15565186 0.34405299 -1.26989586
v -1.15149278 0.30976111 -1.25092197
v -1.13971426 0.26298122 -1.24824718
v -1.12776934 0.24201740 -1.27892301
v -1.12827954 0.26298122 -1.29986125
v -1.10515502 0.24201740 -1.44371164
v -1.10472249 0.24201740 -1.45461948
f 1 2 5
f 1 5 10
f 1 10 18
f 1 18 15
f 1 15 8
f 1 8 3
f 1 3 9
f 1 9 17
f 1 17 29
f 1 29 41
f 1 41 44
f 1 44 43
f 1 43 52
f 1 52 51
f 1 51 49
f 1 49 36
f 1 36 22
f 1 22 12
f 1 12 6
f 1 6 4
f 1 4 2
f 2 4 6
f 2 6 7
f 2 7 14
f 2 14 26
f 2 26 40
f 2 40 45
f 2 45 30
f 2 30 19
f 2 19 11
f 2 11 5
f 3 8 9
f 5 11 10
f 6 12 13
f 6 13 14
f 6 14 7
f 8 15 16
f 8 16 17
f 8 17 9
f 10 11 18
f 11 19 20
f 11 20 21
f 11 21 18
f 12 22 13
f 13 23 14
f 13 22 23
f 14 23 24
f 14 24 25
f 14 25 26
f 15 27 16
f 15 18 21
f 15 21 28
f 15 28 27
f 16 29 17
f 16 27 41
f 16 41 29
f 19 30 20
f 20 30 31
f 20 31 32
f 20 32 33
f 20 33 34
f 20 34 21
f 21 34 28
f 22 35 23
f 22 36 35
f 23 35 37
f 23 37 24
f 24 37 25
f 25 37 38
f 25 38 39
f 25 39 26
f 26 39 40
f 27 28 44
f 27 44 41
f 28 34 42
f 28 42 43
f 28 43 44
f 30 45 31
f 31 45 46
f 31 46 32
f 32 46 47
f 32 47 48
f 32 48 36
f 32 36 49
f 32 49 50
f 32 50 51
f 32 51 42
f 32 42 33
f 33 42 34
f 35 36 37
f 36 48 37
f 37 48 47
f 37 47 38
f 38 47 46
f 38 46 39
f 39 46 40
f 40 46 45
f 42 52 43
f 42 51 52
f 49 51 50

