# https://github.com/mikedh/trimesh
v -1.95452402 0.63940103 -1.04530441
v -1.95735739 0.61565709 -1.09343298
v -2.10357304 0.55839112 -1.19024324
v -2.00895129 0.63468476 -1.04530441
v -1.94892314 0.63927907 -1.04530441
v -1.54460626 0.61411211 -1.09248217
v -1.69938793 0.61586038 -1.09343298
v -1.95735739 0.56369691 -1.19024324
v -2.00842414 0.56304639 -1.19024324
v -2.10357304 0.44798587 -1.19024324
v -2.10357304 0.54058316 -1.04530441
v -2.05514200 0.61482362 -1.04530441
v -2.04828913 0.62094257 -1.04530441
v -2.00980788 0.63458313 -1.04530441
v -1.54460626 0.62374793 -1.04530441
v -1.49301236 0.60634654 -1.08016635
v -1.44827131 0.53844864 -1.19024324
v -1.54460626 0.59725961 -1.11826330
v -1.69938793 0.55863506 -1.19024324
v -1.75104772 0.56020037 -1.19024324
v -1.80257572 0.56168437 -1.19024324
v -1.85416962 0.56282277 -1.19024324
v -1.90576351 0.56341231 -1.19024324
v -1.95735739 0.43940715 -1.08504723
v -1.95735739 0.43804513 -1.04530441
v -1.96084970 0.43820776 -1.04530441
v -1.99834258 0.44095214 -1.04530441
v -2.10357304 0.44800620 -1.18801563
v -1.43041441 0.43184488 -1.19024324
v -2.10357304 0.45117748 -1.04530441
v -1.53999379 0.62281282 -1.04530441
v -1.50408232 0.61285174 -1.04530441
v -1.49037667 0.60890796 -1.04646789
v -1.46711658 0.59849967 -1.06793557
v -1.43041441 0.53295989 -1.19024324
v -1.90984884 0.43729297 -1.04530441
v -1.43041441 0.43180422 -1.14502351
v -1.69938793 0.43458925 -1.04530441
v -1.49083792 0.60880632 -1.04530441
v -1.48879525 0.60748495 -1.04530441
v -1.46711658 0.59849967 -1.06675795
v -1.43041441 0.50767097 -1.04530441
v -1.43041441 0.43176356 -1.09343298
v -1.43041441 0.43174323 -1.04530441
v -1.46981819 0.59425096 -1.04530441
f 1 2 3
f 1 3 4
f 1 4 14
f 1 14 13
f 1 13 12
f 1 12 11
f 1 11 30
f 1 30 27
f 1 27 26
f 1 26 25
f 1 25 36
f 1 36 38
f 1 38 44
f 1 44 42
f 1 42 45
f 1 45 40
f 1 40 39
f 1 39 32
f 1 32 31
f 1 31 15
f 1 15 5
f 1 5 6
f 1 6 7
f 1 7 2
f 2 8 9
f 2 9 3
f 2 7 8
f 3 9 8
f 3 8 23
f 3 23 22
f 3 22 21
f 3 21 20
f 3 20 19
f 3 19 17
f 3 17 35
f 3 35 29
f 3 29 10
f 3 10 28
f 3 28 30
f 3 30 11
f 3 11 12
f 3 12 13
f 3 13 14
f 3 14 4
f 5 15 6
f 6 15 16
f 6 16 17
f 6 17 18
f 6 18 19
f 6 19 20
f 6 20 21
f 6 21 22
f 6 22 7
f 7 22 23
f 7 23 8
f 10 24 25
f 10 25 26
f 10 26 27
f 10 27 28
f 10 29 24
f 15 31 16
f 16 31 32
f 16 32 33
f 16 33 34
f 16 34 35
f 16 35 17
f 17 19 18
f 24 29 25
f 25 29 36
f 27 30 28
f 29 35 42
f 29 42 44
f 29 44 43
f 29 43 37
f 29 37 38
f 29 38 36
f 32 39 33
f 33 40 41
f 33 41 34
f 33 39 40
f 34 41 35
f 35 41 42
f 37 43 38
f 38 43 44
f 40 45 41
f 41 45 42

