# https://github.com/mikedh/trimesh
v -1.80469027 0.51698794 -5.47037864
v -1.85419796 0.50747192 -5.47037864
v -1.80469027 0.45512250 -5.47037864
v -1.80469027 0.51672801 -5.47935044
v -1.85419796 0.50741541 -5.47935044
v -1.85950072 0.50576536 -5.47037864
v -1.88805639 0.40152989 -5.47037864
v -1.87272715 0.40152989 -5.48504140
v -1.80469027 0.44096148 -5.50047382
v -1.80469027 0.51375566 -5.52884761
v -1.88174794 0.49606851 -5.51621009
v -1.88366791 0.49727779 -5.47935044
v -1.88386600 0.49739081 -5.47037864
v -1.85841883 0.50277042 -5.53243230
v -1.96022273 0.40152989 -5.47037864
v -1.80469027 0.40152989 -5.61874868
v -1.80469027 0.51359744 -5.53099449
v -1.90948077 0.47547684 -5.47935044
v -1.87844133 0.49453149 -5.55061916
v -1.90166377 0.47762416 -5.53243230
v -1.90518371 0.47936462 -5.47037864
v -1.84404957 0.50032925 -5.56777295
v -1.95237524 0.41775911 -5.47037864
v -1.96035986 0.40152989 -5.47935044
v -1.80469027 0.40152989 -5.67727839
v -1.80469027 0.50333550 -5.57407149
v -1.93444032 0.44792332 -5.53095389
v -1.93573554 0.44968638 -5.47935044
v -1.90966363 0.47548814 -5.47037864
v -1.93282511 0.44544825 -5.56009734
v -1.85841883 0.48873372 -5.58399531
v -1.89160681 0.45451220 -5.62300169
v -1.90759128 0.46120281 -5.57937770
v -1.80469027 0.49036116 -5.59855688
v -1.94958673 0.42331954 -5.47037864
v -1.95251239 0.41775911 -5.47935044
v -1.94995243 0.41775911 -5.53095389
v -1.95741896 0.40152989 -5.53222977
v -1.83764969 0.40152989 -5.67247841
v -1.85433509 0.41836940 -5.66662567
v -1.80469027 0.41778172 -5.67395713
v -1.93572030 0.44969768 -5.47037864
v -1.92689759 0.41775911 -5.59736189
v -1.93936214 0.41775911 -5.57158046
v -1.85433509 0.45960927 -5.63776578
v -1.87163003 0.43597743 -5.65739046
v -1.89867715 0.41836940 -5.63776578
v -1.80469027 0.48978478 -5.59958980
v -1.94254685 0.40152989 -5.57684608
v -1.83833538 0.40152989 -5.67237722
v -1.85428938 0.40152989 -5.66996724
v -1.88299744 0.40157509 -5.66208895
v -1.83722302 0.44599073 -5.66174480
v -1.80469027 0.41947697 -5.67351148
v -1.92918327 0.40152989 -5.60319464
v -1.80469027 0.46783690 -5.63426198
v -1.90480277 0.40152989 -5.63553802
v -1.88299744 0.40152989 -5.66208895
v -1.80469027 0.44760687 -5.66295994
f 1 2 6
f 1 6 13
f 1 13 21
f 1 21 29
f 1 29 42
f 1 42 35
f 1 35 23
f 1 23 15
f 1 15 7
f 1 7 3
f 1 3 9
f 1 9 16
f 1 16 25
f 1 25 41
f 1 41 54
f 1 54 59
f 1 59 56
f 1 56 48
f 1 48 34
f 1 34 26
f 1 26 17
f 1 17 10
f 1 10 4
f 1 4 5
f 1 5 2
f 2 5 6
f 3 7 8
f 3 8 9
f 4 10 5
f 5 11 12
f 5 12 13
f 5 13 6
f 5 10 14
f 5 14 11
f 7 15 24
f 7 24 38
f 7 38 49
f 7 49 55
f 7 55 57
f 7 57 58
f 7 58 51
f 7 51 50
f 7 50 39
f 7 39 25
f 7 25 16
f 7 16 8
f 8 16 9
f 10 17 14
f 11 18 12
f 11 14 19
f 11 19 20
f 11 20 18
f 12 18 13
f 13 18 21
f 14 22 19
f 14 17 22
f 15 23 36
f 15 36 24
f 17 26 22
f 18 20 27
f 18 27 28
f 18 28 29
f 18 29 21
f 19 30 20
f 19 22 31
f 19 31 32
f 19 32 33
f 19 33 30
f 20 30 27
f 22 26 34
f 22 34 31
f 23 35 36
f 24 36 37
f 24 37 38
f 25 39 40
f 25 40 41
f 27 37 36
f 27 36 28
f 27 30 37
f 28 36 35
f 28 35 42
f 28 42 29
f 30 33 32
f 30 32 43
f 30 43 44
f 30 44 38
f 30 38 37
f 31 34 45
f 31 45 32
f 32 45 46
f 32 46 47
f 32 47 43
f 34 48 45
f 38 44 49
f 39 50 40
f 40 50 51
f 40 51 52
f 40 52 46
f 40 46 53
f 40 53 54
f 40 54 41
f 43 55 49
f 43 49 44
f 43 47 55
f 45 56 53
f 45 53 46
f 45 48 56
f 46 52 47
f 47 57 55
f 47 52 57
f 51 58 52
f 52 58 57
f 53 59 54
f 53 56 59

