# https://github.com/mikedh/trimesh
v -1.23207410 0.24201740 -1.26623890
v -1.19882762 0.24201740 -1.26301559
v -1.23207410 0.24201740 -1.15750726
v -1.23207410 0.29711549 -1.40649199
v -1.19882762 0.24201740 -1.18970317
v -1.19882762 0.34838906 -1.51758503
v -1.23207410 0.26297073 -1.14251495
v -1.23207410 0.31571141 -1.42073463
v -1.21266975 0.37010729 -1.51758503
v -1.19882762 0.26297073 -1.18205709
v -1.19882762 0.37010729 -1.51758503
v -1.23207410 0.31454525 -1.13468142
v -1.23207410 0.35312895 -1.44644656
v -1.23207410 0.37010729 -1.45375525
v -1.19882762 0.31246371 -1.18711696
v -1.19882762 0.37010729 -1.21515260
v -1.23207410 0.36792543 -1.16178010
v -1.19882762 0.36392537 -1.20964293
v -1.23207410 0.37010729 -1.16350409
v -1.20049729 0.37010729 -1.21106721
v -1.19882762 0.36606961 -1.21099232
v -1.23207410 0.36983142 -1.16327926
v -1.19951439 0.36614484 -1.20986791
f 1 2 5
f 1 5 3
f 1 3 7
f 1 7 12
f 1 12 17
f 1 17 22
f 1 22 19
f 1 19 14
f 1 14 13
f 1 13 8
f 1 8 4
f 1 4 2
f 2 4 6
f 2 6 11
f 2 11 16
f 2 16 21
f 2 21 18
f 2 18 15
f 2 15 10
f 2 10 5
f 3 5 7
f 4 8 9
f 4 9 6
f 5 10 7
f 6 9 11
f 7 10 12
f 8 13 9
f 9 14 19
f 9 19 20
f 9 20 16
f 9 16 11
f 9 13 14
f 10 15 12
f 12 15 18
f 12 18 17
f 16 20 21
f 17 18 23
f 17 23 20
f 17 20 22
f 18 21 23
f 19 22 20
f 20 23 21

