# https://github.com/mikedh/trimesh
v -1.69936827 0.62586726 -1.04182614
v -1.69936827 0.62518311 -1.04529027
v -1.70256503 0.62518311 -1.04507375
v -1.70256503 0.62581025 -1.04182614
v -1.70256503 0.62510709 -1.03868663
v -1.54459194 0.62446094 -1.04182614
v -1.70256503 0.47301511 -1.04529027
v -1.54459194 0.62373878 -1.04529027
v -1.70256503 0.60912442 -1.00323711
v -1.54459194 0.60868731 -1.00381993
v -1.50580462 0.60530453 -1.00779213
v -1.50407304 0.61284928 -1.04529027
v -1.53995663 0.62282658 -1.04529027
v -1.70256503 0.43462628 -1.04529027
v -1.70256503 0.56022617 -0.96021793
v -1.54459194 0.57254100 -0.97951245
v -1.47141281 0.59167840 -1.03234119
v -1.49083313 0.60880134 -1.04529027
v -1.49237822 0.52900199 -0.96021793
v -1.45361754 0.50773610 -0.96021793
v -1.44373424 0.50182574 -0.96021793
v -1.70256503 0.43441723 -1.04204266
v -1.69936827 0.43458827 -1.04529027
v -1.69936827 0.43432221 -1.04182614
v -1.70256503 0.44076469 -0.96021793
v -1.54459194 0.54006253 -0.96021793
v -1.46978782 0.59424399 -1.04529027
v -1.48880851 0.60749005 -1.04529027
v -1.43041441 0.48666025 -0.96021793
v -1.43041441 0.43173762 -1.04529027
v -1.43041441 0.43171862 -1.03085064
v -1.43041441 0.43173762 -0.96021793
v -1.43041441 0.49834794 -0.99083764
v -1.43041441 0.50547458 -1.01815145
v -1.43041441 0.50817320 -1.04182614
v -1.43041441 0.50767909 -1.04529027
f 1 2 3
f 1 3 4
f 1 4 5
f 1 5 6
f 1 6 2
f 2 7 3
f 2 6 8
f 2 8 13
f 2 13 12
f 2 12 18
f 2 18 28
f 2 28 27
f 2 27 36
f 2 36 30
f 2 30 23
f 2 23 14
f 2 14 7
f 3 7 14
f 3 14 22
f 3 22 25
f 3 25 15
f 3 15 9
f 3 9 5
f 3 5 4
f 5 9 10
f 5 10 6
f 6 10 11
f 6 11 12
f 6 12 13
f 6 13 8
f 9 15 10
f 10 16 11
f 10 15 16
f 11 17 18
f 11 18 12
f 11 16 19
f 11 19 20
f 11 20 21
f 11 21 17
f 14 23 24
f 14 24 22
f 15 25 32
f 15 32 29
f 15 29 21
f 15 21 20
f 15 20 19
f 15 19 26
f 15 26 16
f 16 26 19
f 17 27 28
f 17 28 18
f 17 21 29
f 17 29 27
f 22 24 25
f 23 30 24
f 24 31 32
f 24 32 25
f 24 30 31
f 27 29 33
f 27 33 34
f 27 34 35
f 27 35 36
f 29 32 31
f 29 31 30
f 29 30 36
f 29 36 35
f 29 35 34
f 29 34 33

