# https://github.com/mikedh/trimesh
v -0.48538062 1.21994727 -0.46226835
v -0.48538062 1.18247732 -0.58836099
v -0.51536723 1.14293918 -0.57648162
v -0.51536723 1.17031174 -0.46226835
v -0.48538062 -0.01315502 -0.46226835
v -0.48538062 1.16033596 -0.62719091
v -0.51536723 1.13162520 -0.60840386
v -0.51536723 -0.01047854 -0.46226835
v -0.48554799 -0.01461483 -0.46226835
v -0.48538062 -0.01437160 -0.46462318
v -0.48538062 1.14902199 -0.64691979
v -0.51536723 1.12724560 -0.61421271
v -0.51536723 -0.01315502 -0.58731431
v -0.48916752 -0.02288748 -0.58731431
v -0.48916752 -0.02057602 -0.52838900
v -0.48916752 -0.01570979 -0.46226835
v -0.48538062 -0.01923774 -0.52362682
v -0.48538062 1.10388771 -0.68865423
v -0.51536723 1.10072465 -0.64257628
v -0.51536723 -0.00926205 -0.61654138
v -0.48538062 -0.02142759 -0.58731431
v -0.48538062 -0.02142759 -0.58270914
v -0.49196508 -0.00415250 -0.65157730
v -0.48538062 -0.00330094 -0.65079230
v -0.48538062 1.04366815 -0.71348545
v -0.51536723 1.04634454 -0.66913451
v -0.51536723 -0.00196275 -0.64226228
v -0.48538062 0.00095704 -0.66267166
v -0.51536723 1.04366815 -0.67023351
v -0.48538062 0.98478679 -0.72026247
v -0.51536723 0.59646175 -0.72955133
v -0.51536723 0.04207665 -0.67290235
v -0.51415776 0.04207665 -0.67431536
v -0.48538062 0.04390148 -0.69912041
v -0.48538062 0.01871884 -0.67949620
v -0.48538062 0.67736277 -0.72955133
v -0.51536723 0.49779893 -0.72955133
v -0.48538062 0.10095806 -0.72005314
v -0.48538062 0.09232047 -0.71824763
v -0.48538062 0.41920937 -0.72955133
f 1 2 3
f 1 3 4
f 1 4 8
f 1 8 16
f 1 16 9
f 1 9 5
f 1 5 10
f 1 10 17
f 1 17 22
f 1 22 21
f 1 21 24
f 1 24 28
f 1 28 35
f 1 35 34
f 1 34 39
f 1 39 38
f 1 38 40
f 1 40 36
f 1 36 30
f 1 30 25
f 1 25 18
f 1 18 11
f 1 11 6
f 1 6 2
f 2 6 7
f 2 7 3
f 3 7 12
f 3 12 19
f 3 19 26
f 3 26 29
f 3 29 31
f 3 31 37
f 3 37 32
f 3 32 27
f 3 27 20
f 3 20 13
f 3 13 8
f 3 8 4
f 5 9 10
f 6 11 7
f 7 11 12
f 8 13 14
f 8 14 15
f 8 15 16
f 9 16 17
f 9 17 10
f 11 18 19
f 11 19 12
f 13 20 14
f 14 21 22
f 14 22 17
f 14 17 15
f 14 20 23
f 14 23 24
f 14 24 21
f 15 17 16
f 18 25 26
f 18 26 19
f 20 27 23
f 23 27 28
f 23 28 24
f 25 29 26
f 25 30 31
f 25 31 29
f 27 32 33
f 27 33 34
f 27 34 35
f 27 35 28
f 30 36 31
f 31 36 40
f 31 40 37
f 32 38 33
f 32 37 38
f 33 38 39
f 33 39 34
f 37 40 38

