# https://github.com/mikedh/trimesh
v -0.37130390 1.33741435 -3.84862340
v -0.39589005 1.33704266 -3.84862340
v -0.36716559 1.33546300 -3.84862340
v -0.27603002 1.19264489 -3.97713971
v -0.28531765 1.19264489 -3.97713971
v -0.28524275 1.07751693 -4.03605813
v -0.39589005 1.17080867 -3.92566060
v -0.39589005 0.38814299 -3.84862340
v -0.31237560 1.30554277 -3.84862340
v -0.26428922 1.20537492 -3.94616412
v -0.21908654 1.14572025 -3.98566771
v -0.25522620 1.16383965 -3.99082599
v -0.22073434 1.08049037 -4.03761338
v -0.25346600 1.11133982 -4.02296802
v -0.39589005 1.12453447 -3.94225003
v -0.25346600 1.08188417 -4.03800220
v -0.25346600 1.04369401 -4.05008137
v -0.25346600 0.98478270 -4.06506370
v -0.25346600 0.88052642 -4.09033669
v -0.28314555 0.83843360 -4.09357680
v -0.29164676 1.04369401 -4.04108680
v -0.39589005 0.38814299 -3.87381858
v -0.28505555 0.38814299 -3.84862340
v -0.26391480 1.27097650 -3.84862340
v -0.21908654 1.14572025 -3.95661029
v -0.20773911 1.04369401 -4.00505659
v -0.21573473 1.10111862 -4.00521214
v -0.21597813 1.04369401 -4.04352339
v -0.22159574 0.85488047 -4.09557277
v -0.39589005 1.10195490 -3.94844515
v -0.25346600 0.85116365 -4.09513206
v -0.39589005 0.86630965 -3.99683965
v -0.39589005 0.92178290 -3.98574546
v -0.30024168 0.98478270 -4.04878533
v -0.25346600 0.80804874 -4.10078285
v -0.25346600 0.74913743 -4.10695207
v -0.28679695 0.80804874 -4.09603929
v -0.39560924 0.38814299 -4.03045918
v -0.39589005 0.38823597 -4.03040733
v -0.24356038 0.38814299 -3.94616412
v -0.26131200 0.51302756 -3.84862340
v -0.24629437 1.22154301 -3.84862340
v -0.23736237 1.16160957 -3.84862340
v -0.21612794 1.10260534 -3.94670844
v -0.20461192 0.98478270 -4.00505659
v -0.21253272 0.98478270 -4.05080719
v -0.21912394 0.80804874 -4.09821666
v -0.25346600 0.69022612 -4.11084021
v -0.29280776 0.74913743 -4.10013483
v -0.29756397 0.69022612 -4.10353045
v -0.33098852 0.63131481 -4.08110886
v -0.33404073 0.57240350 -4.08460818
v -0.39589005 0.80804874 -4.00274966
v -0.39283784 0.38814299 -4.03618773
v -0.39589005 0.63131481 -4.01713581
v -0.22861774 0.38814299 -4.00951504
v -0.25153739 0.59173083 -3.84862340
v -0.25311038 0.57240350 -3.84862340
v -0.25874660 0.52947444 -3.84862340
v -0.23665077 1.10260534 -3.84862340
v -0.23635117 1.04406570 -3.84862340
v -0.21738254 1.04601702 -3.94030597
v -0.21762594 0.98673402 -3.94053923
v -0.21661492 0.92587140 -3.94756382
v -0.20521112 0.92587140 -4.00505659
v -0.20998612 0.74913743 -4.06397506
v -0.20987372 0.80804874 -4.06397506
v -0.21777574 0.74913743 -4.10026443
v -0.25346600 0.63131481 -4.11306939
v -0.30456718 0.57240350 -4.10832591
v -0.30151498 0.63131481 -4.10638175
v -0.33666224 0.51349215 -4.08769279
v -0.39589005 0.74913743 -4.00840041
v -0.36145439 0.38814299 -4.07278817
v -0.39589005 0.69022612 -4.01309212
v -0.22608975 0.38814299 -4.06226425
v -0.22391773 0.42308100 -4.03388075
v -0.22436714 0.54917346 -3.97872087
v -0.22322493 0.58847865 -3.97281091
v -0.24826039 0.64980590 -3.84862340
v -0.23666956 0.99500391 -3.84862340
v -0.23674438 0.98506147 -3.84862340
v -0.23738116 0.93692888 -3.84862340
v -0.21756992 0.86696009 -3.95002631
v -0.21858094 0.80804874 -3.95362934
v -0.21957335 0.74913743 -3.95808774
v -0.20710250 0.86696009 -4.00505659
v -0.21176493 0.69022612 -4.06397506
v -0.22077192 0.57240350 -4.09852777
v -0.21927374 0.63131481 -4.10013483
v -0.21815033 0.69022612 -4.10075695
v -0.25346600 0.57240350 -4.11340639
v -0.30928599 0.45448799 -4.11071060
v -0.30720748 0.51349215 -4.10980337
v -0.34033235 0.41062965 -4.09184014
v -0.33875944 0.45448799 -4.09010338
v -0.32278682 0.38814299 -4.10446368
v -0.25153739 0.38814299 -4.10467099
v -0.22429215 0.42977118 -4.08007202
v -0.22391773 0.42308100 -4.04080165
v -0.21423673 0.63131481 -4.06397506
v -0.20933072 0.80804874 -4.00505659
v -0.21178372 0.74913743 -4.00505659
v -0.21440532 0.69022612 -4.00505659
v -0.21708293 0.63131481 -4.00505659
v -0.22212013 0.63131481 -3.96863761
v -0.24535799 0.70778803 -3.84862340
v -0.24077037 0.82300889 -3.84862340
v -0.24284896 0.76549136 -3.84862340
v -0.22079054 0.69022612 -3.96327197
v -0.22344954 0.46907641 -4.09448403
v -0.22236353 0.51349215 -4.09627260
v -0.25505779 0.38814299 -4.11047729
v -0.25346600 0.51349215 -4.11262877
v -0.31694460 0.38814299 -4.10811851
f 1 2 8
f 1 8 23
f 1 23 41
f 1 41 59
f 1 59 58
f 1 58 57
f 1 57 80
f 1 80 107
f 1 107 109
f 1 109 108
f 1 108 83
f 1 83 82
f 1 82 81
f 1 81 61
f 1 61 60
f 1 60 43
f 1 43 42
f 1 42 24
f 1 24 9
f 1 9 3
f 1 3 4
f 1 4 5
f 1 5 2
f 2 5 6
f 2 6 7
f 2 7 15
f 2 15 30
f 2 30 33
f 2 33 32
f 2 32 53
f 2 53 73
f 2 73 75
f 2 75 55
f 2 55 39
f 2 39 22
f 2 22 8
f 3 9 4
f 4 9 10
f 4 10 11
f 4 11 12
f 4 12 13
f 4 13 14
f 4 14 5
f 5 14 6
f 6 15 7
f 6 14 16
f 6 16 17
f 6 17 18
f 6 18 19
f 6 19 20
f 6 20 21
f 6 21 15
f 8 22 38
f 8 38 54
f 8 54 74
f 8 74 97
f 8 97 115
f 8 115 113
f 8 113 98
f 8 98 76
f 8 76 56
f 8 56 40
f 8 40 23
f 9 24 10
f 10 24 11
f 11 25 26
f 11 26 27
f 11 27 13
f 11 13 12
f 11 24 25
f 13 16 14
f 13 27 28
f 13 28 29
f 13 29 17
f 13 17 16
f 15 21 30
f 17 29 18
f 18 29 19
f 19 29 31
f 19 31 20
f 20 32 33
f 20 33 30
f 20 30 34
f 20 34 21
f 20 31 35
f 20 35 36
f 20 36 37
f 20 37 32
f 21 34 30
f 22 39 38
f 23 40 41
f 24 42 25
f 25 42 43
f 25 43 44
f 25 44 26
f 26 45 46
f 26 46 28
f 26 28 27
f 26 44 45
f 28 46 29
f 29 46 47
f 29 47 48
f 29 48 36
f 29 36 35
f 29 35 31
f 32 37 49
f 32 49 50
f 32 50 51
f 32 51 52
f 32 52 53
f 36 48 50
f 36 50 49
f 36 49 37
f 38 39 54
f 39 55 54
f 40 56 57
f 40 57 58
f 40 58 59
f 40 59 41
f 43 60 44
f 44 60 61
f 44 61 62
f 44 62 45
f 45 62 63
f 45 63 64
f 45 64 65
f 45 65 66
f 45 66 67
f 45 67 46
f 46 67 47
f 47 67 68
f 47 68 48
f 48 68 69
f 48 69 70
f 48 70 71
f 48 71 50
f 50 71 51
f 51 71 52
f 52 71 72
f 52 72 73
f 52 73 53
f 54 55 74
f 55 75 74
f 56 76 77
f 56 77 78
f 56 78 57
f 57 78 79
f 57 79 80
f 61 81 63
f 61 63 62
f 63 81 64
f 64 81 82
f 64 82 83
f 64 83 84
f 64 84 65
f 65 84 85
f 65 85 86
f 65 86 87
f 65 87 88
f 65 88 66
f 66 88 89
f 66 89 90
f 66 90 91
f 66 91 68
f 66 68 67
f 68 91 69
f 69 91 92
f 69 92 93
f 69 93 94
f 69 94 70
f 70 94 95
f 70 95 96
f 70 96 72
f 70 72 71
f 72 96 74
f 72 74 73
f 73 74 75
f 74 96 95
f 74 95 97
f 76 98 99
f 76 99 100
f 76 100 77
f 77 100 101
f 77 101 88
f 77 88 102
f 77 102 103
f 77 103 104
f 77 104 105
f 77 105 78
f 78 105 79
f 79 105 104
f 79 104 103
f 79 103 102
f 79 102 106
f 79 106 107
f 79 107 80
f 83 108 84
f 84 108 85
f 85 108 86
f 86 109 110
f 86 110 87
f 86 108 109
f 87 102 88
f 87 110 102
f 88 101 111
f 88 111 89
f 89 111 112
f 89 112 113
f 89 113 90
f 90 113 114
f 90 114 91
f 91 114 92
f 92 114 93
f 93 113 115
f 93 115 97
f 93 97 94
f 93 114 113
f 94 97 95
f 98 113 99
f 99 113 111
f 99 111 101
f 99 101 100
f 102 110 106
f 106 110 109
f 106 109 107
f 111 113 112

