# https://github.com/mikedh/trimesh
v -0.73957292 0.05714222 -6.28246590
v -0.66592590 0.05342759 -6.28592203
v -0.60702298 0.04337586 -6.24429489
v -0.73957292 0.05714222 -6.24991337
v -0.73957292 0.10106361 -6.29419530
v -0.60702298 0.05692375 -6.28409738
v -0.66592590 0.10106361 -6.29840446
v -0.48916813 0.05386452 -6.24182345
v -0.48894730 0.05386452 -6.24168840
v -0.48894730 0.05386452 -6.20647124
v -0.54809556 0.05386452 -6.20647124
v -0.60702298 0.05801626 -6.20864326
v -0.64993062 0.06544587 -6.21215734
v -0.73957292 0.09013783 -6.23604094
v -0.73957292 0.16006233 -6.29609722
v -0.48894730 0.08838975 -6.27127723
v -0.56102423 0.06675684 -6.27712753
v -0.60702298 0.10106361 -6.29439796
v -0.66592590 0.16006233 -6.29880978
v -0.48894730 0.10106361 -6.20246492
v -0.54809556 0.10106361 -6.20028324
v -0.60702298 0.10106361 -6.20230071
v -0.65204038 0.10106361 -6.21066091
v -0.73957292 0.10106361 -6.23145525
v -0.66592590 0.21884258 -6.29889689
v -0.73957292 2.27571508 -6.29495817
v -0.66592590 2.27571508 -6.29889689
v -0.48894730 0.11788920 -6.27436649
v -0.48894730 0.14738865 -6.27438581
v -0.66043061 2.27571508 -6.29848173
v -0.60702298 2.27571508 -6.29435967
v -0.48894730 2.27571508 -6.20808340
v -0.54809556 2.27571508 -6.20308273
v -0.60702298 0.16006233 -6.20214635
v -0.60702298 2.27571508 -6.20214635
v -0.61080100 2.27571508 -6.20291871
v -0.64742827 2.27571508 -6.21050655
v -0.73957292 2.27571508 -6.23791371
v -0.54976373 2.27571508 -6.28146208
v -0.48894730 2.27549661 -6.26725159
v -0.48894730 2.27571508 -6.21043894
v -0.48916813 2.27571508 -6.26725159
f 1 2 3
f 1 3 4
f 1 4 14
f 1 14 24
f 1 24 38
f 1 38 26
f 1 26 15
f 1 15 5
f 1 5 2
f 2 6 3
f 2 5 7
f 2 7 6
f 3 6 8
f 3 8 9
f 3 9 10
f 3 10 11
f 3 11 12
f 3 12 4
f 4 12 13
f 4 13 14
f 5 15 7
f 6 16 17
f 6 17 8
f 6 7 18
f 6 18 16
f 7 15 19
f 7 19 18
f 8 17 16
f 8 16 9
f 9 16 28
f 9 28 29
f 9 29 40
f 9 40 41
f 9 41 32
f 9 32 20
f 9 20 10
f 10 20 21
f 10 21 11
f 11 21 22
f 11 22 12
f 12 22 13
f 13 22 23
f 13 23 24
f 13 24 14
f 15 25 19
f 15 26 27
f 15 27 25
f 16 18 28
f 18 29 28
f 18 19 25
f 18 25 30
f 18 30 31
f 18 31 29
f 20 32 33
f 20 33 21
f 21 34 22
f 21 33 35
f 21 35 34
f 22 34 23
f 23 34 35
f 23 35 36
f 23 36 37
f 23 37 24
f 24 37 38
f 25 27 30
f 26 38 37
f 26 37 36
f 26 36 35
f 26 35 33
f 26 33 32
f 26 32 41
f 26 41 42
f 26 42 39
f 26 39 31
f 26 31 30
f 26 30 27
f 29 31 39
f 29 39 40
f 39 42 40
f 40 42 41

