# https://github.com/mikedh/trimesh
v -0.66601502 2.51295209 -6.24430437
v -0.23420110 2.50180548 -6.20647037
v -0.23420110 2.51144268 -6.24430437
v -0.66601502 2.49855439 -6.28043157
v -0.73968874 2.49857757 -6.28043157
v -1.64630435 2.51295209 -6.24430437
v -0.23420110 2.47231341 -6.20084679
v -0.73955053 2.50180548 -6.20647037
v -0.23420110 2.49709142 -6.27834455
v -0.66601502 2.45796216 -6.29415666
v -1.25512854 2.45798534 -6.29448541
v -1.64630435 2.49857757 -6.28043157
v -1.64630435 2.50178222 -6.20648073
v -0.54810943 2.45796216 -6.19812228
v -0.23420110 2.45796216 -6.19812228
v -0.23420110 2.48429604 -6.27925951
v -0.66601502 2.39907092 -6.29997552
v -1.25512854 2.39904765 -6.30244293
v -1.64630435 2.45798534 -6.29223402
v -1.64630435 2.47382283 -6.20432170
v -0.60713133 2.27571508 -6.20214213
v -1.64630435 2.45798534 -6.20310855
v -0.55363835 2.27571508 -6.20299545
v -0.23420110 2.27571508 -6.20810517
v -0.23420110 2.45796216 -6.28111015
v -0.66601502 2.27571508 -6.29889619
v -1.25512854 2.27657428 -6.30314223
v -1.25512854 2.28124189 -6.30314223
v -1.25512854 2.34017967 -6.30308041
v -1.64630435 2.39904765 -6.29713792
v -0.64749289 2.27571508 -6.21051076
v -1.25512854 2.27657428 -6.22114133
v -1.64630435 2.27657428 -6.23894791
v -0.23420110 2.27571508 -6.26725141
v -0.23420110 2.35255700 -6.27437598
v -0.73955053 2.27571508 -6.29495852
v -1.64630435 2.27657428 -6.29292278
v -0.73955053 2.27571508 -6.23791985
f 1 2 3
f 1 3 4
f 1 4 5
f 1 5 12
f 1 12 6
f 1 6 8
f 1 8 2
f 2 7 15
f 2 15 24
f 2 24 34
f 2 34 35
f 2 35 25
f 2 25 16
f 2 16 9
f 2 9 3
f 2 8 7
f 3 9 4
f 4 9 10
f 4 10 11
f 4 11 5
f 5 11 12
f 6 12 19
f 6 19 30
f 6 30 37
f 6 37 33
f 6 33 22
f 6 22 20
f 6 20 13
f 6 13 8
f 7 8 13
f 7 13 14
f 7 14 15
f 9 16 17
f 9 17 10
f 10 17 18
f 10 18 11
f 11 18 19
f 11 19 12
f 13 20 14
f 14 21 15
f 14 20 22
f 14 22 21
f 15 21 23
f 15 23 24
f 16 25 17
f 17 25 26
f 17 26 27
f 17 27 28
f 17 28 29
f 17 29 18
f 18 29 30
f 18 30 19
f 21 31 38
f 21 38 36
f 21 36 26
f 21 26 34
f 21 34 24
f 21 24 23
f 21 22 32
f 21 32 33
f 21 33 31
f 22 33 32
f 25 35 26
f 26 35 34
f 26 36 37
f 26 37 27
f 27 37 30
f 27 30 28
f 28 30 29
f 31 33 38
f 33 37 36
f 33 36 38

