# https://github.com/mikedh/trimesh
v 0.22189050 0.27940885 -2.76845015
v 0.22189050 0.50669880 -2.76845015
v 0.30105696 0.37755984 -2.76845015
v 0.22189050 0.27940885 -2.17491356
v 0.22189050 0.50696714 -2.70866071
v 0.26878769 0.50692245 -2.70866071
v 0.26806240 0.50665410 -2.76845015
v 0.31009785 0.40698281 -2.76845015
v 0.30158363 0.37925910 -2.17491356
v 0.30105696 0.37755984 -2.17491356
v 0.22189050 0.50779438 -2.17491356
v 0.26495365 0.50777199 -2.17491356
v 0.29825061 0.46377175 -2.70866071
v 0.29705888 0.46462138 -2.76845015
v 0.26829544 0.50768260 -2.17491356
v 0.31009785 0.43432648 -2.76845015
v 0.31009785 0.40698281 -2.17491356
v 0.29750793 0.46377175 -2.76845015
v 0.29825061 0.46377175 -2.23725961
v 0.29752515 0.46377175 -2.17491356
v 0.31009785 0.43432648 -2.17491356
v 0.30938976 0.43602565 -2.17491356
f 1 2 7
f 1 7 14
f 1 14 18
f 1 18 16
f 1 16 8
f 1 8 3
f 1 3 10
f 1 10 4
f 1 4 11
f 1 11 5
f 1 5 2
f 2 5 6
f 2 6 7
f 3 8 9
f 3 9 10
f 4 10 9
f 4 9 17
f 4 17 21
f 4 21 22
f 4 22 20
f 4 20 15
f 4 15 12
f 4 12 11
f 5 11 12
f 5 12 6
f 6 13 14
f 6 14 7
f 6 12 15
f 6 15 13
f 8 16 21
f 8 21 17
f 8 17 9
f 13 16 18
f 13 18 14
f 13 15 19
f 13 19 21
f 13 21 16
f 15 20 19
f 19 20 22
f 19 22 21

