# https://github.com/mikedh/trimesh
v -3.76934549 2.26489292 -3.21569366
v -3.76736278 2.45798209 -3.21569366
v -3.71130791 2.26489292 -3.21569366
v -3.76934549 2.26489292 -2.56997667
v -3.76348834 2.49566024 -3.21569366
v -3.76736278 2.45798209 -2.56997667
v -3.76599368 2.47130950 -2.56997667
v -3.71209766 2.45798209 -3.21569366
v -3.71130791 2.26489292 -2.56997667
v -3.73585569 2.49566024 -3.21569366
v -3.76348834 2.49566024 -2.56997667
v -3.72645356 2.48075167 -3.21569366
v -3.71209766 2.45798209 -2.56997667
v -3.73585569 2.49566024 -2.56997667
f 1 2 5
f 1 5 10
f 1 10 12
f 1 12 8
f 1 8 3
f 1 3 9
f 1 9 4
f 1 4 6
f 1 6 2
f 2 6 7
f 2 7 5
f 3 8 13
f 3 13 9
f 4 9 13
f 4 13 14
f 4 14 11
f 4 11 7
f 4 7 6
f 5 7 11
f 5 11 14
f 5 14 10
f 8 12 13
f 10 14 12
f 12 14 13

