# https://github.com/mikedh/trimesh
v 0.17442448 -0.00705772 -2.85183802
v 0.16035922 0.04199815 -2.85183802
v 0.20494601 -0.00705772 -2.85183802
v 0.17442448 -0.00705772 -2.17894334
v 0.16035922 0.39553721 -2.85183802
v 0.16035922 0.04199815 -2.17894334
v 0.22140264 0.04199815 -2.85183802
v 0.20494601 -0.00705772 -2.17894334
v 0.17144867 0.45446946 -2.85183802
v 0.16035922 0.39553721 -2.17894334
v 0.22188453 0.27935502 -2.85183802
v 0.22140264 0.04199815 -2.17894334
v 0.18456209 0.49462590 -2.85183802
v 0.17437618 0.45446946 -2.17894334
v 0.22188453 0.54731755 -2.85183802
v 0.22188453 0.27935502 -2.17894334
v 0.18832097 0.48371857 -2.17894334
v 0.18872454 0.48420696 -2.17894334
v 0.21795108 0.50710693 -2.17894334
v 0.22188453 0.50710693 -2.17894334
f 1 2 5
f 1 5 9
f 1 9 13
f 1 13 15
f 1 15 11
f 1 11 7
f 1 7 3
f 1 3 8
f 1 8 4
f 1 4 6
f 1 6 2
f 2 6 10
f 2 10 5
f 3 7 12
f 3 12 8
f 4 8 12
f 4 12 16
f 4 16 20
f 4 20 19
f 4 19 18
f 4 18 17
f 4 17 14
f 4 14 10
f 4 10 6
f 5 10 9
f 7 11 16
f 7 16 12
f 9 10 14
f 9 14 13
f 11 15 20
f 11 20 16
f 13 14 17
f 13 17 15
f 15 17 18
f 15 18 19
f 15 19 20

