# https://github.com/mikedh/trimesh
v 0.30888469 2.08977058 -2.10415454
v 0.30105310 2.11922173 -2.10415454
v 0.30888469 2.07213329 -2.10415454
v 0.30874859 2.08939968 -2.82817175
v 0.30128631 2.11799769 -2.82817175
v 0.22203696 2.22007519 -2.10415454
v 0.30105310 2.11885083 -2.82817175
v 0.22203696 2.22007519 -2.82817175
v 0.23408562 2.03062724 -2.10415454
v 0.23346377 2.03062724 -2.82817175
v 0.30874859 2.07281951 -2.82817175
v 0.15950028 2.22007519 -2.10415454
v 0.15950028 2.22007519 -2.82817175
v 0.11338492 2.03062724 -2.10415454
v 0.11338492 2.03062724 -2.82817175
v 0.11997281 2.10126913 -2.10415454
v 0.11997281 2.10126913 -2.82817175
v 0.11035327 2.04551974 -2.10415454
v 0.11035327 2.04551974 -2.82817175
v 0.11284069 2.05994853 -2.10415454
v 0.11968128 2.09965565 -2.82817175
f 1 2 6
f 1 6 12
f 1 12 16
f 1 16 20
f 1 20 18
f 1 18 14
f 1 14 9
f 1 9 3
f 1 3 11
f 1 11 4
f 1 4 5
f 1 5 2
f 2 5 7
f 2 7 8
f 2 8 6
f 3 9 10
f 3 10 11
f 4 11 10
f 4 10 15
f 4 15 19
f 4 19 21
f 4 21 17
f 4 17 13
f 4 13 8
f 4 8 7
f 4 7 5
f 6 8 13
f 6 13 12
f 9 14 15
f 9 15 10
f 12 13 17
f 12 17 16
f 14 18 19
f 14 19 15
f 16 17 21
f 16 21 20
f 18 20 21
f 18 21 19

