# https://github.com/mikedh/trimesh
v 0.22189050 0.50666868 -2.76850828
v 0.26806767 0.50663426 -2.76850828
v 0.25513952 0.63109178 -2.85255976
v 0.24183802 0.63109178 -2.85255976
v 0.23023911 0.63109178 -2.86147991
v 0.22189050 0.54725938 -2.85184294
v 0.22189050 0.27940894 -2.76850828
v 0.29705572 0.46459759 -2.76850828
v 0.31490024 0.63109178 -2.96106208
v 0.23023911 0.63109178 -3.03972426
v 0.22189050 0.27940894 -2.85184294
v 0.30105257 0.37756335 -2.76850828
v 0.29750196 0.46373689 -2.76850828
v 0.31490024 0.57232303 -2.96106208
v 0.31490024 0.63109178 -2.98710580
v 0.31009310 0.43433526 -2.76850828
v 0.23023911 0.51338213 -3.03972426
v 0.23023911 0.45451011 -3.03937913
v 0.23023911 0.39560368 -3.03409606
v 0.23023911 0.33845305 -3.01041510
v 0.23023911 0.32953615 -3.00152146
v 0.23023911 0.30994663 -2.94436328
v 0.29956861 0.37580754 -2.94436328
v 0.30105257 0.37756335 -2.82654256
v 0.31207792 0.40527793 -2.94436328
v 0.31009310 0.40703382 -2.76850828
v 0.31490024 0.51338213 -2.96124791
v 0.31490024 0.45451011 -2.98710580
v 0.31204156 0.40930603 -2.98267227
v 0.31434494 0.45068862 -2.94529247
f 1 2 3
f 1 3 4
f 1 4 5
f 1 5 6
f 1 6 11
f 1 11 7
f 1 7 12
f 1 12 26
f 1 26 16
f 1 16 13
f 1 13 8
f 1 8 2
f 2 8 3
f 3 9 15
f 3 15 10
f 3 10 5
f 3 5 4
f 3 8 9
f 5 10 6
f 6 10 17
f 6 17 11
f 7 11 24
f 7 24 12
f 8 13 9
f 9 14 27
f 9 27 28
f 9 28 15
f 9 13 16
f 9 16 26
f 9 26 14
f 10 15 28
f 10 28 17
f 11 17 18
f 11 18 19
f 11 19 20
f 11 20 21
f 11 21 22
f 11 22 23
f 11 23 24
f 12 24 25
f 12 25 26
f 14 26 27
f 17 28 18
f 18 28 19
f 19 28 29
f 19 29 20
f 20 29 21
f 21 29 23
f 21 23 22
f 23 29 25
f 23 25 24
f 25 29 28
f 25 28 30
f 25 30 26
f 26 30 27
f 27 30 28

