# https://github.com/mikedh/trimesh
v -3.48018462 2.50738726 -3.57968576
v -3.43828756 2.50713868 -3.57968576
v -3.43550036 2.51434789 -3.65151749
v -3.43550036 2.51459648 -3.76934239
v -3.48018462 2.50738726 -3.59259376
v -3.49204800 2.46885527 -3.57968576
v -3.31766624 2.48824556 -3.62171594
v -3.31742231 2.48824556 -3.62182917
v -3.31766624 2.50390699 -3.65151749
v -3.31766624 2.51956834 -3.71041861
v -3.41973443 2.45791712 -3.57968576
v -3.37660068 2.51956834 -3.71041861
v -3.31742231 2.51956834 -3.71064507
v -3.43502988 2.50813302 -3.81101022
v -3.47910440 2.50614434 -3.81101022
v -3.49537540 2.45791712 -3.59259376
v -3.49537540 2.45791712 -3.57968576
v -3.31742231 2.45791712 -3.62135360
v -3.31742231 2.50390699 -3.65174395
v -3.41919441 2.39900041 -3.57968576
v -3.31742231 2.50390699 -3.76673813
v -3.31766624 2.50415558 -3.76662491
v -3.40719158 2.49669778 -3.81101022
v -3.48985316 2.47109262 -3.81101022
v -3.49354618 2.45791712 -3.81101022
v -3.49384245 2.39900041 -3.81101022
v -3.49537540 0.04208288 -3.59259376
v -3.49537540 0.04208288 -3.57968576
v -3.31742231 0.04208288 -3.62135360
v -3.41919441 0.10075101 -3.57968576
v -3.31742231 2.45766853 -3.79479600
v -3.31766624 2.45791712 -3.79477334
v -3.38679185 2.45791712 -3.81101022
v -3.49384245 0.05948441 -3.81101022
v -3.49354618 0.04208288 -3.81101022
v -3.47910440 -0.00614434 -3.81101022
v -3.48018462 -0.00738726 -3.59259376
v -3.48351184 0.00330222 -3.57968576
v -3.41973443 0.04208288 -3.57968576
v -3.31742231 0.01175444 -3.62171594
v -3.31742231 2.39875182 -3.79617735
v -3.38212310 2.40074059 -3.81101022
v -3.46708419 -0.00962461 -3.81101022
v -3.48018462 -0.00738726 -3.57968576
v -3.42048361 0.03984554 -3.57968576
v -3.43828756 -0.00713868 -3.57968576
v -3.31742231 -0.00390699 -3.65151749
v -3.38203600 2.39900041 -3.81101022
v -3.31742231 0.10075101 -3.79617735
v -3.43502988 -0.00813302 -3.81101022
v -3.31742231 -0.01956834 -3.71041861
v -3.43550036 -0.01459648 -3.76934239
v -3.43550036 -0.01434789 -3.65151749
v -3.47326851 -0.00738726 -3.57968576
v -3.38203600 0.10099959 -3.81101022
v -3.31742231 0.04183430 -3.79466011
v -3.31766624 0.04208288 -3.79477334
v -3.38679185 0.04208288 -3.81101022
v -3.41807960 -0.00514992 -3.81101022
v -3.31766624 -0.00415558 -3.76662491
v -3.37660068 -0.01956834 -3.71041861
v -3.31742231 -0.00415558 -3.76639845
v -3.40719158 0.00330222 -3.81101022
v -3.39806306 0.01622914 -3.81101022
f 1 2 3
f 1 3 4
f 1 4 5
f 1 5 6
f 1 6 17
f 1 17 28
f 1 28 38
f 1 38 44
f 1 44 54
f 1 54 46
f 1 46 45
f 1 45 39
f 1 39 30
f 1 30 20
f 1 20 11
f 1 11 2
f 2 7 8
f 2 8 9
f 2 9 10
f 2 10 3
f 2 11 7
f 3 10 12
f 3 12 4
f 4 12 13
f 4 13 14
f 4 14 15
f 4 15 5
f 5 15 16
f 5 16 6
f 6 16 17
f 7 11 18
f 7 18 8
f 8 18 29
f 8 29 40
f 8 40 47
f 8 47 51
f 8 51 62
f 8 62 56
f 8 56 49
f 8 49 41
f 8 41 31
f 8 31 21
f 8 21 13
f 8 13 19
f 8 19 9
f 9 19 13
f 9 13 10
f 10 13 12
f 11 20 18
f 13 21 22
f 13 22 14
f 14 22 23
f 14 23 33
f 14 33 42
f 14 42 48
f 14 48 55
f 14 55 58
f 14 58 64
f 14 64 63
f 14 63 59
f 14 59 50
f 14 50 43
f 14 43 36
f 14 36 35
f 14 35 34
f 14 34 26
f 14 26 25
f 14 25 24
f 14 24 15
f 15 24 16
f 16 24 25
f 16 25 26
f 16 26 34
f 16 34 27
f 16 27 28
f 16 28 17
f 18 20 30
f 18 30 29
f 21 23 22
f 21 31 32
f 21 32 23
f 23 32 31
f 23 31 33
f 27 34 35
f 27 35 36
f 27 36 37
f 27 37 38
f 27 38 28
f 29 30 39
f 29 39 40
f 31 41 33
f 33 41 42
f 36 43 37
f 37 44 38
f 37 43 44
f 39 45 40
f 40 45 46
f 40 46 47
f 41 48 42
f 41 49 55
f 41 55 48
f 43 50 51
f 43 51 52
f 43 52 44
f 44 52 53
f 44 53 54
f 46 54 51
f 46 51 47
f 49 56 57
f 49 57 58
f 49 58 55
f 50 59 60
f 50 60 51
f 51 54 53
f 51 53 61
f 51 61 52
f 51 60 62
f 52 61 53
f 56 62 60
f 56 60 59
f 56 59 63
f 56 63 57
f 57 63 64
f 57 64 58

