# https://github.com/mikedh/trimesh
v -3.37656170 0.52935080 -0.97881804
v -3.42455000 0.53434800 -0.97555948
v -3.37656170 0.56289846 -0.97881804
v -3.31764955 0.53191928 -0.97693948
v -3.31764955 0.51933889 -0.94086532
v -3.37656170 0.51753922 -0.94086532
v -3.49442830 0.52679102 -0.93185639
v -3.42455000 0.55560359 -0.97555948
v -3.53102527 0.53206780 -0.92058553
v -3.37656170 0.58236313 -0.94086532
v -3.31764955 0.57922676 -0.94086532
v -3.31764955 0.55928161 -0.97693948
v -3.49442830 0.56633189 -0.93185639
v -3.28088259 0.53777264 -0.97306767
v -3.26022523 0.52724534 -0.94270542
v -3.19982536 0.52011643 -0.88190435
v -3.25873741 0.51798476 -0.88190435
v -3.53102527 0.50592855 -0.58717646
v -3.49442830 0.51484839 -0.88190435
v -3.14091330 0.51626372 -0.76409763
v -3.53102527 0.52146183 -0.88140595
v -3.53102527 0.55850407 -0.92058553
v -3.49442830 0.58619840 -0.88190435
v -3.25873741 0.58362989 -0.88190435
v -3.19982536 0.57790757 -0.88190435
v -3.26022523 0.56586010 -0.94270542
v -3.28088259 0.55077240 -0.97306767
v -3.53102527 0.56758991 -0.90038232
v -3.53102527 0.57513815 -0.88140595
v -3.16973180 0.54189624 -0.91199826
v -3.19982536 0.53343067 -0.92150558
v -3.15855288 0.53363162 -0.88190435
v -3.13776793 0.52574269 -0.82516704
v -3.53102527 0.51007835 -0.58717646
v -3.53102527 0.51836918 -0.82298185
v -3.14091330 0.51552113 -0.70517495
v -3.14091330 0.51632484 -0.64625245
v -3.19982536 0.51773143 -0.58717646
v -3.09972582 0.52702692 -0.76409763
v -3.09683544 0.52451956 -0.70517495
v -3.53102527 0.58525486 -0.84533179
v -3.53098277 0.59517063 -0.58717646
v -3.14091330 0.58583145 -0.70517495
v -3.14091330 0.58413658 -0.76409763
v -3.13776793 0.56857714 -0.82516704
v -3.15855288 0.55640735 -0.88190435
v -3.19982536 0.55648598 -0.92150558
v -3.16973180 0.54444724 -0.91199826
v -3.10563407 0.53403347 -0.80695724
v -3.53102527 0.59516193 -0.58732977
v -3.10006590 0.52745498 -0.64625245
v -3.13798043 0.52522721 -0.58717646
v -3.09972582 0.56534466 -0.76409763
v -3.09683544 0.56806166 -0.70517495
v -3.20003794 0.58383957 -0.58717646
v -3.14091330 0.58377842 -0.64625245
v -3.10563407 0.55601423 -0.80695724
v -3.10006590 0.56482923 -0.64625245
v -3.10601665 0.53451400 -0.60442774
v -3.13551513 0.52612706 -0.58717646
v -3.13798043 0.56880425 -0.58717646
v -3.13704536 0.56835872 -0.58717646
v -3.13551513 0.56745886 -0.58717646
v -3.10601665 0.55538517 -0.60442774
f 1 2 8
f 1 8 3
f 1 3 12
f 1 12 4
f 1 4 5
f 1 5 6
f 1 6 7
f 1 7 2
f 2 7 9
f 2 9 22
f 2 22 8
f 3 10 11
f 3 11 12
f 3 8 13
f 3 13 10
f 4 12 27
f 4 27 14
f 4 14 15
f 4 15 5
f 5 15 16
f 5 16 17
f 5 17 6
f 6 18 19
f 6 19 7
f 6 17 20
f 6 20 18
f 7 19 21
f 7 21 9
f 8 22 13
f 9 21 35
f 9 35 18
f 9 18 34
f 9 34 50
f 9 50 41
f 9 41 29
f 9 29 28
f 9 28 22
f 10 13 23
f 10 23 24
f 10 24 11
f 11 24 25
f 11 25 26
f 11 26 12
f 12 26 27
f 13 22 28
f 13 28 29
f 13 29 23
f 14 27 48
f 14 48 30
f 14 30 31
f 14 31 15
f 15 31 16
f 16 31 32
f 16 32 33
f 16 33 20
f 16 20 17
f 18 35 19
f 18 20 36
f 18 36 37
f 18 37 38
f 18 38 52
f 18 52 60
f 18 60 63
f 18 63 62
f 18 62 61
f 18 61 55
f 18 55 42
f 18 42 34
f 19 35 21
f 20 33 39
f 20 39 40
f 20 40 36
f 23 29 41
f 23 41 42
f 23 42 24
f 24 43 44
f 24 44 25
f 24 42 43
f 25 44 45
f 25 45 46
f 25 46 47
f 25 47 26
f 26 47 27
f 27 47 48
f 30 48 57
f 30 57 49
f 30 49 32
f 30 32 31
f 32 49 33
f 33 49 39
f 34 42 50
f 36 40 37
f 37 40 51
f 37 51 52
f 37 52 38
f 39 49 57
f 39 57 53
f 39 53 54
f 39 54 40
f 40 54 58
f 40 58 51
f 41 50 42
f 42 55 43
f 43 56 54
f 43 54 44
f 43 55 56
f 44 54 53
f 44 53 45
f 45 53 57
f 45 57 46
f 46 48 47
f 46 57 48
f 51 58 64
f 51 64 59
f 51 59 60
f 51 60 52
f 54 56 58
f 55 61 56
f 56 61 58
f 58 61 62
f 58 62 63
f 58 63 64
f 59 64 63
f 59 63 60

