# https://github.com/mikedh/trimesh
v 0.22189050 0.27940885 -2.17491356
v 0.30105696 0.37755721 -2.17491356
v 0.22189050 0.27940885 -2.10415454
v 0.22189050 0.50778569 -2.17491356
v 0.30158363 0.37927113 -2.17491356
v 0.30105696 0.37755721 -2.11940626
v 0.30105696 0.37765423 -2.10415454
v 0.22189050 0.56007763 -2.10415454
v 0.23167406 0.60978240 -2.10415454
v 0.26722471 0.60978240 -2.10415454
v 0.26495365 0.50775337 -2.17491356
v 0.31009785 0.40701793 -2.17491356
v 0.31009785 0.40701793 -2.11940626
v 0.31006342 0.40711487 -2.10415454
v 0.31009785 0.43434422 -2.11940626
v 0.31009785 0.43434422 -2.17491356
v 0.30938976 0.43605814 -2.17491356
v 0.29752515 0.46377254 -2.17491356
v 0.26829544 0.50765634 -2.17491356
v 0.31006342 0.43408554 -2.10415454
f 1 2 6
f 1 6 3
f 1 3 8
f 1 8 4
f 1 4 11
f 1 11 19
f 1 19 18
f 1 18 17
f 1 17 16
f 1 16 12
f 1 12 5
f 1 5 2
f 2 5 6
f 3 6 7
f 3 7 14
f 3 14 20
f 3 20 10
f 3 10 9
f 3 9 8
f 4 8 9
f 4 9 10
f 4 10 11
f 5 12 13
f 5 13 6
f 6 13 7
f 7 13 14
f 10 15 16
f 10 16 17
f 10 17 18
f 10 18 19
f 10 19 11
f 10 20 15
f 12 16 15
f 12 15 13
f 13 15 20
f 13 20 14

