# https://github.com/mikedh/trimesh
v -1.64639303 2.51291750 -6.24429594
v -1.64639303 2.50179583 -6.20647476
v -1.64639303 2.50775509 -6.25736230
v -1.78560524 2.51291750 -6.24429594
v -2.37872671 2.50179583 -6.20643366
v -1.90345534 2.45800185 -6.19810665
v -1.64639303 2.45800185 -6.20310293
v -2.37872671 2.49892011 -6.20583745
v -2.37872671 2.45800185 -6.19802447
v -1.64639303 2.49857362 -6.28044140
v -1.78560524 2.49857362 -6.28044140
v -2.37872671 2.51142766 -6.24429594
v -2.37872671 2.51080405 -6.24175671
v -1.90345534 2.15899762 -6.20171504
v -1.64639303 2.15899762 -6.23894001
v -1.85220059 2.15899762 -6.20611492
v -1.84811455 2.15899762 -6.20647476
v -2.37872671 2.15899762 -6.20678314
v -1.64639303 2.45800185 -6.29224315
v -1.84453030 2.45800185 -6.29343593
v -2.37872671 2.49708378 -6.27835473
v -2.37872671 2.49805389 -6.27610334
v -1.64639303 2.15899762 -6.29291154
v -2.37872671 2.15899762 -6.27361539
v -1.64639303 2.39906723 -6.29713651
v -1.84453030 2.39906723 -6.30155712
v -2.37872671 2.45800185 -6.28123308
v -1.84453030 2.15899762 -6.30303756
v -1.84453030 2.28123250 -6.30303756
v -1.84453030 2.34013252 -6.30293465
f 1 2 7
f 1 7 15
f 1 15 23
f 1 23 25
f 1 25 19
f 1 19 10
f 1 10 3
f 1 3 4
f 1 4 5
f 1 5 2
f 2 6 7
f 2 5 8
f 2 8 9
f 2 9 6
f 3 10 11
f 3 11 4
f 4 11 12
f 4 12 13
f 4 13 5
f 5 13 12
f 5 12 22
f 5 22 21
f 5 21 27
f 5 27 24
f 5 24 18
f 5 18 9
f 5 9 8
f 6 14 7
f 6 9 14
f 7 14 16
f 7 16 17
f 7 17 15
f 9 18 14
f 10 19 20
f 10 20 11
f 11 20 21
f 11 21 22
f 11 22 12
f 14 18 24
f 14 24 28
f 14 28 23
f 14 23 15
f 14 15 17
f 14 17 16
f 19 25 26
f 19 26 20
f 20 26 21
f 21 26 27
f 23 28 25
f 24 27 28
f 25 28 29
f 25 29 30
f 25 30 26
f 26 30 27
f 27 30 29
f 27 29 28

