# https://github.com/mikedh/trimesh
v 0.12336167 1.95885698 -6.18179035
v 0.12337256 1.81000297 -6.18179035
v 0.14295532 2.08208826 -6.14439696
v 0.12336167 2.10440220 -6.18179035
v 0.22370602 1.81000297 -6.18179035
v 0.15339517 1.81000297 -6.14439696
v 0.14402324 1.96180258 -6.14439696
v 0.14295532 2.10646007 -6.14439696
v 0.12337256 2.22218610 -6.18179035
v 0.23467991 1.81024506 -6.14439696
v 0.18013762 1.81000297 -6.14439696
v 0.22370602 2.04040589 -6.18179035
v 0.15327522 2.22218610 -6.14439696
v 0.22226754 2.22218610 -6.18179035
v 0.23467991 1.98702179 -6.14439696
v 0.22353163 2.09939873 -6.18179035
v 0.23450552 2.04670058 -6.14439696
v 0.22168994 2.22218610 -6.14439696
v 0.22285603 2.21871592 -6.18179035
v 0.22866436 2.18131077 -6.14439696
v 0.22325925 2.15879504 -6.18179035
v 0.23320860 2.11101976 -6.14439696
f 1 2 3
f 1 3 8
f 1 8 4
f 1 4 9
f 1 9 14
f 1 14 19
f 1 19 21
f 1 21 16
f 1 16 12
f 1 12 5
f 1 5 2
f 2 5 11
f 2 11 6
f 2 6 7
f 2 7 3
f 3 7 6
f 3 6 11
f 3 11 10
f 3 10 15
f 3 15 17
f 3 17 22
f 3 22 20
f 3 20 18
f 3 18 13
f 3 13 8
f 4 8 9
f 5 10 11
f 5 12 15
f 5 15 10
f 8 13 9
f 9 13 18
f 9 18 14
f 12 16 17
f 12 17 15
f 14 18 20
f 14 20 19
f 16 21 17
f 17 21 19
f 17 19 22
f 19 20 22

