# https://github.com/mikedh/trimesh
v -2.53450626 2.50170249 -5.15404550
v -2.54708906 2.50170249 -5.15404550
v -2.51481365 2.50096771 -5.15404550
v -2.51481365 2.50096771 -5.18360834
v -2.51480759 2.50072272 -5.24247430
v -2.54057713 2.50096771 -5.24247430
v -2.56811065 2.45786101 -5.15404550
v -2.51113485 2.47941436 -5.15404550
v -2.50748019 2.45786101 -5.24247430
v -2.55901339 2.45786101 -5.24247430
v -2.56918594 2.39883401 -5.15404550
v -2.50748019 2.45786101 -5.15404550
v -2.50748019 0.10094998 -5.24247430
v -2.55901339 0.04216797 -5.24247430
v -2.56918594 0.10094998 -5.15404550
v -2.50748019 0.04216797 -5.15404550
v -2.50748019 0.04216797 -5.18360834
v -2.50748625 0.04216797 -5.24247430
v -2.54059531 0.00151058 -5.24247430
v -2.56409361 0.03335082 -5.15404550
v -2.56805024 0.04216797 -5.15404550
v -2.56914968 0.09335740 -5.15404550
v -2.51115899 0.02110459 -5.15404550
v -2.51481365 0.00053082 -5.15404550
v -2.51481365 0.00077581 -5.18360834
v -2.51481365 0.00151058 -5.24247430
v -2.54704068 -0.00044894 -5.15404550
f 1 2 7
f 1 7 11
f 1 11 15
f 1 15 22
f 1 22 21
f 1 21 20
f 1 20 27
f 1 27 24
f 1 24 23
f 1 23 16
f 1 16 12
f 1 12 8
f 1 8 3
f 1 3 4
f 1 4 5
f 1 5 6
f 1 6 2
f 2 6 7
f 3 8 4
f 4 8 9
f 4 9 5
f 5 9 13
f 5 13 18
f 5 18 26
f 5 26 19
f 5 19 14
f 5 14 10
f 5 10 6
f 6 10 7
f 7 10 11
f 8 12 9
f 9 12 16
f 9 16 17
f 9 17 13
f 10 14 15
f 10 15 11
f 13 17 18
f 14 19 20
f 14 20 21
f 14 21 22
f 14 22 15
f 16 23 17
f 17 23 18
f 18 23 24
f 18 24 25
f 18 25 26
f 19 27 20
f 19 26 27
f 24 27 25
f 25 27 26

