# https://github.com/mikedh/trimesh
v -1.96231348 0.03970232 -5.53726507
v -1.99401160 0.05656980 -5.47810811
v -1.99393217 0.05698522 -5.53726507
v -1.92796832 0.05424324 -5.53726507
v -1.96231348 0.03970232 -5.53699988
v -1.99914683 0.05150126 -4.18222644
v -1.99663214 0.10094041 -5.53699988
v -1.99661892 0.10085734 -5.53726507
v -2.00716730 0.10071887 -4.18222644
v -1.87269845 0.28030642 -5.53726507
v -1.87394254 0.24815017 -5.29135262
v -1.87371756 0.24792863 -5.06573401
v -1.87339991 0.24756853 -4.71052704
v -1.87297639 0.24709770 -4.18222644
v -1.93209768 0.06133373 -4.18222644
v -1.96232669 0.04133643 -4.18222644
v -1.99716155 0.15974121 -5.53726507
v -2.00789523 0.15987969 -4.18222644
v -1.87355873 0.24776241 -4.88905887
v -1.87388961 0.24812251 -5.24240897
v -1.90464803 0.32262751 -5.53726507
v -1.87782044 0.28584579 -4.18222644
v -1.87297639 0.25637620 -4.18222644
v -1.87306903 0.24720843 -4.29974445
v -1.99627480 0.21876364 -5.53699988
v -1.99626157 0.21862517 -5.53726507
v -2.00661143 0.21843129 -4.18222644
v -1.95494151 0.32251669 -5.53726507
v -1.95487533 0.32262751 -5.53699988
v -1.95487533 0.32265517 -5.15393872
v -1.90557450 0.32265517 -5.15393872
v -1.90638184 0.32265517 -4.71052704
v -1.90726859 0.32262751 -4.18222644
v -1.99357484 0.25579456 -5.53699988
v -1.99357484 0.25573915 -5.53726507
v -2.00659819 0.21876364 -4.18222644
v -1.98432348 0.28523649 -5.53726507
v -1.98482642 0.29121903 -4.18222644
v -1.95553709 0.32246129 -4.18222644
v -1.95510031 0.32262751 -4.18222644
v -1.95487533 0.32265517 -4.71052704
v -1.99848506 0.26194331 -4.18222644
f 1 2 3
f 1 3 8
f 1 8 17
f 1 17 26
f 1 26 35
f 1 35 37
f 1 37 28
f 1 28 21
f 1 21 10
f 1 10 4
f 1 4 5
f 1 5 6
f 1 6 2
f 2 6 3
f 3 7 8
f 3 6 9
f 3 9 7
f 4 10 11
f 4 11 12
f 4 12 13
f 4 13 14
f 4 14 15
f 4 15 16
f 4 16 5
f 5 16 6
f 6 16 15
f 6 15 14
f 6 14 23
f 6 23 22
f 6 22 33
f 6 33 40
f 6 40 39
f 6 39 38
f 6 38 42
f 6 42 36
f 6 36 27
f 6 27 18
f 6 18 9
f 7 17 8
f 7 9 18
f 7 18 17
f 10 19 12
f 10 12 20
f 10 20 11
f 10 21 22
f 10 22 23
f 10 23 14
f 10 14 24
f 10 24 13
f 10 13 19
f 11 20 12
f 12 19 13
f 13 24 14
f 17 25 26
f 17 18 25
f 18 27 25
f 21 28 29
f 21 29 30
f 21 30 31
f 21 31 32
f 21 32 33
f 21 33 22
f 25 34 35
f 25 35 26
f 25 27 36
f 25 36 34
f 28 37 29
f 29 37 38
f 29 38 39
f 29 39 30
f 30 39 40
f 30 40 41
f 30 41 32
f 30 32 31
f 32 41 40
f 32 40 33
f 34 37 35
f 34 36 42
f 34 42 37
f 37 42 38

