# https://github.com/mikedh/trimesh
v -3.83716031 2.10441002 -2.64974576
v -3.83714608 2.10437691 -2.64983173
v -3.82358817 1.99535705 -2.56997667
v -3.83002819 2.04595922 -2.56997667
v -3.83716031 2.10441002 -2.56997667
v -3.83382729 2.11874950 -2.56997667
v -3.82774026 2.14491154 -2.64974576
v -3.82775431 2.14484534 -2.64983173
v -3.82795206 2.06178898 -2.64983173
v -3.79576603 1.92657393 -2.56997667
v -3.82774026 2.14491154 -2.56997667
v -3.76934197 2.26485982 -2.64974576
v -3.76934197 2.26482671 -2.64983173
v -3.78907173 2.04304496 -2.64983173
v -3.78919887 1.92657393 -2.57111010
v -3.77504774 1.92657393 -2.56997667
v -3.76934197 2.26485982 -2.56997667
v -3.71160751 2.26485982 -2.64983173
v -3.73015098 2.05105920 -2.64983173
v -3.78818206 1.92657393 -2.57106321
v -3.78884571 1.92657393 -2.57111792
v -3.75391973 1.94323159 -2.56997667
v -3.69686332 2.06983632 -2.64983173
v -3.71131107 2.26485982 -2.56997667
v -3.71131107 2.26485982 -2.64983173
v -3.74002288 1.96061779 -2.56997667
v -3.69292302 2.10441002 -2.64983173
v -3.69651016 2.05764936 -2.56997667
v -3.69676445 2.15769455 -2.56997667
v -3.69676445 2.15769455 -2.64983173
v -3.69289475 2.10441002 -2.56997667
v -3.69399639 2.08328157 -2.56997667
v -3.69536619 2.13885121 -2.56997667
f 1 2 3
f 1 3 4
f 1 4 5
f 1 5 6
f 1 6 7
f 1 7 8
f 1 8 2
f 2 9 3
f 2 8 13
f 2 13 18
f 2 18 25
f 2 25 30
f 2 30 27
f 2 27 23
f 2 23 19
f 2 19 14
f 2 14 9
f 3 10 16
f 3 16 22
f 3 22 26
f 3 26 28
f 3 28 32
f 3 32 31
f 3 31 33
f 3 33 29
f 3 29 24
f 3 24 17
f 3 17 11
f 3 11 6
f 3 6 5
f 3 5 4
f 3 9 10
f 6 11 7
f 7 11 17
f 7 17 12
f 7 12 13
f 7 13 8
f 9 14 10
f 10 15 21
f 10 21 20
f 10 20 16
f 10 14 15
f 12 17 24
f 12 24 25
f 12 25 18
f 12 18 13
f 14 19 16
f 14 16 20
f 14 20 21
f 14 21 15
f 16 19 23
f 16 23 22
f 22 23 26
f 23 27 28
f 23 28 26
f 24 29 30
f 24 30 25
f 27 31 32
f 27 32 28
f 27 30 33
f 27 33 31
f 29 33 30

