# https://github.com/mikedh/trimesh
v -0.48606184 2.33998131 -1.70692635
v -0.48606184 2.33998131 -1.66511324
v -0.48606184 2.45797770 -1.70692635
v -0.48536464 2.33679889 -1.70931631
v -0.47286588 0.10098809 -1.75208758
v -0.48536464 0.10098809 -1.70874977
v -0.48587481 0.10123281 -1.70692635
v -0.48604480 2.32284497 -1.66511324
v -0.48606184 2.45797770 -1.66511324
v -0.47286588 2.50644921 -1.70692635
v -0.46847846 2.49983946 -1.74685440
v -0.48536464 2.45797770 -1.70931631
v -0.43021692 0.15998620 -1.76964111
v -0.43021692 0.10098809 -1.76906421
v -0.46847846 0.05545420 -1.74685440
v -0.47286588 2.45773289 -1.75208758
v -0.48536464 0.09976405 -1.70812142
v -0.48536464 0.09878481 -1.70692635
v -0.48536464 0.10098809 -1.70498983
v -0.48536464 2.31892803 -1.66511324
v -0.48174256 0.10098809 -1.69161861
v -0.48536464 2.46042579 -1.66511324
v -0.47286588 2.50644921 -1.69161861
v -0.42938371 2.51061096 -1.70584473
v -0.43021692 2.50669402 -1.75243776
v -0.43021692 2.45773289 -1.76906421
v -0.37134517 0.15998620 -1.77035182
v -0.43021692 2.39873470 -1.76964111
v -0.37134517 0.10098809 -1.76976456
v -0.31235426 0.04198990 -1.75757822
v -0.43021692 0.04517232 -1.75243776
v -0.35682278 0.01138916 -1.73839709
v -0.43021692 0.02216057 -1.70692635
v -0.47278079 0.04737560 -1.70692635
v -0.47118233 0.05031330 -1.69161861
v -0.43047200 0.02779117 -1.69161861
v -0.41960576 0.02950474 -1.69161861
v -0.37909949 0.03978662 -1.69161861
v -0.35786005 0.10098809 -1.69161861
v -0.35723091 0.15998620 -1.69161861
v -0.35723091 2.16323163 -1.69161861
v -0.35724786 2.22198501 -1.69161861
v -0.35888038 2.28098321 -1.69161861
v -0.31235426 2.45773289 -1.70771961
v -0.43269969 2.50938691 -1.69161861
v -0.44006292 2.50938691 -1.69161861
v -0.31238833 2.50718364 -1.72204882
v -0.31235426 2.50718364 -1.72206937
v -0.31238833 2.50718364 -1.75278794
v -0.37134517 2.50718364 -1.75278794
v -0.37134517 2.45773289 -1.76976456
v -0.37134517 2.39873470 -1.77035182
v -0.31235426 0.10098809 -1.76920839
v -0.31235426 0.00967550 -1.74114759
v -0.35682278 0.01138916 -1.73468860
v -0.31235426 0.00967550 -1.73236046
v -0.31235426 0.04223470 -1.71761926
v -0.31235426 0.10098809 -1.70684399
v -0.31235426 2.22222982 -1.70684399
v -0.31235426 2.28098321 -1.70689544
v -0.31235426 2.50693883 -1.75279830
v -0.31238833 2.45773289 -1.76920839
v -0.31235426 2.45748809 -1.76920839
f 1 2 9
f 1 9 3
f 1 3 12
f 1 12 4
f 1 4 5
f 1 5 6
f 1 6 7
f 1 7 2
f 2 7 8
f 2 8 20
f 2 20 22
f 2 22 9
f 3 9 23
f 3 23 10
f 3 10 11
f 3 11 12
f 4 12 16
f 4 16 5
f 5 13 14
f 5 14 15
f 5 15 6
f 5 16 28
f 5 28 13
f 6 15 17
f 6 17 7
f 7 17 18
f 7 18 19
f 7 19 8
f 8 19 21
f 8 21 20
f 9 22 23
f 10 23 24
f 10 24 25
f 10 25 11
f 11 25 26
f 11 26 16
f 11 16 12
f 13 27 14
f 13 28 52
f 13 52 27
f 14 27 29
f 14 29 30
f 14 30 31
f 14 31 15
f 15 31 32
f 15 32 33
f 15 33 34
f 15 34 18
f 15 18 17
f 16 26 28
f 18 34 35
f 18 35 19
f 19 35 21
f 20 21 35
f 20 35 36
f 20 36 37
f 20 37 38
f 20 38 39
f 20 39 40
f 20 40 41
f 20 41 22
f 22 41 42
f 22 42 43
f 22 43 44
f 22 44 45
f 22 45 46
f 22 46 23
f 23 46 24
f 24 45 47
f 24 47 48
f 24 48 49
f 24 49 50
f 24 50 25
f 24 46 45
f 25 50 51
f 25 51 26
f 26 51 52
f 26 52 28
f 27 53 29
f 27 52 63
f 27 63 53
f 29 53 30
f 30 54 31
f 30 53 63
f 30 63 61
f 30 61 48
f 30 48 44
f 30 44 60
f 30 60 59
f 30 59 58
f 30 58 57
f 30 57 56
f 30 56 54
f 31 54 32
f 32 54 56
f 32 56 55
f 32 55 33
f 33 55 56
f 33 56 36
f 33 36 35
f 33 35 34
f 36 56 37
f 37 56 38
f 38 56 57
f 38 57 58
f 38 58 39
f 39 58 40
f 40 58 59
f 40 59 41
f 41 59 42
f 42 59 60
f 42 60 44
f 42 44 43
f 44 48 47
f 44 47 45
f 48 61 49
f 49 61 62
f 49 62 51
f 49 51 50
f 51 62 52
f 52 62 63
f 61 63 62

