# https://github.com/mikedh/trimesh
v -2.29810773 0.66482454 -4.10837675
v -2.30014017 0.66482454 -4.12146076
v -2.55039029 0.66482454 -4.10837675
v -2.05742965 0.64612547 -4.10837675
v -2.32210346 0.66482454 -4.17534730
v -2.54652217 0.66482454 -4.11938094
v -2.61051067 0.64414066 -4.18564059
v -2.66564830 0.62862776 -4.18564059
v -2.66938532 0.62755698 -4.18564059
v -2.66938532 0.62755698 -4.10837675
v -2.05152906 0.63032526 -4.10837675
v -2.10738790 0.60488825 -4.18564059
v -2.13918544 0.62606837 -4.18564059
v -2.05913427 0.64612547 -4.10945073
v -2.33698599 0.66482454 -4.18176835
v -2.08319552 0.64612547 -4.12460701
v -2.19806013 0.64414066 -4.18564059
v -2.49984204 0.66482454 -4.16785991
v -2.48935210 0.66482454 -4.17707167
v -2.46030815 0.66482454 -4.18564059
v -2.69928157 0.60773490 -4.18564059
v -2.67725283 0.62233377 -4.10837675
v -2.04366162 0.57229546 -4.10837675
v -2.10292967 0.57433251 -4.18564059
v -2.35009840 0.66482454 -4.18564059
v -2.70124847 0.60637686 -4.18564059
v -2.70124847 0.60637686 -4.10837675
v -2.03913786 0.51342994 -4.10837675
v -2.10050388 0.51724287 -4.18564059
v -2.03605644 0.45675818 -4.10837675
v -2.70144516 0.60418315 -4.18564059
v -2.70314978 0.58070483 -4.10837675
v -2.10050388 0.51342994 -4.18564059
v -2.03395846 0.39807539 -4.10837675
v -2.70373985 0.57232158 -4.18564059
v -2.70373985 0.57232158 -4.10837675
v -2.10496209 0.47255835 -4.18564059
v -2.03546639 0.39807539 -4.10935994
v -2.10568328 0.47065186 -4.18564059
v -2.14056227 0.39807539 -4.10837675
v -2.70373985 0.51342994 -4.18564059
v -2.70373985 0.51342994 -4.10837675
v -2.08299883 0.39807539 -4.12853975
v -2.15446139 0.41938613 -4.18564059
v -2.12535190 0.44309947 -4.18564059
v -2.13636627 0.39807539 -4.12448601
v -2.61051067 0.41938613 -4.10837675
v -2.61057626 0.41622609 -4.18564059
v -2.70124847 0.47347243 -4.18564059
v -2.70190405 0.48370987 -4.10837675
v -2.13400608 0.39807539 -4.12542380
v -2.19799458 0.41609552 -4.18564059
v -2.15780503 0.41886376 -4.18564059
v -2.64099699 0.42150151 -4.10837675
v -2.65102800 0.42220661 -4.10837675
v -2.65351938 0.41946445 -4.18564059
v -2.68118654 0.44171526 -4.18564059
v -2.70124847 0.47396863 -4.10837675
v -2.68046537 0.44450975 -4.10837675
v -2.69613462 0.46670831 -4.10837675
f 1 2 5
f 1 5 15
f 1 15 25
f 1 25 20
f 1 20 19
f 1 19 18
f 1 18 6
f 1 6 3
f 1 3 10
f 1 10 22
f 1 22 27
f 1 27 32
f 1 32 36
f 1 36 42
f 1 42 50
f 1 50 58
f 1 58 60
f 1 60 59
f 1 59 55
f 1 55 54
f 1 54 47
f 1 47 40
f 1 40 34
f 1 34 30
f 1 30 28
f 1 28 23
f 1 23 11
f 1 11 4
f 1 4 2
f 2 4 5
f 3 6 7
f 3 7 8
f 3 8 9
f 3 9 10
f 4 11 12
f 4 12 13
f 4 13 14
f 4 14 5
f 5 14 16
f 5 16 17
f 5 17 15
f 6 18 7
f 7 18 19
f 7 19 20
f 7 20 25
f 7 25 17
f 7 17 13
f 7 13 12
f 7 12 24
f 7 24 29
f 7 29 33
f 7 33 37
f 7 37 39
f 7 39 45
f 7 45 44
f 7 44 53
f 7 53 52
f 7 52 48
f 7 48 56
f 7 56 57
f 7 57 49
f 7 49 41
f 7 41 35
f 7 35 31
f 7 31 26
f 7 26 21
f 7 21 9
f 7 9 8
f 9 21 10
f 10 21 22
f 11 23 24
f 11 24 12
f 13 17 16
f 13 16 14
f 15 17 25
f 21 26 27
f 21 27 22
f 23 28 24
f 24 28 30
f 24 30 29
f 26 31 27
f 27 31 32
f 29 30 34
f 29 34 33
f 31 35 32
f 32 35 36
f 33 34 37
f 34 38 39
f 34 39 37
f 34 40 46
f 34 46 51
f 34 51 43
f 34 43 38
f 35 41 42
f 35 42 36
f 38 43 44
f 38 44 45
f 38 45 39
f 40 47 48
f 40 48 46
f 41 49 50
f 41 50 42
f 43 51 48
f 43 48 52
f 43 52 53
f 43 53 44
f 46 48 51
f 47 54 48
f 48 54 55
f 48 55 56
f 49 57 58
f 49 58 50
f 55 59 56
f 56 59 57
f 57 59 60
f 57 60 58

