# https://github.com/mikedh/trimesh
v -0.48917007 2.45776775 -0.35515207
v -0.48538062 2.46172719 -0.35678601
v -0.48917007 2.50627114 -0.36812694
v -0.51536723 2.45776775 -0.35515207
v -0.48917007 1.42261390 -0.35515207
v -0.48685123 1.42236643 -0.35567682
v -0.48538062 2.22217925 -0.35602278
v -0.48538062 2.28107629 -0.35603472
v -0.48538062 2.45776775 -0.35623738
v -0.48538062 2.50552881 -0.36853261
v -0.49005359 2.51023057 -0.41136904
v -0.51536723 2.50627114 -0.36812694
v -0.48538062 2.50627114 -0.37162134
v -0.51536723 1.42261390 -0.35515207
v -0.48917007 0.04224384 -0.35516402
v -0.48538062 0.04620328 -0.35602278
v -0.48538062 2.50973569 -0.41128544
v -0.48538062 2.50973569 -0.41711713
v -0.48538062 2.50899336 -0.42913804
v -0.51536723 2.50849847 -0.40544200
v -0.51536723 2.50849847 -0.39250279
v -0.51536723 0.04224384 -0.35516402
v -0.48917007 -0.00625972 -0.36811499
v -0.48538062 -0.00576466 -0.36850872
v -0.48538062 0.04224384 -0.35610602
v -0.48538062 2.47261573 -0.47698321
v -0.49024431 2.45776775 -0.47698321
v -0.51536723 2.46766635 -0.42131487
v -0.51536723 -0.00625972 -0.36811499
v -0.48917007 -0.01789059 -0.41052222
v -0.48538062 -0.01615832 -0.40702816
v -0.48538062 2.28652056 -0.47698321
v -0.49105153 2.39887054 -0.47698321
v -0.51536723 1.17044518 -0.46223129
v -0.51536723 2.45776775 -0.42471357
v -0.51536723 -0.01764315 -0.41052222
v -0.48917007 -0.01541599 -0.46223129
v -0.48555088 -0.01442604 -0.46223129
v -0.48538062 -0.01640576 -0.41052222
v -0.49081085 2.33997350 -0.47698321
v -0.48538062 -0.01294121 -0.46223129
v -0.51147804 -0.01120893 -0.46223129
v -0.51536723 -0.01021916 -0.46223129
v -0.49105153 2.39144655 -0.47698321
f 1 2 3
f 1 3 12
f 1 12 4
f 1 4 14
f 1 14 5
f 1 5 6
f 1 6 7
f 1 7 8
f 1 8 9
f 1 9 2
f 2 10 3
f 2 9 8
f 2 8 7
f 2 7 16
f 2 16 25
f 2 25 24
f 2 24 31
f 2 31 39
f 2 39 41
f 2 41 32
f 2 32 26
f 2 26 19
f 2 19 18
f 2 18 17
f 2 17 13
f 2 13 10
f 3 11 12
f 3 10 13
f 3 13 11
f 4 12 21
f 4 21 20
f 4 20 28
f 4 28 35
f 4 35 34
f 4 34 43
f 4 43 36
f 4 36 29
f 4 29 22
f 4 22 14
f 5 14 22
f 5 22 15
f 5 15 6
f 6 15 16
f 6 16 7
f 11 17 18
f 11 18 19
f 11 19 20
f 11 20 21
f 11 21 12
f 11 13 17
f 15 22 29
f 15 29 23
f 15 23 24
f 15 24 25
f 15 25 16
f 19 26 20
f 20 26 27
f 20 27 28
f 23 29 30
f 23 30 24
f 24 30 31
f 26 32 40
f 26 40 44
f 26 44 33
f 26 33 27
f 27 33 34
f 27 34 35
f 27 35 28
f 29 36 30
f 30 36 37
f 30 37 38
f 30 38 39
f 30 39 31
f 32 41 38
f 32 38 37
f 32 37 42
f 32 42 43
f 32 43 40
f 33 44 43
f 33 43 34
f 36 43 42
f 36 42 37
f 38 41 39
f 40 43 44

