# https://github.com/mikedh/trimesh
v -2.72773066 0.30405462 -0.35517807
v -2.72773066 0.30405462 -0.49691317
v -2.98040397 0.30405462 -0.35517807
v -2.72773066 0.04202730 -0.35517807
v -2.72773066 0.27282386 -0.56227709
v -2.72775542 0.25260809 -0.62120908
v -2.72842329 0.25277010 -0.62120908
v -2.73139155 0.25293210 -0.62225487
v -2.84623853 0.26644163 -0.62225487
v -2.78734325 0.30405462 -0.49691317
v -2.98040397 0.30405462 -0.49142254
v -2.98040397 0.04202730 -0.35517807
v -2.72773066 -0.00634147 -0.36812026
v -2.72773066 0.10189708 -0.56227709
v -2.72775542 0.23987611 -0.62120908
v -2.73139155 0.23961690 -0.62225487
v -2.89241974 0.25818039 -0.62225487
v -2.90829991 0.30405462 -0.49497841
v -2.84626329 0.30405462 -0.49683467
v -2.84505128 0.30405462 -0.49686084
v -2.91901037 0.21872079 -0.62225487
v -2.92482326 0.15982296 -0.62225487
v -2.98040397 0.21875319 -0.50054737
v -2.98040397 -0.00634147 -0.36812026
v -2.98040397 -0.02691357 -0.41052819
v -2.72773066 -0.02684876 -0.41052819
v -2.72773066 0.04753480 -0.55984551
v -2.72773066 0.01808592 -0.55409356
v -2.86882204 0.01021341 -0.62225487
v -2.98040397 0.15982296 -0.50331876
v -2.98040397 0.20430412 -0.50193315
v -2.92079138 0.10095753 -0.62225487
v -2.98040397 0.10095753 -0.50331876
v -2.98040397 -0.00796126 -0.46553849
v -2.88584011 0.01021341 -0.62225487
v -2.72773066 -0.01249690 -0.46946035
v -2.72773066 0.01795632 -0.55377974
v -2.91376648 0.06603357 -0.62225487
v -2.98040397 0.03810729 -0.49304365
v -2.90839887 0.04205970 -0.62225487
v -2.89575899 0.02333421 -0.62225487
f 1 2 10
f 1 10 20
f 1 20 19
f 1 19 18
f 1 18 11
f 1 11 3
f 1 3 12
f 1 12 4
f 1 4 13
f 1 13 26
f 1 26 36
f 1 36 37
f 1 37 28
f 1 28 27
f 1 27 14
f 1 14 5
f 1 5 2
f 2 5 6
f 2 6 7
f 2 7 8
f 2 8 9
f 2 9 10
f 3 11 23
f 3 23 31
f 3 31 30
f 3 30 33
f 3 33 39
f 3 39 34
f 3 34 25
f 3 25 24
f 3 24 12
f 4 12 24
f 4 24 13
f 5 14 15
f 5 15 6
f 6 15 16
f 6 16 8
f 6 8 7
f 8 16 29
f 8 29 35
f 8 35 41
f 8 41 40
f 8 40 38
f 8 38 32
f 8 32 22
f 8 22 21
f 8 21 17
f 8 17 9
f 9 17 11
f 9 11 18
f 9 18 19
f 9 19 20
f 9 20 10
f 11 17 21
f 11 21 22
f 11 22 23
f 13 24 25
f 13 25 26
f 14 27 15
f 15 27 28
f 15 28 29
f 15 29 16
f 22 30 31
f 22 31 23
f 22 32 33
f 22 33 30
f 25 29 26
f 25 34 35
f 25 35 29
f 26 29 36
f 28 37 29
f 29 37 36
f 32 38 39
f 32 39 33
f 34 39 40
f 34 40 41
f 34 41 35
f 38 40 39

