# https://github.com/mikedh/trimesh
v -2.31542645 1.38952305 -3.88156966
v -2.31173373 1.38820700 -3.88156966
v -2.27128831 1.38314306 -3.90125081
v -2.21428959 1.38892224 -4.00502634
v -2.25697166 1.39790573 -4.00502634
v -2.25697166 1.39930761 -4.06397642
v -2.31542645 1.38062540 -4.06813206
v -2.31542645 1.12814362 -3.88156966
v -2.28144625 1.35962577 -3.88156966
v -2.27430539 1.33836867 -3.88156966
v -2.26358830 1.33836867 -3.89328966
v -2.23415119 1.33836867 -3.92616159
v -2.22077812 1.38042513 -3.96227873
v -2.21198310 1.39083910 -4.06397642
v -2.20106795 1.33836867 -4.00502634
v -2.19642001 1.33836867 -4.06397642
v -2.25697166 1.39218376 -4.12007822
v -2.29639196 1.37584755 -4.12007822
v -2.29838393 1.34632220 -4.12007822
v -2.31542645 1.35516263 -4.06855231
v -2.25988390 1.39123964 -4.12007822
v -2.31542645 1.12184945 -3.88170971
v -2.31461102 1.12182084 -3.88156966
v -2.27392097 1.27946102 -3.88156966
v -2.26348345 1.27946102 -3.89300946
v -2.23375513 1.22055337 -3.92578805
v -2.21738825 1.33836867 -3.95564831
v -2.21616508 1.16161712 -3.95562499
v -2.21696888 1.38188422 -4.12007822
v -2.21773773 1.38440189 -4.12007822
v -2.20060199 1.16161712 -4.00502634
v -2.20794090 1.33836867 -4.12007822
v -2.19642001 1.22055337 -4.06397642
v -2.29838393 1.34454839 -4.12007822
v -2.31542645 1.10731566 -4.06292584
v -2.31542645 1.10997637 -4.00869176
v -2.27197558 1.12336577 -3.90248816
v -2.27684489 1.16161712 -3.88156966
v -2.26336698 1.25600096 -3.89300946
v -2.27376955 1.22055337 -3.88156966
v -2.26320387 1.22055337 -3.89300946
v -2.23439582 1.16161712 -3.92616159
v -2.21913558 1.12536846 -3.96279236
v -2.21382364 1.12039035 -4.00502634
v -2.19770139 1.16161712 -4.06397642
v -2.20794090 1.22055337 -4.12007822
v -2.20865149 1.16161712 -4.12007822
v -2.28335669 1.16161712 -4.12007822
v -2.28160935 1.15060233 -4.12007822
v -2.25962763 1.12230721 -4.12007822
v -2.25754245 1.12233582 -4.12007822
v -2.21844831 1.12307967 -4.12007822
v -2.21325284 1.11895985 -4.06397642
v -2.31542645 1.10702956 -4.05748605
v -2.26383293 1.16161712 -3.89417678
f 1 2 3
f 1 3 4
f 1 4 5
f 1 5 6
f 1 6 7
f 1 7 20
f 1 20 35
f 1 35 54
f 1 54 36
f 1 36 22
f 1 22 8
f 1 8 23
f 1 23 38
f 1 38 40
f 1 40 24
f 1 24 10
f 1 10 9
f 1 9 2
f 2 9 3
f 3 9 10
f 3 10 11
f 3 11 12
f 3 12 13
f 3 13 4
f 4 14 5
f 4 13 15
f 4 15 16
f 4 16 14
f 5 14 6
f 6 14 17
f 6 17 7
f 7 18 19
f 7 19 20
f 7 17 21
f 7 21 18
f 8 22 23
f 10 24 11
f 11 24 25
f 11 25 26
f 11 26 12
f 12 27 13
f 12 26 28
f 12 28 27
f 13 27 15
f 14 29 30
f 14 30 17
f 14 16 29
f 15 27 28
f 15 28 31
f 15 31 16
f 16 32 29
f 16 31 33
f 16 33 46
f 16 46 32
f 17 30 29
f 17 29 32
f 17 32 46
f 17 46 47
f 17 47 52
f 17 52 51
f 17 51 50
f 17 50 49
f 17 49 48
f 17 48 34
f 17 34 19
f 17 19 18
f 17 18 21
f 19 34 20
f 20 34 35
f 22 36 23
f 23 36 37
f 23 37 38
f 24 39 25
f 24 40 41
f 24 41 39
f 25 39 26
f 26 41 42
f 26 42 28
f 26 39 41
f 28 42 43
f 28 43 31
f 31 43 44
f 31 44 45
f 31 45 33
f 33 45 47
f 33 47 46
f 34 48 35
f 35 48 49
f 35 49 50
f 35 50 51
f 35 51 52
f 35 52 53
f 35 53 54
f 36 54 44
f 36 44 37
f 37 44 43
f 37 43 42
f 37 42 55
f 37 55 38
f 38 55 40
f 40 55 41
f 41 55 42
f 44 54 53
f 44 53 45
f 45 53 52
f 45 52 47

