# https://github.com/mikedh/trimesh
v 0.24313213 2.02957328 -3.01934126
v 0.24313213 2.03692650 -3.01932254
v 0.24806466 2.02957328 -3.01735825
v 0.24313213 2.02957328 -2.91871281
v 0.24313213 2.04551675 -3.01922900
v 0.27688798 2.04551675 -3.00542275
v 0.27688798 2.02957328 -3.00557242
v 0.24313213 2.03725639 -2.82824261
v 0.27681756 2.02957328 -2.93156496
v 0.24313213 2.09410294 -3.01509460
v 0.31204912 2.09072180 -2.98269297
v 0.31490902 2.04551675 -2.98712668
v 0.31490902 2.02957328 -2.98712668
v 0.30874666 2.07281292 -2.82824261
v 0.24313213 2.16995790 -2.82824261
v 0.30186760 2.02957328 -2.94271473
v 0.31439605 2.02957328 -2.95191890
v 0.24313213 2.10501589 -3.01271874
v 0.29957687 2.12344706 -2.94437970
v 0.31182433 2.09399300 -2.94437970
v 0.24313213 2.14865418 -2.99861317
v 0.24313213 2.15328597 -2.99322536
v 0.31415703 2.05017602 -2.94636272
v 0.31490902 2.02957328 -2.98072866
v 0.30874666 2.08938862 -2.82824261
v 0.24313213 2.16995790 -2.88546932
v 0.27160387 2.14740345 -2.82824261
v 0.24313213 2.16767629 -2.94437970
v 0.27160387 2.14740345 -2.88546932
v 0.30105942 2.11884275 -2.82824261
v 0.30128438 2.11799058 -2.82824261
f 1 2 3
f 1 3 7
f 1 7 13
f 1 13 24
f 1 24 17
f 1 17 16
f 1 16 9
f 1 9 4
f 1 4 8
f 1 8 15
f 1 15 26
f 1 26 28
f 1 28 22
f 1 22 21
f 1 21 18
f 1 18 10
f 1 10 5
f 1 5 2
f 2 5 6
f 2 6 7
f 2 7 3
f 4 9 8
f 5 10 6
f 6 10 11
f 6 11 12
f 6 12 7
f 7 12 13
f 8 14 25
f 8 25 31
f 8 31 30
f 8 30 27
f 8 27 15
f 8 9 16
f 8 16 17
f 8 17 14
f 10 18 11
f 11 19 20
f 11 20 12
f 11 18 21
f 11 21 22
f 11 22 19
f 12 20 23
f 12 23 24
f 12 24 13
f 14 17 23
f 14 23 25
f 15 27 29
f 15 29 26
f 17 24 23
f 19 22 28
f 19 28 26
f 19 26 29
f 19 29 27
f 19 27 30
f 19 30 20
f 20 30 31
f 20 31 25
f 20 25 23

