# https://github.com/mikedh/trimesh
v -1.19059607 1.22102011 -0.41430007
v -0.51543625 1.22102011 -0.42433248
v -1.19059607 1.22102011 -0.35515769
v -1.19059607 2.45788928 -0.41430007
v -0.51543625 2.39903272 -0.42496119
v -0.51543625 1.22102011 -0.35515769
v -0.72489108 1.22102011 -0.35514400
v -1.19059607 2.45788928 -0.35515769
v -1.19059607 2.50162205 -0.39928543
v -0.51543625 2.45788928 -0.42472200
v -0.51543625 2.40987139 -0.42496119
v -0.66547176 1.22102011 -0.35514400
v -0.51543625 2.45788928 -0.35515769
v -0.51543625 2.48485986 -0.36234706
v -1.19059607 2.50628518 -0.36810832
v -1.19059607 2.50628518 -0.39767942
v -0.51543625 2.46771965 -0.42132541
v -0.51543625 2.50628518 -0.36810832
v -0.51543625 2.50855370 -0.39248558
v -0.51543625 2.50855370 -0.40542935
f 1 2 6
f 1 6 12
f 1 12 7
f 1 7 3
f 1 3 8
f 1 8 15
f 1 15 16
f 1 16 9
f 1 9 4
f 1 4 11
f 1 11 5
f 1 5 2
f 2 5 11
f 2 11 10
f 2 10 17
f 2 17 20
f 2 20 19
f 2 19 18
f 2 18 14
f 2 14 13
f 2 13 6
f 3 7 8
f 4 9 10
f 4 10 11
f 6 13 12
f 7 12 13
f 7 13 8
f 8 13 14
f 8 14 15
f 9 16 10
f 10 16 17
f 14 18 15
f 15 18 19
f 15 19 20
f 15 20 16
f 16 20 17

