# https://github.com/mikedh/trimesh
v 0.30873419 2.08915803 -5.41847156
v 0.30873419 2.07285261 -5.41847156
v 0.30873419 2.08939810 -5.41935561
v 0.30863707 2.08982274 -5.41847156
v 0.23718893 2.03353878 -5.41847156
v 0.30873419 2.07277877 -5.94961178
v 0.30873419 2.08939810 -5.94976790
v 0.30106311 2.11885110 -5.41847156
v 0.30106311 2.11885110 -5.94961178
v 0.11278098 2.03353878 -5.41847156
v 0.23722774 2.03353878 -5.94971592
v 0.30873419 2.07277877 -5.94976790
v 0.30100480 2.11890650 -5.94976790
v 0.22141949 2.22218618 -5.41847156
v 0.22141949 2.22218618 -5.94976790
v 0.11035327 2.04552316 -5.41847156
v 0.11278098 2.03353878 -5.94976790
v 0.23423700 2.03353878 -5.94976790
v 0.15999218 2.22218618 -5.41847156
v 0.15997286 2.22205693 -5.94976790
v 0.15999218 2.22218618 -5.94961178
v 0.11996649 2.10127158 -5.41847156
v 0.11994717 2.10116086 -5.94976790
v 0.11035327 2.04552316 -5.94961178
v 0.11037276 2.04543079 -5.94976790
v 0.11996649 2.10127158 -5.94961178
f 1 2 6
f 1 6 12
f 1 12 7
f 1 7 3
f 1 3 4
f 1 4 8
f 1 8 14
f 1 14 19
f 1 19 22
f 1 22 16
f 1 16 10
f 1 10 5
f 1 5 2
f 2 5 6
f 3 7 4
f 4 7 9
f 4 9 8
f 5 10 17
f 5 17 18
f 5 18 11
f 5 11 6
f 6 11 12
f 7 12 18
f 7 18 17
f 7 17 25
f 7 25 23
f 7 23 20
f 7 20 15
f 7 15 13
f 7 13 9
f 8 9 15
f 8 15 14
f 9 13 15
f 10 16 24
f 10 24 17
f 11 18 12
f 14 15 21
f 14 21 19
f 15 20 21
f 16 22 23
f 16 23 24
f 17 24 25
f 19 21 26
f 19 26 22
f 20 23 21
f 21 23 26
f 22 26 23
f 23 25 24

