# https://github.com/mikedh/trimesh
v -2.13120496 0.16004310 -4.05889932
v -2.13494326 0.16004310 -3.88156966
v -2.14237129 0.32282437 -3.88156966
v -2.12654425 0.32282437 -4.05889932
v -1.88462378 0.16004310 -4.05889932
v -1.64639303 0.16004310 -3.88156966
v -1.64639303 0.32282437 -3.88156966
v -1.87520524 0.32282437 -4.05889932
v -1.85437765 0.22122947 -4.05889932
v -1.64639303 0.16004310 -4.03098761
v -1.64639303 0.32282437 -4.02315913
v -1.85695075 0.30032559 -4.05889932
v -1.84607574 0.26063418 -4.05889932
v -1.84583300 0.27577140 -4.05889932
v -1.64639303 0.21879156 -4.02840123
v -1.64639303 0.27769940 -4.02546774
f 1 2 3
f 1 3 4
f 1 4 8
f 1 8 12
f 1 12 14
f 1 14 13
f 1 13 9
f 1 9 5
f 1 5 10
f 1 10 6
f 1 6 2
f 2 6 7
f 2 7 3
f 3 7 11
f 3 11 8
f 3 8 4
f 5 9 10
f 6 10 15
f 6 15 16
f 6 16 11
f 6 11 7
f 8 11 12
f 9 13 10
f 10 13 14
f 10 14 15
f 11 16 14
f 11 14 12
f 14 16 15

