# https://github.com/mikedh/trimesh
v -3.73396817 2.49599663 -0.51724090
v -3.73585885 2.49550526 -0.98104590
v -3.76348448 2.49550526 -0.98104590
v -3.76348448 2.49550526 -0.51724090
v -3.71016869 2.45791264 -0.51724090
v -3.71209871 2.45791264 -0.98104590
v -3.76613259 2.46995208 -0.98104590
v -3.76663187 2.46503799 -0.51724090
v -3.71010143 2.43727354 -0.51724090
v -3.71005085 0.66452371 -0.91498918
v -3.71005085 0.61022329 -0.92711090
v -3.71209871 0.04215708 -0.98104590
v -3.76736138 2.45791264 -0.51724090
v -3.76736138 2.45791264 -0.98104590
v -3.71005085 1.27853645 -0.51724090
v -3.71005085 1.25298330 -0.61993534
v -3.71005085 1.19524301 -0.73856517
v -3.71005085 0.57238498 -0.92711090
v -3.71005085 0.51341615 -0.92502247
v -3.71005085 0.45616723 -0.91290075
v -3.71005085 0.04215708 -0.75277532
v -3.71005085 0.00309025 -0.70347112
v -3.71005085 0.00014183 -0.69361942
v -3.71005085 -0.01189770 -0.62615513
v -3.71965599 0.03011764 -0.98104590
v -3.76736138 0.04215708 -0.51724090
v -3.76736138 0.04215708 -0.98104590
v -3.71005085 -0.01361759 -0.51724090
v -3.76348448 0.00456446 -0.98104590
v -3.73585885 0.00456446 -0.98104590
v -3.71005085 -0.01361759 -0.58733820
v -3.76471871 0.01635821 -0.98104590
v -3.76421943 0.01168990 -0.51724090
v -3.71901640 -0.01288044 -0.51724090
v -3.71005085 -0.01410897 -0.52840920
v -3.73015309 -0.01189770 -0.58733820
v -3.73015309 -0.01214338 -0.52840920
v -3.76348448 0.00456446 -0.51724090
v -3.71005085 -0.01386328 -0.56722613
v -3.73015309 -0.01165192 -0.51724090
f 1 2 3
f 1 3 4
f 1 4 8
f 1 8 13
f 1 13 26
f 1 26 33
f 1 33 38
f 1 38 40
f 1 40 34
f 1 34 28
f 1 28 15
f 1 15 9
f 1 9 5
f 1 5 6
f 1 6 2
f 2 6 12
f 2 12 25
f 2 25 30
f 2 30 29
f 2 29 32
f 2 32 27
f 2 27 14
f 2 14 7
f 2 7 3
f 3 7 4
f 4 7 8
f 5 9 6
f 6 9 10
f 6 10 11
f 6 11 18
f 6 18 12
f 7 13 8
f 7 14 13
f 9 15 16
f 9 16 17
f 9 17 10
f 10 17 16
f 10 16 15
f 10 15 28
f 10 28 35
f 10 35 39
f 10 39 31
f 10 31 24
f 10 24 23
f 10 23 22
f 10 22 21
f 10 21 20
f 10 20 19
f 10 19 18
f 10 18 11
f 12 18 19
f 12 19 20
f 12 20 21
f 12 21 22
f 12 22 23
f 12 23 24
f 12 24 25
f 13 14 27
f 13 27 26
f 24 29 30
f 24 30 25
f 24 31 29
f 26 27 32
f 26 32 33
f 28 34 35
f 29 31 36
f 29 36 37
f 29 37 38
f 29 38 32
f 31 39 36
f 32 38 33
f 34 37 35
f 34 40 37
f 35 37 36
f 35 36 39
f 37 40 38

