# https://github.com/mikedh/trimesh
v -0.17018855 -0.01956834 -3.71041444
v -0.17018855 -0.01061904 -3.74344632
v 0.10043588 -0.00291257 -3.77399937
v 0.10043588 -0.01956834 -3.71041444
v 0.10043588 -0.01956834 -3.71009521
v 0.10043588 -0.00689009 -3.65120498
v -0.17018855 -0.00390699 -3.65152423
v -0.17018855 -0.00415558 -3.76663808
v 0.10043588 -0.00117248 -3.77689129
v 0.10043588 0.00852276 -3.61869894
v -0.17018855 0.00255647 -3.63922413
v -0.17018855 0.02318976 -3.78348264
v 0.10043588 0.02393552 -3.79936947
v 0.10043588 0.00901992 -3.61858626
v -0.17018855 0.01175444 -3.62172233
v -0.17018855 0.04208288 -3.79510670
v 0.10043588 0.04208288 -3.80224264
v 0.10043588 0.04208288 -3.61392912
v -0.17018855 0.04208288 -3.62138431
v 0.10043588 0.10099959 -3.61246440
v -0.17018855 0.07663744 -3.79625220
v 0.10043588 0.10099959 -3.80428949
v -0.17018855 2.45791712 -3.62138431
v 0.10043588 2.39900041 -3.61246440
v -0.17018855 0.10099959 -3.79683433
v -0.17018855 0.98673920 -3.79790471
v -0.17018855 1.04391577 -3.79796108
v -0.17018855 1.10283249 -3.79797983
v 0.10043588 2.39900041 -3.80428949
v -0.17018855 2.47034678 -3.62151576
v 0.10043588 2.45791712 -3.61392912
v -0.17018855 2.48824556 -3.62172233
v -0.17018855 2.39900041 -3.79679679
v 0.10043588 2.41192724 -3.80398905
v 0.10043588 2.49147724 -3.61869894
v -0.17018855 2.50390699 -3.65152423
v -0.17018855 2.45791712 -3.79506912
v 0.10043588 2.45791712 -3.80224264
v 0.10043588 2.50689009 -3.65152423
v 0.10009132 2.50689009 -3.65152423
v -0.17018855 2.51037036 -3.67582395
v -0.17018855 2.50415558 -3.76663808
v 0.10043588 2.50117248 -3.77689129
v 0.10043588 2.51956834 -3.71041444
v -0.17018855 2.51956834 -3.71041444
v -0.17018855 2.51335355 -3.73362499
v 0.10043588 2.50291257 -3.77399937
v 0.10043588 2.50241540 -3.77568946
v 0.10043588 2.51956834 -3.71075246
f 1 2 3
f 1 3 4
f 1 4 5
f 1 5 6
f 1 6 7
f 1 7 11
f 1 11 15
f 1 15 19
f 1 19 23
f 1 23 30
f 1 30 32
f 1 32 36
f 1 36 41
f 1 41 45
f 1 45 46
f 1 46 42
f 1 42 37
f 1 37 33
f 1 33 28
f 1 28 27
f 1 27 26
f 1 26 25
f 1 25 21
f 1 21 16
f 1 16 12
f 1 12 8
f 1 8 2
f 2 8 3
f 3 8 9
f 3 9 13
f 3 13 17
f 3 17 22
f 3 22 29
f 3 29 34
f 3 34 38
f 3 38 43
f 3 43 48
f 3 48 47
f 3 47 49
f 3 49 44
f 3 44 39
f 3 39 35
f 3 35 31
f 3 31 24
f 3 24 20
f 3 20 18
f 3 18 14
f 3 14 10
f 3 10 6
f 3 6 5
f 3 5 4
f 6 10 7
f 7 10 11
f 8 12 13
f 8 13 9
f 10 14 15
f 10 15 11
f 12 16 13
f 13 16 17
f 14 18 15
f 15 18 20
f 15 20 19
f 16 21 22
f 16 22 17
f 19 20 24
f 19 24 23
f 21 25 22
f 22 25 26
f 22 26 27
f 22 27 28
f 22 28 29
f 23 24 30
f 24 31 32
f 24 32 30
f 28 33 29
f 29 33 34
f 31 35 32
f 32 35 36
f 33 37 34
f 34 37 38
f 35 39 40
f 35 40 36
f 36 40 41
f 37 42 43
f 37 43 38
f 39 44 45
f 39 45 40
f 40 45 41
f 42 46 47
f 42 47 48
f 42 48 43
f 44 49 45
f 45 49 47
f 45 47 46

