# https://github.com/mikedh/trimesh
v -0.95717598 0.86700505 -0.76406426
v -0.94312231 0.86538635 -0.70077401
v -0.93973696 0.92593372 -0.71740485
v -0.93399081 0.96320253 -0.72883165
v -0.94546082 0.92593372 -0.76406426
v -0.93684158 0.92593372 -0.80279584
v -0.94278820 0.86700505 -0.81238465
v -0.93989291 0.82750084 -0.80773417
v -0.94561676 0.82160418 -0.76406426
v -0.93967014 0.82819461 -0.70515879
v -0.92906864 0.88396292 -0.67818611
v -0.93196402 0.83632669 -0.67482008
v -0.93196402 0.84465146 -0.67482008
v -0.87321046 1.21514282 -0.73348214
v -0.87321046 1.21514282 -0.73952772
v -0.93196402 0.95765267 -0.79493439
v -0.91855627 0.86700505 -0.84185951
v -0.87410136 1.13759901 -0.79524436
v -0.88539330 0.82884979 -0.85906619
v -0.84274241 0.82457179 -0.86229928
v -0.90828888 0.82160418 -0.76406426
v -0.84274241 0.82141144 -0.69333334
v -0.84274241 0.82141144 -0.65887573
v -0.90165183 0.82861855 -0.66664866
v -0.90630670 0.86538635 -0.66208669
v -0.89149578 0.92593372 -0.66407975
v -0.84274241 1.21514282 -0.73306137
v -0.88033749 0.96848260 -0.67083395
v -0.84274241 0.92593372 -0.65267508
v -0.86969147 1.21514282 -0.74054630
v -0.88154019 0.91290698 -0.85713951
v -0.88911267 0.86700505 -0.86092632
v -0.84274241 1.13964167 -0.79590871
v -0.84274241 0.92092341 -0.85942059
v -0.84274241 0.86700505 -0.86927493
v -0.74051388 0.82198957 -0.76406426
v -0.80055918 0.82892684 -0.85897768
v -0.74646050 0.82884979 -0.70515879
v -0.78381068 0.82900394 -0.66693650
v -0.84274241 0.86700505 -0.64306431
v -0.81597141 1.21514282 -0.73374785
v -0.79467938 0.92593372 -0.66430121
v -0.80552586 0.96802011 -0.67096689
v -0.81289787 1.21514282 -0.73425714
v -0.84274241 1.21514282 -0.74059073
v -0.81167295 1.13667403 -0.79497865
v -0.80432316 0.91263719 -0.85707313
v -0.79701797 0.86700505 -0.86079355
v -0.74601505 0.82777068 -0.80711407
v -0.72966739 0.86700505 -0.76406426
v -0.76755207 0.86700505 -0.84090732
v -0.75394384 0.83694332 -0.67528511
v -0.74314197 0.86318952 -0.70121692
v -0.77948991 0.86318952 -0.66241895
v -0.75695057 0.88030155 -0.67891702
v -0.74639367 0.92593372 -0.71860062
v -0.75189485 0.96200777 -0.72967321
v -0.74133795 0.92593372 -0.76406426
v -0.81292017 1.21514282 -0.73671523
v -0.75392163 0.95645791 -0.79422578
v -0.74928906 0.92593372 -0.80175497
v -0.74336474 0.86700505 -0.81143246
v -0.75394384 0.84099008 -0.67528511
f 1 2 3
f 1 3 4
f 1 4 5
f 1 5 6
f 1 6 7
f 1 7 8
f 1 8 9
f 1 9 10
f 1 10 2
f 2 11 3
f 2 10 12
f 2 12 13
f 2 13 11
f 3 11 14
f 3 14 4
f 4 14 5
f 5 14 15
f 5 15 16
f 5 16 6
f 6 17 7
f 6 16 18
f 6 18 17
f 7 17 8
f 8 19 9
f 8 17 19
f 9 19 20
f 9 20 21
f 9 21 22
f 9 22 23
f 9 23 10
f 10 23 24
f 10 24 12
f 11 13 25
f 11 25 26
f 11 26 14
f 12 24 25
f 12 25 13
f 14 27 41
f 14 41 44
f 14 44 59
f 14 59 45
f 14 45 30
f 14 30 15
f 14 26 28
f 14 28 29
f 14 29 27
f 15 30 18
f 15 18 16
f 17 18 31
f 17 31 32
f 17 32 19
f 18 30 33
f 18 33 34
f 18 34 31
f 19 32 35
f 19 35 20
f 20 36 21
f 20 35 37
f 20 37 36
f 21 36 22
f 22 36 23
f 23 36 38
f 23 38 39
f 23 39 40
f 23 40 24
f 24 40 25
f 25 40 26
f 26 40 29
f 26 29 28
f 27 29 41
f 29 42 43
f 29 43 44
f 29 44 41
f 29 40 42
f 30 45 33
f 31 34 35
f 31 35 32
f 33 45 46
f 33 46 34
f 34 47 35
f 34 46 47
f 35 47 48
f 35 48 37
f 36 37 49
f 36 49 50
f 36 50 38
f 37 48 51
f 37 51 49
f 38 52 39
f 38 50 53
f 38 53 52
f 39 52 54
f 39 54 40
f 40 54 42
f 42 54 55
f 42 55 44
f 42 44 43
f 44 56 57
f 44 57 58
f 44 58 59
f 44 55 56
f 45 59 46
f 46 59 60
f 46 60 61
f 46 61 51
f 46 51 47
f 47 51 48
f 49 51 62
f 49 62 50
f 50 62 61
f 50 61 58
f 50 58 57
f 50 57 56
f 50 56 53
f 51 61 62
f 52 63 54
f 52 53 63
f 53 56 55
f 53 55 63
f 54 63 55
f 58 61 60
f 58 60 59

