# https://github.com/mikedh/trimesh
v -3.31742231 -0.01975520 -3.71041571
v -2.93199173 -0.02000387 -3.71041571
v -2.93199173 -0.01154884 -3.67834158
v -2.93199173 -0.00433708 -3.65152184
v -3.31742231 -0.00383973 -3.65152184
v -3.31742231 -0.00408840 -3.76639999
v -2.93199173 -0.01304087 -3.73600314
v -2.93199173 0.01182706 -3.62172404
v -3.31742231 0.01182706 -3.62170692
v -3.25871739 -0.00408840 -3.76663961
v -3.31742231 0.04191719 -3.79467456
v -2.93199173 -0.00408840 -3.76663961
v -2.93199173 0.02823987 -3.62153576
v -3.31742231 0.04216586 -3.62134750
v -3.25871739 0.04216586 -3.79477725
v -2.93199173 0.04216586 -3.79477725
v -3.31742231 0.10085410 -3.79618068
v -2.93199173 0.04216586 -3.62138174
v -3.31742231 2.45783414 -3.62134750
v -3.25871739 0.10110277 -3.79619781
v -2.93199173 0.06902317 -3.79542760
v -3.31742231 0.15979109 -3.79619781
v -2.93199173 2.45783414 -3.62138174
v -2.93199173 2.48817294 -3.62172404
v -3.25871739 2.48817294 -3.62172404
v -3.31742231 2.48817294 -3.62182673
v -2.93199173 0.10110277 -3.79619781
v -3.31742231 2.39864847 -3.79619781
v -2.93199173 2.49712541 -3.63794938
v -2.93199173 2.50433708 -3.65152184
v -3.25871739 2.50383973 -3.65152184
v -3.31742231 2.50383973 -3.65174434
v -2.93199173 2.39889723 -3.79619781
v -3.31742231 2.45758546 -3.79479433
v -3.25871739 2.39889723 -3.79619781
v -2.93199173 2.52000387 -3.71041571
v -3.25871739 2.51975520 -3.71041571
v -3.31742231 2.51950652 -3.71065534
v -2.93199173 2.45783414 -3.79477725
v -3.31742231 2.50383973 -3.76674231
v -3.25871739 2.45783414 -3.79477725
v -2.93199173 2.50408840 -3.76663961
v -3.25871739 2.50408840 -3.76663961
v -2.93199173 2.47897180 -3.78197497
f 1 2 3
f 1 3 4
f 1 4 5
f 1 5 9
f 1 9 14
f 1 14 19
f 1 19 26
f 1 26 32
f 1 32 38
f 1 38 40
f 1 40 34
f 1 34 28
f 1 28 22
f 1 22 17
f 1 17 11
f 1 11 6
f 1 6 7
f 1 7 2
f 2 7 12
f 2 12 16
f 2 16 21
f 2 21 27
f 2 27 33
f 2 33 39
f 2 39 44
f 2 44 42
f 2 42 36
f 2 36 30
f 2 30 29
f 2 29 24
f 2 24 23
f 2 23 18
f 2 18 13
f 2 13 8
f 2 8 4
f 2 4 3
f 4 8 9
f 4 9 5
f 6 10 7
f 6 11 10
f 7 10 12
f 8 13 14
f 8 14 9
f 10 11 12
f 11 15 16
f 11 16 12
f 11 17 15
f 13 18 14
f 14 18 23
f 14 23 19
f 15 17 20
f 15 20 21
f 15 21 16
f 17 22 20
f 19 23 24
f 19 24 25
f 19 25 26
f 20 22 28
f 20 28 35
f 20 35 33
f 20 33 27
f 20 27 21
f 24 29 25
f 25 29 26
f 26 29 30
f 26 30 31
f 26 31 32
f 28 34 35
f 30 36 37
f 30 37 32
f 30 32 31
f 32 37 38
f 33 35 34
f 33 34 39
f 34 40 41
f 34 41 39
f 36 42 43
f 36 43 37
f 37 43 38
f 38 43 40
f 39 41 44
f 40 43 41
f 41 43 44
f 42 44 43

