# https://github.com/mikedh/trimesh
v -1.19059625 2.50638652 -0.36811324
v -1.19059625 2.45794284 -0.35515559
v -1.19059625 2.50638652 -0.39767995
v -3.53063979 2.50638652 -0.36811324
v -1.19059625 1.22092905 -0.35515559
v -3.53063979 2.45794284 -0.35515559
v -3.43397794 1.22193569 -0.35514400
v -1.19059625 2.45794284 -0.41430024
v -2.98044559 2.47140636 -0.40968734
v -3.53063979 2.50638652 -0.39767995
v -1.19059625 1.22092905 -0.41430024
v -2.98044559 1.22092905 -0.35515559
v -3.53063979 1.22193569 -0.35514962
v -3.49421985 1.22193569 -0.35514400
v -3.43535231 1.22193569 -0.41434661
v -2.98044559 2.45794284 -0.41430024
v -3.53063979 2.45794284 -0.41429445
v -2.98044559 1.22092905 -0.41430024
v -3.53063979 1.22193569 -0.41431184
v -3.49559422 1.22193569 -0.41434661
v -3.53063979 1.25691580 -0.41431184
f 1 2 5
f 1 5 11
f 1 11 8
f 1 8 3
f 1 3 10
f 1 10 4
f 1 4 6
f 1 6 2
f 2 6 14
f 2 14 7
f 2 7 5
f 3 8 9
f 3 9 10
f 4 10 17
f 4 17 21
f 4 21 19
f 4 19 13
f 4 13 6
f 5 7 14
f 5 14 12
f 5 12 18
f 5 18 11
f 6 13 14
f 8 11 15
f 8 15 20
f 8 20 16
f 8 16 9
f 9 16 17
f 9 17 10
f 11 18 20
f 11 20 15
f 12 14 13
f 12 13 19
f 12 19 18
f 16 20 17
f 17 20 21
f 18 19 20
f 19 21 20

