# https://github.com/mikedh/trimesh
v -0.44311108 2.50653175 -1.49970580
v -0.43272252 2.50960907 -1.69160983
v -0.47288414 2.50653175 -1.49970580
v -0.42652450 2.45799939 -1.49970580
v -0.40591043 2.45799939 -1.69160983
v -0.44007477 2.50960907 -1.69160983
v -0.47288414 2.50653175 -1.69160983
v -0.48538062 2.46056857 -1.49970580
v -0.37312618 2.33716259 -1.69160983
v -0.39252323 2.32346964 -1.49970580
v -0.35886071 2.28109209 -1.69160983
v -0.48538062 2.46056857 -1.69160983
v -0.48538062 2.33755790 -1.49970580
v -0.38747945 2.30167385 -1.49970580
v -0.38276196 2.28123329 -1.49970580
v -0.35721704 2.22222649 -1.69160983
v -0.48538062 2.29278048 -1.69160983
v -0.48327279 2.23659706 -1.69160983
v -0.48177971 2.22121011 -1.69160983
v -0.47969699 2.31632672 -1.49970580
v -0.38198407 2.25079816 -1.49970580
v -0.38126888 2.22231122 -1.49970580
v -0.35721704 2.22121011 -1.69160983
v -0.43587167 2.22121011 -1.49970580
v -0.47288414 2.29088892 -1.49970580
v -0.38126888 2.22121011 -1.49970580
f 1 2 6
f 1 6 3
f 1 3 8
f 1 8 13
f 1 13 20
f 1 20 25
f 1 25 24
f 1 24 26
f 1 26 22
f 1 22 21
f 1 21 15
f 1 15 14
f 1 14 10
f 1 10 4
f 1 4 5
f 1 5 2
f 2 5 9
f 2 9 11
f 2 11 16
f 2 16 23
f 2 23 19
f 2 19 18
f 2 18 17
f 2 17 12
f 2 12 7
f 2 7 6
f 3 6 7
f 3 7 12
f 3 12 8
f 4 9 5
f 4 10 11
f 4 11 9
f 8 12 17
f 8 17 13
f 10 14 11
f 11 14 15
f 11 15 16
f 13 17 18
f 13 18 19
f 13 19 20
f 15 21 16
f 16 21 22
f 16 22 26
f 16 26 23
f 19 23 26
f 19 26 24
f 19 24 25
f 19 25 20

