# https://github.com/mikedh/trimesh
v 0.11337000 2.03060871 -2.17813164
v 0.11337000 2.03060871 -2.10415463
v 0.13361027 2.03060871 -2.17813164
v 0.11993891 1.99820010 -2.17813164
v 0.11997228 1.99798690 -2.10415463
v 0.23409528 2.03060871 -2.10415463
v 0.23346166 2.03060871 -2.17718296
v 0.23346166 2.03050211 -2.17813164
v 0.13694469 1.96856323 -2.17813164
v 0.12447385 1.99037509 -2.10415463
v 0.28241198 1.92764734 -2.10415463
v 0.28164507 1.92745543 -2.17813164
v 0.16630505 1.93762579 -2.17813164
v 0.23139431 1.81278859 -2.10415463
v 0.13762836 1.96852060 -2.10415463
v 0.28367923 1.91242380 -2.10415463
v 0.27654325 1.85308619 -2.10415463
v 0.26750693 1.81278859 -2.10415463
v 0.26899071 1.88238187 -2.17813164
v 0.19958323 1.90809557 -2.17813164
v 0.22896009 1.88253110 -2.17813164
f 1 2 6
f 1 6 7
f 1 7 3
f 1 3 8
f 1 8 12
f 1 12 19
f 1 19 21
f 1 21 20
f 1 20 13
f 1 13 9
f 1 9 4
f 1 4 5
f 1 5 2
f 2 5 10
f 2 10 15
f 2 15 14
f 2 14 18
f 2 18 17
f 2 17 16
f 2 16 11
f 2 11 6
f 3 7 8
f 4 9 5
f 5 9 10
f 6 11 7
f 7 11 12
f 7 12 8
f 9 13 14
f 9 14 15
f 9 15 10
f 11 16 12
f 12 16 17
f 12 17 18
f 12 18 19
f 13 20 14
f 14 20 21
f 14 21 19
f 14 19 18

