# https://github.com/mikedh/trimesh
v -2.52595016 1.38726287 -4.06463107
v -2.42091498 1.27948765 -4.10330294
v -2.52595016 1.33966159 -4.06572665
v -2.52595016 1.38704436 -4.01295312
v -2.37485776 1.38529630 -4.02387112
v -2.37485776 1.38529630 -4.06083882
v -2.34780047 1.38317843 -4.06417227
v -2.31542645 1.38064037 -4.06816122
v -2.39692817 1.32655107 -4.10036278
v -2.41629896 1.32655107 -4.10036278
v -2.41912216 1.29799366 -4.10214186
v -2.41912216 1.21554864 -4.10206696
v -2.39400192 1.27948765 -4.10330294
v -2.52595016 1.33966159 -4.01031260
v -2.45209376 1.23467655 -4.06255235
v -2.52595016 1.35243594 -4.01065905
v -2.31542645 1.37763167 -4.00764394
v -2.31542645 1.38124547 -4.00819639
v -2.31542645 1.35515890 -4.06857321
v -2.39278609 1.21554864 -4.10197327
v -2.41912216 1.21554864 -4.01144559
v -2.43937907 1.23467655 -4.01519104
v -2.31542645 1.35152828 -4.00764394
v -2.37193156 1.21554864 -4.06398498
v -2.38998352 1.21554864 -4.09746002
v -2.38878828 1.21554864 -4.01141749
v -2.38726336 1.21554864 -4.01169839
v -2.38293583 1.21554864 -4.01254113
f 1 2 3
f 1 3 14
f 1 14 16
f 1 16 4
f 1 4 5
f 1 5 6
f 1 6 7
f 1 7 8
f 1 8 9
f 1 9 10
f 1 10 11
f 1 11 2
f 2 12 3
f 2 11 10
f 2 10 9
f 2 9 13
f 2 13 12
f 3 12 15
f 3 15 14
f 4 16 17
f 4 17 18
f 4 18 5
f 5 18 6
f 6 18 7
f 7 18 8
f 8 18 17
f 8 17 23
f 8 23 19
f 8 19 13
f 8 13 9
f 12 13 20
f 12 20 25
f 12 25 24
f 12 24 28
f 12 28 27
f 12 27 26
f 12 26 21
f 12 21 15
f 13 19 20
f 14 15 22
f 14 22 21
f 14 21 23
f 14 23 17
f 14 17 16
f 15 21 22
f 19 23 24
f 19 24 25
f 19 25 20
f 21 26 23
f 23 26 27
f 23 27 28
f 23 28 24

