# https://github.com/mikedh/trimesh
v -2.19868611 0.41541703 -4.06464802
v -2.19868611 0.41541703 -4.06400061
v -2.19868611 0.41685155 -4.10837666
v -2.14906752 0.38893616 -4.06437757
v -2.19868611 0.41615365 -4.02465630
v -2.14906752 0.38893616 -4.06400061
v -2.18587866 0.41022160 -4.10837666
v -2.19868611 0.64432317 -4.10837666
v -2.13713393 0.38893616 -4.10837666
v -2.19868611 0.64432317 -4.02465630
v -2.14721056 0.38893616 -4.02465630
v -2.19868611 0.64436198 -4.06399240
v -2.14314171 0.78502451 -4.02465630
v -2.14308710 0.78502451 -4.02805724
v -2.14016511 0.78502451 -4.06400061
v -2.13320158 0.78502451 -4.07971868
v -2.12145915 0.78502451 -4.10202551
v -2.10174281 0.71953968 -4.10837666
v -2.03153402 0.38893616 -4.10837666
v -2.19868611 0.64436198 -4.06339416
v -1.91970785 0.38893616 -4.02465630
v -1.99128204 0.78502451 -4.02465630
v -2.08188991 0.78502451 -4.10182066
v -2.07760255 0.71915196 -4.10837666
v -2.03909832 0.51346981 -4.10837666
v -2.04360413 0.57236351 -4.10837666
v -2.04136487 0.63121849 -4.10177148
v -2.04483298 0.69015096 -4.09855086
v -2.04810995 0.73811116 -4.09568261
v -2.05111382 0.77738653 -4.09325683
v -2.05283422 0.78502451 -4.09250291
v -2.06015275 0.78502451 -4.09508438
v -2.07448945 0.75427881 -4.10349243
v -2.05149613 0.63028794 -4.10837666
f 1 2 5
f 1 5 10
f 1 10 20
f 1 20 12
f 1 12 8
f 1 8 3
f 1 3 4
f 1 4 6
f 1 6 2
f 2 6 5
f 3 7 4
f 3 8 18
f 3 18 24
f 3 24 34
f 3 34 26
f 3 26 25
f 3 25 19
f 3 19 9
f 3 9 7
f 4 9 19
f 4 19 21
f 4 21 11
f 4 11 6
f 4 7 9
f 5 6 11
f 5 11 21
f 5 21 22
f 5 22 13
f 5 13 10
f 8 12 13
f 8 13 14
f 8 14 15
f 8 15 16
f 8 16 17
f 8 17 18
f 10 13 20
f 12 20 13
f 13 22 31
f 13 31 32
f 13 32 23
f 13 23 17
f 13 17 16
f 13 16 15
f 13 15 14
f 17 23 24
f 17 24 18
f 19 25 21
f 21 25 26
f 21 26 27
f 21 27 28
f 21 28 29
f 21 29 30
f 21 30 22
f 22 30 31
f 23 32 33
f 23 33 24
f 24 33 30
f 24 30 34
f 26 34 27
f 27 34 28
f 28 34 29
f 29 34 30
f 30 33 32
f 30 32 31

