# https://github.com/mikedh/trimesh
v -2.84623862 0.26644663 -0.62225505
v -2.73137487 0.25295915 -0.62225505
v -2.84623862 0.26504557 -0.70527400
v -2.89244916 0.25814500 -0.70515212
v -2.89243028 0.25820778 -0.62225505
v -2.73137487 0.23964930 -0.62225505
v -2.80991403 0.25513380 -0.70527400
v -2.89248709 0.25806141 -0.70527400
v -2.91881193 0.21876979 -0.70515212
v -2.91902030 0.21876979 -0.62225505
v -2.80991403 0.23601080 -0.70527400
v -2.84265913 0.15963382 -0.62225505
v -2.85176868 0.15963382 -0.70515212
v -2.85171187 0.15985334 -0.70527400
v -2.91881193 0.21865476 -0.70527400
v -2.92337619 0.15985334 -0.70515212
v -2.92483450 0.15985334 -0.62225505
v -2.92483450 0.15963382 -0.62225505
v -2.92335722 0.15963382 -0.70527400
v -2.92337619 0.15973840 -0.70527400
f 1 2 3
f 1 3 4
f 1 4 5
f 1 5 10
f 1 10 17
f 1 17 18
f 1 18 12
f 1 12 6
f 1 6 2
f 2 6 11
f 2 11 7
f 2 7 3
f 3 8 4
f 3 7 11
f 3 11 14
f 3 14 19
f 3 19 20
f 3 20 15
f 3 15 8
f 4 8 9
f 4 9 10
f 4 10 5
f 6 12 13
f 6 13 14
f 6 14 11
f 8 15 9
f 9 15 20
f 9 20 16
f 9 16 17
f 9 17 10
f 12 18 19
f 12 19 13
f 13 19 14
f 16 20 17
f 17 20 18
f 18 20 19

