# https://github.com/mikedh/trimesh
v -3.73016450 2.03056305 -3.21563828
v -3.78907559 2.03209987 -3.21563828
v -3.67375682 2.04801849 -3.21563828
v -3.73016450 2.05106921 -2.64983173
v -3.78907559 2.04301809 -2.64983173
v -3.82864223 2.05256019 -3.21563828
v -3.82794328 2.06180400 -2.64983173
v -3.67109080 2.10552290 -3.21563828
v -3.69292232 2.10444488 -2.64983173
v -3.69685630 2.06983211 -2.64983173
v -3.83241358 2.07003854 -3.21563828
v -3.83714397 2.10439895 -2.64983173
v -3.71132389 2.26489292 -3.21563828
v -3.71132389 2.26489292 -2.64983173
v -3.69675883 2.15768287 -2.64983173
v -3.83716031 2.10444488 -3.21563828
v -3.83716031 2.10444488 -2.70871107
v -3.82774817 2.14488371 -2.64983173
v -3.76934092 2.26489292 -3.21563828
v -3.71161664 2.26489292 -2.64983173
v -3.82773201 2.14492963 -3.21563828
v -3.76934092 2.26482408 -2.64983173
v -3.76934092 2.26489292 -2.66611633
v -3.82773201 2.14492963 -2.70871107
f 1 2 6
f 1 6 11
f 1 11 16
f 1 16 21
f 1 21 19
f 1 19 13
f 1 13 8
f 1 8 3
f 1 3 4
f 1 4 5
f 1 5 2
f 2 5 7
f 2 7 6
f 3 8 9
f 3 9 10
f 3 10 4
f 4 10 9
f 4 9 15
f 4 15 14
f 4 14 20
f 4 20 22
f 4 22 18
f 4 18 12
f 4 12 7
f 4 7 5
f 6 7 12
f 6 12 11
f 8 13 14
f 8 14 15
f 8 15 9
f 11 12 17
f 11 17 16
f 12 18 17
f 13 19 23
f 13 23 20
f 13 20 14
f 16 17 18
f 16 18 21
f 18 22 23
f 18 23 24
f 18 24 21
f 19 21 24
f 19 24 23
f 20 23 22

