# https://github.com/mikedh/trimesh
v -3.60435672 -0.00385659 -3.36671744
v -3.60435672 0.00354808 -3.39113885
v -3.48817356 -0.00805241 -3.44220584
v -3.49451576 -0.01298880 -3.36671744
v -3.60435672 2.49666670 -3.36671744
v -3.50087622 0.02650215 -3.44220584
v -3.60435672 0.04205171 -3.39611181
v -3.50574236 0.04205171 -3.44220584
v -3.44868051 -0.00755875 -3.44220584
v -3.44868051 -0.00755875 -3.41579673
v -3.43792790 -0.00262236 -3.36671744
v -3.49449767 2.50407137 -3.36671744
v -3.49486207 2.50851410 -3.41400114
v -3.60435672 2.49666670 -3.39113885
v -3.60435672 0.10104148 -3.39628176
v -3.50599753 0.08376420 -3.44220584
v -3.43220527 0.04205171 -3.44220584
v -3.41952071 0.04205171 -3.36671744
v -3.48932174 2.50407137 -3.36671744
v -3.44868051 2.50752679 -3.41579673
v -3.44868051 2.50752679 -3.44220584
v -3.47341146 2.50802045 -3.44220584
v -3.48817356 2.50802045 -3.44220584
v -3.60435672 2.49123665 -3.39230635
v -3.60435672 2.45001800 -3.39628176
v -3.50599753 2.39892638 -3.44220584
v -3.43204125 0.10104148 -3.44220584
v -3.41817215 0.10104148 -3.36671744
v -3.46244020 2.50135635 -3.36671744
v -3.45411144 2.50086269 -3.36833568
v -3.43236930 2.45791615 -3.41579673
v -3.43236930 2.45791615 -3.44220584
v -3.50574236 2.45791615 -3.44220584
v -3.60435672 2.45791615 -3.39611181
v -3.43204125 2.01290153 -3.44220584
v -3.41817215 1.98649191 -3.36671744
v -3.45600686 2.49864132 -3.36671744
v -3.45314555 2.49321128 -3.36671744
v -3.44654818 2.45791615 -3.36671744
v -3.41983067 2.04943071 -3.36671744
f 1 2 3
f 1 3 4
f 1 4 11
f 1 11 18
f 1 18 28
f 1 28 36
f 1 36 40
f 1 40 39
f 1 39 38
f 1 38 37
f 1 37 29
f 1 29 19
f 1 19 12
f 1 12 5
f 1 5 14
f 1 14 24
f 1 24 34
f 1 34 25
f 1 25 15
f 1 15 7
f 1 7 2
f 2 6 3
f 2 7 8
f 2 8 6
f 3 9 4
f 3 6 8
f 3 8 16
f 3 16 26
f 3 26 33
f 3 33 23
f 3 23 22
f 3 22 21
f 3 21 32
f 3 32 35
f 3 35 27
f 3 27 17
f 3 17 9
f 4 9 10
f 4 10 11
f 5 12 13
f 5 13 14
f 7 15 8
f 8 15 16
f 9 11 10
f 9 17 18
f 9 18 11
f 12 19 13
f 13 19 20
f 13 20 21
f 13 21 22
f 13 22 23
f 13 23 14
f 14 23 24
f 15 25 26
f 15 26 16
f 17 27 28
f 17 28 18
f 19 29 30
f 19 30 20
f 20 30 31
f 20 31 32
f 20 32 21
f 23 33 24
f 24 33 34
f 25 34 33
f 25 33 26
f 27 35 36
f 27 36 28
f 29 37 30
f 30 37 38
f 30 38 31
f 31 38 39
f 31 39 40
f 31 40 32
f 32 40 36
f 32 36 35

