# https://github.com/mikedh/trimesh
v 0.24313213 1.85896664 -3.01974546
v 0.24313213 1.92766472 -3.01974546
v 0.27688798 1.85896664 -3.00643493
v 0.24313213 1.85896664 -2.83244202
v 0.24313213 1.97704245 -3.01961423
v 0.27688798 1.92766472 -3.00643493
v 0.28318382 1.85896664 -3.00324790
v 0.26712795 1.85896664 -2.83244202
v 0.24313213 1.86850154 -2.82824265
v 0.24313213 2.02955958 -3.01935175
v 0.24806466 2.02955958 -3.01736457
v 0.27688798 1.98657739 -3.00596626
v 0.31490902 2.02955958 -2.98712530
v 0.31490902 1.85896664 -2.98712530
v 0.26911645 1.86850154 -2.82824265
v 0.31490902 1.85896664 -2.96106667
v 0.24313213 1.99066854 -2.82824265
v 0.24313213 2.02955958 -2.91871672
v 0.27688798 2.02955958 -3.00557257
v 0.31490902 2.02955958 -2.98073250
v 0.27326924 1.88763815 -2.82824265
v 0.31490902 1.86873533 -2.96106667
v 0.31439605 2.02955958 -2.95191802
v 0.28182051 1.92766472 -2.82824265
v 0.26013650 1.97186591 -2.82824265
v 0.30186760 2.02955958 -2.94271315
v 0.27681756 2.02955958 -2.93155855
v 0.31490902 1.98657739 -2.96350380
v 0.31490902 1.92766472 -2.96200402
v 0.28124449 1.92896718 -2.82824265
f 1 2 6
f 1 6 3
f 1 3 7
f 1 7 14
f 1 14 16
f 1 16 8
f 1 8 4
f 1 4 9
f 1 9 17
f 1 17 18
f 1 18 10
f 1 10 5
f 1 5 2
f 2 5 6
f 3 6 7
f 4 8 15
f 4 15 9
f 5 10 6
f 6 10 11
f 6 11 12
f 6 12 13
f 6 13 7
f 7 13 14
f 8 16 15
f 9 15 21
f 9 21 24
f 9 24 30
f 9 30 25
f 9 25 17
f 10 18 27
f 10 27 26
f 10 26 23
f 10 23 20
f 10 20 13
f 10 13 19
f 10 19 11
f 11 19 12
f 12 19 13
f 13 20 28
f 13 28 29
f 13 29 22
f 13 22 16
f 13 16 14
f 15 16 21
f 16 22 23
f 16 23 24
f 16 24 21
f 17 25 23
f 17 23 26
f 17 26 27
f 17 27 18
f 20 23 28
f 22 29 23
f 23 29 28
f 23 25 30
f 23 30 24

