# https://github.com/mikedh/trimesh
v 0.25513478 0.63115768 -2.85254452
v 0.24183240 0.63115768 -2.85254452
v 0.31490077 0.63115768 -2.96106702
v 0.31490077 1.66694311 -2.96106702
v 0.25513478 1.66694311 -2.85276440
v 0.23024543 0.63136052 -2.86146744
v 0.23024543 0.63115768 -2.86146744
v 0.24184065 1.66694311 -2.85276440
v 0.23024543 1.66694311 -2.86157738
v 0.31490077 0.63115768 -2.98712121
v 0.31490077 1.66694311 -2.98712121
v 0.23024543 0.63115768 -3.03970598
v 0.23024543 1.66694311 -3.03970598
f 1 2 7
f 1 7 12
f 1 12 10
f 1 10 3
f 1 3 4
f 1 4 5
f 1 5 8
f 1 8 2
f 2 6 7
f 2 8 9
f 2 9 6
f 3 10 11
f 3 11 4
f 4 11 13
f 4 13 9
f 4 9 8
f 4 8 5
f 6 9 13
f 6 13 12
f 6 12 7
f 10 12 13
f 10 13 11

