# https://github.com/mikedh/trimesh
v 0.28217069 1.92767087 -5.94976790
v 0.27858917 1.90525428 -5.94976790
v 0.23423437 2.03352262 -5.94976790
v 0.23721896 2.03352262 -5.94971592
v 0.23718577 2.03352262 -5.41847156
v 0.28167317 1.92767087 -5.41847156
v 0.27265300 1.86818999 -5.94976790
v 0.11277677 2.03352262 -5.94976790
v 0.11277677 2.03352262 -5.41847156
v 0.28149088 1.92702346 -5.41847156
v 0.22612618 1.86827091 -5.94976790
v 0.26897209 1.88290240 -5.41847156
v 0.22906090 1.88290240 -5.41847156
v 0.11997298 1.99804450 -5.94976790
v 0.11982371 1.99872422 -5.41847156
v 0.13693556 1.96857109 -5.89068874
v 0.13778132 1.96849017 -5.94976790
v 0.22862994 1.88325846 -5.41847156
v 0.19959605 1.90808670 -5.41847156
v 0.16640041 1.93754391 -5.41847156
v 0.13693556 1.96857109 -5.41847156
v 0.13771494 1.96857109 -5.94961178
v 0.12020515 1.99762364 -5.41847156
v 0.11997298 1.99804450 -5.41847156
f 1 2 7
f 1 7 11
f 1 11 17
f 1 17 14
f 1 14 8
f 1 8 3
f 1 3 4
f 1 4 5
f 1 5 6
f 1 6 2
f 2 6 7
f 3 8 9
f 3 9 5
f 3 5 4
f 5 9 15
f 5 15 24
f 5 24 23
f 5 23 21
f 5 21 20
f 5 20 19
f 5 19 18
f 5 18 13
f 5 13 12
f 5 12 10
f 5 10 6
f 6 10 7
f 7 10 12
f 7 12 13
f 7 13 11
f 8 14 15
f 8 15 9
f 11 16 17
f 11 13 18
f 11 18 19
f 11 19 20
f 11 20 21
f 11 21 16
f 14 17 22
f 14 22 16
f 14 16 23
f 14 23 24
f 14 24 15
f 16 22 17
f 16 21 23

