# https://github.com/mikedh/trimesh
v -2.25701016 1.45188907 -3.80011571
v -2.13908261 1.45188907 -3.83808854
v -2.25701016 1.45188907 -3.62228761
v -2.25701016 2.39897468 -3.79618521
v -2.13908261 2.34012154 -3.83808854
v -2.13471935 1.45188907 -3.83884352
v -1.64639303 1.45188907 -3.62228761
v -2.25701016 1.86877396 -3.62139935
v -2.25701016 2.45793231 -3.79478620
v -2.13908261 2.39897468 -3.83473538
v -2.08014874 2.34012154 -3.84823682
v -2.08014874 1.45188907 -3.84823682
v -1.64639303 1.45188907 -3.84530557
v -1.64639303 1.86877396 -3.62139935
v -2.25701016 2.45793231 -3.62139935
v -2.13908261 2.45594609 -3.81510498
v -2.25701016 2.50413670 -3.76662864
v -2.08014874 2.39897468 -3.84350687
v -1.72666504 2.34012154 -3.84823682
v -1.72666504 1.45188907 -3.84823682
v -1.64639303 2.28116392 -3.84530557
v -1.64639303 2.45793231 -3.62139935
v -1.64639303 2.46890848 -3.62151038
v -2.25701016 2.48824731 -3.62171023
v -2.13908261 2.48532041 -3.79691801
v -2.08014874 2.45678237 -3.81879124
v -2.25701016 2.51981692 -3.71044667
v -2.08014874 2.50413670 -3.76793878
v -2.08014874 2.48626127 -3.79740657
v -1.72666504 2.39897468 -3.84350687
v -1.64639303 2.39897468 -3.84121960
v -1.64639303 2.37775412 -3.84270742
v -1.64639303 2.34012154 -3.84528335
v -1.64639303 2.48824731 -3.62171023
v -1.64639303 2.49389232 -3.63250249
v -2.25701016 2.50382305 -3.65151110
v -1.72666504 2.45678237 -3.81879124
v -1.64639303 2.51981692 -3.71044667
v -1.72666504 2.50413670 -3.76793878
v -1.72666504 2.48626127 -3.79740657
v -1.64639303 2.45667788 -3.81799179
v -1.64639303 2.43587546 -3.82638580
v -1.64639303 2.50382305 -3.65151110
v -1.64639303 2.48615669 -3.79729554
v -1.64639303 2.50413670 -3.76782774
v -1.64639303 2.49765550 -3.77848680
f 1 2 6
f 1 6 12
f 1 12 20
f 1 20 13
f 1 13 7
f 1 7 3
f 1 3 8
f 1 8 15
f 1 15 24
f 1 24 36
f 1 36 27
f 1 27 17
f 1 17 9
f 1 9 4
f 1 4 5
f 1 5 2
f 2 5 6
f 3 7 14
f 3 14 8
f 4 9 5
f 5 9 10
f 5 10 11
f 5 11 6
f 6 11 12
f 7 13 21
f 7 21 33
f 7 33 32
f 7 32 31
f 7 31 42
f 7 42 41
f 7 41 44
f 7 44 46
f 7 46 45
f 7 45 38
f 7 38 43
f 7 43 35
f 7 35 34
f 7 34 23
f 7 23 22
f 7 22 14
f 8 14 22
f 8 22 15
f 9 16 10
f 9 17 16
f 10 16 18
f 10 18 11
f 11 18 30
f 11 30 19
f 11 19 20
f 11 20 12
f 13 20 19
f 13 19 21
f 15 22 23
f 15 23 24
f 16 17 25
f 16 25 26
f 16 26 18
f 17 27 28
f 17 28 29
f 17 29 25
f 18 26 37
f 18 37 30
f 19 30 31
f 19 31 32
f 19 32 33
f 19 33 21
f 23 34 24
f 24 34 35
f 24 35 36
f 25 29 26
f 26 29 40
f 26 40 37
f 27 38 39
f 27 39 28
f 27 36 43
f 27 43 38
f 28 39 40
f 28 40 29
f 30 37 41
f 30 41 42
f 30 42 31
f 35 43 36
f 37 40 44
f 37 44 41
f 38 45 39
f 39 45 40
f 40 45 46
f 40 46 44

