# https://github.com/mikedh/trimesh
v -1.37300533 2.52196989 -3.71043683
v -1.43195998 2.52196989 -3.71043683
v -1.37300533 2.50599796 -3.65152315
v -0.17021489 2.50391472 -3.65152315
v -0.17021489 2.51977083 -3.71043683
v -0.31239957 2.50414618 -3.76770534
v -0.37135430 2.50414618 -3.76794989
v -1.43195998 2.50599796 -3.65152315
v -1.54972477 2.50414618 -3.76794989
v -1.64639308 2.50414618 -3.76783872
v -1.64639308 2.51977083 -3.71043683
v -1.64639308 2.50391472 -3.65152315
v -0.17021489 2.48817426 -3.62171063
v -0.17021489 2.50414618 -3.76663821
v -0.37135430 2.48632239 -3.79740675
v -1.64639308 2.48817426 -3.62171063
v -1.54972477 2.48632239 -3.79740675
v -1.64639308 2.49766481 -3.77848764
v -0.17021489 2.45796655 -3.62139939
v -1.64639308 2.46884596 -3.62151053
v -0.17021489 2.45796655 -3.79507241
v -0.31239957 2.45657760 -3.81725952
v -0.31239957 2.48597519 -3.79718442
v -0.37135430 2.45680907 -3.81879348
v -1.49091462 2.45680907 -3.81879348
v -1.54972477 2.45680907 -3.81872679
v -1.64639308 2.48620666 -3.79729558
v -0.17021489 1.33958558 -3.62139939
v -1.64639308 2.45796655 -3.62139939
v -0.17021489 2.39905564 -3.79678423
v -0.31239957 2.34014473 -3.84240343
v -0.31239957 2.39905564 -3.83906870
v -0.37135430 2.39905564 -3.84351499
v -1.49091462 2.39905564 -3.84351499
v -1.54972477 2.39905564 -3.84338161
v -1.64639308 2.45669334 -3.81799316
v -1.64639308 2.47555871 -3.80476536
v -0.17021489 1.33958558 -3.79682871
v -1.37300533 1.33958558 -3.62139939
v -1.64639308 1.86874191 -3.62139939
v -0.17021489 2.34014473 -3.79682871
v -0.31239957 1.33958558 -3.84258128
v -0.37135430 1.33958558 -3.84849489
v -0.37135430 2.34014473 -3.84822808
v -1.49091462 2.34014473 -3.84822808
v -1.54972477 2.34014473 -3.84813918
v -1.64639308 2.39905564 -3.84122513
v -1.64639308 2.43586045 -3.82639669
v -1.64639308 1.33958558 -3.62228862
v -0.37251029 1.33958558 -3.84849489
v -1.49207061 1.33958558 -3.84840594
v -1.54972477 1.33958558 -3.84829482
v -1.64639308 2.34014473 -3.84529354
v -1.64639308 1.33958558 -3.84538245
f 1 2 8
f 1 8 3
f 1 3 4
f 1 4 5
f 1 5 6
f 1 6 7
f 1 7 9
f 1 9 2
f 2 9 10
f 2 10 11
f 2 11 12
f 2 12 8
f 3 8 16
f 3 16 13
f 3 13 4
f 4 13 19
f 4 19 28
f 4 28 38
f 4 38 41
f 4 41 30
f 4 30 21
f 4 21 14
f 4 14 5
f 5 14 6
f 6 15 7
f 6 14 15
f 7 15 17
f 7 17 9
f 8 12 16
f 9 17 10
f 10 18 27
f 10 27 37
f 10 37 36
f 10 36 48
f 10 48 47
f 10 47 53
f 10 53 54
f 10 54 49
f 10 49 40
f 10 40 29
f 10 29 20
f 10 20 16
f 10 16 12
f 10 12 11
f 10 17 18
f 13 16 20
f 13 20 19
f 14 21 22
f 14 22 23
f 14 23 15
f 15 23 24
f 15 24 25
f 15 25 17
f 17 25 26
f 17 26 27
f 17 27 18
f 19 20 29
f 19 29 40
f 19 40 39
f 19 39 28
f 21 30 31
f 21 31 32
f 21 32 22
f 22 32 33
f 22 33 24
f 22 24 23
f 24 33 34
f 24 34 25
f 25 34 26
f 26 35 36
f 26 36 37
f 26 37 27
f 26 34 35
f 28 39 49
f 28 49 54
f 28 54 52
f 28 52 51
f 28 51 50
f 28 50 43
f 28 43 42
f 28 42 38
f 30 41 31
f 31 42 43
f 31 43 44
f 31 44 32
f 31 41 42
f 32 44 33
f 33 44 45
f 33 45 34
f 34 45 46
f 34 46 35
f 35 46 47
f 35 47 48
f 35 48 36
f 38 42 41
f 39 40 49
f 43 50 45
f 43 45 44
f 45 51 46
f 45 50 51
f 46 51 52
f 46 52 53
f 46 53 47
f 52 54 53

