# https://github.com/mikedh/trimesh
v -0.54831911 0.00850765 -5.67908025
v -0.54831911 0.00863585 -5.69335326
v -0.54808151 0.00850765 -5.69328899
v -0.48726920 0.00267588 -5.65837056
v -0.41594996 0.00555976 -5.56407495
v -0.43234082 0.04202467 -5.56407495
v -0.54831911 0.04189656 -5.66696345
v -0.48915136 0.00459844 -5.69583138
v -0.54831911 0.04202467 -5.71250208
v -0.42715128 0.00280400 -5.59817273
v -0.42738889 -0.00007979 -5.65764649
v -0.40734346 0.00555976 -5.56407495
v -0.48575258 0.27770107 -5.56407495
v -0.54831911 0.27757287 -5.61292851
v -0.54831911 0.24200519 -5.62037885
v -0.44513190 0.00456639 -5.69386835
v -0.48915136 0.04202467 -5.71723300
v -0.54831911 0.10095183 -5.72315460
v -0.39005723 0.00472664 -5.59609695
v -0.39095261 0.00636084 -5.56407495
v -0.39245105 0.00530336 -5.63978512
v -0.48313959 0.29599762 -5.56407495
v -0.54831911 0.31435828 -5.61819050
v -0.42738889 0.04705545 -5.69916229
v -0.40584511 0.03080966 -5.67904811
v -0.48915136 0.10095183 -5.72685570
v -0.54831911 0.21877400 -5.72653380
v -0.37109000 0.04202467 -5.59609695
v -0.37244215 0.04202467 -5.56407495
v -0.38804721 0.04705545 -5.65764649
v -0.47650648 0.31624887 -5.56407495
v -0.54831911 0.32707937 -5.65500751
v -0.43025766 0.10095183 -5.70704710
v -0.40052763 0.07009434 -5.68472841
v -0.48915136 0.21877400 -5.72844872
v -0.54831911 0.27770107 -5.72160988
v -0.36255655 0.10095183 -5.59609695
v -0.36356152 0.10095183 -5.56407495
v -0.38073808 0.10095183 -5.65500751
v -0.43025766 0.32723962 -5.56407495
v -0.54808151 0.32707937 -5.65500751
v -0.54831911 0.31990168 -5.69901758
v -0.43025766 0.15987889 -5.70773902
v -0.39944952 0.15987889 -5.68587079
v -0.39992465 0.10095183 -5.68537204
v -0.54808151 0.27770107 -5.72160988
v -0.48915136 0.27770107 -5.72009730
v -0.43493554 0.27770107 -5.70159211
v -0.42455655 0.22136943 -5.70287938
v -0.38004369 0.15987889 -5.65500751
v -0.36173423 0.21877400 -5.59609695
v -0.36166117 0.21877400 -5.56407495
v -0.38808374 0.31868414 -5.56407495
v -0.43025766 0.32659871 -5.59609695
v -0.48915136 0.32659871 -5.65500751
v -0.54808151 0.31990168 -5.69901758
v -0.39988812 0.20348944 -5.68540418
v -0.48915136 0.31881225 -5.69784289
v -0.44599066 0.31419803 -5.69262920
v -0.40547965 0.27770107 -5.67943429
v -0.40111234 0.24277421 -5.68402033
v -0.38501398 0.22136943 -5.66063952
v -0.38594588 0.27770107 -5.64997102
v -0.36889726 0.27770107 -5.59609695
v -0.36767295 0.27770107 -5.56407495
v -0.37671805 0.29615787 -5.56407495
v -0.38870507 0.31810733 -5.59609695
v -0.42790046 0.31868414 -5.65714774
v -0.39347428 0.31374950 -5.63893215
f 1 2 3
f 1 3 4
f 1 4 5
f 1 5 6
f 1 6 7
f 1 7 15
f 1 15 14
f 1 14 23
f 1 23 32
f 1 32 42
f 1 42 36
f 1 36 27
f 1 27 18
f 1 18 9
f 1 9 2
f 2 8 3
f 2 9 8
f 3 8 4
f 4 10 5
f 4 8 11
f 4 11 10
f 5 10 12
f 5 12 20
f 5 20 29
f 5 29 38
f 5 38 52
f 5 52 65
f 5 65 66
f 5 66 53
f 5 53 40
f 5 40 31
f 5 31 22
f 5 22 13
f 5 13 6
f 6 13 14
f 6 14 15
f 6 15 7
f 8 16 11
f 8 9 17
f 8 17 16
f 9 18 17
f 10 11 19
f 10 19 20
f 10 20 12
f 11 16 21
f 11 21 19
f 13 22 14
f 14 22 23
f 16 17 24
f 16 24 25
f 16 25 21
f 17 18 26
f 17 26 24
f 18 27 26
f 19 21 28
f 19 28 29
f 19 29 20
f 21 25 30
f 21 30 28
f 22 31 23
f 23 31 32
f 24 26 33
f 24 33 34
f 24 34 25
f 25 34 30
f 26 27 35
f 26 35 33
f 27 36 35
f 28 30 37
f 28 37 38
f 28 38 29
f 30 34 39
f 30 39 37
f 31 40 32
f 32 40 41
f 32 41 56
f 32 56 42
f 33 35 43
f 33 43 44
f 33 44 45
f 33 45 34
f 34 45 39
f 35 36 46
f 35 46 47
f 35 47 48
f 35 48 49
f 35 49 43
f 36 42 56
f 36 56 46
f 37 39 50
f 37 50 51
f 37 51 52
f 37 52 38
f 39 45 44
f 39 44 50
f 40 53 54
f 40 54 55
f 40 55 41
f 41 55 56
f 43 49 44
f 44 49 57
f 44 57 50
f 46 56 47
f 47 56 58
f 47 58 59
f 47 59 48
f 48 59 60
f 48 60 61
f 48 61 49
f 49 61 57
f 50 57 62
f 50 62 51
f 51 62 63
f 51 63 64
f 51 64 65
f 51 65 52
f 53 66 67
f 53 67 54
f 54 67 68
f 54 68 55
f 55 68 58
f 55 58 56
f 57 61 62
f 58 68 59
f 59 69 60
f 59 68 69
f 60 63 61
f 60 69 63
f 61 63 62
f 63 69 64
f 64 69 67
f 64 67 66
f 64 66 65
f 67 69 68

