# https://github.com/mikedh/trimesh
v 0.11037329 2.04553326 -6.00861208
v 0.11125418 2.04553326 -6.06749419
v 0.12042449 1.99847055 -6.06749419
v 0.11998405 1.99788952 -6.00861208
v 0.11039331 2.04544387 -5.94978704
v 0.11996403 2.10117728 -5.94978704
v 0.11998405 2.10126667 -6.00861208
v 0.12042449 2.09983645 -6.06749419
v 0.12084492 2.04553326 -6.10822200
v 0.12374820 2.00488413 -6.10446926
v 0.12374820 2.09056243 -6.10446926
v 0.12290717 1.99388943 -6.06749419
v 0.12232659 1.99388943 -6.00861208
v 0.11998405 1.99806830 -5.94978704
v 0.24306101 2.03722022 -5.94976807
v 0.24306101 2.17000602 -5.94976807
v 0.15996847 2.22205210 -5.94978704
v 0.15328102 2.22218618 -6.14435903
v 0.14294953 2.10647351 -6.14435903
v 0.14294953 2.08216000 -6.14435903
v 0.14403079 1.99388943 -6.14435903
v 0.12763247 1.99388943 -6.09315379
v 0.12248675 1.99388943 -5.94978704
v 0.24023780 1.99388943 -5.94978704
v 0.30873401 2.07279659 -5.94976807
v 0.27159281 2.14739080 -5.94976807
v 0.22141686 2.22218618 -5.94978704
v 0.16000851 2.22218618 -6.00861208
v 0.22167712 2.22218618 -6.14435903
v 0.22135680 1.99388943 -6.14435903
v 0.31484088 1.99388943 -6.08183850
v 0.31448052 2.04888533 -6.06806564
v 0.30873401 2.08940038 -5.94976807
v 0.30100550 2.11887612 -5.94976807
v 0.30104554 2.12010517 -6.00859293
v 0.29874304 2.12421704 -6.06749419
v 0.31203770 2.09007080 -6.10315495
v 0.31488092 2.04553326 -6.10626001
v 0.22185731 2.22113591 -6.14435903
v 0.23467165 1.99388943 -6.14426384
v 0.23449147 2.04553326 -6.14435903
v 0.31488092 1.99388943 -6.08646756
v 0.31225792 2.09476369 -6.06749419
v 0.31488092 1.99388943 -6.10626001
v 0.23449147 2.04674001 -6.14435903
v 0.23318998 2.11103232 -6.14435903
v 0.22866488 2.18131358 -6.14435903
f 1 2 3
f 1 3 4
f 1 4 5
f 1 5 6
f 1 6 7
f 1 7 8
f 1 8 2
f 2 9 10
f 2 10 3
f 2 8 11
f 2 11 9
f 3 10 12
f 3 12 4
f 4 12 13
f 4 13 14
f 4 14 5
f 5 14 15
f 5 15 16
f 5 16 6
f 6 16 17
f 6 17 18
f 6 18 7
f 7 18 8
f 8 18 11
f 9 11 18
f 9 18 19
f 9 19 20
f 9 20 21
f 9 21 10
f 10 21 22
f 10 22 12
f 12 22 21
f 12 21 30
f 12 30 40
f 12 40 44
f 12 44 42
f 12 42 31
f 12 31 24
f 12 24 23
f 12 23 13
f 13 23 14
f 14 23 15
f 15 23 24
f 15 24 25
f 15 25 33
f 15 33 34
f 15 34 26
f 15 26 16
f 16 26 27
f 16 27 17
f 17 27 28
f 17 28 18
f 18 28 27
f 18 27 29
f 18 29 39
f 18 39 47
f 18 47 46
f 18 46 45
f 18 45 41
f 18 41 30
f 18 30 21
f 18 21 20
f 18 20 19
f 24 31 25
f 25 32 33
f 25 31 32
f 26 34 27
f 27 34 35
f 27 35 36
f 27 36 29
f 29 36 37
f 29 37 38
f 29 38 39
f 30 41 40
f 31 42 38
f 31 38 32
f 32 38 43
f 32 43 33
f 33 43 34
f 34 43 35
f 35 43 36
f 36 43 37
f 37 43 38
f 38 42 44
f 38 44 41
f 38 41 45
f 38 45 46
f 38 46 47
f 38 47 39
f 40 41 44

