# https://github.com/mikedh/trimesh
v -0.51537865 0.45554212 -0.51332097
v -0.51537865 0.45554212 -0.68604633
v -0.60263012 0.45554212 -0.51332097
v -0.51537865 -0.01011080 -0.51332097
v -0.52099950 0.45554212 -0.67848817
v -0.51537865 0.10096868 -0.67688181
v -0.51750571 0.10096868 -0.67434539
v -0.53922036 0.04201079 -0.64487298
v -0.53814401 0.45554212 -0.65090943
v -0.59706046 0.10096868 -0.51332097
v -0.54345736 -0.00281563 -0.51332097
v -0.51537865 -0.01144136 -0.52838689
v -0.51537865 0.04201079 -0.67290815
v -0.53235228 -0.00052156 -0.63550545
v -0.58493040 0.05086588 -0.51332097
v -0.55655269 0.00581010 -0.51332097
v -0.53734101 -0.00501794 -0.58731467
v -0.51537865 -0.01318487 -0.58731467
v -0.51537865 -0.00203563 -0.64225209
v -0.51537865 -0.00928497 -0.61655034
v -0.57112592 0.02732859 -0.51332097
f 1 2 5
f 1 5 9
f 1 9 3
f 1 3 10
f 1 10 15
f 1 15 21
f 1 21 16
f 1 16 11
f 1 11 4
f 1 4 12
f 1 12 18
f 1 18 20
f 1 20 19
f 1 19 13
f 1 13 6
f 1 6 2
f 2 6 7
f 2 7 8
f 2 8 5
f 3 9 8
f 3 8 10
f 4 11 12
f 5 8 9
f 6 13 8
f 6 8 7
f 8 13 14
f 8 14 10
f 10 14 15
f 11 16 17
f 11 17 18
f 11 18 12
f 13 19 14
f 14 19 20
f 14 20 18
f 14 18 17
f 14 17 21
f 14 21 15
f 16 21 17

