# https://github.com/mikedh/trimesh
v 0.20494426 2.50705772 -3.21569364
v 0.17442325 2.50705772 -3.21569364
v 0.21145785 2.48761615 -3.21569364
v 0.20494426 2.50705772 -3.53325511
v 0.17420057 2.50705772 -3.53325511
v 0.15999956 2.45833069 -3.53325511
v 0.16035465 2.45783853 -3.21569364
v 0.22139666 2.45783853 -3.21569364
v 0.22139666 2.45783853 -3.53325511
v 0.15990332 2.45783853 -3.53325511
v 0.16035465 0.04216147 -3.21569364
v 0.22139666 0.04216147 -3.21569364
v 0.22139666 0.04216147 -3.53325511
v 0.15990332 0.04216147 -3.53325511
v 0.16885482 0.01238385 -3.21569364
v 0.20494426 -0.00705772 -3.21569364
v 0.22128831 0.04166931 -3.53325511
v 0.17420057 -0.00705772 -3.53325511
v 0.17442325 -0.00705772 -3.21569364
v 0.20494426 -0.00705772 -3.53325511
f 1 2 7
f 1 7 11
f 1 11 15
f 1 15 19
f 1 19 16
f 1 16 12
f 1 12 8
f 1 8 3
f 1 3 4
f 1 4 5
f 1 5 2
f 2 5 6
f 2 6 7
f 3 8 9
f 3 9 4
f 4 9 13
f 4 13 17
f 4 17 20
f 4 20 18
f 4 18 14
f 4 14 10
f 4 10 6
f 4 6 5
f 6 10 7
f 7 10 14
f 7 14 11
f 8 12 13
f 8 13 9
f 11 14 15
f 12 16 17
f 12 17 13
f 14 18 19
f 14 19 15
f 16 19 18
f 16 18 20
f 16 20 17

