# https://github.com/mikedh/trimesh
v 0.20494566 2.50705772 -3.05313360
v 0.20494566 2.50705772 -3.21569364
v 0.17442869 2.50705772 -3.05313360
v 0.22139860 2.45796330 -3.05313360
v 0.17442869 2.50705772 -3.21569364
v 0.22139860 2.45796330 -3.21569364
v 0.16035764 2.45796330 -3.05313360
v 0.22726891 2.04555390 -3.05313360
v 0.16035764 2.45796330 -3.21569364
v 0.22139860 1.66694311 -3.21569364
v 0.15239854 2.04555390 -3.05313360
v 0.22583255 1.66694311 -3.05313360
v 0.16035764 1.66694311 -3.21569364
v 0.16035764 1.66694311 -3.05313360
f 1 2 5
f 1 5 3
f 1 3 7
f 1 7 11
f 1 11 14
f 1 14 12
f 1 12 8
f 1 8 4
f 1 4 6
f 1 6 2
f 2 6 10
f 2 10 13
f 2 13 9
f 2 9 5
f 3 5 9
f 3 9 7
f 4 8 6
f 6 8 10
f 7 9 11
f 8 12 10
f 9 13 11
f 10 12 14
f 10 14 13
f 11 13 14

