# https://github.com/mikedh/trimesh
v -2.34778791 1.06547722 -4.06819695
v -2.34778791 1.11810097 -4.10004781
v -2.33818022 1.12394104 -4.09682201
v -2.31542645 1.10728369 -4.06293695
v -2.33547815 1.06547722 -4.05108010
v -2.34778791 1.06547722 -4.01117940
v -2.34778791 1.14140863 -4.09885626
v -2.33818022 1.13586319 -4.09682201
v -2.31542645 1.16161211 -4.06181810
v -2.31542645 1.10703115 -4.05751709
v -2.33400197 1.06547722 -4.02345768
v -2.31542645 1.15134201 -3.95161897
v -2.34778791 1.07787290 -4.00241752
v -2.34778791 1.17297656 -4.06340193
v -2.31542645 1.16342199 -4.06010351
v -2.31542645 1.10997748 -4.00872376
v -2.31542645 1.15770820 -3.95161897
v -2.31580341 1.15381482 -3.95161897
v -2.34778791 1.12531950 -3.99695407
v -2.31542645 1.16342199 -4.05924620
v -2.34778791 1.16340095 -4.00349278
v -2.31542645 1.16216980 -4.00376889
f 1 2 3
f 1 3 4
f 1 4 5
f 1 5 11
f 1 11 6
f 1 6 13
f 1 13 19
f 1 19 21
f 1 21 14
f 1 14 7
f 1 7 2
f 2 7 8
f 2 8 3
f 3 8 4
f 4 8 9
f 4 9 15
f 4 15 20
f 4 20 22
f 4 22 17
f 4 17 12
f 4 12 16
f 4 16 10
f 4 10 11
f 4 11 5
f 6 11 12
f 6 12 13
f 7 14 15
f 7 15 9
f 7 9 8
f 10 16 11
f 11 16 12
f 12 17 18
f 12 18 13
f 13 18 19
f 14 20 15
f 14 21 17
f 14 17 22
f 14 22 20
f 17 21 19
f 17 19 18

