# https://github.com/mikedh/trimesh
v -0.54376416 1.30057916 -3.84862340
v -0.54376416 1.30057916 -3.85155781
v -0.60807878 1.30057916 -3.84862340
v -0.54376416 -0.00771048 -3.84862340
v -0.60807878 1.30057916 -3.85260321
v -0.54376416 1.26880716 -3.86991631
v -0.60807878 -0.00796671 -3.84862340
v -0.60701481 -0.00796671 -3.84862340
v -0.60807878 -0.00796671 -3.84932028
v -0.54376416 -0.00258601 -3.94613795
v -0.60701481 1.26983205 -3.87006304
v -0.60807878 1.26983205 -3.87006304
v -0.54376416 1.22050859 -3.89650953
v -0.60807878 -0.00258601 -3.94718335
v -0.54376416 0.00125735 -4.00506485
v -0.60807878 1.22140537 -3.89617937
v -0.54376416 1.21769008 -3.89777498
v -0.60701481 1.22050859 -3.89665621
v -0.60807878 0.00138555 -4.00506485
v -0.60807878 0.00151357 -4.00559674
v -0.54376416 0.00996913 -4.03332704
v -0.60807878 1.22050859 -3.89665621
v -0.54376416 1.18181845 -3.91380428
v -0.60807878 0.01086582 -4.03554621
v -0.54376416 0.01073780 -4.03567458
v -0.60807878 1.18181845 -3.91380428
v -0.54376416 1.17964055 -3.91448286
v -0.60807878 0.03981946 -4.03554621
v -0.54376416 0.04033191 -4.03596804
v -0.60807878 1.15235246 -3.92286431
v -0.54376416 1.15235246 -3.92286431
v -0.60807878 0.04033191 -4.03552786
v -0.54376416 0.27400989 -4.02978741
v -0.54376416 0.22238036 -4.03118123
v -0.60807878 1.10354144 -3.93595916
v -0.54376416 1.10264466 -3.93619760
v -0.60807878 0.10208235 -4.03319866
v -0.60807878 0.27887823 -4.02540408
v -0.60807878 0.33781021 -4.02239630
v -0.60807878 0.39674211 -4.01915013
v -0.60807878 0.45452109 -4.01581219
v -0.60807878 0.51345308 -4.01197911
v -0.54376416 0.27426611 -4.02976906
v -0.60807878 0.15986125 -4.03099784
v -0.60807878 0.21994624 -4.02835688
v -0.60807878 1.10264466 -3.93619760
v -0.54376416 1.04371267 -3.94940252
v -0.54809547 1.04371267 -3.94942083
v -0.60807878 0.51447797 -4.01190575
v -0.54809547 0.57238506 -4.00765084
v -0.54376416 0.57238506 -4.00763248
v -0.60807878 0.57238506 -4.00765084
v -0.60807878 1.04371267 -3.94942083
v -0.54376416 0.98478071 -3.96055330
v -0.54809547 0.98478071 -3.96057166
v -0.54376416 0.63131701 -4.00290073
v -0.60807878 0.63131701 -4.00290073
v -0.60807878 0.98478071 -3.96057166
v -0.54376416 0.98042486 -3.96126859
v -0.54376416 0.92584874 -3.97005352
v -0.60807878 0.63234190 -4.00280902
v -0.54376416 0.69012088 -3.99747205
v -0.60807878 0.92584874 -3.97005352
v -0.54376416 0.89151445 -3.97500536
v -0.60807878 0.89215503 -3.97493200
v -0.60807878 0.69012088 -3.99747205
v -0.54376416 0.74905282 -3.99158487
v -0.54376416 0.88946464 -3.97528046
v -0.60807878 0.86268902 -3.97850833
v -0.60807878 0.74905282 -3.99158487
v -0.60807878 0.80900971 -3.98496406
v -0.54376416 0.80798481 -3.98507413
f 1 2 5
f 1 5 3
f 1 3 7
f 1 7 8
f 1 8 4
f 1 4 10
f 1 10 15
f 1 15 21
f 1 21 25
f 1 25 29
f 1 29 34
f 1 34 33
f 1 33 43
f 1 43 51
f 1 51 56
f 1 56 62
f 1 62 67
f 1 67 72
f 1 72 68
f 1 68 64
f 1 64 60
f 1 60 59
f 1 59 54
f 1 54 47
f 1 47 36
f 1 36 31
f 1 31 27
f 1 27 23
f 1 23 17
f 1 17 13
f 1 13 6
f 1 6 2
f 2 6 5
f 3 5 12
f 3 12 16
f 3 16 22
f 3 22 26
f 3 26 30
f 3 30 35
f 3 35 46
f 3 46 53
f 3 53 58
f 3 58 63
f 3 63 65
f 3 65 69
f 3 69 71
f 3 71 70
f 3 70 66
f 3 66 61
f 3 61 57
f 3 57 52
f 3 52 49
f 3 49 42
f 3 42 41
f 3 41 40
f 3 40 39
f 3 39 38
f 3 38 45
f 3 45 44
f 3 44 37
f 3 37 32
f 3 32 28
f 3 28 24
f 3 24 20
f 3 20 19
f 3 19 14
f 3 14 9
f 3 9 7
f 4 8 9
f 4 9 10
f 5 6 11
f 5 11 12
f 6 13 11
f 7 9 8
f 9 14 10
f 10 14 15
f 11 13 16
f 11 16 12
f 13 17 18
f 13 18 16
f 14 19 15
f 15 19 20
f 15 20 21
f 16 18 22
f 17 23 18
f 18 23 26
f 18 26 22
f 20 24 21
f 21 24 25
f 23 27 26
f 24 28 29
f 24 29 25
f 26 27 30
f 27 31 30
f 28 32 33
f 28 33 34
f 28 34 29
f 30 31 35
f 31 36 35
f 32 37 33
f 33 38 39
f 33 39 40
f 33 40 41
f 33 41 42
f 33 42 49
f 33 49 43
f 33 37 44
f 33 44 45
f 33 45 38
f 35 36 46
f 36 47 48
f 36 48 53
f 36 53 46
f 43 50 51
f 43 49 52
f 43 52 50
f 47 54 55
f 47 55 48
f 48 55 58
f 48 58 53
f 50 52 57
f 50 57 56
f 50 56 51
f 54 59 55
f 55 59 60
f 55 60 63
f 55 63 58
f 56 57 61
f 56 61 62
f 60 64 65
f 60 65 63
f 61 66 62
f 62 66 70
f 62 70 67
f 64 68 65
f 65 68 69
f 67 71 72
f 67 70 71
f 68 72 71
f 68 71 69

