# https://github.com/mikedh/trimesh
v -3.47339952 2.50810378 -3.44220585
v -3.48816478 2.50810378 -3.44220585
v -3.44866892 2.50761117 -3.44220585
v -3.44863485 2.50761117 -3.53364669
v -3.48017882 2.50761117 -3.57966313
v -3.50572498 2.45785846 -3.44220585
v -3.43829581 2.50711857 -3.57966313
v -3.43235736 2.45785846 -3.44220585
v -3.41974145 2.45785846 -3.57966313
v -3.49538594 2.45785846 -3.57966313
v -3.50599701 2.39899259 -3.44220585
v -3.41921478 2.39899259 -3.57966313
v -3.43203457 2.01279317 -3.44220585
v -3.49538594 0.04214154 -3.57966313
v -3.50599701 0.08376640 -3.44220585
v -3.41921478 0.10076111 -3.57966313
v -3.43203457 0.10100741 -3.44220585
v -3.48017882 -0.00761117 -3.57966313
v -3.50572498 0.04214154 -3.44220585
v -3.43219597 0.04214154 -3.44220585
v -3.41974145 0.04214154 -3.57966313
v -3.47326359 -0.00761117 -3.57966313
v -3.48816478 -0.00810378 -3.44220585
v -3.50085708 0.02662464 -3.44220585
v -3.44866892 -0.00761117 -3.44220585
v -3.42049766 0.03992483 -3.57966313
v -3.43829581 -0.00711857 -3.57966313
v -3.44863485 -0.00761117 -3.53364669
f 1 2 6
f 1 6 11
f 1 11 15
f 1 15 19
f 1 19 24
f 1 24 23
f 1 23 25
f 1 25 20
f 1 20 17
f 1 17 13
f 1 13 8
f 1 8 3
f 1 3 4
f 1 4 5
f 1 5 2
f 2 5 6
f 3 7 4
f 3 8 9
f 3 9 7
f 4 7 5
f 5 7 9
f 5 9 12
f 5 12 16
f 5 16 21
f 5 21 26
f 5 26 27
f 5 27 22
f 5 22 18
f 5 18 14
f 5 14 10
f 5 10 6
f 6 10 11
f 8 12 9
f 8 13 12
f 10 14 15
f 10 15 11
f 12 13 17
f 12 17 16
f 14 18 19
f 14 19 15
f 16 17 20
f 16 20 21
f 18 22 23
f 18 23 24
f 18 24 19
f 20 25 21
f 21 25 26
f 22 27 28
f 22 28 23
f 23 28 25
f 25 28 27
f 25 27 26

