# https://github.com/mikedh/trimesh
v 0.23356457 2.03102843 -5.22423166
v 0.23346728 2.03102843 -5.41847138
v 0.22344681 2.03102843 -5.22423166
v 0.28139499 1.92765326 -5.22423166
v 0.28190428 1.92765326 -5.24254314
v 0.22344681 2.03102843 -5.41847138
v 0.28168687 1.92765326 -5.41847138
v 0.22344681 1.85911723 -5.22423166
v 0.28177836 1.90935662 -5.22423166
v 0.22344681 1.88769435 -5.41847138
v 0.27107123 1.85175370 -5.22423166
v 0.28150370 1.92700054 -5.41847138
v 0.23723863 1.82266673 -5.22423166
v 0.22906652 1.88290091 -5.41847138
v 0.26054147 1.82266673 -5.22423166
v 0.26898245 1.88290091 -5.41847138
f 1 2 6
f 1 6 3
f 1 3 8
f 1 8 13
f 1 13 15
f 1 15 11
f 1 11 9
f 1 9 4
f 1 4 5
f 1 5 2
f 2 5 7
f 2 7 12
f 2 12 16
f 2 16 14
f 2 14 10
f 2 10 6
f 3 6 10
f 3 10 8
f 4 9 5
f 5 9 7
f 7 9 11
f 7 11 12
f 8 10 13
f 10 14 13
f 11 15 16
f 11 16 12
f 13 14 16
f 13 16 15

