# https://github.com/mikedh/trimesh
v 0.23481724 1.98658292 -1.92516180
v 0.31451020 2.00247573 -1.96344477
v 0.23481724 2.00247573 -1.92531951
v 0.23481724 1.80874679 -1.92516180
v 0.31451020 1.98658292 -1.98559109
v 0.31444785 2.00247573 -1.98955079
v 0.31451020 1.80872782 -1.96344477
v 0.23481724 2.00247573 -2.08104462
v 0.23481724 1.80872782 -1.96588021
v 0.27611088 1.80872782 -1.94555600
v 0.31451020 1.80980883 -1.98566125
v 0.28369398 1.91239131 -2.10415454
v 0.28241462 1.92765823 -2.10415454
v 0.26067950 1.97222632 -2.10415454
v 0.25379852 1.97985033 -2.10415454
v 0.23481724 2.00078780 -2.10415454
v 0.31451020 1.80872782 -1.98566125
v 0.23481724 1.80872782 -2.10331352
v 0.27654781 1.85308728 -2.10415454
v 0.23481724 1.81583974 -2.10415454
v 0.28687702 1.80872782 -2.06047516
v 0.26721716 1.80872782 -2.10331352
v 0.23481724 1.81252087 -2.10406691
v 0.26511082 1.81280532 -2.10415454
v 0.26758385 1.80872782 -2.10254265
v 0.26751360 1.81280532 -2.10415454
f 1 2 3
f 1 3 8
f 1 8 16
f 1 16 20
f 1 20 23
f 1 23 18
f 1 18 9
f 1 9 4
f 1 4 7
f 1 7 2
f 2 5 6
f 2 6 8
f 2 8 3
f 2 7 17
f 2 17 11
f 2 11 5
f 4 9 10
f 4 10 7
f 5 11 6
f 6 12 13
f 6 13 14
f 6 14 15
f 6 15 16
f 6 16 8
f 6 11 17
f 6 17 12
f 7 10 9
f 7 9 18
f 7 18 22
f 7 22 25
f 7 25 21
f 7 21 17
f 12 17 19
f 12 19 26
f 12 26 24
f 12 24 20
f 12 20 16
f 12 16 15
f 12 15 14
f 12 14 13
f 17 21 19
f 18 23 24
f 18 24 26
f 18 26 22
f 19 21 25
f 19 25 22
f 19 22 26
f 20 24 23

