# https://github.com/mikedh/trimesh
v -0.31235417 0.00978658 -1.74115953
v -0.25344739 0.00757241 -1.74438875
v -0.31235417 0.00978658 -1.73238400
v -0.31235417 0.04201510 -1.75758419
v -0.19449924 0.00535824 -1.74708745
v -0.13559237 0.00314408 -1.74929424
v -0.07668550 0.00092991 -1.75103494
v -0.01777880 -0.00128426 -1.75225811
v -0.25344739 0.00757241 -1.72965299
v -0.31235417 0.04201510 -1.71760942
v -0.25344739 0.04201510 -1.76081359
v -0.31235417 0.10105974 -1.76921998
v -0.19449924 0.04201510 -1.76350561
v 0.11021119 -0.00546664 -1.75542921
v -0.01777880 -0.00128426 -1.72259902
v -0.07668550 0.00092991 -1.72375106
v -0.13559237 0.00314408 -1.72535602
v -0.19449924 0.00535824 -1.72731677
v -0.19449924 0.04201510 -1.71300828
v -0.31235417 0.10105974 -1.70683433
v 0.11021119 0.10105974 -1.77294111
v 0.11021119 0.04201510 -1.77288947
v -0.07668550 0.04201510 -1.76745978
v -0.13559237 0.04201510 -1.76571240
v -0.31235417 2.45792502 -1.76921998
v 0.11021119 -0.00472852 -1.72207481
v 0.04116934 -0.00276040 -1.72211362
v -0.01777880 0.04201510 -1.70829054
v -0.07668550 0.04201510 -1.70944240
v -0.13559237 0.04201510 -1.71104086
v 0.04116934 0.04201510 -1.70779863
v 0.10007622 0.04201510 -1.70776632
v 0.11021119 0.04201510 -1.70776632
v -0.31235417 2.22223852 -1.70683433
v 0.11021119 2.44316388 -1.77294111
v -0.31235417 2.50712884 -1.75280831
v 0.11021119 2.45792502 -1.77288947
v 0.11021119 2.45792502 -1.70776632
v -0.31235417 2.28103712 -1.70688613
v -0.31235417 2.50712884 -1.72206831
v 0.11021119 2.50786696 -1.75542921
v 0.11021119 2.49507395 -1.76029588
v 0.11021119 2.50712884 -1.72207481
v -0.31235417 2.45792502 -1.70771451
v 0.11021119 2.50786696 -1.72987304
f 1 2 9
f 1 9 3
f 1 3 10
f 1 10 20
f 1 20 34
f 1 34 39
f 1 39 44
f 1 44 40
f 1 40 36
f 1 36 25
f 1 25 12
f 1 12 4
f 1 4 2
f 2 5 6
f 2 6 7
f 2 7 8
f 2 8 15
f 2 15 9
f 2 4 5
f 3 9 10
f 4 11 6
f 4 6 5
f 4 12 11
f 6 11 7
f 7 11 13
f 7 13 14
f 7 14 8
f 8 14 15
f 9 15 16
f 9 16 17
f 9 17 18
f 9 18 10
f 10 18 17
f 10 17 16
f 10 16 19
f 10 19 20
f 11 12 13
f 12 21 22
f 12 22 23
f 12 23 24
f 12 24 13
f 12 25 35
f 12 35 21
f 13 24 14
f 14 26 15
f 14 24 23
f 14 23 22
f 14 22 21
f 14 21 35
f 14 35 37
f 14 37 42
f 14 42 41
f 14 41 45
f 14 45 43
f 14 43 38
f 14 38 33
f 14 33 26
f 15 26 27
f 15 27 28
f 15 28 29
f 15 29 30
f 15 30 16
f 16 30 19
f 19 30 20
f 20 30 29
f 20 29 28
f 20 28 31
f 20 31 32
f 20 32 33
f 20 33 38
f 20 38 34
f 25 36 37
f 25 37 35
f 26 33 32
f 26 32 31
f 26 31 28
f 26 28 27
f 34 38 39
f 36 40 45
f 36 45 41
f 36 41 42
f 36 42 37
f 38 43 44
f 38 44 39
f 40 43 45
f 40 44 43

