# https://github.com/mikedh/trimesh
v -0.40493015 1.29766209 -0.77527734
v -0.40493015 1.29766209 -0.94071148
v -0.46607849 1.29766209 -0.77527734
v -0.40154085 0.57234876 -0.77527734
v -0.46607849 1.29766209 -0.94071148
v -0.40191008 0.57234876 -0.82301609
v -0.40493015 0.15973305 -0.94071148
v -0.48537246 0.62484806 -0.77527734
v -0.40172138 0.52468807 -0.77527734
v -0.46623435 0.57234876 -0.94071148
v -0.48537246 0.57138102 -0.85616449
v -0.48537246 0.60839666 -0.82189882
v -0.40500399 0.10082248 -0.94071148
v -0.48537246 0.47182585 -0.77527734
v -0.40177880 0.51343819 -0.77527734
v -0.46607849 0.10094348 -0.94071148
v -0.48537246 0.53884109 -0.85412418
v -0.40493015 0.10094348 -0.88192859
v -0.40493015 0.10094348 -0.77527734
v -0.43231597 0.06187138 -0.77527734
v -0.43231597 0.06187138 -0.94071148
v -0.48537246 0.47533387 -0.79749505
v -0.46648882 0.10094348 -0.77527734
v -0.46289423 0.06199238 -0.94071148
v -0.46588971 0.09356445 -0.77527734
v -0.48537246 0.49311587 -0.84363060
v -0.48537246 0.51525270 -0.84970323
v -0.46309943 0.06187138 -0.77527734
v -0.46288606 0.06187138 -0.88192859
f 1 2 5
f 1 5 3
f 1 3 8
f 1 8 14
f 1 14 23
f 1 23 25
f 1 25 28
f 1 28 20
f 1 20 19
f 1 19 15
f 1 15 9
f 1 9 4
f 1 4 2
f 2 4 6
f 2 6 7
f 2 7 13
f 2 13 21
f 2 21 24
f 2 24 16
f 2 16 10
f 2 10 5
f 3 5 8
f 4 9 6
f 5 10 11
f 5 11 12
f 5 12 8
f 6 9 13
f 6 13 7
f 8 12 11
f 8 11 17
f 8 17 27
f 8 27 26
f 8 26 22
f 8 22 14
f 9 15 13
f 10 16 11
f 11 16 17
f 13 15 18
f 13 18 19
f 13 19 20
f 13 20 21
f 14 22 16
f 14 16 23
f 15 19 18
f 16 24 25
f 16 25 23
f 16 22 26
f 16 26 27
f 16 27 17
f 20 28 29
f 20 29 21
f 21 29 24
f 24 29 28
f 24 28 25

