# https://github.com/mikedh/trimesh
v -2.57051185 0.05794031 -4.33258288
v -2.57051185 0.04061070 -4.29970002
v -2.57051185 0.08326396 -4.33257525
v -2.25636714 0.07744308 -4.33251422
v -2.25636714 0.06346185 -4.33251422
v -2.25636714 0.06321239 -4.33208721
v -2.57051185 0.04535610 -4.27604446
v -2.25636714 0.04722984 -4.29970002
v -2.25636714 0.05511298 -4.26032744
v -2.57051185 0.08945627 -4.32028230
v -2.25636714 0.08989416 -4.29970002
v -2.57051185 0.05051728 -4.25467664
v -2.25636714 0.08402341 -4.26035036
v -2.57051185 0.07000890 -4.25467664
v -2.57051185 0.09723957 -4.29970002
v -2.25636714 0.08417312 -4.26100611
v -2.57051185 0.08889078 -4.25521043
f 1 2 7
f 1 7 12
f 1 12 14
f 1 14 17
f 1 17 15
f 1 15 10
f 1 10 3
f 1 3 4
f 1 4 5
f 1 5 6
f 1 6 2
f 2 6 8
f 2 8 9
f 2 9 7
f 3 10 4
f 4 11 16
f 4 16 13
f 4 13 9
f 4 9 8
f 4 8 6
f 4 6 5
f 4 10 11
f 7 9 12
f 9 13 14
f 9 14 12
f 10 15 11
f 11 15 16
f 13 16 17
f 13 17 14
f 15 17 16

