# https://github.com/mikedh/trimesh
v 0.23472732 0.55113123 -5.95648556
v 0.23472732 0.55113123 -6.14423504
v 0.22618097 0.55113123 -5.95648556
v 0.23472732 0.32334253 -5.95648556
v 0.23472732 0.51337589 -6.14423504
v 0.22370654 0.55113123 -6.18179386
v 0.17513204 0.55113123 -6.01682651
v 0.18619655 0.48835132 -5.95648556
v 0.22139544 0.04200781 -5.95648556
v 0.22182060 0.04200781 -6.18179386
v 0.23472732 0.32334253 -6.00860031
v 0.22370654 0.51337589 -6.18179386
v 0.23472732 0.45447534 -6.14363970
v 0.22368477 0.45447534 -6.18179386
v 0.12337449 0.55113123 -6.18179386
v 0.17261388 0.45447534 -5.95648556
v 0.20494601 -0.00705772 -5.95648556
v 0.22224577 0.09735688 -6.18179386
v 0.23472732 0.39535633 -6.13903031
v 0.23472732 0.34104541 -6.12200416
v 0.23472732 0.34011658 -6.11975470
v 0.23472732 0.32558269 -6.06752966
v 0.22082872 0.03905737 -6.18179386
v 0.12336360 0.42671888 -6.18179386
v 0.16036133 0.39552018 -5.95648556
v 0.17442342 -0.00705772 -5.95648556
v 0.20494601 -0.00705772 -6.18179386
v 0.12336360 0.15986353 -6.18179386
v 0.16036133 0.04200781 -5.95648556
v 0.17052089 -0.00705772 -6.18179386
v 0.16198560 0.03632540 -5.95648556
v 0.12495521 0.10096298 -6.18179386
v 0.14557973 0.04020476 -6.18179386
f 1 2 6
f 1 6 15
f 1 15 7
f 1 7 3
f 1 3 8
f 1 8 16
f 1 16 25
f 1 25 29
f 1 29 31
f 1 31 26
f 1 26 17
f 1 17 9
f 1 9 4
f 1 4 11
f 1 11 22
f 1 22 21
f 1 21 20
f 1 20 19
f 1 19 13
f 1 13 5
f 1 5 2
f 2 5 12
f 2 12 6
f 3 7 8
f 4 9 10
f 4 10 11
f 5 13 14
f 5 14 12
f 6 12 14
f 6 14 18
f 6 18 10
f 6 10 23
f 6 23 27
f 6 27 30
f 6 30 33
f 6 33 32
f 6 32 28
f 6 28 24
f 6 24 15
f 7 15 16
f 7 16 8
f 9 17 10
f 10 18 13
f 10 13 19
f 10 19 20
f 10 20 21
f 10 21 22
f 10 22 11
f 10 17 23
f 13 18 14
f 15 24 25
f 15 25 16
f 17 26 30
f 17 30 27
f 17 27 23
f 24 28 29
f 24 29 25
f 26 31 32
f 26 32 33
f 26 33 30
f 28 32 29
f 29 32 31

