# https://github.com/mikedh/trimesh
v 0.20494215 2.50688579 -3.53325513
v 0.15903349 2.51506669 -3.71046765
v 0.15903349 2.51382710 -3.65154550
v 0.17420443 2.50688579 -3.53325513
v 0.20505630 2.50663782 -3.53325513
v 0.20494215 2.50688579 -3.94753502
v 0.14441785 2.51630618 -3.71046765
v 0.14441785 2.51209175 -3.65154550
v 0.14441785 2.50217551 -3.60174756
v 0.15999973 2.45829609 -3.53325513
v 0.22139895 2.45780024 -3.53325513
v 0.22167291 2.45780024 -3.59258280
v 0.22176423 2.45780024 -3.82827139
v 0.17442518 2.50688579 -3.94753502
v 0.14441785 2.51531457 -3.75470998
v 0.22101101 2.45903983 -3.94753502
v 0.14441785 2.45780024 -3.58512121
v 0.15990841 2.45780024 -3.53325513
v 0.22193914 2.39904642 -3.59258280
v 0.22139895 0.04219976 -3.53325513
v 0.22213706 2.39904642 -3.82827139
v 0.22139895 2.45780024 -3.94753502
v 0.17409028 2.50589409 -3.94753502
v 0.14441785 2.50415874 -3.81180726
v 0.14441785 2.39879854 -3.58366136
v 0.15990841 0.04219976 -3.53325513
v 0.22193914 0.10095358 -3.59258280
v 0.22128480 0.04170391 -3.53325513
v 0.22167291 0.04219976 -3.59258280
v 0.22213706 0.10095358 -3.82827139
v 0.22139895 0.04219976 -3.94753502
v 0.16035729 2.45780024 -3.94753502
v 0.14441785 2.50391086 -3.81213166
v 0.14441785 0.10095358 -3.58366136
v 0.14441785 0.04195179 -3.58512121
v 0.14441785 -0.00217551 -3.60174756
v 0.17410556 -0.00663782 -3.53325513
v 0.20494215 -0.00688579 -3.53325513
v 0.22176423 0.04219976 -3.82827139
v 0.20533008 -0.00589409 -3.94753502
v 0.14441785 2.39904642 -3.83536799
v 0.14441785 2.45780024 -3.83370539
v 0.14441785 2.49969642 -3.81602468
v 0.16035729 0.04219976 -3.94753502
v 0.14441785 -0.00614206 -3.60993909
v 0.17420443 -0.00688579 -3.53325513
v 0.14441785 -0.01531457 -3.66622535
v 0.15903349 -0.01382710 -3.65154550
v 0.15903349 -0.01506669 -3.71046765
v 0.20494215 -0.00688579 -3.94753502
v 0.14441785 0.10095358 -3.83536799
v 0.16069201 0.04096017 -3.94753502
v 0.14441785 0.00030358 -3.81602468
v 0.14441785 0.04219976 -3.83370539
v 0.14441785 -0.01630618 -3.71046765
v 0.17442518 -0.00688579 -3.94753502
v 0.14441785 -0.01110014 -3.77048473
f 1 2 3
f 1 3 4
f 1 4 10
f 1 10 18
f 1 18 26
f 1 26 37
f 1 37 46
f 1 46 38
f 1 38 28
f 1 28 20
f 1 20 11
f 1 11 5
f 1 5 6
f 1 6 2
f 2 7 3
f 2 6 7
f 3 7 8
f 3 8 4
f 4 8 9
f 4 9 10
f 5 11 12
f 5 12 13
f 5 13 6
f 6 14 15
f 6 15 7
f 6 13 16
f 6 16 22
f 6 22 31
f 6 31 40
f 6 40 50
f 6 50 56
f 6 56 52
f 6 52 44
f 6 44 32
f 6 32 23
f 6 23 14
f 7 15 24
f 7 24 33
f 7 33 43
f 7 43 42
f 7 42 41
f 7 41 51
f 7 51 54
f 7 54 53
f 7 53 57
f 7 57 55
f 7 55 47
f 7 47 45
f 7 45 36
f 7 36 35
f 7 35 34
f 7 34 25
f 7 25 17
f 7 17 9
f 7 9 8
f 9 17 18
f 9 18 10
f 11 19 12
f 11 20 27
f 11 27 19
f 12 19 21
f 12 21 13
f 13 22 16
f 13 21 22
f 14 23 24
f 14 24 15
f 17 25 18
f 18 25 34
f 18 34 26
f 19 27 30
f 19 30 21
f 20 28 29
f 20 29 27
f 21 30 31
f 21 31 22
f 23 32 24
f 24 32 33
f 26 34 35
f 26 35 36
f 26 36 37
f 27 29 30
f 28 38 29
f 29 38 39
f 29 39 30
f 30 39 31
f 31 39 40
f 32 41 42
f 32 42 43
f 32 43 33
f 32 44 51
f 32 51 41
f 36 45 46
f 36 46 37
f 38 46 47
f 38 47 48
f 38 48 49
f 38 49 50
f 38 50 40
f 38 40 39
f 44 52 53
f 44 53 54
f 44 54 51
f 45 47 46
f 47 55 48
f 48 55 49
f 49 55 50
f 50 55 56
f 52 56 53
f 53 56 57
f 55 57 56

