# https://github.com/mikedh/trimesh
v -1.35275268 0.23342424 -0.70494261
v -1.42958275 0.23963332 -0.62226313
v -1.35275268 0.25686081 -0.70494261
v -1.32609101 0.18723934 -0.70494261
v -1.42958275 0.25297425 -0.62226313
v -1.32997538 0.18723934 -0.62226313
v -1.31434674 0.26636989 -0.70494261
v -1.24470182 0.18723934 -0.70494261
v -1.39331049 0.25945703 -0.62226313
v -1.24329760 0.18723934 -0.62226313
v -1.31414614 0.26712846 -0.62226313
v -1.27006868 0.25763501 -0.70494261
v -1.33810881 0.26626048 -0.62226313
v -1.24674428 0.21856625 -0.70494261
v -1.24378998 0.19480909 -0.62226313
v -1.28806804 0.26186560 -0.62226313
v -1.27017813 0.25784610 -0.62226313
v -1.26045809 0.24190895 -0.62226313
v -1.24658017 0.21878524 -0.62226313
f 1 2 5
f 1 5 3
f 1 3 7
f 1 7 12
f 1 12 14
f 1 14 8
f 1 8 4
f 1 4 2
f 2 4 6
f 2 6 10
f 2 10 15
f 2 15 19
f 2 19 18
f 2 18 17
f 2 17 16
f 2 16 11
f 2 11 13
f 2 13 9
f 2 9 5
f 3 5 7
f 4 8 10
f 4 10 6
f 5 9 7
f 7 11 12
f 7 9 13
f 7 13 11
f 8 14 15
f 8 15 10
f 11 16 12
f 12 16 17
f 12 17 18
f 12 18 19
f 12 19 14
f 14 19 15

