# https://github.com/mikedh/trimesh
v -0.48538062 2.28668669 -0.47699516
v -0.48538062 2.47271654 -0.47699516
v -0.49080646 2.34015026 -0.47699516
v -0.48607905 2.34015026 -0.85626898
v -0.48538062 2.33563420 -0.85626898
v -0.48538062 2.46057067 -0.85626898
v -0.49024062 2.45798490 -0.47699516
v -0.49104775 2.39151969 -0.47699516
v -0.48607905 2.45798490 -0.85626898
v -0.48577558 2.45911394 -0.85626898
v -0.49104775 2.39905845 -0.47699516
f 1 2 7
f 1 7 11
f 1 11 8
f 1 8 3
f 1 3 4
f 1 4 5
f 1 5 6
f 1 6 2
f 2 6 7
f 3 8 4
f 4 9 10
f 4 10 6
f 4 6 5
f 4 8 11
f 4 11 9
f 6 10 7
f 7 10 9
f 7 9 11

