# https://github.com/mikedh/trimesh
v -2.37872671 0.05355307 -6.24233958
v -2.37872671 0.05355307 -6.20953346
v -2.37872671 0.08694013 -6.27137435
v -1.99806631 0.08652787 -6.27127425
v -1.99806631 0.05375915 -6.24181098
v -2.37872671 0.05375915 -6.20642646
v -1.99806631 0.05375915 -6.20646931
v -2.37872671 0.08858881 -6.27175280
v -1.99806631 0.11599922 -6.27474547
v -1.99806631 0.07230754 -6.20474072
v -2.37872671 0.10095437 -6.20211228
v -2.37872671 0.11599922 -6.27472405
v -1.99806631 0.15309590 -6.27507423
v -1.99806631 0.10095437 -6.20231951
v -2.37872671 2.15899762 -6.20678366
v -2.37872671 0.16072132 -6.27496710
v -2.37872671 0.16607972 -6.27496710
v -2.37872671 2.15899762 -6.27361697
v -1.99806631 2.15899762 -6.26947436
v -1.99806631 2.15899762 -6.20754777
f 1 2 6
f 1 6 11
f 1 11 15
f 1 15 18
f 1 18 17
f 1 17 16
f 1 16 12
f 1 12 8
f 1 8 3
f 1 3 4
f 1 4 5
f 1 5 7
f 1 7 2
f 2 7 6
f 3 8 4
f 4 8 9
f 4 9 13
f 4 13 19
f 4 19 20
f 4 20 14
f 4 14 10
f 4 10 7
f 4 7 5
f 6 7 10
f 6 10 11
f 8 12 9
f 9 12 13
f 10 14 11
f 11 14 15
f 12 16 13
f 13 16 17
f 13 17 18
f 13 18 19
f 14 20 15
f 15 20 19
f 15 19 18

