# https://github.com/mikedh/trimesh
v -3.76700347 2.22265104 -2.35509997
v -3.76737086 2.22265104 -2.35512095
v -3.76737086 2.22221332 -2.35509997
v -3.71210732 2.22221332 -2.35509997
v -3.71210732 2.22265104 -2.35512095
v -3.77211864 2.22265104 -2.47257126
v -3.82772130 2.14472785 -2.53188530
v -3.82465504 2.14122572 -2.48826211
v -3.82783439 2.10423405 -2.48098459
v -3.81453780 2.10423405 -2.45155890
v -3.76761110 2.16333314 -2.35509997
v -3.69663467 2.04535387 -2.47721964
v -3.69670527 2.10423405 -2.47730376
v -3.71210732 0.04233340 -2.35509997
v -3.69662062 1.92671798 -2.47721964
v -3.69807595 2.14954333 -2.48575915
v -3.69676181 2.15764212 -2.53188530
v -3.70987471 2.22265104 -2.47292882
v -3.77416755 2.22265104 -2.53148560
v -3.82772130 2.14472785 -2.56997667
v -3.83381148 2.11868049 -2.56997667
v -3.83716031 2.10423405 -2.53188530
v -3.82793327 2.04535387 -2.48081635
v -3.81460840 2.04535387 -2.45141164
v -3.76782307 2.10423405 -2.35509997
v -3.69280536 2.10423405 -2.53188530
v -3.73586026 0.00446620 -2.35509997
v -3.69799113 0.00709280 -2.48641121
v -3.69662062 0.04233340 -2.47780857
v -3.69662062 0.10121358 -2.47721964
v -3.70929535 2.22265104 -2.53188530
v -3.69676181 2.15764212 -2.56997667
v -3.77416755 2.22265104 -2.56997667
v -3.83716031 2.10423405 -2.56997667
v -3.83227116 0.04233340 -2.53188530
v -3.82794732 0.04233340 -2.48081635
v -3.82794732 1.92671798 -2.48081635
v -3.76785135 2.04535387 -2.35509997
v -3.81460840 0.10121358 -2.45141164
v -3.69290423 2.10423405 -2.56997667
v -3.69537708 2.13881793 -2.56997667
v -3.69662062 0.04233340 -2.51831879
v -3.76375352 0.00446620 -2.35509997
v -3.78906084 -0.01348237 -2.53188530
v -3.72513539 -0.00385141 -2.46924799
v -3.69799113 0.00709280 -2.51299736
v -3.70929535 2.22265104 -2.56997667
v -3.79489656 0.04233340 -2.56997667
v -3.82286042 0.04233340 -2.56524417
v -3.82140509 0.00753061 -2.56394014
v -3.82538982 0.00096407 -2.53188530
v -3.82479624 0.00205842 -2.48800975
v -3.76783712 0.04233340 -2.35509997
v -3.76785135 1.92759351 -2.35509997
v -3.71183880 0.04233340 -2.54776547
v -3.74131454 0.04233340 -2.56703203
v -3.77693701 0.04233340 -2.56997667
v -3.79229674 -0.00669700 -2.47019448
v -3.78906084 0.00315286 -2.56612761
v -3.74741895 0.00534174 -2.56516005
v -3.72873868 -0.00188144 -2.53234805
v -3.78906084 0.03401570 -2.56997667
v -3.78195331 0.03576677 -2.56997667
f 1 2 3
f 1 3 11
f 1 11 25
f 1 25 38
f 1 38 54
f 1 54 53
f 1 53 43
f 1 43 27
f 1 27 14
f 1 14 4
f 1 4 5
f 1 5 18
f 1 18 31
f 1 31 47
f 1 47 33
f 1 33 19
f 1 19 6
f 1 6 2
f 2 6 7
f 2 7 8
f 2 8 9
f 2 9 10
f 2 10 3
f 3 10 11
f 4 12 13
f 4 13 5
f 4 14 30
f 4 30 15
f 4 15 12
f 5 13 16
f 5 16 17
f 5 17 18
f 6 19 7
f 7 20 21
f 7 21 22
f 7 22 8
f 7 19 33
f 7 33 20
f 8 22 9
f 9 22 23
f 9 23 10
f 10 23 24
f 10 24 25
f 10 25 11
f 12 26 13
f 12 15 26
f 13 26 16
f 14 27 28
f 14 28 29
f 14 29 30
f 15 30 26
f 16 26 17
f 17 31 18
f 17 26 32
f 17 32 47
f 17 47 31
f 20 33 47
f 20 47 32
f 20 32 41
f 20 41 40
f 20 40 57
f 20 57 63
f 20 63 62
f 20 62 48
f 20 48 34
f 20 34 21
f 21 34 22
f 22 34 35
f 22 35 36
f 22 36 37
f 22 37 23
f 23 37 24
f 24 38 25
f 24 37 36
f 24 36 39
f 24 39 54
f 24 54 38
f 26 40 41
f 26 41 32
f 26 30 29
f 26 29 42
f 26 42 40
f 27 43 44
f 27 44 45
f 27 45 28
f 28 45 46
f 28 46 42
f 28 42 29
f 34 48 49
f 34 49 35
f 35 49 50
f 35 50 51
f 35 51 52
f 35 52 36
f 36 53 39
f 36 52 43
f 36 43 53
f 39 53 54
f 40 42 55
f 40 55 56
f 40 56 57
f 42 46 55
f 43 52 58
f 43 58 44
f 44 58 52
f 44 52 51
f 44 51 50
f 44 50 59
f 44 59 60
f 44 60 61
f 44 61 45
f 45 61 46
f 46 61 60
f 46 60 55
f 48 62 50
f 48 50 49
f 50 62 59
f 55 60 56
f 56 60 63
f 56 63 57
f 59 62 60
f 60 62 63

