# https://github.com/mikedh/trimesh
v -2.61437045 0.40172267 -4.33749820
v -2.60205661 0.40172267 -4.33622103
v -2.63654337 0.32282437 -4.33143752
v -2.65136554 0.32282437 -4.33143752
v -2.65707982 0.40172267 -4.33522257
v -2.54803941 0.40172267 -4.30518600
v -2.54803941 0.40156049 -4.30486093
v -2.54803941 0.39908140 -4.29969422
v -2.62738175 0.32282437 -4.29969422
v -2.67858207 0.32282437 -4.29969422
v -2.68507433 0.40172267 -4.29969422
v -2.54803941 0.40172267 -4.27124830
v -2.54803941 0.39923586 -4.29797582
v -2.62802565 0.32282437 -4.29112566
v -2.66987652 0.32282437 -4.27141092
v -2.68476577 0.40172267 -4.29085854
v -2.54803941 0.39940577 -4.29612975
v -2.55815340 0.40172267 -4.24836395
v -2.63082909 0.32282437 -4.26284226
v -2.66720724 0.32282437 -4.26284226
v -2.66895102 0.40172267 -4.24009718
v -2.56416271 0.40172267 -4.24135116
v -2.58883061 0.40172267 -4.22003410
v -2.61125844 0.40172267 -4.21888470
v -2.66634874 0.40172267 -4.23632381
f 1 2 3
f 1 3 4
f 1 4 5
f 1 5 11
f 1 11 16
f 1 16 21
f 1 21 25
f 1 25 24
f 1 24 23
f 1 23 22
f 1 22 18
f 1 18 12
f 1 12 6
f 1 6 2
f 2 6 3
f 3 6 7
f 3 7 8
f 3 8 9
f 3 9 14
f 3 14 19
f 3 19 20
f 3 20 15
f 3 15 10
f 3 10 4
f 4 10 5
f 5 10 11
f 6 12 17
f 6 17 13
f 6 13 8
f 6 8 7
f 8 13 14
f 8 14 9
f 10 15 16
f 10 16 11
f 12 18 19
f 12 19 14
f 12 14 17
f 13 17 14
f 15 20 16
f 16 20 21
f 18 22 19
f 19 22 23
f 19 23 24
f 19 24 20
f 20 25 21
f 20 24 25

