# https://github.com/mikedh/trimesh
v -3.51947027 -0.02952480 -5.00682468
v -3.51947027 -0.02102270 -5.03133241
v -3.02304222 -0.02952480 -5.00682468
v -3.51947027 -0.00727970 -4.96267236
v -3.51947027 -0.00949264 -5.06454210
v -3.02304222 -0.00949264 -5.06454210
v -2.96413842 -0.01787812 -5.00682468
v -3.02304222 -0.00727970 -4.96267236
v -2.96413842 -0.00681379 -5.06388214
v -2.84626478 0.00390107 -5.05910556
v -2.84560517 0.00390107 -5.05881035
v -2.84560517 0.00390107 -5.03178410
v -3.51947027 0.04210203 -4.94799542
v -3.51947027 0.01240317 -5.07654423
v -3.49440477 0.04210203 -5.09280170
v -3.02304222 0.04210203 -5.09278432
v -2.96413842 0.04210203 -5.09208958
v -2.96413842 0.00145527 -4.96929009
v -3.02304222 0.04210203 -4.94799542
v -2.84560517 0.04163621 -5.08168556
v -2.93379601 0.01112196 -4.97637655
v -2.84560517 0.04210203 -5.02730273
v -3.08201205 1.00434760 -4.91535895
v -3.11598233 1.00714279 -4.91633168
v -3.51947027 1.16029614 -4.94799542
v -3.51947027 0.04210203 -5.09280170
v -3.02172299 1.16029614 -5.09278432
v -2.96413842 0.10103410 -5.09269756
v -2.84560517 0.04210203 -5.08192861
v -2.96413842 0.04210203 -4.96119595
v -3.04283080 1.00807452 -4.91645321
v -2.93340026 0.04210203 -4.97589027
v -2.84560517 1.16029614 -5.02730273
v -2.96413842 0.98478125 -4.95456100
v -3.08201205 1.01960472 -4.91535895
v -3.11598233 1.01785769 -4.91633168
v -3.14091585 1.16029614 -4.94797804
v -3.51947027 1.16029614 -5.09278432
v -2.96413842 1.16029614 -5.09269756
v -2.84560517 1.16029614 -5.08192861
v -3.04283080 1.01774126 -4.91645321
v -2.93340026 1.16029614 -4.97589027
v -2.96413842 1.04371324 -4.95563788
v -3.02304222 1.16029614 -4.94797804
v -2.93405988 1.16029614 -4.97556029
v -2.96413842 1.16029614 -4.96119595
f 1 2 3
f 1 3 8
f 1 8 4
f 1 4 13
f 1 13 25
f 1 25 38
f 1 38 26
f 1 26 14
f 1 14 5
f 1 5 2
f 2 5 6
f 2 6 3
f 3 7 8
f 3 6 9
f 3 9 10
f 3 10 11
f 3 11 12
f 3 12 7
f 4 8 19
f 4 19 13
f 5 14 6
f 6 14 15
f 6 15 16
f 6 16 17
f 6 17 9
f 7 12 18
f 7 18 8
f 8 18 19
f 9 17 20
f 9 20 10
f 10 20 11
f 11 20 29
f 11 29 40
f 11 40 33
f 11 33 22
f 11 22 12
f 12 21 18
f 12 22 21
f 13 19 23
f 13 23 24
f 13 24 36
f 13 36 25
f 14 26 15
f 15 26 38
f 15 38 27
f 15 27 16
f 16 28 17
f 16 27 28
f 17 29 20
f 17 28 29
f 18 21 30
f 18 30 19
f 19 30 31
f 19 31 23
f 21 22 32
f 21 32 30
f 22 33 34
f 22 34 32
f 23 31 41
f 23 41 35
f 23 35 36
f 23 36 24
f 25 36 35
f 25 35 37
f 25 37 44
f 25 44 46
f 25 46 45
f 25 45 42
f 25 42 33
f 25 33 40
f 25 40 39
f 25 39 27
f 25 27 38
f 27 39 28
f 28 39 40
f 28 40 29
f 30 32 31
f 31 34 41
f 31 32 34
f 33 42 43
f 33 43 34
f 34 43 41
f 35 41 44
f 35 44 37
f 41 43 45
f 41 45 46
f 41 46 44
f 42 45 43

