# https://github.com/mikedh/trimesh
v 0.15903490 2.45777004 -1.70776123
v 0.20502153 2.45777004 -1.72207182
v 0.19950718 2.50046685 -1.72684191
v 0.15903490 2.50713060 -1.72207182
v 0.11025246 2.46640806 -1.71024110
v 0.11025246 2.45777004 -1.70776123
v 0.15903490 0.04206207 -1.70776123
v 0.22268762 2.39903088 -1.76584710
v 0.22208227 2.45777004 -1.76584710
v 0.20502153 0.04206207 -1.72207182
v 0.20497762 2.50688386 -1.76584710
v 0.15820950 2.51107950 -1.76672535
v 0.11025246 2.50713060 -1.72207182
v 0.11025246 0.04206207 -1.70776123
v 0.15903490 -0.00606444 -1.72207182
v 0.19950718 -0.00038800 -1.72684191
v 0.22261052 2.39903088 -1.82475977
v 0.22268762 0.10104798 -1.76584710
v 0.22200517 2.45777004 -1.82475977
v 0.20494461 2.50688386 -1.88368947
v 0.22208227 0.04206207 -1.76584710
v 0.11025246 2.50762426 -1.75544571
v 0.11025246 2.50762426 -1.72987286
v 0.17440059 2.50688386 -1.88368947
v 0.11025246 -0.00458364 -1.72207182
v 0.15820950 -0.01026008 -1.76672535
v 0.20497762 -0.00705157 -1.76584710
v 0.22170803 2.04536221 -1.88368947
v 0.22139983 2.45777004 -1.88368947
v 0.22261052 0.10104798 -1.82475977
v 0.20494461 -0.00705157 -1.88368947
v 0.22200517 0.04206207 -1.82475977
v 0.16032269 2.45777004 -1.88368947
v 0.11025246 2.49503716 -1.76030202
v 0.11025246 -0.00532404 -1.75544571
v 0.17440059 -0.00680483 -1.88368947
v 0.22170803 0.45471682 -1.88368947
v 0.22139983 0.04206207 -1.88368947
v 0.11025246 2.45777004 -1.77290774
v 0.15946428 2.04536221 -1.88368947
v 0.16032269 0.04206207 -1.88368947
v 0.11025246 0.04206207 -1.77290774
v 0.11025246 2.44320866 -1.77294216
v 0.11025246 0.10104798 -1.77294216
f 1 2 3
f 1 3 4
f 1 4 5
f 1 5 6
f 1 6 14
f 1 14 7
f 1 7 10
f 1 10 2
f 2 8 9
f 2 9 3
f 2 10 18
f 2 18 8
f 3 9 11
f 3 11 4
f 4 12 13
f 4 13 5
f 4 11 12
f 5 13 23
f 5 23 22
f 5 22 34
f 5 34 39
f 5 39 43
f 5 43 44
f 5 44 42
f 5 42 35
f 5 35 25
f 5 25 14
f 5 14 6
f 7 14 15
f 7 15 16
f 7 16 10
f 8 17 19
f 8 19 9
f 8 18 30
f 8 30 17
f 9 19 20
f 9 20 11
f 10 16 21
f 10 21 18
f 11 20 12
f 12 22 23
f 12 23 13
f 12 20 24
f 12 24 22
f 14 25 15
f 15 25 26
f 15 26 27
f 15 27 16
f 16 27 21
f 17 28 29
f 17 29 19
f 17 30 37
f 17 37 28
f 18 21 32
f 18 32 30
f 19 29 20
f 20 29 28
f 20 28 37
f 20 37 38
f 20 38 31
f 20 31 36
f 20 36 41
f 20 41 40
f 20 40 33
f 20 33 24
f 21 27 31
f 21 31 32
f 22 24 33
f 22 33 34
f 25 35 26
f 26 31 27
f 26 35 36
f 26 36 31
f 30 32 38
f 30 38 37
f 31 38 32
f 33 39 34
f 33 40 39
f 35 41 36
f 35 42 41
f 39 40 43
f 40 41 42
f 40 42 44
f 40 44 43

