# https://github.com/mikedh/trimesh
v 0.31488215 1.86874507 -6.08362311
v 0.31488215 1.80996267 -6.08368019
v 0.31488215 1.92765348 -6.08364208
v 0.31484439 1.99388943 -6.08185132
v 0.31478785 1.80996267 -6.10631323
v 0.31488215 1.86874507 -6.10625615
v 0.28215488 1.92765348 -5.94976807
v 0.27859181 1.90523874 -5.94976807
v 0.27265335 1.86820492 -5.94976807
v 0.28526557 1.80996267 -6.00871306
v 0.31488215 1.98657989 -6.08368019
v 0.24024658 1.99388943 -5.94976807
v 0.26015441 1.97187078 -5.94976807
v 0.31488215 1.99388943 -6.08648074
v 0.31488215 1.99388943 -6.10625615
v 0.23472293 1.80996267 -6.14420659
v 0.23466638 1.81021472 -6.14437799
v 0.23466638 1.98697595 -6.14437799
v 0.22612635 1.86827697 -5.94976807
v 0.23232876 1.80996267 -5.96639979
v 0.26658301 1.80996267 -5.96655222
v 0.12247744 1.99388943 -5.94976807
v 0.23468518 1.99388943 -6.14428281
v 0.18016484 1.80996267 -6.14437799
v 0.22137559 1.99388943 -6.14437799
v 0.13776640 1.96848609 -5.94976807
v 0.20288165 1.80996267 -5.99196684
v 0.12230780 1.99388943 -6.00859873
v 0.15339481 1.80996267 -6.14437799
v 0.16038907 1.80996267 -6.06750560
v 0.17445275 1.80996267 -6.02142028
v 0.14404414 1.99388943 -6.14437799
v 0.12289207 1.99388943 -6.06750560
v 0.12762404 1.99388943 -6.09316784
v 0.14402535 1.96175267 -6.14437799
v 0.14402535 1.98609379 -6.14437799
f 1 2 6
f 1 6 15
f 1 15 14
f 1 14 11
f 1 11 3
f 1 3 4
f 1 4 2
f 2 5 6
f 2 4 7
f 2 7 8
f 2 8 9
f 2 9 10
f 2 10 21
f 2 21 20
f 2 20 27
f 2 27 31
f 2 31 30
f 2 30 29
f 2 29 24
f 2 24 16
f 2 16 5
f 3 11 4
f 4 12 13
f 4 13 7
f 4 11 14
f 4 14 15
f 4 15 23
f 4 23 25
f 4 25 32
f 4 32 34
f 4 34 33
f 4 33 28
f 4 28 22
f 4 22 12
f 5 15 6
f 5 16 17
f 5 17 18
f 5 18 15
f 7 13 12
f 7 12 22
f 7 22 26
f 7 26 19
f 7 19 9
f 7 9 8
f 9 19 20
f 9 20 21
f 9 21 10
f 15 18 23
f 16 24 17
f 17 24 29
f 17 29 35
f 17 35 36
f 17 36 32
f 17 32 25
f 17 25 18
f 18 25 23
f 19 26 20
f 20 26 27
f 22 28 29
f 22 29 30
f 22 30 31
f 22 31 26
f 26 31 27
f 28 33 29
f 29 34 35
f 29 33 34
f 32 36 34
f 34 36 35

