# https://github.com/mikedh/trimesh
v -2.84625117 0.26562809 -2.14041538
v -2.80725503 0.26654875 -2.21733018
v -2.84625117 0.26672779 -2.17833667
v -2.87598551 0.26120353 -2.14041538
v -2.82629751 0.26299385 -2.14041538
v -2.80725503 0.26102458 -2.16044035
v -2.80725503 0.26631861 -2.23724486
v -2.84625117 0.26608838 -2.23724486
v -2.89244433 0.25813455 -2.17833667
v -2.89244433 0.25813455 -2.14041538
v -2.80725503 0.25792996 -2.14041538
v -2.80725503 0.25613973 -2.27672711
v -2.84625117 0.25601179 -2.27656950
v -2.88438215 0.25327526 -2.27313208
v -2.89058736 0.25698365 -2.23724486
v -2.91894926 0.21877444 -2.17833667
v -2.90189062 0.24411934 -2.14041538
v -2.80725503 0.23010422 -2.14041538
v -2.80725503 0.23135733 -2.28891557
v -2.80725503 0.21877444 -2.29485999
v -2.84625117 0.21877444 -2.29415042
v -2.89394374 0.21877444 -2.27989646
v -2.91562748 0.21877444 -2.23724486
v -2.92470464 0.15984930 -2.23724486
v -2.92507369 0.15984930 -2.17833667
v -2.92104840 0.19777718 -2.14041538
v -2.91885697 0.21877444 -2.14041538
v -2.87359801 0.01043925 -2.14041538
v -2.80725503 0.00568225 -2.25249219
v -2.80725503 0.15984930 -2.30148247
v -2.84625117 0.15984930 -2.30097784
v -2.89916858 0.15984930 -2.28347568
v -2.89916858 0.10094972 -2.28347568
v -2.92358587 0.10094972 -2.23724486
v -2.92398953 0.15984930 -2.14041538
v -2.88517804 0.01043925 -2.14041538
v -2.85100308 0.00604034 -2.23973615
v -2.84625117 0.00545211 -2.27779934
v -2.80725503 0.00550321 -2.26490140
v -2.80725503 0.10094972 -2.29998447
v -2.84625117 0.10094972 -2.30007912
v -2.89583530 0.04199903 -2.28063755
v -2.92142896 0.10094972 -2.17833667
v -2.92269770 0.13885204 -2.14041538
v -2.91276705 0.04199903 -2.23724486
v -2.88884578 0.00793286 -2.23724486
v -2.90704627 0.04199903 -2.14041538
v -2.80725503 0.00550321 -2.27778362
v -2.88690812 0.00777946 -2.27410973
v -2.84625117 0.04199903 -2.29446582
v -2.80725503 0.06194760 -2.29631067
v -2.80725503 0.04199903 -2.29441849
v -2.91944520 0.10094972 -2.14041538
v -2.80725503 0.01788160 -2.28342844
f 1 2 3
f 1 3 4
f 1 4 10
f 1 10 17
f 1 17 27
f 1 27 26
f 1 26 35
f 1 35 44
f 1 44 53
f 1 53 47
f 1 47 36
f 1 36 28
f 1 28 18
f 1 18 11
f 1 11 5
f 1 5 2
f 2 5 6
f 2 6 11
f 2 11 18
f 2 18 29
f 2 29 39
f 2 39 48
f 2 48 54
f 2 54 52
f 2 52 51
f 2 51 40
f 2 40 30
f 2 30 20
f 2 20 19
f 2 19 12
f 2 12 7
f 2 7 8
f 2 8 3
f 3 8 9
f 3 9 4
f 4 9 10
f 5 11 6
f 7 12 13
f 7 13 8
f 8 13 14
f 8 14 15
f 8 15 9
f 9 15 16
f 9 16 17
f 9 17 10
f 12 19 13
f 13 19 20
f 13 20 21
f 13 21 14
f 14 21 22
f 14 22 23
f 14 23 15
f 15 23 16
f 16 23 24
f 16 24 25
f 16 25 26
f 16 26 27
f 16 27 17
f 18 28 29
f 20 30 31
f 20 31 21
f 21 31 22
f 22 31 32
f 22 32 24
f 22 24 23
f 24 32 33
f 24 33 34
f 24 34 25
f 25 35 26
f 25 34 35
f 28 36 37
f 28 37 29
f 29 37 38
f 29 38 39
f 30 40 41
f 30 41 31
f 31 41 33
f 31 33 32
f 33 41 42
f 33 42 34
f 34 43 44
f 34 44 35
f 34 42 45
f 34 45 43
f 36 45 46
f 36 46 37
f 36 47 45
f 37 46 38
f 38 48 39
f 38 46 49
f 38 49 50
f 38 50 48
f 40 51 41
f 41 51 52
f 41 52 50
f 41 50 42
f 42 50 49
f 42 49 45
f 43 53 44
f 43 45 53
f 45 49 46
f 45 47 53
f 48 50 54
f 50 52 54

