# https://github.com/mikedh/trimesh
v 0.22141107 0.55166685 -4.94883223
v 0.22951469 0.55166685 -5.02901341
v 0.16035325 0.55166685 -4.94883223
v 0.22141107 0.39639878 -4.94883223
v 0.22951469 0.48696729 -5.02901341
v 0.22951469 0.55166685 -5.23066184
v 0.16035325 0.55166685 -5.06579389
v 0.16035325 0.04200017 -4.94883223
v 0.22139754 0.04200017 -4.94883223
v 0.22951469 0.45448070 -5.02933531
v 0.22951469 0.50692956 -5.41847138
v 0.21795161 0.50692956 -5.41847138
v 0.21256283 0.55166685 -5.21337508
v 0.16159889 0.55166685 -5.08643685
v 0.16035325 0.39552369 -5.41847138
v 0.16035325 0.04200017 -5.41847138
v 0.17422480 -0.00634674 -5.41847138
v 0.17442782 -0.00700310 -4.94883223
v 0.20519047 -0.00629203 -4.94883223
v 0.22139754 0.04200017 -5.41847138
v 0.22951469 0.30599430 -5.16146879
v 0.22951469 0.30725224 -5.10252819
v 0.22951469 0.32524559 -5.05439185
v 0.22951469 0.37206121 -5.03416264
v 0.22951469 0.42893999 -5.02997894
v 0.22951469 0.30599430 -5.41847138
v 0.18844847 0.48395925 -5.41847138
v 0.17888249 0.55166685 -5.17084773
v 0.16429337 0.55166685 -5.12468830
v 0.16055626 0.39639878 -5.41847138
v 0.17442782 -0.00700310 -5.41847138
v 0.20494671 -0.00700310 -4.94883223
v 0.20494671 -0.00700310 -5.41847138
v 0.16935041 0.55166685 -5.14330851
v 0.17438057 0.45448070 -5.41847138
f 1 2 6
f 1 6 13
f 1 13 28
f 1 28 34
f 1 34 29
f 1 29 14
f 1 14 7
f 1 7 3
f 1 3 8
f 1 8 18
f 1 18 32
f 1 32 19
f 1 19 9
f 1 9 4
f 1 4 5
f 1 5 2
f 2 5 10
f 2 10 25
f 2 25 24
f 2 24 23
f 2 23 22
f 2 22 21
f 2 21 26
f 2 26 11
f 2 11 6
f 3 7 15
f 3 15 16
f 3 16 8
f 4 9 5
f 5 9 10
f 6 11 12
f 6 12 13
f 7 14 15
f 8 16 17
f 8 17 18
f 9 19 20
f 9 20 26
f 9 26 21
f 9 21 22
f 9 22 23
f 9 23 24
f 9 24 25
f 9 25 10
f 11 26 20
f 11 20 33
f 11 33 31
f 11 31 17
f 11 17 16
f 11 16 15
f 11 15 30
f 11 30 35
f 11 35 27
f 11 27 12
f 12 27 28
f 12 28 13
f 14 29 15
f 15 29 30
f 17 31 18
f 18 31 33
f 18 33 32
f 19 32 33
f 19 33 20
f 27 29 34
f 27 34 28
f 27 35 29
f 29 35 30

