# https://github.com/mikedh/trimesh
v 0.23023717 0.60328900 -2.85947644
v 0.21106289 0.60328900 -2.87516729
v 0.23023717 0.60328900 -3.03971201
v 0.23023717 1.66694311 -2.86160341
v 0.22932731 1.66694311 -2.86226592
v 0.21236948 1.66694311 -2.87516729
v 0.17934278 0.60328900 -2.90463122
v 0.17934278 1.66694311 -2.90463122
v 0.22139912 0.60328900 -3.21569364
v 0.23023717 1.66694311 -3.03971201
v 0.16527172 0.60328900 -2.94441623
v 0.17337096 1.66694311 -2.92150761
v 0.22139912 1.66694311 -3.21569364
v 0.16035325 0.60328900 -3.21569364
v 0.16035325 0.60328900 -3.00334411
v 0.16527172 1.66694311 -2.94441623
v 0.16035325 1.66694311 -3.21569364
v 0.16035325 1.66694311 -3.00334411
f 1 2 7
f 1 7 11
f 1 11 15
f 1 15 14
f 1 14 9
f 1 9 3
f 1 3 10
f 1 10 4
f 1 4 5
f 1 5 6
f 1 6 2
f 2 6 8
f 2 8 7
f 3 9 13
f 3 13 10
f 4 10 13
f 4 13 17
f 4 17 18
f 4 18 16
f 4 16 12
f 4 12 8
f 4 8 6
f 4 6 5
f 7 8 12
f 7 12 11
f 9 14 17
f 9 17 13
f 11 12 16
f 11 16 18
f 11 18 15
f 14 15 18
f 14 18 17

