# https://github.com/mikedh/trimesh
v -3.37661877 0.86701703 -0.64475286
v -3.39515205 0.86701703 -0.64678017
v -3.43549561 0.82449351 -0.66256331
v -3.39515205 0.82280821 -0.66040516
v -3.37661877 0.82202439 -0.65942417
v -3.33364905 0.82692342 -0.66533190
v -3.32893973 0.86701703 -0.66175671
v -3.33716471 0.92592289 -0.66807871
v -3.37661877 0.92592289 -0.65510771
v -3.43549561 0.86701703 -0.65122747
v -3.47171606 0.83009798 -0.66958286
v -3.47974575 0.82598282 -0.70520393
v -3.43690634 0.82229874 -0.70476787
v -3.37611949 0.82453267 -0.82194220
v -3.31769820 0.82492464 -0.76406356
v -3.31546296 0.82700183 -0.70509487
v -3.28386508 0.83111695 -0.72464936
v -3.29946873 0.86701703 -0.69351914
v -3.34693054 1.13285767 -0.73432844
v -3.34454339 0.96025525 -0.67376849
v -3.39252607 1.22237264 -0.72781027
v -3.41383724 1.22237264 -0.72781027
v -3.42026110 0.97169938 -0.66971369
v -3.39515205 0.92631483 -0.65748397
v -3.47325692 0.86701703 -0.66823132
v -3.43814338 0.92717706 -0.66302114
v -3.46926376 0.90836479 -0.67182828
v -3.49283195 0.86701703 -0.70520393
v -3.48389082 0.82425836 -0.76406356
v -3.50272792 0.86701703 -0.76406356
v -3.37661877 0.82582604 -0.86142173
v -3.31965140 0.82798159 -0.81967500
v -3.28314891 0.82990204 -0.76406356
v -3.28102220 0.86701703 -0.76406356
v -3.28314891 0.86701703 -0.72301437
v -3.28581828 0.90503346 -0.72907471
v -3.30621801 0.92517824 -0.70773262
v -3.34693054 1.13285767 -0.73600715
v -3.39252607 1.22237264 -0.75798128
v -3.46624720 1.01904354 -0.73236645
v -3.47243222 0.98478955 -0.72133584
v -3.48061382 0.92717706 -0.70182490
v -3.41383724 1.22237264 -0.75798128
v -3.49528426 0.92596208 -0.76406356
v -3.47453733 0.82982363 -0.82296675
v -3.43430213 0.82566925 -0.82192043
v -3.47892106 0.92596208 -0.81315684
v -3.47974575 0.86317618 -0.82728321
v -3.37661877 0.86701703 -0.86746029
v -3.34059361 0.83143051 -0.85684377
v -3.43549561 0.83001961 -0.85843521
v -3.28581828 0.83378205 -0.79783153
v -3.28612209 0.86701703 -0.79733015
v -3.28779308 0.89790046 -0.79425634
v -3.28612209 0.90393608 -0.76406356
v -3.34701747 1.07399100 -0.79366768
v -3.39480486 1.14696685 -0.79748276
v -3.47887768 0.96825045 -0.73341295
v -3.41194920 1.14696685 -0.79748276
v -3.47167269 0.97260079 -0.80273649
v -3.46537913 0.83695662 -0.85278898
v -3.46066982 0.88026396 -0.84980245
v -3.46537913 0.84095421 -0.85278898
v -3.38230451 0.92466873 -0.85730160
v -3.34367532 0.90421041 -0.85472918
v -3.33961701 0.86701703 -0.85747599
v -3.39515205 0.86584124 -0.86543298
v -3.39515205 0.86588044 -0.86543298
v -3.41770027 0.92596208 -0.85673472
v -3.40619830 0.95555219 -0.85250553
v -3.40569920 0.95555219 -0.85250553
v -3.39515205 0.94159976 -0.85468563
v -3.31018939 0.86701703 -0.82680360
v -3.43881616 0.86317618 -0.86063690
v -3.31913052 0.92067114 -0.82098299
f 1 2 3
f 1 3 4
f 1 4 5
f 1 5 6
f 1 6 7
f 1 7 8
f 1 8 9
f 1 9 2
f 2 10 3
f 2 9 10
f 3 11 12
f 3 12 13
f 3 13 5
f 3 5 4
f 3 10 11
f 5 13 14
f 5 14 15
f 5 15 16
f 5 16 6
f 6 16 17
f 6 17 18
f 6 18 7
f 7 18 8
f 8 18 19
f 8 19 20
f 8 20 9
f 9 20 21
f 9 21 22
f 9 22 23
f 9 23 24
f 9 24 10
f 10 25 11
f 10 24 26
f 10 26 27
f 10 27 25
f 11 25 28
f 11 28 12
f 12 29 13
f 12 28 30
f 12 30 29
f 13 29 14
f 14 29 31
f 14 31 15
f 15 31 32
f 15 32 33
f 15 33 16
f 16 33 17
f 17 33 34
f 17 34 35
f 17 35 18
f 18 35 36
f 18 36 37
f 18 37 19
f 19 38 39
f 19 39 21
f 19 21 20
f 19 37 36
f 19 36 38
f 21 39 43
f 21 43 22
f 22 40 41
f 22 41 42
f 22 42 27
f 22 27 26
f 22 26 23
f 22 43 44
f 22 44 40
f 23 26 24
f 25 27 28
f 27 42 28
f 28 42 44
f 28 44 30
f 29 45 46
f 29 46 31
f 29 30 45
f 30 44 47
f 30 47 48
f 30 48 45
f 31 49 50
f 31 50 32
f 31 46 51
f 31 51 49
f 32 50 52
f 32 52 33
f 33 52 34
f 34 52 53
f 34 53 54
f 34 54 55
f 34 55 36
f 34 36 35
f 36 55 38
f 38 56 39
f 38 55 54
f 38 54 56
f 39 57 59
f 39 59 43
f 39 56 57
f 40 58 41
f 40 44 58
f 41 58 42
f 42 58 44
f 43 59 60
f 43 60 44
f 44 60 47
f 45 48 61
f 45 61 51
f 45 51 46
f 47 62 63
f 47 63 48
f 47 60 62
f 48 63 61
f 49 64 65
f 49 65 66
f 49 66 50
f 49 51 67
f 49 67 68
f 49 68 69
f 49 69 70
f 49 70 71
f 49 71 72
f 49 72 64
f 50 66 73
f 50 73 52
f 51 61 74
f 51 74 67
f 52 73 53
f 53 73 54
f 54 73 65
f 54 65 75
f 54 75 56
f 56 75 65
f 56 65 57
f 57 72 71
f 57 71 70
f 57 70 59
f 57 65 64
f 57 64 72
f 59 70 69
f 59 69 62
f 59 62 60
f 61 63 74
f 62 69 74
f 62 74 63
f 65 73 66
f 67 74 68
f 68 74 69

