# https://github.com/mikedh/trimesh
v -3.76348781 2.49566024 -2.35509997
v -3.73585376 2.49566024 -2.35512095
v -3.76348781 2.49566024 -2.56997667
v -3.76736384 2.45798385 -2.35509997
v -3.73585376 2.49563355 -2.35509997
v -3.71209555 2.45798385 -2.35509997
v -3.73585376 2.49566024 -2.56997667
v -3.76736384 2.45798385 -2.56997667
v -3.77418827 2.22268010 -2.53188530
v -3.77418178 2.22268010 -2.53150667
v -3.77211671 2.22268010 -2.47257126
v -3.76737648 2.22268010 -2.35512095
v -3.76736384 2.28122547 -2.35509997
v -3.71209555 2.45798385 -2.56997667
v -3.71209555 2.28122547 -2.35509997
v -3.70986523 2.22268010 -2.47294980
v -3.70928078 2.22268010 -2.53188530
v -3.77418827 2.22268010 -2.56997667
v -3.76701436 2.22268010 -2.35509997
v -3.70928078 2.22268010 -2.56997667
v -3.71209555 2.22268010 -2.35512095
f 1 2 7
f 1 7 3
f 1 3 8
f 1 8 4
f 1 4 13
f 1 13 19
f 1 19 15
f 1 15 6
f 1 6 5
f 1 5 2
f 2 5 6
f 2 6 14
f 2 14 7
f 3 7 14
f 3 14 20
f 3 20 18
f 3 18 8
f 4 8 18
f 4 18 9
f 4 9 10
f 4 10 11
f 4 11 12
f 4 12 13
f 6 15 16
f 6 16 17
f 6 17 20
f 6 20 14
f 9 18 20
f 9 20 17
f 9 17 16
f 9 16 21
f 9 21 19
f 9 19 12
f 9 12 11
f 9 11 10
f 12 19 13
f 15 19 21
f 15 21 16

