# https://github.com/mikedh/trimesh
v 0.17440059 2.50705772 -1.88368947
v 0.20494390 2.50698932 -1.88368947
v 0.20494390 2.50705772 -1.88371107
v 0.17440059 2.50705772 -1.88371107
v 0.16032884 2.45797770 -1.88368947
v 0.22139140 2.45797770 -1.88368947
v 0.20494390 2.50705772 -2.10413303
v 0.17441271 2.50705772 -2.10413303
v 0.16032884 2.45797770 -1.88371107
v 0.11035327 2.04551465 -2.06047595
v 0.11162033 2.04551465 -2.00153992
v 0.12123285 2.04551465 -1.96124940
v 0.15946393 2.04551465 -1.88368947
v 0.23481724 2.10450634 -1.93019522
v 0.23481724 2.15871303 -1.94726527
v 0.23481724 2.15966996 -1.94957436
v 0.23481724 2.17416153 -2.00153992
v 0.23481724 2.17422993 -2.00218733
v 0.23481724 2.17648572 -2.06047595
v 0.22139140 2.45797770 -2.10413303
v 0.22170803 2.04551465 -1.88368947
v 0.23481724 1.98659135 -1.92516698
v 0.23481724 2.04551465 -1.92574968
v 0.16035325 2.45797770 -2.10413303
v 0.11035327 2.04551465 -2.10413303
v 0.11996578 1.99787020 -2.06047595
v 0.16032884 1.80879614 -1.88371107
v 0.12059941 1.99882713 -2.00153992
v 0.16032884 1.80982147 -1.88368947
v 0.23481724 2.17648572 -2.10413303
v 0.22170803 1.80982147 -1.88368947
v 0.23481724 1.80879614 -1.92516698
v 0.11996578 1.99800692 -2.10413303
v 0.16035325 1.80879614 -2.00153992
v 0.16032884 1.80879614 -1.88479014
v 0.22059937 1.80879614 -1.88368947
v 0.23481724 1.81583685 -2.10413303
v 0.22170803 1.80879614 -1.88371107
v 0.23481724 1.80879614 -2.10331290
v 0.12446138 1.99041934 -2.10413303
v 0.20223924 1.80879614 -2.07722225
v 0.17441271 1.80879614 -2.04776504
v 0.23481724 1.81255573 -2.10406823
v 0.23140590 1.81282916 -2.10413303
v 0.23169830 1.80879614 -2.10331290
v 0.13761940 1.96854523 -2.10413303
f 1 2 3
f 1 3 7
f 1 7 8
f 1 8 4
f 1 4 9
f 1 9 5
f 1 5 13
f 1 13 29
f 1 29 36
f 1 36 31
f 1 31 21
f 1 21 6
f 1 6 2
f 2 6 3
f 3 6 20
f 3 20 7
f 4 8 9
f 5 9 25
f 5 25 10
f 5 10 11
f 5 11 12
f 5 12 13
f 6 14 15
f 6 15 16
f 6 16 17
f 6 17 18
f 6 18 19
f 6 19 30
f 6 30 20
f 6 21 22
f 6 22 23
f 6 23 14
f 7 20 30
f 7 30 37
f 7 37 44
f 7 44 46
f 7 46 40
f 7 40 33
f 7 33 25
f 7 25 24
f 7 24 8
f 8 24 9
f 9 24 25
f 10 25 26
f 10 26 27
f 10 27 28
f 10 28 11
f 11 28 27
f 11 27 12
f 12 27 29
f 12 29 13
f 14 23 22
f 14 22 32
f 14 32 39
f 14 39 43
f 14 43 37
f 14 37 30
f 14 30 19
f 14 19 18
f 14 18 17
f 14 17 16
f 14 16 15
f 21 31 32
f 21 32 22
f 25 33 26
f 26 33 34
f 26 34 35
f 26 35 27
f 27 35 34
f 27 34 42
f 27 42 41
f 27 41 45
f 27 45 39
f 27 39 32
f 27 32 38
f 27 38 36
f 27 36 29
f 31 36 38
f 31 38 32
f 33 40 41
f 33 41 42
f 33 42 34
f 37 43 44
f 39 44 43
f 39 45 44
f 40 46 45
f 40 45 41
f 44 45 46

