# https://github.com/mikedh/trimesh
v -3.38413514 0.86668226 -3.33755755
v -3.08199361 0.98486801 -3.34541243
v -3.02302949 0.86668226 -3.32135333
v -3.38413514 0.86668226 -3.22798479
v -3.38413514 1.98656413 -3.33755755
v -3.01870758 0.97958328 -3.33728913
v -3.02302949 2.04529671 -3.32114142
v -3.02302949 1.03807562 -3.33832044
v -2.98510196 0.99567766 -3.33238689
v -2.96415361 0.86668226 -3.29842442
v -3.08199361 0.86668226 -3.22795653
v -3.08194953 0.99075325 -3.20108606
v -3.12142063 0.99795970 -3.20384092
v -3.38413514 1.98656413 -3.22798479
v -3.38413514 2.04529671 -3.33168052
v -3.38413514 2.06367317 -3.32708909
v -3.02302949 2.09357987 -3.29469476
v -2.96415361 2.08529246 -3.28332214
v -2.96415361 2.04529671 -3.29831140
v -2.98510196 1.02846701 -3.33238689
v -2.93359107 0.86668226 -3.27200603
v -3.02302949 0.86668226 -3.22797066
v -3.02307365 1.00192326 -3.20498524
v -3.08194953 1.02846701 -3.20108606
v -3.12142063 1.02390292 -3.20384092
v -3.38413514 2.04529671 -3.22849337
v -3.38413514 2.08685386 -3.30934497
v -3.02302949 2.09357987 -3.24873806
v -3.38413514 2.09261907 -3.30245075
v -3.31758545 2.09357987 -3.29469476
v -3.38413514 2.09369999 -3.24873806
v -2.93394388 2.07616429 -3.27083344
v -2.96415361 2.08529246 -3.25755361
v -2.93359107 2.04529671 -3.27200603
v -2.93359107 0.86668226 -3.26636916
v -2.96415361 0.86668226 -3.24609622
v -2.99268752 1.01285303 -3.20902570
v -3.02307365 1.02234152 -3.20498524
v -3.02302949 2.04529671 -3.22849337
v -2.93394388 2.07616429 -3.26707554
v -2.96415361 2.04529671 -3.24635052
v -2.93359107 2.04529671 -3.26636916
v -2.99268752 1.01561552 -3.20902570
f 1 2 3
f 1 3 10
f 1 10 21
f 1 21 35
f 1 35 36
f 1 36 22
f 1 22 11
f 1 11 4
f 1 4 14
f 1 14 26
f 1 26 31
f 1 31 29
f 1 29 27
f 1 27 16
f 1 16 15
f 1 15 5
f 1 5 2
f 2 6 3
f 2 5 7
f 2 7 8
f 2 8 6
f 3 6 9
f 3 9 10
f 4 11 12
f 4 12 13
f 4 13 25
f 4 25 14
f 5 15 7
f 6 8 9
f 7 16 17
f 7 17 18
f 7 18 19
f 7 19 20
f 7 20 8
f 7 15 16
f 8 20 9
f 9 21 10
f 9 20 34
f 9 34 21
f 11 22 12
f 12 22 23
f 12 23 38
f 12 38 24
f 12 24 25
f 12 25 13
f 14 24 26
f 14 25 24
f 16 27 17
f 17 28 33
f 17 33 18
f 17 27 29
f 17 29 30
f 17 30 31
f 17 31 28
f 18 32 19
f 18 33 40
f 18 40 32
f 19 32 34
f 19 34 20
f 21 34 42
f 21 42 35
f 22 36 37
f 22 37 23
f 23 37 43
f 23 43 38
f 24 39 26
f 24 38 39
f 26 39 31
f 28 31 39
f 28 39 33
f 29 31 30
f 32 40 42
f 32 42 34
f 33 39 41
f 33 41 40
f 35 37 36
f 35 42 43
f 35 43 37
f 38 43 39
f 39 43 41
f 40 41 42
f 41 43 42

