# https://github.com/mikedh/trimesh
v -2.80837844 -0.01993599 -3.71041185
v -2.66927231 -0.01734214 -3.76932930
v -2.66927231 -0.02008008 -3.71041185
v -2.80837844 -0.00984914 -3.67270468
v -2.80837844 -0.00394106 -3.76662605
v -2.66984104 -0.00956086 -3.79840684
v -1.87364902 -0.01330745 -3.79840684
v -2.13923593 -0.01777451 -3.76932930
v -2.13923593 -0.02022418 -3.71041185
v -2.80837844 -0.00408507 -3.65152904
v -2.80837844 0.04217061 -3.79494110
v -2.72147979 0.00167882 -3.79840684
v -1.64639308 -0.01330745 -3.79840684
v -1.64639308 -0.01618940 -3.76932930
v -1.64639308 -0.02008008 -3.71041185
v -1.64639308 -0.00379688 -3.65152904
v -2.80837844 0.00585770 -3.63243286
v -2.80837844 0.10110698 -3.79639669
v -2.75366862 0.04231470 -3.79840684
v -2.75150757 0.03885638 -3.79840684
v -1.64639308 1.45188903 -3.79840684
v -1.64639308 0.00182292 -3.64075060
v -1.64639308 0.01190986 -3.62174107
v -2.80837844 0.01190986 -3.62174107
v -2.80837844 0.51337361 -3.79670863
v -2.75605726 0.10110698 -3.79840684
v -2.58169121 1.45188903 -3.79840684
v -1.64639308 1.45188903 -3.62229558
v -2.80837844 0.03121910 -3.62149848
v -1.64639308 0.04217061 -3.62139449
v -2.75708092 0.51337361 -3.79840684
v -2.80837844 0.59363666 -3.79670863
v -2.60273343 1.45145675 -3.79840684
v -2.80837844 1.45188903 -3.79617142
v -2.80837844 1.45188903 -3.62224360
v -1.64639308 0.92578436 -3.62139449
v -2.80837844 0.04217061 -3.62139449
v -2.75708092 0.57216594 -3.79840684
v -2.60807927 1.44381952 -3.79840684
v -2.62400307 1.39727561 -3.79840684
v -2.62605040 1.39035885 -3.79840684
v -2.75446486 0.63124645 -3.79840684
v -2.75457866 0.63038185 -3.79840684
v -2.80837844 0.92578436 -3.62139449
f 1 2 3
f 1 3 4
f 1 4 10
f 1 10 17
f 1 17 24
f 1 24 29
f 1 29 37
f 1 37 44
f 1 44 35
f 1 35 34
f 1 34 32
f 1 32 25
f 1 25 18
f 1 18 11
f 1 11 5
f 1 5 6
f 1 6 2
f 2 7 8
f 2 8 3
f 2 6 7
f 3 9 4
f 3 8 9
f 4 9 10
f 5 11 12
f 5 12 6
f 6 12 20
f 6 20 19
f 6 19 26
f 6 26 31
f 6 31 38
f 6 38 43
f 6 43 42
f 6 42 41
f 6 41 40
f 6 40 39
f 6 39 33
f 6 33 27
f 6 27 21
f 6 21 13
f 6 13 7
f 7 13 8
f 8 13 14
f 8 14 15
f 8 15 9
f 9 15 16
f 9 16 10
f 10 16 17
f 11 18 19
f 11 19 20
f 11 20 12
f 13 21 28
f 13 28 36
f 13 36 30
f 13 30 23
f 13 23 22
f 13 22 16
f 13 16 15
f 13 15 14
f 16 22 17
f 17 22 23
f 17 23 24
f 18 25 26
f 18 26 19
f 21 27 34
f 21 34 35
f 21 35 28
f 23 29 24
f 23 30 29
f 25 31 26
f 25 32 38
f 25 38 31
f 27 33 34
f 28 35 36
f 29 30 37
f 30 36 44
f 30 44 37
f 32 34 38
f 33 39 34
f 34 39 40
f 34 40 41
f 34 41 42
f 34 42 43
f 34 43 38
f 35 44 36

