# https://github.com/mikedh/trimesh
v -2.51481181 2.50097421 -5.24257616
v -2.50544586 2.51055283 -6.22911974
v -2.54057696 2.50097421 -5.24257616
v -2.50747457 2.45799360 -5.24257616
v -2.50544586 2.50981594 -6.24427224
v -2.53900432 2.50097421 -6.24427224
v -2.54237184 2.50293917 -6.18528914
v -2.50544586 2.50293917 -6.15417052
v -2.56388076 2.45799360 -6.18528914
v -2.55901075 2.45799360 -5.24257616
v -2.50544586 2.39953981 -6.12691632
v -2.50544586 2.45799360 -6.12742473
v -2.50747457 0.04223207 -5.24257616
v -2.50544586 2.49581654 -6.27783175
v -2.52994815 2.49385175 -6.27681493
v -2.55574254 2.45799360 -6.24427224
v -2.56516697 2.39904861 -6.18528914
v -2.56517286 2.34010363 -6.18528914
v -2.55901075 0.04223207 -5.24257616
v -2.50544586 0.15987652 -6.12691632
v -2.50748625 0.04198656 -5.24257616
v -2.50544586 0.04763542 -6.15417052
v -2.50544586 0.06359962 -6.14054342
v -2.50544586 0.10093154 -6.12742473
v -2.50544586 2.47027372 -6.28088255
v -2.50544586 2.45799360 -6.28139113
v -2.53265510 2.45799360 -6.27762839
v -2.55562567 0.15987652 -6.24427224
v -2.56516697 0.15987652 -6.18528914
v -2.56517286 1.27933973 -6.18528914
v -2.56435440 0.10093154 -6.18528914
v -2.55901075 0.04223207 -5.30155925
v -2.54059452 0.00170745 -5.24257616
v -2.51481181 0.00146176 -5.24257616
v -2.50544586 0.04419704 -6.24427224
v -2.50544586 0.12033412 -6.28027246
v -2.53146240 0.15987652 -6.27701795
v -2.53119344 0.10093154 -6.27691644
v -2.55475452 0.10093154 -6.24427224
v -2.53801621 0.05549477 -6.24427224
v -2.54283951 0.04886351 -6.18528914
v -2.55377819 0.04223207 -5.71403433
v -2.55539763 0.04223207 -5.65505124
v -2.55670140 0.04223207 -5.59616983
v -2.55770110 0.04223207 -5.53718674
v -2.55840857 0.04223207 -5.47830516
v -2.55883531 0.04223207 -5.41932206
v -2.55899319 0.04223207 -5.36044066
v -2.54057696 0.00219865 -5.30155925
v -2.54055940 0.00268985 -5.36044066
v -2.51482349 0.00268985 -5.36044066
v -2.50544586 0.04910902 -6.25566216
v -2.51489953 0.00342673 -5.41932206
v -2.51511000 0.00416344 -5.47830516
v -2.51544912 0.00490032 -5.53718674
v -2.51591090 0.00563703 -5.59616983
v -2.51718543 0.00735631 -5.71403433
v -2.51798642 0.00833871 -5.77281406
v -2.51988650 0.01054919 -5.89067856
v -2.52098568 0.01153158 -5.94956014
v -2.52175733 0.01226847 -5.98850931
v -2.52327158 0.01226847 -5.98850931
v -2.50544586 0.10093154 -6.28017060
v -2.52800136 0.06581010 -6.27579777
v -2.52544061 0.01153158 -5.94956014
v -2.52846323 0.01054919 -5.89067856
v -2.53111749 0.00956679 -5.83179715
v -2.53340340 0.00833871 -5.77281406
v -2.53535027 0.00735631 -5.71403433
v -2.53696392 0.00661961 -5.65505124
v -2.53826761 0.00563703 -5.59616983
v -2.53926739 0.00490032 -5.53718674
v -2.53997477 0.00416344 -5.47830516
v -2.54040160 0.00342673 -5.41932206
v -2.50544586 0.06237171 -6.27742502
f 1 2 3
f 1 3 10
f 1 10 19
f 1 19 33
f 1 33 34
f 1 34 21
f 1 21 13
f 1 13 4
f 1 4 2
f 2 5 6
f 2 6 7
f 2 7 3
f 2 4 8
f 2 8 12
f 2 12 11
f 2 11 20
f 2 20 24
f 2 24 23
f 2 23 22
f 2 22 35
f 2 35 52
f 2 52 75
f 2 75 63
f 2 63 36
f 2 36 26
f 2 26 25
f 2 25 14
f 2 14 5
f 3 7 9
f 3 9 10
f 4 11 12
f 4 12 8
f 4 13 20
f 4 20 11
f 5 14 15
f 5 15 6
f 6 15 16
f 6 16 9
f 6 9 7
f 9 16 17
f 9 17 10
f 10 17 18
f 10 18 30
f 10 30 19
f 13 21 22
f 13 22 23
f 13 23 24
f 13 24 20
f 14 25 15
f 15 25 26
f 15 26 27
f 15 27 16
f 16 18 17
f 16 27 28
f 16 28 29
f 16 29 30
f 16 30 18
f 19 30 29
f 19 29 31
f 19 31 32
f 19 32 33
f 21 34 35
f 21 35 22
f 26 36 37
f 26 37 27
f 27 37 28
f 28 37 38
f 28 38 39
f 28 39 31
f 28 31 29
f 31 39 40
f 31 40 41
f 31 41 42
f 31 42 43
f 31 43 44
f 31 44 45
f 31 45 46
f 31 46 47
f 31 47 48
f 31 48 32
f 32 48 33
f 33 48 47
f 33 47 49
f 33 49 34
f 34 49 50
f 34 50 51
f 34 51 35
f 35 40 52
f 35 51 53
f 35 53 54
f 35 54 55
f 35 55 56
f 35 56 57
f 35 57 58
f 35 58 59
f 35 59 60
f 35 60 61
f 35 61 62
f 35 62 40
f 36 63 38
f 36 38 37
f 38 63 64
f 38 64 39
f 39 64 40
f 40 64 52
f 40 62 41
f 41 62 65
f 41 65 66
f 41 66 67
f 41 67 68
f 41 68 69
f 41 69 70
f 41 70 71
f 41 71 42
f 42 71 43
f 43 71 72
f 43 72 44
f 44 72 73
f 44 73 45
f 45 73 74
f 45 74 46
f 46 74 50
f 46 50 47
f 47 50 49
f 50 74 73
f 50 73 71
f 50 71 56
f 50 56 54
f 50 54 51
f 51 54 53
f 52 64 75
f 54 56 55
f 56 71 69
f 56 69 57
f 57 69 68
f 57 68 58
f 58 68 65
f 58 65 60
f 58 60 59
f 60 65 62
f 60 62 61
f 63 75 64
f 65 68 66
f 66 68 67
f 69 71 70
f 71 73 72

