# https://github.com/mikedh/trimesh
v 0.20494794 2.50705772 -3.94763302
v 0.17442623 2.50705772 -3.94763302
v 0.22101136 2.45906898 -3.94763302
v 0.20494794 2.50705772 -4.94878640
v 0.17442623 2.50705772 -4.94878640
v 0.16035711 2.45783853 -3.94763302
v 0.22140070 2.45783853 -3.94763302
v 0.22140070 2.45783853 -4.94878640
v 0.16035711 2.45783853 -4.94878640
v 0.16024928 2.04538188 -4.94878640
v 0.16035711 0.04216147 -3.94763302
v 0.22143056 2.04538188 -4.94878640
v 0.22140070 0.04216147 -3.94763302
v 0.16035711 0.04216147 -4.94878640
v 0.16068657 0.04093102 -3.94763302
v 0.22143056 1.98730321 -4.94878640
v 0.20494794 -0.00705772 -3.94763302
v 0.22140070 0.04216147 -4.94878640
v 0.22141265 0.39653954 -4.94878640
v 0.16056680 0.04142318 -4.94878640
v 0.17442623 -0.00705772 -4.94878640
v 0.17442623 -0.00705772 -3.94763302
v 0.20494794 -0.00705772 -4.94878640
f 1 2 6
f 1 6 11
f 1 11 15
f 1 15 22
f 1 22 17
f 1 17 13
f 1 13 7
f 1 7 3
f 1 3 4
f 1 4 5
f 1 5 2
f 2 5 9
f 2 9 6
f 3 7 8
f 3 8 4
f 4 8 12
f 4 12 16
f 4 16 19
f 4 19 18
f 4 18 23
f 4 23 21
f 4 21 20
f 4 20 14
f 4 14 10
f 4 10 9
f 4 9 5
f 6 9 10
f 6 10 11
f 7 12 8
f 7 13 16
f 7 16 12
f 10 14 11
f 11 14 15
f 13 17 23
f 13 23 18
f 13 18 19
f 13 19 16
f 14 20 15
f 15 20 21
f 15 21 22
f 17 22 21
f 17 21 23

