# https://github.com/mikedh/trimesh
v -1.19059616 1.22092905 -0.35515207
v -1.19059616 0.44857798 -0.35515207
v -1.19059616 1.22092905 -0.41430955
v -2.98045332 1.22092905 -0.35515207
v -1.19059616 0.44857798 -0.48897498
v -2.98045332 0.44857798 -0.35515207
v -1.19059616 1.10261177 -0.48018750
v -1.27153924 1.08129197 -0.50453701
v -1.31428830 1.08613052 -0.50814891
v -1.43202361 1.09202746 -0.51280326
v -2.08026868 1.09376632 -0.51382745
v -2.98045332 1.22092905 -0.41430955
v -1.19059616 0.63130827 -0.50288376
v -1.30833149 0.44857798 -0.48922646
v -1.37315601 0.57241422 -0.53030602
v -1.31428830 0.57241422 -0.52955123
v -1.25524550 0.63130827 -0.53016220
v -1.20513787 0.63130827 -0.51131175
v -2.98045332 0.44857798 -0.48897498
v -1.19059616 1.04651500 -0.49339558
v -1.21267153 1.02905093 -0.50647774
v -1.25331829 1.04666620 -0.51425876
v -1.31428830 1.04371772 -0.52692770
v -1.43202361 1.04371772 -0.53325304
v -2.08026868 1.04371772 -0.53436714
v -2.66929567 1.04371772 -0.53307338
v -2.72833856 1.09202746 -0.51289300
v -2.84607389 1.08560130 -0.50764577
v -2.98045332 1.10261177 -0.47979219
v -1.19059616 0.66154908 -0.50324307
v -1.36719912 0.44857798 -0.48926246
v -1.78557999 0.63130827 -0.53724233
v -1.43202361 0.63130827 -0.53727833
v -1.37315601 0.63130827 -0.53727833
v -1.31428830 0.63130827 -0.53695485
v -2.31573931 0.44857798 -0.48926246
v -2.78720618 0.44857798 -0.48924455
v -2.61042804 0.57241422 -0.53001854
v -2.78720618 0.63130827 -0.53711659
v -2.55156033 0.63130827 -0.53715259
v -1.25524550 0.69020232 -0.53077316
v -1.20478751 0.69020232 -0.51177889
v -2.98045332 0.63130827 -0.49431195
v -2.95172026 0.63130827 -0.50743011
v -2.90511669 0.63130827 -0.52593933
v -2.84607389 0.63130827 -0.53652353
v -2.84607389 0.57241422 -0.52876060
v -2.78720618 0.57241422 -0.52996463
v -2.84607389 0.44857798 -0.48919063
v -1.19059616 0.98482369 -0.50259628
v -1.20548831 0.98482369 -0.51100618
v -1.25524550 0.98482369 -0.52980289
v -1.31428830 0.98482369 -0.53682911
v -1.43202361 0.98482369 -0.53866201
v -2.08026868 0.98482369 -0.53871592
v -2.66929567 0.98482369 -0.53850027
v -2.72833856 1.04371772 -0.53274990
v -2.84607389 1.04371772 -0.52575950
v -2.88742136 1.08076275 -0.50399787
v -2.98045332 1.06057701 -0.48954994
v -2.90634310 1.04485176 -0.51215629
v -1.19059616 0.69020232 -0.50335090
v -2.02140102 0.69020232 -0.53747607
v -1.54993417 0.69020232 -0.53752999
v -2.49251744 0.69020232 -0.53742216
v -1.37315601 0.69020232 -0.53754790
v -1.31428830 0.69020232 -0.53722442
v -2.72833856 0.57241422 -0.52998254
v -2.84607389 0.69020232 -0.53682911
v -2.78720618 0.69020232 -0.53738616
v -1.25524550 0.92585405 -0.53077316
v -1.20478751 0.92585405 -0.51177889
v -2.98045332 0.69020232 -0.49472535
v -2.95259632 0.69020232 -0.50822091
v -2.90511669 0.69020232 -0.52690961
v -1.19059616 0.92585405 -0.50335090
v -1.31428830 0.92585405 -0.53722442
v -2.72833856 0.98482369 -0.53801504
v -2.84607389 0.98482369 -0.53596648
v -2.90511669 0.98482369 -0.52563376
v -2.98045332 1.04454935 -0.49213764
v -2.84607389 0.92585405 -0.53682911
v -2.98045332 0.74917194 -0.49474326
v -2.95259632 0.86696000 -0.50822091
v -2.90511669 0.86696000 -0.52690961
v -2.90511669 0.92585405 -0.52689170
v -2.95259632 0.92585405 -0.50820282
v -2.95136990 0.98482369 -0.50716054
v -2.98045332 0.98482369 -0.49418620
v -2.98045332 0.86696000 -0.49474326
v -2.98045332 0.92585405 -0.49472535
v -2.98045332 0.98368967 -0.49420412
f 1 2 5
f 1 5 13
f 1 13 30
f 1 30 62
f 1 62 76
f 1 76 50
f 1 50 20
f 1 20 7
f 1 7 3
f 1 3 12
f 1 12 4
f 1 4 6
f 1 6 2
f 2 6 19
f 2 19 49
f 2 49 37
f 2 37 36
f 2 36 31
f 2 31 14
f 2 14 5
f 3 7 8
f 3 8 9
f 3 9 10
f 3 10 11
f 3 11 12
f 4 12 29
f 4 29 60
f 4 60 81
f 4 81 89
f 4 89 92
f 4 92 91
f 4 91 90
f 4 90 83
f 4 83 73
f 4 73 43
f 4 43 19
f 4 19 6
f 5 14 15
f 5 15 16
f 5 16 17
f 5 17 18
f 5 18 13
f 7 20 21
f 7 21 22
f 7 22 8
f 8 22 23
f 8 23 9
f 9 23 10
f 10 23 24
f 10 24 11
f 11 24 25
f 11 25 26
f 11 26 27
f 11 27 12
f 12 27 28
f 12 28 29
f 13 18 30
f 14 31 15
f 15 32 33
f 15 33 34
f 15 34 35
f 15 35 16
f 15 31 36
f 15 36 37
f 15 37 38
f 15 38 39
f 15 39 40
f 15 40 32
f 16 35 17
f 17 41 18
f 17 35 41
f 18 41 42
f 18 42 30
f 19 43 44
f 19 44 45
f 19 45 46
f 19 46 47
f 19 47 48
f 19 48 49
f 20 50 51
f 20 51 21
f 21 51 52
f 21 52 22
f 22 52 23
f 23 53 24
f 23 52 53
f 24 53 54
f 24 54 25
f 25 55 56
f 25 56 26
f 25 54 55
f 26 56 57
f 26 57 27
f 27 57 58
f 27 58 28
f 28 58 59
f 28 59 29
f 29 59 58
f 29 58 61
f 29 61 60
f 30 42 62
f 32 63 64
f 32 64 66
f 32 66 33
f 32 40 65
f 32 65 63
f 33 66 34
f 34 66 67
f 34 67 35
f 35 67 41
f 37 49 48
f 37 48 68
f 37 68 38
f 38 68 39
f 39 68 48
f 39 48 46
f 39 46 69
f 39 69 70
f 39 70 40
f 40 70 65
f 41 71 72
f 41 72 42
f 41 67 77
f 41 77 71
f 42 72 76
f 42 76 62
f 43 73 74
f 43 74 44
f 44 74 45
f 45 74 75
f 45 75 46
f 46 48 47
f 46 75 69
f 50 76 72
f 50 72 51
f 51 72 52
f 52 72 71
f 52 71 53
f 53 77 54
f 53 71 77
f 54 77 67
f 54 67 66
f 54 66 55
f 55 66 64
f 55 64 63
f 55 63 65
f 55 65 70
f 55 70 56
f 56 70 78
f 56 78 57
f 57 78 79
f 57 79 58
f 58 79 80
f 58 80 61
f 60 61 80
f 60 80 81
f 69 82 78
f 69 78 70
f 69 75 85
f 69 85 82
f 73 83 74
f 74 84 85
f 74 85 75
f 74 83 90
f 74 90 84
f 78 82 79
f 79 82 86
f 79 86 80
f 80 86 87
f 80 87 88
f 80 88 81
f 81 88 89
f 82 85 86
f 84 87 86
f 84 86 85
f 84 90 91
f 84 91 87
f 87 91 92
f 87 92 89
f 87 89 88

