# https://github.com/mikedh/trimesh
v -3.53063997 -0.02226852 -0.41052696
v -3.53063997 -0.01028905 -0.44743389
v -3.43547753 -0.02679134 -0.41052696
v -3.53063997 -0.00637747 -0.36811499
v -3.43547753 -0.00796653 -0.46447040
v -3.53063997 -0.00283257 -0.46806982
v -2.98045332 -0.00796653 -0.46552901
v -3.02305293 -0.02691365 -0.41052696
v -2.98045332 -0.00637747 -0.36811499
v -2.98045332 0.02858302 -0.35875010
v -3.53063997 0.04202923 -0.35516683
v -3.53063997 0.04202923 -0.49144203
v -2.98045332 0.03811756 -0.49307069
v -2.98045332 -0.02679134 -0.41052696
v -2.98045332 0.04202923 -0.35516683
v -3.43547753 1.04365744 -0.35085054
v -3.49439529 1.04365744 -0.35218627
v -3.53063997 1.00747462 -0.35401022
v -3.53063997 0.10094858 -0.49549753
v -2.98045332 0.10094858 -0.50331543
v -2.98045332 1.22188221 -0.35516683
v -3.25872406 1.04365744 -0.35194181
v -3.25737779 1.22188221 -0.35515032
v -3.53063997 1.22188221 -0.35515032
v -3.49439529 1.10257674 -0.35241422
v -3.53063997 1.10257674 -0.35409171
v -3.53063997 1.04365744 -0.35399406
v -3.53063997 0.47108897 -0.51722474
v -3.17524825 0.48319058 -0.51722474
v -3.14611250 0.48526864 -0.51722474
v -3.13534145 0.48673556 -0.51722474
v -3.11266828 0.50800521 -0.51722474
v -3.09909676 0.52242938 -0.51722474
v -3.09737336 0.52707447 -0.51722474
v -2.98045332 0.15986792 -0.50331543
v -2.98045332 1.22188221 -0.41430569
v -3.53063997 1.22188221 -0.41432202
v -3.53063997 0.64466861 -0.51722474
v -3.09796580 0.57279197 -0.51722474
v -2.98045332 0.98363795 -0.49421079
v -2.98045332 1.10257674 -0.47979658
v -3.25872406 1.10257674 -0.48947127
v -3.25872406 1.14829419 -0.46276025
v -3.43547753 1.22188221 -0.41435451
v -3.49574174 1.22188221 -0.41435451
v -3.49439529 1.14792746 -0.46118041
v -3.53063997 1.10392134 -0.48717474
v -3.53063997 1.04365744 -0.49440625
v -3.19980630 0.63330037 -0.51722474
v -3.14072697 0.61655358 -0.51722474
v -2.98045332 1.04451308 -0.49214239
v -2.98045332 0.98473810 -0.49417830
v -2.98045332 1.06052641 -0.48955275
v -3.25872406 1.04365744 -0.49357559
v -3.49439529 1.10257674 -0.48820086
v -3.15532181 0.62119867 -0.51722474
f 1 2 3
f 1 3 4
f 1 4 11
f 1 11 18
f 1 18 27
f 1 27 26
f 1 26 24
f 1 24 37
f 1 37 47
f 1 47 48
f 1 48 38
f 1 38 28
f 1 28 19
f 1 19 12
f 1 12 6
f 1 6 2
f 2 5 3
f 2 6 5
f 3 5 7
f 3 7 8
f 3 8 4
f 4 9 10
f 4 10 11
f 4 8 9
f 5 6 7
f 6 12 13
f 6 13 7
f 7 14 8
f 7 13 20
f 7 20 35
f 7 35 40
f 7 40 52
f 7 52 51
f 7 51 53
f 7 53 41
f 7 41 36
f 7 36 21
f 7 21 15
f 7 15 10
f 7 10 9
f 7 9 14
f 8 14 9
f 10 15 11
f 11 15 16
f 11 16 17
f 11 17 18
f 12 19 20
f 12 20 13
f 15 21 22
f 15 22 16
f 16 22 21
f 16 21 23
f 16 23 24
f 16 24 25
f 16 25 17
f 17 25 26
f 17 26 27
f 17 27 18
f 19 28 20
f 20 28 29
f 20 29 30
f 20 30 31
f 20 31 32
f 20 32 33
f 20 33 34
f 20 34 35
f 21 36 44
f 21 44 45
f 21 45 37
f 21 37 24
f 21 24 23
f 24 26 25
f 28 38 49
f 28 49 56
f 28 56 50
f 28 50 39
f 28 39 34
f 28 34 33
f 28 33 32
f 28 32 31
f 28 31 30
f 28 30 29
f 34 39 35
f 35 39 40
f 36 41 42
f 36 42 43
f 36 43 44
f 37 45 43
f 37 43 46
f 37 46 47
f 38 48 49
f 39 50 51
f 39 51 52
f 39 52 40
f 41 53 42
f 42 53 51
f 42 51 54
f 42 54 48
f 42 48 55
f 42 55 43
f 43 55 47
f 43 47 46
f 43 45 44
f 47 55 48
f 48 54 49
f 49 54 51
f 49 51 56
f 50 56 51

