# https://github.com/mikedh/trimesh
v -0.48538062 2.14614788 -0.35605931
v -0.44721093 2.14614788 -0.36458722
v -0.48538062 2.14614788 -0.46068412
v -0.48538062 1.29774516 -0.35605931
v -0.46872090 1.29774516 -0.35977956
v -0.43146774 2.14614788 -0.36813572
v -0.43146774 1.29774516 -0.36813572
v -0.46607674 2.14614788 -0.94071130
v -0.48538062 1.29774516 -0.46068412
v -0.40252825 2.14614788 -0.41054663
v -0.40252825 1.29774516 -0.41054663
v -0.46552522 2.14614788 -0.94071130
v -0.46607674 1.29774516 -0.94071130
v -0.40492900 2.14598175 -0.94071130
v -0.40492900 2.14614788 -0.92359822
v -0.40492900 1.29774516 -0.94071130
f 1 2 6
f 1 6 10
f 1 10 15
f 1 15 12
f 1 12 8
f 1 8 3
f 1 3 9
f 1 9 4
f 1 4 5
f 1 5 2
f 2 5 7
f 2 7 6
f 3 8 13
f 3 13 9
f 4 9 13
f 4 13 16
f 4 16 11
f 4 11 7
f 4 7 5
f 6 7 11
f 6 11 10
f 8 12 14
f 8 14 16
f 8 16 13
f 10 14 15
f 10 11 16
f 10 16 14
f 12 15 14

