# https://github.com/mikedh/trimesh
v -0.87322530 1.21514286 -0.73951332
v -0.86970534 1.21514286 -0.74054050
v -0.87322530 1.21514286 -0.73610163
v -0.87287100 2.45793389 -0.73760438
v -0.84273239 1.21514286 -0.74057580
v -0.87321942 1.21514286 -0.73346651
v -0.87287100 2.45793389 -0.73386463
v -0.87264059 2.48847079 -0.73661039
v -0.84273239 2.45793389 -0.73764354
v -0.81290103 1.21514286 -0.73670628
v -0.81326131 2.48747373 -0.73464841
v -0.84273239 1.21514286 -0.73304398
v -0.84273239 2.45793389 -0.73385497
v -0.87264059 2.48847079 -0.73411752
v -0.84273239 2.48822150 -0.73613342
v -0.81289515 1.21514286 -0.73424361
v -0.81326131 2.48747373 -0.73461592
v -0.81595447 1.21514286 -0.73373187
v -0.84273239 2.48822150 -0.73423834
f 1 2 5
f 1 5 10
f 1 10 16
f 1 16 18
f 1 18 12
f 1 12 6
f 1 6 3
f 1 3 7
f 1 7 4
f 1 4 2
f 2 4 5
f 3 6 7
f 4 7 14
f 4 14 8
f 4 8 9
f 4 9 5
f 5 9 11
f 5 11 10
f 6 12 7
f 7 13 14
f 7 12 13
f 8 14 19
f 8 19 15
f 8 15 9
f 9 15 11
f 10 11 16
f 11 15 19
f 11 19 17
f 11 17 16
f 12 18 17
f 12 17 13
f 13 17 19
f 13 19 14
f 16 17 18

