# https://github.com/mikedh/trimesh
v -2.18083615 0.05178154 -4.05888799
v -2.18083615 0.08697349 -4.05888799
v -2.15540726 0.02233557 -4.05888799
v -2.20386402 0.04487992 -3.88156966
v -2.13117888 0.16004310 -4.05888799
v -2.20386402 0.04662159 -3.88156966
v -2.19949856 0.09713060 -3.88156966
v -2.19305946 0.03651322 -3.88156966
v -2.12845047 0.00358391 -4.05888799
v -2.19393258 0.10302304 -3.88156966
v -2.13494413 0.16002685 -3.88156966
v -2.12855961 0.16004310 -4.00504680
v -1.88463875 0.16004310 -4.05888799
v -2.12594030 0.00202128 -4.05888799
v -2.12375757 0.00410478 -4.00504680
v -2.14160147 0.01904751 -3.88156966
v -2.08970688 0.16004310 -3.94280489
v -2.11682739 0.16004310 -3.96594164
v -1.64644761 0.16002685 -3.88156966
v -1.64639303 0.16004310 -4.03097804
v -1.64639303 0.15983148 -4.03099543
v -1.64639303 0.10092329 -4.03323444
v -1.64639303 0.06916586 -4.03443210
v -1.64639303 0.03970364 -4.03554292
v -1.88278343 0.13972880 -4.05888799
v -2.08015741 -0.00611747 -4.05888799
v -2.08070309 0.00034467 -3.94912281
v -2.06144045 0.00249333 -3.90488000
v -2.01576669 -0.00095752 -3.88156966
v -1.64639303 0.16004310 -3.94280489
v -1.64644761 -0.00499432 -3.88156966
v -1.64639303 0.01077854 -4.03554292
v -1.88027328 0.08331102 -4.05888799
v -2.07502797 -0.00606865 -4.05888799
v -1.96228962 -0.00624769 -4.00504680
v -1.95661450 -0.00501056 -3.88156966
v -2.02122351 -0.00494550 -3.94615477
v -1.96223504 -0.00486410 -3.88156966
v -1.64639303 -0.00278059 -3.94280489
v -1.64639303 -0.00268295 -3.94615477
v -1.88349283 0.04251964 -4.05888799
v -1.64639303 0.00130503 -4.00504680
v -2.01614865 -0.00432698 -4.05888799
v -1.95410435 0.00159804 -4.05888799
v -1.93707901 0.00462566 -4.05888799
v -1.91426941 0.01064832 -4.05888799
v -1.88676692 0.03031152 -4.05888799
f 1 2 5
f 1 5 13
f 1 13 25
f 1 25 33
f 1 33 41
f 1 41 47
f 1 47 46
f 1 46 45
f 1 45 44
f 1 44 43
f 1 43 34
f 1 34 26
f 1 26 14
f 1 14 9
f 1 9 3
f 1 3 4
f 1 4 6
f 1 6 2
f 2 6 7
f 2 7 5
f 3 8 4
f 3 9 8
f 4 8 16
f 4 16 29
f 4 29 38
f 4 38 36
f 4 36 31
f 4 31 19
f 4 19 11
f 4 11 10
f 4 10 7
f 4 7 6
f 5 7 10
f 5 10 11
f 5 11 12
f 5 12 18
f 5 18 17
f 5 17 30
f 5 30 20
f 5 20 13
f 8 9 14
f 8 14 15
f 8 15 16
f 11 17 18
f 11 18 12
f 11 19 30
f 11 30 17
f 13 20 21
f 13 21 22
f 13 22 23
f 13 23 24
f 13 24 25
f 14 26 15
f 15 26 27
f 15 27 16
f 16 27 28
f 16 28 29
f 19 31 39
f 19 39 30
f 20 30 39
f 20 39 40
f 20 40 42
f 20 42 32
f 20 32 24
f 20 24 23
f 20 23 22
f 20 22 21
f 24 32 33
f 24 33 25
f 26 34 35
f 26 35 36
f 26 36 37
f 26 37 27
f 27 37 29
f 27 29 28
f 29 37 38
f 31 36 35
f 31 35 40
f 31 40 39
f 32 41 33
f 32 42 43
f 32 43 44
f 32 44 45
f 32 45 46
f 32 46 47
f 32 47 41
f 34 43 42
f 34 42 40
f 34 40 35
f 36 38 37

