# https://github.com/mikedh/trimesh
v -0.39589022 1.33702774 -3.84864113
v -0.39589022 1.17084517 -3.92567162
v -0.43025327 1.33665618 -3.84864113
v -0.39589022 0.38814299 -3.84864113
v -0.54374976 1.18180635 -3.91380297
v -0.54374976 1.21766240 -3.89777054
v -0.54374976 1.22044914 -3.89650716
v -0.39589022 1.12449243 -3.94222009
v -0.54374976 1.32021439 -3.84864113
v -0.54374976 0.38814299 -3.84864113
v -0.39589022 0.38814299 -3.87380190
v -0.54374976 1.17966985 -3.91447913
v -0.39589022 1.10191982 -3.94843022
v -0.54374976 1.15235981 -3.92286014
v -0.54374976 0.38814299 -4.02015808
v -0.39589022 0.38823589 -4.03040746
v -0.42276975 0.38814299 -4.02489128
v -0.54374976 1.04367698 -3.94939111
v -0.54374976 1.10266296 -3.93620568
v -0.54374976 1.14873705 -3.92383880
v -0.39589022 0.92171068 -3.98576215
v -0.54088371 0.38814299 -4.02040719
v -0.54374976 0.50908753 -4.01223973
v -0.39589022 0.63133242 -4.01713309
v -0.39589022 0.86625459 -3.99683004
v -0.54374976 1.03940398 -3.95020961
v -0.54374976 0.51345334 -4.01193723
v -0.39589022 0.69022555 -4.01309383
v -0.54374976 0.85826591 -3.97905379
v -0.54374976 0.86226025 -3.97857335
v -0.54374976 0.89161390 -3.97501454
v -0.54374976 0.92338274 -3.97042367
v -0.54374976 0.92589080 -3.97005000
v -0.54374976 0.98041799 -3.96127750
v -0.54374976 0.98478389 -3.96056577
v -0.39589022 0.80810463 -4.00275550
v -0.54374976 0.74921149 -3.99158079
v -0.54374976 0.80810463 -3.98506816
v -0.54374976 0.57234647 -4.00763104
v -0.39589022 0.74921149 -4.00841398
v -0.54374976 0.69022555 -3.99747064
v -0.54374976 0.63133242 -4.00291561
f 1 2 3
f 1 3 9
f 1 9 10
f 1 10 4
f 1 4 11
f 1 11 16
f 1 16 24
f 1 24 28
f 1 28 40
f 1 40 36
f 1 36 25
f 1 25 21
f 1 21 13
f 1 13 8
f 1 8 2
f 2 5 6
f 2 6 7
f 2 7 3
f 2 8 5
f 3 7 9
f 4 10 15
f 4 15 22
f 4 22 17
f 4 17 11
f 5 12 14
f 5 14 20
f 5 20 19
f 5 19 18
f 5 18 26
f 5 26 35
f 5 35 34
f 5 34 33
f 5 33 32
f 5 32 31
f 5 31 30
f 5 30 29
f 5 29 38
f 5 38 37
f 5 37 41
f 5 41 42
f 5 42 39
f 5 39 27
f 5 27 23
f 5 23 15
f 5 15 10
f 5 10 9
f 5 9 7
f 5 7 6
f 5 8 12
f 8 13 14
f 8 14 12
f 11 17 16
f 13 18 19
f 13 19 20
f 13 20 14
f 13 21 18
f 15 23 24
f 15 24 22
f 16 17 22
f 16 22 24
f 18 21 25
f 18 25 26
f 23 27 28
f 23 28 24
f 25 29 30
f 25 30 31
f 25 31 32
f 25 32 33
f 25 33 34
f 25 34 35
f 25 35 26
f 25 36 37
f 25 37 38
f 25 38 29
f 27 39 28
f 28 39 40
f 36 40 41
f 36 41 37
f 39 42 40
f 40 42 41

