# https://github.com/mikedh/trimesh
v -2.27829223 0.18464681 -3.79842413
v -2.38535081 0.18141556 -3.79842413
v -2.27829223 0.00025230 -3.79842413
v -2.27829223 0.07720521 -3.86180869
v -2.53232327 0.18450236 -3.79844894
v -2.52946336 0.18426765 -3.79843032
v -2.53232327 0.10596092 -3.79843032
v -2.38535081 0.00025230 -3.79842413
v -2.27829223 0.00182274 -3.80214680
v -2.38535081 0.00025230 -3.79843032
v -2.38535081 0.00101043 -3.80026683
v -2.27829223 0.06375688 -3.86180869
v -2.53232327 0.07697050 -3.86151708
v -2.53232327 0.00025230 -3.79843032
v -2.27829223 0.00460266 -3.80873591
v -2.53232327 0.00315857 -3.80536070
v -2.27829223 0.03429713 -3.83818219
v -2.53232327 0.05440630 -3.85414002
v -2.53232327 0.06404577 -3.86151708
v -2.53232327 0.00460266 -3.80873591
v -2.53232327 0.02463965 -3.82855909
v -2.53232327 0.03458593 -3.83818219
f 1 2 8
f 1 8 3
f 1 3 9
f 1 9 15
f 1 15 17
f 1 17 12
f 1 12 4
f 1 4 5
f 1 5 6
f 1 6 2
f 2 6 7
f 2 7 14
f 2 14 8
f 3 8 14
f 3 14 10
f 3 10 11
f 3 11 9
f 4 12 19
f 4 19 13
f 4 13 5
f 5 13 19
f 5 19 18
f 5 18 22
f 5 22 21
f 5 21 20
f 5 20 16
f 5 16 14
f 5 14 7
f 5 7 6
f 9 11 15
f 10 14 11
f 11 14 16
f 11 16 15
f 12 17 18
f 12 18 19
f 15 16 20
f 15 20 17
f 17 20 21
f 17 21 22
f 17 22 18

