# https://github.com/mikedh/trimesh
v -3.79576691 1.92657388 -2.56997667
v -3.77504879 1.92657388 -2.56997667
v -3.78920625 1.92657388 -2.57110992
v -3.79492115 0.04211906 -2.56997667
v -3.77695317 0.04211906 -2.56997667
v -3.78819435 1.92657388 -2.57106093
v -3.78885133 1.92657388 -2.57111449
v -3.78907454 0.04211906 -2.57096504
v -3.78907454 0.03396767 -2.56997667
v -3.78197438 0.03582024 -2.56997667
f 1 2 6
f 1 6 7
f 1 7 3
f 1 3 4
f 1 4 9
f 1 9 10
f 1 10 5
f 1 5 2
f 2 5 6
f 3 7 8
f 3 8 4
f 4 8 9
f 5 10 8
f 5 8 6
f 6 8 7
f 8 10 9

