# https://github.com/mikedh/trimesh
v 0.22344681 2.03104881 -5.41847138
v 0.22344681 2.21515742 -5.41847138
v 0.23346710 2.03104881 -5.41847138
v 0.22344681 2.03104881 -5.22423166
v 0.22344681 2.21515742 -5.36038024
v 0.30106205 2.11885004 -5.41847138
v 0.30874420 2.07285894 -5.41847138
v 0.30874420 2.07266067 -5.22423166
v 0.23356738 2.03104881 -5.22423166
v 0.22344681 2.21513942 -5.22423166
v 0.30106205 2.11885004 -5.22423166
v 0.30874420 2.08940275 -5.36038024
v 0.30863567 2.08981721 -5.41847138
v 0.30635600 2.09855770 -5.22423166
v 0.30874420 2.08915039 -5.41847138
v 0.30874420 2.08940275 -5.22423166
f 1 2 6
f 1 6 13
f 1 13 15
f 1 15 7
f 1 7 3
f 1 3 9
f 1 9 4
f 1 4 10
f 1 10 5
f 1 5 2
f 2 5 11
f 2 11 6
f 3 7 8
f 3 8 9
f 4 9 8
f 4 8 16
f 4 16 14
f 4 14 11
f 4 11 10
f 5 10 11
f 6 12 13
f 6 11 14
f 6 14 12
f 7 15 12
f 7 12 16
f 7 16 8
f 12 15 13
f 12 14 16

