# https://github.com/mikedh/trimesh
v -3.73584445 2.49565884 -3.21569365
v -3.60435672 2.49666029 -3.36384433
v -3.66714962 2.49906912 -3.35382149
v -3.72653435 2.49844665 -3.29334857
v -3.76347517 2.49565884 -3.21569365
v -3.72643460 2.48074570 -3.21569365
v -3.60435672 2.49666029 -3.39113757
v -3.71208712 2.45798359 -3.21569365
v -3.60435672 2.45798359 -3.34112942
v -3.73398240 2.49877145 -3.36052106
v -3.76347517 2.49565884 -3.29794459
v -3.76736542 2.45798359 -3.21569365
v -3.67122286 2.49644375 -3.39066029
v -3.60435672 2.49127423 -3.39228657
v -3.70926093 2.22259405 -3.21569365
v -3.60435672 2.39906178 -3.34088195
v -3.71690848 2.49343949 -3.38921079
v -3.76219511 2.49292529 -3.34330369
v -3.76736542 2.45798359 -3.29794459
v -3.77418178 2.22259405 -3.21569365
v -3.60435672 2.45798359 -3.39610480
v -3.67122286 2.45798359 -3.39499115
v -3.60435672 2.22259405 -3.34088195
v -3.72502141 2.45798359 -3.39066029
v -3.75448100 2.45798359 -3.38072583
v -3.76347517 2.45798359 -3.35125833
v -3.77403215 2.22259405 -3.29794459
v -3.77418178 2.22259405 -3.23902725
v -3.60435672 2.45005338 -3.39628157
v -3.67122286 2.28124514 -3.39499115
v -3.67150542 2.22259405 -3.39497347
v -3.60435672 2.22259405 -3.39628157
v -3.72502141 2.28124514 -3.39066029
v -3.75448100 2.22259405 -3.38205161
v -3.76675041 2.22259405 -3.35258410
v -3.72517104 2.22259405 -3.39060726
f 1 2 3
f 1 3 4
f 1 4 5
f 1 5 12
f 1 12 20
f 1 20 15
f 1 15 8
f 1 8 6
f 1 6 2
f 2 7 3
f 2 6 8
f 2 8 9
f 2 9 16
f 2 16 23
f 2 23 32
f 2 32 29
f 2 29 21
f 2 21 14
f 2 14 7
f 3 7 10
f 3 10 4
f 4 10 5
f 5 11 19
f 5 19 12
f 5 10 11
f 7 13 10
f 7 14 13
f 8 15 9
f 9 15 16
f 10 13 17
f 10 17 18
f 10 18 11
f 11 18 19
f 12 19 28
f 12 28 20
f 13 14 21
f 13 21 22
f 13 22 17
f 15 20 28
f 15 28 27
f 15 27 35
f 15 35 34
f 15 34 36
f 15 36 31
f 15 31 32
f 15 32 23
f 15 23 16
f 17 22 24
f 17 24 25
f 17 25 18
f 18 25 26
f 18 26 19
f 19 26 27
f 19 27 28
f 21 29 22
f 22 29 32
f 22 32 30
f 22 30 31
f 22 31 24
f 24 31 33
f 24 33 34
f 24 34 25
f 25 34 35
f 25 35 26
f 26 35 27
f 30 32 31
f 31 36 33
f 33 36 34

