# https://github.com/mikedh/trimesh
v -3.73586114 2.49566024 -0.98104590
v -3.73586114 2.49566024 -2.29618879
v -3.76348623 2.49566024 -0.98104590
v -3.71209450 2.45786118 -0.98104590
v -3.71209450 2.45786118 -2.29457479
v -3.71209994 2.45786118 -2.35509988
v -3.73585569 2.49541640 -2.35509988
v -3.76348079 2.49566024 -2.35509988
v -3.76348623 2.49566024 -2.29457479
v -3.76736629 2.45786118 -0.98104590
v -3.71209450 0.04213882 -0.98104590
v -3.71209450 0.04213882 -2.29457479
v -3.71209994 0.10115405 -2.35509988
v -3.76736629 2.45786118 -2.35509988
v -3.76784660 2.10425758 -2.35509988
v -3.76736629 0.04213882 -0.98104590
v -3.73586114 0.00433976 -0.98104590
v -3.73586114 0.00433976 -2.35509988
v -3.71210538 0.04213882 -2.35509988
v -3.76784660 0.04213882 -2.35509988
v -3.76348623 0.00433976 -0.98104590
v -3.76348079 0.00433976 -2.29618879
v -3.76372630 0.00458360 -2.35509988
v -3.76348623 0.00433976 -2.29457479
f 1 2 8
f 1 8 9
f 1 9 3
f 1 3 10
f 1 10 16
f 1 16 21
f 1 21 17
f 1 17 11
f 1 11 4
f 1 4 5
f 1 5 2
f 2 5 6
f 2 6 7
f 2 7 8
f 3 9 14
f 3 14 10
f 4 11 12
f 4 12 5
f 5 12 13
f 5 13 6
f 6 13 19
f 6 19 18
f 6 18 23
f 6 23 20
f 6 20 15
f 6 15 14
f 6 14 8
f 6 8 7
f 8 14 9
f 10 14 15
f 10 15 20
f 10 20 16
f 11 17 18
f 11 18 12
f 12 18 19
f 12 19 13
f 16 20 21
f 17 21 24
f 17 24 22
f 17 22 18
f 18 22 23
f 20 23 21
f 21 23 24
f 22 24 23

