# https://github.com/mikedh/trimesh
v -3.69274706 0.00055067 -4.09552939
v -3.69274706 0.00201750 -4.06594845
v -3.69274706 0.00323988 -4.11534686
v -3.55347690 0.00348433 -4.06210106
v -3.55347690 0.00348433 -4.02812832
v -3.69274706 0.00421779 -4.04205375
v -3.69274706 0.02426489 -4.13182509
v -3.55347690 0.04211177 -4.08985515
v -3.67122128 0.00568463 -4.03128603
v -3.55347690 0.04211177 -4.02027635
v -3.69274706 0.00690700 -4.03184255
v -3.69274706 0.04211177 -4.14098373
v -3.69274706 0.08269496 -4.14209678
v -3.69274706 0.10103076 -4.14252019
v -3.55347690 0.10103076 -4.09006088
v -3.67122128 0.04211177 -4.02804363
v -3.69274706 0.02475389 -4.03024555
v -3.55347690 0.10103076 -4.01893342
v -3.69274706 2.10427611 -4.14252019
v -3.55347690 2.39887107 -4.09006088
v -3.69274706 0.04211177 -4.02947126
v -3.55347690 2.39887107 -4.01893342
v -3.69274706 2.39887107 -4.14041508
v -3.55347690 2.45778997 -4.08985515
v -3.69274706 2.45778997 -4.02947126
v -3.55347690 2.45778997 -4.02027635
v -3.67122128 2.45778997 -4.02804363
v -3.69274706 2.43529813 -4.13959241
v -3.69274706 2.45778997 -4.13907215
v -3.69274706 2.49617295 -4.11522586
v -3.55347690 2.49641741 -4.06210106
v -3.69274706 2.49323920 -4.03184255
v -3.55347690 2.49641741 -4.02806782
v -3.67122128 2.49446157 -4.03128603
v -3.69274706 2.49812870 -4.06594845
v -3.66571378 2.49788424 -4.06890047
f 1 2 6
f 1 6 11
f 1 11 17
f 1 17 21
f 1 21 25
f 1 25 32
f 1 32 35
f 1 35 30
f 1 30 29
f 1 29 28
f 1 28 23
f 1 23 19
f 1 19 14
f 1 14 13
f 1 13 12
f 1 12 7
f 1 7 3
f 1 3 4
f 1 4 5
f 1 5 2
f 2 5 6
f 3 7 4
f 4 7 8
f 4 8 15
f 4 15 20
f 4 20 24
f 4 24 31
f 4 31 33
f 4 33 26
f 4 26 22
f 4 22 18
f 4 18 10
f 4 10 5
f 5 9 6
f 5 10 9
f 6 9 11
f 7 12 8
f 8 12 13
f 8 13 14
f 8 14 15
f 9 10 11
f 10 16 17
f 10 17 11
f 10 18 16
f 14 19 20
f 14 20 15
f 16 21 17
f 16 18 21
f 18 22 25
f 18 25 21
f 19 23 24
f 19 24 20
f 22 26 27
f 22 27 25
f 23 28 24
f 24 28 29
f 24 29 30
f 24 30 31
f 25 27 32
f 26 33 34
f 26 34 32
f 26 32 27
f 30 35 36
f 30 36 31
f 31 36 33
f 32 34 35
f 33 36 35
f 33 35 34

