# https://github.com/mikedh/trimesh
v -2.53206696 0.31110596 -3.79843226
v -2.53206696 0.40498561 -3.88156966
v -2.27896308 0.31110596 -3.79843226
v -2.53206696 0.71580771 -3.79843226
v -2.27896308 0.40498561 -3.88156966
v -2.53206696 0.64533823 -3.88156966
v -2.27896308 0.71564847 -3.79843226
v -2.43374913 0.71775858 -3.79843226
v -2.27896308 0.64533823 -3.88156966
v -2.44192577 0.64609470 -3.88156966
v -2.37485266 0.71724095 -3.79843226
v -2.43283237 0.71775858 -3.79843226
v -2.37485266 0.64605488 -3.88156966
v -2.43374913 0.64609470 -3.88156966
f 1 2 5
f 1 5 3
f 1 3 7
f 1 7 11
f 1 11 12
f 1 12 8
f 1 8 4
f 1 4 6
f 1 6 2
f 2 6 10
f 2 10 14
f 2 14 13
f 2 13 9
f 2 9 5
f 3 5 9
f 3 9 7
f 4 8 6
f 6 8 10
f 7 9 11
f 8 12 14
f 8 14 10
f 9 13 12
f 9 12 11
f 12 13 14

