# https://github.com/mikedh/trimesh
v -1.87519557 0.32282437 -4.05889932
v -1.87424452 0.32165898 -4.05889932
v -1.90727974 0.32268072 -4.18217472
v -1.91024481 0.32282437 -4.17895287
v -2.12652625 0.32282437 -4.05889932
v -1.85695767 0.30033077 -4.05889932
v -1.95514027 0.32268072 -4.18217472
v -1.87782496 0.28585115 -4.18217472
v -1.95592349 0.32282437 -4.17895287
v -2.12688986 0.32282437 -4.06400359
v -2.13133746 0.15973366 -4.05889932
v -1.84585268 0.27577773 -4.05889932
v -1.95555984 0.32247314 -4.18217472
v -2.11816253 0.32282437 -4.10548963
v -1.87298577 0.25639718 -4.18217472
v -2.13158921 0.15973366 -4.06400359
v -2.12504369 0.32282437 -4.07362094
v -1.88470614 0.15973366 -4.05889932
v -1.84604849 0.26062768 -4.05889932
v -1.87298577 0.24712194 -4.18217472
v -1.98484679 0.29124712 -4.18217472
v -2.11981288 0.15973366 -4.10509142
v -1.99846928 0.26195271 -4.18217472
v -1.99855320 0.26156960 -4.18217472
v -2.00660919 0.21878542 -4.18217472
v -2.00786796 0.15986142 -4.18217472
v -1.93122398 0.15973366 -4.18217472
v -1.85435625 0.22122788 -4.05889932
v -2.00786796 0.15973366 -4.18217472
f 1 2 3
f 1 3 4
f 1 4 9
f 1 9 14
f 1 14 17
f 1 17 10
f 1 10 5
f 1 5 11
f 1 11 18
f 1 18 28
f 1 28 19
f 1 19 12
f 1 12 6
f 1 6 2
f 2 6 3
f 3 7 9
f 3 9 4
f 3 6 8
f 3 8 15
f 3 15 20
f 3 20 27
f 3 27 29
f 3 29 26
f 3 26 25
f 3 25 24
f 3 24 23
f 3 23 21
f 3 21 13
f 3 13 7
f 5 10 11
f 6 12 8
f 7 13 14
f 7 14 9
f 8 12 15
f 10 16 11
f 10 17 16
f 11 16 22
f 11 22 29
f 11 29 27
f 11 27 18
f 12 19 20
f 12 20 15
f 13 21 14
f 14 22 16
f 14 16 17
f 14 21 23
f 14 23 24
f 14 24 25
f 14 25 26
f 14 26 22
f 18 27 20
f 18 20 28
f 19 28 20
f 22 26 29

