# https://github.com/mikedh/trimesh
v -3.71005085 1.27851310 -0.51724090
v -3.57114633 1.08833268 -0.51724090
v -3.71005085 1.25306557 -0.61993200
v -3.71005085 0.65068411 -0.51724090
v -3.56657645 1.07831348 -0.51724090
v -3.71005085 1.19497878 -0.73854287
v -3.71005085 0.65068411 -0.75362951
v -3.53903986 0.65068411 -0.51724090
v -3.55278304 1.04370727 -0.51724090
v -3.71005085 1.14045712 -0.75147751
v -3.62437799 1.09054550 -0.63170986
v -3.61527160 1.04370727 -0.64216867
v -3.70052614 0.65068411 -0.75362951
v -3.71005085 0.68891690 -0.75362951
v -3.60772222 0.65068411 -0.65188709
v -3.61486997 0.98482140 -0.64522299
v -3.71005085 1.08157125 -0.75309739
v -3.71005085 1.02262391 -0.75318994
f 1 2 3
f 1 3 6
f 1 6 10
f 1 10 17
f 1 17 18
f 1 18 14
f 1 14 7
f 1 7 4
f 1 4 8
f 1 8 9
f 1 9 5
f 1 5 2
f 2 5 6
f 2 6 3
f 4 7 13
f 4 13 15
f 4 15 8
f 5 9 6
f 6 9 11
f 6 11 12
f 6 12 10
f 7 14 13
f 8 15 16
f 8 16 12
f 8 12 9
f 9 12 11
f 10 12 16
f 10 16 15
f 10 15 17
f 13 14 18
f 13 18 17
f 13 17 15

