# https://github.com/mikedh/trimesh
v -0.23856182 1.33958558 -3.80771966
v -0.25402288 1.33958558 -3.81770646
v -1.64639308 1.33958558 -3.80771966
v -0.17021489 1.33945225 -3.62139539
v -0.17021489 1.33945225 -3.79682089
v -0.31254410 1.33958558 -3.84257342
v -1.64639308 1.33958558 -3.84537599
v -1.64639308 1.33945225 -3.62230732
v -1.37300533 1.33945225 -3.62139539
v -0.17021489 0.04219739 -3.62139539
v -0.17021489 1.16148133 -3.79786629
v -0.23682797 1.10255760 -3.84862335
v -0.23755045 1.16148133 -3.84862335
v -0.24650915 1.22147153 -3.84862335
v -0.26399330 1.27079680 -3.84862335
v -0.31254410 1.30532448 -3.84862335
v -0.37149874 1.33958558 -3.84846767
v -1.54958028 1.33958558 -3.84828973
v -1.64639308 1.31732252 -3.84862335
v -1.64639308 0.92578646 -3.62139539
v -0.17021489 0.01180238 -3.62172902
v -1.64639308 0.04219739 -3.62139539
v -0.17021489 1.10255760 -3.79797750
v -0.23639437 1.04390049 -3.84862335
v -0.36730837 1.33531961 -3.84862335
v -0.37149874 1.33731926 -3.84862335
v -0.37279927 1.33958558 -3.84846767
v -1.54958028 1.33571953 -3.84862335
v -1.49178163 1.33958558 -3.84840093
v -1.54596786 1.33585282 -3.84862335
v -1.64639308 0.47066082 -3.84862335
v -0.17021489 0.00260379 -3.63923377
v -1.64639308 0.01180238 -3.62172902
v -1.37300533 -0.00606145 -3.65153380
v -0.17021489 1.04363391 -3.79795524
v -0.23682797 0.98484349 -3.84862335
v -0.17021489 0.10098774 -3.79682089
v -1.49062564 1.33665271 -3.84862335
v -1.64624855 -0.00819439 -3.84862335
v -1.64639308 -0.01232708 -3.80771966
v -0.17021489 -0.00366183 -3.65153380
v -1.64639308 0.00180404 -3.64074626
v -1.43195998 -0.00606145 -3.65153380
v -1.37300533 -0.02232542 -3.71045382
v -0.23755045 0.93685132 -3.84862335
v -0.17021489 0.07685845 -3.79624259
v -0.24549778 0.70768876 -3.84862335
v -0.24304126 0.76541264 -3.84862335
v -0.24087381 0.82300323 -3.84862335
v -1.39309036 -0.00832769 -3.84862335
v -1.37286085 -0.01059392 -3.82827161
v -1.64639308 -0.01259366 -3.80694116
v -0.17021489 -0.01965922 -3.71045382
v -1.64639308 -0.00366183 -3.65153380
v -1.64639308 -0.01419335 -3.68914563
v -1.64639308 -0.02005910 -3.71045382
v -1.43195998 -0.02219213 -3.71045382
v -0.37135430 -0.01619309 -3.76935156
v -1.64639308 -0.01632638 -3.76935156
v -1.37300533 -0.01659297 -3.76935156
v -0.78403688 -0.01659297 -3.76935156
v -0.17021489 0.04219739 -3.79508598
v -0.25315604 0.57251081 -3.84862335
v -0.25185543 0.59184099 -3.84862335
v -0.24853207 0.64996484 -3.84862335
v -0.78403688 -0.00832769 -3.84862335
v -0.78403688 -0.01059392 -3.82827161
v -1.37300533 -0.01272696 -3.80771966
v -0.17021489 -0.00406171 -3.76663803
v -0.43045338 -0.00806101 -3.84862335
v -0.37164328 -0.00499493 -3.84862335
v -0.78403688 -0.01272696 -3.80771966
v -0.40979041 -0.01232708 -3.80771966
v -0.29217010 0.10112112 -3.84862335
v -0.17021489 0.02300054 -3.78347548
v -0.31702354 0.00353702 -3.84862335
v -0.31008767 0.02086751 -3.84862335
v -0.30156240 0.04219739 -3.84862335
v -0.29939494 0.05539519 -3.84862335
f 1 2 6
f 1 6 17
f 1 17 27
f 1 27 29
f 1 29 18
f 1 18 7
f 1 7 3
f 1 3 9
f 1 9 4
f 1 4 5
f 1 5 2
f 2 5 6
f 3 7 19
f 3 19 31
f 3 31 40
f 3 40 52
f 3 52 59
f 3 59 56
f 3 56 55
f 3 55 54
f 3 54 42
f 3 42 33
f 3 33 22
f 3 22 20
f 3 20 8
f 3 8 9
f 4 10 21
f 4 21 32
f 4 32 41
f 4 41 53
f 4 53 69
f 4 69 75
f 4 75 62
f 4 62 46
f 4 46 37
f 4 37 35
f 4 35 23
f 4 23 11
f 4 11 5
f 4 9 20
f 4 20 22
f 4 22 10
f 5 11 12
f 5 12 13
f 5 13 14
f 5 14 15
f 5 15 6
f 6 16 17
f 6 15 16
f 7 18 19
f 8 20 9
f 10 22 33
f 10 33 21
f 11 23 24
f 11 24 12
f 12 24 36
f 12 36 45
f 12 45 49
f 12 49 48
f 12 48 47
f 12 47 65
f 12 65 64
f 12 64 63
f 12 63 74
f 12 74 79
f 12 79 78
f 12 78 77
f 12 77 76
f 12 76 71
f 12 71 70
f 12 70 66
f 12 66 50
f 12 50 39
f 12 39 31
f 12 31 19
f 12 19 28
f 12 28 30
f 12 30 38
f 12 38 26
f 12 26 25
f 12 25 16
f 12 16 15
f 12 15 14
f 12 14 13
f 16 25 17
f 17 25 26
f 17 26 27
f 18 28 19
f 18 29 30
f 18 30 28
f 21 33 43
f 21 43 34
f 21 34 32
f 23 35 24
f 24 35 37
f 24 37 36
f 26 38 27
f 27 38 29
f 29 38 30
f 31 39 40
f 32 34 41
f 33 42 43
f 34 43 44
f 34 44 41
f 36 37 45
f 37 46 47
f 37 47 48
f 37 48 49
f 37 49 45
f 39 50 51
f 39 51 52
f 39 52 40
f 41 44 53
f 42 54 43
f 43 54 55
f 43 55 56
f 43 56 57
f 43 57 44
f 44 58 53
f 44 57 59
f 44 59 60
f 44 60 61
f 44 61 58
f 46 62 63
f 46 63 64
f 46 64 65
f 46 65 47
f 50 66 67
f 50 67 51
f 51 67 72
f 51 72 68
f 51 68 52
f 52 68 60
f 52 60 59
f 53 58 70
f 53 70 71
f 53 71 69
f 56 59 57
f 58 61 72
f 58 72 73
f 58 73 70
f 60 68 72
f 60 72 61
f 62 74 63
f 62 75 76
f 62 76 77
f 62 77 78
f 62 78 79
f 62 79 74
f 66 70 67
f 67 70 73
f 67 73 72
f 69 71 76
f 69 76 75

