# https://github.com/mikedh/trimesh
v -2.43376323 0.68935006 -4.18564814
v -2.61050532 0.64161741 -4.29967903
v -2.61050532 0.64412964 -4.24078085
v -2.61050532 0.64412964 -4.18564814
v -2.43240501 0.68932086 -4.18564814
v -2.19808735 0.64158822 -4.29967903
v -2.33000916 0.64161741 -4.29967903
v -2.33000916 0.62549231 -4.33556432
v -2.61050532 0.62040941 -4.34686055
v -2.66943906 0.61147051 -4.33834897
v -2.66943906 0.62438224 -4.29967903
v -2.66943906 0.62756638 -4.24078085
v -2.66943906 0.62756638 -4.18564814
v -2.37488853 0.68131673 -4.18564814
v -2.19808735 0.64415888 -4.24078085
v -2.13915361 0.62452831 -4.24078085
v -2.13401609 0.61833534 -4.29838299
v -2.15025539 0.61421644 -4.34094098
v -2.19808735 0.62040941 -4.34686055
v -2.61050532 0.57232623 -4.36456677
v -2.66943906 0.57232623 -4.34757865
v -2.69914213 0.60229787 -4.32964474
v -2.70032315 0.60445957 -4.29967903
v -2.70132706 0.60635837 -4.24078085
v -2.70132706 0.60635837 -4.18564814
v -2.19808735 0.64415888 -4.18564814
v -2.13915361 0.62607658 -4.18564814
v -2.10738373 0.60489778 -4.18564814
v -2.10915528 0.60282371 -4.27787464
v -2.11157641 0.57232623 -4.31116792
v -2.14110233 0.57232623 -4.34686055
v -2.19808735 0.57232623 -4.36456677
v -2.61050532 0.51343455 -4.36456677
v -2.66943906 0.51343455 -4.34757865
v -2.69931933 0.57232623 -4.32987243
v -2.70174046 0.57232623 -4.29967903
v -2.70374819 0.57232623 -4.24078085
v -2.70374819 0.57232623 -4.18564814
v -2.10295485 0.57431267 -4.18564814
v -2.10053372 0.51723211 -4.18564814
v -2.10891907 0.57232623 -4.28171009
v -2.11157641 0.51346375 -4.31116792
v -2.14110233 0.51346375 -4.34686055
v -2.19808735 0.51346375 -4.36456677
v -2.61050532 0.45451363 -4.35461909
v -2.65703820 0.40175656 -4.33521405
v -2.67138778 0.45912917 -4.34004779
v -2.33000916 0.51343455 -4.36456677
v -2.69914213 0.48185625 -4.32964474
v -2.69931933 0.51343455 -4.32987243
v -2.70174046 0.51343455 -4.29967903
v -2.70374819 0.51343455 -4.24078085
v -2.70374819 0.51343455 -4.18564814
v -2.10047467 0.51346375 -4.18564814
v -2.10891907 0.51346375 -4.28171009
v -2.11624151 0.45696751 -4.29838299
v -2.12976438 0.39094801 -4.29967903
v -2.14618079 0.45451363 -4.34228953
v -2.10915528 0.47826314 -4.27787464
v -2.19808735 0.45451363 -4.35451399
v -2.15480235 0.39094801 -4.33463610
v -2.61428466 0.40175656 -4.33749082
v -2.19017440 0.39094801 -4.33591458
v -2.19194593 0.39094801 -4.33591458
v -2.68502875 0.40175656 -4.29967903
v -2.23239644 0.39094801 -4.29967903
v -2.69382747 0.44008291 -4.29967903
v -2.70032315 0.46952871 -4.29967903
v -2.70132706 0.46614011 -4.24078085
v -2.70357099 0.51039648 -4.18564814
v -2.10496260 0.47256678 -4.18564814
v -2.10567123 0.47063878 -4.18564814
v -2.14370061 0.39094801 -4.24570214
v -2.15297173 0.39094801 -4.33211417
v -2.68473354 0.40175656 -4.29083466
v -2.19720159 0.39094801 -4.24325028
v -2.66890756 0.40175656 -4.24009779
v -2.70132706 0.47347234 -4.18564814
v -2.12533548 0.44309174 -4.18564814
v -2.15450710 0.41940070 -4.18564814
v -2.15781399 0.41887482 -4.18564814
v -2.19802830 0.41609974 -4.18564814
v -2.68119040 0.44171877 -4.18564814
v -2.61056441 0.41621652 -4.18564814
v -2.61121401 0.40175656 -4.21890639
v -2.66630932 0.40175656 -4.23633241
v -2.65349506 0.41948833 -4.18564814
f 1 2 3
f 1 3 4
f 1 4 13
f 1 13 25
f 1 25 38
f 1 38 53
f 1 53 70
f 1 70 78
f 1 78 83
f 1 83 87
f 1 87 84
f 1 84 82
f 1 82 81
f 1 81 80
f 1 80 79
f 1 79 72
f 1 72 71
f 1 71 54
f 1 54 40
f 1 40 39
f 1 39 28
f 1 28 27
f 1 27 26
f 1 26 14
f 1 14 5
f 1 5 6
f 1 6 7
f 1 7 2
f 2 7 8
f 2 8 9
f 2 9 10
f 2 10 11
f 2 11 12
f 2 12 3
f 3 12 13
f 3 13 4
f 5 14 6
f 6 15 16
f 6 16 17
f 6 17 18
f 6 18 19
f 6 19 7
f 6 14 15
f 7 19 8
f 8 19 9
f 9 20 10
f 9 19 32
f 9 32 20
f 10 20 21
f 10 21 22
f 10 22 11
f 11 22 23
f 11 23 12
f 12 23 24
f 12 24 25
f 12 25 13
f 14 26 15
f 15 26 27
f 15 27 16
f 16 27 28
f 16 28 29
f 16 29 17
f 17 29 18
f 18 29 30
f 18 30 31
f 18 31 32
f 18 32 19
f 20 33 34
f 20 34 21
f 20 32 44
f 20 44 48
f 20 48 33
f 21 34 50
f 21 50 35
f 21 35 22
f 22 35 36
f 22 36 23
f 23 36 37
f 23 37 24
f 24 37 38
f 24 38 25
f 28 39 29
f 29 39 40
f 29 40 41
f 29 41 30
f 30 41 55
f 30 55 42
f 30 42 43
f 30 43 31
f 31 43 44
f 31 44 32
f 33 45 46
f 33 46 47
f 33 47 34
f 33 48 45
f 34 47 49
f 34 49 50
f 35 50 51
f 35 51 36
f 36 51 52
f 36 52 37
f 37 52 53
f 37 53 38
f 40 54 41
f 41 54 55
f 42 56 57
f 42 57 58
f 42 58 43
f 42 55 59
f 42 59 56
f 43 58 44
f 44 60 45
f 44 45 48
f 44 58 61
f 44 61 60
f 45 62 46
f 45 60 63
f 45 63 64
f 45 64 62
f 46 65 49
f 46 49 47
f 46 62 64
f 46 64 66
f 46 66 65
f 49 65 67
f 49 67 68
f 49 68 51
f 49 51 50
f 51 68 52
f 52 68 69
f 52 69 53
f 53 69 70
f 54 71 59
f 54 59 55
f 56 59 57
f 57 71 72
f 57 72 73
f 57 73 76
f 57 76 66
f 57 66 64
f 57 64 63
f 57 63 61
f 57 61 74
f 57 74 58
f 57 59 71
f 58 74 61
f 60 61 63
f 65 66 75
f 65 75 69
f 65 69 67
f 66 76 77
f 66 77 75
f 67 69 68
f 69 75 78
f 69 78 70
f 72 79 73
f 73 79 80
f 73 80 81
f 73 81 82
f 73 82 76
f 75 77 83
f 75 83 78
f 76 82 84
f 76 84 85
f 76 85 86
f 76 86 77
f 77 86 87
f 77 87 83
f 84 87 85
f 85 87 86

