# https://github.com/mikedh/trimesh
v -2.65104794 0.13632317 -4.25153277
v -2.67081281 0.13632317 -4.25153277
v -2.62307521 0.13632317 -4.25350801
v -2.63083603 0.32282437 -4.26284086
v -2.68133985 0.13632317 -4.29855123
v -2.66721093 0.32282437 -4.26284086
v -2.66987344 0.32282437 -4.27141039
v -2.67858663 0.32282437 -4.29970011
v -2.61516537 0.13632317 -4.29970011
v -2.62803741 0.32282437 -4.29113057
v -2.65197431 0.13632317 -4.33164114
v -2.65137186 0.32282437 -4.33143655
v -2.62041260 0.13632317 -4.31644579
v -2.63655628 0.32282437 -4.33143655
v -2.62738315 0.32282437 -4.29970011
v -2.63760567 0.13632317 -4.33191660
v -2.62837433 0.13632317 -4.33191660
f 1 2 5
f 1 5 11
f 1 11 16
f 1 16 17
f 1 17 13
f 1 13 9
f 1 9 3
f 1 3 4
f 1 4 6
f 1 6 2
f 2 6 7
f 2 7 8
f 2 8 5
f 3 9 4
f 4 10 15
f 4 15 14
f 4 14 12
f 4 12 8
f 4 8 7
f 4 7 6
f 4 9 10
f 5 8 12
f 5 12 11
f 9 13 14
f 9 14 15
f 9 15 10
f 11 12 16
f 12 14 17
f 12 17 16
f 13 17 14

