# https://github.com/mikedh/trimesh
v -2.13392025 0.08858442 -4.18217481
v -2.18151056 0.08706762 -4.18217481
v -2.12551184 0.08398793 -4.18217481
v -2.14467155 0.16002861 -4.25981367
v -2.17928270 0.16002861 -4.25969557
v -2.25635278 0.08401858 -4.26033025
v -2.18152492 0.08674581 -4.18217481
v -2.13389149 0.15984474 -4.29969580
v -2.12551184 0.05636328 -4.18217481
v -2.10952864 0.07326289 -4.26388744
v -2.13397776 0.16002861 -4.29979915
v -2.18358033 0.16002861 -4.29969580
v -2.25635278 0.08988679 -4.29969580
v -2.25635278 0.08417180 -4.26099443
v -2.25635278 0.05512228 -4.26031550
v -2.18152492 0.05172087 -4.18217481
v -2.10952864 0.07326289 -4.27094290
v -2.12602925 0.09610728 -4.29423450
v -2.12919144 0.05185881 -4.18217481
v -2.15273504 0.00397904 -4.25875093
v -2.10952864 0.06987684 -4.26388744
v -2.15782321 0.16002861 -4.33196173
v -2.15778010 0.15984474 -4.33196173
v -2.17292965 0.16002861 -4.33185838
v -2.25635278 0.07746099 -4.33250781
v -2.25635278 0.04723168 -4.29969580
v -2.17939768 0.00397904 -4.25875093
v -2.13400652 0.05087817 -4.18217481
v -2.10952864 0.06987684 -4.27094290
v -2.15711890 0.10091819 -4.33224219
v -2.12633114 0.04694060 -4.29423450
v -2.15711890 0.04200702 -4.33224219
v -2.15128332 0.00351946 -4.29969580
v -2.19413037 0.09734836 -4.33295062
v -2.17290090 0.15984474 -4.33196173
v -2.19486343 0.04476489 -4.33295062
v -2.25635278 0.06345711 -4.33250781
v -2.17311651 0.00909641 -4.33103184
v -2.18008759 0.00351946 -4.29969580
v -2.25635278 0.06321204 -4.33207983
v -2.16138782 0.00909641 -4.33103184
f 1 2 7
f 1 7 16
f 1 16 28
f 1 28 19
f 1 19 9
f 1 9 3
f 1 3 4
f 1 4 5
f 1 5 2
f 2 6 7
f 2 5 6
f 3 8 4
f 3 9 21
f 3 21 10
f 3 10 8
f 4 8 11
f 4 11 22
f 4 22 24
f 4 24 12
f 4 12 5
f 5 12 13
f 5 13 14
f 5 14 6
f 6 14 13
f 6 13 25
f 6 25 37
f 6 37 40
f 6 40 26
f 6 26 15
f 6 15 7
f 7 15 16
f 8 10 17
f 8 17 18
f 8 18 11
f 9 19 20
f 9 20 21
f 10 21 29
f 10 29 17
f 11 18 23
f 11 23 22
f 12 24 13
f 13 24 25
f 15 26 27
f 15 27 16
f 16 27 28
f 17 29 18
f 18 30 23
f 18 29 31
f 18 31 32
f 18 32 30
f 19 28 20
f 20 28 27
f 20 27 39
f 20 39 33
f 20 33 21
f 21 33 29
f 22 23 30
f 22 30 34
f 22 34 35
f 22 35 24
f 24 35 25
f 25 36 37
f 25 35 34
f 25 34 36
f 26 38 39
f 26 39 27
f 26 40 38
f 29 33 31
f 30 32 34
f 31 33 41
f 31 41 32
f 32 41 36
f 32 36 34
f 33 39 38
f 33 38 41
f 36 41 38
f 36 38 37
f 37 38 40

