# https://github.com/mikedh/trimesh
v -2.65947426 0.00424844 -4.29969018
v -2.68490117 0.03972357 -4.29694276
v -2.64757961 0.00974294 -4.33066463
v -2.62923617 0.00424844 -4.29969018
v -2.65838254 0.00428725 -4.25920323
v -2.70019802 0.05963298 -4.24078401
v -2.69976636 0.05783599 -4.27546598
v -2.68492663 0.10320112 -4.29694276
v -2.65287320 0.04199885 -4.33196445
v -2.61416787 0.04476551 -4.33274735
v -2.63621813 0.00974294 -4.33066463
v -2.57052449 0.04061561 -4.29969018
v -2.62941389 0.00428725 -4.25920323
v -2.66945214 0.04983343 -4.18184825
v -2.70019802 0.06825608 -4.18184825
v -2.70019802 0.08285205 -4.24078401
v -2.69976636 0.08508870 -4.27546598
v -2.68133406 0.13631026 -4.29855281
v -2.65197185 0.13631026 -4.33163956
v -2.65287320 0.10091284 -4.33196445
v -2.61480264 0.09734459 -4.33274735
v -2.57052449 0.05793943 -4.33257006
v -2.57052449 0.08325289 -4.33257006
v -2.57052449 0.04536023 -4.27604200
v -2.57052449 0.05051860 -4.25468332
v -2.62866498 0.05303957 -4.18184825
v -2.70019802 0.07381529 -4.18184825
v -2.67081044 0.13631026 -4.25153716
v -2.63760181 0.13631026 -4.33192020
v -2.62837293 0.13631026 -4.33192020
v -2.57052449 0.08945837 -4.32028072
v -2.57052449 0.07001435 -4.25468332
v -2.62866498 0.08581267 -4.18184825
v -2.66945214 0.08816558 -4.18184825
v -2.65104521 0.13631026 -4.25153716
v -2.62041357 0.13631026 -4.31644035
v -2.57052449 0.09722824 -4.29969018
v -2.57052449 0.08888955 -4.25521508
v -2.62307942 0.13631026 -4.25351644
v -2.61517073 0.13631026 -4.29969018
f 1 2 3
f 1 3 11
f 1 11 4
f 1 4 13
f 1 13 5
f 1 5 6
f 1 6 7
f 1 7 2
f 2 8 9
f 2 9 3
f 2 7 8
f 3 9 10
f 3 10 11
f 4 11 12
f 4 12 13
f 5 13 14
f 5 14 15
f 5 15 6
f 6 15 27
f 6 27 16
f 6 16 17
f 6 17 7
f 7 17 8
f 8 18 19
f 8 19 20
f 8 20 9
f 8 17 18
f 9 20 21
f 9 21 10
f 10 22 11
f 10 21 23
f 10 23 22
f 11 22 12
f 12 24 13
f 12 22 23
f 12 23 31
f 12 31 37
f 12 37 38
f 12 38 32
f 12 32 25
f 12 25 24
f 13 25 26
f 13 26 14
f 13 24 25
f 14 26 33
f 14 33 34
f 14 34 27
f 14 27 15
f 16 27 18
f 16 18 17
f 18 27 28
f 18 28 35
f 18 35 39
f 18 39 40
f 18 40 36
f 18 36 30
f 18 30 29
f 18 29 19
f 19 29 21
f 19 21 20
f 21 29 30
f 21 30 23
f 23 30 31
f 25 32 33
f 25 33 26
f 27 34 28
f 28 34 35
f 30 36 31
f 31 36 37
f 32 38 33
f 33 38 39
f 33 39 34
f 34 39 35
f 36 40 37
f 37 40 39
f 37 39 38

