# https://github.com/mikedh/trimesh
v 0.12337396 2.22218618 -6.18179386
v 0.12336430 2.39904747 -6.18179386
v 0.22227439 2.22218618 -6.18179386
v 0.15999078 2.22218618 -5.41847156
v 0.12569771 2.45798253 -6.18179386
v 0.16035869 2.45798253 -5.41847156
v 0.22225508 2.39904747 -6.18179386
v 0.22143214 2.22218618 -5.41847156
v 0.16018448 2.50875478 -6.18179386
v 0.17441693 2.50704367 -5.41847156
v 0.22182903 2.45798253 -6.18179386
v 0.22139333 2.45798253 -5.41847156
v 0.20494390 2.50704367 -6.18179386
v 0.20494390 2.50704367 -5.41847156
f 1 2 5
f 1 5 9
f 1 9 13
f 1 13 11
f 1 11 7
f 1 7 3
f 1 3 8
f 1 8 4
f 1 4 2
f 2 4 6
f 2 6 5
f 3 7 8
f 4 8 12
f 4 12 14
f 4 14 10
f 4 10 6
f 5 6 10
f 5 10 9
f 7 11 12
f 7 12 8
f 9 10 14
f 9 14 13
f 11 13 14
f 11 14 12

