# https://github.com/mikedh/trimesh
v -1.19059616 0.44856385 -0.35515207
v -1.19059616 0.30408711 -0.35515207
v -1.19059616 0.44856385 -0.48897498
v -2.98045332 0.44856385 -0.35515207
v -1.19059616 0.30408711 -0.49098771
v -2.98045332 0.30408711 -0.35515207
v -1.19602744 0.30408711 -0.49136248
v -1.25524550 0.30408711 -0.49458275
v -1.31428830 0.30408711 -0.49670647
v -1.37315601 0.30408711 -0.49694232
v -1.30833149 0.44856385 -0.48922488
v -2.98045332 0.44856385 -0.48897498
v -2.98045332 0.30408711 -0.49144572
v -1.36719912 0.44856385 -0.48926650
v -2.78720618 0.30408711 -0.49694232
v -2.84607389 0.44856385 -0.48919695
v -2.84502265 0.30408711 -0.49687295
v -2.84607389 0.30408711 -0.49685908
v -2.90827031 0.30408711 -0.49498526
v -2.02140102 0.44856385 -0.48926650
v -2.78720618 0.44856385 -0.48925262
f 1 2 5
f 1 5 3
f 1 3 11
f 1 11 14
f 1 14 20
f 1 20 21
f 1 21 16
f 1 16 12
f 1 12 4
f 1 4 6
f 1 6 2
f 2 6 13
f 2 13 19
f 2 19 18
f 2 18 17
f 2 17 15
f 2 15 10
f 2 10 9
f 2 9 8
f 2 8 7
f 2 7 5
f 3 5 7
f 3 7 8
f 3 8 9
f 3 9 10
f 3 10 11
f 4 12 13
f 4 13 6
f 10 14 11
f 10 15 20
f 10 20 14
f 12 16 17
f 12 17 18
f 12 18 19
f 12 19 13
f 15 17 16
f 15 16 21
f 15 21 20

