# https://github.com/mikedh/trimesh
v -1.19056350 -0.02666981 -0.41052977
v -1.13729354 -0.02691409 -0.41052977
v -1.19056350 -0.02483743 -0.40642720
v -1.19056350 -0.00981243 -0.46055732
v -0.51543625 -0.00993449 -0.51330411
v -0.96056423 -0.02691409 -0.41052977
v -0.85752716 -0.01152258 -0.37882125
v -1.19056350 -0.00626991 -0.36811921
v -1.19056350 -0.00798005 -0.46577312
v -0.51543625 -0.01763033 -0.41052977
v -0.60710552 -0.02349380 -0.41052977
v -0.66599325 -0.02679186 -0.41052977
v -1.19056350 0.03550703 -0.49315639
v -1.19056350 0.03721718 -0.49395141
v -1.19056350 0.10110417 -0.51306563
v -0.54352532 -0.00260524 -0.51330411
v -0.51543625 1.15566725 -0.51330411
v -0.51543625 -0.00614768 -0.36811921
v -0.85752716 -0.00626991 -0.36811921
v -0.85752716 0.02988793 -0.35843504
v -1.19056350 0.04210343 -0.35517526
v -0.51543625 -0.01127830 -0.38699494
v -1.19056350 0.15986072 -0.51306563
v -1.04939155 0.57640882 -0.51330411
v -1.04311284 0.52363793 -0.51330411
v -1.03174504 0.50360453 -0.51330411
v -0.55661144 0.00594559 -0.51330411
v -0.52343336 1.14882657 -0.51330411
v -1.19056350 0.98477256 -0.50258627
v -1.19056350 1.04646080 -0.49339488
v -1.19056350 1.10265203 -0.48018030
v -1.19056350 1.22102007 -0.41431447
v -0.51543625 1.22102007 -0.42436445
v -0.51543625 0.02060417 -0.36093160
v -0.51543625 0.04222557 -0.35515910
v -0.85752716 0.04210343 -0.35517526
v -0.85752716 0.04222557 -0.35515910
v -0.72488107 1.04365120 -0.35084983
v -0.84272265 1.04365120 -0.35119966
v -1.19056350 1.22102007 -0.35517526
v -1.19056350 0.92589392 -0.50334950
v -1.01086004 0.62075107 -0.51330411
v -0.53295061 1.14052002 -0.51330411
v -0.57392744 1.10081970 -0.51330411
v -0.51543625 1.22102007 -0.35515910
v -0.90167650 1.22102007 -0.35515910
f 1 2 3
f 1 3 8
f 1 8 21
f 1 21 40
f 1 40 32
f 1 32 31
f 1 31 30
f 1 30 29
f 1 29 41
f 1 41 23
f 1 23 15
f 1 15 14
f 1 14 13
f 1 13 9
f 1 9 4
f 1 4 5
f 1 5 2
f 2 6 7
f 2 7 8
f 2 8 3
f 2 5 6
f 4 9 5
f 5 10 11
f 5 11 12
f 5 12 6
f 5 9 13
f 5 13 14
f 5 14 15
f 5 15 16
f 5 16 27
f 5 27 26
f 5 26 25
f 5 25 24
f 5 24 42
f 5 42 44
f 5 44 43
f 5 43 28
f 5 28 17
f 5 17 33
f 5 33 45
f 5 45 35
f 5 35 34
f 5 34 18
f 5 18 22
f 5 22 10
f 6 12 7
f 7 12 18
f 7 18 19
f 7 19 8
f 8 19 20
f 8 20 21
f 10 22 11
f 11 22 18
f 11 18 12
f 15 23 24
f 15 24 25
f 15 25 26
f 15 26 27
f 15 27 16
f 17 28 29
f 17 29 30
f 17 30 31
f 17 31 32
f 17 32 33
f 18 34 19
f 19 34 20
f 20 34 35
f 20 35 36
f 20 36 21
f 21 36 35
f 21 35 37
f 21 37 38
f 21 38 39
f 21 39 40
f 23 41 24
f 24 41 29
f 24 29 42
f 28 43 29
f 29 43 44
f 29 44 42
f 32 40 46
f 32 46 45
f 32 45 33
f 35 45 38
f 35 38 37
f 38 45 46
f 38 46 40
f 38 40 39

