# https://github.com/mikedh/trimesh
v -2.08305861 0.15973366 -4.05889932
v -2.08305861 0.15973366 -4.11987337
v -2.13134326 0.15973366 -4.05889932
v -2.08305861 -0.00560283 -4.05889932
v -2.11981664 0.15973366 -4.10509142
v -2.08305861 0.10016902 -4.13413637
v -2.10478189 0.07650546 -4.17039747
v -2.12550284 0.08398758 -4.18217472
v -2.13391652 0.08858073 -4.18217472
v -2.18150731 0.08707131 -4.18217472
v -2.13159386 0.15973366 -4.06400359
v -2.18089046 0.08699018 -4.05889932
v -2.12598473 0.00199291 -4.05889932
v -2.08305861 -0.00563523 -4.05922513
v -2.08305861 0.09794554 -4.13460702
v -2.10478189 0.06616686 -4.17039747
v -2.12550284 0.05636389 -4.18217472
v -2.18151693 0.08674669 -4.18217472
v -2.18089046 0.05178699 -4.05889932
v -2.12852910 0.00358347 -4.05889932
v -2.12618713 0.00179816 -4.06400359
v -2.08305861 -0.00607348 -4.06400359
v -2.08305861 0.04464574 -4.13402784
v -2.08305861 0.04316881 -4.13313483
v -2.08305861 0.00095415 -4.10754100
v -2.12919407 0.05185188 -4.18217472
v -2.18151693 0.05172210 -4.18217472
v -2.15563982 0.02232925 -4.06400359
v -2.15543742 0.02232925 -4.05889932
v -2.12004795 0.00593681 -4.10086794
v -2.08305861 -0.00000340 -4.10640669
v -2.13398400 0.05087809 -4.18217472
f 1 2 5
f 1 5 11
f 1 11 3
f 1 3 12
f 1 12 19
f 1 19 29
f 1 29 20
f 1 20 13
f 1 13 4
f 1 4 14
f 1 14 22
f 1 22 31
f 1 31 25
f 1 25 24
f 1 24 23
f 1 23 15
f 1 15 6
f 1 6 2
f 2 6 7
f 2 7 8
f 2 8 9
f 2 9 10
f 2 10 5
f 3 11 12
f 4 13 14
f 5 10 11
f 6 15 7
f 7 15 16
f 7 16 17
f 7 17 8
f 8 17 26
f 8 26 32
f 8 32 27
f 8 27 18
f 8 18 10
f 8 10 9
f 10 18 12
f 10 12 11
f 12 18 27
f 12 27 19
f 13 20 21
f 13 21 22
f 13 22 14
f 15 23 16
f 16 23 24
f 16 24 25
f 16 25 17
f 17 25 26
f 19 27 28
f 19 28 29
f 20 29 21
f 21 29 28
f 21 28 27
f 21 27 30
f 21 30 22
f 22 30 31
f 25 31 26
f 26 31 32
f 27 32 31
f 27 31 30

