# https://github.com/mikedh/trimesh
v -0.48780676 0.27561431 -4.08551418
v -0.46818554 0.31576171 -4.18184676
v -0.46818554 0.31572308 -4.18191279
v -0.47298775 0.27769888 -4.18184676
v -0.47825079 0.23268744 -4.08551418
v -0.47335163 0.31958347 -4.08551418
v -0.34429802 0.38814290 -4.08551418
v -0.43022868 0.32780598 -4.18191279
v -0.47296352 0.27766024 -4.18191279
v -0.41662240 0.04202563 -4.18184676
v -0.43294502 0.04202563 -4.08551418
v -0.24003173 0.38814290 -4.08551418
v -0.32280938 0.38814290 -4.10449002
v -0.31696427 0.38814290 -4.10812290
v -0.25506903 0.38814290 -4.11049134
v -0.38754232 0.31915883 -4.18191279
v -0.41659816 0.04198709 -4.18191279
v -0.40646011 0.00770728 -4.18191279
v -0.42996184 0.03249065 -4.08551418
v -0.24311186 0.12757056 -4.08551418
v -0.25727599 0.15988153 -4.11165199
v -0.25152791 0.38814290 -4.10468820
v -0.35945658 0.21875161 -4.18191279
v -0.36656288 0.27769888 -4.18191279
v -0.39159264 0.00770728 -4.18191279
v -0.31240458 -0.00618991 -4.08551418
v -0.33544548 -0.00607409 -4.08551418
v -0.38419525 -0.00128733 -4.08551418
v -0.41853837 0.00577718 -4.08551418
v -0.24352421 0.10093426 -4.08551418
v -0.25814916 0.04202563 -4.11002904
v -0.36015992 0.15988153 -4.18191279
v -0.26641961 0.00180097 -4.10449950
v -0.37379044 0.04202563 -4.18191279
v -0.26319390 0.00014104 -4.08551418
v -0.24529477 0.04202563 -4.08551418
v -0.36270653 0.10093426 -4.18191279
f 1 2 3
f 1 3 4
f 1 4 5
f 1 5 11
f 1 11 19
f 1 19 29
f 1 29 28
f 1 28 27
f 1 27 26
f 1 26 35
f 1 35 36
f 1 36 30
f 1 30 20
f 1 20 12
f 1 12 7
f 1 7 6
f 1 6 2
f 2 6 7
f 2 7 8
f 2 8 3
f 3 9 4
f 3 8 16
f 3 16 24
f 3 24 23
f 3 23 32
f 3 32 37
f 3 37 34
f 3 34 25
f 3 25 18
f 3 18 17
f 3 17 9
f 4 9 17
f 4 17 10
f 4 10 11
f 4 11 5
f 7 12 22
f 7 22 15
f 7 15 14
f 7 14 13
f 7 13 8
f 8 13 14
f 8 14 15
f 8 15 16
f 10 17 18
f 10 18 11
f 11 18 19
f 12 20 21
f 12 21 22
f 15 23 24
f 15 24 16
f 15 22 21
f 15 21 23
f 18 25 26
f 18 26 27
f 18 27 28
f 18 28 29
f 18 29 19
f 20 30 31
f 20 31 21
f 21 31 32
f 21 32 23
f 25 33 26
f 25 34 33
f 26 33 35
f 30 36 31
f 31 36 33
f 31 33 34
f 31 34 37
f 31 37 32
f 33 36 35

