# https://github.com/mikedh/trimesh
v -2.56826027 0.65339699 -4.06393006
v -2.55538622 0.65339699 -4.10836744
v -2.56671898 0.65339699 -4.00509712
v -2.54985572 0.80807815 -4.06395666
v -2.54647107 0.66489220 -4.11935705
v -2.49981007 0.66489220 -4.16783901
v -2.48932343 0.66489220 -4.17707246
v -2.46031145 0.66489220 -4.18564059
v -2.29545680 0.65339699 -4.10836744
v -2.53438272 0.80807815 -4.11392876
v -2.54967448 0.65339699 -3.94796713
v -2.54293522 0.80807815 -4.00509712
v -2.52619287 0.90895363 -4.02340425
v -2.53800919 0.86696588 -4.06395666
v -2.52347301 0.90036247 -4.09572810
v -2.52821763 0.86696588 -4.10363099
v -2.51383249 0.80807815 -4.14335858
v -2.48439744 0.80807815 -4.16563046
v -2.43374733 0.80807815 -4.18282002
v -2.43371708 0.74910972 -4.18516160
v -2.43371708 0.68941530 -4.18564059
v -2.35009603 0.66489220 -4.18564059
v -2.25955444 0.65339699 -4.06281248
v -2.33698020 0.66489220 -4.18172901
v -2.32211154 0.66489220 -4.17531621
v -2.54713586 0.65339699 -3.94637056
v -2.49264771 0.80807815 -3.94176718
v -2.52422851 0.84518546 -3.97297980
v -2.53120951 0.86567519 -4.00427220
v -2.48058961 1.06544980 -4.01108417
v -2.49013938 1.06544980 -4.06462194
v -2.48140556 1.06544980 -4.08803805
v -2.47209756 1.06544980 -4.10073061
v -2.47487787 0.86696588 -4.15966997
v -2.43374733 0.86696588 -4.17116518
v -2.37484691 0.80807815 -4.17723210
v -2.37487712 0.68138882 -4.18564059
v -2.43235716 0.68937500 -4.18564059
v -2.25955444 0.65339699 -4.00964728
v -2.28460751 0.79246883 -4.09708517
v -2.28732736 0.83175422 -4.08551014
v -2.28237117 0.81049818 -4.06512745
v -2.28533280 0.84216043 -4.04626155
v -2.33583180 0.80807815 -4.16004254
v -2.30289111 0.81049818 -4.11919742
v -2.49261750 0.65339699 -3.92942050
v -2.45523434 0.74910972 -3.91781891
v -2.44616808 0.78508773 -3.91827125
v -2.43906617 0.81320056 -3.91864378
v -2.47892749 0.92589394 -3.96382622
v -2.49585116 0.86567519 -3.95720053
v -2.43114835 1.06544980 -3.98200032
v -2.44931104 1.06544980 -4.11052278
v -2.46686934 0.90318585 -4.15464085
v -2.43374733 1.06544980 -4.11629703
v -2.38977603 0.91222068 -4.15754124
v -2.37200615 0.86861957 -4.16371458
v -2.34090890 0.85014657 -4.15597132
v -2.25964510 0.65339699 -4.00738548
v -2.28533280 0.84216043 -4.03093466
v -2.32347151 0.86861957 -4.12723334
v -2.33084536 0.92589394 -4.11214600
v -2.35027736 1.06544980 -4.07736771
v -2.33549940 1.06544980 -4.05107782
v -2.33404877 1.06544980 -4.02345746
v -2.49140869 0.65339699 -3.92904797
v -2.42579926 0.74910972 -3.91380090
v -2.42368379 0.78508773 -3.91414682
v -2.43099723 0.78508773 -3.91515797
v -2.42295850 0.79694594 -3.91427985
v -2.43374733 0.86696588 -3.92915439
v -2.40854314 1.06544980 -3.98647067
v -2.39591082 0.79694594 -3.91427985
v -2.37484691 0.86696588 -3.93543420
v -2.40364737 1.02717276 -3.97532138
v -2.40014176 1.06544980 -4.11190646
v -2.37726457 1.06544980 -4.10860690
v -2.35045868 0.88939161 -4.14977137
v -2.31567451 0.65339699 -3.94589161
v -2.29346220 0.80807815 -3.99352209
v -2.32292754 0.80807815 -3.95422028
v -2.36031069 1.06544980 -4.00006796
v -2.33812859 0.91411638 -3.96869570
v -2.32993874 0.86696588 -3.96089918
v -2.43371708 0.65339699 -3.92476391
v -2.41425488 0.71522910 -3.91529100
v -2.39467176 0.74910972 -3.91380090
v -2.39560863 0.78508773 -3.91414682
v -2.37874541 1.06544980 -3.99448003
v -2.37572332 0.81320056 -3.92322055
v -2.36520647 0.74910972 -3.92343344
v -2.37109953 0.78508773 -3.92330041
v -2.33942811 0.78508773 -3.94219292
v -2.37487712 0.65339699 -3.92657332
v -2.39983953 0.71522910 -3.91529100
f 1 2 9
f 1 9 23
f 1 23 39
f 1 39 59
f 1 59 79
f 1 79 94
f 1 94 85
f 1 85 66
f 1 66 46
f 1 46 26
f 1 26 11
f 1 11 3
f 1 3 4
f 1 4 2
f 2 5 6
f 2 6 7
f 2 7 8
f 2 8 22
f 2 22 9
f 2 4 10
f 2 10 5
f 3 11 12
f 3 12 4
f 4 12 13
f 4 13 14
f 4 14 15
f 4 15 16
f 4 16 10
f 5 10 17
f 5 17 6
f 6 17 7
f 7 17 18
f 7 18 19
f 7 19 8
f 8 20 21
f 8 21 38
f 8 38 37
f 8 37 22
f 8 19 20
f 9 22 24
f 9 24 25
f 9 25 23
f 10 16 17
f 11 26 27
f 11 27 28
f 11 28 12
f 12 28 29
f 12 29 13
f 13 29 30
f 13 30 31
f 13 31 14
f 14 31 15
f 15 31 32
f 15 32 16
f 16 32 33
f 16 33 17
f 17 33 34
f 17 34 18
f 18 34 19
f 19 34 35
f 19 35 36
f 19 36 22
f 19 22 20
f 20 22 37
f 20 37 38
f 20 38 21
f 22 36 24
f 23 25 40
f 23 40 41
f 23 41 42
f 23 42 43
f 23 43 60
f 23 60 39
f 24 36 25
f 25 36 44
f 25 44 45
f 25 45 40
f 26 46 47
f 26 47 48
f 26 48 49
f 26 49 27
f 27 49 50
f 27 50 51
f 27 51 28
f 28 51 30
f 28 30 29
f 30 51 50
f 30 50 52
f 30 52 72
f 30 72 89
f 30 89 82
f 30 82 65
f 30 65 64
f 30 64 63
f 30 63 77
f 30 77 76
f 30 76 55
f 30 55 53
f 30 53 33
f 30 33 32
f 30 32 31
f 33 53 54
f 33 54 34
f 34 54 35
f 35 54 55
f 35 55 56
f 35 56 36
f 36 56 57
f 36 57 58
f 36 58 44
f 39 60 59
f 40 45 41
f 41 43 42
f 41 45 61
f 41 61 62
f 41 62 63
f 41 63 64
f 41 64 43
f 43 64 65
f 43 65 60
f 44 58 45
f 45 58 61
f 46 66 47
f 47 66 67
f 47 67 68
f 47 68 69
f 47 69 48
f 48 69 70
f 48 70 49
f 49 70 71
f 49 71 50
f 50 71 52
f 52 71 73
f 52 73 74
f 52 74 75
f 52 75 72
f 53 55 54
f 55 76 56
f 56 76 77
f 56 77 57
f 57 77 78
f 57 78 58
f 58 78 77
f 58 77 63
f 58 63 61
f 59 60 80
f 59 80 81
f 59 81 79
f 60 65 80
f 61 63 62
f 65 82 83
f 65 83 84
f 65 84 80
f 66 85 86
f 66 86 67
f 67 86 95
f 67 95 87
f 67 87 88
f 67 88 68
f 68 88 73
f 68 73 70
f 68 70 69
f 70 73 71
f 72 75 89
f 73 90 74
f 73 88 91
f 73 91 92
f 73 92 90
f 74 84 83
f 74 83 82
f 74 82 89
f 74 89 75
f 74 90 84
f 79 93 91
f 79 91 87
f 79 87 94
f 79 81 93
f 80 84 81
f 81 84 90
f 81 90 92
f 81 92 93
f 85 94 95
f 85 95 86
f 87 95 94
f 87 91 88
f 91 93 92

