# https://github.com/mikedh/trimesh
v -3.69274706 1.98564311 -4.02946963
v -3.69274706 1.98564311 -4.14255637
v -3.72009960 1.98564311 -4.03128734
v -3.69274706 0.04201000 -4.02946963
v -3.69604513 1.98564311 -4.24076399
v -3.69274706 0.10110435 -4.14255637
v -3.72047840 1.98564311 -4.03144316
v -3.72009960 0.04201000 -4.03128734
v -3.71362991 0.00804552 -4.03237796
v -3.69274706 0.02473325 -4.03024862
v -3.70011503 1.98564311 -4.27093781
v -3.69604513 0.04201000 -4.24076399
v -3.69274706 0.08264965 -4.14211496
v -3.74957113 1.98564311 -4.04346592
v -3.74957113 0.04201000 -4.04346592
v -3.76239829 0.00726025 -4.07976794
v -3.73202849 0.00176303 -4.06166887
v -3.69274706 0.00686758 -4.03185862
v -3.72976902 1.98564311 -4.28508982
v -3.70011503 0.04201000 -4.27083393
v -3.69274706 0.04201000 -4.14099839
v -3.69274706 0.02434066 -4.13183194
v -3.69274706 0.00313732 -4.11536882
v -3.69837485 0.00765284 -4.24076399
v -3.70031154 0.01177569 -4.27062618
v -3.82795135 1.98564311 -4.19602266
v -3.82795135 0.04201000 -4.19602266
v -3.82480765 0.00195937 -4.20111218
v -3.78925946 -0.00628633 -4.18161091
v -3.78906295 -0.01963657 -4.24076399
v -3.69274706 0.00431535 -4.04206367
v -3.73016205 1.98564311 -4.28524568
v -3.73016205 0.04201000 -4.28210365
v -3.69274706 0.00058509 -4.09555591
v -3.73016205 -0.00962391 -4.24076399
v -3.73016205 0.00313732 -4.27618310
v -3.83610520 1.98564311 -4.24076399
v -3.83610520 0.04201000 -4.24076399
v -3.82731984 -0.00235982 -4.24076399
v -3.82397962 0.00313732 -4.27597544
v -3.78906295 -0.00334142 -4.28018206
v -3.69274706 0.00195937 -4.06595346
v -3.78831921 1.98564311 -4.29464579
v -3.78906295 0.04201000 -4.29015345
v -3.83599281 1.98564311 -4.24125739
v -3.82670237 0.04201000 -4.27885774
v -3.82670237 1.98564311 -4.28044179
v -3.78906295 1.98564311 -4.29472368
f 1 2 5
f 1 5 11
f 1 11 19
f 1 19 32
f 1 32 43
f 1 43 48
f 1 48 47
f 1 47 45
f 1 45 37
f 1 37 26
f 1 26 14
f 1 14 7
f 1 7 3
f 1 3 8
f 1 8 4
f 1 4 10
f 1 10 18
f 1 18 31
f 1 31 42
f 1 42 34
f 1 34 23
f 1 23 22
f 1 22 21
f 1 21 13
f 1 13 6
f 1 6 2
f 2 6 12
f 2 12 5
f 3 7 8
f 4 8 9
f 4 9 10
f 5 12 11
f 6 13 12
f 7 14 15
f 7 15 8
f 8 15 9
f 9 16 17
f 9 17 18
f 9 18 10
f 9 15 16
f 11 12 20
f 11 20 19
f 12 13 21
f 12 21 22
f 12 22 23
f 12 23 24
f 12 24 25
f 12 25 20
f 14 26 27
f 14 27 15
f 15 27 28
f 15 28 16
f 16 28 29
f 16 29 30
f 16 30 17
f 17 30 31
f 17 31 18
f 19 20 32
f 20 25 33
f 20 33 32
f 23 34 24
f 24 34 35
f 24 35 25
f 25 35 36
f 25 36 33
f 26 37 38
f 26 38 27
f 27 38 28
f 28 39 30
f 28 30 29
f 28 38 39
f 30 39 40
f 30 40 41
f 30 41 36
f 30 36 35
f 30 35 34
f 30 34 42
f 30 42 31
f 32 33 43
f 33 36 44
f 33 44 43
f 36 41 44
f 37 45 38
f 38 46 40
f 38 40 39
f 38 45 47
f 38 47 46
f 40 46 44
f 40 44 41
f 43 44 48
f 44 46 48
f 46 47 48

