# https://github.com/mikedh/trimesh
v -2.93192570 1.45199361 -3.79618758
v -2.43381626 1.45199361 -3.82568597
v -2.93192570 1.45199361 -3.62139715
v -2.93192570 2.39905599 -3.79618758
v -2.37488089 1.45199361 -3.82478598
v -2.93192570 2.45795320 -3.79478765
v -2.25701020 2.45795320 -3.79478765
v -2.90516692 1.45199361 -3.62139715
v -2.93192570 2.45795320 -3.62139715
v -2.31587950 1.45199361 -3.81552650
v -2.25701020 2.39905599 -3.79618758
v -2.93192570 2.47898041 -3.78196834
v -2.25701020 2.50408753 -3.76662921
v -2.25701020 1.45199361 -3.62229710
v -2.25701020 1.86877221 -3.62139715
v -2.25701020 2.45795320 -3.62139715
v -2.93192570 2.48818638 -3.62171712
v -2.26064409 1.45199361 -3.80120730
v -2.25701020 1.45199361 -3.80012735
v -2.93192570 2.50408753 -3.76662921
v -2.84623159 2.52051184 -3.71045229
v -2.25701020 2.51977952 -3.71045229
v -2.25701020 2.48818638 -3.62171712
v -2.90516692 2.50471527 -3.65151549
v -2.93192570 2.49718310 -3.63795625
v -2.93192570 2.52019801 -3.71045229
v -2.90516692 2.52051184 -3.71045229
v -2.84623159 2.50471527 -3.65151549
v -2.25701020 2.50387837 -3.65151549
v -2.93192570 2.50429686 -3.65151549
v -2.93192570 2.51297967 -3.68361373
f 1 2 5
f 1 5 10
f 1 10 18
f 1 18 19
f 1 19 14
f 1 14 8
f 1 8 3
f 1 3 9
f 1 9 17
f 1 17 25
f 1 25 30
f 1 30 31
f 1 31 26
f 1 26 20
f 1 20 12
f 1 12 6
f 1 6 4
f 1 4 2
f 2 4 6
f 2 6 7
f 2 7 5
f 3 8 15
f 3 15 16
f 3 16 9
f 5 7 11
f 5 11 10
f 6 12 7
f 7 12 13
f 7 13 22
f 7 22 29
f 7 29 23
f 7 23 16
f 7 16 15
f 7 15 14
f 7 14 19
f 7 19 11
f 8 14 15
f 9 16 23
f 9 23 17
f 10 11 18
f 11 19 18
f 12 20 13
f 13 20 27
f 13 27 21
f 13 21 22
f 17 23 28
f 17 28 24
f 17 24 25
f 20 26 27
f 21 27 24
f 21 24 28
f 21 28 22
f 22 28 29
f 23 29 28
f 24 30 25
f 24 27 26
f 24 26 31
f 24 31 30

