# https://github.com/mikedh/trimesh
v -3.83716031 2.10444821 -4.94723887
v -3.82816385 2.04992366 -4.94723887
v -3.83716031 2.10444821 -4.88894595
v -3.82772815 2.14491883 -4.94723887
v -3.82794609 2.06180663 -4.88894595
v -3.82755394 2.04715859 -4.94723887
v -3.82772815 2.14491883 -4.88894595
v -3.77422919 2.22229524 -4.94723887
v -3.79875678 2.01740537 -4.94723887
v -3.78906347 2.01093832 -4.94723887
v -3.78906347 2.04434777 -4.88894595
v -3.77422919 2.22227241 -4.88894595
v -3.77422919 2.22229524 -4.88897440
v -3.70373957 2.22229524 -4.94723887
v -3.73014044 1.99437070 -4.94723887
v -3.67132647 1.98886339 -4.94723887
v -3.73014044 2.05097481 -4.88894595
v -3.70927235 2.22227241 -4.88894595
v -3.70927235 2.22229524 -4.88899723
v -3.61464729 2.04562748 -4.94723887
v -3.69474311 2.06843368 -4.88894595
v -3.69652930 2.15773871 -4.88894595
v -3.69058259 2.10444821 -4.88894595
f 1 2 3
f 1 3 7
f 1 7 4
f 1 4 8
f 1 8 14
f 1 14 20
f 1 20 16
f 1 16 15
f 1 15 10
f 1 10 9
f 1 9 6
f 1 6 2
f 2 5 3
f 2 6 5
f 3 5 11
f 3 11 17
f 3 17 21
f 3 21 23
f 3 23 22
f 3 22 18
f 3 18 12
f 3 12 7
f 4 7 13
f 4 13 8
f 5 6 9
f 5 9 10
f 5 10 11
f 7 12 13
f 8 13 19
f 8 19 14
f 10 15 11
f 11 15 16
f 11 16 17
f 12 18 13
f 13 18 19
f 14 19 20
f 16 20 21
f 16 21 17
f 18 22 20
f 18 20 19
f 20 23 21
f 20 22 23

