# https://github.com/mikedh/trimesh
v 0.17442518 -0.00702541 -5.95648556
v 0.16198367 0.03633366 -5.95648556
v 0.20494584 -0.00702541 -5.95648556
v 0.17442518 -0.00702541 -5.41847156
v 0.17422234 -0.00634700 -5.41847156
v 0.16035325 0.04202010 -5.95648556
v 0.16035325 0.04202010 -5.41847156
v 0.20685162 -0.00137127 -5.95648556
v 0.20494584 -0.00702541 -5.41847156
v 0.16035325 0.32301430 -5.95648556
v 0.16035325 0.32301430 -5.41847156
v 0.22140176 0.04202010 -5.95648556
v 0.22140176 0.04202010 -5.41847156
v 0.23437223 0.32301430 -5.95648556
v 0.23437223 0.32301430 -5.41847156
f 1 2 6
f 1 6 10
f 1 10 14
f 1 14 12
f 1 12 8
f 1 8 3
f 1 3 9
f 1 9 4
f 1 4 5
f 1 5 2
f 2 5 7
f 2 7 6
f 3 8 9
f 4 9 13
f 4 13 15
f 4 15 11
f 4 11 7
f 4 7 5
f 6 7 11
f 6 11 10
f 8 12 13
f 8 13 9
f 10 11 15
f 10 15 14
f 12 14 15
f 12 15 13

