# https://github.com/mikedh/trimesh
v -0.38125931 2.14614788 -1.11804552
v -0.38125931 2.14614788 -1.49970580
v -0.38251812 2.14614788 -1.11804552
v -0.38125931 0.10103955 -1.11804552
v -0.43547407 2.14614788 -1.49970580
v -0.38125931 0.10103955 -1.49970580
v -0.43550594 2.14614788 -1.13489447
v -0.43551657 2.14573755 -1.11804552
v -0.39102189 0.04994776 -1.11804552
v -0.43547407 0.10103955 -1.49970580
v -0.39102189 0.04994776 -1.49970580
v -0.43551657 0.15951809 -1.11804552
v -0.41813726 0.04994776 -1.11804552
v -0.41812663 0.04994776 -1.49970580
v -0.43539443 0.10062913 -1.11804552
v -0.43551130 0.10103955 -1.11804552
f 1 2 5
f 1 5 7
f 1 7 3
f 1 3 8
f 1 8 12
f 1 12 16
f 1 16 15
f 1 15 13
f 1 13 9
f 1 9 4
f 1 4 6
f 1 6 2
f 2 6 11
f 2 11 14
f 2 14 10
f 2 10 5
f 3 7 8
f 4 9 11
f 4 11 6
f 5 8 7
f 5 10 12
f 5 12 8
f 9 13 14
f 9 14 11
f 10 14 15
f 10 15 16
f 10 16 12
f 13 15 14

