# https://github.com/mikedh/trimesh
v -3.71005085 0.68891550 -0.75362969
v -3.65565872 0.57688290 -0.75362969
v -3.71005085 0.67690385 -0.86082007
v -3.71005085 0.39607688 -0.75362969
v -3.65565872 0.57086269 -0.76395626
v -3.71005085 0.66431881 -0.91500129
v -3.65565872 0.51352767 -0.75362969
v -3.71005085 0.42351170 -0.88036947
v -3.71005085 0.61013719 -0.92712846
v -3.65565872 0.51742648 -0.76395626
v -3.71005085 0.45604930 -0.91291217
v -3.71005085 0.57232474 -0.92712846
v -3.71005085 0.51344171 -0.92505636
f 1 2 3
f 1 3 6
f 1 6 9
f 1 9 12
f 1 12 13
f 1 13 11
f 1 11 8
f 1 8 4
f 1 4 7
f 1 7 2
f 2 5 6
f 2 6 3
f 2 7 10
f 2 10 5
f 4 8 7
f 5 9 6
f 5 10 12
f 5 12 9
f 7 8 10
f 8 11 10
f 10 11 13
f 10 13 12

