# https://github.com/mikedh/trimesh
v 0.05576356 0.05244230 -6.24244407
v 0.05576356 0.05244230 -6.23536833
v 0.05576356 0.10083232 -6.26209779
v 0.18242976 0.00479285 -6.27775518
v 0.17286202 -0.00286067 -6.24428787
v 0.17026466 -0.00705781 -6.18536536
v 0.05576356 0.05367670 -6.20599409
v 0.17051123 -0.00705781 -6.18180334
v 0.17299356 0.10107923 -6.27976282
v 0.17621559 0.04207296 -6.27976282
v 0.05576356 2.46231717 -6.27951204
v 0.19471006 0.00479285 -6.27775518
v 0.20138452 -0.00286067 -6.24428787
v 0.20493547 -0.00705781 -6.18536536
v 0.05576356 0.06552736 -6.20328153
v 0.20493547 -0.00705781 -6.18180334
v 0.14555602 0.04034473 -6.18180334
v 0.05576356 0.10107923 -6.19695883
v 0.15870755 2.45836696 -6.28040979
v 0.19781723 0.04207296 -6.27976282
v 0.05576356 2.49737531 -6.27864310
v 0.21473344 0.04207296 -6.24428787
v 0.22185169 0.04207296 -6.18536536
v 0.22081608 0.03911032 -6.18180334
v 0.12495732 0.10107923 -6.18180334
v 0.05576356 0.11564562 -6.19677531
v 0.15901997 2.49811597 -6.27905825
v 0.19781723 2.45787312 -6.27976282
v 0.21517722 0.10107923 -6.24428787
v 0.05576356 2.50823830 -6.25272463
v 0.15901997 2.51515125 -6.24428787
v 0.22224629 0.09737593 -6.18180334
v 0.22181885 0.04207296 -6.18180334
v 0.22229547 0.10107923 -6.18536536
v 0.12408609 0.13317464 -6.18180334
v 0.12337923 0.16008551 -6.18180334
v 0.12336272 1.95866538 -6.18180334
v 0.05576356 2.39886694 -6.19677531
v 0.19471006 2.49515324 -6.27775518
v 0.21473344 2.45787312 -6.24428787
v 0.21517722 2.39886694 -6.24428787
v 0.22370935 1.03876028 -6.18180334
v 0.22369284 0.45462304 -6.18180334
v 0.05576356 2.51169477 -6.24428787
v 0.16017078 2.50873213 -6.18180334
v 0.20493547 2.50700389 -6.18180334
v 0.20493547 2.50700389 -6.18536536
v 0.20138452 2.50305367 -6.24428787
v 0.12336272 2.13543732 -6.18180334
v 0.12337923 2.39886694 -6.18180334
v 0.05576356 2.45787312 -6.19705524
v 0.22185169 2.45787312 -6.18536536
v 0.22229547 2.39886694 -6.18536536
v 0.22370935 2.04038534 -6.18180334
v 0.05576356 2.50181927 -6.20608102
v 0.12569719 2.45787312 -6.18180334
v 0.22181885 2.45787312 -6.18180334
v 0.12467791 2.43194992 -6.18180334
v 0.22352847 2.09939161 -6.18180334
v 0.22224629 2.39886694 -6.18180334
f 1 2 7
f 1 7 15
f 1 15 18
f 1 18 26
f 1 26 38
f 1 38 51
f 1 51 55
f 1 55 44
f 1 44 30
f 1 30 21
f 1 21 11
f 1 11 3
f 1 3 4
f 1 4 5
f 1 5 6
f 1 6 2
f 2 6 8
f 2 8 7
f 3 9 10
f 3 10 4
f 3 11 9
f 4 10 20
f 4 20 12
f 4 12 13
f 4 13 5
f 5 13 14
f 5 14 6
f 6 14 16
f 6 16 8
f 7 8 15
f 8 16 24
f 8 24 33
f 8 33 32
f 8 32 43
f 8 43 42
f 8 42 54
f 8 54 59
f 8 59 60
f 8 60 57
f 8 57 46
f 8 46 45
f 8 45 56
f 8 56 58
f 8 58 50
f 8 50 49
f 8 49 37
f 8 37 36
f 8 36 35
f 8 35 25
f 8 25 17
f 8 17 18
f 8 18 15
f 9 11 19
f 9 19 10
f 10 19 20
f 11 21 19
f 12 20 22
f 12 22 13
f 13 22 23
f 13 23 14
f 14 23 16
f 16 23 24
f 17 25 18
f 18 25 26
f 19 21 27
f 19 27 28
f 19 28 20
f 20 29 22
f 20 28 41
f 20 41 29
f 21 30 31
f 21 31 27
f 22 29 34
f 22 34 23
f 23 32 33
f 23 33 24
f 23 34 32
f 25 35 26
f 26 35 36
f 26 36 37
f 26 37 49
f 26 49 38
f 27 31 39
f 27 39 28
f 28 39 40
f 28 40 41
f 29 42 43
f 29 43 34
f 29 41 54
f 29 54 42
f 30 44 31
f 31 44 45
f 31 45 46
f 31 46 47
f 31 47 48
f 31 48 39
f 32 34 43
f 38 49 50
f 38 50 51
f 39 48 40
f 40 48 52
f 40 52 53
f 40 53 41
f 41 53 54
f 44 55 45
f 45 55 51
f 45 51 56
f 46 57 52
f 46 52 47
f 47 52 48
f 50 58 51
f 51 58 56
f 52 57 53
f 53 59 54
f 53 57 60
f 53 60 59

