# https://github.com/mikedh/trimesh
v -1.64630031 0.32711116 -5.65503385
v -0.54831911 0.32707990 -5.65503385
v -0.60723459 0.31985734 -5.69903181
v -1.78554377 0.32711116 -5.65503385
v -1.81277360 0.32129564 -5.63346610
v -0.54831911 0.31432324 -5.61818892
v -0.54831911 0.31985734 -5.69900740
v -0.60723459 0.27767903 -5.72172895
v -1.64630031 0.30463064 -5.70724115
v -1.78554377 0.31985734 -5.69903181
v -1.81277360 0.32298401 -5.67870268
v -1.81277360 0.32682973 -5.65503385
v -1.81277360 0.31444828 -5.61382907
v -0.54831911 0.27755399 -5.61294256
v -1.81277360 0.29984686 -5.60492745
v -0.54831911 0.27767903 -5.72160760
v -0.54831911 0.21874195 -5.72652590
v -1.78554377 0.27767903 -5.72172895
v -1.81277360 0.29684532 -5.71086007
v -1.81277360 0.31951340 -5.69864317
v -0.54831911 0.24200413 -5.62038693
v -1.81277360 0.27880464 -5.60248656
v -0.54831911 0.10096148 -5.72314986
v -1.81277360 0.21877321 -5.72591862
v -1.81277360 0.27767903 -5.72104896
v -0.54831911 0.04189937 -5.66697153
v -1.81277360 0.04202440 -5.65850701
v -0.54831911 0.04202440 -5.71249945
v -1.81277360 0.06925744 -5.71733275
v -1.81277360 0.10093022 -5.72222682
v -0.54831911 0.00853812 -5.67906690
v -1.81277360 0.00769394 -5.67073621
v -0.54831911 0.00866316 -5.69334835
v -0.60723459 0.00847560 -5.69346970
v -1.81277360 0.00785023 -5.69368834
v -1.81277360 0.02398372 -5.70275996
v -1.81277360 0.04202440 -5.71240233
v -0.60723459 0.00847560 -5.67989265
f 1 2 3
f 1 3 10
f 1 10 4
f 1 4 5
f 1 5 2
f 2 6 14
f 2 14 21
f 2 21 26
f 2 26 31
f 2 31 33
f 2 33 28
f 2 28 23
f 2 23 17
f 2 17 16
f 2 16 7
f 2 7 3
f 2 5 6
f 3 7 8
f 3 8 9
f 3 9 10
f 4 10 11
f 4 11 12
f 4 12 5
f 5 12 11
f 5 11 20
f 5 20 19
f 5 19 25
f 5 25 24
f 5 24 30
f 5 30 29
f 5 29 37
f 5 37 36
f 5 36 35
f 5 35 32
f 5 32 27
f 5 27 22
f 5 22 15
f 5 15 13
f 5 13 6
f 6 13 15
f 6 15 14
f 7 16 8
f 8 16 17
f 8 17 18
f 8 18 9
f 9 18 10
f 10 18 19
f 10 19 20
f 10 20 11
f 14 15 22
f 14 22 21
f 17 23 24
f 17 24 18
f 18 24 25
f 18 25 19
f 21 22 26
f 22 27 26
f 23 28 29
f 23 29 30
f 23 30 24
f 26 27 32
f 26 32 31
f 28 33 34
f 28 34 35
f 28 35 36
f 28 36 37
f 28 37 29
f 31 38 34
f 31 34 33
f 31 32 38
f 32 35 34
f 32 34 38

