# https://github.com/mikedh/trimesh
v 0.22060341 1.80872782 -1.88368947
v 0.22172050 1.80872782 -1.88371107
v 0.16033340 1.80872782 -1.88371107
v 0.16033340 1.75087789 -1.88368947
v 0.22172050 1.75075690 -1.88368947
v 0.31451792 1.80872782 -1.96345057
v 0.16033340 1.80872782 -1.88479014
v 0.16033340 0.57245816 -1.88368947
v 0.22172050 0.63127626 -1.88368947
v 0.31451792 1.80872782 -1.98565677
v 0.31451792 0.57233712 -1.96345057
v 0.16036361 1.80872782 -2.00153992
v 0.16036361 0.57233712 -2.00153992
v 0.16033340 0.57233712 -1.88371107
v 0.18380448 0.57233712 -1.88368947
v 0.22172050 0.57233712 -1.88371107
v 0.31451792 1.75087789 -1.98574309
v 0.28715256 1.69193875 -2.06047595
v 0.28710725 1.75087789 -2.06047595
v 0.28688088 1.80872782 -2.06047595
v 0.31451792 0.57233712 -1.98574309
v 0.17443115 1.80872782 -2.04776504
v 0.17443115 0.57245816 -2.04780824
v 0.17443115 0.57233712 -2.04780824
v 0.28719787 0.57245816 -2.06047595
v 0.26863227 0.57245816 -2.10413303
v 0.26757577 1.80872782 -2.10253607
v 0.28718277 0.57233712 -2.06049746
v 0.20224925 1.80872782 -2.07722225
v 0.20215863 0.57245816 -2.07726545
v 0.20215863 0.57233712 -2.07726545
v 0.26863227 0.57233712 -2.10413303
v 0.26722858 0.60985484 -2.10413303
v 0.26721347 1.80872782 -2.10331290
v 0.23171252 1.80872782 -2.10331290
v 0.22845239 0.57875145 -2.10413303
v 0.22843729 0.57245816 -2.10413303
v 0.22843729 0.57233712 -2.10413303
v 0.23168249 0.60985484 -2.10413303
f 1 2 6
f 1 6 10
f 1 10 20
f 1 20 27
f 1 27 34
f 1 34 35
f 1 35 29
f 1 29 22
f 1 22 12
f 1 12 7
f 1 7 3
f 1 3 4
f 1 4 8
f 1 8 15
f 1 15 9
f 1 9 5
f 1 5 2
f 2 5 6
f 3 7 14
f 3 14 8
f 3 8 4
f 5 9 11
f 5 11 6
f 6 11 21
f 6 21 17
f 6 17 10
f 7 12 13
f 7 13 14
f 8 14 15
f 9 15 16
f 9 16 11
f 10 17 18
f 10 18 19
f 10 19 20
f 11 16 15
f 11 15 14
f 11 14 13
f 11 13 24
f 11 24 31
f 11 31 38
f 11 38 32
f 11 32 28
f 11 28 21
f 12 22 23
f 12 23 24
f 12 24 13
f 17 21 25
f 17 25 18
f 18 25 26
f 18 26 19
f 19 27 20
f 19 26 27
f 21 28 25
f 22 29 30
f 22 30 23
f 23 30 31
f 23 31 24
f 25 28 32
f 25 32 26
f 26 32 38
f 26 38 37
f 26 37 36
f 26 36 39
f 26 39 33
f 26 33 34
f 26 34 27
f 29 35 36
f 29 36 37
f 29 37 30
f 30 37 38
f 30 38 31
f 33 39 35
f 33 35 34
f 35 39 36

