# https://github.com/mikedh/trimesh
v -3.60435672 2.21605174 -3.36671744
v -3.44651095 2.21605174 -3.36671744
v -3.60435672 2.21605174 -3.33957192
v -3.60435672 2.49666283 -3.36671744
v -3.44833437 2.21605174 -3.36037874
v -3.44654186 2.45798218 -3.36671744
v -3.50556991 2.21605174 -3.33328950
v -3.49444411 2.39907250 -3.33341528
v -3.60435672 2.45798218 -3.34113426
v -3.60435672 2.49666283 -3.36385427
v -3.49449047 2.50425225 -3.36671744
v -3.44887527 2.21605174 -3.35852513
v -3.44867437 2.45798218 -3.35932947
v -3.45314010 2.49319266 -3.36671744
v -3.49444411 2.21605174 -3.33290553
v -3.49444411 2.45798218 -3.33406073
v -3.49444411 2.50368800 -3.36051776
v -3.48931401 2.50411123 -3.36671744
v -3.45601424 2.49886348 -3.36671744
v -3.46244231 2.50145917 -3.36671744
f 1 2 5
f 1 5 12
f 1 12 15
f 1 15 7
f 1 7 3
f 1 3 9
f 1 9 10
f 1 10 4
f 1 4 11
f 1 11 18
f 1 18 20
f 1 20 19
f 1 19 14
f 1 14 6
f 1 6 2
f 2 6 5
f 3 7 8
f 3 8 9
f 4 10 11
f 5 6 13
f 5 13 12
f 6 14 13
f 7 15 8
f 8 13 16
f 8 16 9
f 8 15 12
f 8 12 13
f 9 16 17
f 9 17 10
f 10 17 11
f 11 17 18
f 13 14 19
f 13 19 16
f 16 19 17
f 17 19 20
f 17 20 18

