# https://github.com/mikedh/trimesh
v 0.23474172 0.57231280 -1.92513809
v 0.31451775 0.57231280 -1.96344741
v 0.23474172 0.57231280 -2.10415445
v 0.23474172 0.51338880 -1.92513809
v 0.31451775 0.57231280 -1.98573905
v 0.31451775 0.45446472 -1.96344741
v 0.26864369 0.57231280 -2.10415445
v 0.23474172 0.32338432 -2.10415445
v 0.23474172 0.45446472 -1.92569892
v 0.28719172 0.57231280 -2.06050009
v 0.31451775 0.51338880 -1.98577408
v 0.31425239 0.45146739 -2.00114338
v 0.31005851 0.43406797 -2.10415445
v 0.23474172 0.39556504 -1.93013270
v 0.31179219 0.41045447 -1.96633901
v 0.31214377 0.40545890 -2.00156398
v 0.27160352 0.35260270 -2.10415445
v 0.27159579 0.35260270 -2.06046506
v 0.23474172 0.32340873 -2.06046506
v 0.31005851 0.40711592 -2.10415445
v 0.23474172 0.34236771 -1.94583497
v 0.23474172 0.34119802 -1.94718440
v 0.29836740 0.37599686 -2.00156398
v 0.30105397 0.37792196 -2.06046506
v 0.30106170 0.37765397 -2.10415445
v 0.29343171 0.37109866 -2.10415445
v 0.23474172 0.32574812 -2.00156398
f 1 2 5
f 1 5 10
f 1 10 7
f 1 7 3
f 1 3 8
f 1 8 19
f 1 19 27
f 1 27 22
f 1 22 21
f 1 21 14
f 1 14 9
f 1 9 4
f 1 4 6
f 1 6 2
f 2 6 11
f 2 11 5
f 3 7 13
f 3 13 20
f 3 20 25
f 3 25 26
f 3 26 17
f 3 17 8
f 4 9 6
f 5 11 12
f 5 12 13
f 5 13 10
f 6 14 15
f 6 15 16
f 6 16 12
f 6 12 11
f 6 9 14
f 7 10 13
f 8 17 18
f 8 18 19
f 12 16 20
f 12 20 13
f 14 21 15
f 15 21 22
f 15 22 23
f 15 23 16
f 16 23 24
f 16 24 25
f 16 25 20
f 17 26 18
f 18 26 25
f 18 25 24
f 18 24 23
f 18 23 19
f 19 23 27
f 22 27 23

