# https://github.com/mikedh/trimesh
v -0.63838272 0.64591812 -0.51330411
v -0.63130180 0.64563678 -0.51330411
v -0.63130180 0.64300548 -0.51764077
v -0.96054219 0.58579475 -0.58738983
v -0.96054219 0.63534318 -0.51330411
v -0.63130180 0.49035527 -0.51330411
v -0.63130180 0.58958454 -0.58738983
v -0.96197478 0.58533139 -0.58738983
v -1.01084511 0.62077983 -0.51330411
v -0.63130180 0.51660236 -0.58738983
v -0.95591717 0.47686761 -0.51330411
v -1.02062736 0.56606807 -0.58738983
v -1.04940112 0.57639477 -0.51330411
v -0.96054219 0.51536119 -0.58738983
v -0.96856451 0.47723175 -0.51330411
v -1.02062736 0.53023894 -0.58738983
v -1.04313887 0.52351996 -0.51330411
v -1.02050460 0.52643259 -0.58738983
v -1.00928977 0.48209719 -0.51330411
v -1.01673905 0.52552242 -0.58738983
v -1.03176032 0.50341258 -0.51330411
f 1 2 3
f 1 3 4
f 1 4 5
f 1 5 9
f 1 9 13
f 1 13 17
f 1 17 21
f 1 21 19
f 1 19 15
f 1 15 11
f 1 11 6
f 1 6 2
f 2 6 10
f 2 10 7
f 2 7 3
f 3 7 4
f 4 8 9
f 4 9 5
f 4 7 10
f 4 10 14
f 4 14 20
f 4 20 18
f 4 18 16
f 4 16 12
f 4 12 8
f 6 11 10
f 8 12 9
f 9 12 13
f 10 11 14
f 11 15 14
f 12 16 13
f 13 16 18
f 13 18 17
f 14 15 19
f 14 19 20
f 17 18 21
f 18 20 19
f 18 19 21

