# https://github.com/mikedh/trimesh
v -1.12644794 0.05692428 -6.28246626
v -1.12644794 0.05692428 -6.24991688
v -1.12644794 0.09299106 -6.29249182
v -0.73961077 0.05692428 -6.28246626
v -0.73961077 0.05692428 -6.24991688
v -1.12644794 0.10103006 -6.23058121
v -1.12644794 0.10103006 -6.29463223
v -0.73961077 0.10103006 -6.29420267
v -0.73961077 0.08994931 -6.23603971
v -0.73961077 0.10103006 -6.23145947
v -1.12644794 2.27655312 -6.23610469
v -1.12644794 0.14904672 -6.29687660
v -0.73961077 0.15991024 -6.29609616
v -0.73961077 2.27655312 -6.23791336
v -1.12644794 2.27655312 -6.29599185
v -1.12644794 0.15991024 -6.29704590
v -0.73961077 2.27655312 -6.29496414
f 1 2 6
f 1 6 11
f 1 11 15
f 1 15 16
f 1 16 12
f 1 12 7
f 1 7 3
f 1 3 4
f 1 4 5
f 1 5 2
f 2 5 6
f 3 7 4
f 4 7 8
f 4 8 13
f 4 13 17
f 4 17 14
f 4 14 10
f 4 10 9
f 4 9 5
f 5 9 6
f 6 9 10
f 6 10 11
f 7 12 8
f 8 12 13
f 10 14 11
f 11 14 17
f 11 17 15
f 12 16 13
f 13 16 15
f 13 15 17

