# https://github.com/mikedh/trimesh
v -3.83716031 2.10441195 -3.29794459
v -3.82784001 2.10441195 -3.34340975
v -3.82793116 2.04553844 -3.34355117
v -3.82793116 1.92631239 -3.34355117
v -3.83540555 1.92631239 -3.29898753
v -3.83556519 1.92631239 -3.29794459
v -3.83716031 2.10441195 -3.21569365
v -3.82772604 2.14489837 -3.29794459
v -3.82467243 2.14124416 -3.33796525
v -3.78905452 2.10441195 -3.37254140
v -3.75448504 2.22256499 -3.38205161
v -3.78905452 2.04553844 -3.37270049
v -3.82704237 1.92631239 -3.34422289
v -3.82638152 1.92631239 -3.26151235
v -3.82772604 2.14489837 -3.21569365
v -3.82615357 1.92631239 -3.26066386
v -3.83239760 2.07004495 -3.21569365
v -3.77419670 2.22256499 -3.23902725
v -3.77403724 2.22256499 -3.29794459
v -3.76674496 2.22256499 -3.35258410
v -3.75603450 2.16334350 -3.38470315
v -3.75758413 2.10441195 -3.38599358
v -3.75448504 2.22227496 -3.38206928
v -3.72517947 2.22256499 -3.39060726
v -3.75760696 2.04553844 -3.38601125
v -3.78834819 1.92631239 -3.37300100
v -3.78905452 1.92631239 -3.37270049
v -3.77419670 2.22256499 -3.21569365
v -3.78992048 1.92631239 -3.24717633
v -3.82863749 2.05255685 -3.21569365
v -3.72501983 2.22227496 -3.39066029
v -3.72811910 2.10441195 -3.39066029
v -3.67151333 2.22256499 -3.39497347
v -3.72814193 2.04553844 -3.39066029
v -3.75694612 1.92631239 -3.38611731
v -3.75760696 1.92631239 -3.38601125
v -3.70927323 2.22256499 -3.21569365
v -3.78905452 1.92631239 -3.24685815
v -3.78905452 2.03211067 -3.21569365
v -3.73014729 1.92631239 -3.23487316
v -3.60435672 2.22256499 -3.39628157
v -3.67123989 2.22227496 -3.39499115
v -3.67123989 1.92631239 -3.39499115
v -3.72814193 1.92631239 -3.39066029
v -3.60435672 2.22256499 -3.34088195
v -3.67110309 2.10548505 -3.21569365
v -3.60435672 2.04553844 -3.22845643
v -3.60435672 2.05203483 -3.23117867
v -3.60435672 2.09385532 -3.24871422
v -3.73014729 2.03057359 -3.21569365
v -3.67123989 1.92631239 -3.22842107
v -3.61365435 1.92631239 -3.22797915
v -3.60435672 1.92631239 -3.39628157
v -3.67376929 2.04800356 -3.21569365
v -3.60435672 1.92631239 -3.22797915
v -3.60435672 1.98660698 -3.22797915
v -3.60435672 1.99455343 -3.22803217
f 1 2 3
f 1 3 4
f 1 4 5
f 1 5 6
f 1 6 7
f 1 7 15
f 1 15 8
f 1 8 9
f 1 9 2
f 2 10 3
f 2 9 11
f 2 11 10
f 3 12 13
f 3 13 4
f 3 10 12
f 4 13 27
f 4 27 26
f 4 26 36
f 4 36 35
f 4 35 44
f 4 44 43
f 4 43 53
f 4 53 55
f 4 55 52
f 4 52 51
f 4 51 40
f 4 40 38
f 4 38 29
f 4 29 16
f 4 16 14
f 4 14 6
f 4 6 5
f 6 14 7
f 7 14 16
f 7 16 17
f 7 17 30
f 7 30 39
f 7 39 50
f 7 50 54
f 7 54 46
f 7 46 37
f 7 37 28
f 7 28 15
f 8 15 28
f 8 28 18
f 8 18 19
f 8 19 20
f 8 20 9
f 9 20 11
f 10 21 22
f 10 22 12
f 10 11 23
f 10 23 21
f 11 20 19
f 11 19 18
f 11 18 28
f 11 28 37
f 11 37 45
f 11 45 41
f 11 41 33
f 11 33 24
f 11 24 23
f 12 25 26
f 12 26 27
f 12 27 13
f 12 22 25
f 16 29 30
f 16 30 17
f 21 23 24
f 21 24 31
f 21 31 22
f 22 32 25
f 22 31 32
f 24 33 31
f 25 34 35
f 25 35 36
f 25 36 26
f 25 32 34
f 29 38 30
f 30 38 40
f 30 40 39
f 31 33 32
f 32 33 34
f 33 41 42
f 33 42 43
f 33 43 44
f 33 44 34
f 34 44 35
f 37 46 47
f 37 47 48
f 37 48 49
f 37 49 45
f 39 40 51
f 39 51 52
f 39 52 50
f 41 53 43
f 41 43 42
f 41 45 49
f 41 49 48
f 41 48 47
f 41 47 57
f 41 57 56
f 41 56 55
f 41 55 53
f 46 54 55
f 46 55 56
f 46 56 57
f 46 57 47
f 50 52 55
f 50 55 54

