# https://github.com/mikedh/trimesh
v -1.44776805 0.10156876 -0.56222107
v -1.34647560 0.04146516 -0.57331105
v -1.34647560 0.02716747 -0.56222107
v -1.44776805 0.27287391 -0.56222107
v -1.44776805 0.23990912 -0.62123244
v -1.34647560 0.20857080 -0.62225487
v -1.34647560 0.27515569 -0.56222107
v -1.39815300 0.27418471 -0.56222107
v -1.34647560 0.26476616 -0.62225487
v -1.39332435 0.25945009 -0.62225487
v -1.44776805 0.25279890 -0.62123244
v -1.42957388 0.23961786 -0.62225487
v -1.42957388 0.25296881 -0.62225487
f 1 2 3
f 1 3 7
f 1 7 8
f 1 8 4
f 1 4 11
f 1 11 5
f 1 5 2
f 2 5 6
f 2 6 9
f 2 9 7
f 2 7 3
f 4 8 9
f 4 9 10
f 4 10 11
f 5 11 13
f 5 13 12
f 5 12 6
f 6 12 13
f 6 13 10
f 6 10 9
f 7 9 8
f 10 13 11

