# https://github.com/mikedh/trimesh
v -2.50543347 2.34075007 -6.12700465
v -2.37873909 2.45793248 -6.19802868
v -2.50543347 2.39958336 -6.12701993
v -2.50543347 0.16004494 -6.12700465
v -2.37873909 2.49884943 -6.20582182
v -2.50543347 2.45793248 -6.12744773
v -2.37873909 0.10096947 -6.20210859
v -2.50543347 0.10218000 -6.12743245
v -2.37873909 2.50175482 -6.20641768
v -2.50543347 2.50296534 -6.15423462
v -2.50543347 0.10096947 -6.12744773
v -2.37873909 0.05375757 -6.20641768
v -2.37873909 2.51143916 -6.24428295
v -2.49268217 2.51313403 -6.24428295
v -2.50543347 2.51047082 -6.22915521
v -2.50543347 0.06368427 -6.14055852
v -2.50543347 0.04770479 -6.15424990
v -2.49268217 0.03971514 -6.24428295
v -2.37873909 0.05375757 -6.24234222
v -2.37873909 2.49788091 -6.27609701
v -2.50543347 2.50974447 -6.24428295
v -2.37873909 2.49691256 -6.27835860
v -2.49268217 2.49691256 -6.27835860
v -2.50543347 2.49594404 -6.27782367
v -2.50543347 0.04431523 -6.24428295
v -2.49268217 0.06053670 -6.27837370
v -2.44574546 0.06271574 -6.27785423
v -2.50543347 0.04915749 -6.25568218
v -2.37873909 0.05714714 -6.24553597
v -2.37873909 2.45793248 -6.28123132
v -2.43376323 2.45793248 -6.28282030
v -2.49268217 2.45793248 -6.28311077
v -2.50543347 2.47028022 -6.28095631
v -2.49268217 0.10096947 -6.28184247
v -2.50543347 0.06247357 -6.27744153
v -2.42917372 0.10121165 -6.27797646
v -2.37873909 0.11598043 -6.27472159
v -2.37873909 0.08862174 -6.27175737
v -2.37873909 0.08692704 -6.27137523
v -2.37873909 0.16077129 -6.27496640
v -2.50543347 2.45793248 -6.28138411
v -2.50543347 0.12033851 -6.28026860
v -2.50543347 0.10096947 -6.28022259
f 1 2 3
f 1 3 6
f 1 6 10
f 1 10 15
f 1 15 21
f 1 21 24
f 1 24 33
f 1 33 41
f 1 41 42
f 1 42 43
f 1 43 35
f 1 35 28
f 1 28 25
f 1 25 17
f 1 17 16
f 1 16 11
f 1 11 8
f 1 8 4
f 1 4 2
f 2 5 6
f 2 6 3
f 2 4 7
f 2 7 12
f 2 12 19
f 2 19 29
f 2 29 39
f 2 39 38
f 2 38 37
f 2 37 40
f 2 40 30
f 2 30 22
f 2 22 20
f 2 20 13
f 2 13 9
f 2 9 5
f 4 8 7
f 5 9 6
f 6 9 10
f 7 8 11
f 7 11 12
f 9 13 10
f 10 13 14
f 10 14 15
f 11 16 12
f 12 16 17
f 12 17 18
f 12 18 19
f 13 20 14
f 14 21 15
f 14 20 22
f 14 22 23
f 14 23 24
f 14 24 21
f 17 25 18
f 18 26 27
f 18 27 19
f 18 25 28
f 18 28 26
f 19 27 29
f 22 30 31
f 22 31 32
f 22 32 23
f 23 32 33
f 23 33 24
f 26 34 27
f 26 28 35
f 26 35 34
f 27 34 36
f 27 36 37
f 27 37 38
f 27 38 39
f 27 39 29
f 30 40 36
f 30 36 34
f 30 34 31
f 31 34 32
f 32 41 33
f 32 34 42
f 32 42 41
f 34 35 43
f 34 43 42
f 36 40 37

