# https://github.com/mikedh/trimesh
v 0.25384190 1.99395528 -5.15037424
v 0.25384190 2.04374681 -5.22421269
v 0.27647212 1.99395528 -5.13488614
v 0.25384190 1.99395528 -5.05462349
v 0.25384190 2.16148495 -5.22421269
v 0.30874683 2.07266058 -5.22421269
v 0.31512854 1.99395528 -5.10794384
v 0.27688675 1.99395528 -5.06388653
v 0.25384190 2.04551798 -5.05498877
v 0.27160475 2.14739704 -5.22421269
v 0.25384190 2.16148495 -5.20480695
v 0.30874683 2.08937255 -5.22421269
v 0.31440746 2.05014292 -5.12290070
v 0.31522478 2.04551798 -5.08216341
v 0.31522478 1.99395528 -5.08216341
v 0.27688675 2.04551798 -5.06438457
v 0.28167001 1.99395528 -5.06611088
v 0.25384190 2.10595333 -5.06347155
v 0.28076260 2.13852439 -5.22421269
v 0.27160475 2.14739704 -5.18359166
v 0.29957704 2.12355093 -5.12469357
v 0.25384190 2.16146853 -5.18359166
v 0.30636126 2.09854032 -5.22421269
v 0.31198572 2.09409583 -5.12469357
v 0.31226214 2.09086502 -5.08652940
v 0.25384190 2.14569137 -5.08342504
v 0.30106135 2.11884398 -5.22421269
v 0.25384190 2.15882806 -5.12469357
v 0.25384190 2.15213674 -5.10054004
v 0.25384190 2.16051731 -5.15545411
f 1 2 3
f 1 3 7
f 1 7 15
f 1 15 17
f 1 17 8
f 1 8 4
f 1 4 9
f 1 9 18
f 1 18 26
f 1 26 29
f 1 29 28
f 1 28 30
f 1 30 22
f 1 22 11
f 1 11 5
f 1 5 2
f 2 5 10
f 2 10 19
f 2 19 27
f 2 27 23
f 2 23 12
f 2 12 6
f 2 6 7
f 2 7 3
f 4 8 9
f 5 11 20
f 5 20 10
f 6 12 13
f 6 13 7
f 7 13 14
f 7 14 15
f 8 16 9
f 8 17 14
f 8 14 16
f 9 16 18
f 10 20 21
f 10 21 19
f 11 22 20
f 12 23 24
f 12 24 13
f 13 24 14
f 14 25 16
f 14 17 15
f 14 24 25
f 16 25 18
f 18 25 26
f 19 21 27
f 20 22 21
f 21 28 29
f 21 29 26
f 21 26 25
f 21 25 24
f 21 24 27
f 21 22 30
f 21 30 28
f 23 27 24

