# https://github.com/mikedh/trimesh
v -3.38413514 -0.00823400 -3.25604186
v -3.38413514 -0.00729094 -3.25009673
v -3.38413514 -0.00626218 -3.30202537
v -3.31762953 -0.00909118 -3.29492127
v -3.31762953 -0.00909118 -3.24822949
v -3.38413514 0.04200131 -3.22983609
v -3.38413514 -0.00471922 -3.30915094
v -3.02302949 -0.00909118 -3.29492127
v -3.02302949 -0.00909118 -3.24822949
v -3.31762953 0.04200131 -3.22796884
v -3.37654958 0.04200131 -3.22962146
v -3.38413514 0.10098054 -3.22796884
v -3.38413514 0.00051010 -3.31340052
v -3.02302949 0.04200131 -3.32136313
v -2.96410953 0.00051010 -3.28344953
v -2.96410953 0.00051010 -3.25728669
v -3.02302949 0.04200131 -3.22796884
v -3.08199361 0.86659656 -3.22793665
v -3.38413514 0.86659656 -3.22796884
v -3.38413514 0.04200131 -3.33357532
v -2.96410953 0.04200131 -3.29843039
v -3.38413514 0.10063765 -3.33755662
v -3.38413514 0.10098054 -3.33756736
v -3.02302949 0.86659656 -3.32136313
v -2.93394388 0.01096856 -3.27081882
v -2.93394388 0.01096856 -3.26706288
v -2.96410953 0.04200131 -3.24609397
v -3.02302949 0.86659656 -3.22795812
v -3.38413514 0.86659656 -3.33756736
v -2.93359107 0.04200131 -3.27198853
v -2.96410953 0.86659656 -3.29843039
v -2.93359107 0.04200131 -3.26635461
v -2.96410953 0.86659656 -3.24609397
v -2.93359107 0.86659656 -3.27198853
v -2.93359107 0.86659656 -3.26635461
f 1 2 6
f 1 6 12
f 1 12 19
f 1 19 29
f 1 29 23
f 1 23 22
f 1 22 20
f 1 20 13
f 1 13 7
f 1 7 3
f 1 3 4
f 1 4 5
f 1 5 2
f 2 5 6
f 3 7 4
f 4 7 8
f 4 8 9
f 4 9 5
f 5 9 17
f 5 17 10
f 5 10 11
f 5 11 6
f 6 11 12
f 7 13 8
f 8 13 14
f 8 14 15
f 8 15 16
f 8 16 9
f 9 16 17
f 10 17 18
f 10 18 12
f 10 12 11
f 12 18 19
f 13 20 14
f 14 21 15
f 14 20 22
f 14 22 23
f 14 23 29
f 14 29 24
f 14 24 31
f 14 31 21
f 15 25 26
f 15 26 16
f 15 21 25
f 16 26 27
f 16 27 17
f 17 27 28
f 17 28 18
f 18 28 33
f 18 33 35
f 18 35 34
f 18 34 31
f 18 31 24
f 18 24 29
f 18 29 19
f 21 30 25
f 21 31 34
f 21 34 30
f 25 30 32
f 25 32 26
f 26 32 27
f 27 32 35
f 27 35 33
f 27 33 28
f 30 34 35
f 30 35 32

