# https://github.com/mikedh/trimesh
v -2.17927580 0.16004389 -4.25969900
v -2.18357892 0.16004389 -4.29969712
v -2.14466650 0.16004389 -4.25982641
v -2.14533674 0.32280848 -4.26208386
v -2.17882899 0.32280848 -4.26208386
v -2.18317579 0.32280848 -4.29969712
v -2.17291833 0.16004389 -4.33186128
v -2.18112139 0.32280848 -4.30726222
v -2.17292803 0.32280848 -4.33199571
v -2.13396701 0.16004389 -4.29980328
v -2.13453043 0.32280848 -4.29969712
v -2.17223834 0.21879218 -4.33196744
v -2.15782347 0.16004389 -4.33196744
v -2.15777492 0.32280848 -4.33199571
v -2.15777492 0.21879218 -4.33196744
v -2.15233047 0.32280848 -4.32443061
f 1 2 7
f 1 7 13
f 1 13 10
f 1 10 3
f 1 3 4
f 1 4 5
f 1 5 6
f 1 6 2
f 2 6 8
f 2 8 9
f 2 9 7
f 3 10 11
f 3 11 4
f 4 11 16
f 4 16 14
f 4 14 9
f 4 9 8
f 4 8 6
f 4 6 5
f 7 12 13
f 7 9 12
f 9 14 13
f 9 13 12
f 10 13 15
f 10 15 14
f 10 14 16
f 10 16 11
f 13 14 15

