# https://github.com/mikedh/trimesh
v -0.48537246 1.29766209 -0.35600206
v -0.43146344 1.29766209 -0.36810937
v -0.48537246 1.29766209 -0.46069782
v -0.48537246 0.04589384 -0.35600206
v -0.40227035 0.98478461 -0.41054575
v -0.40227861 1.10267859 -0.41054575
v -0.40252552 1.29766209 -0.41054575
v -0.43146344 0.10103164 -0.36810937
v -0.46607217 1.29766209 -0.77523643
v -0.48537246 1.14903560 -0.64690100
v -0.48537246 0.04202001 -0.35612534
v -0.43687083 0.04202001 -0.36810937
v -0.40130736 0.98478461 -0.46948055
v -0.40227035 0.15991402 -0.41054575
v -0.40134029 1.10267859 -0.46948055
v -0.40492874 1.29766209 -0.77523643
v -0.40134855 1.10267859 -0.52841552
v -0.40138973 1.10267859 -0.58726848
v -0.40228677 0.10103164 -0.41054575
v -0.48537246 1.04366705 -0.71346965
v -0.48537246 1.10396990 -0.68863983
v -0.48537246 0.62477536 -0.77523643
v -0.48537246 -0.00575737 -0.36851961
v -0.44807241 -0.00007575 -0.37245973
v -0.41428670 0.04202001 -0.41054575
v -0.40129920 0.98478461 -0.52841552
v -0.40130736 0.15991402 -0.46948055
v -0.40195758 1.10267859 -0.64620327
v -0.40144733 1.04366705 -0.64620327
v -0.40154603 0.57234933 -0.77523643
v -0.40135680 0.98478461 -0.64620327
v -0.41168592 0.04202001 -0.52841552
v -0.40132387 0.10103164 -0.46948055
v -0.48537246 0.47175850 -0.77523643
v -0.48537246 -0.01621680 -0.40701622
v -0.48537246 -0.01673328 -0.41054575
v -0.44298604 -0.00394958 -0.41054575
v -0.44088726 -0.00511172 -0.52841552
v -0.40129920 0.15991402 -0.52841552
v -0.40134855 0.57234933 -0.70513825
v -0.40130736 0.10103164 -0.52841552
v -0.40145550 0.57234933 -0.76407322
v -0.40138147 0.10103164 -0.64620327
v -0.40172717 0.52470102 -0.77523643
v -0.41162832 0.04202001 -0.58726848
v -0.44079673 -0.00524088 -0.58726848
v -0.46649198 0.10103164 -0.77523643
v -0.48537246 0.10103164 -0.72003610
v -0.48537246 -0.02138184 -0.58267191
v -0.40135680 0.15991402 -0.64620327
v -0.40492874 0.10103164 -0.77523643
v -0.40178478 0.51346686 -0.77523643
v -0.41753771 0.04202001 -0.64620327
v -0.48537246 -0.02138184 -0.58726848
v -0.44668144 0.00147379 -0.64620327
v -0.46588295 0.09354215 -0.77523643
v -0.48537246 0.09225084 -0.71823042
v -0.43231948 0.06190580 -0.77523643
v -0.48537246 -0.00330393 -0.65080002
v -0.45493654 0.00960885 -0.68149858
v -0.46309285 0.06190580 -0.77523643
v -0.48537246 0.04382781 -0.69910531
v -0.48537246 0.00095722 -0.66266078
v -0.47418739 0.00960885 -0.68149858
v -0.48537246 0.01864781 -0.67948760
f 1 2 7
f 1 7 16
f 1 16 9
f 1 9 3
f 1 3 10
f 1 10 21
f 1 21 20
f 1 20 22
f 1 22 34
f 1 34 48
f 1 48 57
f 1 57 62
f 1 62 65
f 1 65 63
f 1 63 59
f 1 59 54
f 1 54 49
f 1 49 36
f 1 36 35
f 1 35 23
f 1 23 11
f 1 11 4
f 1 4 8
f 1 8 2
f 2 5 6
f 2 6 7
f 2 8 14
f 2 14 5
f 3 9 10
f 4 11 12
f 4 12 8
f 5 13 6
f 5 14 27
f 5 27 13
f 6 15 7
f 6 13 15
f 7 15 17
f 7 17 18
f 7 18 16
f 8 12 19
f 8 19 14
f 9 20 21
f 9 21 10
f 9 16 30
f 9 30 44
f 9 44 52
f 9 52 51
f 9 51 58
f 9 58 61
f 9 61 56
f 9 56 47
f 9 47 34
f 9 34 22
f 9 22 20
f 11 23 24
f 11 24 12
f 12 25 19
f 12 24 25
f 13 26 15
f 13 27 39
f 13 39 26
f 14 19 33
f 14 33 27
f 15 26 17
f 16 18 28
f 16 28 29
f 16 29 30
f 17 26 31
f 17 31 18
f 18 29 28
f 18 31 29
f 19 25 32
f 19 32 33
f 23 35 24
f 24 35 36
f 24 36 37
f 24 37 25
f 25 37 38
f 25 38 32
f 26 39 40
f 26 40 31
f 27 33 41
f 27 41 39
f 29 31 42
f 29 42 30
f 30 42 43
f 30 43 44
f 31 40 42
f 32 45 33
f 32 38 46
f 32 46 45
f 33 45 41
f 34 47 48
f 36 49 37
f 37 49 38
f 38 49 46
f 39 41 50
f 39 50 40
f 40 50 42
f 41 45 43
f 41 43 50
f 42 50 43
f 43 45 51
f 43 51 52
f 43 52 44
f 45 53 51
f 45 46 53
f 46 49 54
f 46 54 55
f 46 55 53
f 47 56 57
f 47 57 48
f 51 53 58
f 53 55 58
f 54 59 60
f 54 60 55
f 55 60 58
f 56 61 57
f 57 61 62
f 58 60 64
f 58 64 61
f 59 63 60
f 60 63 64
f 61 64 63
f 61 63 65
f 61 65 62

