# https://github.com/mikedh/trimesh
v -1.37283723 0.05710780 -6.28234965
v -1.25520234 0.05209976 -6.28684577
v -1.37283723 0.05710780 -6.24991337
v -1.37283723 0.10087394 -6.29395927
v -1.25520234 0.10109170 -6.30148196
v -1.19630052 0.05318840 -6.28543276
v -1.25520234 0.05209976 -6.24813895
v -1.25520234 0.10109170 -6.22184484
v -1.37283723 0.10109170 -6.23152743
v -1.37283723 0.15966438 -6.29493078
v -1.31412832 0.15988214 -6.29962745
v -1.25520234 0.15988214 -6.30308779
v -1.19630052 0.15988214 -6.30100850
v -1.19630052 0.10109170 -6.29900928
v -1.12644803 0.05710780 -6.28246204
v -1.19630052 0.05318840 -6.24872515
v -1.12644803 0.05710780 -6.24992145
v -1.19630052 0.10109170 -6.22528920
v -1.25520234 0.15988214 -6.22115432
v -1.25520234 0.21889017 -6.22113026
v -1.25520234 2.27655294 -6.22113026
v -1.31412832 2.27655294 -6.22985750
v -1.37283723 2.27655294 -6.23891402
v -1.37283723 2.27633536 -6.29304396
v -1.36839910 2.27655294 -6.29347738
v -1.31412832 2.27655294 -6.29875218
v -1.25520234 0.21889017 -6.30315206
v -1.30947309 2.27655294 -6.29910552
v -1.25520234 2.27655294 -6.30315206
v -1.19630052 0.21889017 -6.30110473
v -1.12644803 0.15988214 -6.29704203
v -1.12644803 0.14899501 -6.29687344
v -1.12644803 0.10109170 -6.29463363
v -1.12644803 0.09281756 -6.29249779
v -1.12644803 0.10109170 -6.23058806
v -1.20097985 2.27655294 -6.22628477
v -1.37283723 2.27655294 -6.24138686
v -1.19630052 2.27655294 -6.30110473
v -1.12644803 2.27655294 -6.29599044
v -1.12644803 2.27655294 -6.23610398
v -1.19630052 2.27655294 -6.22673434
f 1 2 7
f 1 7 3
f 1 3 9
f 1 9 23
f 1 23 37
f 1 37 24
f 1 24 10
f 1 10 4
f 1 4 5
f 1 5 2
f 2 6 16
f 2 16 7
f 2 5 6
f 3 7 8
f 3 8 9
f 4 10 11
f 4 11 5
f 5 11 12
f 5 12 13
f 5 13 14
f 5 14 6
f 6 15 17
f 6 17 16
f 6 14 15
f 7 16 8
f 8 16 17
f 8 17 18
f 8 18 19
f 8 19 9
f 9 19 20
f 9 20 21
f 9 21 22
f 9 22 23
f 10 24 25
f 10 25 26
f 10 26 11
f 11 27 12
f 11 26 28
f 11 28 29
f 11 29 27
f 12 27 30
f 12 30 13
f 13 30 31
f 13 31 32
f 13 32 14
f 14 32 33
f 14 33 34
f 14 34 15
f 15 34 33
f 15 33 32
f 15 32 31
f 15 31 39
f 15 39 40
f 15 40 35
f 15 35 17
f 17 35 18
f 18 20 19
f 18 35 21
f 18 21 20
f 21 36 41
f 21 41 40
f 21 40 39
f 21 39 38
f 21 38 29
f 21 29 28
f 21 28 26
f 21 26 25
f 21 25 37
f 21 37 23
f 21 23 22
f 21 35 36
f 24 37 25
f 27 29 38
f 27 38 30
f 30 38 31
f 31 38 39
f 35 40 41
f 35 41 36

