# https://github.com/mikedh/trimesh
v 0.23481724 2.00247573 -2.08104699
v 0.23481724 2.03105074 -2.10415454
v 0.30887749 2.07213259 -2.10415454
v 0.31444785 2.00247573 -1.98954473
v 0.23481724 2.00247573 -1.92531634
v 0.23481724 2.17654982 -2.10415454
v 0.30887749 2.08975135 -2.10415454
v 0.31425274 2.04860127 -2.00106347
v 0.31451020 2.04551719 -1.96344372
v 0.31451020 2.00247573 -1.96344372
v 0.23481724 2.04551719 -1.92573651
v 0.26198240 2.15502913 -2.10415454
v 0.23481724 2.17653279 -2.06047779
v 0.27160159 2.14739546 -2.06047779
v 0.30106030 2.11921234 -2.10415454
v 0.31213850 2.09455647 -2.00155362
v 0.31178745 2.08956388 -1.96633216
v 0.23481724 2.10445629 -1.93018293
v 0.27160159 2.14739546 -2.10415454
v 0.23481724 2.17423248 -2.00220138
v 0.29836108 2.12401746 -2.00155362
v 0.27922385 2.14037530 -2.10415454
v 0.30105257 2.12026884 -2.06047779
v 0.23481724 2.15874368 -1.94725096
v 0.23481724 2.17418137 -2.00155362
v 0.23481724 2.15971492 -1.94957927
f 1 2 3
f 1 3 4
f 1 4 10
f 1 10 5
f 1 5 11
f 1 11 18
f 1 18 24
f 1 24 26
f 1 26 25
f 1 25 20
f 1 20 13
f 1 13 6
f 1 6 2
f 2 6 12
f 2 12 19
f 2 19 22
f 2 22 15
f 2 15 7
f 2 7 3
f 3 7 8
f 3 8 4
f 4 8 9
f 4 9 10
f 5 10 9
f 5 9 11
f 6 13 14
f 6 14 12
f 7 15 16
f 7 16 8
f 8 16 9
f 9 16 17
f 9 17 18
f 9 18 11
f 12 14 19
f 13 20 21
f 13 21 14
f 14 21 19
f 15 22 23
f 15 23 16
f 16 21 17
f 16 23 21
f 17 24 18
f 17 21 24
f 19 21 22
f 20 25 21
f 21 23 22
f 21 25 26
f 21 26 24

