# https://github.com/mikedh/trimesh
v -1.90463824 0.32266202 -5.53732109
v -1.81277358 0.31446883 -5.61382099
v -1.81277358 0.32131258 -5.63343730
v -1.81277358 0.32687118 -5.65501910
v -1.95494808 0.32256569 -5.53732109
v -1.87268689 0.28031424 -5.53732109
v -1.81277358 0.29988164 -5.60492130
v -1.84449027 0.32658194 -5.65501910
v -1.81277358 0.32298339 -5.67871444
v -1.90342879 0.32497541 -5.65501910
v -1.95377472 0.32176242 -5.59609590
v -1.98435416 0.28529444 -5.53732109
v -1.81277358 0.27880412 -5.60249253
v -1.92794287 0.05418081 -5.53732109
v -1.81277358 0.04200333 -5.65848629
v -1.84449027 0.31915988 -5.69820097
v -1.81277358 0.31954545 -5.69864598
v -1.90342879 0.31430814 -5.69254596
v -1.93530793 0.30913519 -5.68663139
v -1.94458645 0.31552911 -5.65501910
v -1.98323496 0.28278832 -5.59609590
v -1.99300088 0.25332478 -5.59609590
v -1.99359659 0.25573450 -5.53732109
v -1.96233119 0.03968994 -5.53732109
v -1.90342879 0.00466790 -5.61063198
v -1.87140522 0.01006581 -5.62266502
v -1.81277358 0.00772028 -5.67074183
v -1.81277358 0.29682925 -5.71086446
v -1.81277358 0.27767956 -5.72106196
v -1.84449027 0.27767956 -5.72026466
v -1.90342879 0.27767956 -5.70745295
v -1.93953201 0.27767956 -5.69028402
v -1.99226077 0.25011171 -5.62659583
v -1.99489630 0.21875249 -5.59609590
v -1.99628628 0.21862394 -5.53732109
v -1.99395762 0.05697609 -5.53732109
v -1.94684292 0.00450721 -5.60853689
v -1.90342879 -0.00134054 -5.65501910
v -1.81277358 0.00784874 -5.69369554
v -1.81277358 0.21875249 -5.72593829
v -1.84449027 0.21875249 -5.72669835
v -1.90342879 0.21875249 -5.71551829
v -1.94344920 0.21875249 -5.69367693
v -1.97290945 0.21875249 -5.65711420
v -1.99273010 0.21875249 -5.62767113
v -1.99558226 0.15985756 -5.59609590
v -1.99718886 0.15972901 -5.53732109
v -1.99327166 0.06169928 -5.59609590
v -1.94595838 0.00383249 -5.65501910
v -1.99662926 0.10086621 -5.53732109
v -1.93633688 0.00897339 -5.68753985
v -1.90342879 0.00653145 -5.69174866
v -1.84449027 0.00717403 -5.69395510
v -1.81277358 0.02394606 -5.70276207
v -1.81277358 0.10093040 -5.72222998
v -1.84449027 0.10093040 -5.72426958
v -1.90342879 0.10093040 -5.71583334
v -1.90342879 0.15985756 -5.71674198
v -1.94436985 0.15985756 -5.69449284
v -1.97384811 0.15985756 -5.65768899
v -1.99294673 0.15985756 -5.62824592
v -1.99280233 0.10093040 -5.62787502
v -1.99514902 0.10093040 -5.59609590
v -1.99236908 0.06783618 -5.62685539
v -1.94074147 0.04200333 -5.69134088
v -1.90342879 0.04200333 -5.70698932
v -1.84449027 0.04200333 -5.71357141
v -1.81277358 0.04200333 -5.71240339
v -1.81277358 0.06921775 -5.71733521
v -1.94388245 0.10093040 -5.69406627
v -1.97334269 0.10093040 -5.65731809
f 1 2 3
f 1 3 4
f 1 4 5
f 1 5 12
f 1 12 23
f 1 23 35
f 1 35 47
f 1 47 50
f 1 50 36
f 1 36 24
f 1 24 14
f 1 14 6
f 1 6 2
f 2 6 7
f 2 7 13
f 2 13 15
f 2 15 27
f 2 27 39
f 2 39 54
f 2 54 68
f 2 68 69
f 2 69 55
f 2 55 40
f 2 40 29
f 2 29 28
f 2 28 17
f 2 17 9
f 2 9 4
f 2 4 3
f 4 8 5
f 4 9 8
f 5 8 10
f 5 10 11
f 5 11 12
f 6 13 7
f 6 14 15
f 6 15 13
f 8 9 16
f 8 16 10
f 9 17 16
f 10 16 18
f 10 18 19
f 10 19 20
f 10 20 11
f 11 20 21
f 11 21 12
f 12 21 22
f 12 22 23
f 14 24 25
f 14 25 26
f 14 26 27
f 14 27 15
f 16 17 28
f 16 28 29
f 16 29 30
f 16 30 18
f 18 30 31
f 18 31 19
f 19 31 32
f 19 32 33
f 19 33 20
f 20 33 21
f 21 33 22
f 22 33 34
f 22 34 35
f 22 35 23
f 24 36 37
f 24 37 25
f 25 37 38
f 25 38 27
f 25 27 26
f 27 38 39
f 29 40 41
f 29 41 30
f 30 41 42
f 30 42 31
f 31 42 32
f 32 42 43
f 32 43 44
f 32 44 33
f 33 44 45
f 33 45 34
f 34 45 46
f 34 46 47
f 34 47 35
f 36 48 49
f 36 49 37
f 36 50 48
f 37 49 38
f 38 49 51
f 38 51 52
f 38 52 53
f 38 53 39
f 39 53 54
f 40 55 56
f 40 56 41
f 41 56 57
f 41 57 58
f 41 58 42
f 42 58 59
f 42 59 43
f 43 59 44
f 44 59 60
f 44 60 45
f 45 60 61
f 45 61 46
f 46 61 62
f 46 62 63
f 46 63 47
f 47 63 50
f 48 50 63
f 48 63 64
f 48 64 49
f 49 64 51
f 51 64 65
f 51 65 66
f 51 66 52
f 52 66 67
f 52 67 53
f 53 67 54
f 54 67 68
f 55 69 56
f 56 69 68
f 56 68 67
f 56 67 66
f 56 66 57
f 57 70 58
f 57 66 65
f 57 65 70
f 58 70 59
f 59 70 71
f 59 71 60
f 60 71 62
f 60 62 61
f 62 71 64
f 62 64 63
f 64 71 65
f 65 71 70

