# https://github.com/mikedh/trimesh
v -3.65581361 2.45795004 -0.35516788
v -3.65581361 2.50633559 -0.36811464
v -3.67123199 2.45795004 -0.35516788
v -3.65581361 1.22159868 -0.35516788
v -3.65581361 2.50633559 -0.37584140
v -3.73014255 2.50885568 -0.41052485
v -3.67123199 2.50633559 -0.36811464
v -3.73014255 2.50053938 -0.37230344
v -3.73014255 2.45795004 -0.36352931
v -3.67123199 1.22159868 -0.35516788
v -3.65581361 1.22159868 -0.42713690
v -3.65581361 2.50595766 -0.40739924
v -3.76347956 2.49562529 -0.46943612
v -3.76329393 2.49524728 -0.41052485
v -3.76192905 2.49234918 -0.37801517
v -3.73395342 2.49587730 -0.51724072
v -3.76347956 2.49562529 -0.51724072
v -3.76309742 2.45795004 -0.37647607
v -3.73014255 1.22159868 -0.36352931
v -3.70257084 1.22159868 -0.51724072
v -3.65581361 2.39885421 -0.42713690
v -3.65581361 2.45795004 -0.42635944
v -3.71017080 2.45795004 -0.51724072
v -3.76735593 2.45795004 -0.46943612
v -3.76697379 2.45795004 -0.41052485
v -3.76735593 2.45795004 -0.51724072
v -3.76690829 1.22159868 -0.40992196
v -3.76309742 1.22159868 -0.37647607
v -3.76735593 1.22159868 -0.51724072
v -3.76735593 1.22159868 -0.46837294
v -3.76697379 1.22159868 -0.41052485
f 1 2 7
f 1 7 3
f 1 3 10
f 1 10 4
f 1 4 11
f 1 11 21
f 1 21 22
f 1 22 12
f 1 12 5
f 1 5 2
f 2 5 6
f 2 6 7
f 3 7 8
f 3 8 9
f 3 9 19
f 3 19 10
f 4 10 19
f 4 19 28
f 4 28 27
f 4 27 31
f 4 31 30
f 4 30 29
f 4 29 20
f 4 20 11
f 5 12 6
f 6 13 14
f 6 14 15
f 6 15 8
f 6 8 7
f 6 12 16
f 6 16 17
f 6 17 13
f 8 15 9
f 9 15 18
f 9 18 28
f 9 28 19
f 11 20 21
f 12 22 23
f 12 23 16
f 13 17 26
f 13 26 24
f 13 24 14
f 14 24 25
f 14 25 15
f 15 25 18
f 16 23 20
f 16 20 29
f 16 29 26
f 16 26 17
f 18 25 27
f 18 27 28
f 20 23 21
f 21 23 22
f 24 26 29
f 24 29 30
f 24 30 25
f 25 30 31
f 25 31 27

