# https://github.com/mikedh/trimesh
v -2.84560517 2.49615276 -5.03243195
v -2.84560517 2.49615276 -5.05911346
v -2.84626478 2.49615276 -5.03214025
v -2.84560517 2.45840761 -5.02802925
v -2.84560517 2.45798411 -5.08193845
v -3.51947027 2.49615276 -5.05911346
v -2.84560517 2.45798411 -5.02798149
v -3.51947027 2.49615276 -5.03214025
v -2.84560517 2.22574293 -5.08193845
v -3.51947027 2.45798411 -5.08193845
v -3.01961226 2.22574293 -5.02775354
v -2.96070846 2.22574293 -5.02780657
v -2.84560517 2.28122249 -5.02798149
v -3.51947027 2.45798411 -5.02798149
v -2.84560517 2.22574293 -5.03061256
v -3.51947027 2.22574293 -5.08193845
v -3.51947027 2.22574293 -5.02775354
v -2.84567112 2.22574293 -5.02798149
f 1 2 6
f 1 6 8
f 1 8 3
f 1 3 4
f 1 4 7
f 1 7 13
f 1 13 15
f 1 15 9
f 1 9 5
f 1 5 2
f 2 5 10
f 2 10 6
f 3 7 4
f 3 8 14
f 3 14 7
f 5 9 16
f 5 16 10
f 6 10 16
f 6 16 17
f 6 17 14
f 6 14 8
f 7 11 12
f 7 12 13
f 7 14 17
f 7 17 11
f 9 15 18
f 9 18 12
f 9 12 11
f 9 11 17
f 9 17 16
f 12 18 13
f 13 18 15

