# https://github.com/mikedh/trimesh
v -2.43376841 1.10270628 -4.11702496
v -2.47604019 1.10270628 -4.10130391
v -2.47630177 1.14349593 -4.09967814
v -2.42027074 1.23466405 -4.10210840
v -2.41911975 1.23466405 -4.10210840
v -2.39276967 1.21553613 -4.10197432
v -2.37644686 1.15793710 -4.10492414
v -2.41911975 1.10293813 -4.11491318
v -2.41911975 1.10292156 -4.11491318
v -2.41911975 1.08650965 -4.11481264
v -2.43376841 1.06547722 -4.11632109
v -2.44934129 1.06547722 -4.11052199
v -2.47209901 1.06547722 -4.10073403
v -2.52595016 1.11280847 -4.06575554
v -2.52595016 1.15074963 -4.06575554
v -2.52595016 1.16419714 -4.06550415
v -2.45211404 1.23466405 -4.06253755
v -2.41911975 1.23466405 -4.01433526
v -2.37191276 1.21553613 -4.06397896
v -2.38997944 1.21553613 -4.09744905
v -2.34779485 1.14140925 -4.09884019
v -2.37149423 1.10368337 -4.10802473
v -2.41911975 1.06547722 -4.11441039
v -2.40011142 1.06547722 -4.11192990
v -2.48141131 1.06547722 -4.08804657
v -2.49014821 1.06547722 -4.06459911
v -2.52595016 1.11501107 -4.00561993
v -2.52595016 1.16419714 -4.01897780
v -2.52595016 1.16322004 -4.00689371
v -2.43938368 1.23466405 -4.01519003
v -2.43057707 1.23466405 -4.01480451
v -2.41911975 1.19084373 -3.94583633
v -2.38291669 1.21553613 -4.01254192
v -2.34779485 1.16338565 -4.00349142
v -2.34779485 1.17295789 -4.06337559
v -2.34779485 1.11810797 -4.10004693
v -2.37723165 1.06547722 -4.10861137
v -2.48060914 1.06547722 -4.01108378
v -2.43118742 1.06547722 -3.98200484
v -2.40862156 1.12607380 -3.94583633
v -2.46477468 1.12953503 -3.97174759
v -2.41911975 1.15040186 -3.94583633
v -2.42919940 1.15604914 -3.95123310
v -2.37126755 1.16066965 -3.94583633
v -2.34779485 1.12532856 -3.99695490
v -2.35027117 1.06547722 -4.07738711
v -2.34779485 1.06547722 -4.06818580
v -2.40849950 1.06547722 -3.98644626
v -2.37751066 1.11905194 -3.94583633
v -2.37175581 1.12488141 -3.94583633
v -2.34779485 1.07788139 -4.00243552
v -2.34779485 1.06547722 -4.01118432
v -2.37874879 1.06547722 -3.99449118
v -2.37203486 1.12057555 -3.94583633
v -2.36029849 1.06547722 -4.00005558
f 1 2 3
f 1 3 4
f 1 4 5
f 1 5 6
f 1 6 7
f 1 7 8
f 1 8 9
f 1 9 10
f 1 10 11
f 1 11 2
f 2 11 12
f 2 12 13
f 2 13 14
f 2 14 15
f 2 15 16
f 2 16 3
f 3 16 4
f 4 16 17
f 4 17 30
f 4 30 31
f 4 31 18
f 4 18 5
f 5 18 19
f 5 19 20
f 5 20 6
f 6 20 21
f 6 21 7
f 7 21 22
f 7 22 8
f 8 22 9
f 9 22 10
f 10 23 11
f 10 22 24
f 10 24 23
f 11 23 24
f 11 24 37
f 11 37 46
f 11 46 47
f 11 47 52
f 11 52 55
f 11 55 53
f 11 53 48
f 11 48 39
f 11 39 38
f 11 38 26
f 11 26 25
f 11 25 13
f 11 13 12
f 13 25 14
f 14 25 26
f 14 26 27
f 14 27 29
f 14 29 28
f 14 28 16
f 14 16 15
f 16 28 17
f 17 28 29
f 17 29 30
f 18 31 32
f 18 32 33
f 18 33 19
f 19 34 35
f 19 35 21
f 19 21 20
f 19 33 34
f 21 35 34
f 21 34 45
f 21 45 51
f 21 51 52
f 21 52 47
f 21 47 36
f 21 36 22
f 22 37 24
f 22 36 37
f 26 38 27
f 27 38 39
f 27 39 40
f 27 40 41
f 27 41 42
f 27 42 43
f 27 43 32
f 27 32 29
f 29 32 30
f 30 32 31
f 32 42 40
f 32 40 49
f 32 49 54
f 32 54 50
f 32 50 44
f 32 44 33
f 32 43 42
f 33 44 34
f 34 44 45
f 36 46 37
f 36 47 46
f 39 48 49
f 39 49 40
f 40 42 41
f 44 50 45
f 45 50 51
f 48 53 54
f 48 54 49
f 50 54 51
f 51 54 52
f 52 54 55
f 53 55 54

