# https://github.com/mikedh/trimesh
v -3.73585850 2.49561599 -4.71040858
v -3.76349414 2.49561599 -4.71040858
v -3.73514111 2.49450855 -4.71040858
v -3.73584410 2.49561599 -4.88894595
v -3.76349414 2.49561599 -4.88894595
v -3.83716031 2.10445462 -4.71040858
v -3.71209695 2.45796594 -4.71040858
v -3.71209695 2.45796594 -4.88894595
v -3.83716031 2.10445462 -4.88894595
v -3.82794837 2.06179934 -4.71040858
v -3.69292724 2.10445462 -4.71040858
v -3.69057399 2.10445462 -4.88894595
v -3.82794837 2.06184369 -4.88894595
v -3.82794837 2.06179934 -4.83003346
v -3.82677192 2.06122359 -4.71040858
v -3.69304192 2.10343588 -4.71040858
v -3.69685875 2.06986091 -4.71040858
v -3.69473503 2.06844351 -4.88894595
v -3.78906347 2.04434750 -4.88894595
v -3.78906347 2.04319581 -4.77112105
v -3.78906347 2.04319581 -4.71040858
v -3.73016205 2.05121303 -4.71040858
v -3.73016205 2.05099158 -4.88894595
v -3.78728431 2.04341735 -4.71040858
f 1 2 6
f 1 6 10
f 1 10 15
f 1 15 21
f 1 21 24
f 1 24 22
f 1 22 17
f 1 17 16
f 1 16 11
f 1 11 7
f 1 7 3
f 1 3 4
f 1 4 5
f 1 5 2
f 2 5 9
f 2 9 6
f 3 7 8
f 3 8 4
f 4 8 12
f 4 12 18
f 4 18 23
f 4 23 19
f 4 19 13
f 4 13 9
f 4 9 5
f 6 9 14
f 6 14 10
f 7 11 12
f 7 12 8
f 9 13 14
f 10 14 15
f 11 16 12
f 12 16 17
f 12 17 18
f 13 19 20
f 13 20 14
f 14 20 15
f 15 20 21
f 17 22 18
f 18 22 23
f 19 23 20
f 20 23 24
f 20 24 21
f 22 24 23

