# https://github.com/mikedh/trimesh
v -3.53102510 0.64489436 -0.51724090
v -3.53102510 0.63556907 -0.53182914
v -3.53102510 0.47041223 -0.51724090
v -3.19982386 0.63331460 -0.51724090
v -3.53098277 0.59517651 -0.58717646
v -3.53102510 0.60193992 -0.55967727
v -3.20003618 0.58383584 -0.58717646
v -3.17524491 0.48308503 -0.51724090
v -3.53102510 0.50593715 -0.58717646
v -3.15529300 0.62127370 -0.51724090
v -3.13797305 0.56880610 -0.58717646
v -3.19464495 0.58253782 -0.58717646
v -3.53102510 0.51008748 -0.58717646
v -3.19982386 0.51773899 -0.58717646
v -3.14612365 0.48527119 -0.51724090
v -3.14068992 0.61659398 -0.51724090
v -3.13703913 0.56836201 -0.58717646
v -3.13797305 0.52523678 -0.58717646
v -3.13534110 0.48667173 -0.51724090
v -3.09794191 0.57271724 -0.51724090
v -3.13551092 0.56745680 -0.58717646
v -3.13551092 0.52612491 -0.58717646
v -3.11267232 0.50796964 -0.51724090
v -3.09739004 0.52708136 -0.51724090
v -3.09913057 0.52241871 -0.51724090
f 1 2 6
f 1 6 13
f 1 13 9
f 1 9 3
f 1 3 8
f 1 8 15
f 1 15 19
f 1 19 23
f 1 23 25
f 1 25 24
f 1 24 20
f 1 20 16
f 1 16 10
f 1 10 4
f 1 4 2
f 2 5 6
f 2 4 7
f 2 7 5
f 3 9 8
f 4 10 11
f 4 11 12
f 4 12 7
f 5 13 6
f 5 7 12
f 5 12 11
f 5 11 17
f 5 17 21
f 5 21 22
f 5 22 18
f 5 18 14
f 5 14 9
f 5 9 13
f 8 14 15
f 8 9 14
f 10 16 11
f 11 16 17
f 14 18 15
f 15 18 19
f 16 20 21
f 16 21 17
f 18 22 19
f 19 22 23
f 20 24 21
f 21 24 22
f 22 24 25
f 22 25 23

