# https://github.com/mikedh/trimesh
v -3.77427432 2.22224326 -4.94791043
v -3.77375064 2.22224326 -5.00683890
v -3.77427432 2.22224326 -4.94725257
v -3.76736542 2.45799158 -5.00683890
v -3.76641762 2.22224326 -5.05134719
v -3.76347464 2.45799158 -5.04896198
v -3.70371428 2.22224326 -4.94725257
v -3.76736542 2.45799158 -4.94725257
v -3.76347464 2.49563390 -5.00683890
v -3.76217754 2.49290816 -5.04474017
v -3.73012762 2.22229779 -5.07948860
v -3.73012762 2.22224326 -5.07948860
v -3.73012762 2.45799158 -5.07651402
v -3.51947027 2.22224326 -5.02771543
v -3.70371428 2.23764364 -4.94725257
v -3.76347464 2.49563390 -4.94725257
v -3.72526394 2.50067654 -5.00127363
v -3.73012762 2.49985878 -5.05608988
v -3.67121531 2.22224326 -5.08727436
v -3.67121531 2.45799158 -5.08665760
v -3.67121531 2.39906135 -5.08726067
v -3.51947027 2.22224326 -5.08194231
v -3.51947027 2.45799158 -5.02797587
v -3.70476183 2.39906135 -4.94725257
v -3.73429288 2.49563390 -4.94725257
v -3.51947027 2.49615179 -5.03212918
v -3.67121531 2.50010412 -5.01958687
v -3.67121531 2.50010412 -5.06116167
v -3.51947027 2.45799158 -5.08194231
v -3.51947027 2.49615179 -5.05910556
v -3.51947027 2.47993365 -5.03036091
v -3.70655767 2.45796436 -4.94725257
v -3.70493656 2.40838331 -4.94725257
f 1 2 5
f 1 5 12
f 1 12 19
f 1 19 22
f 1 22 14
f 1 14 7
f 1 7 3
f 1 3 8
f 1 8 4
f 1 4 2
f 2 4 6
f 2 6 5
f 3 7 15
f 3 15 24
f 3 24 33
f 3 33 32
f 3 32 25
f 3 25 16
f 3 16 8
f 4 8 16
f 4 16 9
f 4 9 10
f 4 10 6
f 5 11 12
f 5 6 13
f 5 13 11
f 6 10 13
f 7 14 15
f 9 16 17
f 9 17 18
f 9 18 10
f 10 18 13
f 11 19 12
f 11 13 20
f 11 20 21
f 11 21 19
f 13 18 20
f 14 22 29
f 14 29 30
f 14 30 26
f 14 26 31
f 14 31 23
f 14 23 15
f 15 23 24
f 16 25 17
f 17 26 27
f 17 27 28
f 17 28 18
f 17 25 26
f 18 28 20
f 19 21 29
f 19 29 22
f 20 29 21
f 20 28 30
f 20 30 29
f 23 31 32
f 23 32 33
f 23 33 24
f 25 32 26
f 26 30 28
f 26 28 27
f 26 32 31

