# https://github.com/mikedh/trimesh
v 0.16035325 0.32301448 -5.95648556
v 0.16035325 0.39556259 -5.95648556
v 0.23437978 0.32301448 -5.95648556
v 0.16035325 0.32301448 -5.41847156
v 0.17262266 0.45446744 -5.95648556
v 0.16035325 0.39556259 -5.41847156
v 0.27159808 0.35260085 -5.95648556
v 0.23437978 0.32301448 -5.41847156
v 0.18621130 0.48838574 -5.95648556
v 0.17438163 0.45446744 -5.41847156
v 0.30106205 0.37760971 -5.95648556
v 0.30106205 0.37754272 -5.94963917
v 0.27159808 0.35260085 -5.41847156
v 0.22620011 0.55110892 -5.95648556
v 0.18845409 0.48398682 -5.41847156
v 0.30905117 0.40366814 -5.95648556
v 0.31009187 0.40701749 -5.94963917
v 0.30106205 0.37754272 -5.41847156
v 0.22640541 0.55110892 -5.95606426
v 0.26872500 0.55110892 -5.95648556
v 0.21796197 0.50696380 -5.41847156
v 0.31007730 0.40708449 -5.95648556
v 0.31009187 0.43434870 -5.94963917
v 0.31009187 0.40701749 -5.41847156
v 0.24749935 0.55110892 -5.95606426
v 0.31007730 0.43417001 -5.95648556
v 0.26863702 0.55110892 -5.95622231
v 0.26878366 0.50691911 -5.41847156
v 0.29824763 0.46377878 -5.41847156
v 0.30993066 0.43475059 -5.41847156
v 0.31009187 0.43434870 -5.41847156
f 1 2 5
f 1 5 9
f 1 9 14
f 1 14 20
f 1 20 26
f 1 26 22
f 1 22 16
f 1 16 11
f 1 11 7
f 1 7 3
f 1 3 8
f 1 8 4
f 1 4 6
f 1 6 2
f 2 6 5
f 3 7 13
f 3 13 8
f 4 8 13
f 4 13 18
f 4 18 24
f 4 24 31
f 4 31 30
f 4 30 29
f 4 29 28
f 4 28 21
f 4 21 15
f 4 15 10
f 4 10 6
f 5 6 10
f 5 10 9
f 7 11 12
f 7 12 18
f 7 18 13
f 9 10 15
f 9 15 14
f 11 16 12
f 12 16 17
f 12 17 24
f 12 24 18
f 14 19 25
f 14 25 27
f 14 27 20
f 14 15 21
f 14 21 19
f 16 22 17
f 17 22 26
f 17 26 23
f 17 23 31
f 17 31 24
f 19 21 25
f 20 23 26
f 20 27 28
f 20 28 29
f 20 29 30
f 20 30 31
f 20 31 23
f 21 28 27
f 21 27 25

