# https://github.com/mikedh/trimesh
v -3.44866400 2.50760099 -3.92101920
v -3.44867595 2.50760099 -4.00508004
v -3.49482203 2.50809359 -4.00712175
v -3.48033319 2.50760099 -3.92101920
v -3.44171611 2.48641933 -3.92101920
v -3.45410617 2.50070464 -4.05377941
v -3.49443076 2.50316765 -4.06305070
v -3.43236122 2.45784871 -4.00508004
v -3.55346496 2.49651760 -4.06208007
v -3.55346496 2.49651760 -4.02805746
v -3.48920197 2.47903037 -3.92101920
v -3.43236122 2.45784871 -3.92101920
v -3.44867595 2.45784871 -4.06341888
v -3.49443076 2.45784871 -4.09176831
v -3.55335836 2.45784871 -4.08986050
v -3.43236122 0.04215129 -4.00508004
v -3.55346496 2.45784871 -4.08984373
v -3.49567570 2.45784871 -3.92101920
v -3.55346496 2.45784871 -4.02025884
v -3.43236122 0.04215129 -3.92101920
v -3.49443076 2.39898328 -4.09196913
v -3.44867595 0.04215129 -4.06341888
v -3.55346496 2.39898328 -4.09006132
v -3.44866400 -0.00760099 -3.92101920
v -3.44867595 -0.00760099 -4.00508004
v -3.45410617 -0.00070464 -4.05377941
v -3.55346496 2.39873698 -4.01892003
v -3.49567570 0.04215129 -3.92101920
v -3.49443076 0.10101672 -4.09196913
v -3.49443076 0.04215129 -4.09176831
v -3.55346496 0.10101672 -4.09006132
v -3.48033319 -0.00760099 -3.92101920
v -3.49482203 -0.00809359 -4.00712175
v -3.49443076 -0.00316765 -4.06305070
v -3.55346496 0.10101672 -4.01892003
v -3.55346496 0.04215129 -4.02025884
v -3.55346496 0.00348240 -4.02810764
v -3.55335836 0.04215129 -4.08986050
v -3.55346496 0.04215129 -4.08984373
v -3.55346496 0.00348240 -4.06208007
f 1 2 3
f 1 3 4
f 1 4 11
f 1 11 18
f 1 18 28
f 1 28 32
f 1 32 24
f 1 24 20
f 1 20 12
f 1 12 5
f 1 5 2
f 2 6 7
f 2 7 3
f 2 5 8
f 2 8 6
f 3 7 9
f 3 9 10
f 3 10 4
f 4 10 11
f 5 12 8
f 6 8 13
f 6 13 14
f 6 14 7
f 7 14 15
f 7 15 9
f 8 12 20
f 8 20 16
f 8 16 22
f 8 22 13
f 9 15 17
f 9 17 23
f 9 23 31
f 9 31 39
f 9 39 40
f 9 40 37
f 9 37 36
f 9 36 35
f 9 35 27
f 9 27 19
f 9 19 10
f 10 18 11
f 10 19 18
f 13 21 14
f 13 22 29
f 13 29 21
f 14 21 23
f 14 23 15
f 15 23 17
f 16 20 24
f 16 24 25
f 16 25 26
f 16 26 22
f 18 19 27
f 18 27 35
f 18 35 28
f 21 29 31
f 21 31 23
f 22 26 30
f 22 30 29
f 24 32 33
f 24 33 25
f 25 33 34
f 25 34 26
f 26 34 30
f 28 35 36
f 28 36 37
f 28 37 32
f 29 30 31
f 30 38 31
f 30 34 38
f 31 38 39
f 32 37 33
f 33 37 40
f 33 40 34
f 34 40 38
f 38 40 39

