# https://github.com/mikedh/trimesh
v -1.64639303 0.71835515 -3.79843226
v -1.64639303 0.27591497 -3.79843226
v -1.64639303 0.71835515 -3.88156966
v -2.22507044 0.71835515 -3.79843226
v -1.64639303 0.27591497 -3.88156966
v -2.26903160 0.27591497 -3.79843226
v -2.12940845 0.71835515 -3.88156966
v -2.21219164 0.71835515 -3.81007068
v -2.27893832 0.71562647 -3.79843226
v -2.08018437 0.27591497 -3.88156966
v -2.27893832 0.31112826 -3.79843226
v -2.27893832 0.40498711 -3.88156966
v -2.17188364 0.27591497 -3.86056353
v -2.27893832 0.64532980 -3.88156966
v -2.13906755 0.27591497 -3.88135804
v -2.13894370 0.27747426 -3.88156966
f 1 2 5
f 1 5 3
f 1 3 7
f 1 7 8
f 1 8 4
f 1 4 9
f 1 9 11
f 1 11 6
f 1 6 2
f 2 6 13
f 2 13 15
f 2 15 10
f 2 10 5
f 3 5 10
f 3 10 16
f 3 16 12
f 3 12 14
f 3 14 7
f 4 8 9
f 6 11 12
f 6 12 13
f 7 14 9
f 7 9 8
f 9 14 12
f 9 12 11
f 10 15 16
f 12 16 15
f 12 15 13

