# https://github.com/mikedh/trimesh
v -3.78907138 2.04295417 -4.35913848
v -3.73066167 2.05091317 -4.35913848
v -3.78941032 2.04311231 -4.35913848
v -3.78907138 2.04316499 -4.71040858
v -3.73015344 2.05098342 -4.35913848
v -3.73015344 2.05119424 -4.71040858
v -3.82794064 2.06178872 -4.35913848
v -3.82794064 2.06178872 -4.71040858
v -3.82676876 2.06122648 -4.71040858
v -3.69686121 2.06983553 -4.35913848
v -3.69686121 2.06983553 -4.71040858
v -3.83716031 2.10444760 -4.35913848
v -3.82822303 2.06308889 -4.71040858
v -3.69681871 2.07013425 -4.35913848
v -3.69292197 2.10444760 -4.71040858
v -3.82782772 2.14455882 -4.35913848
v -3.83716031 2.10444760 -4.71040858
v -3.69292197 2.10444760 -4.35913848
v -3.69676234 2.15770087 -4.71040858
v -3.82774307 2.14491023 -4.35913848
v -3.82774307 2.14491023 -4.71040858
v -3.69676234 2.15770087 -4.35913848
v -3.70927164 2.22240948 -4.71040858
v -3.77423253 2.22228646 -4.35913848
v -3.77420425 2.22240948 -4.41755741
v -3.77420425 2.22240948 -4.71040858
v -3.70927164 2.22240948 -4.41769500
v -3.70925742 2.22228646 -4.35913848
v -3.70968101 2.22240948 -4.35913848
f 1 2 5
f 1 5 10
f 1 10 14
f 1 14 18
f 1 18 22
f 1 22 28
f 1 28 29
f 1 29 24
f 1 24 20
f 1 20 16
f 1 16 12
f 1 12 7
f 1 7 3
f 1 3 4
f 1 4 2
f 2 4 6
f 2 6 5
f 3 7 8
f 3 8 9
f 3 9 4
f 4 9 8
f 4 8 13
f 4 13 17
f 4 17 21
f 4 21 26
f 4 26 23
f 4 23 19
f 4 19 15
f 4 15 11
f 4 11 6
f 5 6 11
f 5 11 10
f 7 12 13
f 7 13 8
f 10 11 14
f 11 15 14
f 12 16 17
f 12 17 13
f 14 15 18
f 15 19 22
f 15 22 18
f 16 20 21
f 16 21 17
f 19 23 27
f 19 27 22
f 20 24 25
f 20 25 26
f 20 26 21
f 22 27 28
f 23 26 25
f 23 25 29
f 23 29 27
f 24 29 25
f 27 29 28

