# https://github.com/mikedh/trimesh
v 0.15949975 2.22010329 -2.82815045
v 0.22203837 2.22010329 -2.82815045
v 0.15948746 2.22010329 -2.23959021
v 0.16035693 2.45798675 -3.05313355
v 0.16034464 2.22645137 -3.05313355
v 0.22203837 2.22010329 -2.70859916
v 0.22140158 2.22645137 -3.05313355
v 0.22140158 2.45798675 -3.05313355
v 0.15948746 2.22010329 -2.10424736
v 0.16035693 2.45798675 -2.82824335
v 0.17442711 2.50705772 -2.82815045
v 0.17443326 2.50705772 -3.05313355
v 0.22140158 2.45798675 -2.82824335
v 0.22139544 2.45795865 -2.10424736
v 0.22202607 2.22010329 -2.10424736
v 0.20494338 2.50705772 -3.05313355
v 0.16036308 2.45795865 -2.10424736
v 0.17442711 2.50705772 -2.10424736
v 0.20494338 2.50705772 -2.82824335
v 0.20493723 2.50705772 -2.10424736
f 1 2 6
f 1 6 15
f 1 15 9
f 1 9 3
f 1 3 4
f 1 4 5
f 1 5 7
f 1 7 2
f 2 7 8
f 2 8 13
f 2 13 6
f 3 9 10
f 3 10 4
f 4 10 18
f 4 18 11
f 4 11 12
f 4 12 16
f 4 16 8
f 4 8 7
f 4 7 5
f 6 13 14
f 6 14 15
f 8 16 19
f 8 19 13
f 9 15 14
f 9 14 20
f 9 20 18
f 9 18 17
f 9 17 10
f 10 17 18
f 11 18 20
f 11 20 19
f 11 19 16
f 11 16 12
f 13 19 20
f 13 20 14

