# https://github.com/mikedh/trimesh
v -2.80725503 0.00549856 -2.27779240
v -2.73048081 0.00552411 -2.27778520
v -2.80725503 0.00549856 -2.26490789
v -2.80725503 0.01786430 -2.28343073
v -2.73048081 0.00552411 -2.25841159
v -2.73048081 0.04200816 -2.29439733
v -2.78731550 0.00552411 -2.25831782
v -2.80725503 0.00570298 -2.25250651
v -2.80725503 0.04200816 -2.29441893
v -2.73048081 0.04200816 -2.24538282
v -2.80725503 0.04200816 -2.23771130
v -2.80725503 0.06193645 -2.29632243
v -2.73048081 0.10094981 -2.29994188
v -2.73048081 0.17235940 -2.22808579
v -2.80725503 0.13533884 -2.22877069
v -2.80725503 0.10094981 -2.29999237
v -2.73048081 0.10301926 -2.30000686
v -2.73048081 0.26484695 -2.22808579
v -2.80725503 0.14369333 -2.22808579
v -2.80725503 0.15984035 -2.30147764
v -2.78731550 0.15984035 -2.30173720
v -2.73048081 0.15984035 -2.30173720
v -2.73048081 0.26620103 -2.23528147
v -2.73804178 0.26530680 -2.22808579
v -2.80725503 0.26643100 -2.22808579
v -2.80725503 0.21875644 -2.29485876
v -2.78731550 0.21875644 -2.29521930
v -2.73048081 0.21875644 -2.29521930
v -2.73048081 0.26645655 -2.23726427
v -2.79649231 0.26648211 -2.22808579
v -2.78731550 0.26645655 -2.23726427
v -2.80725503 0.26632879 -2.23726427
v -2.80725503 0.23137770 -2.28891039
v -2.78731550 0.25618583 -2.27681905
v -2.73048081 0.22008498 -2.29457040
v -2.73048081 0.25656902 -2.27542027
v -2.80725503 0.25613472 -2.27673976
v -2.73048081 0.25618583 -2.27681905
f 1 2 5
f 1 5 3
f 1 3 8
f 1 8 11
f 1 11 15
f 1 15 19
f 1 19 25
f 1 25 32
f 1 32 37
f 1 37 33
f 1 33 26
f 1 26 20
f 1 20 16
f 1 16 12
f 1 12 9
f 1 9 4
f 1 4 2
f 2 4 6
f 2 6 13
f 2 13 17
f 2 17 22
f 2 22 28
f 2 28 35
f 2 35 38
f 2 38 36
f 2 36 29
f 2 29 23
f 2 23 18
f 2 18 14
f 2 14 10
f 2 10 5
f 3 5 7
f 3 7 8
f 4 9 6
f 5 8 7
f 5 10 11
f 5 11 8
f 6 9 12
f 6 12 16
f 6 16 13
f 10 14 11
f 11 14 15
f 13 16 17
f 14 18 24
f 14 24 30
f 14 30 25
f 14 25 19
f 14 19 15
f 16 20 21
f 16 21 22
f 16 22 17
f 18 23 24
f 20 26 27
f 20 27 21
f 21 27 28
f 21 28 22
f 23 29 30
f 23 30 24
f 25 30 31
f 25 31 32
f 26 33 27
f 27 33 34
f 27 34 35
f 27 35 28
f 29 36 31
f 29 31 30
f 31 36 34
f 31 34 37
f 31 37 32
f 33 37 34
f 34 36 38
f 34 38 35

