# https://github.com/mikedh/trimesh
v 0.22344681 2.04548014 -5.00130928
v 0.25383311 1.98660040 -5.05456957
v 0.25383311 2.04548014 -5.05498420
v 0.25383311 2.10595131 -5.06347172
v 0.22344681 2.10443952 -5.01003687
v 0.22344681 2.03991048 -5.00135283
v 0.25383311 1.80872782 -5.05437323
v 0.25383311 1.92768088 -5.05437323
v 0.25383311 2.14569514 -5.08343610
v 0.22344681 2.16292140 -5.01882996
v 0.22344681 1.80884715 -5.01025516
v 0.23511649 1.80872782 -5.04634372
v 0.25383311 1.80872782 -5.21917251
v 0.25383311 2.15214007 -5.10054233
v 0.22344681 2.21030374 -5.06617726
v 0.22344681 1.80872782 -5.04937661
v 0.23988481 1.80872782 -5.21963070
v 0.25383311 1.80900631 -5.21965247
v 0.25383311 2.15882367 -5.12467425
v 0.22344681 2.21483902 -5.12467425
v 0.22344681 1.80872782 -5.20599376
v 0.23958732 1.80872782 -5.21963070
v 0.25383311 1.82269189 -5.22421269
v 0.25383311 2.16049465 -5.15543901
v 0.22344681 2.21515733 -5.18358569
v 0.25383311 2.16144948 -5.18358569
v 0.22344681 1.85913365 -5.22421269
v 0.22613303 1.85201242 -5.22421269
v 0.23724039 1.82269189 -5.22421269
v 0.25383311 2.16144948 -5.22421269
v 0.22344681 2.21515733 -5.22421269
f 1 2 3
f 1 3 4
f 1 4 5
f 1 5 10
f 1 10 15
f 1 15 20
f 1 20 25
f 1 25 31
f 1 31 27
f 1 27 21
f 1 21 16
f 1 16 11
f 1 11 6
f 1 6 7
f 1 7 8
f 1 8 2
f 2 8 7
f 2 7 13
f 2 13 18
f 2 18 23
f 2 23 30
f 2 30 26
f 2 26 24
f 2 24 19
f 2 19 14
f 2 14 9
f 2 9 4
f 2 4 3
f 4 9 10
f 4 10 5
f 6 11 7
f 7 11 12
f 7 12 16
f 7 16 21
f 7 21 22
f 7 22 17
f 7 17 13
f 9 14 15
f 9 15 10
f 11 16 12
f 13 17 18
f 14 19 15
f 15 19 20
f 17 22 29
f 17 29 23
f 17 23 18
f 19 24 20
f 20 24 26
f 20 26 25
f 21 27 28
f 21 28 29
f 21 29 22
f 23 29 28
f 23 28 27
f 23 27 31
f 23 31 30
f 25 26 30
f 25 30 31

