# https://github.com/mikedh/trimesh
v -3.65580149 1.22159868 -0.42712337
v -3.53063997 1.22159868 -0.41431517
v -3.65580149 1.22159868 -0.35515629
v -3.65580149 2.39885974 -0.42712337
v -3.53063997 1.22159868 -0.35514926
v -3.53063997 1.25681210 -0.41431517
v -3.65580149 2.45796804 -0.35515629
v -3.65580149 2.45796804 -0.42634136
v -3.53063997 2.45796804 -0.41430112
v -3.53063997 2.45796804 -0.35515629
v -3.65580149 2.50638652 -0.36811254
v -3.65580149 2.50600929 -0.40738976
v -3.53063997 2.50638652 -0.39768135
v -3.53063997 2.50638652 -0.36811254
v -3.65580149 2.50638652 -0.37584104
v -3.61229210 2.50638652 -0.39768135
f 1 2 5
f 1 5 3
f 1 3 7
f 1 7 11
f 1 11 15
f 1 15 12
f 1 12 8
f 1 8 4
f 1 4 6
f 1 6 2
f 2 6 9
f 2 9 13
f 2 13 14
f 2 14 10
f 2 10 5
f 3 5 7
f 4 8 9
f 4 9 6
f 5 10 7
f 7 10 14
f 7 14 11
f 8 12 13
f 8 13 9
f 11 14 13
f 11 13 16
f 11 16 15
f 12 15 16
f 12 16 13

