# https://github.com/mikedh/trimesh
v 0.22170399 0.57233703 -1.88371827
v 0.23471960 0.57233703 -1.92515223
v 0.16032585 0.57233703 -1.88371827
v 0.22170399 0.45438227 -1.88371827
v 0.23471960 0.51335965 -1.92515223
v 0.23471960 0.57233703 -2.10412144
v 0.16035500 0.57233703 -2.00154791
v 0.16036220 0.39551833 -2.17887010
v 0.16031847 0.33659767 -1.88371827
v 0.22139069 0.04205101 -1.88371827
v 0.23471960 0.45443899 -1.92573018
v 0.22187873 0.50706496 -2.17887010
v 0.22841200 0.57233703 -2.10412144
v 0.23471960 0.32332778 -2.10412144
v 0.17443396 0.57233703 -2.04780710
v 0.17438303 0.45443899 -2.17887010
v 0.16036220 0.04205101 -2.17887010
v 0.16031847 0.04205101 -1.88371827
v 0.20493741 -0.00694550 -1.88371827
v 0.20509037 -0.00654861 -2.17887010
v 0.21713727 0.02934827 -2.10415033
v 0.22139807 0.04205101 -2.10415033
v 0.23471960 0.32332778 -2.06046269
v 0.23471960 0.32570957 -2.00154791
v 0.23471960 0.32582293 -2.00111449
v 0.23471960 0.34113436 -1.94722725
v 0.23471960 0.34226858 -1.94586921
v 0.23471960 0.39546161 -1.93015096
v 0.21794563 0.50706496 -2.17887010
v 0.22187873 0.27937829 -2.17887010
v 0.20214055 0.57233703 -2.07725008
v 0.22139807 0.04205101 -2.17887010
v 0.18873156 0.48415453 -2.17887010
v 0.18832361 0.48370083 -2.17887010
v 0.16048601 0.04159739 -2.17887010
v 0.17442676 -0.00694550 -2.17887010
v 0.17441219 -0.00694550 -1.88371827
v 0.20494461 -0.00694550 -2.10415033
v 0.20494461 -0.00694550 -2.17887010
f 1 2 6
f 1 6 13
f 1 13 31
f 1 31 15
f 1 15 7
f 1 7 3
f 1 3 9
f 1 9 18
f 1 18 37
f 1 37 19
f 1 19 10
f 1 10 4
f 1 4 5
f 1 5 2
f 2 5 11
f 2 11 28
f 2 28 27
f 2 27 26
f 2 26 25
f 2 25 24
f 2 24 23
f 2 23 14
f 2 14 6
f 3 7 8
f 3 8 9
f 4 10 5
f 5 10 11
f 6 12 29
f 6 29 13
f 6 14 30
f 6 30 12
f 7 15 16
f 7 16 8
f 8 16 34
f 8 34 33
f 8 33 29
f 8 29 12
f 8 12 30
f 8 30 32
f 8 32 20
f 8 20 39
f 8 39 36
f 8 36 35
f 8 35 17
f 8 17 18
f 8 18 9
f 10 19 20
f 10 20 21
f 10 21 22
f 10 22 23
f 10 23 24
f 10 24 25
f 10 25 26
f 10 26 27
f 10 27 28
f 10 28 11
f 13 29 31
f 14 23 22
f 14 22 32
f 14 32 30
f 15 31 33
f 15 33 34
f 15 34 16
f 17 35 18
f 18 35 36
f 18 36 37
f 19 37 36
f 19 36 39
f 19 39 38
f 19 38 20
f 20 32 21
f 20 38 39
f 21 32 22
f 29 33 31

