# https://github.com/mikedh/trimesh
v -2.49077050 1.39439182 -3.88157642
v -2.52594586 1.38743324 -3.88157642
v -2.48175499 1.39385030 -3.88157642
v -2.52594586 1.38318228 -3.93390349
v -2.52594586 1.12019118 -3.88157642
v -2.48175499 1.38897658 -3.88964549
v -2.48175499 1.11780847 -3.88157642
v -2.50819161 1.37949992 -3.92564488
v -2.52594586 1.33837117 -3.95072531
v -2.52594586 1.12197820 -3.92194206
v -2.48205780 1.11778139 -3.88157642
v -2.48175499 1.34876843 -3.91487484
v -2.52594586 1.12438799 -3.93268502
v -2.50922125 1.12636455 -3.92459562
v -2.48175499 1.12230312 -3.88817651
v -2.48175499 1.33837117 -3.91687857
v -2.52594586 1.20280065 -3.95006192
v -2.52594586 1.14835042 -3.94576341
v -2.48175499 1.16161776 -3.91498991
v -2.52594586 1.16161776 -3.94950008
f 1 2 5
f 1 5 11
f 1 11 7
f 1 7 3
f 1 3 4
f 1 4 2
f 2 4 9
f 2 9 17
f 2 17 20
f 2 20 18
f 2 18 13
f 2 13 10
f 2 10 5
f 3 6 4
f 3 7 15
f 3 15 19
f 3 19 16
f 3 16 12
f 3 12 6
f 4 6 8
f 4 8 9
f 5 10 11
f 6 12 8
f 7 11 10
f 7 10 13
f 7 13 14
f 7 14 15
f 8 12 9
f 9 12 16
f 9 16 17
f 13 18 14
f 14 18 19
f 14 19 15
f 16 19 17
f 17 19 20
f 18 20 19

