# https://github.com/mikedh/trimesh
v -2.84266984 0.15963382 -0.62225505
v -2.85177421 0.15963382 -0.70515212
v -2.92483477 0.15963382 -0.62225505
v -2.85725940 0.04038389 -0.62225505
v -2.86585712 0.10091582 -0.70527400
v -2.92337101 0.15963382 -0.70527400
v -2.86899380 0.04200763 -0.70527400
v -2.92081342 0.10091582 -0.62225505
v -2.86883293 0.01019111 -0.62225505
v -2.87376318 0.01043978 -0.70527400
v -2.91832012 0.10079878 -0.70527400
v -2.91834426 0.10091582 -0.70515212
v -2.91379203 0.06598343 -0.62225505
v -2.88587559 0.01019111 -0.62225505
v -2.88518392 0.01043978 -0.70527400
v -2.90646507 0.04194915 -0.70527400
v -2.90650529 0.04200763 -0.70515212
v -2.90841950 0.04200763 -0.62225505
v -2.89577620 0.02328346 -0.62225505
f 1 2 6
f 1 6 3
f 1 3 8
f 1 8 13
f 1 13 18
f 1 18 19
f 1 19 14
f 1 14 9
f 1 9 4
f 1 4 2
f 2 5 6
f 2 4 7
f 2 7 5
f 3 6 8
f 4 9 10
f 4 10 7
f 5 7 10
f 5 10 15
f 5 15 16
f 5 16 11
f 5 11 6
f 6 11 12
f 6 12 8
f 8 12 11
f 8 11 13
f 9 14 15
f 9 15 10
f 11 16 17
f 11 17 13
f 13 17 18
f 14 19 15
f 15 19 16
f 16 19 18
f 16 18 17

