# https://github.com/mikedh/trimesh
v -2.61327364 1.32239086 -4.13685526
v -2.61327364 1.33838203 -4.13685526
v -2.59666212 1.22055781 -4.17425936
v -2.61310259 1.22055781 -4.13685526
v -2.59666212 1.33838203 -4.17425936
v -2.59799259 1.38724106 -4.13685526
v -2.59145449 1.38263123 -4.16696357
v -2.57372167 1.22055781 -4.20370322
v -2.59624407 1.16161966 -4.17384244
v -2.61293154 1.20441037 -4.13685526
v -2.57372167 1.33838203 -4.20370322
v -2.58822342 1.38776195 -4.13685526
v -2.49269807 1.38664204 -4.23190935
v -2.53688753 1.38283958 -4.22239869
v -2.54424294 1.22055781 -4.22793568
v -2.57326550 1.16161966 -4.20329931
v -2.61245632 1.16161966 -4.13685526
v -2.59090332 1.12372526 -4.16640335
v -2.54424294 1.33838203 -4.22793568
v -2.55205452 1.38776195 -4.13685526
v -2.49269807 1.38664204 -4.19266822
v -2.41912497 1.38099043 -4.20448489
v -2.41912497 1.37914130 -4.24428615
v -2.41912497 1.37294277 -4.26036300
v -2.49269807 1.33838203 -4.25249400
v -2.49269807 1.22055781 -4.25246792
v -2.54380583 1.16161966 -4.22746670
v -2.53627937 1.12356900 -4.22177332
v -2.60970047 1.14948303 -4.13685526
v -2.59630105 1.12198030 -4.13685526
v -2.53148980 1.33838203 -4.13685526
v -2.41912497 1.33838203 -4.19561268
v -2.41912497 1.33838203 -4.26995181
v -2.44347194 1.33838203 -4.26532679
v -2.44347194 1.22055781 -4.26530071
v -2.49269807 1.16161966 -4.25156894
v -2.49269807 1.12169381 -4.23098429
v -2.41912497 1.14151349 -4.26866200
v -2.41912497 1.12903829 -4.25754893
v -2.55566571 1.12177195 -4.13685526
v -2.41912497 1.27944388 -4.19401018
v -2.53211701 1.16161966 -4.13685526
v -2.41912497 1.28965323 -4.26995181
v -2.41912497 1.22055781 -4.26993881
v -2.41912497 1.17479805 -4.26954789
v -2.44155232 1.16161966 -4.26487080
v -2.49269807 1.12169381 -4.19356719
v -2.41912497 1.12601716 -4.24394747
v -2.41912497 1.12575672 -4.23557024
v -2.41912497 1.12474099 -4.20195742
v -2.41912497 1.16161966 -4.26936552
v -2.54388187 1.13841422 -4.13685526
v -2.41912497 1.16161966 -4.19463555
v -2.41912497 1.13416901 -4.19962533
f 1 2 5
f 1 5 3
f 1 3 4
f 1 4 10
f 1 10 17
f 1 17 29
f 1 29 30
f 1 30 40
f 1 40 52
f 1 52 42
f 1 42 31
f 1 31 20
f 1 20 12
f 1 12 6
f 1 6 2
f 2 6 7
f 2 7 5
f 3 8 9
f 3 9 4
f 3 5 11
f 3 11 8
f 4 9 10
f 5 7 11
f 6 12 13
f 6 13 14
f 6 14 7
f 7 14 11
f 8 15 16
f 8 16 9
f 8 11 19
f 8 19 15
f 9 17 10
f 9 16 18
f 9 18 17
f 11 14 19
f 12 20 13
f 13 20 21
f 13 21 22
f 13 22 23
f 13 23 24
f 13 24 14
f 14 24 25
f 14 25 19
f 15 26 27
f 15 27 16
f 15 19 25
f 15 25 26
f 16 27 28
f 16 28 18
f 17 18 29
f 18 28 30
f 18 30 29
f 20 22 21
f 20 31 22
f 22 31 32
f 22 32 41
f 22 41 53
f 22 53 54
f 22 54 50
f 22 50 49
f 22 49 48
f 22 48 39
f 22 39 38
f 22 38 51
f 22 51 45
f 22 45 44
f 22 44 43
f 22 43 33
f 22 33 24
f 22 24 23
f 24 33 34
f 24 34 25
f 25 34 35
f 25 35 26
f 26 35 36
f 26 36 27
f 27 36 28
f 28 37 30
f 28 36 38
f 28 38 39
f 28 39 37
f 30 37 40
f 31 41 32
f 31 42 41
f 33 43 34
f 34 43 44
f 34 44 35
f 35 44 45
f 35 45 46
f 35 46 36
f 36 46 38
f 37 47 40
f 37 39 48
f 37 48 49
f 37 49 50
f 37 50 47
f 38 46 51
f 40 47 50
f 40 50 52
f 41 42 53
f 42 52 50
f 42 50 54
f 42 54 53
f 45 51 46

