# https://github.com/mikedh/trimesh
v 0.22139508 2.22640378 -2.82826460
v 0.22139508 2.22640378 -3.05313358
v 0.16003889 2.22640378 -2.82826460
v 0.24311211 2.16996633 -2.82826460
v 0.22295473 2.21316663 -3.05313358
v 0.16035079 2.22640378 -3.05313358
v 0.24311211 2.16996633 -2.88545593
v 0.24311211 2.16766418 -2.94436434
v 0.24311211 2.15327605 -2.99321254
v 0.24311211 2.14863583 -2.99860589
v 0.16003889 2.22640378 -2.94436434
v 0.11997070 2.10126289 -2.82826460
v 0.24311211 1.86849882 -2.82826460
v 0.24311211 2.10500386 -3.01271659
v 0.24311211 2.09406887 -3.01509408
v 0.24311211 2.04550894 -3.01923262
v 0.22615182 2.09122723 -3.05313358
v 0.16033779 2.22640378 -3.04961140
v 0.15502225 2.10503986 -3.05313358
v 0.11997070 2.04550894 -2.98832552
v 0.12316779 2.09144306 -2.98350453
v 0.11997070 2.10047157 -2.94436434
v 0.11997070 2.10126289 -2.88545593
v 0.16019484 2.22640378 -3.00329479
v 0.11968480 2.09960833 -2.82826460
v 0.22929693 1.86849882 -2.82826460
v 0.24311211 1.85896669 -2.83244716
v 0.24311211 2.03694792 -3.01932067
v 0.22725644 2.04550894 -3.05313358
v 0.15240996 2.04550894 -3.05313358
v 0.11035327 2.04550894 -2.94436434
v 0.15422934 1.99867549 -3.05313358
v 0.16035079 1.85896669 -3.05313358
v 0.12316779 2.00392720 -2.98350453
v 0.11035327 2.04550894 -2.82826460
v 0.23110349 1.85896669 -2.83244716
v 0.22889406 1.86885852 -2.82826460
v 0.24311211 1.85896669 -3.01976094
v 0.24311211 1.97705734 -3.01960686
v 0.24311211 1.92767004 -3.01976094
v 0.22582693 1.85896669 -3.05313358
v 0.11997070 1.99781225 -2.94436434
v 0.16028581 1.85896669 -3.01306883
v 0.11997070 1.99792017 -2.88545593
v 0.11997070 1.99806400 -2.82826460
v 0.22639874 1.85896669 -2.83643163
v 0.13858161 1.96738129 -2.82826460
v 0.16028581 1.85896669 -3.00329479
v 0.16439259 1.85896669 -2.95413838
v 0.16521149 1.85896669 -2.94436434
v 0.13771090 1.96860432 -2.82826460
v 0.17933857 1.85896669 -2.90344107
v 0.17699918 1.85896669 -2.91002311
f 1 2 6
f 1 6 18
f 1 18 24
f 1 24 11
f 1 11 3
f 1 3 12
f 1 12 25
f 1 25 35
f 1 35 45
f 1 45 51
f 1 51 47
f 1 47 37
f 1 37 26
f 1 26 13
f 1 13 4
f 1 4 7
f 1 7 2
f 2 5 17
f 2 17 29
f 2 29 41
f 2 41 33
f 2 33 32
f 2 32 30
f 2 30 19
f 2 19 6
f 2 7 8
f 2 8 9
f 2 9 10
f 2 10 5
f 3 11 23
f 3 23 12
f 4 13 27
f 4 27 38
f 4 38 40
f 4 40 39
f 4 39 28
f 4 28 16
f 4 16 15
f 4 15 14
f 4 14 10
f 4 10 9
f 4 9 8
f 4 8 7
f 5 10 14
f 5 14 15
f 5 15 16
f 5 16 17
f 6 19 20
f 6 20 21
f 6 21 22
f 6 22 23
f 6 23 18
f 11 24 23
f 12 23 25
f 13 26 36
f 13 36 27
f 16 28 29
f 16 29 17
f 18 23 24
f 19 30 20
f 20 31 21
f 20 30 32
f 20 32 33
f 20 33 34
f 20 34 31
f 21 31 22
f 22 31 23
f 23 31 25
f 25 31 35
f 26 37 36
f 27 36 46
f 27 46 52
f 27 52 53
f 27 53 50
f 27 50 49
f 27 49 48
f 27 48 43
f 27 43 33
f 27 33 41
f 27 41 38
f 28 39 29
f 29 39 40
f 29 40 38
f 29 38 41
f 31 34 42
f 31 42 35
f 33 43 42
f 33 42 34
f 35 42 44
f 35 44 45
f 36 37 47
f 36 47 46
f 42 43 48
f 42 48 44
f 44 48 45
f 45 48 49
f 45 49 50
f 45 50 51
f 46 47 52
f 47 51 52
f 50 53 51
f 51 53 52

