# https://github.com/mikedh/trimesh
v -1.64639303 -0.00831601 -3.84864162
v -1.64639303 -0.00267698 -3.94613387
v -1.39331921 -0.00844421 -3.84864162
v -1.64639303 1.30070727 -3.84864162
v -1.64639303 -0.00011378 -3.98375477
v -0.60807878 -0.00267698 -3.94613387
v -0.86308374 -0.00857232 -3.84864162
v -0.60807878 1.30070727 -3.84864162
v -1.64639303 1.30070727 -3.85122168
v -1.64639303 0.00142418 -4.00505374
v -0.60807878 0.00142418 -4.00505374
v -0.60807878 -0.00805961 -3.84864162
v -0.66601134 -0.00831601 -3.84864162
v -0.78380761 -0.00857232 -3.84864162
v -0.60807878 1.30070727 -3.85259403
v -1.54983879 1.30070727 -3.85303316
v -1.64639303 1.26853917 -3.86986740
v -1.64639303 0.01077977 -4.03553839
v -0.60807878 0.00155229 -4.00560267
v -0.60807878 1.26982077 -3.87006870
v -0.60909516 1.30070727 -3.85261234
v -1.49200785 1.30070727 -3.85308808
v -1.54983879 1.27046159 -3.87014189
v -1.64639303 1.22047930 -3.89645456
v -1.64639303 0.03974394 -4.03553839
v -0.60807878 0.01077977 -4.03555670
v -0.60807878 1.22137639 -3.89618008
v -0.66601134 1.27046159 -3.87014189
v -0.66601134 1.30070727 -3.85308808
v -1.54983879 1.22047930 -3.89672901
v -1.64639303 1.20650988 -3.90273082
v -1.64639303 0.05858332 -4.03484304
v -0.60807878 0.03974394 -4.03555670
v -0.60807878 1.22047930 -3.89665582
v -0.66601134 1.22047930 -3.89672901
v -0.60807878 1.18254401 -3.91350837
v -1.64639303 1.18177507 -3.91380117
v -1.64639303 0.06922065 -4.03444049
v -0.60807878 0.06986138 -4.03442222
v -0.60807878 1.18177507 -3.91381943
v -0.78380761 1.18177507 -3.91381943
v -1.64639303 1.17113779 -3.91707649
v -1.64639303 0.15995766 -4.03100043
v -0.60807878 0.15995766 -4.03100043
v -0.60807878 1.15229832 -3.92285869
v -1.64639303 1.15229832 -3.92285869
v -1.64639303 0.21878305 -4.02840211
v -0.60807878 0.21878305 -4.02840211
v -0.60807878 1.10346948 -3.93596013
v -1.64639303 1.13435594 -3.92768940
v -1.64639303 0.25646199 -4.02653570
v -0.60807878 0.21993649 -4.02834723
v -0.60807878 1.10257235 -3.93619800
v -1.64639303 1.10257235 -3.93619800
v -1.64639303 0.27773646 -4.02545615
v -0.60807878 0.27888990 -4.02541953
v -0.60807878 1.04374705 -3.94940924
v -1.64639303 1.08129783 -3.94099210
v -1.64639303 0.33668996 -4.02245522
v -0.60807878 0.33668996 -4.02245522
v -0.60807878 0.98479359 -3.96057109
v -1.64639303 1.04374705 -3.94940924
v -1.64639303 0.37436890 -4.02038756
v -0.60807878 0.33771520 -4.02240034
v -0.60807878 0.92686540 -3.96988479
v -1.64639303 0.98479359 -3.96057109
v -1.64639303 0.39564346 -4.01919816
v -0.60807878 0.39666870 -4.01914328
v -0.60807878 0.92584011 -3.97004948
v -1.64639303 0.92584011 -3.97004948
v -1.64639303 0.45459687 -4.01581303
v -0.60807878 0.45459687 -4.01581303
v -0.60807878 0.89162147 -3.97500826
v -1.64639303 0.89162147 -3.97500826
v -1.64639303 0.51342217 -4.01198873
v -0.60807878 0.51342217 -4.01198873
v -0.60807878 0.86265741 -3.97850323
v -1.64639303 0.88085605 -3.97630746
v -1.64639303 0.57237567 -4.00765207
v -0.60807878 0.57237567 -4.00765207
v -0.60807878 0.80895847 -3.98496244
v -1.64639303 0.84253629 -3.98091857
v -1.64639303 0.63132912 -4.00291289
v -0.60807878 0.63132912 -4.00291289
v -0.60807878 0.74910788 -3.99158636
v -1.64639303 0.78665866 -3.98743269
v -1.64639303 0.80793318 -3.98507224
v -1.64639303 0.66887991 -3.99943622
v -0.60807878 0.69117971 -3.99736856
v -1.64639303 0.74910788 -3.99158636
v -1.64639303 0.69015442 -3.99746006
f 1 2 3
f 1 3 7
f 1 7 14
f 1 14 13
f 1 13 12
f 1 12 8
f 1 8 4
f 1 4 9
f 1 9 17
f 1 17 24
f 1 24 31
f 1 31 37
f 1 37 42
f 1 42 46
f 1 46 50
f 1 50 54
f 1 54 58
f 1 58 62
f 1 62 66
f 1 66 70
f 1 70 74
f 1 74 78
f 1 78 82
f 1 82 87
f 1 87 86
f 1 86 90
f 1 90 91
f 1 91 88
f 1 88 83
f 1 83 79
f 1 79 75
f 1 75 71
f 1 71 67
f 1 67 63
f 1 63 59
f 1 59 55
f 1 55 51
f 1 51 47
f 1 47 43
f 1 43 38
f 1 38 32
f 1 32 25
f 1 25 18
f 1 18 10
f 1 10 5
f 1 5 2
f 2 5 6
f 2 6 14
f 2 14 7
f 2 7 3
f 4 8 15
f 4 15 21
f 4 21 29
f 4 29 22
f 4 22 16
f 4 16 9
f 5 10 11
f 5 11 6
f 6 12 13
f 6 13 14
f 6 11 19
f 6 19 26
f 6 26 33
f 6 33 39
f 6 39 44
f 6 44 48
f 6 48 52
f 6 52 56
f 6 56 60
f 6 60 64
f 6 64 68
f 6 68 72
f 6 72 76
f 6 76 80
f 6 80 84
f 6 84 89
f 6 89 85
f 6 85 81
f 6 81 77
f 6 77 73
f 6 73 69
f 6 69 65
f 6 65 61
f 6 61 57
f 6 57 53
f 6 53 49
f 6 49 45
f 6 45 40
f 6 40 36
f 6 36 34
f 6 34 27
f 6 27 20
f 6 20 15
f 6 15 8
f 6 8 12
f 9 16 17
f 10 18 19
f 10 19 11
f 15 20 21
f 16 22 23
f 16 23 17
f 17 23 24
f 18 25 33
f 18 33 26
f 18 26 19
f 20 27 28
f 20 28 29
f 20 29 21
f 22 29 28
f 22 28 23
f 23 28 35
f 23 35 30
f 23 30 24
f 24 30 31
f 25 32 33
f 27 34 35
f 27 35 28
f 30 36 37
f 30 37 31
f 30 35 36
f 32 38 39
f 32 39 33
f 34 36 35
f 36 40 41
f 36 41 37
f 37 41 42
f 38 43 39
f 39 43 44
f 40 45 46
f 40 46 41
f 41 46 42
f 43 47 48
f 43 48 44
f 45 49 50
f 45 50 46
f 47 51 52
f 47 52 48
f 49 53 54
f 49 54 50
f 51 55 56
f 51 56 52
f 53 57 58
f 53 58 54
f 55 59 56
f 56 59 60
f 57 61 66
f 57 66 62
f 57 62 58
f 59 63 64
f 59 64 60
f 61 65 66
f 63 67 68
f 63 68 64
f 65 69 70
f 65 70 66
f 67 71 68
f 68 71 72
f 69 73 74
f 69 74 70
f 71 75 76
f 71 76 72
f 73 77 78
f 73 78 74
f 75 79 80
f 75 80 76
f 77 81 82
f 77 82 78
f 79 83 84
f 79 84 80
f 81 85 86
f 81 86 87
f 81 87 82
f 83 88 84
f 84 88 89
f 85 89 90
f 85 90 86
f 88 91 89
f 89 91 90

