# https://github.com/mikedh/trimesh
v 0.20494496 2.50705772 -4.94878640
v 0.17442378 2.50705772 -4.94878640
v 0.22114852 2.45872960 -4.94878640
v 0.20494496 2.50705772 -5.23409671
v 0.17442378 2.50705772 -5.23409671
v 0.16237248 2.46501841 -5.23409671
v 0.16035746 2.45797770 -4.94878640
v 0.22139965 2.45797770 -4.94878640
v 0.22139965 2.45797770 -5.23409671
v 0.16035746 2.45797770 -5.23409671
v 0.15767932 2.21237285 -5.13453421
v 0.15767932 2.21155255 -5.07647222
v 0.15767932 2.19986363 -5.02927437
v 0.15767932 2.15632053 -5.01450050
v 0.15767932 2.06636343 -4.98604210
v 0.15767932 2.04551465 -4.98593041
v 0.16025438 2.04551465 -4.94878640
v 0.22344681 2.21025378 -5.06616690
v 0.22344681 2.21483367 -5.12467565
v 0.22344681 2.21510710 -5.18360325
v 0.22143179 2.04551465 -4.94878640
v 0.22344681 2.04551465 -5.00131859
v 0.22344681 2.10450634 -5.01003213
v 0.22344681 2.16295108 -5.01882926
v 0.22344681 2.21510710 -5.23409671
v 0.15767932 2.21237285 -5.23409671
v 0.15767932 1.98659135 -5.00880317
v 0.16035746 1.80879614 -4.94878640
v 0.22143179 1.98747997 -4.94878640
v 0.22141247 1.80879614 -4.94878640
v 0.22344681 2.03997783 -5.00134651
v 0.22344681 1.87455511 -5.23409671
v 0.15767932 1.94810669 -5.23409671
v 0.15767932 1.92766806 -5.04050133
v 0.15767932 1.90251291 -5.06577598
v 0.16035746 1.80879614 -5.06577598
v 0.22344681 1.80879614 -5.04938223
v 0.22344681 1.80886450 -5.01025551
v 0.22344681 1.80879614 -5.20600131
v 0.16718137 1.93675948 -5.23409671
v 0.21012071 1.80879614 -5.19477436
v 0.17857604 1.80879614 -5.16531056
v 0.16450973 1.80879614 -5.12467565
v 0.15767932 1.90531548 -5.12467565
f 1 2 7
f 1 7 17
f 1 17 28
f 1 28 30
f 1 30 29
f 1 29 21
f 1 21 8
f 1 8 3
f 1 3 4
f 1 4 5
f 1 5 2
f 2 5 6
f 2 6 7
f 3 8 9
f 3 9 4
f 4 9 25
f 4 25 32
f 4 32 40
f 4 40 33
f 4 33 26
f 4 26 10
f 4 10 6
f 4 6 5
f 6 10 7
f 7 10 26
f 7 26 11
f 7 11 12
f 7 12 13
f 7 13 14
f 7 14 15
f 7 15 16
f 7 16 17
f 8 18 19
f 8 19 20
f 8 20 25
f 8 25 9
f 8 21 22
f 8 22 23
f 8 23 24
f 8 24 18
f 11 26 33
f 11 33 44
f 11 44 35
f 11 35 34
f 11 34 27
f 11 27 16
f 11 16 15
f 11 15 14
f 11 14 13
f 11 13 12
f 16 27 28
f 16 28 17
f 18 24 23
f 18 23 22
f 18 22 31
f 18 31 38
f 18 38 37
f 18 37 39
f 18 39 32
f 18 32 25
f 18 25 20
f 18 20 19
f 21 29 22
f 22 29 30
f 22 30 31
f 27 34 28
f 28 35 36
f 28 36 43
f 28 43 42
f 28 42 41
f 28 41 39
f 28 39 37
f 28 37 30
f 28 34 35
f 30 37 38
f 30 38 31
f 32 39 40
f 33 40 39
f 33 39 41
f 33 41 42
f 33 42 43
f 33 43 36
f 33 36 44
f 35 44 36

