# https://github.com/mikedh/trimesh
v -3.71005085 0.44929133 -0.75362951
v -3.71005085 0.65062261 -0.75362951
v -3.69236896 0.44929133 -0.75362951
v -3.71005085 0.44929133 -0.51724090
v -3.70051771 0.65062261 -0.75362951
v -3.71005085 0.65062261 -0.51724090
v -3.53104266 0.52073785 -0.75362951
v -3.61692801 0.44929133 -0.65137798
v -3.54220551 0.44929133 -0.51724090
v -3.53104266 0.58311801 -0.75362951
v -3.60772784 0.65062261 -0.65188709
v -3.53905127 0.65062261 -0.51724090
v -3.53104266 0.47041978 -0.51724090
v -3.53237453 0.45500711 -0.51724090
v -3.53104266 0.64488721 -0.51724090
f 1 2 5
f 1 5 10
f 1 10 7
f 1 7 3
f 1 3 8
f 1 8 9
f 1 9 4
f 1 4 6
f 1 6 2
f 2 6 12
f 2 12 11
f 2 11 5
f 3 7 8
f 4 9 14
f 4 14 13
f 4 13 15
f 4 15 12
f 4 12 6
f 5 11 10
f 7 10 15
f 7 15 13
f 7 13 14
f 7 14 9
f 7 9 8
f 10 11 12
f 10 12 15

