# https://github.com/mikedh/trimesh
v -2.02127440 1.26573172 -3.88156966
v -2.08018882 1.25655686 -3.88156966
v -1.92802559 1.24921697 -3.88156966
v -2.10118653 1.19233287 -3.97691290
v -2.11109193 1.19233287 -3.97691290
v -2.09557564 1.24705266 -3.88156966
v -1.92802559 1.21849298 -3.89889892
v -2.06191025 1.18800422 -3.97339527
v -1.92802559 0.78506328 -3.88156966
v -2.08100888 1.16565520 -3.99096192
v -2.09633096 1.08341083 -4.03859038
v -2.11899034 1.16160885 -3.98755216
v -2.12770884 1.16160885 -3.94616052
v -2.11456638 1.19901404 -3.94616052
v -2.11760921 1.22244521 -3.88156966
v -2.11622806 1.08341083 -4.03859038
v -1.92802559 1.19525000 -3.90932234
v -2.05705466 1.06468471 -4.03181406
v -2.04166785 1.14871700 -3.98528618
v -2.07809552 1.10288976 -4.02389396
v -2.12391066 0.78506328 -3.88156966
v -1.92802559 0.78506328 -3.99534279
v -2.07809552 1.04450002 -4.04497824
v -2.10910654 0.89718474 -4.09359946
v -2.12721246 1.10288976 -4.00792431
v -2.14188711 1.04374722 -4.00505405
v -2.12874467 1.16908989 -3.88156966
v -2.13653522 1.10265451 -3.94616052
v -2.12406174 1.04374722 -4.04538830
v -2.10999134 0.89718474 -4.09359946
v -1.92802559 1.18353441 -3.91435067
v -2.04760246 1.02539750 -4.03744659
v -2.08018882 0.98483993 -4.06168164
v -1.92802559 1.15690380 -3.92399721
v -2.14846916 0.92593264 -4.00505405
v -2.14657009 0.86697831 -4.00505405
v -2.14432572 0.80807099 -4.00505405
v -2.14339776 0.78506328 -4.00505405
v -2.12872311 0.98483993 -3.88156966
v -2.05282491 0.78506328 -4.09249878
v -1.92802559 0.79466162 -3.99426376
v -2.08575657 0.92047476 -4.07885983
v -2.07203146 0.86697831 -4.08442765
v -2.05798262 0.80807099 -4.09021130
v -2.10151025 0.86697831 -4.09599486
v -2.12999633 0.98483993 -4.05384790
v -2.14795122 0.98483993 -4.00505405
v -2.12908998 1.16160885 -3.88156966
v -2.11404844 0.86697831 -4.09599486
v -1.92802559 1.10265451 -3.93977262
v -1.92802559 1.04195930 -3.95431797
v -2.14016072 0.78506328 -4.06399077
v -2.14311722 0.78506328 -4.02803744
v -2.13012585 1.04374722 -3.88156966
v -2.13019056 1.05122824 -3.88156966
v -2.13055742 1.10265451 -3.88156966
v -2.13051426 1.11013555 -3.88156966
v -1.92802559 0.86622549 -3.98453090
v -1.92802559 0.80807099 -3.99275311
v -2.06016223 0.78506328 -4.09508850
v -1.92802559 1.00577742 -3.96113749
v -2.08746141 0.80807099 -4.10054841
v -2.12026360 0.80807099 -4.10054841
v -2.12149366 0.78506328 -4.10203745
v -2.13321181 0.78506328 -4.07972307
v -2.13951331 0.80807099 -4.06399077
v -2.08191526 0.78506328 -4.10180011
f 1 2 6
f 1 6 15
f 1 15 27
f 1 27 48
f 1 48 57
f 1 57 56
f 1 56 55
f 1 55 54
f 1 54 39
f 1 39 21
f 1 21 9
f 1 9 3
f 1 3 4
f 1 4 5
f 1 5 2
f 2 5 6
f 3 7 8
f 3 8 4
f 3 9 22
f 3 22 41
f 3 41 59
f 3 59 58
f 3 58 61
f 3 61 51
f 3 51 50
f 3 50 34
f 3 34 31
f 3 31 17
f 3 17 7
f 4 8 10
f 4 10 11
f 4 11 16
f 4 16 5
f 5 12 13
f 5 13 14
f 5 14 15
f 5 15 6
f 5 16 12
f 7 17 18
f 7 18 19
f 7 19 8
f 8 19 20
f 8 20 10
f 9 21 38
f 9 38 53
f 9 53 52
f 9 52 65
f 9 65 64
f 9 64 67
f 9 67 60
f 9 60 40
f 9 40 22
f 10 20 11
f 11 20 18
f 11 18 23
f 11 23 24
f 11 24 30
f 11 30 16
f 12 16 25
f 12 25 26
f 12 26 13
f 13 27 15
f 13 15 14
f 13 26 28
f 13 28 27
f 16 29 25
f 16 30 29
f 17 31 18
f 18 32 33
f 18 33 23
f 18 20 19
f 18 31 34
f 18 34 32
f 21 35 36
f 21 36 37
f 21 37 38
f 21 39 35
f 22 40 41
f 23 33 24
f 24 33 42
f 24 42 43
f 24 43 44
f 24 44 40
f 24 40 45
f 24 45 49
f 24 49 30
f 25 29 26
f 26 29 46
f 26 46 47
f 26 47 28
f 27 28 47
f 27 47 48
f 29 30 46
f 30 49 46
f 32 34 50
f 32 50 51
f 32 51 40
f 32 40 44
f 32 44 43
f 32 43 42
f 32 42 33
f 35 52 53
f 35 53 36
f 35 39 54
f 35 54 55
f 35 55 56
f 35 56 57
f 35 57 47
f 35 47 52
f 36 53 37
f 37 53 38
f 40 58 59
f 40 59 41
f 40 60 45
f 40 51 61
f 40 61 58
f 45 60 62
f 45 62 63
f 45 63 49
f 46 49 63
f 46 63 64
f 46 64 65
f 46 65 66
f 46 66 47
f 47 57 48
f 47 66 52
f 52 66 65
f 60 67 62
f 62 67 64
f 62 64 63

