# https://github.com/mikedh/trimesh
v -1.49086369 1.33669341 -3.84862335
v -1.49086369 1.30071078 -3.85307811
v -1.54979431 1.30071078 -3.85302143
v -1.54979431 1.33591140 -3.84862335
v -0.96059593 1.33668988 -3.84862335
v -0.66605067 1.30071078 -3.85307724
v -1.64628516 1.30071078 -3.85120526
v -1.64628516 1.31749563 -3.84862335
v -0.66605067 1.33668636 -3.84862335
v -0.66313650 1.33649614 -3.84862335
v -0.60906276 1.30071078 -3.85260105
v -1.64628516 1.30071078 -3.84862335
v -0.60712000 1.33055364 -3.84862335
v -0.60712000 1.30071078 -3.85257317
v -0.54376416 1.30071078 -3.84862335
v -0.59287307 1.32869374 -3.84862335
v -0.54376416 1.30071078 -3.85154841
v -0.54376416 1.32030308 -3.84862335
v -0.54376416 1.31849602 -3.84889371
f 1 2 3
f 1 3 4
f 1 4 8
f 1 8 12
f 1 12 15
f 1 15 18
f 1 18 16
f 1 16 13
f 1 13 10
f 1 10 9
f 1 9 5
f 1 5 2
f 2 5 6
f 2 6 11
f 2 11 14
f 2 14 17
f 2 17 15
f 2 15 12
f 2 12 7
f 2 7 3
f 3 7 4
f 4 7 8
f 5 9 6
f 6 9 10
f 6 10 11
f 7 12 8
f 10 13 11
f 11 13 14
f 13 16 17
f 13 17 14
f 15 17 19
f 15 19 18
f 16 18 19
f 16 19 17

