# https://github.com/mikedh/trimesh
v -2.84560517 0.00384733 -5.05881930
v -2.84560517 0.00384733 -5.03180096
v -2.84560517 0.04166132 -5.08169311
v -2.78730347 0.00384733 -5.05911346
v -2.66949324 0.00384733 -5.03215395
v -2.84560517 0.04214918 -5.02731379
v -2.84560517 0.04214918 -5.08194442
v -2.78730347 0.04214918 -5.08194442
v -2.66949324 0.04214918 -5.08193915
v -2.66949324 0.00384733 -5.05911346
v -2.66949324 0.04214918 -5.02798781
v -2.66949324 0.10094383 -5.02798236
v -2.84560517 0.39564873 -5.02730853
v -2.84560517 0.27781549 -5.08194442
v -2.78730347 0.27781549 -5.08194442
v -2.66949324 2.45785082 -5.08193915
v -2.66949324 2.45785082 -5.02798236
v -2.84560517 2.04604466 -5.02730853
v -2.84560517 2.45785082 -5.08193915
v -2.66949324 2.49615267 -5.05911346
v -2.66949324 2.49615267 -5.03213779
v -2.84560517 2.45833868 -5.02803048
v -2.84560517 2.45785082 -5.02798236
v -2.84560517 2.49615267 -5.05911346
v -2.78730347 2.49615267 -5.03213779
v -2.84560517 2.49615267 -5.03243195
f 1 2 6
f 1 6 13
f 1 13 18
f 1 18 23
f 1 23 22
f 1 22 26
f 1 26 24
f 1 24 19
f 1 19 14
f 1 14 7
f 1 7 3
f 1 3 4
f 1 4 10
f 1 10 5
f 1 5 2
f 2 5 6
f 3 7 8
f 3 8 9
f 3 9 10
f 3 10 4
f 5 10 9
f 5 9 16
f 5 16 20
f 5 20 21
f 5 21 17
f 5 17 12
f 5 12 11
f 5 11 6
f 6 11 12
f 6 12 13
f 7 14 15
f 7 15 8
f 8 15 16
f 8 16 9
f 12 17 18
f 12 18 13
f 14 19 16
f 14 16 15
f 16 19 24
f 16 24 20
f 17 21 22
f 17 22 23
f 17 23 18
f 20 24 26
f 20 26 25
f 20 25 21
f 21 25 22
f 22 25 26

