# https://github.com/mikedh/trimesh
v -1.64639303 0.27587168 -3.79843226
v -1.64639303 -0.01344751 -3.79843226
v -1.64639303 0.27587168 -3.88156966
v -2.26898963 0.27587168 -3.79843226
v -1.66773178 -0.01347587 -3.79843226
v -1.64639303 -0.01050199 -3.82829334
v -1.64639303 -0.00500732 -3.88156966
v -2.08021905 0.27587168 -3.88156966
v -2.17194476 0.27587168 -3.86056353
v -2.27826738 0.07721434 -3.86180061
v -2.27826738 0.18464338 -3.79843226
v -1.66773178 -0.01050199 -3.82829334
v -1.81462897 -0.01339087 -3.79843226
v -1.84450321 -0.01041699 -3.82829334
v -1.78562064 -0.01044535 -3.82829334
v -1.95670174 -0.00500732 -3.88156966
v -2.13440091 0.21877251 -3.88156966
v -2.13910162 0.27587168 -3.88135804
v -2.20386007 0.04662546 -3.88156966
v -2.27826738 0.06376092 -3.86180061
v -2.19959233 0.09718196 -3.88156966
v -2.27826738 0.00023245 -3.79843226
v -1.84450321 -0.01336260 -3.79843226
v -1.90344763 -0.01036035 -3.82829334
v -1.90344763 -0.01330596 -3.79843226
v -1.96233021 -0.01262615 -3.79843226
v -2.13792645 -0.01027536 -3.79843226
v -1.96233021 -0.00486568 -3.88156966
v -2.20386007 0.04486947 -3.88156966
v -2.27826738 0.03430503 -3.83819005
v -2.19309797 0.03651419 -3.88156966
v -2.17608877 0.00646348 -3.86735938
v -2.19730384 -0.00817947 -3.79843226
v -2.27826738 0.00459423 -3.80872779
v -2.01576985 -0.00095708 -3.88156966
v -2.14157566 0.01906727 -3.88156966
f 1 2 6
f 1 6 7
f 1 7 3
f 1 3 8
f 1 8 18
f 1 18 9
f 1 9 4
f 1 4 11
f 1 11 22
f 1 22 33
f 1 33 27
f 1 27 26
f 1 26 25
f 1 25 23
f 1 23 13
f 1 13 5
f 1 5 2
f 2 5 6
f 3 7 16
f 3 16 28
f 3 28 35
f 3 35 36
f 3 36 31
f 3 31 29
f 3 29 19
f 3 19 21
f 3 21 17
f 3 17 8
f 4 9 10
f 4 10 11
f 5 12 6
f 5 13 14
f 5 14 15
f 5 15 12
f 6 12 16
f 6 16 7
f 8 17 18
f 9 18 10
f 10 19 29
f 10 29 20
f 10 20 30
f 10 30 34
f 10 34 22
f 10 22 11
f 10 18 21
f 10 21 19
f 12 15 16
f 13 23 14
f 14 23 25
f 14 25 24
f 14 24 16
f 14 16 15
f 16 24 25
f 16 25 26
f 16 26 27
f 16 27 28
f 17 21 18
f 20 29 31
f 20 31 32
f 20 32 30
f 22 34 32
f 22 32 33
f 27 33 28
f 28 33 32
f 28 32 35
f 30 32 34
f 31 36 32
f 32 36 35

