# https://github.com/mikedh/trimesh
v -2.90516665 1.45188903 -3.62137717
v -2.85740367 1.45188903 -3.62168613
v -2.93197970 1.45188903 -3.62137717
v -2.80849224 0.92578831 -3.62137717
v -2.85359570 1.45188903 -3.62172046
v -2.93197970 1.45188903 -3.79618889
v -2.93197970 0.04208324 -3.62137717
v -2.80849224 1.45188903 -3.62221827
v -2.80849224 0.04208324 -3.62137717
v -2.80849224 1.45188903 -3.79618889
v -2.80849224 0.59355210 -3.79672101
v -2.93197970 0.10103533 -3.79618889
v -2.93197970 0.02824610 -3.62153165
v -2.80849224 0.03112884 -3.62149732
v -2.80849224 0.51355599 -3.79672101
v -2.80849224 0.10103533 -3.79641206
v -2.93197970 0.04208324 -3.79478133
v -2.93197970 0.01181450 -3.62172046
v -2.80849224 0.01181450 -3.62172046
v -2.80849224 0.04208324 -3.79497016
v -2.93197970 0.01685925 -3.77945269
v -2.93197970 -0.00432891 -3.65151949
v -2.90516665 -0.00461718 -3.65151949
v -2.80849224 0.00590485 -3.63243163
v -2.80849224 -0.00404064 -3.76663022
v -2.93197970 -0.00404064 -3.76663022
v -2.93197970 -0.02018396 -3.71043090
v -2.90516665 -0.02061642 -3.71043090
v -2.84624564 -0.00461718 -3.65151949
v -2.80849224 -0.00418482 -3.65151949
v -2.80849224 -0.02003987 -3.71043090
v -2.84624564 -0.02061642 -3.71043090
v -2.93197970 -0.01312130 -3.73600727
f 1 2 5
f 1 5 8
f 1 8 10
f 1 10 6
f 1 6 3
f 1 3 7
f 1 7 9
f 1 9 4
f 1 4 2
f 2 4 5
f 3 6 12
f 3 12 17
f 3 17 21
f 3 21 26
f 3 26 33
f 3 33 27
f 3 27 22
f 3 22 18
f 3 18 13
f 3 13 7
f 4 8 5
f 4 9 14
f 4 14 19
f 4 19 24
f 4 24 30
f 4 30 31
f 4 31 25
f 4 25 20
f 4 20 16
f 4 16 15
f 4 15 11
f 4 11 10
f 4 10 8
f 6 10 11
f 6 11 15
f 6 15 12
f 7 13 14
f 7 14 9
f 12 15 16
f 12 16 17
f 13 18 14
f 14 18 19
f 16 20 17
f 17 20 21
f 18 22 23
f 18 23 24
f 18 24 19
f 20 25 26
f 20 26 21
f 22 27 28
f 22 28 23
f 23 29 24
f 23 28 32
f 23 32 29
f 24 29 30
f 25 31 32
f 25 32 33
f 25 33 26
f 27 33 28
f 28 33 32
f 29 32 30
f 30 32 31

