# https://github.com/mikedh/trimesh
v -5.61983171 0.78954378 0.74176689
v -5.61534657 0.80645423 0.73263754
v -5.61648619 0.78954378 0.73519805
v -5.61884827 0.75480448 0.74176689
v -5.61955582 0.80667824 0.74176689
v -5.61451931 0.82293919 0.73371657
v -5.61073281 0.81624217 0.72545385
v -5.61073281 0.81194176 0.72545385
v -5.61621962 0.75480448 0.73771372
v -5.57698430 0.62283543 0.68926662
v -5.61773620 0.73742359 0.74176689
v -5.61777287 0.82354392 0.74176689
v -5.61314067 0.83648998 0.73912249
v -5.60182696 0.82714999 0.72761170
v -5.57855578 0.83382461 0.72505130
v -5.53160021 0.80690220 0.70486963
v -5.54361256 0.80107871 0.70613870
v -5.54673749 0.78954378 0.70422111
v -5.55934720 0.69871987 0.69021143
v -5.56760040 0.62283543 0.68466000
v -5.57803195 0.62283543 0.69979346
v -5.61264439 0.70333384 0.74176689
v -5.61566824 0.72006518 0.74176689
v -5.61359117 0.83709472 0.74176689
v -5.60145019 0.84191030 0.74176689
v -5.60182696 0.83906574 0.73629935
v -5.56708589 0.83487731 0.72434686
v -5.52595702 0.81731729 0.70805618
v -5.52595702 0.81565983 0.70706114
v -5.58439201 0.83971527 0.73300095
v -5.56866669 0.84491163 0.73542165
v -5.52595702 0.80690220 0.70428263
v -5.53233551 0.78954378 0.70193464
v -5.55380509 0.69871987 0.69021143
v -5.55174645 0.66794504 0.68843366
v -5.55229783 0.63318331 0.68651048
v -5.55246332 0.62283543 0.68604092
v -5.55150743 0.68532587 0.68940074
v -5.57788489 0.62283543 0.70339374
v -5.61230449 0.70268429 0.74176689
v -5.57675439 0.62283543 0.70943710
v -5.57430967 0.84936880 0.74176689
v -5.54971515 0.83572843 0.72374867
v -5.54971515 0.84439645 0.73265991
v -5.52595702 0.83263752 0.72000308
v -5.56407115 0.85075749 0.74176689
v -5.56362086 0.85080228 0.74176689
v -5.52595702 0.78983495 0.70338815
v -5.54281305 0.68532587 0.69189414
v -5.54651690 0.62283543 0.69954749
v -5.54306119 0.66794504 0.69396821
v -5.53782231 0.68532587 0.70058178
v -5.57307809 0.64467350 0.74176689
v -5.57299544 0.62283543 0.71156150
v -5.56450322 0.63826767 0.74176689
v -5.56800492 0.64077624 0.74176689
v -5.52595702 0.83615399 0.72319523
v -5.54971515 0.85127266 0.74134756
v -5.53233551 0.84473243 0.73243073
v -5.52595702 0.84164150 0.72892551
v -5.55926435 0.85104865 0.74176689
v -5.52595702 0.75480448 0.70941473
v -5.52595702 0.65040735 0.74176689
v -5.55245400 0.62283543 0.71289758
v -5.56708589 0.62283543 0.71409395
v -5.56075339 0.63784207 0.74176689
v -5.54971515 0.85138464 0.74176689
v -5.53233551 0.85158620 0.74176689
v -5.53233551 0.85140704 0.74111837
v -5.52595702 0.84905526 0.73783675
v -5.52595702 0.84484441 0.73234125
v -5.52824557 0.64915309 0.74176689
v -5.52595702 0.85165341 0.74176689
v -5.54728886 0.63893959 0.74176689
v -5.54971515 0.63851405 0.74176689
v -5.56076250 0.62283543 0.71376410
v -5.52595702 0.85145183 0.74102890
f 1 2 3
f 1 3 4
f 1 4 11
f 1 11 23
f 1 23 22
f 1 22 40
f 1 40 53
f 1 53 56
f 1 56 55
f 1 55 66
f 1 66 75
f 1 75 74
f 1 74 72
f 1 72 63
f 1 63 73
f 1 73 68
f 1 68 67
f 1 67 61
f 1 61 47
f 1 47 46
f 1 46 42
f 1 42 25
f 1 25 24
f 1 24 12
f 1 12 5
f 1 5 2
f 2 5 6
f 2 6 7
f 2 7 8
f 2 8 3
f 3 9 4
f 3 8 10
f 3 10 9
f 4 9 10
f 4 10 11
f 5 12 6
f 6 12 13
f 6 13 7
f 7 13 14
f 7 14 15
f 7 15 16
f 7 16 17
f 7 17 18
f 7 18 19
f 7 19 20
f 7 20 10
f 7 10 8
f 10 20 37
f 10 37 50
f 10 50 64
f 10 64 76
f 10 76 65
f 10 65 54
f 10 54 41
f 10 41 39
f 10 39 21
f 10 21 22
f 10 22 23
f 10 23 11
f 12 24 13
f 13 24 25
f 13 25 26
f 13 26 14
f 14 26 15
f 15 27 28
f 15 28 29
f 15 29 16
f 15 26 30
f 15 30 31
f 15 31 27
f 16 29 32
f 16 32 33
f 16 33 19
f 16 19 18
f 16 18 17
f 19 34 20
f 19 33 34
f 20 35 36
f 20 36 37
f 20 34 38
f 20 38 35
f 21 39 22
f 22 39 41
f 22 41 40
f 25 42 26
f 26 42 30
f 27 43 28
f 27 31 44
f 27 44 43
f 28 43 45
f 28 45 57
f 28 57 60
f 28 60 71
f 28 71 70
f 28 70 77
f 28 77 73
f 28 73 63
f 28 63 62
f 28 62 48
f 28 48 32
f 28 32 29
f 30 42 31
f 31 42 46
f 31 46 47
f 31 47 44
f 32 48 49
f 32 49 38
f 32 38 34
f 32 34 33
f 35 38 49
f 35 49 36
f 36 49 37
f 37 49 51
f 37 51 52
f 37 52 50
f 40 41 53
f 41 54 55
f 41 55 56
f 41 56 53
f 43 57 45
f 43 44 57
f 44 47 58
f 44 58 59
f 44 59 60
f 44 60 57
f 47 61 58
f 48 62 51
f 48 51 49
f 50 63 64
f 50 52 63
f 51 62 52
f 52 62 63
f 54 65 55
f 55 65 66
f 58 67 68
f 58 68 69
f 58 69 70
f 58 70 71
f 58 71 59
f 58 61 67
f 59 71 60
f 63 72 64
f 64 74 75
f 64 75 66
f 64 66 76
f 64 72 74
f 65 76 66
f 68 73 77
f 68 77 69
f 69 77 70

