# https://github.com/mikedh/trimesh
v -6.31425488 0.14972162 4.28052223
v -6.31425488 0.14972162 4.29460420
v -6.31425488 0.16424477 4.27760733
v -6.31412397 0.14972162 4.27760733
v -4.97716388 0.14972162 4.29460420
v -6.31425488 0.93120540 4.29460420
v -6.31425488 0.63336558 4.27760733
v -4.97716388 0.14972162 4.27760898
v -4.97716388 2.47480883 4.27760898
v -4.97716388 0.93120540 4.29460420
v -6.31425488 2.47480883 4.29460254
v -6.31425488 2.47480883 4.27760898
v -4.97716388 2.49209817 4.27768376
v -4.97716388 2.47480883 4.29460254
v -4.97716388 2.49140657 4.29454268
v -6.31425488 2.49209817 4.29453937
v -6.31425488 2.49209817 4.27768376
v -4.97716388 2.49278977 4.27792009
v -4.97716388 2.49209817 4.29453937
v -6.31425488 2.50477726 4.29099045
v -6.31425488 2.50477726 4.28263348
v -4.97716388 2.50477726 4.28263348
v -4.97716388 2.50477726 4.29099045
f 1 2 6
f 1 6 11
f 1 11 16
f 1 16 20
f 1 20 21
f 1 21 17
f 1 17 12
f 1 12 7
f 1 7 3
f 1 3 4
f 1 4 8
f 1 8 5
f 1 5 2
f 2 5 10
f 2 10 6
f 3 7 4
f 4 7 9
f 4 9 8
f 5 8 9
f 5 9 13
f 5 13 18
f 5 18 22
f 5 22 23
f 5 23 19
f 5 19 15
f 5 15 14
f 5 14 10
f 6 10 14
f 6 14 11
f 7 12 9
f 9 12 17
f 9 17 13
f 11 14 15
f 11 15 16
f 13 17 18
f 15 19 16
f 16 19 23
f 16 23 20
f 17 21 18
f 18 21 22
f 20 23 22
f 20 22 21

