# https://github.com/mikedh/trimesh
v -6.74174572 0.56321319 0.63795205
v -6.71813962 0.56321319 0.63795205
v -6.74174572 0.56321319 0.64365427
v -6.74241578 0.59842967 0.64742772
v -6.74208790 0.58572494 0.63795205
v -6.71813962 0.65963146 0.63795205
v -6.71813962 0.56321319 0.65254293
v -6.73121392 0.56321319 0.64960804
v -6.71813962 0.59038774 1.49462183
v -6.73121392 0.59496562 1.49462183
v -6.73361411 0.59655133 1.49462183
v -6.74118482 0.60157282 1.49462183
v -6.74051000 0.65055120 0.63795205
v -6.74212580 0.59818427 0.63795205
v -6.74118482 0.60816118 1.49462183
v -6.74050772 0.65055120 1.49462183
v -6.73121392 0.65947099 0.63795205
v -6.73121392 0.65945209 1.49462183
v -6.71813962 0.65960314 1.49462183
v -6.71824650 0.56321319 0.65321372
v -6.71860297 0.56321319 0.65312993
v -6.74024156 0.65450609 0.63795205
v -6.74005619 0.65715846 1.49462183
v -6.73517295 0.65937659 0.63795205
v -6.73782004 0.65930109 1.49462183
v -6.73991348 0.65924444 0.63795205
v -6.73991348 0.65924444 1.49462183
f 1 2 7
f 1 7 20
f 1 20 21
f 1 21 8
f 1 8 3
f 1 3 4
f 1 4 5
f 1 5 14
f 1 14 13
f 1 13 22
f 1 22 26
f 1 26 24
f 1 24 17
f 1 17 6
f 1 6 2
f 2 6 19
f 2 19 9
f 2 9 7
f 3 8 9
f 3 9 10
f 3 10 11
f 3 11 12
f 3 12 4
f 4 13 14
f 4 14 5
f 4 12 15
f 4 15 16
f 4 16 13
f 6 17 18
f 6 18 19
f 7 9 20
f 8 21 9
f 9 19 18
f 9 18 25
f 9 25 27
f 9 27 23
f 9 23 16
f 9 16 15
f 9 15 12
f 9 12 11
f 9 11 10
f 9 21 20
f 13 16 22
f 16 23 22
f 17 24 25
f 17 25 18
f 22 23 27
f 22 27 26
f 24 26 27
f 24 27 25

