# https://github.com/mikedh/trimesh
v -1.05920468 0.90955189 -0.23974976
v -1.14703747 0.90955189 -0.23974976
v -1.05920468 0.85888858 -0.23974976
v -1.05920468 0.91627033 -0.30366057
v -1.14703747 0.89258735 -0.23974976
v -1.14703747 0.91627033 -0.30366057
v -1.06171527 0.85888858 -0.23974976
v -1.05920468 0.85888858 -0.33082802
v -1.05920468 0.91627033 -0.32652163
v -1.14703747 0.89180654 -0.30820784
v -1.14703747 0.91627033 -0.32652163
v -1.06171527 0.85888858 -0.30820784
v -1.06021919 0.85888858 -0.32562995
v -1.14703747 0.89500844 -0.31644634
v -1.14703747 0.89705879 -0.32170696
v -1.14703747 0.91118095 -0.32652163
v -1.05920468 0.85905708 -0.33082802
f 1 2 5
f 1 5 7
f 1 7 3
f 1 3 8
f 1 8 17
f 1 17 9
f 1 9 4
f 1 4 6
f 1 6 2
f 2 6 11
f 2 11 16
f 2 16 15
f 2 15 14
f 2 14 10
f 2 10 5
f 3 7 12
f 3 12 13
f 3 13 8
f 4 9 11
f 4 11 6
f 5 10 7
f 7 10 12
f 8 13 10
f 8 10 14
f 8 14 15
f 8 15 16
f 8 16 11
f 8 11 17
f 9 17 11
f 10 13 12

