# https://github.com/mikedh/trimesh
v -5.62303514 0.44101922 0.79151848
v -5.62303514 0.44101922 0.78623455
v -5.63871924 0.44101922 0.79151848
v -5.62303514 0.35148276 0.79151848
v -5.63706305 0.44101922 0.79067112
v -5.62303514 0.39015981 0.77442001
v -5.62723962 0.29558715 0.74177176
v -5.62734194 0.29692085 0.74204444
v -5.62810604 0.29745834 0.74177176
v -5.63301599 0.30546050 0.74177176
v -5.63998417 0.31465696 0.74177176
v -5.64087979 0.31577172 0.74177176
v -5.64802713 0.31565220 0.74177176
v -5.63834994 0.44101922 0.79121172
v -5.63931142 0.44046189 0.79151848
v -5.62303514 0.34891490 0.78288406
v -5.63652556 0.34827788 0.79151848
v -5.64393989 0.27607948 0.76077435
v -5.64228370 0.23991058 0.74403141
v -5.64017059 0.23768107 0.74177176
v -5.63456613 0.24434953 0.74177176
v -5.63190827 0.24765394 0.74177176
v -5.62946976 0.25111752 0.74177176
v -5.62755404 0.25814432 0.74352488
v -5.62739310 0.25689027 0.74177176
v -5.62664372 0.26831614 0.74561407
v -5.62303514 0.37224459 0.77172207
v -5.62648278 0.28569392 0.74177176
v -5.65145654 0.30776956 0.74177176
v -5.65174901 0.33780748 0.75500834
v -5.64859031 0.35166192 0.75807154
v -5.64604575 0.39951555 0.77733232
v -5.65023532 0.42401965 0.79151848
v -5.62303514 0.35496633 0.77622678
v -5.62667292 0.26797780 0.74177176
v -5.64603830 0.27607948 0.76077435
v -5.63728965 0.34831775 0.79151848
v -5.64700724 0.23991058 0.74403141
v -5.64839644 0.23837774 0.74177176
v -5.62303514 0.35932564 0.77246721
v -5.62653767 0.27966247 0.74177176
v -5.65494415 0.29333785 0.74177176
v -5.66038063 0.39477797 0.79151848
v -5.65851979 0.40172508 0.79151848
v -5.64887180 0.38992094 0.77520895
v -5.64866343 0.32383353 0.78009354
v -5.64997206 0.35387145 0.79151848
v -5.64986249 0.25093836 0.74649074
v -5.65094825 0.24387179 0.74177176
v -5.65693299 0.27578091 0.74177176
v -5.65789820 0.30307180 0.75167721
v -5.65857448 0.37254316 0.78641962
v -5.65748871 0.37809687 0.79151848
v -5.65662230 0.28569392 0.75167721
v -5.65181467 0.35556348 0.79151848
v -5.65298825 0.35902706 0.79151848
v -5.65237039 0.30307180 0.76677421
v -5.65491122 0.25872158 0.74177176
f 1 2 5
f 1 5 14
f 1 14 3
f 1 3 15
f 1 15 33
f 1 33 44
f 1 44 43
f 1 43 53
f 1 53 56
f 1 56 55
f 1 55 47
f 1 47 37
f 1 37 17
f 1 17 4
f 1 4 16
f 1 16 34
f 1 34 40
f 1 40 27
f 1 27 6
f 1 6 2
f 2 6 7
f 2 7 8
f 2 8 9
f 2 9 10
f 2 10 11
f 2 11 12
f 2 12 13
f 2 13 5
f 3 14 15
f 4 17 18
f 4 18 19
f 4 19 20
f 4 20 21
f 4 21 22
f 4 22 23
f 4 23 24
f 4 24 25
f 4 25 26
f 4 26 16
f 5 13 14
f 6 27 28
f 6 28 7
f 7 28 41
f 7 41 35
f 7 35 25
f 7 25 23
f 7 23 22
f 7 22 21
f 7 21 20
f 7 20 39
f 7 39 49
f 7 49 58
f 7 58 50
f 7 50 42
f 7 42 29
f 7 29 13
f 7 13 12
f 7 12 11
f 7 11 10
f 7 10 9
f 7 9 8
f 13 29 30
f 13 30 31
f 13 31 32
f 13 32 14
f 14 32 15
f 15 32 33
f 16 26 35
f 16 35 34
f 17 36 18
f 17 37 36
f 18 36 38
f 18 38 19
f 19 38 20
f 20 38 39
f 23 25 24
f 25 35 26
f 27 40 28
f 28 40 41
f 29 42 43
f 29 43 44
f 29 44 30
f 30 44 33
f 30 33 31
f 31 33 45
f 31 45 32
f 32 45 33
f 34 35 40
f 35 41 40
f 36 37 46
f 36 46 38
f 37 47 46
f 38 48 39
f 38 46 48
f 39 48 49
f 42 50 51
f 42 51 43
f 43 52 53
f 43 51 54
f 43 54 52
f 46 47 55
f 46 55 48
f 48 55 56
f 48 56 49
f 49 57 54
f 49 54 58
f 49 56 57
f 50 54 51
f 50 58 54
f 52 54 53
f 53 54 56
f 54 57 56

