# https://github.com/mikedh/trimesh
v -3.10426026 0.47604021 1.80292847
v -3.10426026 0.43773138 1.80292847
v -3.10426026 0.47483054 1.81156397
v -2.65903802 0.45992327 1.82893601
v -2.65903802 0.46071491 1.81999740
v -2.65903802 0.46117742 1.81155803
v -2.65903802 0.46160437 1.80292847
v -3.10426026 0.39023453 1.83118255
v -2.65903802 0.43854078 1.80292847
v -2.65903802 0.39077710 1.83082595
v -3.10426026 0.47004527 1.82602978
v -2.65903802 0.45800206 1.83798754
v -3.04764316 0.38518244 1.84629616
v -3.06503365 0.38530697 1.84629616
v -3.10426026 0.38693468 1.84197544
v -2.70022597 0.38520025 1.84629616
v -2.65903802 0.38648107 1.84629616
v -2.68283550 0.38556490 1.84629616
v -3.10426026 0.45673014 1.84574344
v -3.06503365 0.45101985 1.85528231
v -3.04764316 0.45114438 1.85541306
v -2.71757284 0.45112657 1.85539524
v -2.70022597 0.45110881 1.85537740
v -2.65903802 0.45330576 1.85101508
v -2.65903802 0.45552937 1.84541656
v -3.04764316 0.39320531 1.85877693
v -3.06503365 0.39332984 1.85862834
v -3.08242410 0.38593850 1.84629616
v -3.10426026 0.38682796 1.84629616
v -2.70022597 0.39322312 1.85874721
v -2.65903802 0.39416591 1.85782006
v -2.66548859 0.39396138 1.85800430
v -2.68283550 0.39348105 1.85847977
v -3.10426026 0.44955224 1.85422441
v -3.07601708 0.45082416 1.85508024
v -3.04764316 0.44204527 1.85935342
v -3.06503365 0.44204527 1.85906219
v -2.94338750 0.44204527 1.85938314
v -2.82182855 0.44204527 1.85938314
v -2.71757284 0.44204527 1.85929993
v -2.70022597 0.44204527 1.85928210
v -2.68627869 0.45095760 1.85522288
v -2.67468504 0.45068187 1.85492572
v -2.65903802 0.44992580 1.85429573
v -2.82182855 0.40731208 1.86342452
v -2.92604061 0.40731208 1.86342452
v -2.94338750 0.40731208 1.86341263
v -3.04764316 0.40731208 1.86322245
v -3.06503365 0.40731208 1.86290152
v -3.08242410 0.39373012 1.85823015
v -3.10426026 0.39248487 1.85481280
v -2.70022597 0.40731208 1.86315114
v -2.71757284 0.40731208 1.86319273
v -2.65903802 0.40731208 1.86120770
v -2.68283550 0.40731208 1.86257464
v -3.10426026 0.44087117 1.85772497
v -3.09977098 0.44110243 1.85786761
v -3.08203184 0.44358402 1.85773686
v -3.04764316 0.42469199 1.86337104
v -2.94338750 0.42469199 1.86362660
v -2.92604061 0.42469199 1.86363848
v -3.06503365 0.42469199 1.86303227
v -2.82182855 0.42469199 1.86364442
v -2.71757284 0.42467422 1.86334726
v -2.70022597 0.42467422 1.86328783
v -2.68283550 0.42467422 1.86270538
v -2.66548859 0.44156495 1.85812317
v -2.68144076 0.44375299 1.85802807
v -2.65903802 0.44124473 1.85793893
v -2.65903802 0.44446457 1.85659576
v -3.08242410 0.40731208 1.86204570
v -3.10426026 0.39441498 1.85761800
v -3.09977098 0.39424597 1.85774875
v -2.65903802 0.42467422 1.86132656
v -3.10426026 0.42469199 1.86089271
v -3.09977098 0.42469199 1.86116016
v -3.08242410 0.42469199 1.86216456
v -2.65903802 0.43061578 1.86019141
v -3.09977098 0.40731208 1.86105318
v -3.10426026 0.40413672 1.86007849
v -3.10426026 0.42024475 1.86086894
v -3.10426026 0.40731208 1.86077384
f 1 2 8
f 1 8 15
f 1 15 29
f 1 29 51
f 1 51 72
f 1 72 80
f 1 80 82
f 1 82 81
f 1 81 75
f 1 75 56
f 1 56 34
f 1 34 19
f 1 19 11
f 1 11 3
f 1 3 4
f 1 4 5
f 1 5 6
f 1 6 7
f 1 7 9
f 1 9 2
f 2 9 10
f 2 10 8
f 3 11 12
f 3 12 4
f 4 12 25
f 4 25 24
f 4 24 44
f 4 44 70
f 4 70 69
f 4 69 78
f 4 78 74
f 4 74 54
f 4 54 31
f 4 31 17
f 4 17 10
f 4 10 9
f 4 9 7
f 4 7 6
f 4 6 5
f 8 13 14
f 8 14 15
f 8 10 16
f 8 16 13
f 10 17 18
f 10 18 16
f 11 19 20
f 11 20 21
f 11 21 22
f 11 22 23
f 11 23 24
f 11 24 25
f 11 25 12
f 13 16 26
f 13 26 14
f 14 26 27
f 14 27 28
f 14 28 15
f 15 28 29
f 16 18 30
f 16 30 26
f 17 31 32
f 17 32 33
f 17 33 18
f 18 33 30
f 19 34 35
f 19 35 20
f 20 36 21
f 20 35 37
f 20 37 36
f 21 36 38
f 21 38 39
f 21 39 22
f 22 40 41
f 22 41 23
f 22 39 40
f 23 41 42
f 23 42 24
f 24 42 43
f 24 43 44
f 26 45 46
f 26 46 47
f 26 47 48
f 26 48 27
f 26 30 45
f 27 48 49
f 27 49 50
f 27 50 28
f 28 50 29
f 29 50 51
f 30 33 52
f 30 52 53
f 30 53 45
f 31 54 55
f 31 55 32
f 32 55 33
f 33 55 52
f 34 56 57
f 34 57 58
f 34 58 35
f 35 58 37
f 36 37 59
f 36 59 60
f 36 60 61
f 36 61 38
f 37 58 57
f 37 57 62
f 37 62 59
f 38 61 63
f 38 63 39
f 39 63 40
f 40 63 41
f 41 63 64
f 41 64 65
f 41 65 66
f 41 66 67
f 41 67 68
f 41 68 42
f 42 68 43
f 43 68 69
f 43 69 70
f 43 70 44
f 45 63 46
f 45 53 63
f 46 63 61
f 46 61 60
f 46 60 47
f 47 60 48
f 48 60 59
f 48 59 49
f 49 59 62
f 49 62 71
f 49 71 72
f 49 72 73
f 49 73 50
f 50 73 51
f 51 73 72
f 52 55 65
f 52 65 64
f 52 64 63
f 52 63 53
f 54 74 66
f 54 66 55
f 55 66 65
f 56 75 76
f 56 76 77
f 56 77 62
f 56 62 57
f 62 77 71
f 66 74 78
f 66 78 69
f 66 69 67
f 67 69 68
f 71 77 79
f 71 79 80
f 71 80 72
f 75 81 76
f 76 79 77
f 76 81 79
f 79 81 82
f 79 82 80

