# https://github.com/mikedh/trimesh
v -3.04833359 0.35278020 1.44582925
v -3.06032761 0.35682903 1.44582925
v -3.03486086 0.35818820 1.44582925
v -3.01647175 0.35834002 1.53354169
v -3.01294556 0.35593972 1.58566856
v -3.01294556 0.35563608 1.59535907
v -3.01877195 0.35683617 1.59535907
v -3.06340511 0.38429557 1.47832619
v -3.06340511 0.36595319 1.44582925
v -3.02610866 0.35865092 1.58566856
v -3.02513548 0.35937390 1.59535907
v -3.03437429 0.35865092 1.44582925
v -3.01995998 0.36118864 1.49880513
v -3.01821587 0.35933775 1.51618074
v -3.00158980 0.36013302 1.59535907
v -3.00619026 0.35781951 1.59535907
v -3.06340511 0.38866249 1.48129779
v -3.02864269 0.37255414 1.59535907
v -3.06340511 0.42630882 1.44582925
v -3.02592541 0.37367480 1.44582925
v -3.02109745 0.36287321 1.48744585
v -3.00370678 0.36284432 1.57423606
v -3.00255667 0.36115975 1.58566856
v -2.99885355 0.37255414 1.59535907
v -3.06340511 0.40548656 1.48055120
v -3.02753681 0.38223501 1.59535907
v -3.06340511 0.42664142 1.47444706
v -3.04104113 0.42664142 1.44582925
v -3.06340511 0.42664142 1.45188948
v -3.02143869 0.38992772 1.44582925
v -2.99958028 0.38035528 1.59535907
v -3.02162829 0.39490194 1.44582925
v -3.02629824 0.38992772 1.59535907
v -3.03000134 0.42664142 1.44667826
v -3.02477528 0.39509711 1.59535907
v -3.02279103 0.39944233 1.59535907
v -3.01260432 0.39998459 1.59535907
v -3.00346664 0.39923991 1.59535907
v -3.02926829 0.42664142 1.44582925
v -3.00081253 0.39015184 1.59535907
v -3.00219648 0.39575505 1.59535907
v -3.00373836 0.39905914 1.59098226
f 1 2 9
f 1 9 19
f 1 19 28
f 1 28 39
f 1 39 32
f 1 32 30
f 1 30 20
f 1 20 12
f 1 12 3
f 1 3 4
f 1 4 5
f 1 5 6
f 1 6 7
f 1 7 2
f 2 8 9
f 2 7 10
f 2 10 11
f 2 11 8
f 3 12 13
f 3 13 14
f 3 14 4
f 4 14 15
f 4 15 16
f 4 16 5
f 5 16 6
f 6 16 15
f 6 15 24
f 6 24 31
f 6 31 40
f 6 40 41
f 6 41 38
f 6 38 37
f 6 37 36
f 6 36 35
f 6 35 33
f 6 33 26
f 6 26 18
f 6 18 11
f 6 11 7
f 7 11 10
f 8 17 25
f 8 25 27
f 8 27 29
f 8 29 19
f 8 19 9
f 8 11 18
f 8 18 17
f 12 20 21
f 12 21 13
f 13 21 22
f 13 22 23
f 13 23 14
f 14 23 15
f 15 23 24
f 17 18 25
f 18 26 27
f 18 27 25
f 19 29 28
f 20 30 22
f 20 22 21
f 22 24 23
f 22 30 24
f 24 30 32
f 24 32 31
f 26 33 27
f 27 34 39
f 27 39 28
f 27 28 29
f 27 33 35
f 27 35 36
f 27 36 37
f 27 37 38
f 27 38 34
f 31 32 40
f 32 39 40
f 34 38 39
f 38 41 42
f 38 42 39
f 39 42 41
f 39 41 40

