# https://github.com/mikedh/trimesh
v -4.09429787 0.51897353 2.65463015
v -4.09429787 0.51404167 2.65463015
v -4.09429787 0.51897353 2.57468410
v -4.38964569 0.51897353 2.65463015
v -4.09429787 0.50924522 2.65444233
v -4.09863481 0.50360426 2.65463015
v -4.09429787 0.47094550 2.57468410
v -4.32525610 0.51897353 2.57468410
v -4.38079824 0.51897353 2.63726350
v -4.38848919 0.51110165 2.65463015
v -4.09429787 0.47790110 2.59407775
v -4.09964678 0.50232147 2.65463015
v -4.09429787 0.47106501 2.57581890
v -4.13081515 0.44866041 2.57468410
v -4.34708556 0.51883009 2.57468410
v -4.34763487 0.51897353 2.57595193
v -4.37877429 0.51897353 2.63337380
v -4.37845635 0.51506151 2.63400777
v -4.38250414 0.51018537 2.64400979
v -4.37669256 0.50347677 2.63719307
v -4.38195484 0.49460095 2.65463015
v -4.09429787 0.47111281 2.57626500
v -4.10647028 0.49386798 2.65463015
v -4.11205055 0.48702387 2.65463015
v -4.11471053 0.48388470 2.65463015
v -4.15857178 0.44321068 2.65463015
v -4.17062856 0.43757764 2.65463015
v -4.14235153 0.44389585 2.57468410
v -4.34546635 0.51251985 2.57468410
v -4.37926591 0.49417872 2.65009090
v -4.34477247 0.51071919 2.57468410
v -4.34367376 0.50007465 2.58153214
v -4.33815133 0.49664064 2.57468410
v -4.37741544 0.48588451 2.65463015
v -4.16574222 0.43757764 2.57468410
v -4.31857717 0.43757764 2.65463015
v -4.37692392 0.48543039 2.65416841
v -4.33690805 0.49423449 2.57468410
v -4.37703960 0.48524713 2.65463015
v -4.25739692 0.43757764 2.57468410
v -4.33445048 0.44228642 2.65463015
v -4.28139480 0.44319473 2.57468410
v -4.37669256 0.48479300 2.65463015
v -4.33624307 0.49309513 2.57468410
v -4.32829196 0.48061804 2.57468410
v -4.32181540 0.47198124 2.57468410
v -4.36136865 0.46653949 2.65463015
v -4.36067467 0.46709718 2.65225098
v -4.31311263 0.46313737 2.57468410
v -4.30148947 0.45364011 2.57468410
v -4.29374073 0.44818236 2.57468410
v -4.36963780 0.47586938 2.65463015
v -4.32112152 0.47108096 2.57468410
v -4.36330581 0.46849948 2.65463015
f 1 2 5
f 1 5 11
f 1 11 22
f 1 22 13
f 1 13 7
f 1 7 3
f 1 3 8
f 1 8 16
f 1 16 17
f 1 17 9
f 1 9 4
f 1 4 10
f 1 10 21
f 1 21 34
f 1 34 39
f 1 39 43
f 1 43 52
f 1 52 54
f 1 54 47
f 1 47 41
f 1 41 36
f 1 36 27
f 1 27 26
f 1 26 25
f 1 25 24
f 1 24 23
f 1 23 12
f 1 12 6
f 1 6 2
f 2 6 5
f 3 7 14
f 3 14 28
f 3 28 35
f 3 35 40
f 3 40 42
f 3 42 51
f 3 51 50
f 3 50 49
f 3 49 53
f 3 53 46
f 3 46 45
f 3 45 44
f 3 44 38
f 3 38 33
f 3 33 31
f 3 31 29
f 3 29 15
f 3 15 8
f 4 9 10
f 5 6 11
f 6 12 11
f 7 13 14
f 8 15 16
f 9 17 18
f 9 18 10
f 10 19 20
f 10 20 21
f 10 18 19
f 11 12 23
f 11 23 24
f 11 24 25
f 11 25 26
f 11 26 22
f 13 22 14
f 14 22 26
f 14 26 27
f 14 27 28
f 15 29 18
f 15 18 17
f 15 17 16
f 18 29 19
f 19 29 20
f 20 30 21
f 20 29 31
f 20 31 32
f 20 32 33
f 20 33 30
f 21 30 34
f 27 35 28
f 27 36 40
f 27 40 35
f 30 37 34
f 30 33 38
f 30 38 37
f 31 33 32
f 34 37 39
f 36 41 42
f 36 42 40
f 37 43 39
f 37 38 44
f 37 44 45
f 37 45 46
f 37 46 43
f 41 47 48
f 41 48 49
f 41 49 50
f 41 50 51
f 41 51 42
f 43 46 53
f 43 53 52
f 47 54 48
f 48 54 53
f 48 53 49
f 52 53 54

