# https://github.com/mikedh/trimesh
v -1.65031270 1.60661443 -0.30755705
v -1.65016492 1.60477540 -0.30171668
v -1.64977086 1.61682410 -0.31291274
v -1.64977086 1.61682410 -0.32221835
v -1.65011562 1.60617050 -0.32433126
v -1.64114970 0.97894122 -0.30821551
v -1.64114970 0.97894122 -0.29147236
v -1.64814512 1.61238510 -0.30171668
v -1.64114970 1.19201274 -0.29147236
v -1.64755397 1.61327290 -0.30171668
v -1.64144527 1.62075574 -0.30755705
v -1.64179014 1.62031187 -0.32703572
v -1.63696231 1.61707773 -0.33521601
v -1.64789884 1.60617050 -0.33301860
v -1.64070634 0.97894122 -0.30957219
v -1.62903088 0.97894122 -0.29147236
v -1.63509029 1.19213958 -0.29147236
v -1.62292218 1.62303870 -0.30171668
v -1.63045954 1.62170697 -0.30171668
v -1.63873584 1.61917039 -0.30171668
v -1.62292218 1.62665328 -0.30821551
v -1.62292218 1.62557523 -0.32558128
v -1.62292218 1.60617050 -0.33691529
v -1.63917919 1.60617050 -0.33558967
v -1.62292218 1.61821921 -0.33568764
v -1.62287298 0.97894122 -0.32667097
v -1.63504099 0.97894122 -0.32228505
v -1.63632187 0.97894122 -0.32180016
v -1.14703747 0.97894122 -0.30801087
v -1.62178919 0.97906804 -0.29147236
v -1.62178919 1.19213958 -0.29147236
v -1.60553228 1.62310208 -0.30171668
v -1.60553228 1.62678009 -0.30821551
v -1.14713606 1.62557523 -0.32558128
v -1.14713606 1.62272159 -0.32951794
v -1.14713606 1.60617050 -0.33691529
v -1.14713606 1.61821921 -0.33568764
v -1.14703747 0.97894122 -0.32651977
v -1.14703747 1.19213958 -0.30801087
v -1.14713606 1.58492679 -0.30171668
v -1.14713606 1.62310208 -0.30171668
v -1.14713606 1.62678009 -0.30821551
v -1.14703747 1.19213958 -0.32651977
f 1 2 3
f 1 3 4
f 1 4 5
f 1 5 6
f 1 6 7
f 1 7 2
f 2 8 3
f 2 7 9
f 2 9 8
f 3 8 10
f 3 10 11
f 3 11 4
f 4 11 12
f 4 12 13
f 4 13 14
f 4 14 5
f 5 14 6
f 6 15 28
f 6 28 27
f 6 27 26
f 6 26 38
f 6 38 29
f 6 29 16
f 6 16 7
f 6 14 15
f 7 16 30
f 7 30 31
f 7 31 17
f 7 17 9
f 8 9 10
f 9 17 18
f 9 18 19
f 9 19 20
f 9 20 10
f 10 20 11
f 11 19 21
f 11 21 12
f 11 20 19
f 12 21 22
f 12 22 13
f 13 23 24
f 13 24 14
f 13 22 25
f 13 25 23
f 14 24 26
f 14 26 27
f 14 27 28
f 14 28 15
f 16 29 30
f 17 31 41
f 17 41 32
f 17 32 18
f 18 32 33
f 18 33 21
f 18 21 19
f 21 33 22
f 22 33 42
f 22 42 34
f 22 34 35
f 22 35 25
f 23 25 37
f 23 37 36
f 23 36 26
f 23 26 24
f 25 35 37
f 26 36 38
f 29 38 43
f 29 43 39
f 29 39 41
f 29 41 40
f 29 40 30
f 30 40 41
f 30 41 31
f 32 41 42
f 32 42 33
f 34 42 43
f 34 43 35
f 35 43 37
f 36 37 43
f 36 43 38
f 39 43 42
f 39 42 41

