# https://github.com/mikedh/trimesh
v -5.22320140 0.19881237 3.06253653
v -5.22330890 0.21620983 3.06253653
v -5.22363139 0.19881237 3.20151777
v -5.22379275 0.18148740 3.20151777
v -5.22341639 0.18148740 3.07981924
v -5.22379275 0.14669249 3.07981924
v -5.22352389 0.16880168 2.57142138
v -5.22320140 0.19881237 2.64559271
v -5.22320140 0.19884861 2.45440346
v -5.22379275 0.23353479 3.06253653
v -5.22384639 0.23353479 3.09722187
v -5.22373889 0.21620983 3.20151777
v -5.22330890 0.21620983 2.57142138
v -5.22400774 0.19881237 3.21892051
v -5.22422274 0.14669249 3.20151777
v -5.22438409 0.16408995 3.21892051
v -5.22454524 0.12933128 3.20151777
v -5.22411524 0.12933128 3.06253653
v -5.22400774 0.13404311 2.57142138
v -5.22379275 0.14669249 2.22864887
v -5.22320140 0.19884861 2.24605153
v -5.22459909 0.25089600 3.07981924
v -5.22379275 0.23353479 2.57142138
v -5.22400774 0.23821028 2.57142138
v -5.22728698 0.30301578 3.20151777
v -5.22492159 0.25089600 3.20151777
v -5.22422274 0.23353479 3.20151777
v -5.22411524 0.21620983 3.21892051
v -5.22330890 0.21617358 2.24605153
v -5.22556679 0.21620983 3.23620311
v -5.22551294 0.19881237 3.23620311
v -5.22459909 0.14669249 3.21892051
v -5.22588929 0.16408995 3.23620311
v -5.22519044 0.11197007 3.20151777
v -5.22492159 0.12933128 3.21892051
v -5.22497544 0.11197007 3.13202715
v -5.22481409 0.11197007 3.06253653
v -5.22411524 0.12933128 2.24605153
v -5.22384639 0.14669249 2.21124621
v -5.22363139 0.16408995 2.21124621
v -5.22341639 0.18145116 2.22864887
v -5.22330890 0.19884861 2.21124621
v -5.22352389 0.21617358 2.15915823
v -5.22707199 0.30301578 3.09722187
v -5.22621179 0.28565457 2.22864887
v -5.22379275 0.23349854 2.24605153
v -5.22459909 0.25089600 2.22864887
v -5.22798583 0.31287442 3.20151777
v -5.22809333 0.31243945 3.21255952
v -5.22470659 0.23353479 3.21892051
v -5.22384639 0.23349854 2.21124621
v -5.22621179 0.23353479 3.23620311
v -5.22814718 0.24538672 3.24532459
v -5.22787833 0.23353479 3.24604467
v -5.22755584 0.21620983 3.24688477
v -5.22744834 0.19881237 3.24688477
v -5.22777083 0.14669249 3.24604467
v -5.22610429 0.14669249 3.23620311
v -5.22610429 0.09457261 3.20151777
v -5.22567429 0.11197007 3.21892051
v -5.22648064 0.09457261 3.21892051
v -5.22648064 0.12933128 3.23620311
v -5.22728698 0.11189757 3.23728328
v -5.22567429 0.09457261 3.06253653
v -5.22481409 0.11197007 2.24605153
v -5.22422274 0.12933128 2.21124621
v -5.22411524 0.14669249 2.12435290
v -5.22363139 0.18145116 2.15915823
v -5.22363139 0.19884861 2.10707024
v -5.22363139 0.21617358 2.12435290
v -5.22728698 0.30606034 2.57142138
v -5.22787833 0.31425171 2.57142138
v -5.22787833 0.31396173 3.04513389
v -5.22787833 0.31392549 3.06253653
v -5.22787833 0.31330928 3.13202715
v -5.22707199 0.30301578 2.21124621
v -5.22637314 0.28565457 2.14175559
v -5.23072758 0.32157315 3.20151777
v -5.22975988 0.32266046 3.06253653
v -5.22981373 0.32255172 3.07981924
v -5.23072758 0.31910844 3.21856041
v -5.22863103 0.30613284 3.22408129
v -5.22787833 0.30138486 3.21856041
v -5.22551294 0.25089600 3.21892051
v -5.22400774 0.23349854 2.15915823
v -5.22846968 0.25694878 3.24388433
v -5.22803969 0.28565457 3.22936211
v -5.22755584 0.26825711 3.23284268
v -5.23884511 0.30301578 3.25252558
v -5.23330797 0.23353479 3.25468592
v -5.23250162 0.21620983 3.25552613
v -5.23250162 0.19881237 3.25564616
v -5.22798583 0.12933128 3.24568457
v -5.22814718 0.11766048 3.24520456
v -5.22739448 0.08047345 3.20151777
v -5.22766333 0.09457261 3.23284268
v -5.22798583 0.08384413 3.22996216
v -5.22766333 0.08170575 3.21892051
v -5.22846968 0.10609842 3.24388433
v -5.22728698 0.08018347 3.14930986
v -5.22728698 0.07985724 3.09722187
v -5.22728698 0.07974850 3.07981924
v -5.22728698 0.07967601 3.06253653
v -5.22680313 0.08369914 2.57142138
v -5.22567429 0.09457261 2.57142138
v -5.22567429 0.09460885 2.24605153
v -5.22599679 0.09460885 2.12435290
v -5.22492159 0.11197007 2.21124621
v -5.22449159 0.12933128 2.12435290
v -5.22454524 0.12933128 2.10707024
v -5.22422274 0.14669249 2.10707024
v -5.22373889 0.21617358 2.10707024
v -5.22481409 0.16408995 2.08966761
v -5.22449159 0.19884861 2.08966761
v -5.22454524 0.21617358 2.08966761
v -5.22422274 0.23349854 2.10707024
v -5.22943738 0.32298659 2.61090742
v -5.22943738 0.32298659 2.62831005
v -5.22787833 0.31414297 2.36763016
v -5.22943738 0.32295034 2.52401411
v -5.22717949 0.30301578 2.15915823
v -5.22798583 0.31294681 2.12435290
v -5.22787833 0.31388924 2.22864887
v -5.22787833 0.31396173 2.24605153
v -5.22572794 0.26825711 2.10707024
v -5.22728698 0.30301578 2.12435290
v -5.23449067 0.33773820 3.06253653
v -5.23486702 0.33773820 3.07981924
v -5.23535087 0.33773820 3.09722187
v -5.23594222 0.33773820 3.11462451
v -5.23911396 0.33773820 3.20151777
v -5.23406067 0.33773820 2.95824064
v -5.23438317 0.33773820 3.04513389
v -5.23298547 0.33773820 2.62831005
v -5.23341547 0.33773820 2.76717131
v -5.23449067 0.32041323 3.23620311
v -5.24099550 0.33857189 3.21712026
v -5.23002873 0.30138486 3.23452289
v -5.22836218 0.29457078 3.22768189
v -5.22497544 0.25089600 2.10707024
v -5.22954488 0.28565457 3.23812339
v -5.24126436 0.32041323 3.24940520
v -5.24809169 0.29167120 3.26188711
v -5.24524244 0.28010914 3.26260719
v -5.24196320 0.23353479 3.26476753
v -5.24121050 0.21620983 3.26536768
v -5.24121050 0.19881237 3.26536768
v -5.24147935 0.18148740 3.26512762
v -5.24217820 0.14669249 3.26464750
v -5.23346932 0.14669249 3.25480605
v -5.23406067 0.12933128 3.25432593
v -5.23400682 0.11189757 3.25204556
v -5.22906103 0.07177472 3.20151777
v -5.22895353 0.09457261 3.24160396
v -5.23002873 0.07771886 3.23596305
v -5.22932988 0.07300702 3.21892051
v -5.23852261 0.07721140 3.25180560
v -5.22895353 0.07115851 3.09722187
v -5.22895353 0.07097728 3.06253653
v -5.22766333 0.07735639 2.57142138
v -5.22728698 0.07967601 2.24605153
v -5.22728698 0.07974850 2.22864887
v -5.22728698 0.07985724 2.21124621
v -5.22739448 0.08050969 2.10707024
v -5.22610429 0.09460885 2.10707024
v -5.22519044 0.11197007 2.12435290
v -5.22529794 0.11197007 2.10707024
v -5.22610429 0.11197007 2.08966761
v -5.22540544 0.12933128 2.08966761
v -5.22502909 0.14669249 2.08966761
v -5.22669564 0.16408995 2.07226492
v -5.22637314 0.19884861 2.07226492
v -5.22637314 0.21617358 2.07226492
v -5.22508294 0.23349854 2.08966761
v -5.23298547 0.33773820 2.61090742
v -5.22943738 0.32291419 2.48920879
v -5.22803969 0.31265693 2.10707024
v -5.22981373 0.32255172 2.22864887
v -5.22975988 0.32262422 2.24605153
v -5.22965238 0.32269671 2.28073685
v -5.22814718 0.31214947 2.09722874
v -5.22739448 0.30301578 2.10707024
v -5.24180185 0.35049631 3.06253653
v -5.24196320 0.35017019 3.07981924
v -5.24169435 0.35060506 3.04513389
v -5.24572629 0.34647317 3.21027925
v -5.24287705 0.34911902 3.11462451
v -5.24384475 0.34810420 3.14930986
v -5.24061915 0.35248981 2.66287537
v -5.24099550 0.35169247 2.81925930
v -5.24061915 0.35267105 2.62831005
v -5.24185570 0.33335259 3.23620311
v -5.24416725 0.33052550 3.24628462
v -5.25443517 0.32041323 3.25576609
v -5.25411267 0.30359573 3.26128707
v -5.25975731 0.29819530 3.26260719
v -5.25411267 0.28579955 3.26320734
v -5.25443517 0.23353479 3.26788801
v -5.25443517 0.21620983 3.26884815
v -5.25443517 0.19881237 3.26884815
v -5.24276955 0.12933128 3.26416738
v -5.25443517 0.14669249 3.26752802
v -5.24395225 0.11197007 3.26344730
v -5.23884511 0.09417389 3.25516604
v -5.23776991 0.06086501 3.20151777
v -5.23803876 0.06115498 3.21892051
v -5.24137185 0.06467076 3.24868502
v -5.23873761 0.06209741 3.23620311
v -5.24502745 0.09968306 3.26272722
v -5.25018823 0.08808486 3.26188711
v -5.23760876 0.06068377 3.07981924
v -5.23760876 0.06064752 3.06253653
v -5.22895353 0.07097728 2.24605153
v -5.22895353 0.07104977 2.22864887
v -5.22906103 0.07170222 2.12435290
v -5.22916853 0.07184721 2.10707024
v -5.22965238 0.07438431 2.08966761
v -5.22787833 0.08308304 2.08966761
v -5.22691063 0.09460885 2.08966761
v -5.22825468 0.08565639 2.08078624
v -5.22766333 0.11197007 2.07610553
v -5.22744834 0.13038234 2.07142481
v -5.22691063 0.14669249 2.07226492
v -5.22814718 0.14669249 2.06338355
v -5.22803969 0.16408995 2.06314355
v -5.22787833 0.19884861 2.06290349
v -5.22809333 0.22867796 2.06326358
v -5.22728698 0.23407839 2.07106477
v -5.22787833 0.21617358 2.06290349
v -5.22787833 0.30301578 2.09494842
v -5.23309297 0.33777445 2.57142138
v -5.24061915 0.35267105 2.61090742
v -5.23072758 0.32135566 2.10707024
v -5.22992123 0.32237048 2.21124621
v -5.23449067 0.33777445 2.24605153
v -5.23438317 0.33777445 2.26333419
v -5.23406067 0.33777445 2.31542217
v -5.23389932 0.33777445 2.35022750
v -5.23352297 0.33777445 2.43712080
v -5.22906103 0.30301578 2.08618709
v -5.23250162 0.30301578 2.07226492
v -5.23131893 0.31896345 2.09074778
v -5.30921540 0.40482717 3.04513389
v -5.25540287 0.34788672 3.21712026
v -5.25018823 0.34491464 3.22180092
v -5.31088194 0.40305116 3.06253653
v -5.32389161 0.40772675 3.06253653
v -5.30932290 0.40547952 2.81925930
v -5.25540287 0.34154396 3.23512294
v -5.27179928 0.34400857 3.24004367
v -5.25443517 0.33280898 3.24796494
v -5.27276698 0.31870972 3.25900659
v -5.26765984 0.30979361 3.26212718
v -5.27179928 0.33534608 3.24964526
v -5.27179928 0.23353479 3.26884815
v -5.27179928 0.21620983 3.26980829
v -5.27179928 0.19881237 3.26980829
v -5.25443517 0.12933128 3.26656778
v -5.27179928 0.14669249 3.26836813
v -5.25443517 0.05252875 3.20151777
v -5.25443517 0.05216628 3.07981924
v -5.25443517 0.05307246 3.21892051
v -5.25540287 0.07880617 3.25984670
v -5.25443517 0.06249603 3.25084536
v -5.25443517 0.05502961 3.23620311
v -5.25443517 0.11197007 3.26500749
v -5.25540287 0.09417389 3.26296728
v -5.26180021 0.08562015 3.26236724
v -5.25443517 0.05213003 2.69768069
v -5.24217820 0.05832790 2.57142138
v -5.23760876 0.06064752 2.57142138
v -5.23760876 0.06068377 2.22864887
v -5.23776991 0.06086501 2.10707024
v -5.23825376 0.06148121 2.08966761
v -5.24040416 0.06347460 2.07226492
v -5.23191027 0.07880617 2.07394519
v -5.23002873 0.09460885 2.07070468
v -5.22916853 0.11197007 2.06746417
v -5.22857718 0.12527189 2.06494379
v -5.22825468 0.13683395 2.06350359
v -5.23664106 0.19884861 2.05414215
v -5.22846968 0.24027627 2.06446372
v -5.23664106 0.21617358 2.05426218
v -5.24556494 0.22566964 2.04610095
v -5.23701742 0.23295483 2.05498226
v -5.23932896 0.28565457 2.05810274
v -5.24040416 0.30301578 2.05906293
v -5.22863103 0.28873538 2.08318659
v -5.24061915 0.35245356 2.57610209
v -5.25196228 0.36136978 2.61090742
v -5.24018916 0.33567231 2.08966761
v -5.24051165 0.33926048 2.10755031
v -5.23873761 0.33777445 2.12435290
v -5.23594222 0.33777445 2.19396355
v -5.23470567 0.33777445 2.22864887
v -5.24169435 0.35056881 2.24605153
v -5.24147935 0.35082254 2.29813951
v -5.24088800 0.35194610 2.48920879
v -5.23884511 0.32157315 2.07094474
v -5.24250070 0.31657133 2.06098321
v -5.24255455 0.33248275 2.07586547
v -5.32389161 0.41309094 2.81925930
v -5.32389161 0.41160490 3.04513389
v -5.26180021 0.34683565 3.22852200
v -5.34125573 0.41207606 3.04513389
v -5.34125573 0.40790794 3.06253653
v -5.48027590 0.36209462 3.22144093
v -5.37603759 0.36024621 3.21892051
v -5.35867348 0.35930378 3.21892051
v -5.35867348 0.35368587 3.23620311
v -5.28916339 0.34904653 3.23452289
v -5.28916339 0.35397585 3.21892051
v -5.27179928 0.34785047 3.23128239
v -5.27179928 0.35165623 3.21892051
v -5.24196320 0.35027893 2.22864887
v -5.25443517 0.35785400 2.24605153
v -5.28916339 0.34553085 3.24316425
v -5.28916339 0.33686837 3.25024531
v -5.28916339 0.32055822 3.25888667
v -5.27927182 0.31178700 3.26236724
v -5.27276698 0.30359573 3.26284725
v -5.30002267 0.34618320 3.24448448
v -5.28916339 0.23353479 3.26920824
v -5.28916339 0.21620983 3.27016838
v -5.28916339 0.19881237 3.27016838
v -5.27179928 0.12933128 3.26740789
v -5.28916339 0.14669249 3.26872812
v -5.32389161 0.04451872 3.14930986
v -5.32389161 0.04343130 2.15915823
v -5.27179928 0.05223877 3.21892051
v -5.27179928 0.07626907 3.25996684
v -5.27179928 0.06216991 3.25120545
v -5.27179928 0.05423227 3.23620311
v -5.27179928 0.11197007 3.26584770
v -5.27179928 0.09457261 3.26380739
v -5.27179928 0.08493155 3.26260719
v -5.25443517 0.05213003 2.24605153
v -5.25443517 0.05220252 2.21124621
v -5.25443517 0.05252875 2.10707024
v -5.25443517 0.05368856 2.08966761
v -5.25443517 0.05760306 2.07226492
v -5.24314590 0.06612055 2.06182332
v -5.24061915 0.07721140 2.05978301
v -5.23873761 0.09460885 2.05798276
v -5.23782376 0.11197007 2.05702262
v -5.23545837 0.13038234 2.05762267
v -5.23696356 0.14669249 2.05534235
v -5.24556494 0.18786641 2.04610095
v -5.24534994 0.19884861 2.04598092
v -5.24534994 0.21617358 2.04598092
v -5.25443517 0.21617358 2.04526079
v -5.25443517 0.22885920 2.04586089
v -5.27179928 0.30301578 2.05150174
v -5.25443517 0.30301578 2.05330204
v -5.24664014 0.34607445 2.10202949
v -5.24545744 0.34665441 2.11367129
v -5.24502745 0.34698064 2.12435290
v -5.24336090 0.34857541 2.17656091
v -5.24239320 0.34969898 2.21124621
v -5.24750034 0.32816964 2.06434369
v -5.25373632 0.32157315 2.05918291
v -5.25325247 0.34447978 2.08870747
v -5.25373632 0.33520109 2.07094474
v -5.34125573 0.41367084 2.81925930
v -5.25443517 0.35723790 2.22864887
v -5.31727928 0.37985455 2.24593153
v -5.32340776 0.37985455 2.23044914
v -5.63655290 0.41207606 3.04513389
v -5.63655290 0.40790794 3.06253653
v -5.49764001 0.36216711 3.22168100
v -5.48027590 0.35654920 3.23620311
v -5.37603759 0.35448331 3.23620311
v -5.32389161 0.35107627 3.23620311
v -5.35867348 0.34839418 3.24688477
v -5.34125573 0.34781422 3.24640476
v -5.32389161 0.34719812 3.24580460
v -5.31158079 0.34672691 3.24520456
v -5.30615115 0.34922776 3.23764337
v -5.32389161 0.33773820 3.25144551
v -5.34125573 0.33773820 3.25228562
v -5.35867348 0.33773820 3.25288577
v -5.37603759 0.33773820 3.25324576
v -5.41076581 0.33773820 3.25360575
v -5.48027590 0.33773820 3.25408587
v -5.42812992 0.32052198 3.25996684
v -5.28916339 0.31185949 3.26236724
v -5.70606299 0.23353479 3.26920824
v -5.70606299 0.21620983 3.27016838
v -5.70606299 0.19881237 3.27016838
v -5.28916339 0.12933128 3.26776798
v -5.70606299 0.14669249 3.26872812
v -5.28916339 0.05405103 3.23620311
v -5.34125573 0.05397854 3.23620311
v -5.37603759 0.05394229 3.23620311
v -5.61918879 0.05394229 3.23620311
v -5.63655290 0.04455497 3.14930986
v -5.63655290 0.04350380 2.15915823
v -5.72342710 0.05281873 2.08966761
v -5.27179928 0.05285498 2.08966761
v -5.28916339 0.07572536 3.25996684
v -5.28916339 0.08438784 3.26272722
v -5.28916339 0.06209741 3.25132548
v -5.28916339 0.11197007 3.26620779
v -5.28916339 0.09457261 3.26416738
v -5.27179928 0.05655189 2.07226492
v -5.25443517 0.06441703 2.06062317
v -5.25443517 0.07721140 2.05522232
v -5.25443517 0.09460885 2.05162177
v -5.25443517 0.11197007 2.04970150
v -5.25443517 0.12933128 2.04790120
v -5.24760784 0.17626810 2.04634096
v -5.25954231 0.16408995 2.04598092
v -5.25443517 0.19884861 2.04526079
v -5.27179928 0.21617358 2.04454071
v -5.27169178 0.23454961 2.04550085
v -5.26577830 0.24100111 2.04634096
v -5.27739027 0.24353832 2.04610095
v -5.28916339 0.24411817 2.04598092
v -5.28916339 0.30301578 2.05126173
v -5.28916339 0.32041323 2.05546238
v -5.27179928 0.32041323 2.05606243
v -5.25325247 0.34886529 2.10755031
v -5.25825212 0.34803170 2.09374822
v -5.25443517 0.35060506 2.12435290
v -5.25443517 0.35615058 2.21124621
v -5.25905846 0.33056175 2.06254345
v -5.26529445 0.34596571 2.08222645
v -5.27131543 0.34165270 2.07298505
v -5.63655290 0.41367084 2.81925930
v -5.32856855 0.37985455 2.22936900
v -5.34125573 0.37985455 2.22684860
v -5.35867348 0.37985455 2.22660856
v -5.48027590 0.37985455 2.22516835
v -5.27179928 0.35383086 2.10707024
v -5.28916339 0.35615058 2.10707024
v -5.35867348 0.36140602 2.10707024
v -5.37603759 0.36231210 2.10707024
v -5.65391701 0.41167740 3.04513389
v -5.65391701 0.40779919 3.06253653
v -5.65391701 0.41330842 2.81925930
v -5.51495048 0.36198588 3.22108084
v -5.60182468 0.35462819 3.23620311
v -5.51495048 0.35640421 3.23620311
v -5.49764001 0.35665794 3.23620311
v -5.48027590 0.34962648 3.24772499
v -5.39340170 0.34890154 3.24724487
v -5.37603759 0.34875665 3.24712483
v -5.49764001 0.34969898 3.24772499
v -5.51495048 0.33773820 3.25408587
v -5.49764001 0.32055822 3.26008676
v -5.70606299 0.31185949 3.26236724
v -5.72342710 0.25089600 3.26740789
v -5.72342710 0.23353479 3.26884815
v -5.71590092 0.31178700 3.26236724
v -5.72342710 0.21620983 3.26980829
v -5.72342710 0.19881237 3.26980829
v -5.70606299 0.12933128 3.26776798
v -5.72342710 0.14669249 3.26836813
v -5.32389161 0.06206117 3.25132548
v -5.68869888 0.05401479 3.23620311
v -5.72342710 0.05216628 3.21892051
v -5.68869888 0.06206117 3.25132548
v -5.74079121 0.05299996 3.21892051
v -5.74079121 0.05245626 3.20151777
v -5.74079121 0.05238376 3.18411513
v -5.74079121 0.05213003 3.09722187
v -5.74079121 0.05205754 3.06253653
v -5.74079121 0.05205754 2.24605153
v -5.74079121 0.05209378 2.21124621
v -5.74079121 0.05245626 2.10707024
v -5.74079121 0.05361607 2.08966761
v -5.72342710 0.05658814 2.07226492
v -5.70606299 0.05637076 2.07226492
v -5.61918879 0.05629826 2.07226492
v -5.34125573 0.05629826 2.07226492
v -5.30652750 0.05633451 2.07226492
v -5.28916339 0.05637076 2.07226492
v -5.70606299 0.07572536 3.25996684
v -5.70606299 0.08438784 3.26272722
v -5.70606299 0.11197007 3.26620779
v -5.70606299 0.09457261 3.26416738
v -5.27179928 0.06387332 2.06014310
v -5.27179928 0.07721140 2.05414215
v -5.27179928 0.09460885 2.05066163
v -5.27179928 0.11197007 2.04862133
v -5.25561787 0.14752607 2.04682103
v -5.27179928 0.13009237 2.04682103
v -5.26604715 0.14227063 2.04634096
v -5.27179928 0.16408995 2.04550085
v -5.27179928 0.18145116 2.04502078
v -5.27179928 0.19884861 2.04454071
v -5.28916339 0.21617358 2.04418062
v -5.28916339 0.23349854 2.04514076
v -5.70606299 0.24415442 2.04598092
v -5.70606299 0.30301578 2.05126173
v -5.49764001 0.32041323 2.05414215
v -5.41076581 0.32041323 2.05438221
v -5.37603759 0.32041323 2.05450219
v -5.37603759 0.33628841 2.06038311
v -5.35867348 0.33588979 2.06050314
v -5.28916339 0.33324384 2.06134325
v -5.27179928 0.33212028 2.06170334
v -5.27131543 0.34944525 2.08870747
v -5.28916339 0.34194257 2.06902441
v -5.27690642 0.34716187 2.07922600
v -5.50081175 0.37985455 2.22516835
v -5.51495048 0.37985455 2.22528836
v -5.64139119 0.37985455 2.22672859
v -5.65391701 0.37985455 2.22696863
v -5.67257132 0.37985455 2.23020911
v -5.47307222 0.36379814 2.09866900
v -5.48468419 0.36394313 2.09794887
v -5.28916339 0.35223608 2.08966761
v -5.32389161 0.35502691 2.08966761
v -5.34125573 0.35636796 2.08966761
v -5.35867348 0.35763651 2.08966761
v -5.37603759 0.35854269 2.08966761
v -5.67009842 0.40493586 3.04513389
v -5.66821688 0.40312366 3.06253653
v -5.74966144 0.34658192 3.21063924
v -5.73971601 0.34792296 3.21748024
v -5.73326503 0.34679940 3.22840197
v -5.72342710 0.35151124 3.21892051
v -5.70606299 0.35379461 3.21892051
v -5.70606299 0.34897403 3.23428283
v -5.65391701 0.35194610 3.23620311
v -5.63655290 0.35310601 3.23620311
v -5.61918879 0.35977500 3.21892051
v -5.60182468 0.36042735 3.21892051
v -5.67009842 0.40569701 2.81925930
v -5.67009842 0.40566076 2.83666198
v -5.68601098 0.37985455 2.24497139
v -5.68826888 0.37985455 2.26333419
v -5.74079121 0.35796274 2.24605153
v -5.61918879 0.35408459 3.23620311
v -5.61918879 0.34857541 3.24700480
v -5.60182468 0.34882914 3.24724487
v -5.51495048 0.34959023 3.24760485
v -5.60182468 0.33773820 3.25336579
v -5.58435307 0.32052198 3.25984670
v -5.74079121 0.23353479 3.26800804
v -5.72745904 0.30972111 3.26212718
v -5.70606299 0.32055822 3.25876653
v -5.72240575 0.31870972 3.25900659
v -5.74079121 0.21620983 3.26896818
v -5.74079121 0.19881237 3.26896818
v -5.72342710 0.12933128 3.26740789
v -5.74079121 0.14669249 3.26752802
v -5.74079121 0.12933128 3.26668781
v -5.70606299 0.05405103 3.23620311
v -5.72342710 0.05423227 3.23620311
v -5.70606299 0.06209741 3.25132548
v -5.74079121 0.05506585 3.23620311
v -5.75648877 0.06213366 3.23620311
v -5.75734897 0.06108249 3.21892051
v -5.75767147 0.06075626 3.20151777
v -5.75777897 0.06068377 3.14930986
v -5.75777897 0.06064752 3.13202715
v -5.75783282 0.06057503 3.07981924
v -5.75788647 0.06057503 3.06253653
v -5.74541450 0.05434101 2.57142138
v -5.75788647 0.06057503 2.24605153
v -5.75783282 0.06061128 2.21124621
v -5.75767147 0.06075626 2.10707024
v -5.75783282 0.06057503 2.22864887
v -5.75718762 0.06140872 2.08966761
v -5.75519858 0.06332972 2.07226492
v -5.74079121 0.05749432 2.07226492
v -5.74079121 0.06438079 2.06062317
v -5.72342710 0.06390957 2.06014310
v -5.70606299 0.06376458 2.06002307
v -5.28916339 0.06376458 2.06002307
v -5.72342710 0.07626907 3.25996684
v -5.72342710 0.06216991 3.25120545
v -5.72342710 0.08496780 3.26248716
v -5.72342710 0.11197007 3.26584770
v -5.72342710 0.09457261 3.26380739
v -5.28916339 0.07721140 2.05390214
v -5.28916339 0.09460885 2.05030154
v -5.28916339 0.11197007 2.04826124
v -5.28916339 0.12693906 2.04670100
v -5.27760527 0.13643523 2.04610095
v -5.27179928 0.14752607 2.04598092
v -5.28916339 0.19884861 2.04418062
v -5.70606299 0.21617358 2.04406059
v -5.70606299 0.23349854 2.04514076
v -5.71767496 0.24353832 2.04610095
v -5.72342710 0.30301578 2.05162177
v -5.70606299 0.32041323 2.05546238
v -5.68869888 0.32041323 2.05522232
v -5.67128112 0.32041323 2.05498226
v -5.60182468 0.32041323 2.05450219
v -5.58435307 0.32041323 2.05438221
v -5.54967870 0.32041323 2.05426218
v -5.49764001 0.33741197 2.06002307
v -5.48027590 0.33741197 2.06002307
v -5.46291200 0.33723084 2.06002307
v -5.48027590 0.34607445 2.06374365
v -5.46291200 0.34592957 2.06386362
v -5.39340170 0.34516838 2.06446372
v -5.37603759 0.34498714 2.06470378
v -5.35867348 0.34458852 2.06506382
v -5.34125573 0.34393607 2.06566392
v -5.32389161 0.34328362 2.06650403
v -5.30652750 0.34255878 2.06770423
v -5.32389161 0.34930026 2.07514539
v -5.30652750 0.34857541 2.07634554
v -5.28916339 0.34785047 2.07766577
v -5.49764001 0.36394313 2.09794887
v -5.50812314 0.36387063 2.09818888
v -5.51968127 0.36372564 2.09914907
v -5.60182468 0.36252959 2.10707024
v -5.61918879 0.36184099 2.10707024
v -5.63655290 0.36075357 2.10707024
v -5.70606299 0.35596934 2.10707024
v -5.72342710 0.35368587 2.10707024
v -5.46291200 0.36071733 2.08966761
v -5.47946956 0.36158726 2.09122785
v -5.49764001 0.36111605 2.08930757
v -5.34125573 0.34998895 2.07430523
v -5.35867348 0.35067755 2.07370513
v -5.37603759 0.35111252 2.07334509
v -5.75363953 0.35067755 3.06253653
v -5.75342453 0.35035143 3.07981924
v -5.75256433 0.34930026 3.11462451
v -5.74998394 0.34687189 3.20151777
v -5.74315660 0.36155101 2.62831005
v -5.75648877 0.33773820 3.20151777
v -5.75439223 0.33857189 3.21748024
v -5.75342453 0.33346133 3.23620311
v -5.74482315 0.34495089 3.22228104
v -5.73971601 0.34161645 3.23500302
v -5.72342710 0.34393607 3.23980371
v -5.72342710 0.34777797 3.23116246
v -5.70606299 0.34538586 3.24292419
v -5.69369852 0.34603821 3.24412439
v -5.68214039 0.34661816 3.24508453
v -5.68816138 0.34908277 3.23752334
v -5.67128112 0.35075004 3.23620311
v -5.75363953 0.35075004 2.24605153
v -5.74315660 0.36155101 2.61090742
v -5.74218890 0.34886529 2.10659017
v -5.74890874 0.34621944 2.10058928
v -5.74987644 0.34676315 2.11211105
v -5.74079121 0.35734664 2.22864887
v -5.75342453 0.35042392 2.22864887
v -5.65391701 0.34759674 3.24604467
v -5.63655290 0.34814045 3.24664482
v -5.63655290 0.33773820 3.25240565
v -5.61918879 0.33773820 3.25300570
v -5.73584542 0.29812281 3.26260719
v -5.74127506 0.28619827 3.26320734
v -5.74740354 0.29239615 3.26200704
v -5.75003779 0.28079784 3.26260719
v -5.75095164 0.26825711 3.26320734
v -5.75331703 0.23353479 3.26488756
v -5.74079121 0.32041323 3.25600615
v -5.74127506 0.30355949 3.26140699
v -5.70606299 0.33668713 3.25000525
v -5.72342710 0.33527359 3.24964526
v -5.75412338 0.21620983 3.26536768
v -5.75412338 0.19881237 3.26536768
v -5.75315568 0.14669249 3.26464750
v -5.75256433 0.12933128 3.26416738
v -5.75127413 0.11197007 3.26344730
v -5.75014529 0.09939319 3.26272722
v -5.74079121 0.11197007 3.26500749
v -5.74079121 0.06256853 3.25072543
v -5.75380088 0.06477951 3.24856510
v -5.76525150 0.07732014 3.23668323
v -5.76605785 0.07181096 3.21892051
v -5.76638035 0.07050616 3.20151777
v -5.76654170 0.06981747 3.07981924
v -5.76654170 0.06974497 3.06253653
v -5.76654170 0.06974497 2.57142138
v -5.76654170 0.06978122 2.22864887
v -5.76638035 0.07054241 2.10707024
v -5.76595035 0.07293453 2.08966761
v -5.76369246 0.07815372 2.07346512
v -5.75213433 0.06597556 2.06182332
v -5.74079121 0.07721140 2.05510229
v -5.72342710 0.07721140 2.05414215
v -5.70606299 0.07721140 2.05390214
v -5.73337253 0.08565639 3.26236724
v -5.73987736 0.07880617 3.25972678
v -5.73987736 0.09402890 3.26308721
v -5.70606299 0.09460885 2.05030154
v -5.70606299 0.11197007 2.04826124
v -5.70606299 0.12693906 2.04670100
v -5.28916339 0.13560154 2.04598092
v -5.28916339 0.14669249 2.04562083
v -5.28916339 0.18145116 2.04466069
v -5.70606299 0.19884861 2.04418062
v -5.72342710 0.19884861 2.04454071
v -5.72342710 0.21617358 2.04454071
v -5.72342710 0.23447712 2.04550085
v -5.74079121 0.30301578 2.05318201
v -5.72342710 0.32041323 2.05618246
v -5.72923309 0.24089237 2.04634096
v -5.74079121 0.22904044 2.04586089
v -5.74966144 0.22599587 2.04610095
v -5.70606299 0.33320760 2.06122322
v -5.68869888 0.33389630 2.06098321
v -5.67128112 0.33458489 2.06074315
v -5.65391701 0.33516485 2.06062317
v -5.61918879 0.33610717 2.06038311
v -5.56704281 0.33675962 2.06014310
v -5.53231459 0.33712210 2.06002307
v -5.49764001 0.34611070 2.06374365
v -5.48027590 0.35238107 2.07250498
v -5.46291200 0.35219983 2.07262501
v -5.42812992 0.35176487 2.07286502
v -5.51435913 0.36151477 2.09134788
v -5.60182468 0.35872393 2.08966761
v -5.61918879 0.35803523 2.08966761
v -5.63655290 0.35694792 2.08966761
v -5.70606299 0.35198235 2.08966761
v -5.72369595 0.34933650 2.08870747
v -5.73735062 0.34799546 2.09386825
v -5.53231459 0.36049984 2.08966761
v -5.49764001 0.35241732 2.07250498
v -5.51495048 0.35227233 2.07250498
v -5.53231459 0.35209109 2.07262501
v -5.58435307 0.35143874 2.07310508
v -5.60182468 0.35118501 2.07322506
v -5.76111206 0.33773820 3.06253653
v -5.76084321 0.33773820 3.07981924
v -5.75380088 0.35085879 3.02773125
v -5.75966051 0.33773820 3.11462451
v -5.75482223 0.35285228 2.62831005
v -5.75482223 0.35274354 2.64559271
v -5.75460723 0.35223608 2.74976868
v -5.75433838 0.35172862 2.85406467
v -5.76466016 0.32237048 3.20151777
v -5.76460630 0.31943466 3.21952066
v -5.76100456 0.32041323 3.23620311
v -5.75105913 0.33063425 3.24640476
v -5.74079121 0.33288147 3.24820500
v -5.76089706 0.33777445 2.22864887
v -5.76121956 0.33777445 2.24605153
v -5.75390838 0.35104002 2.29813951
v -5.75482223 0.35274354 2.59350473
v -5.75482223 0.35285228 2.61090742
v -5.75482223 0.33936922 2.10659017
v -5.74218890 0.34466102 2.08870747
v -5.75283318 0.33270024 2.07574549
v -5.75519858 0.33596229 2.08966761
v -5.75036029 0.34716187 2.12435290
v -5.75304818 0.34988021 2.21124621
v -5.75971437 0.33777445 2.19396355
v -5.76035936 0.33777445 2.21124621
v -5.75412338 0.32041323 3.24964526
v -5.75659627 0.30301578 3.25264571
v -5.76202591 0.23353479 3.25516604
v -5.76277861 0.21620983 3.25600615
v -5.76288611 0.19881237 3.25612628
v -5.76181091 0.14669249 3.25528607
v -5.76121956 0.12933128 3.25480605
v -5.76003686 0.11197007 3.25408587
v -5.75837032 0.09544244 3.25336579
v -5.75675762 0.07721140 3.25180560
v -5.74503815 0.08779488 3.26200704
v -5.76643420 0.09152804 3.24268413
v -5.76734805 0.08315554 3.23116246
v -5.76772440 0.08054594 3.21892051
v -5.76793940 0.07920489 3.20151777
v -5.76804690 0.07913240 3.18411513
v -5.76815439 0.07851620 3.07981924
v -5.76815439 0.07862494 3.09722187
v -5.76815439 0.07844370 3.06253653
v -5.76815439 0.07844370 2.24605153
v -5.76815439 0.07847995 2.22864887
v -5.76815439 0.07858869 2.21124621
v -5.76654170 0.06992621 2.21124621
v -5.76804690 0.07913240 2.12435290
v -5.76793940 0.07920489 2.10707024
v -5.76756305 0.08159701 2.08966761
v -5.76702555 0.08456908 2.08006611
v -5.76535900 0.09460885 2.06938450
v -5.75482223 0.07721140 2.05966298
v -5.74079121 0.09460885 2.05150174
v -5.72342710 0.09460885 2.05066163
v -5.72342710 0.11197007 2.04862133
v -5.72331960 0.13009237 2.04682103
v -5.71740611 0.13643523 2.04610095
v -5.70606299 0.13560154 2.04598092
v -5.70606299 0.14669249 2.04562083
v -5.70606299 0.18145116 2.04466069
v -5.72342710 0.18145116 2.04502078
v -5.73584542 0.16408995 2.04598092
v -5.74079121 0.19884861 2.04526079
v -5.74079121 0.21617358 2.04526079
v -5.75498358 0.30301578 2.05894290
v -5.75272568 0.31675257 2.06086318
v -5.74149006 0.32168179 2.05930294
v -5.73616792 0.33038052 2.06278345
v -5.72342710 0.33197529 2.06182332
v -5.74987644 0.21617358 2.04598092
v -5.75863917 0.21617358 2.05390214
v -5.76686420 0.24259589 2.06350359
v -5.75600492 0.28565457 2.05798276
v -5.68869888 0.34259502 2.06806427
v -5.67128112 0.34324737 2.06698410
v -5.65391701 0.34386358 2.06602396
v -5.63655290 0.34437104 2.06530388
v -5.61918879 0.34480590 2.06482382
v -5.60182468 0.34505963 2.06458375
v -5.54967870 0.34563959 2.06410368
v -5.51495048 0.34603821 2.06386362
v -5.61918879 0.35085879 2.07346512
v -5.63655290 0.35027893 2.07406522
v -5.65391701 0.34962648 2.07466532
v -5.67128112 0.34897403 2.07562546
v -5.68869888 0.34832168 2.07670563
v -5.70606299 0.34774173 2.07802580
v -5.71810496 0.34712563 2.07934603
v -5.72971694 0.34589332 2.08234648
v -5.76121956 0.33773820 3.04513389
v -5.76568150 0.32374778 3.06253653
v -5.76557400 0.32360279 3.07981924
v -5.76261726 0.33773820 2.62831005
v -5.76250976 0.33773820 2.69768069
v -5.76181091 0.33773820 2.90615265
v -5.76159591 0.33773820 2.95824064
v -5.76734805 0.31367176 3.20151777
v -5.76724055 0.31294681 3.21411981
v -5.76664920 0.30859745 3.22564148
v -5.76546650 0.30287079 3.23512294
v -5.76460630 0.32211675 2.10707024
v -5.76557400 0.32360279 2.22864887
v -5.76568150 0.32371153 2.24605153
v -5.76191841 0.33777445 2.40231548
v -5.76229476 0.33777445 2.50661142
v -5.76250976 0.33777445 2.57142138
v -5.76261726 0.33773820 2.61090742
v -5.75686512 0.33777445 2.12435290
v -5.75095164 0.34766923 2.14175559
v -5.74149006 0.33516485 2.07082471
v -5.76417631 0.31925342 2.09002765
v -5.74772604 0.32835087 2.06410368
v -5.75665012 0.32168179 2.07082471
v -5.76595035 0.28565457 3.23956365
v -5.76686420 0.25952223 3.24484447
v -5.76756305 0.23353479 3.24652468
v -5.76783190 0.21620983 3.24736479
v -5.76793940 0.19881237 3.24736479
v -5.76761690 0.14669249 3.24652468
v -5.76745555 0.12933128 3.24604467
v -5.76686420 0.10312635 3.24496450
v -5.76761690 0.09620363 3.23668323
v -5.76912209 0.09457261 3.21892051
v -5.76949844 0.09457261 3.20151777
v -5.76992844 0.09457261 3.06253653
v -5.76992844 0.09457261 2.57142138
v -5.76992844 0.09460885 2.24605153
v -5.76960594 0.09460885 2.12435290
v -5.76949844 0.09460885 2.10707024
v -5.76982094 0.09460885 2.19396355
v -5.76869210 0.09460885 2.08966761
v -5.76734805 0.09460885 2.07802580
v -5.76675670 0.12193735 2.06398365
v -5.76632670 0.11197007 2.06602396
v -5.75670377 0.09460885 2.05786273
v -5.74079121 0.12933128 2.04790120
v -5.72907173 0.14259685 2.04634096
v -5.72331960 0.14770731 2.04598092
v -5.74455430 0.16408995 2.04646099
v -5.74966144 0.18699658 2.04610095
v -5.74987644 0.19884861 2.04598092
v -5.76320861 0.30301578 2.07226492
v -5.72369595 0.34147146 2.07310508
v -5.70606299 0.34190633 2.06926447
v -5.75863917 0.19884861 2.05378211
v -5.76750940 0.21617358 2.06254345
v -5.76713305 0.23349854 2.06314355
v -5.76922959 0.21617358 2.07226492
v -5.76853074 0.23349854 2.07226492
v -5.76638035 0.30301578 2.08450682
v -5.76584285 0.32396526 2.94083790
v -5.76756305 0.31501280 3.06253653
v -5.76745555 0.31378050 3.18411513
v -5.76595035 0.32425524 2.66287537
v -5.76595035 0.32414650 2.78457400
v -5.76831575 0.30301578 3.20151777
v -5.76756305 0.30287079 3.21952066
v -5.76702555 0.29703539 3.22864193
v -5.76713305 0.31265693 2.09614857
v -5.76734805 0.31341802 2.10707024
v -5.76745555 0.31374425 2.12435290
v -5.76756305 0.31504905 2.24605153
v -5.76578900 0.32389277 2.31542217
v -5.76595035 0.32425524 2.57610209
v -5.76584285 0.32407400 2.38503282
v -5.76595035 0.32411025 2.47180610
v -5.76595035 0.32414650 2.48920879
v -5.76734805 0.28565457 3.23092240
v -5.76939094 0.23353479 3.23620311
v -5.77003594 0.21620983 3.23620311
v -5.77008979 0.19881237 3.23620311
v -5.76992844 0.18148740 3.23620311
v -5.76949844 0.14669249 3.23620311
v -5.76912209 0.12933128 3.23620311
v -5.76842325 0.11197007 3.23620311
v -5.76992844 0.11197007 3.21892051
v -5.77041229 0.11197007 3.20151777
v -5.77078864 0.11197007 3.06253653
v -5.77078864 0.11197007 2.24605153
v -5.77030479 0.11197007 2.10707024
v -5.77057364 0.11197007 2.15915823
v -5.77068114 0.11197007 2.19396355
v -5.76949844 0.11197007 2.08966761
v -5.76772440 0.11197007 2.07478530
v -5.76793940 0.12835270 2.07070468
v -5.76702555 0.13353565 2.06326358
v -5.75982187 0.12835270 2.05738266
v -5.75756397 0.11197007 2.05690259
v -5.74788739 0.17543452 2.04634096
v -5.73950101 0.14770731 2.04682103
v -5.75815532 0.14669249 2.05498226
v -5.76724055 0.14669249 2.06302352
v -5.76756305 0.19884861 2.06254345
v -5.77111114 0.19884861 2.08966761
v -5.77105749 0.21617358 2.08966761
v -5.77051979 0.23349854 2.08966761
v -5.76922959 0.19884861 2.07226492
v -5.76971344 0.25089600 2.08966761
v -5.76750940 0.30301578 2.09314812
v -5.76756305 0.31519404 2.97564327
v -5.76853074 0.30301578 3.09722187
v -5.76750940 0.31555651 2.64559271
v -5.77089614 0.25089600 3.13202715
v -5.77068114 0.25089600 3.20151777
v -5.77089614 0.23353479 3.21892051
v -5.77008979 0.25089600 3.21892051
v -5.76820825 0.30301578 2.10707024
v -5.76831575 0.30301578 2.12435290
v -5.76842325 0.30301578 2.15915823
v -5.76853074 0.30301578 2.21124621
v -5.76750940 0.31425171 2.17656091
v -5.76756305 0.31519404 2.31542217
v -5.76750940 0.31555651 2.59350473
v -5.77148749 0.21620983 3.21892051
v -5.77159499 0.19881237 3.21892051
v -5.77121864 0.16408995 3.21892051
v -5.77100364 0.14669249 3.21892051
v -5.77068114 0.12933128 3.21892051
v -5.77105749 0.12933128 3.20151777
v -5.77148749 0.12933128 3.06253653
v -5.77148749 0.12933128 2.24605153
v -5.77105749 0.12933128 2.10707024
v -5.77137999 0.12933128 2.21124621
v -5.77111114 0.12933128 2.12435290
v -5.77019729 0.12933128 2.08966761
v -5.76863824 0.14669249 2.07226492
v -5.77197134 0.19884861 2.10707024
v -5.77057364 0.14669249 2.08966761
v -5.77186384 0.21617358 2.10707024
v -5.77137999 0.23349854 2.10707024
v -5.77062729 0.25089600 2.10707024
v -5.76987479 0.26825711 2.10707024
v -5.76783190 0.31214947 2.57142138
v -5.77100364 0.25089600 3.07981924
v -5.76939094 0.28565457 2.57142138
v -5.77175634 0.23353479 3.09722187
v -5.77137999 0.23353479 3.20151777
v -5.76922959 0.28565457 2.14175559
v -5.76939094 0.28565457 2.22864887
v -5.77186384 0.21620983 3.20151777
v -5.77197134 0.19881237 3.20151777
v -5.77180999 0.18148740 3.20151777
v -5.77137999 0.14669249 3.20151777
v -5.77180999 0.14669249 3.07981924
v -5.77175634 0.14198065 2.57142138
v -5.77180999 0.14669249 2.22864887
v -5.77148749 0.14669249 2.12435290
v -5.77137999 0.14669249 2.10707024
v -5.77175634 0.14669249 2.21124621
v -5.77197134 0.18145116 2.15915823
v -5.77229384 0.19884861 2.21124621
v -5.77197134 0.21617358 2.12435290
v -5.77148749 0.23349854 2.12435290
v -5.77180999 0.23353479 3.06253653
v -5.77229384 0.21620983 3.06253653
v -5.77175634 0.23349854 2.21124621
v -5.77100364 0.25089600 2.22864887
v -5.77180999 0.23353479 2.57142138
v -5.77240133 0.19881237 3.06253653
v -5.77218634 0.18148740 3.07981924
v -5.77197134 0.15937811 2.57142138
v -5.77218634 0.18145116 2.22864887
v -5.77197134 0.16408995 2.21124621
v -5.77240133 0.19884861 2.24605153
v -5.77207884 0.21617358 2.15915823
v -5.77229384 0.21620983 2.57142138
v -5.77240133 0.19884861 2.35022750
v -5.77229384 0.21617358 2.24605153
v -5.77180999 0.23349854 2.24605153
v -5.77240133 0.19881237 2.85406467
f 1 2 12
f 1 12 3
f 1 3 4
f 1 4 5
f 1 5 6
f 1 6 7
f 1 7 8
f 1 8 21
f 1 21 9
f 1 9 2
f 2 10 11
f 2 11 12
f 2 9 21
f 2 21 13
f 2 13 23
f 2 23 10
f 3 12 28
f 3 28 14
f 3 14 4
f 4 15 6
f 4 6 5
f 4 14 16
f 4 16 32
f 4 32 15
f 6 15 17
f 6 17 18
f 6 18 19
f 6 19 20
f 6 20 7
f 7 20 21
f 7 21 8
f 10 22 11
f 10 23 24
f 10 24 22
f 11 22 25
f 11 25 26
f 11 26 27
f 11 27 12
f 12 27 28
f 13 21 29
f 13 29 46
f 13 46 23
f 14 28 30
f 14 30 31
f 14 31 33
f 14 33 16
f 15 32 35
f 15 35 17
f 16 33 58
f 16 58 32
f 17 34 36
f 17 36 18
f 17 35 34
f 18 36 37
f 18 37 65
f 18 65 38
f 18 38 19
f 19 38 20
f 20 38 66
f 20 66 39
f 20 39 40
f 20 40 41
f 20 41 21
f 21 41 42
f 21 42 70
f 21 70 43
f 21 43 29
f 22 44 25
f 22 24 45
f 22 45 44
f 23 46 24
f 24 46 47
f 24 47 45
f 25 44 48
f 25 48 49
f 25 49 50
f 25 50 26
f 26 50 27
f 27 50 28
f 28 50 30
f 29 43 51
f 29 51 46
f 30 50 52
f 30 52 53
f 30 53 54
f 30 54 55
f 30 55 56
f 30 56 31
f 31 56 57
f 31 57 33
f 32 58 35
f 33 57 58
f 34 59 64
f 34 64 36
f 34 35 60
f 34 60 61
f 34 61 59
f 35 58 62
f 35 62 63
f 35 63 60
f 36 64 37
f 37 64 105
f 37 105 65
f 38 65 108
f 38 108 66
f 39 66 109
f 39 109 67
f 39 67 40
f 40 67 68
f 40 68 41
f 41 68 42
f 42 68 69
f 42 69 70
f 43 70 51
f 44 71 72
f 44 72 73
f 44 73 74
f 44 74 75
f 44 75 48
f 44 45 76
f 44 76 71
f 45 47 77
f 45 77 76
f 46 51 47
f 47 51 77
f 48 78 49
f 48 75 79
f 48 79 80
f 48 80 78
f 49 78 81
f 49 81 82
f 49 82 83
f 49 83 84
f 49 84 50
f 50 84 52
f 51 70 85
f 51 85 77
f 52 86 53
f 52 84 87
f 52 87 88
f 52 88 86
f 53 86 89
f 53 89 90
f 53 90 91
f 53 91 54
f 54 91 55
f 55 91 56
f 56 91 92
f 56 92 57
f 57 93 58
f 57 92 93
f 58 93 94
f 58 94 62
f 59 95 64
f 59 61 95
f 60 63 96
f 60 96 61
f 61 96 97
f 61 97 98
f 61 98 95
f 62 94 63
f 63 94 99
f 63 99 96
f 64 95 100
f 64 100 101
f 64 101 102
f 64 102 103
f 64 103 104
f 64 104 105
f 65 106 107
f 65 107 108
f 65 105 106
f 66 108 166
f 66 166 109
f 67 109 110
f 67 110 111
f 67 111 69
f 67 69 68
f 69 112 70
f 69 111 113
f 69 113 114
f 69 114 115
f 69 115 112
f 70 112 116
f 70 116 85
f 71 76 72
f 72 117 118
f 72 118 73
f 72 76 119
f 72 119 120
f 72 120 117
f 73 118 74
f 74 118 79
f 74 79 75
f 76 77 121
f 76 121 122
f 76 122 123
f 76 123 124
f 76 124 119
f 77 85 125
f 77 125 126
f 77 126 121
f 78 80 127
f 78 127 128
f 78 128 129
f 78 129 130
f 78 130 131
f 78 131 81
f 79 132 133
f 79 133 80
f 79 118 134
f 79 134 135
f 79 135 132
f 80 133 127
f 81 136 82
f 81 131 137
f 81 137 136
f 82 138 139
f 82 139 87
f 82 87 83
f 82 136 138
f 83 87 84
f 85 116 140
f 85 140 125
f 86 88 87
f 86 87 139
f 86 139 138
f 86 138 141
f 86 141 89
f 89 141 138
f 89 138 136
f 89 136 142
f 89 142 143
f 89 143 144
f 89 144 145
f 89 145 90
f 90 145 91
f 91 145 146
f 91 146 92
f 92 146 147
f 92 147 148
f 92 148 149
f 92 149 150
f 92 150 93
f 93 150 94
f 94 150 151
f 94 151 152
f 94 152 99
f 95 153 100
f 95 98 156
f 95 156 153
f 96 99 97
f 97 99 154
f 97 154 155
f 97 155 156
f 97 156 98
f 99 152 157
f 99 157 154
f 100 153 158
f 100 158 101
f 101 158 102
f 102 159 103
f 102 158 159
f 103 159 160
f 103 160 161
f 103 161 104
f 104 161 106
f 104 106 105
f 106 161 162
f 106 162 163
f 106 163 164
f 106 164 107
f 107 164 165
f 107 165 167
f 107 167 166
f 107 166 108
f 109 166 110
f 110 166 167
f 110 167 168
f 110 168 169
f 110 169 170
f 110 170 111
f 111 170 113
f 112 115 116
f 113 170 223
f 113 223 171
f 113 171 172
f 113 172 114
f 114 172 173
f 114 173 115
f 115 173 174
f 115 174 116
f 116 174 140
f 117 175 134
f 117 134 118
f 117 120 175
f 119 124 176
f 119 176 120
f 120 176 175
f 121 126 122
f 122 126 177
f 122 177 178
f 122 178 179
f 122 179 180
f 122 180 123
f 123 180 176
f 123 176 124
f 125 140 174
f 125 174 181
f 125 181 182
f 125 182 126
f 126 182 177
f 127 183 184
f 127 184 128
f 127 133 185
f 127 185 183
f 128 184 129
f 129 184 130
f 130 184 131
f 131 186 137
f 131 184 187
f 131 187 188
f 131 188 186
f 132 135 189
f 132 189 133
f 133 189 190
f 133 190 185
f 134 175 232
f 134 232 191
f 134 191 189
f 134 189 135
f 136 137 192
f 136 192 193
f 136 193 142
f 137 186 192
f 142 194 195
f 142 195 143
f 142 193 194
f 143 195 196
f 143 196 197
f 143 197 144
f 144 197 198
f 144 198 145
f 145 198 199
f 145 199 146
f 146 199 200
f 146 200 147
f 147 200 148
f 148 200 149
f 149 201 151
f 149 151 150
f 149 200 202
f 149 202 201
f 151 201 203
f 151 203 152
f 152 203 204
f 152 204 157
f 153 205 158
f 153 156 206
f 153 206 205
f 154 157 155
f 155 157 207
f 155 207 208
f 155 208 156
f 156 208 206
f 157 204 209
f 157 209 210
f 157 210 207
f 158 205 159
f 159 205 211
f 159 211 212
f 159 212 271
f 159 271 213
f 159 213 160
f 160 213 161
f 161 213 214
f 161 214 162
f 162 214 163
f 163 215 164
f 163 214 215
f 164 215 216
f 164 216 217
f 164 217 218
f 164 218 165
f 165 218 219
f 165 219 168
f 165 168 167
f 168 219 220
f 168 220 221
f 168 221 222
f 168 222 169
f 169 222 223
f 169 223 170
f 171 223 224
f 171 224 172
f 172 224 225
f 172 225 226
f 172 226 229
f 172 229 173
f 173 227 228
f 173 228 174
f 173 229 227
f 174 228 230
f 174 230 181
f 175 231 232
f 175 176 180
f 175 180 231
f 177 182 181
f 177 181 233
f 177 233 234
f 177 234 178
f 178 235 236
f 178 236 237
f 178 237 238
f 178 238 179
f 178 234 235
f 179 238 239
f 179 239 180
f 180 239 231
f 181 230 240
f 181 240 241
f 181 241 242
f 181 242 233
f 183 185 243
f 183 243 184
f 184 243 187
f 185 190 243
f 186 244 245
f 186 245 192
f 186 188 187
f 186 187 243
f 186 243 246
f 186 246 247
f 186 247 244
f 189 191 243
f 189 243 190
f 191 232 248
f 191 248 243
f 192 245 193
f 193 245 249
f 193 249 250
f 193 250 251
f 193 251 194
f 194 252 253
f 194 253 195
f 194 251 254
f 194 254 252
f 195 253 196
f 196 198 197
f 196 253 198
f 198 255 256
f 198 256 199
f 198 253 255
f 199 256 257
f 199 257 200
f 200 257 202
f 201 202 258
f 201 258 203
f 202 257 259
f 202 259 326
f 202 326 258
f 203 209 204
f 203 258 209
f 205 260 261
f 205 261 211
f 205 206 260
f 206 208 262
f 206 262 260
f 207 210 263
f 207 263 264
f 207 264 265
f 207 265 208
f 208 265 262
f 209 258 266
f 209 266 210
f 210 266 267
f 210 267 268
f 210 268 263
f 211 261 212
f 212 261 269
f 212 269 270
f 212 270 271
f 213 272 273
f 213 273 214
f 213 271 272
f 214 273 215
f 215 273 216
f 216 273 274
f 216 274 217
f 217 274 275
f 217 275 276
f 217 276 220
f 217 220 218
f 218 220 219
f 220 276 277
f 220 277 278
f 220 278 279
f 220 279 221
f 221 279 222
f 222 279 280
f 222 280 223
f 223 280 224
f 224 280 281
f 224 281 225
f 225 281 226
f 226 281 229
f 227 282 228
f 227 229 283
f 227 283 284
f 227 284 285
f 227 285 286
f 227 286 287
f 227 287 282
f 228 282 288
f 228 288 230
f 229 281 283
f 230 288 240
f 231 239 232
f 232 289 290
f 232 290 248
f 232 239 289
f 233 242 291
f 233 291 292
f 233 292 293
f 233 293 294
f 233 294 295
f 233 295 235
f 233 235 234
f 235 295 296
f 235 296 297
f 235 297 298
f 235 298 289
f 235 289 236
f 236 289 237
f 237 289 238
f 238 289 239
f 240 288 282
f 240 282 241
f 241 299 242
f 241 282 287
f 241 287 300
f 241 300 299
f 242 299 301
f 242 301 291
f 243 248 302
f 243 302 303
f 243 303 246
f 244 247 304
f 244 304 245
f 245 304 249
f 246 303 247
f 247 303 305
f 247 305 306
f 247 306 307
f 247 307 308
f 247 308 309
f 247 309 310
f 247 310 311
f 247 311 312
f 247 312 313
f 247 313 314
f 247 314 304
f 248 290 296
f 248 296 315
f 248 315 316
f 248 316 302
f 249 304 250
f 250 317 251
f 250 304 313
f 250 313 317
f 251 317 254
f 252 254 318
f 252 318 319
f 252 319 320
f 252 320 253
f 253 320 321
f 253 321 255
f 254 317 322
f 254 322 318
f 255 321 320
f 255 320 323
f 255 323 324
f 255 324 256
f 256 324 325
f 256 325 257
f 257 325 327
f 257 327 259
f 258 326 334
f 258 334 266
f 259 327 390
f 259 390 326
f 260 328 261
f 260 262 328
f 261 328 329
f 261 329 269
f 262 265 330
f 262 330 328
f 263 268 331
f 263 331 264
f 264 331 332
f 264 332 333
f 264 333 265
f 265 333 330
f 266 268 267
f 266 334 268
f 268 334 335
f 268 335 336
f 268 336 331
f 269 329 337
f 269 337 270
f 270 337 271
f 271 337 272
f 272 337 338
f 272 338 273
f 273 338 339
f 273 339 274
f 274 340 275
f 274 339 340
f 275 340 341
f 275 341 342
f 275 342 276
f 276 342 343
f 276 343 277
f 277 343 344
f 277 344 278
f 278 344 279
f 279 344 280
f 280 344 345
f 280 345 346
f 280 346 347
f 280 347 348
f 280 348 349
f 280 349 281
f 281 349 350
f 281 350 283
f 283 350 284
f 284 350 351
f 284 351 352
f 284 352 353
f 284 353 354
f 284 354 287
f 284 287 286
f 284 286 285
f 287 354 300
f 289 298 296
f 289 296 290
f 291 301 355
f 291 355 356
f 291 356 292
f 292 356 357
f 292 357 358
f 292 358 359
f 292 359 293
f 293 359 315
f 293 315 294
f 294 315 295
f 295 315 296
f 296 298 297
f 299 300 360
f 299 360 301
f 300 354 361
f 300 361 360
f 301 362 355
f 301 360 363
f 301 363 362
f 302 364 303
f 302 316 365
f 302 365 366
f 302 366 367
f 302 367 364
f 303 364 305
f 304 314 313
f 305 364 429
f 305 429 368
f 305 368 369
f 305 369 306
f 306 369 370
f 306 370 307
f 307 370 371
f 307 371 372
f 307 372 308
f 308 372 310
f 308 310 309
f 310 373 311
f 310 372 374
f 310 374 375
f 310 375 376
f 310 376 377
f 310 377 322
f 310 322 378
f 310 378 373
f 311 373 378
f 311 378 322
f 311 322 317
f 311 317 313
f 311 313 312
f 315 359 365
f 315 365 316
f 318 379 380
f 318 380 319
f 318 322 377
f 318 377 376
f 318 376 375
f 318 375 379
f 319 380 381
f 319 381 382
f 319 382 320
f 320 382 383
f 320 383 384
f 320 384 385
f 320 385 386
f 320 386 323
f 323 387 388
f 323 388 324
f 323 386 451
f 323 451 387
f 324 388 389
f 324 389 325
f 325 389 391
f 325 391 327
f 326 390 403
f 326 403 334
f 327 391 457
f 327 457 390
f 328 330 392
f 328 392 393
f 328 393 394
f 328 394 395
f 328 395 396
f 328 396 329
f 329 397 398
f 329 398 399
f 329 399 340
f 329 340 339
f 329 339 338
f 329 338 337
f 329 396 397
f 330 333 392
f 331 400 332
f 331 336 401
f 331 401 400
f 332 400 402
f 332 402 392
f 332 392 333
f 334 403 404
f 334 404 335
f 335 404 336
f 336 404 401
f 340 399 405
f 340 405 341
f 341 405 406
f 341 406 342
f 342 406 407
f 342 407 343
f 343 407 408
f 343 408 344
f 344 408 409
f 344 409 410
f 344 410 348
f 344 348 345
f 345 347 346
f 345 348 347
f 348 410 411
f 348 411 412
f 348 412 413
f 348 413 349
f 349 413 351
f 349 351 350
f 351 413 491
f 351 491 414
f 351 414 352
f 352 414 415
f 352 415 416
f 352 416 353
f 353 416 415
f 353 415 417
f 353 417 418
f 353 418 419
f 353 419 420
f 353 420 421
f 353 421 354
f 354 421 361
f 355 422 356
f 355 362 423
f 355 423 422
f 356 422 424
f 356 424 425
f 356 425 365
f 356 365 357
f 357 365 358
f 358 365 359
f 360 361 426
f 360 426 363
f 361 421 426
f 362 363 427
f 362 427 423
f 363 426 428
f 363 428 427
f 364 367 430
f 364 430 431
f 364 431 432
f 364 432 433
f 364 433 506
f 364 506 429
f 365 425 366
f 366 425 424
f 366 424 422
f 366 422 434
f 366 434 367
f 367 434 435
f 367 435 436
f 367 436 437
f 367 437 430
f 368 438 439
f 368 439 369
f 368 429 440
f 368 440 438
f 369 439 370
f 370 439 441
f 370 441 442
f 370 442 443
f 370 443 444
f 370 444 371
f 371 444 445
f 371 445 446
f 371 446 447
f 371 447 372
f 372 447 374
f 374 447 381
f 374 381 380
f 374 380 375
f 375 380 379
f 381 447 382
f 382 447 446
f 382 446 383
f 383 446 445
f 383 445 384
f 384 445 448
f 384 448 449
f 384 449 450
f 384 450 385
f 385 450 386
f 386 450 451
f 387 452 453
f 387 453 455
f 387 455 388
f 387 451 454
f 387 454 452
f 388 455 456
f 388 456 389
f 389 456 458
f 389 458 391
f 390 457 480
f 390 480 403
f 391 458 547
f 391 547 457
f 392 402 393
f 393 402 459
f 393 459 394
f 394 459 462
f 394 462 395
f 395 460 461
f 395 461 396
f 395 462 460
f 396 461 463
f 396 463 464
f 396 464 465
f 396 465 466
f 396 466 467
f 396 467 397
f 397 468 469
f 397 469 470
f 397 470 471
f 397 471 398
f 397 467 468
f 398 471 472
f 398 472 473
f 398 473 474
f 398 474 475
f 398 475 399
f 399 475 476
f 399 476 477
f 399 477 405
f 400 478 462
f 400 462 459
f 400 459 402
f 400 401 479
f 400 479 478
f 401 404 481
f 401 481 479
f 403 480 481
f 403 481 404
f 405 477 572
f 405 572 482
f 405 482 406
f 406 482 483
f 406 483 407
f 407 483 408
f 408 484 485
f 408 485 409
f 408 483 484
f 409 485 410
f 410 486 411
f 410 485 487
f 410 487 488
f 410 488 486
f 411 486 412
f 412 489 490
f 412 490 491
f 412 491 413
f 412 486 488
f 412 488 489
f 414 491 584
f 414 584 492
f 414 492 415
f 415 492 493
f 415 493 417
f 417 493 418
f 418 493 494
f 418 494 419
f 419 495 496
f 419 496 497
f 419 497 498
f 419 498 420
f 419 494 495
f 420 498 499
f 420 499 500
f 420 500 501
f 420 501 421
f 421 501 502
f 421 502 426
f 422 423 434
f 423 427 503
f 423 503 434
f 426 502 504
f 426 504 428
f 427 505 503
f 427 428 505
f 428 504 505
f 429 506 507
f 429 507 508
f 429 508 509
f 429 509 510
f 429 510 440
f 430 437 431
f 431 437 511
f 431 511 512
f 431 512 432
f 432 512 433
f 433 512 609
f 433 609 506
f 434 503 513
f 434 513 435
f 435 513 514
f 435 514 515
f 435 515 436
f 436 515 516
f 436 516 517
f 436 517 437
f 437 517 511
f 438 518 519
f 438 519 520
f 438 520 439
f 438 440 518
f 439 520 521
f 439 521 522
f 439 522 523
f 439 523 524
f 439 524 525
f 439 525 526
f 439 526 527
f 439 527 528
f 439 528 529
f 439 529 441
f 440 530 531
f 440 531 518
f 440 510 532
f 440 532 533
f 440 533 534
f 440 534 530
f 441 529 442
f 442 529 535
f 442 535 536
f 442 536 537
f 442 537 443
f 443 537 444
f 444 537 538
f 444 538 448
f 444 448 445
f 448 538 537
f 448 537 539
f 448 539 449
f 449 539 454
f 449 454 540
f 449 540 450
f 450 540 454
f 450 454 451
f 452 541 453
f 452 454 542
f 452 542 541
f 453 541 545
f 453 545 455
f 454 539 543
f 454 543 544
f 454 544 542
f 455 545 546
f 455 546 456
f 456 546 548
f 456 548 458
f 457 547 576
f 457 576 480
f 458 548 549
f 458 549 547
f 460 550 461
f 460 462 552
f 460 552 550
f 461 550 551
f 461 551 553
f 461 553 463
f 462 478 552
f 463 553 554
f 463 554 555
f 463 555 464
f 464 556 465
f 464 555 556
f 465 556 466
f 466 556 557
f 466 557 558
f 466 558 467
f 467 558 559
f 467 559 560
f 467 560 561
f 467 561 468
f 468 561 562
f 468 562 469
f 469 563 564
f 469 564 470
f 469 562 565
f 469 565 563
f 470 564 566
f 470 566 471
f 471 566 567
f 471 567 568
f 471 568 472
f 472 568 569
f 472 569 570
f 472 570 571
f 472 571 473
f 473 571 474
f 474 571 572
f 474 572 475
f 475 572 476
f 476 572 477
f 478 573 574
f 478 574 552
f 478 479 573
f 479 575 573
f 479 481 575
f 480 576 577
f 480 577 481
f 481 577 575
f 482 572 578
f 482 578 483
f 483 578 579
f 483 579 484
f 484 579 580
f 484 580 485
f 485 580 581
f 485 581 487
f 487 581 582
f 487 582 488
f 488 582 583
f 488 583 489
f 489 583 582
f 489 582 490
f 490 582 491
f 491 582 584
f 492 584 585
f 492 585 493
f 493 586 494
f 493 585 586
f 494 586 587
f 494 587 495
f 495 588 589
f 495 589 590
f 495 590 591
f 495 591 592
f 495 592 593
f 495 593 594
f 495 594 496
f 495 587 588
f 496 594 595
f 496 595 596
f 496 596 497
f 497 596 498
f 498 596 597
f 498 597 499
f 499 597 598
f 499 598 599
f 499 599 600
f 499 600 500
f 500 600 601
f 500 601 501
f 501 601 602
f 501 602 603
f 501 603 502
f 502 603 604
f 502 604 605
f 502 605 504
f 503 505 513
f 504 605 604
f 504 604 606
f 504 606 607
f 504 607 608
f 504 608 505
f 505 608 513
f 506 609 507
f 507 609 508
f 508 609 509
f 509 609 610
f 509 610 611
f 509 611 510
f 510 611 612
f 510 612 613
f 510 613 614
f 510 614 615
f 510 615 616
f 510 616 532
f 511 517 512
f 512 517 617
f 512 617 618
f 512 618 619
f 512 619 609
f 513 608 514
f 514 608 515
f 515 608 516
f 516 608 607
f 516 607 606
f 516 606 620
f 516 620 621
f 516 621 517
f 517 621 622
f 517 622 617
f 518 623 624
f 518 624 625
f 518 625 626
f 518 626 520
f 518 520 519
f 518 531 627
f 518 627 623
f 520 626 628
f 520 628 629
f 520 629 630
f 520 630 631
f 520 631 521
f 521 631 522
f 522 631 632
f 522 632 633
f 522 633 634
f 522 634 523
f 523 634 524
f 524 634 525
f 525 634 635
f 525 635 636
f 525 636 637
f 525 637 638
f 525 638 639
f 525 639 526
f 526 639 637
f 526 637 527
f 527 535 528
f 527 637 535
f 528 535 529
f 530 534 640
f 530 640 641
f 530 641 627
f 530 627 531
f 532 616 642
f 532 642 643
f 532 643 644
f 532 644 645
f 532 645 533
f 533 645 534
f 534 645 646
f 534 646 640
f 535 637 647
f 535 647 648
f 535 648 536
f 536 648 649
f 536 649 650
f 536 650 537
f 537 650 539
f 539 650 543
f 541 651 652
f 541 652 653
f 541 653 654
f 541 654 655
f 541 655 656
f 541 656 545
f 541 542 651
f 542 544 657
f 542 657 658
f 542 658 651
f 543 650 649
f 543 649 659
f 543 659 544
f 544 659 660
f 544 660 657
f 545 656 661
f 545 661 662
f 545 662 546
f 546 662 663
f 546 663 548
f 547 549 576
f 548 663 664
f 548 664 549
f 549 664 665
f 549 665 666
f 549 666 667
f 549 667 576
f 550 552 574
f 550 574 551
f 551 574 668
f 551 668 553
f 553 668 669
f 553 669 554
f 554 670 671
f 554 671 555
f 554 669 670
f 555 671 672
f 555 672 556
f 556 672 673
f 556 673 674
f 556 674 557
f 557 674 560
f 557 560 558
f 558 560 559
f 560 674 675
f 560 675 562
f 560 562 561
f 562 675 676
f 562 676 563
f 562 563 565
f 563 676 564
f 564 676 677
f 564 677 566
f 566 678 567
f 566 677 678
f 567 678 679
f 567 679 680
f 567 680 568
f 568 680 569
f 569 680 681
f 569 681 682
f 569 682 570
f 570 682 683
f 570 683 571
f 571 683 578
f 571 578 572
f 573 575 684
f 573 684 685
f 573 685 668
f 573 668 574
f 575 577 684
f 576 667 686
f 576 686 684
f 576 684 577
f 578 683 687
f 578 687 579
f 579 687 688
f 579 688 580
f 580 688 689
f 580 689 581
f 581 689 786
f 581 786 690
f 581 690 582
f 582 690 691
f 582 691 692
f 582 692 584
f 584 693 585
f 584 692 788
f 584 788 693
f 585 693 694
f 585 694 695
f 585 695 696
f 585 696 586
f 586 696 587
f 587 696 588
f 588 697 698
f 588 698 589
f 588 696 699
f 588 699 700
f 588 700 701
f 588 701 697
f 589 698 702
f 589 702 703
f 589 703 704
f 589 704 705
f 589 705 706
f 589 706 590
f 590 706 591
f 591 706 707
f 591 707 708
f 591 708 592
f 592 708 593
f 593 708 594
f 594 708 595
f 595 708 709
f 595 709 596
f 596 709 598
f 596 598 597
f 598 709 721
f 598 721 710
f 598 710 599
f 599 710 711
f 599 711 600
f 600 711 712
f 600 712 622
f 600 622 601
f 601 622 602
f 602 622 621
f 602 621 603
f 603 621 620
f 603 620 604
f 604 620 606
f 609 619 610
f 610 619 713
f 610 713 714
f 610 714 611
f 611 714 612
f 612 714 715
f 612 715 613
f 613 715 716
f 613 716 614
f 614 716 615
f 615 716 717
f 615 717 616
f 616 717 718
f 616 718 719
f 616 719 643
f 616 643 642
f 617 619 618
f 617 622 712
f 617 712 619
f 619 720 713
f 619 712 711
f 619 711 710
f 619 710 721
f 619 721 722
f 619 722 723
f 619 723 724
f 619 724 725
f 619 725 720
f 623 726 727
f 623 727 624
f 623 627 728
f 623 728 726
f 624 727 729
f 624 729 628
f 624 628 625
f 625 628 626
f 627 641 743
f 627 743 730
f 627 730 731
f 627 731 732
f 627 732 733
f 627 733 728
f 628 729 734
f 628 734 735
f 628 735 629
f 629 735 736
f 629 736 630
f 630 736 737
f 630 737 631
f 631 737 632
f 632 737 738
f 632 738 633
f 633 635 634
f 633 738 635
f 635 738 660
f 635 660 636
f 636 660 637
f 637 639 638
f 637 660 659
f 637 659 647
f 640 646 739
f 640 739 740
f 640 740 741
f 640 741 641
f 641 742 743
f 641 741 742
f 643 744 644
f 643 719 745
f 643 745 746
f 643 746 747
f 643 747 744
f 644 744 748
f 644 748 645
f 645 748 749
f 645 749 646
f 646 749 750
f 646 750 751
f 646 751 739
f 647 659 648
f 648 659 649
f 651 658 653
f 651 653 652
f 653 658 752
f 653 752 753
f 653 753 654
f 654 753 655
f 655 753 656
f 656 753 754
f 656 754 755
f 656 755 661
f 657 660 738
f 657 738 737
f 657 737 752
f 657 752 658
f 661 755 756
f 661 756 662
f 662 756 663
f 663 756 757
f 663 757 758
f 663 758 664
f 664 758 759
f 664 759 665
f 665 759 760
f 665 760 666
f 666 760 761
f 666 761 762
f 666 762 667
f 667 762 686
f 668 685 669
f 669 685 762
f 669 762 761
f 669 761 670
f 670 763 764
f 670 764 671
f 670 761 763
f 671 764 765
f 671 765 672
f 672 766 767
f 672 767 673
f 672 765 766
f 673 768 770
f 673 770 674
f 673 767 769
f 673 769 768
f 674 770 771
f 674 771 675
f 675 771 676
f 676 771 772
f 676 772 773
f 676 773 774
f 676 774 677
f 677 774 775
f 677 775 776
f 677 776 777
f 677 777 678
f 678 777 778
f 678 778 679
f 679 779 780
f 679 780 680
f 679 778 779
f 680 780 681
f 681 780 781
f 681 781 682
f 682 781 782
f 682 782 687
f 682 687 683
f 684 762 685
f 684 686 762
f 687 782 783
f 687 783 688
f 688 783 689
f 689 783 784
f 689 784 785
f 689 785 786
f 690 786 787
f 690 787 691
f 691 787 788
f 691 788 692
f 693 788 785
f 693 785 694
f 694 785 789
f 694 789 790
f 694 790 791
f 694 791 792
f 694 792 695
f 695 792 700
f 695 700 696
f 696 700 699
f 697 701 793
f 697 793 794
f 697 794 795
f 697 795 698
f 698 795 796
f 698 796 797
f 698 797 702
f 700 792 701
f 701 792 798
f 701 798 799
f 701 799 800
f 701 800 801
f 701 801 793
f 702 797 802
f 702 802 803
f 702 803 804
f 702 804 805
f 702 805 806
f 702 806 703
f 703 806 704
f 704 806 705
f 705 806 807
f 705 807 706
f 706 807 808
f 706 808 809
f 706 809 707
f 707 809 709
f 707 709 708
f 709 809 722
f 709 722 721
f 713 720 714
f 714 720 810
f 714 810 715
f 715 810 811
f 715 811 812
f 715 812 813
f 715 813 716
f 716 813 814
f 716 814 815
f 716 815 717
f 717 815 816
f 717 816 718
f 718 816 817
f 718 817 719
f 719 817 745
f 720 725 810
f 722 809 723
f 723 809 808
f 723 808 807
f 723 807 724
f 724 807 725
f 725 807 806
f 725 806 810
f 726 728 818
f 726 818 819
f 726 819 820
f 726 820 734
f 726 734 727
f 727 734 729
f 728 733 818
f 730 821 822
f 730 822 731
f 730 743 835
f 730 835 821
f 731 822 823
f 731 823 824
f 731 824 818
f 731 818 732
f 732 818 733
f 734 820 825
f 734 825 826
f 734 826 735
f 735 827 736
f 735 826 827
f 736 827 828
f 736 828 753
f 736 753 752
f 736 752 737
f 739 751 829
f 739 829 740
f 740 829 830
f 740 830 831
f 740 831 832
f 740 832 742
f 740 742 741
f 742 832 833
f 742 833 834
f 742 834 743
f 743 834 835
f 744 829 836
f 744 836 837
f 744 837 748
f 744 747 829
f 745 817 838
f 745 838 746
f 746 839 747
f 746 838 840
f 746 840 841
f 746 841 839
f 747 839 829
f 748 837 749
f 749 837 836
f 749 836 750
f 750 836 829
f 750 829 751
f 753 828 842
f 753 842 843
f 753 843 754
f 754 843 755
f 755 843 844
f 755 844 845
f 755 845 756
f 756 845 846
f 756 846 847
f 756 847 848
f 756 848 757
f 757 848 849
f 757 849 758
f 758 849 759
f 759 849 760
f 760 849 761
f 761 849 763
f 763 849 850
f 763 850 764
f 764 851 765
f 764 850 851
f 765 851 852
f 765 852 766
f 766 852 767
f 767 852 853
f 767 853 769
f 768 853 770
f 768 769 853
f 770 853 854
f 770 854 771
f 771 854 855
f 771 855 772
f 772 855 773
f 773 775 774
f 773 855 775
f 775 856 857
f 775 857 776
f 775 855 858
f 775 858 856
f 776 857 777
f 777 859 778
f 777 857 859
f 778 859 860
f 778 860 861
f 778 861 862
f 778 862 779
f 779 862 780
f 780 863 781
f 780 862 861
f 780 861 863
f 781 864 783
f 781 783 782
f 781 863 864
f 783 864 784
f 784 865 785
f 784 864 865
f 785 865 866
f 785 866 789
f 785 788 787
f 785 787 786
f 789 866 865
f 789 865 790
f 790 865 867
f 790 867 791
f 791 867 868
f 791 868 869
f 791 869 798
f 791 798 792
f 793 801 800
f 793 800 870
f 793 870 794
f 794 870 841
f 794 841 840
f 794 840 795
f 795 840 796
f 796 840 838
f 796 838 871
f 796 871 872
f 796 872 797
f 797 872 802
f 798 873 799
f 798 869 873
f 799 873 874
f 799 874 875
f 799 875 800
f 800 875 876
f 800 876 877
f 800 877 878
f 800 878 870
f 802 872 815
f 802 815 814
f 802 814 813
f 802 813 803
f 803 813 812
f 803 812 804
f 804 812 811
f 804 811 805
f 805 811 810
f 805 810 806
f 815 872 816
f 816 872 871
f 816 871 838
f 816 838 817
f 818 824 819
f 819 824 823
f 819 823 822
f 819 822 879
f 819 879 880
f 819 880 881
f 819 881 825
f 819 825 820
f 821 835 892
f 821 892 882
f 821 882 883
f 821 883 879
f 821 879 822
f 825 881 884
f 825 884 826
f 826 884 885
f 826 885 827
f 827 886 828
f 827 885 886
f 828 886 842
f 829 839 887
f 829 887 888
f 829 888 889
f 829 889 830
f 830 889 831
f 831 890 891
f 831 891 835
f 831 835 834
f 831 834 833
f 831 833 832
f 831 889 890
f 835 891 893
f 835 893 894
f 835 894 895
f 835 895 892
f 839 841 870
f 839 870 878
f 839 878 887
f 842 886 843
f 843 886 896
f 843 896 897
f 843 897 844
f 844 897 898
f 844 898 845
f 845 898 846
f 846 898 899
f 846 899 847
f 847 899 900
f 847 900 901
f 847 901 848
f 848 901 902
f 848 902 849
f 849 902 903
f 849 903 850
f 850 903 851
f 851 903 904
f 851 904 905
f 851 905 852
f 852 905 853
f 853 905 906
f 853 906 907
f 853 907 854
f 854 907 855
f 855 907 910
f 855 910 858
f 856 908 857
f 856 858 910
f 856 910 909
f 856 909 908
f 857 908 911
f 857 911 859
f 859 911 860
f 860 911 912
f 860 912 861
f 861 912 913
f 861 913 914
f 861 914 915
f 861 915 916
f 861 916 863
f 863 916 868
f 863 868 917
f 863 917 864
f 864 917 867
f 864 867 918
f 864 918 865
f 865 918 867
f 867 917 868
f 868 916 915
f 868 915 919
f 868 919 914
f 868 914 920
f 868 920 873
f 868 873 869
f 873 920 921
f 873 921 874
f 874 921 876
f 874 876 875
f 876 922 923
f 876 923 924
f 876 924 877
f 876 921 925
f 876 925 922
f 877 924 926
f 877 926 927
f 877 927 878
f 878 927 887
f 879 883 880
f 880 928 929
f 880 929 881
f 880 883 928
f 881 929 884
f 882 930 928
f 882 928 883
f 882 892 941
f 882 941 930
f 884 929 931
f 884 931 932
f 884 932 933
f 884 933 934
f 884 934 885
f 885 934 897
f 885 897 886
f 886 897 896
f 887 935 888
f 887 927 935
f 888 935 889
f 889 935 936
f 889 936 937
f 889 937 938
f 889 938 939
f 889 939 890
f 890 940 894
f 890 894 891
f 890 939 938
f 890 938 940
f 891 894 893
f 892 895 940
f 892 940 941
f 894 940 895
f 897 934 933
f 897 933 898
f 898 933 942
f 898 942 943
f 898 943 899
f 899 943 900
f 900 943 944
f 900 944 945
f 900 945 901
f 901 945 946
f 901 946 902
f 902 946 903
f 903 946 904
f 904 946 905
f 905 947 948
f 905 948 906
f 905 946 947
f 906 948 949
f 906 949 907
f 907 949 910
f 908 909 950
f 908 950 911
f 909 910 949
f 909 949 951
f 909 951 952
f 909 952 950
f 911 953 913
f 911 913 912
f 911 950 953
f 913 954 914
f 913 953 954
f 914 954 920
f 914 919 915
f 920 954 925
f 920 925 921
f 922 955 923
f 922 925 956
f 922 956 955
f 923 955 957
f 923 957 958
f 923 958 924
f 924 958 959
f 924 959 960
f 924 960 927
f 924 927 926
f 925 954 956
f 927 960 935
f 928 930 941
f 928 941 940
f 928 940 961
f 928 961 929
f 929 962 931
f 929 961 938
f 929 938 967
f 929 967 963
f 929 963 962
f 931 962 964
f 931 964 932
f 932 964 965
f 932 965 933
f 933 965 942
f 935 960 936
f 936 960 966
f 936 966 937
f 937 966 938
f 938 961 940
f 938 966 967
f 942 965 968
f 942 968 969
f 942 969 943
f 943 969 970
f 943 970 944
f 944 970 971
f 944 971 945
f 945 971 947
f 945 947 946
f 947 971 972
f 947 972 948
f 948 972 973
f 948 973 949
f 949 973 974
f 949 974 977
f 949 977 951
f 950 952 975
f 950 975 976
f 950 976 956
f 950 956 953
f 951 977 975
f 951 975 952
f 953 956 954
f 955 976 975
f 955 975 978
f 955 978 979
f 955 979 980
f 955 980 957
f 955 956 976
f 957 980 981
f 957 981 958
f 958 981 959
f 959 981 960
f 960 981 966
f 962 982 964
f 962 963 982
f 963 967 986
f 963 986 982
f 964 968 965
f 964 982 983
f 964 983 968
f 966 984 985
f 966 985 967
f 966 981 984
f 967 985 986
f 968 983 987
f 968 987 969
f 969 987 970
f 970 987 988
f 970 988 972
f 970 972 971
f 972 988 987
f 972 987 989
f 972 989 973
f 973 989 974
f 974 990 991
f 974 991 977
f 974 989 992
f 974 992 990
f 975 977 991
f 975 991 978
f 978 991 990
f 978 990 979
f 979 992 993
f 979 993 980
f 979 990 992
f 980 993 984
f 980 984 981
f 982 986 994
f 982 994 983
f 983 994 992
f 983 992 995
f 983 995 987
f 984 993 996
f 984 996 997
f 984 997 985
f 985 997 986
f 986 997 996
f 986 996 994
f 987 995 992
f 987 992 998
f 987 998 989
f 989 998 992
f 992 994 996
f 992 996 993

