# https://github.com/mikedh/trimesh
v -6.36760074 2.05793476 4.15895958
v -6.36772109 2.07354368 4.15895958
v -6.36760074 2.04056579 4.15895958
v -6.36760074 2.05793476 3.75819086
v -6.36772109 2.07530379 3.75819086
v -6.36774511 2.07530379 4.15895958
v -6.37051358 2.02319681 4.15895958
v -6.36952662 2.02284899 3.75819086
v -6.36760074 2.04056579 3.75819086
v -6.37080252 2.09153450 3.75819086
v -6.37145249 2.08771922 4.15895958
v -6.37101918 2.09226173 3.75819086
v -6.37422095 2.01391155 4.15895958
v -6.37241542 2.00764061 3.75819086
v -6.38372975 2.09179797 4.15895958
v -6.37995030 2.10116753 3.75819086
v -6.38372975 2.10368646 3.75819086
v -6.38276682 2.01324760 4.15895958
v -6.38372975 1.99799702 3.75819086
v -6.40111085 2.09214579 4.15895958
v -6.40111085 2.10474043 3.75819086
v -6.38372975 2.01317381 4.15895958
v -6.40111085 1.99721708 3.75819086
v -6.61353345 2.09217743 4.15895958
v -6.61353345 2.10477202 3.75819086
v -6.39932935 2.01305787 4.15895958
v -6.61353345 1.99711170 3.75819086
v -6.40111085 2.01304731 4.15895958
v -6.61353345 2.01301572 4.15895958
f 1 2 6
f 1 6 11
f 1 11 15
f 1 15 20
f 1 20 24
f 1 24 29
f 1 29 28
f 1 28 26
f 1 26 22
f 1 22 18
f 1 18 13
f 1 13 7
f 1 7 3
f 1 3 9
f 1 9 4
f 1 4 5
f 1 5 2
f 2 5 6
f 3 7 8
f 3 8 9
f 4 9 8
f 4 8 14
f 4 14 19
f 4 19 23
f 4 23 27
f 4 27 25
f 4 25 21
f 4 21 17
f 4 17 16
f 4 16 12
f 4 12 10
f 4 10 5
f 5 10 6
f 6 10 12
f 6 12 11
f 7 13 14
f 7 14 8
f 11 12 16
f 11 16 17
f 11 17 15
f 13 18 19
f 13 19 14
f 15 17 21
f 15 21 20
f 18 22 19
f 19 22 23
f 20 21 25
f 20 25 24
f 22 26 23
f 23 26 28
f 23 28 27
f 24 25 27
f 24 27 29
f 27 28 29

