# https://github.com/mikedh/trimesh
v -2.83728429 0.48603877 1.44581464
v -2.69208996 0.48603877 1.44581464
v -2.83728429 0.48603877 1.50639459
v -2.81266591 0.67704942 1.44581464
v -2.69207577 0.55350052 1.53268465
v -2.69208996 0.48603877 1.53268465
v -2.69208996 0.67714294 1.44581464
v -2.73493048 0.48603877 1.55995789
v -2.69208996 0.67714294 1.53066231
v -2.81259486 0.67714294 1.44584815
v -2.80736417 0.67714294 1.44581464
v -2.69208996 0.66791982 1.53189135
v -2.69208996 0.65053991 1.53224891
v -2.69208996 0.63316001 1.53233828
f 1 2 6
f 1 6 8
f 1 8 3
f 1 3 4
f 1 4 11
f 1 11 7
f 1 7 2
f 2 5 6
f 2 7 5
f 3 8 9
f 3 9 10
f 3 10 4
f 4 10 11
f 5 8 6
f 5 7 9
f 5 9 12
f 5 12 13
f 5 13 14
f 5 14 8
f 7 11 10
f 7 10 9
f 8 14 13
f 8 13 12
f 8 12 9

