# https://github.com/mikedh/trimesh
v -4.99557233 0.23270700 0.59530204
v -4.99644506 0.23270700 0.58585185
v -5.00150746 0.23270700 0.60408973
v -4.97968700 0.09456950 0.60851987
v -4.97968700 0.09456950 0.59600068
v -4.98789142 0.09456950 0.58731645
v -4.98789142 0.07719710 0.58716638
v -4.99644506 0.02505651 0.58585185
v -5.01110854 0.23270700 0.58508071
v -5.09070967 0.22587967 0.63795205
v -5.08460003 0.22337778 0.63795205
v -5.07831579 0.21259897 0.63795205
v -5.07115850 0.19948201 0.63795205
v -6.34739671 0.23270700 0.63795205
v -4.97898867 0.07719710 0.60908916
v -5.05422583 0.10476379 0.63795205
v -5.05055989 0.07665930 0.63795205
v -4.97898867 0.07719710 0.59585061
v -4.98789142 0.02505651 0.58716638
v -4.99661967 0.00768412 0.58586738
v -5.01110854 0.02505651 0.58508071
v -6.74837049 0.23270700 0.58508071
v -6.74156242 0.23270700 0.63795205
v -4.97898867 0.02505651 0.60908916
v -5.04881422 0.05980130 0.63795205
v -4.97898867 0.02505651 0.59585061
v -4.98789142 0.00768412 0.58725431
v -4.99871445 -0.00171522 0.58612609
v -5.01110854 0.00768412 0.58511178
v -5.53322968 0.02505651 0.58508071
v -6.74837049 0.02510332 0.58508071
v -6.75779706 0.23270700 0.58581042
v -6.75727324 0.23270700 0.60409490
v -6.76076437 0.10668107 0.63795205
v -4.97933779 0.00768412 0.60883553
v -5.04898903 0.04263935 0.63795205
v -4.97933779 0.00768412 0.59593864
v -4.98143257 -0.00370261 0.59868153
v -5.01110854 -0.00615769 0.59530204
v -5.01110854 -0.00204259 0.58587774
v -4.99330294 -0.00468470 0.59385815
v -5.53322968 0.00768412 0.58511178
v -6.74837049 0.00773093 0.58511696
v -6.75832068 0.00773093 0.58587256
v -6.75832068 0.02510332 0.58585703
v -6.75832068 0.23270700 0.58585703
v -6.75832068 0.23270700 0.59530721
v -6.76146280 0.09461631 0.63795205
v -4.98143257 -0.00370261 0.60705009
v -5.05038549 0.03501696 0.63795205
v -5.05178194 0.03045767 0.63795205
v -4.99382666 -0.00508218 0.60858201
v -6.36624965 -0.00503537 0.61152156
v -5.09804136 -0.00615769 0.59530204
v -5.53322968 -0.00204259 0.58587774
v -6.74837049 -0.00201918 0.58588292
v -6.75779706 -0.00166841 0.58612609
v -6.75954273 0.00773093 0.59530721
v -6.76024075 0.02510332 0.59530721
v -6.76128799 0.09461631 0.59530721
v -6.76233564 0.09461631 0.61266532
v -6.75832068 0.00773093 0.61016560
v -6.75413111 0.00773093 0.63795205
v -5.05614611 0.02875073 0.63795205
v -5.06330319 0.02711412 0.63795205
v -6.36624965 0.00155822 0.63795205
v -6.73824589 -0.00248677 0.63795205
v -6.73178683 -0.00494185 0.61276878
v -6.33151149 -0.00611088 0.59530721
v -6.08153565 -0.00363250 0.58955218
v -6.73108861 -0.00608758 0.59530721
v -6.75797146 -0.00176203 0.59530721
v -6.74837049 -0.00433393 0.59530721
v -6.75762225 -0.00131774 0.60724676
v -6.74662482 -0.00248677 0.63795205
v -6.74959233 -0.00351557 0.61287752
f 1 2 9
f 1 9 22
f 1 22 32
f 1 32 46
f 1 46 47
f 1 47 33
f 1 33 23
f 1 23 14
f 1 14 3
f 1 3 4
f 1 4 5
f 1 5 2
f 2 5 6
f 2 6 7
f 2 7 19
f 2 19 8
f 2 8 21
f 2 21 9
f 3 10 11
f 3 11 12
f 3 12 13
f 3 13 4
f 3 14 10
f 4 15 18
f 4 18 5
f 4 13 16
f 4 16 17
f 4 17 15
f 5 18 6
f 6 18 7
f 7 18 26
f 7 26 19
f 8 20 21
f 8 19 20
f 9 21 30
f 9 30 31
f 9 31 22
f 10 14 23
f 10 23 34
f 10 34 48
f 10 48 63
f 10 63 75
f 10 75 67
f 10 67 66
f 10 66 65
f 10 65 64
f 10 64 51
f 10 51 50
f 10 50 36
f 10 36 25
f 10 25 17
f 10 17 16
f 10 16 13
f 10 13 12
f 10 12 11
f 15 24 26
f 15 26 18
f 15 17 25
f 15 25 24
f 19 26 27
f 19 27 20
f 20 28 29
f 20 29 21
f 20 27 28
f 21 29 42
f 21 42 30
f 22 31 32
f 23 33 34
f 24 35 37
f 24 37 26
f 24 25 36
f 24 36 35
f 26 37 27
f 27 37 38
f 27 38 28
f 28 39 40
f 28 40 29
f 28 38 41
f 28 41 39
f 29 40 55
f 29 55 42
f 30 42 31
f 31 43 44
f 31 44 45
f 31 45 32
f 31 42 43
f 32 45 46
f 33 47 34
f 34 47 48
f 35 49 38
f 35 38 37
f 35 36 50
f 35 50 51
f 35 51 49
f 38 49 52
f 38 52 41
f 39 41 52
f 39 52 53
f 39 53 54
f 39 54 55
f 39 55 40
f 42 55 56
f 42 56 43
f 43 56 57
f 43 57 44
f 44 57 58
f 44 58 59
f 44 59 60
f 44 60 45
f 45 60 46
f 46 60 61
f 46 61 47
f 47 61 48
f 48 61 59
f 48 59 58
f 48 58 62
f 48 62 63
f 49 51 64
f 49 64 52
f 52 64 65
f 52 65 66
f 52 66 67
f 52 67 53
f 53 67 68
f 53 68 54
f 54 68 69
f 54 69 70
f 54 70 55
f 55 70 56
f 56 71 57
f 56 70 69
f 56 69 71
f 57 72 58
f 57 71 73
f 57 73 72
f 58 72 74
f 58 74 62
f 59 61 60
f 62 74 63
f 63 74 75
f 67 75 68
f 68 75 71
f 68 71 69
f 71 75 76
f 71 76 73
f 72 73 76
f 72 76 74
f 74 76 75

