# https://github.com/mikedh/trimesh
v -4.40081669 0.42405315 2.44198457
v -4.40081669 0.40179928 2.57129384
v -4.40081669 0.45651421 2.44198457
v -3.99027218 0.42271527 2.44198457
v -4.40081669 0.40179928 2.57404760
v -4.02073647 0.40179928 2.57091712
v -4.40081669 0.45690801 2.44225736
v -4.39945017 0.45690801 2.44198457
v -3.99027218 0.45690801 2.44198457
v -3.99027218 0.40179928 2.57098206
v -4.00333404 0.40179928 2.57094312
v -4.39153272 0.40179928 2.57468405
v -4.40081669 0.40212297 2.57468405
v -4.40081669 0.45690801 2.48443388
v -3.99027218 0.45690801 2.57468405
v -3.99027218 0.40179928 2.57468405
v -4.40081669 0.42194377 2.57468405
v -4.39997264 0.45690801 2.48529113
v -4.30540480 0.45690801 2.57468405
f 1 2 5
f 1 5 13
f 1 13 17
f 1 17 14
f 1 14 7
f 1 7 3
f 1 3 8
f 1 8 9
f 1 9 4
f 1 4 2
f 2 4 6
f 2 6 11
f 2 11 10
f 2 10 16
f 2 16 12
f 2 12 5
f 3 7 8
f 4 9 15
f 4 15 16
f 4 16 10
f 4 10 11
f 4 11 6
f 5 12 13
f 7 14 18
f 7 18 19
f 7 19 15
f 7 15 9
f 7 9 8
f 12 16 15
f 12 15 19
f 12 19 17
f 12 17 13
f 14 17 18
f 17 19 18

