# https://github.com/mikedh/trimesh
v -6.65259602 2.41673393 4.15895958
v -6.65259602 2.41673393 3.94405041
v -6.67171430 2.41673393 4.15895958
v -6.61353345 2.09214755 4.15895958
v -6.67171430 2.41673393 3.94405041
v -6.61353345 2.09214755 3.94405041
v -6.67171430 1.75618127 4.15895958
v -6.61353345 2.01307004 4.15895958
v -6.67171430 1.75618127 3.94405041
v -6.61353345 2.01307004 3.94405041
v -6.65259602 1.75618127 4.15895958
v -6.65259602 1.75618127 3.94405041
f 1 2 5
f 1 5 3
f 1 3 7
f 1 7 11
f 1 11 8
f 1 8 4
f 1 4 6
f 1 6 2
f 2 6 10
f 2 10 12
f 2 12 9
f 2 9 5
f 3 5 9
f 3 9 7
f 4 8 10
f 4 10 6
f 7 9 12
f 7 12 11
f 8 11 12
f 8 12 10

