# https://github.com/mikedh/trimesh
v -4.57668856 0.33996171 1.75818854
v -4.57753333 0.33780313 1.75797478
v -4.57753333 0.33996130 1.75818854
v -4.54195153 0.33995995 1.75818854
v -4.57753333 0.33645359 1.75817808
v -4.52457479 0.33995881 1.75818854
v -4.50935144 0.33995778 1.75818854
v -4.47246102 0.33780313 1.75797556
v -4.57668856 0.33638462 1.75818854
v -4.49199127 0.33995498 1.75818854
v -4.45508417 0.33780313 1.75797587
v -4.45508417 0.33640212 1.75818854
v -4.47459795 0.33994307 1.75818854
v -4.45367622 0.33640243 1.75818854
v -4.45720453 0.33992246 1.75818854
v -4.43770742 0.33780313 1.75798043
v -4.43633251 0.33643009 1.75818854
v -4.43977808 0.33986436 1.75818854
v -4.40832102 0.33780313 1.75800099
v -4.40832102 0.33655447 1.75818854
v -4.41903862 0.33650579 1.75818854
v -4.42226877 0.33973408 1.75818854
v -4.40832102 0.33962440 1.75818854
f 1 2 3
f 1 3 9
f 1 9 12
f 1 12 14
f 1 14 17
f 1 17 21
f 1 21 20
f 1 20 23
f 1 23 22
f 1 22 18
f 1 18 15
f 1 15 13
f 1 13 10
f 1 10 7
f 1 7 6
f 1 6 4
f 1 4 2
f 2 5 3
f 2 4 6
f 2 6 7
f 2 7 8
f 2 8 5
f 3 5 9
f 5 8 9
f 7 10 8
f 8 11 9
f 8 10 11
f 9 11 12
f 10 13 11
f 11 14 12
f 11 13 15
f 11 15 16
f 11 16 17
f 11 17 14
f 15 18 16
f 16 19 20
f 16 20 21
f 16 21 17
f 16 18 19
f 18 22 19
f 19 22 23
f 19 23 20

