# https://github.com/mikedh/trimesh
v -6.34718109 0.63318119 1.86370493
v -6.34718109 0.62879615 1.86370493
v -6.34720843 0.63318119 1.74209459
v -6.35216126 0.65055478 1.86370493
v -6.35216126 0.65055478 3.32302884
v -6.34720843 0.63318119 3.56624963
v -6.34720843 0.62879615 1.74209459
v -6.34720843 0.62879615 3.56624963
v -6.34767364 0.63318119 1.49887390
v -6.35232551 0.65055478 1.49887390
v -6.35218860 0.65055478 1.74209459
v -6.35730589 0.65944587 1.49887390
v -6.35730589 0.65944587 3.65320523
v -6.35221615 0.65055478 3.56624963
v -6.35227083 0.65055478 3.60111684
v -6.35251711 0.65055478 3.65320523
v -6.34794725 0.63318119 3.65320523
v -6.34791991 0.62879615 3.65320523
v -6.34767364 0.62879615 1.49887390
v -6.34781034 0.63318119 1.49462178
v -6.35265381 0.65093610 1.49462178
v -6.35388539 0.65325722 1.49462178
v -6.35733323 0.65942470 1.49462178
v -6.36362701 0.65956994 1.49462178
v -6.36636357 0.65965166 1.49887390
v -6.36636357 0.65965166 3.65320523
v -6.35741526 0.65937928 3.66659933
v -6.35347486 0.65177134 3.66659933
v -6.34931533 0.63727263 3.66659933
v -6.34824821 0.63318119 3.66659933
v -6.34819353 0.62879615 3.66659933
v -6.34800194 0.62879615 3.65766986
v -6.34781034 0.62879615 1.49462178
v -6.36606241 0.65961536 1.49462178
v -6.38373990 0.65965166 1.49462178
v -6.62670945 0.65970313 1.49462178
v -6.37963526 0.65966377 3.66659933
v -6.36546050 0.65953970 3.66659933
v -6.39066314 0.62879615 3.66659933
v -6.39066314 0.62879615 1.49462178
v -6.62670945 0.65971219 3.66659933
v -6.62670945 0.64112805 1.49462178
v -6.62670945 0.64005678 3.66659933
v -6.62670945 0.64005678 1.49483440
v -6.61376606 0.64005678 1.49462178
f 1 2 7
f 1 7 3
f 1 3 11
f 1 11 4
f 1 4 5
f 1 5 6
f 1 6 8
f 1 8 2
f 2 8 18
f 2 18 32
f 2 32 31
f 2 31 39
f 2 39 40
f 2 40 33
f 2 33 19
f 2 19 7
f 3 7 19
f 3 19 9
f 3 9 10
f 3 10 11
f 4 11 12
f 4 12 13
f 4 13 5
f 5 13 14
f 5 14 6
f 6 14 15
f 6 15 16
f 6 16 17
f 6 17 18
f 6 18 8
f 9 19 33
f 9 33 20
f 9 20 10
f 10 20 21
f 10 21 22
f 10 22 23
f 10 23 12
f 10 12 11
f 12 23 24
f 12 24 25
f 12 25 26
f 12 26 13
f 13 26 27
f 13 27 16
f 13 16 15
f 13 15 14
f 16 27 28
f 16 28 29
f 16 29 17
f 17 29 30
f 17 30 31
f 17 31 32
f 17 32 18
f 20 33 40
f 20 40 45
f 20 45 42
f 20 42 36
f 20 36 35
f 20 35 34
f 20 34 24
f 20 24 23
f 20 23 22
f 20 22 21
f 24 34 25
f 25 34 35
f 25 35 36
f 25 36 37
f 25 37 26
f 26 37 38
f 26 38 27
f 27 38 37
f 27 37 41
f 27 41 43
f 27 43 39
f 27 39 31
f 27 31 30
f 27 30 29
f 27 29 28
f 36 41 37
f 36 42 44
f 36 44 43
f 36 43 41
f 39 43 44
f 39 44 40
f 40 44 45
f 42 45 44

