# https://github.com/mikedh/trimesh
v -4.54098694 0.46418709 4.30286216
v -4.53139746 0.46237762 4.30298043
v -3.96471690 0.46100556 4.30298043
v -3.96471690 0.45957390 4.29619059
v -4.54098694 0.46275542 4.29619059
v -4.54098694 0.45987216 4.30298043
v -3.96471690 0.38637937 4.30298043
v -3.96471690 0.45859957 4.29306649
v -4.54098694 0.46249693 4.29540765
v -3.96471690 0.45513966 4.28211463
v -4.54098694 0.38637937 4.30298043
v -3.96471690 0.26106782 4.29460109
v -4.40086806 0.26104793 4.29460109
v -4.54098694 0.45645202 4.28211463
v -3.96471690 0.44203585 4.27664398
v -4.54098694 0.26104793 4.29460109
v -3.96471690 0.26106782 4.27761106
v -4.40086806 0.26104793 4.27761106
v -4.54098694 0.45571630 4.28180994
v -3.96471690 0.40727791 4.27613962
v -4.54098694 0.44203585 4.27664398
v -4.54098694 0.26104793 4.27761106
v -4.54098694 0.40727791 4.27613962
f 1 2 3
f 1 3 4
f 1 4 5
f 1 5 9
f 1 9 14
f 1 14 19
f 1 19 21
f 1 21 23
f 1 23 22
f 1 22 16
f 1 16 11
f 1 11 6
f 1 6 2
f 2 6 11
f 2 11 7
f 2 7 3
f 3 7 12
f 3 12 17
f 3 17 20
f 3 20 15
f 3 15 10
f 3 10 8
f 3 8 4
f 4 8 5
f 5 8 10
f 5 10 9
f 7 11 16
f 7 16 13
f 7 13 12
f 9 10 14
f 10 15 14
f 12 13 18
f 12 18 17
f 13 16 22
f 13 22 18
f 14 15 19
f 15 20 23
f 15 23 21
f 15 21 19
f 17 18 20
f 18 22 23
f 18 23 20

