# https://github.com/mikedh/trimesh
v -3.69151665 0.56269046 2.62916197
v -3.69142888 0.56247670 2.62842656
v -3.69274520 0.56269046 2.62842656
v -3.69379826 0.56269046 2.72474629
v -3.69142888 0.38077171 2.62842656
v -3.69338872 0.38077171 2.72474629
v -3.95235145 0.56269046 2.62842656
v -3.95548135 0.56269046 2.72474629
v -3.71854496 0.38077171 2.62842656
v -3.71266539 0.38077171 2.72474629
v -3.99023205 0.48823111 2.62842656
v -3.95518884 0.56269046 2.64439816
v -3.95556912 0.56269046 2.71343232
v -3.99014428 0.47729639 2.72474629
v -3.99023205 0.39813551 2.62842656
v -3.99023205 0.41795688 2.72474629
v -3.99023205 0.47699362 2.72461430
v -3.95568615 0.56269046 2.69767759
v -3.95592010 0.56269046 2.66294367
v -3.95589089 0.56269046 2.66136914
v -3.95539358 0.56269046 2.64556724
v -3.99023205 0.47263043 2.72474629
f 1 2 3
f 1 3 7
f 1 7 12
f 1 12 21
f 1 21 20
f 1 20 19
f 1 19 18
f 1 18 13
f 1 13 8
f 1 8 4
f 1 4 2
f 2 5 9
f 2 9 15
f 2 15 11
f 2 11 7
f 2 7 3
f 2 4 6
f 2 6 5
f 4 8 14
f 4 14 22
f 4 22 16
f 4 16 10
f 4 10 6
f 5 6 10
f 5 10 9
f 7 11 12
f 8 13 11
f 8 11 14
f 9 10 15
f 10 16 15
f 11 15 16
f 11 16 22
f 11 22 17
f 11 17 14
f 11 13 18
f 11 18 19
f 11 19 20
f 11 20 21
f 11 21 12
f 14 17 22

