# https://github.com/mikedh/trimesh
v -1.95768385 0.34226621 2.43678049
v -1.95613143 0.34226621 2.44181467
v -1.95355591 0.34226621 2.42421195
v -1.95000429 0.14669725 2.41968456
v -1.94980441 0.12931326 2.41968456
v -1.94956922 0.11192936 2.41968456
v -1.94931042 0.09457975 2.41968456
v -1.94876950 0.05981187 2.41968456
v -1.94848719 0.04242798 2.41968456
v -1.94818147 0.02507826 2.41968456
v -1.94781692 0.00769437 2.41968456
v -1.94751110 0.00769437 2.43380247
v -1.95089815 0.34226621 2.45174304
v -1.95148608 0.34226621 2.42003691
v -1.95147438 0.33778335 2.41994520
v -1.95136854 0.30304975 2.41968456
v -1.95129791 0.28566575 2.41968456
v -1.95119206 0.26828186 2.41968456
v -1.95106271 0.25089797 2.41968456
v -1.95089815 0.23354825 2.41968456
v -1.95036884 0.18139658 2.41968456
v -1.94467687 0.00769437 2.41067325
v -1.94454752 -0.00123707 2.41080356
v -1.94599400 -0.00284552 2.41968456
v -1.94634684 -0.00325615 2.43177529
v -1.93784405 0.00769437 2.44249040
v -1.94373600 0.08913872 2.44547808
v -1.94450040 0.10073931 2.44585938
v -1.93568019 0.21616436 2.45161755
v -1.93568019 0.25089797 2.45268907
v -1.93568019 0.28566575 2.45375575
v -1.93568019 0.30304975 2.45428669
v -1.93568019 0.32039936 2.45474522
v -1.93568019 0.34226621 2.45524235
v -1.93974921 0.34226621 2.41401810
v -1.94442987 0.31386335 2.41095802
v -1.94453571 0.30304975 2.41089045
v -1.94465336 0.28566575 2.41080356
v -1.94474740 0.26828186 2.41073601
v -1.94480622 0.25089797 2.41068772
v -1.94484154 0.23354825 2.41065394
v -1.94486505 0.21616436 2.41062981
v -1.94490026 0.18139658 2.41058155
v -1.94491207 0.16408114 2.41055741
v -1.94492377 0.14669725 2.41053328
v -1.94492377 0.12931326 2.41051881
v -1.94491207 0.11192936 2.41051881
v -1.94472389 0.02507826 2.41063465
v -1.93568019 0.00769437 2.40713533
v -1.93568019 -0.00308495 2.40906599
v -1.93568019 -0.00595947 2.41968456
v -1.93459816 -0.00359832 2.43736452
v -1.92808296 -0.00147661 2.44606210
v -1.92916489 0.00769437 2.44636135
v -1.93568019 0.12931326 2.44884706
v -1.93568019 0.14669725 2.44941661
v -1.93568019 0.18139658 2.45052674
v -1.93568019 0.19878047 2.45107697
v -1.86618791 0.28566575 2.45377506
v -1.86618791 0.30304975 2.45423841
v -1.92556616 0.00769437 2.44636135
v -1.86175425 0.34226621 2.45522304
v -1.93568019 0.34226621 2.41206333
v -1.93568019 0.31434243 2.41092424
v -1.93568019 0.30304975 2.41067325
v -1.93568019 0.28566575 2.41032574
v -1.93568019 0.26828186 2.40999752
v -1.93568019 0.25089797 2.40969828
v -1.93568019 0.23354825 2.40941832
v -1.93568019 0.21616436 2.40915286
v -1.93568019 0.19878047 2.40889224
v -1.93568019 0.18139658 2.40864125
v -1.93568019 0.16408114 2.40839990
v -1.93568019 0.14669725 2.40816823
v -1.93568019 0.12931326 2.40795587
v -1.93568019 0.11192936 2.40779659
v -1.93568019 0.33778335 2.41184129
v -1.93568019 0.32303433 2.41122833
v -1.93568019 0.09457975 2.40767591
v -1.93568019 0.05981187 2.40743458
v -1.93568019 0.02507826 2.40719809
v -1.94482973 0.07719576 2.41056223
v -1.94475921 0.04242798 2.41061052
v -1.86618791 0.00769437 2.40593350
v -1.92240270 -0.00352986 2.40861710
v -1.86618791 -0.00729409 2.41968456
v -1.86751684 -0.00390632 2.43788580
v -1.92623653 -0.00147661 2.44606210
v -1.86618791 0.26828186 2.45330206
v -1.87419681 -0.00116861 2.44586904
v -1.86618791 0.25089797 2.45282422
v -1.84325518 0.34226621 2.45129898
v -1.86618791 0.23354825 2.45234156
v -1.86618791 0.19878047 2.45136656
v -1.86618791 0.18139658 2.45087424
v -1.86618791 0.16408114 2.45038193
v -1.86618791 0.14669725 2.44988480
v -1.86618791 0.12931326 2.44935388
v -1.85744993 0.06761415 2.44578215
v -1.86618791 0.34226621 2.41329893
v -1.85728527 0.31708004 2.41088563
v -1.85840251 0.31708004 2.41088563
v -1.86618791 0.11192936 2.40728014
v -1.86618791 0.09457975 2.40700984
v -1.86618791 0.07719576 2.40674438
v -1.86618791 0.05981187 2.40649821
v -1.86618791 0.04242798 2.40627135
v -1.86618791 0.02507826 2.40606381
v -1.85561530 0.12931326 2.40952934
v -1.85554478 0.11192936 2.40943763
v -1.85552127 0.09457975 2.40936040
v -1.85548595 0.07719576 2.40929767
v -1.85548595 0.05981187 2.40924456
v -1.85549776 0.04242798 2.40921562
v -1.85554478 0.02507826 2.40920596
v -1.85561530 0.00769437 2.40923491
v -1.85628567 -0.00236643 2.40984308
v -1.86618791 -0.00380358 2.40845300
v -1.85453337 -0.00407741 2.41968456
v -1.85476857 -0.00373523 2.43264890
v -1.86428276 0.00769437 2.44378875
v -1.85881418 0.05604764 2.44541051
v -1.87297372 0.00769437 2.44608142
v -1.83937424 0.34226621 2.44625033
v -1.85320444 0.00769437 2.43510082
v -1.86618791 0.11192936 2.44876020
v -1.84881780 0.34226621 2.41911504
v -1.85707358 0.30304975 2.41076980
v -1.85569764 0.14669725 2.40964517
v -1.85686190 0.28566575 2.41064430
v -1.85666202 0.26828186 2.41051881
v -1.85633269 0.23354825 2.41026782
v -1.85605048 0.19878047 2.41001684
v -1.83967996 0.34226621 2.42761472
v -1.85132280 0.00769437 2.41968456
v -1.83986813 0.32039936 2.42786089
v -1.84002110 0.30304975 2.42816014
v -1.84011513 0.29391294 2.42835320
v -1.83753961 0.34226621 2.43679015
f 1 2 13
f 1 13 34
f 1 34 62
f 1 62 92
f 1 92 124
f 1 124 139
f 1 139 134
f 1 134 127
f 1 127 100
f 1 100 63
f 1 63 35
f 1 35 14
f 1 14 3
f 1 3 4
f 1 4 5
f 1 5 6
f 1 6 7
f 1 7 8
f 1 8 9
f 1 9 10
f 1 10 11
f 1 11 12
f 1 12 2
f 2 12 13
f 3 14 15
f 3 15 16
f 3 16 17
f 3 17 18
f 3 18 19
f 3 19 20
f 3 20 21
f 3 21 4
f 4 22 5
f 4 21 22
f 5 22 6
f 6 22 7
f 7 22 8
f 8 22 9
f 9 22 10
f 10 22 23
f 10 23 11
f 11 23 24
f 11 24 25
f 11 25 12
f 12 25 26
f 12 26 27
f 12 27 28
f 12 28 13
f 13 29 30
f 13 30 31
f 13 31 32
f 13 32 33
f 13 33 34
f 13 28 29
f 14 35 36
f 14 36 37
f 14 37 15
f 15 37 38
f 15 38 39
f 15 39 40
f 15 40 41
f 15 41 16
f 16 41 42
f 16 42 43
f 16 43 44
f 16 44 45
f 16 45 46
f 16 46 47
f 16 47 48
f 16 48 17
f 17 48 22
f 17 22 18
f 18 22 19
f 19 22 20
f 20 22 21
f 22 48 49
f 22 49 23
f 23 49 50
f 23 50 51
f 23 51 24
f 24 51 25
f 25 51 52
f 25 52 53
f 25 53 26
f 26 53 54
f 26 54 27
f 27 54 28
f 28 54 55
f 28 55 56
f 28 56 57
f 28 57 58
f 28 58 29
f 29 58 54
f 29 54 30
f 30 54 31
f 31 54 32
f 32 59 60
f 32 60 33
f 32 54 61
f 32 61 59
f 33 60 62
f 33 62 34
f 35 63 36
f 36 64 65
f 36 65 66
f 36 66 67
f 36 67 68
f 36 68 69
f 36 69 70
f 36 70 71
f 36 71 72
f 36 72 73
f 36 73 74
f 36 74 75
f 36 75 76
f 36 76 37
f 36 63 77
f 36 77 78
f 36 78 64
f 37 76 79
f 37 79 80
f 37 80 81
f 37 81 38
f 38 81 39
f 39 81 40
f 40 81 49
f 40 49 41
f 41 49 42
f 42 49 43
f 43 49 44
f 44 49 45
f 45 49 46
f 46 49 47
f 47 49 82
f 47 82 83
f 47 83 48
f 48 83 49
f 49 83 82
f 49 81 84
f 49 84 85
f 49 85 50
f 50 85 51
f 51 86 52
f 51 85 86
f 52 86 87
f 52 87 53
f 53 87 88
f 53 88 61
f 53 61 54
f 54 56 55
f 54 58 57
f 54 57 56
f 59 62 60
f 59 61 89
f 59 89 62
f 61 88 90
f 61 90 91
f 61 91 89
f 62 89 91
f 62 91 93
f 62 93 94
f 62 94 95
f 62 95 96
f 62 96 97
f 62 97 98
f 62 98 99
f 62 99 92
f 63 100 101
f 63 101 77
f 64 102 65
f 64 78 102
f 65 102 66
f 66 102 67
f 67 102 101
f 67 101 103
f 67 103 68
f 68 103 69
f 69 103 104
f 69 104 105
f 69 105 70
f 70 105 71
f 71 105 72
f 72 105 106
f 72 106 73
f 73 106 74
f 74 106 107
f 74 107 75
f 75 107 108
f 75 108 76
f 76 108 84
f 76 84 79
f 77 101 102
f 77 102 78
f 79 84 80
f 80 84 81
f 84 108 109
f 84 109 110
f 84 110 111
f 84 111 112
f 84 112 113
f 84 113 114
f 84 114 115
f 84 115 116
f 84 116 117
f 84 117 118
f 84 118 85
f 85 118 86
f 86 118 117
f 86 117 119
f 86 119 120
f 86 120 87
f 87 120 90
f 87 90 88
f 90 120 121
f 90 121 122
f 90 122 99
f 90 99 123
f 90 123 97
f 90 97 96
f 90 96 95
f 90 95 94
f 90 94 93
f 90 93 91
f 92 99 125
f 92 125 124
f 97 123 98
f 98 123 126
f 98 126 99
f 99 126 123
f 99 122 121
f 99 121 125
f 100 127 101
f 101 127 128
f 101 128 108
f 101 108 107
f 101 107 106
f 101 106 105
f 101 105 104
f 101 104 103
f 108 129 109
f 108 128 130
f 108 130 131
f 108 131 132
f 108 132 133
f 108 133 129
f 109 129 134
f 109 134 110
f 110 134 111
f 111 134 112
f 112 134 113
f 113 134 114
f 114 134 115
f 115 134 116
f 116 135 117
f 116 134 136
f 116 136 137
f 116 137 138
f 116 138 135
f 117 135 119
f 119 135 120
f 120 135 125
f 120 125 121
f 124 125 139
f 125 135 139
f 127 134 131
f 127 131 130
f 127 130 128
f 129 133 134
f 131 134 132
f 132 134 133
f 134 139 136
f 135 138 139
f 136 139 137
f 137 139 138

