# https://github.com/mikedh/trimesh
v -3.04090818 0.35613453 2.83789729
v -3.04090818 0.36069775 2.84847575
v -3.04090818 0.35718446 2.81934862
v -2.75000303 0.38662306 2.83668886
v -2.78708169 0.38771338 2.85405551
v -3.04090818 0.37406420 2.85310464
v -2.85656858 0.38936905 2.87143541
v -2.85656858 0.39651671 2.88126770
v -2.87396878 0.39627442 2.88140637
v -2.89134050 0.39627442 2.88139979
v -2.90868374 0.39651671 2.88126112
v -2.92141351 0.39728396 2.88083190
v -3.04090818 0.35734602 2.81833168
v -3.04090818 0.35766903 2.81679313
v -2.75000303 0.39150930 2.82358795
v -2.75000303 0.39316497 2.84969076
v -2.80445341 0.39268040 2.86769132
v -2.78708169 0.39457836 2.86547263
v -2.93297567 0.40140294 2.87963672
v -3.04090818 0.39377071 2.85700060
v -2.83837098 0.39223621 2.87293434
v -2.84358252 0.39728396 2.88083848
v -2.85656858 0.40733911 2.88340059
v -2.87396878 0.40733911 2.88367131
v -2.89134050 0.40733911 2.88366473
v -2.90868374 0.40733911 2.88338076
v -2.92673894 0.40725833 2.88157808
v -2.75000303 0.43576818 2.81679313
v -3.04090818 0.76161188 2.81679313
v -2.75000303 0.40733911 2.85486776
v -2.77551952 0.39700128 2.86365674
v -2.83202036 0.40083759 2.87972915
v -2.93647851 0.41299260 2.88046213
v -3.04090818 0.40733911 2.85725811
v -2.83837098 0.40689493 2.88161769
v -2.85656858 0.42470343 2.88360528
v -2.87396878 0.42470343 2.88388263
v -2.89134050 0.42470343 2.88386942
v -2.90868374 0.42470343 2.88359208
v -2.92719459 0.42526878 2.88165730
v -2.75000303 0.76484244 2.81679313
v -3.04090818 0.76052156 2.82280873
v -3.03686427 0.76254063 2.82421523
v -3.03404493 0.76431748 2.81679313
v -2.75000303 0.40968131 2.85492057
v -2.76387192 0.40733911 2.86118711
v -2.77255781 0.40733911 2.86459441
v -2.78708169 0.40733911 2.86916390
v -2.82846056 0.41242730 2.88052815
v -3.04090818 0.41145810 2.85728452
v -2.93707653 0.47683682 2.88064699
v -2.83788688 0.42567263 2.88170354
v -2.87396878 0.47683682 2.88424583
v -2.83919685 0.47683682 2.88198089
v -2.83919685 0.66792526 2.88191481
v -2.85656858 0.66792526 2.88308363
v -2.87396878 0.66792526 2.88417318
v -2.89134050 0.47683682 2.88421279
v -2.92605547 0.47683682 2.88184879
v -2.89134050 0.66792526 2.88414014
v -2.90868374 0.66792526 2.88302419
v -2.92605547 0.66792526 2.88178277
v -3.01504995 0.76484244 2.81679313
v -2.75000303 0.76504434 2.81814019
v -3.04090818 0.75636218 2.82828948
v -3.01804017 0.76153110 2.84278369
v -3.02527363 0.76451937 2.83119491
v -3.03076994 0.76460015 2.81878073
v -3.03065602 0.76447904 2.81679313
v -2.75000303 0.47683682 2.85633365
v -2.76355864 0.42470343 2.86133899
v -2.77181733 0.47683682 2.86571036
v -2.78708169 0.47683682 2.87109204
v -2.80445341 0.47683682 2.87547662
v -2.81903424 0.47683682 2.87878486
v -2.82772013 0.47683682 2.88074605
v -3.04090818 0.51911696 2.85624785
v -2.93693416 0.66792526 2.88061400
v -2.94562002 0.66792526 2.87864619
v -2.96079891 0.66792526 2.87519928
v -2.96079891 0.68528957 2.87513326
v -2.96079891 0.70265389 2.87498138
v -2.82786253 0.66792526 2.88071306
v -2.82800488 0.68528957 2.88068002
v -2.83919685 0.68528957 2.88184879
v -2.85656858 0.68528957 2.88302419
v -2.87396878 0.68528957 2.88411373
v -2.89134050 0.68528957 2.88408074
v -2.90868374 0.68528957 2.88296474
v -2.92605547 0.68528957 2.88172332
v -2.93679176 0.68528957 2.88058096
v -3.01351211 0.76512512 2.81909768
v -2.75165477 0.76516551 2.81917691
v -2.76970996 0.76706347 2.83668886
v -2.75000303 0.76508473 2.81894581
v -3.04090818 0.75232397 2.83326836
v -3.00644953 0.76403480 2.84628346
v -3.02461864 0.74994144 2.84722771
v -2.98326825 0.76116769 2.86086352
v -2.99554236 0.76520590 2.84899083
v -3.01251539 0.76520590 2.83686714
v -2.99554236 0.76702308 2.83668886
v -2.75000303 0.47917897 2.85633365
v -2.75000303 0.51156551 2.85632707
v -2.77190277 0.66792526 2.86568395
v -2.78708169 0.66792526 2.87102602
v -2.80445341 0.66792526 2.87541060
v -2.81917664 0.66792526 2.87875187
v -2.96079891 0.72001821 2.87480309
v -2.97817063 0.72001821 2.87028642
v -3.04090818 0.60521174 2.85451113
v -2.94547762 0.68528957 2.87861320
v -2.94516437 0.70265389 2.87854055
v -2.94479415 0.72001821 2.87845470
v -2.81931904 0.68528957 2.87871884
v -2.82831816 0.70265389 2.88060737
v -2.82868840 0.72001821 2.88052815
v -2.83919685 0.70265389 2.88171012
v -2.85656858 0.70265389 2.88288552
v -2.87396878 0.70265389 2.88397506
v -2.89134050 0.70265389 2.88394865
v -2.90868374 0.70265389 2.88281949
v -2.92605547 0.70265389 2.88157808
v -2.93610829 0.72001821 2.88042251
v -2.93647851 0.70265389 2.88050831
v -2.75000303 0.76516551 2.83446353
v -2.83919685 0.76867875 2.85405551
v -2.82182513 0.76843646 2.85405551
v -2.80445341 0.76762882 2.85405551
v -2.76970996 0.76528663 2.84924171
v -2.75253760 0.76528663 2.83700581
v -2.75000303 0.76512512 2.83589649
v -3.04090818 0.73742297 2.83882833
v -2.97170609 0.76403480 2.86341238
v -2.98987520 0.74961837 2.86412557
v -3.03521253 0.73742297 2.84279031
v -3.02652667 0.73742297 2.84838990
v -3.01294256 0.73742297 2.85536300
v -2.97777194 0.75515074 2.86584240
v -2.97777194 0.76593276 2.85466964
v -2.96079891 0.76754804 2.85405551
v -2.94342719 0.76839607 2.85405551
v -2.92605547 0.76863836 2.85405551
v -2.75000303 0.54633454 2.85631387
v -2.75000303 0.58102284 2.85627425
v -2.75000303 0.59842754 2.85624785
v -2.75000303 0.65052055 2.85614879
v -2.77198821 0.68528957 2.86564434
v -2.78708169 0.68528957 2.87095337
v -2.80445341 0.68528957 2.87534458
v -2.93551024 0.73399045 2.88029705
v -2.96079891 0.73742297 2.87438708
v -2.97817063 0.73742297 2.86983742
v -3.04090818 0.63994038 2.85375181
v -3.04090818 0.62257606 2.85414799
v -2.81963233 0.70265389 2.87864619
v -2.83919685 0.72001821 2.88154504
v -2.82000251 0.72001821 2.87856039
v -2.82951427 0.73742297 2.88034323
v -2.85656858 0.72001821 2.88272706
v -2.87396878 0.72001821 2.88382981
v -2.89134050 0.72001821 2.88379677
v -2.90868374 0.72001821 2.88266762
v -2.92605547 0.72001821 2.88141300
v -2.89134050 0.76665967 2.86901860
v -2.87396878 0.76665967 2.86903843
v -2.85656858 0.76657889 2.86833187
v -2.83919685 0.76633655 2.86760547
v -2.82182513 0.76577125 2.86631123
v -2.80445341 0.76484244 2.86460761
v -2.78730953 0.76601354 2.85479511
v -2.79326144 0.76407519 2.86347183
v -2.75848951 0.76411558 2.84640893
v -2.75000303 0.76367134 2.83973296
v -3.04090818 0.67479018 2.85066141
v -2.96079891 0.76480205 2.86452176
v -2.96079891 0.75478729 2.87018079
v -2.94342719 0.75478729 2.87387201
v -2.92765024 0.75393926 2.87698875
v -2.93454199 0.74558016 2.88010556
v -3.00052605 0.73742297 2.86104181
v -2.99181171 0.73742297 2.86501042
v -3.04090818 0.66792526 2.85166515
v -2.94342719 0.76573086 2.86621218
v -2.92605547 0.76633655 2.86753287
v -2.90868374 0.76657889 2.86829225
v -2.75000303 0.66792526 2.85599028
v -2.77218757 0.70265389 2.86555185
v -2.78708169 0.70265389 2.87078829
v -2.80445341 0.70265389 2.87519270
v -2.94214567 0.73883635 2.87861320
v -2.92765024 0.73883635 2.88087814
v -3.04090818 0.65730475 2.85305182
v -3.04090818 0.65052055 2.85340181
v -2.83919685 0.73742297 2.88118847
v -2.85656858 0.73742297 2.88237707
v -2.80445341 0.72001821 2.87501442
v -2.82082838 0.73742297 2.87835564
v -2.83028318 0.74626664 2.88017158
v -2.87396878 0.73742297 2.88347982
v -2.89134050 0.73742297 2.88345341
v -2.90868374 0.73742297 2.88231762
v -2.89134050 0.75955241 2.87770195
v -2.87396878 0.75963314 2.87772173
v -2.85656858 0.75793712 2.87702179
v -2.83919685 0.75607950 2.87629545
v -2.78167079 0.76149071 2.86107485
v -2.82341991 0.75317200 2.87525209
v -2.80445341 0.75478729 2.87037885
v -2.78730953 0.75535264 2.86600091
v -2.75000303 0.75834092 2.84681832
v -2.90868374 0.75785634 2.87698218
v -2.92295135 0.74755890 2.88056776
v -2.75000303 0.72001821 2.85514510
v -2.75233824 0.72001821 2.85634685
v -2.76372952 0.72001821 2.86151727
v -2.77241541 0.72001821 2.86545285
v -2.78708169 0.72001821 2.87059680
v -2.80445341 0.73742297 2.87459840
v -2.77509232 0.74994144 2.86426425
v -2.83919685 0.74739734 2.88051494
v -2.78708169 0.73742297 2.87014775
v -2.85656858 0.74925491 2.88110924
v -2.87396878 0.75091059 2.88166393
v -2.89134050 0.75087025 2.88165073
v -2.90868374 0.74917419 2.88107621
v -2.75000303 0.75438344 2.84943320
v -2.75000303 0.72292576 2.85505262
v -2.75233824 0.73742297 2.85578559
v -2.76427064 0.73742297 2.86125313
v -2.77298496 0.73742297 2.86521512
v -2.75000303 0.73992667 2.85413478
v -2.75000303 0.73742297 2.85458378
f 1 2 6
f 1 6 20
f 1 20 34
f 1 34 50
f 1 50 77
f 1 77 111
f 1 111 155
f 1 155 154
f 1 154 194
f 1 194 193
f 1 193 183
f 1 183 175
f 1 175 133
f 1 133 96
f 1 96 65
f 1 65 42
f 1 42 29
f 1 29 14
f 1 14 13
f 1 13 3
f 1 3 4
f 1 4 5
f 1 5 2
f 2 5 7
f 2 7 8
f 2 8 9
f 2 9 10
f 2 10 11
f 2 11 12
f 2 12 6
f 3 13 4
f 4 13 14
f 4 14 15
f 4 15 28
f 4 28 41
f 4 41 64
f 4 64 95
f 4 95 126
f 4 126 132
f 4 132 174
f 4 174 211
f 4 211 227
f 4 227 232
f 4 232 233
f 4 233 228
f 4 228 214
f 4 214 187
f 4 187 147
f 4 147 146
f 4 146 145
f 4 145 144
f 4 144 104
f 4 104 103
f 4 103 70
f 4 70 45
f 4 45 30
f 4 30 16
f 4 16 5
f 5 17 7
f 5 16 18
f 5 18 17
f 6 12 19
f 6 19 20
f 7 17 21
f 7 21 22
f 7 22 8
f 8 22 23
f 8 23 24
f 8 24 9
f 9 24 25
f 9 25 10
f 10 25 11
f 11 25 26
f 11 26 12
f 12 26 27
f 12 27 19
f 14 28 15
f 14 29 44
f 14 44 69
f 14 69 63
f 14 63 41
f 14 41 28
f 16 30 31
f 16 31 18
f 17 18 22
f 17 22 21
f 18 31 32
f 18 32 22
f 19 27 33
f 19 33 20
f 20 33 34
f 22 32 35
f 22 35 23
f 23 35 36
f 23 36 37
f 23 37 24
f 24 37 25
f 25 37 38
f 25 38 39
f 25 39 26
f 26 39 27
f 27 39 40
f 27 40 33
f 29 42 43
f 29 43 44
f 30 45 46
f 30 46 31
f 31 46 47
f 31 47 48
f 31 48 32
f 32 48 49
f 32 49 35
f 33 50 34
f 33 40 51
f 33 51 50
f 35 49 52
f 35 52 36
f 36 53 37
f 36 52 54
f 36 54 55
f 36 55 56
f 36 56 57
f 36 57 53
f 37 53 38
f 38 53 58
f 38 58 39
f 39 59 40
f 39 58 60
f 39 60 61
f 39 61 62
f 39 62 59
f 40 59 51
f 41 63 64
f 42 65 43
f 43 65 66
f 43 66 67
f 43 67 44
f 44 67 68
f 44 68 69
f 45 70 46
f 46 71 72
f 46 72 47
f 46 70 71
f 47 72 73
f 47 73 48
f 48 73 49
f 49 73 74
f 49 74 75
f 49 75 76
f 49 76 52
f 50 51 78
f 50 78 79
f 50 79 80
f 50 80 81
f 50 81 82
f 50 82 77
f 51 59 78
f 52 76 54
f 53 57 60
f 53 60 58
f 54 76 83
f 54 83 55
f 55 83 84
f 55 84 85
f 55 85 86
f 55 86 56
f 56 86 87
f 56 87 57
f 57 87 88
f 57 88 60
f 59 62 78
f 60 88 89
f 60 89 61
f 61 89 90
f 61 90 62
f 62 90 91
f 62 91 78
f 63 92 64
f 63 69 92
f 64 92 93
f 64 93 94
f 64 94 95
f 65 96 66
f 66 97 67
f 66 96 98
f 66 98 99
f 66 99 97
f 67 97 100
f 67 100 101
f 67 101 102
f 67 102 68
f 68 102 69
f 69 102 92
f 70 103 72
f 70 72 71
f 72 103 104
f 72 104 105
f 72 105 73
f 73 105 106
f 73 106 107
f 73 107 74
f 74 107 108
f 74 108 75
f 75 108 83
f 75 83 76
f 77 82 109
f 77 109 110
f 77 110 111
f 78 91 112
f 78 112 79
f 79 112 80
f 80 112 81
f 81 112 113
f 81 113 82
f 82 113 114
f 82 114 109
f 83 108 115
f 83 115 84
f 84 115 156
f 84 156 116
f 84 116 85
f 85 116 117
f 85 117 118
f 85 118 119
f 85 119 86
f 86 119 120
f 86 120 87
f 87 120 121
f 87 121 88
f 88 121 89
f 89 121 122
f 89 122 123
f 89 123 90
f 90 123 124
f 90 124 125
f 90 125 91
f 91 125 113
f 91 113 112
f 92 102 94
f 92 94 93
f 94 126 95
f 94 102 127
f 94 127 128
f 94 128 129
f 94 129 130
f 94 130 131
f 94 131 132
f 94 132 126
f 96 133 98
f 97 99 134
f 97 134 100
f 98 135 99
f 98 133 136
f 98 136 137
f 98 137 138
f 98 138 135
f 99 135 139
f 99 139 134
f 100 140 141
f 100 141 102
f 100 102 101
f 100 134 140
f 102 141 142
f 102 142 143
f 102 143 127
f 104 144 105
f 105 145 146
f 105 146 147
f 105 147 148
f 105 148 106
f 105 144 145
f 106 148 149
f 106 149 150
f 106 150 107
f 107 150 115
f 107 115 108
f 109 114 151
f 109 151 152
f 109 152 110
f 110 152 153
f 110 153 154
f 110 154 155
f 110 155 111
f 113 125 124
f 113 124 114
f 114 124 151
f 115 150 156
f 116 156 117
f 117 157 118
f 117 156 158
f 117 158 159
f 117 159 157
f 118 157 160
f 118 160 119
f 119 160 161
f 119 161 120
f 120 161 121
f 121 161 162
f 121 162 163
f 121 163 122
f 122 163 123
f 123 163 164
f 123 164 124
f 124 164 151
f 127 143 165
f 127 165 166
f 127 166 167
f 127 167 128
f 128 167 168
f 128 168 129
f 129 168 169
f 129 169 170
f 129 170 171
f 129 171 130
f 130 171 172
f 130 172 173
f 130 173 131
f 131 173 132
f 132 173 174
f 133 175 136
f 134 176 140
f 134 139 177
f 134 177 178
f 134 178 179
f 134 179 176
f 135 180 139
f 135 138 181
f 135 181 182
f 135 182 153
f 135 153 180
f 136 175 137
f 137 175 138
f 138 175 183
f 138 183 181
f 139 180 177
f 140 176 141
f 141 176 184
f 141 184 185
f 141 185 142
f 142 185 186
f 142 186 143
f 143 186 165
f 147 187 148
f 148 188 149
f 148 187 188
f 149 188 189
f 149 189 190
f 149 190 150
f 150 190 156
f 151 191 152
f 151 164 192
f 151 192 180
f 151 180 191
f 152 191 180
f 152 180 153
f 153 182 193
f 153 193 194
f 153 194 154
f 156 190 158
f 157 159 195
f 157 195 196
f 157 196 160
f 158 190 197
f 158 197 159
f 159 197 198
f 159 198 199
f 159 199 195
f 160 196 200
f 160 200 161
f 161 200 201
f 161 201 162
f 162 201 163
f 163 201 202
f 163 202 164
f 164 202 192
f 165 186 203
f 165 203 204
f 165 204 166
f 166 204 167
f 167 204 168
f 168 204 169
f 169 204 205
f 169 205 206
f 169 206 170
f 170 172 171
f 170 206 172
f 172 207 173
f 172 206 208
f 172 208 199
f 172 199 209
f 172 209 210
f 172 210 207
f 173 207 211
f 173 211 174
f 176 179 212
f 176 212 184
f 177 180 178
f 178 180 179
f 179 180 213
f 179 213 212
f 180 192 202
f 180 202 201
f 180 201 213
f 181 183 193
f 181 193 182
f 184 212 203
f 184 203 185
f 185 203 186
f 187 214 215
f 187 215 216
f 187 216 217
f 187 217 188
f 188 217 189
f 189 217 218
f 189 218 197
f 189 197 190
f 195 199 196
f 196 199 200
f 197 218 219
f 197 219 198
f 198 219 199
f 199 220 210
f 199 210 209
f 199 208 206
f 199 206 221
f 199 221 200
f 199 219 222
f 199 222 220
f 200 221 223
f 200 223 224
f 200 224 225
f 200 225 201
f 201 225 226
f 201 226 213
f 203 212 226
f 203 226 225
f 203 225 204
f 204 225 224
f 204 224 223
f 204 223 221
f 204 221 205
f 205 221 206
f 207 210 220
f 207 220 227
f 207 227 211
f 212 213 226
f 214 228 215
f 215 228 229
f 215 229 230
f 215 230 231
f 215 231 216
f 216 231 217
f 217 231 218
f 218 231 222
f 218 222 219
f 220 222 231
f 220 231 230
f 220 230 229
f 220 229 232
f 220 232 227
f 228 233 229
f 229 233 232

