# https://github.com/mikedh/trimesh
v -6.62673679 0.65717048 4.15895958
v -6.62673679 0.64005668 4.15895958
v -6.62673679 0.65970535 4.15869860
v -6.62697064 0.65970535 4.15895958
v -6.69646353 0.64005668 4.15895958
v -6.62673679 0.64005668 1.49488276
v -6.65256268 0.68540929 4.15895958
v -6.62673679 0.66990700 4.05463925
v -6.71383655 0.64006113 4.15895958
v -6.69646353 0.64005668 1.49462188
v -6.62697064 0.64005668 1.49462188
v -6.62673679 0.64113100 1.49462188
v -6.67185141 0.68540929 4.15895958
v -6.62673679 0.68540929 3.75419724
v -6.72943904 0.64043401 4.15895958
v -6.71801286 0.64015879 1.49462188
v -6.71383655 0.64006113 1.49462188
v -6.62673679 0.65970535 1.49462188
v -6.73990768 0.65925252 4.15895958
v -6.67185141 0.68540929 1.49462188
v -6.62673679 0.68511186 3.70516666
v -6.62705970 0.68540929 3.70516666
v -6.73120977 0.64047844 4.15895958
v -6.73120977 0.64047844 1.49462188
v -6.65256268 0.68540929 1.49462188
v -6.74044206 0.65143921 4.15895958
v -6.73990768 0.65925252 1.49462188
v -6.74005246 0.65716157 1.49462188
v -6.74050897 0.65055581 2.50678857
v -6.73955121 0.64129085 4.15895958
v -6.73344841 0.64069593 1.49462188
v -6.74049778 0.65055581 4.15895958
v -6.74050897 0.65055581 1.49462188
v -6.74048660 0.64138406 4.15895958
v -6.74048660 0.64138406 1.49462188
f 1 2 6
f 1 6 12
f 1 12 18
f 1 18 21
f 1 21 14
f 1 14 8
f 1 8 3
f 1 3 4
f 1 4 7
f 1 7 13
f 1 13 19
f 1 19 26
f 1 26 32
f 1 32 34
f 1 34 30
f 1 30 23
f 1 23 15
f 1 15 9
f 1 9 5
f 1 5 2
f 2 5 10
f 2 10 11
f 2 11 6
f 3 7 4
f 3 8 7
f 5 9 17
f 5 17 10
f 6 11 12
f 7 8 14
f 7 14 22
f 7 22 25
f 7 25 20
f 7 20 13
f 9 15 16
f 9 16 17
f 10 17 16
f 10 16 24
f 10 24 31
f 10 31 35
f 10 35 33
f 10 33 28
f 10 28 27
f 10 27 20
f 10 20 25
f 10 25 18
f 10 18 12
f 10 12 11
f 13 20 27
f 13 27 19
f 14 21 22
f 15 23 24
f 15 24 16
f 18 25 21
f 19 27 28
f 19 28 29
f 19 29 26
f 21 25 22
f 23 30 31
f 23 31 24
f 26 29 32
f 28 33 29
f 29 33 35
f 29 35 34
f 29 34 32
f 30 34 35
f 30 35 31

