# https://github.com/mikedh/trimesh
v -3.72530405 0.19560862 2.62295876
v -3.73019355 0.19570225 2.62295876
v -3.73937965 0.23306896 1.76363905
v -3.72530405 0.23306896 1.76363905
v -3.70796432 0.23306896 1.76479404
v -3.69812538 0.23306896 1.76726906
v -3.70795099 0.19620764 2.62295876
v -3.72531735 0.19789251 3.41000857
v -3.73668844 0.19791126 3.41000857
v -3.73668844 0.19789251 3.39268351
v -3.73668844 0.19789251 3.36380850
v -3.73937965 0.33775570 1.75802905
v -3.73937965 0.23306896 1.77040403
v -3.74261710 0.36682903 2.58781380
v -3.72530405 0.33775570 1.75835906
v -3.70796432 0.33775570 1.76215405
v -3.69810540 0.33775570 1.76710403
v -3.69810540 0.25096601 1.76726906
v -3.69551410 0.25096601 1.77700404
v -3.69553409 0.23359310 1.77700404
v -3.69554075 0.23306896 1.77700404
v -3.69371551 0.20156188 2.62295876
v -3.70795099 0.19946513 3.41000857
v -3.72531735 0.20115001 3.42733354
v -3.73668844 0.20111252 3.42733354
v -3.73937965 0.23325620 1.78294404
v -3.73937965 0.35514726 1.76000903
v -3.72530405 0.38332207 1.76330904
v -3.72530405 0.35514726 1.76017406
v -3.73937965 0.38332207 1.79135901
v -3.73937965 0.38332207 1.76330904
v -3.73668844 0.20592378 3.43706852
v -3.73668844 0.21618280 3.43822357
v -3.73668844 0.33777434 3.44366854
v -3.73668844 0.35516600 3.44201856
v -3.73668844 0.38686032 3.43871860
v -3.70796432 0.38332207 1.76479404
v -3.69810540 0.38332207 1.76726906
v -3.69551410 0.38332207 1.77700404
v -3.69549412 0.35514726 1.77700404
v -3.69549412 0.33775570 1.77700404
v -3.69364224 0.35514726 1.79449404
v -3.69408855 0.23306896 1.79449404
v -3.67489695 0.22404556 2.59672380
v -3.67489695 0.22404556 2.60695377
v -3.69679977 0.20429503 3.41000857
v -3.69761911 0.20536215 3.42436354
v -3.70639888 0.20367727 3.42898362
v -3.71114849 0.20648540 3.43673857
v -3.72531735 0.20594252 3.43706852
v -3.69356897 0.38686032 3.36364362
v -3.73668844 0.38686032 3.40967852
v -3.71982832 0.38686032 3.36364362
v -3.72531735 0.21618280 3.43822357
v -3.72531735 0.33777434 3.44350356
v -3.72531735 0.35516600 3.44201856
v -3.72531735 0.38686032 3.43855352
v -3.69480133 0.38332207 1.78360405
v -3.69365555 0.37252017 1.79449404
v -3.69323588 0.37252017 1.81165402
v -3.67456389 0.32802082 2.59672380
v -3.67456389 0.25096601 2.59672380
v -3.67465715 0.23359310 2.59672380
v -3.67465715 0.23359310 2.60695377
v -3.69421513 0.21618280 3.41000857
v -3.69719945 0.21565856 3.42898362
v -3.69957758 0.20949942 3.43591348
v -3.70639888 0.21565856 3.43690355
v -3.69356897 0.38686032 3.39268351
v -3.68500236 0.36682903 2.58781380
v -3.69141065 0.38073867 2.62840378
v -3.69348902 0.38332207 1.81165402
v -3.69362225 0.38332207 1.80109405
v -3.69378213 0.38332207 1.79449404
v -3.69917790 0.22106893 3.43607856
v -3.70795099 0.33777434 3.43987355
v -3.69911129 0.38686032 3.43624354
v -3.70795099 0.38686032 3.43739858
v -3.71101526 0.38686032 3.43772854
v -3.67456389 0.32802082 2.60695377
v -3.67456389 0.25096601 2.60695377
v -3.69408190 0.23357445 3.41000857
v -3.69653330 0.23357445 3.42733354
v -3.69382211 0.38686032 3.41000857
v -3.69912459 0.23357445 3.43624354
v -3.69911129 0.25094726 3.43624354
v -3.69651331 0.38686032 3.42733354
v -3.69322923 0.37253891 3.39268351
v -3.69322923 0.35516600 3.39268351
v -3.69365555 0.35516600 3.41000857
v -3.69651331 0.25094726 3.42733354
v -3.69365555 0.37253891 3.41000857
f 1 2 3
f 1 3 4
f 1 4 5
f 1 5 6
f 1 6 7
f 1 7 8
f 1 8 9
f 1 9 2
f 2 9 10
f 2 10 11
f 2 11 3
f 3 12 4
f 3 11 10
f 3 10 13
f 3 13 14
f 3 14 12
f 4 12 15
f 4 15 5
f 5 15 16
f 5 16 6
f 6 16 17
f 6 17 18
f 6 18 19
f 6 19 20
f 6 20 21
f 6 21 7
f 7 21 22
f 7 22 23
f 7 23 8
f 8 23 24
f 8 24 25
f 8 25 9
f 9 25 14
f 9 14 26
f 9 26 13
f 9 13 10
f 12 14 27
f 12 27 28
f 12 28 29
f 12 29 15
f 13 26 14
f 14 30 31
f 14 31 27
f 14 25 32
f 14 32 33
f 14 33 34
f 14 34 35
f 14 35 36
f 14 36 30
f 15 29 37
f 15 37 16
f 16 37 38
f 16 38 17
f 17 38 39
f 17 39 40
f 17 40 41
f 17 41 19
f 17 19 18
f 19 41 42
f 19 42 20
f 20 42 43
f 20 43 21
f 21 43 22
f 22 43 44
f 22 44 45
f 22 45 46
f 22 46 23
f 23 46 47
f 23 47 48
f 23 48 24
f 24 48 49
f 24 49 50
f 24 50 25
f 25 50 32
f 27 31 28
f 28 37 29
f 28 31 53
f 28 53 51
f 28 51 37
f 30 36 52
f 30 52 31
f 31 52 53
f 32 50 54
f 32 54 33
f 33 54 34
f 34 55 56
f 34 56 35
f 34 54 55
f 35 56 36
f 36 56 57
f 36 57 79
f 36 79 78
f 36 78 77
f 36 77 87
f 36 87 84
f 36 84 69
f 36 69 51
f 36 51 53
f 36 53 52
f 37 51 38
f 38 51 39
f 39 58 40
f 39 51 58
f 40 58 42
f 40 42 41
f 42 59 60
f 42 60 61
f 42 61 62
f 42 62 43
f 42 58 59
f 43 62 63
f 43 63 44
f 44 63 64
f 44 64 45
f 45 64 65
f 45 65 46
f 46 65 47
f 47 66 67
f 47 67 48
f 47 65 66
f 48 67 49
f 49 68 54
f 49 54 50
f 49 67 68
f 51 69 70
f 51 70 71
f 51 71 72
f 51 72 73
f 51 73 74
f 51 74 58
f 54 68 55
f 55 68 67
f 55 67 75
f 55 75 76
f 55 76 77
f 55 77 78
f 55 78 56
f 56 78 79
f 56 79 57
f 58 74 59
f 59 74 60
f 60 74 73
f 60 73 61
f 61 73 72
f 61 72 70
f 61 70 80
f 61 80 81
f 61 81 62
f 62 81 64
f 62 64 63
f 64 81 82
f 64 82 65
f 65 82 83
f 65 83 66
f 66 75 67
f 66 83 75
f 69 84 80
f 69 80 70
f 70 72 71
f 75 85 76
f 75 83 85
f 76 85 86
f 76 86 77
f 77 86 91
f 77 91 87
f 80 84 88
f 80 88 89
f 80 89 81
f 81 89 82
f 82 89 90
f 82 90 83
f 83 91 85
f 83 90 91
f 84 87 92
f 84 92 88
f 85 91 86
f 87 91 90
f 87 90 92
f 88 92 90
f 88 90 89

