# https://github.com/mikedh/trimesh
v -1.98052244 0.39374110 1.70977220
v -1.98052244 0.39985052 1.70977220
v -1.97044797 0.38696782 1.70977220
v -2.03948353 0.37255776 1.71022814
v -1.96056934 0.41077701 1.70977220
v -1.96797259 0.38686794 1.70977220
v -1.95306242 0.38668587 1.70977220
v -2.03948353 0.35804196 1.72103374
v -2.03948353 0.38435957 1.71283608
v -1.96031603 0.41077701 1.80292847
v -1.93697795 0.41077701 1.70977220
v -2.03948353 0.38992270 1.71411269
v -2.03948353 0.39409357 1.71674799
v -2.03948353 0.39988579 1.72532863
v -1.95132390 0.38764337 1.70977220
v -1.93925759 0.35076931 1.80292847
v -2.03948353 0.35756029 1.72240156
v -1.92187204 0.41077701 1.80292847
v -2.03948353 0.39979180 1.73186671
v -2.03948353 0.39958618 1.74030148
v -2.03182707 0.39894584 1.75126212
v -1.98237613 0.39989754 1.80292847
v -1.93700094 0.40729934 1.70977220
v -1.94100771 0.39345909 1.70977220
v -1.92644303 0.35802436 1.80292847
v -1.96282600 0.35531617 1.80292847
v -2.03948353 0.35861767 1.74212522
v -2.03948353 0.35828865 1.74025589
v -2.03948353 0.35758369 1.72335901
v -1.92192962 0.40729934 1.80292847
v -2.03948353 0.39221959 1.74639276
v -1.98554228 0.39569141 1.80292847
v -1.92213696 0.40213571 1.80292847
v -1.97543343 0.36037412 1.80292847
v -2.00409074 0.35946358 1.77598283
v -2.02183317 0.35884676 1.75894002
v -2.03355410 0.36142560 1.75283054
v -2.03948353 0.37255776 1.74956606
v -2.03948353 0.38992270 1.74713135
v -1.98603742 0.38968772 1.80292847
v -2.03948353 0.37936034 1.74864507
v -1.97985456 0.36313512 1.80292847
v -1.99757400 0.36253590 1.78646016
v -2.01555825 0.36193088 1.76964535
v -1.98223797 0.36883330 1.80292847
v -1.98367710 0.37255776 1.80292847
v -1.98607190 0.37924290 1.80292847
f 1 2 5
f 1 5 11
f 1 11 23
f 1 23 24
f 1 24 15
f 1 15 7
f 1 7 6
f 1 6 3
f 1 3 4
f 1 4 2
f 2 4 5
f 3 6 4
f 4 6 7
f 4 7 8
f 4 8 17
f 4 17 29
f 4 29 28
f 4 28 27
f 4 27 38
f 4 38 41
f 4 41 39
f 4 39 31
f 4 31 20
f 4 20 19
f 4 19 14
f 4 14 13
f 4 13 12
f 4 12 9
f 4 9 5
f 5 10 18
f 5 18 11
f 5 9 12
f 5 12 13
f 5 13 14
f 5 14 10
f 7 15 16
f 7 16 8
f 8 16 17
f 10 14 19
f 10 19 20
f 10 20 21
f 10 21 22
f 10 22 32
f 10 32 40
f 10 40 47
f 10 47 46
f 10 46 45
f 10 45 42
f 10 42 34
f 10 34 26
f 10 26 16
f 10 16 25
f 10 25 33
f 10 33 30
f 10 30 18
f 11 18 23
f 15 24 16
f 16 24 25
f 16 26 27
f 16 27 28
f 16 28 29
f 16 29 17
f 18 30 23
f 20 31 21
f 21 31 32
f 21 32 22
f 23 30 33
f 23 33 25
f 23 25 24
f 26 34 35
f 26 35 36
f 26 36 27
f 27 36 37
f 27 37 38
f 31 39 32
f 32 39 41
f 32 41 38
f 32 38 40
f 34 42 43
f 34 43 44
f 34 44 37
f 34 37 35
f 35 37 36
f 37 44 45
f 37 45 46
f 37 46 47
f 37 47 38
f 38 47 40
f 42 45 43
f 43 45 44

