# https://github.com/mikedh/trimesh
v -4.11583917 0.59365289 3.16532826
v -4.05190671 0.59365289 3.16532826
v -4.11583917 0.59365289 3.20825272
v -4.11583917 0.85898878 3.16532826
v -4.03656473 0.59692546 3.16532826
v -4.03915921 0.59365289 3.16547107
v -4.02572187 0.59365289 3.20825272
v -4.11583917 0.83922365 3.20825272
v -4.11583917 0.85872904 3.16656357
v -4.01949811 0.82257521 3.16532826
v -4.03493003 0.59931493 3.16532826
v -4.00649564 0.73741111 3.19660988
v -4.02524196 0.74068367 3.20825272
v -4.02423713 0.61702820 3.16532826
v -4.02095282 0.62328759 3.16532826
v -4.01598880 0.63281954 3.16532826
v -3.96279424 0.73728124 3.16532826
v -3.97546671 0.74268354 3.17672327
v -4.11553920 0.84026255 3.20825272
v -4.11583917 0.84104171 3.20754258
v -4.11583917 0.85639151 3.17584505
v -4.01937813 0.82127658 3.16813080
v -4.01258446 0.81948449 3.16532826
v -4.11583917 0.85387216 3.18418969
v -4.11583917 0.85057366 3.19317281
v -3.97546671 0.74831963 3.17672327
v -4.02582684 0.75008575 3.20825272
v -3.96264428 0.74494319 3.16532826
v -4.07341249 0.81247190 3.20825272
v -4.03280045 0.81325106 3.19142497
v -4.11583917 0.84439220 3.20297542
v -4.02429715 0.81790014 3.17984509
v -4.00841529 0.81753653 3.16532826
v -4.00733549 0.75478677 3.19602164
v -3.96447389 0.75439721 3.16532826
v -4.02758152 0.80166731 3.19401737
v -4.02197261 0.75382580 3.20495442
v -4.03807946 0.78953808 3.20290821
v -4.04910226 0.78953808 3.20825272
v -4.06276459 0.80538136 3.20825272
v -4.05955520 0.80281008 3.20825272
v -4.02014295 0.80823837 3.18476106
v -4.01270444 0.81480944 3.17480310
v -4.00111172 0.81000450 3.16532826
v -3.96628853 0.75722823 3.16532826
v -4.04958217 0.79016143 3.20825272
v -3.99881717 0.80660207 3.16532826
f 1 2 6
f 1 6 7
f 1 7 3
f 1 3 8
f 1 8 20
f 1 20 31
f 1 31 25
f 1 25 24
f 1 24 21
f 1 21 9
f 1 9 4
f 1 4 10
f 1 10 23
f 1 23 33
f 1 33 44
f 1 44 47
f 1 47 45
f 1 45 35
f 1 35 28
f 1 28 17
f 1 17 16
f 1 16 15
f 1 15 14
f 1 14 11
f 1 11 5
f 1 5 2
f 2 5 6
f 3 7 13
f 3 13 27
f 3 27 39
f 3 39 46
f 3 46 41
f 3 41 40
f 3 40 29
f 3 29 19
f 3 19 8
f 4 9 10
f 5 11 7
f 5 7 6
f 7 12 13
f 7 11 14
f 7 14 15
f 7 15 16
f 7 16 17
f 7 17 18
f 7 18 12
f 8 19 20
f 9 21 10
f 10 22 23
f 10 21 24
f 10 24 25
f 10 25 22
f 12 18 26
f 12 26 13
f 13 26 27
f 17 28 18
f 18 28 26
f 19 29 30
f 19 30 20
f 20 30 32
f 20 32 31
f 22 25 32
f 22 32 23
f 23 32 33
f 25 31 32
f 26 34 27
f 26 28 35
f 26 35 36
f 26 36 34
f 27 34 37
f 27 37 36
f 27 36 38
f 27 38 39
f 29 40 30
f 30 40 41
f 30 41 36
f 30 36 42
f 30 42 43
f 30 43 32
f 32 43 33
f 33 43 44
f 34 36 37
f 35 45 43
f 35 43 42
f 35 42 36
f 36 41 46
f 36 46 39
f 36 39 38
f 43 45 47
f 43 47 44

