# https://github.com/mikedh/trimesh
v -3.87178376 0.85894565 2.98626684
v -3.81085247 0.85192258 2.98626684
v -3.87178376 0.86907309 2.97725638
v -3.87178376 0.40534686 2.98626684
v -3.81085247 0.85232969 2.93671668
v -3.82539939 0.89375563 2.88881568
v -3.83202576 0.91243293 2.88782618
v -3.83390451 0.90688572 2.90619201
v -3.84815322 0.91594446 2.90490264
v -3.84846929 0.90612235 2.92220399
v -3.85527457 0.90276350 2.93257880
v -3.87178376 0.88535848 2.96209901
v -3.87178376 0.88225408 2.96499257
v -3.81085247 0.40168267 2.98626684
v -3.87178376 0.40534686 2.83311860
v -3.86723302 0.40432903 2.98626684
v -3.81085247 0.85238059 2.92355332
v -3.81085247 0.85243149 2.90619201
v -3.81085247 0.85243149 2.83311860
v -3.83801392 0.92001581 2.87973024
v -3.83801392 0.92001581 2.88137939
v -3.84316109 0.91909976 2.89295362
v -3.85474971 0.91996494 2.89826100
v -3.86432241 0.90993924 2.92355332
v -3.86432241 0.90337419 2.93379318
v -3.87178376 0.89395921 2.94994011
v -3.81163381 0.40153002 2.98626684
v -3.81085247 0.40168267 2.83340346
v -3.86788909 0.40448169 2.83311860
v -3.87178376 0.75202193 2.83311860
v -3.86432241 0.40371832 2.98626684
v -3.86432241 0.40371832 2.83311860
v -3.81766370 0.84759677 2.83311860
v -3.87178376 0.87640151 2.85104962
v -3.87178376 0.89462080 2.85679171
v -3.86562861 0.89543507 2.85719654
v -3.86070804 0.90388310 2.86185919
v -3.85270396 0.90388310 2.86185919
v -3.81085247 0.40641563 2.83311860
v -3.84694245 0.92021939 2.87923547
v -3.84815322 0.92021939 2.88782618
v -3.85838795 0.92021939 2.88881568
v -3.85694458 0.91996494 2.89826100
v -3.86336812 0.91792926 2.90490264
v -3.87178376 0.91345078 2.91346332
v -3.87178376 0.90917585 2.92355332
v -3.87178376 0.90714018 2.92814099
v -3.87178376 0.90174565 2.93770623
v -3.81220041 0.40147906 2.98626684
v -3.81220041 0.40147906 2.83311860
v -3.87178376 0.75935035 2.83344840
v -3.87139607 0.76011372 2.83311860
v -3.84694245 0.40091930 2.98626684
v -3.85050908 0.40153002 2.83311860
v -3.84694245 0.40091930 2.85406312
v -3.82473141 0.84072636 2.83311860
v -3.82655646 0.83894517 2.83311860
v -3.83524644 0.82912303 2.83311860
v -3.84130020 0.82042052 2.83311860
v -3.84857068 0.80688330 2.83311860
v -3.84972179 0.80454229 2.83311860
v -3.86554508 0.77217506 2.83311860
v -3.86673198 0.76973230 2.83311860
v -3.87178376 0.90179655 2.86247389
v -3.87178376 0.91039725 2.87148434
v -3.86514548 0.91151688 2.87112456
v -3.85799431 0.92021939 2.87932546
v -3.87178376 0.90296705 2.86349337
v -3.86707793 0.91904886 2.88881568
v -3.87178376 0.91630072 2.90550238
v -3.81898181 0.40102111 2.98626684
v -3.82957441 0.40041039 2.83311860
v -3.82957441 0.40041039 2.98626684
v -3.84694245 0.40097015 2.83311860
v -3.87178376 0.91803104 2.88881568
v -3.87178376 0.91752213 2.89440791
f 1 2 3
f 1 3 13
f 1 13 12
f 1 12 26
f 1 26 48
f 1 48 47
f 1 47 46
f 1 46 45
f 1 45 70
f 1 70 76
f 1 76 75
f 1 75 65
f 1 65 68
f 1 68 64
f 1 64 35
f 1 35 34
f 1 34 51
f 1 51 30
f 1 30 15
f 1 15 4
f 1 4 16
f 1 16 31
f 1 31 53
f 1 53 73
f 1 73 71
f 1 71 49
f 1 49 27
f 1 27 14
f 1 14 2
f 2 5 6
f 2 6 7
f 2 7 8
f 2 8 9
f 2 9 10
f 2 10 11
f 2 11 12
f 2 12 13
f 2 13 3
f 2 14 28
f 2 28 39
f 2 39 19
f 2 19 18
f 2 18 17
f 2 17 5
f 4 15 16
f 5 17 6
f 6 17 18
f 6 18 19
f 6 19 7
f 7 20 21
f 7 21 8
f 7 19 20
f 8 21 22
f 8 22 9
f 9 22 23
f 9 23 24
f 9 24 11
f 9 11 10
f 11 24 25
f 11 25 26
f 11 26 12
f 14 27 28
f 15 29 16
f 15 30 52
f 15 52 63
f 15 63 62
f 15 62 61
f 15 61 60
f 15 60 59
f 15 59 58
f 15 58 57
f 15 57 56
f 15 56 33
f 15 33 19
f 15 19 39
f 15 39 50
f 15 50 72
f 15 72 74
f 15 74 54
f 15 54 32
f 15 32 29
f 16 29 32
f 16 32 31
f 19 33 34
f 19 34 35
f 19 35 36
f 19 36 37
f 19 37 38
f 19 38 20
f 20 38 40
f 20 40 21
f 21 40 41
f 21 41 23
f 21 23 22
f 23 41 42
f 23 42 43
f 23 43 44
f 23 44 24
f 24 44 45
f 24 45 46
f 24 46 47
f 24 47 48
f 24 48 26
f 24 26 25
f 27 49 50
f 27 50 28
f 28 50 39
f 30 51 52
f 31 32 55
f 31 55 53
f 32 54 55
f 33 56 34
f 34 56 57
f 34 57 58
f 34 58 59
f 34 59 60
f 34 60 61
f 34 61 62
f 34 62 63
f 34 63 52
f 34 52 51
f 35 64 37
f 35 37 36
f 37 65 66
f 37 66 67
f 37 67 40
f 37 40 38
f 37 64 68
f 37 68 65
f 40 67 42
f 40 42 41
f 42 67 69
f 42 69 43
f 43 69 70
f 43 70 44
f 44 70 45
f 49 71 50
f 50 71 72
f 53 55 72
f 53 72 73
f 54 74 55
f 55 74 72
f 65 75 67
f 65 67 66
f 67 75 69
f 69 75 76
f 69 76 70
f 71 73 72

