# https://github.com/mikedh/trimesh
v -3.51771323 0.56493313 2.54129651
v -3.51829003 0.58105665 2.54129651
v -3.51811912 0.56493313 2.55866922
v -3.51771323 0.56493313 2.18079396
v -3.52024474 0.59843427 2.54129651
v -3.52061858 0.59843427 2.55866922
v -3.51869592 0.58105665 2.55866922
v -3.51829003 0.58105665 2.18079396
v -3.51975338 0.59410707 2.18079396
v -3.51979610 0.58105665 2.57515397
v -3.51923000 0.56493313 2.57515397
v -3.53529490 0.56493313 2.18079396
v -3.52354529 0.60952092 2.54129651
v -3.52371620 0.60932110 2.55866922
v -3.52024474 0.59843427 2.18079396
v -3.52420756 0.60874922 2.57515397
v -3.52165468 0.59843427 2.57515397
v -3.53908681 0.56493313 2.57515397
v -3.62683488 0.61813390 2.18079396
v -3.62683488 0.61573604 2.57515397
v -3.53316928 0.61820282 2.54129651
v -3.52354529 0.60952092 2.18079396
v -3.53337224 0.61800988 2.55866922
v -3.53541240 0.61868517 2.57515397
v -3.62683488 0.63464330 2.18079396
v -3.62683488 0.63513942 2.57515397
v -3.54186397 0.62532060 2.54129651
v -3.54206693 0.62515526 2.55866922
v -3.53316928 0.61820282 2.18079396
v -3.53969564 0.62354977 2.18079396
v -3.54247283 0.62482448 2.57245158
v -3.53876636 0.62151712 2.57515397
v -3.62106690 0.63532548 2.57515397
v -3.62106690 0.63473288 2.18079396
v -3.55157341 0.62985452 2.54129651
v -3.55157341 0.62964092 2.55866922
v -3.54186397 0.62532060 2.18079396
v -3.54427799 0.62645064 2.18079396
v -3.54895646 0.62781493 2.57515397
v -3.54652108 0.62665735 2.57515397
v -3.54259032 0.62472806 2.57515397
v -3.60368819 0.63522212 2.57515397
v -3.60368819 0.63465024 2.18079396
v -3.60801417 0.63467090 2.18079396
v -3.56895212 0.63387848 2.54129651
v -3.56895212 0.63382339 2.55866922
v -3.56895212 0.63373381 2.57515397
v -3.56804420 0.63352021 2.57515397
v -3.55157341 0.62985452 2.18079396
v -3.55589939 0.63086048 2.18079396
v -3.55008869 0.62834549 2.57515397
v -3.60279094 0.63520835 2.57515397
v -3.59063546 0.63440215 2.18079396
v -3.58541222 0.63456066 2.57515397
v -3.56895212 0.63387848 2.18079396
v -3.57326744 0.63398873 2.18079396
v -3.58632017 0.63431946 2.18079396
f 1 2 7
f 1 7 3
f 1 3 11
f 1 11 18
f 1 18 12
f 1 12 4
f 1 4 8
f 1 8 2
f 2 5 6
f 2 6 7
f 2 8 9
f 2 9 5
f 3 7 10
f 3 10 11
f 4 12 19
f 4 19 25
f 4 25 34
f 4 34 44
f 4 44 43
f 4 43 53
f 4 53 57
f 4 57 56
f 4 56 55
f 4 55 50
f 4 50 49
f 4 49 38
f 4 38 37
f 4 37 30
f 4 30 29
f 4 29 22
f 4 22 15
f 4 15 9
f 4 9 8
f 5 13 14
f 5 14 6
f 5 9 15
f 5 15 22
f 5 22 13
f 6 14 16
f 6 16 17
f 6 17 7
f 7 17 10
f 10 17 16
f 10 16 24
f 10 24 32
f 10 32 41
f 10 41 40
f 10 40 39
f 10 39 51
f 10 51 48
f 10 48 47
f 10 47 54
f 10 54 52
f 10 52 42
f 10 42 33
f 10 33 26
f 10 26 20
f 10 20 18
f 10 18 11
f 12 18 20
f 12 20 19
f 13 21 14
f 13 22 29
f 13 29 21
f 14 21 23
f 14 23 16
f 16 23 24
f 19 20 26
f 19 26 25
f 21 27 28
f 21 28 23
f 21 29 30
f 21 30 27
f 23 28 31
f 23 31 24
f 24 31 32
f 25 26 33
f 25 33 34
f 27 35 36
f 27 36 28
f 27 30 37
f 27 37 38
f 27 38 35
f 28 36 39
f 28 39 40
f 28 40 31
f 31 40 41
f 31 41 32
f 33 42 43
f 33 43 44
f 33 44 34
f 35 45 46
f 35 46 47
f 35 47 48
f 35 48 36
f 35 38 49
f 35 49 50
f 35 50 45
f 36 48 51
f 36 51 39
f 42 52 43
f 43 52 53
f 45 54 46
f 45 50 55
f 45 55 54
f 46 54 47
f 52 54 55
f 52 55 56
f 52 56 57
f 52 57 53

