# https://github.com/mikedh/trimesh
v -3.51801771 0.56493313 2.64554041
v -3.51786029 0.56493313 2.54759111
v -3.56969027 0.56493313 2.60563587
v -3.53537563 0.56488601 2.64554041
v -3.51797201 0.56366012 2.64554041
v -3.53533501 0.56493313 2.54759111
v -3.51781459 0.56366012 2.54759111
v -3.56969027 0.56493313 2.59793684
v -3.56601860 0.08325672 2.60542491
v -3.53536548 0.08325672 2.64554041
v -3.51797201 0.08325672 2.64554041
v -3.53531978 0.08325672 2.54759111
v -3.51781459 0.08325672 2.54759111
v -3.56601860 0.08325672 2.59818612
f 1 2 6
f 1 6 8
f 1 8 3
f 1 3 4
f 1 4 10
f 1 10 11
f 1 11 5
f 1 5 7
f 1 7 2
f 2 7 13
f 2 13 12
f 2 12 6
f 3 8 14
f 3 14 9
f 3 9 10
f 3 10 4
f 5 11 13
f 5 13 7
f 6 12 8
f 8 12 14
f 9 14 12
f 9 12 13
f 9 13 11
f 9 11 10

