# https://github.com/mikedh/trimesh
v -4.68095990 0.03055771 2.59587743
v -4.67537637 0.03055771 2.59643657
v -4.68095990 0.03055771 2.60789832
v -4.70824303 0.03230991 1.75958629
v -4.66148703 0.19318151 2.83308049
v -4.67537637 0.03055771 2.60719947
v -4.70201502 0.03230991 1.79439099
v -4.69861482 0.03252894 1.75818854
v -4.69806179 0.03256540 1.76098409
v -4.68957816 0.03373360 1.76769341
v -4.67245712 0.19358302 1.77691876
v -4.70201502 0.03238292 3.18615948
v -4.70824303 0.03238292 3.18615948
v -4.70824303 0.03230991 2.18073709
v -4.70983015 0.04172788 1.75818854
v -4.70824303 0.03234646 1.75818854
v -4.66148703 0.21475517 2.83308049
v -4.66148703 0.19318151 2.83881140
v -4.67245712 0.19774442 1.76755365
v -4.67245712 0.20070127 1.76238189
v -4.67245712 0.21614230 1.75874763
v -4.67245712 0.23424803 1.75818854
v -4.66148703 0.19336398 3.08188513
v -4.66148703 0.19347345 3.13402240
v -4.66148703 0.19354646 3.16868724
v -4.66148703 0.19361948 3.18615948
v -4.69617652 0.04249446 3.18615948
v -4.69684026 0.04132637 3.18615948
v -4.69276192 0.04205639 1.75818854
v -4.70843546 0.03347800 3.18615948
v -4.70995515 0.04249446 3.18615948
v -4.70995039 0.04249446 1.75818854
v -4.70995039 0.04245791 2.51522559
v -4.70995039 0.04245791 2.18073709
v -4.66148703 0.21479162 2.90394789
v -4.67245712 0.37120978 1.75818854
v -4.67245712 0.37496955 1.75846811
v -4.67245712 0.37504257 1.75958629
v -4.67061990 0.37902148 2.51522559
v -4.67368341 0.21614230 1.75818854
v -4.67527529 0.37164775 3.18615948
v -4.66148703 0.21490109 3.18587985
v -4.67127877 0.37898503 3.18601967
v -4.71054671 0.05987017 3.18615948
v -4.71055147 0.05987017 1.75958629
v -4.70995515 0.04249446 2.83308049
v -4.71055147 0.05987017 1.75818854
v -4.66148703 0.21490109 3.16463376
v -4.67278894 0.37504257 1.75818854
v -4.67373157 0.40285838 2.51536540
v -4.67155290 0.37902148 2.18073709
v -4.67373157 0.40340592 2.80191005
v -4.67373157 0.40344242 2.83266116
v -4.68452840 0.37898503 3.18615948
v -4.71057560 0.07724588 3.18615948
v -4.71061402 0.07720943 1.75818854
v -4.70612692 0.37504257 1.75818854
v -4.67630451 0.40158076 2.51536540
v -4.67666998 0.40194577 2.81924252
v -4.67398644 0.40333291 2.83308049
v -4.69342566 0.37898503 3.18615948
v -4.70892117 0.32039666 3.18615948
v -4.71046489 0.11199741 1.75818854
v -4.71018599 0.12937312 1.75818854
v -4.70850277 0.32036011 1.79439099
v -4.70892117 0.32036011 1.81172346
v -4.70892117 0.32039666 2.83308049
v -4.70797853 0.33434110 3.18615948
v -4.69606591 0.37248734 3.18615948
v -4.69552241 0.37383802 3.18615948
v -4.68536043 0.39296592 2.83308049
v -4.67667485 0.40194577 2.83308049
f 1 2 6
f 1 6 3
f 1 3 14
f 1 14 4
f 1 4 2
f 2 5 18
f 2 18 6
f 2 4 7
f 2 7 8
f 2 8 9
f 2 9 10
f 2 10 11
f 2 11 5
f 3 6 12
f 3 12 13
f 3 13 14
f 4 15 16
f 4 16 8
f 4 8 7
f 4 14 15
f 5 17 35
f 5 35 48
f 5 48 42
f 5 42 26
f 5 26 25
f 5 25 24
f 5 24 23
f 5 23 18
f 5 11 19
f 5 19 20
f 5 20 21
f 5 21 22
f 5 22 36
f 5 36 17
f 6 18 23
f 6 23 24
f 6 24 25
f 6 25 26
f 6 26 27
f 6 27 28
f 6 28 12
f 8 16 15
f 8 15 32
f 8 32 47
f 8 47 56
f 8 56 63
f 8 63 64
f 8 64 57
f 8 57 49
f 8 49 36
f 8 36 22
f 8 22 40
f 8 40 29
f 8 29 10
f 8 10 9
f 10 29 20
f 10 20 19
f 10 19 11
f 12 28 27
f 12 27 26
f 12 26 41
f 12 41 54
f 12 54 61
f 12 61 70
f 12 70 69
f 12 69 68
f 12 68 62
f 12 62 55
f 12 55 44
f 12 44 31
f 12 31 30
f 12 30 13
f 13 30 14
f 14 30 31
f 14 31 15
f 15 31 33
f 15 33 34
f 15 34 32
f 17 36 37
f 17 37 38
f 17 38 39
f 17 39 35
f 20 29 21
f 21 29 40
f 21 40 22
f 26 42 43
f 26 43 41
f 31 44 45
f 31 45 47
f 31 47 46
f 31 46 34
f 31 34 33
f 32 34 46
f 32 46 47
f 35 39 48
f 36 49 37
f 37 49 38
f 38 49 50
f 38 50 51
f 38 51 39
f 39 51 50
f 39 50 52
f 39 52 53
f 39 53 43
f 39 43 42
f 39 42 48
f 41 43 54
f 43 53 54
f 44 55 56
f 44 56 45
f 45 56 47
f 49 57 50
f 50 57 58
f 50 58 52
f 52 58 59
f 52 59 60
f 52 60 53
f 53 60 61
f 53 61 54
f 55 62 63
f 55 63 56
f 57 64 65
f 57 65 66
f 57 66 67
f 57 67 62
f 57 62 68
f 57 68 69
f 57 69 70
f 57 70 61
f 57 61 71
f 57 71 72
f 57 72 59
f 57 59 58
f 59 72 60
f 60 72 61
f 61 72 71
f 62 67 63
f 63 66 65
f 63 65 64
f 63 67 66

