# https://github.com/mikedh/trimesh
v -3.19656681 0.32320624 2.42615768
v -3.19656681 0.32320624 2.43588653
v -3.19625518 0.33780821 2.42674732
v -3.18305413 0.51154257 2.42364877
v -3.18903572 0.32320624 2.41885955
v -3.19635040 0.32320624 2.43727638
v -3.19494805 0.33780821 2.44344940
v -3.19625518 0.33780821 2.43476745
v -3.19585698 0.35519003 2.42749337
v -3.18219715 0.52892444 2.42444295
v -3.16757644 0.53035652 2.41482240
v -3.17839698 0.33309067 2.41082135
v -3.17884711 0.32320624 2.41062282
v -3.18728712 0.32320624 2.41725312
v -3.19556266 0.36779818 2.42803488
v -3.19512119 0.32320624 2.44457452
v -3.19467971 0.35519003 2.44115710
v -3.18361680 0.51154257 2.45208325
v -3.18866350 0.51154257 2.43705375
v -3.19585698 0.35519003 2.43246911
v -3.18711399 0.52892444 2.43705375
v -3.18039661 0.53976352 2.42613363
v -3.15872958 0.54922666 2.41228338
v -3.16063400 0.53762939 2.41099583
v -3.15362229 0.53035652 2.40881783
v -3.13456950 0.42468940 2.40182653
v -3.13456950 0.40730753 2.40193483
v -3.11719605 0.40730753 2.40105040
v -3.10814144 0.40730753 2.40085184
v -3.17653585 0.32320624 2.41062282
v -3.19556266 0.36779818 2.43018279
v -3.19372750 0.32320624 2.44582598
v -3.17519409 0.51154257 2.46193244
v -3.17517679 0.51336778 2.46193244
v -3.17480456 0.52892444 2.46193244
v -3.18291563 0.52892444 2.45157182
v -3.18090734 0.54012859 2.44928552
v -3.16296257 0.59724443 2.46193244
v -3.16262497 0.59494185 2.45442971
v -3.18198073 0.54113947 2.43705375
v -3.16169873 0.59140370 2.44301021
v -3.16205365 0.57551009 2.42556807
v -3.14715594 0.56020617 2.40996700
v -3.15254023 0.56506408 2.41364315
v -3.15254023 0.54456531 2.40928110
v -3.11719605 0.42468940 2.40078566
v -3.10814144 0.42468940 2.40047280
v -3.10814144 0.39214404 2.40589977
v -3.16948086 0.32320624 2.41263837
v -3.18643013 0.32320624 2.45111456
v -3.17401682 0.40730753 2.46193244
v -3.17405145 0.40969441 2.46193244
v -3.17510753 0.49416070 2.46193244
v -3.17451890 0.53142359 2.46193244
v -3.16429566 0.58983119 2.46193244
v -3.15890271 0.60600556 2.46193244
v -3.15634040 0.58710736 2.43142824
v -3.15111192 0.58121044 2.42293278
v -3.14025676 0.56020617 2.40996700
v -3.13725299 0.54627820 2.40885392
v -3.14476677 0.59025238 2.42776411
v -3.12856194 0.54627820 2.41227137
v -3.10814144 0.43300126 2.40188067
v -3.10814144 0.38554512 2.41968381
v -3.15609802 0.32320624 2.42186183
v -3.16781883 0.32320624 2.41311368
v -3.18372067 0.32320624 2.45163800
v -3.16663290 0.37206646 2.46193244
v -3.16819105 0.37464985 2.46193244
v -3.17273567 0.39242485 2.46193244
v -3.14966630 0.61004915 2.46193244
v -3.14860156 0.60926289 2.45951977
v -3.15340587 0.60350636 2.45400855
v -3.15111192 0.59370628 2.43715604
v -3.14185821 0.59025238 2.42776411
v -3.13546977 0.58154739 2.42272221
v -3.13450890 0.56506408 2.41343858
v -3.12127323 0.56366007 2.42263796
v -3.10814144 0.44207127 2.40346908
v -3.11438271 0.37299314 2.46193244
v -3.12094428 0.35996369 2.46193244
v -3.15323275 0.32320624 2.43705375
v -3.10814144 0.39051540 2.43303467
v -3.16931639 0.32320624 2.45410481
v -3.16078115 0.36482166 2.46193244
v -3.13456950 0.60971221 2.46193244
v -3.13456950 0.60878552 2.46031395
v -3.13456950 0.60336598 2.45162599
v -3.13546977 0.59398709 2.43689734
v -3.13027592 0.58766898 2.43100708
v -3.12334212 0.57607171 2.42522512
v -3.11447794 0.56366007 2.43705375
v -3.10814144 0.44805243 2.40597798
v -3.10814144 0.43740992 2.46193244
v -3.12618142 0.35774536 2.46193244
v -3.16736003 0.32320624 2.45322038
v -3.15776871 0.32320624 2.44873200
v -3.15702426 0.32320624 2.44681872
v -3.14626433 0.35583585 2.46193244
v -3.15040210 0.35774536 2.46193244
v -3.12925445 0.60780270 2.46193244
v -3.12525519 0.60578093 2.46193244
v -3.12387015 0.59190909 2.44258301
v -3.12076250 0.58154739 2.43689734
v -3.11119715 0.56366007 2.45442971
v -3.11252159 0.54627820 2.43705375
v -3.11482420 0.58104194 2.45442971
v -3.11324006 0.58042419 2.46193244
v -3.10814144 0.45350004 2.40895018
v -3.10814144 0.47074153 2.46193244
v -3.12038162 0.59814300 2.46193244
v -3.12233797 0.59797450 2.45608427
v -3.11027957 0.56366007 2.46193244
v -3.10814144 0.45762788 2.41362510
v -3.10985541 0.54627820 2.45442971
v -3.10930139 0.54627820 2.46193244
v -3.10814144 0.47475706 2.45558492
f 1 2 8
f 1 8 3
f 1 3 4
f 1 4 5
f 1 5 14
f 1 14 13
f 1 13 30
f 1 30 49
f 1 49 66
f 1 66 65
f 1 65 82
f 1 82 98
f 1 98 97
f 1 97 96
f 1 96 84
f 1 84 67
f 1 67 50
f 1 50 32
f 1 32 16
f 1 16 6
f 1 6 2
f 2 6 7
f 2 7 8
f 3 8 20
f 3 20 9
f 3 9 4
f 4 10 11
f 4 11 12
f 4 12 13
f 4 13 14
f 4 14 5
f 4 9 15
f 4 15 10
f 6 16 7
f 7 17 8
f 7 16 18
f 7 18 19
f 7 19 17
f 8 17 20
f 9 20 31
f 9 31 15
f 10 21 22
f 10 22 23
f 10 23 24
f 10 24 11
f 10 15 19
f 10 19 21
f 11 24 12
f 12 24 13
f 13 24 25
f 13 25 26
f 13 26 27
f 13 27 28
f 13 28 29
f 13 29 30
f 15 31 19
f 16 32 33
f 16 33 34
f 16 34 35
f 16 35 18
f 17 19 20
f 18 35 36
f 18 36 19
f 19 36 21
f 19 31 20
f 21 36 37
f 21 37 38
f 21 38 39
f 21 39 40
f 21 40 22
f 22 40 39
f 22 39 41
f 22 41 42
f 22 42 23
f 23 43 24
f 23 42 44
f 23 44 43
f 24 43 45
f 24 45 25
f 25 45 26
f 26 46 27
f 26 45 46
f 27 46 28
f 28 46 47
f 28 47 29
f 29 47 63
f 29 63 79
f 29 79 93
f 29 93 109
f 29 109 114
f 29 114 117
f 29 117 110
f 29 110 94
f 29 94 83
f 29 83 64
f 29 64 48
f 29 48 30
f 30 48 49
f 32 50 51
f 32 51 52
f 32 52 53
f 32 53 33
f 33 53 52
f 33 52 51
f 33 51 70
f 33 70 69
f 33 69 68
f 33 68 85
f 33 85 100
f 33 100 99
f 33 99 95
f 33 95 81
f 33 81 80
f 33 80 94
f 33 94 110
f 33 110 116
f 33 116 113
f 33 113 108
f 33 108 111
f 33 111 102
f 33 102 101
f 33 101 86
f 33 86 71
f 33 71 56
f 33 56 38
f 33 38 55
f 33 55 54
f 33 54 35
f 33 35 34
f 35 54 36
f 36 54 55
f 36 55 38
f 36 38 37
f 38 56 39
f 39 56 41
f 41 56 57
f 41 57 42
f 42 57 58
f 42 58 44
f 43 59 60
f 43 60 47
f 43 47 46
f 43 46 45
f 43 44 58
f 43 58 61
f 43 61 75
f 43 75 59
f 47 60 62
f 47 62 63
f 48 64 65
f 48 65 66
f 48 66 49
f 50 67 68
f 50 68 69
f 50 69 70
f 50 70 51
f 56 71 72
f 56 72 73
f 56 73 74
f 56 74 57
f 57 61 58
f 57 74 61
f 59 62 60
f 59 75 76
f 59 76 77
f 59 77 62
f 61 74 72
f 61 72 75
f 62 77 78
f 62 78 79
f 62 79 63
f 64 80 81
f 64 81 82
f 64 82 65
f 64 83 80
f 67 84 85
f 67 85 68
f 71 86 72
f 72 86 87
f 72 87 75
f 72 74 73
f 75 87 88
f 75 88 89
f 75 89 90
f 75 90 76
f 76 90 91
f 76 91 77
f 77 91 78
f 78 91 92
f 78 92 79
f 79 92 93
f 80 83 94
f 81 95 84
f 81 84 96
f 81 96 97
f 81 97 98
f 81 98 82
f 84 95 99
f 84 99 100
f 84 100 85
f 86 101 87
f 87 101 88
f 88 101 89
f 89 101 90
f 90 101 102
f 90 102 103
f 90 103 91
f 91 103 104
f 91 104 92
f 92 105 106
f 92 106 93
f 92 104 107
f 92 107 108
f 92 108 105
f 93 106 109
f 102 111 112
f 102 112 103
f 103 112 111
f 103 111 104
f 104 111 107
f 105 108 113
f 105 113 109
f 105 109 106
f 107 111 108
f 109 113 115
f 109 115 116
f 109 116 114
f 110 117 116
f 113 116 115
f 114 116 117

