# https://github.com/mikedh/trimesh
v -6.50408175 1.83595634 1.11383573
v -6.50742188 1.83549201 1.11383573
v -6.49933832 1.83209326 1.11383573
v -6.50542911 1.82795154 0.96018956
v -6.51727493 1.82795154 0.96018956
v -6.52180999 1.83168465 1.11383573
v -6.49046146 1.81645509 1.11383573
v -6.49801126 1.81613937 0.95933827
v -6.49633870 1.81132905 0.95100916
v -6.50830155 1.82650289 0.94897278
v -6.52546040 1.81467213 1.11383573
v -6.51626829 1.82650289 0.94897278
v -6.51986796 1.81467213 0.96018956
v -6.49024792 1.81508074 1.11383573
v -6.50363932 1.81613937 0.94833846
v -6.47352114 1.64623715 1.11383573
v -6.48438580 1.64623715 0.96018956
v -6.48479259 1.64623715 0.95850365
v -6.48867685 1.64623715 0.94363149
v -6.51713782 1.81467213 0.94790452
v -6.52401134 1.64623715 1.11383573
v -6.51662932 1.79730673 0.94832178
v -6.51612600 1.77992279 0.94878917
v -6.51561750 1.76255738 0.94934002
v -6.51510921 1.74517344 0.94994090
v -6.51460071 1.72782662 0.95062525
v -6.51423969 1.71545723 0.95115932
v -6.51269928 1.64623715 0.96018956
v -6.50533756 1.79730673 0.94725352
v -6.50570873 1.64623715 0.94333105
f 1 2 6
f 1 6 11
f 1 11 21
f 1 21 16
f 1 16 14
f 1 14 7
f 1 7 3
f 1 3 4
f 1 4 5
f 1 5 2
f 2 5 6
f 3 7 8
f 3 8 4
f 4 8 9
f 4 9 10
f 4 10 12
f 4 12 5
f 5 11 6
f 5 12 13
f 5 13 11
f 7 14 9
f 7 9 8
f 9 15 10
f 9 14 16
f 9 16 17
f 9 17 18
f 9 18 19
f 9 19 15
f 10 15 20
f 10 20 12
f 11 13 21
f 12 20 13
f 13 20 22
f 13 22 23
f 13 23 24
f 13 24 25
f 13 25 26
f 13 26 27
f 13 27 28
f 13 28 21
f 15 29 20
f 15 19 29
f 16 21 28
f 16 28 30
f 16 30 19
f 16 19 18
f 16 18 17
f 19 30 29
f 20 29 30
f 20 30 22
f 22 30 23
f 23 30 24
f 24 30 25
f 25 30 26
f 26 30 27
f 27 30 28

