# https://github.com/mikedh/trimesh
v -2.65154581 0.37287249 2.46354503
v -2.65154581 0.38992684 2.46625467
v -2.65154581 0.37023752 2.46489405
v -2.66093919 0.36039949 2.47672439
v -2.77317153 0.36953101 2.56763089
v -2.77317153 0.37255704 2.56704286
v -2.65862951 0.39940494 2.47888059
v -2.65154581 0.40001814 2.47487951
v -2.77317153 0.38992684 2.57000618
v -2.65154581 0.35836881 2.47261949
v -2.77317153 0.35914637 2.57518338
v -2.76519490 0.36208364 2.56599355
v -2.77317153 0.39967602 2.57751253
v -2.65154581 0.40028922 2.47662062
v -2.65154581 0.35760451 2.48955785
v -2.66621327 0.35756899 2.48832409
v -2.71756134 0.35599151 2.54130676
v -2.73493136 0.35569821 2.55868325
v -2.75231323 0.35614261 2.57604819
v -2.77317153 0.35888425 2.58132916
v -2.77317153 0.39973376 2.58132916
v -2.65154581 0.40108459 2.48931572
v -2.65154581 0.35980410 2.49863236
v -2.66520130 0.35780449 2.50694583
v -2.75187272 0.35703574 2.58132916
v -2.76836172 0.39976042 2.58132916
v -2.65154581 0.40109350 2.49231363
v -2.65154581 0.36106602 2.50082314
v -2.65285542 0.36050616 2.50141118
v -2.73866965 0.36068387 2.58132916
v -2.68294036 0.35810213 2.52398791
v -2.73594328 0.35945747 2.57512575
v -2.70067948 0.35851546 2.54103004
v -2.75651584 0.39974712 2.58132916
v -2.65154581 0.40024479 2.50570053
v -2.75271801 0.39967157 2.58132916
v -2.65154581 0.36323889 2.50234517
v -2.73543136 0.36971318 2.58132916
v -2.65154581 0.36858009 2.50565444
v -2.65154581 0.37204160 2.50734942
v -2.65154581 0.38387474 2.51125827
v -2.65154581 0.38935807 2.51078551
v -2.72652613 0.39838738 2.56708900
v -2.73774099 0.39181983 2.58132916
v -2.74419373 0.39779194 2.58132916
v -2.73470512 0.37255704 2.58132916
v -2.73716958 0.38976244 2.58132916
v -2.73657429 0.38574991 2.58132916
f 1 2 8
f 1 8 14
f 1 14 22
f 1 22 27
f 1 27 35
f 1 35 42
f 1 42 41
f 1 41 40
f 1 40 39
f 1 39 37
f 1 37 28
f 1 28 23
f 1 23 15
f 1 15 10
f 1 10 3
f 1 3 4
f 1 4 5
f 1 5 6
f 1 6 2
f 2 7 8
f 2 6 9
f 2 9 7
f 3 10 4
f 4 10 11
f 4 11 12
f 4 12 5
f 5 12 11
f 5 11 20
f 5 20 21
f 5 21 13
f 5 13 9
f 5 9 6
f 7 9 13
f 7 13 8
f 8 13 14
f 10 15 16
f 10 16 11
f 11 17 18
f 11 18 19
f 11 19 20
f 11 16 17
f 13 21 22
f 13 22 14
f 15 23 24
f 15 24 18
f 15 18 17
f 15 17 16
f 18 25 19
f 18 24 25
f 19 25 20
f 20 25 30
f 20 30 38
f 20 38 46
f 20 46 48
f 20 48 47
f 20 47 44
f 20 44 45
f 20 45 36
f 20 36 34
f 20 34 26
f 20 26 21
f 21 26 27
f 21 27 22
f 23 28 29
f 23 29 24
f 24 29 30
f 24 30 31
f 24 31 25
f 25 32 30
f 25 31 33
f 25 33 32
f 26 34 27
f 27 34 36
f 27 36 35
f 28 37 30
f 28 30 29
f 30 32 33
f 30 33 31
f 30 37 39
f 30 39 40
f 30 40 41
f 30 41 38
f 35 36 43
f 35 43 44
f 35 44 42
f 36 45 43
f 38 41 46
f 41 42 46
f 42 44 47
f 42 47 48
f 42 48 46
f 43 45 44

