# https://github.com/mikedh/trimesh
v -3.45660985 0.12942272 4.29460151
v -3.45660985 0.02506210 4.29460151
v -3.45660985 0.12942272 4.27760961
v -3.96471690 0.12942272 4.29460151
v -3.45660985 0.00767759 4.29453875
v -3.96471690 0.02506210 4.29460151
v -3.96471690 0.01153782 4.29455304
v -3.45660985 0.10664989 4.26830731
v -3.53419863 0.10664989 4.26830441
v -3.96471690 0.12942272 4.27760961
v -3.45660985 0.00101596 4.29264126
v -3.96471690 0.00767759 4.29453875
v -3.45660985 0.09454641 4.26600239
v -3.53419863 0.09454641 4.26599680
v -3.58632239 0.09454641 4.26599390
v -3.96471690 0.10396915 4.26779156
v -3.96471690 0.10664989 4.26830441
v -3.45660985 -0.00477439 4.29098879
v -3.96471690 -0.00201328 4.29177795
v -3.45660985 0.08646409 4.26577745
v -3.49948263 0.07717536 4.26551523
v -3.55160637 0.07717536 4.26551233
v -3.96471690 0.09068617 4.26588557
v -3.96471690 0.09454641 4.26599390
v -3.45660985 -0.00623536 4.28448147
v -3.96471690 -0.00477439 4.29098879
v -3.45660985 0.07717536 4.26552103
v -3.46471689 0.07717536 4.26551813
v -3.45660985 0.06907957 4.26551523
v -3.45660985 0.04243315 4.26550384
v -3.45660985 0.03435073 4.26550094
v -3.55160637 0.05980431 4.26550674
v -3.96471690 0.07717536 4.26551233
v -3.45660985 -0.00749532 4.27882047
v -3.96471690 -0.00689216 4.28151851
v -3.96471690 -0.00749532 4.27882047
v -3.45660985 0.02506210 4.26549804
v -3.96471690 0.05980431 4.26550674
v -3.45660985 -0.00548473 4.27297120
v -3.96471690 -0.00457337 4.27031023
v -3.45660985 0.00767759 4.26556370
v -3.96471690 0.02120187 4.26551233
v -3.96471690 0.02506210 4.26549804
v -3.45660985 -0.00372891 4.26788290
v -3.96471690 -0.00372891 4.26788290
v -3.96471690 0.00767759 4.26556370
f 1 2 5
f 1 5 11
f 1 11 18
f 1 18 25
f 1 25 34
f 1 34 39
f 1 39 44
f 1 44 41
f 1 41 37
f 1 37 31
f 1 31 30
f 1 30 29
f 1 29 27
f 1 27 20
f 1 20 13
f 1 13 8
f 1 8 3
f 1 3 10
f 1 10 4
f 1 4 6
f 1 6 2
f 2 6 7
f 2 7 5
f 3 8 9
f 3 9 17
f 3 17 10
f 4 10 17
f 4 17 16
f 4 16 24
f 4 24 23
f 4 23 33
f 4 33 38
f 4 38 43
f 4 43 42
f 4 42 46
f 4 46 45
f 4 45 40
f 4 40 36
f 4 36 35
f 4 35 26
f 4 26 19
f 4 19 12
f 4 12 7
f 4 7 6
f 5 7 12
f 5 12 11
f 8 13 14
f 8 14 15
f 8 15 9
f 9 15 16
f 9 16 17
f 11 12 19
f 11 19 18
f 13 20 21
f 13 21 14
f 14 21 22
f 14 22 15
f 15 22 23
f 15 23 24
f 15 24 16
f 18 19 26
f 18 26 25
f 20 27 28
f 20 28 21
f 21 28 29
f 21 29 30
f 21 30 22
f 22 30 31
f 22 31 32
f 22 32 38
f 22 38 33
f 22 33 23
f 25 26 35
f 25 35 36
f 25 36 34
f 27 29 28
f 31 37 32
f 32 37 43
f 32 43 38
f 34 36 40
f 34 40 39
f 37 41 42
f 37 42 43
f 39 40 44
f 40 45 44
f 41 44 45
f 41 45 46
f 41 46 42

