# https://github.com/mikedh/trimesh
v -1.57757857 0.38634468 1.39455357
v -1.57080178 0.38630558 1.39455357
v -1.41880517 0.37269115 1.42948638
v -1.41880517 0.36866149 1.44367678
v -1.41880517 0.36877893 1.44581496
v -1.57757857 0.39225216 1.40918396
v -1.57757857 0.39272161 1.38158009
v -1.57080178 0.39268247 1.38155259
v -1.55342452 0.38634468 1.39455357
v -1.53604715 0.38654031 1.39455357
v -1.53604715 0.39307368 1.38201319
v -1.51866999 0.39440385 1.38318885
v -1.41880517 0.38082846 1.42033554
v -1.57757857 0.44005929 1.44581496
v -1.41880517 0.76422453 1.44581496
v -1.57757857 0.39839432 1.37967566
v -1.57080178 0.40731410 1.37666434
v -1.55342452 0.39272161 1.38161447
v -1.55342452 0.40731410 1.37673994
v -1.53604715 0.40731410 1.37731057
v -1.51866999 0.40731410 1.37952440
v -1.50460335 0.39651645 1.38465329
v -1.41880517 0.39041339 1.41280719
v -1.57757857 0.46756207 1.44581496
v -1.41880517 0.76422453 1.43843102
v -1.44919201 0.76649361 1.42930079
v -1.43046251 0.76465489 1.44581496
v -1.57757857 0.40731410 1.37669867
v -1.57080178 0.47683398 1.37558489
v -1.55342452 0.42468432 1.37649242
v -1.53604715 0.42468432 1.37707683
v -1.49980048 0.40610132 1.38368388
v -1.49303922 0.39945056 1.38600770
v -1.51866999 0.42468432 1.37931127
v -1.49086314 0.41106984 1.38530642
v -1.41880517 0.39209568 1.41191343
v -1.49883692 0.70252905 1.44581496
v -1.57757857 0.68543270 1.43702162
v -1.41880517 0.76410714 1.43691158
v -1.42023498 0.76426362 1.43522029
v -1.43200126 0.76500695 1.42937639
v -1.48394653 0.76809760 1.41192027
v -1.50130816 0.76829318 1.41192027
v -1.43232769 0.76465489 1.44581496
v -1.57757857 0.42468432 1.37644432
v -1.55342452 0.47683398 1.37612114
v -1.57757857 0.47683398 1.37580491
v -1.57080178 0.66790604 1.37565366
v -1.51866999 0.47683398 1.37912563
v -1.55342452 0.66790604 1.37619680
v -1.53604715 0.66790604 1.37731746
v -1.51866999 0.66790604 1.37919440
v -1.41880517 0.40743149 1.40822832
v -1.50130816 0.47683398 1.38241885
v -1.48069795 0.47683398 1.38710086
v -1.49143833 0.72001660 1.44581496
v -1.48372884 0.73742592 1.44581496
v -1.57757857 0.69630865 1.43612781
v -1.41880517 0.76402890 1.43625157
v -1.43790771 0.76422453 1.41926987
v -1.42632804 0.76164248 1.42363560
v -1.44919201 0.76524168 1.41601103
v -1.46568328 0.76610240 1.41078588
v -1.48394653 0.76563289 1.39986121
v -1.50130816 0.76633712 1.39762677
v -1.53604715 0.76711955 1.39455357
v -1.55342452 0.76747166 1.39455357
v -1.57080178 0.76758900 1.39455357
v -1.57757857 0.76754991 1.39455357
v -1.57757857 0.76715864 1.40074813
v -1.57757857 0.76645446 1.41014648
v -1.57757857 0.76488956 1.41352908
v -1.57757857 0.76219017 1.41882299
v -1.44919201 0.76050794 1.44581496
v -1.57757857 0.66790604 1.37588057
v -1.57757857 0.67471329 1.37590118
v -1.57080178 0.68527621 1.37570865
v -1.55342452 0.68527621 1.37625179
v -1.53604715 0.68527621 1.37737934
v -1.51866999 0.68527621 1.37925628
v -1.50130816 0.66790604 1.38248762
v -1.41880517 0.47683398 1.40719015
v -1.48952654 0.66790604 1.38516205
v -1.48083796 0.66790604 1.38713525
v -1.41880517 0.49420420 1.40702517
v -1.41880517 0.63895575 1.40653703
v -1.41880517 0.63343953 1.40653703
v -1.57757857 0.73742592 1.43104020
v -1.57757857 0.72001660 1.43332274
v -1.57757857 0.71324851 1.43420966
v -1.57757857 0.70264643 1.43559156
v -1.46521704 0.75413106 1.44581496
v -1.41880517 0.75827795 1.42683945
v -1.45929506 0.76265963 1.40424071
v -1.47087472 0.76461574 1.40162127
v -1.41880517 0.75115774 1.42014990
v -1.41981533 0.75006235 1.41827297
v -1.52575768 0.76371593 1.38560893
v -1.51944713 0.76610240 1.39353605
v -1.53604715 0.76402890 1.38523081
v -1.55342452 0.76445926 1.38474955
v -1.57080178 0.76461574 1.38452265
v -1.57757857 0.76571113 1.38844150
v -1.57757857 0.75350506 1.42525130
v -1.46484400 0.75432664 1.44581496
v -1.57757857 0.68527621 1.37593556
v -1.57080178 0.70264643 1.37584618
v -1.55342452 0.70264643 1.37638932
v -1.53604715 0.70264643 1.37751682
v -1.50130816 0.68527621 1.38254950
v -1.51866999 0.70264643 1.37940064
v -1.48097778 0.68527621 1.38716958
v -1.41880517 0.65495665 1.40722453
v -1.48131974 0.70264643 1.38725212
v -1.48170831 0.72001660 1.38734149
v -1.46656917 0.72001660 1.39223664
v -1.46656917 0.73742592 1.39271101
v -1.57757857 0.74712818 1.42758883
v -1.45304665 0.75107950 1.40102309
v -1.46568328 0.75600887 1.39820429
v -1.51416248 0.76183806 1.38706648
v -1.41880517 0.74892781 1.41869924
v -1.41880517 0.74411577 1.41759235
v -1.43181464 0.73742592 1.40857894
v -1.51944713 0.75553942 1.38345698
v -1.53604715 0.75479609 1.38144945
v -1.55342452 0.75479609 1.38039755
v -1.57080178 0.75479609 1.37989563
v -1.57757857 0.76453750 1.38461202
v -1.57757857 0.70264643 1.37607304
v -1.57080178 0.72001660 1.37599744
v -1.55342452 0.72001660 1.37654741
v -1.53604715 0.72001660 1.37767496
v -1.50130816 0.70264643 1.38270075
v -1.51866999 0.72001660 1.37956562
v -1.49000832 0.70264643 1.38527203
v -1.41880517 0.67228772 1.40804957
v -1.50130816 0.72001660 1.38286573
v -1.49039689 0.72001660 1.38535457
v -1.50130816 0.73742592 1.38327139
v -1.48262527 0.73742592 1.38755463
v -1.49223101 0.74638485 1.38577395
v -1.45014003 0.73742592 1.39970995
v -1.44145145 0.73742592 1.40367696
v -1.48543868 0.75323119 1.39085469
v -1.50130816 0.74943641 1.38472889
v -1.41880517 0.73742592 1.41616917
v -1.51866999 0.73742592 1.37993690
v -1.53604715 0.73742592 1.37802558
v -1.55342452 0.73742592 1.37689119
v -1.57080178 0.73742592 1.37634117
v -1.57757857 0.75479609 1.38010193
v -1.57757857 0.75855183 1.38179322
v -1.57757857 0.72001660 1.37622429
v -1.57757857 0.73742592 1.37657496
v -1.57757857 0.74419401 1.37794309
f 1 2 3
f 1 3 4
f 1 4 5
f 1 5 6
f 1 6 14
f 1 14 24
f 1 24 38
f 1 38 58
f 1 58 91
f 1 91 90
f 1 90 89
f 1 89 88
f 1 88 118
f 1 118 104
f 1 104 73
f 1 73 72
f 1 72 71
f 1 71 70
f 1 70 69
f 1 69 103
f 1 103 129
f 1 129 153
f 1 153 152
f 1 152 156
f 1 156 155
f 1 155 154
f 1 154 130
f 1 130 106
f 1 106 76
f 1 76 75
f 1 75 47
f 1 47 45
f 1 45 28
f 1 28 16
f 1 16 7
f 1 7 8
f 1 8 2
f 2 8 9
f 2 9 3
f 3 9 10
f 3 10 11
f 3 11 12
f 3 12 13
f 3 13 23
f 3 23 36
f 3 36 53
f 3 53 82
f 3 82 85
f 3 85 87
f 3 87 86
f 3 86 113
f 3 113 137
f 3 137 147
f 3 147 123
f 3 123 122
f 3 122 96
f 3 96 93
f 3 93 59
f 3 59 39
f 3 39 25
f 3 25 15
f 3 15 5
f 3 5 4
f 5 14 6
f 5 15 27
f 5 27 44
f 5 44 74
f 5 74 105
f 5 105 92
f 5 92 57
f 5 57 56
f 5 56 37
f 5 37 24
f 5 24 14
f 7 16 8
f 8 16 17
f 8 17 18
f 8 18 9
f 9 18 10
f 10 18 11
f 11 18 19
f 11 19 20
f 11 20 12
f 12 20 21
f 12 21 22
f 12 22 13
f 13 22 23
f 15 25 26
f 15 26 27
f 16 28 17
f 17 19 18
f 17 28 29
f 17 29 19
f 19 30 20
f 19 29 30
f 20 30 31
f 20 31 21
f 21 32 33
f 21 33 22
f 21 31 34
f 21 34 35
f 21 35 32
f 22 33 23
f 23 33 36
f 24 37 38
f 25 39 40
f 25 40 26
f 26 40 41
f 26 41 42
f 26 42 43
f 26 43 44
f 26 44 27
f 28 45 29
f 29 46 30
f 29 45 47
f 29 47 48
f 29 48 46
f 30 46 31
f 31 49 34
f 31 46 50
f 31 50 51
f 31 51 52
f 31 52 49
f 32 35 33
f 33 35 53
f 33 53 36
f 34 49 54
f 34 54 35
f 35 54 55
f 35 55 53
f 37 56 38
f 38 56 57
f 38 57 58
f 39 59 40
f 40 60 41
f 40 59 61
f 40 61 60
f 41 62 42
f 41 60 62
f 42 62 63
f 42 63 64
f 42 64 65
f 42 65 66
f 42 66 67
f 42 67 43
f 43 67 68
f 43 68 69
f 43 69 70
f 43 70 71
f 43 71 44
f 44 71 72
f 44 72 73
f 44 73 74
f 46 48 50
f 47 75 48
f 48 75 76
f 48 76 77
f 48 77 78
f 48 78 50
f 49 52 81
f 49 81 54
f 50 78 51
f 51 78 79
f 51 79 80
f 51 80 52
f 52 80 110
f 52 110 81
f 53 55 82
f 54 81 83
f 54 83 84
f 54 84 55
f 55 85 82
f 55 84 86
f 55 86 87
f 55 87 85
f 57 88 89
f 57 89 90
f 57 90 91
f 57 91 58
f 57 92 88
f 59 93 61
f 60 94 95
f 60 95 62
f 60 61 94
f 61 93 96
f 61 96 97
f 61 97 94
f 62 95 63
f 63 95 64
f 64 95 98
f 64 98 65
f 65 98 99
f 65 99 66
f 66 99 100
f 66 100 101
f 66 101 67
f 67 101 102
f 67 102 68
f 68 102 69
f 69 102 103
f 73 104 74
f 74 104 105
f 76 106 77
f 77 106 130
f 77 130 107
f 77 107 108
f 77 108 78
f 78 108 109
f 78 109 79
f 79 109 80
f 80 109 111
f 80 111 110
f 81 110 83
f 83 110 84
f 84 110 112
f 84 112 86
f 86 112 114
f 86 114 115
f 86 115 116
f 86 116 117
f 86 117 113
f 88 92 105
f 88 105 118
f 94 97 119
f 94 119 120
f 94 120 95
f 95 120 121
f 95 121 98
f 96 122 97
f 97 122 123
f 97 123 124
f 97 124 119
f 98 100 99
f 98 121 125
f 98 125 126
f 98 126 127
f 98 127 100
f 100 127 101
f 101 127 128
f 101 128 102
f 102 129 103
f 102 128 129
f 104 118 105
f 107 130 154
f 107 154 131
f 107 131 108
f 108 131 132
f 108 132 133
f 108 133 109
f 109 133 111
f 110 111 134
f 110 134 112
f 111 133 135
f 111 135 138
f 111 138 134
f 112 134 136
f 112 136 114
f 113 117 137
f 114 136 138
f 114 138 139
f 114 139 115
f 115 139 140
f 115 140 141
f 115 141 117
f 115 117 116
f 117 141 142
f 117 142 119
f 117 119 143
f 117 143 137
f 119 124 144
f 119 144 143
f 119 142 120
f 120 142 145
f 120 145 121
f 121 145 146
f 121 146 125
f 123 147 124
f 124 147 137
f 124 137 144
f 125 146 148
f 125 148 126
f 126 148 149
f 126 149 150
f 126 150 127
f 127 150 151
f 127 151 128
f 128 152 153
f 128 153 129
f 128 151 152
f 131 154 151
f 131 151 150
f 131 150 132
f 132 150 133
f 133 150 149
f 133 149 135
f 134 138 136
f 135 149 148
f 135 148 138
f 137 143 144
f 138 148 140
f 138 140 139
f 140 148 142
f 140 142 141
f 142 146 145
f 142 148 146
f 151 155 156
f 151 156 152
f 151 154 155

