# https://github.com/mikedh/trimesh
v -1.79689624 0.47420651 1.80293440
v -1.79689624 0.43793219 1.80293440
v -1.79689624 0.47241067 1.81155908
v -1.34769420 0.46164429 1.83046084
v -1.34769420 0.46190584 1.82893325
v -1.34769420 0.46414628 1.80293440
v -1.79689624 0.39090889 1.83073426
v -1.34769420 0.43844649 1.80293440
v -1.79689624 0.47025737 1.81946454
v -1.34769420 0.45759060 1.84476793
v -1.74452232 0.38515520 1.84630146
v -1.76189233 0.38540805 1.84630146
v -1.79689624 0.38673315 1.84601616
v -1.34769420 0.39095249 1.83116817
v -1.39707793 0.38514650 1.84630146
v -1.79689624 0.46644778 1.82893325
v -1.34769420 0.45632650 1.84703851
v -1.79689624 0.45848850 1.84428646
v -1.74452232 0.39318423 1.85878971
v -1.76189233 0.39337603 1.85858167
v -1.79667638 0.38672440 1.84630146
v -1.79689624 0.39428263 1.85745827
v -1.34769420 0.38661110 1.84630146
v -1.37970781 0.38539060 1.84630146
v -1.39707793 0.39318423 1.85878971
v -1.39707793 0.45115691 1.85541948
v -1.37970781 0.45098256 1.85524712
v -1.37003351 0.45077331 1.85503313
v -1.34769420 0.44974467 1.85423664
v -1.79689624 0.45107846 1.85251290
v -1.77139089 0.45076461 1.85502124
v -1.76189233 0.45096511 1.85522928
v -1.74452232 0.45114821 1.85541354
v -1.62293212 0.40730690 1.86343788
v -1.74452232 0.40730690 1.86324173
v -1.76189233 0.40730690 1.86278404
v -1.77930636 0.39384678 1.85810616
v -1.79667638 0.39437853 1.85762469
v -1.79689624 0.40713255 1.86074526
v -1.34769420 0.39428263 1.85771980
v -1.36233790 0.39382933 1.85812399
v -1.37970781 0.39336728 1.85858761
v -1.39707793 0.40730690 1.86324173
v -1.51871204 0.40730690 1.86343788
v -1.51871204 0.44204693 1.85938410
v -1.39707793 0.44204693 1.85936627
v -1.62293212 0.44204693 1.85938410
v -1.37970781 0.44204693 1.85897991
v -1.36348124 0.44352023 1.85761875
v -1.34769420 0.44130593 1.85773763
v -1.34769420 0.44869852 1.85468243
v -1.79689624 0.44942212 1.85418910
v -1.79667638 0.44957032 1.85414749
v -1.79667638 0.44088748 1.85774357
v -1.77803108 0.44350278 1.85760092
v -1.76189233 0.44204693 1.85896209
v -1.74452232 0.44204693 1.85936627
v -1.62293212 0.42468127 1.86365185
v -1.74452232 0.42468127 1.86339033
v -1.64030213 0.42468127 1.86361620
v -1.77930636 0.40730690 1.86179735
v -1.76189233 0.42468127 1.86291482
v -1.79689624 0.42442847 1.86089980
v -1.79667638 0.40730690 1.86079876
v -1.34769420 0.40730690 1.86099491
v -1.36233790 0.40730690 1.86183302
v -1.37970781 0.40730690 1.86280188
v -1.39707793 0.42468127 1.86339033
v -1.50134192 0.42468127 1.86361620
v -1.51871204 0.42468127 1.86364592
v -1.34769420 0.43833319 1.85842713
v -1.37970781 0.42468127 1.86293264
v -1.79689624 0.44086133 1.85773169
v -1.77930636 0.42468127 1.86191623
v -1.79667638 0.42468127 1.86091764
v -1.34769420 0.42191777 1.86109002
v -1.36233790 0.42468127 1.86195189
v -1.34769420 0.42468127 1.86110785
f 1 2 7
f 1 7 13
f 1 13 22
f 1 22 39
f 1 39 63
f 1 63 73
f 1 73 52
f 1 52 30
f 1 30 18
f 1 18 16
f 1 16 9
f 1 9 3
f 1 3 4
f 1 4 5
f 1 5 6
f 1 6 8
f 1 8 2
f 2 8 7
f 3 9 4
f 4 10 17
f 4 17 29
f 4 29 51
f 4 51 50
f 4 50 71
f 4 71 78
f 4 78 76
f 4 76 65
f 4 65 40
f 4 40 23
f 4 23 14
f 4 14 8
f 4 8 6
f 4 6 5
f 4 9 10
f 7 11 12
f 7 12 13
f 7 8 14
f 7 14 15
f 7 15 11
f 9 16 10
f 10 16 18
f 10 18 17
f 11 15 19
f 11 19 12
f 12 19 20
f 12 20 21
f 12 21 13
f 13 21 22
f 14 23 24
f 14 24 15
f 15 24 25
f 15 25 19
f 17 26 27
f 17 27 28
f 17 28 29
f 17 18 26
f 18 30 31
f 18 31 32
f 18 32 33
f 18 33 26
f 19 34 35
f 19 35 20
f 19 25 44
f 19 44 34
f 20 35 36
f 20 36 37
f 20 37 21
f 21 37 38
f 21 38 22
f 22 38 39
f 23 40 41
f 23 41 42
f 23 42 24
f 24 42 25
f 25 42 43
f 25 43 44
f 26 45 46
f 26 46 27
f 26 33 47
f 26 47 45
f 27 48 28
f 27 46 48
f 28 48 49
f 28 49 50
f 28 50 51
f 28 51 29
f 30 52 53
f 30 53 31
f 31 53 54
f 31 54 55
f 31 55 56
f 31 56 32
f 32 56 57
f 32 57 33
f 33 57 47
f 34 58 35
f 34 44 58
f 35 59 36
f 35 58 60
f 35 60 59
f 36 61 38
f 36 38 37
f 36 59 62
f 36 62 61
f 38 61 39
f 39 61 64
f 39 64 63
f 40 65 66
f 40 66 67
f 40 67 41
f 41 67 42
f 42 67 43
f 43 67 68
f 43 68 69
f 43 69 70
f 43 70 44
f 44 70 58
f 45 70 46
f 45 47 58
f 45 58 70
f 46 68 48
f 46 70 69
f 46 69 68
f 47 57 58
f 48 71 50
f 48 50 49
f 48 68 72
f 48 72 71
f 52 73 54
f 52 54 53
f 54 74 62
f 54 62 56
f 54 56 55
f 54 73 75
f 54 75 74
f 56 62 59
f 56 59 57
f 57 59 60
f 57 60 58
f 61 62 74
f 61 74 75
f 61 75 64
f 63 64 75
f 63 75 73
f 65 76 77
f 65 77 66
f 66 77 72
f 66 72 67
f 67 72 68
f 71 72 77
f 71 77 78
f 76 78 77

