# https://github.com/mikedh/trimesh
v 0.19169315 1.26529625 -0.30821033
v 0.19066476 1.26529625 -0.29132240
v 0.19106866 0.92699044 -0.29132240
v 0.19169315 0.92692418 -0.30657713
v 0.19172981 0.92692418 -0.30821033
v 0.18864465 1.26529625 -0.31334460
v 0.17211692 1.26529625 -0.29132240
v 0.18420053 0.92692418 -0.29132240
v 0.18442091 0.92692418 -0.32043954
v 0.18364957 1.26529625 -0.32170758
v 0.17031719 1.26503129 -0.29132240
v -0.18348602 1.26529625 -0.30800714
v 0.16873784 0.92692418 -0.29132240
v 0.18364957 0.92692418 -0.32170758
v 0.16668107 1.26529625 -0.32652143
v -0.18348602 0.92692418 -0.30718360
v -0.18348602 1.26529625 -0.32652143
v 0.16668107 0.92692418 -0.32652143
v -0.18348602 0.92692418 -0.32652143
f 1 2 3
f 1 3 4
f 1 4 5
f 1 5 6
f 1 6 10
f 1 10 15
f 1 15 17
f 1 17 12
f 1 12 7
f 1 7 2
f 2 7 11
f 2 11 13
f 2 13 8
f 2 8 3
f 3 8 4
f 4 8 13
f 4 13 16
f 4 16 19
f 4 19 18
f 4 18 14
f 4 14 9
f 4 9 5
f 5 9 10
f 5 10 6
f 7 12 11
f 9 14 10
f 10 14 18
f 10 18 15
f 11 12 16
f 11 16 13
f 12 17 19
f 12 19 16
f 15 18 19
f 15 19 17

