# https://github.com/mikedh/trimesh
v -3.81085247 0.85127419 3.16531076
v -3.81085247 0.85136395 3.14408672
v -3.87178376 0.85895031 2.98628196
v -3.81681676 0.84665056 3.16531076
v -3.81085247 0.40166035 3.16531076
v -3.81085247 0.85163330 3.07494636
v -3.86250331 0.77217879 3.16531076
v -3.85670603 0.78465806 3.16531076
v -3.85297235 0.79260352 3.16531076
v -3.84606568 0.80692327 3.16531076
v -3.84056661 0.81751724 3.16531076
v -3.84004770 0.81850480 3.16531076
v -3.83397607 0.82716847 3.16531076
v -3.82603160 0.83704420 3.16531076
v -3.82529205 0.83794200 3.16531076
v -3.82456441 0.83870510 3.16531076
v -3.81085247 0.85194754 2.98850775
v -3.81085247 0.85194754 2.98628196
v -3.87178376 0.40534132 2.98628196
v -3.87178376 0.75211312 3.16531076
v -3.81220041 0.40148082 3.16531076
v -3.81220041 0.40143588 3.01045041
v -3.81163381 0.40152567 2.98628196
v -3.81085247 0.40166035 2.98628196
v -3.86723302 0.40435373 2.98628196
v -3.86580156 0.40403947 3.16531076
v -3.87178376 0.40534132 3.16531076
v -3.81368551 0.40139103 3.16531076
v -3.82957441 0.40040345 3.13204631
v -3.82957441 0.40035856 2.99306455
v -3.81220041 0.40143588 2.98628196
v -3.86432241 0.40372526 2.98628196
v -3.86432241 0.40372526 3.16531076
v -3.82957441 0.40044835 3.16531076
v -3.84694245 0.40094214 3.16531076
v -3.83635581 0.40058303 2.98628196
v -3.82957441 0.40040345 2.98628196
v -3.81898181 0.40103188 2.98628196
v -3.85372386 0.40201946 2.98628196
v -3.84842756 0.40116661 3.16531076
v -3.84694245 0.40094214 2.98628196
f 1 2 3
f 1 3 4
f 1 4 16
f 1 16 15
f 1 15 14
f 1 14 13
f 1 13 12
f 1 12 11
f 1 11 10
f 1 10 9
f 1 9 8
f 1 8 7
f 1 7 20
f 1 20 27
f 1 27 26
f 1 26 33
f 1 33 40
f 1 40 35
f 1 35 34
f 1 34 28
f 1 28 21
f 1 21 5
f 1 5 24
f 1 24 18
f 1 18 17
f 1 17 6
f 1 6 2
f 2 6 3
f 3 7 8
f 3 8 9
f 3 9 10
f 3 10 11
f 3 11 12
f 3 12 13
f 3 13 14
f 3 14 15
f 3 15 16
f 3 16 4
f 3 6 17
f 3 17 18
f 3 18 24
f 3 24 23
f 3 23 31
f 3 31 38
f 3 38 37
f 3 37 36
f 3 36 41
f 3 41 39
f 3 39 32
f 3 32 25
f 3 25 19
f 3 19 27
f 3 27 20
f 3 20 7
f 5 21 22
f 5 22 23
f 5 23 24
f 19 25 26
f 19 26 27
f 21 28 29
f 21 29 30
f 21 30 22
f 22 30 31
f 22 31 23
f 25 32 26
f 26 32 33
f 28 34 29
f 29 34 35
f 29 35 30
f 30 36 37
f 30 37 38
f 30 38 31
f 30 35 36
f 32 39 40
f 32 40 33
f 35 40 41
f 35 41 36
f 39 41 40

