# https://github.com/mikedh/trimesh
v -6.75885548 0.59859433 0.59531239
v -6.75760568 0.59859433 0.60432782
v -6.75760568 0.65063846 0.60433300
v -6.75885548 0.65063846 0.59531239
v -6.75840892 0.23295079 0.58585703
v -6.75858746 0.23295079 0.59530721
v -6.75742713 0.23295079 0.60409490
v -6.74207112 0.59837193 0.63795205
v -6.75742713 2.47463008 0.60408973
v -6.75863220 2.47463008 0.59530721
v -6.75840892 2.49197803 0.58587256
v -6.75840892 2.47463008 0.58585703
v -6.75796276 0.23295079 0.58581042
v -6.74171403 0.23295079 0.63795205
v -6.74046402 0.65063846 0.63795205
v -6.75733765 2.50087457 0.60404323
v -6.75738239 2.49197803 0.60407937
v -6.75854313 2.49197803 0.59530721
v -6.75800750 2.50131927 0.58612609
v -6.74854385 2.49197803 0.58511696
v -6.74854385 2.47463008 0.58508071
v -6.74854385 0.23295079 0.58508071
v -6.34759224 0.23295079 0.63795205
v -6.67171927 2.49197803 0.63795205
v -6.67104962 2.50154173 0.63795205
v -6.66167545 2.50198664 0.63795205
v -6.74854385 2.50198664 0.59530721
v -6.75787328 2.50131927 0.59530721
v -6.74854385 2.50176418 0.58588292
v -6.54668412 2.47485253 0.58508071
v -6.54668412 2.50198664 0.58588292
v -6.30281896 2.49197803 0.58511696
v -6.31344315 0.23295079 0.58508071
v -6.30281896 0.23295079 0.60420365
v -6.30281896 0.45335997 0.60420882
v -6.34759224 0.63329040 0.63795205
v -6.37995589 2.50465547 0.63795205
v -6.66167545 2.50332116 0.61266532
v -6.66167545 2.50376586 0.59530721
v -6.38379500 2.50443302 0.59530721
v -6.30281896 2.47485253 0.58508071
v -6.30281896 2.50198664 0.58588292
v -6.30281896 0.23317325 0.58508071
v -6.30281896 0.23295079 0.59794146
v -6.30281896 0.66198142 0.60420882
v -6.30281896 2.47485253 0.60419847
v -6.30281896 2.48619545 0.60418293
v -6.30281896 2.49197803 0.60417258
v -6.36763533 2.49197803 0.63795205
v -6.37142970 2.50465547 0.63795205
v -6.37995589 2.50465547 0.63003896
v -6.37138517 2.50465547 0.63003896
v -6.36638553 2.50421077 0.59530721
v -6.30281896 2.50198664 0.59530721
v -6.30281896 2.49798328 0.60410008
v -6.30281896 2.50087457 0.60406384
f 1 2 3
f 1 3 4
f 1 4 12
f 1 12 5
f 1 5 6
f 1 6 7
f 1 7 2
f 2 8 3
f 2 7 8
f 3 8 9
f 3 9 4
f 4 9 10
f 4 10 11
f 4 11 12
f 5 13 22
f 5 22 33
f 5 33 44
f 5 44 34
f 5 34 23
f 5 23 14
f 5 14 7
f 5 7 6
f 5 12 13
f 7 14 8
f 8 14 23
f 8 23 36
f 8 36 49
f 8 49 50
f 8 50 37
f 8 37 26
f 8 26 25
f 8 25 24
f 8 24 15
f 8 15 16
f 8 16 17
f 8 17 9
f 9 17 10
f 10 17 18
f 10 18 11
f 11 18 19
f 11 19 20
f 11 20 21
f 11 21 12
f 12 21 13
f 13 21 22
f 15 24 16
f 16 25 26
f 16 26 27
f 16 27 28
f 16 28 18
f 16 18 17
f 16 24 25
f 18 28 19
f 19 28 27
f 19 27 29
f 19 29 20
f 20 30 21
f 20 29 31
f 20 31 42
f 20 42 32
f 20 32 41
f 20 41 30
f 21 30 41
f 21 41 43
f 21 43 33
f 21 33 22
f 23 34 35
f 23 35 45
f 23 45 36
f 26 37 38
f 26 38 27
f 27 38 39
f 27 39 29
f 29 39 40
f 29 40 31
f 31 40 42
f 32 42 54
f 32 54 56
f 32 56 55
f 32 55 48
f 32 48 47
f 32 47 46
f 32 46 45
f 32 45 35
f 32 35 34
f 32 34 44
f 32 44 43
f 32 43 41
f 33 43 44
f 36 45 46
f 36 46 47
f 36 47 48
f 36 48 49
f 37 50 52
f 37 52 51
f 37 51 39
f 37 39 38
f 39 51 40
f 40 51 52
f 40 52 53
f 40 53 42
f 42 53 52
f 42 52 54
f 48 55 49
f 49 55 56
f 49 56 50
f 50 54 52
f 50 56 54

