# https://github.com/mikedh/trimesh
v -5.19494591 0.75823311 0.72423293
v -5.14745843 0.66943045 0.72423293
v -5.19494591 0.83818449 0.72423293
v -5.19494591 0.79581461 0.70625252
v -5.11540961 0.34406263 0.66480104
v -5.11432468 0.34406263 0.67043315
v -5.11226334 0.34406263 0.67955100
v -5.10816222 0.39286536 0.69148133
v -5.13433090 0.66943045 0.72423293
v -5.18788307 0.83808776 0.72423293
v -5.18482359 0.83654000 0.72259642
v -5.19494591 0.83654000 0.72253273
v -5.19494591 0.80200565 0.70459467
v -5.11214404 0.34406263 0.65739769
v -5.09796389 0.34406263 0.68429763
v -5.10496169 0.39286536 0.69148133
v -5.13049014 0.68524659 0.72423293
v -5.10356213 0.40732725 0.69227473
v -5.18482359 0.83803940 0.72423293
v -5.16744291 0.83562103 0.72351037
v -5.18482359 0.82759202 0.71390380
v -5.19494591 0.82768875 0.71384705
v -5.19494591 0.80689075 0.70345412
v -5.10978962 0.34406263 0.65345875
v -5.08567171 0.34406263 0.67823326
v -5.09796389 0.35518713 0.68525405
v -5.12912310 0.69458152 0.72423293
v -5.10271601 0.42469116 0.69323829
v -5.16744291 0.83624979 0.72423293
v -5.15827524 0.83475040 0.72423293
v -5.17105583 0.81762834 0.70649341
v -5.18482359 0.81883752 0.70550158
v -5.19494591 0.81898262 0.70542359
v -5.19494591 0.82406120 0.71033313
v -5.19494591 0.81400076 0.70445299
v -5.18482359 0.80689075 0.70315658
v -5.14144801 0.71151014 0.69083654
v -5.10777179 0.38662596 0.65552029
v -5.10885672 0.37259940 0.65474097
v -5.10963780 0.35518713 0.65384131
v -5.10217355 0.34406263 0.65200637
v -5.10223859 0.44205506 0.69419470
v -5.08412032 0.34406263 0.66424128
v -5.08602962 0.35518713 0.67831114
v -5.11436817 0.80635874 0.72423293
v -5.11594131 0.78952685 0.72423293
v -5.12794061 0.70265891 0.72423293
v -5.15007321 0.83281572 0.72423293
v -5.15947948 0.81511319 0.70851248
v -5.15007321 0.80239257 0.70609665
v -5.16614111 0.80834178 0.70444595
v -5.13565445 0.82705999 0.72423293
v -5.13282281 0.82589917 0.72423293
v -5.15007321 0.78952685 0.70216475
v -5.14132870 0.71151014 0.69083654
v -5.10437593 0.38662596 0.65552029
v -5.09739968 0.34406263 0.65186470
v -5.08742918 0.38996330 0.67737606
v -5.08662636 0.37259940 0.67817661
v -5.08537883 0.34406263 0.66058569
v -5.08752695 0.34406263 0.65438678
v -5.08825376 0.35223670 0.65509526
v -5.08932792 0.36384495 0.65615078
v -5.12315597 0.66420680 0.68995107
v -5.12452301 0.67581495 0.69125463
v -5.13654406 0.77211458 0.70343289
v -5.13911534 0.78952685 0.70592660
v -5.14114415 0.79852322 0.70796691
v -5.12522828 0.82207813 0.72423293
v -5.09626068 0.35692834 0.65368545
f 1 2 9
f 1 9 17
f 1 17 27
f 1 27 47
f 1 47 46
f 1 46 45
f 1 45 69
f 1 69 53
f 1 53 52
f 1 52 48
f 1 48 30
f 1 30 29
f 1 29 19
f 1 19 10
f 1 10 3
f 1 3 12
f 1 12 22
f 1 22 34
f 1 34 33
f 1 33 35
f 1 35 23
f 1 23 13
f 1 13 4
f 1 4 5
f 1 5 6
f 1 6 7
f 1 7 8
f 1 8 2
f 2 8 16
f 2 16 9
f 3 10 11
f 3 11 12
f 4 13 14
f 4 14 5
f 5 14 24
f 5 24 41
f 5 41 57
f 5 57 61
f 5 61 60
f 5 60 43
f 5 43 25
f 5 25 15
f 5 15 7
f 5 7 6
f 7 15 8
f 8 15 16
f 9 16 18
f 9 18 17
f 10 19 11
f 11 19 20
f 11 20 21
f 11 21 22
f 11 22 12
f 13 23 14
f 14 23 24
f 15 25 26
f 15 26 18
f 15 18 16
f 17 18 28
f 17 28 27
f 18 26 25
f 18 25 28
f 19 29 20
f 20 29 30
f 20 30 31
f 20 31 32
f 20 32 21
f 21 33 34
f 21 34 22
f 21 32 33
f 23 35 36
f 23 36 37
f 23 37 38
f 23 38 39
f 23 39 40
f 23 40 24
f 24 40 41
f 25 42 28
f 25 43 44
f 25 44 45
f 25 45 46
f 25 46 42
f 27 28 47
f 28 42 47
f 30 48 31
f 31 49 50
f 31 50 51
f 31 51 32
f 31 48 52
f 31 52 53
f 31 53 49
f 32 51 36
f 32 36 33
f 33 36 35
f 36 51 54
f 36 54 55
f 36 55 37
f 37 55 56
f 37 56 38
f 38 56 57
f 38 57 41
f 38 41 39
f 39 41 40
f 42 46 47
f 43 58 59
f 43 59 44
f 43 60 45
f 43 45 58
f 44 59 45
f 45 60 61
f 45 61 62
f 45 62 63
f 45 63 64
f 45 64 65
f 45 65 66
f 45 66 67
f 45 67 68
f 45 68 69
f 45 59 58
f 49 53 69
f 49 69 50
f 50 68 54
f 50 54 51
f 50 69 68
f 54 68 67
f 54 67 66
f 54 66 55
f 55 66 65
f 55 65 64
f 55 64 63
f 55 63 56
f 56 63 70
f 56 70 57
f 57 62 61
f 57 70 63
f 57 63 62

