# https://github.com/mikedh/trimesh
v -6.40280287 0.70267916 3.84446646
v -6.40395802 0.68540929 3.84435896
v -6.40672214 0.68540929 3.83134142
v -6.40587644 0.70267916 3.83053631
v -6.40721717 0.71400489 3.83230767
v -6.40633025 0.71505564 3.84446646
v -6.40717595 0.71442924 3.86183223
v -6.40800094 0.71363107 3.87919800
v -6.40884664 0.71264768 3.89659048
v -6.40944483 0.71185967 3.90872235
v -6.41303414 0.68540929 4.03621444
v -6.41295170 0.68540929 4.03460402
v -6.42351292 0.68540929 3.81086211
v -6.42483315 0.69687312 3.81614966
v -6.43584818 0.69939557 3.81467346
v -6.41847972 0.71545644 3.83008001
v -6.41847972 0.71927882 3.84446646
v -6.42355414 0.71514994 4.01817778
v -6.42433791 0.71455724 4.03554355
v -6.42518382 0.71378937 4.05293604
v -6.42613267 0.71269486 4.06732249
v -6.42064566 0.70267916 4.05293604
v -6.41887161 0.70267916 4.03554355
v -6.41478747 0.68540929 4.05145984
v -6.43537366 0.68540929 3.80613836
v -6.46206575 0.71130736 3.81843117
v -6.43584818 0.70807768 3.82039059
v -6.50534212 0.71817421 3.82707377
v -6.52271058 0.71890837 3.82707377
v -6.47365825 0.71214592 3.81781393
v -6.48797386 0.71303838 3.81708919
v -6.50534212 0.71395103 3.81625716
v -6.52271058 0.71468520 3.81542513
v -6.54007883 0.71524087 3.81464674
v -6.54007883 0.71946404 3.82707377
v -6.43584818 0.71981429 3.84446646
v -6.43584818 0.71981429 3.98341932
v -6.43584818 0.71972000 4.00081202
v -6.43584818 0.71937311 4.01817778
v -6.43584818 0.71878042 4.03554355
v -6.43584818 0.71801254 4.05293604
v -6.43415678 0.71461783 4.07199279
v -6.42724639 0.70732663 4.07891768
v -6.42272915 0.68540929 4.07153649
v -6.43700333 0.68540929 3.80597722
v -6.55744729 0.71553048 3.81397565
v -6.55744729 0.71975366 3.82707377
v -6.57483626 0.71981429 3.82707377
v -6.45321644 0.71981429 4.05293604
v -6.45321644 0.71697188 4.07030181
v -6.43883910 0.71264095 4.07993758
v -6.43415678 0.70199549 4.07980336
v -6.42716395 0.69574832 4.07899805
v -6.42716395 0.69391959 4.07899805
v -6.42947425 0.68540929 4.07838081
v -6.54018198 0.68540929 3.80688982
v -6.57483626 0.70267916 3.80884925
v -6.57483626 0.71558775 3.81338513
v -6.58805844 0.71418001 3.81486133
v -6.59096692 0.71558775 3.82707377
v -6.59220451 0.71788122 3.87919800
v -6.59220451 0.71867597 3.89659048
v -6.59220451 0.71929565 3.91395625
v -6.59220451 0.71968634 3.93132202
v -6.59220451 0.71981429 3.94868779
v -6.54007883 0.71981429 4.05293604
v -6.45321644 0.71274876 4.07999123
v -6.55744729 0.71973683 4.05293604
v -6.57483626 0.71942028 4.05293604
v -6.55744729 0.71551365 4.06598051
v -6.43772517 0.68540929 4.08017909
v -6.43601306 0.68540929 4.08015216
v -6.55755044 0.68540929 3.80705076
v -6.57491869 0.68540929 3.80723863
v -6.59360718 0.68540929 3.81064753
v -6.59107007 0.70267916 3.81343878
v -6.59719649 0.68540929 3.81247253
v -6.60062072 0.69375125 3.82073940
v -6.59973359 0.70269262 3.82675168
v -6.60049686 0.70849525 3.83791730
v -6.60126012 0.71188323 3.84951250
v -6.60185830 0.71267803 3.86183223
v -6.60270401 0.71365805 3.87919800
v -6.60352920 0.71445280 3.89659048
v -6.60435419 0.71507247 3.91395625
v -6.60509674 0.71546317 3.93132202
v -6.60957297 0.71670583 4.03554355
v -6.59220451 0.71981429 4.03554355
v -6.46592308 0.71193372 4.07937378
v -6.45286577 0.70295868 4.08004487
v -6.57483626 0.71519711 4.06528269
v -6.59220451 0.71462119 4.06447738
v -6.59220451 0.71884437 4.05293604
v -6.44991607 0.68540929 4.07966914
v -6.60530304 0.68540929 3.82288669
v -6.60662327 0.68540929 3.82677861
v -6.61353345 0.71387693 4.02037851
v -6.61353345 0.71418338 4.02378741
v -6.61353345 0.71495125 4.03554355
v -6.61353345 0.71504218 4.04265610
v -6.61353345 0.71475593 4.05293604
v -6.60957297 0.71621753 4.05293604
v -6.46592308 0.70893643 4.07937378
v -6.60957297 0.71327072 4.06316233
v -6.59220451 0.70267916 4.06611473
v -6.52271058 0.68540929 4.07295904
v -6.61353345 0.69371754 3.99179348
v -6.61353345 0.70267916 3.99302817
v -6.61353345 0.68540929 3.99184713
v -6.61353345 0.71437875 4.05688161
v -6.61353345 0.71270496 4.06270603
v -6.61353345 0.70601997 4.06275968
v -6.60670571 0.68540929 4.06313541
v -6.59220451 0.68540929 4.06547056
v -6.61353345 0.68540929 4.05653260
f 1 2 3
f 1 3 4
f 1 4 5
f 1 5 6
f 1 6 7
f 1 7 8
f 1 8 9
f 1 9 10
f 1 10 11
f 1 11 12
f 1 12 2
f 2 12 11
f 2 11 24
f 2 24 44
f 2 44 55
f 2 55 72
f 2 72 71
f 2 71 94
f 2 94 106
f 2 106 114
f 2 114 113
f 2 113 115
f 2 115 109
f 2 109 96
f 2 96 95
f 2 95 77
f 2 77 75
f 2 75 74
f 2 74 73
f 2 73 56
f 2 56 45
f 2 45 25
f 2 25 13
f 2 13 3
f 3 13 4
f 4 13 5
f 5 13 14
f 5 14 15
f 5 15 16
f 5 16 17
f 5 17 6
f 6 17 18
f 6 18 19
f 6 19 7
f 7 19 20
f 7 20 8
f 8 20 9
f 9 20 10
f 10 20 21
f 10 21 22
f 10 22 23
f 10 23 11
f 11 23 22
f 11 22 24
f 13 25 14
f 14 25 15
f 15 26 27
f 15 27 16
f 15 25 26
f 16 28 29
f 16 29 17
f 16 27 26
f 16 26 30
f 16 30 31
f 16 31 32
f 16 32 33
f 16 33 34
f 16 34 28
f 17 29 35
f 17 35 36
f 17 36 37
f 17 37 38
f 17 38 39
f 17 39 18
f 18 39 40
f 18 40 41
f 18 41 19
f 19 41 20
f 20 41 21
f 21 41 42
f 21 42 43
f 21 43 24
f 21 24 22
f 24 43 44
f 25 45 26
f 26 45 30
f 28 34 29
f 29 34 35
f 30 45 31
f 31 45 32
f 32 45 33
f 33 45 34
f 34 45 46
f 34 46 35
f 35 47 36
f 35 46 47
f 36 47 48
f 36 48 65
f 36 65 88
f 36 88 66
f 36 66 49
f 36 49 37
f 37 49 38
f 38 49 39
f 39 49 40
f 40 49 41
f 41 49 50
f 41 50 42
f 42 50 51
f 42 51 43
f 43 51 52
f 43 52 53
f 43 53 44
f 44 53 54
f 44 54 55
f 45 56 57
f 45 57 58
f 45 58 46
f 46 58 47
f 47 58 48
f 48 58 59
f 48 59 60
f 48 60 61
f 48 61 62
f 48 62 63
f 48 63 64
f 48 64 65
f 49 66 50
f 50 67 51
f 50 66 68
f 50 68 69
f 50 69 70
f 50 70 67
f 51 67 71
f 51 71 72
f 51 72 52
f 52 72 53
f 53 72 54
f 54 72 55
f 56 73 57
f 57 73 74
f 57 74 75
f 57 75 59
f 57 59 58
f 59 75 76
f 59 76 77
f 59 77 78
f 59 78 79
f 59 79 80
f 59 80 60
f 60 80 81
f 60 81 82
f 60 82 83
f 60 83 84
f 60 84 85
f 60 85 61
f 61 85 62
f 62 85 86
f 62 86 63
f 63 86 87
f 63 87 64
f 64 87 65
f 65 87 88
f 66 88 68
f 67 89 90
f 67 90 71
f 67 70 91
f 67 91 92
f 67 92 89
f 68 88 69
f 69 93 91
f 69 91 70
f 69 88 93
f 71 90 94
f 75 77 76
f 77 95 78
f 78 95 79
f 79 96 80
f 79 95 96
f 80 96 81
f 81 96 97
f 81 97 82
f 82 97 83
f 83 97 84
f 84 97 85
f 85 97 98
f 85 98 99
f 85 99 86
f 86 99 87
f 87 99 100
f 87 100 101
f 87 101 102
f 87 102 88
f 88 102 93
f 89 103 90
f 89 92 104
f 89 104 105
f 89 105 103
f 90 103 94
f 91 93 92
f 92 93 104
f 93 102 104
f 94 103 106
f 96 107 108
f 96 108 97
f 96 109 107
f 97 108 107
f 97 107 109
f 97 109 115
f 97 115 112
f 97 112 111
f 97 111 110
f 97 110 101
f 97 101 100
f 97 100 99
f 97 99 98
f 101 110 102
f 102 110 111
f 102 111 104
f 103 105 106
f 104 111 105
f 105 111 112
f 105 112 113
f 105 113 114
f 105 114 106
f 112 115 113

