# https://github.com/mikedh/trimesh
v -2.73652453 0.39183770 1.44581464
v -2.74487218 0.36896907 1.53605031
v -2.74520850 0.37255600 1.53605031
v -2.74487218 0.37762772 1.53605031
v -2.74439175 0.38481178 1.53605031
v -2.74364707 0.38811298 1.53605031
v -2.74204960 0.39386843 1.53605031
v -2.72737209 0.40770593 1.44581464
v -2.73031480 0.37109161 1.44581464
v -2.74210967 0.36105028 1.53605031
v -2.73300528 0.39982282 1.53605031
v -2.70638884 0.40770593 1.47124419
v -2.68201844 0.40770593 1.44581464
v -2.72715590 0.36226975 1.45083168
v -2.71925264 0.35768270 1.44581464
v -2.73620022 0.35779496 1.53605031
v -2.72848913 0.36046857 1.46405433
v -2.73023076 0.35892257 1.48142839
v -2.73197234 0.35812658 1.49879364
v -2.65263944 0.40770593 1.53605031
v -2.65865695 0.40770593 1.47436218
v -2.65846479 0.40730286 1.47455652
v -2.68200643 0.40730286 1.44581464
v -2.70005903 0.35576936 1.44581464
v -2.71755912 0.35558057 1.46405433
v -2.73366591 0.35788175 1.51617654
v -2.71755912 0.35562644 1.48142839
v -2.72087414 0.35827975 1.53605031
v -2.62250375 0.40770593 1.53605031
v -2.65195483 0.40770593 1.48304481
v -2.65360030 0.39474603 1.48574762
v -2.68736336 0.38704663 1.44581464
v -2.68671474 0.38930184 1.44581464
v -2.65179866 0.40730286 1.48324795
v -2.72063392 0.35816231 1.53355065
v -2.69243203 0.37255600 1.44581464
v -2.63834630 0.39694002 1.50584223
v -2.63581199 0.39429703 1.51617654
v -2.62787270 0.39402149 1.53605031
v -2.62912183 0.39297043 1.53605031
v -2.63023887 0.39226117 1.53605031
v -2.64557696 0.38605165 1.53605031
v -2.62251576 0.40730286 1.53605031
v -2.62497804 0.40730286 1.53070648
v -2.62513416 0.40770593 1.53037083
v -2.64331886 0.40770593 1.49572867
v -2.64311468 0.40730286 1.49602900
v -2.63764968 0.40730286 1.50471163
v -2.63193239 0.40730286 1.51617654
v -2.62309230 0.40210868 1.53605031
v -2.63206454 0.40770593 1.51590272
v -2.63776976 0.40770593 1.50450844
f 1 2 3
f 1 3 4
f 1 4 5
f 1 5 6
f 1 6 7
f 1 7 8
f 1 8 13
f 1 13 23
f 1 23 33
f 1 33 32
f 1 32 36
f 1 36 24
f 1 24 15
f 1 15 9
f 1 9 2
f 2 10 16
f 2 16 28
f 2 28 42
f 2 42 41
f 2 41 40
f 2 40 39
f 2 39 50
f 2 50 43
f 2 43 29
f 2 29 20
f 2 20 11
f 2 11 7
f 2 7 6
f 2 6 5
f 2 5 4
f 2 4 3
f 2 9 10
f 7 11 8
f 8 11 12
f 8 12 20
f 8 20 29
f 8 29 45
f 8 45 51
f 8 51 52
f 8 52 46
f 8 46 30
f 8 30 21
f 8 21 13
f 9 14 10
f 9 15 14
f 10 14 17
f 10 17 18
f 10 18 19
f 10 19 16
f 11 20 12
f 13 21 22
f 13 22 23
f 14 15 17
f 15 24 25
f 15 25 19
f 15 19 18
f 15 18 17
f 16 19 26
f 16 26 25
f 16 25 27
f 16 27 28
f 19 25 26
f 21 30 22
f 22 31 32
f 22 32 33
f 22 33 23
f 22 30 34
f 22 34 31
f 24 28 35
f 24 35 27
f 24 27 25
f 24 36 31
f 24 31 37
f 24 37 38
f 24 38 39
f 24 39 40
f 24 40 41
f 24 41 42
f 24 42 28
f 27 35 28
f 29 43 44
f 29 44 45
f 30 46 34
f 31 36 32
f 31 34 37
f 34 46 47
f 34 47 37
f 37 47 48
f 37 48 49
f 37 49 50
f 37 50 39
f 37 39 38
f 43 50 44
f 44 50 49
f 44 49 45
f 45 49 51
f 46 52 47
f 47 52 48
f 48 51 49
f 48 52 51

