# https://github.com/mikedh/trimesh
v -1.57039084 0.45898405 2.58136365
v -1.57039084 0.46028869 2.58136365
v -1.56549114 0.44129485 2.58136365
v -1.57039084 0.44131106 2.58161712
v -1.57039084 0.46652815 2.81674042
v -1.53702313 0.46863494 2.81678650
v -1.35085910 0.46863494 2.58136365
v -1.31021015 0.38637968 2.58136365
v -1.36232837 0.38586104 2.76714858
v -1.37910797 0.38876201 2.78337194
v -1.37910797 0.38847840 2.80298281
v -1.57039084 0.44005504 2.81678650
v -1.57039084 0.44079246 2.81678650
v -1.55758032 0.46677934 2.81678650
v -1.37308595 0.46863494 2.81678650
v -1.29077518 0.46863494 2.58136365
v -1.29638667 0.39245706 2.58136365
v -1.31021015 0.38620948 2.59346201
v -1.32759207 0.38586104 2.66296428
v -1.34494645 0.38714134 2.74977303
v -1.37910797 0.39060141 2.81657912
v -1.32759207 0.38585296 2.68033989
v -1.32759207 0.38597449 2.69771544
v -1.32759207 0.38699553 2.71504491
v -1.42093403 0.40715622 2.81678650
v -1.37412614 0.40715622 2.81678650
v -1.33977303 0.40731017 2.77032876
v -1.33969080 0.42468334 2.77039789
v -1.33438046 0.46863494 2.76141053
v -1.29145953 0.46863494 2.59346201
v -1.29187005 0.42468334 2.61083756
v -1.29093943 0.42468334 2.58136365
v -1.29282822 0.40278050 2.58136365
v -1.29652358 0.39240844 2.59346201
v -1.31021015 0.38607174 2.61083756
v -1.34470017 0.39223828 2.76654946
v -1.32660656 0.39191413 2.73272007
v -1.33197157 0.39402098 2.74977303
v -1.33506481 0.39671933 2.76037350
v -1.31021015 0.38634727 2.62821317
v -1.31021015 0.38703602 2.64558872
v -1.31021015 0.38887547 2.66296428
v -1.31286531 0.39224636 2.69771544
v -1.31546580 0.39389939 2.71504491
v -1.33429844 0.40715622 2.76161792
v -1.33429844 0.40731017 2.76164096
v -1.33424355 0.42468334 2.76171009
v -1.33167062 0.46863494 2.75705511
v -1.29247238 0.46863494 2.61083756
v -1.29296513 0.42468334 2.62821317
v -1.29195228 0.40731017 2.61083756
v -1.29102166 0.41940009 2.58136365
v -1.29135016 0.40715622 2.58136365
v -1.29156910 0.40715622 2.59346201
v -1.29682475 0.39248135 2.61083756
v -1.31762821 0.39646813 2.72714332
v -1.32080347 0.40731017 2.73802031
v -1.32750984 0.40731017 2.74977303
v -1.29756378 0.39299186 2.62821317
v -1.29854908 0.39395615 2.64558872
v -1.29994512 0.39590086 2.66296428
v -1.30104020 0.39772410 2.67391044
v -1.32734559 0.42468334 2.74977303
v -1.32069390 0.42468334 2.73813552
v -1.32474510 0.46863494 2.74417323
v -1.29318407 0.46863494 2.61901837
v -1.29408735 0.46863494 2.62821317
v -1.29488127 0.42468334 2.64558872
v -1.29501797 0.40715622 2.64558872
v -1.29312939 0.40731017 2.62821317
v -1.29197962 0.40715622 2.61083756
v -1.29154176 0.40731017 2.59346201
v -1.29132261 0.40731017 2.58136365
v -1.31174289 0.40715622 2.71504491
v -1.31680695 0.40715622 2.72930951
v -1.31680695 0.40731017 2.72933256
v -1.29315673 0.40715622 2.62821317
v -1.29781005 0.40715622 2.66296428
v -1.30054745 0.40715622 2.67626098
v -1.32061188 0.46863494 2.73622286
v -1.31675227 0.42468334 2.72944777
v -1.29770069 0.46863494 2.65572834
v -1.29770069 0.42468334 2.66296428
v -1.30005469 0.46863494 2.67232038
v -1.31160619 0.42468334 2.71504491
v -1.30052011 0.42468334 2.67653754
v -1.31721747 0.46863494 2.72866426
v -1.30068436 0.46863494 2.67584620
v -1.31541091 0.46863494 2.72329490
v -1.30547459 0.46863494 2.69156257
v -1.30736318 0.46863494 2.69771544
f 1 2 7
f 1 7 16
f 1 16 32
f 1 32 52
f 1 52 73
f 1 73 53
f 1 53 33
f 1 33 17
f 1 17 8
f 1 8 3
f 1 3 4
f 1 4 12
f 1 12 13
f 1 13 5
f 1 5 2
f 2 5 6
f 2 6 7
f 3 8 4
f 4 9 10
f 4 10 11
f 4 11 12
f 4 8 9
f 5 13 14
f 5 14 6
f 6 14 13
f 6 13 12
f 6 12 25
f 6 25 26
f 6 26 15
f 6 15 29
f 6 29 48
f 6 48 65
f 6 65 80
f 6 80 87
f 6 87 89
f 6 89 91
f 6 91 90
f 6 90 88
f 6 88 84
f 6 84 82
f 6 82 67
f 6 67 66
f 6 66 49
f 6 49 30
f 6 30 16
f 6 16 7
f 8 17 18
f 8 18 19
f 8 19 9
f 9 20 21
f 9 21 11
f 9 11 10
f 9 19 22
f 9 22 23
f 9 23 24
f 9 24 20
f 11 21 12
f 12 21 25
f 15 26 27
f 15 27 28
f 15 28 29
f 16 30 31
f 16 31 32
f 17 33 34
f 17 34 35
f 17 35 18
f 18 35 19
f 19 35 22
f 20 36 21
f 20 24 37
f 20 37 38
f 20 38 36
f 21 26 25
f 21 36 39
f 21 39 26
f 22 35 23
f 23 35 40
f 23 40 41
f 23 41 24
f 24 41 42
f 24 42 43
f 24 43 44
f 24 44 37
f 26 39 27
f 27 39 45
f 27 45 46
f 27 46 28
f 28 46 47
f 28 47 29
f 29 47 48
f 30 49 31
f 31 49 50
f 31 50 51
f 31 51 32
f 32 51 52
f 33 53 34
f 34 53 54
f 34 54 55
f 34 55 35
f 35 55 40
f 36 38 39
f 37 56 38
f 37 44 56
f 38 56 39
f 39 56 57
f 39 57 58
f 39 58 45
f 40 55 41
f 41 55 59
f 41 59 60
f 41 60 42
f 42 60 43
f 43 60 61
f 43 61 44
f 44 61 62
f 44 62 56
f 45 58 46
f 46 58 63
f 46 63 47
f 47 63 48
f 48 63 64
f 48 64 65
f 49 66 50
f 50 66 67
f 50 67 68
f 50 68 69
f 50 69 70
f 50 70 51
f 51 70 77
f 51 77 71
f 51 71 54
f 51 54 72
f 51 72 52
f 52 72 73
f 53 73 72
f 53 72 54
f 54 71 55
f 55 71 59
f 56 62 74
f 56 74 75
f 56 75 57
f 57 64 58
f 57 75 76
f 57 76 64
f 58 64 63
f 59 71 77
f 59 77 60
f 60 77 69
f 60 69 61
f 61 69 62
f 62 69 78
f 62 78 79
f 62 79 74
f 64 80 65
f 64 76 81
f 64 81 80
f 67 82 68
f 68 83 78
f 68 78 69
f 68 82 84
f 68 84 83
f 69 77 70
f 74 79 85
f 74 85 76
f 74 76 75
f 76 85 81
f 78 83 79
f 79 83 86
f 79 86 85
f 80 81 87
f 81 85 87
f 83 84 88
f 83 88 86
f 85 89 87
f 85 86 88
f 85 88 90
f 85 90 91
f 85 91 89

