# https://github.com/mikedh/trimesh
v -4.47119112 0.57374251 3.18615948
v -4.47119112 0.62059779 3.13230428
v -4.56752286 0.49418007 3.18615948
v -4.47119112 0.44342630 3.18615948
v -4.47119112 0.63038979 3.11468799
v -4.47254905 0.44342630 3.09820531
v -4.49010848 0.44342630 3.11880227
v -4.54086308 0.44342630 3.18615948
v -4.47119112 0.62868761 3.09731373
v -4.47119112 0.61580242 3.08905960
v -4.47119112 0.56367592 3.06220844
v -4.47119112 0.54628824 3.05603066
v -4.47119112 0.52893713 3.06103661
v -4.47119112 0.44342630 3.09671503
f 1 2 3
f 1 3 8
f 1 8 4
f 1 4 14
f 1 14 13
f 1 13 12
f 1 12 11
f 1 11 10
f 1 10 9
f 1 9 5
f 1 5 2
f 2 5 3
f 3 6 7
f 3 7 8
f 3 5 9
f 3 9 10
f 3 10 11
f 3 11 12
f 3 12 13
f 3 13 6
f 4 8 7
f 4 7 6
f 4 6 14
f 6 13 14

