# https://github.com/mikedh/trimesh
v -4.32411265 2.05960033 4.24469851
v -3.68160208 1.95001269 4.34211425
v -3.69066476 2.05725730 4.24461939
v -3.69057927 2.05725730 4.22642076
v -4.32411265 2.05960033 4.22578778
v -4.55495478 2.05960033 4.24469851
v -3.68160208 1.93631639 4.34460662
v -3.68160208 1.98655338 4.29518002
v -4.10335918 1.95001269 4.34211425
v -4.50707646 1.90012031 4.35961383
v -3.72537659 1.90869984 4.35646218
v -3.72537659 1.89999971 4.35927103
v -3.71349250 1.89791508 4.35907322
v -3.69057927 2.04044275 4.22580083
v -3.69066476 2.05725730 4.22580083
v -4.55495478 2.05960033 4.22578778
v -3.69066476 2.02318024 4.22573496
v -4.55495478 2.00212755 4.29106564
v -4.55238992 1.94954754 4.34185037
v -4.54187376 1.95001269 4.34210100
v -3.68160208 1.92813310 4.34502854
v -3.71195355 1.88421878 4.36012812
v -3.68160208 1.93488649 4.29518002
v -3.69057927 2.02305964 4.22574822
v -4.51810558 1.89776004 4.35923147
v -4.51930257 1.88421878 4.36035244
v -4.50699091 1.88470118 4.36044482
v -4.55495478 2.02316299 4.22573496
v -4.32411265 2.02318024 4.22573496
v -3.69066476 2.00579712 4.22649989
v -4.32411265 2.02316299 4.22573496
v -4.55495478 1.98844849 4.29467897
v -4.55495478 1.98620883 4.29518002
v -4.55238992 1.93631639 4.34406602
v -3.68160208 1.91076723 4.34588584
v -3.71195355 1.88359859 4.36012812
v -3.68160208 1.88392590 4.34636057
v -3.68160208 1.89340136 4.34633406
v -3.68160208 1.88365027 4.32387586
v -3.69057927 1.99377198 4.23143200
v -3.69057927 2.00572820 4.22652619
v -4.51930257 1.88359859 4.36035244
v -4.55238992 1.88421878 4.34444837
v -4.50776039 1.88359859 4.36043157
v -4.50724744 1.88359859 4.36043157
v -4.55495478 2.00579712 4.22649989
v -4.55495478 1.92303357 4.29518002
v -3.69066476 1.88359859 4.34823321
v -3.68160208 1.88359859 4.33621941
v -3.69066476 1.99377198 4.23136593
v -3.69066476 1.88359859 4.32585413
v -4.55238992 1.88359859 4.30739163
v -4.32411265 1.99942278 4.22907137
v -4.55238992 1.88385703 4.34444837
v -4.54247225 1.88359859 4.34547697
v -4.55495478 1.99377198 4.23136593
v -4.55495478 1.93660927 4.28175526
v -4.55238992 1.88359859 4.33859309
f 1 2 3
f 1 3 4
f 1 4 5
f 1 5 16
f 1 16 6
f 1 6 9
f 1 9 2
f 2 7 21
f 2 21 35
f 2 35 38
f 2 38 37
f 2 37 49
f 2 49 39
f 2 39 23
f 2 23 8
f 2 8 3
f 2 9 10
f 2 10 11
f 2 11 12
f 2 12 13
f 2 13 7
f 3 8 4
f 4 8 14
f 4 14 15
f 4 15 5
f 5 15 17
f 5 17 29
f 5 29 16
f 6 16 28
f 6 28 46
f 6 46 56
f 6 56 57
f 6 57 47
f 6 47 33
f 6 33 32
f 6 32 18
f 6 18 19
f 6 19 20
f 6 20 9
f 7 13 22
f 7 22 21
f 8 23 24
f 8 24 14
f 9 20 10
f 10 20 19
f 10 19 25
f 10 25 26
f 10 26 27
f 10 27 22
f 10 22 12
f 10 12 11
f 12 22 13
f 14 24 15
f 15 24 17
f 16 29 28
f 17 24 30
f 17 30 31
f 17 31 28
f 17 28 29
f 18 32 19
f 19 32 33
f 19 33 34
f 19 34 25
f 21 22 35
f 22 36 37
f 22 37 38
f 22 38 35
f 22 27 36
f 23 39 40
f 23 40 41
f 23 41 24
f 24 41 30
f 25 34 26
f 26 42 27
f 26 34 43
f 26 43 54
f 26 54 42
f 27 42 44
f 27 44 45
f 27 45 36
f 28 31 30
f 28 30 46
f 30 41 46
f 33 47 54
f 33 54 43
f 33 43 34
f 36 48 37
f 36 45 44
f 36 44 42
f 36 42 55
f 36 55 58
f 36 58 52
f 36 52 51
f 36 51 49
f 36 49 48
f 37 48 49
f 39 50 40
f 39 49 51
f 39 51 52
f 39 52 50
f 40 50 41
f 41 50 53
f 41 53 46
f 42 54 55
f 46 53 56
f 47 57 52
f 47 52 58
f 47 58 54
f 50 52 56
f 50 56 53
f 52 57 56
f 54 58 55

