# https://github.com/mikedh/trimesh
v -1.83142614 0.63174222 1.76004593
v -1.83000877 0.63174222 1.75935275
v -1.82002491 0.64321206 1.73601030
v -1.83142614 0.63920725 1.74534405
v -1.83191154 0.63174222 1.75991697
v -1.84567775 0.39244531 1.73262498
v -1.83143391 0.38661426 1.73262498
v -1.82450839 0.38943367 1.73262498
v -1.81637347 0.39279773 1.73262498
v -1.77562933 0.43986257 1.73262498
v -1.81436278 0.63174222 1.75127639
v -1.77562933 0.45834889 1.73262498
v -1.80364714 0.71228749 1.59539133
v -1.80395535 0.71215933 1.59590718
v -1.81980153 0.66057705 1.70131902
v -1.81406234 0.71251176 1.59676158
v -1.83142614 0.64353248 1.73665511
v -1.84130984 0.64273152 1.73510756
v -1.83974603 0.63174222 1.75474230
v -1.85097782 0.40734325 1.73262498
v -1.84811978 0.39926953 1.73262498
v -1.84561613 0.39244531 1.72466148
v -1.83143391 0.38606961 1.65519833
v -1.83143391 0.38616572 1.67256008
v -1.81406234 0.38584530 1.59537522
v -1.81406234 0.38594145 1.60306467
v -1.80344685 0.39295789 1.60306467
v -1.80407082 0.39407928 1.62044256
v -1.77562933 0.43928582 1.59537522
v -1.80309246 0.39282973 1.59537522
v -1.80883931 0.63174222 1.74197487
v -1.80447141 0.64298779 1.71819716
v -1.79599752 0.59838995 1.73262498
v -1.79746118 0.60780933 1.73262498
v -1.79901733 0.61578694 1.73262498
v -1.80145159 0.62501410 1.73262498
v -1.77562933 0.46517312 1.59537522
v -1.78029767 0.63315193 1.59535909
v -1.78052106 0.64087328 1.59535909
v -1.78111427 0.65054892 1.59535909
v -1.78191544 0.65823822 1.59535909
v -1.78325587 0.66810613 1.59535909
v -1.79459547 0.70386134 1.59535909
v -1.80207567 0.71081368 1.59535909
v -1.81406234 0.71312050 1.59539133
v -1.82340679 0.71244770 1.59539133
v -1.82597972 0.69508271 1.63143672
v -1.83142614 0.65650814 1.71031425
v -1.83142614 0.64949164 1.72466148
v -1.84094002 0.65984014 1.69993267
v -1.84375954 0.64529462 1.72466148
v -1.84511539 0.63174222 1.74761704
v -1.85432884 0.49420016 1.73262498
v -1.85374339 0.47683517 1.73262498
v -1.85372796 0.47683517 1.72466148
v -1.85087768 0.40734325 1.72466148
v -1.84509230 0.39241325 1.67256008
v -1.84481496 0.39247731 1.65519833
v -1.83143391 0.38635794 1.63782044
v -1.83143391 0.38699874 1.62044256
v -1.83143391 0.38853661 1.60306467
v -1.83198083 0.39020258 1.59537522
v -1.84313557 0.63174222 1.59535909
v -1.78029001 0.63174222 1.59535909
v -1.80309246 0.63049273 1.73262498
v -1.78789335 0.69412154 1.59535909
v -1.78833246 0.69476234 1.59535909
v -1.78454234 0.67621191 1.59535909
v -1.78619086 0.68527885 1.59535909
v -1.82536352 0.71081368 1.59535909
v -1.82418486 0.71222338 1.59539133
v -1.82403842 0.71209528 1.59602004
v -1.83142614 0.66070521 1.70162531
v -1.84014662 0.67662844 1.66395174
v -1.84298923 0.66205081 1.68992184
v -1.85052328 0.63315193 1.72466148
v -1.84577023 0.63372863 1.74134618
v -1.84534645 0.65102951 1.70633249
v -1.85355853 0.61578694 1.73262498
v -1.85412854 0.59838995 1.73262498
v -1.85430574 0.58102501 1.73262498
v -1.85432117 0.56366002 1.73262498
v -1.85430574 0.56366002 1.72466148
v -1.85430574 0.49420016 1.72466148
v -1.85346605 0.47683517 1.70728359
v -1.85006108 0.40734325 1.67256008
v -1.84411393 0.39295789 1.63782044
v -1.84971445 0.40734325 1.65519833
v -1.84315100 0.39388702 1.62044256
v -1.84191072 0.39555305 1.60306467
v -1.84120970 0.39670643 1.59537522
v -1.84313557 0.63315193 1.59535909
v -1.84207249 0.40096756 1.59537522
v -1.84282747 0.40734325 1.59537522
v -1.84288909 0.41580151 1.59537522
v -1.84292761 0.42470825 1.59537522
v -1.84317409 0.49420016 1.59537522
v -1.83865986 0.69774192 1.59535909
v -1.84053943 0.69450602 1.61368808
v -1.83756591 0.69248756 1.62524646
v -1.84176438 0.67839057 1.65518220
v -1.84404455 0.66807408 1.67088354
v -1.84921372 0.65054892 1.68992184
v -1.85277269 0.63315193 1.70729972
v -1.85384354 0.61578694 1.72466148
v -1.85415941 0.59838995 1.72466148
v -1.85429031 0.58102501 1.72466148
v -1.85404383 0.58102501 1.70728359
v -1.85404383 0.49420016 1.70728359
v -1.84862051 0.40734325 1.63782044
v -1.85332737 0.49420016 1.68990571
v -1.85137841 0.49420016 1.65519833
v -1.84679478 0.40734325 1.62044256
v -1.84298146 0.65019650 1.59535909
v -1.84317409 0.61578694 1.59537522
v -1.84727242 0.61578694 1.62044256
v -1.84439128 0.63171017 1.60306467
v -1.84429113 0.40734325 1.60306467
v -1.84439894 0.42470825 1.60306467
v -1.84727242 0.49420016 1.62044256
v -1.84057029 0.69482639 1.59535909
v -1.84070897 0.69495455 1.60306467
v -1.84805039 0.66791392 1.63780431
v -1.84348996 0.68159442 1.63780431
v -1.84693346 0.66791392 1.65518220
v -1.85086991 0.65054892 1.67257619
v -1.85277269 0.63315193 1.68992184
v -1.85286517 0.63171017 1.70728359
v -1.85374339 0.61578694 1.70728359
v -1.85396678 0.59838995 1.70728359
v -1.85330428 0.59838995 1.68990571
v -1.85332737 0.58102501 1.68990571
v -1.84979917 0.49420016 1.63782044
v -1.85235678 0.59838995 1.67256008
v -1.85137841 0.59838995 1.65519833
v -1.84694112 0.42470825 1.62044256
v -1.84717227 0.63315193 1.62044256
v -1.84420631 0.65054892 1.60306467
v -1.84274265 0.66791392 1.59535909
v -1.84979917 0.59838995 1.63782044
v -1.84977607 0.61578694 1.63782044
v -1.84176438 0.68527885 1.59535909
v -1.84257322 0.68527885 1.60306467
v -1.84649435 0.66791392 1.62044256
v -1.84936772 0.65054892 1.63780431
v -1.85072358 0.65054892 1.65518220
v -1.85198695 0.63315193 1.67257619
v -1.85202548 0.63171017 1.67256008
v -1.85280355 0.63171017 1.68990571
v -1.85280355 0.63174222 1.68992184
v -1.85314251 0.61578694 1.68990571
v -1.85224120 0.61578694 1.67256008
v -1.85132445 0.61578694 1.65519833
v -1.84963740 0.63174222 1.63780431
v -1.84962197 0.63315193 1.63780431
v -1.84694878 0.65054892 1.62044256
v -1.84395217 0.66791392 1.60306467
v -1.85112416 0.63315193 1.65518220
f 1 2 3
f 1 3 4
f 1 4 5
f 1 5 6
f 1 6 7
f 1 7 8
f 1 8 9
f 1 9 10
f 1 10 2
f 2 11 3
f 2 10 12
f 2 12 11
f 3 11 13
f 3 13 14
f 3 14 15
f 3 15 4
f 4 15 16
f 4 16 17
f 4 17 18
f 4 18 5
f 5 18 19
f 5 19 20
f 5 20 21
f 5 21 6
f 6 21 22
f 6 22 23
f 6 23 24
f 6 24 7
f 7 24 25
f 7 25 26
f 7 26 8
f 8 26 9
f 9 26 27
f 9 27 28
f 9 28 10
f 10 29 37
f 10 37 12
f 10 28 27
f 10 27 30
f 10 30 29
f 11 31 32
f 11 32 13
f 11 12 33
f 11 33 34
f 11 34 35
f 11 35 36
f 11 36 31
f 12 37 38
f 12 38 39
f 12 39 40
f 12 40 41
f 12 41 42
f 12 42 33
f 13 43 44
f 13 44 45
f 13 45 14
f 13 32 43
f 14 45 16
f 14 16 15
f 16 45 46
f 16 46 47
f 16 47 48
f 16 48 49
f 16 49 17
f 17 49 18
f 18 49 48
f 18 48 50
f 18 50 51
f 18 51 52
f 18 52 19
f 19 52 53
f 19 53 54
f 19 54 20
f 20 54 55
f 20 55 56
f 20 56 57
f 20 57 21
f 21 57 22
f 22 57 23
f 23 25 24
f 23 57 58
f 23 58 59
f 23 59 25
f 25 59 60
f 25 60 61
f 25 61 62
f 25 62 63
f 25 63 64
f 25 64 30
f 25 30 26
f 26 30 27
f 29 30 64
f 29 64 37
f 31 36 65
f 31 65 32
f 32 66 67
f 32 67 43
f 32 65 66
f 33 42 34
f 34 42 68
f 34 68 69
f 34 69 66
f 34 66 35
f 35 66 36
f 36 66 65
f 37 64 38
f 38 64 63
f 38 63 92
f 38 92 114
f 38 114 139
f 38 139 142
f 38 142 121
f 38 121 98
f 38 98 70
f 38 70 44
f 38 44 43
f 38 43 67
f 38 67 66
f 38 66 69
f 38 69 68
f 38 68 42
f 38 42 41
f 38 41 40
f 38 40 39
f 44 70 45
f 45 70 46
f 46 71 72
f 46 72 47
f 46 70 71
f 47 72 50
f 47 50 73
f 47 73 48
f 48 73 50
f 50 72 74
f 50 74 75
f 50 75 51
f 51 76 77
f 51 77 52
f 51 75 78
f 51 78 76
f 52 77 76
f 52 76 79
f 52 79 80
f 52 80 81
f 52 81 82
f 52 82 53
f 53 82 83
f 53 83 84
f 53 84 55
f 53 55 54
f 55 85 56
f 55 84 109
f 55 109 85
f 56 85 86
f 56 86 57
f 57 86 58
f 58 87 60
f 58 60 59
f 58 86 88
f 58 88 87
f 60 87 89
f 60 89 61
f 61 89 90
f 61 90 62
f 62 90 91
f 62 91 63
f 63 91 93
f 63 93 94
f 63 94 95
f 63 95 96
f 63 96 97
f 63 97 115
f 63 115 92
f 70 98 71
f 71 98 99
f 71 99 100
f 71 100 72
f 72 100 74
f 74 101 75
f 74 100 99
f 74 99 101
f 75 101 102
f 75 102 78
f 76 78 103
f 76 103 104
f 76 104 79
f 78 102 103
f 79 105 80
f 79 104 105
f 80 106 81
f 80 105 106
f 81 107 83
f 81 83 82
f 81 106 107
f 83 107 108
f 83 108 109
f 83 109 84
f 85 88 86
f 85 109 88
f 87 88 110
f 87 110 89
f 88 109 111
f 88 111 112
f 88 112 110
f 89 110 90
f 90 110 113
f 90 113 91
f 91 113 93
f 92 115 116
f 92 116 117
f 92 117 114
f 93 113 118
f 93 118 94
f 94 118 95
f 95 119 96
f 95 118 119
f 96 119 97
f 97 119 120
f 97 120 116
f 97 116 115
f 98 121 122
f 98 122 99
f 99 122 123
f 99 123 124
f 99 124 101
f 101 124 102
f 102 124 103
f 103 124 125
f 103 125 126
f 103 126 104
f 104 126 127
f 104 127 128
f 104 128 105
f 105 129 106
f 105 128 127
f 105 127 129
f 106 130 107
f 106 129 130
f 107 130 108
f 108 130 131
f 108 131 132
f 108 132 111
f 108 111 109
f 110 112 133
f 110 133 113
f 111 132 134
f 111 134 112
f 112 134 135
f 112 135 140
f 112 140 133
f 113 133 136
f 113 136 118
f 114 137 138
f 114 138 139
f 114 117 137
f 116 120 133
f 116 133 140
f 116 140 141
f 116 141 137
f 116 137 117
f 118 136 119
f 119 136 120
f 120 136 133
f 121 142 143
f 121 143 123
f 121 123 122
f 123 144 145
f 123 145 146
f 123 146 126
f 123 126 125
f 123 125 124
f 123 143 144
f 126 146 127
f 127 146 147
f 127 147 148
f 127 148 149
f 127 149 150
f 127 150 129
f 129 151 130
f 129 150 151
f 130 151 131
f 131 134 132
f 131 151 152
f 131 152 153
f 131 153 134
f 134 153 135
f 135 153 141
f 135 141 140
f 137 154 155
f 137 155 156
f 137 156 138
f 137 141 154
f 138 156 139
f 139 156 157
f 139 157 142
f 141 153 154
f 142 157 144
f 142 144 143
f 144 157 156
f 144 156 145
f 145 156 155
f 145 155 158
f 145 158 146
f 146 158 148
f 146 148 147
f 148 151 149
f 148 158 151
f 149 151 150
f 151 158 152
f 152 158 153
f 153 158 155
f 153 155 154

