# https://github.com/mikedh/trimesh
v -0.42246608 1.70000600 2.22495915
v -0.42246608 1.70000600 2.18762776
v -0.42405640 1.70000600 2.22494579
v -0.42246608 0.84251620 2.22495915
v -0.42276476 1.70000600 2.18709332
v -0.42246608 0.84251620 2.18667911
v -0.42724596 0.84251620 2.17612371
v -0.47616986 1.70000600 2.22316875
v -0.42405640 0.84251620 2.22494579
v -0.42472418 1.70000600 2.18402022
v -0.49535110 0.84251620 2.08846039
v -0.49535110 1.70000600 2.08846039
v -0.42810699 1.70000600 2.17872915
v -0.48508835 1.70000600 2.22223346
v -0.47925399 0.90765051 2.22267438
v -0.47616986 0.84251620 2.22296832
v -0.51223012 0.84251620 2.08846039
v -0.51223012 1.70000600 2.08846039
v -0.49108076 1.70000600 2.22149859
v -0.49105445 0.84251620 2.22141842
v -0.51179080 0.84251620 2.12430869
v -0.51179080 1.70000600 2.12430869
v -0.49630886 1.70000600 2.21914700
v -0.49973557 0.84251620 2.21753030
v -0.51092977 0.84251620 2.14170506
v -0.51093847 1.65316973 2.14170506
v -0.51093847 1.70000600 2.14170506
v -0.49977079 1.70000600 2.21753030
v -0.50397071 0.84251620 2.20884546
v -0.50231887 1.70000600 2.21230603
v -0.50947118 0.84251620 2.15903463
v -0.50947118 1.70000600 2.15903463
v -0.50644857 0.84251620 2.19380067
v -0.50397071 1.70000600 2.20884546
v -0.50788956 0.84251620 2.17725941
v -0.50644857 1.70000600 2.19380067
v -0.50676486 0.90765051 2.19020649
f 1 2 5
f 1 5 10
f 1 10 13
f 1 13 12
f 1 12 18
f 1 18 22
f 1 22 27
f 1 27 32
f 1 32 36
f 1 36 34
f 1 34 30
f 1 30 28
f 1 28 23
f 1 23 19
f 1 19 14
f 1 14 8
f 1 8 3
f 1 3 9
f 1 9 4
f 1 4 6
f 1 6 2
f 2 6 7
f 2 7 5
f 3 8 9
f 4 9 16
f 4 16 20
f 4 20 24
f 4 24 29
f 4 29 33
f 4 33 35
f 4 35 31
f 4 31 25
f 4 25 21
f 4 21 17
f 4 17 11
f 4 11 7
f 4 7 6
f 5 7 10
f 7 11 12
f 7 12 13
f 7 13 10
f 8 14 15
f 8 15 16
f 8 16 9
f 11 17 18
f 11 18 12
f 14 19 20
f 14 20 15
f 15 20 16
f 17 21 22
f 17 22 18
f 19 23 24
f 19 24 20
f 21 25 26
f 21 26 27
f 21 27 22
f 23 28 24
f 24 28 30
f 24 30 29
f 25 31 26
f 26 31 32
f 26 32 27
f 29 30 34
f 29 34 36
f 29 36 33
f 31 35 32
f 32 35 37
f 32 37 36
f 33 37 35
f 33 36 37

