# https://github.com/mikedh/trimesh
v -0.41622864 0.90955541 0.09284878
v -0.55846385 0.90955541 0.09284878
v -0.41622864 0.88888109 0.09284878
v -0.41622864 0.92764545 -0.30740170
v -0.55846385 0.86044372 0.09284878
v -0.55846385 0.92764545 -0.30740170
v -0.42313489 0.82372441 0.09284878
v -0.41622864 0.88872847 -0.29081763
v -0.41622864 0.92764545 -0.32651128
v -0.44180722 0.82372441 0.09284878
v -0.55846385 0.82372441 -0.32175501
v -0.55846385 0.92764545 -0.32651128
v -0.42313489 0.82372441 -0.30820142
v -0.41622864 0.89008166 -0.30887500
v -0.41622864 0.91117315 -0.32651128
v -0.43058444 0.85906001 -0.33568743
v -0.43130835 0.86942769 -0.33518225
v -0.44143128 0.87026200 -0.33568743
v -0.55846385 0.82372441 -0.33707643
v -0.55846385 0.87026200 -0.33568743
v -0.42578053 0.82372441 -0.32554316
v -0.41622864 0.89700023 -0.32167071
v -0.43058444 0.82372441 -0.33568743
v -0.44106923 0.82372441 -0.33703438
v -0.44143128 0.85906001 -0.33707643
v -0.55846385 0.86730124 -0.33606627
v -0.55846385 0.85906001 -0.33707643
v -0.44143128 0.82372441 -0.33707643
f 1 2 5
f 1 5 10
f 1 10 7
f 1 7 3
f 1 3 8
f 1 8 14
f 1 14 22
f 1 22 15
f 1 15 9
f 1 9 4
f 1 4 6
f 1 6 2
f 2 6 12
f 2 12 20
f 2 20 26
f 2 26 27
f 2 27 19
f 2 19 11
f 2 11 5
f 3 7 8
f 4 9 12
f 4 12 6
f 5 11 10
f 7 10 11
f 7 11 19
f 7 19 28
f 7 28 24
f 7 24 23
f 7 23 21
f 7 21 13
f 7 13 8
f 8 13 14
f 9 15 23
f 9 23 16
f 9 16 17
f 9 17 18
f 9 18 20
f 9 20 12
f 13 21 22
f 13 22 14
f 15 22 21
f 15 21 23
f 16 23 24
f 16 24 25
f 16 25 17
f 17 25 18
f 18 25 26
f 18 26 20
f 19 27 25
f 19 25 28
f 24 28 25
f 25 27 26

