# https://github.com/mikedh/trimesh
v -4.00172529 0.43757412 2.57603887
v -4.00176547 0.43757412 2.57468695
v -4.00377481 0.43757412 2.59455600
v -3.99027218 0.42584698 2.65463009
v -3.99027218 0.42434070 2.57468695
v -4.00337293 0.40179012 2.57095073
v -4.02077365 0.40179012 2.57093437
v -4.25739133 0.43757412 2.57468695
v -3.99027218 0.40179012 2.57099992
v -4.00429724 0.43757412 2.59720247
v -4.17062887 0.43757412 2.65463009
v -3.99027218 0.40799798 2.65463009
v -3.99027218 0.33780717 2.59354817
v -4.09025599 0.33780717 2.59354817
v -4.40081669 0.33780717 2.59355641
v -4.40081669 0.40179012 2.57131124
v -4.40081669 0.42193072 2.57468695
v -4.31851493 0.43757412 2.65463009
v -3.99027218 0.32766155 2.60421601
v -4.40081669 0.40856821 2.65463009
v -4.40081669 0.32767232 2.60421601
v -3.99027218 0.32766155 2.59957853
v -4.40081669 0.32767232 2.59957853
v -4.40081669 0.42561023 2.64554362
v -4.40081669 0.42602987 2.65463009
f 1 2 8
f 1 8 18
f 1 18 11
f 1 11 10
f 1 10 3
f 1 3 4
f 1 4 5
f 1 5 2
f 2 6 7
f 2 7 8
f 2 5 9
f 2 9 6
f 3 10 4
f 4 10 11
f 4 11 18
f 4 18 25
f 4 25 20
f 4 20 12
f 4 12 19
f 4 19 22
f 4 22 13
f 4 13 9
f 4 9 5
f 6 9 13
f 6 13 7
f 7 14 15
f 7 15 16
f 7 16 8
f 7 13 14
f 8 16 17
f 8 17 18
f 12 20 21
f 12 21 19
f 13 22 14
f 14 22 23
f 14 23 15
f 15 23 21
f 15 21 20
f 15 20 25
f 15 25 24
f 15 24 17
f 15 17 16
f 17 24 18
f 18 24 25
f 19 21 23
f 19 23 22

