# https://github.com/mikedh/trimesh
v -1.61771976 0.04626273 0.34953627
v -1.61771976 0.04685853 0.33709548
v -1.09983562 0.04830542 0.34074361
v -1.09983562 0.04830542 0.34826927
v -1.61771976 0.05988084 0.35589312
v -1.61771976 0.05715722 0.33379697
v -1.61771976 0.05988084 0.33313064
v -1.09983562 0.05988084 0.33795837
v -1.09983562 0.05988084 0.35344104
v -1.09983562 0.06166814 0.35347376
v -1.61771976 0.06498757 0.35596416
v -1.61771976 0.89177371 0.30092026
v -1.11458889 0.89245461 0.30092026
v -1.09983562 0.07724381 0.33778915
v -1.09983562 0.07724381 0.35368679
v -1.61771976 0.07724381 0.35606244
v -1.61771976 0.91577555 0.30092026
v -1.11458889 0.90947719 0.30092026
v -1.09983562 0.71873930 0.33778915
v -1.09983562 0.71873930 0.35368679
v -1.11458889 0.87636830 0.35671230
v -1.60555216 0.87636830 0.35671230
v -1.61771976 0.87636830 0.35651574
v -1.61771976 0.91577555 0.31699811
v -1.11458889 0.90947719 0.33465976
v -1.11458889 0.90598756 0.34890277
v -1.11458889 0.89696559 0.35393804
v -1.11458889 0.89373132 0.35571291
v -1.61771976 0.89373132 0.35588224
v -1.61771976 0.91552021 0.33436492
v -1.61771976 0.90973253 0.35016428
f 1 2 3
f 1 3 4
f 1 4 5
f 1 5 11
f 1 11 16
f 1 16 23
f 1 23 29
f 1 29 31
f 1 31 30
f 1 30 24
f 1 24 17
f 1 17 12
f 1 12 7
f 1 7 6
f 1 6 2
f 2 6 3
f 3 6 7
f 3 7 8
f 3 8 14
f 3 14 19
f 3 19 20
f 3 20 15
f 3 15 10
f 3 10 9
f 3 9 4
f 4 9 5
f 5 9 10
f 5 10 11
f 7 12 13
f 7 13 8
f 8 13 14
f 10 15 11
f 11 15 16
f 12 17 18
f 12 18 13
f 13 18 19
f 13 19 14
f 15 20 21
f 15 21 16
f 16 21 22
f 16 22 23
f 17 24 25
f 17 25 18
f 18 25 20
f 18 20 19
f 20 25 26
f 20 26 27
f 20 27 28
f 20 28 21
f 21 28 29
f 21 29 22
f 22 29 23
f 24 30 25
f 25 30 26
f 26 30 31
f 26 31 27
f 27 31 28
f 28 31 29

