# https://github.com/mikedh/trimesh
v -6.62034525 2.14562655 4.24538286
v -6.63240711 2.14562655 4.24348806
v -6.63240711 2.14562655 4.24538286
v -6.40112866 2.12464454 4.24538286
v -6.38374902 2.09178316 4.15896807
v -6.40112866 2.09212818 4.15896807
v -6.63238122 2.09400129 4.15896807
v -6.63240711 2.10974188 4.24282836
v -6.63240711 2.10974188 4.24538286
v -6.38372313 2.11557480 4.24538286
v -6.37147962 2.08770834 4.15896807
v -6.37272466 2.08813554 4.15896807
v -6.63238122 2.01035258 4.15896807
v -6.63238122 1.97777051 4.24537437
v -6.38289317 2.10974188 4.24538286
v -6.36756263 2.07530317 4.24537437
v -6.37101275 2.09648231 4.24537437
v -6.36777017 2.07530317 4.15896807
v -6.63219957 1.97777051 4.24351354
v -6.38374902 2.01319509 4.15896807
v -6.61305603 1.97777051 4.24537437
v -6.40112866 1.98031724 4.24537437
v -6.38374902 1.98905838 4.24537437
v -6.37700474 1.99530208 4.24537437
v -6.37194648 2.00340242 4.24537437
v -6.36896344 2.02188693 4.24537437
v -6.36745886 2.03925420 4.24537437
v -6.36740708 2.04058510 4.24537437
v -6.36740708 2.05793590 4.24537437
v -6.36764051 2.05793590 4.15896807
v -6.37425513 2.01391807 4.15896807
v -6.37054589 2.02320142 4.15896807
v -6.36792593 2.03881054 4.15896807
v -6.36764051 2.04058510 4.15896807
f 1 2 3
f 1 3 9
f 1 9 15
f 1 15 10
f 1 10 4
f 1 4 5
f 1 5 2
f 2 6 7
f 2 7 8
f 2 8 9
f 2 9 3
f 2 5 6
f 4 10 11
f 4 11 12
f 4 12 5
f 5 12 11
f 5 11 18
f 5 18 30
f 5 30 34
f 5 34 33
f 5 33 32
f 5 32 31
f 5 31 20
f 5 20 13
f 5 13 7
f 5 7 6
f 7 13 8
f 8 13 14
f 8 14 9
f 9 14 21
f 9 21 15
f 10 15 16
f 10 16 17
f 10 17 11
f 11 17 18
f 13 19 14
f 13 20 19
f 14 19 21
f 15 21 22
f 15 22 23
f 15 23 24
f 15 24 25
f 15 25 26
f 15 26 27
f 15 27 28
f 15 28 29
f 15 29 16
f 16 29 18
f 16 18 17
f 18 29 30
f 19 20 22
f 19 22 21
f 20 31 22
f 22 31 23
f 23 31 24
f 24 31 25
f 25 31 32
f 25 32 33
f 25 33 26
f 26 33 34
f 26 34 27
f 27 34 28
f 28 34 30
f 28 30 29

