# https://github.com/mikedh/trimesh
v -0.28136883 0.93087887 0.89905436
v -0.28145396 0.94026158 0.89905436
v -0.28136883 0.89214799 0.89905436
v -0.28136883 0.94597190 0.80376260
v -0.28466630 0.94593053 0.89905436
v -0.45468764 0.85391367 0.89905436
v -0.28136883 0.89045146 0.89064012
v -0.28136883 0.94609605 0.80008133
v -0.29285673 0.95444429 0.89905436
v -0.48072687 0.85391367 0.89905436
v -0.45466631 0.85391367 0.89579386
v -0.45283675 0.85391367 0.36180215
v -0.28136883 0.89045146 0.43895068
v -0.28136883 0.94630294 0.78640812
v -0.30242996 0.95924426 0.89905436
v -0.28136883 0.94635467 0.78272685
v -0.28136883 0.94634432 0.56058966
v -0.28136883 0.94633399 0.55690839
v -0.48830049 0.86186881 0.89905436
v -0.49272555 0.85989294 0.36180215
v -0.49004491 0.85709986 0.36180215
v -0.48498168 0.85401713 0.36180215
v -0.48155662 0.85391367 0.36748179
v -0.45902758 0.85391367 0.36180215
v -0.28136883 0.89075145 0.36180215
v -0.28136883 0.89046179 0.36942765
v -0.31710907 0.95958563 0.89905436
v -0.28136883 0.94611674 0.54318257
v -0.28507040 0.94637536 0.54318257
v -0.30242996 0.94766846 0.56058966
v -0.31981084 0.94810293 0.56058966
v -0.49151282 0.87643427 0.89905436
v -0.49870346 0.87643427 0.36180215
v -0.49442731 0.86419638 0.36180215
v -0.28136883 0.91420307 0.36180215
v -0.32100224 0.95947184 0.89905436
v -0.28136883 0.91557893 0.36948015
v -0.30738693 0.93957884 0.43895068
v -0.30528065 0.94099605 0.45630516
v -0.30242996 0.94643742 0.52582819
v -0.31981084 0.94626157 0.52582819
v -0.33719173 0.94597190 0.52582819
v -0.35457241 0.94599259 0.54318257
v -0.49155549 0.88481355 0.89905436
v -0.49151282 0.89381350 0.89905436
v -0.49857587 0.88103770 0.36180215
v -0.28507040 0.91420307 0.36180215
v -0.31002490 0.93785124 0.42974749
v -0.41735190 0.93935126 0.76321617
v -0.47672745 0.92645131 0.89905436
v -0.40667241 0.94115125 0.54318257
v -0.41735190 0.93935126 0.58278232
v -0.31410946 0.93957884 0.43895068
v -0.31585388 0.94099605 0.45630516
v -0.49008758 0.90357898 0.89905436
v -0.49804396 0.89381350 0.36180215
v -0.38931285 0.91383068 0.36180215
v -0.31196072 0.93785124 0.42974749
v -0.48844941 0.91029276 0.89905436
v -0.41690512 0.93887538 0.53292769
v -0.49125764 0.90606174 0.36180215
v -0.40667241 0.93993057 0.53192851
v -0.47617442 0.90924793 0.36180215
v -0.49642713 0.89742383 0.36180215
v -0.39905633 0.91375826 0.36180215
v -0.40667241 0.91369617 0.36180215
v -0.41641589 0.91318928 0.36180215
v -0.42403196 0.91278585 0.36180215
f 1 2 5
f 1 5 9
f 1 9 15
f 1 15 27
f 1 27 36
f 1 36 50
f 1 50 59
f 1 59 55
f 1 55 45
f 1 45 44
f 1 44 32
f 1 32 19
f 1 19 10
f 1 10 6
f 1 6 3
f 1 3 7
f 1 7 13
f 1 13 26
f 1 26 25
f 1 25 35
f 1 35 37
f 1 37 28
f 1 28 18
f 1 18 17
f 1 17 16
f 1 16 14
f 1 14 8
f 1 8 4
f 1 4 2
f 2 4 5
f 3 6 7
f 4 8 9
f 4 9 5
f 6 10 23
f 6 23 24
f 6 24 12
f 6 12 11
f 6 11 7
f 7 11 12
f 7 12 13
f 8 14 9
f 9 14 16
f 9 16 17
f 9 17 18
f 9 18 15
f 10 19 20
f 10 20 21
f 10 21 22
f 10 22 23
f 12 24 22
f 12 22 21
f 12 21 20
f 12 20 34
f 12 34 33
f 12 33 46
f 12 46 56
f 12 56 64
f 12 64 61
f 12 61 63
f 12 63 68
f 12 68 67
f 12 67 66
f 12 66 65
f 12 65 57
f 12 57 47
f 12 47 35
f 12 35 25
f 12 25 26
f 12 26 13
f 15 18 28
f 15 28 29
f 15 29 30
f 15 30 31
f 15 31 27
f 19 32 33
f 19 33 34
f 19 34 20
f 22 24 23
f 27 31 36
f 28 37 38
f 28 38 39
f 28 39 40
f 28 40 29
f 29 40 30
f 30 40 31
f 31 40 41
f 31 41 42
f 31 42 43
f 31 43 36
f 32 44 33
f 33 44 45
f 33 45 46
f 35 47 58
f 35 58 48
f 35 48 38
f 35 38 37
f 36 49 50
f 36 43 51
f 36 51 52
f 36 52 49
f 38 48 58
f 38 58 53
f 38 53 54
f 38 54 39
f 39 54 40
f 40 54 41
f 41 54 42
f 42 51 43
f 42 54 53
f 42 53 51
f 45 55 56
f 45 56 46
f 47 57 58
f 49 52 50
f 50 52 60
f 50 60 61
f 50 61 59
f 51 53 62
f 51 62 60
f 51 60 52
f 53 58 63
f 53 63 60
f 53 60 62
f 55 59 56
f 56 59 64
f 57 65 58
f 58 65 66
f 58 66 67
f 58 67 68
f 58 68 63
f 59 61 64
f 60 63 61

