# https://github.com/mikedh/trimesh
v -2.51531429 0.46053139 2.46193244
v -2.51522118 0.46075452 2.46208439
v -2.51447635 0.46075452 2.46193244
v -2.51424354 0.42568288 2.46193244
v -2.50949504 0.42568288 2.57604586
v -2.50926234 0.42568288 2.58134066
v -2.50665533 0.46075452 2.58134066
v -2.44520415 0.46075452 2.46193244
v -2.48589226 0.42568288 2.46193244
v -2.48337835 0.42568288 2.58134066
v -2.43221566 0.46075452 2.58134066
v -2.43268118 0.46075452 2.56881074
v -2.21369175 0.46028419 2.58134066
v -2.19632723 0.46023613 2.58134066
v -2.17896260 0.46016747 2.58134066
v -2.17896260 0.46012284 2.57604586
v -2.17896260 0.45985849 2.55866523
v -2.05736380 0.45720824 2.46193244
v -2.03995268 0.44063365 2.46193244
v -2.03976647 0.44063023 2.46206101
v -2.03976647 0.44063707 2.48918968
v -2.03976647 0.44065768 2.50655855
v -2.03976647 0.44080531 2.58134066
v -2.16155147 0.45995807 2.58134066
v -2.16155147 0.45990313 2.57604586
v -2.04744789 0.45706403 2.46193244
v -2.03976647 0.45647356 2.46193244
v -2.03976647 0.45708806 2.58134066
v -2.05736380 0.45826558 2.58134066
v -2.03976647 0.45694731 2.46193244
v -2.03976647 0.45780902 2.58127054
v -2.03995268 0.45779871 2.58134066
v -2.04525990 0.45794634 2.58134066
f 1 2 3
f 1 3 8
f 1 8 18
f 1 18 26
f 1 26 30
f 1 30 27
f 1 27 19
f 1 19 9
f 1 9 4
f 1 4 5
f 1 5 6
f 1 6 7
f 1 7 2
f 2 7 11
f 2 11 12
f 2 12 8
f 2 8 3
f 4 9 10
f 4 10 6
f 4 6 5
f 6 10 23
f 6 23 28
f 6 28 32
f 6 32 33
f 6 33 29
f 6 29 24
f 6 24 15
f 6 15 14
f 6 14 13
f 6 13 11
f 6 11 7
f 8 12 13
f 8 13 14
f 8 14 15
f 8 15 16
f 8 16 17
f 8 17 18
f 9 19 20
f 9 20 10
f 10 20 21
f 10 21 22
f 10 22 23
f 11 13 12
f 15 24 16
f 16 24 25
f 16 25 18
f 16 18 17
f 18 25 24
f 18 24 26
f 19 27 20
f 20 27 30
f 20 30 31
f 20 31 28
f 20 28 23
f 20 23 22
f 20 22 21
f 24 29 30
f 24 30 26
f 28 31 32
f 29 33 31
f 29 31 30
f 31 33 32

