# https://github.com/mikedh/trimesh
v -0.34528006 2.50403005 3.28226855
v -0.34528006 2.49229432 3.28482254
v -0.34528006 2.50403005 3.27459013
v -1.01230980 2.50403005 3.28226855
v -0.35494441 2.10958674 3.32351518
v -0.34528006 2.10958674 3.32318688
v -1.01230980 2.49229432 3.28482254
v -0.34528006 2.49229432 3.26935996
v -1.01230980 2.50403005 3.27459013
v -0.34528006 2.10143405 3.32351518
v -0.99774812 2.10958674 3.32351518
v -1.01230980 2.10958674 3.32318688
v -0.34528006 2.09271021 3.26667797
v -1.01230980 2.49229432 3.26935996
v -0.34528006 2.09167167 3.32318688
v -0.35455253 2.09167167 3.32351518
v -1.01230980 2.09421613 3.32351518
v -0.34528006 2.05797055 3.26732348
v -1.01230980 2.09271021 3.26667797
v -0.34528006 1.99124337 3.31855758
v -0.99742169 2.09167167 3.32351518
v -1.01230980 1.98875085 3.31932540
v -0.34528006 1.99726700 3.28988587
v -1.01230980 1.98869891 3.29136031
v -1.01230980 2.05797055 3.26732348
v -0.34528006 1.98714106 3.30581024
v -1.01230980 1.97353600 3.30581024
v -0.34528006 1.99124337 3.29260670
v -0.34528006 1.98854310 3.30034632
f 1 2 6
f 1 6 10
f 1 10 15
f 1 15 20
f 1 20 26
f 1 26 29
f 1 29 28
f 1 28 23
f 1 23 18
f 1 18 13
f 1 13 8
f 1 8 3
f 1 3 9
f 1 9 4
f 1 4 7
f 1 7 2
f 2 5 6
f 2 7 11
f 2 11 5
f 3 8 14
f 3 14 9
f 4 9 14
f 4 14 19
f 4 19 25
f 4 25 24
f 4 24 27
f 4 27 22
f 4 22 17
f 4 17 12
f 4 12 7
f 5 10 6
f 5 11 17
f 5 17 21
f 5 21 16
f 5 16 10
f 7 12 11
f 8 13 19
f 8 19 14
f 10 16 15
f 11 12 17
f 13 18 25
f 13 25 19
f 15 16 20
f 16 21 22
f 16 22 20
f 17 22 21
f 18 23 24
f 18 24 25
f 20 22 27
f 20 27 26
f 23 28 24
f 24 28 27
f 26 27 29
f 27 28 29

