# https://github.com/mikedh/trimesh
v -0.28136883 1.64372656 0.07298237
v -0.21555948 1.64372656 0.05495752
v -0.28136883 1.64372656 0.09199355
v -0.28136883 2.31855731 0.05445089
v -0.19817798 1.64372656 0.05730593
v -0.21555948 2.30111346 0.05370419
v -0.22938938 1.64372656 0.10936450
v -0.28136883 2.28375390 0.09199355
v -0.28136883 2.49223684 0.05543163
v -0.21555948 2.47487739 0.05455984
v -0.19009296 1.64372656 0.06254232
v -0.19817798 2.28375390 0.05730593
v -0.19817798 2.47487739 0.05774193
v -0.20905299 1.64372656 0.10936450
v -0.22938938 2.26698425 0.10936450
v -0.22913254 2.28375390 0.10936450
v -0.22909588 2.28417530 0.10936450
v -0.20597860 2.49223684 0.10936450
v -0.28136883 2.49223684 0.07194176
v -0.28136883 2.50201211 0.05937120
v -0.21555948 2.49223684 0.05502836
v -0.18856043 1.64372656 0.06354502
v -0.18858798 2.47487739 0.06354502
v -0.18860620 2.49223684 0.06357216
v -0.19817798 2.49223684 0.05821046
v -0.20299597 1.64372656 0.10733217
v -0.20425323 1.64389508 0.10936450
v -0.19760900 2.50218071 0.10936450
v -0.28136883 2.50462451 0.06861778
v -0.28136883 2.50462451 0.06042817
v -0.21555948 2.50462451 0.06042817
v -0.19817798 2.50336051 0.06201373
v -0.18776195 1.64372656 0.07236119
v -0.18768842 2.47487739 0.07404493
v -0.18761510 1.64372656 0.07404493
v -0.18890902 2.50175931 0.06418794
v -0.18771597 2.49223684 0.07404493
v -0.18856043 1.64372656 0.08434330
v -0.18768842 2.31855731 0.10936450
v -0.18861532 2.50218071 0.10879241
v -0.19817798 2.50420311 0.07404493
v -0.23293188 2.50462451 0.06870498
v -0.18858798 2.50184361 0.10936450
v -0.18768842 2.47487739 0.10936450
v -0.18861532 2.50218071 0.07404493
v -0.18771597 2.49223684 0.10936450
f 1 2 5
f 1 5 11
f 1 11 22
f 1 22 33
f 1 33 35
f 1 35 38
f 1 38 26
f 1 26 14
f 1 14 7
f 1 7 3
f 1 3 8
f 1 8 19
f 1 19 29
f 1 29 30
f 1 30 20
f 1 20 9
f 1 9 4
f 1 4 2
f 2 4 6
f 2 6 5
f 3 7 15
f 3 15 8
f 4 9 10
f 4 10 6
f 5 6 12
f 5 12 11
f 6 10 13
f 6 13 12
f 7 14 27
f 7 27 39
f 7 39 44
f 7 44 46
f 7 46 43
f 7 43 28
f 7 28 18
f 7 18 17
f 7 17 16
f 7 16 15
f 8 15 16
f 8 16 17
f 8 17 18
f 8 18 19
f 9 20 21
f 9 21 10
f 10 21 25
f 10 25 13
f 11 12 23
f 11 23 22
f 12 13 24
f 12 24 23
f 13 25 24
f 14 26 27
f 18 28 29
f 18 29 19
f 20 30 21
f 21 30 31
f 21 31 32
f 21 32 25
f 22 23 33
f 23 24 34
f 23 34 35
f 23 35 33
f 24 25 36
f 24 36 37
f 24 37 34
f 25 32 36
f 26 38 27
f 27 38 39
f 28 40 41
f 28 41 42
f 28 42 29
f 28 43 40
f 29 42 31
f 29 31 30
f 31 42 41
f 31 41 32
f 32 41 36
f 34 37 46
f 34 46 44
f 34 44 35
f 35 44 39
f 35 39 38
f 36 41 45
f 36 45 37
f 37 45 40
f 37 40 46
f 40 45 41
f 40 43 46

