# https://github.com/mikedh/trimesh
v -4.67372660 0.37377743 2.51534614
v -4.67369988 0.33917421 2.58728728
v -4.67372660 0.33917421 2.59735787
v -4.67372660 0.40293558 2.51534614
v -4.55450873 0.40762153 2.51534614
v -4.40083170 0.41329936 2.51535779
v -4.40083170 0.32766684 2.59955171
v -4.55450873 0.32765669 2.59955171
v -4.67372660 0.33917421 2.61534025
v -4.67372660 0.40291534 2.52045727
v -4.66354919 0.40788469 2.57603809
v -4.66998681 0.40479781 2.51534614
v -4.55450873 0.42584921 2.51534614
v -4.40083170 0.43104122 2.51535779
v -4.40083170 0.32766684 2.60420773
v -4.55450873 0.32765669 2.60421943
v -4.67372660 0.36019526 2.61768576
v -4.43772171 0.32766684 2.60421943
v -4.40083170 0.33781805 2.60943557
v -4.40096530 0.40308741 2.63455955
v -4.55450873 0.40205509 2.63455955
v -4.67372660 0.40276356 2.55531344
v -4.66354919 0.40799602 2.51534614
v -4.67372660 0.40264208 2.57603809
v -4.67372660 0.40113409 2.61768576
v -4.66413681 0.40542531 2.61768576
v -4.64503739 0.41407867 2.57614310
v -4.64818945 0.41352202 2.55869754
v -4.64105723 0.41676066 2.52394638
v -4.64973876 0.41361310 2.52394638
v -4.64992580 0.41364345 2.51534614
v -4.65692443 0.41077924 2.51534614
v -4.55931699 0.42572773 2.51534614
v -4.55450873 0.42102153 2.63455955
v -4.54192709 0.42131503 2.63455955
v -4.50720084 0.42198302 2.63455955
v -4.48983776 0.42229676 2.63455955
v -4.47247458 0.42257002 2.63455955
v -4.43772171 0.42306598 2.63455955
v -4.42033182 0.42330884 2.63455955
v -4.40296874 0.42351131 2.63455955
v -4.40163308 0.42352141 2.63455955
v -4.40083170 0.42352141 2.63455955
v -4.55931699 0.42564679 2.52394638
v -4.40083170 0.40282425 2.63382441
v -4.40083170 0.41676066 2.63455955
v -4.64573188 0.41157880 2.61768576
v -4.63849278 0.41615342 2.57042515
v -4.63950791 0.41634574 2.55869754
v -4.64041617 0.41656840 2.54132199
v -4.64124416 0.41681131 2.51534614
v -4.63499347 0.41776264 2.51534614
v -4.57668006 0.42456383 2.51534614
v -4.57668006 0.42441205 2.52394638
v -4.62567077 0.41571824 2.61768576
v -4.63403188 0.41459484 2.61768576
v -4.62879622 0.41762097 2.55869754
v -4.62879622 0.41806629 2.54132199
v -4.62879622 0.41845088 2.52394638
v -4.62879622 0.41861280 2.51534614
f 1 2 3
f 1 3 9
f 1 9 17
f 1 17 25
f 1 25 24
f 1 24 22
f 1 22 10
f 1 10 4
f 1 4 12
f 1 12 23
f 1 23 32
f 1 32 31
f 1 31 51
f 1 51 52
f 1 52 60
f 1 60 53
f 1 53 33
f 1 33 13
f 1 13 5
f 1 5 6
f 1 6 7
f 1 7 8
f 1 8 2
f 2 8 3
f 3 8 16
f 3 16 9
f 4 10 11
f 4 11 12
f 5 13 14
f 5 14 6
f 6 14 43
f 6 43 46
f 6 46 45
f 6 45 19
f 6 19 15
f 6 15 7
f 7 15 16
f 7 16 8
f 9 16 18
f 9 18 15
f 9 15 19
f 9 19 20
f 9 20 21
f 9 21 17
f 10 22 11
f 11 23 12
f 11 22 24
f 11 24 25
f 11 25 26
f 11 26 27
f 11 27 28
f 11 28 29
f 11 29 30
f 11 30 31
f 11 31 32
f 11 32 23
f 13 33 14
f 14 34 35
f 14 35 36
f 14 36 37
f 14 37 38
f 14 38 39
f 14 39 40
f 14 40 41
f 14 41 42
f 14 42 43
f 14 33 44
f 14 44 34
f 15 18 16
f 17 21 34
f 17 34 25
f 19 45 20
f 20 45 46
f 20 46 43
f 20 43 42
f 20 42 41
f 20 41 40
f 20 40 39
f 20 39 38
f 20 38 37
f 20 37 36
f 20 36 35
f 20 35 34
f 20 34 21
f 25 34 26
f 26 47 27
f 26 34 47
f 27 47 48
f 27 48 49
f 27 49 50
f 27 50 28
f 28 50 29
f 29 51 30
f 29 50 52
f 29 52 51
f 30 51 31
f 33 53 44
f 34 44 54
f 34 54 55
f 34 55 56
f 34 56 47
f 44 53 54
f 47 56 48
f 48 56 55
f 48 55 57
f 48 57 49
f 49 57 58
f 49 58 59
f 49 59 50
f 50 59 60
f 50 60 52
f 53 60 54
f 54 60 59
f 54 59 58
f 54 58 57
f 54 57 55

