# https://github.com/mikedh/trimesh
v -5.35279728 0.38696321 1.47458899
v -5.35279728 0.38556650 1.47580762
v -5.35279728 0.38696321 1.44642919
v -5.40694970 0.38696321 1.47675813
v -5.35279728 0.37690060 1.47941475
v -5.41072190 0.38696321 1.47688976
v -5.42810134 0.38696321 1.47746982
v -5.35279728 0.32355163 1.47220050
v -5.55453625 0.38696321 1.44203731
v -5.35279728 0.37254896 1.48122318
v -5.44546089 0.38696321 1.47781101
v -5.44546089 0.37254896 1.48357754
v -5.42810134 0.37254896 1.48322170
v -5.35279728 0.32355163 1.49146930
v -5.55453625 0.32355163 1.47000215
v -5.55453625 0.38696321 1.47409670
v -5.38646977 0.34622214 1.48991921
v -5.35279728 0.33438408 1.49082099
v -5.39804281 0.34679329 1.49017268
v -5.44660631 0.38696321 1.47780614
v -5.46282045 0.38696321 1.47771356
v -5.46282045 0.37254896 1.48346057
v -5.44546089 0.34833276 1.49038230
v -5.42810134 0.34799753 1.49035304
v -5.41072190 0.33780448 1.49117197
v -5.42810134 0.33780448 1.49130842
v -5.41072190 0.32355163 1.49176663
v -5.55453625 0.32355163 1.48711150
v -5.55453625 0.38529335 1.47570038
v -5.54738704 0.38696321 1.47502282
v -5.39269084 0.33938124 1.49082586
v -5.48089107 0.38696321 1.47740157
v -5.49797432 0.38696321 1.47710424
v -5.51493888 0.38696321 1.47680204
v -5.51493888 0.37254896 1.48250514
v -5.46282045 0.34769958 1.49028479
v -5.44546089 0.33780448 1.49131334
v -5.42810134 0.32355163 1.49183488
v -5.54859169 0.32355163 1.48866159
v -5.54282485 0.33055398 1.49022633
v -5.55453625 0.33719615 1.48637060
v -5.55453625 0.38201567 1.47716762
v -5.54969775 0.38567825 1.47593439
v -5.53231832 0.38696321 1.47624632
v -5.51884924 0.38696321 1.47670454
v -5.53231832 0.38665905 1.47649979
v -5.53231832 0.37254896 1.48215421
v -5.47545998 0.34692357 1.49017268
v -5.46282045 0.33780448 1.49110372
v -5.44546089 0.32355163 1.49178616
v -5.54256822 0.32355163 1.49021168
v -5.53231832 0.32355163 1.49048467
v -5.51493888 0.32355163 1.49080639
v -5.53231832 0.33265840 1.49039203
v -5.54969775 0.37254896 1.48142787
v -5.55453625 0.37254896 1.48112567
v -5.55453625 0.36770073 1.48200306
v -5.55453625 0.35517988 1.48407962
v -5.53174561 0.38696321 1.47627071
v -5.48705290 0.34612903 1.48988509
v -5.51493888 0.33484970 1.49056265
v -5.45970007 0.32355163 1.49161067
v -5.46282045 0.32355163 1.49157167
f 1 2 5
f 1 5 10
f 1 10 18
f 1 18 14
f 1 14 8
f 1 8 3
f 1 3 9
f 1 9 16
f 1 16 30
f 1 30 44
f 1 44 59
f 1 59 45
f 1 45 34
f 1 34 33
f 1 33 32
f 1 32 21
f 1 21 20
f 1 20 11
f 1 11 7
f 1 7 6
f 1 6 4
f 1 4 2
f 2 4 6
f 2 6 7
f 2 7 5
f 3 8 9
f 5 7 10
f 7 11 12
f 7 12 13
f 7 13 10
f 8 14 27
f 8 27 38
f 8 38 50
f 8 50 62
f 8 62 63
f 8 63 53
f 8 53 52
f 8 52 51
f 8 51 39
f 8 39 28
f 8 28 15
f 8 15 9
f 9 15 28
f 9 28 41
f 9 41 58
f 9 58 57
f 9 57 56
f 9 56 42
f 9 42 29
f 9 29 16
f 10 17 18
f 10 13 19
f 10 19 17
f 11 20 12
f 12 20 21
f 12 21 22
f 12 22 23
f 12 23 24
f 12 24 19
f 12 19 13
f 14 18 25
f 14 25 26
f 14 26 27
f 16 29 30
f 17 19 18
f 18 19 31
f 18 31 25
f 19 24 25
f 19 25 31
f 21 32 22
f 22 32 33
f 22 33 34
f 22 34 35
f 22 35 36
f 22 36 23
f 23 36 37
f 23 37 26
f 23 26 24
f 24 26 25
f 26 37 38
f 26 38 27
f 28 39 40
f 28 40 41
f 29 42 43
f 29 43 30
f 30 43 44
f 34 45 46
f 34 46 47
f 34 47 35
f 35 47 36
f 36 47 48
f 36 48 49
f 36 49 37
f 37 49 50
f 37 50 38
f 39 51 40
f 40 51 52
f 40 52 53
f 40 53 54
f 40 54 55
f 40 55 56
f 40 56 57
f 40 57 58
f 40 58 41
f 42 56 55
f 42 55 43
f 43 55 46
f 43 46 44
f 44 46 59
f 45 59 46
f 46 55 47
f 47 55 60
f 47 60 48
f 48 60 54
f 48 54 61
f 48 61 49
f 49 61 50
f 50 61 62
f 53 63 54
f 54 63 61
f 54 60 55
f 61 63 62

