# https://github.com/mikedh/trimesh
v -3.98891720 0.63904362 1.72156194
v -3.98891720 0.77216445 1.70916695
v -3.93381598 0.63904362 1.72156194
v -3.98891720 0.63904362 1.95374549
v -3.98891720 0.78953280 1.70786728
v -3.88720906 0.77216445 1.70916695
v -3.88170050 0.77216445 1.70919100
v -3.82581691 0.63904362 1.73595458
v -3.88720906 0.63904362 1.95374549
v -3.98891720 0.82691966 1.95374549
v -3.98593146 0.78953280 1.70786728
v -3.98891720 0.80690116 1.71126088
v -3.88720906 0.80690116 1.71123680
v -3.88170050 0.78953280 1.70789133
v -3.86432868 0.78953280 1.71053883
v -3.85361501 0.78953280 1.71458224
v -3.85307213 0.80387865 1.71424527
v -3.83791973 0.80690116 1.73258506
v -3.83815922 0.81590292 1.73321084
v -3.82581691 0.80812766 1.75910795
v -3.82581691 0.63904362 1.95008715
v -3.88720906 0.71811015 1.95374549
v -3.82600850 0.83638134 1.95008715
v -3.98891720 0.85488859 1.86363508
v -3.88170050 0.80690116 1.71123680
v -3.98891720 0.80852188 1.71198290
v -3.98891720 0.81638475 1.71554495
v -3.86297153 0.80856569 1.71301784
v -3.85628147 0.81546484 1.71605039
v -3.84251811 0.82748910 1.73665255
v -3.83670622 0.83491390 1.74822923
v -3.83571631 0.82273636 1.74228444
v -3.82581691 0.82056805 1.76295881
v -3.82581691 0.80906947 1.75927642
v -3.82581691 0.69357980 1.95008715
v -3.98891720 0.85979466 1.84625801
v -3.98891720 0.85896237 1.84926651
v -3.82581691 0.83662228 1.94888375
v -3.86432868 0.85940042 1.84628207
v -3.88170050 0.85968514 1.84628207
v -3.88720906 0.85970705 1.84628207
v -3.89908833 0.85975085 1.84625801
v -3.91644415 0.85977276 1.84625801
v -3.95118781 0.85979466 1.84625801
v -3.88170050 0.81638475 1.71554495
v -3.86785735 0.81612193 1.71571344
v -3.98891720 0.81787410 1.71679649
v -3.86297153 0.82286776 1.72161008
v -3.85410999 0.83379691 1.73224811
v -3.84777117 0.83756407 1.74228444
v -3.84682916 0.84645630 1.75903574
v -3.84095337 0.84864649 1.77159921
v -3.83726505 0.85120905 1.78317590
v -3.82581691 0.84067416 1.77927690
v -3.98891720 0.86240100 1.82895315
v -3.82581691 0.84709146 1.84623394
v -3.84695690 0.85839293 1.82895315
v -3.86432868 0.86226960 1.82895315
v -3.88170050 0.86235719 1.82895315
v -3.89908833 0.86237909 1.82895315
v -3.95118781 0.86240100 1.82895315
v -3.88720906 0.81914441 1.71787953
v -3.88170050 0.82507988 1.72290975
v -3.98891720 0.82507988 1.72290975
v -3.86432868 0.83425684 1.73167049
v -3.86432868 0.84159404 1.74206784
v -3.86432868 0.84897505 1.75405368
v -3.85252925 0.85164710 1.76452325
v -3.84682916 0.85370589 1.77715892
v -3.84695690 0.85771396 1.79419904
v -3.83565241 0.85217274 1.79419904
v -3.82581691 0.84430989 1.79419904
v -3.98891720 0.86277336 1.81160016
v -3.82581691 0.84715717 1.82895315
v -3.83440700 0.85289551 1.81157609
v -3.83491793 0.85245748 1.82895315
v -3.84695690 0.85911570 1.81157609
v -3.86432868 0.86275146 1.81157609
v -3.88170050 0.86277336 1.81157609
v -3.88720906 0.86277336 1.81160016
v -3.88720906 0.82799284 1.72565349
v -3.88720906 0.83427874 1.73159828
v -3.98891720 0.83427874 1.73159828
v -3.88170050 0.83427874 1.73162235
v -3.88170050 0.84163785 1.74206784
v -3.88720906 0.84899695 1.75402960
v -3.86432868 0.85232606 1.76271816
v -3.86432868 0.85742924 1.77684603
v -3.86432868 0.86141543 1.79419904
v -3.82581691 0.84700385 1.81140762
v -3.88720906 0.86277336 1.81157609
v -3.98891720 0.86165635 1.79715938
v -3.82581691 0.84715717 1.82823111
v -3.88720906 0.86185346 1.79968651
v -3.98891720 0.83554905 1.73340337
v -3.88720906 0.84163785 1.74206784
v -3.98891720 0.84899695 1.75402960
v -3.88720906 0.85232606 1.76271816
v -3.88720906 0.85394681 1.76719478
v -3.88720906 0.85742924 1.77682195
v -3.88720906 0.85869955 1.78230946
v -3.88720906 0.86141543 1.79419904
v -3.98891720 0.86141543 1.79422309
v -3.98891720 0.84163785 1.74209189
v -3.98891720 0.85232606 1.76274221
v -3.98891720 0.85742924 1.77682195
v -3.98891720 0.85813011 1.77983045
f 1 2 6
f 1 6 3
f 1 3 8
f 1 8 21
f 1 21 9
f 1 9 4
f 1 4 10
f 1 10 24
f 1 24 37
f 1 37 36
f 1 36 55
f 1 55 73
f 1 73 92
f 1 92 103
f 1 103 107
f 1 107 106
f 1 106 105
f 1 105 97
f 1 97 104
f 1 104 95
f 1 95 83
f 1 83 64
f 1 64 47
f 1 47 27
f 1 27 26
f 1 26 12
f 1 12 5
f 1 5 2
f 2 5 11
f 2 11 6
f 3 6 7
f 3 7 8
f 4 9 22
f 4 22 10
f 5 12 13
f 5 13 25
f 5 25 11
f 6 11 14
f 6 14 7
f 7 14 15
f 7 15 8
f 8 15 16
f 8 16 17
f 8 17 18
f 8 18 19
f 8 19 20
f 8 20 34
f 8 34 33
f 8 33 54
f 8 54 72
f 8 72 90
f 8 90 93
f 8 93 74
f 8 74 56
f 8 56 38
f 8 38 35
f 8 35 21
f 9 21 35
f 9 35 22
f 10 22 23
f 10 23 24
f 11 25 14
f 12 26 13
f 13 26 27
f 13 27 45
f 13 45 25
f 14 25 28
f 14 28 15
f 15 28 17
f 15 17 16
f 17 28 29
f 17 29 19
f 17 19 18
f 19 30 31
f 19 31 32
f 19 32 33
f 19 33 34
f 19 34 20
f 19 29 30
f 22 35 23
f 23 36 37
f 23 37 24
f 23 35 38
f 23 38 39
f 23 39 40
f 23 40 41
f 23 41 42
f 23 42 43
f 23 43 44
f 23 44 36
f 25 45 46
f 25 46 29
f 25 29 28
f 27 47 45
f 29 46 48
f 29 48 49
f 29 49 30
f 30 49 31
f 31 49 50
f 31 50 51
f 31 51 52
f 31 52 53
f 31 53 54
f 31 54 33
f 31 33 32
f 36 44 61
f 36 61 55
f 38 56 57
f 38 57 58
f 38 58 39
f 39 58 40
f 40 58 59
f 40 59 41
f 41 59 42
f 42 59 43
f 43 59 60
f 43 60 44
f 44 60 61
f 45 47 62
f 45 62 63
f 45 63 46
f 46 63 48
f 47 64 63
f 47 63 62
f 48 63 65
f 48 65 49
f 49 65 66
f 49 66 67
f 49 67 68
f 49 68 50
f 50 68 51
f 51 68 52
f 52 68 69
f 52 69 53
f 53 70 71
f 53 71 72
f 53 72 54
f 53 69 70
f 55 61 80
f 55 80 73
f 56 74 75
f 56 75 76
f 56 76 57
f 57 76 77
f 57 77 58
f 58 77 78
f 58 78 59
f 59 78 79
f 59 79 60
f 60 79 61
f 61 79 80
f 63 81 82
f 63 82 65
f 63 64 81
f 64 83 81
f 65 82 84
f 65 84 66
f 66 84 82
f 66 82 85
f 66 85 67
f 67 86 87
f 67 87 68
f 67 85 86
f 68 88 69
f 68 87 88
f 69 88 70
f 70 88 89
f 70 89 77
f 70 77 71
f 71 77 75
f 71 75 90
f 71 90 72
f 73 80 79
f 73 79 91
f 73 91 92
f 74 93 75
f 75 77 76
f 75 93 90
f 77 89 78
f 78 89 79
f 79 89 94
f 79 94 91
f 81 83 82
f 82 95 85
f 82 83 95
f 85 95 96
f 85 96 97
f 85 97 86
f 86 97 98
f 86 98 87
f 87 98 99
f 87 99 100
f 87 100 88
f 88 100 101
f 88 101 89
f 89 101 102
f 89 102 92
f 89 92 94
f 91 94 92
f 92 102 103
f 95 104 96
f 96 104 97
f 97 105 98
f 98 105 106
f 98 106 99
f 99 106 100
f 100 107 101
f 100 106 107
f 101 107 102
f 102 107 103

