# https://github.com/mikedh/trimesh
v -1.79695507 0.42444830 1.86088725
v -1.81407477 0.40734797 1.85948108
v -1.79695507 0.40714679 1.86073659
v -1.77562933 0.44022659 1.80292044
v -1.77562933 0.45706828 1.80292044
v -1.79695507 0.44088764 1.85772338
v -1.81551192 0.56366525 1.84261961
v -1.83143753 0.54627753 1.85127006
v -1.83143753 0.52888975 1.85237491
v -1.81407477 0.42470695 1.85959407
v -1.82931344 0.40734797 1.85681939
v -1.86618429 0.33811310 1.84696366
v -1.79695507 0.39429998 1.85745971
v -1.77562933 0.36728430 1.77021446
v -1.77562933 0.45712575 1.80106228
v -1.79599337 0.59841201 1.73264965
v -1.79746232 0.60781005 1.73264965
v -1.79901578 0.61577104 1.73264965
v -1.80024156 0.61577104 1.74206595
v -1.79895229 0.59841201 1.75944220
v -1.80056923 0.58102429 1.79418210
v -1.80359153 0.58065063 1.81096825
v -1.80466942 0.57461525 1.82258170
v -1.80347533 0.56366525 1.82608456
v -1.80555717 0.55349126 1.83725859
v -1.80682531 0.56366525 1.83476012
v -1.81871401 0.57602351 1.84025925
v -1.83143753 0.56366525 1.84810618
v -1.84588363 0.56366525 1.84309670
v -1.84880029 0.52888975 1.84756631
v -1.82953538 0.42470695 1.85688218
v -1.87847450 0.33811310 1.84140176
v -1.84965635 0.33811310 1.84304648
v -1.83821142 0.42470695 1.85417029
v -1.79695507 0.38677007 1.84600948
v -1.77562933 0.35802995 1.76037127
v -1.84112819 0.33811310 1.83262576
v -1.77562933 0.45729824 1.79418210
v -1.77562933 0.45821788 1.74206595
v -1.77562933 0.45833284 1.73264965
v -1.80144631 0.62502534 1.73264965
v -1.80475403 0.62525525 1.75226068
v -1.80536692 0.60712027 1.78553166
v -1.80164712 0.59841201 1.77680587
v -1.80414104 0.59729114 1.79246206
v -1.80472234 0.59177306 1.80293300
v -1.80482798 0.59076714 1.80480370
v -1.80740651 0.58619750 1.81637949
v -1.81306026 0.58108176 1.82892201
v -1.81899932 0.59217540 1.82367399
v -1.83143753 0.58674354 1.83428303
v -1.83143753 0.57803528 1.84185374
v -1.84353760 0.57631089 1.84062335
v -1.86021353 0.54015588 1.83901630
v -1.86235875 0.52888975 1.84003326
v -1.87480752 0.46761593 1.83754735
v -1.87516678 0.45603367 1.83792400
v -1.87606509 0.42470695 1.83885309
v -1.87656179 0.40734797 1.83936784
v -1.87753404 0.37257247 1.84039735
v -1.88358931 0.33811310 1.82892201
v -1.87800950 0.35521343 1.84089956
v -1.83910974 0.33811310 1.82367399
v -1.83910974 0.33811310 1.81865195
v -1.77562933 0.35823118 1.74240494
v -1.77562933 0.43982425 1.73264965
v -1.80309484 0.63048594 1.73264965
v -1.80455322 0.63172177 1.73264965
v -1.80883320 0.63172177 1.74199063
v -1.81436008 0.63172177 1.75130650
v -1.81449741 0.62818673 1.75861357
v -1.82057391 0.62562886 1.77022702
v -1.81541685 0.60959192 1.79246206
v -1.82176810 0.60758009 1.80293300
v -1.82209567 0.60746513 1.80347285
v -1.83143753 0.59352624 1.82560747
v -1.84308316 0.59234789 1.82395021
v -1.84664451 0.58165654 1.82941166
v -1.87577978 0.53866140 1.82260680
v -1.87104536 0.52888975 1.83335396
v -1.87232406 0.51153077 1.83481035
v -1.87329632 0.49417173 1.83590263
v -1.87659348 0.52888975 1.82467840
v -1.87714299 0.51153077 1.82613479
v -1.87752338 0.49417173 1.82722708
v -1.87919313 0.44206599 1.82892201
v -1.87994345 0.42470695 1.82892201
v -1.88141240 0.38993145 1.82892201
v -1.87752338 0.49417173 1.81464688
v -1.87787218 0.47678401 1.81432045
v -1.87818919 0.45945371 1.81406935
v -1.87848507 0.44206599 1.81388103
v -1.87873870 0.42470695 1.81376803
v -1.87898176 0.40734797 1.81370526
v -1.87972151 0.35521343 1.81366759
v -1.88001740 0.33811310 1.81394380
v -1.87659348 0.52888975 1.81610327
v -1.87714299 0.51153077 1.81512398
v -1.84909618 0.33811310 1.81026516
v -1.77562933 0.36027169 1.73724480
v -1.86641679 0.33811310 1.80541889
v -1.77562933 0.37260116 1.73296353
v -1.81638910 0.39280545 1.73264965
v -1.84858892 0.63172177 1.73264965
v -1.83002150 0.63172177 1.75936686
v -1.83142697 0.63172177 1.76005740
v -1.83142697 0.62603126 1.77098031
v -1.83142697 0.62126039 1.77965587
v -1.83142697 0.61315570 1.79418210
v -1.83143753 0.60818366 1.80293300
v -1.83143753 0.60766630 1.80381184
v -1.83143753 0.60220570 1.81249997
v -1.84070545 0.60749387 1.80351052
v -1.84086400 0.60766630 1.80293300
v -1.84327341 0.61008048 1.79418210
v -1.84491137 0.59823957 1.81020240
v -1.87577978 0.53866140 1.81794887
v -1.84577800 0.61617339 1.77609022
v -1.85073424 0.61577104 1.75944220
v -1.85355584 0.61577104 1.73264965
v -1.85413704 0.59841201 1.73264965
v -1.85429559 0.58102429 1.73264965
v -1.85431672 0.56363651 1.73264965
v -1.85431672 0.49414299 1.73264965
v -1.85401017 0.48480248 1.73264965
v -1.85374598 0.47684149 1.73264965
v -1.85096674 0.40731923 1.73264965
v -1.84812402 0.39927197 1.73264965
v -1.84567226 0.39246058 1.73264965
v -1.83142697 0.38662637 1.73264965
v -1.77562933 0.36541622 1.73405582
v -1.82451564 0.38944289 1.73264965
v -1.84659170 0.63172177 1.74146331
v -1.83190253 0.63172177 1.75994441
v -1.84140295 0.62537021 1.76981268
v -1.84388630 0.62801429 1.75944220
v -1.84511218 0.63172177 1.74765298
v -1.83975432 0.63172177 1.75475916
f 1 2 3
f 1 3 4
f 1 4 5
f 1 5 6
f 1 6 7
f 1 7 8
f 1 8 9
f 1 9 10
f 1 10 2
f 2 10 11
f 2 11 12
f 2 12 3
f 3 12 13
f 3 13 4
f 4 13 14
f 4 14 36
f 4 36 65
f 4 65 100
f 4 100 131
f 4 131 102
f 4 102 66
f 4 66 40
f 4 40 39
f 4 39 38
f 4 38 15
f 4 15 5
f 5 15 16
f 5 16 17
f 5 17 18
f 5 18 19
f 5 19 20
f 5 20 21
f 5 21 22
f 5 22 23
f 5 23 24
f 5 24 25
f 5 25 6
f 6 25 7
f 7 25 26
f 7 26 27
f 7 27 28
f 7 28 8
f 8 28 29
f 8 29 30
f 8 30 9
f 9 30 31
f 9 31 10
f 10 31 11
f 11 31 12
f 12 32 61
f 12 61 96
f 12 96 101
f 12 101 99
f 12 99 64
f 12 64 63
f 12 63 37
f 12 37 33
f 12 33 13
f 12 31 34
f 12 34 30
f 12 30 32
f 13 35 36
f 13 36 14
f 13 33 37
f 13 37 35
f 15 38 16
f 16 38 39
f 16 39 40
f 16 40 66
f 16 66 103
f 16 103 132
f 16 132 130
f 16 130 129
f 16 129 128
f 16 128 127
f 16 127 126
f 16 126 125
f 16 125 124
f 16 124 123
f 16 123 122
f 16 122 121
f 16 121 120
f 16 120 104
f 16 104 68
f 16 68 67
f 16 67 41
f 16 41 18
f 16 18 17
f 18 41 19
f 19 41 42
f 19 42 43
f 19 43 44
f 19 44 20
f 20 44 21
f 21 44 45
f 21 45 46
f 21 46 47
f 21 47 22
f 22 47 23
f 23 47 48
f 23 48 49
f 23 49 26
f 23 26 24
f 24 26 25
f 26 49 27
f 27 49 50
f 27 50 51
f 27 51 52
f 27 52 28
f 28 52 53
f 28 53 29
f 29 54 55
f 29 55 30
f 29 53 54
f 30 55 56
f 30 56 57
f 30 57 58
f 30 58 59
f 30 59 60
f 30 60 32
f 30 34 31
f 32 60 62
f 32 62 61
f 35 37 36
f 36 37 63
f 36 63 64
f 36 64 65
f 41 67 42
f 42 67 68
f 42 68 69
f 42 69 70
f 42 70 71
f 42 71 43
f 43 71 72
f 43 72 73
f 43 73 74
f 43 74 75
f 43 75 50
f 43 50 48
f 43 48 47
f 43 47 46
f 43 46 45
f 43 45 44
f 48 50 49
f 50 76 51
f 50 75 76
f 51 76 77
f 51 77 53
f 51 53 52
f 53 77 78
f 53 78 79
f 53 79 80
f 53 80 54
f 54 80 55
f 55 80 81
f 55 81 82
f 55 82 56
f 56 82 81
f 56 81 83
f 56 83 84
f 56 84 85
f 56 85 86
f 56 86 57
f 57 86 87
f 57 87 88
f 57 88 61
f 57 61 58
f 58 61 59
f 59 61 60
f 60 61 62
f 61 89 90
f 61 90 91
f 61 91 92
f 61 92 93
f 61 93 94
f 61 94 95
f 61 95 96
f 61 88 84
f 61 84 83
f 61 83 97
f 61 97 98
f 61 98 89
f 64 99 65
f 65 99 101
f 65 101 100
f 66 102 103
f 68 104 133
f 68 133 137
f 68 137 138
f 68 138 134
f 68 134 106
f 68 106 105
f 68 105 70
f 68 70 69
f 70 105 72
f 70 72 71
f 72 105 106
f 72 106 107
f 72 107 75
f 72 75 74
f 72 74 73
f 75 107 108
f 75 108 109
f 75 109 110
f 75 110 111
f 75 111 112
f 75 112 76
f 76 112 113
f 76 113 77
f 77 113 114
f 77 114 115
f 77 115 116
f 77 116 79
f 77 79 78
f 79 117 97
f 79 97 83
f 79 83 80
f 79 116 118
f 79 118 119
f 79 119 104
f 79 104 120
f 79 120 117
f 80 83 81
f 84 88 87
f 84 87 85
f 85 87 86
f 89 98 121
f 89 121 90
f 90 121 91
f 91 121 92
f 92 121 93
f 93 121 94
f 94 121 95
f 95 121 96
f 96 121 122
f 96 122 123
f 96 123 124
f 96 124 125
f 96 125 126
f 96 126 127
f 96 127 128
f 96 128 129
f 96 129 101
f 97 117 120
f 97 120 98
f 98 120 121
f 100 130 131
f 100 101 130
f 101 129 130
f 102 131 130
f 102 130 132
f 102 132 103
f 104 119 133
f 106 134 107
f 107 135 113
f 107 113 108
f 107 134 135
f 108 113 109
f 109 113 110
f 110 113 111
f 111 113 112
f 113 135 114
f 114 135 115
f 115 135 136
f 115 136 118
f 115 118 116
f 118 136 119
f 119 136 137
f 119 137 133
f 134 138 135
f 135 138 136
f 136 138 137

