# https://github.com/mikedh/trimesh
v -5.34124951 0.68483275 0.89709856
v -5.20227884 0.66068900 0.96120873
v -5.32689496 0.68458161 0.89709856
v -5.39327328 0.68382829 0.89709856
v -5.19346370 0.50133316 0.98211027
v -5.18749056 0.65989979 0.96120873
v -5.32386013 0.68450989 0.89709856
v -5.54968160 0.65394457 0.96120873
v -5.34264659 0.50133316 0.98211027
v -5.39630811 0.68372064 0.89709856
v -5.16817428 0.39622005 0.98257879
v -5.16749987 0.39618416 0.98257879
v -5.13276937 0.39374467 0.98257879
v -5.11605440 0.39213032 0.98257879
v -5.16928220 0.64877861 0.96120873
v -5.18002424 0.65785493 0.96120873
v -5.17617064 0.65921814 0.95151941
v -5.18585281 0.66000740 0.95845590
v -5.23700954 0.67783718 0.89709856
v -5.25439892 0.68024079 0.89709856
v -5.27174004 0.68156817 0.89709856
v -5.30647075 0.68354126 0.89709856
v -5.31032436 0.68375652 0.89709856
v -5.41143339 0.68318252 0.89709856
v -5.41230042 0.68314663 0.89709856
v -5.42805204 0.68185514 0.89709856
v -5.43522942 0.68106594 0.89709856
v -5.48017213 0.67607929 0.89709856
v -5.49756151 0.67295819 0.89709856
v -5.56702293 0.65053645 0.96017123
v -5.56697467 0.65035707 0.96120873
v -5.54390129 0.50133316 0.97811903
v -5.58682078 0.39787028 0.97811903
v -5.34264659 0.37390595 0.98211027
v -5.16817428 0.37250681 0.98257879
v -5.11605440 0.37160995 0.98257879
v -5.11605440 0.49254386 0.94677516
v -5.16220134 0.63460804 0.96120873
v -5.16836711 0.64971130 0.95729288
v -5.15878126 0.64185475 0.95148596
v -5.12294263 0.63188157 0.89709856
v -5.18488946 0.66854560 0.89709856
v -5.14914714 0.65082347 0.89709856
v -5.16118973 0.65878768 0.89709856
v -5.16624758 0.66180112 0.89709856
v -5.17087190 0.66420473 0.89709856
v -5.51658886 0.66761286 0.89709856
v -5.56779365 0.65154096 0.89709856
v -5.57930620 0.64540637 0.89709856
v -5.56798628 0.64989073 0.96120873
v -5.54968160 0.65735265 0.89709856
v -5.56702293 0.65182794 0.89709856
v -5.57689772 0.64407899 0.96120873
v -5.60811203 0.50136905 0.94028213
v -5.58682078 0.36809417 0.97811903
v -5.12775958 0.36981622 0.98257879
v -5.13276937 0.37010320 0.98257879
v -5.11605440 0.36891936 0.98237798
v -5.11605440 0.50133316 0.94354542
v -5.11605440 0.50133316 0.89709856
v -5.58730256 0.63729867 0.89709856
v -5.59640664 0.62779184 0.89709856
v -5.60512546 0.61839266 0.89709856
v -5.60695584 0.61573790 0.89709856
v -5.60811203 0.61394418 0.89709856
v -5.60811203 0.61139708 0.89846239
v -5.60811203 0.56465221 0.92328816
v -5.60811203 0.54624842 0.92891933
v -5.60811203 0.50136905 0.89709856
v -5.58682078 0.31941208 0.89709856
v -5.58441231 0.31916094 0.89709856
v -5.15015875 0.31833585 0.89709856
v -5.11605440 0.32206684 0.89709856
f 1 2 3
f 1 3 7
f 1 7 23
f 1 23 22
f 1 22 21
f 1 21 20
f 1 20 19
f 1 19 42
f 1 42 46
f 1 46 45
f 1 45 44
f 1 44 43
f 1 43 41
f 1 41 60
f 1 60 73
f 1 73 72
f 1 72 71
f 1 71 70
f 1 70 69
f 1 69 65
f 1 65 64
f 1 64 63
f 1 63 62
f 1 62 61
f 1 61 49
f 1 49 48
f 1 48 52
f 1 52 51
f 1 51 47
f 1 47 29
f 1 29 28
f 1 28 27
f 1 27 26
f 1 26 25
f 1 25 24
f 1 24 10
f 1 10 4
f 1 4 2
f 2 5 6
f 2 6 7
f 2 7 3
f 2 4 8
f 2 8 9
f 2 9 5
f 4 10 8
f 5 11 12
f 5 12 13
f 5 13 14
f 5 14 15
f 5 15 16
f 5 16 6
f 5 9 11
f 6 16 17
f 6 17 18
f 6 18 19
f 6 19 20
f 6 20 21
f 6 21 22
f 6 22 23
f 6 23 7
f 8 10 24
f 8 24 25
f 8 25 26
f 8 26 27
f 8 27 28
f 8 28 29
f 8 29 30
f 8 30 31
f 8 31 32
f 8 32 9
f 9 32 33
f 9 33 55
f 9 55 34
f 9 34 35
f 9 35 11
f 11 35 57
f 11 57 56
f 11 56 36
f 11 36 14
f 11 14 13
f 11 13 12
f 14 36 58
f 14 58 73
f 14 73 60
f 14 60 59
f 14 59 37
f 14 37 38
f 14 38 15
f 15 39 17
f 15 17 16
f 15 38 40
f 15 40 41
f 15 41 39
f 17 42 18
f 17 39 41
f 17 41 43
f 17 43 44
f 17 44 45
f 17 45 46
f 17 46 42
f 18 42 19
f 29 47 30
f 30 48 49
f 30 49 50
f 30 50 31
f 30 47 51
f 30 51 52
f 30 52 48
f 31 50 32
f 32 50 53
f 32 53 33
f 33 53 54
f 33 54 55
f 34 55 56
f 34 56 57
f 34 57 35
f 36 56 58
f 37 59 38
f 38 59 41
f 38 41 40
f 41 59 60
f 49 61 53
f 49 53 50
f 53 61 62
f 53 62 63
f 53 63 64
f 53 64 65
f 53 65 66
f 53 66 67
f 53 67 68
f 53 68 54
f 54 68 67
f 54 67 66
f 54 66 65
f 54 65 69
f 54 69 70
f 54 70 55
f 55 70 71
f 55 71 58
f 55 58 56
f 58 72 73
f 58 71 72

