# https://github.com/mikedh/trimesh
v -4.22287002 0.86279930 3.29039302
v -4.10759850 0.77850192 3.26316385
v -4.11352649 0.77910207 3.26316385
v -4.11586781 0.77933292 3.26316385
v -4.37331079 0.86279930 3.29039302
v -4.22491240 0.86279930 3.29202767
v -4.11591762 0.86252232 3.37993378
v -4.11591762 0.86252232 3.37530417
v -3.96223888 0.86099887 3.36370152
v -3.96223888 0.86026023 3.35792867
v -3.96223888 0.85564372 3.34055327
v -3.96223888 0.85416644 3.33650662
v -3.96223888 0.85153504 3.32945352
v -3.96223888 0.84991927 3.32628706
v -3.96223888 0.84701086 3.32077726
v -3.96223888 0.83828567 3.30823715
v -3.96223888 0.83011444 3.29954940
v -3.96223888 0.82143544 3.29245063
v -3.96223888 0.80827840 3.28376287
v -3.96223888 0.79959935 3.27909899
v -3.96223888 0.78948920 3.27456072
v -3.98958721 0.76626820 3.26316385
v -3.99486761 0.76682216 3.26316385
v -4.11586781 0.39981013 3.26316385
v -4.47109719 0.82097376 3.29039302
v -4.37928849 0.86270698 3.29039302
v -4.37923867 0.86279930 3.29047308
v -4.23387905 0.86279930 3.29855488
v -4.24274607 0.86279930 3.30364182
v -4.24732908 0.86279930 3.30621383
v -4.28135255 0.86279930 3.32096016
v -4.28229912 0.86279930 3.32133734
v -4.29863836 0.86279930 3.32477814
v -4.31602370 0.86279930 3.32540687
v -4.47109719 0.86252232 3.37993378
v -4.11591762 0.39759418 3.37993378
v -3.96223888 0.39939464 3.36370152
v -3.96223888 0.77213115 3.26763345
v -3.96861514 0.77213115 3.26711905
v -3.98096926 0.76419077 3.26316385
v -4.11586781 0.39930231 3.26482139
v -4.47109719 0.39403951 3.29039302
v -4.00333612 0.39981013 3.26316385
v -4.47109719 0.82208173 3.29126182
v -4.47109719 0.83076076 3.29912645
v -4.47109719 0.83796250 3.30718546
v -4.37535317 0.86279930 3.29558281
v -4.47109719 0.83851649 3.30783708
v -4.47109719 0.84724168 3.32051432
v -4.47109719 0.85162737 3.32919057
v -4.47109719 0.85545907 3.33971875
v -4.47109719 0.85573605 3.34055327
v -4.47109719 0.85989090 3.35664841
v -4.47109719 0.86021407 3.35791728
v -4.47109719 0.86252232 3.37530417
v -4.33340905 0.86279930 3.32462952
v -4.35199003 0.86279930 3.32170312
v -4.47109719 0.39888686 3.37993378
v -4.38551536 0.39800968 3.37993378
v -4.47109719 0.39288535 3.34055327
v -4.11586781 0.39283921 3.34055327
v -4.00333612 0.39283921 3.34055327
v -3.98600054 0.39662472 3.35718570
v -3.98600054 0.39833285 3.36370152
v -3.97270001 0.39537828 3.32317777
v -3.97284945 0.39542442 3.30582515
v -3.96223888 0.40244153 3.30837437
v -3.98600054 0.39353169 3.34055327
v -3.98600054 0.39163896 3.32317777
v -3.96223888 0.76017441 3.26348386
v -3.96886421 0.76114387 3.26316385
v -4.11586781 0.39708641 3.27350914
v -4.00333612 0.39930231 3.26482139
v -4.47109719 0.39177742 3.30582515
v -4.11586781 0.39560913 3.28132809
v -4.11586781 0.39427031 3.28844975
v -4.11586781 0.39293154 3.29754896
v -3.98869055 0.39994860 3.26316385
v -3.98600054 0.39939464 3.26493572
v -4.40290070 0.39805587 3.37993378
v -4.47109719 0.39117727 3.32320065
v -4.00333612 0.39122346 3.32317777
v -4.40290070 0.39117727 3.32320065
v -4.11586781 0.39205441 3.33226559
v -3.97419443 0.39657859 3.28844975
v -3.96223888 0.40387263 3.29240495
v -3.98600054 0.39196208 3.30582515
v -3.96223888 0.75920495 3.26316385
v -4.00333612 0.39708641 3.27350914
v -3.98600054 0.39713260 3.27362337
v -4.11586781 0.39173123 3.30582515
v -4.00333612 0.39427031 3.28844975
v -4.00333612 0.39173123 3.30582515
v -3.98600054 0.39999479 3.26316385
v -3.97573867 0.39768656 3.27574963
v -3.96223888 0.40604239 3.27749862
v -3.96223888 0.40442664 3.28844975
v -3.98600054 0.39436268 3.28844975
v -3.96223888 0.40987414 3.26316385
v -3.97658551 0.40359570 3.26316385
v -3.96861514 0.40678106 3.26316385
v -3.96467983 0.40867384 3.26316385
v -3.96223888 0.40733507 3.27066269
f 1 2 3
f 1 3 4
f 1 4 5
f 1 5 27
f 1 27 47
f 1 47 57
f 1 57 56
f 1 56 34
f 1 34 33
f 1 33 32
f 1 32 31
f 1 31 30
f 1 30 29
f 1 29 28
f 1 28 6
f 1 6 7
f 1 7 8
f 1 8 9
f 1 9 10
f 1 10 11
f 1 11 12
f 1 12 13
f 1 13 14
f 1 14 15
f 1 15 16
f 1 16 17
f 1 17 18
f 1 18 19
f 1 19 20
f 1 20 21
f 1 21 22
f 1 22 23
f 1 23 2
f 2 23 22
f 2 22 40
f 2 40 71
f 2 71 88
f 2 88 99
f 2 99 102
f 2 102 101
f 2 101 100
f 2 100 94
f 2 94 78
f 2 78 43
f 2 43 24
f 2 24 4
f 2 4 3
f 4 24 42
f 4 42 25
f 4 25 26
f 4 26 5
f 5 26 27
f 6 28 7
f 7 28 29
f 7 29 30
f 7 30 31
f 7 31 32
f 7 32 33
f 7 33 34
f 7 34 35
f 7 35 58
f 7 58 80
f 7 80 59
f 7 59 36
f 7 36 37
f 7 37 9
f 7 9 8
f 9 37 67
f 9 67 86
f 9 86 97
f 9 97 96
f 9 96 103
f 9 103 99
f 9 99 88
f 9 88 70
f 9 70 38
f 9 38 21
f 9 21 20
f 9 20 19
f 9 19 18
f 9 18 17
f 9 17 16
f 9 16 15
f 9 15 14
f 9 14 13
f 9 13 12
f 9 12 11
f 9 11 10
f 21 38 39
f 21 39 22
f 22 39 38
f 22 38 40
f 24 41 42
f 24 43 73
f 24 73 41
f 25 42 74
f 25 74 81
f 25 81 60
f 25 60 58
f 25 58 35
f 25 35 55
f 25 55 54
f 25 54 53
f 25 53 52
f 25 52 51
f 25 51 50
f 25 50 49
f 25 49 48
f 25 48 46
f 25 46 45
f 25 45 44
f 25 44 26
f 26 44 45
f 26 45 46
f 26 46 27
f 27 46 48
f 27 48 49
f 27 49 50
f 27 50 51
f 27 51 52
f 27 52 53
f 27 53 54
f 27 54 55
f 27 55 35
f 27 35 47
f 34 56 35
f 35 56 57
f 35 57 47
f 36 59 60
f 36 60 61
f 36 61 62
f 36 62 63
f 36 63 64
f 36 64 37
f 37 65 66
f 37 66 67
f 37 64 63
f 37 63 68
f 37 68 69
f 37 69 65
f 38 70 71
f 38 71 40
f 41 72 42
f 41 73 89
f 41 89 72
f 42 72 75
f 42 75 76
f 42 76 77
f 42 77 74
f 43 78 79
f 43 79 73
f 58 60 80
f 59 80 60
f 60 81 61
f 61 81 83
f 61 83 62
f 62 82 69
f 62 69 68
f 62 68 63
f 62 83 84
f 62 84 82
f 65 69 66
f 66 85 86
f 66 86 67
f 66 69 87
f 66 87 85
f 69 82 87
f 70 88 71
f 72 89 75
f 73 79 90
f 73 90 89
f 74 77 91
f 74 91 81
f 75 89 92
f 75 92 76
f 76 92 77
f 77 92 93
f 77 93 91
f 78 94 79
f 79 94 95
f 79 95 90
f 81 91 93
f 81 93 83
f 82 93 87
f 82 84 83
f 82 83 93
f 85 95 96
f 85 96 97
f 85 97 86
f 85 87 95
f 87 98 95
f 87 93 98
f 89 90 92
f 90 95 98
f 90 98 92
f 92 98 93
f 94 100 95
f 95 100 101
f 95 101 102
f 95 102 99
f 95 99 103
f 95 103 96

