# https://github.com/mikedh/trimesh
v -3.71022160 0.37256159 2.83317049
v -3.81085247 0.40169681 2.83343012
v -3.81085247 0.40644764 2.83317049
v -3.69323780 0.37256159 2.83317049
v -3.71059155 0.37256159 3.36370162
v -3.81085247 0.39820640 3.36313026
v -3.81085247 0.85244410 2.83317049
v -3.69274067 0.58164665 2.83317049
v -3.69323780 0.37256159 3.36370162
v -3.81085247 0.39820640 3.36370162
v -3.81074844 0.85254103 2.83317049
v -3.81085247 0.85244410 2.90619315
v -3.69274067 0.85763121 2.83317049
v -3.69274067 0.58179211 2.95833736
v -3.69274067 0.58217995 3.16681036
v -3.69274067 0.58237382 3.25229784
v -3.69274067 0.58261621 3.35793664
v -3.69274067 0.58266473 3.36370162
v -3.69274067 0.58188904 3.02782840
v -3.69274067 0.58198603 3.07997262
v -3.81085247 0.85094128 3.36370162
v -3.80896798 0.85380148 2.83317049
v -3.80894483 0.85370452 2.90619315
v -3.80899107 0.85370452 2.88884638
v -3.81085247 0.85239560 2.92359185
v -3.70795555 0.86252750 2.83317049
v -3.69633627 0.85879470 3.36370162
v -3.69274067 0.85763121 3.36370162
v -3.80763837 0.85312278 3.36370162
v -3.80769622 0.85317127 3.34053794
v -3.79481672 0.86063684 2.85410087
v -3.79481672 0.86063684 2.83317049
v -3.79481672 0.86034598 3.06257391
v -3.79481672 0.85981273 3.35793664
v -3.79481672 0.86010359 3.20155588
v -3.79481672 0.86020055 3.14941166
v -3.72533242 0.86567855 2.83317049
v -3.70795555 0.86252750 3.36370162
v -3.79905978 0.85758275 3.36370162
v -3.77743987 0.86529073 2.95833736
v -3.77743987 0.86533920 2.85410087
v -3.79124424 0.86160640 2.83317049
v -3.77743987 0.86509681 3.34053794
v -3.77743987 0.86514530 3.25364821
v -3.79481672 0.85976424 3.36370162
v -3.78320905 0.86330314 3.36370162
v -3.77743987 0.86504834 3.36370162
v -3.73794596 0.86703594 2.83317049
v -3.73060444 0.86626030 3.36370162
v -3.72533242 0.86567855 3.36370162
v -3.76090702 0.86708441 3.36370162
v -3.76097635 0.86713290 2.90619315
v -3.76098795 0.86713290 2.85410087
v -3.77743987 0.86533920 2.83317049
v -3.76093011 0.86713290 3.06257391
v -3.76094166 0.86713290 3.02782840
v -3.74120630 0.86737526 2.83317049
v -3.74120630 0.86737526 2.85410087
v -3.74122940 0.86737526 3.36370162
v -3.75802821 0.86732680 3.36370162
v -3.75230528 0.86781158 2.83317049
v -3.76098795 0.86713290 2.83317049
v -3.74299832 0.86747223 2.83317049
v -3.74703326 0.86766615 3.36370162
v -3.75221279 0.86776311 3.36370162
v -3.74990048 0.86781158 2.83317049
v -3.74991207 0.86776311 3.36370162
f 1 2 3
f 1 3 7
f 1 7 11
f 1 11 22
f 1 22 32
f 1 32 42
f 1 42 54
f 1 54 62
f 1 62 61
f 1 61 66
f 1 66 63
f 1 63 57
f 1 57 48
f 1 48 37
f 1 37 26
f 1 26 13
f 1 13 8
f 1 8 4
f 1 4 9
f 1 9 5
f 1 5 6
f 1 6 2
f 2 6 10
f 2 10 21
f 2 21 25
f 2 25 12
f 2 12 7
f 2 7 3
f 4 8 9
f 5 9 18
f 5 18 28
f 5 28 27
f 5 27 38
f 5 38 50
f 5 50 49
f 5 49 59
f 5 59 64
f 5 64 67
f 5 67 65
f 5 65 60
f 5 60 51
f 5 51 47
f 5 47 46
f 5 46 45
f 5 45 39
f 5 39 29
f 5 29 21
f 5 21 10
f 5 10 6
f 7 12 11
f 8 13 28
f 8 28 18
f 8 18 17
f 8 17 16
f 8 16 15
f 8 15 20
f 8 20 19
f 8 19 14
f 8 14 9
f 9 15 16
f 9 16 17
f 9 17 18
f 9 14 19
f 9 19 20
f 9 20 15
f 11 12 22
f 12 23 24
f 12 24 22
f 12 25 23
f 13 26 27
f 13 27 28
f 21 29 30
f 21 30 25
f 22 31 32
f 22 24 23
f 22 23 33
f 22 33 31
f 23 25 30
f 23 30 34
f 23 34 35
f 23 35 36
f 23 36 33
f 26 37 50
f 26 50 38
f 26 38 27
f 29 39 34
f 29 34 30
f 31 40 41
f 31 41 42
f 31 42 32
f 31 33 43
f 31 43 44
f 31 44 40
f 33 36 43
f 34 39 45
f 34 45 46
f 34 46 47
f 34 47 43
f 34 43 35
f 35 43 36
f 37 48 49
f 37 49 50
f 40 44 51
f 40 51 41
f 41 52 53
f 41 53 62
f 41 62 54
f 41 54 42
f 41 51 55
f 41 55 56
f 41 56 52
f 43 47 51
f 43 51 44
f 48 57 58
f 48 58 59
f 48 59 49
f 51 60 55
f 52 61 53
f 52 56 61
f 53 61 62
f 55 61 56
f 55 60 61
f 57 63 58
f 58 63 59
f 59 63 64
f 60 65 61
f 61 65 67
f 61 67 66
f 63 66 64
f 64 66 67

