# https://github.com/mikedh/trimesh
v -2.03972007 0.37255559 2.50235832
v -2.03972007 0.39098107 2.50498920
v -2.03972007 0.37042539 2.50260216
v -2.35155005 0.37218473 2.56111032
v -2.03972007 0.39167759 2.50516888
v -2.35155005 0.38781068 2.56351020
v -2.03972007 0.35960712 2.50782540
v -2.35155005 0.37091835 2.56167500
v -2.36841902 0.35869804 2.58133600
v -2.37431490 0.37256460 2.58133600
v -2.37215312 0.38991369 2.58133600
v -2.03972007 0.39928025 2.51123911
v -2.35155005 0.39577964 2.56847680
v -2.37156353 0.39134743 2.58133600
v -2.36658470 0.39961036 2.58133600
v -2.03972007 0.35654526 2.52055633
v -2.35155005 0.35761715 2.57390540
v -2.35155005 0.35792017 2.57313536
v -2.36475038 0.35702921 2.58133600
v -2.36651915 0.35870705 2.63346592
v -2.36858276 0.36301271 2.63346592
v -2.37218584 0.37256460 2.63346592
v -2.36920507 0.38991369 2.63346592
v -2.03998209 0.39931640 2.51152148
v -2.03972007 0.39948826 2.51802808
v -2.35155005 0.39989532 2.57653628
v -2.36353848 0.39980941 2.63346592
v -2.35263094 0.40045161 2.59343809
v -2.35272923 0.40005812 2.58133600
v -2.03972007 0.35586226 2.52393152
v -2.03998209 0.35580354 2.52394436
v -2.35263094 0.35424770 2.59343809
v -2.35263094 0.35534216 2.61078904
v -2.35263094 0.35711963 2.62816563
v -2.35227065 0.35786135 2.63346592
v -2.03972007 0.39966012 2.52438073
v -2.35263094 0.40018928 2.61078904
v -2.35407214 0.39973702 2.63346592
v -2.09808992 0.40004455 2.58133600
v -2.09258696 0.40002648 2.57554808
v -2.07499739 0.39994052 2.55840244
v -2.05730954 0.39981842 2.54132100
v -2.03972007 0.36039400 2.53722708
v -2.03998209 0.36033072 2.53732976
v -2.09203020 0.35791106 2.58133600
v -2.11027481 0.35682116 2.58133600
v -2.34339400 0.36301727 2.63346592
v -2.14676423 0.37256460 2.59878964
v -2.03972007 0.39965562 2.52480420
v -2.34660395 0.39361780 2.63346592
v -2.14676423 0.38734935 2.59561976
v -2.14676423 0.38991369 2.59499092
v -2.09442128 0.39996315 2.58133600
v -2.03972007 0.37255559 2.54183432
v -2.08272769 0.37255559 2.58133600
v -2.07827290 0.36011365 2.57216004
v -2.34290259 0.36746750 2.63346592
v -2.34277158 0.37256460 2.63346592
v -2.08678936 0.38992275 2.58133600
v -2.34483519 0.38891870 2.63346592
v -2.34339400 0.38508799 2.63346592
v -2.03972007 0.39006298 2.53803560
v -2.04502637 0.39942498 2.53553309
v -2.08099165 0.39942498 2.56941364
v -2.03972007 0.38929863 2.53840776
v -2.03972007 0.38969662 2.53830512
f 1 2 5
f 1 5 12
f 1 12 25
f 1 25 36
f 1 36 49
f 1 49 62
f 1 62 66
f 1 66 65
f 1 65 54
f 1 54 43
f 1 43 30
f 1 30 16
f 1 16 7
f 1 7 3
f 1 3 4
f 1 4 2
f 2 4 6
f 2 6 5
f 3 7 8
f 3 8 4
f 4 8 9
f 4 9 10
f 4 10 11
f 4 11 6
f 5 6 13
f 5 13 12
f 6 11 14
f 6 14 15
f 6 15 13
f 7 16 17
f 7 17 18
f 7 18 8
f 8 18 9
f 9 19 20
f 9 20 21
f 9 21 10
f 9 18 19
f 10 22 11
f 10 21 22
f 11 22 23
f 11 23 14
f 12 24 25
f 12 13 26
f 12 26 24
f 13 15 26
f 14 23 27
f 14 27 15
f 15 27 28
f 15 28 29
f 15 29 26
f 16 30 31
f 16 31 17
f 17 32 19
f 17 19 18
f 17 31 32
f 19 32 20
f 20 32 33
f 20 33 34
f 20 34 35
f 20 35 47
f 20 47 57
f 20 57 58
f 20 58 61
f 20 61 60
f 20 60 50
f 20 50 38
f 20 38 27
f 20 27 23
f 20 23 22
f 20 22 21
f 24 36 25
f 24 26 29
f 24 29 28
f 24 28 36
f 27 37 28
f 27 38 39
f 27 39 37
f 28 37 39
f 28 39 40
f 28 40 41
f 28 41 42
f 28 42 36
f 30 43 44
f 30 44 45
f 30 45 31
f 31 45 46
f 31 46 32
f 32 46 33
f 33 46 34
f 34 46 35
f 35 46 45
f 35 45 48
f 35 48 47
f 36 42 49
f 38 50 51
f 38 51 52
f 38 52 53
f 38 53 39
f 39 53 40
f 40 53 41
f 41 53 42
f 42 53 49
f 43 54 55
f 43 55 56
f 43 56 45
f 43 45 44
f 45 56 55
f 45 55 48
f 47 48 57
f 48 58 57
f 48 55 59
f 48 59 53
f 48 53 51
f 48 51 50
f 48 50 60
f 48 60 61
f 48 61 58
f 49 53 63
f 49 63 62
f 51 53 52
f 53 59 64
f 53 64 63
f 54 65 55
f 55 65 59
f 59 65 66
f 59 66 64
f 62 63 64
f 62 64 66

