# https://github.com/mikedh/trimesh
v -4.17102096 0.74804627 2.44194542
v -4.18680138 0.73462059 2.44194542
v -4.17047653 0.74760142 2.44194542
v -4.17047653 0.74841020 2.44186868
v -4.21181398 0.82213010 2.41256632
v -4.22264104 0.81970376 2.41197823
v -4.18941615 0.73231557 2.44194542
v -4.17047653 0.42841816 2.44194542
v -4.17047653 0.78702920 2.18078094
v -4.17091357 0.80692513 2.38490036
v -4.17500061 0.80692513 2.40228747
v -4.18291380 0.81828840 2.41269417
v -4.19445391 0.82107867 2.41307771
v -4.21024975 0.83122882 2.40267101
v -4.22191258 0.83361469 2.39714807
v -4.22806985 0.82516301 2.40302898
v -4.24881149 0.81715611 2.39505137
v -4.24881149 0.80902789 2.39955157
v -4.24881149 0.80753171 2.40034422
v -4.24881149 0.78961731 2.40650639
v -4.24881149 0.78662484 2.40742689
v -4.24881149 0.64500827 2.44194542
v -4.24582098 0.65050791 2.44194542
v -4.24152702 0.65827219 2.44194542
v -4.23948734 0.66174991 2.44194542
v -4.22468840 0.68637710 2.44194542
v -4.21979625 0.69393916 2.44194542
v -4.21605439 0.69947930 2.44194542
v -4.20850149 0.71055953 2.44194542
v -4.20551099 0.71476515 2.44194542
v -4.19818821 0.72370213 2.44194542
v -4.19122583 0.73061713 2.44194542
v -4.24881149 0.42793291 2.44194542
v -4.17047653 0.42057305 2.18078094
v -4.21500384 0.83361469 2.39047447
v -4.21024975 0.83211845 2.38477254
v -4.19445391 0.82924731 2.38490036
v -4.17861985 0.82115955 2.38490036
v -4.24881149 0.76191677 2.18078094
v -4.24881149 0.78132735 2.21811207
v -4.24881149 0.78431982 2.22445325
v -4.24881149 0.79827120 2.25569888
v -4.24881149 0.80106146 2.26385548
v -4.24881149 0.81723700 2.31867599
v -4.24656478 0.82067430 2.33279022
v -4.22191258 0.83361469 2.39047447
v -4.17975470 0.82047209 2.40228747
v -4.19445391 0.82823634 2.40228747
v -4.21500384 0.83361469 2.39714807
v -4.24881149 0.82370722 2.35017732
v -4.24881149 0.82358589 2.36759000
v -4.24881149 0.82031033 2.38566746
v -4.24881149 0.82002729 2.38666465
v -4.20751236 0.42328243 2.18078094
v -4.19445391 0.42150310 2.18078094
v -4.19013696 0.42117962 2.18078094
v -4.17708627 0.42061349 2.18078094
v -4.24881149 0.43072317 2.18078094
v -4.24611241 0.43011660 2.18078094
v -4.24224783 0.42934826 2.18078094
v -4.24881149 0.82055298 2.33279022
v -4.24656478 0.82419247 2.35017732
f 1 2 7
f 1 7 32
f 1 32 31
f 1 31 30
f 1 30 29
f 1 29 28
f 1 28 27
f 1 27 26
f 1 26 25
f 1 25 24
f 1 24 23
f 1 23 22
f 1 22 33
f 1 33 8
f 1 8 3
f 1 3 4
f 1 4 5
f 1 5 6
f 1 6 2
f 2 6 7
f 3 8 34
f 3 34 9
f 3 9 4
f 4 9 10
f 4 10 11
f 4 11 12
f 4 12 13
f 4 13 5
f 5 13 14
f 5 14 15
f 5 15 6
f 6 15 16
f 6 16 17
f 6 17 18
f 6 18 19
f 6 19 20
f 6 20 21
f 6 21 22
f 6 22 23
f 6 23 24
f 6 24 25
f 6 25 26
f 6 26 27
f 6 27 28
f 6 28 29
f 6 29 30
f 6 30 31
f 6 31 32
f 6 32 7
f 8 33 34
f 9 35 36
f 9 36 37
f 9 37 38
f 9 38 10
f 9 34 57
f 9 57 56
f 9 56 55
f 9 55 54
f 9 54 60
f 9 60 59
f 9 59 58
f 9 58 39
f 9 39 40
f 9 40 41
f 9 41 42
f 9 42 43
f 9 43 44
f 9 44 45
f 9 45 46
f 9 46 35
f 10 38 47
f 10 47 11
f 11 47 12
f 12 47 48
f 12 48 13
f 13 48 14
f 14 48 49
f 14 49 15
f 15 49 35
f 15 35 46
f 15 46 50
f 15 50 51
f 15 51 52
f 15 52 53
f 15 53 17
f 15 17 16
f 17 53 52
f 17 52 51
f 17 51 50
f 17 50 61
f 17 61 44
f 17 44 43
f 17 43 42
f 17 42 41
f 17 41 40
f 17 40 39
f 17 39 58
f 17 58 33
f 17 33 22
f 17 22 21
f 17 21 20
f 17 20 19
f 17 19 18
f 33 54 55
f 33 55 56
f 33 56 57
f 33 57 34
f 33 58 59
f 33 59 60
f 33 60 54
f 35 49 37
f 35 37 36
f 37 49 48
f 37 48 38
f 38 48 47
f 44 61 45
f 45 61 62
f 45 62 46
f 46 62 50
f 50 62 61

