# https://github.com/mikedh/trimesh
v -0.42246608 0.04597389 1.56756568
v -0.42246608 0.04683927 1.55093501
v 0.04603123 0.04839697 1.52296716
v 0.04603123 0.04787770 1.55093501
v 0.04603123 0.04787770 1.55154629
v 0.04603123 0.04822392 1.56200110
v -0.42246608 0.05618538 1.57503977
v -0.42246608 0.04839697 1.52296716
v -0.42246608 0.05878151 1.52123418
v 0.04603123 0.05930078 1.52116485
v 0.04603123 0.04874308 1.56213345
v -0.42246608 0.05999310 1.57620558
v -0.42246608 0.05999310 1.52105771
v 0.04603123 0.05999310 1.52105771
v 0.04603123 0.05999310 1.56440217
v -0.42246608 0.07072375 1.57654589
v -0.42246608 1.56298840 1.52105771
v 0.04603123 1.56298840 1.52105771
v -0.42246608 0.77237546 1.58535595
v 0.04603123 1.76271853 1.58543787
v -0.42246608 1.81412226 1.52106403
v 0.04603123 1.81412226 1.52106403
v -0.42223679 1.75198788 1.58543787
v -0.42246608 1.75873785 1.58543787
v 0.04603123 1.78089157 1.58543787
v -0.42246608 1.81412226 1.53627681
v 0.04603123 1.81412226 1.53627681
v -0.42246608 1.78158390 1.58543787
f 1 2 3
f 1 3 4
f 1 4 5
f 1 5 6
f 1 6 7
f 1 7 12
f 1 12 16
f 1 16 19
f 1 19 24
f 1 24 28
f 1 28 26
f 1 26 21
f 1 21 17
f 1 17 13
f 1 13 9
f 1 9 8
f 1 8 2
f 2 8 3
f 3 8 9
f 3 9 10
f 3 10 14
f 3 14 18
f 3 18 22
f 3 22 27
f 3 27 25
f 3 25 20
f 3 20 15
f 3 15 11
f 3 11 6
f 3 6 5
f 3 5 4
f 6 11 12
f 6 12 7
f 9 13 14
f 9 14 10
f 11 15 12
f 12 15 16
f 13 17 18
f 13 18 14
f 15 19 16
f 15 20 19
f 17 21 22
f 17 22 18
f 19 20 23
f 19 23 24
f 20 25 28
f 20 28 24
f 20 24 23
f 21 26 27
f 21 27 22
f 25 27 28
f 26 28 27

