# https://github.com/mikedh/trimesh
v -1.60828811 1.58422895 -0.30167442
v -1.60828811 1.62313657 -0.30167442
v -1.14710168 1.58500356 -0.30167442
v -1.61624895 1.58487447 0.03926824
v -1.61624895 1.58486908 0.02190848
v -1.61624895 1.58486908 0.01344215
v -1.60545274 1.62315270 -0.30167442
v -1.61624895 1.60820934 0.01344215
v -1.61624895 1.63918265 0.06952168
v -1.14710168 1.62315270 -0.30167442
v -1.05925916 1.58978564 -0.28474176
v -1.05925916 1.59044728 0.03926824
v -1.61624895 1.58534783 0.05666694
v -1.16891219 1.63918265 0.05934655
v -1.61624895 1.63918265 0.09503688
v -1.05925916 1.63918265 0.07239557
v -1.05925916 1.61068914 -0.28474176
v -1.15669830 1.63918265 0.05934655
v -1.05925916 1.59092065 0.05666694
v -1.61624895 1.58987709 0.07348299
v -1.05925916 1.59444940 0.06998772
v -1.61624895 1.62355613 0.09503688
v -1.05925916 1.63918265 0.09196891
v -1.61624895 1.59095832 0.07491984
v -1.05925916 1.59714974 0.07387136
v -1.05925916 1.60052248 0.07868686
v -1.61624895 1.60957027 0.09165822
v -1.05925916 1.62355613 0.09196891
v -1.61624895 1.60641269 0.09064847
v -1.05925916 1.60920986 0.08734748
v -1.05925916 1.61558418 0.08940570
f 1 2 7
f 1 7 10
f 1 10 3
f 1 3 4
f 1 4 5
f 1 5 6
f 1 6 8
f 1 8 2
f 2 8 9
f 2 9 7
f 3 10 17
f 3 17 11
f 3 11 12
f 3 12 4
f 4 13 20
f 4 20 24
f 4 24 29
f 4 29 27
f 4 27 22
f 4 22 15
f 4 15 9
f 4 9 8
f 4 8 6
f 4 6 5
f 4 12 19
f 4 19 13
f 7 9 14
f 7 14 18
f 7 18 10
f 9 15 23
f 9 23 16
f 9 16 18
f 9 18 14
f 10 16 17
f 10 18 16
f 11 17 16
f 11 16 23
f 11 23 28
f 11 28 31
f 11 31 30
f 11 30 26
f 11 26 25
f 11 25 21
f 11 21 19
f 11 19 12
f 13 19 21
f 13 21 20
f 15 22 28
f 15 28 23
f 20 21 25
f 20 25 26
f 20 26 24
f 22 27 28
f 24 26 29
f 26 30 29
f 27 29 28
f 28 29 31
f 29 30 31

