# https://github.com/mikedh/trimesh
v -4.40830921 0.59828530 1.55072539
v -4.40830921 0.59828530 1.53209584
v -4.67518747 0.59828530 1.55525185
v -3.56372076 0.56855454 1.55482574
v -4.59402512 0.59828530 1.53209584
v -3.56372076 0.56855454 1.53787578
v -3.56905180 0.56855454 1.53673114
v -3.57394767 0.56855454 1.53608061
v -3.58645931 0.56855454 1.53442820
v -3.59135512 0.56855454 1.53395222
v -3.60375796 0.56855454 1.53280530
v -3.60865378 0.56855454 1.53266021
v -3.62116542 0.56855454 1.53235879
v -3.67327903 0.56855454 1.53226356
v -3.69068648 0.56855454 1.53224544
v -3.69068648 0.56360876 1.53223410
v -3.69068648 0.07719162 1.53223410
v -4.67518747 0.59828530 1.53322691
v -4.67518747 0.05990891 1.55425681
v -3.56372076 0.05985340 1.55495494
v -4.59402512 0.07724723 1.53223410
v -4.61143262 0.07724723 1.53224544
v -4.61143262 0.59828530 1.53210946
v -3.98889809 0.07719162 1.53223410
v -3.56372076 0.56360876 1.53781457
v -3.56905180 0.56360876 1.53667221
v -3.58645931 0.56360876 1.53436699
v -3.60375796 0.56360876 1.53277356
v -3.62116542 0.56360876 1.53234972
v -3.67327903 0.56360876 1.53225222
v -3.67327903 0.07719162 1.53225222
v -3.69068648 0.05985340 1.53227490
v -4.66365503 0.59828530 1.53250611
v -4.67518747 0.58089146 1.53282798
v -4.67518747 0.04251507 1.55373092
v -3.56372076 0.04251507 1.55442681
v -4.40830921 0.05985340 1.53227490
v -4.59402512 0.05990891 1.53227718
v -4.61143262 0.05990891 1.53228624
v -4.62873128 0.05990891 1.53232477
v -4.62873128 0.07724723 1.53228624
v -4.62873128 0.59828530 1.53216155
v -3.56372076 0.07719162 1.53781457
v -3.56905180 0.07719162 1.53667221
v -3.58645931 0.07719162 1.53436699
v -3.60375796 0.07719162 1.53277356
v -3.62116542 0.07719162 1.53234972
v -3.67327903 0.05985340 1.53229302
v -3.69068648 0.04251507 1.53300477
v -3.98911573 0.04245946 1.53300477
v -4.67518747 0.56355314 1.53274637
v -4.64613868 0.59828530 1.53224544
v -4.66343734 0.58089146 1.53242222
v -4.67518747 0.03095622 1.54881687
v -3.56372076 0.03701346 1.55162976
v -4.40830921 0.04245946 1.53300477
v -4.59402512 0.04251507 1.53300704
v -4.61143262 0.04251507 1.53301838
v -4.62873128 0.04251507 1.53306597
v -4.66343734 0.05990891 1.53242905
v -4.66343734 0.07724723 1.53239276
v -3.56372076 0.05985340 1.53801859
v -3.56905180 0.05985340 1.53687618
v -3.58645931 0.05985340 1.53457101
v -3.60375796 0.05985340 1.53289597
v -3.62116542 0.05985340 1.53239048
v -3.67327903 0.04251507 1.53302289
v -3.65587153 0.03067836 1.53801404
v -3.69068648 0.03073398 1.53796645
v -3.98889809 0.03273452 1.53711645
v -4.66343734 0.56355314 1.53239276
v -4.67518747 0.07724723 1.53274637
v -4.67518747 0.03067836 1.54096068
v -4.66343734 0.03067836 1.54582036
v -3.60375796 0.03062275 1.54618304
v -3.56372076 0.03190093 1.54818674
v -4.40830921 0.03073398 1.53796873
v -4.59402512 0.03078949 1.53796873
v -4.61143262 0.03078949 1.53797551
v -4.64613868 0.03073398 1.53805256
v -4.66343734 0.03067836 1.53814779
v -4.64613868 0.04251507 1.53313852
v -4.66343734 0.04251507 1.53326088
v -4.67518747 0.05990891 1.53283477
v -4.67518747 0.07146786 1.53275994
v -3.56372076 0.05318483 1.53827921
v -3.56372076 0.04251507 1.53879377
v -3.56905180 0.04251507 1.53771256
v -3.58645931 0.04251507 1.53556155
v -3.60375796 0.04251507 1.53387744
v -3.62116542 0.04251507 1.53320651
v -3.63857287 0.04251507 1.53313852
v -3.65587153 0.04251507 1.53307731
v -3.62116542 0.03062275 1.53811377
v -3.98889809 0.03073398 1.53796645
v -4.67518747 0.03067836 1.53841297
v -3.62116542 0.03062275 1.54578634
v -3.58645931 0.03095622 1.54662049
v -3.60375796 0.03062275 1.53849002
v -3.56905180 0.03167869 1.54029430
v -3.56372076 0.03190093 1.54358996
v -4.67518747 0.04251507 1.53375275
v -4.67518747 0.05412953 1.53311128
v -3.56372076 0.03795817 1.53935814
v -3.56372076 0.03217879 1.54075438
v -3.58645931 0.03095622 1.53929471
f 1 2 5
f 1 5 23
f 1 23 42
f 1 42 52
f 1 52 33
f 1 33 18
f 1 18 3
f 1 3 4
f 1 4 6
f 1 6 2
f 2 6 7
f 2 7 8
f 2 8 9
f 2 9 10
f 2 10 11
f 2 11 12
f 2 12 13
f 2 13 14
f 2 14 15
f 2 15 16
f 2 16 17
f 2 17 24
f 2 24 5
f 3 18 34
f 3 34 51
f 3 51 72
f 3 72 85
f 3 85 84
f 3 84 103
f 3 103 102
f 3 102 96
f 3 96 73
f 3 73 54
f 3 54 35
f 3 35 19
f 3 19 20
f 3 20 4
f 4 20 36
f 4 36 55
f 4 55 76
f 4 76 101
f 4 101 105
f 4 105 104
f 4 104 87
f 4 87 86
f 4 86 62
f 4 62 43
f 4 43 25
f 4 25 6
f 5 21 22
f 5 22 23
f 5 24 21
f 6 25 7
f 7 25 26
f 7 26 8
f 8 26 27
f 8 27 9
f 9 27 10
f 10 27 11
f 11 27 28
f 11 28 12
f 12 29 13
f 12 28 29
f 13 29 30
f 13 30 14
f 14 30 16
f 14 16 15
f 16 30 31
f 16 31 17
f 17 31 48
f 17 48 32
f 17 32 37
f 17 37 24
f 18 33 34
f 19 35 20
f 20 35 36
f 21 37 38
f 21 38 39
f 21 39 22
f 21 24 37
f 22 39 40
f 22 40 41
f 22 41 23
f 23 41 42
f 25 43 44
f 25 44 26
f 26 44 45
f 26 45 27
f 27 45 46
f 27 46 28
f 28 46 47
f 28 47 29
f 29 47 31
f 29 31 30
f 31 47 66
f 31 66 48
f 32 48 67
f 32 67 49
f 32 49 50
f 32 50 56
f 32 56 37
f 33 51 34
f 33 52 53
f 33 53 51
f 35 54 36
f 36 54 55
f 37 56 57
f 37 57 38
f 38 57 39
f 39 58 40
f 39 57 58
f 40 58 59
f 40 59 60
f 40 60 41
f 41 60 61
f 41 61 42
f 42 61 52
f 43 62 63
f 43 63 44
f 44 63 64
f 44 64 45
f 45 64 65
f 45 65 46
f 46 65 66
f 46 66 47
f 48 66 67
f 49 67 68
f 49 68 69
f 49 69 50
f 50 70 56
f 50 69 70
f 51 53 71
f 51 71 61
f 51 61 72
f 52 61 71
f 52 71 53
f 54 73 74
f 54 74 75
f 54 75 76
f 54 76 55
f 56 70 77
f 56 77 78
f 56 78 57
f 57 78 79
f 57 79 58
f 58 79 80
f 58 80 59
f 59 80 81
f 59 81 82
f 59 82 60
f 60 82 83
f 60 83 84
f 60 84 85
f 60 85 72
f 60 72 61
f 62 86 63
f 63 86 87
f 63 87 88
f 63 88 64
f 64 88 89
f 64 89 90
f 64 90 65
f 65 90 91
f 65 91 66
f 66 91 92
f 66 92 93
f 66 93 67
f 67 93 94
f 67 94 68
f 68 94 77
f 68 77 95
f 68 95 69
f 69 95 70
f 70 95 77
f 73 96 94
f 73 94 97
f 73 97 74
f 74 97 75
f 75 98 76
f 75 97 94
f 75 94 99
f 75 99 106
f 75 106 98
f 76 98 100
f 76 100 101
f 77 94 81
f 77 81 80
f 77 80 78
f 78 80 79
f 81 96 83
f 81 83 82
f 81 94 96
f 83 96 102
f 83 102 103
f 83 103 84
f 87 104 88
f 88 104 89
f 89 104 105
f 89 105 100
f 89 100 90
f 90 100 106
f 90 106 99
f 90 99 91
f 91 99 94
f 91 94 92
f 92 94 93
f 98 106 100
f 100 105 101

