# https://github.com/mikedh/trimesh
v -1.02400255 0.90951846 -0.07711995
v -1.02400255 0.92963103 -0.30772068
v -1.05920468 0.90951846 -0.07711995
v -1.02400255 0.85746748 -0.07711995
v -1.02400255 0.92963103 -0.32650465
v -1.05920468 0.92963103 -0.30772068
v -1.05920468 0.04856247 -0.07711995
v -1.04654837 0.05987038 -0.07711995
v -1.02400255 0.05987038 -0.31963258
v -1.05920468 0.92963103 -0.32650465
v -1.02400255 0.87024284 -0.33569323
v -1.05920468 0.04856247 -0.30817885
v -1.04955296 0.04778553 -0.32556305
v -1.05239578 0.04856247 -0.07711995
v -1.04830916 0.05641757 -0.07711995
v -1.02400255 0.04882138 -0.32627557
v -1.03218284 0.87024284 -0.33569323
v -1.04955296 0.86920700 -0.33508221
v -1.05840517 0.86799854 -0.33442044
v -1.05920468 0.85902125 -0.33083175
v -1.02400255 0.86497732 -0.33635480
v -1.05920468 0.04968458 -0.32563927
v -1.02400255 0.04890775 -0.33569323
v -1.05840517 0.05089306 -0.33442044
v -1.04955296 0.04985722 -0.33508221
v -1.03218284 0.04890775 -0.33569323
v -1.03218284 0.85902125 -0.33709300
v -1.04955296 0.85902125 -0.33592232
v -1.05848802 0.85902125 -0.33449687
v -1.05920468 0.84874915 -0.33083175
v -1.02400255 0.85902125 -0.33709300
v -1.05920468 0.05495007 -0.33044980
v -1.02400255 0.05987038 -0.33709300
v -1.05848802 0.05987038 -0.33449687
v -1.04955296 0.05987038 -0.33592232
v -1.03218284 0.05987038 -0.33709300
v -1.05920468 0.05987038 -0.33072984
f 1 2 6
f 1 6 3
f 1 3 7
f 1 7 14
f 1 14 15
f 1 15 8
f 1 8 4
f 1 4 9
f 1 9 16
f 1 16 23
f 1 23 33
f 1 33 31
f 1 31 21
f 1 21 11
f 1 11 5
f 1 5 2
f 2 5 10
f 2 10 6
f 3 6 10
f 3 10 20
f 3 20 30
f 3 30 37
f 3 37 32
f 3 32 22
f 3 22 12
f 3 12 7
f 4 8 9
f 5 11 17
f 5 17 10
f 7 12 13
f 7 13 14
f 8 15 16
f 8 16 9
f 10 17 18
f 10 18 19
f 10 19 20
f 11 21 17
f 12 22 13
f 13 23 16
f 13 16 14
f 13 22 24
f 13 24 25
f 13 25 26
f 13 26 23
f 14 16 15
f 17 21 27
f 17 27 18
f 18 27 28
f 18 28 19
f 19 28 29
f 19 29 20
f 20 29 34
f 20 34 30
f 21 31 27
f 22 32 24
f 23 26 36
f 23 36 33
f 24 32 34
f 24 34 35
f 24 35 25
f 25 35 36
f 25 36 26
f 27 31 33
f 27 33 36
f 27 36 35
f 27 35 28
f 28 35 34
f 28 34 29
f 30 34 37
f 32 37 34

