# https://github.com/mikedh/trimesh
v -1.05920468 0.71875059 0.35568402
v -1.05920468 0.71875059 0.23669358
v -1.09983562 0.71875059 0.35368048
v -1.05920468 0.11965687 0.35568402
v -1.06162289 0.71875059 0.23669358
v -1.05920468 0.05431792 0.23669358
v -1.09983562 0.71875059 0.33778014
v -1.09983562 0.07719317 0.35368048
v -1.09983562 0.06168005 0.35347076
v -1.09983562 0.05983952 0.35343586
v -1.06693240 0.07719317 0.35451914
v -1.05920468 0.10230333 0.35517148
v -1.06162289 0.05983952 0.23669358
v -1.05920468 0.04833618 0.24774818
v -1.05943936 0.04840194 0.23669358
v -1.09983562 0.07719317 0.33778014
v -1.09983562 0.04945363 0.34882303
v -1.06693240 0.05983952 0.35400660
v -1.05920468 0.05983952 0.35114109
v -1.05993646 0.04846760 0.23669358
v -1.09983562 0.04827042 0.34073885
v -1.09983562 0.05983952 0.33795485
v -1.05920468 0.04800757 0.24901787
v -1.09983562 0.04827042 0.34827549
v -1.06693240 0.04807323 0.34841530
v -1.05920468 0.04866489 0.34739022
v -1.06648687 0.04721873 0.33519415
v -1.05920468 0.04787605 0.26517442
v -1.05920468 0.04748168 0.33492623
f 1 2 5
f 1 5 7
f 1 7 3
f 1 3 8
f 1 8 4
f 1 4 12
f 1 12 19
f 1 19 26
f 1 26 29
f 1 29 28
f 1 28 23
f 1 23 14
f 1 14 6
f 1 6 2
f 2 6 15
f 2 15 20
f 2 20 13
f 2 13 5
f 3 7 16
f 3 16 22
f 3 22 21
f 3 21 24
f 3 24 17
f 3 17 10
f 3 10 9
f 3 9 8
f 4 8 9
f 4 9 10
f 4 10 11
f 4 11 18
f 4 18 12
f 5 13 16
f 5 16 7
f 6 14 15
f 10 17 18
f 10 18 11
f 12 18 19
f 13 20 21
f 13 21 22
f 13 22 16
f 14 23 15
f 15 23 21
f 15 21 20
f 17 24 18
f 18 24 25
f 18 25 26
f 18 26 19
f 21 23 27
f 21 27 24
f 23 28 27
f 24 27 25
f 25 27 29
f 25 29 26
f 27 28 29

