# https://github.com/mikedh/trimesh
v -0.38624695 0.04809291 2.21463578
v 0.16696794 0.04476375 2.21118658
v -0.38624695 0.04809291 2.22241920
v -0.38624695 0.05791427 2.21032208
v 0.16696794 0.05192166 2.20319803
v 0.13193172 0.04792659 2.22241628
v 0.04599270 0.04792659 2.22241628
v 0.16696794 0.05491796 2.22855569
v -0.38624695 0.05009045 2.22286758
v 0.16696794 0.06007813 2.23080925
v -0.38624695 0.06007813 2.20940191
v 0.16696794 0.06007813 2.20141628
v -0.38624695 0.06007813 2.22496875
v 0.16696794 0.07722372 2.23117263
v -0.38624695 1.74516743 2.20795130
v 0.16696794 0.06740257 2.20123459
v -0.38624695 1.74516743 2.22496875
v 0.16696794 0.07972064 2.23100852
v 0.14758164 1.72752256 2.22241628
v 0.13193172 1.72752256 2.22496875
v 0.04599270 1.74533391 2.22496875
v -0.37189675 1.74533391 2.22496875
v -0.38624695 1.74533391 2.22185655
v -0.37243819 1.74533391 2.20783995
v 0.16696794 0.07722372 2.20124338
v 0.16696794 0.09470217 2.22963118
v 0.16696794 0.09520155 2.22946707
v 0.16696794 0.09570093 2.22855569
v 0.16696794 0.09919662 2.21816412
v 0.16696794 0.10019539 2.21118658
v 0.14758164 1.72752256 2.21463578
v 0.04599270 1.74533391 2.20783995
v 0.16696794 0.09470217 2.20379585
v 0.13193172 1.72752256 2.20940483
f 1 2 3
f 1 3 9
f 1 9 13
f 1 13 17
f 1 17 23
f 1 23 15
f 1 15 11
f 1 11 4
f 1 4 5
f 1 5 2
f 2 6 7
f 2 7 3
f 2 5 12
f 2 12 16
f 2 16 25
f 2 25 33
f 2 33 30
f 2 30 29
f 2 29 28
f 2 28 27
f 2 27 26
f 2 26 18
f 2 18 14
f 2 14 10
f 2 10 8
f 2 8 6
f 3 7 8
f 3 8 10
f 3 10 9
f 4 11 5
f 5 11 12
f 6 8 7
f 9 10 13
f 10 14 13
f 11 15 16
f 11 16 12
f 13 14 17
f 14 18 19
f 14 19 20
f 14 20 21
f 14 21 22
f 14 22 17
f 15 23 24
f 15 24 25
f 15 25 16
f 17 22 23
f 18 26 19
f 19 26 27
f 19 27 28
f 19 28 29
f 19 29 30
f 19 30 31
f 19 31 32
f 19 32 21
f 19 21 20
f 21 32 24
f 21 24 23
f 21 23 22
f 24 32 25
f 25 32 34
f 25 34 31
f 25 31 33
f 30 33 31
f 31 34 32

