# https://github.com/mikedh/trimesh
v -5.18482877 0.23923286 1.39502711
v -5.17418739 0.24083147 1.22085338
v -5.17327065 0.24007484 1.39502711
v -5.19410414 0.24133593 1.39502711
v -5.19406748 0.24171052 1.30763432
v -5.19387796 0.24189600 1.25552495
v -5.19381375 0.24195907 1.23818916
v -5.19374643 0.24202214 1.22085338
v -5.19355712 0.24220380 1.17207519
v -5.19348980 0.24225206 1.16048403
v -5.18482877 0.24019725 1.27289476
v -5.18317548 0.24135447 1.10086251
v -5.18209054 0.24151396 1.06445728
v -5.18156796 0.24158811 1.04776737
v -5.17517767 0.24158811 1.04776737
v -5.17507369 0.24151396 1.06445728
v -5.17485973 0.24135447 1.10086251
v -5.17437691 0.24098361 1.18607979
v -5.16847875 0.25093121 1.04776737
v -5.16746093 0.25093121 1.25552495
v -5.16731739 0.25093121 1.29026451
v -5.16725007 0.25093121 1.30763432
v -5.16718296 0.25093121 1.32503809
v -5.16699034 0.25093121 1.37714746
v -5.16730517 0.25061224 1.39502711
v -5.16838700 0.25093121 1.06445728
v -5.16829234 0.25093121 1.08182709
v -5.16819147 0.25093121 1.10086251
v -5.16802328 0.25093121 1.13397048
v -5.16785530 0.25093121 1.16871004
v -5.16769333 0.25093121 1.20344960
v -5.19463894 0.24167345 1.39502711
v -5.19438211 0.24140635 1.39451727
v -5.19400638 0.24177359 1.29026451
v -5.19361201 0.24215191 1.18607979
v -5.19758202 0.25169903 1.04776737
v -5.19325140 0.24231885 1.15134028
v -5.19025033 0.24301242 1.04776737
v -5.18192857 0.24164372 1.04776737
v -5.18410154 0.24120979 1.13397048
v -5.19730074 0.25134288 1.04776737
v -5.16875672 0.25054181 1.04776737
v -5.17496992 0.24143981 1.08182709
v -5.17476818 0.24128767 1.11656670
v -5.17456954 0.24113564 1.15134028
v -5.16920909 0.26758115 1.04776737
v -5.16924885 0.26830071 1.04776737
v -5.16974989 0.26677625 1.37714746
v -5.16716453 0.25093121 1.39451727
v -5.16981721 0.26603442 1.39502711
v -5.19821148 0.25093121 1.39502711
v -5.19758202 0.26682451 1.04776737
v -5.19278992 0.24244862 1.13397048
v -5.19186385 0.24267491 1.10089648
v -5.19130461 0.24280094 1.08182709
v -5.19077291 0.24291227 1.06445728
v -5.19231021 0.24257103 1.11656670
v -5.17594466 0.27712071 1.04776737
v -5.16991187 0.26649435 1.39502711
v -5.17611885 0.27700203 1.07530071
v -5.19731607 0.26500334 1.39502711
v -5.18650961 0.27515124 1.04776737
v -5.17732599 0.27712071 1.04776737
v -5.17671787 0.27705029 1.06445728
v -5.18482877 0.27189841 1.39502711
v -5.17631148 0.27700203 1.07530071
v -5.18482877 0.27225083 1.37714746
v -5.18529936 0.27170184 1.39502711
v -5.18600836 0.27551102 1.04776737
f 1 2 3
f 1 3 25
f 1 25 50
f 1 50 59
f 1 59 65
f 1 65 68
f 1 68 61
f 1 61 51
f 1 51 32
f 1 32 4
f 1 4 5
f 1 5 6
f 1 6 7
f 1 7 8
f 1 8 9
f 1 9 10
f 1 10 11
f 1 11 12
f 1 12 13
f 1 13 14
f 1 14 15
f 1 15 16
f 1 16 17
f 1 17 2
f 2 17 18
f 2 18 19
f 2 19 3
f 3 20 21
f 3 21 22
f 3 22 23
f 3 23 24
f 3 24 25
f 3 19 26
f 3 26 27
f 3 27 28
f 3 28 29
f 3 29 30
f 3 30 31
f 3 31 20
f 4 32 33
f 4 33 5
f 5 34 6
f 5 33 32
f 5 32 34
f 6 34 32
f 6 32 7
f 7 32 8
f 8 32 35
f 8 35 9
f 9 35 32
f 9 32 36
f 9 36 10
f 10 37 38
f 10 38 39
f 10 39 14
f 10 14 13
f 10 13 12
f 10 12 40
f 10 40 11
f 10 36 41
f 10 41 37
f 11 40 12
f 14 39 38
f 14 38 41
f 14 41 36
f 14 36 52
f 14 52 62
f 14 62 69
f 14 69 63
f 14 63 58
f 14 58 47
f 14 47 46
f 14 46 19
f 14 19 42
f 14 42 15
f 15 42 16
f 16 42 43
f 16 43 17
f 17 43 42
f 17 42 44
f 17 44 45
f 17 45 18
f 18 45 19
f 19 46 26
f 19 45 42
f 20 31 46
f 20 46 21
f 21 46 47
f 21 47 22
f 22 47 23
f 23 47 24
f 24 48 49
f 24 49 25
f 24 47 48
f 25 49 50
f 26 46 27
f 27 46 28
f 28 46 29
f 29 46 30
f 30 46 31
f 32 51 36
f 36 51 52
f 37 41 53
f 37 53 54
f 37 54 38
f 38 54 55
f 38 55 56
f 38 56 41
f 41 56 55
f 41 55 54
f 41 54 57
f 41 57 53
f 42 45 44
f 47 58 48
f 48 59 50
f 48 50 49
f 48 58 60
f 48 60 59
f 51 61 52
f 52 61 62
f 53 57 54
f 58 63 64
f 58 64 60
f 59 60 65
f 60 64 66
f 60 66 67
f 60 67 65
f 61 68 67
f 61 67 69
f 61 69 62
f 63 69 67
f 63 67 64
f 64 67 66
f 65 67 68

