# https://github.com/mikedh/trimesh
v -1.64315511 2.50273706 0.31822358
v -1.65073473 2.50273706 0.31822358
v -1.64239298 2.50257819 0.31822358
v -1.64242063 2.50257819 0.23670145
v -1.65018988 2.50257819 0.23670145
v -1.65267965 2.49225123 0.31822358
v -1.64198266 2.50210159 0.31822358
v -1.63534796 2.49225123 0.31822358
v -1.63569624 2.49225123 0.23670145
v -1.65141752 2.49225123 0.23670145
v -1.65304865 2.47493393 0.31822358
v -1.63531689 2.49129803 0.31822358
v -1.63490646 2.47493393 0.31822358
v -1.62234046 1.58888536 0.23670145
v -1.65143823 2.48112994 0.23670145
v -1.65144859 2.47493393 0.23670145
v -1.65304865 1.64099651 0.31822358
v -1.62234046 1.58888536 0.31822358
v -1.61781959 0.91588885 0.23670145
v -1.65144859 1.62367909 0.23670145
v -1.65304523 1.62367909 0.31822358
v -1.61781959 0.90715071 0.31822358
v -1.61781959 0.91588885 0.31698662
v -1.61781959 0.87966527 0.23670145
v -1.65132442 1.61255779 0.23670145
v -1.65125203 1.60620279 0.23670145
v -1.64120334 0.91128146 0.23670145
v -1.64166192 0.91128146 0.31822358
v -1.61781959 0.89158090 0.31822358
v -1.62147487 0.89142203 0.31822358
v -1.62293709 0.89142203 0.31822358
v -1.63678594 0.89682381 0.31822358
v -1.62076111 0.88220724 0.23670145
v -1.63641352 0.89698268 0.23670145
f 1 2 6
f 1 6 11
f 1 11 17
f 1 17 21
f 1 21 28
f 1 28 32
f 1 32 31
f 1 31 30
f 1 30 29
f 1 29 22
f 1 22 18
f 1 18 13
f 1 13 12
f 1 12 8
f 1 8 7
f 1 7 3
f 1 3 4
f 1 4 5
f 1 5 2
f 2 5 6
f 3 7 4
f 4 7 8
f 4 8 9
f 4 9 14
f 4 14 19
f 4 19 24
f 4 24 33
f 4 33 34
f 4 34 27
f 4 27 26
f 4 26 25
f 4 25 20
f 4 20 16
f 4 16 15
f 4 15 10
f 4 10 5
f 5 10 6
f 6 10 11
f 8 12 9
f 9 12 13
f 9 13 14
f 10 15 11
f 11 15 16
f 11 16 20
f 11 20 17
f 13 18 14
f 14 18 23
f 14 23 19
f 17 20 21
f 18 22 23
f 19 23 22
f 19 22 29
f 19 29 24
f 20 25 21
f 21 25 26
f 21 26 27
f 21 27 28
f 24 29 30
f 24 30 31
f 24 31 32
f 24 32 33
f 27 34 28
f 28 34 32
f 32 34 33

