# https://github.com/mikedh/trimesh
v -1.62293968 1.60844922 0.01345188
v -1.60834176 1.62314169 -0.30171316
v -1.62293968 1.62301560 -0.30171316
v -1.63048854 1.62169139 -0.30171316
v -1.64030379 1.60510711 0.01345188
v -1.60834176 1.60781862 0.01345188
v -1.60834176 1.58417187 -0.30171316
v -1.63875883 1.61916904 -0.30171316
v -1.64528728 1.60220645 0.01345188
v -1.60834176 1.58808145 0.01345188
v -1.62183310 0.97906736 -0.29147091
v -1.61851357 1.19214031 -0.30171316
v -1.64758639 1.61330470 -0.30171316
v -1.65002076 1.59936885 0.01345188
v -1.62234129 0.97894122 0.01345188
v -1.62204209 0.97894122 -0.29079216
v -1.62907469 0.97894122 -0.29147091
v -1.64120138 1.19214031 -0.30171316
v -1.64813963 1.61242187 -0.30171316
v -1.64799619 1.61280018 -0.30131216
v -1.65002076 1.59558536 0.01345188
v -1.65020924 1.60472879 -0.30171316
v -1.64120542 0.97894122 0.01345188
v -1.64120542 0.97894122 -0.29147091
v -1.65002076 1.59558536 -0.30171316
f 1 2 3
f 1 3 4
f 1 4 5
f 1 5 9
f 1 9 14
f 1 14 21
f 1 21 23
f 1 23 15
f 1 15 10
f 1 10 6
f 1 6 2
f 2 6 10
f 2 10 7
f 2 7 12
f 2 12 18
f 2 18 25
f 2 25 22
f 2 22 19
f 2 19 13
f 2 13 8
f 2 8 4
f 2 4 3
f 4 8 5
f 5 8 9
f 7 10 11
f 7 11 12
f 8 13 14
f 8 14 9
f 10 15 11
f 11 15 16
f 11 16 17
f 11 17 12
f 12 17 24
f 12 24 18
f 13 19 20
f 13 20 14
f 14 20 19
f 14 19 22
f 14 22 21
f 15 23 24
f 15 24 17
f 15 17 16
f 18 24 25
f 21 22 23
f 22 25 24
f 22 24 23

