# https://github.com/mikedh/trimesh
v -3.73669377 0.38686032 3.43875496
v -3.73669377 0.38686032 3.40981677
v -3.74270627 0.38686032 3.43877991
v -3.73669377 0.35516797 3.44212440
v -3.73669377 0.38671880 3.40727097
v -3.73765873 0.38686032 3.40741358
v -3.74578677 0.38686032 3.43878706
v -3.74270627 0.35516797 3.44214221
v -3.73669377 0.33779702 3.44367537
v -3.73669377 0.25540713 3.42149399
v -4.11581706 0.38686032 3.40828362
v -3.76007582 0.38686032 3.43881906
v -3.76007582 0.35516797 3.44216365
v -3.74270627 0.33779702 3.44368966
v -3.74270627 0.25540713 3.43863368
v -3.73825256 0.25540713 3.43861587
v -3.73669377 0.25540713 3.43860872
v -4.11581706 0.25540713 3.42299153
v -4.11581706 0.38686032 3.43882621
v -3.77748244 0.38686032 3.43883335
v -3.76007582 0.33779702 3.44369681
v -3.84696053 0.35516797 3.44216365
v -3.77748244 0.25540713 3.43869075
v -3.77299161 0.25540713 3.43868723
v -3.76007582 0.25540713 3.43867293
v -4.11581706 0.25540713 3.43869075
v -4.11581706 0.35516797 3.44210296
v -3.86433007 0.35516797 3.44216003
v -3.88169962 0.38686032 3.43883335
v -3.89910625 0.33779702 3.44369329
v -4.11581706 0.33779702 3.44367537
f 1 2 6
f 1 6 11
f 1 11 19
f 1 19 29
f 1 29 20
f 1 20 12
f 1 12 7
f 1 7 3
f 1 3 4
f 1 4 9
f 1 9 17
f 1 17 10
f 1 10 5
f 1 5 2
f 2 5 6
f 3 7 8
f 3 8 4
f 4 8 9
f 5 10 11
f 5 11 6
f 7 12 8
f 8 12 13
f 8 13 14
f 8 14 9
f 9 14 15
f 9 15 16
f 9 16 17
f 10 17 16
f 10 16 15
f 10 15 25
f 10 25 24
f 10 24 23
f 10 23 26
f 10 26 18
f 10 18 11
f 11 18 26
f 11 26 31
f 11 31 27
f 11 27 19
f 12 20 13
f 13 21 14
f 13 20 29
f 13 29 22
f 13 22 21
f 14 21 23
f 14 23 24
f 14 24 25
f 14 25 15
f 19 27 28
f 19 28 22
f 19 22 29
f 21 22 30
f 21 30 26
f 21 26 23
f 22 28 31
f 22 31 30
f 26 30 31
f 27 31 28

