# https://github.com/mikedh/trimesh
v -2.94156353 0.49188406 1.44582055
v -2.76397580 0.48601536 1.54475660
v -2.76397580 0.48601536 1.44583520
v -2.83730014 0.48601536 1.44582055
v -2.94107244 0.48601536 1.44582055
v -3.07431046 0.42664535 1.44583520
v -3.07408380 0.46707470 1.44583520
v -3.09365207 0.46707470 1.46994343
v -3.10898937 0.46707470 1.48955793
v -3.12742434 0.46707470 1.52159981
v -3.12855764 0.46707470 1.52451270
v -3.14480157 0.46707470 1.57207054
v -3.14551933 0.46707470 1.57527615
v -3.14857922 0.46707470 1.59535907
v -2.76397580 0.45941156 1.59535907
v -3.08137468 0.46707470 1.59535907
v -2.76397580 0.44727830 1.44583520
v -2.76979338 0.43835079 1.44583520
v -3.02924299 0.42664535 1.44583520
v -3.10362509 0.42664535 1.48276607
v -3.10891381 0.46696617 1.48945545
v -3.10883826 0.42664535 1.48958719
v -3.12353335 0.42664535 1.51403210
v -3.12772655 0.42664535 1.52129244
v -3.13248641 0.42664535 1.53350027
v -3.13320415 0.42664535 1.53549097
v -3.14272386 0.42664535 1.56298050
v -3.14483934 0.42664535 1.57022618
v -3.14816368 0.42664535 1.58578605
v -3.14850367 0.42664535 1.58761571
v -3.14990141 0.42664535 1.59535907
v -2.76397580 0.44109031 1.59535907
v -2.76397580 0.43811451 1.44612793
v -3.12243783 0.42664535 1.59535907
f 1 2 3
f 1 3 4
f 1 4 5
f 1 5 6
f 1 6 7
f 1 7 8
f 1 8 9
f 1 9 10
f 1 10 11
f 1 11 12
f 1 12 13
f 1 13 14
f 1 14 2
f 2 15 32
f 2 32 33
f 2 33 17
f 2 17 3
f 2 14 16
f 2 16 15
f 3 17 4
f 4 17 18
f 4 18 19
f 4 19 6
f 4 6 5
f 6 19 34
f 6 34 31
f 6 31 30
f 6 30 29
f 6 29 28
f 6 28 27
f 6 27 26
f 6 26 25
f 6 25 24
f 6 24 23
f 6 23 22
f 6 22 20
f 6 20 8
f 6 8 7
f 8 20 21
f 8 21 9
f 9 21 22
f 9 22 23
f 9 23 24
f 9 24 10
f 10 24 25
f 10 25 11
f 11 25 26
f 11 26 27
f 11 27 12
f 12 27 28
f 12 28 13
f 13 29 30
f 13 30 31
f 13 31 14
f 13 28 29
f 14 31 34
f 14 34 32
f 14 32 15
f 14 15 16
f 17 33 18
f 18 33 19
f 19 33 32
f 19 32 34
f 20 22 21

