# https://github.com/mikedh/trimesh
v -2.16800525 0.74478733 1.97293589
v -1.95297636 0.70552312 1.98819191
v -1.95458636 0.70552312 1.98892504
v -1.96323973 0.70552312 1.99318415
v -1.96464851 0.70552312 1.99402200
v -1.97189331 0.70552312 1.99838585
v -1.97400632 0.70552312 1.99981719
v -1.98437035 0.70552312 2.00707864
v -1.99302382 0.70552312 2.01440991
v -2.00167740 0.70552312 2.02310269
v -2.01043143 0.70552312 2.03298244
v -2.01707245 0.70552312 2.04167523
v -2.01827990 0.70552312 2.04373497
v -2.02451847 0.70552312 2.05483660
v -2.02552470 0.70552312 2.05668687
v -2.03005271 0.70552312 2.06551930
v -2.03377572 0.70552312 2.07421209
v -2.03880685 0.70552312 2.08957283
v -2.03941052 0.70552312 2.09240061
v -2.04212731 0.70552312 2.10695841
v -2.04242919 0.70552312 2.10978618
v -2.04323420 0.70552312 2.12430907
v -2.16800525 0.74478733 2.32958451
v -2.16800525 0.76390229 1.97293589
v -1.90085420 0.72422662 1.97293589
v -1.88354726 0.70552312 1.97415777
v -1.90085420 0.70552312 1.97450687
v -1.91292890 0.70552312 1.97600804
v -1.91433758 0.70552312 1.97628733
v -1.92158237 0.70552312 1.97817251
v -1.93566942 0.70552312 1.98187305
v -2.04323420 0.70552312 2.12717176
v -2.16800525 0.76390229 2.32958451
v -2.04303287 0.70552312 2.14169464
v -2.04081930 0.70552312 2.15904530
v -2.03669373 0.70552312 2.17643088
v -2.03608996 0.70552312 2.17824623
v -2.03266883 0.70552312 2.18826563
v -2.02834215 0.70552312 2.19695842
v -2.02703404 0.70552312 2.19936727
v -2.02039302 0.70552312 2.21116711
v -2.01948745 0.70552312 2.21266827
v -2.01455699 0.70552312 2.22080250
v -2.00741276 0.70552312 2.22949527
v -2.00600408 0.70552312 2.23113608
v -1.99875928 0.70552312 2.23954958
v -1.99714939 0.70552312 2.24094602
v -1.98869714 0.70552312 2.24824237
v -1.98004367 0.70552312 2.25532926
v -1.97038397 0.70552312 2.26115935
v -1.96796907 0.70552312 2.26252088
v -1.95619626 0.70552312 2.26911903
v -1.95478759 0.70552312 2.26981723
v -1.94744213 0.70552312 2.27341306
v -1.93566942 0.70552312 2.27749761
v -1.93275141 0.70552312 2.27826564
v -1.91826181 0.70552312 2.28158217
v -1.91544447 0.70552312 2.28203601
v -1.90085420 0.70552312 2.28374665
v -1.15071853 0.72282085 2.32958451
v -1.17124527 0.76390229 1.97293589
v -1.88727027 0.72361518 1.97293589
v -1.86603909 0.70552312 1.97562403
v -1.88354726 0.72351804 1.97293589
v -1.15071853 0.72282085 1.97293589
v -1.14266873 0.72282085 1.97293589
v -1.17124527 0.76390229 2.32958451
v -1.88354726 0.70552312 2.28402593
v -1.14266873 0.72282085 2.32958451
v -1.16118302 0.76369656 1.97293589
v -1.85718440 0.70552312 1.97656661
v -1.14005251 0.73742711 1.97293589
v -1.14216562 0.72552951 2.32958451
v -1.73331890 0.70552312 2.12430907
v -1.73502946 0.70552312 2.10440992
v -1.73573380 0.70552312 2.09798633
v -1.73845059 0.70552312 2.08960775
v -1.74448794 0.70552312 2.07218727
v -1.75042462 0.70552312 2.05836259
v -1.75525442 0.70552312 2.04970471
v -1.76400855 0.70552312 2.03717174
v -1.76551789 0.70552312 2.03507710
v -1.77034769 0.70552312 2.02854878
v -1.78775530 0.70552312 2.01119812
v -1.78896274 0.70552312 2.01029043
v -1.79640877 0.70552312 2.00477453
v -1.79872311 0.70552312 2.00313372
v -1.80888591 0.70552312 1.99604683
v -1.81753939 0.70552312 1.99126405
v -1.81975306 0.70552312 1.99025164
v -1.83142521 0.70552312 1.98532922
v -1.83464511 0.70552312 1.98417716
v -1.84883271 0.70552312 1.97932457
v -1.85104649 0.70552312 1.97859144
v -1.16118302 0.76369656 2.32958451
v -1.86613976 0.70552312 2.28290876
v -1.84873215 0.70552312 2.27959224
v -1.84631725 0.70552312 2.27882421
v -1.83333699 0.70552312 2.27449530
v -1.83192832 0.70552312 2.27393670
v -1.82468352 0.70552312 2.27082966
v -1.81401760 0.70552312 2.26534866
v -1.80083612 0.70552312 2.25780793
v -1.79218264 0.70552312 2.25117488
v -1.78232172 0.70552312 2.24248208
v -1.78081239 0.70552312 2.24105075
v -1.77356759 0.70552312 2.23382421
v -1.77236014 0.70552312 2.23242778
v -1.76622223 0.70552312 2.22516633
v -1.75756876 0.70552312 2.21273809
v -1.75666320 0.70552312 2.21130675
v -1.75233641 0.70552312 2.20404531
v -1.74740595 0.70552312 2.19378154
v -1.74629906 0.70552312 2.19095377
v -1.74106681 0.70552312 2.17643088
v -1.74036237 0.70552312 2.17395221
v -1.73734380 0.70552312 2.16239674
v -1.73523069 0.70552312 2.15370395
v -1.73492880 0.70552312 2.15192350
v -1.73372135 0.70552312 2.14169464
v -1.73362079 0.70552312 2.13886687
v -1.15866767 0.76286225 1.97293589
v -1.14186384 0.74788461 1.97293589
v -1.14005251 0.73742711 2.32958451
v -1.15252966 0.76080506 2.32958451
v -1.15252966 0.76080506 1.97293589
v -1.14266873 0.75211902 2.32958451
v -1.14266873 0.75211902 1.97293589
v -1.14548608 0.75462195 1.97293589
f 1 2 3
f 1 3 4
f 1 4 5
f 1 5 6
f 1 6 7
f 1 7 8
f 1 8 9
f 1 9 10
f 1 10 11
f 1 11 12
f 1 12 13
f 1 13 14
f 1 14 15
f 1 15 16
f 1 16 17
f 1 17 18
f 1 18 19
f 1 19 20
f 1 20 21
f 1 21 22
f 1 22 32
f 1 32 23
f 1 23 33
f 1 33 24
f 1 24 61
f 1 61 70
f 1 70 122
f 1 122 126
f 1 126 129
f 1 129 128
f 1 128 123
f 1 123 72
f 1 72 66
f 1 66 65
f 1 65 64
f 1 64 62
f 1 62 25
f 1 25 26
f 1 26 27
f 1 27 28
f 1 28 29
f 1 29 30
f 1 30 31
f 1 31 2
f 2 31 30
f 2 30 29
f 2 29 28
f 2 28 27
f 2 27 26
f 2 26 63
f 2 63 71
f 2 71 94
f 2 94 93
f 2 93 92
f 2 92 91
f 2 91 90
f 2 90 89
f 2 89 88
f 2 88 87
f 2 87 86
f 2 86 85
f 2 85 84
f 2 84 83
f 2 83 82
f 2 82 81
f 2 81 80
f 2 80 79
f 2 79 78
f 2 78 77
f 2 77 76
f 2 76 75
f 2 75 74
f 2 74 121
f 2 121 120
f 2 120 119
f 2 119 118
f 2 118 117
f 2 117 116
f 2 116 115
f 2 115 114
f 2 114 113
f 2 113 112
f 2 112 111
f 2 111 110
f 2 110 109
f 2 109 108
f 2 108 107
f 2 107 106
f 2 106 105
f 2 105 104
f 2 104 103
f 2 103 102
f 2 102 101
f 2 101 100
f 2 100 99
f 2 99 98
f 2 98 97
f 2 97 96
f 2 96 68
f 2 68 59
f 2 59 58
f 2 58 57
f 2 57 56
f 2 56 55
f 2 55 54
f 2 54 53
f 2 53 52
f 2 52 51
f 2 51 50
f 2 50 49
f 2 49 48
f 2 48 47
f 2 47 46
f 2 46 45
f 2 45 44
f 2 44 43
f 2 43 42
f 2 42 41
f 2 41 40
f 2 40 39
f 2 39 38
f 2 38 37
f 2 37 36
f 2 36 35
f 2 35 34
f 2 34 32
f 2 32 22
f 2 22 21
f 2 21 20
f 2 20 19
f 2 19 18
f 2 18 17
f 2 17 16
f 2 16 15
f 2 15 14
f 2 14 13
f 2 13 12
f 2 12 11
f 2 11 10
f 2 10 9
f 2 9 8
f 2 8 7
f 2 7 6
f 2 6 5
f 2 5 4
f 2 4 3
f 23 32 34
f 23 34 35
f 23 35 36
f 23 36 37
f 23 37 38
f 23 38 39
f 23 39 40
f 23 40 41
f 23 41 42
f 23 42 43
f 23 43 44
f 23 44 45
f 23 45 46
f 23 46 47
f 23 47 48
f 23 48 49
f 23 49 50
f 23 50 51
f 23 51 52
f 23 52 53
f 23 53 54
f 23 54 55
f 23 55 56
f 23 56 57
f 23 57 58
f 23 58 59
f 23 59 60
f 23 60 69
f 23 69 73
f 23 73 124
f 23 124 127
f 23 127 125
f 23 125 95
f 23 95 67
f 23 67 33
f 24 33 67
f 24 67 61
f 25 62 26
f 26 62 64
f 26 64 65
f 26 65 66
f 26 66 63
f 59 68 60
f 60 68 69
f 61 67 95
f 61 95 70
f 63 66 71
f 66 72 73
f 66 73 69
f 66 69 74
f 66 74 75
f 66 75 76
f 66 76 77
f 66 77 78
f 66 78 79
f 66 79 80
f 66 80 81
f 66 81 82
f 66 82 83
f 66 83 84
f 66 84 85
f 66 85 86
f 66 86 87
f 66 87 88
f 66 88 89
f 66 89 90
f 66 90 91
f 66 91 92
f 66 92 93
f 66 93 94
f 66 94 71
f 68 96 69
f 69 96 97
f 69 97 98
f 69 98 99
f 69 99 100
f 69 100 101
f 69 101 102
f 69 102 103
f 69 103 104
f 69 104 105
f 69 105 106
f 69 106 107
f 69 107 108
f 69 108 109
f 69 109 110
f 69 110 111
f 69 111 112
f 69 112 113
f 69 113 114
f 69 114 115
f 69 115 116
f 69 116 117
f 69 117 118
f 69 118 119
f 69 119 120
f 69 120 121
f 69 121 74
f 70 95 122
f 72 123 124
f 72 124 73
f 95 125 122
f 122 125 126
f 123 127 124
f 123 128 127
f 125 127 129
f 125 129 126
f 127 128 129

