# https://github.com/mikedh/trimesh
v 0.17435245 -0.00243644 1.55106835
v 0.16696794 0.03616413 1.55029089
v 0.16696794 0.03751978 1.53365287
v 0.17484023 -0.00174670 1.53365287
v 0.18230427 -0.00243644 1.55106835
v 0.17435245 -0.00243644 3.10960219
v 0.16696794 0.04477369 2.21130330
v 0.16696794 0.03813816 1.53209791
v 0.17534894 -0.00105697 1.52494508
v 0.17907578 -0.00174670 1.53365287
v 0.18951583 0.00769530 1.55106835
v 0.18230427 -0.00243644 3.10960219
v 0.17358069 0.00472240 3.10960219
v 0.16696794 0.05473901 2.22856333
v 0.17326233 0.00769530 3.10960219
v 0.16696794 0.04339433 1.52339012
v 0.16696794 0.04420295 1.52323462
v 0.16696794 0.05699846 1.52152416
v 0.16696794 0.05951951 1.52121316
v 0.18407956 0.05980493 1.52105771
v 0.17569505 -0.00105697 1.52494508
v 0.18309322 0.00769530 1.53365287
v 0.19451961 0.04731856 1.52370112
v 0.19584481 0.04189597 1.53474132
v 0.20017378 0.05980493 1.53365287
v 0.20231920 0.05980493 1.55106835
v 0.18951583 0.00769530 3.10960219
v 0.16696794 0.05980493 2.23089576
v 0.17320703 0.02505724 3.10960219
v 0.16696794 0.07692898 1.52105771
v 0.18407956 0.24053538 1.52105771
v 0.19539825 0.05980493 1.52307912
v 0.20017378 0.24053538 1.53365287
v 0.20145755 0.24053538 1.54407106
v 0.19825329 0.24053538 1.52929895
v 0.20231920 0.24053538 1.55106835
v 0.20231920 0.05980493 3.10960219
v 0.16696794 0.07719058 2.23120675
v 0.17320703 0.07719058 3.10960219
v 0.16696794 0.24053538 1.52105771
v 0.19539825 0.24053538 1.52307912
v 0.20231920 0.24053538 3.10960219
v 0.16696794 0.07964028 2.23105126
v 0.17358773 0.09455252 3.10960219
v 0.16696794 0.09557521 2.22856333
v 0.16696794 0.09509954 2.22949631
v 0.16696794 0.09455252 2.22965179
v 0.16696794 0.24053538 1.55231235
v 0.18321087 0.24053538 3.10960219
v 0.16696794 0.09904759 2.21830060
f 1 2 3
f 1 3 4
f 1 4 10
f 1 10 5
f 1 5 12
f 1 12 6
f 1 6 2
f 2 7 14
f 2 14 28
f 2 28 38
f 2 38 43
f 2 43 47
f 2 47 46
f 2 46 45
f 2 45 50
f 2 50 48
f 2 48 40
f 2 40 30
f 2 30 19
f 2 19 18
f 2 18 17
f 2 17 16
f 2 16 8
f 2 8 3
f 2 6 7
f 3 8 9
f 3 9 4
f 4 9 21
f 4 21 10
f 5 10 11
f 5 11 27
f 5 27 12
f 6 12 27
f 6 27 37
f 6 37 42
f 6 42 49
f 6 49 44
f 6 44 39
f 6 39 29
f 6 29 15
f 6 15 13
f 6 13 7
f 7 13 15
f 7 15 14
f 8 16 9
f 9 16 17
f 9 17 18
f 9 18 19
f 9 19 20
f 9 20 21
f 10 22 11
f 10 21 22
f 11 22 23
f 11 23 24
f 11 24 25
f 11 25 26
f 11 26 37
f 11 37 27
f 14 15 28
f 15 29 28
f 19 30 20
f 20 30 40
f 20 40 31
f 20 31 41
f 20 41 32
f 20 32 23
f 20 23 21
f 21 23 22
f 23 32 25
f 23 25 24
f 25 33 34
f 25 34 26
f 25 32 35
f 25 35 33
f 26 34 36
f 26 36 42
f 26 42 37
f 28 29 38
f 29 39 38
f 31 40 48
f 31 48 49
f 31 49 42
f 31 42 36
f 31 36 34
f 31 34 33
f 31 33 35
f 31 35 41
f 32 41 35
f 38 39 43
f 39 44 45
f 39 45 46
f 39 46 47
f 39 47 43
f 44 49 48
f 44 48 50
f 44 50 45

