# https://github.com/mikedh/trimesh
v -0.34527674 1.98676196 3.30580641
v -0.34527674 1.99093542 3.31855251
v -0.34527674 1.98823495 3.30034301
v -0.32993109 0.06007999 3.30580641
v -0.34527674 2.09159032 3.32318139
v -0.32921091 0.06007999 3.31571507
v -0.34527674 1.99093542 3.29260970
v -0.32921091 0.06007999 3.29578092
v -0.32897085 0.05025998 3.29622594
v -0.32921091 0.05001453 3.30580641
v -0.32897085 0.05050553 3.31530900
v -0.34527674 1.99707292 3.28988908
v -0.34527674 2.05771138 3.26732887
v -0.34527674 2.10116484 3.32351518
v -0.31980194 0.06007999 3.31646611
v -0.31980194 0.07751049 3.31682776
v -0.34527674 2.09232682 3.26667797
v -0.31980194 0.06007999 3.29057343
v -0.28139762 0.00214201 3.28202228
v -0.27811714 -0.00252240 3.28202228
v -0.31317717 0.03184749 3.29488520
v -0.31317717 0.03184749 3.29896882
v -0.22716732 0.04755956 3.31721167
v -0.27842120 -0.00252240 3.29883533
v -0.33716377 2.09159032 3.32351518
v -0.33749994 2.10951181 3.32351518
v -0.34527674 2.10951181 3.32318139
v -0.34527674 2.49200040 3.26936514
v -0.30991285 2.09232682 3.26667797
v -0.25459451 -0.00399549 3.28202228
v -0.26736391 -0.00350439 3.28202228
v -0.28661412 0.02080004 3.28202228
v -0.28709424 0.02546455 3.28202228
v -0.27882116 -0.00301339 3.28844261
v -0.21910240 0.04755956 3.31721167
v -0.26704390 -0.00399549 3.28921592
v -0.27242051 -0.00252240 3.29883533
v -0.30991285 2.09159032 3.32351518
v -0.30991285 2.10951181 3.32351518
v -0.34527674 2.49200040 3.28482627
v -0.34527674 2.49764690 3.27180199
v -0.30991285 2.49200040 3.26936514
v -0.18180228 2.50304785 3.28202228
v -0.18180228 0.04657746 3.28202228
v -0.22014259 0.00459709 3.28202228
v -0.22875164 -0.00350439 3.28202228
v -0.23294410 -0.00399549 3.28202228
v -0.18180228 0.04682301 3.28234488
v -0.21394990 0.06007999 3.31721167
v -0.23294410 -0.00399549 3.28234488
v -0.21393395 0.06621749 3.31721167
v -0.21236579 2.09232682 3.31721167
v -0.18180228 2.49200040 3.28482627
v -0.21841432 2.10509280 3.31721167
v -0.30991285 2.49887444 3.28336861
v -0.34527674 2.50402995 3.28227259
v -0.34527674 2.50402995 3.27459490
v -0.30991285 2.50402995 3.27459490
v -0.18180228 2.50378440 3.28203336
v -0.18180228 0.06007999 3.28518232
v -0.18180228 0.07751049 3.28520458
v -0.18180228 2.09134483 3.28520458
v -0.18180228 2.47456991 3.28486521
v -0.18180228 2.50329340 3.28241168
v -0.30991285 2.50402995 3.28227259
v -0.19818812 2.50378440 3.28226700
f 1 2 5
f 1 5 14
f 1 14 27
f 1 27 40
f 1 40 56
f 1 56 57
f 1 57 41
f 1 41 28
f 1 28 17
f 1 17 13
f 1 13 12
f 1 12 7
f 1 7 3
f 1 3 4
f 1 4 2
f 2 4 6
f 2 6 5
f 3 7 4
f 4 8 9
f 4 9 10
f 4 10 11
f 4 11 6
f 4 7 12
f 4 12 13
f 4 13 8
f 5 6 14
f 6 15 16
f 6 16 14
f 6 11 15
f 8 13 17
f 8 17 18
f 8 18 9
f 9 18 19
f 9 19 20
f 9 20 21
f 9 21 10
f 10 21 22
f 10 22 11
f 11 23 15
f 11 22 24
f 11 24 23
f 14 25 38
f 14 38 39
f 14 39 26
f 14 26 27
f 14 16 23
f 14 23 25
f 15 23 16
f 17 28 42
f 17 42 29
f 17 29 47
f 17 47 30
f 17 30 31
f 17 31 20
f 17 20 19
f 17 19 32
f 17 32 33
f 17 33 18
f 18 33 32
f 18 32 19
f 20 31 34
f 20 34 21
f 21 34 22
f 22 34 24
f 23 35 38
f 23 38 25
f 23 24 37
f 23 37 35
f 24 34 36
f 24 36 37
f 26 39 53
f 26 53 40
f 26 40 27
f 28 41 42
f 29 42 43
f 29 43 44
f 29 44 45
f 29 45 46
f 29 46 47
f 30 47 50
f 30 50 36
f 30 36 31
f 31 36 34
f 35 37 46
f 35 46 45
f 35 45 48
f 35 48 49
f 35 49 38
f 36 50 37
f 37 50 46
f 38 49 51
f 38 51 52
f 38 52 39
f 39 52 54
f 39 54 53
f 40 53 55
f 40 55 56
f 41 57 58
f 41 58 42
f 42 58 59
f 42 59 43
f 43 59 64
f 43 64 53
f 43 53 63
f 43 63 62
f 43 62 61
f 43 61 60
f 43 60 48
f 43 48 44
f 44 48 45
f 46 50 47
f 48 60 49
f 49 60 51
f 51 60 61
f 51 61 52
f 52 62 63
f 52 63 53
f 52 53 54
f 52 61 62
f 53 64 65
f 53 65 55
f 55 65 56
f 56 65 58
f 56 58 57
f 58 65 59
f 59 65 66
f 59 66 64
f 64 66 65

