# https://github.com/mikedh/trimesh
v -4.41364709 0.82116841 3.29038525
v -4.41364709 0.70700201 3.18509619
v -4.42190257 0.70700201 3.18509619
v -4.47117610 0.82100115 3.29038525
v -4.41364709 0.39394351 3.29038525
v -4.41364709 0.41790592 3.18509619
v -4.47117610 0.72000775 3.23826631
v -4.47117610 0.73062986 3.24323395
v -4.47117610 0.73146624 3.24363588
v -4.47117610 0.80214070 3.27783220
v -4.47117610 0.81021178 3.28220207
v -4.47117610 0.81083907 3.28255242
v -4.47117610 0.57259513 3.18509619
v -4.47117610 0.70261102 3.23151571
v -4.47117610 0.39394351 3.29038525
v -4.41364709 0.39423623 3.28843733
v -4.41364709 0.39707994 3.27349329
v -4.43770949 0.41539678 3.18509619
v -4.47117610 0.41405853 3.18509619
v -4.47117610 0.39423623 3.28843733
v -4.47117610 0.41368218 3.18619893
v -4.46187329 0.41397490 3.18509619
v -4.45516081 0.41422579 3.18509619
f 1 2 3
f 1 3 4
f 1 4 15
f 1 15 5
f 1 5 16
f 1 16 17
f 1 17 6
f 1 6 2
f 2 6 18
f 2 18 23
f 2 23 22
f 2 22 19
f 2 19 13
f 2 13 3
f 3 7 8
f 3 8 9
f 3 9 10
f 3 10 11
f 3 11 12
f 3 12 4
f 3 13 14
f 3 14 7
f 4 12 11
f 4 11 10
f 4 10 9
f 4 9 8
f 4 8 7
f 4 7 14
f 4 14 13
f 4 13 19
f 4 19 21
f 4 21 20
f 4 20 15
f 5 15 20
f 5 20 16
f 6 17 18
f 16 21 17
f 16 20 21
f 17 21 22
f 17 22 23
f 17 23 18
f 19 22 21

