# https://github.com/mikedh/trimesh
v -3.96481596 0.26104793 4.29460399
v -3.96481596 0.02506200 4.29460399
v -3.96481596 0.26104793 4.27760774
v -4.97716388 0.26104793 4.29460399
v -3.96481596 0.00768567 4.29453854
v -4.97716388 0.02506200 4.29460399
v -3.96481596 0.09456701 4.26599369
v -4.80254254 0.09456701 4.26599080
v -4.97716388 0.26104793 4.27760774
v -3.96481596 -0.00201452 4.29177753
v -4.97716388 0.00768567 4.29453854
v -4.97716388 0.00708106 4.29436766
v -3.96481596 0.07719079 4.26551212
v -4.97716388 0.07803193 4.26553201
v -4.97716388 0.09456701 4.26599080
v -3.96481596 -0.00477470 4.29098817
v -4.97716388 -0.00477470 4.29098817
v -3.96481596 0.05595018 4.26550653
v -4.83732814 0.07719079 4.26550922
v -4.97716388 0.07719079 4.26550922
v -3.96481596 -0.00750868 4.27882151
v -4.97716388 -0.00490623 4.29040407
v -3.96481596 0.04243823 4.26550363
v -4.80254254 0.04243823 4.26550073
v -4.97716388 0.04327948 4.26550073
v -3.96481596 -0.00456447 4.27031044
v -4.97716388 -0.00750868 4.27882151
v -3.96481596 0.02506200 4.26550073
v -4.61137090 0.02506200 4.26549783
v -4.97716388 0.02590315 4.26549783
v -3.96481596 -0.00372322 4.26788270
v -4.97716388 -0.00372322 4.26788270
v -3.96481596 0.00768567 4.26556349
v -4.97716388 0.02506200 4.26549783
v -4.97716388 0.00768567 4.26556349
f 1 2 5
f 1 5 10
f 1 10 16
f 1 16 21
f 1 21 26
f 1 26 31
f 1 31 33
f 1 33 28
f 1 28 23
f 1 23 18
f 1 18 13
f 1 13 7
f 1 7 3
f 1 3 9
f 1 9 4
f 1 4 6
f 1 6 2
f 2 6 11
f 2 11 5
f 3 7 8
f 3 8 15
f 3 15 9
f 4 9 15
f 4 15 14
f 4 14 20
f 4 20 25
f 4 25 30
f 4 30 34
f 4 34 35
f 4 35 32
f 4 32 27
f 4 27 22
f 4 22 17
f 4 17 12
f 4 12 11
f 4 11 6
f 5 11 12
f 5 12 10
f 7 13 8
f 8 14 15
f 8 13 14
f 10 12 17
f 10 17 16
f 13 18 19
f 13 19 14
f 14 19 20
f 16 17 22
f 16 22 21
f 18 23 24
f 18 24 19
f 19 24 25
f 19 25 20
f 21 22 27
f 21 27 26
f 23 28 29
f 23 29 24
f 24 29 25
f 25 29 30
f 26 27 32
f 26 32 31
f 28 33 29
f 29 34 30
f 29 33 35
f 29 35 34
f 31 32 35
f 31 35 33

