# https://github.com/mikedh/trimesh
v -3.82245094 0.84379306 2.49613378
v -3.99021563 0.79548243 2.49613378
v -3.82245094 0.59548504 2.49613378
v -3.82245094 0.87134354 2.40230756
v -3.82872529 0.92853113 2.45442293
v -3.83452330 0.94235942 2.46664904
v -3.85447967 0.93878740 2.48100551
v -3.86433463 0.93843373 2.48088201
v -3.99021563 0.80690582 2.49242889
v -3.99021563 0.59548504 2.49613378
v -3.87307271 0.93726662 2.48051151
v -3.96020722 0.86819590 2.48066587
v -3.82245094 0.59548504 2.18075539
v -3.82245094 0.84177717 2.18075539
v -3.82976005 0.92853113 2.43704085
v -3.83291366 0.94349114 2.45442293
v -3.84240730 0.95219129 2.45442293
v -3.85088259 0.95643528 2.46646382
v -3.84689129 0.94639121 2.47236079
v -3.86433463 0.94713389 2.47436759
v -3.99021563 0.82483663 2.48585275
v -3.99021563 0.59548504 2.18078626
v -3.86433463 0.95601087 2.46569196
v -3.87312196 0.95466693 2.46319115
v -3.92453217 0.91940657 2.46241932
v -3.94333877 0.90320872 2.46390129
v -3.95118988 0.87990223 2.47714626
v -3.94995804 0.89284634 2.46785318
v -3.96135693 0.88644502 2.46482751
v -3.99021563 0.85327126 2.46939684
v -3.99021563 0.84276742 2.47594217
v -3.94161412 0.59548504 2.18075539
v -3.91666459 0.87113134 2.18075539
v -3.85433183 0.95533890 2.44309218
v -3.84790964 0.94943272 2.43719521
v -3.83506530 0.94023742 2.43704085
v -3.85109608 0.95654138 2.45442293
v -3.86433463 0.95678892 2.45442293
v -3.99021563 0.83477460 2.18075539
v -3.87354906 0.95484376 2.45442293
v -3.89907347 0.94310210 2.43704085
v -3.90922406 0.93811543 2.43704085
v -3.90859993 0.93779713 2.44701318
v -3.92849058 0.92220054 2.45084154
v -3.95945162 0.90207700 2.44457413
v -3.94716576 0.90607339 2.45442293
v -3.95585459 0.89885865 2.45442293
v -3.96528252 0.89015850 2.45442293
v -3.99021563 0.86798373 2.45300274
v -3.99021563 0.85620670 2.46658732
v -3.93381225 0.87470335 2.18075539
v -3.86433463 0.95346448 2.43358296
v -3.86433463 0.95533890 2.44225857
v -3.87361472 0.95484376 2.44374052
v -3.99021563 0.87335943 2.18075539
v -3.90886272 0.93783249 2.42571008
v -3.97423410 0.90083918 2.38492545
v -3.96538106 0.90575512 2.40230756
v -3.97406990 0.90041478 2.40230756
v -3.98594513 0.89380125 2.35016129
v -3.99021563 0.89150242 2.35016129
v -3.98594513 0.89408419 2.36754337
v -3.96373859 0.90511851 2.41965877
v -3.96157048 0.90373922 2.43299635
v -3.98328427 0.89001703 2.41965877
v -3.99021563 0.88432302 2.41965877
v -3.99021563 0.88358034 2.42181994
v -3.98034420 0.88757676 2.43401519
v -3.99021563 0.87700218 2.43812144
v -3.97719063 0.88503036 2.44559296
v -3.99021563 0.87470335 2.44222768
v -3.96856750 0.87565824 2.18075539
v -3.98594513 0.87434968 2.18075539
v -3.88033253 0.95134248 2.43759658
v -3.99021563 0.87537530 2.19381510
v -3.99021563 0.88000833 2.22857929
v -3.95118988 0.91240401 2.36754337
v -3.97283800 0.90034404 2.35016129
v -3.99021563 0.88404011 2.26331260
v -3.99021563 0.89160852 2.36754337
v -3.98594513 0.89362442 2.38492545
v -3.99021563 0.89083047 2.38492545
v -3.99021563 0.88895602 2.40011550
v -3.99021563 0.89033534 2.33281008
v -3.97242737 0.89871719 2.41965877
v -3.99021563 0.88630355 2.41197114
v -3.96414917 0.90458803 2.35016129
f 1 2 10
f 1 10 3
f 1 3 13
f 1 13 14
f 1 14 4
f 1 4 5
f 1 5 6
f 1 6 7
f 1 7 8
f 1 8 2
f 2 9 21
f 2 21 31
f 2 31 30
f 2 30 50
f 2 50 49
f 2 49 71
f 2 71 69
f 2 69 67
f 2 67 66
f 2 66 86
f 2 86 83
f 2 83 82
f 2 82 80
f 2 80 61
f 2 61 84
f 2 84 79
f 2 79 76
f 2 76 75
f 2 75 55
f 2 55 39
f 2 39 22
f 2 22 10
f 2 8 11
f 2 11 12
f 2 12 9
f 3 10 22
f 3 22 32
f 3 32 13
f 4 14 5
f 5 14 15
f 5 15 16
f 5 16 6
f 6 16 17
f 6 17 18
f 6 18 19
f 6 19 7
f 7 19 18
f 7 18 20
f 7 20 8
f 8 20 11
f 9 12 21
f 11 20 23
f 11 23 24
f 11 24 25
f 11 25 26
f 11 26 27
f 11 27 12
f 12 27 26
f 12 26 28
f 12 28 29
f 12 29 30
f 12 30 31
f 12 31 21
f 13 32 39
f 13 39 55
f 13 55 73
f 13 73 72
f 13 72 51
f 13 51 33
f 13 33 14
f 14 33 34
f 14 34 35
f 14 35 17
f 14 17 36
f 14 36 16
f 14 16 15
f 16 36 17
f 17 35 34
f 17 34 37
f 17 37 18
f 18 37 38
f 18 38 23
f 18 23 20
f 22 39 32
f 23 38 24
f 24 38 40
f 24 40 41
f 24 41 42
f 24 42 43
f 24 43 44
f 24 44 25
f 25 44 45
f 25 45 46
f 25 46 26
f 26 46 47
f 26 47 29
f 26 29 28
f 29 47 48
f 29 48 49
f 29 49 50
f 29 50 30
f 33 51 34
f 34 51 52
f 34 52 53
f 34 53 38
f 34 38 37
f 38 53 54
f 38 54 40
f 40 54 41
f 41 54 56
f 41 56 42
f 42 57 58
f 42 58 59
f 42 59 43
f 42 56 60
f 42 60 61
f 42 61 62
f 42 62 57
f 43 59 63
f 43 63 64
f 43 64 45
f 43 45 44
f 45 47 46
f 45 64 65
f 45 65 66
f 45 66 67
f 45 67 68
f 45 68 69
f 45 69 70
f 45 70 48
f 45 48 47
f 48 70 49
f 49 70 71
f 51 72 52
f 52 54 53
f 52 72 73
f 52 73 54
f 54 74 56
f 54 73 55
f 54 55 75
f 54 75 76
f 54 76 74
f 56 77 78
f 56 78 60
f 56 74 76
f 56 76 79
f 56 79 77
f 57 62 80
f 57 80 58
f 58 80 59
f 59 80 81
f 59 81 82
f 59 82 83
f 59 83 63
f 60 84 61
f 60 78 84
f 61 80 62
f 63 83 85
f 63 85 64
f 64 85 65
f 65 86 66
f 65 85 86
f 67 69 68
f 69 71 70
f 77 87 78
f 77 79 87
f 78 87 84
f 79 84 87
f 80 82 81
f 83 86 85

