# https://github.com/mikedh/trimesh
v -1.93496198 0.40950535 2.46193244
v -1.93501324 0.40757275 2.46193244
v -1.97192873 0.40950535 2.46193244
v -1.94962566 0.40950535 2.58134066
v -1.93929953 0.39329857 2.46193244
v -1.94969743 0.40729965 2.58134066
v -1.97894268 0.40560333 2.46193244
v -2.03971997 0.39928025 2.51123394
v -2.03971997 0.39949561 2.51801316
v -2.03971997 0.39966364 2.52437161
v -1.97275931 0.40950535 2.58134066
v -1.95154315 0.36896731 2.46193244
v -1.95134834 0.40275688 2.58134066
v -1.95545009 0.39225345 2.58134066
v -1.98566956 0.40066671 2.46193244
v -2.03024503 0.39761546 2.49887931
v -2.03971997 0.39167578 2.50516764
v -2.03971997 0.39965841 2.52478069
v -2.03971997 0.39006878 2.53801194
v -1.97618426 0.40683222 2.58134066
v -1.95682417 0.35870022 2.46193244
v -1.97044186 0.38646083 2.58134066
v -1.99604685 0.38923897 2.46193244
v -2.03971997 0.39098257 2.50498066
v -2.03971997 0.38970113 2.53829244
v -1.98392627 0.40078752 2.58134066
v -2.00518344 0.35639478 2.48918968
v -1.97125194 0.35822755 2.46193244
v -2.03971997 0.35585905 2.52391578
v -1.98392627 0.39282067 2.58134066
v -2.03971997 0.36039131 2.53721714
v -1.99670313 0.38333605 2.46193244
v -2.03245995 0.38603021 2.49677541
v -2.03971997 0.37255424 2.50235076
v -2.03971997 0.38929676 2.53838596
v -2.03971997 0.37255424 2.54181065
v -1.98946361 0.35799132 2.47012598
v -2.03971997 0.35654184 2.52054954
v -2.03886888 0.35942495 2.50736506
v -1.98624371 0.35975584 2.46193244
v -1.99664161 0.37603616 2.46193244
v -2.03971997 0.37042735 2.50259621
v -2.00518344 0.36037557 2.47586497
v -2.03971997 0.35960350 2.50783259
v -1.99340131 0.36363689 2.46193244
v -1.99529829 0.36556949 2.46193244
v -2.03236767 0.36249199 2.49685722
v -2.01438156 0.36319043 2.48003770
v -1.99636479 0.36469241 2.46320648
f 1 2 5
f 1 5 12
f 1 12 21
f 1 21 28
f 1 28 40
f 1 40 45
f 1 45 46
f 1 46 41
f 1 41 32
f 1 32 23
f 1 23 15
f 1 15 7
f 1 7 3
f 1 3 11
f 1 11 4
f 1 4 2
f 2 4 6
f 2 6 5
f 3 7 8
f 3 8 9
f 3 9 10
f 3 10 11
f 4 11 20
f 4 20 26
f 4 26 30
f 4 30 22
f 4 22 14
f 4 14 13
f 4 13 6
f 5 6 13
f 5 13 14
f 5 14 12
f 7 15 16
f 7 16 8
f 8 16 17
f 8 17 24
f 8 24 34
f 8 34 42
f 8 42 44
f 8 44 38
f 8 38 29
f 8 29 31
f 8 31 36
f 8 36 35
f 8 35 25
f 8 25 19
f 8 19 18
f 8 18 10
f 8 10 9
f 10 18 11
f 11 18 19
f 11 19 20
f 12 14 21
f 14 22 21
f 15 23 16
f 16 23 17
f 17 23 24
f 19 25 26
f 19 26 20
f 21 27 28
f 21 22 29
f 21 29 27
f 22 30 31
f 22 31 29
f 23 32 33
f 23 33 24
f 24 33 34
f 25 35 26
f 26 35 36
f 26 36 30
f 27 37 28
f 27 29 38
f 27 38 39
f 27 39 37
f 28 37 40
f 30 36 31
f 32 34 33
f 32 41 34
f 34 41 42
f 37 39 43
f 37 43 40
f 38 44 39
f 39 44 43
f 40 43 45
f 41 46 42
f 42 46 47
f 42 47 44
f 43 47 48
f 43 48 45
f 43 44 47
f 45 48 49
f 45 49 46
f 46 49 48
f 46 48 47

