# https://github.com/mikedh/trimesh
v -2.01469111 0.04238748 2.22086570
v -2.01467878 0.02500059 2.22086570
v -2.01466646 0.02507018 2.22089658
v -2.01469111 0.70260211 2.22086570
v -2.01464181 0.00740512 2.22086570
v -2.01464181 0.00768329 2.22087805
v -2.00756572 0.02507018 2.22958822
v -2.01466646 0.70267170 2.22089658
v -2.01464181 0.70399307 2.22086570
v -2.01412399 -0.00121884 2.22086570
v -2.00754107 0.00768329 2.22956352
v -1.99886233 0.00768329 2.23960801
v -1.99887476 0.02507018 2.23963272
v -2.00756572 0.70267170 2.22958822
v -2.01458019 0.70552312 2.22086570
v -2.01386519 -0.00170569 2.22086570
v -1.99804873 -0.00254021 2.23880495
v -1.98880298 0.00768329 2.24829964
v -1.98882763 0.02507018 2.24831818
v -1.97976684 -0.00156650 2.25512571
v -1.99887476 0.70267170 2.23963272
v -2.00607409 0.70552312 2.23115729
v -2.00749177 0.70552312 2.22951409
v -1.97699309 0.70552312 2.22086570
v -2.00937788 -0.00344432 2.22086570
v -2.00438517 -0.00337473 2.22721609
v -1.98646078 -0.00337473 2.24513063
v -1.97043482 -0.00351392 2.25773258
v -1.98012434 0.00768329 2.25539132
v -1.98014899 0.02507018 2.25540986
v -1.98882763 0.70267170 2.24831818
v -1.94651906 -0.00226204 2.27296611
v -1.95629496 0.00768329 2.26900021
v -1.97043482 0.00768329 2.26108691
v -1.99716119 0.70552312 2.24098557
v -1.99880071 0.70552312 2.23955859
v -1.88897358 0.70552312 2.25822677
v -1.88875165 0.70538404 2.25828238
v -1.98610328 0.02507018 2.22086570
v -1.99595302 -0.00407026 2.22086570
v -1.98829759 -0.00407026 2.22905696
v -1.91831339 -0.00497437 2.27643782
v -1.93569541 -0.00393117 2.27473904
v -1.97043482 0.02507018 2.26133401
v -1.98014899 0.70267170 2.25540986
v -1.98733600 0.70552312 2.24942393
v -1.98875368 0.70552312 2.24825022
v -1.91831339 0.00768329 2.28119445
v -1.93569541 0.00768329 2.27754976
v -1.94761622 0.00768329 2.27346647
v -1.95633193 0.02507018 2.26922259
v -1.88875165 0.70552312 2.25925223
v -1.88875165 0.02507018 2.26300809
v -1.98695385 0.01415115 2.22086570
v -1.88875165 -0.00455711 2.26851836
v -1.91831339 -0.00497437 2.26730140
v -1.99256296 -0.00316615 2.22086570
v -1.88875165 -0.00455711 2.27698143
v -1.90094368 -0.00462660 2.27695054
v -1.90094368 0.00768329 2.28259054
v -1.95633193 0.04245708 2.26922878
v -1.97043482 0.68528481 2.26133401
v -1.97043482 0.70267170 2.26129696
v -1.98007505 0.70552312 2.25535427
v -1.90094368 0.02507018 2.28326388
v -1.91831339 0.02507018 2.28149714
v -1.93569541 0.02507018 2.27761153
v -1.94765329 0.02507018 2.27348501
v -1.88875165 0.70552312 2.28396812
v -1.88875165 0.00768329 2.26402737
v -1.98750864 0.00768329 2.22086570
v -1.88875165 -0.00087107 2.26714080
v -1.88875165 0.00399725 2.28099677
v -1.88875165 0.00768329 2.28267701
v -1.88875165 0.01992358 2.28318976
v -1.88875165 0.02507018 2.28339360
v -1.95633193 0.68528481 2.26922878
v -1.95633193 0.70267170 2.26919170
v -1.97043482 0.70552312 2.26118576
v -1.90094368 0.70552312 2.28376425
v -1.91831339 0.04245708 2.28150330
v -1.91831339 0.70267170 2.28160831
v -1.93284772 0.70552312 2.27826634
v -1.93569541 0.70267170 2.27761153
v -1.94765329 0.70267170 2.27348501
v -1.95479101 0.70552312 2.26984651
v -1.95620869 0.70552312 2.26912993
v -1.91547802 0.70552312 2.28204693
v -1.91831339 0.70552312 2.28160215
v -1.93569541 0.70552312 2.27750652
v -1.94752995 0.70552312 2.27343559
f 1 2 3
f 1 3 8
f 1 8 4
f 1 4 9
f 1 9 15
f 1 15 24
f 1 24 39
f 1 39 54
f 1 54 71
f 1 71 57
f 1 57 40
f 1 40 25
f 1 25 16
f 1 16 10
f 1 10 5
f 1 5 2
f 2 5 6
f 2 6 3
f 3 6 7
f 3 7 14
f 3 14 8
f 4 8 9
f 5 10 11
f 5 11 6
f 6 11 7
f 7 11 12
f 7 12 13
f 7 13 21
f 7 21 14
f 8 14 9
f 9 14 15
f 10 16 17
f 10 17 12
f 10 12 11
f 12 18 19
f 12 19 13
f 12 17 20
f 12 20 18
f 13 19 31
f 13 31 21
f 14 21 22
f 14 22 23
f 14 23 15
f 15 23 22
f 15 22 36
f 15 36 35
f 15 35 47
f 15 47 46
f 15 46 64
f 15 64 79
f 15 79 87
f 15 87 86
f 15 86 91
f 15 91 90
f 15 90 83
f 15 83 89
f 15 89 88
f 15 88 80
f 15 80 69
f 15 69 52
f 15 52 37
f 15 37 24
f 16 25 17
f 17 25 26
f 17 26 27
f 17 27 28
f 17 28 20
f 18 20 29
f 18 29 30
f 18 30 19
f 19 30 45
f 19 45 31
f 20 32 33
f 20 33 34
f 20 34 29
f 20 28 32
f 21 31 35
f 21 35 36
f 21 36 22
f 24 37 38
f 24 38 39
f 25 40 41
f 25 41 27
f 25 27 26
f 27 41 28
f 28 41 42
f 28 42 43
f 28 43 32
f 29 34 44
f 29 44 30
f 30 44 62
f 30 62 45
f 31 45 46
f 31 46 47
f 31 47 35
f 32 43 48
f 32 48 49
f 32 49 50
f 32 50 33
f 33 50 51
f 33 51 44
f 33 44 34
f 37 52 38
f 38 53 39
f 38 52 69
f 38 69 76
f 38 76 75
f 38 75 74
f 38 74 73
f 38 73 58
f 38 58 55
f 38 55 72
f 38 72 70
f 38 70 53
f 39 53 54
f 40 55 56
f 40 56 42
f 40 42 41
f 40 57 55
f 42 56 55
f 42 55 58
f 42 58 59
f 42 59 60
f 42 60 48
f 42 48 43
f 44 51 61
f 44 61 77
f 44 77 62
f 45 62 63
f 45 63 64
f 45 64 46
f 48 60 65
f 48 65 66
f 48 66 49
f 49 66 67
f 49 67 50
f 50 67 68
f 50 68 51
f 51 68 61
f 53 70 71
f 53 71 54
f 55 57 72
f 57 71 70
f 57 70 72
f 58 73 59
f 59 73 60
f 60 74 75
f 60 75 76
f 60 76 65
f 60 73 74
f 61 68 85
f 61 85 77
f 62 77 78
f 62 78 63
f 63 78 79
f 63 79 64
f 65 76 69
f 65 69 80
f 65 80 66
f 66 80 81
f 66 81 67
f 67 81 82
f 67 82 83
f 67 83 84
f 67 84 85
f 67 85 68
f 77 85 78
f 78 85 86
f 78 86 87
f 78 87 79
f 80 88 81
f 81 88 82
f 82 88 89
f 82 89 83
f 83 90 84
f 84 90 91
f 84 91 85
f 85 91 86

