# https://github.com/mikedh/trimesh
v -1.37909989 0.40715166 2.81678650
v -1.42090420 0.40715166 2.81678650
v -1.37922251 0.39022909 2.81678650
v -1.37909989 0.39058649 2.81657912
v -1.37909989 0.40715166 2.77585694
v -1.42253015 0.38827935 2.81678650
v -1.41459469 0.40715166 2.80952705
v -1.48356997 0.39984136 2.58137214
v -1.48356997 0.39984136 2.58759456
v -1.48356997 0.38992431 2.59517666
v -1.38530708 0.36435645 2.81678650
v -1.37909989 0.38846851 2.80300508
v -1.39709781 0.40715166 2.79026063
v -1.37909989 0.40631606 2.77477377
v -1.42790925 0.38992431 2.58137214
v -1.43451517 0.39996750 2.58137214
v -1.43807403 0.40024603 2.58137214
v -1.44903645 0.40023552 2.58137214
v -1.44917958 0.40062440 2.59344824
v -1.42259167 0.38677628 2.81678650
v -1.48356997 0.37303851 2.59886405
v -1.40742622 0.40715166 2.80139186
v -1.48356997 0.39624661 2.58137214
v -1.37909989 0.39001363 2.77694006
v -1.37909989 0.38874710 2.78339296
v -1.39579912 0.35447098 2.81678650
v -1.39572766 0.35447098 2.81674042
v -1.43238817 0.35783970 2.58137214
v -1.37909989 0.40101857 2.77477377
v -1.42508673 0.37255497 2.58137214
v -1.42766381 0.38850005 2.58137214
v -1.42068962 0.37256025 2.81678650
v -1.48356997 0.37255497 2.59891013
v -1.47972486 0.35837575 2.58137214
v -1.48356997 0.35852820 2.58164871
v -1.41170071 0.35545380 2.81678650
v -1.44917958 0.35346725 2.59344824
v -1.45005904 0.35583740 2.58137214
v -1.42334831 0.36344209 2.79431670
v -1.48356997 0.35852820 2.59158150
f 1 2 6
f 1 6 20
f 1 20 32
f 1 32 36
f 1 36 26
f 1 26 11
f 1 11 3
f 1 3 4
f 1 4 12
f 1 12 25
f 1 25 24
f 1 24 29
f 1 29 14
f 1 14 5
f 1 5 13
f 1 13 22
f 1 22 7
f 1 7 2
f 2 7 8
f 2 8 9
f 2 9 10
f 2 10 6
f 3 11 4
f 4 11 12
f 5 14 15
f 5 15 16
f 5 16 17
f 5 17 18
f 5 18 19
f 5 19 8
f 5 8 13
f 6 10 21
f 6 21 20
f 7 22 8
f 8 18 17
f 8 17 16
f 8 16 15
f 8 15 31
f 8 31 30
f 8 30 28
f 8 28 38
f 8 38 34
f 8 34 23
f 8 23 35
f 8 35 40
f 8 40 33
f 8 33 21
f 8 21 10
f 8 10 9
f 8 22 13
f 8 19 18
f 11 24 25
f 11 25 12
f 11 26 27
f 11 27 28
f 11 28 24
f 14 29 30
f 14 30 31
f 14 31 15
f 20 21 33
f 20 33 32
f 23 34 35
f 24 28 30
f 24 30 29
f 26 36 37
f 26 37 27
f 27 37 28
f 28 37 38
f 32 39 36
f 32 33 40
f 32 40 39
f 34 38 35
f 35 37 40
f 35 38 37
f 36 39 40
f 36 40 37

