# https://github.com/mikedh/trimesh
v -5.65339028 0.25460741 1.39487612
v -5.63948313 0.25477405 1.39487612
v -5.66980389 0.26829729 1.39487612
v -5.63658666 0.26803538 1.10088001
v -5.63548226 0.26729738 1.10088001
v -5.62444506 0.26022626 1.10088001
v -5.61574902 0.25904771 1.10088001
v -5.60964519 0.25904771 1.10088001
v -5.60803146 0.25777398 1.32500314
v -5.60802483 0.25776207 1.32730536
v -5.60796538 0.25771443 1.34241380
v -5.60799852 0.25767870 1.35979573
v -5.60801820 0.25767870 1.39487612
v -5.60836887 0.25807151 1.27288616
v -5.67110672 0.27159476 1.39487612
v -5.64565304 0.27613033 1.10088001
v -5.64476695 0.27533268 1.10088001
v -5.60921519 0.26740447 1.10088001
v -5.60952609 0.25896434 1.11656401
v -5.60873921 0.25836916 1.22079797
v -5.60803146 0.26536882 1.32500314
v -5.60918888 0.26830920 1.10088001
v -5.60796538 0.26528555 1.34241380
v -5.60801820 0.26486892 1.39487612
v -5.60848776 0.25817870 1.25550424
v -5.67312352 0.28597510 1.39487612
v -5.65136002 0.30306963 1.10088001
v -5.64847018 0.28568936 1.10088001
v -5.60997576 0.27647551 1.10088001
v -5.61006835 0.27733260 1.10088001
v -5.62121781 0.37622122 1.32733415
v -5.62212378 0.37622122 1.39453078
v -5.62338705 0.37622122 1.39487612
v -5.67464466 0.30306963 1.39487612
v -5.65179002 0.32041406 1.10088001
v -5.67552412 0.33378258 1.39487612
v -5.62765906 0.35492449 1.10088001
v -5.64472055 0.37622122 1.32733415
v -5.64746499 0.37622122 1.39487612
v -5.65173037 0.32210453 1.10088001
v -5.67523311 0.35516258 1.39453078
v -5.67508771 0.35516258 1.39487612
v -5.64837759 0.35492449 1.10088001
v -5.66977738 0.37622122 1.37922091
v -5.67417510 0.37622122 1.39453078
v -5.67420804 0.37305466 1.39487612
v -5.65116843 0.33779433 1.10088001
v -5.67447275 0.37253094 1.39453078
v -5.67428757 0.37253094 1.39487612
v -5.65091035 0.33947279 1.10088001
f 1 2 13
f 1 13 24
f 1 24 33
f 1 33 39
f 1 39 46
f 1 46 49
f 1 49 42
f 1 42 36
f 1 36 34
f 1 34 26
f 1 26 15
f 1 15 3
f 1 3 4
f 1 4 5
f 1 5 6
f 1 6 7
f 1 7 8
f 1 8 2
f 2 9 10
f 2 10 11
f 2 11 12
f 2 12 13
f 2 8 14
f 2 14 9
f 3 15 16
f 3 16 17
f 3 17 4
f 4 17 16
f 4 16 28
f 4 28 27
f 4 27 35
f 4 35 40
f 4 40 47
f 4 47 50
f 4 50 43
f 4 43 37
f 4 37 30
f 4 30 29
f 4 29 22
f 4 22 18
f 4 18 8
f 4 8 7
f 4 7 6
f 4 6 5
f 8 18 19
f 8 19 20
f 8 20 14
f 9 21 23
f 9 23 11
f 9 11 10
f 9 14 18
f 9 18 22
f 9 22 21
f 11 23 24
f 11 24 13
f 11 13 12
f 14 20 25
f 14 25 18
f 15 26 27
f 15 27 28
f 15 28 16
f 18 25 20
f 18 20 19
f 21 22 29
f 21 29 30
f 21 30 23
f 23 30 31
f 23 31 24
f 24 31 32
f 24 32 33
f 26 34 27
f 27 34 36
f 27 36 35
f 30 37 31
f 31 38 44
f 31 44 45
f 31 45 39
f 31 39 33
f 31 33 32
f 31 37 43
f 31 43 38
f 35 36 41
f 35 41 40
f 36 42 41
f 38 43 44
f 39 45 46
f 40 41 47
f 41 42 48
f 41 48 47
f 42 49 48
f 43 50 45
f 43 45 44
f 45 50 47
f 45 47 48
f 45 48 49
f 45 49 46

