# https://github.com/mikedh/trimesh
v -1.37968295 1.11418539 -0.20059812
v -1.36865280 1.11418539 -0.20888777
v -1.39293082 1.11418539 -0.20668166
v -1.39429227 1.03106654 -0.22536372
v -1.38115045 1.03106654 -0.22198465
v -1.37968295 1.03106654 -0.22160788
v -1.36818407 1.03106654 -0.22580138
v -1.36690402 1.03106654 -0.22626928
v -1.36362271 1.11418539 -0.22133447
v -1.36177203 1.03106654 -0.23745789
v -1.36123805 1.03106654 -0.23870376
v -1.39529497 1.11418539 -0.20895468
v -1.39503420 1.03106654 -0.22670094
v -1.36077761 1.10230662 -0.23870376
v -1.36194332 1.11418539 -0.23870376
v -1.36120139 1.03280768 -0.23870376
v -1.36492305 1.03106654 -0.25288267
v -1.40156430 1.11418539 -0.22683453
v -1.40167015 1.03106654 -0.23870376
v -1.36535098 1.08492782 -0.25421967
v -1.36576275 1.10230662 -0.25330811
v -1.36529796 1.03280768 -0.25445663
v -1.36529796 1.06756529 -0.25445663
v -1.36732387 1.11418539 -0.25133895
v -1.36533068 1.03106654 -0.25443239
v -1.40117698 1.11418539 -0.23870376
v -1.40241622 1.10230662 -0.23870376
v -1.40107921 1.03106654 -0.24039951
v -1.37968295 1.06756529 -0.26267959
v -1.37968295 1.08492782 -0.26216280
v -1.37968295 1.10230662 -0.26029099
v -1.37968295 1.03280768 -0.26267959
v -1.37968295 1.03106654 -0.26264914
v -1.37968295 1.11418539 -0.25634667
v -1.39893109 1.11418539 -0.24366301
v -1.39531548 1.10230662 -0.25437150
v -1.39567402 1.08492782 -0.25533796
v -1.39574755 1.06756529 -0.25561136
v -1.39574755 1.03106654 -0.25561136
v -1.39378688 1.11418539 -0.25239633
v -1.38883819 1.11418539 -0.25426835
f 1 2 9
f 1 9 15
f 1 15 24
f 1 24 34
f 1 34 41
f 1 41 40
f 1 40 35
f 1 35 26
f 1 26 18
f 1 18 12
f 1 12 3
f 1 3 4
f 1 4 5
f 1 5 6
f 1 6 7
f 1 7 8
f 1 8 2
f 2 8 10
f 2 10 11
f 2 11 9
f 3 12 4
f 4 13 19
f 4 19 28
f 4 28 39
f 4 39 33
f 4 33 25
f 4 25 17
f 4 17 11
f 4 11 10
f 4 10 8
f 4 8 7
f 4 7 6
f 4 6 5
f 4 12 13
f 9 14 15
f 9 11 16
f 9 16 14
f 11 17 16
f 12 18 19
f 12 19 13
f 14 20 21
f 14 21 15
f 14 16 22
f 14 22 23
f 14 23 20
f 15 21 24
f 16 17 22
f 17 25 22
f 18 26 27
f 18 27 19
f 19 27 28
f 20 23 29
f 20 29 30
f 20 30 21
f 21 30 31
f 21 31 24
f 22 32 29
f 22 29 23
f 22 25 33
f 22 33 32
f 24 31 34
f 26 35 27
f 27 35 36
f 27 36 37
f 27 37 38
f 27 38 39
f 27 39 28
f 29 38 37
f 29 37 30
f 29 32 39
f 29 39 38
f 30 37 36
f 30 36 31
f 31 36 40
f 31 40 41
f 31 41 34
f 32 33 39
f 35 40 36

