# https://github.com/mikedh/trimesh
v -6.34717985 0.61580294 3.82696047
v -6.34721837 0.62878978 4.07028731
v -6.34717985 0.56360037 3.82696047
v -6.34721837 0.62878978 1.74212162
v -6.34787393 0.62878978 4.15895958
v -6.34779688 0.61580294 4.15895958
v -6.34721837 0.56360037 4.07028731
v -6.34721837 0.56360037 1.74212162
v -6.34768110 0.56360037 1.49879478
v -6.34768110 0.62878978 1.49905555
v -6.38952684 0.62878978 4.15895958
v -6.34779688 0.56360037 4.15895958
v -6.34779688 0.56360037 1.49462188
v -6.34779688 0.61580294 1.49462188
v -6.34771962 0.62878978 1.49749070
v -6.39064532 0.62878978 4.15869860
v -6.73119693 0.60942124 4.15895958
v -6.69683326 0.56360037 4.15895958
v -6.69683326 0.56360037 1.49462188
v -6.34783541 0.62878978 1.49462188
v -6.39064532 0.62878978 1.49462188
v -6.74114733 0.60815129 4.15895958
v -6.73119693 0.60942124 1.49462188
v -6.73875625 0.60845758 1.49462188
v -6.74114733 0.60156532 4.15895958
v -6.74114733 0.60156532 1.49462188
v -6.74114733 0.60815129 1.49462188
f 1 2 7
f 1 7 3
f 1 3 8
f 1 8 4
f 1 4 2
f 2 5 6
f 2 6 12
f 2 12 7
f 2 4 10
f 2 10 15
f 2 15 20
f 2 20 21
f 2 21 16
f 2 16 11
f 2 11 5
f 3 7 12
f 3 12 18
f 3 18 19
f 3 19 13
f 3 13 9
f 3 9 8
f 4 8 9
f 4 9 10
f 5 11 17
f 5 17 22
f 5 22 25
f 5 25 18
f 5 18 12
f 5 12 6
f 9 13 14
f 9 14 15
f 9 15 10
f 11 16 17
f 13 19 26
f 13 26 27
f 13 27 24
f 13 24 23
f 13 23 21
f 13 21 20
f 13 20 14
f 14 20 15
f 16 21 23
f 16 23 17
f 17 23 24
f 17 24 22
f 18 25 26
f 18 26 19
f 22 24 27
f 22 27 26
f 22 26 25

