# https://github.com/mikedh/trimesh
v -3.99023205 0.59548504 2.49617360
v -3.88554562 0.59548504 2.49617360
v -3.99023205 0.59548504 2.56457939
v -3.99023205 0.79550227 2.49617360
v -3.88554562 0.59548504 2.58781494
v -3.88554562 0.75831477 2.49617360
v -3.99023205 0.61087595 2.56163678
v -3.93180193 0.59548504 2.58781494
v -3.92795919 0.60737213 2.58781494
v -3.92602245 0.61259557 2.58781494
v -3.88977775 0.69827734 2.58781494
v -3.99023205 0.79287977 2.49992359
v -3.91645146 0.81508481 2.49617360
v -3.88554562 0.70491950 2.58781494
v -3.90399078 0.80240235 2.49617360
v -3.88554562 0.76272135 2.49620948
v -3.99023205 0.64958967 2.55320385
v -3.99023205 0.68531546 2.54278819
v -3.99023205 0.65590938 2.55146341
v -3.99023205 0.78737687 2.50312630
v -3.88554562 0.71229251 2.58407391
v -3.91328505 0.81224738 2.49617360
v -3.88554562 0.72065435 2.57676231
v -3.88554562 0.72144967 2.57599977
v -3.99023205 0.75556329 2.51779428
v -3.99023205 0.73804435 2.52444198
v -3.88554562 0.72856475 2.56378992
v -3.88554562 0.73123022 2.55867631
f 1 2 5
f 1 5 8
f 1 8 3
f 1 3 7
f 1 7 17
f 1 17 19
f 1 19 18
f 1 18 26
f 1 26 25
f 1 25 20
f 1 20 12
f 1 12 4
f 1 4 13
f 1 13 22
f 1 22 15
f 1 15 6
f 1 6 2
f 2 6 16
f 2 16 28
f 2 28 27
f 2 27 24
f 2 24 23
f 2 23 21
f 2 21 14
f 2 14 5
f 3 8 9
f 3 9 10
f 3 10 11
f 3 11 7
f 4 12 13
f 5 14 11
f 5 11 10
f 5 10 9
f 5 9 8
f 6 15 16
f 7 11 17
f 11 14 18
f 11 18 19
f 11 19 17
f 12 20 21
f 12 21 13
f 13 21 23
f 13 23 24
f 13 24 22
f 14 21 20
f 14 20 25
f 14 25 26
f 14 26 18
f 15 22 24
f 15 24 27
f 15 27 28
f 15 28 16

