# https://github.com/mikedh/trimesh
v -4.00004978 0.44573924 3.16532826
v -4.00334875 0.46429138 3.02793724
v -4.02038783 0.46429138 3.04562737
v -4.03759690 0.46429138 3.06292727
v -4.05528216 0.46429138 3.07993450
v -4.07328485 0.46429138 3.09671410
v -4.11585414 0.46429138 3.12103800
v -4.07132361 0.45132142 3.16532826
v -4.00004978 0.42909267 3.16532826
v -4.00004978 0.46429138 3.02075065
v -4.11585414 0.45306497 3.16532826
v -4.10891604 0.45279969 3.16532826
v -4.10756697 0.45274796 3.16532826
v -4.11585414 0.46429138 2.83315102
v -4.11585414 0.43300706 3.16532826
v -4.00004978 0.42999543 2.83315102
v -4.00004978 0.46429138 2.83315102
v -4.11585414 0.43403048 2.83315102
v -4.09323743 0.43323791 2.83315102
v -4.09145753 0.43317592 2.83315102
f 1 2 3
f 1 3 4
f 1 4 5
f 1 5 6
f 1 6 7
f 1 7 8
f 1 8 13
f 1 13 12
f 1 12 11
f 1 11 15
f 1 15 9
f 1 9 16
f 1 16 17
f 1 17 10
f 1 10 2
f 2 10 17
f 2 17 14
f 2 14 7
f 2 7 6
f 2 6 5
f 2 5 4
f 2 4 3
f 7 11 12
f 7 12 13
f 7 13 8
f 7 14 18
f 7 18 15
f 7 15 11
f 9 15 16
f 14 17 16
f 14 16 20
f 14 20 19
f 14 19 18
f 15 18 19
f 15 19 20
f 15 20 16

