# https://github.com/mikedh/trimesh
v -6.30279203 0.23270700 0.59792717
v -6.30279203 0.23270700 0.60418646
v -6.30279203 0.23315129 0.58507750
v -6.29677768 0.23270700 0.58507750
v -5.61906679 0.23270700 0.60440021
v -6.30279203 0.66211078 0.60418646
v -6.02843192 0.23270700 0.58507564
v -6.30279203 1.88256839 0.58507750
v -5.08083963 0.23270700 0.60433590
v -5.01122577 2.47480365 0.60418646
v -6.30266403 2.47480365 0.60418646
v -6.30279203 1.88256839 0.60418459
v -6.02843192 1.88256839 0.58507564
v -5.01135378 0.23270700 0.58507564
v -6.30266403 2.50212728 0.59529406
v -6.30266403 2.50190503 0.58587577
v -6.30266403 2.49213069 0.58510785
v -6.30266403 2.47480365 0.58507750
v -5.01135378 0.23270700 0.60418459
v -5.01122577 1.88256839 0.60418646
v -5.00162832 2.47480365 0.60408434
v -5.00175632 2.49213069 0.60407109
v -5.01122577 2.49213069 0.60415994
v -6.30266403 2.48613290 0.60416947
v -6.30266403 2.49213069 0.60415994
v -6.30266403 2.50101645 0.60405783
v -5.01135378 1.88256839 0.58507564
v -4.99650958 0.23270700 0.58584740
v -5.01122577 1.88256839 0.58507750
v -5.00994614 1.88256839 0.58514182
v -5.01122577 2.50212728 0.59529406
v -5.01122577 2.50190503 0.58587577
v -5.01122577 2.49213069 0.58510785
v -5.01122577 2.47480365 0.58507750
v -5.00188433 0.23270700 0.60408621
v -5.00162832 1.88256839 0.60408434
v -4.99548596 2.47480365 0.59529406
v -4.99574186 2.49213069 0.59529406
v -5.00214013 2.50101645 0.60403132
v -5.01122577 2.50101645 0.60405783
v -4.99548596 0.23270700 0.59529406
v -4.99650958 1.88256839 0.58584553
v -4.99650958 2.47480365 0.58584553
v -4.99932485 2.50146074 0.59529406
v -4.99868504 2.50168299 0.58611977
v -4.99650958 2.49213069 0.58586065
f 1 2 6
f 1 6 12
f 1 12 8
f 1 8 3
f 1 3 4
f 1 4 7
f 1 7 14
f 1 14 28
f 1 28 41
f 1 41 35
f 1 35 19
f 1 19 9
f 1 9 5
f 1 5 2
f 2 5 6
f 3 7 4
f 3 8 13
f 3 13 7
f 5 9 10
f 5 10 11
f 5 11 6
f 6 11 12
f 7 13 27
f 7 27 14
f 8 12 15
f 8 15 16
f 8 16 17
f 8 17 18
f 8 18 13
f 9 19 20
f 9 20 10
f 10 21 22
f 10 22 23
f 10 23 24
f 10 24 11
f 10 20 36
f 10 36 21
f 11 24 12
f 12 24 25
f 12 25 26
f 12 26 15
f 13 18 34
f 13 34 27
f 14 27 34
f 14 34 29
f 14 29 30
f 14 30 28
f 15 31 32
f 15 32 16
f 15 26 40
f 15 40 31
f 16 32 33
f 16 33 17
f 17 33 34
f 17 34 18
f 19 35 20
f 20 35 36
f 21 37 22
f 21 36 41
f 21 41 37
f 22 37 38
f 22 38 39
f 22 39 23
f 23 39 40
f 23 40 26
f 23 26 25
f 23 25 24
f 28 30 42
f 28 42 41
f 29 34 30
f 30 34 43
f 30 43 42
f 31 40 39
f 31 39 44
f 31 44 45
f 31 45 32
f 32 45 33
f 33 45 46
f 33 46 34
f 34 46 43
f 35 41 36
f 37 41 42
f 37 42 43
f 37 43 46
f 37 46 38
f 38 46 45
f 38 45 44
f 38 44 39

