# https://github.com/mikedh/trimesh
v -4.97716398 1.88358828 4.27760753
v -4.97713281 0.53751241 4.27760753
v -4.97716398 1.88358828 4.28960042
v -4.97716398 2.13913259 4.27760753
v -4.66445278 0.53751241 4.27760753
v -4.97713281 0.53751241 4.29460130
v -4.97716398 1.88405862 4.29460130
v -4.97716398 2.13913259 4.29460130
v -4.65887588 2.13913259 4.27760753
v -4.66445278 0.53751241 4.29460130
v -4.65887588 1.88358828 4.27760753
v -4.65887588 1.88374508 4.29467152
v -4.65887588 2.07516813 4.29467152
v -4.65887588 2.09257024 4.29466986
v -4.65887588 2.13913259 4.29460130
v -4.65887588 1.88358828 4.28198538
f 1 2 6
f 1 6 3
f 1 3 7
f 1 7 8
f 1 8 4
f 1 4 9
f 1 9 11
f 1 11 5
f 1 5 2
f 2 5 10
f 2 10 6
f 3 6 7
f 4 8 15
f 4 15 9
f 5 11 16
f 5 16 10
f 6 10 12
f 6 12 7
f 7 12 13
f 7 13 8
f 8 13 14
f 8 14 15
f 9 15 14
f 9 14 13
f 9 13 12
f 9 12 16
f 9 16 11
f 10 16 12

