# https://github.com/mikedh/trimesh
v -1.53706684 0.46866389 2.81678656
v -1.40110200 0.46866389 2.74564658
v -1.37305633 0.46866389 2.81678656
v -1.51489364 0.68529610 2.81678656
v -1.39660878 0.68529610 2.74564658
v -1.39702676 0.68069000 2.74564658
v -1.39786273 0.66791454 2.74564658
v -1.32555435 0.46866389 2.74564658
v -1.33435250 0.46866389 2.76143999
v -1.33947269 0.47680425 2.77095227
v -1.34814553 0.47680425 2.78322208
v -1.37213689 0.47680425 2.81678656
v -1.51140355 0.69540640 2.81678656
v -1.39065283 0.72003027 2.74564658
v -1.39395486 0.70374954 2.74564658
v -1.32371527 0.47680425 2.74564658
v -1.33163582 0.46866389 2.75707380
v -1.33380921 0.47680425 2.76226167
v -1.33945177 0.49418582 2.77097314
v -1.37211597 0.48138141 2.81678656
v -1.34814553 0.65053298 2.78322208
v -1.50870778 0.70267766 2.81678656
v -1.38868844 0.72481021 2.74564658
v -1.32365271 0.48340924 2.74564658
v -1.32607693 0.47680425 2.74981083
v -1.32595141 0.49418582 2.74981083
v -1.33378829 0.49418582 2.76228259
v -1.33945177 0.65053298 2.77097314
v -1.37213689 0.49876297 2.81678656
v -1.34816645 0.66791454 2.78320815
v -1.49205163 0.73746978 2.81678656
v -1.38083065 0.73839678 2.74564658
v -1.32356904 0.49418582 2.74564658
v -1.32595141 0.65053298 2.74981083
v -1.33378829 0.65053298 2.76228259
v -1.33947269 0.66791454 2.77092441
v -1.37224128 0.51614453 2.81678656
v -1.34824992 0.68529610 2.78310371
v -1.37265926 0.56826027 2.81678656
v -1.37251303 0.55090765 2.81678656
v -1.37236680 0.53352609 2.81678656
v -1.48808100 0.74152549 2.81678656
v -1.38045450 0.73877339 2.74564658
v -1.32356904 0.63315141 2.74564658
v -1.32358996 0.65053298 2.74564658
v -1.32603509 0.66791454 2.74981083
v -1.33383013 0.66791454 2.76223386
v -1.33957729 0.68529610 2.77077818
v -1.34837544 0.70267766 2.78294355
v -1.37347431 0.63769957 2.81678656
v -1.37301469 0.60299439 2.81678656
v -1.37282641 0.58564183 2.81678656
v -1.47886487 0.74957891 2.81678656
v -1.37995284 0.73915000 2.74564658
v -1.32369435 0.66791454 2.74564658
v -1.32624409 0.68529610 2.74981083
v -1.33393473 0.68529610 2.76208758
v -1.33968168 0.70267766 2.77058317
v -1.35508388 0.70267766 2.79163409
v -1.34858443 0.72003027 2.78276246
v -1.35523011 0.72003027 2.79145306
v -1.37378790 0.65505218 2.81678656
v -1.37038148 0.74610259 2.74564658
v -1.46971129 0.75496723 2.81678656
v -1.32392426 0.68529610 2.74564658
v -1.32649471 0.70267766 2.74981083
v -1.33406004 0.70267766 2.76189961
v -1.33989067 0.72003027 2.77008182
v -1.35021452 0.73741184 2.78092411
v -1.35633762 0.73741184 2.78960766
v -1.36503138 0.73741184 2.79917565
v -1.37353707 0.73741184 2.80786620
v -1.37477010 0.67228891 2.81678656
v -1.36409102 0.74702964 2.74564658
v -1.45382855 0.76220954 2.81678656
v -1.43915793 0.76331037 2.81113213
v -1.32421693 0.70267766 2.74564658
v -1.32747711 0.72003027 2.74981083
v -1.33443618 0.72003027 2.76139127
v -1.33525123 0.73069097 2.76015870
v -1.35234607 0.74723242 2.77807600
v -1.36770643 0.74865191 2.79664093
v -1.38465505 0.74966580 2.81411254
v -1.38223083 0.73741184 2.81628515
v -1.38281596 0.73741184 2.81678656
v -1.35926351 0.74772492 2.74564658
v -1.37970201 0.75372156 2.76719192
v -1.44425720 0.76435326 2.81678656
v -1.42760105 0.76388976 2.80951659
v -1.32580518 0.72020411 2.74564658
v -1.33228371 0.73338507 2.74981083
v -1.35073690 0.74804358 2.76719192
v -1.36208479 0.75056391 2.78414126
v -1.33155214 0.73367479 2.74564658
v -1.40517723 0.76365798 2.81125051
v -1.37917963 0.75273657 2.80223265
v -1.38653576 0.74665303 2.81678656
v -1.40774768 0.76223849 2.81678656
v -1.39301429 0.75305524 2.81678656
v -1.35832294 0.74772492 2.74564658
v -1.41443520 0.76391870 2.80866701
v -1.40517723 0.76365798 2.80911963
v -1.37970201 0.75740061 2.78455909
v -1.36231470 0.75262068 2.76719192
v -1.43056877 0.76458498 2.81678656
v -1.35107120 0.74734831 2.74981083
v -1.33924278 0.74027977 2.74564658
v -1.41376639 0.76397665 2.81678656
v -1.35182370 0.74688481 2.74564658
f 1 2 8
f 1 8 17
f 1 17 9
f 1 9 3
f 1 3 12
f 1 12 20
f 1 20 29
f 1 29 37
f 1 37 41
f 1 41 40
f 1 40 39
f 1 39 52
f 1 52 51
f 1 51 50
f 1 50 62
f 1 62 73
f 1 73 85
f 1 85 97
f 1 97 99
f 1 99 98
f 1 98 108
f 1 108 105
f 1 105 88
f 1 88 75
f 1 75 64
f 1 64 53
f 1 53 42
f 1 42 31
f 1 31 22
f 1 22 13
f 1 13 4
f 1 4 5
f 1 5 6
f 1 6 7
f 1 7 2
f 2 7 6
f 2 6 5
f 2 5 15
f 2 15 14
f 2 14 23
f 2 23 32
f 2 32 43
f 2 43 54
f 2 54 63
f 2 63 74
f 2 74 86
f 2 86 100
f 2 100 109
f 2 109 107
f 2 107 94
f 2 94 90
f 2 90 77
f 2 77 65
f 2 65 55
f 2 55 45
f 2 45 44
f 2 44 33
f 2 33 24
f 2 24 16
f 2 16 8
f 3 9 10
f 3 10 11
f 3 11 12
f 4 13 14
f 4 14 15
f 4 15 5
f 8 16 17
f 9 17 18
f 9 18 10
f 10 18 27
f 10 27 19
f 10 19 11
f 11 20 12
f 11 19 28
f 11 28 21
f 11 21 20
f 13 22 14
f 14 22 23
f 16 24 25
f 16 25 17
f 17 25 18
f 18 25 26
f 18 26 27
f 19 27 35
f 19 35 28
f 20 21 29
f 21 28 30
f 21 30 29
f 22 31 23
f 23 31 32
f 24 33 25
f 25 33 26
f 26 33 44
f 26 44 34
f 26 34 35
f 26 35 27
f 28 35 36
f 28 36 30
f 29 30 37
f 30 36 38
f 30 38 39
f 30 39 40
f 30 40 41
f 30 41 37
f 31 42 32
f 32 42 43
f 34 44 45
f 34 45 46
f 34 46 47
f 34 47 35
f 35 47 36
f 36 47 57
f 36 57 48
f 36 48 38
f 38 48 49
f 38 49 50
f 38 50 51
f 38 51 52
f 38 52 39
f 42 53 43
f 43 53 54
f 45 55 46
f 46 55 56
f 46 56 57
f 46 57 47
f 48 57 58
f 48 58 49
f 49 59 50
f 49 58 60
f 49 60 61
f 49 61 59
f 50 59 61
f 50 61 62
f 53 63 54
f 53 64 63
f 55 65 56
f 56 65 66
f 56 66 67
f 56 67 57
f 57 67 58
f 58 67 68
f 58 68 60
f 60 68 69
f 60 69 70
f 60 70 61
f 61 70 71
f 61 71 72
f 61 72 73
f 61 73 62
f 63 64 75
f 63 75 76
f 63 76 74
f 65 77 66
f 66 77 78
f 66 78 79
f 66 79 67
f 67 79 68
f 68 79 80
f 68 80 69
f 69 80 81
f 69 81 70
f 70 81 82
f 70 82 71
f 71 82 83
f 71 83 72
f 72 83 84
f 72 84 73
f 73 84 85
f 74 76 87
f 74 87 86
f 75 88 76
f 76 88 89
f 76 89 87
f 77 90 78
f 78 90 80
f 78 80 79
f 80 90 91
f 80 91 81
f 81 92 93
f 81 93 82
f 81 91 94
f 81 94 92
f 82 93 95
f 82 95 96
f 82 96 83
f 83 97 84
f 83 96 95
f 83 95 98
f 83 98 99
f 83 99 97
f 84 97 85
f 86 87 100
f 87 89 101
f 87 101 102
f 87 102 103
f 87 103 104
f 87 104 100
f 88 105 89
f 89 105 101
f 90 94 91
f 92 106 104
f 92 104 93
f 92 94 107
f 92 107 106
f 93 104 103
f 93 103 95
f 95 102 108
f 95 108 98
f 95 103 102
f 100 104 109
f 101 105 102
f 102 105 108
f 104 106 109
f 106 107 109

