# https://github.com/mikedh/trimesh
v -2.32441957 0.40017395 1.67255278
v -2.32441957 0.39906039 1.66111127
v -2.32441957 0.39984747 1.68379289
v -2.13329339 0.39984302 1.68318453
v -2.13329339 0.39989666 1.67255278
v -2.32441957 0.38992384 1.65512866
v -2.13329339 0.39866684 1.66380649
v -2.32441957 0.39634137 1.68666132
v -2.13329339 0.38992384 1.68831308
v -2.32441957 0.37255414 1.65158742
v -2.13329339 0.39318403 1.66214665
v -2.32441957 0.38989256 1.68999304
v -2.13329339 0.38344376 1.68947737
v -2.32441957 0.36774215 1.65331575
v -2.13329339 0.38992384 1.66153026
v -2.13329339 0.37902977 1.66018065
v -2.13329339 0.37255414 1.65958037
v -2.13329339 0.36094454 1.66185659
v -2.32441957 0.37255414 1.69274063
v -2.13329339 0.37255414 1.69135878
v -2.32441957 0.35966108 1.65799307
v -2.13329339 0.35542595 1.67255278
v -2.32441957 0.35862358 1.68753151
v -2.14420041 0.35826577 1.68631080
v -2.13329339 0.36722786 1.68944917
v -2.32441957 0.35630696 1.66560731
v -2.13329339 0.35834623 1.68623023
v -2.32441957 0.35448683 1.67255278
v -2.32441957 0.35665576 1.68108961
f 1 2 6
f 1 6 10
f 1 10 14
f 1 14 21
f 1 21 26
f 1 26 28
f 1 28 29
f 1 29 23
f 1 23 19
f 1 19 12
f 1 12 8
f 1 8 3
f 1 3 4
f 1 4 5
f 1 5 2
f 2 5 7
f 2 7 6
f 3 8 4
f 4 9 13
f 4 13 20
f 4 20 25
f 4 25 27
f 4 27 22
f 4 22 18
f 4 18 17
f 4 17 16
f 4 16 15
f 4 15 11
f 4 11 7
f 4 7 5
f 4 8 9
f 6 7 11
f 6 11 10
f 8 12 9
f 9 12 13
f 10 11 15
f 10 15 16
f 10 16 17
f 10 17 18
f 10 18 14
f 12 19 20
f 12 20 13
f 14 18 21
f 18 22 21
f 19 23 24
f 19 24 25
f 19 25 20
f 21 22 26
f 22 27 24
f 22 24 28
f 22 28 26
f 23 29 24
f 24 27 25
f 24 29 28

