# https://github.com/mikedh/trimesh
v -1.05920468 0.84464003 -0.07709448
v -1.05920468 0.90955629 -0.07709448
v -1.05846938 0.83714751 -0.07709448
v -1.05920468 0.83714751 -0.07700956
v -1.05920468 0.90955629 0.33465013
v -0.55846385 0.90955629 -0.07709448
v -1.04391184 0.83714751 -0.07709448
v -1.05920468 0.83714751 0.35584040
v -1.05920468 0.90759278 0.34254873
v -0.55846385 0.90695480 0.34513916
v -0.55846385 0.90955629 0.33465013
v -0.55846385 0.86433181 -0.07709448
v -0.55870889 0.86044732 -0.07709448
v -0.55846385 0.83777839 0.28250270
v -0.55851294 0.83714751 0.33498992
v -1.04954861 0.83714751 0.35626512
v -1.05920468 0.84168414 0.35601025
v -1.05920468 0.90601913 0.34887605
v -0.55846385 0.90601913 0.34887605
v -0.55846385 0.86044732 -0.06494936
v -0.55846385 0.83714751 0.35443908
v -1.04954861 0.87642474 0.35673219
v -1.05920468 0.87642474 0.35668973
v -1.05920468 0.86678443 0.35656234
v -1.05920468 0.85905799 0.35639250
v -0.55846385 0.85905799 0.35622265
v -0.55846385 0.86365132 0.35635004
v -0.55846385 0.87642474 0.35668973
v -1.05920468 0.89380568 0.35571302
v -0.55846385 0.89380568 0.35571302
v -1.05920468 0.88415118 0.35626512
v -0.55846385 0.88101807 0.35643496
f 1 2 6
f 1 6 12
f 1 12 13
f 1 13 7
f 1 7 3
f 1 3 4
f 1 4 8
f 1 8 17
f 1 17 25
f 1 25 24
f 1 24 23
f 1 23 31
f 1 31 29
f 1 29 18
f 1 18 9
f 1 9 5
f 1 5 2
f 2 5 11
f 2 11 6
f 3 7 15
f 3 15 21
f 3 21 16
f 3 16 8
f 3 8 4
f 5 9 10
f 5 10 11
f 6 11 10
f 6 10 19
f 6 19 30
f 6 30 32
f 6 32 28
f 6 28 27
f 6 27 26
f 6 26 21
f 6 21 14
f 6 14 20
f 6 20 12
f 7 13 14
f 7 14 15
f 8 16 17
f 9 18 10
f 10 18 19
f 12 20 13
f 13 20 14
f 14 21 15
f 16 22 23
f 16 23 24
f 16 24 25
f 16 25 17
f 16 21 26
f 16 26 27
f 16 27 28
f 16 28 22
f 18 29 30
f 18 30 19
f 22 29 31
f 22 31 23
f 22 28 32
f 22 32 30
f 22 30 29

