# https://github.com/mikedh/trimesh
v -3.96222402 0.42446482 3.20909656
v -3.88170004 0.40751703 3.16532826
v -3.86581450 0.40403036 3.16532826
v -3.86433266 0.40372143 3.20909656
v -3.96222402 0.55219117 3.20909656
v -3.96222402 0.42742187 3.16532826
v -3.86433266 0.40372143 3.16532826
v -3.84695048 0.40094095 3.20909656
v -3.96222402 0.54795417 3.19252067
v -3.94730173 0.58524818 3.20909656
v -3.87858810 0.73742520 3.16532826
v -3.88635305 0.72003607 3.16532826
v -3.89023550 0.71098839 3.16532826
v -3.90115676 0.68530190 3.16532826
v -3.92606678 0.62669080 3.16532826
v -3.96222402 0.53634675 3.16532826
v -3.84695048 0.40094095 3.16532826
v -3.83106500 0.40045544 3.16532826
v -3.83942269 0.40072025 3.20909656
v -3.92645203 0.62576396 3.16532826
v -3.93055678 0.61583365 3.16532826
v -3.93759559 0.59844448 3.16532826
v -3.94180406 0.58802866 3.16532826
v -3.94500490 0.58008439 3.16532826
v -3.95158430 0.56371035 3.16532826
v -3.95748210 0.54879278 3.16532826
v -3.96053474 0.54084846 3.16532826
v -3.96118673 0.53912723 3.16532826
v -3.87812875 0.73742520 3.20909656
v -3.87839547 0.73742520 3.18418773
v -3.87857329 0.73742520 3.16681492
v -3.87380170 0.74779689 3.16532826
v -3.82958316 0.40045544 3.16532826
v -3.82958316 0.40045544 3.20909656
v -3.85981299 0.77701418 3.20909656
v -3.85696783 0.78372267 3.18418773
v -3.86313236 0.77083531 3.16532826
v -3.82204051 0.40085266 3.20909656
v -3.81368282 0.40138228 3.16532826
v -3.81220098 0.40142645 3.20156054
v -3.85453761 0.78835684 3.20909656
v -3.85687893 0.78350203 3.20156054
v -3.85707155 0.78389920 3.16532826
v -3.85754577 0.78288412 3.16532826
v -3.85283347 0.79219656 3.20156054
v -3.81220098 0.40142645 3.20909656
v -3.81220098 0.40147057 3.16532826
v -3.81085253 0.40155881 3.20290573
v -3.85278899 0.79210833 3.20909656
v -3.85298167 0.79259378 3.16532826
v -3.84972159 0.79859613 3.20909656
v -3.81085253 0.40155881 3.20909656
v -3.81085253 0.40164710 3.16532826
v -3.84579466 0.80689350 3.20156054
v -3.84666894 0.80570184 3.16532826
v -3.84572056 0.80689350 3.20909656
v -3.81085253 0.85111664 3.20909656
v -3.81085253 0.85124905 3.16532826
v -3.84607620 0.80689350 3.16532826
v -3.84321623 0.81179247 3.20909656
v -3.81085253 0.85120491 3.18418773
v -3.81682437 0.84661489 3.16681492
v -3.81418666 0.84851269 3.20909656
v -3.81137117 0.85085183 3.16532826
v -3.81085253 0.85124905 3.16681492
v -3.83988205 0.81823615 3.20909656
v -3.84004506 0.81850097 3.16681492
v -3.84057852 0.81748586 3.16532826
v -3.81682437 0.84661489 3.16532826
v -3.82530059 0.83796444 3.16532826
v -3.81673546 0.84652660 3.20156054
v -3.81672065 0.84648248 3.20909656
v -3.83645896 0.82317925 3.20909656
v -3.83398425 0.82719555 3.16532826
v -3.83952641 0.81925126 3.16532826
v -3.84004506 0.81850097 3.16532826
v -3.82513758 0.83783204 3.20909656
v -3.83382125 0.82693074 3.20909656
v -3.83385092 0.82697486 3.20156054
f 1 2 3
f 1 3 4
f 1 4 8
f 1 8 19
f 1 19 34
f 1 34 38
f 1 38 46
f 1 46 52
f 1 52 57
f 1 57 63
f 1 63 72
f 1 72 77
f 1 77 78
f 1 78 73
f 1 73 66
f 1 66 60
f 1 60 56
f 1 56 51
f 1 51 49
f 1 49 41
f 1 41 35
f 1 35 29
f 1 29 10
f 1 10 5
f 1 5 9
f 1 9 16
f 1 16 6
f 1 6 2
f 2 6 16
f 2 16 28
f 2 28 27
f 2 27 26
f 2 26 25
f 2 25 24
f 2 24 23
f 2 23 22
f 2 22 21
f 2 21 20
f 2 20 15
f 2 15 14
f 2 14 13
f 2 13 12
f 2 12 11
f 2 11 32
f 2 32 37
f 2 37 44
f 2 44 43
f 2 43 50
f 2 50 55
f 2 55 59
f 2 59 68
f 2 68 76
f 2 76 75
f 2 75 74
f 2 74 70
f 2 70 69
f 2 69 64
f 2 64 58
f 2 58 53
f 2 53 47
f 2 47 39
f 2 39 33
f 2 33 18
f 2 18 17
f 2 17 7
f 2 7 3
f 3 7 4
f 4 7 17
f 4 17 8
f 5 10 11
f 5 11 12
f 5 12 13
f 5 13 14
f 5 14 15
f 5 15 9
f 8 17 18
f 8 18 19
f 9 15 20
f 9 20 21
f 9 21 22
f 9 22 23
f 9 23 24
f 9 24 25
f 9 25 26
f 9 26 27
f 9 27 28
f 9 28 16
f 10 29 30
f 10 30 31
f 10 31 11
f 11 31 32
f 18 33 34
f 18 34 19
f 29 35 32
f 29 32 30
f 30 32 31
f 32 35 36
f 32 36 37
f 33 38 34
f 33 39 40
f 33 40 38
f 35 41 42
f 35 42 36
f 36 43 44
f 36 44 37
f 36 42 41
f 36 41 45
f 36 45 43
f 38 40 46
f 39 47 40
f 40 47 48
f 40 48 52
f 40 52 46
f 41 49 45
f 43 45 50
f 45 49 51
f 45 51 50
f 47 53 48
f 48 53 58
f 48 58 65
f 48 65 61
f 48 61 57
f 48 57 52
f 50 51 54
f 50 54 55
f 51 56 54
f 54 59 55
f 54 56 60
f 54 60 59
f 57 61 62
f 57 62 63
f 58 64 65
f 59 60 66
f 59 66 67
f 59 67 68
f 61 65 64
f 61 64 62
f 62 64 69
f 62 69 70
f 62 70 71
f 62 71 63
f 63 71 72
f 66 73 67
f 67 73 74
f 67 74 75
f 67 75 76
f 67 76 68
f 70 77 71
f 70 74 77
f 71 77 72
f 73 78 79
f 73 79 74
f 74 79 77
f 77 79 78

