# https://github.com/mikedh/trimesh
v -2.38212837 0.36280527 2.81711009
v -2.08201797 0.38544803 2.83668953
v -2.38212837 0.36296414 2.82742477
v -2.38212837 0.36419562 2.81679313
v -2.08201797 0.38842735 2.81854968
v -2.14420807 0.38667950 2.85405680
v -2.08201797 0.38965882 2.84492414
v -2.14420807 0.39315451 2.86694686
v -2.38212837 0.37221994 2.83600938
v -2.19632195 0.38973825 2.87143065
v -2.21371288 0.38922183 2.87143065
v -2.23107440 0.38914240 2.87143065
v -2.24843592 0.38926155 2.87143065
v -2.24843592 0.39641190 2.88130954
v -2.26579745 0.39744474 2.88076142
v -2.27502166 0.39843786 2.88022652
v -2.08201797 0.42743648 2.81679313
v -2.38212837 0.76378091 2.81679313
v -2.16156960 0.39224087 2.86898737
v -2.08201797 0.39291621 2.84991638
v -2.12681714 0.39593520 2.86447054
v -2.18524705 0.39772281 2.88059634
v -2.31791132 0.39367093 2.86631952
v -2.33130697 0.39617360 2.86423281
v -2.38212837 0.38667950 2.84451470
v -2.17925424 0.39263814 2.87256643
v -2.19632195 0.39688860 2.88105860
v -2.21371288 0.39633247 2.88135572
v -2.23107440 0.39625303 2.88140197
v -2.23107440 0.40733606 2.88367358
v -2.24843592 0.40733606 2.88348867
v -2.26579745 0.40733606 2.88239250
v -2.27778298 0.40733606 2.88077463
v -2.31791132 0.40733606 2.87055237
v -2.08201797 0.76445625 2.81679313
v -2.38212837 0.76382068 2.81917701
v -2.37005460 0.76481375 2.81931569
v -2.37005460 0.76457540 2.81679313
v -2.08201797 0.40733606 2.85318511
v -2.11750480 0.39819951 2.86297814
v -2.17287948 0.40733606 2.87928222
v -2.18157500 0.40733606 2.88132274
v -2.19632195 0.40733606 2.88298680
v -2.38212837 0.40574708 2.85210214
v -2.38212837 0.39573661 2.84841739
v -2.21371288 0.40733606 2.88357453
v -2.21371288 0.42469551 2.88378585
v -2.23107440 0.42469551 2.88387828
v -2.24843592 0.42469551 2.88369336
v -2.26579745 0.42469551 2.88259719
v -2.27831177 0.42469551 2.88088026
v -2.30054980 0.47681363 2.87671348
v -2.31791132 0.47681363 2.87271836
v -2.38212837 0.42469551 2.85374642
v -2.38212837 0.40952089 2.85245213
v -2.08936209 0.76469460 2.81679313
v -2.10945562 0.76652188 2.83668953
v -2.08201797 0.76445625 2.81829874
v -2.38212837 0.76370148 2.82080809
v -2.37005460 0.76437682 2.83160481
v -2.35369195 0.76556853 2.83781211
v -2.33530225 0.76715750 2.83668953
v -2.35407379 0.76505211 2.81948739
v -2.35604202 0.76465489 2.81679313
v -2.12681714 0.40733606 2.86716475
v -2.08201797 0.47681363 2.85431431
v -2.12681714 0.47681363 2.86892793
v -2.14420807 0.40733606 2.87178064
v -2.14420807 0.47681363 2.87402585
v -2.18104620 0.42469551 2.88142837
v -2.19632195 0.42469551 2.88319149
v -2.16156960 0.47681363 2.87796810
v -2.17094066 0.47681363 2.88002845
v -2.21371288 0.47681363 2.88386507
v -2.23107440 0.47681363 2.88424810
v -2.23107440 0.66792655 2.88417545
v -2.24843592 0.66792655 2.88343585
v -2.27925182 0.47681363 2.88097275
v -2.26579745 0.66792655 2.88231322
v -2.27907555 0.66792655 2.88093313
v -2.28794734 0.47681363 2.87940112
v -2.30054980 0.66792655 2.87664741
v -2.31791132 0.66792655 2.87265891
v -2.38212837 0.48241471 2.85506712
v -2.38212837 0.47601914 2.85505391
v -2.12681714 0.76707802 2.83668953
v -2.16156960 0.76819029 2.85405680
v -2.14420807 0.76719722 2.85405680
v -2.12805100 0.76560824 2.85397095
v -2.10945562 0.76465489 2.84761835
v -2.09350422 0.76465489 2.83584430
v -2.08201797 0.76409875 2.82975584
v -2.08201797 0.76441654 2.82473057
v -2.38212837 0.76274807 2.82574088
v -2.37877943 0.76350284 2.82803233
v -2.36015474 0.76294671 2.84435620
v -2.34855105 0.76449597 2.84718913
v -2.33530225 0.76564796 2.85085409
v -2.30054980 0.76791222 2.85405680
v -2.28318828 0.76854785 2.85405680
v -2.26579745 0.76858756 2.85405680
v -2.17896043 0.76862728 2.85405680
v -2.08201797 0.49421279 2.85426149
v -2.12681714 0.66792655 2.86886185
v -2.14420807 0.66792655 2.87395978
v -2.17120506 0.66792655 2.87999542
v -2.17990047 0.66792655 2.88111142
v -2.19632195 0.66792655 2.88266984
v -2.21371288 0.66792655 2.88379242
v -2.16156960 0.66792655 2.87790208
v -2.23107440 0.68528600 2.88411601
v -2.24843592 0.68528600 2.88337641
v -2.28774166 0.66792655 2.87936808
v -2.26579745 0.68528600 2.88225383
v -2.27889929 0.68528600 2.88090667
v -2.30054980 0.68528600 2.87658139
v -2.31791132 0.68528600 2.87259289
v -2.31791132 0.70264545 2.87243439
v -2.31791132 0.72004462 2.87224947
v -2.33477346 0.73740407 2.86626007
v -2.38212837 0.62109173 2.85217479
v -2.19632195 0.76652188 2.86808264
v -2.17896043 0.76616438 2.86713177
v -2.16156960 0.76544932 2.86565257
v -2.14420807 0.76445625 2.86400829
v -2.13469005 0.76374120 2.86307057
v -2.10026082 0.76362205 2.84561750
v -2.08201797 0.76374120 2.83030395
v -2.38212837 0.75905375 2.82994075
v -2.32593108 0.76322478 2.86245649
v -2.38212837 0.75476352 2.83427267
v -2.36647068 0.75134726 2.84820607
v -2.31926262 0.76616438 2.85562180
v -2.31435681 0.76429733 2.86378376
v -2.30054980 0.76517126 2.86511766
v -2.28318828 0.76600546 2.86675537
v -2.26579745 0.76648217 2.86788457
v -2.24843592 0.76660137 2.86855810
v -2.23107440 0.76668080 2.86903356
v -2.21371288 0.76664108 2.86878925
v -2.08201797 0.51157224 2.85413603
v -2.12681714 0.68528600 2.86878925
v -2.14420807 0.68528600 2.87389375
v -2.16156960 0.68528600 2.87783606
v -2.17144004 0.68528600 2.87996238
v -2.18013546 0.68528600 2.88108501
v -2.19632195 0.68528600 2.88261040
v -2.21371288 0.68528600 2.88373298
v -2.23107440 0.70264545 2.88397734
v -2.24843592 0.70264545 2.88323774
v -2.28756540 0.68528600 2.87933504
v -2.26579745 0.70264545 2.88211516
v -2.27804737 0.72004462 2.88075480
v -2.27848804 0.70264545 2.88083407
v -2.28718345 0.70264545 2.87926244
v -2.30054980 0.70264545 2.87643614
v -2.30054980 0.72004462 2.87626443
v -2.30054980 0.73740407 2.87585499
v -2.31791132 0.73740407 2.87182025
v -2.33174764 0.75162533 2.86497241
v -2.34343946 0.73740407 2.86250268
v -2.38212837 0.67320985 2.85042487
v -2.38212837 0.65585040 2.85137574
v -2.23107440 0.75960989 2.87772380
v -2.21371288 0.75905375 2.87747286
v -2.19632195 0.75730590 2.87677288
v -2.17916610 0.75369101 2.87641631
v -2.16156960 0.75480329 2.87267869
v -2.14420807 0.75480329 2.86904019
v -2.12805100 0.75392931 2.86487993
v -2.11694669 0.74753374 2.86328852
v -2.08213552 0.74789124 2.84619859
v -2.09350422 0.75412795 2.84821928
v -2.08868644 0.75949074 2.84107426
v -2.08201797 0.75690863 2.83830740
v -2.31926262 0.75635250 2.86686100
v -2.27563859 0.74681873 2.88033220
v -2.28213079 0.75349238 2.87586162
v -2.38212837 0.73740407 2.84229590
v -2.37819191 0.73740407 2.84503640
v -2.36949650 0.73740407 2.84985035
v -2.35266377 0.73740407 2.85828303
v -2.26579745 0.75674977 2.87656818
v -2.24843592 0.75849761 2.87724176
v -2.08201797 0.52893169 2.85400398
v -2.08201797 0.58104981 2.85357471
v -2.08201797 0.59840926 2.85342284
v -2.08201797 0.63316788 2.85310588
v -2.12681714 0.70264545 2.86861755
v -2.14420807 0.70264545 2.87373525
v -2.08201797 0.54633091 2.85386531
v -2.16156960 0.70264545 2.87769076
v -2.16156960 0.72004462 2.87751910
v -2.17199825 0.70264545 2.87988973
v -2.18069367 0.70264545 2.88101236
v -2.18131060 0.72004462 2.88093313
v -2.19632195 0.70264545 2.88247173
v -2.21371288 0.70264545 2.88359431
v -2.23107440 0.72004462 2.88383204
v -2.24843592 0.72004462 2.88308586
v -2.26579745 0.72004462 2.88195665
v -2.28674289 0.72004462 2.87918317
v -2.27701919 0.73740407 2.88057651
v -2.28571471 0.73740407 2.87897847
v -2.24843592 0.74979805 2.88128970
v -2.23107440 0.75095004 2.88166611
v -2.21371288 0.75035419 2.88146799
v -2.19632195 0.74864601 2.88090010
v -2.18510010 0.74717624 2.88045104
v -2.14420807 0.73740407 2.87313437
v -2.12681714 0.73740407 2.86796380
v -2.11591851 0.73740407 2.86376398
v -2.10722299 0.73740407 2.85978864
v -2.09206469 0.73740407 2.85259743
v -2.08201797 0.74801044 2.84600048
v -2.08201797 0.74673925 2.84627124
v -2.26579745 0.74805016 2.88072181
v -2.26579745 0.73740407 2.88160008
v -2.24843592 0.73740407 2.88273587
v -2.08201797 0.65052738 2.85293417
v -2.12681714 0.72004462 2.86842606
v -2.14420807 0.72004462 2.87355696
v -2.17264449 0.72004462 2.87981050
v -2.16156960 0.73740407 2.87711629
v -2.19632195 0.72004462 2.88231322
v -2.18275003 0.73740407 2.88075480
v -2.21371288 0.72004462 2.88344243
v -2.23107440 0.73740407 2.88348204
v -2.21371288 0.73740407 2.88309244
v -2.19632195 0.73740407 2.88195665
v -2.17405461 0.73740407 2.87961239
v -2.11536030 0.72004462 2.86401492
v -2.08201797 0.66792655 2.85232667
v -2.08201797 0.73740407 2.84734763
f 1 2 3
f 1 3 9
f 1 9 25
f 1 25 45
f 1 45 44
f 1 44 55
f 1 55 54
f 1 54 85
f 1 85 84
f 1 84 121
f 1 121 163
f 1 163 162
f 1 162 179
f 1 179 131
f 1 131 129
f 1 129 94
f 1 94 59
f 1 59 36
f 1 36 18
f 1 18 4
f 1 4 5
f 1 5 2
f 2 6 3
f 2 5 17
f 2 17 35
f 2 35 58
f 2 58 93
f 2 93 92
f 2 92 128
f 2 128 175
f 2 175 215
f 2 215 216
f 2 216 234
f 2 234 233
f 2 233 220
f 2 220 188
f 2 188 187
f 2 187 186
f 2 186 191
f 2 191 185
f 2 185 141
f 2 141 103
f 2 103 66
f 2 66 39
f 2 39 20
f 2 20 7
f 2 7 8
f 2 8 6
f 3 6 10
f 3 10 11
f 3 11 12
f 3 12 13
f 3 13 14
f 3 14 15
f 3 15 16
f 3 16 9
f 4 17 5
f 4 18 38
f 4 38 64
f 4 64 56
f 4 56 35
f 4 35 17
f 6 8 19
f 6 19 10
f 7 20 8
f 8 20 21
f 8 21 22
f 8 22 19
f 9 23 24
f 9 24 25
f 9 16 23
f 10 19 26
f 10 26 22
f 10 22 27
f 10 27 28
f 10 28 11
f 11 28 29
f 11 29 12
f 12 29 13
f 13 29 14
f 14 29 30
f 14 30 31
f 14 31 15
f 15 31 32
f 15 32 16
f 16 24 23
f 16 32 33
f 16 33 34
f 16 34 24
f 18 36 37
f 18 37 38
f 19 22 26
f 20 39 40
f 20 40 21
f 21 40 22
f 22 40 41
f 22 41 42
f 22 42 43
f 22 43 27
f 24 34 44
f 24 44 45
f 24 45 25
f 27 43 46
f 27 46 28
f 28 46 30
f 28 30 29
f 30 46 47
f 30 47 48
f 30 48 49
f 30 49 31
f 31 49 50
f 31 50 32
f 32 50 33
f 33 50 51
f 33 51 52
f 33 52 53
f 33 53 34
f 34 54 55
f 34 55 44
f 34 53 54
f 35 56 57
f 35 57 58
f 36 59 60
f 36 60 61
f 36 61 62
f 36 62 37
f 37 62 38
f 38 62 63
f 38 63 64
f 39 65 40
f 39 66 67
f 39 67 65
f 40 65 68
f 40 68 41
f 41 68 69
f 41 69 42
f 42 70 71
f 42 71 43
f 42 69 72
f 42 72 73
f 42 73 70
f 43 71 47
f 43 47 46
f 47 71 74
f 47 74 75
f 47 75 48
f 48 75 49
f 49 75 76
f 49 76 77
f 49 77 50
f 50 78 51
f 50 77 79
f 50 79 80
f 50 80 78
f 51 78 81
f 51 81 52
f 52 81 82
f 52 82 83
f 52 83 53
f 53 84 85
f 53 85 54
f 53 83 84
f 56 64 63
f 56 63 62
f 56 62 86
f 56 86 57
f 57 86 87
f 57 87 88
f 57 88 89
f 57 89 90
f 57 90 91
f 57 91 92
f 57 92 93
f 57 93 58
f 59 94 95
f 59 95 60
f 60 95 96
f 60 96 97
f 60 97 61
f 61 98 62
f 61 97 98
f 62 99 100
f 62 100 101
f 62 101 102
f 62 102 86
f 62 98 99
f 65 67 69
f 65 69 68
f 66 103 104
f 66 104 67
f 67 104 105
f 67 105 69
f 69 105 110
f 69 110 72
f 70 73 106
f 70 106 107
f 70 107 71
f 71 107 108
f 71 108 109
f 71 109 74
f 72 110 73
f 73 110 106
f 74 109 76
f 74 76 75
f 76 109 148
f 76 148 111
f 76 111 112
f 76 112 77
f 77 112 114
f 77 114 79
f 78 80 113
f 78 113 81
f 79 114 115
f 79 115 80
f 80 115 113
f 81 113 82
f 82 113 116
f 82 116 117
f 82 117 83
f 83 117 84
f 84 117 118
f 84 118 119
f 84 119 120
f 84 120 121
f 86 102 87
f 87 102 122
f 87 122 123
f 87 123 88
f 88 123 124
f 88 124 125
f 88 125 89
f 89 125 126
f 89 126 90
f 90 126 127
f 90 127 91
f 91 127 92
f 92 127 128
f 94 129 95
f 95 129 96
f 96 130 97
f 96 129 131
f 96 131 132
f 96 132 130
f 97 130 98
f 98 133 99
f 98 130 134
f 98 134 133
f 99 133 135
f 99 135 136
f 99 136 137
f 99 137 100
f 100 137 138
f 100 138 139
f 100 139 101
f 101 139 102
f 102 139 140
f 102 140 122
f 103 141 142
f 103 142 104
f 104 142 143
f 104 143 105
f 105 143 144
f 105 144 110
f 106 110 144
f 106 144 145
f 106 145 146
f 106 146 107
f 107 146 108
f 108 146 147
f 108 147 148
f 108 148 109
f 111 148 198
f 111 198 149
f 111 149 150
f 111 150 112
f 112 150 152
f 112 152 114
f 113 115 151
f 113 151 116
f 114 152 153
f 114 153 154
f 114 154 115
f 115 154 155
f 115 155 151
f 116 151 156
f 116 156 117
f 117 156 118
f 118 156 157
f 118 157 119
f 119 157 158
f 119 158 159
f 119 159 120
f 120 159 160
f 120 160 161
f 120 161 162
f 120 162 163
f 120 163 121
f 122 140 164
f 122 164 165
f 122 165 123
f 123 165 124
f 124 165 166
f 124 166 125
f 125 166 126
f 126 166 167
f 126 167 168
f 126 168 169
f 126 169 170
f 126 170 171
f 126 171 172
f 126 172 173
f 126 173 127
f 127 173 172
f 127 172 174
f 127 174 128
f 128 174 175
f 130 132 160
f 130 160 176
f 130 176 177
f 130 177 178
f 130 178 134
f 131 179 132
f 132 179 180
f 132 180 181
f 132 181 182
f 132 182 160
f 133 134 135
f 134 178 183
f 134 183 135
f 135 183 136
f 136 183 184
f 136 184 137
f 137 184 164
f 137 164 138
f 138 164 139
f 139 164 140
f 141 185 142
f 142 186 187
f 142 187 188
f 142 188 220
f 142 220 189
f 142 189 190
f 142 190 143
f 142 185 191
f 142 191 186
f 143 190 192
f 143 192 144
f 144 192 145
f 145 192 193
f 145 193 194
f 145 194 195
f 145 195 146
f 146 195 147
f 147 195 196
f 147 196 197
f 147 197 198
f 147 198 148
f 149 198 199
f 149 199 150
f 150 199 200
f 150 200 152
f 151 155 156
f 152 200 201
f 152 201 153
f 153 202 155
f 153 155 154
f 153 201 203
f 153 203 202
f 155 202 157
f 155 157 156
f 157 202 158
f 158 202 204
f 158 204 177
f 158 177 159
f 159 177 160
f 160 177 176
f 160 182 161
f 161 182 162
f 162 182 181
f 162 181 180
f 162 180 179
f 164 184 205
f 164 205 206
f 164 206 207
f 164 207 165
f 165 207 208
f 165 208 166
f 166 208 209
f 166 209 167
f 167 209 168
f 168 209 169
f 169 209 210
f 169 210 170
f 170 210 171
f 171 210 211
f 171 211 212
f 171 212 213
f 171 213 214
f 171 214 172
f 172 215 175
f 172 175 174
f 172 214 216
f 172 216 215
f 177 217 183
f 177 183 178
f 177 204 203
f 177 203 218
f 177 218 219
f 177 219 217
f 183 217 184
f 184 217 205
f 189 221 222
f 189 222 190
f 189 220 221
f 190 222 193
f 190 193 192
f 193 223 194
f 193 222 224
f 193 224 223
f 194 223 196
f 194 196 195
f 196 225 197
f 196 223 226
f 196 226 225
f 197 225 227
f 197 227 198
f 198 227 199
f 199 227 229
f 199 229 228
f 199 228 219
f 199 219 200
f 200 219 201
f 201 219 218
f 201 218 203
f 202 203 204
f 205 217 219
f 205 219 228
f 205 228 206
f 206 228 207
f 207 228 229
f 207 229 208
f 208 229 209
f 209 229 230
f 209 230 226
f 209 226 231
f 209 231 224
f 209 224 210
f 210 224 222
f 210 222 221
f 210 221 211
f 211 221 232
f 211 232 212
f 212 232 220
f 212 220 233
f 212 233 213
f 213 233 214
f 214 234 216
f 214 233 234
f 220 232 221
f 223 224 231
f 223 231 226
f 225 226 230
f 225 230 229
f 225 229 227

