# https://github.com/mikedh/trimesh
v -2.66841188 0.70552312 2.19908129
v -2.67742378 0.70552312 2.07510135
v -2.70053672 0.70552312 2.19908129
v -2.67671536 0.02507878 2.19908129
v -2.68437312 0.02507878 2.07508922
v -2.67924547 0.70211427 2.07508922
v -2.69949098 0.70552312 2.07508922
v -2.70321622 0.70552312 2.19380168
v -2.70064276 0.70267082 2.19908129
v -2.67749607 0.01589579 2.19908129
v -2.68565984 0.00768671 2.07508922
v -2.70771736 0.70552312 2.07508922
v -2.70796311 0.70552312 2.18329100
v -2.70326438 0.70267082 2.19380168
v -2.70051745 0.04247075 2.19908129
v -2.67826234 0.00768671 2.19908129
v -2.68626704 0.00511273 2.07508922
v -2.70940405 0.70552312 2.07939787
v -2.70779446 0.70267082 2.07508922
v -2.71051249 0.70552312 2.17602091
v -2.71099924 0.70267082 2.17473437
v -2.70794867 0.70267082 2.18341236
v -2.70776556 0.04247075 2.18341236
v -2.70307164 0.02507878 2.19380168
v -2.70051264 0.02507878 2.19908129
v -2.68592486 -0.00393107 2.19908129
v -2.68924532 -0.00302675 2.07508922
v -2.71241609 0.70552312 2.08930170
v -2.70944262 0.70267082 2.07930078
v -2.71258956 0.70267082 2.08955658
v -2.70781372 0.69425312 2.07508922
v -2.71096066 0.70552312 2.17460087
v -2.71412210 0.70552312 2.16148072
v -2.71477750 0.70267082 2.15905332
v -2.71099924 0.02507878 2.17473437
v -2.70775588 0.02507878 2.18341236
v -2.70738000 0.00768671 2.18336382
v -2.70266200 0.00768671 2.19380168
v -2.70022349 0.00768671 2.19908129
v -2.69271036 -0.00393107 2.19908129
v -2.68717788 -0.00407026 2.19380168
v -2.70385236 -0.00518336 2.12431708
v -2.70344271 -0.00476600 2.10693683
v -2.70050782 -0.00330503 2.07508922
v -2.71306668 0.70552312 2.09240878
v -2.70944262 0.02507878 2.07930078
v -2.71615578 0.70267082 2.10693683
v -2.71604978 0.70552312 2.10693683
v -2.71258956 0.02507878 2.08955658
v -2.70781372 0.02507878 2.07508922
v -2.71468595 0.70552312 2.15905332
v -2.71679192 0.70552312 2.14451313
v -2.71729311 0.70267082 2.14167306
v -2.71477750 0.02507878 2.15905332
v -2.71097516 0.00768671 2.17468583
v -2.71026192 -0.00267888 2.17233124
v -2.69578019 -0.00386158 2.19908129
v -2.69687895 -0.00407026 2.19380168
v -2.70377044 -0.00504417 2.14167306
v -2.71311489 -0.00518336 2.12431708
v -2.71244017 -0.00476600 2.10693683
v -2.71069083 -0.00309635 2.08955658
v -2.70294633 -0.00281807 2.07508922
v -2.70942818 0.00768671 2.07933719
v -2.71764492 0.70267082 2.12431708
v -2.71615578 0.02507878 2.10693683
v -2.71750998 0.70552312 2.12431708
v -2.71255104 0.00768671 2.08955658
v -2.70767878 0.00768671 2.07508922
v -2.71716780 0.70552312 2.14167306
v -2.71729311 0.02507878 2.14167306
v -2.71471966 0.00768671 2.15905332
v -2.71177032 -0.00420945 2.15905332
v -2.71295100 -0.00504417 2.14167306
v -2.71750035 0.00768671 2.12431708
v -2.71607867 0.00768671 2.10693683
v -2.70923539 -0.00149629 2.07988336
v -2.71746177 0.70552312 2.12715715
v -2.71764492 0.02507878 2.12431708
v -2.71715817 0.00768671 2.14167306
f 1 2 7
f 1 7 12
f 1 12 18
f 1 18 28
f 1 28 45
f 1 45 48
f 1 48 67
f 1 67 78
f 1 78 70
f 1 70 52
f 1 52 51
f 1 51 33
f 1 33 32
f 1 32 20
f 1 20 13
f 1 13 8
f 1 8 3
f 1 3 9
f 1 9 15
f 1 15 25
f 1 25 39
f 1 39 57
f 1 57 40
f 1 40 26
f 1 26 16
f 1 16 10
f 1 10 4
f 1 4 5
f 1 5 2
f 2 6 7
f 2 5 6
f 3 8 9
f 4 10 11
f 4 11 5
f 5 11 17
f 5 17 27
f 5 27 44
f 5 44 63
f 5 63 69
f 5 69 50
f 5 50 31
f 5 31 19
f 5 19 12
f 5 12 7
f 5 7 6
f 8 13 14
f 8 14 9
f 9 14 15
f 10 16 11
f 11 16 17
f 12 19 18
f 13 20 21
f 13 21 22
f 13 22 14
f 14 22 23
f 14 23 24
f 14 24 25
f 14 25 15
f 16 26 27
f 16 27 17
f 18 19 29
f 18 29 30
f 18 30 28
f 19 31 29
f 20 32 21
f 21 32 33
f 21 33 34
f 21 34 54
f 21 54 35
f 21 35 22
f 22 35 23
f 23 35 36
f 23 36 24
f 24 36 37
f 24 37 38
f 24 38 39
f 24 39 25
f 26 40 58
f 26 58 41
f 26 41 27
f 27 41 42
f 27 42 43
f 27 43 44
f 28 30 45
f 29 31 50
f 29 50 46
f 29 46 49
f 29 49 30
f 30 47 48
f 30 48 45
f 30 49 66
f 30 66 47
f 33 51 34
f 34 51 52
f 34 52 53
f 34 53 71
f 34 71 54
f 35 54 55
f 35 55 36
f 36 55 37
f 37 55 56
f 37 56 38
f 38 56 39
f 39 56 57
f 40 57 58
f 41 58 74
f 41 74 59
f 41 59 42
f 42 59 74
f 42 74 60
f 42 60 61
f 42 61 43
f 43 61 44
f 44 61 62
f 44 62 63
f 46 50 64
f 46 64 49
f 47 65 48
f 47 66 79
f 47 79 65
f 48 65 67
f 49 64 68
f 49 68 66
f 50 69 64
f 52 70 53
f 53 70 65
f 53 65 79
f 53 79 71
f 54 71 72
f 54 72 55
f 55 72 56
f 56 73 57
f 56 72 73
f 57 73 58
f 58 73 74
f 60 74 75
f 60 75 61
f 61 75 76
f 61 76 62
f 62 76 77
f 62 77 63
f 63 77 69
f 64 69 77
f 64 77 68
f 65 70 78
f 65 78 67
f 66 68 76
f 66 76 79
f 68 77 76
f 71 79 80
f 71 80 72
f 72 80 73
f 73 80 74
f 74 80 75
f 75 80 79
f 75 79 76

