# https://github.com/mikedh/trimesh
v -0.51023569 0.66790164 1.61993520
v -0.49242149 0.66790164 1.61993520
v -0.51027422 0.66790164 1.62046819
v -0.51080405 0.77214839 1.62046819
v -0.51075579 0.77214839 1.61993520
v -0.42797712 0.72427250 1.61993520
v -0.42246608 0.68514790 2.18882525
v -0.42246608 0.68514790 2.22495088
v -0.49511933 0.66790164 2.08844333
v -0.51143993 0.66790164 1.63787958
v -0.51155551 0.70270184 1.63787958
v -0.51181566 0.78951432 1.63787958
v -0.51080405 0.78951432 1.62046819
v -0.51075579 0.78951432 1.61993520
v -0.42317922 0.73745072 1.61993520
v -0.42246608 0.73440828 2.17946811
v -0.42316948 0.73796352 1.61993520
v -0.42269744 0.77214839 1.61993520
v -0.42246608 0.84250084 2.22495088
v -0.42406552 0.68514790 2.22495088
v -0.51217212 0.66790164 2.08844333
v -0.51972544 0.66790164 1.79748384
v -0.51894519 0.70270184 1.77687446
v -0.51818400 0.72008485 1.75952231
v -0.51906077 0.72008485 1.77687446
v -0.51967739 0.83966348 1.80103719
v -0.51145919 0.83966348 1.63787958
v -0.51027422 0.83966348 1.62040895
v -0.51023569 0.83966348 1.61993520
v -0.42246608 0.77216548 2.17745455
v -0.42269744 0.78951432 1.61993520
v -0.42406552 0.84250084 2.22495088
v -0.42246608 0.84250084 2.18663400
v -0.47616841 0.77216548 2.22347031
v -0.47616841 0.68514790 2.22299653
v -0.51982175 0.66790164 1.96620837
v -0.49105342 0.68514790 2.22139753
v -0.49973412 0.68514790 2.21701508
v -0.50356867 0.68514790 2.20836863
v -0.50576526 0.68514790 2.19379991
v -0.50918555 0.68514790 2.15903640
v -0.51085231 0.68514790 2.14162501
v -0.51998559 0.66790164 1.81163798
v -0.52047690 0.82426320 1.82904936
v -0.51972544 0.72008485 1.79748384
v -0.51951355 0.72008485 1.78877815
v -0.51948455 0.70270184 1.78877815
v -0.51970618 0.80689728 1.79931974
v -0.52000485 0.83966348 1.81039433
v -0.51222038 0.84248373 2.08844333
v -0.49240223 0.83966348 1.61993520
v -0.42246608 0.78954849 2.17745455
v -0.42313096 0.82426320 1.61993520
v -0.42246608 0.82428029 2.17934966
v -0.47616841 0.78954849 2.22347031
v -0.47616841 0.84250084 2.22299653
v -0.42723519 0.84250084 2.17609243
v -0.42326580 0.82467341 1.61993520
v -0.42794812 0.83822773 1.61993520
v -0.49428108 0.77235350 2.22151599
v -0.51191197 0.68516499 2.12427286
v -0.51693150 0.72008485 2.03733442
v -0.51778900 0.72008485 2.01998227
v -0.51962912 0.79811176 1.97746061
v -0.52022648 0.66790164 1.95051444
v -0.50260512 0.77826745 2.22021310
v -0.50702729 0.78954849 2.19379991
v -0.50406951 0.78934338 2.21198119
v -0.51144946 0.77216548 2.14162501
v -0.51091962 0.68530174 2.14055900
v -0.52027474 0.66790164 1.82904936
v -0.52081410 0.66790164 1.86369444
v -0.52066973 0.80689728 1.84634229
v -0.52065047 0.83966348 1.84438796
v -0.52047690 0.83966348 1.82904936
v -0.49534075 0.84248373 2.08844333
v -0.52066973 0.83966348 1.84634229
v -0.52074678 0.83966348 1.86369444
v -0.52074678 0.83966348 1.91581013
v -0.52062147 0.83966348 1.93108950
v -0.52060221 0.83966348 1.93310306
v -0.51178666 0.84248373 2.12427286
v -0.51094862 0.84250084 2.14162501
v -0.49257580 0.84250084 2.14055900
v -0.49105342 0.84250084 2.22139753
v -0.49428108 0.78934338 2.22151599
v -0.51204681 0.70271893 2.12427286
v -0.51962912 0.80006031 1.97746061
v -0.51312595 0.72008485 2.10686148
v -0.52024574 0.82426320 1.95051444
v -0.52060221 0.82426320 1.93310306
v -0.52047690 0.66790164 1.93310306
v -0.50260512 0.78342938 2.22021310
v -0.50633362 0.84250084 2.19451059
v -0.50643967 0.84250084 2.19379991
v -0.50946476 0.84250084 2.15903640
v -0.51003333 0.78954849 2.15903640
v -0.50396367 0.84250084 2.20884240
v -0.52088162 0.66790164 1.88104659
v -0.52081410 0.72008485 1.86369444
v -0.52076605 0.80689728 1.86369444
v -0.52088162 0.72008485 1.88104659
v -0.52079484 0.80689728 1.88104659
v -0.52079484 0.80689728 1.89845798
v -0.52074678 0.80689728 1.91581013
v -0.52024574 0.83966348 1.95051444
v -0.51175787 0.84248373 2.12504275
v -0.51980249 0.83966348 1.96496470
v -0.49973412 0.84250084 2.21748886
v -0.50376130 0.84250084 2.20925694
f 1 2 9
f 1 9 21
f 1 21 36
f 1 36 65
f 1 65 92
f 1 92 99
f 1 99 72
f 1 72 71
f 1 71 43
f 1 43 22
f 1 22 10
f 1 10 3
f 1 3 4
f 1 4 5
f 1 5 14
f 1 14 29
f 1 29 51
f 1 51 59
f 1 59 58
f 1 58 53
f 1 53 31
f 1 31 18
f 1 18 17
f 1 17 15
f 1 15 6
f 1 6 2
f 2 6 7
f 2 7 8
f 2 8 9
f 3 10 4
f 4 10 11
f 4 11 12
f 4 12 13
f 4 13 14
f 4 14 5
f 6 15 7
f 7 16 30
f 7 30 52
f 7 52 54
f 7 54 33
f 7 33 19
f 7 19 8
f 7 15 17
f 7 17 18
f 7 18 16
f 8 19 32
f 8 32 20
f 8 20 21
f 8 21 9
f 10 22 23
f 10 23 24
f 10 24 11
f 11 24 12
f 12 24 25
f 12 25 26
f 12 26 27
f 12 27 13
f 13 28 29
f 13 29 14
f 13 27 28
f 16 18 30
f 18 31 52
f 18 52 30
f 19 33 57
f 19 57 84
f 19 84 83
f 19 83 96
f 19 96 95
f 19 95 94
f 19 94 98
f 19 98 110
f 19 110 109
f 19 109 85
f 19 85 56
f 19 56 32
f 20 32 55
f 20 55 34
f 20 34 35
f 20 35 21
f 21 35 37
f 21 37 38
f 21 38 39
f 21 39 40
f 21 40 41
f 21 41 42
f 21 42 36
f 22 43 44
f 22 44 75
f 22 75 45
f 22 45 46
f 22 46 47
f 22 47 25
f 22 25 23
f 23 25 24
f 25 47 46
f 25 46 48
f 25 48 26
f 26 48 49
f 26 49 50
f 26 50 27
f 27 50 28
f 28 50 29
f 29 50 76
f 29 76 51
f 31 53 33
f 31 33 54
f 31 54 52
f 32 56 55
f 33 53 58
f 33 58 59
f 33 59 51
f 33 51 57
f 34 60 37
f 34 37 35
f 34 55 86
f 34 86 60
f 36 42 61
f 36 61 62
f 36 62 63
f 36 63 64
f 36 64 65
f 37 66 38
f 37 60 66
f 38 66 39
f 39 67 40
f 39 66 68
f 39 68 67
f 40 67 41
f 41 67 42
f 42 67 69
f 42 69 70
f 42 70 61
f 43 71 44
f 44 71 72
f 44 72 73
f 44 73 74
f 44 74 75
f 45 75 46
f 46 75 49
f 46 49 48
f 49 75 50
f 50 75 74
f 50 74 77
f 50 77 78
f 50 78 79
f 50 79 80
f 50 80 81
f 50 81 82
f 50 82 83
f 50 83 84
f 50 84 76
f 51 76 57
f 55 56 85
f 55 85 86
f 57 76 84
f 60 86 93
f 60 93 66
f 61 87 62
f 61 70 87
f 62 88 63
f 62 87 89
f 62 89 69
f 62 69 88
f 63 88 64
f 64 88 106
f 64 106 90
f 64 90 65
f 65 90 91
f 65 91 92
f 66 93 68
f 67 94 95
f 67 95 96
f 67 96 97
f 67 97 69
f 67 68 94
f 68 93 98
f 68 98 94
f 69 97 83
f 69 83 88
f 69 89 87
f 69 87 70
f 72 99 102
f 72 102 100
f 72 100 77
f 72 77 73
f 73 77 74
f 77 100 101
f 77 101 78
f 78 101 102
f 78 102 103
f 78 103 104
f 78 104 79
f 79 104 102
f 79 102 99
f 79 99 105
f 79 105 80
f 80 105 91
f 80 91 81
f 81 91 90
f 81 90 106
f 81 106 82
f 82 107 83
f 82 106 108
f 82 108 107
f 83 107 108
f 83 108 88
f 83 97 96
f 85 109 93
f 85 93 86
f 88 108 106
f 91 105 92
f 92 105 99
f 93 109 110
f 93 110 98
f 100 102 101
f 102 104 103

