# https://github.com/mikedh/trimesh
v -3.62851313 2.00522426 4.29518084
v -3.63725204 2.09073038 4.29528648
v -3.62704074 2.08768349 4.29518084
v -3.57983944 2.00522426 4.29518084
v -3.62203905 2.00522426 4.36569074
v -3.63589766 2.09073038 4.36569074
v -3.62600106 2.09073038 4.29518084
v -3.57983944 2.08179051 4.29518084
v -3.60614606 2.00522426 4.38306583
v -3.61949325 2.00522426 4.38247965
v -3.61940333 2.00522426 4.38306583
v -3.63402062 2.09073038 4.37130306
v -3.58003613 2.09073038 4.29518084
v -3.60627531 2.09073038 4.38306583
v -3.60614606 2.07531166 4.38306583
v -3.61047334 2.00522426 4.39314692
v -3.61457586 2.00522426 4.39314692
v -3.62919316 2.09073038 4.38306583
v -3.61050708 2.09073038 4.39311813
v -3.61047334 2.07531166 4.39314692
v -3.61938648 2.09073038 4.39335840
f 1 2 3
f 1 3 7
f 1 7 13
f 1 13 8
f 1 8 4
f 1 4 9
f 1 9 16
f 1 16 17
f 1 17 11
f 1 11 10
f 1 10 5
f 1 5 6
f 1 6 2
f 2 7 3
f 2 6 12
f 2 12 18
f 2 18 21
f 2 21 19
f 2 19 14
f 2 14 13
f 2 13 7
f 4 8 15
f 4 15 9
f 5 10 6
f 6 10 11
f 6 11 12
f 8 13 14
f 8 14 15
f 9 15 20
f 9 20 16
f 11 17 18
f 11 18 12
f 14 19 15
f 15 19 20
f 16 20 21
f 16 21 17
f 17 21 18
f 19 21 20

