# https://github.com/mikedh/trimesh
v -4.26397249 0.39516644 2.02013006
v -4.29231124 0.39792238 1.99785801
v -4.29231124 0.39792238 1.99300622
v -4.26397249 0.39546792 2.01601758
v -4.25794560 0.39516644 2.02013006
v -4.40081068 0.42414683 2.44191280
v -4.40832081 0.41217574 1.96994865
v -4.28135048 0.40855857 1.96994865
v -4.28135048 0.39783626 1.99282139
v -4.26395685 0.39654446 2.00270981
v -4.26181774 0.39546792 2.01601758
v -4.24881159 0.43073519 2.18079381
v -4.24881159 0.42797925 2.44191280
v -4.25794560 0.39607076 2.00871680
v -4.40081068 0.51479116 2.44191280
v -4.40830517 0.43353420 2.18079381
v -4.40832081 0.42746257 2.01601758
v -4.40832081 0.83503916 1.96994865
v -4.26230180 0.40838635 1.96994865
v -4.26395685 0.39830996 1.99351450
v -4.25794560 0.40847246 1.96994865
v -4.25794560 0.39848219 1.99379174
v -4.25794560 0.39693200 2.00243257
v -4.24881159 0.76187777 2.18079381
v -4.24881159 0.64500899 2.44191280
v -4.24881159 0.78659501 2.40734956
v -4.24881159 0.78960934 2.40647159
v -4.32317944 0.74448094 2.39297900
v -4.40081068 0.65306148 2.39094584
v -4.40830517 0.80481005 2.18079381
v -4.40832081 0.82362789 2.01601758
v -4.40832081 0.83374730 1.97706461
v -4.40830517 0.80532673 2.17774410
v -4.29064055 0.81574762 2.34270515
v -4.24881159 0.82354175 2.36756484
v -4.24881159 0.82371400 2.35009835
v -4.40418323 0.83456548 1.96994865
v -4.25794560 0.70718972 1.96994865
v -4.24881159 0.78129845 2.21812952
v -4.24881159 0.80747982 2.40027978
v -4.39561127 0.69607988 2.37703737
v -4.24881159 0.80799655 2.40009497
v -4.28970382 0.78039419 2.39339486
v -4.39064611 0.70766337 2.37421870
v -4.40081068 0.68044854 2.38017949
v -4.40081068 0.68402268 2.37870083
v -4.40081068 0.69151536 2.37546633
v -4.40081068 0.70077359 2.37052210
v -4.40081068 0.70370175 2.36885863
v -4.40081068 0.71029016 2.36497719
v -4.40081068 0.71558672 2.36183507
v -4.40081068 0.71860099 2.35975575
v -4.40081068 0.72368224 2.35615155
v -4.40081068 0.73677295 2.34566244
v -4.40081068 0.75296405 2.33124567
v -4.40081068 0.76200697 2.32232759
v -4.40081068 0.76618390 2.31599716
v -4.40081068 0.76730353 2.31401024
v -4.40081068 0.77531294 2.29811484
v -4.40081068 0.78039419 2.28684020
v -4.40081068 0.78327932 2.27930835
v -4.40081068 0.78474340 2.27538072
v -4.40081068 0.78870507 2.26410605
v -4.40081068 0.79460447 2.24728650
v -4.40081068 0.79533651 2.24492991
v -4.40081068 0.79796325 2.23601186
v -4.40081068 0.79990103 2.22700138
v -4.40832081 0.83305832 1.97983706
v -4.39913999 0.80024548 2.22857244
v -4.39623586 0.79916899 2.24086365
v -4.28740854 0.81467108 2.35430325
v -4.24881159 0.82026908 2.38558577
v -4.24881159 0.82052745 2.33272430
v -4.38657098 0.82750340 1.96994865
v -4.39642321 0.83254159 1.96994865
v -4.40102920 0.83383344 1.96994865
v -4.37275289 0.81768540 1.96994865
v -4.24881159 0.79826467 2.25569629
v -4.24881159 0.79460447 2.24742512
v -4.24881159 0.78426970 2.22445996
v -4.24881159 0.81712559 2.39496593
v -4.31048553 0.78362382 2.37874705
v -4.32826949 0.76627001 2.37837740
v -4.33983932 0.76058592 2.37468080
v -4.37751506 0.74684928 2.35933986
v -4.39884328 0.71683549 2.36262060
v -4.39398749 0.72837595 2.35860057
v -4.37843626 0.76480593 2.34307482
v -4.37205021 0.75843283 2.35467292
v -4.39556446 0.76454760 2.32537731
v -4.37620353 0.78030807 2.32311312
v -4.38009131 0.78315012 2.31156124
v -4.36795945 0.78965237 2.31511922
v -4.35571832 0.79615467 2.31867721
v -4.35973111 0.79826467 2.30712532
v -4.24881159 0.82001072 2.38664854
v -4.34413307 0.79899671 2.32662492
v -4.32820704 0.79972875 2.34459964
v -4.24881159 0.81721170 2.31863099
v -4.37375218 0.81854664 1.96994865
v -4.24881159 0.80106369 2.26382881
v -4.33976123 0.79680059 2.33822301
v -4.25491657 0.81497255 2.39247071
v -4.36048049 0.76424612 2.35947848
v -4.35940322 0.78069561 2.34127271
v -4.36702271 0.76816471 2.34935904
v -4.36458690 0.78457112 2.32972080
v -4.34778659 0.78521704 2.34630932
v -4.33454628 0.79068588 2.35129974
f 1 2 3
f 1 3 4
f 1 4 11
f 1 11 5
f 1 5 6
f 1 6 2
f 2 7 3
f 2 6 7
f 3 7 8
f 3 8 9
f 3 9 10
f 3 10 4
f 4 10 11
f 5 12 13
f 5 13 6
f 5 11 14
f 5 14 12
f 6 13 25
f 6 25 15
f 6 15 30
f 6 30 16
f 6 16 7
f 7 17 31
f 7 31 68
f 7 68 32
f 7 32 18
f 7 18 37
f 7 37 76
f 7 76 75
f 7 75 74
f 7 74 100
f 7 100 77
f 7 77 38
f 7 38 21
f 7 21 19
f 7 19 8
f 7 16 17
f 8 19 9
f 9 20 10
f 9 19 21
f 9 21 20
f 10 22 23
f 10 23 14
f 10 14 11
f 10 20 22
f 12 14 23
f 12 23 22
f 12 22 21
f 12 21 38
f 12 38 24
f 12 24 39
f 12 39 80
f 12 80 79
f 12 79 78
f 12 78 101
f 12 101 99
f 12 99 73
f 12 73 36
f 12 36 35
f 12 35 72
f 12 72 96
f 12 96 81
f 12 81 42
f 12 42 40
f 12 40 27
f 12 27 26
f 12 26 25
f 12 25 13
f 15 25 26
f 15 26 27
f 15 27 28
f 15 28 29
f 15 29 30
f 16 30 31
f 16 31 17
f 18 32 30
f 18 30 33
f 18 33 34
f 18 34 35
f 18 35 36
f 18 36 37
f 20 21 22
f 24 38 39
f 27 40 28
f 28 41 29
f 28 40 42
f 28 42 43
f 28 43 44
f 28 44 41
f 29 41 45
f 29 45 30
f 30 45 46
f 30 46 47
f 30 47 48
f 30 48 49
f 30 49 50
f 30 50 51
f 30 51 52
f 30 52 53
f 30 53 54
f 30 54 55
f 30 55 56
f 30 56 57
f 30 57 58
f 30 58 59
f 30 59 60
f 30 60 61
f 30 61 62
f 30 62 63
f 30 63 64
f 30 64 65
f 30 65 66
f 30 66 67
f 30 67 33
f 30 32 68
f 30 68 31
f 33 67 69
f 33 69 34
f 34 69 70
f 34 70 71
f 34 71 35
f 35 71 72
f 36 73 74
f 36 74 75
f 36 75 76
f 36 76 37
f 38 77 78
f 38 78 79
f 38 79 80
f 38 80 39
f 41 46 45
f 41 44 48
f 41 48 47
f 41 47 46
f 42 81 43
f 43 81 82
f 43 82 83
f 43 83 44
f 44 84 85
f 44 85 86
f 44 86 49
f 44 49 48
f 44 83 84
f 49 86 50
f 50 86 51
f 51 86 52
f 52 86 87
f 52 87 53
f 53 87 85
f 53 85 54
f 54 88 55
f 54 85 89
f 54 89 88
f 55 88 90
f 55 90 56
f 56 90 57
f 57 90 91
f 57 91 58
f 58 91 59
f 59 91 92
f 59 92 60
f 60 92 93
f 60 93 94
f 60 94 95
f 60 95 61
f 61 95 62
f 62 95 63
f 63 95 64
f 64 95 70
f 64 70 65
f 65 70 66
f 66 70 67
f 67 70 69
f 70 95 71
f 71 81 96
f 71 96 72
f 71 95 97
f 71 97 98
f 71 98 81
f 73 99 74
f 74 99 100
f 77 100 101
f 77 101 78
f 81 98 102
f 81 102 103
f 81 103 82
f 82 103 104
f 82 104 84
f 82 84 83
f 84 104 85
f 85 87 86
f 85 104 89
f 88 105 90
f 88 89 104
f 88 104 106
f 88 106 105
f 90 105 107
f 90 107 91
f 91 94 93
f 91 93 92
f 91 107 102
f 91 102 94
f 94 102 97
f 94 97 95
f 97 102 98
f 99 101 100
f 102 107 105
f 102 105 108
f 102 108 109
f 102 109 103
f 103 109 108
f 103 108 106
f 103 106 104
f 105 106 108

