# https://github.com/mikedh/trimesh
v -1.32756059 0.98068622 -0.27136609
v -1.31019275 0.98068622 -0.27084786
v -1.32756059 0.97894122 -0.27131431
v -1.37981593 0.97894122 -0.26297495
v -1.37967674 1.03106654 -0.26265245
v -1.30787789 0.97894122 -0.27036401
v -1.31028140 0.97894122 -0.27053116
v -1.31019275 0.99340630 -0.26780702
v -1.28882776 0.97894122 -0.26715043
v -1.39431236 0.97894122 -0.25643242
v -1.39574175 1.03106654 -0.25560888
v -1.36531950 1.03106654 -0.25443384
v -1.29897266 0.99073268 -0.26613095
v -1.28238900 0.97894122 -0.26254288
v -1.39577965 0.97894122 -0.25562607
v -1.40172483 0.97894122 -0.23871101
v -1.40107983 1.03106654 -0.24040428
v -1.36491477 1.03106654 -0.25287894
v -1.29732827 0.99156947 -0.25608113
v -1.27692436 0.97894122 -0.25719257
v -1.40166165 1.03106654 -0.23871101
v -1.39509654 0.97894122 -0.22669721
v -1.36123370 1.03106654 -0.23871101
v -1.27297776 0.97894122 -0.24190181
v -1.39503337 1.03106654 -0.22669721
v -1.39431236 0.97894122 -0.22536103
v -1.39428688 1.03106654 -0.22536103
v -1.36176498 1.03106654 -0.23746700
v -1.27250985 0.97894122 -0.23871101
v -1.37967674 0.97894122 -0.22149085
v -1.37967674 1.03106654 -0.22160602
v -1.36688807 1.03106654 -0.22627094
v -1.29846665 0.99094697 -0.22623076
v -1.27544444 0.97894122 -0.23344708
v -1.32873707 0.97894122 -0.21412478
v -1.31947744 0.98768661 -0.21253508
v -1.31947744 0.98965610 -0.21253508
v -1.31808617 0.98965610 -0.21253508
v -1.28412204 0.97894122 -0.22354680
v -1.32637147 0.97894122 -0.21393464
v -1.31808617 0.98768661 -0.21253508
v -1.31145768 0.98141075 -0.21452785
v -1.31364618 0.97894122 -0.21451625
f 1 2 3
f 1 3 4
f 1 4 5
f 1 5 2
f 2 6 7
f 2 7 3
f 2 5 8
f 2 8 9
f 2 9 6
f 3 7 6
f 3 6 9
f 3 9 14
f 3 14 20
f 3 20 24
f 3 24 29
f 3 29 34
f 3 34 39
f 3 39 43
f 3 43 40
f 3 40 35
f 3 35 30
f 3 30 26
f 3 26 22
f 3 22 16
f 3 16 15
f 3 15 10
f 3 10 4
f 4 10 11
f 4 11 5
f 5 11 17
f 5 17 21
f 5 21 25
f 5 25 27
f 5 27 31
f 5 31 32
f 5 32 28
f 5 28 23
f 5 23 18
f 5 18 12
f 5 12 13
f 5 13 8
f 8 13 9
f 9 13 14
f 10 15 11
f 11 15 16
f 11 16 17
f 12 18 19
f 12 19 13
f 13 19 20
f 13 20 14
f 16 21 17
f 16 22 25
f 16 25 21
f 18 23 19
f 19 24 20
f 19 23 24
f 22 26 27
f 22 27 25
f 23 28 29
f 23 29 24
f 26 30 27
f 27 30 31
f 28 32 33
f 28 33 29
f 29 33 34
f 30 35 36
f 30 36 37
f 30 37 31
f 31 37 38
f 31 38 32
f 32 38 33
f 33 38 39
f 33 39 34
f 35 40 36
f 36 40 41
f 36 41 38
f 36 38 37
f 38 41 42
f 38 42 39
f 39 42 43
f 40 43 41
f 41 43 42

