# https://github.com/mikedh/trimesh
v -2.24773811 -0.00422208 0.74048249
v -2.19484720 -0.00225686 0.69931012
v -2.21369030 -0.00422208 0.73715748
v -2.24773811 -0.00422208 0.74797502
v -2.24773811 0.00732320 0.73738066
v -2.20229436 0.00756885 0.69931012
v -2.18665769 -0.00225686 0.69931012
v -2.19801107 -0.00323947 0.73257157
v -2.19631356 -0.00323947 0.74651332
v -2.21369030 -0.00422208 0.74797502
v -2.21369030 0.00781450 0.75366553
v -2.24773811 0.00781450 0.75308526
v -2.24773811 0.00781450 0.73725793
v -2.21465169 0.05964544 0.69931012
v -2.18665769 -0.00225686 0.73429549
v -2.18563552 0.00781450 0.69931012
v -2.18698019 -0.00176555 0.74435992
v -2.19631356 0.00781450 0.75073095
v -2.21369030 0.04245035 0.75546195
v -2.24773811 0.05989109 0.75630433
v -2.24773811 0.05989109 0.72741110
v -2.21474904 0.07708619 0.69931012
v -2.18563552 0.00781450 0.73429549
v -2.18558685 0.02525525 0.69931012
v -2.18663336 0.00781450 0.74510185
v -2.19631356 0.02525525 0.75142275
v -2.21369030 0.05989109 0.75630433
v -2.24773811 0.07733174 0.75630433
v -2.24773811 0.07733174 0.72740002
v -2.21461513 2.47457188 0.69931012
v -2.18558685 0.02525525 0.73429549
v -2.18558685 0.07733174 0.69931012
v -2.18660902 0.02525525 0.74515208
v -2.19631356 0.05989109 0.75181329
v -2.19631356 0.04245035 0.75161808
v -2.21369030 0.07733174 0.75630433
v -2.24773811 2.49225828 0.74626787
v -2.24773811 2.47481753 0.73104857
v -2.24773811 2.49103012 0.73114343
v -2.21437786 2.49201262 0.69931012
v -2.18558685 0.07733174 0.73429549
v -2.19558343 2.47481753 0.69931012
v -2.18660902 0.07733174 0.74515208
v -2.19631356 0.07733174 0.75181329
v -2.20269598 2.49225828 0.74462204
v -2.21369030 2.49225828 0.74626787
v -2.24773811 2.49274958 0.74620087
v -2.24773811 2.49225828 0.73118807
v -2.20963817 2.50503182 0.69931012
v -2.19558343 2.47481753 0.71692279
v -2.19580247 2.49225828 0.69931012
v -2.19796240 2.47481753 0.73429549
v -2.19809620 2.49225828 0.73429549
v -2.20348089 2.50232974 0.74406414
v -2.21369030 2.50306660 0.74460536
v -2.23106104 2.50306660 0.74460536
v -2.24773811 2.50306660 0.74427065
v -2.24773811 2.50257540 0.73682835
v -2.24773811 2.50306660 0.73716307
v -2.20957127 2.50527748 0.69954998
v -2.20051172 2.50527748 0.69931012
v -2.19580247 2.49225828 0.71692279
v -2.20161291 2.50404921 0.73429549
v -2.21526012 2.50429486 0.73296211
v -2.21142091 2.50527748 0.71692279
v -2.20051172 2.50527748 0.71692279
f 1 2 3
f 1 3 10
f 1 10 4
f 1 4 12
f 1 12 20
f 1 20 28
f 1 28 37
f 1 37 47
f 1 47 57
f 1 57 59
f 1 59 58
f 1 58 48
f 1 48 39
f 1 39 38
f 1 38 29
f 1 29 21
f 1 21 13
f 1 13 5
f 1 5 6
f 1 6 2
f 2 7 3
f 2 6 14
f 2 14 22
f 2 22 30
f 2 30 40
f 2 40 49
f 2 49 61
f 2 61 51
f 2 51 42
f 2 42 32
f 2 32 24
f 2 24 16
f 2 16 7
f 3 7 8
f 3 8 9
f 3 9 10
f 4 10 11
f 4 11 12
f 5 13 6
f 6 13 14
f 7 15 9
f 7 9 8
f 7 16 23
f 7 23 15
f 9 15 17
f 9 17 18
f 9 18 11
f 9 11 10
f 11 18 19
f 11 19 20
f 11 20 12
f 13 21 14
f 14 21 22
f 15 23 17
f 16 24 31
f 16 31 23
f 17 23 25
f 17 25 18
f 18 25 26
f 18 26 27
f 18 27 19
f 19 27 20
f 20 27 36
f 20 36 28
f 21 29 22
f 22 29 30
f 23 31 25
f 24 32 41
f 24 41 31
f 25 31 33
f 25 33 34
f 25 34 35
f 25 35 26
f 26 35 27
f 27 34 44
f 27 44 36
f 27 35 34
f 28 36 46
f 28 46 37
f 29 38 30
f 30 38 39
f 30 39 40
f 31 41 43
f 31 43 33
f 32 42 50
f 32 50 41
f 33 43 44
f 33 44 34
f 36 44 45
f 36 45 46
f 37 46 47
f 39 48 40
f 40 48 49
f 41 50 43
f 42 51 62
f 42 62 50
f 43 50 52
f 43 52 45
f 43 45 44
f 45 52 53
f 45 53 54
f 45 54 46
f 46 54 55
f 46 55 47
f 47 55 56
f 47 56 57
f 48 58 49
f 49 58 59
f 49 59 60
f 49 60 61
f 50 62 53
f 50 53 52
f 51 61 66
f 51 66 62
f 53 62 63
f 53 63 54
f 54 63 55
f 55 63 64
f 55 64 56
f 56 64 57
f 57 64 65
f 57 65 59
f 59 65 60
f 60 65 66
f 60 66 61
f 62 66 63
f 63 66 64
f 64 66 65

