# https://github.com/mikedh/trimesh
v -2.09657447 0.39007644 1.42557659
v -2.09657447 0.39128099 1.42921494
v -2.09657447 0.39045284 1.41149534
v -2.04999297 -0.00268396 1.40000516
v -2.04999297 -0.00268396 1.40664018
v -2.05078099 0.00770535 1.40875298
v -2.09657447 0.43750582 1.44580853
v -2.09657447 0.39225972 1.40840185
v -2.03476445 -0.00283454 1.42207748
v -2.09657447 0.39512051 1.40420653
v -2.05078099 0.00770535 1.39828590
v -2.04465136 0.00770535 1.38959861
v -2.03445759 -0.00268396 1.38454973
v -2.04566328 0.00770535 1.41743415
v -2.09657447 0.76077839 1.44580853
v -2.03697077 0.00770535 1.42299159
v -2.07227180 0.37253508 1.44580853
v -2.02771424 -0.00283454 1.42207748
v -2.09657447 0.40310072 1.40113121
v -2.09657447 0.40724135 1.40036235
v -2.03595885 0.00770535 1.38396858
v -2.02802110 -0.00268396 1.38454973
v -2.09206230 0.76243469 1.44580853
v -2.09657447 0.76469321 1.44092913
v -2.02569040 0.00770535 1.42299159
v -2.05584888 0.35326219 1.44580853
v -2.06038590 0.35649949 1.44580853
v -2.06731172 0.36176943 1.44580853
v -2.01248572 -0.00268396 1.39995069
v -2.01248572 -0.00268396 1.40670071
v -2.01700617 0.00770535 1.41715572
v -2.09657447 0.40837061 1.40035023
v -2.03570170 0.02509607 1.38415624
v -2.02664422 0.00770535 1.38396858
v -2.09657447 0.42463213 1.40018681
v -2.09657447 0.47672917 1.39975697
v -2.09657447 0.65259431 1.39982356
v -2.09657447 0.66787710 1.39983568
v -2.09657447 0.66990974 1.39984174
v -2.09657447 0.68526783 1.39993251
v -2.09657447 0.68714999 1.39995069
v -2.09657447 0.70265866 1.40012022
v -2.09657447 0.70431490 1.40013834
v -2.09657447 0.72004938 1.40032605
v -2.01795171 0.00770535 1.38981050
v -2.07738940 0.76439209 1.44580853
v -2.09206230 0.76491908 1.44166770
v -2.09657447 0.76612363 1.42957819
v -2.02365827 0.40724135 1.44580853
v -2.02789672 0.38954946 1.44580853
v -2.02800453 0.38917300 1.44580853
v -2.03373595 0.37261037 1.44580853
v -2.04103502 0.35634890 1.44580853
v -2.01184704 0.00770535 1.39849779
v -2.01184704 0.00770535 1.40847450
v -2.02177538 0.47672917 1.44580853
v -2.03536998 0.04248680 1.38436813
v -2.03160430 0.15880178 1.38578473
v -2.02715024 0.02509607 1.38415624
v -2.09657447 0.73736492 1.40086479
v -2.03107344 0.15880178 1.38578473
v -2.03217660 0.14668089 1.38563943
v -2.03291480 0.12936545 1.38542753
v -2.03354519 0.11197473 1.38521564
v -2.03409263 0.09458390 1.38500375
v -2.03457368 0.07719307 1.38479186
v -2.03499674 0.05980234 1.38457997
v -2.01351421 0.19885327 1.40259622
v -2.02549135 0.38992586 1.39843120
v -2.01383764 0.22648272 1.40317131
v -2.01370498 0.21624400 1.40294129
v -2.07358229 0.76431680 1.44580853
v -2.09206230 0.76627421 1.42929970
v -2.09657447 0.76506966 1.41611444
v -2.01197142 0.02509607 1.39892758
v -2.01197142 0.02509607 1.40851079
v -2.02189158 0.58099850 1.44580853
v -2.02182520 0.56360772 1.44580853
v -2.02177538 0.54629223 1.44580853
v -2.02173396 0.52890145 1.44580853
v -2.02170910 0.51151073 1.44580853
v -2.02169243 0.49411995 1.44580853
v -2.09657447 0.74767888 1.40236009
v -2.04775351 0.64724907 1.40300183
v -2.03994014 0.40724135 1.39445984
v -2.03994014 0.42463213 1.39515605
v -2.03994014 0.47672917 1.39725673
v -2.03994014 0.49411995 1.39797107
v -2.03100705 0.55848836 1.40303813
v -2.03058410 0.54629223 1.40268705
v -2.02938970 0.51151073 1.40170024
v -2.02822015 0.47672917 1.40072560
v -2.02763957 0.45941368 1.40024734
v -2.02707557 0.44202290 1.39976909
v -2.02651156 0.42463213 1.39929689
v -2.02595584 0.40724135 1.39883075
v -2.01351421 0.19885327 1.40628904
v -2.01335659 0.18146244 1.40229956
v -2.01212076 0.04248680 1.39938160
v -2.01383764 0.22648272 1.40375251
v -2.02880073 0.49411995 1.40121592
v -2.02832796 0.65048632 1.41574513
v -2.02092109 0.45941368 1.41193124
v -2.02009164 0.44202290 1.41193124
v -2.01927049 0.42463213 1.41193124
v -2.01847419 0.40724135 1.41193124
v -2.01783561 0.38992586 1.41193124
v -2.02270435 0.65048632 1.44580853
v -2.01370498 0.21624400 1.40496933
v -2.06269174 0.76378982 1.44580853
v -2.06494777 0.76378982 1.43711519
v -2.07592138 0.76439209 1.43051047
v -2.09206230 0.76476850 1.41765210
v -2.08254024 0.76378982 1.42009786
v -2.09657447 0.75701416 1.40753010
v -2.01212076 0.04248680 1.40847450
v -2.02202425 0.59838928 1.44580853
v -2.09657447 0.75053967 1.40353456
v -2.06470730 0.74782946 1.41969831
v -2.03994014 0.66787710 1.40989109
v -2.04115112 0.65206727 1.40630722
v -2.03172868 0.57008221 1.40344373
v -2.03994014 0.52890145 1.39950878
v -2.03994014 0.51151073 1.39872175
v -2.01335659 0.18146244 1.40688837
v -2.02243892 0.63317083 1.44580853
v -2.02221501 0.61578005 1.44580853
v -2.01289210 0.12936545 1.40133704
v -2.01242762 0.07719307 1.40022311
v -2.03786659 0.63317083 1.40630116
v -2.02936484 0.66787710 1.41746445
v -2.02870121 0.73736492 1.44580853
v -2.02783862 0.72614747 1.44580853
v -2.02739900 0.72004938 1.44580853
v -2.05478714 0.76183241 1.44580853
v -2.03980748 0.75340052 1.44580853
v -2.04518223 0.74956100 1.43538381
v -2.07592138 0.75407808 1.41710725
v -2.09211201 0.75490623 1.40864398
v -2.01242762 0.07719307 1.40829895
v -2.01258524 0.09458390 1.40817178
v -2.01289210 0.12936545 1.40783276
v -2.01304973 0.14668089 1.40760275
v -2.01320725 0.16407172 1.40730003
v -2.03055924 0.67728767 1.41940771
v -2.03424186 0.73736492 1.44059012
f 1 2 7
f 1 7 15
f 1 15 24
f 1 24 48
f 1 48 74
f 1 74 115
f 1 115 118
f 1 118 83
f 1 83 60
f 1 60 44
f 1 44 43
f 1 43 42
f 1 42 41
f 1 41 40
f 1 40 39
f 1 39 38
f 1 38 37
f 1 37 36
f 1 36 35
f 1 35 32
f 1 32 20
f 1 20 19
f 1 19 10
f 1 10 8
f 1 8 3
f 1 3 4
f 1 4 5
f 1 5 2
f 2 5 6
f 2 6 7
f 3 8 4
f 4 9 5
f 4 8 10
f 4 10 11
f 4 11 12
f 4 12 13
f 4 13 9
f 5 9 14
f 5 14 6
f 6 14 7
f 7 14 16
f 7 16 17
f 7 17 28
f 7 28 27
f 7 27 26
f 7 26 53
f 7 53 52
f 7 52 51
f 7 51 50
f 7 50 49
f 7 49 56
f 7 56 82
f 7 82 81
f 7 81 80
f 7 80 79
f 7 79 78
f 7 78 77
f 7 77 117
f 7 117 127
f 7 127 126
f 7 126 108
f 7 108 134
f 7 134 133
f 7 133 132
f 7 132 136
f 7 136 135
f 7 135 110
f 7 110 72
f 7 72 46
f 7 46 23
f 7 23 15
f 9 18 25
f 9 25 16
f 9 16 14
f 9 13 22
f 9 22 18
f 10 19 11
f 11 19 20
f 11 20 12
f 12 21 13
f 12 20 21
f 13 21 34
f 13 34 22
f 15 23 24
f 16 25 26
f 16 26 27
f 16 27 28
f 16 28 17
f 18 22 29
f 18 29 30
f 18 30 31
f 18 31 25
f 20 32 21
f 21 33 59
f 21 59 34
f 21 32 35
f 21 35 36
f 21 36 37
f 21 37 38
f 21 38 39
f 21 39 40
f 21 40 41
f 21 41 42
f 21 42 43
f 21 43 44
f 21 44 33
f 22 34 45
f 22 45 29
f 23 46 47
f 23 47 24
f 24 47 48
f 25 31 49
f 25 49 50
f 25 50 51
f 25 51 52
f 25 52 53
f 25 53 26
f 29 45 54
f 29 54 55
f 29 55 30
f 30 55 31
f 31 55 56
f 31 56 49
f 33 57 58
f 33 58 61
f 33 61 59
f 33 44 57
f 34 59 45
f 44 60 61
f 44 61 58
f 44 58 62
f 44 62 63
f 44 63 64
f 44 64 65
f 44 65 66
f 44 66 67
f 44 67 57
f 45 68 54
f 45 59 61
f 45 61 69
f 45 69 70
f 45 70 71
f 45 71 68
f 46 72 73
f 46 73 47
f 47 73 48
f 48 73 74
f 54 68 75
f 54 75 76
f 54 76 55
f 55 76 77
f 55 77 78
f 55 78 79
f 55 79 80
f 55 80 81
f 55 81 82
f 55 82 56
f 57 67 66
f 57 66 65
f 57 65 58
f 58 65 64
f 58 64 63
f 58 63 62
f 60 83 84
f 60 84 85
f 60 85 61
f 61 85 86
f 61 86 87
f 61 87 88
f 61 88 89
f 61 89 90
f 61 90 91
f 61 91 92
f 61 92 93
f 61 93 94
f 61 94 95
f 61 95 96
f 61 96 69
f 68 97 125
f 68 125 98
f 68 98 99
f 68 99 75
f 68 71 109
f 68 109 97
f 69 96 70
f 70 100 109
f 70 109 71
f 70 96 95
f 70 95 94
f 70 94 93
f 70 93 92
f 70 92 101
f 70 101 91
f 70 91 90
f 70 90 102
f 70 102 103
f 70 103 104
f 70 104 105
f 70 105 106
f 70 106 107
f 70 107 108
f 70 108 100
f 72 110 73
f 73 110 111
f 73 111 112
f 73 112 113
f 73 113 74
f 74 113 114
f 74 114 115
f 75 99 116
f 75 116 76
f 76 116 117
f 76 117 77
f 83 118 119
f 83 119 120
f 83 120 121
f 83 121 84
f 84 121 122
f 84 122 89
f 84 89 123
f 84 123 124
f 84 124 88
f 84 88 87
f 84 87 86
f 84 86 85
f 88 124 89
f 89 124 123
f 89 122 102
f 89 102 90
f 91 101 92
f 97 109 126
f 97 126 127
f 97 127 125
f 98 125 142
f 98 142 128
f 98 128 129
f 98 129 99
f 99 129 140
f 99 140 116
f 100 108 109
f 102 122 130
f 102 130 121
f 102 121 131
f 102 131 132
f 102 132 133
f 102 133 134
f 102 134 108
f 102 108 106
f 102 106 105
f 102 105 104
f 102 104 103
f 106 108 107
f 108 126 109
f 110 135 111
f 111 114 112
f 111 135 136
f 111 136 114
f 112 114 113
f 114 136 137
f 114 137 119
f 114 119 138
f 114 138 115
f 115 138 139
f 115 139 118
f 116 140 117
f 117 140 141
f 117 141 142
f 117 142 143
f 117 143 144
f 117 144 127
f 118 139 138
f 118 138 119
f 119 137 145
f 119 145 120
f 120 145 131
f 120 131 121
f 121 130 122
f 125 144 143
f 125 143 142
f 125 127 144
f 128 142 140
f 128 140 129
f 131 145 132
f 132 145 146
f 132 146 137
f 132 137 136
f 137 146 145
f 140 142 141

