# https://github.com/mikedh/trimesh
v -4.64555396 0.39097537 3.32317549
v -4.64555396 0.39133091 3.30644260
v -4.47118170 0.39118121 3.32317549
v -4.64555396 0.39344547 3.39261308
v -4.64555396 0.39134965 3.30579584
v -4.47118170 0.39170519 3.30579584
v -4.47118170 0.39655176 3.39261308
v -4.64555396 0.58210622 3.39261308
v -4.64555396 0.39625236 3.18615948
v -4.47118170 0.39404428 3.28968941
v -4.47118170 0.58210622 3.39261308
v -4.64555396 0.58210622 3.21489643
v -4.64555396 0.41823971 3.18615948
v -4.47118170 0.41365510 3.18615948
v -4.47118170 0.39423137 3.28845669
v -4.47118170 0.58210622 3.19541517
v -4.64311317 0.58210622 3.20758090
v -4.64555396 0.58203134 3.20780315
v -4.64555396 0.49417556 3.18816012
v -4.62882677 0.49417556 3.18767513
v -4.61145106 0.49417556 3.18723053
v -4.57669943 0.49417556 3.18636153
v -4.56751654 0.49417556 3.18615948
v -4.47118170 0.57374163 3.18615948
v -4.47118170 0.58175068 3.19363677
v -4.54196500 0.58210622 3.19824432
v -4.61138271 0.58210622 3.20424636
v -4.64555396 0.56367426 3.20315511
v -4.64555396 0.51292561 3.19062566
v -4.47118170 0.57929928 3.19127231
v -4.64555396 0.51659327 3.19139359
v -4.64248164 0.52228192 3.19236356
v -4.64555396 0.52608059 3.19363677
v -4.57775764 0.58210622 3.20075025
v -4.57669943 0.58210622 3.20064918
v -4.55932362 0.58210622 3.19915382
f 1 2 3
f 1 3 4
f 1 4 8
f 1 8 12
f 1 12 18
f 1 18 28
f 1 28 33
f 1 33 31
f 1 31 29
f 1 29 19
f 1 19 13
f 1 13 9
f 1 9 5
f 1 5 2
f 2 5 3
f 3 5 6
f 3 6 10
f 3 10 15
f 3 15 14
f 3 14 24
f 3 24 30
f 3 30 25
f 3 25 16
f 3 16 11
f 3 11 7
f 3 7 4
f 4 7 11
f 4 11 8
f 5 9 6
f 6 9 10
f 8 11 16
f 8 16 26
f 8 26 36
f 8 36 35
f 8 35 34
f 8 34 27
f 8 27 17
f 8 17 12
f 9 13 23
f 9 23 24
f 9 24 14
f 9 14 15
f 9 15 10
f 12 17 18
f 13 19 20
f 13 20 21
f 13 21 22
f 13 22 23
f 16 25 26
f 17 27 18
f 18 27 24
f 18 24 28
f 19 29 24
f 19 24 20
f 20 24 21
f 21 24 22
f 22 24 23
f 24 29 31
f 24 31 32
f 24 32 33
f 24 33 28
f 24 27 34
f 24 34 35
f 24 35 36
f 24 36 30
f 25 30 36
f 25 36 26
f 31 33 32

