# https://github.com/mikedh/trimesh
v -1.26606550 0.00769530 1.85534074
v -1.26640685 0.02508064 1.85516261
v -1.26870327 0.00769530 1.85534074
v -1.26619703 -0.00141748 1.85527147
v -1.24933644 -0.00106205 1.83768573
v -1.25578701 0.00837385 1.84460820
v -1.25888812 0.11194252 1.84543455
v -1.25909773 0.12932786 1.84519208
v -1.26664566 0.03606761 1.85503890
v -1.26780123 0.02508064 1.85516261
v -1.25935623 0.14668078 1.84491498
v -1.27648525 0.02508064 1.85315365
v -1.27738232 0.00769530 1.85312891
v -1.26828404 -0.00141748 1.85527147
v -1.27543201 0.12932786 1.85180282
v -1.27543201 0.11194252 1.85209475
v -1.27461282 -0.00403494 1.84728021
v -1.25946352 -0.00238694 1.84460820
v -1.24933644 0.00304198 1.83768573
v -1.25769838 -0.00358258 1.83058513
v -1.24933644 -0.00106205 1.83747792
v -1.26708457 0.03606761 1.85503890
v -1.25963419 0.16403381 1.84462305
v -1.25992189 0.18141916 1.84433605
v -1.26049729 0.21615742 1.84375217
v -1.26078976 0.23354276 1.84346023
v -1.26108719 0.25089569 1.84317323
v -1.26138463 0.26828103 1.84288130
v -1.26198426 0.30305161 1.84229246
v -1.26234031 0.32040464 1.84195104
v -1.26240846 0.32324839 1.84188177
v -1.27335493 0.32324839 1.84654787
v -1.27543201 0.32324839 1.84742865
v -1.27543201 0.32040464 1.84753255
v -1.27543201 0.30305161 1.84802738
v -1.27543201 0.23354276 1.84964047
v -1.27543201 0.14668078 1.85144655
v -1.28999141 0.14668078 1.84414803
v -1.28982550 0.12932786 1.84422224
v -1.28964509 0.11194252 1.84427668
v -1.28867967 0.02508064 1.84446470
v -1.28843588 0.00769530 1.84443996
v -1.28690003 -0.00374414 1.84213907
v -1.29096656 0.32324839 1.84316334
v -1.29097133 0.32040464 1.84319303
v -1.29093715 0.30305161 1.84334642
v -1.29082509 0.26828103 1.84359878
v -1.29076668 0.25089569 1.84371258
v -1.29067389 0.23354276 1.84379175
v -1.29055686 0.21615742 1.84385608
v -1.29043010 0.19877208 1.84392041
v -1.29028884 0.18141916 1.84399464
v -1.27543201 -0.00684639 1.82893245
v -1.24933644 0.00304198 1.83747792
v -1.25636738 0.30305161 1.82893245
v -1.25685972 0.32040464 1.82893245
v -1.26324712 -0.00338871 1.81808115
v -1.26134569 0.00769530 1.81682927
v -1.25200839 0.00837385 1.83058513
v -1.25248126 0.02508064 1.82893245
v -1.25242761 0.04243357 1.82893245
v -1.27543201 0.26828103 1.84886360
v -1.27543201 0.25089569 1.84926935
v -1.25697199 0.32324839 1.82893245
v -1.29014240 0.16403381 1.84406885
v -1.29914333 0.32324839 1.82883349
v -1.28966456 0.00769530 1.82893245
v -1.29873384 0.30305161 1.82893245
v -1.29797803 0.26828103 1.82893245
v -1.29758304 0.25089569 1.82893245
v -1.29715884 0.23354276 1.82893245
v -1.29669571 0.21615742 1.82893245
v -1.29621786 0.19877208 1.82893245
v -1.29572055 0.18141916 1.82893245
v -1.29520853 0.16403381 1.82893245
v -1.29467704 0.14668078 1.82893245
v -1.29412608 0.12932786 1.82893245
v -1.29353598 0.11194252 1.82893245
v -1.29291687 0.09455718 1.82893245
v -1.29228783 0.07720425 1.82893245
v -1.29165402 0.05981891 1.82893245
v -1.29101524 0.04243357 1.82893245
v -1.29037169 0.02508064 1.82893245
v -1.28670015 -0.00361489 1.82893245
v -1.28477407 -0.00174059 1.81962003
v -1.27543201 -0.00335640 1.81815538
v -1.25243258 0.05981891 1.82893245
v -1.25248126 0.07720425 1.82893245
v -1.25255437 0.09455718 1.82893245
v -1.25264696 0.11194252 1.82893245
v -1.25283731 0.12932786 1.82893245
v -1.25313454 0.14668078 1.82893245
v -1.25347588 0.16403381 1.82893245
v -1.25382696 0.18141916 1.82893245
v -1.25418778 0.19877208 1.82893245
v -1.26131151 0.32324839 1.81315774
v -1.25762527 0.32324839 1.82634952
v -1.27543201 0.00769530 1.81566150
v -1.26108222 0.02508064 1.81651753
v -1.27543201 0.02508064 1.81489949
v -1.27543201 0.04243357 1.81419190
v -1.27543201 0.05981891 1.81351400
v -1.27543201 0.11194252 1.81150999
v -1.27543201 0.12932786 1.81086179
v -1.27543201 0.14668078 1.81025811
v -1.27543201 0.18141916 1.80907552
v -1.27543201 0.19877208 1.80849163
v -1.27543201 0.21615742 1.80791271
v -1.27543201 0.23354276 1.80733870
v -1.27543201 0.25089569 1.80677462
v -1.27543201 0.26828103 1.80622537
v -1.27543201 0.28566637 1.80569098
v -1.27543201 0.30305161 1.80517143
v -1.26089705 0.04243357 1.81625034
v -1.26076532 0.05981891 1.81601282
v -1.26066300 0.07720425 1.81579015
v -1.26058015 0.09455718 1.81555760
v -1.26050703 0.11194252 1.81532007
v -1.26048735 0.12932786 1.81509741
v -1.26052650 0.14668078 1.81489949
v -1.26058491 0.16403381 1.81470651
v -1.26065326 0.18141916 1.81451353
v -1.26106772 0.28566637 1.81338040
v -1.26112613 0.30305161 1.81321711
v -1.29252685 0.32324839 1.81205430
v -1.28534471 0.00769530 1.81908068
v -1.29025943 0.21615742 1.81403355
v -1.28990835 0.19877208 1.81441951
v -1.28955250 0.18141916 1.81481042
v -1.28918195 0.16403381 1.81520133
v -1.28880643 0.14668078 1.81560213
v -1.28841641 0.12932786 1.81600787
v -1.28800692 0.11194252 1.81643341
v -1.28758272 0.09455718 1.81686886
v -1.28714879 0.07720425 1.81730924
v -1.28626125 0.04243357 1.81819001
v -1.28580785 0.02508064 1.81863040
v -1.26126760 0.32040464 1.81314784
v -1.26359343 0.32324839 1.81175246
v -1.27543201 0.32040464 1.80482009
v -1.29060078 0.23354276 1.81365256
v -1.29093715 0.25089569 1.81327649
v -1.29126876 0.26828103 1.81291033
v -1.29159064 0.28566637 1.81254911
v -1.29191251 0.30305161 1.81219780
v -1.29216107 0.32040464 1.81192070
v -1.26073114 0.19877208 1.81431561
v -1.26094573 0.25089569 1.81374162
v -1.26100911 0.26828103 1.81355853
v -1.27543201 0.32324839 1.80479536
v -1.26087758 0.23354276 1.81392965
f 1 2 10
f 1 10 3
f 1 3 14
f 1 14 4
f 1 4 5
f 1 5 6
f 1 6 7
f 1 7 8
f 1 8 2
f 2 9 22
f 2 22 10
f 2 8 11
f 2 11 9
f 3 12 13
f 3 13 14
f 3 10 15
f 3 15 16
f 3 16 12
f 4 14 17
f 4 17 18
f 4 18 5
f 5 19 6
f 5 18 20
f 5 20 21
f 5 21 54
f 5 54 19
f 6 19 7
f 7 19 8
f 8 19 11
f 9 11 23
f 9 23 24
f 9 24 25
f 9 25 26
f 9 26 27
f 9 27 28
f 9 28 29
f 9 29 30
f 9 30 31
f 9 31 32
f 9 32 33
f 9 33 34
f 9 34 35
f 9 35 22
f 10 22 36
f 10 36 37
f 10 37 15
f 11 19 23
f 12 16 13
f 13 38 39
f 13 39 40
f 13 40 41
f 13 41 42
f 13 42 43
f 13 43 14
f 13 16 44
f 13 44 45
f 13 45 46
f 13 46 47
f 13 47 48
f 13 48 49
f 13 49 50
f 13 50 51
f 13 51 52
f 13 52 38
f 14 43 17
f 15 37 44
f 15 44 16
f 17 43 53
f 17 53 18
f 18 53 20
f 19 54 55
f 19 55 56
f 19 56 31
f 19 31 30
f 19 30 29
f 19 29 28
f 19 28 27
f 19 27 26
f 19 26 25
f 19 25 24
f 19 24 23
f 20 53 57
f 20 57 21
f 21 57 58
f 21 58 59
f 21 59 60
f 21 60 61
f 21 61 54
f 22 35 62
f 22 62 63
f 22 63 36
f 31 56 64
f 31 64 97
f 31 97 96
f 31 96 139
f 31 139 150
f 31 150 125
f 31 125 66
f 31 66 44
f 31 44 33
f 31 33 32
f 33 44 34
f 34 44 35
f 35 44 62
f 36 63 44
f 36 44 37
f 38 52 65
f 38 65 66
f 38 66 39
f 39 66 40
f 40 66 41
f 41 66 42
f 42 67 43
f 42 66 68
f 42 68 69
f 42 69 70
f 42 70 71
f 42 71 72
f 42 72 73
f 42 73 74
f 42 74 75
f 42 75 76
f 42 76 77
f 42 77 78
f 42 78 79
f 42 79 80
f 42 80 81
f 42 81 82
f 42 82 83
f 42 83 67
f 43 84 53
f 43 67 84
f 44 63 62
f 44 66 45
f 45 66 46
f 46 66 47
f 47 66 48
f 48 66 49
f 49 66 50
f 50 66 51
f 51 66 52
f 52 66 65
f 53 84 85
f 53 85 86
f 53 86 57
f 54 61 87
f 54 87 88
f 54 88 89
f 54 89 90
f 54 90 91
f 54 91 92
f 54 92 93
f 54 93 94
f 54 94 95
f 54 95 55
f 55 95 96
f 55 96 97
f 55 97 56
f 56 97 64
f 57 98 58
f 57 86 98
f 58 99 60
f 58 60 59
f 58 98 100
f 58 100 101
f 58 101 102
f 58 102 103
f 58 103 104
f 58 104 105
f 58 105 106
f 58 106 107
f 58 107 108
f 58 108 109
f 58 109 110
f 58 110 111
f 58 111 112
f 58 112 113
f 58 113 99
f 60 99 114
f 60 114 115
f 60 115 116
f 60 116 117
f 60 117 118
f 60 118 119
f 60 119 120
f 60 120 121
f 60 121 61
f 61 121 122
f 61 122 123
f 61 123 124
f 61 124 87
f 66 125 69
f 66 69 68
f 67 126 85
f 67 85 84
f 67 83 126
f 69 125 70
f 70 125 71
f 71 125 72
f 72 125 73
f 73 125 74
f 74 125 127
f 74 127 75
f 75 127 128
f 75 128 129
f 75 129 76
f 76 129 130
f 76 130 77
f 77 130 131
f 77 131 132
f 77 132 78
f 78 132 133
f 78 133 134
f 78 134 79
f 79 134 135
f 79 135 80
f 80 135 81
f 81 135 136
f 81 136 82
f 82 136 83
f 83 136 137
f 83 137 126
f 85 126 98
f 85 98 86
f 87 124 88
f 88 124 89
f 89 124 90
f 90 124 138
f 90 138 91
f 91 138 96
f 91 96 92
f 92 96 93
f 93 96 94
f 94 96 95
f 96 138 139
f 98 126 100
f 99 113 140
f 99 140 114
f 100 126 101
f 101 126 102
f 102 126 103
f 103 126 104
f 104 126 137
f 104 137 136
f 104 136 135
f 104 135 134
f 104 134 105
f 105 134 133
f 105 133 106
f 106 133 132
f 106 132 107
f 107 132 108
f 108 132 109
f 109 132 131
f 109 131 110
f 110 131 130
f 110 130 111
f 111 130 129
f 111 129 128
f 111 128 112
f 112 128 127
f 112 127 141
f 112 141 113
f 113 141 142
f 113 142 143
f 113 143 144
f 113 144 145
f 113 145 146
f 113 146 140
f 114 140 115
f 115 118 117
f 115 117 116
f 115 140 118
f 118 140 119
f 119 140 120
f 120 140 121
f 121 140 122
f 122 140 147
f 122 147 123
f 123 147 148
f 123 148 149
f 123 149 150
f 123 150 124
f 124 150 139
f 124 139 138
f 125 150 146
f 125 146 145
f 125 145 144
f 125 144 143
f 125 143 142
f 125 142 141
f 125 141 127
f 140 146 150
f 140 150 147
f 147 151 148
f 147 150 151
f 148 151 150
f 148 150 149

