# https://github.com/mikedh/trimesh
v -4.11585414 0.42534925 3.20825272
v -4.11585414 0.43301607 3.16532826
v -3.96223883 0.42741147 3.16532826
v -4.11239568 0.42528271 3.20825272
v -4.11585414 0.59363627 3.20825272
v -4.11585414 0.59363627 3.16532826
v -3.96223883 0.42476717 3.20789553
v -3.96246439 0.42465077 3.20825272
v -3.96903546 0.42393561 3.20825272
v -3.98595176 0.42375272 3.20825272
v -4.00333425 0.42386912 3.20825272
v -4.10756888 0.42519955 3.20825272
v -3.96223883 0.53630993 3.16532826
v -4.02572395 0.59363627 3.20825272
v -4.05190288 0.59363627 3.16532826
v -3.96223883 0.43732344 3.20825272
v -4.03927204 0.59323714 3.16532826
v -4.03913669 0.59363627 3.16547107
v -3.96223883 0.54795148 3.19251735
v -4.00279292 0.58222754 3.20825272
v -3.96223883 0.55174331 3.20825272
f 1 2 3
f 1 3 4
f 1 4 12
f 1 12 11
f 1 11 10
f 1 10 9
f 1 9 8
f 1 8 16
f 1 16 21
f 1 21 20
f 1 20 14
f 1 14 5
f 1 5 6
f 1 6 2
f 2 6 15
f 2 15 17
f 2 17 13
f 2 13 3
f 3 7 8
f 3 8 9
f 3 9 10
f 3 10 11
f 3 11 12
f 3 12 4
f 3 13 19
f 3 19 21
f 3 21 16
f 3 16 7
f 5 14 18
f 5 18 15
f 5 15 6
f 7 16 8
f 13 17 18
f 13 18 19
f 14 20 18
f 15 18 17
f 18 20 19
f 19 20 21

