# https://github.com/mikedh/trimesh
v -4.67538445 0.61414836 3.49448631
v -4.67526452 0.59902661 3.64777653
v -4.67538445 0.59902661 3.64843281
v -4.67538445 0.63497393 3.49448631
v -4.47118170 0.61975540 3.49448631
v -4.47118170 0.59902661 3.65183509
v -4.67538445 0.59902661 3.66891522
v -4.67538445 0.63480543 3.63592915
v -4.66357125 0.63512808 3.63592915
v -4.64620123 0.63540776 3.63592915
v -4.64372264 0.63533961 3.49448631
v -4.47118170 0.63557983 3.49448631
v -4.47118170 0.59902661 3.67090137
v -4.67538445 0.60399906 3.66782718
v -4.66357125 0.59902661 3.66991689
v -4.67538445 0.62926653 3.65421829
v -4.66357125 0.63066112 3.65330300
v -4.64620123 0.63122399 3.65330300
v -4.62881123 0.63149642 3.65330300
v -4.61144112 0.63165419 3.65330300
v -4.62881123 0.63555471 3.63592915
v -4.62635263 0.63549377 3.49448631
v -4.47118170 0.63564792 3.63592915
v -4.59407110 0.63557983 3.49448631
v -4.59407110 0.59902661 3.67090137
v -4.47118170 0.61580822 3.66729186
v -4.67538445 0.61651090 3.66501222
v -4.66357125 0.61580822 3.66622112
v -4.64620123 0.59902661 3.67045232
v -4.64620123 0.61580822 3.66677373
v -4.67538445 0.62549148 3.66085010
v -4.67426513 0.62479237 3.66223164
v -4.66357125 0.62519752 3.66254254
v -4.64620123 0.62554166 3.66280165
v -4.62881123 0.62571016 3.66293981
v -4.61144112 0.62582490 3.66302608
v -4.61144112 0.63563358 3.63592915
v -4.59407110 0.62585354 3.66306067
v -4.59407110 0.63169003 3.65330300
v -4.60896263 0.63556906 3.49448631
v -4.47118170 0.63198042 3.65204232
v -4.59407110 0.63564792 3.63592915
v -4.59407110 0.61580822 3.66729186
v -4.61144112 0.59902661 3.67086678
v -4.47118170 0.62585354 3.66306067
v -4.67538445 0.62335476 3.66262891
v -4.64560160 0.59902661 3.67046961
v -4.62881123 0.61580822 3.66705004
v -4.67538445 0.62464542 3.66212807
v -4.61144112 0.61580822 3.66724008
v -4.47118170 0.63169003 3.65330300
v -4.62881123 0.59902661 3.67072863
f 1 2 3
f 1 3 7
f 1 7 14
f 1 14 27
f 1 27 46
f 1 46 49
f 1 49 31
f 1 31 16
f 1 16 8
f 1 8 4
f 1 4 11
f 1 11 22
f 1 22 40
f 1 40 24
f 1 24 12
f 1 12 5
f 1 5 6
f 1 6 2
f 2 6 13
f 2 13 25
f 2 25 44
f 2 44 52
f 2 52 47
f 2 47 29
f 2 29 15
f 2 15 7
f 2 7 3
f 4 8 9
f 4 9 10
f 4 10 11
f 5 12 23
f 5 23 41
f 5 41 51
f 5 51 45
f 5 45 26
f 5 26 13
f 5 13 6
f 7 15 14
f 8 16 17
f 8 17 18
f 8 18 9
f 9 18 10
f 10 18 19
f 10 19 20
f 10 20 21
f 10 21 22
f 10 22 11
f 12 24 42
f 12 42 23
f 13 26 43
f 13 43 25
f 14 15 28
f 14 28 27
f 15 29 30
f 15 30 28
f 16 31 32
f 16 32 17
f 17 33 18
f 17 32 33
f 18 33 34
f 18 34 19
f 19 35 36
f 19 36 20
f 19 34 35
f 20 37 21
f 20 36 38
f 20 38 39
f 20 39 37
f 21 37 22
f 22 37 40
f 23 42 41
f 24 40 42
f 25 43 44
f 26 45 38
f 26 38 43
f 27 32 46
f 27 28 32
f 28 33 32
f 28 30 33
f 29 47 30
f 30 47 48
f 30 48 34
f 30 34 33
f 31 49 32
f 32 49 46
f 34 48 35
f 35 48 50
f 35 50 36
f 36 50 43
f 36 43 38
f 37 39 42
f 37 42 40
f 38 45 51
f 38 51 39
f 39 51 41
f 39 41 42
f 43 50 44
f 44 50 52
f 47 52 48
f 48 52 50

