# https://github.com/mikedh/trimesh
v -3.96223158 0.86104126 3.36370162
v -3.89907404 0.86099605 3.36370162
v -3.95119407 0.86027292 3.35793571
v -3.96223158 0.86027292 3.35793571
v -3.96223158 0.39936284 3.36370162
v -3.88815982 0.86095087 3.36370162
v -3.89907404 0.86022774 3.35793571
v -3.96223158 0.85570811 3.34056228
v -3.96223158 0.40239094 3.30835801
v -3.88815982 0.39931764 3.36370162
v -3.88815982 0.86018253 3.35793571
v -3.91644980 0.85566291 3.34056228
v -3.96223158 0.85421664 3.33652164
v -3.96223158 0.40388247 3.29239201
v -3.88815982 0.40939640 3.20909656
v -3.88815982 0.85543693 3.34056228
v -3.89907404 0.85557252 3.34056228
v -3.91644980 0.85155006 3.32952995
v -3.95119407 0.85159526 3.32948449
v -3.96223158 0.85159526 3.32945425
v -3.96223158 0.40442483 3.28842697
v -3.88815982 0.71207482 3.20909656
v -3.96223158 0.40605187 3.27748536
v -3.96223158 0.40731736 3.27066010
v -3.96223158 0.42444670 3.20909656
v -3.88815982 0.85136929 3.32998387
v -3.89907404 0.85150488 3.32971150
v -3.91644980 0.84694008 3.32084323
v -3.93381831 0.84698526 3.32082811
v -3.96223158 0.84703046 3.32076753
v -3.88819607 0.71465102 3.20909656
v -3.88815982 0.71474138 3.20926298
v -3.96223158 0.55217092 3.20909656
v -3.88815982 0.84639771 3.32129726
v -3.89907404 0.84671410 3.32102478
v -3.91644980 0.83826242 3.30861526
v -3.95119407 0.83830760 3.30828230
v -3.96223158 0.83835281 3.30822172
v -3.96223158 0.66791821 3.23620083
v -3.96223158 0.68549950 3.24049883
v -3.96223158 0.69842559 3.24378283
v -3.96223158 0.70276445 3.24499349
v -3.96223158 0.70651568 3.24609821
v -3.96223158 0.72002934 3.25013895
v -3.96223158 0.73742986 3.25587462
v -3.96223158 0.74696621 3.25905268
v -3.96223158 0.76020869 3.26347164
v -3.96223158 0.77214047 3.26763345
v -3.96223158 0.78954098 3.27456455
v -3.96223158 0.79961975 3.27908956
v -3.96223158 0.80513364 3.28205573
v -3.96223158 0.80829735 3.28376588
v -3.96223158 0.82144945 3.29243737
v -3.93381831 0.82108788 3.29277033
v -3.91644980 0.82081670 3.29299734
v -3.91644980 0.82949436 3.29992855
v -3.89907404 0.82859045 3.30044305
v -3.88815982 0.82759614 3.30097278
v -3.94731427 0.58525450 3.20909656
v -3.96223158 0.59280227 3.21802540
v -3.88815982 0.83772006 3.30965949
v -3.89907404 0.83803645 3.30912977
v -3.93381831 0.82976554 3.29976212
v -3.95119407 0.82999151 3.29959559
v -3.96223158 0.83012711 3.29953511
f 1 2 3
f 1 3 4
f 1 4 8
f 1 8 13
f 1 13 20
f 1 20 30
f 1 30 38
f 1 38 65
f 1 65 53
f 1 53 52
f 1 52 51
f 1 51 50
f 1 50 49
f 1 49 48
f 1 48 47
f 1 47 46
f 1 46 45
f 1 45 44
f 1 44 43
f 1 43 42
f 1 42 41
f 1 41 40
f 1 40 39
f 1 39 60
f 1 60 33
f 1 33 25
f 1 25 24
f 1 24 23
f 1 23 21
f 1 21 14
f 1 14 9
f 1 9 5
f 1 5 10
f 1 10 6
f 1 6 2
f 2 6 11
f 2 11 7
f 2 7 3
f 3 7 8
f 3 8 4
f 5 9 10
f 6 10 15
f 6 15 22
f 6 22 32
f 6 32 58
f 6 58 61
f 6 61 34
f 6 34 26
f 6 26 16
f 6 16 11
f 7 11 12
f 7 12 8
f 8 12 13
f 9 14 15
f 9 15 10
f 11 16 17
f 11 17 12
f 12 17 18
f 12 18 19
f 12 19 13
f 13 19 20
f 14 21 15
f 15 21 23
f 15 23 24
f 15 24 25
f 15 25 33
f 15 33 59
f 15 59 31
f 15 31 22
f 16 26 27
f 16 27 17
f 17 27 18
f 18 27 28
f 18 28 29
f 18 29 30
f 18 30 19
f 19 30 20
f 22 31 32
f 26 34 35
f 26 35 27
f 27 35 28
f 28 35 36
f 28 36 37
f 28 37 38
f 28 38 29
f 29 38 30
f 31 39 40
f 31 40 41
f 31 41 42
f 31 42 43
f 31 43 44
f 31 44 45
f 31 45 46
f 31 46 47
f 31 47 48
f 31 48 49
f 31 49 50
f 31 50 51
f 31 51 52
f 31 52 53
f 31 53 54
f 31 54 55
f 31 55 56
f 31 56 57
f 31 57 58
f 31 58 32
f 31 59 60
f 31 60 39
f 33 60 59
f 34 61 62
f 34 62 35
f 35 62 36
f 36 62 56
f 36 56 63
f 36 63 64
f 36 64 65
f 36 65 37
f 37 65 38
f 53 65 64
f 53 64 63
f 53 63 54
f 54 63 56
f 54 56 55
f 56 62 61
f 56 61 57
f 57 61 58

