# https://github.com/mikedh/trimesh
v -2.61846689 2.07363010 3.61223191
v -2.61402116 2.07363010 3.60224796
v -2.62478805 2.07363010 3.61223191
v -2.61846689 0.02508582 3.61223191
v -2.61354782 2.07363010 3.60116862
v -2.61359038 0.02508582 3.60116862
v -2.62517274 2.07363010 3.61118250
v -2.62478805 0.02508582 3.61223191
v -2.61849526 0.00779079 3.61223191
v -2.61229812 2.07363010 3.58548814
v -2.61366309 0.00779079 3.60116862
v -2.61225027 0.02508582 3.58380917
v -2.62876050 2.07363010 3.60116862
v -2.62876050 0.02508582 3.60116862
v -2.62476501 0.00779079 3.61223191
v -2.61968288 -0.00278969 3.61142246
v -2.61216871 2.07363010 3.58380917
v -2.61787129 -0.00441751 3.60116862
v -2.61234068 0.00779079 3.58380917
v -2.61222371 0.02508582 3.30596735
v -2.61211911 2.07363010 3.30596735
v -2.62887576 2.07363010 3.59948964
v -2.62994641 0.02508582 3.58380917
v -2.62869318 0.00779079 3.60116862
v -2.62382729 -0.00278969 3.61142246
v -2.62531452 -0.00441751 3.60116862
v -2.61721718 -0.00502791 3.58380917
v -2.61236196 0.00758728 3.30596735
v -2.61234068 0.00779079 3.32320697
v -2.63022825 2.07363010 3.30596735
v -2.62994641 2.07363010 3.58380917
v -2.63022825 0.02508582 3.30596735
v -2.62985957 0.00779079 3.58380917
v -2.62588707 -0.00502791 3.58380917
v -2.61720833 -0.00502791 3.30596735
v -2.63013432 0.00779079 3.30596735
v -2.62594558 -0.00502791 3.30596735
f 1 2 5
f 1 5 10
f 1 10 17
f 1 17 21
f 1 21 30
f 1 30 31
f 1 31 22
f 1 22 13
f 1 13 7
f 1 7 3
f 1 3 8
f 1 8 15
f 1 15 9
f 1 9 4
f 1 4 2
f 2 4 6
f 2 6 5
f 3 7 8
f 4 9 6
f 5 6 10
f 6 9 11
f 6 11 12
f 6 12 10
f 7 13 14
f 7 14 8
f 8 14 15
f 9 15 25
f 9 25 16
f 9 16 11
f 10 12 17
f 11 16 18
f 11 18 19
f 11 19 12
f 12 19 20
f 12 20 21
f 12 21 17
f 13 22 14
f 14 23 24
f 14 24 15
f 14 22 23
f 15 24 25
f 16 25 26
f 16 26 18
f 18 26 34
f 18 34 27
f 18 27 19
f 19 27 28
f 19 28 29
f 19 29 20
f 20 29 28
f 20 28 35
f 20 35 37
f 20 37 36
f 20 36 32
f 20 32 30
f 20 30 21
f 22 31 23
f 23 32 33
f 23 33 24
f 23 31 30
f 23 30 32
f 24 33 26
f 24 26 25
f 26 33 34
f 27 34 37
f 27 37 35
f 27 35 28
f 32 36 33
f 33 36 34
f 34 36 37

