# https://github.com/mikedh/trimesh
v -3.68764963 0.59684758 3.36371022
v -3.68769152 0.59684758 3.39269562
v -3.69360157 0.38688088 3.39269562
v -3.69360157 0.38688088 3.36371022
v -4.11585414 0.59684758 3.36371022
v -3.68773347 0.59684758 3.41005891
v -3.69364348 0.38688088 3.39575769
v -3.71984044 0.38688088 3.36371022
v -4.11585414 0.39849545 3.36371022
v -4.11585414 0.59684758 3.44297621
v -3.69008069 0.59684758 3.42615229
v -3.69385305 0.38688088 3.41005891
v -4.11585414 0.38688088 3.40827564
v -4.11585414 0.38688088 3.43882683
v -3.86436363 0.49416660 3.45014427
v -3.81435893 0.59684758 3.45254529
v -3.69058370 0.59684758 3.42768327
v -3.69913435 0.38688088 3.43626052
v -3.69653560 0.38688088 3.42743099
v -3.84696886 0.38688088 3.43883553
v -3.86436363 0.47681668 3.44912655
v -3.84696886 0.49416660 3.45016167
v -3.84696886 0.51153703 3.45064013
v -3.81163443 0.59684758 3.45257139
v -3.69682903 0.59684758 3.43752193
v -3.70797843 0.59684758 3.43980105
v -3.70068522 0.38688088 3.43653890
v -3.77747364 0.38688088 3.43883553
v -3.76007887 0.38688088 3.43881813
v -3.74578584 0.38688088 3.43878333
v -3.74272605 0.38688088 3.43877463
v -3.72839107 0.38688088 3.43871374
v -3.72533128 0.38688088 3.43869634
v -3.84696886 0.47681668 3.44889167
v -3.79872460 0.59684758 3.45193634
v -3.77747364 0.59684758 3.44957011
v -3.70797843 0.38688088 3.43752193
v -3.71103825 0.38688088 3.43778291
v -3.79600015 0.59684758 3.45171885
f 1 2 3
f 1 3 4
f 1 4 8
f 1 8 9
f 1 9 5
f 1 5 10
f 1 10 16
f 1 16 24
f 1 24 35
f 1 35 39
f 1 39 36
f 1 36 26
f 1 26 25
f 1 25 17
f 1 17 11
f 1 11 6
f 1 6 2
f 2 6 3
f 3 6 7
f 3 7 12
f 3 12 19
f 3 19 18
f 3 18 27
f 3 27 37
f 3 37 38
f 3 38 33
f 3 33 32
f 3 32 31
f 3 31 30
f 3 30 29
f 3 29 28
f 3 28 20
f 3 20 14
f 3 14 13
f 3 13 8
f 3 8 4
f 5 9 13
f 5 13 14
f 5 14 10
f 6 11 12
f 6 12 7
f 8 13 9
f 10 14 15
f 10 15 16
f 11 17 18
f 11 18 19
f 11 19 12
f 14 20 21
f 14 21 15
f 15 21 22
f 15 22 23
f 15 23 16
f 16 23 24
f 17 25 18
f 18 25 26
f 18 26 27
f 20 28 21
f 21 28 29
f 21 29 30
f 21 30 31
f 21 31 32
f 21 32 33
f 21 33 34
f 21 34 22
f 22 35 24
f 22 24 23
f 22 34 33
f 22 33 35
f 26 36 27
f 27 36 37
f 33 38 35
f 35 38 39
f 36 39 37
f 37 39 38

