# https://github.com/mikedh/trimesh
v -3.71446849 0.12942283 4.27760981
v -3.45660985 0.12942283 4.27760981
v -3.71446849 0.12942283 4.29460379
v -3.71446849 0.40730048 4.27614149
v -3.62105279 0.40730048 4.27602467
v -3.45660985 0.12942283 4.29460379
v -3.45660985 0.52893314 4.27760981
v -3.71446849 0.38711965 4.30514926
v -3.71446849 0.44203036 4.27664336
v -3.65580918 0.52889400 4.27669742
v -3.62110328 0.52893314 4.27619575
v -3.62105279 0.52889400 4.27619575
v -3.45660985 0.52893314 4.29460379
v -3.60058260 0.42466542 4.30514926
v -3.60073406 0.40730048 4.30514926
v -3.60547930 0.39173465 4.30514926
v -3.62105279 0.38719789 4.30514926
v -3.63844359 0.38711965 4.30514926
v -3.71446849 0.46142898 4.30514926
v -3.71446849 0.44695823 4.27869599
v -3.66865667 0.52889400 4.28224242
v -3.65583442 0.52893314 4.27670881
v -3.61890734 0.52893314 4.30514926
v -3.60058260 0.52889400 4.30514926
v -3.67476491 0.52889400 4.30514926
v -3.71446849 0.46095963 4.30271469
v -3.71446849 0.45513226 4.28211131
v -3.66865667 0.52893314 4.28227660
v -3.66333091 0.52893314 4.30514926
v -3.67287187 0.52893314 4.29619183
v -3.71446849 0.45681398 4.28739969
v -3.71446849 0.45959083 4.29619183
f 1 2 6
f 1 6 3
f 1 3 8
f 1 8 19
f 1 19 26
f 1 26 32
f 1 32 31
f 1 31 27
f 1 27 20
f 1 20 9
f 1 9 4
f 1 4 5
f 1 5 2
f 2 5 7
f 2 7 13
f 2 13 6
f 3 6 18
f 3 18 8
f 4 9 10
f 4 10 11
f 4 11 5
f 5 11 12
f 5 12 7
f 6 13 24
f 6 24 14
f 6 14 15
f 6 15 16
f 6 16 17
f 6 17 18
f 7 12 11
f 7 11 22
f 7 22 28
f 7 28 30
f 7 30 29
f 7 29 23
f 7 23 13
f 8 18 17
f 8 17 16
f 8 16 15
f 8 15 14
f 8 14 24
f 8 24 23
f 8 23 29
f 8 29 25
f 8 25 19
f 9 20 21
f 9 21 22
f 9 22 10
f 10 22 11
f 13 23 24
f 19 25 26
f 20 27 21
f 21 28 22
f 21 27 28
f 25 29 30
f 25 30 27
f 25 27 31
f 25 31 32
f 25 32 26
f 27 30 28

