# https://github.com/mikedh/trimesh
v -3.13457178 0.67239403 2.58134066
v -3.15287169 0.66666276 2.58134066
v -3.12733165 0.66928852 2.58134066
v -3.12385675 0.66067901 2.56448603
v -3.13457178 0.66224437 2.56126007
v -3.14894314 0.64449506 2.52725866
v -3.14810845 0.66178988 2.56207822
v -3.15311664 0.66449139 2.57591723
v -3.15968538 0.65775023 2.57004973
v -3.16110982 0.66007306 2.58134066
v -3.11943829 0.66492067 2.58134066
v -3.12074477 0.66378447 2.57604586
v -3.13457178 0.65785120 2.55257563
v -3.12430133 0.64308121 2.53018071
v -3.13457178 0.64037964 2.51811833
v -3.13457178 0.63437067 2.50655855
v -3.14965083 0.61005687 2.46193244
v -3.15193718 0.62656906 2.49394683
v -3.16074691 0.62462496 2.49758191
v -3.16052916 0.64169257 2.53279890
v -3.16181750 0.64388911 2.54439379
v -3.16250704 0.64664116 2.55866523
v -3.16120962 0.65969432 2.58134066
v -3.11629001 0.66027501 2.58134066
v -3.12224179 0.62821013 2.50655855
v -3.12473683 0.62540765 2.49617930
v -3.13457178 0.62717501 2.49289488
v -3.13457178 0.62240311 2.48419874
v -3.13457178 0.61538418 2.47180910
v -3.13457178 0.60970340 2.46193244
v -3.15889604 0.60599199 2.46193244
v -3.16016625 0.60657267 2.46377919
v -3.16189916 0.60929945 2.47537402
v -3.16167234 0.62626603 2.50655855
v -3.16278829 0.63040672 2.52392748
v -3.16328730 0.63479989 2.53967170
v -3.16478431 0.63315877 2.55866523
v -3.16207154 0.65449325 2.58134066
v -3.11091889 0.65158974 2.58134066
v -3.12069941 0.61611638 2.48990266
v -3.12346663 0.60977916 2.47180910
v -3.12578927 0.60717862 2.46300777
v -3.12925509 0.60780984 2.46193244
v -3.16296068 0.59723097 2.46193244
v -3.16245260 0.61535896 2.49076763
v -3.16418551 0.61578818 2.50655855
v -3.16534683 0.61578818 2.52392748
v -3.16382259 0.63843555 2.58134066
v -3.16248889 0.65111003 2.58134066
v -3.17451947 0.53148532 2.46193244
v -3.17479166 0.52893532 2.46193244
v -3.10921320 0.64510101 2.58134066
v -3.11260644 0.59841760 2.48918968
v -3.11510147 0.61578818 2.50655855
v -3.11707935 0.59841760 2.47180910
v -3.12526305 0.60576477 2.46193244
v -3.12038186 0.59813989 2.46193244
v -3.16429438 0.58983331 2.46193244
v -3.16401312 0.63315877 2.58134066
v -3.17517271 0.51338259 2.46193244
v -3.10799744 0.64045540 2.58134066
v -3.08250277 0.45677669 2.46197920
v -3.11086446 0.57950692 2.47328183
v -3.11325061 0.58041580 2.46193244
v -3.16420366 0.62106496 2.58134066
v -3.17519086 0.51156474 2.46193244
v -3.16427624 0.61578818 2.58134066
v -3.10663652 0.63293150 2.58134066
v -3.08250277 0.45758464 2.57604586
v -3.08250277 0.44051704 2.46193244
v -3.17510920 0.49419415 2.46193244
v -3.16443047 0.49419415 2.58134066
v -3.16443047 0.58629858 2.58134066
v -3.16441234 0.59841760 2.58134066
v -3.16437604 0.60369443 2.58134066
v -3.08250277 0.45760991 2.58134066
v -3.08250277 0.44044128 2.48913122
v -3.14253773 0.41446119 2.58134066
v -3.14550454 0.41446119 2.46193244
v -3.16424902 0.47682357 2.58134066
v -3.17409304 0.41446119 2.46193244
v -3.09455150 0.43950714 2.58134066
v -3.08250277 0.44069377 2.58130560
v -3.08250277 0.44046655 2.50651179
v -3.16341432 0.41446119 2.58134066
f 1 2 10
f 1 10 23
f 1 23 38
f 1 38 49
f 1 49 48
f 1 48 59
f 1 59 65
f 1 65 67
f 1 67 75
f 1 75 74
f 1 74 73
f 1 73 72
f 1 72 80
f 1 80 85
f 1 85 78
f 1 78 82
f 1 82 76
f 1 76 68
f 1 68 61
f 1 61 52
f 1 52 39
f 1 39 24
f 1 24 11
f 1 11 3
f 1 3 4
f 1 4 5
f 1 5 6
f 1 6 7
f 1 7 2
f 2 7 8
f 2 8 9
f 2 9 10
f 3 11 12
f 3 12 4
f 4 13 5
f 4 12 14
f 4 14 15
f 4 15 13
f 5 13 6
f 6 13 15
f 6 15 16
f 6 16 17
f 6 17 18
f 6 18 19
f 6 19 7
f 7 19 20
f 7 20 8
f 8 20 9
f 9 20 10
f 10 20 21
f 10 21 22
f 10 22 23
f 11 24 25
f 11 25 12
f 12 25 26
f 12 26 14
f 14 16 15
f 14 26 16
f 16 26 27
f 16 27 17
f 17 28 29
f 17 29 30
f 17 30 43
f 17 43 56
f 17 56 57
f 17 57 64
f 17 64 70
f 17 70 79
f 17 79 81
f 17 81 71
f 17 71 66
f 17 66 60
f 17 60 51
f 17 51 50
f 17 50 58
f 17 58 44
f 17 44 31
f 17 31 32
f 17 32 18
f 17 27 28
f 18 32 19
f 19 32 33
f 19 33 34
f 19 34 21
f 19 21 20
f 21 34 35
f 21 35 36
f 21 36 22
f 22 36 37
f 22 37 23
f 23 37 38
f 24 39 25
f 25 40 41
f 25 41 26
f 25 39 40
f 26 28 27
f 26 41 42
f 26 42 28
f 28 42 29
f 29 42 43
f 29 43 30
f 31 44 32
f 32 44 33
f 33 45 34
f 33 44 45
f 34 45 35
f 35 45 46
f 35 46 36
f 36 46 47
f 36 47 37
f 37 48 49
f 37 49 38
f 37 47 50
f 37 50 51
f 37 51 48
f 39 52 53
f 39 53 54
f 39 54 40
f 40 54 55
f 40 55 41
f 41 56 42
f 41 55 57
f 41 57 56
f 42 56 43
f 44 58 46
f 44 46 45
f 46 58 50
f 46 50 47
f 48 51 59
f 51 60 59
f 52 61 53
f 53 62 63
f 53 63 64
f 53 64 55
f 53 55 54
f 53 61 62
f 55 64 57
f 59 60 65
f 60 66 67
f 60 67 65
f 61 68 62
f 62 69 76
f 62 76 83
f 62 83 84
f 62 84 77
f 62 77 70
f 62 70 64
f 62 64 63
f 62 68 69
f 66 71 72
f 66 72 73
f 66 73 74
f 66 74 75
f 66 75 67
f 68 76 69
f 70 77 78
f 70 78 79
f 71 80 72
f 71 81 80
f 76 82 83
f 77 84 78
f 78 85 81
f 78 81 79
f 78 84 83
f 78 83 82
f 80 81 85

