# https://github.com/mikedh/trimesh
v -2.32441957 0.37255341 1.69272471
v -2.32441957 0.38989256 1.68998809
v -2.42325186 0.37255341 1.77117486
v -2.42325186 0.36512759 1.76907505
v -2.32441957 0.35862710 1.68752682
v -2.42325186 0.38992462 1.76823168
v -2.32441957 0.39633806 1.68664904
v -2.42325186 0.35848967 1.76311985
v -2.40925315 0.36037246 1.75456573
v -2.32441957 0.35665266 1.68110694
v -2.42174268 0.35768798 1.75998736
v -2.41155568 0.39941649 1.75241429
v -2.42325186 0.39998454 1.75910958
v -2.32441957 0.39984711 1.68379193
v -2.42325186 0.35767421 1.75986687
v -2.32441957 0.35449045 1.67257002
v -2.33532245 0.35374376 1.67257002
v -2.42300030 0.40001203 1.75869649
v -2.42325186 0.40001203 1.75871371
v -2.32441957 0.40017240 1.67257002
v -2.33532245 0.40053886 1.67257002
v -2.42325186 0.35773376 1.74157102
v -2.42274880 0.35762843 1.74136449
v -2.32441957 0.35630914 1.66561655
v -2.35269743 0.35543868 1.60306988
v -2.35200086 0.35657022 1.59535912
v -2.34528693 0.35935091 1.59535912
v -2.34220084 0.36110082 1.59535912
v -2.42325186 0.40002581 1.74453141
v -2.32441957 0.39905919 1.66112435
v -2.34377780 0.39880722 1.59535912
v -2.34325532 0.39921035 1.60306988
v -2.35265870 0.39990666 1.59535912
v -2.35269743 0.40014490 1.60306988
v -2.42325186 0.36721191 1.73327508
v -2.36574801 0.35878742 1.59535912
v -2.35890835 0.35668932 1.59535912
v -2.32441957 0.35966243 1.65799185
v -2.34032406 0.37287871 1.59535912
v -2.32441957 0.36774329 1.65332753
v -2.42325186 0.39992499 1.74375689
v -2.36299084 0.39966846 1.59535912
v -2.32441957 0.38992462 1.65513474
v -2.34330369 0.39715347 1.59535912
v -2.42325186 0.37255341 1.73172602
v -2.37012078 0.37255341 1.59535912
v -2.34091416 0.38007089 1.59535912
v -2.32441957 0.37255341 1.65158916
v -2.42325186 0.38992462 1.73489295
v -2.36535136 0.39528901 1.59535912
v -2.36736361 0.38992462 1.59535912
v -2.34186229 0.38911382 1.59535912
v -2.36882448 0.38223310 1.59535912
f 1 2 3
f 1 3 4
f 1 4 5
f 1 5 10
f 1 10 16
f 1 16 24
f 1 24 38
f 1 38 40
f 1 40 48
f 1 48 43
f 1 43 30
f 1 30 20
f 1 20 14
f 1 14 7
f 1 7 2
f 2 6 3
f 2 7 6
f 3 6 13
f 3 13 19
f 3 19 29
f 3 29 41
f 3 41 49
f 3 49 45
f 3 45 35
f 3 35 22
f 3 22 15
f 3 15 8
f 3 8 4
f 4 8 9
f 4 9 5
f 5 9 8
f 5 8 11
f 5 11 10
f 6 12 13
f 6 7 12
f 7 14 12
f 8 15 11
f 10 11 16
f 11 15 17
f 11 17 16
f 12 14 13
f 13 14 18
f 13 18 19
f 14 20 21
f 14 21 18
f 15 22 23
f 15 23 17
f 16 17 25
f 16 25 26
f 16 26 27
f 16 27 28
f 16 28 24
f 17 23 25
f 18 21 19
f 19 21 29
f 20 30 31
f 20 31 32
f 20 32 33
f 20 33 34
f 20 34 21
f 21 34 29
f 22 35 36
f 22 36 37
f 22 37 23
f 23 37 25
f 24 28 38
f 25 37 26
f 26 37 36
f 26 36 46
f 26 46 53
f 26 53 51
f 26 51 50
f 26 50 42
f 26 42 33
f 26 33 31
f 26 31 44
f 26 44 52
f 26 52 47
f 26 47 39
f 26 39 28
f 26 28 27
f 28 39 40
f 28 40 38
f 29 34 42
f 29 42 41
f 30 43 44
f 30 44 31
f 31 33 32
f 33 42 34
f 35 45 46
f 35 46 36
f 39 47 43
f 39 43 48
f 39 48 40
f 41 42 50
f 41 50 51
f 41 51 49
f 43 47 52
f 43 52 44
f 45 49 46
f 46 49 53
f 49 51 53

