# https://github.com/mikedh/trimesh
v -1.79653760 0.47323669 2.46193244
v -1.79653760 0.47213918 2.45442355
v -1.79653760 0.43795948 2.46193244
v -1.70890966 0.45731403 2.46193244
v -1.34604940 0.47002254 2.46192625
v -1.79653760 0.46773171 2.43705155
v -1.34604940 0.46643385 2.44191497
v -1.79653760 0.39191620 2.43281385
v -1.34604940 0.43818597 2.46192625
v -1.70890966 0.44072069 2.46193244
v -1.79653760 0.46012750 2.41968573
v -1.34604940 0.46503150 2.43705155
v -1.34604940 0.46002300 2.42044156
v -1.79653760 0.38542695 2.41969191
v -1.76191864 0.38454718 2.41969191
v -1.74454293 0.38425104 2.41969191
v -1.39711790 0.38425974 2.41968573
v -1.34604940 0.39151551 2.43179162
v -1.34604940 0.39192490 2.43243594
v -1.72716732 0.45291527 2.40814979
v -1.74454293 0.45288917 2.40814979
v -1.79653760 0.45287172 2.40891803
v -1.41449361 0.45291527 2.40814360
v -1.50132783 0.45299367 2.40810024
v -1.51870354 0.45300237 2.40810024
v -1.64028898 0.45299367 2.40810024
v -1.34604940 0.45289787 2.40895521
v -1.39711790 0.45288917 2.40814360
v -1.79653760 0.39207299 2.40604336
v -1.76191864 0.39171586 2.40502729
v -1.74454293 0.39157651 2.40477949
v -1.39711790 0.39156781 2.40477949
v -1.37969807 0.38452108 2.41968573
v -1.34604940 0.38541825 2.41968573
v -1.74454293 0.44205340 2.40157645
v -1.79653760 0.44189661 2.40347223
v -1.76191864 0.44205340 2.40195435
v -1.39711790 0.44204465 2.40157645
v -1.51870354 0.44204465 2.40153927
v -1.64028898 0.44204465 2.40154546
v -1.34604940 0.44204465 2.40344127
v -1.37969807 0.44204465 2.40192957
v -1.79653760 0.40718558 2.40092591
v -1.76191864 0.40731622 2.39959390
v -1.74454293 0.40731622 2.39919120
v -1.62291327 0.40731622 2.39901151
v -1.51870354 0.40731622 2.39901151
v -1.39711790 0.40731622 2.39919738
v -1.37969807 0.39171586 2.40502111
v -1.34604940 0.39211654 2.40588845
v -1.34604940 0.38582764 2.41881217
v -1.74454293 0.42468479 2.39883804
v -1.76191864 0.42468479 2.39915402
v -1.62291327 0.42468479 2.39864598
v -1.64028898 0.42468479 2.39867076
v -1.79653760 0.42454544 2.40048603
v -1.39711790 0.42468479 2.39884426
v -1.50132783 0.42468479 2.39866457
v -1.51870354 0.42468479 2.39863980
v -1.37969807 0.42468479 2.39914783
v -1.34604940 0.42576491 2.40060994
v -1.34604940 0.42468479 2.40043028
v -1.37969807 0.40731622 2.39958769
v -1.34604940 0.39306596 2.40556629
v -1.34604940 0.40837889 2.40080200
v -1.34604940 0.40731622 2.40083299
f 1 2 6
f 1 6 11
f 1 11 22
f 1 22 36
f 1 36 56
f 1 56 43
f 1 43 29
f 1 29 14
f 1 14 8
f 1 8 3
f 1 3 10
f 1 10 4
f 1 4 5
f 1 5 2
f 2 5 7
f 2 7 6
f 3 8 9
f 3 9 10
f 4 10 9
f 4 9 5
f 5 9 19
f 5 19 18
f 5 18 34
f 5 34 51
f 5 51 50
f 5 50 64
f 5 64 66
f 5 66 65
f 5 65 62
f 5 62 61
f 5 61 41
f 5 41 27
f 5 27 13
f 5 13 12
f 5 12 7
f 6 7 12
f 6 12 13
f 6 13 11
f 8 14 15
f 8 15 16
f 8 16 17
f 8 17 18
f 8 18 19
f 8 19 9
f 11 20 21
f 11 21 22
f 11 13 23
f 11 23 24
f 11 24 25
f 11 25 26
f 11 26 20
f 13 27 28
f 13 28 23
f 14 29 15
f 15 29 30
f 15 30 16
f 16 30 31
f 16 31 32
f 16 32 17
f 17 32 33
f 17 33 18
f 18 33 34
f 20 26 21
f 21 35 22
f 21 26 35
f 22 35 37
f 22 37 36
f 23 28 24
f 24 28 38
f 24 38 39
f 24 39 25
f 25 39 26
f 26 39 40
f 26 40 35
f 27 41 42
f 27 42 38
f 27 38 28
f 29 43 44
f 29 44 30
f 30 44 45
f 30 45 31
f 31 45 46
f 31 46 32
f 32 46 47
f 32 47 48
f 32 48 49
f 32 49 33
f 33 49 50
f 33 50 51
f 33 51 34
f 35 52 53
f 35 53 37
f 35 40 54
f 35 54 55
f 35 55 52
f 36 37 56
f 37 53 56
f 38 57 58
f 38 58 59
f 38 59 39
f 38 42 60
f 38 60 57
f 39 59 40
f 40 59 54
f 41 61 42
f 42 61 62
f 42 62 60
f 43 56 44
f 44 56 53
f 44 53 45
f 45 53 52
f 45 52 55
f 45 55 46
f 46 55 54
f 46 54 59
f 46 59 47
f 47 59 58
f 47 58 48
f 48 57 60
f 48 60 63
f 48 63 49
f 48 58 57
f 49 63 50
f 50 63 64
f 60 62 65
f 60 65 63
f 63 65 66
f 63 66 64

