# https://github.com/mikedh/trimesh
v -3.10813276 0.47477466 2.45558305
v -3.10813276 0.45762167 2.41362764
v -3.10813276 0.47075634 2.46193244
v -2.70121868 0.45706403 2.46193244
v -2.70121868 0.45706403 2.43705527
v -2.70121868 0.45608157 2.42071417
v -2.70121868 0.45601964 2.41968588
v -2.70121868 0.45285101 2.40821985
v -2.71758925 0.45293070 2.40812693
v -2.94343133 0.45300148 2.40810215
v -3.04766923 0.45293070 2.40812693
v -3.10813276 0.45347058 2.40895081
v -2.82182715 0.45300148 2.40810215
v -3.10813276 0.43739739 2.46193244
v -2.70121868 0.44066337 2.46193244
v -2.70121868 0.44205294 2.40171561
v -2.71758925 0.44205294 2.40157932
v -2.94343133 0.44205294 2.40154217
v -3.04766923 0.44205294 2.40157932
v -3.10813276 0.44804498 2.40597744
v -3.06503556 0.44205294 2.40174039
v -2.82182715 0.44205294 2.40154217
v -3.10813276 0.39050540 2.43303506
v -2.70121868 0.39137280 2.43001214
v -2.70121868 0.42571421 2.39913869
v -2.71758925 0.42467868 2.39885995
v -2.82182715 0.42467868 2.39864932
v -2.94343133 0.42467868 2.39865551
v -3.04766923 0.42467868 2.39885995
v -3.06503556 0.42467868 2.39900242
v -3.10813276 0.44205294 2.40347485
v -3.08244174 0.44205294 2.40237223
v -3.08244174 0.42467868 2.39951035
v -3.10813276 0.38554890 2.41968588
v -3.06503556 0.38437174 2.41968588
v -2.70121868 0.38435403 2.41968588
v -2.70121868 0.42467868 2.39897762
v -2.71758925 0.40730437 2.39921921
v -2.82182715 0.40730437 2.39902718
v -2.94343133 0.40730437 2.39902718
v -3.04766923 0.40730437 2.39921921
v -3.06503556 0.40730437 2.39939887
v -3.10813276 0.43298966 2.40188287
v -3.10813276 0.42467868 2.40047052
v -3.10813276 0.40730437 2.40084837
v -3.10813276 0.39214280 2.40589689
v -3.06503556 0.39162063 2.40489957
v -3.04766923 0.39154979 2.40480668
v -2.70121868 0.38477885 2.41880626
v -2.70121868 0.40833995 2.39934310
v -2.70121868 0.40730437 2.39936790
v -2.70121868 0.39254110 2.40455269
v -2.70121868 0.39161177 2.40488101
v -2.71758925 0.39154979 2.40480668
f 1 2 12
f 1 12 20
f 1 20 31
f 1 31 43
f 1 43 44
f 1 44 45
f 1 45 46
f 1 46 34
f 1 34 23
f 1 23 14
f 1 14 3
f 1 3 4
f 1 4 5
f 1 5 6
f 1 6 7
f 1 7 8
f 1 8 9
f 1 9 2
f 2 10 11
f 2 11 12
f 2 9 13
f 2 13 10
f 3 14 15
f 3 15 4
f 4 15 24
f 4 24 36
f 4 36 49
f 4 49 53
f 4 53 52
f 4 52 51
f 4 51 50
f 4 50 37
f 4 37 25
f 4 25 16
f 4 16 8
f 4 8 7
f 4 7 6
f 4 6 5
f 8 16 9
f 9 16 17
f 9 17 13
f 10 18 19
f 10 19 11
f 10 13 22
f 10 22 18
f 11 19 12
f 12 19 21
f 12 21 20
f 13 17 22
f 14 23 15
f 15 23 24
f 16 25 17
f 17 25 26
f 17 26 27
f 17 27 22
f 18 28 19
f 18 22 27
f 18 27 28
f 19 29 30
f 19 30 21
f 19 28 29
f 20 21 32
f 20 32 31
f 21 30 33
f 21 33 32
f 23 34 35
f 23 35 36
f 23 36 24
f 25 37 26
f 26 37 38
f 26 38 27
f 27 38 39
f 27 39 40
f 27 40 28
f 28 40 41
f 28 41 29
f 29 41 30
f 30 41 42
f 30 42 33
f 31 32 43
f 32 33 44
f 32 44 43
f 33 45 44
f 33 42 45
f 34 46 35
f 35 46 47
f 35 47 48
f 35 48 36
f 36 48 49
f 37 50 38
f 38 50 51
f 38 51 52
f 38 52 53
f 38 53 54
f 38 54 39
f 39 54 48
f 39 48 40
f 40 48 41
f 41 48 47
f 41 47 42
f 42 47 46
f 42 46 45
f 48 54 49
f 49 54 53

