# https://github.com/mikedh/trimesh
v -4.36819423 0.94219452 3.32318667
v -4.36819423 0.93973211 3.33430538
v -4.35786064 0.93849701 3.33309006
v -4.35521314 0.93946800 3.32318667
v -4.35463546 0.93866012 3.30581500
v -4.35709044 0.93742502 3.29599530
v -4.36726350 0.93932039 3.30506644
v -4.37849560 0.93881550 3.31035938
v -4.37923370 0.93997290 3.32318667
v -4.37839929 0.93931263 3.33390023
v -4.36819423 0.92855409 3.33536659
v -4.35667328 0.92855409 3.33364039
v -4.28231704 0.86285323 3.32132843
v -4.28137036 0.86285323 3.32093209
v -4.24732110 0.86285323 3.30620689
v -4.24273199 0.86285323 3.30363530
v -4.23385875 0.86285323 3.29854928
v -4.23722830 0.86837621 3.29752773
v -4.25455782 0.88563647 3.29768618
v -4.25131659 0.88755514 3.29038536
v -4.26877443 0.89832144 3.29038536
v -4.27419785 0.90161503 3.29038536
v -4.34593860 0.93622102 3.30581500
v -4.31899774 0.92477112 3.29038536
v -4.33485096 0.93201082 3.29038536
v -4.35083260 0.93568502 3.29038536
v -4.35192375 0.93589477 3.29038536
v -4.36086130 0.93742502 3.29599530
v -4.37875234 0.92343504 3.29038536
v -4.37923370 0.92431282 3.29234043
v -4.38131968 0.92948624 3.30506644
v -4.37244635 0.93589477 3.29877826
v -4.38637411 0.91117732 3.30581500
v -4.38199357 0.92855409 3.32318667
v -4.37822282 0.92855409 3.33360083
v -4.36158334 0.90056637 3.33280381
v -4.35638444 0.90056637 3.33280381
v -4.35556608 0.91117732 3.33342467
v -4.29871583 0.86285323 3.32476747
v -4.22488910 0.86285323 3.29202343
v -4.22384611 0.86387859 3.29038536
v -4.23230229 0.87144451 3.29038536
v -4.35243722 0.93589477 3.29038536
v -4.36655751 0.93221277 3.29038536
v -4.36934948 0.93142045 3.29038536
v -4.38061359 0.91971423 3.29038536
v -4.38252309 0.91541859 3.29038536
v -4.38337356 0.91224928 3.29038536
v -4.38679126 0.89575803 3.29038536
v -4.38244283 0.87542170 3.29038536
v -4.38244283 0.89388597 3.30578414
v -4.38042106 0.91252893 3.32318222
v -4.37714772 0.91921708 3.33214763
v -4.35205206 0.86285323 3.32168510
v -4.33343898 0.86285323 3.32463097
v -4.31606140 0.86285323 3.32540594
v -4.22286733 0.86285323 3.29038536
v -4.38213794 0.87461382 3.29038536
v -4.37928186 0.86285323 3.29046893
v -4.37912134 0.89973519 3.31738731
v -4.37316839 0.90763516 3.32897278
v -4.37541479 0.86285323 3.29555940
v -4.37339302 0.86285323 3.29038536
v -4.37730825 0.86285323 3.29306704
f 1 2 3
f 1 3 4
f 1 4 5
f 1 5 6
f 1 6 7
f 1 7 8
f 1 8 9
f 1 9 10
f 1 10 2
f 2 10 11
f 2 11 3
f 3 11 12
f 3 12 13
f 3 13 14
f 3 14 15
f 3 15 16
f 3 16 17
f 3 17 18
f 3 18 19
f 3 19 20
f 3 20 21
f 3 21 22
f 3 22 4
f 4 23 5
f 4 22 24
f 4 24 23
f 5 23 25
f 5 25 26
f 5 26 27
f 5 27 6
f 6 28 7
f 6 27 43
f 6 43 28
f 7 28 8
f 8 29 30
f 8 30 31
f 8 31 9
f 8 28 32
f 8 32 29
f 9 31 33
f 9 33 34
f 9 34 10
f 10 34 35
f 10 35 11
f 11 36 37
f 11 37 38
f 11 38 12
f 11 35 36
f 12 38 39
f 12 39 13
f 13 39 56
f 13 56 55
f 13 55 54
f 13 54 62
f 13 62 64
f 13 64 59
f 13 59 63
f 13 63 57
f 13 57 40
f 13 40 17
f 13 17 16
f 13 16 15
f 13 15 14
f 17 40 18
f 18 40 41
f 18 41 19
f 19 41 42
f 19 42 20
f 20 42 41
f 20 41 57
f 20 57 63
f 20 63 58
f 20 58 50
f 20 50 49
f 20 49 48
f 20 48 47
f 20 47 46
f 20 46 29
f 20 29 45
f 20 45 44
f 20 44 43
f 20 43 27
f 20 27 26
f 20 26 25
f 20 25 24
f 20 24 22
f 20 22 21
f 23 24 25
f 28 43 44
f 28 44 45
f 28 45 32
f 29 46 30
f 29 32 45
f 30 46 31
f 31 47 33
f 31 46 47
f 33 47 48
f 33 48 49
f 33 49 50
f 33 50 51
f 33 51 52
f 33 52 34
f 34 52 35
f 35 52 53
f 35 53 36
f 36 54 55
f 36 55 56
f 36 56 37
f 36 53 54
f 37 56 39
f 37 39 38
f 40 57 41
f 50 58 59
f 50 59 51
f 51 59 60
f 51 60 52
f 52 60 53
f 53 61 54
f 53 60 61
f 54 61 60
f 54 60 62
f 58 63 59
f 59 64 60
f 60 64 62

