# https://github.com/mikedh/trimesh
v -3.79481911 0.63902172 1.73529462
v -3.77740399 0.63902172 1.73529462
v -3.81217597 0.63902172 1.73554498
v -3.74267085 0.80691121 1.75423950
v -3.74267085 0.78953783 1.75223653
v -3.72533346 0.80691121 1.75423950
v -3.72533346 0.78953783 1.75240345
v -3.76004713 0.63902172 1.73579538
v -3.82578154 0.63902172 1.73596227
v -3.76004713 0.80691121 1.75507409
v -3.76004713 0.82428453 1.75791166
v -3.74267085 0.82428453 1.75716054
v -3.72533346 0.82428453 1.75741091
v -3.70797665 0.80691121 1.75540793
v -3.70797665 0.78953783 1.75390569
v -3.69060037 0.78953783 1.75582522
v -3.67322409 0.78953783 1.75949735
v -3.65584784 0.78953783 1.76458826
v -3.64618785 0.78953783 1.76759274
v -3.64665436 0.77630311 1.76784311
v -3.69246628 0.63902172 1.75941388
v -3.82578154 0.80904876 1.75924699
v -3.82578154 0.63902172 2.18070833
v -3.82578154 0.82057794 1.76300257
v -3.76026094 0.84286314 1.76433789
v -3.74267085 0.84165791 1.76258528
v -3.72533346 0.84165791 1.76325293
v -3.70797665 0.82428453 1.75891315
v -3.69060037 0.80691121 1.75741091
v -3.67322409 0.80691121 1.76099960
v -3.64638224 0.79945244 1.76775966
v -3.63886028 0.78953783 1.77685654
v -3.64749012 0.76470574 1.76834387
v -3.69128065 0.63902172 1.75991464
v -3.66910355 0.63902172 2.18070833
v -3.82241904 0.64297847 2.58773147
v -3.82578154 0.83840609 2.18070833
v -3.82578154 0.84068009 1.77927683
v -3.77742341 0.84772949 1.76984611
v -3.75462433 0.85139062 1.76759274
v -3.74267085 0.85168624 1.76734238
v -3.72533346 0.85111776 1.76767619
v -3.71540141 0.85057200 1.76801003
v -3.70894846 0.84243107 1.76533938
v -3.69060037 0.82428453 1.76158380
v -3.67334073 0.82467114 1.76550630
v -3.66233965 0.81914531 1.76709199
v -3.65075545 0.81102714 1.77043031
v -3.64430253 0.81896338 1.78203092
v -3.64187295 0.80591062 1.77643926
v -3.63116340 0.78953783 1.78962558
v -3.64195070 0.77116392 1.77527085
v -3.64335013 0.75481385 1.77919335
v -3.67522608 0.63902172 1.77877607
v -3.67600353 0.63902172 1.77769114
v -3.66900638 0.63902172 2.00269307
v -3.63015272 0.76563807 2.55860480
v -3.63359298 0.75483658 2.55860480
v -3.67042523 0.64297847 2.55860480
v -3.67093059 0.64297847 2.56903698
v -3.67137763 0.64297847 2.57596394
v -3.67312692 0.64297847 2.58230675
v -3.67374890 0.64297847 2.58447667
v -3.67491508 0.64297847 2.58773147
v -3.82241904 0.83506331 2.58773147
v -3.82241904 0.83601840 2.58698037
v -3.82241904 0.83665511 2.58581197
v -3.82241904 0.84058914 2.57596394
v -3.82241904 0.87133362 2.40228850
v -3.82578154 0.84711551 1.84629336
v -3.79479969 0.85255038 1.78211439
v -3.77742341 0.85537013 1.77852571
v -3.82578154 0.84431849 1.79429921
v -3.79479969 0.85721209 1.79429921
v -3.76026094 0.85605233 1.77552122
v -3.74267085 0.85823538 1.77685654
v -3.70381722 0.84873007 1.76967919
v -3.69060037 0.83692800 1.76642434
v -3.72533346 0.85671180 1.77685654
v -3.70894846 0.85364189 1.77602198
v -3.67921056 0.83404003 1.76759274
v -3.66762637 0.83071998 1.76951227
v -3.66150386 0.83542716 1.78111288
v -3.64980306 0.83065176 1.79429921
v -3.64167859 0.82198780 1.79429921
v -3.63273778 0.80668378 1.79371500
v -3.62881160 0.80074865 1.79913975
v -3.62852004 0.78953783 1.79830518
v -3.62906427 0.77650780 1.80055855
v -3.63197974 0.77130031 1.79454957
v -3.63656679 0.75481385 1.79429921
v -3.67104721 0.63902172 1.79429921
v -3.66898694 0.63902172 1.95061547
v -3.62869496 0.77434752 2.55860480
v -3.62879216 0.77491598 2.57596394
v -3.63032764 0.76622931 2.57596394
v -3.63015272 0.76563807 2.18070833
v -3.62978342 0.76782109 2.18070833
v -3.63404004 0.75483658 2.57596394
v -3.64612955 0.72613867 2.58614580
v -3.64496337 0.73250587 2.58773147
v -3.82138889 0.83635949 2.58773147
v -3.80591741 0.85195913 2.58714726
v -3.81656862 0.84645607 2.57596394
v -3.75192266 0.86776345 1.80264497
v -3.76088294 0.86710398 1.81165840
v -3.77742341 0.86503462 1.81165840
v -3.79479969 0.85971347 1.81165840
v -3.82578154 0.84702456 1.81140803
v -3.82578154 0.84718374 1.82901762
v -3.80788046 0.85314163 2.57596394
v -3.79481911 0.85957705 2.57596394
v -3.77742341 0.86464807 2.57596394
v -3.75868661 0.86701302 2.57554668
v -3.75196155 0.86776345 2.56945424
v -3.75038717 0.86776345 2.56945424
v -3.74966803 0.86778618 2.55860480
v -3.74949311 0.86780894 2.54124556
v -3.74119372 0.86739960 1.81165840
v -3.74988183 0.86778618 1.81165840
v -3.75038717 0.86776345 1.80264497
v -3.77742341 0.86271516 1.79429921
v -3.75864772 0.86560313 1.79580145
v -3.74381761 0.86587602 1.79580145
v -3.69474035 0.85232298 1.78127980
v -3.67334073 0.83817869 1.77593850
v -3.72533346 0.86360202 1.79429921
v -3.70797665 0.86039569 1.79429921
v -3.68315618 0.84973060 1.78762259
v -3.67371001 0.84686538 1.79371500
v -3.65849120 0.83776938 1.79429921
v -3.64832588 0.83199340 1.81165840
v -3.64049296 0.82330674 1.81165840
v -3.63180482 0.81068605 1.81165840
v -3.62832568 0.80199933 1.81165840
v -3.62725667 0.78953783 1.81165840
v -3.62869496 0.77434752 1.81165840
v -3.63015272 0.76566080 1.81165840
v -3.66916186 0.63902172 1.81165840
v -3.66898694 0.63902172 1.82901762
v -3.62723725 0.78951509 2.55860480
v -3.62758709 0.78574025 2.18070833
v -3.62745103 0.78951509 2.57596394
v -3.62920033 0.77728096 2.58564507
v -3.63114398 0.77548449 2.58773147
v -3.80651994 0.85075391 2.58773147
v -3.80457626 0.85216380 2.58773147
v -3.79378901 0.85564303 2.58773147
v -3.77742341 0.86057760 2.58773147
v -3.75961957 0.86339736 2.58773147
v -3.74383708 0.86730862 2.57554668
v -3.74304016 0.86394311 2.58773147
v -3.74097991 0.86737687 2.55860480
v -3.74080494 0.86737687 2.54124556
v -3.74119372 0.86739960 2.18070833
v -3.72533346 0.86567136 1.81165840
v -3.68960911 0.85416491 1.79371500
v -3.70797665 0.86251051 1.81165840
v -3.69060037 0.85693920 1.81165840
v -3.67983254 0.85127693 1.79922322
v -3.67011425 0.84757031 1.81165840
v -3.65701401 0.83888365 1.81165840
v -3.65699457 0.83888365 2.18070833
v -3.64832588 0.83199340 2.55860480
v -3.64243662 0.82546702 2.18070833
v -3.64049296 0.82330674 2.55860480
v -3.63178538 0.81068605 2.18070833
v -3.62832568 0.80199933 2.55860480
v -3.62805357 0.79888398 2.18070833
v -3.62723725 0.78951509 2.18070833
v -3.62842287 0.80172644 2.57596394
v -3.62896708 0.80036204 2.58614580
v -3.62873385 0.78951509 2.58647964
v -3.62964736 0.78951509 2.58773147
v -3.72531404 0.86526205 2.57596394
v -3.72531404 0.86567136 2.55860480
v -3.73707313 0.86332913 2.58773147
v -3.72531404 0.86567136 2.18070833
v -3.70795720 0.86251051 2.18070833
v -3.67880239 0.85170900 1.81165840
v -3.69491530 0.85832633 2.18070833
v -3.69060037 0.85693920 2.18070833
v -3.68173731 0.85302791 2.18070833
v -3.67011425 0.84757031 2.55860480
v -3.65699457 0.83888365 2.55860480
v -3.64853968 0.83178876 2.57596394
v -3.64072619 0.82310207 2.57596394
v -3.63178538 0.81068605 2.55860480
v -3.63203805 0.81041316 2.57596394
v -3.64265043 0.82091902 2.58773147
v -3.63083298 0.80188562 2.58773147
v -3.63003611 0.79842918 2.58773147
v -3.70795720 0.86201022 2.57596394
v -3.70795720 0.86251051 2.55860480
v -3.72531404 0.86185105 2.58773147
v -3.67880239 0.85170900 2.55860480
v -3.69060037 0.85691647 2.55860480
v -3.67905506 0.85159529 2.57596394
v -3.67036692 0.84734291 2.57596394
v -3.65722782 0.83863349 2.57596394
v -3.65975457 0.83667785 2.58773147
v -3.71971632 0.86078224 2.58773147
v -3.70716031 0.85800798 2.58773147
v -3.69060037 0.85377833 2.58773147
v -3.68465278 0.85202736 2.58773147
v -3.68018238 0.85111776 2.58614580
v -3.69060037 0.85657536 2.57596394
v -3.67858859 0.84929856 2.58773147
v -3.68152350 0.85073118 2.58773147
f 1 2 8
f 1 8 21
f 1 21 34
f 1 34 55
f 1 55 54
f 1 54 92
f 1 92 139
f 1 139 140
f 1 140 93
f 1 93 56
f 1 56 35
f 1 35 23
f 1 23 9
f 1 9 3
f 1 3 4
f 1 4 5
f 1 5 2
f 2 5 6
f 2 6 7
f 2 7 8
f 3 9 4
f 4 9 10
f 4 10 11
f 4 11 12
f 4 12 6
f 4 6 5
f 6 12 13
f 6 13 14
f 6 14 7
f 7 14 8
f 8 14 15
f 8 15 16
f 8 16 17
f 8 17 18
f 8 18 19
f 8 19 20
f 8 20 21
f 9 22 10
f 9 23 37
f 9 37 70
f 9 70 110
f 9 110 109
f 9 109 73
f 9 73 38
f 9 38 24
f 9 24 22
f 10 22 11
f 11 22 24
f 11 24 25
f 11 25 26
f 11 26 12
f 12 26 13
f 13 26 27
f 13 27 28
f 13 28 14
f 14 28 29
f 14 29 16
f 14 16 15
f 16 29 30
f 16 30 17
f 17 30 31
f 17 31 18
f 18 31 19
f 19 31 32
f 19 32 20
f 20 32 33
f 20 33 21
f 21 33 34
f 23 35 64
f 23 64 36
f 23 36 65
f 23 65 37
f 24 38 39
f 24 39 40
f 24 40 25
f 25 40 26
f 26 40 41
f 26 41 42
f 26 42 27
f 27 42 43
f 27 43 44
f 27 44 28
f 28 44 45
f 28 45 29
f 29 45 30
f 30 45 46
f 30 46 47
f 30 47 31
f 31 47 48
f 31 48 49
f 31 49 50
f 31 50 32
f 32 50 51
f 32 51 52
f 32 52 33
f 33 52 53
f 33 53 54
f 33 54 55
f 33 55 34
f 35 56 57
f 35 57 58
f 35 58 59
f 35 59 60
f 35 60 61
f 35 61 62
f 35 62 63
f 35 63 64
f 36 64 101
f 36 101 145
f 36 145 174
f 36 174 192
f 36 192 191
f 36 191 190
f 36 190 201
f 36 201 208
f 36 208 209
f 36 209 205
f 36 205 204
f 36 204 203
f 36 203 202
f 36 202 195
f 36 195 177
f 36 177 152
f 36 152 150
f 36 150 149
f 36 149 148
f 36 148 147
f 36 147 146
f 36 146 102
f 36 102 65
f 37 65 66
f 37 66 67
f 37 67 68
f 37 68 69
f 37 69 70
f 38 71 72
f 38 72 39
f 38 73 74
f 38 74 71
f 39 72 40
f 40 72 75
f 40 75 76
f 40 76 41
f 41 76 42
f 42 76 43
f 43 77 78
f 43 78 44
f 43 76 79
f 43 79 80
f 43 80 77
f 44 78 45
f 45 78 81
f 45 81 46
f 46 81 82
f 46 82 47
f 47 82 48
f 48 82 49
f 49 83 84
f 49 84 85
f 49 85 86
f 49 86 50
f 49 82 83
f 50 86 51
f 51 86 87
f 51 87 88
f 51 88 89
f 51 89 90
f 51 90 52
f 52 90 53
f 53 90 91
f 53 91 54
f 54 91 92
f 56 93 57
f 57 94 95
f 57 95 96
f 57 96 58
f 57 93 140
f 57 140 97
f 57 97 98
f 57 98 94
f 58 96 99
f 58 99 59
f 59 99 60
f 60 99 61
f 61 99 100
f 61 100 62
f 62 100 63
f 63 100 64
f 64 100 101
f 65 102 66
f 66 103 67
f 66 102 103
f 67 103 104
f 67 104 68
f 68 104 69
f 69 105 106
f 69 106 107
f 69 107 108
f 69 108 109
f 69 109 110
f 69 110 70
f 69 104 111
f 69 111 112
f 69 112 113
f 69 113 114
f 69 114 115
f 69 115 116
f 69 116 117
f 69 117 118
f 69 118 119
f 69 119 120
f 69 120 121
f 69 121 105
f 71 74 122
f 71 122 72
f 72 122 75
f 73 109 74
f 74 109 108
f 74 108 122
f 75 122 123
f 75 123 76
f 76 123 124
f 76 124 79
f 77 82 81
f 77 81 78
f 77 80 125
f 77 125 126
f 77 126 82
f 79 124 127
f 79 127 80
f 80 127 128
f 80 128 125
f 82 126 83
f 83 126 125
f 83 125 129
f 83 129 130
f 83 130 131
f 83 131 84
f 84 131 132
f 84 132 85
f 85 132 133
f 85 133 134
f 85 134 86
f 86 134 87
f 87 134 135
f 87 135 136
f 87 136 88
f 88 136 89
f 89 136 137
f 89 137 138
f 89 138 91
f 89 91 90
f 91 138 92
f 92 138 139
f 94 141 95
f 94 98 137
f 94 137 142
f 94 142 141
f 95 143 144
f 95 144 96
f 95 141 143
f 96 144 99
f 97 140 138
f 97 138 98
f 98 138 137
f 99 144 100
f 100 144 101
f 101 144 145
f 102 146 103
f 103 146 147
f 103 147 148
f 103 148 112
f 103 112 111
f 103 111 104
f 105 121 124
f 105 124 123
f 105 123 122
f 105 122 107
f 105 107 106
f 107 122 108
f 112 148 149
f 112 149 113
f 113 149 150
f 113 150 114
f 114 151 115
f 114 150 152
f 114 152 151
f 115 151 116
f 116 151 153
f 116 153 117
f 117 153 118
f 118 154 155
f 118 155 119
f 118 153 154
f 119 156 121
f 119 121 120
f 119 155 154
f 119 154 156
f 121 127 124
f 121 156 127
f 125 128 157
f 125 157 129
f 127 156 158
f 127 158 128
f 128 158 159
f 128 159 157
f 129 157 160
f 129 160 130
f 130 160 161
f 130 161 131
f 131 161 162
f 131 162 132
f 132 162 163
f 132 163 185
f 132 185 164
f 132 164 165
f 132 165 133
f 133 165 166
f 133 166 188
f 133 188 167
f 133 167 134
f 134 167 135
f 135 167 188
f 135 188 168
f 135 168 169
f 135 169 170
f 135 170 136
f 136 170 142
f 136 142 137
f 138 140 139
f 141 168 171
f 141 171 143
f 141 142 170
f 141 170 169
f 141 169 168
f 143 171 172
f 143 172 173
f 143 173 144
f 144 173 174
f 144 174 145
f 151 175 176
f 151 176 153
f 151 152 177
f 151 177 175
f 153 176 154
f 154 178 156
f 154 176 178
f 156 178 179
f 156 179 158
f 157 159 160
f 158 179 159
f 159 180 160
f 159 179 181
f 159 181 182
f 159 182 183
f 159 183 180
f 160 180 161
f 161 180 196
f 161 196 184
f 161 184 185
f 161 185 163
f 161 163 162
f 164 185 186
f 164 186 166
f 164 166 165
f 166 186 187
f 166 187 188
f 168 188 171
f 171 189 172
f 171 188 189
f 172 190 191
f 172 191 192
f 172 192 173
f 172 189 190
f 173 192 174
f 175 193 194
f 175 194 176
f 175 177 195
f 175 195 193
f 176 194 179
f 176 179 178
f 179 194 181
f 180 183 196
f 181 194 182
f 182 194 197
f 182 197 183
f 183 197 196
f 184 196 198
f 184 198 199
f 184 199 185
f 185 199 200
f 185 200 186
f 186 200 201
f 186 201 190
f 186 190 187
f 187 189 188
f 187 190 189
f 193 195 202
f 193 202 203
f 193 203 204
f 193 204 205
f 193 205 206
f 193 206 207
f 193 207 194
f 194 207 197
f 196 197 198
f 197 207 198
f 198 207 206
f 198 206 199
f 199 206 200
f 200 206 201
f 201 206 208
f 205 209 206
f 206 209 208

