# https://github.com/mikedh/trimesh
v -3.96471690 0.12945524 4.27761043
v -3.71446849 0.12945524 4.27761043
v -3.96471690 0.12945524 4.29460275
v -3.96471690 0.40728640 4.27613942
v -3.71446849 0.12945524 4.29460275
v -3.71446849 0.40728640 4.27613942
v -3.96471690 0.38713487 4.30514926
v -3.96471690 0.44203155 4.27664481
v -3.71446849 0.38713487 4.30514926
v -3.71446849 0.44203155 4.27664481
v -3.96471690 0.46143551 4.30514926
v -3.96471690 0.45223734 4.28089858
v -3.71446849 0.46143551 4.30514926
v -3.71446849 0.45513003 4.28211111
v -3.71446849 0.46094798 4.30271282
v -3.71446849 0.46029796 4.29955517
v -3.96471690 0.45958285 4.29619308
v -3.96471690 0.45513003 4.28211111
v -3.71446849 0.45682019 4.28739865
v -3.71446849 0.45958285 4.29619308
v -3.96471690 0.45860780 4.29306649
f 1 2 5
f 1 5 3
f 1 3 7
f 1 7 11
f 1 11 17
f 1 17 21
f 1 21 18
f 1 18 12
f 1 12 8
f 1 8 4
f 1 4 6
f 1 6 2
f 2 6 10
f 2 10 14
f 2 14 19
f 2 19 20
f 2 20 16
f 2 16 15
f 2 15 13
f 2 13 9
f 2 9 5
f 3 5 9
f 3 9 7
f 4 8 10
f 4 10 6
f 7 9 13
f 7 13 11
f 8 12 10
f 10 12 14
f 11 13 15
f 11 15 16
f 11 16 17
f 12 18 14
f 14 18 19
f 16 20 17
f 17 20 21
f 18 21 19
f 19 21 20

