# https://github.com/mikedh/trimesh
v -1.35830761 0.74772492 2.74564653
v -1.35924569 0.74772492 2.74564653
v -1.35180754 0.74690536 2.74564653
v -1.35276758 0.74633167 2.74038736
v -1.35528376 0.74633167 2.74038736
v -1.36686052 0.74537547 2.74220475
v -1.36406845 0.74704196 2.74564653
v -1.33922642 0.74029417 2.74564653
v -1.32924992 0.73458455 2.73242616
v -1.34615711 0.74272559 2.73372889
v -1.33283674 0.73002226 2.70331559
v -1.34493215 0.73554070 2.71505630
v -1.37036988 0.74611310 2.74564653
v -1.34493215 0.72994034 2.70370158
v -1.33940310 0.71316649 2.66822205
v -1.32437207 0.67885397 2.59755252
v -1.32885265 0.66844546 2.58135671
v -1.33155649 0.73368302 2.74564653
v -1.32070819 0.72073383 2.73281219
v -1.32121586 0.72641617 2.71505630
v -1.32990113 0.73234436 2.71505630
v -1.31633801 0.71300260 2.66788428
v -1.32756142 0.71999625 2.68030053
v -1.32756142 0.71393141 2.66627599
v -1.37992695 0.73914679 2.74564653
v -1.33827736 0.66199820 2.58135671
v -1.32756142 0.70958774 2.65760714
v -1.31019088 0.67164174 2.58135671
v -1.31629389 0.67076756 2.58135671
v -1.32580684 0.72021477 2.74564653
v -1.32000189 0.70267605 2.73797489
v -1.31772846 0.71540667 2.72727956
v -1.31591858 0.71772878 2.71505630
v -1.31389909 0.71726435 2.69767039
v -1.31409772 0.71516076 2.68030053
v -1.30194701 0.69360615 2.63785697
v -1.30028067 0.67765191 2.59982020
v -1.31019088 0.68538320 2.61082115
v -1.31019088 0.67907249 2.59697349
v -1.38044580 0.73876433 2.74564653
v -1.34190830 0.65126186 2.58135671
v -1.39063191 0.72005088 2.74564653
v -1.38866752 0.72480435 2.74564653
v -1.38079896 0.73840915 2.74564653
v -1.30290725 0.66844546 2.58135671
v -1.32420657 0.70267605 2.74564653
v -1.31988051 0.68530122 2.73836088
v -1.31687861 0.68530122 2.72967592
v -1.31704432 0.70267605 2.72928994
v -1.31251962 0.70267605 2.71505630
v -1.30758646 0.70267605 2.69767039
v -1.30114149 0.69489014 2.67380294
v -1.30062284 0.69557314 2.66294678
v -1.30067794 0.69516334 2.64943689
v -1.29853707 0.67986475 2.61082115
v -1.29709132 0.66505789 2.58135671
v -1.34516393 0.63844927 2.58135671
v -1.39394264 0.70374147 2.74564653
v -1.32393068 0.68530122 2.74564653
v -1.31977011 0.66792640 2.73868255
v -1.31676842 0.66792640 2.72999759
v -1.31172487 0.66792640 2.71505630
v -1.31195665 0.68530122 2.71505630
v -1.30612974 0.68530122 2.69767039
v -1.30235546 0.68530122 2.68438565
v -1.30074422 0.68530122 2.67570075
v -1.29895629 0.68530122 2.66294678
v -1.29318448 0.66792640 2.62819096
v -1.29315134 0.66792640 2.61082115
v -1.29770939 0.68314301 2.62819096
v -1.29644011 0.66863669 2.59378901
v -1.29066830 0.65055157 2.58135671
v -1.34610180 0.63317674 2.58135671
v -1.39659138 0.68530122 2.74564653
v -1.34791168 0.62107444 2.58135671
v -1.32368793 0.66792640 2.74564653
v -1.31971502 0.65055157 2.73884338
v -1.31670214 0.65055157 2.73014237
v -1.31157035 0.65055157 2.71505630
v -1.30568835 0.65055157 2.69767039
v -1.30588698 0.66792640 2.69767039
v -1.30212369 0.65055157 2.68602615
v -1.30223409 0.66792640 2.68547934
v -1.30045714 0.66792640 2.67679438
v -1.29804038 0.66792640 2.66294678
v -1.29541379 0.66792640 2.64556081
v -1.29232366 0.65055157 2.62819096
v -1.29054692 0.65055157 2.61082115
v -1.29008337 0.65055157 2.59343519
v -1.28874802 0.63317674 2.58135671
v -1.39699963 0.68068430 2.74564653
v -1.34849661 0.61580191 2.58135671
v -1.32357753 0.65055157 2.74564653
v -1.31669116 0.63317674 2.73015842
v -1.31971502 0.49420544 2.73884338
v -1.31153742 0.63317674 2.71505630
v -1.30561109 0.63317674 2.69767039
v -1.30207957 0.63317674 2.68628346
v -1.30026969 0.63317674 2.67759855
v -1.30033576 0.65055157 2.67734120
v -1.29779762 0.65055157 2.66294678
v -1.29504966 0.65055157 2.64556081
v -1.29208091 0.63317674 2.62819096
v -1.29024907 0.63317674 2.61082115
v -1.28934413 0.63317674 2.59343519
v -1.28848331 0.61580191 2.58135671
v -1.39784947 0.66792640 2.74564653
v -1.34922508 0.60372695 2.58135671
v -1.32357753 0.49420544 2.74564653
v -1.31669116 0.49420544 2.73015842
v -1.32365479 0.48341447 2.74564653
v -1.31983639 0.47683061 2.73876296
v -1.31672430 0.47683061 2.73007801
v -1.31153742 0.49420544 2.71505630
v -1.30207957 0.61580191 2.68629956
v -1.30561109 0.49420544 2.69767039
v -1.30026969 0.61580191 2.67761466
v -1.29760997 0.61580191 2.66294678
v -1.29764311 0.63317674 2.66294678
v -1.29485103 0.63317674 2.64556081
v -1.29195953 0.61580191 2.62819096
v -1.29007239 0.61580191 2.61082115
v -1.28911236 0.61580191 2.59343519
v -1.28836194 0.59845442 2.58135671
v -1.34934645 0.59845442 2.58135671
v -1.40107196 0.46863494 2.74564653
v -1.32372107 0.47683061 2.74564653
v -1.32554192 0.46863494 2.74564653
v -1.32472522 0.46863494 2.74418297
v -1.32058682 0.46863494 2.73623787
v -1.31719883 0.46863494 2.72869486
v -1.31161447 0.47683061 2.71505630
v -1.30207957 0.49420544 2.68629956
v -1.30575442 0.47683061 2.69767039
v -1.30026969 0.49420544 2.67761466
v -1.29477377 0.61580191 2.64556081
v -1.29760997 0.49420544 2.66294678
v -1.29194855 0.59845442 2.62819096
v -1.29002828 0.59845442 2.61082115
v -1.28902391 0.59845442 2.59343519
v -1.28835075 0.58107959 2.58135671
v -1.35081416 0.46863494 2.58135671
v -1.31536679 0.46863494 2.72330701
v -1.30217878 0.47683061 2.68607441
v -1.30031381 0.47683061 2.67738946
v -1.30734371 0.46863494 2.69767039
v -1.30544539 0.46863494 2.69152663
v -1.29477377 0.49420544 2.64556081
v -1.29772037 0.47683061 2.66294678
v -1.29194855 0.49420544 2.62819096
v -1.29002828 0.49420544 2.61082115
v -1.28902391 0.49420544 2.59343519
v -1.28835075 0.49420544 2.58135671
v -1.29077870 0.46863494 2.58135671
v -1.30064480 0.46863494 2.67581332
v -1.30000477 0.46863494 2.67229112
v -1.29489515 0.47683061 2.64556081
v -1.29226857 0.47683061 2.62819096
v -1.29056908 0.47683061 2.61082115
v -1.28892470 0.47683061 2.58135671
v -1.29093321 0.46863494 2.58423562
v -1.29011651 0.47153074 2.58135671
v -1.29767625 0.46863494 2.65570933
v -1.29404530 0.46863494 2.62819096
v -1.29314036 0.46863494 2.61899139
v -1.29243406 0.46863494 2.61082115
f 1 2 7
f 1 7 13
f 1 13 25
f 1 25 40
f 1 40 44
f 1 44 43
f 1 43 42
f 1 42 58
f 1 58 74
f 1 74 91
f 1 91 107
f 1 107 126
f 1 126 128
f 1 128 127
f 1 127 111
f 1 111 109
f 1 109 93
f 1 93 76
f 1 76 59
f 1 59 46
f 1 46 30
f 1 30 18
f 1 18 8
f 1 8 3
f 1 3 4
f 1 4 5
f 1 5 2
f 2 5 6
f 2 6 7
f 3 8 9
f 3 9 10
f 3 10 4
f 4 10 11
f 4 11 12
f 4 12 5
f 5 12 6
f 6 13 7
f 6 12 14
f 6 14 15
f 6 15 16
f 6 16 17
f 6 17 13
f 8 18 9
f 9 18 19
f 9 19 20
f 9 20 21
f 9 21 10
f 10 21 11
f 11 21 22
f 11 22 23
f 11 23 12
f 12 23 24
f 12 24 14
f 13 17 26
f 13 26 25
f 14 24 15
f 15 24 27
f 15 27 16
f 16 28 29
f 16 29 17
f 16 27 28
f 17 29 28
f 17 28 45
f 17 45 56
f 17 56 72
f 17 72 90
f 17 90 106
f 17 106 124
f 17 124 141
f 17 141 153
f 17 153 160
f 17 160 162
f 17 162 154
f 17 154 142
f 17 142 125
f 17 125 108
f 17 108 92
f 17 92 75
f 17 75 73
f 17 73 57
f 17 57 41
f 17 41 26
f 18 30 19
f 19 30 31
f 19 31 32
f 19 32 33
f 19 33 20
f 20 33 34
f 20 34 35
f 20 35 21
f 21 35 22
f 22 24 23
f 22 35 36
f 22 36 37
f 22 37 38
f 22 38 39
f 22 39 24
f 24 39 28
f 24 28 27
f 25 26 40
f 26 41 42
f 26 42 43
f 26 43 44
f 26 44 40
f 28 39 37
f 28 37 45
f 30 46 31
f 31 46 47
f 31 47 48
f 31 48 49
f 31 49 32
f 32 49 50
f 32 50 51
f 32 51 33
f 33 51 52
f 33 52 34
f 34 52 53
f 34 53 54
f 34 54 35
f 35 54 36
f 36 54 55
f 36 55 37
f 37 39 38
f 37 55 56
f 37 56 45
f 41 57 42
f 42 57 58
f 46 59 60
f 46 60 47
f 47 60 61
f 47 61 48
f 48 61 62
f 48 62 63
f 48 63 49
f 49 63 64
f 49 64 50
f 50 64 65
f 50 65 51
f 51 65 52
f 52 65 66
f 52 66 67
f 52 67 68
f 52 68 53
f 53 68 69
f 53 69 54
f 54 69 70
f 54 70 55
f 55 70 69
f 55 69 71
f 55 71 56
f 56 71 72
f 57 73 58
f 58 73 75
f 58 75 74
f 59 76 60
f 60 76 77
f 60 77 78
f 60 78 61
f 61 78 79
f 61 79 80
f 61 80 62
f 62 80 81
f 62 81 63
f 63 81 64
f 64 81 82
f 64 82 83
f 64 83 65
f 65 83 84
f 65 84 66
f 66 84 85
f 66 85 86
f 66 86 67
f 67 86 68
f 68 86 87
f 68 87 88
f 68 88 89
f 68 89 69
f 69 89 72
f 69 72 71
f 72 89 90
f 74 75 92
f 74 92 91
f 76 93 77
f 77 94 78
f 77 93 109
f 77 109 95
f 77 95 110
f 77 110 94
f 78 94 96
f 78 96 97
f 78 97 79
f 79 97 80
f 80 97 98
f 80 98 82
f 80 82 81
f 82 98 99
f 82 99 100
f 82 100 83
f 83 100 84
f 84 100 101
f 84 101 85
f 85 101 102
f 85 102 87
f 85 87 86
f 87 102 103
f 87 103 104
f 87 104 88
f 88 104 105
f 88 105 90
f 88 90 89
f 90 105 106
f 91 92 107
f 92 108 107
f 94 110 114
f 94 114 96
f 95 109 111
f 95 111 112
f 95 112 113
f 95 113 110
f 96 114 116
f 96 116 97
f 97 115 98
f 97 116 133
f 97 133 115
f 98 115 117
f 98 117 99
f 99 117 118
f 99 118 119
f 99 119 100
f 100 119 101
f 101 119 120
f 101 120 103
f 101 103 102
f 103 121 122
f 103 122 104
f 103 120 121
f 104 122 123
f 104 123 106
f 104 106 105
f 106 123 124
f 107 108 125
f 107 125 126
f 110 113 114
f 111 127 112
f 112 127 128
f 112 128 129
f 112 129 130
f 112 130 131
f 112 131 113
f 113 131 132
f 113 132 116
f 113 116 114
f 115 133 135
f 115 135 117
f 116 132 134
f 116 134 133
f 117 135 137
f 117 137 118
f 118 136 119
f 118 137 148
f 118 148 136
f 119 136 121
f 119 121 120
f 121 136 138
f 121 138 139
f 121 139 122
f 122 139 140
f 122 140 123
f 123 140 124
f 124 140 141
f 125 142 126
f 126 142 154
f 126 154 161
f 126 161 166
f 126 166 165
f 126 165 164
f 126 164 163
f 126 163 156
f 126 156 155
f 126 155 147
f 126 147 146
f 126 146 143
f 126 143 131
f 126 131 130
f 126 130 129
f 126 129 128
f 131 143 132
f 132 143 134
f 133 134 144
f 133 144 145
f 133 145 135
f 134 143 146
f 134 146 147
f 134 147 144
f 135 145 137
f 136 148 150
f 136 150 138
f 137 145 149
f 137 149 148
f 138 150 151
f 138 151 139
f 139 151 152
f 139 152 140
f 140 152 153
f 140 153 141
f 144 147 155
f 144 155 145
f 145 155 156
f 145 156 149
f 148 149 150
f 149 156 157
f 149 157 150
f 150 157 158
f 150 158 151
f 151 158 159
f 151 159 152
f 152 159 160
f 152 160 153
f 154 162 161
f 156 163 158
f 156 158 157
f 158 163 164
f 158 164 165
f 158 165 159
f 159 165 166
f 159 166 161
f 159 161 162
f 159 162 160

