# https://github.com/mikedh/trimesh
v -3.69385201 0.23301666 2.83320161
v -3.71113200 0.23301666 2.83320161
v -3.69405756 0.23301666 3.34100843
v -3.69419460 0.21617410 3.36362913
v -3.69400275 0.21617410 2.83675421
v -3.69400275 0.21617410 2.83320161
v -3.73022084 0.19566828 2.62301717
v -3.73022084 0.21530395 2.62301717
v -3.73022084 0.21628377 2.62823730
v -3.83384600 0.21445214 2.62823730
v -3.83384600 0.21572805 2.66296594
v -3.71178976 0.23301666 3.36362913
v -3.69407125 0.23301666 3.36362913
v -3.69681194 0.20425961 3.36362913
v -3.69679824 0.20425588 3.34050087
v -3.69678455 0.20424490 3.28837167
v -3.69674343 0.20421207 3.09725532
v -3.69670232 0.20416816 2.83675421
v -3.69670232 0.20416816 2.83320161
v -3.83384600 0.19586204 2.62301717
v -3.70796652 0.19929487 2.83320161
v -3.70796652 0.19929487 2.83675421
v -3.70796652 0.19929860 2.85415477
v -3.70796652 0.19930222 2.87148284
v -3.70796652 0.19938632 3.25364303
v -3.70796652 0.19941190 3.35790143
v -3.70796652 0.19941552 3.36362913
v -3.72532875 0.19784715 3.36362913
v -3.79481869 0.19788744 3.36362913
v -3.83384600 0.21364424 2.62301717
v -3.83384600 0.21500787 2.68036650
v -3.81050911 0.21227327 3.36362913
v -3.80091673 0.21527837 3.36362913
v -3.79481869 0.21659446 3.36362913
v -3.70426658 0.20102045 3.36362913
v -3.69681194 0.20425588 3.35790143
v -3.69671601 0.20417552 2.90621148
v -3.83384600 0.19777041 2.66296594
v -3.81050911 0.20244631 3.36362913
v -3.83384600 0.21073048 2.69247444
v -3.83384600 0.19881599 2.67608891
v -3.83384600 0.20400370 2.69247444
v -3.83384600 0.20281189 2.68971934
v -3.83384600 0.19916324 2.68036650
f 1 2 12
f 1 12 13
f 1 13 3
f 1 3 4
f 1 4 5
f 1 5 6
f 1 6 7
f 1 7 8
f 1 8 9
f 1 9 2
f 2 9 10
f 2 10 11
f 2 11 12
f 3 13 4
f 4 13 12
f 4 12 34
f 4 34 33
f 4 33 32
f 4 32 39
f 4 39 29
f 4 29 28
f 4 28 27
f 4 27 35
f 4 35 14
f 4 14 15
f 4 15 5
f 5 15 16
f 5 16 17
f 5 17 18
f 5 18 19
f 5 19 6
f 6 19 7
f 7 20 30
f 7 30 8
f 7 19 21
f 7 21 22
f 7 22 23
f 7 23 24
f 7 24 25
f 7 25 26
f 7 26 27
f 7 27 28
f 7 28 29
f 7 29 20
f 8 30 9
f 9 30 10
f 10 30 20
f 10 20 38
f 10 38 41
f 10 41 44
f 10 44 43
f 10 43 42
f 10 42 40
f 10 40 31
f 10 31 11
f 11 31 32
f 11 32 33
f 11 33 34
f 11 34 12
f 14 35 36
f 14 36 15
f 15 36 35
f 15 35 26
f 15 26 16
f 16 26 17
f 17 37 18
f 17 26 37
f 18 22 21
f 18 21 19
f 18 37 22
f 20 29 39
f 20 39 38
f 22 37 23
f 23 37 24
f 24 37 25
f 25 37 26
f 26 35 27
f 31 40 32
f 32 40 42
f 32 42 39
f 38 39 41
f 39 42 43
f 39 43 44
f 39 44 41

