# https://github.com/mikedh/trimesh
v -3.68118972 0.52897219 4.33611005
v -3.61050151 0.52894428 4.39312020
v -3.60623290 0.52894428 4.38301384
v -3.60375711 0.52894428 4.36563274
v -3.60350100 0.52894428 4.31355201
v -3.69075142 0.52897219 4.32587070
v -3.69066603 0.52897219 4.34824295
v -3.61050151 0.52891637 4.39314672
v -3.60623290 0.52891637 4.38305795
v -3.71192372 0.52897219 4.36011052
v -3.61459937 0.52894428 4.39314672
v -3.60375711 0.52891637 4.36567707
v -3.60068373 0.52891637 4.30515341
v -3.61895337 0.52894428 4.30515341
v -3.70808197 0.52897219 4.32756998
v -3.66334693 0.52894428 4.30515341
v -3.62031933 0.40647798 4.39339465
v -3.61050151 0.43928919 4.39314672
v -3.60623290 0.43928919 4.38305795
v -3.60375711 0.43928919 4.36568597
v -3.71986333 0.52897219 4.36011942
v -4.47276104 0.50939156 4.34831378
v -4.47276104 0.50601414 4.36027871
v -4.47276104 0.40088150 4.39311130
v -3.60068373 0.42469090 4.30515341
v -3.96488167 0.46100515 4.30299410
v -3.72011944 0.52897219 4.33422498
v -3.67478681 0.52891637 4.30515341
v -4.47233415 0.46100515 4.30299410
v -3.62108767 0.39684816 4.39308478
v -3.61058688 0.40731534 4.39310260
v -3.61050151 0.42469090 4.39313781
v -4.47233415 0.39683418 4.39311130
v -3.96488167 0.39683418 4.39311130
v -3.63850361 0.39683418 4.39310260
v -3.60623290 0.42469090 4.38304926
v -3.60375711 0.42469090 4.36568597
v -3.72319285 0.52897219 4.34831378
v -4.47276104 0.50622349 4.33397725
v -4.47276104 0.39677836 4.39291660
v -3.60076906 0.40731534 4.30515341
v -3.96488167 0.38639491 4.30299410
v -4.47276104 0.43870302 4.30299410
v -4.47276104 0.46103306 4.30317990
v -3.62108767 0.39280084 4.38304926
v -3.61118449 0.39744826 4.39264236
v -3.63850361 0.39274502 4.38304926
v -3.60631827 0.40731534 4.38304926
v -4.47233415 0.39275895 4.38306686
v -3.68118972 0.39274502 4.38304926
v -3.60401322 0.40731534 4.36568597
v -4.47276104 0.39270313 4.38275721
v -3.60554993 0.39179596 4.30515341
v -3.63850361 0.38716252 4.30515341
v -3.63850361 0.39045616 4.36568597
v -4.47276104 0.38639491 4.30299410
v -3.62108767 0.38723227 4.30515341
v -3.62108767 0.39053994 4.36568597
v -3.60947704 0.39574562 4.38304926
v -3.60828183 0.39461517 4.36568597
v -4.47276104 0.39045616 4.36537611
v -4.47233415 0.39045616 4.36567707
v -3.96479628 0.39045616 4.36568597
f 1 2 3
f 1 3 4
f 1 4 5
f 1 5 6
f 1 6 15
f 1 15 27
f 1 27 38
f 1 38 21
f 1 21 10
f 1 10 7
f 1 7 2
f 2 8 9
f 2 9 3
f 2 7 10
f 2 10 11
f 2 11 8
f 3 9 12
f 3 12 4
f 4 12 13
f 4 13 5
f 5 13 14
f 5 14 6
f 6 14 16
f 6 16 15
f 8 11 17
f 8 17 18
f 8 18 19
f 8 19 9
f 9 19 37
f 9 37 20
f 9 20 12
f 10 21 11
f 11 21 22
f 11 22 23
f 11 23 24
f 11 24 17
f 12 20 13
f 13 20 37
f 13 37 25
f 13 25 42
f 13 42 26
f 13 26 14
f 14 26 29
f 14 29 16
f 15 16 28
f 15 28 27
f 16 29 28
f 17 30 31
f 17 31 32
f 17 32 18
f 17 24 33
f 17 33 34
f 17 34 35
f 17 35 30
f 18 32 36
f 18 36 19
f 19 36 37
f 21 38 22
f 22 39 44
f 22 44 43
f 22 43 56
f 22 56 61
f 22 61 52
f 22 52 40
f 22 40 24
f 22 24 23
f 22 38 27
f 22 27 28
f 22 28 39
f 24 40 33
f 25 41 42
f 25 37 41
f 26 42 56
f 26 56 43
f 26 43 29
f 28 29 39
f 29 43 44
f 29 44 39
f 30 45 46
f 30 46 31
f 30 35 47
f 30 47 45
f 31 46 48
f 31 48 32
f 32 48 36
f 33 49 50
f 33 50 47
f 33 47 34
f 33 40 49
f 34 47 35
f 36 48 37
f 37 51 41
f 37 48 51
f 40 52 49
f 41 51 53
f 41 53 42
f 42 54 55
f 42 55 63
f 42 63 56
f 42 53 57
f 42 57 54
f 45 47 55
f 45 55 58
f 45 58 59
f 45 59 46
f 46 59 48
f 47 50 52
f 47 52 55
f 48 59 51
f 49 52 50
f 51 59 60
f 51 60 53
f 52 61 62
f 52 62 63
f 52 63 55
f 53 60 58
f 53 58 57
f 54 57 55
f 55 57 58
f 56 63 62
f 56 62 61
f 58 60 59

