# https://github.com/mikedh/trimesh
v -4.40832081 0.61976586 1.68787922
v -4.40832081 0.58087319 1.76231315
v -4.40832081 0.63512855 1.68787922
v -3.98896821 0.61976586 1.68787922
v -4.40832081 0.58087319 1.82301395
v -3.98896821 0.58087319 1.76231315
v -4.40832081 0.66796818 1.73734749
v -3.98896821 0.63512855 1.68787922
v -4.40832081 0.66796818 1.82301395
v -3.98896821 0.58087319 1.82301395
v -3.98896821 0.66796818 1.73734749
v -3.98896821 0.66796818 1.82301395
f 1 2 5
f 1 5 9
f 1 9 7
f 1 7 3
f 1 3 8
f 1 8 4
f 1 4 6
f 1 6 2
f 2 6 10
f 2 10 5
f 3 7 11
f 3 11 8
f 4 8 11
f 4 11 12
f 4 12 10
f 4 10 6
f 5 10 12
f 5 12 9
f 7 9 12
f 7 12 11

