# https://github.com/mikedh/trimesh
v -3.17662307 0.00769033 1.85546897
v -3.17692673 0.02507557 1.85534167
v -3.17922057 0.00769033 1.85546897
v -3.17700615 -0.00151938 1.85534167
v -3.16794294 0.00769033 1.85028384
v -3.16824660 0.02507557 1.85053354
v -3.16932111 0.11193755 1.85106234
v -3.16932111 0.12932278 1.85101827
v -3.16932111 0.14670813 1.85091057
v -3.16932111 0.16402884 1.85077346
v -3.16932111 0.18141408 1.85059720
v -3.17732384 0.04242860 1.85519968
v -3.17768823 0.05690556 1.85508216
v -3.17889354 0.02507557 1.85534167
v -3.16932111 0.19879942 1.85036218
v -3.18791004 0.00769033 1.84926053
v -3.17891223 -0.00151938 1.85534167
v -3.17046103 -0.00307046 1.84610244
v -3.15926749 -0.00271503 1.84017307
v -3.15845927 0.00769033 1.84159789
v -3.15823036 0.02507557 1.84184759
v -3.15801545 0.04242860 1.84205323
v -3.15780056 0.05981394 1.84224419
v -3.15758565 0.07719918 1.84242045
v -3.15736608 0.09455221 1.84258203
v -3.15715117 0.11193755 1.84273871
v -3.15694563 0.12932278 1.84286601
v -3.15674941 0.14670813 1.84296394
v -3.15655320 0.16402884 1.84304717
v -3.15638034 0.18141408 1.84309614
v -3.15625420 0.19879942 1.84308145
v -3.15615610 0.21615245 1.84303249
v -3.15595053 0.25092303 1.84290029
v -3.15572629 0.28566140 1.84274361
v -3.15560950 0.30304664 1.84265548
v -3.15552073 0.32039967 1.84253307
v -3.15550673 0.32579627 1.84247921
v -3.17823483 0.05690556 1.85508216
v -3.16932111 0.21615245 1.85007820
v -3.16932111 0.23353779 1.84977463
v -3.16932111 0.25092303 1.84945638
v -3.16932111 0.26827606 1.84912342
v -3.16932111 0.28566140 1.84877580
v -3.16932111 0.30304664 1.84841837
v -3.16932111 0.32039967 1.84797280
v -3.19680507 0.02507557 1.84031507
v -3.19691719 0.00769033 1.84056967
v -3.19643133 -0.00235959 1.83965897
v -3.18669071 0.12932278 1.84682708
v -3.19599218 0.12932278 1.83867481
v -3.19615102 0.11193755 1.83897349
v -3.18549941 -0.00287658 1.84578908
v -3.18779325 -0.00407223 1.82836819
v -3.16791959 -0.00429851 1.82775126
v -3.15926749 -0.00271503 1.83274546
v -3.15845927 0.00769033 1.82968529
v -3.15443221 0.12932278 1.82893127
v -3.15386226 0.14670813 1.82893127
v -3.15329697 0.16402884 1.82893127
v -3.15275505 0.18141408 1.82893127
v -3.15226452 0.19879942 1.82893127
v -3.15080693 0.25092303 1.82893127
v -3.15033975 0.26827606 1.82893127
v -3.14948482 0.30304664 1.82893127
v -3.14919518 0.32579627 1.82893127
v -3.15347918 0.32579627 1.83830270
v -3.15583841 0.26827606 1.84282194
v -3.16501842 0.32579627 1.84622973
v -3.16932111 0.32579627 1.84779654
v -3.18418665 0.32579627 1.84293456
v -3.18433615 0.32039967 1.84305697
v -3.18470988 0.30304664 1.84338011
v -3.18501822 0.28566140 1.84364942
v -3.19680507 0.02507557 1.83183965
v -3.19641264 0.07719918 1.83948759
v -3.19691719 0.00769033 1.83183474
v -3.19643133 -0.00235959 1.83378346
v -3.18531721 0.26827606 1.84391380
v -3.19599218 0.12932278 1.83281400
v -3.19579129 0.14670813 1.83831739
v -3.19615102 0.11193755 1.83236845
v -3.18273840 -0.00355524 1.81785104
v -3.17278288 -0.00355524 1.81785104
v -3.16108947 0.00769033 1.82099443
v -3.16067836 0.01689994 1.82032365
v -3.15502553 0.11193755 1.82893127
v -3.16039338 0.02850094 1.81998581
v -3.15968327 0.05981394 1.81921221
v -3.15889842 0.09455221 1.81835045
v -3.15850600 0.11193755 1.81791959
v -3.15811823 0.12932278 1.81749851
v -3.15549271 0.25092303 1.81459502
v -3.15513765 0.26827606 1.81419353
v -3.15450696 0.30304664 1.81345421
v -3.15079759 0.32579627 1.82398605
v -3.18943770 0.32579627 1.83319591
v -3.19544091 0.17527431 1.83772005
v -3.19641264 0.07719918 1.83208935
v -3.19654345 0.05981394 1.83199142
v -3.19667426 0.04242860 1.83190820
v -3.19466073 0.12932278 1.82413293
v -3.19389924 0.00769033 1.82315368
v -3.19460934 0.11193755 1.82368737
v -3.19451591 0.09455221 1.82353069
v -3.19441780 0.07719918 1.82340830
v -3.19431035 0.05981394 1.82330547
v -3.19419355 0.04242860 1.82322712
v -3.19406742 0.02507557 1.82315858
v -3.19579129 0.14670813 1.83379325
v -3.19349279 0.25092303 1.82893127
v -3.19378244 0.23353779 1.82893127
v -3.19464204 0.16402884 1.82670347
v -3.19465606 0.14670813 1.82511219
v -3.19558107 0.16402884 1.83795017
v -3.19628183 0.09455221 1.83221175
v -3.18520976 0.00769033 1.81648988
v -3.16977894 0.00769033 1.81648988
v -3.16761125 0.02365374 1.81684730
v -3.16932111 0.11193755 1.81251901
v -3.16932111 0.12932278 1.81184823
v -3.16932111 0.14670813 1.81121662
v -3.16932111 0.16402884 1.81060459
v -3.16932111 0.25092303 1.80753951
v -3.16932111 0.26827606 1.80695197
v -3.16932111 0.30304664 1.80587481
v -3.16932111 0.32039967 1.80554185
v -3.16932111 0.32579627 1.80544882
v -3.15432009 0.32579627 1.81318001
v -3.19173154 0.32579627 1.82893127
v -3.19544091 0.17527431 1.83677507
v -3.19195111 0.32039967 1.82893127
v -3.19246500 0.30304664 1.82893127
v -3.18555080 0.32579627 1.81251412
v -3.18586848 0.26827606 1.81300374
v -3.18589184 0.25092303 1.81318981
v -3.18592922 0.19879942 1.81376267
v -3.18595724 0.16402884 1.81416416
v -3.18597126 0.14670813 1.81437469
v -3.18597126 0.12932278 1.81459502
v -3.18592454 0.11193755 1.81484474
v -3.18583111 0.09455221 1.81511403
v -3.18562088 0.05981394 1.81565751
v -3.18550875 0.04242860 1.81592682
v -3.18538262 0.02507557 1.81619121
v -3.18562088 0.32039967 1.81253371
v -3.18575636 0.30304664 1.81266590
v -3.18582643 0.28566140 1.81283237
v -3.19558107 0.16402884 1.83538453
v -3.19318445 0.26827606 1.82893127
v -3.19283875 0.28566140 1.82893127
f 1 2 14
f 1 14 3
f 1 3 17
f 1 17 4
f 1 4 5
f 1 5 6
f 1 6 7
f 1 7 8
f 1 8 9
f 1 9 10
f 1 10 11
f 1 11 2
f 2 12 13
f 2 13 38
f 2 38 14
f 2 11 15
f 2 15 12
f 3 16 17
f 3 14 16
f 4 17 18
f 4 18 19
f 4 19 5
f 5 19 20
f 5 20 21
f 5 21 22
f 5 22 23
f 5 23 24
f 5 24 25
f 5 25 26
f 5 26 27
f 5 27 28
f 5 28 29
f 5 29 30
f 5 30 31
f 5 31 6
f 6 31 32
f 6 32 33
f 6 33 34
f 6 34 35
f 6 35 7
f 7 35 8
f 8 35 36
f 8 36 9
f 9 36 10
f 10 36 37
f 10 37 11
f 11 37 15
f 12 15 13
f 13 15 39
f 13 39 40
f 13 40 41
f 13 41 42
f 13 42 43
f 13 43 44
f 13 44 45
f 13 45 38
f 14 38 16
f 15 37 39
f 16 46 47
f 16 47 48
f 16 48 17
f 16 38 49
f 16 49 50
f 16 50 51
f 16 51 46
f 17 48 52
f 17 52 18
f 18 52 53
f 18 53 54
f 18 54 19
f 19 54 55
f 19 55 56
f 19 56 20
f 20 56 57
f 20 57 58
f 20 58 59
f 20 59 60
f 20 60 61
f 20 61 62
f 20 62 63
f 20 63 64
f 20 64 21
f 21 64 22
f 22 64 23
f 23 25 24
f 23 64 25
f 25 64 26
f 26 64 27
f 27 64 28
f 28 64 29
f 29 64 65
f 29 65 30
f 30 65 31
f 31 65 66
f 31 66 32
f 32 66 35
f 32 35 34
f 32 34 67
f 32 67 33
f 33 67 34
f 35 66 36
f 36 66 37
f 37 68 44
f 37 44 43
f 37 43 42
f 37 42 41
f 37 41 40
f 37 40 39
f 37 66 65
f 37 65 95
f 37 95 128
f 37 128 127
f 37 127 133
f 37 133 129
f 37 129 96
f 37 96 70
f 37 70 69
f 37 69 68
f 38 45 69
f 38 69 70
f 38 70 71
f 38 71 72
f 38 72 73
f 38 73 49
f 44 68 45
f 45 68 69
f 46 74 76
f 46 76 47
f 46 51 75
f 46 75 98
f 46 98 74
f 47 76 77
f 47 77 48
f 48 77 53
f 48 53 52
f 49 73 78
f 49 78 50
f 50 79 81
f 50 81 51
f 50 78 73
f 50 73 80
f 50 80 109
f 50 109 79
f 51 81 98
f 51 98 75
f 53 82 54
f 53 77 82
f 54 82 83
f 54 83 55
f 55 83 84
f 55 84 56
f 56 84 85
f 56 85 86
f 56 86 57
f 57 86 85
f 57 85 87
f 57 87 58
f 58 87 59
f 59 87 60
f 60 87 88
f 60 88 89
f 60 89 90
f 60 90 91
f 60 91 92
f 60 92 61
f 61 92 93
f 61 93 62
f 62 93 63
f 63 93 94
f 63 94 64
f 64 94 95
f 64 95 65
f 70 96 97
f 70 97 71
f 71 97 72
f 72 97 80
f 72 80 73
f 74 98 99
f 74 99 100
f 74 100 101
f 74 101 76
f 76 102 77
f 76 101 103
f 76 103 104
f 76 104 105
f 76 105 106
f 76 106 107
f 76 107 108
f 76 108 102
f 77 102 82
f 79 109 110
f 79 110 111
f 79 111 112
f 79 112 113
f 79 113 81
f 80 97 114
f 80 114 148
f 80 148 109
f 81 113 101
f 81 101 115
f 81 115 98
f 82 102 116
f 82 116 117
f 82 117 83
f 83 117 84
f 84 117 85
f 85 117 87
f 87 117 118
f 87 118 119
f 87 119 120
f 87 120 121
f 87 121 89
f 87 89 88
f 89 121 90
f 90 121 91
f 91 121 122
f 91 122 123
f 91 123 92
f 92 123 124
f 92 124 93
f 93 124 125
f 93 125 94
f 94 125 126
f 94 126 127
f 94 127 128
f 94 128 95
f 96 129 97
f 97 130 148
f 97 148 114
f 97 129 131
f 97 131 132
f 97 132 130
f 98 115 101
f 98 101 99
f 99 101 100
f 101 113 133
f 101 133 103
f 102 108 134
f 102 134 135
f 102 135 136
f 102 136 137
f 102 137 138
f 102 138 139
f 102 139 140
f 102 140 141
f 102 141 142
f 102 142 143
f 102 143 144
f 102 144 116
f 103 133 145
f 103 145 146
f 103 146 104
f 104 146 105
f 105 146 106
f 106 146 107
f 107 146 108
f 108 146 147
f 108 147 134
f 109 148 149
f 109 149 110
f 110 112 111
f 110 149 112
f 112 149 113
f 113 149 150
f 113 150 132
f 113 132 133
f 116 144 125
f 116 125 124
f 116 124 123
f 116 123 122
f 116 122 121
f 116 121 120
f 116 120 117
f 117 120 119
f 117 119 118
f 125 144 126
f 126 144 143
f 126 143 141
f 126 141 140
f 126 140 127
f 127 140 139
f 127 139 138
f 127 138 137
f 127 137 136
f 127 136 135
f 127 135 134
f 127 134 147
f 127 147 146
f 127 146 145
f 127 145 133
f 129 133 131
f 130 132 150
f 130 150 149
f 130 149 148
f 131 133 132
f 141 143 142

