# https://github.com/mikedh/trimesh
v -0.42246608 1.76255443 2.22495915
v -0.42405827 1.76255443 2.22494579
v -0.42246608 1.70001055 2.22495915
v -0.42246608 1.77492817 2.22240715
v -0.42405827 1.77492817 2.22240715
v -0.47617400 1.71043745 2.22342261
v -0.42405827 1.70001055 2.22494579
v -0.48902605 1.77484920 2.22103094
v -0.49118411 1.76255443 2.22168564
v -0.42246608 1.70001055 2.18764112
v -0.42246608 1.78051429 2.21117032
v -0.45026651 1.78860852 2.20241868
v -0.47617400 1.78893298 2.20406212
v -0.48608049 1.78888037 2.20410220
v -0.49126386 1.74518208 2.22175246
v -0.49125495 1.72781854 2.22173909
v -0.48509871 1.70001055 2.22223346
v -0.47617400 1.70001055 2.22316875
v -0.49334238 1.78042662 2.21121040
v -0.50339054 1.77442827 2.20672102
v -0.49987021 1.76255443 2.21753030
v -0.42275792 1.70001055 2.18709332
v -0.42246608 1.75473206 2.08846039
v -0.42246608 1.78317142 2.19380067
v -0.45715681 1.78909962 2.19549755
v -0.46184472 1.78877515 2.20296650
v -0.44801980 1.78894179 2.19083446
v -0.47617400 1.78939778 2.19380067
v -0.48705358 1.78903820 2.19380067
v -0.50229380 1.78865238 2.10060578
v -0.49733165 1.78738077 2.15904799
v -0.49649134 1.78656521 2.17643102
v -0.49573947 1.78539012 2.19380067
v -0.49994974 1.74518208 2.21753030
v -0.49994084 1.72781854 2.21753030
v -0.49984369 1.71043745 2.21753030
v -0.49978176 1.70001055 2.21753030
v -0.49630554 1.70001055 2.21914700
v -0.49109567 1.70001055 2.22149859
v -0.50434582 1.77669957 2.19380067
v -0.50645085 1.76255443 2.19380067
v -0.50396553 1.76255443 2.20884546
v -0.42472170 1.70001055 2.18402022
v -0.42801191 1.74982992 2.08846039
v -0.42746365 1.75031222 2.08846039
v -0.42246608 1.78172448 2.08846039
v -0.42246608 1.78392563 2.17643102
v -0.43826348 1.78768773 2.17643102
v -0.45881093 1.78959947 2.17643102
v -0.44694957 1.78910837 2.17643102
v -0.47617400 1.78955561 2.17643102
v -0.48780524 1.78907331 2.17643102
v -0.50237334 1.78869624 2.08846039
v -0.50237334 1.78868743 2.08955601
v -0.50276253 1.78814372 2.08846039
v -0.50797241 1.77993552 2.08846039
v -0.50701693 1.77966367 2.12430869
v -0.50659253 1.77926904 2.14169170
v -0.50584956 1.77869022 2.15904799
v -0.50509769 1.77787466 2.17643102
v -0.50396553 1.70001055 2.20884546
v -0.50231141 1.70001055 2.21231939
v -0.51094427 1.76255443 2.14169170
v -0.50946704 1.76255443 2.15904799
v -0.50796350 1.76255443 2.17643102
v -0.50546037 1.70001055 2.19981324
v -0.50645085 1.70001055 2.19380067
v -0.42810036 1.70001055 2.17874251
v -0.49535918 1.70001055 2.08846039
v -0.45385748 1.78843313 2.08846039
v -0.44887772 1.78919609 2.12767573
v -0.42246608 1.78392563 2.17484102
v -0.44887772 1.78919609 2.13725576
v -0.45856321 1.78937147 2.12285230
v -0.47617400 1.78945039 2.14169170
v -0.47617400 1.78930131 2.12430869
v -0.49354578 1.78879265 2.08846039
v -0.50828186 1.77883935 2.08846039
v -0.51180219 1.76255443 2.12430869
v -0.51094427 1.70001055 2.14169170
v -0.50946704 1.70001055 2.15904799
v -0.50796350 1.70001055 2.17643102
v -0.51222681 1.70001055 2.08846039
v -0.46254357 1.78872254 2.08846039
v -0.47617400 1.78881896 2.08846039
v -0.51282830 1.76255443 2.08846039
v -0.51180219 1.70001055 2.12430869
v -0.51192606 1.70001055 2.11388690
f 1 2 7
f 1 7 3
f 1 3 10
f 1 10 23
f 1 23 46
f 1 46 72
f 1 72 47
f 1 47 24
f 1 24 11
f 1 11 4
f 1 4 5
f 1 5 2
f 2 6 7
f 2 5 8
f 2 8 9
f 2 9 6
f 3 7 18
f 3 18 17
f 3 17 39
f 3 39 38
f 3 38 37
f 3 37 62
f 3 62 61
f 3 61 66
f 3 66 67
f 3 67 82
f 3 82 81
f 3 81 80
f 3 80 87
f 3 87 88
f 3 88 83
f 3 83 69
f 3 69 68
f 3 68 43
f 3 43 22
f 3 22 10
f 4 11 12
f 4 12 13
f 4 13 5
f 5 13 14
f 5 14 8
f 6 9 15
f 6 15 16
f 6 16 17
f 6 17 18
f 6 18 7
f 8 14 19
f 8 19 20
f 8 20 21
f 8 21 9
f 9 21 15
f 10 22 23
f 11 24 12
f 12 25 26
f 12 26 13
f 12 24 27
f 12 27 25
f 13 26 25
f 13 25 28
f 13 28 14
f 14 28 29
f 14 29 30
f 14 30 31
f 14 31 32
f 14 32 33
f 14 33 20
f 14 20 19
f 15 21 34
f 15 34 35
f 15 35 16
f 16 35 36
f 16 36 37
f 16 37 38
f 16 38 39
f 16 39 17
f 20 33 40
f 20 40 41
f 20 41 42
f 20 42 21
f 21 42 34
f 22 43 44
f 22 44 45
f 22 45 23
f 23 45 44
f 23 44 69
f 23 69 83
f 23 83 86
f 23 86 78
f 23 78 56
f 23 56 55
f 23 55 53
f 23 53 77
f 23 77 85
f 23 85 84
f 23 84 70
f 23 70 46
f 24 47 48
f 24 48 27
f 25 27 49
f 25 49 28
f 27 48 50
f 27 50 49
f 28 49 51
f 28 51 29
f 29 51 52
f 29 52 30
f 30 53 54
f 30 54 55
f 30 55 56
f 30 56 57
f 30 57 58
f 30 58 59
f 30 59 60
f 30 60 32
f 30 32 31
f 30 52 53
f 32 60 40
f 32 40 33
f 34 42 61
f 34 61 35
f 35 61 62
f 35 62 36
f 36 62 37
f 40 60 63
f 40 63 64
f 40 64 65
f 40 65 41
f 41 66 42
f 41 65 82
f 41 82 67
f 41 67 66
f 42 66 61
f 43 68 44
f 44 68 69
f 46 70 71
f 46 71 72
f 47 72 48
f 48 72 71
f 48 71 50
f 49 50 73
f 49 73 71
f 49 71 74
f 49 74 75
f 49 75 51
f 50 71 73
f 51 75 53
f 51 53 52
f 53 75 76
f 53 76 77
f 53 55 54
f 56 78 57
f 57 79 58
f 57 78 79
f 58 79 63
f 58 63 59
f 59 63 60
f 63 79 87
f 63 87 80
f 63 80 81
f 63 81 64
f 64 81 82
f 64 82 65
f 70 84 71
f 71 84 74
f 74 84 85
f 74 85 77
f 74 77 76
f 74 76 75
f 78 86 79
f 79 86 87
f 83 88 86
f 86 88 87

