# https://github.com/mikedh/trimesh
v -1.47286045 0.39984871 2.58134076
v -1.47286045 0.39984871 2.58092252
v -1.62923107 0.39984457 2.58134076
v -1.66976445 0.39983634 2.59110195
v -1.48394301 0.39983634 2.58771650
v -1.48361534 0.39983634 2.58757157
v -1.48361534 0.38992089 2.59515595
v -1.48361534 0.37303778 2.59884111
v -1.48361534 0.37255952 2.59889382
v -1.47286045 0.35838114 2.58134076
v -1.47286045 0.39352014 2.57564999
v -1.62923107 0.39984457 2.58090274
v -1.66976445 0.39983634 2.58134402
v -1.66976445 0.38992089 2.59841298
v -1.66976445 0.37255952 2.60216400
v -1.50132825 0.37255952 2.59924288
v -1.50132825 0.35774204 2.59199115
v -1.48361534 0.35853368 2.59155970
v -1.47286045 0.35843468 2.57980279
v -1.50132825 0.35773790 2.58134076
v -1.50132825 0.35773790 2.57670385
v -1.47286045 0.38992089 2.57270914
v -1.62923107 0.38992089 2.57276180
v -1.62923107 0.37255952 2.56852009
v -1.66976445 0.35854601 2.58134402
v -1.66976445 0.37121547 2.60154158
v -1.66976445 0.35802653 2.59347640
v -1.51871349 0.35773790 2.59199115
v -1.47286045 0.35854187 2.57699362
v -1.58815802 0.35773386 2.59199115
v -1.50132825 0.37255952 2.56858927
v -1.47286045 0.37255952 2.56878356
v -1.58815802 0.35773386 2.58134402
v -1.51869422 0.35773790 2.57669727
v -1.57081131 0.37255952 2.56854971
v -1.55342607 0.37255952 2.56855960
v -1.47286045 0.37885516 2.57019964
v -1.60554326 0.35773790 2.57666760
v -1.62923107 0.35773790 2.57666103
v -1.66976445 0.35841407 2.58436725
v -1.64029437 0.35773386 2.58134402
v -1.64029437 0.35773386 2.59199115
f 1 2 12
f 1 12 3
f 1 3 4
f 1 4 5
f 1 5 6
f 1 6 7
f 1 7 8
f 1 8 9
f 1 9 10
f 1 10 19
f 1 19 29
f 1 29 32
f 1 32 37
f 1 37 22
f 1 22 11
f 1 11 2
f 2 11 12
f 3 12 13
f 3 13 4
f 4 13 25
f 4 25 40
f 4 40 27
f 4 27 26
f 4 26 15
f 4 15 14
f 4 14 7
f 4 7 5
f 5 7 6
f 7 14 8
f 8 14 15
f 8 15 16
f 8 16 9
f 9 16 17
f 9 17 18
f 9 18 10
f 10 18 17
f 10 17 20
f 10 20 21
f 10 21 19
f 11 22 23
f 11 23 12
f 12 23 13
f 13 23 24
f 13 24 25
f 15 26 16
f 16 26 17
f 17 26 27
f 17 27 28
f 17 28 20
f 19 21 29
f 20 28 30
f 20 30 33
f 20 33 21
f 21 31 32
f 21 32 29
f 21 33 34
f 21 34 24
f 21 24 35
f 21 35 36
f 21 36 31
f 22 37 31
f 22 31 36
f 22 36 35
f 22 35 24
f 22 24 23
f 24 38 39
f 24 39 25
f 24 34 38
f 25 39 41
f 25 41 40
f 27 40 41
f 27 41 42
f 27 42 30
f 27 30 28
f 30 42 41
f 30 41 33
f 31 37 32
f 33 41 39
f 33 39 38
f 33 38 34

