# https://github.com/mikedh/trimesh
v -1.69075578 -0.00438820 0.35579276
v -1.65681122 -0.00389710 0.35180245
v -1.67505065 -0.00438820 0.35579276
v -1.69075578 -0.00438820 0.36375909
v -1.69075578 0.00666184 0.35123917
v -1.65045769 -0.00144161 0.34274788
v -1.65767494 -0.00438820 0.36375909
v -1.64624586 -0.00144161 0.34274788
v -1.64341888 -0.00316056 0.35204106
v -1.69075578 0.00788948 0.36688071
v -1.69075578 0.00788948 0.35075232
v -1.65007223 0.04987980 0.32494414
v -1.64032067 0.04963414 0.32454801
v -1.64431844 -0.00316056 0.36275193
v -1.65767494 0.00788948 0.36688071
v -1.63074051 0.05037090 0.32511119
v -1.61783368 0.04693300 0.33710128
v -1.63733669 0.00788948 0.35204106
v -1.69075578 0.02532402 0.36697609
v -1.69075578 0.04644190 0.34059997
v -1.69075578 0.05994743 0.33783637
v -1.65060051 0.05994743 0.32442394
v -1.64032067 0.05994743 0.32303494
v -1.61783368 0.04644190 0.34953524
v -1.61783368 0.05994743 0.35588825
v -1.64191265 0.00788948 0.36380196
v -1.64062763 0.05994743 0.36385447
v -1.65767494 0.02532402 0.36697609
v -1.61783368 0.05724649 0.33380308
v -1.63021223 0.05994743 0.32460052
v -1.61783368 0.05994743 0.33313479
v -1.69075578 0.04251310 0.36698085
v -1.69075578 0.81061376 0.33783150
v -1.65305621 1.62340578 0.31822845
v -1.64166990 0.91129192 0.31822845
v -1.63679422 0.89680408 0.31822845
v -1.62294506 0.89164741 0.31822845
v -1.61783368 0.89164741 0.31822845
v -1.61783368 0.06510428 0.35596457
v -1.61783368 0.07738197 0.35606006
v -1.61783368 0.87666845 0.35651346
v -1.64062763 0.07738197 0.36385923
v -1.65767494 0.04251310 0.36698085
v -1.69075578 0.05994743 0.36698562
v -1.69075578 2.47475021 0.33783150
v -1.65305621 2.47475021 0.31822845
v -1.61783368 0.90736302 0.31822845
v -1.61783368 0.89410296 0.35588338
v -1.63362455 2.47475021 0.33467654
v -1.64092041 2.47475021 0.34959727
v -1.65767494 2.47475021 0.35475702
v -1.65767494 0.07738197 0.36698562
v -1.65767494 0.05994743 0.36698562
v -1.69075578 0.07738197 0.36698562
v -1.69075578 2.49218475 0.33787448
v -1.65303477 2.47597786 0.31822845
v -1.62234543 1.58878231 0.31822845
v -1.61783368 0.91571194 0.33437579
v -1.61783368 0.91006414 0.35016521
v -1.62234543 1.58878231 0.33467654
v -1.63490957 2.47475021 0.31822845
v -1.63532362 2.49120255 0.31822845
v -1.63422429 2.49218475 0.33467654
v -1.64116306 2.49218475 0.34901970
v -1.65767494 2.49218475 0.35414600
v -1.69075578 2.49218475 0.35360664
v -1.65269218 2.49218475 0.31822845
v -1.69075578 2.50397133 0.34064295
v -1.65074322 2.50249803 0.31822845
v -1.63535935 2.49218475 0.31822845
v -1.64199115 2.50200693 0.31822845
v -1.64191265 2.50323479 0.33467654
v -1.64393287 2.50298913 0.34674772
v -1.65767494 2.50397133 0.34844212
v -1.69075578 2.50397133 0.34844212
v -1.69075578 2.49341239 0.35310549
v -1.65658991 2.50421698 0.33522066
v -1.64240520 2.50249803 0.31822845
f 1 2 3
f 1 3 7
f 1 7 4
f 1 4 10
f 1 10 19
f 1 19 32
f 1 32 44
f 1 44 54
f 1 54 66
f 1 66 76
f 1 76 75
f 1 75 68
f 1 68 55
f 1 55 45
f 1 45 33
f 1 33 21
f 1 21 20
f 1 20 11
f 1 11 5
f 1 5 6
f 1 6 2
f 2 7 3
f 2 6 8
f 2 8 9
f 2 9 7
f 4 7 15
f 4 15 10
f 5 11 6
f 6 11 12
f 6 12 13
f 6 13 8
f 7 9 14
f 7 14 15
f 8 13 16
f 8 16 17
f 8 17 9
f 9 17 18
f 9 18 14
f 10 15 28
f 10 28 19
f 11 20 12
f 12 20 21
f 12 21 22
f 12 22 23
f 12 23 13
f 13 23 16
f 14 18 24
f 14 24 25
f 14 25 26
f 14 26 15
f 15 26 27
f 15 27 28
f 16 29 17
f 16 23 30
f 16 30 31
f 16 31 29
f 17 29 31
f 17 31 38
f 17 38 47
f 17 47 58
f 17 58 59
f 17 59 48
f 17 48 41
f 17 41 40
f 17 40 39
f 17 39 25
f 17 25 24
f 17 24 18
f 19 28 43
f 19 43 32
f 21 33 34
f 21 34 22
f 22 34 35
f 22 35 23
f 23 35 36
f 23 36 37
f 23 37 38
f 23 38 30
f 25 39 26
f 26 39 27
f 27 39 40
f 27 40 41
f 27 41 42
f 27 42 53
f 27 53 43
f 27 43 28
f 30 38 31
f 32 43 53
f 32 53 44
f 33 45 46
f 33 46 34
f 34 46 56
f 34 56 67
f 34 67 69
f 34 69 78
f 34 78 71
f 34 71 70
f 34 70 62
f 34 62 61
f 34 61 57
f 34 57 47
f 34 47 38
f 34 38 37
f 34 37 36
f 34 36 35
f 41 48 49
f 41 49 50
f 41 50 51
f 41 51 52
f 41 52 42
f 42 52 53
f 44 53 52
f 44 52 54
f 45 55 46
f 46 55 56
f 47 57 58
f 48 59 60
f 48 60 49
f 49 61 62
f 49 62 63
f 49 63 64
f 49 64 50
f 49 60 57
f 49 57 61
f 50 64 65
f 50 65 51
f 51 65 66
f 51 66 54
f 51 54 52
f 55 67 56
f 55 68 69
f 55 69 67
f 57 60 58
f 58 60 59
f 62 70 63
f 63 70 71
f 63 71 72
f 63 72 73
f 63 73 64
f 64 73 65
f 65 73 74
f 65 74 75
f 65 75 76
f 65 76 66
f 68 75 77
f 68 77 69
f 69 77 78
f 71 78 72
f 72 78 77
f 72 77 74
f 72 74 73
f 74 77 75

