# https://github.com/mikedh/trimesh
v -2.97786714 0.39995575 1.67239205
v -2.96080766 0.39866602 1.66381224
v -2.97786714 0.39858653 1.66335951
v -2.97786714 0.39984535 1.68298196
v -2.96080766 0.39984535 1.68318113
v -2.82181995 0.39984535 1.68318113
v -2.79968451 0.39984089 1.68318113
v -2.79968451 0.39985860 1.68026204
v -2.79968451 0.39989392 1.67255503
v -2.79968451 0.39955822 1.67015023
v -2.79968451 0.39866602 1.66381224
v -2.97786714 0.38960264 1.65838327
v -2.97786714 0.38992508 1.68831310
v -2.80444647 0.38992508 1.68830585
v -2.79968451 0.39265026 1.68689703
v -2.79968451 0.39626329 1.66317843
v -2.97786714 0.37234152 1.65443563
v -2.97786714 0.37255352 1.69131912
v -2.96080766 0.37255352 1.69135171
v -2.90868727 0.37255352 1.69138431
v -2.87395780 0.37255352 1.69140244
v -2.85658432 0.37255352 1.69140966
v -2.80444647 0.37255352 1.69143141
v -2.79968451 0.37732822 1.69053323
v -2.79968451 0.38992508 1.68826601
v -2.79968451 0.38992508 1.66197965
v -2.97786714 0.36021722 1.65957845
v -2.79968451 0.38515043 1.66146173
v -2.79968451 0.37255352 1.66030640
v -2.79968451 0.36104759 1.66213539
v -2.97786714 0.35838424 1.68618355
v -2.96080766 0.35828710 1.68626322
v -2.85658432 0.35827384 1.68629581
v -2.82181995 0.35826939 1.68630669
v -2.80444647 0.35826939 1.68631029
v -2.79968451 0.35830471 1.68627772
v -2.79968451 0.37255352 1.69135896
v -2.97786714 0.35483750 1.67255503
v -2.79968451 0.35548239 1.67255503
v -2.80444647 0.35544707 1.67255503
v -2.94343421 0.35828265 1.68626684
v -2.87395780 0.35827384 1.68628856
f 1 2 3
f 1 3 12
f 1 12 17
f 1 17 27
f 1 27 38
f 1 38 31
f 1 31 18
f 1 18 13
f 1 13 4
f 1 4 5
f 1 5 6
f 1 6 7
f 1 7 8
f 1 8 9
f 1 9 10
f 1 10 11
f 1 11 2
f 2 11 3
f 3 11 12
f 4 13 5
f 5 13 6
f 6 14 7
f 6 13 14
f 7 14 15
f 7 15 25
f 7 25 24
f 7 24 37
f 7 37 36
f 7 36 39
f 7 39 30
f 7 30 29
f 7 29 28
f 7 28 26
f 7 26 16
f 7 16 11
f 7 11 10
f 7 10 9
f 7 9 8
f 11 16 12
f 12 16 17
f 13 18 19
f 13 19 20
f 13 20 21
f 13 21 22
f 13 22 23
f 13 23 14
f 14 23 24
f 14 24 25
f 14 25 15
f 16 26 17
f 17 26 28
f 17 28 29
f 17 29 30
f 17 30 27
f 18 31 32
f 18 32 19
f 19 32 20
f 20 32 21
f 21 32 22
f 22 32 23
f 23 32 33
f 23 33 34
f 23 34 35
f 23 35 36
f 23 36 37
f 23 37 24
f 27 30 39
f 27 39 40
f 27 40 38
f 31 38 32
f 32 38 41
f 32 41 42
f 32 42 33
f 33 42 34
f 34 42 38
f 34 38 35
f 35 40 39
f 35 39 36
f 35 38 40
f 38 42 41

