# https://github.com/mikedh/trimesh
v -4.47118170 0.44342619 3.18615948
v -4.54088358 0.44342619 3.18615948
v -4.47118170 0.41364971 3.18615948
v -4.47118170 0.44342619 3.09668966
v -4.63125875 0.42186744 3.18615948
v -4.49011417 0.44342619 3.11877203
v -4.47118170 0.44323714 2.99308588
v -4.47118170 0.44323087 2.99180729
v -4.47118170 0.44302292 2.97442474
v -4.47118170 0.44212170 2.92231180
v -4.47118170 0.44175623 2.90492936
v -4.47118170 0.44021857 2.83315309
v -4.47246568 0.44007363 2.83315309
v -4.51896982 0.43444603 2.83315309
v -4.52190761 0.43408682 2.83315309
v -4.61143407 0.42296392 2.83315309
v -4.62882149 0.42012809 2.83315309
v -4.64305352 0.41731116 2.83315309
v -4.64307527 0.41732374 2.83671252
v -4.67106046 0.37942414 3.18615948
v -4.67125630 0.37905235 3.18605581
v -4.67125630 0.37905235 3.18339484
v -4.67127804 0.37905235 2.83315309
v -4.47118170 0.42325385 2.83339496
v -4.47255267 0.44342619 3.09817570
v -4.64657883 0.41795392 3.18615948
v -4.64320576 0.41736786 2.85409502
v -4.47118170 0.42936670 2.83315309
v -4.64483792 0.41664944 2.83315309
v -4.68450893 0.37905235 3.18615948
v -4.69343115 0.37905235 2.83315309
v -4.47246568 0.42321605 2.83315309
v -4.65369479 0.41530715 3.18615948
v -4.65173630 0.41405936 2.83315309
v -4.65177980 0.41406568 2.83671252
v -4.69340940 0.37905235 3.18615948
v -4.69225601 0.38196378 2.83315309
v -4.69345290 0.37905235 2.85409502
v -4.66185530 0.41133693 3.18615948
v -4.66357446 0.40880355 2.83315309
v -4.69125496 0.38437744 3.18615948
v -4.69343115 0.37905235 3.18415510
v -4.69125496 0.38439634 2.83671252
v -4.69125496 0.38439002 2.83315309
v -4.69127682 0.38442782 2.88882546
v -4.69347464 0.37905235 2.90620796
v -4.67676195 0.40214249 3.07992922
v -4.67665310 0.40203536 3.18615948
v -4.67665310 0.40204162 2.83315309
v -4.67678370 0.40217398 2.95832090
v -4.67680545 0.40220551 2.99308588
v -4.67680545 0.40220551 3.01043384
v -4.68601050 0.39207833 3.18615948
v -4.68537938 0.39308036 3.14942471
v -4.68544473 0.39312443 3.07992922
v -4.68548823 0.39314964 3.02778179
v -4.69127682 0.38443414 3.07992922
v -4.69347464 0.37905235 3.04516424
v -4.68548823 0.39316228 2.97570334
v -4.68533588 0.39308036 2.83315309
v -4.68540123 0.39311184 2.88882546
v -4.68537938 0.39310552 2.87144297
v -4.69127682 0.38446562 2.95832090
v -4.69127682 0.38447825 2.99308588
v -4.68533588 0.39306772 3.18615948
v -4.68435669 0.39408234 3.18615948
v -4.67843751 0.40020150 2.83315309
v -4.68548823 0.39316854 2.99308588
v -4.68548823 0.39316228 3.01043384
v -4.69127682 0.38444672 3.06254678
v -4.69127682 0.38446562 3.02778179
f 1 2 5
f 1 5 26
f 1 26 33
f 1 33 39
f 1 39 48
f 1 48 66
f 1 66 65
f 1 65 53
f 1 53 41
f 1 41 36
f 1 36 30
f 1 30 20
f 1 20 3
f 1 3 24
f 1 24 28
f 1 28 12
f 1 12 11
f 1 11 10
f 1 10 9
f 1 9 8
f 1 8 7
f 1 7 4
f 1 4 25
f 1 25 6
f 1 6 2
f 2 6 7
f 2 7 8
f 2 8 9
f 2 9 10
f 2 10 11
f 2 11 12
f 2 12 13
f 2 13 14
f 2 14 15
f 2 15 16
f 2 16 17
f 2 17 18
f 2 18 19
f 2 19 5
f 3 20 21
f 3 21 22
f 3 22 23
f 3 23 24
f 4 7 25
f 5 19 27
f 5 27 26
f 6 25 7
f 12 28 32
f 12 32 23
f 12 23 31
f 12 31 37
f 12 37 44
f 12 44 60
f 12 60 67
f 12 67 49
f 12 49 40
f 12 40 34
f 12 34 29
f 12 29 18
f 12 18 17
f 12 17 16
f 12 16 15
f 12 15 14
f 12 14 13
f 18 29 19
f 19 29 26
f 19 26 27
f 20 30 21
f 21 30 36
f 21 36 42
f 21 42 58
f 21 58 46
f 21 46 38
f 21 38 31
f 21 31 23
f 21 23 22
f 23 32 24
f 24 32 28
f 26 29 33
f 29 34 35
f 29 35 33
f 31 38 37
f 33 35 40
f 33 40 39
f 34 40 35
f 36 41 42
f 37 43 44
f 37 38 45
f 37 45 43
f 38 46 45
f 39 47 48
f 39 40 49
f 39 49 50
f 39 50 51
f 39 51 52
f 39 52 47
f 41 53 54
f 41 54 55
f 41 55 56
f 41 56 57
f 41 57 42
f 42 57 58
f 43 45 59
f 43 59 44
f 44 59 61
f 44 61 62
f 44 62 60
f 45 46 63
f 45 63 59
f 46 58 64
f 46 64 63
f 47 55 65
f 47 65 66
f 47 66 48
f 47 52 55
f 49 67 50
f 50 67 60
f 50 60 62
f 50 62 61
f 50 61 59
f 50 59 51
f 51 59 68
f 51 68 52
f 52 68 69
f 52 69 56
f 52 56 55
f 53 65 54
f 54 65 55
f 56 69 57
f 57 69 70
f 57 70 58
f 58 70 71
f 58 71 64
f 59 63 64
f 59 64 68
f 64 71 69
f 64 69 68
f 69 71 70

