# https://github.com/mikedh/trimesh
v -2.70121868 0.38436527 2.41968668
v -2.70121868 0.39095953 2.42939920
v -2.70121868 0.38479242 2.41880541
v -2.60859442 0.33743113 2.42254621
v -2.61173287 0.33743113 2.43705336
v -2.64394149 0.36012391 2.46193244
v -2.70121868 0.39138668 2.43000932
v -2.70121868 0.39162695 2.40488373
v -2.59468048 0.33743113 2.41335752
v -2.60777057 0.33743113 2.44855307
v -2.59594898 0.33743113 2.45379143
v -2.63032835 0.35780128 2.46193244
v -2.70121868 0.44067016 2.46193244
v -2.70121868 0.39256135 2.40455093
v -2.59342513 0.33743113 2.41292612
v -2.59423588 0.33743113 2.41319731
v -2.57706580 0.33743113 2.45000133
v -2.60584822 0.36399512 2.46193244
v -2.61453136 0.35764107 2.46193244
v -2.70121868 0.45708909 2.46193244
v -2.70121868 0.40732503 2.39936806
v -2.58125044 0.33743113 2.41513855
v -2.70018558 0.40732503 2.39937422
v -2.64806073 0.40732503 2.40104431
v -2.63069450 0.40732503 2.40185164
v -2.60218667 0.36719876 2.46193244
v -2.57552270 0.33743113 2.44894133
v -2.59105819 0.40732503 2.46193244
v -2.59257508 0.38994502 2.46193244
v -2.59793668 0.37304555 2.46193244
v -2.70121868 0.45708909 2.43705336
v -2.64786458 0.59009574 2.46193244
v -2.70121868 0.40833954 2.39934341
v -2.58000815 0.33743113 2.41601367
v -2.63069450 0.42470509 2.40173454
v -2.60426592 0.53955748 2.41079999
v -2.59541283 0.52890523 2.41548984
v -2.58186504 0.51155189 2.42339667
v -2.70121868 0.42470509 2.39897363
v -2.70018558 0.42470509 2.39898596
v -2.68280625 0.42470509 2.39947281
v -2.64806073 0.42470509 2.40075467
v -2.56850041 0.33743113 2.43982045
v -2.57008271 0.34130224 2.44513275
v -2.59039124 0.49417183 2.46193244
v -2.70121868 0.45604786 2.41968668
v -2.64455608 0.59765113 2.46193244
v -2.70121868 0.45287089 2.40821778
v -2.56763731 0.33780489 2.42586177
v -2.56763731 0.33743113 2.42584945
v -2.61332826 0.52890523 2.40807603
v -2.61250441 0.54572460 2.40922232
v -2.60616207 0.55114419 2.41188464
v -2.58271509 0.52890523 2.42417933
v -2.56982116 0.39942260 2.42830839
v -2.56885346 0.37256501 2.42723606
v -2.56823886 0.35518495 2.42654584
v -2.70121868 0.44205843 2.40171605
v -2.62471830 0.55998102 2.41001730
v -2.61774831 0.55998102 2.41001730
v -2.56808191 0.33743113 2.43826741
v -2.57034426 0.35518495 2.44410972
v -2.58097585 0.51155189 2.45195493
v -2.59069204 0.52890523 2.46193244
v -2.59036509 0.51155189 2.46193244
v -2.64336609 0.59543523 2.45443236
v -2.63809609 0.60651468 2.46193244
v -2.64115609 0.59169761 2.44287100
v -2.64169224 0.57583932 2.42544886
v -2.56823886 0.35518495 2.43542640
v -2.56775501 0.33743113 2.42923896
v -2.58461124 0.53982447 2.42593572
v -2.61250441 0.56492008 2.41322812
v -2.60294518 0.57591942 2.42522084
v -2.57719660 0.52890523 2.43705336
v -2.57557505 0.51155189 2.43705336
v -2.56982116 0.39942260 2.42880140
v -2.56885346 0.37256501 2.43361453
v -2.63058990 0.56492008 2.41373345
v -2.62966145 0.58139240 2.42293447
v -2.62318830 0.59017585 2.42783386
v -2.62052061 0.59017585 2.42783386
v -2.61416521 0.58144579 2.42279888
v -2.57477735 0.49417183 2.43705336
v -2.57057960 0.37256501 2.44230404
v -2.58174740 0.52890523 2.45141876
v -2.59907438 0.58104531 2.46193244
v -2.62858910 0.61017224 2.46193244
v -2.62755605 0.60921111 2.45960293
v -2.63228990 0.60387163 2.45405642
v -2.62966145 0.59380669 2.43707184
v -2.63476144 0.58739930 2.43129118
v -2.60329822 0.59175100 2.44253822
v -2.60430517 0.60552689 2.46193244
v -2.60893442 0.58750608 2.43095221
v -2.60184668 0.59778462 2.46193244
v -2.56948116 0.38994502 2.43077349
v -2.61621831 0.60921111 2.45960293
v -2.61416521 0.59383341 2.43686847
v -2.61976216 0.61017224 2.46193244
v -2.60556057 0.60670156 2.46193244
v -2.61519826 0.61006546 2.46193244
v -2.60856827 0.60782289 2.46193244
v -2.61158902 0.60400512 2.45405642
f 1 2 7
f 1 7 13
f 1 13 20
f 1 20 31
f 1 31 46
f 1 46 48
f 1 48 58
f 1 58 39
f 1 39 33
f 1 33 21
f 1 21 14
f 1 14 8
f 1 8 3
f 1 3 4
f 1 4 5
f 1 5 6
f 1 6 2
f 2 6 7
f 3 8 4
f 4 9 16
f 4 16 15
f 4 15 22
f 4 22 34
f 4 34 50
f 4 50 71
f 4 71 61
f 4 61 43
f 4 43 27
f 4 27 17
f 4 17 11
f 4 11 10
f 4 10 5
f 4 8 9
f 5 10 6
f 6 10 11
f 6 11 12
f 6 12 19
f 6 19 18
f 6 18 26
f 6 26 30
f 6 30 29
f 6 29 28
f 6 28 45
f 6 45 65
f 6 65 64
f 6 64 87
f 6 87 96
f 6 96 94
f 6 94 101
f 6 101 103
f 6 103 102
f 6 102 100
f 6 100 88
f 6 88 67
f 6 67 47
f 6 47 32
f 6 32 20
f 6 20 13
f 6 13 7
f 8 14 15
f 8 15 16
f 8 16 9
f 11 17 18
f 11 18 19
f 11 19 12
f 14 21 15
f 15 21 23
f 15 23 24
f 15 24 25
f 15 25 22
f 17 26 18
f 17 27 28
f 17 28 29
f 17 29 30
f 17 30 26
f 20 32 31
f 21 33 23
f 22 25 35
f 22 35 36
f 22 36 37
f 22 37 38
f 22 38 34
f 23 33 39
f 23 39 40
f 23 40 41
f 23 41 24
f 24 41 42
f 24 42 25
f 25 42 35
f 27 43 44
f 27 44 28
f 28 44 45
f 31 32 46
f 32 47 48
f 32 48 46
f 34 49 50
f 34 38 49
f 35 42 51
f 35 51 36
f 36 51 52
f 36 52 53
f 36 53 54
f 36 54 37
f 37 54 38
f 38 54 55
f 38 55 56
f 38 56 57
f 38 57 49
f 39 58 59
f 39 59 60
f 39 60 40
f 40 60 51
f 40 51 41
f 41 51 42
f 43 61 62
f 43 62 44
f 44 62 63
f 44 63 64
f 44 64 65
f 44 65 45
f 47 66 48
f 47 67 66
f 48 66 68
f 48 68 69
f 48 69 58
f 49 57 70
f 49 70 61
f 49 61 71
f 49 71 50
f 51 60 52
f 52 60 53
f 53 72 54
f 53 60 73
f 53 73 74
f 53 74 72
f 54 72 75
f 54 75 76
f 54 76 55
f 55 77 78
f 55 78 56
f 55 76 77
f 56 78 70
f 56 70 57
f 58 69 79
f 58 79 59
f 59 79 80
f 59 80 81
f 59 81 82
f 59 82 60
f 60 82 83
f 60 83 73
f 61 70 84
f 61 84 85
f 61 85 62
f 62 85 76
f 62 76 63
f 63 76 86
f 63 86 64
f 64 86 87
f 66 67 68
f 67 88 89
f 67 89 90
f 67 90 91
f 67 91 92
f 67 92 68
f 68 92 69
f 69 92 80
f 69 80 79
f 70 78 84
f 72 74 93
f 72 93 94
f 72 94 75
f 73 83 74
f 74 83 95
f 74 95 93
f 75 86 76
f 75 94 96
f 75 96 86
f 76 85 84
f 76 84 78
f 76 78 97
f 76 97 77
f 77 97 78
f 80 92 81
f 81 91 89
f 81 89 98
f 81 98 82
f 81 92 91
f 82 95 83
f 82 98 99
f 82 99 95
f 86 96 87
f 88 100 98
f 88 98 89
f 89 91 90
f 93 95 101
f 93 101 94
f 95 99 101
f 98 100 102
f 98 102 103
f 98 103 104
f 98 104 99
f 99 104 101
f 101 104 103

