# https://github.com/mikedh/trimesh
v -2.44223405 0.47023946 1.80292847
v -2.51777517 0.47023946 1.80292847
v -2.44228593 0.47023946 1.80376048
v -2.00495654 0.45946505 1.80292847
v -2.51746406 0.42441552 1.80292847
v -2.53327741 0.34861373 1.81851684
v -2.52301166 0.47023946 1.81038094
v -2.44295993 0.47023946 1.81155764
v -2.00495654 0.45910791 1.81120106
v -2.00495654 0.45877454 1.80292847
v -2.44487824 0.47023946 1.82391304
v -2.45861772 0.47023946 1.84424982
v -2.51730851 0.40730742 1.80292847
v -2.52752238 0.34861373 1.81307309
v -2.53462540 0.34861373 1.82211827
v -2.52529296 0.47023946 1.82238569
v -2.00495654 0.45908409 1.81156359
v -2.00495654 0.43901153 1.80305327
v -2.00521576 0.43904726 1.80292847
v -2.47427552 0.47023946 1.85106639
v -2.51684185 0.38997314 1.80292847
v -2.51621975 0.37255548 1.80327911
v -2.50958328 0.34861373 1.80440234
v -2.53322553 0.34861373 1.82812065
v -2.52643361 0.47023946 1.82893483
v -2.00495654 0.45784594 1.82859609
v -2.00495654 0.39088988 1.83230448
v -2.00521576 0.39094938 1.83212025
v -2.46198779 0.36075730 1.80292847
v -2.47427552 0.43776147 1.85642694
v -2.45690674 0.42467744 1.86026608
v -2.42216931 0.42467744 1.86226291
v -2.40480054 0.42467744 1.86308304
v -2.40480054 0.44204745 1.85910721
v -2.38743176 0.44204745 1.85933898
v -2.28311568 0.44203554 1.85937463
v -2.16163816 0.44203554 1.85937463
v -2.05732197 0.44203554 1.85930332
v -2.03995330 0.44203554 1.85924390
v -2.03995330 0.45109555 1.85536315
v -2.02657670 0.45092886 1.85519674
v -2.01501485 0.45063122 1.85486988
v -2.00495654 0.45394096 1.84540275
v -2.49164424 0.47023946 1.84932511
v -2.51523465 0.37255548 1.80292847
v -2.50745758 0.35773324 1.80292847
v -2.49148873 0.35604267 1.80292847
v -2.47536428 0.35854290 1.80292847
v -2.00495654 0.38634199 1.84630014
v -2.49200717 0.34861373 1.81110596
v -2.52762604 0.34861373 1.83783143
v -2.53167010 0.37255548 1.82893483
v -2.52031564 0.47023946 1.83974507
v -2.47427552 0.42467744 1.85824548
v -2.48381534 0.43479706 1.85544040
v -2.47427552 0.40730742 1.85813850
v -2.45690674 0.40730742 1.86015316
v -2.42216931 0.40730742 1.86214406
v -2.40480054 0.40730742 1.86294635
v -2.38743176 0.42467744 1.86337425
v -2.28311568 0.42466553 1.86362979
v -2.26579879 0.42466553 1.86363574
v -2.16163816 0.42466553 1.86364168
v -2.05732197 0.42466553 1.86335047
v -2.03995330 0.42466553 1.86324944
v -2.02258453 0.42466553 1.86260761
v -2.00521576 0.44147598 1.85807314
v -2.02149576 0.44371420 1.85797210
v -2.00495654 0.44158312 1.85801965
v -2.00495654 0.45015504 1.85437661
v -2.49822882 0.47023946 1.84761948
v -2.00495654 0.39402098 1.85794833
v -2.50901295 0.34861373 1.84687661
v -2.50097672 0.34861373 1.84377438
v -2.49605123 0.34861373 1.84174783
v -2.49097024 0.34861373 1.83361193
v -2.48889633 0.34861373 1.82860797
v -2.49107396 0.34861373 1.81442808
v -2.52430786 0.34861373 1.84274031
v -2.52124890 0.44204745 1.84048199
v -2.52067858 0.45940555 1.84003032
v -2.48464493 0.42467744 1.85585641
v -2.51342000 0.47023946 1.84250259
v -2.48454122 0.40730742 1.85580292
v -2.38743176 0.40730742 1.86321973
v -2.28311568 0.40730742 1.86341584
v -2.26579879 0.40730742 1.86342179
v -2.16163816 0.40730742 1.86342179
v -2.05732197 0.40730742 1.86320189
v -2.03995330 0.40730742 1.86310087
v -2.02258453 0.40730742 1.86247686
v -2.00495654 0.40730742 1.86146061
v -2.00495654 0.42466553 1.86158542
v -2.02258453 0.39353288 1.85842971
v -2.03995330 0.39324715 1.85872686
v -2.52290799 0.38993741 1.84177756
f 1 2 7
f 1 7 16
f 1 16 25
f 1 25 53
f 1 53 83
f 1 83 71
f 1 71 44
f 1 44 20
f 1 20 12
f 1 12 11
f 1 11 8
f 1 8 3
f 1 3 4
f 1 4 10
f 1 10 19
f 1 19 29
f 1 29 48
f 1 48 47
f 1 47 46
f 1 46 45
f 1 45 21
f 1 21 13
f 1 13 5
f 1 5 2
f 2 5 6
f 2 6 7
f 3 8 4
f 4 9 17
f 4 17 26
f 4 26 43
f 4 43 70
f 4 70 69
f 4 69 93
f 4 93 92
f 4 92 72
f 4 72 49
f 4 49 27
f 4 27 18
f 4 18 10
f 4 8 11
f 4 11 12
f 4 12 9
f 5 13 14
f 5 14 6
f 6 14 23
f 6 23 50
f 6 50 78
f 6 78 77
f 6 77 76
f 6 76 75
f 6 75 74
f 6 74 73
f 6 73 79
f 6 79 51
f 6 51 24
f 6 24 15
f 6 15 7
f 7 15 16
f 9 12 17
f 10 18 19
f 12 20 17
f 13 21 14
f 14 21 22
f 14 22 23
f 15 24 25
f 15 25 16
f 17 20 26
f 18 27 28
f 18 28 19
f 19 28 23
f 19 23 29
f 20 30 31
f 20 31 32
f 20 32 33
f 20 33 34
f 20 34 35
f 20 35 36
f 20 36 37
f 20 37 38
f 20 38 39
f 20 39 40
f 20 40 41
f 20 41 42
f 20 42 43
f 20 43 26
f 20 44 30
f 21 45 22
f 22 45 23
f 23 45 46
f 23 46 47
f 23 47 48
f 23 48 29
f 23 28 27
f 23 27 49
f 23 49 50
f 24 51 52
f 24 52 25
f 25 52 53
f 30 54 31
f 30 44 55
f 30 55 54
f 31 54 56
f 31 56 57
f 31 57 32
f 32 58 33
f 32 57 58
f 33 58 59
f 33 59 60
f 33 60 34
f 34 60 35
f 35 60 61
f 35 61 62
f 35 62 36
f 36 62 63
f 36 63 37
f 37 63 38
f 38 63 64
f 38 64 39
f 39 64 65
f 39 65 66
f 39 66 67
f 39 67 68
f 39 68 41
f 39 41 40
f 41 68 42
f 42 69 70
f 42 70 43
f 42 68 69
f 44 71 55
f 49 72 73
f 49 73 74
f 49 74 75
f 49 75 76
f 49 76 77
f 49 77 78
f 49 78 50
f 51 79 80
f 51 80 81
f 51 81 53
f 51 53 52
f 53 81 82
f 53 82 83
f 54 55 82
f 54 82 84
f 54 84 56
f 55 71 83
f 55 83 82
f 56 84 73
f 56 73 57
f 57 73 58
f 58 73 59
f 59 85 60
f 59 73 85
f 60 85 61
f 61 86 87
f 61 87 62
f 61 85 86
f 62 87 63
f 63 88 89
f 63 89 64
f 63 87 88
f 64 89 90
f 64 90 65
f 65 90 91
f 65 91 66
f 66 91 92
f 66 92 93
f 66 93 67
f 67 93 69
f 67 69 68
f 72 92 91
f 72 91 90
f 72 90 94
f 72 94 73
f 73 84 79
f 73 94 95
f 73 95 89
f 73 89 88
f 73 88 87
f 73 87 86
f 73 86 85
f 79 84 82
f 79 82 96
f 79 96 80
f 80 96 82
f 80 82 81
f 89 95 90
f 90 95 94

