# https://github.com/mikedh/trimesh
v -1.05920468 1.60618270 -0.33691529
v -1.05920468 1.59527723 -0.33544592
v -1.05920468 1.61827451 -0.33565574
v -0.55846385 1.61508014 -0.33599170
v -0.55846385 1.60618270 -0.33691529
v -0.55846385 1.60329853 -0.33653749
v -1.05920468 1.57118071 -0.32654525
v -0.55846385 1.59527723 -0.33544592
v -1.05920468 1.62561557 -0.32553757
v -0.55846385 1.62367826 -0.32822463
v -0.55846385 1.61827451 -0.33565574
v -1.05920468 1.57118071 -0.30769437
v -0.55846385 1.57118071 -0.32654525
v -1.05920468 1.62677468 -0.30819811
v -0.55846385 1.62561557 -0.32553757
v -1.05920468 1.59091832 0.05664354
v -0.55846385 1.57118071 -0.30769437
v -1.05920468 1.62571895 0.09199418
v -0.55846385 1.62677468 -0.30819811
v -1.05920468 1.59445007 0.06999455
v -0.55846385 1.59091832 0.05664354
v -1.05920468 1.62355854 0.09199418
v -0.55846385 1.62571895 0.09199418
v -1.05920468 1.60051774 0.07868521
v -0.55846385 1.59445007 0.06999455
v -0.55846385 1.59604997 0.07230361
v -1.05920468 1.60920293 0.08733402
v -0.55846385 1.62355854 0.09199418
v -0.55846385 1.60051774 0.07868521
v -0.55846385 1.60920293 0.08733402
f 1 2 7
f 1 7 12
f 1 12 16
f 1 16 20
f 1 20 24
f 1 24 27
f 1 27 22
f 1 22 18
f 1 18 14
f 1 14 9
f 1 9 3
f 1 3 4
f 1 4 5
f 1 5 6
f 1 6 2
f 2 6 8
f 2 8 13
f 2 13 7
f 3 9 10
f 3 10 11
f 3 11 4
f 4 11 10
f 4 10 15
f 4 15 19
f 4 19 23
f 4 23 28
f 4 28 30
f 4 30 29
f 4 29 26
f 4 26 25
f 4 25 21
f 4 21 17
f 4 17 13
f 4 13 8
f 4 8 6
f 4 6 5
f 7 13 17
f 7 17 12
f 9 14 19
f 9 19 15
f 9 15 10
f 12 17 21
f 12 21 16
f 14 18 23
f 14 23 19
f 16 21 25
f 16 25 20
f 18 22 28
f 18 28 23
f 20 25 26
f 20 26 24
f 22 27 30
f 22 30 28
f 24 26 29
f 24 29 30
f 24 30 27

