# https://github.com/mikedh/trimesh
v -3.95436229 0.56271852 2.63994026
v -3.95516760 0.56271852 2.64440287
v -3.94347475 0.59237595 2.63994026
v -3.70014848 0.56271852 2.63994026
v -3.95536085 0.56271852 2.64557526
v -3.94379688 0.59326909 2.64557526
v -3.94047911 0.60195378 2.64557526
v -3.93503534 0.61580217 2.64557526
v -3.92778775 0.63087213 2.63994026
v -3.69277202 0.56303672 2.63994026
v -3.69344847 0.56271852 2.64557526
v -3.95587624 0.56271852 2.66138348
v -3.93059013 0.64885752 2.83311855
v -3.92833534 0.63213478 2.64557526
v -3.92466323 0.64080928 2.64557526
v -3.92050794 0.65054111 2.64557526
v -3.91928387 0.65054111 2.63994026
v -3.69383500 0.56271852 2.72474888
v -3.69344847 0.56271852 2.64653965
v -3.62718925 0.61748575 2.63994026
v -3.62683491 0.61807088 2.83311855
v -3.95590845 0.56271852 2.66295299
v -3.95581182 0.56271852 2.68031182
v -3.95552190 0.56271852 2.71506723
v -3.95542527 0.56271852 2.72474888
v -3.93059013 0.58106323 2.83311855
v -3.91348581 0.66758205 2.83311855
v -3.91335697 0.66758205 2.72474888
v -3.92041127 0.65074642 2.64557526
v -3.91760888 0.65074642 2.63994026
v -3.69302971 0.58056022 2.83311855
v -3.62683491 0.61792714 2.63994026
v -3.62683491 0.61782451 2.64557526
v -3.62683491 0.63462937 2.83311855
v -3.93052571 0.58056022 2.83311855
v -3.66796911 0.66758205 2.83311855
v -3.66796911 0.66758205 2.72474888
v -3.67428256 0.65074642 2.63994026
v -3.62683491 0.63469094 2.63994026
v -3.67276862 0.65054111 2.63994026
f 1 2 3
f 1 3 9
f 1 9 17
f 1 17 30
f 1 30 38
f 1 38 40
f 1 40 39
f 1 39 32
f 1 32 20
f 1 20 10
f 1 10 4
f 1 4 11
f 1 11 19
f 1 19 18
f 1 18 25
f 1 25 24
f 1 24 23
f 1 23 22
f 1 22 12
f 1 12 5
f 1 5 2
f 2 5 3
f 3 5 6
f 3 6 7
f 3 7 8
f 3 8 9
f 4 10 11
f 5 12 13
f 5 13 6
f 6 13 7
f 7 13 8
f 8 13 14
f 8 14 9
f 9 14 15
f 9 15 16
f 9 16 17
f 10 18 19
f 10 19 11
f 10 20 21
f 10 21 18
f 12 22 13
f 13 15 14
f 13 22 23
f 13 23 24
f 13 24 25
f 13 25 26
f 13 26 35
f 13 35 31
f 13 31 21
f 13 21 34
f 13 34 36
f 13 36 27
f 13 27 28
f 13 28 29
f 13 29 16
f 13 16 15
f 16 29 17
f 17 29 28
f 17 28 30
f 18 21 31
f 18 31 35
f 18 35 25
f 20 32 33
f 20 33 21
f 21 33 32
f 21 32 39
f 21 39 34
f 25 35 26
f 27 36 37
f 27 37 28
f 28 37 38
f 28 38 30
f 34 39 36
f 36 39 37
f 37 39 40
f 37 40 38

