# https://github.com/mikedh/trimesh
v -6.36767117 2.49231254 4.15892209
v -6.37101317 2.50359902 4.15892209
v -6.36840792 2.47494471 4.15892209
v -6.36767117 2.49231254 3.77554171
v -6.37140795 2.50487772 4.15892209
v -6.37127643 2.50447040 3.77554171
v -6.36877640 2.47378427 4.15892209
v -6.36851335 2.47457529 3.77554171
v -6.36840792 2.47494471 3.77554171
v -6.37988153 2.50487772 4.15892209
v -6.37140795 2.50487772 3.77554171
v -6.37211861 2.46356347 4.15892209
v -6.37211861 2.46339777 3.77554171
v -6.63651217 2.47957203 4.15869694
v -6.63651217 2.47717070 4.15892209
v -6.37988153 2.50487772 3.77554171
v -6.38372375 2.46065550 4.15892209
v -6.38372375 2.46030494 3.77554171
v -6.38335527 2.46039970 3.77554171
v -6.63651217 2.47957203 3.77554171
v -6.63651217 2.45671967 4.15892209
v -6.63651217 2.45649701 3.77554171
f 1 2 5
f 1 5 10
f 1 10 15
f 1 15 21
f 1 21 17
f 1 17 12
f 1 12 7
f 1 7 3
f 1 3 9
f 1 9 4
f 1 4 2
f 2 4 6
f 2 6 5
f 3 7 8
f 3 8 9
f 4 9 8
f 4 8 13
f 4 13 19
f 4 19 18
f 4 18 22
f 4 22 20
f 4 20 16
f 4 16 11
f 4 11 6
f 5 6 11
f 5 11 16
f 5 16 10
f 7 12 13
f 7 13 8
f 10 14 15
f 10 16 20
f 10 20 14
f 12 17 18
f 12 18 19
f 12 19 13
f 14 20 22
f 14 22 21
f 14 21 15
f 17 21 18
f 18 21 22

