# https://github.com/mikedh/trimesh
v -1.37940934 0.37255424 1.75961896
v -1.38865799 0.36348973 1.75098470
v -1.37940934 0.36099923 1.75542241
v -1.37940934 0.38904893 1.75621027
v -1.48277398 0.38992824 1.68830997
v -1.48277398 0.37371436 1.69110767
v -1.48277398 0.37255424 1.69130061
v -1.37969269 0.36063085 1.75503653
v -1.48277398 0.35840278 1.68617151
v -1.37940934 0.36058021 1.75514907
v -1.37940934 0.39710526 1.75109725
v -1.48277398 0.39984441 1.68318088
v -1.37969269 0.35595360 1.74204495
v -1.48277398 0.35550704 1.67256894
v -1.37940934 0.35599503 1.74204495
v -1.37940934 0.39968327 1.74328301
v -1.39256400 0.39942550 1.73662642
v -1.48277398 0.39987201 1.68247341
v -1.46655322 0.35457714 1.67256894
v -1.44917916 0.35373009 1.67256894
v -1.43093476 0.35686051 1.59537517
v -1.48277398 0.36098079 1.66173190
v -1.44504055 0.35868354 1.59537517
v -1.37940934 0.35908868 1.72644862
v -1.42151419 0.36134906 1.59537517
v -1.37940934 0.39970170 1.74230221
v -1.37991535 0.39971092 1.74227005
v -1.44917916 0.40075593 1.67256894
v -1.48277398 0.39992266 1.67256894
v -1.48277398 0.37255424 1.65981854
v -1.44966488 0.37255424 1.59537517
v -1.44805591 0.36664324 1.59537517
v -1.37940934 0.35938332 1.72595017
v -1.42067429 0.36541860 1.59537517
v -1.37940934 0.39911703 1.72924632
v -1.37969269 0.39937025 1.72918201
v -1.43179496 0.39980760 1.59537517
v -1.43782568 0.39995953 1.59537517
v -1.48277398 0.39983981 1.67176500
v -1.44225780 0.39972475 1.59537517
v -1.48277398 0.38999271 1.66150681
v -1.48277398 0.39818253 1.66317897
v -1.44688212 0.38992824 1.59537517
v -1.37940934 0.37255424 1.72030655
v -1.41990523 0.37255424 1.59537517
v -1.37940934 0.39124029 1.72299169
v -1.42293074 0.39716973 1.59537517
v -1.42320394 0.39817331 1.59537517
v -1.42399330 0.39875798 1.59537517
v -1.42818245 0.39943011 1.59537517
v -1.48277398 0.39869351 1.66359703
v -1.37940934 0.37527041 1.72054774
v -1.42161527 0.38992824 1.59537517
f 1 2 3
f 1 3 10
f 1 10 15
f 1 15 24
f 1 24 33
f 1 33 44
f 1 44 52
f 1 52 46
f 1 46 35
f 1 35 26
f 1 26 16
f 1 16 11
f 1 11 4
f 1 4 5
f 1 5 6
f 1 6 7
f 1 7 2
f 2 8 3
f 2 7 9
f 2 9 8
f 3 8 10
f 4 11 12
f 4 12 5
f 5 12 18
f 5 18 29
f 5 29 39
f 5 39 51
f 5 51 42
f 5 42 41
f 5 41 30
f 5 30 22
f 5 22 14
f 5 14 9
f 5 9 7
f 5 7 6
f 8 9 10
f 9 13 10
f 9 14 13
f 10 13 15
f 11 16 17
f 11 17 12
f 12 17 16
f 12 16 18
f 13 14 19
f 13 19 20
f 13 20 21
f 13 21 15
f 14 22 23
f 14 23 21
f 14 21 19
f 15 21 25
f 15 25 24
f 16 26 27
f 16 27 18
f 18 27 28
f 18 28 29
f 19 21 20
f 21 23 32
f 21 32 31
f 21 31 43
f 21 43 40
f 21 40 38
f 21 38 37
f 21 37 50
f 21 50 49
f 21 49 48
f 21 48 47
f 21 47 53
f 21 53 45
f 21 45 34
f 21 34 25
f 22 30 31
f 22 31 32
f 22 32 23
f 24 25 33
f 25 34 33
f 26 35 36
f 26 36 37
f 26 37 38
f 26 38 28
f 26 28 27
f 28 38 29
f 29 38 40
f 29 40 39
f 30 41 31
f 31 41 42
f 31 42 43
f 33 34 44
f 34 45 44
f 35 46 47
f 35 47 48
f 35 48 36
f 36 48 49
f 36 49 50
f 36 50 37
f 39 40 51
f 40 43 42
f 40 42 51
f 44 45 52
f 45 53 46
f 45 46 52
f 46 53 47

