# https://github.com/mikedh/trimesh
v -3.29501620 -0.00754617 3.27106120
v -3.29501620 -0.00484181 3.27963596
v -3.29501620 -0.00680859 3.26827420
v -2.71519673 -0.00484181 3.26078219
v -2.71519673 -0.00754617 3.27106120
v -3.29501620 -0.00385847 3.28226058
v -2.71519673 -0.00705445 3.27258866
v -2.71519673 -0.00385847 3.28226058
v -3.29501620 -0.00435019 3.25916070
v -2.71519673 -0.00435019 3.25916070
v -2.71519673 -0.00238341 3.28261114
v -3.29501620 0.00769634 3.28481684
v -3.29501620 -0.00164583 3.25838273
v -2.71519673 0.00769634 3.25584656
v -2.71519673 0.00769634 3.28481684
v -3.29501620 0.02515148 3.28486241
v -3.29501620 0.00769634 3.25584656
v -2.71519673 0.02515148 3.25574962
v -2.71519673 0.02515148 3.28486241
v -3.29501620 2.47477424 3.28486241
v -3.29501620 0.02515148 3.25574962
v -2.71519673 0.07727115 3.25574962
v -2.71519673 2.47477424 3.28486241
v -3.29501620 2.48804997 3.28482823
v -3.29501620 0.07727115 3.25574962
v -2.71519673 2.49222938 3.26935706
v -2.71519673 2.49222938 3.28481684
v -3.29501620 2.49222938 3.28481684
v -3.29501620 2.49222938 3.26935706
v -2.71519673 2.50403005 3.27458630
v -2.71519673 2.50403005 3.28226058
v -3.29501620 2.50403005 3.28226058
v -3.29501620 2.50403005 3.27458630
f 1 2 6
f 1 6 12
f 1 12 16
f 1 16 20
f 1 20 24
f 1 24 28
f 1 28 32
f 1 32 33
f 1 33 29
f 1 29 25
f 1 25 21
f 1 21 17
f 1 17 13
f 1 13 9
f 1 9 3
f 1 3 4
f 1 4 5
f 1 5 2
f 2 5 7
f 2 7 8
f 2 8 6
f 3 9 4
f 4 9 10
f 4 10 14
f 4 14 18
f 4 18 22
f 4 22 26
f 4 26 30
f 4 30 31
f 4 31 27
f 4 27 23
f 4 23 19
f 4 19 15
f 4 15 11
f 4 11 8
f 4 8 7
f 4 7 5
f 6 8 11
f 6 11 12
f 9 13 10
f 10 13 14
f 11 15 12
f 12 15 19
f 12 19 16
f 13 17 14
f 14 17 21
f 14 21 18
f 16 19 23
f 16 23 20
f 18 21 25
f 18 25 22
f 20 23 24
f 22 25 29
f 22 29 26
f 23 27 24
f 24 27 28
f 26 29 33
f 26 33 30
f 27 31 32
f 27 32 28
f 30 33 32
f 30 32 31

