# https://github.com/mikedh/trimesh
v -6.48796848 1.86681123 4.01687226
v -6.47223736 1.86681123 4.01356899
v -6.47251533 1.88417389 4.01333390
v -6.48796848 1.88417389 4.01645800
v -6.50533508 1.88417389 4.01365868
v -6.50533508 1.86681123 4.01397206
v -6.48796848 1.67569895 4.01687226
v -6.46354837 1.86681123 4.00849644
v -6.47223736 1.67569895 4.01356899
v -6.46382654 1.88417389 4.00825017
v -6.47495177 1.89528793 4.01190058
v -6.51567052 1.89370723 4.01012011
v -6.48796848 1.89637462 4.01276285
v -6.50533508 1.89516443 4.01141901
v -6.51679419 1.88417389 4.01054555
v -6.51708334 1.86681123 4.01065761
v -6.50533508 1.67569895 4.01397206
v -6.50533508 1.66196692 4.01173260
v -6.48796848 1.65934896 4.01318829
v -6.47458474 1.66164585 4.01221417
v -6.45322410 1.86681123 4.00158750
v -6.45322410 1.88417389 4.00119562
v -6.46354837 1.67569895 4.00849644
v -6.45321292 1.65038361 3.99895595
v -6.44373415 1.89390483 3.99311081
v -6.45322410 1.89610297 3.99645882
v -6.46973402 1.89825166 4.00194583
v -6.48796848 1.90126480 4.00081492
v -6.52547179 1.88417389 4.00540589
v -6.50533508 1.90007930 4.00081492
v -6.52195622 1.89647342 4.00081492
v -6.53319288 1.89476928 3.99502570
v -6.52577234 1.86681123 4.00565217
v -6.51708334 1.67569895 4.01065761
v -6.51605992 1.66515293 4.01027691
v -6.50533508 1.65038361 4.00757825
v -6.48953705 1.65038361 4.00882122
v -6.48796848 1.65038361 4.00894446
v -6.48486447 1.65038361 4.00857494
v -6.47023465 1.65038361 4.00662650
v -6.44308894 1.86681123 3.99390577
v -6.44321136 1.88417389 3.99376036
v -6.45322410 1.67569895 4.00158750
v -6.43854975 1.65038361 3.96689698
v -6.44356741 1.66478248 3.99331235
v -6.44233251 1.89543613 3.98343589
v -6.45322410 1.90032630 3.98343589
v -6.43979583 1.88417389 3.98343589
v -6.43562387 1.88417389 3.96605707
v -6.52271286 1.90165999 3.98343589
v -6.47059070 1.90269729 3.98343589
v -6.50533508 1.90269729 3.98343589
v -6.53426083 1.88417389 3.99671649
v -6.54239348 1.88417389 3.98343589
v -6.53670845 1.89674507 3.98343589
v -6.53443896 1.86681123 3.99696276
v -6.52577234 1.67569895 4.00565217
v -6.52349166 1.65038361 4.00131865
v -6.51232169 1.65038361 4.00519317
v -6.43946214 1.86681123 3.98343589
v -6.44308894 1.67569895 3.99390577
v -6.43851640 1.65038361 3.95806196
v -6.43512324 1.67569895 3.96605707
v -6.43946214 1.67569895 3.98343589
v -6.44032980 1.89696737 3.96605707
v -6.45322410 1.90188224 3.96605707
v -6.43512324 1.86681123 3.96605707
v -6.43564603 1.88417389 3.94870063
v -6.53954548 1.89778241 3.96605707
v -6.52271286 1.90269729 3.96605707
v -6.47059070 1.90269729 3.94870063
v -6.54278288 1.86681123 3.98343589
v -6.54820092 1.88249439 3.96435511
v -6.54843456 1.86681123 3.96613558
v -6.53443896 1.67569895 3.99696276
v -6.53342652 1.66295484 3.99535027
v -6.53892244 1.65038361 3.98425342
v -6.43852758 1.65038361 3.94833111
v -6.43515659 1.67569895 3.94870063
v -6.44032980 1.89681922 3.94870063
v -6.47059070 1.90262319 3.93132181
v -6.45322410 1.90173404 3.94870063
v -6.43515659 1.86681123 3.94870063
v -6.44113097 1.88417389 3.93437880
v -6.44239921 1.89501623 3.93642792
v -6.52271286 1.90269729 3.94870063
v -6.53856639 1.89778241 3.94870063
v -6.48796848 1.90269729 3.93132181
v -6.54278288 1.67569895 3.98343589
v -6.54669904 1.88249439 3.95043636
v -6.54876824 1.87555428 3.95737885
v -6.54876824 1.87555428 3.95743498
v -6.54877942 1.86681123 3.95745735
v -6.54843456 1.67569895 3.96613558
v -6.54482992 1.65038361 3.96549721
v -6.45621689 1.65038361 3.91706710
v -6.44213222 1.66228799 3.93608077
v -6.44093068 1.67569895 3.93410995
v -6.45236742 1.89802936 3.93090756
v -6.45759635 1.89605357 3.91853397
v -6.47214830 1.89681922 3.91322633
v -6.48796848 1.89919021 3.91394299
v -6.44093068 1.86681123 3.93410995
v -6.44623749 1.86681123 3.92542054
v -6.44649329 1.88417389 3.92568940
v -6.50533508 1.90269729 3.93132181
v -6.52271286 1.90136360 3.93132181
v -6.53559597 1.89644872 3.93132181
v -6.54025737 1.88417389 3.93132181
v -6.54662116 1.86681123 3.94868944
v -6.54877942 1.86681123 3.95737885
v -6.54877942 1.67569895 3.95745735
v -6.54876824 1.66700529 3.95743498
v -6.54429594 1.65038361 3.95440036
v -6.54876824 1.66700529 3.95737885
v -6.46240254 1.65038361 3.91311428
v -6.45525996 1.67569895 3.91630570
v -6.44657117 1.67569895 3.92542054
v -6.44623749 1.69306158 3.92542054
v -6.47897915 1.89296634 3.90518627
v -6.45518208 1.88417389 3.91621601
v -6.46971186 1.88417389 3.90752660
v -6.48796848 1.89427528 3.90413386
v -6.50046220 1.89464578 3.90383145
v -6.50589142 1.89785651 3.91282326
v -6.45492627 1.86681123 3.91593618
v -6.52271286 1.89644872 3.91804142
v -6.53300377 1.89437408 3.92127738
v -6.53399384 1.88417389 3.92044887
v -6.54071368 1.86681123 3.93132181
v -6.54662116 1.67569895 3.94868944
v -6.54877942 1.67569895 3.95737885
v -6.54377295 1.65038361 3.94932781
v -6.54114740 1.65038361 3.93902591
v -6.47103581 1.65038361 3.91072921
v -6.47842301 1.66646192 3.90504087
v -6.46930029 1.67569895 3.90762747
v -6.45492627 1.69306158 3.91593618
v -6.47840064 1.88417389 3.90504087
v -6.48796848 1.88417389 3.90274527
v -6.46930029 1.86681123 3.90725796
v -6.50267618 1.88417389 3.90296918
v -6.51136497 1.88417389 3.90654130
v -6.52271286 1.88417389 3.91304717
v -6.52271286 1.86681123 3.91264410
v -6.53417197 1.86681123 3.92029207
v -6.54071368 1.67569895 3.93132181
v -6.53782094 1.65038361 3.93127707
v -6.47981367 1.65038361 3.90920641
v -6.48796848 1.66376986 3.90387619
v -6.48796848 1.67569895 3.90248781
v -6.47798908 1.67569895 3.90494000
v -6.46930029 1.69306158 3.90725796
v -6.47798908 1.86681123 3.90494000
v -6.48796848 1.86681123 3.90249900
v -6.50298770 1.86681123 3.90281238
v -6.51167649 1.86681123 3.90629502
v -6.52271286 1.67569895 3.91264410
v -6.53417197 1.67569895 3.92029207
v -6.52301319 1.65038361 3.91567851
v -6.53324839 1.66386866 3.92107584
v -6.48796848 1.65038361 3.90786256
v -6.50087376 1.66322651 3.90362991
v -6.48796848 1.71044889 3.90248781
v -6.50298770 1.67569895 3.90281238
v -6.51167649 1.67569895 3.90629502
v -6.50561325 1.65038361 3.90864654
v -6.49364232 1.65038361 3.90805291
f 1 2 3
f 1 3 4
f 1 4 5
f 1 5 6
f 1 6 17
f 1 17 7
f 1 7 9
f 1 9 2
f 2 8 3
f 2 9 23
f 2 23 8
f 3 8 10
f 3 10 11
f 3 11 4
f 4 12 5
f 4 11 13
f 4 13 14
f 4 14 12
f 5 12 15
f 5 15 6
f 6 15 16
f 6 16 34
f 6 34 17
f 7 17 18
f 7 18 19
f 7 19 20
f 7 20 9
f 8 21 22
f 8 22 10
f 8 23 43
f 8 43 21
f 9 20 24
f 9 24 23
f 10 22 25
f 10 25 11
f 11 25 26
f 11 26 27
f 11 27 28
f 11 28 13
f 12 29 15
f 12 14 30
f 12 30 31
f 12 31 32
f 12 32 29
f 13 28 30
f 13 30 14
f 15 29 33
f 15 33 16
f 16 33 57
f 16 57 34
f 17 34 35
f 17 35 18
f 18 35 36
f 18 36 19
f 19 36 37
f 19 37 38
f 19 38 39
f 19 39 40
f 19 40 20
f 20 40 24
f 21 41 42
f 21 42 22
f 21 43 61
f 21 61 41
f 22 42 25
f 23 24 43
f 24 40 39
f 24 39 38
f 24 38 37
f 24 37 36
f 24 36 59
f 24 59 58
f 24 58 77
f 24 77 95
f 24 95 114
f 24 114 133
f 24 133 134
f 24 134 148
f 24 148 160
f 24 160 167
f 24 167 168
f 24 168 162
f 24 162 149
f 24 149 135
f 24 135 116
f 24 116 96
f 24 96 78
f 24 78 62
f 24 62 44
f 24 44 45
f 24 45 43
f 25 46 47
f 25 47 26
f 25 42 48
f 25 48 49
f 25 49 46
f 26 47 27
f 27 47 28
f 28 50 30
f 28 47 51
f 28 51 52
f 28 52 50
f 29 32 53
f 29 53 33
f 30 50 31
f 31 50 32
f 32 54 53
f 32 50 55
f 32 55 54
f 33 53 56
f 33 56 75
f 33 75 57
f 34 57 35
f 35 57 58
f 35 58 59
f 35 59 36
f 41 60 42
f 41 61 64
f 41 64 60
f 42 60 48
f 43 45 61
f 44 62 63
f 44 63 64
f 44 64 45
f 45 64 61
f 46 49 65
f 46 65 47
f 47 65 66
f 47 66 51
f 48 60 67
f 48 67 49
f 49 67 68
f 49 68 65
f 50 69 55
f 50 52 70
f 50 70 69
f 51 66 71
f 51 71 88
f 51 88 106
f 51 106 86
f 51 86 70
f 51 70 52
f 53 54 72
f 53 72 56
f 54 55 73
f 54 73 74
f 54 74 72
f 55 69 73
f 56 72 89
f 56 89 75
f 57 75 76
f 57 76 58
f 58 76 77
f 60 64 63
f 60 63 67
f 62 78 63
f 63 78 79
f 63 79 83
f 63 83 67
f 65 80 82
f 65 82 66
f 65 68 80
f 66 81 71
f 66 82 81
f 67 83 68
f 68 83 84
f 68 84 85
f 68 85 80
f 69 70 86
f 69 86 87
f 69 87 73
f 71 81 88
f 72 74 94
f 72 94 89
f 73 90 91
f 73 91 92
f 73 92 74
f 73 87 90
f 74 92 93
f 74 93 112
f 74 112 94
f 75 89 77
f 75 77 76
f 77 89 94
f 77 94 95
f 78 96 97
f 78 97 98
f 78 98 79
f 79 98 103
f 79 103 83
f 80 99 82
f 80 85 99
f 81 82 99
f 81 99 100
f 81 100 101
f 81 101 102
f 81 102 88
f 83 103 84
f 84 103 104
f 84 104 105
f 84 105 85
f 85 105 100
f 85 100 99
f 86 106 107
f 86 107 87
f 87 107 108
f 87 108 90
f 88 102 106
f 90 108 109
f 90 109 110
f 90 110 91
f 91 110 111
f 91 111 93
f 91 93 92
f 93 111 132
f 93 132 112
f 94 112 113
f 94 113 95
f 95 113 115
f 95 115 114
f 96 116 117
f 96 117 118
f 96 118 98
f 96 98 97
f 98 118 119
f 98 119 104
f 98 104 103
f 100 120 101
f 100 105 121
f 100 121 122
f 100 122 120
f 101 120 123
f 101 123 102
f 102 123 124
f 102 124 125
f 102 125 106
f 104 126 105
f 104 119 138
f 104 138 126
f 105 126 121
f 106 125 107
f 107 125 127
f 107 127 128
f 107 128 108
f 108 128 109
f 109 129 130
f 109 130 110
f 109 128 129
f 110 130 147
f 110 147 131
f 110 131 132
f 110 132 111
f 112 132 115
f 112 115 113
f 114 115 133
f 115 132 131
f 115 131 134
f 115 134 133
f 116 135 136
f 116 136 137
f 116 137 117
f 117 137 138
f 117 138 118
f 118 138 119
f 120 122 139
f 120 139 140
f 120 140 123
f 121 126 141
f 121 141 122
f 122 141 139
f 123 140 124
f 124 128 127
f 124 127 125
f 124 140 142
f 124 142 143
f 124 143 128
f 126 138 153
f 126 153 141
f 128 143 144
f 128 144 129
f 129 144 145
f 129 145 146
f 129 146 130
f 130 146 159
f 130 159 147
f 131 147 134
f 134 147 148
f 135 149 150
f 135 150 136
f 136 150 151
f 136 151 152
f 136 152 137
f 137 152 153
f 137 153 138
f 139 141 154
f 139 154 155
f 139 155 140
f 140 155 142
f 141 153 152
f 141 152 154
f 142 155 156
f 142 156 157
f 142 157 143
f 143 157 144
f 144 157 145
f 145 157 166
f 145 166 158
f 145 158 159
f 145 159 146
f 147 159 148
f 148 159 161
f 148 161 160
f 149 162 150
f 150 163 151
f 150 162 163
f 151 164 154
f 151 154 152
f 151 163 165
f 151 165 156
f 151 156 164
f 154 164 155
f 155 164 156
f 156 165 166
f 156 166 157
f 158 166 160
f 158 160 159
f 159 160 161
f 160 166 163
f 160 163 167
f 162 168 163
f 163 166 165
f 163 168 167

