# https://github.com/mikedh/trimesh
v -1.66976466 0.37255828 2.60218264
v -1.66976466 0.37121009 2.60156043
v -1.66976466 0.38992125 2.59842618
v -1.71414212 0.38711431 2.81678650
v -1.66976466 0.35801794 2.59349432
v -1.66976466 0.39984302 2.59112059
v -1.71923559 0.40711578 2.81678650
v -1.72002536 0.37226333 2.81678650
v -1.71809090 0.36309991 2.79523858
v -1.69244594 0.35355745 2.59344824
v -1.66976466 0.35841293 2.58436813
v -1.72949357 0.35524792 2.81678650
v -1.66976466 0.39984302 2.58137214
v -1.73684100 0.40711578 2.79201215
v -1.76040961 0.40711578 2.81678650
v -1.72742602 0.35817598 2.81678650
v -1.70525066 0.35643807 2.58137214
v -1.69151417 0.35587986 2.58137214
v -1.66976466 0.35854456 2.58137214
v -1.74558167 0.35332039 2.81678650
v -1.69257902 0.40023273 2.58137214
v -1.69244594 0.40065402 2.59344824
v -1.75419797 0.40711578 2.78240196
v -1.76040961 0.40711578 2.77959036
v -1.76040961 0.38820971 2.81678650
v -1.70903974 0.35793902 2.58137214
v -1.74692158 0.35452111 2.81678650
v -1.70699881 0.39992727 2.58137214
v -1.76040961 0.40645224 2.77968253
v -1.71293529 0.39087450 2.58137214
v -1.71340557 0.38992125 2.58137214
v -1.71596121 0.37255828 2.58137214
v -1.76040961 0.38640863 2.80125356
v -1.75652287 0.37255828 2.81678650
v -1.71583694 0.37217903 2.58137214
v -1.76040961 0.38852573 2.78302422
v -1.76040961 0.38865736 2.78267853
v -1.76040961 0.38640863 2.79966339
f 1 2 5
f 1 5 11
f 1 11 19
f 1 19 13
f 1 13 6
f 1 6 3
f 1 3 4
f 1 4 2
f 2 4 5
f 3 6 4
f 4 7 15
f 4 15 25
f 4 25 34
f 4 34 27
f 4 27 20
f 4 20 12
f 4 12 16
f 4 16 8
f 4 8 9
f 4 9 5
f 4 6 7
f 5 10 11
f 5 9 12
f 5 12 10
f 6 13 7
f 7 14 23
f 7 23 24
f 7 24 15
f 7 13 14
f 8 16 9
f 9 16 12
f 10 17 18
f 10 18 19
f 10 19 11
f 10 12 20
f 10 20 17
f 13 19 18
f 13 18 17
f 13 17 26
f 13 26 35
f 13 35 32
f 13 32 31
f 13 31 30
f 13 30 28
f 13 28 21
f 13 21 22
f 13 22 14
f 14 22 23
f 15 24 29
f 15 29 37
f 15 37 36
f 15 36 38
f 15 38 33
f 15 33 25
f 17 20 26
f 20 27 26
f 21 28 24
f 21 24 22
f 22 24 23
f 24 28 30
f 24 30 31
f 24 31 32
f 24 32 29
f 25 33 34
f 26 27 36
f 26 36 37
f 26 37 35
f 27 34 36
f 29 32 37
f 32 35 37
f 33 38 34
f 34 38 36

