# https://github.com/mikedh/trimesh
v -2.70064370 0.70267217 2.19908959
v -2.69550388 0.70267217 2.20941751
v -2.70053552 0.70552312 2.19908959
v -2.70050844 0.02511844 2.19908959
v -2.69550388 0.02511844 2.20941751
v -2.69020173 0.70267217 2.21810989
v -2.69462468 0.70552312 2.21074585
v -2.69543626 0.70552312 2.20932619
v -2.66841146 0.70552312 2.19908959
v -2.70022442 0.00773455 2.19908959
v -2.69546329 0.00773455 2.20938430
v -2.69018822 0.02511844 2.21810989
v -2.69020173 0.04243274 2.21810989
v -2.68189680 0.70267217 2.22856234
v -2.68161278 0.70552312 2.22881971
v -2.68855155 0.70552312 2.22007751
v -2.69018822 0.70552312 2.21801026
v -2.56247652 0.70552312 2.25854155
v -2.67670288 0.02511844 2.19908959
v -2.69577439 -0.00380835 2.19908959
v -2.69412426 -0.00346068 2.20705968
v -2.68995825 0.00773455 2.21806839
v -2.68189680 0.02511844 2.22856234
v -2.67449811 0.00773455 2.23763663
v -2.67451168 0.70267217 2.23766154
v -2.68007082 0.70552312 2.23074583
v -2.56247652 0.02511844 2.26334020
v -2.56247652 0.70552312 2.27540330
v -2.67748737 0.01593980 2.19908959
v -2.69270399 -0.00387784 2.19908959
v -2.66508407 -0.00415601 2.22828008
v -2.64437594 -0.00373875 2.25781924
v -2.67775788 -0.00311292 2.22856234
v -2.67436286 -0.00123551 2.23749550
v -2.67451168 0.02511844 2.23766154
v -2.65561596 0.00773455 2.25341911
v -2.65565651 0.02511844 2.25362665
v -2.66543577 0.02511844 2.24534937
v -2.66543577 0.70267217 2.24535767
v -2.67448459 0.70552312 2.23762833
v -2.56247652 0.00898622 2.26418704
v -2.57573190 0.70552312 2.28358923
v -2.56247652 0.70531455 2.28389643
v -2.67825835 0.00773455 2.19908959
v -2.68591399 -0.00387784 2.19908959
v -2.59595312 -0.00485134 2.26702637
v -2.59595312 -0.00485134 2.27612558
v -2.61332045 -0.00332160 2.27411644
v -2.62308614 -0.00172226 2.27252241
v -2.64693230 0.00773455 2.25948799
v -2.66543577 -0.00304343 2.24108204
v -2.66543577 0.04243274 2.24535767
v -2.64697290 0.02511844 2.25955440
v -2.65565651 0.04243274 2.25363496
v -2.65565651 0.70267217 2.25363496
v -2.65557537 0.70552312 2.25361834
v -2.56247652 0.00773455 2.26426176
v -2.57857234 0.70552312 2.28350622
v -2.57857234 0.02511844 2.28307449
v -2.56247652 0.02511844 2.28324056
v -2.56247652 -0.00359967 2.26823019
v -2.56247652 -0.00450367 2.26857889
v -2.57857234 -0.00471225 2.26817209
v -2.57857234 -0.00471225 2.27689767
v -2.57857234 0.00773455 2.28244353
v -2.59595312 0.00773455 2.28064196
v -2.61332045 0.00773455 2.27629161
v -2.62365424 0.00773455 2.27280470
v -2.63232433 0.00773455 2.26817209
v -2.63235136 0.02511844 2.26823850
v -2.64697290 0.70267217 2.25955440
v -2.64687819 0.70552312 2.25947968
v -2.59309917 0.70552312 2.28152199
v -2.59595312 0.02511844 2.28102385
v -2.56247652 0.00773455 2.28260128
v -2.56247652 -0.00450367 2.27698070
v -2.56247652 0.00683065 2.28219449
v -2.61332045 0.02511844 2.27634143
v -2.62368127 0.02511844 2.27282130
v -2.63235136 0.70267217 2.26823850
v -2.63224319 0.70552312 2.26816378
v -2.59595312 0.70552312 2.28102385
v -2.61332045 0.70267217 2.27634143
v -2.62368127 0.70267217 2.27282130
v -2.63083648 0.70552312 2.26893587
v -2.61048000 0.70552312 2.27709692
v -2.61332045 0.70552312 2.27624180
v -2.62357304 0.70552312 2.27276320
f 1 2 3
f 1 3 9
f 1 9 19
f 1 19 29
f 1 29 44
f 1 44 45
f 1 45 30
f 1 30 20
f 1 20 10
f 1 10 4
f 1 4 5
f 1 5 2
f 2 6 7
f 2 7 8
f 2 8 3
f 2 5 13
f 2 13 6
f 3 8 7
f 3 7 17
f 3 17 16
f 3 16 15
f 3 15 26
f 3 26 40
f 3 40 56
f 3 56 72
f 3 72 81
f 3 81 85
f 3 85 88
f 3 88 87
f 3 87 86
f 3 86 82
f 3 82 73
f 3 73 58
f 3 58 42
f 3 42 28
f 3 28 18
f 3 18 9
f 4 10 11
f 4 11 5
f 5 11 12
f 5 12 13
f 6 14 15
f 6 15 16
f 6 16 17
f 6 17 7
f 6 13 23
f 6 23 14
f 9 18 19
f 10 20 21
f 10 21 11
f 11 22 12
f 11 21 22
f 12 23 13
f 12 22 24
f 12 24 23
f 14 25 26
f 14 26 15
f 14 23 35
f 14 35 25
f 18 27 19
f 18 28 43
f 18 43 60
f 18 60 75
f 18 75 77
f 18 77 76
f 18 76 62
f 18 62 61
f 18 61 57
f 18 57 41
f 18 41 27
f 19 27 29
f 20 30 31
f 20 31 21
f 21 31 32
f 21 32 33
f 21 33 34
f 21 34 22
f 22 34 24
f 23 24 35
f 24 36 37
f 24 37 38
f 24 38 35
f 24 34 36
f 25 39 40
f 25 40 26
f 25 35 52
f 25 52 39
f 27 41 29
f 28 42 43
f 29 41 44
f 30 45 46
f 30 46 31
f 31 46 47
f 31 47 32
f 32 47 48
f 32 48 49
f 32 49 50
f 32 50 36
f 32 36 34
f 32 34 51
f 32 51 33
f 33 51 34
f 35 38 52
f 36 50 37
f 37 50 53
f 37 53 54
f 37 54 52
f 37 52 38
f 39 55 40
f 39 52 54
f 39 54 55
f 40 55 56
f 41 57 44
f 42 58 59
f 42 59 43
f 43 59 60
f 44 61 45
f 44 57 61
f 45 61 62
f 45 62 63
f 45 63 46
f 46 63 64
f 46 64 47
f 47 64 65
f 47 65 66
f 47 66 48
f 48 66 49
f 49 66 67
f 49 67 68
f 49 68 69
f 49 69 50
f 50 69 53
f 53 69 70
f 53 70 80
f 53 80 71
f 53 71 55
f 53 55 54
f 55 71 56
f 56 71 72
f 58 73 74
f 58 74 59
f 59 74 66
f 59 66 65
f 59 65 60
f 60 65 75
f 62 76 64
f 62 64 63
f 64 76 77
f 64 77 75
f 64 75 65
f 66 74 67
f 67 74 78
f 67 78 68
f 68 78 79
f 68 79 70
f 68 70 69
f 70 79 84
f 70 84 80
f 71 80 72
f 72 80 81
f 73 82 74
f 74 82 83
f 74 83 78
f 78 83 84
f 78 84 79
f 80 84 85
f 80 85 81
f 82 86 83
f 83 86 87
f 83 87 88
f 83 88 84
f 84 88 85

