# https://github.com/mikedh/trimesh
v -3.08411672 0.74847575 2.74896466
v -3.09851239 0.74786203 2.74896466
v -3.08263003 0.74777835 2.74896466
v -3.07837538 0.74325925 2.74420586
v -3.08995476 0.74655097 2.74020193
v -3.09579280 0.74655097 2.74020193
v -3.10710628 0.74574198 2.74896466
v -3.06857280 0.73899123 2.74896466
v -3.11942297 0.66490052 2.58134066
v -3.12308535 0.67840197 2.59852151
v -3.10505148 0.73028779 2.70323109
v -3.11718688 0.72652191 2.69415663
v -3.13456804 0.67237653 2.58134066
v -3.11718688 0.73028779 2.70283729
v -3.11718688 0.73463954 2.71504600
v -3.11718688 0.73868443 2.73242378
v -3.12829486 0.73145941 2.73242378
v -3.12713451 0.73048311 2.74338537
v -3.11837140 0.73609010 2.74896466
v -3.06594990 0.73667591 2.74896466
v -3.12731581 0.66928013 2.58134066
v -3.11628034 0.66029774 2.58134066
v -3.13456804 0.67536139 2.58716606
v -3.13456804 0.68691014 2.61081229
v -3.13456804 0.70286646 2.64556780
v -3.13456804 0.69260086 2.62251235
v -3.13456804 0.69656202 2.63119301
v -3.15287990 0.66668586 2.58134066
v -3.14689682 0.67879251 2.59737283
v -3.13456804 0.71282519 2.66855765
v -3.12663894 0.72922782 2.70480645
v -3.12793226 0.73051097 2.71504600
v -3.14391132 0.71215565 2.68030690
v -3.14411680 0.71240674 2.69308997
v -3.14289601 0.70696711 2.70467518
v -3.13253741 0.72005011 2.73242378
v -3.12821025 0.72005011 2.74519044
v -3.12593789 0.72005011 2.74896466
v -3.05922953 0.72005011 2.74896466
v -3.11091370 0.65159430 2.58134066
v -3.14504750 0.69530672 2.63353961
v -3.16111118 0.66007456 2.58134066
v -3.15009989 0.68186105 2.61081229
v -3.14327070 0.71137458 2.67157700
v -3.15877838 0.67201390 2.61081229
v -3.14771874 0.70267119 2.68030690
v -3.15360513 0.68529221 2.66294559
v -3.15115146 0.68529221 2.68030690
v -3.14507167 0.70177852 2.69839026
v -3.14335531 0.69539040 2.70669353
v -3.14074451 0.70177852 2.71350352
v -3.13453178 0.70267119 2.73242378
v -3.12870583 0.70267119 2.74594526
v -3.12653016 0.70928243 2.74896466
v -3.05820212 0.71463839 2.74896466
v -3.10797654 0.64046400 2.58134066
v -3.16120787 0.65968402 2.58134066
v -3.16114744 0.66015829 2.58165249
v -3.15962447 0.66824801 2.62779622
v -3.15394356 0.68529221 2.64556780
v -3.16147379 0.66141358 2.59343456
v -3.16134083 0.66333837 2.61081229
v -3.16097822 0.66269674 2.62174111
v -3.15734002 0.66791324 2.64556780
v -3.15470505 0.66791324 2.66294559
v -3.15155032 0.66791324 2.68030690
v -3.14661881 0.68529221 2.69766827
v -3.14347618 0.68529221 2.70702173
v -3.14055112 0.68529221 2.71571880
v -3.13480978 0.68529221 2.73242378
v -3.12685650 0.70267119 2.74896466
v -3.13502734 0.66791324 2.73242378
v -3.12882669 0.68529221 2.74614219
v -3.12709825 0.68529221 2.74896466
v -3.05611107 0.70267119 2.74896466
v -3.10662280 0.63293217 2.58134066
v -3.16207814 0.65449548 2.58134066
v -3.16248911 0.65114799 2.58134066
v -3.16279128 0.65053427 2.59343456
v -3.16222318 0.65053427 2.61081229
v -3.16121996 0.65053427 2.62328359
v -3.15985412 0.65053427 2.63196425
v -3.15770263 0.65053427 2.64556780
v -3.15494678 0.65053427 2.66294559
v -3.15177997 0.65053427 2.68030690
v -3.14684846 0.66791324 2.69766827
v -3.14359706 0.66791324 2.70738275
v -3.14065990 0.66791324 2.71606341
v -3.12893548 0.66791324 2.74630628
v -3.14073242 0.65053427 2.71630958
v -3.13514821 0.65053427 2.73242378
v -3.12730373 0.66791324 2.74896466
v -3.05456390 0.69307508 2.74896466
v -3.10426583 0.61580424 2.58134066
v -3.05331894 0.68529221 2.74896466
v -3.16383076 0.63845548 2.58134066
v -3.16401206 0.63315530 2.58134066
v -3.16340772 0.63315530 2.59343456
v -3.16252535 0.63315530 2.61081229
v -3.16134083 0.63315530 2.62405483
v -3.15996290 0.63315530 2.63275190
v -3.15790811 0.63315530 2.64556780
v -3.15510391 0.63315530 2.66294559
v -3.15188877 0.63315530 2.68030690
v -3.14705395 0.65053427 2.69766827
v -3.14368167 0.65053427 2.70762887
v -3.12898382 0.65053427 2.74638836
v -3.14712647 0.63315530 2.69766827
v -3.14074451 0.63315530 2.71639160
v -3.13516030 0.63315530 2.73242378
v -3.12736416 0.65575077 2.74896466
v -3.10341973 0.59845318 2.58134066
v -3.05204982 0.66791324 2.74896466
v -3.04236809 0.46349425 2.74422227
v -3.16420547 0.62107651 2.58134066
v -3.16427799 0.61580424 2.58134066
v -3.16364946 0.61580424 2.59343456
v -3.16270667 0.61580424 2.61081229
v -3.16142544 0.61580424 2.62444868
v -3.16001125 0.61580424 2.63312934
v -3.15798064 0.61580424 2.64556780
v -3.15514017 0.61580424 2.66294559
v -3.15190086 0.61580424 2.68030690
v -3.12738833 0.65053427 2.74896466
v -3.12898382 0.49417939 2.74638836
v -3.14712647 0.49417939 2.69766827
v -3.14074451 0.49417939 2.71639160
v -3.13516030 0.49417939 2.73242378
v -3.09707403 0.46349425 2.58134066
v -3.04095390 0.46349425 2.74896466
v -3.16438676 0.60372545 2.58134066
v -3.16374615 0.59845318 2.59343456
v -3.16275501 0.59845318 2.61081229
v -3.16143752 0.59845318 2.62448151
v -3.15514017 0.49417939 2.66294559
v -3.15190086 0.49417939 2.68030690
v -3.12738833 0.49417939 2.74896466
v -3.12895965 0.47682833 2.74635553
v -3.14704186 0.47682833 2.69766827
v -3.14366958 0.47682833 2.70757967
v -3.13489438 0.47682833 2.73242378
v -3.15228764 0.46349425 2.58134066
v -3.12463248 0.46349425 2.74896466
v -3.16441094 0.59845318 2.58134066
v -3.16442303 0.58634648 2.58134066
v -3.16443512 0.49417939 2.58134066
v -3.16374615 0.49417939 2.59343456
v -3.16275501 0.49417939 2.61081229
v -3.16143752 0.49417939 2.62448151
v -3.16136500 0.47682833 2.62403841
v -3.15990247 0.47682833 2.63273554
v -3.15470505 0.47682833 2.66294559
v -3.15169537 0.47682833 2.68030690
v -3.12733999 0.47682833 2.74896466
v -3.12793226 0.46349425 2.74461607
v -3.12613128 0.46907338 2.74896466
v -3.14350037 0.46731596 2.70710380
v -3.16225945 0.46349425 2.58163607
v -3.16234405 0.46368952 2.58134066
v -3.16430216 0.48210061 2.58134066
v -3.16357694 0.47682833 2.59343456
v -3.16259787 0.47682833 2.61081229
v -3.16106283 0.46700910 2.62223340
v -3.14855275 0.46349425 2.68145558
v -3.14514419 0.46349425 2.69766827
v -3.14087747 0.46349425 2.71094363
v -3.14498706 0.46349425 2.69830824
v -3.16166717 0.46349425 2.59343456
v -3.16201771 0.46449851 2.59343456
v -3.16424172 0.47682833 2.58134066
v -3.16153422 0.46578166 2.61081229
v -3.16061561 0.46349425 2.61081229
v -3.15897177 0.46349425 2.62538402
v -3.15133276 0.46349425 2.66699876
f 1 2 7
f 1 7 19
f 1 19 38
f 1 38 54
f 1 54 71
f 1 71 74
f 1 74 92
f 1 92 111
f 1 111 124
f 1 124 137
f 1 137 154
f 1 154 156
f 1 156 143
f 1 143 130
f 1 130 113
f 1 113 95
f 1 95 93
f 1 93 75
f 1 75 55
f 1 55 39
f 1 39 20
f 1 20 8
f 1 8 3
f 1 3 4
f 1 4 5
f 1 5 6
f 1 6 2
f 2 6 7
f 3 8 4
f 4 8 9
f 4 9 10
f 4 10 5
f 5 11 12
f 5 12 6
f 5 10 13
f 5 13 11
f 6 12 14
f 6 14 15
f 6 15 7
f 7 15 16
f 7 16 17
f 7 17 18
f 7 18 19
f 8 20 9
f 9 21 10
f 9 20 22
f 9 22 40
f 9 40 56
f 9 56 76
f 9 76 94
f 9 94 112
f 9 112 129
f 9 129 142
f 9 142 159
f 9 159 170
f 9 170 160
f 9 160 146
f 9 146 145
f 9 145 144
f 9 144 131
f 9 131 116
f 9 116 115
f 9 115 97
f 9 97 96
f 9 96 78
f 9 78 77
f 9 77 57
f 9 57 42
f 9 42 28
f 9 28 13
f 9 13 21
f 10 21 13
f 11 13 23
f 11 23 24
f 11 24 12
f 12 25 14
f 12 24 26
f 12 26 27
f 12 27 25
f 13 28 29
f 13 29 23
f 14 25 30
f 14 30 31
f 14 31 15
f 15 31 16
f 16 31 32
f 16 32 17
f 17 32 33
f 17 33 34
f 17 34 18
f 18 34 35
f 18 35 36
f 18 36 37
f 18 37 38
f 18 38 19
f 20 39 40
f 20 40 22
f 23 29 24
f 24 29 26
f 25 27 41
f 25 41 30
f 26 29 27
f 27 29 41
f 28 42 29
f 29 42 43
f 29 43 41
f 30 41 44
f 30 44 31
f 31 44 32
f 32 44 33
f 33 44 45
f 33 45 34
f 34 45 46
f 34 46 47
f 34 47 48
f 34 48 49
f 34 49 35
f 35 49 50
f 35 50 51
f 35 51 36
f 36 51 52
f 36 52 37
f 37 52 53
f 37 53 54
f 37 54 38
f 39 55 56
f 39 56 40
f 41 43 44
f 42 57 58
f 42 58 43
f 43 58 44
f 44 58 45
f 45 59 47
f 45 47 60
f 45 60 46
f 45 58 61
f 45 61 62
f 45 62 59
f 46 60 47
f 47 59 63
f 47 63 64
f 47 64 48
f 48 64 65
f 48 65 66
f 48 66 67
f 48 67 49
f 49 67 50
f 50 67 68
f 50 68 69
f 50 69 52
f 50 52 51
f 52 69 70
f 52 70 53
f 53 71 54
f 53 70 72
f 53 72 73
f 53 73 74
f 53 74 71
f 55 75 76
f 55 76 56
f 57 77 58
f 58 77 61
f 59 62 63
f 61 77 78
f 61 78 79
f 61 79 62
f 62 79 80
f 62 80 63
f 63 80 81
f 63 81 64
f 64 81 65
f 65 81 82
f 65 82 83
f 65 83 84
f 65 84 66
f 66 84 85
f 66 85 86
f 66 86 67
f 67 86 87
f 67 87 68
f 68 87 69
f 69 87 88
f 69 88 70
f 70 88 72
f 72 89 73
f 72 88 90
f 72 90 91
f 72 91 89
f 73 89 74
f 74 89 92
f 75 93 76
f 76 93 95
f 76 95 94
f 78 96 79
f 79 96 80
f 80 96 97
f 80 97 98
f 80 98 99
f 80 99 81
f 81 99 100
f 81 100 82
f 82 100 83
f 83 100 101
f 83 101 84
f 84 101 102
f 84 102 103
f 84 103 85
f 85 103 104
f 85 104 105
f 85 105 86
f 86 105 87
f 87 105 88
f 88 105 106
f 88 106 90
f 89 91 107
f 89 107 92
f 90 106 108
f 90 108 109
f 90 109 91
f 91 109 110
f 91 110 107
f 92 107 111
f 94 95 113
f 94 113 114
f 94 114 112
f 97 115 98
f 98 115 99
f 99 115 116
f 99 116 117
f 99 117 118
f 99 118 100
f 100 118 119
f 100 119 101
f 101 119 102
f 102 119 103
f 103 119 120
f 103 120 121
f 103 121 122
f 103 122 104
f 104 122 123
f 104 123 108
f 104 108 105
f 105 108 106
f 107 124 111
f 107 110 128
f 107 128 125
f 107 125 137
f 107 137 124
f 108 123 136
f 108 136 126
f 108 126 127
f 108 127 109
f 109 127 128
f 109 128 110
f 112 114 129
f 113 130 114
f 114 130 143
f 114 143 155
f 114 155 166
f 114 166 167
f 114 167 165
f 114 165 164
f 114 164 174
f 114 174 173
f 114 173 172
f 114 172 168
f 114 168 158
f 114 158 142
f 114 142 129
f 116 131 117
f 117 131 118
f 118 131 132
f 118 132 133
f 118 133 119
f 119 133 134
f 119 134 120
f 120 134 121
f 121 134 122
f 122 134 149
f 122 149 135
f 122 135 136
f 122 136 123
f 125 128 138
f 125 138 137
f 126 136 139
f 126 139 140
f 126 140 127
f 127 140 128
f 128 140 141
f 128 141 138
f 131 144 132
f 132 144 145
f 132 145 146
f 132 146 147
f 132 147 148
f 132 148 133
f 133 148 149
f 133 149 134
f 135 149 150
f 135 150 151
f 135 151 152
f 135 152 153
f 135 153 136
f 136 153 139
f 137 138 154
f 138 141 155
f 138 155 156
f 138 156 154
f 139 153 157
f 139 157 140
f 140 157 141
f 141 157 155
f 142 158 159
f 143 156 155
f 146 160 161
f 146 161 162
f 146 162 147
f 147 162 148
f 148 162 150
f 148 150 149
f 150 162 163
f 150 163 151
f 151 163 152
f 152 163 153
f 153 163 164
f 153 164 165
f 153 165 157
f 155 157 166
f 157 165 167
f 157 167 166
f 158 168 159
f 159 168 169
f 159 169 170
f 160 170 161
f 161 170 163
f 161 163 162
f 163 170 171
f 163 171 172
f 163 172 173
f 163 173 174
f 163 174 164
f 168 172 171
f 168 171 169
f 169 171 170

