# https://github.com/mikedh/trimesh
v -2.01881160 0.38521993 2.41968591
v -2.01881160 0.38664118 2.42225607
v -2.01881160 0.39195773 2.40555311
v -1.95150006 0.34226621 2.42003833
v -1.95357258 0.34226621 2.42421255
v -1.95768737 0.34226621 2.43678381
v -1.99340546 0.36363782 2.46193244
v -1.99529601 0.36558544 2.46193244
v -2.01881160 0.39190512 2.43047085
v -1.93568827 0.34226621 2.41206660
v -1.93975242 0.34226621 2.41401699
v -2.01881160 0.40403849 2.40145181
v -1.95614054 0.34226621 2.44181475
v -1.98623760 0.35976879 2.46193244
v -2.01881160 0.43999114 2.46193244
v -1.92246463 0.42469939 2.42281506
v -1.92206022 0.40732845 2.42229861
v -1.92055388 0.34226621 2.42039682
v -2.01881160 0.40732845 2.40035813
v -1.98780463 0.40732845 2.40107510
v -1.97043586 0.40732845 2.40292221
v -1.97043586 0.42469939 2.40286753
v -1.95733349 0.52892527 2.40861541
v -1.93568827 0.51152797 2.41927882
v -1.95090364 0.34226621 2.45174296
v -1.97124469 0.35824226 2.46193244
v -1.93568827 0.34226621 2.45523666
v -2.01881160 0.45820432 2.46193244
v -1.91553933 0.34226621 2.43705724
v -1.92327336 0.45944133 2.42385406
v -2.01881160 0.42093568 2.39995710
v -2.01881160 0.42469939 2.39986596
v -1.98780463 0.42469939 2.40092319
v -1.95819287 0.54629627 2.40916834
v -1.93568827 0.52892527 2.42026315
v -1.92455735 0.51152797 2.42545813
v -1.92410239 0.49415697 2.42489915
v -1.95682800 0.35871596 2.46193244
v -1.95154056 0.36898067 2.46193244
v -1.92198948 0.34226621 2.45029688
v -1.93501096 0.40759160 2.46193244
v -1.93929746 0.39332637 2.46193244
v -1.99796505 0.57919582 2.46193244
v -2.01881160 0.45820432 2.46003671
v -1.91712655 0.38993114 2.43705724
v -1.92400131 0.51152797 2.44967104
v -1.92374851 0.49415697 2.44980472
v -1.92331386 0.45944133 2.44996268
v -1.92309140 0.44207039 2.45002953
v -1.92266679 0.40732845 2.45016320
v -1.92226237 0.37256014 2.45027862
v -1.92208041 0.35518920 2.45031510
v -2.01881160 0.43830668 2.40214447
v -1.97918088 0.55513968 2.41096685
v -1.97043586 0.54629627 2.40852428
v -1.97043586 0.52892527 2.40738200
v -1.96000254 0.55924551 2.41017695
v -1.92606368 0.53863722 2.42726270
v -1.92519426 0.52892527 2.42622979
v -1.92155472 0.51152797 2.43705724
v -1.92085712 0.49415697 2.43705724
v -1.92021005 0.47678603 2.43705724
v -1.91958328 0.45944133 2.43705724
v -1.91832965 0.42469939 2.43705724
v -1.91772307 0.40732845 2.43705724
v -1.93398982 0.51152797 2.46193244
v -1.93397967 0.49415697 2.46193244
v -1.93455601 0.42446254 2.46193244
v -1.99608454 0.58824977 2.46193244
v -2.01881160 0.45259826 2.40874909
v -2.01881160 0.45649355 2.41998971
v -2.01881160 0.45804644 2.43705724
v -2.01881160 0.45817801 2.45442855
v -1.92448661 0.52892527 2.44920925
v -1.93435375 0.52892527 2.46193244
v -2.01881160 0.44207039 2.40281284
v -1.98499412 0.56203542 2.41882920
v -1.98334621 0.57753771 2.42405456
v -1.97043586 0.56698348 2.41237040
v -1.97043586 0.55829801 2.41035925
v -1.96120553 0.59003956 2.42800399
v -1.95738403 0.58103821 2.42402419
v -1.92521446 0.53950575 2.43705724
v -1.92267694 0.52892527 2.43705724
v -1.95778845 0.59311892 2.43705724
v -1.94967020 0.58103821 2.43705724
v -1.95380518 0.59922509 2.45422197
v -1.95097437 0.59885661 2.46193244
v -1.99444679 0.59153978 2.46193244
v -1.99503317 0.58506513 2.45442855
v -1.99653950 0.57258959 2.44552720
v -1.99510390 0.56366722 2.43332657
v -1.92554814 0.53913733 2.44779962
v -1.94532301 0.58103821 2.46193244
v -1.98900773 0.58085397 2.43731851
v -1.98309341 0.59311892 2.44069675
v -1.97560203 0.58914466 2.42912196
v -1.97006178 0.58243317 2.42229861
v -1.96403634 0.59003956 2.42800399
v -1.97043586 0.60412054 2.45040016
v -1.97043586 0.60951611 2.45908886
v -1.95876909 0.60904236 2.45987874
v -1.95824341 0.60959508 2.46193244
v -1.98952327 0.59883030 2.46193244
v -1.98605564 0.59869872 2.45488426
v -1.98540858 0.60404158 2.46193244
v -1.98105124 0.60841067 2.46098457
v -1.97006178 0.59448757 2.43576303
v -1.97043586 0.61114791 2.46193244
v -1.96077088 0.61035834 2.46193244
v -1.98134443 0.60867388 2.46193244
f 1 2 9
f 1 9 15
f 1 15 28
f 1 28 44
f 1 44 73
f 1 73 72
f 1 72 71
f 1 71 70
f 1 70 76
f 1 76 53
f 1 53 32
f 1 32 31
f 1 31 19
f 1 19 12
f 1 12 3
f 1 3 4
f 1 4 5
f 1 5 6
f 1 6 7
f 1 7 8
f 1 8 2
f 2 8 9
f 3 10 11
f 3 11 4
f 3 12 10
f 4 11 10
f 4 10 18
f 4 18 29
f 4 29 40
f 4 40 27
f 4 27 25
f 4 25 13
f 4 13 6
f 4 6 5
f 6 13 14
f 6 14 7
f 7 14 26
f 7 26 38
f 7 38 39
f 7 39 42
f 7 42 41
f 7 41 68
f 7 68 67
f 7 67 66
f 7 66 75
f 7 75 94
f 7 94 88
f 7 88 103
f 7 103 110
f 7 110 109
f 7 109 111
f 7 111 106
f 7 106 104
f 7 104 89
f 7 89 69
f 7 69 43
f 7 43 28
f 7 28 15
f 7 15 8
f 8 15 9
f 10 16 17
f 10 17 18
f 10 12 19
f 10 19 20
f 10 20 21
f 10 21 22
f 10 22 23
f 10 23 24
f 10 24 16
f 13 25 14
f 14 25 27
f 14 27 26
f 16 29 17
f 16 24 30
f 16 30 29
f 17 29 18
f 19 31 20
f 20 31 32
f 20 32 33
f 20 33 21
f 21 33 22
f 22 33 34
f 22 34 23
f 23 34 35
f 23 35 24
f 24 35 36
f 24 36 37
f 24 37 30
f 26 27 38
f 27 39 38
f 27 40 41
f 27 41 42
f 27 42 39
f 28 43 44
f 29 45 46
f 29 46 47
f 29 47 48
f 29 48 49
f 29 49 50
f 29 50 51
f 29 51 52
f 29 52 40
f 29 30 37
f 29 37 45
f 32 53 54
f 32 54 55
f 32 55 56
f 32 56 33
f 33 56 34
f 34 55 57
f 34 57 58
f 34 58 59
f 34 59 35
f 34 56 55
f 35 59 36
f 36 60 61
f 36 61 62
f 36 62 63
f 36 63 64
f 36 64 37
f 36 59 60
f 37 64 65
f 37 65 45
f 40 52 66
f 40 66 67
f 40 67 68
f 40 68 41
f 43 69 70
f 43 70 71
f 43 71 72
f 43 72 73
f 43 73 44
f 45 65 74
f 45 74 46
f 46 74 75
f 46 75 66
f 46 66 47
f 47 66 48
f 48 66 49
f 49 66 50
f 50 66 51
f 51 66 52
f 53 76 54
f 54 77 78
f 54 78 79
f 54 79 80
f 54 80 55
f 54 76 77
f 55 80 57
f 57 80 79
f 57 79 81
f 57 81 82
f 57 82 58
f 58 83 84
f 58 84 59
f 58 82 85
f 58 85 86
f 58 86 87
f 58 87 88
f 58 88 83
f 59 84 60
f 60 84 74
f 60 74 61
f 61 74 62
f 62 74 63
f 63 74 64
f 64 74 65
f 69 89 90
f 69 90 91
f 69 91 70
f 70 91 92
f 70 92 76
f 74 84 93
f 74 93 94
f 74 94 75
f 76 92 78
f 76 78 77
f 78 92 95
f 78 95 96
f 78 96 97
f 78 97 98
f 78 98 79
f 79 98 81
f 81 99 100
f 81 100 101
f 81 101 102
f 81 102 85
f 81 85 82
f 81 98 99
f 83 93 84
f 83 88 93
f 85 102 87
f 85 87 86
f 87 102 103
f 87 103 88
f 88 94 93
f 89 104 96
f 89 96 90
f 90 96 95
f 90 95 92
f 90 92 91
f 96 104 105
f 96 105 106
f 96 106 107
f 96 107 97
f 97 107 100
f 97 100 108
f 97 108 99
f 97 99 98
f 99 108 100
f 100 107 101
f 101 109 102
f 101 107 109
f 102 109 110
f 102 110 103
f 104 106 105
f 106 111 107
f 107 111 109

