# https://github.com/mikedh/trimesh
v -4.55784276 0.21369209 2.51543940
v -4.55784276 0.20055804 2.51543940
v -4.55784276 0.21359360 2.51498796
v -4.56033326 0.21103413 1.82867969
v -4.56028521 0.21588246 2.52416687
v -4.56028521 0.21572660 2.66380599
v -4.56323284 0.21073058 3.36591395
v -4.56033326 0.20360167 1.82867969
v -4.55784276 0.20233830 2.50881857
v -4.56323284 0.20403643 3.36591395
v -4.56028521 0.17191097 2.60316525
v -4.56028521 0.17191097 2.60060723
v -4.55784276 0.21173960 2.50731384
v -4.57036755 0.21351986 1.82867969
v -4.60233528 0.25229017 2.60105867
v -4.60233528 0.25229017 2.60286435
v -4.57673226 0.21472576 3.36591395
v -4.57036755 0.20100108 1.82867969
v -4.55784276 0.20293710 2.50731384
v -4.56908015 0.20143584 3.36591395
v -4.57673226 0.19966387 3.36591395
v -4.68073248 0.18168148 3.36591395
v -4.64720073 0.16848187 2.60466998
v -4.64720073 0.16848187 2.59910250
v -4.67244272 0.19253496 1.82867969
v -4.59409368 0.19782623 1.82867969
v -4.57670813 0.19937679 1.82867969
v -4.57670813 0.21501284 1.82867969
v -4.61146711 0.25229017 2.59519018
v -4.59409368 0.21612035 1.82867969
v -4.61075728 0.25229017 2.60782992
v -4.68073248 0.22807305 3.36591395
v -4.68073248 0.18071347 3.18594800
v -4.67536643 0.16848187 2.61580500
v -4.67300828 0.16848187 2.61535361
v -4.65723491 0.16848187 2.60903374
v -4.67504155 0.16848187 2.58796749
v -4.67244272 0.21831890 1.82867969
v -4.67536643 0.16849824 2.58781701
v -4.62880450 0.25229017 2.58992365
v -4.61146711 0.25229017 2.60813087
v -4.62744502 0.25229017 2.61234416
v -4.62880450 0.25229017 2.61264506
v -4.67536643 0.25229017 2.61625643
v -4.68073248 0.22807305 3.18594800
v -4.67536643 0.25229017 2.58495803
f 1 2 9
f 1 9 19
f 1 19 13
f 1 13 3
f 1 3 4
f 1 4 5
f 1 5 6
f 1 6 7
f 1 7 10
f 1 10 2
f 2 8 9
f 2 10 11
f 2 11 12
f 2 12 8
f 3 13 4
f 4 8 18
f 4 18 27
f 4 27 26
f 4 26 25
f 4 25 38
f 4 38 30
f 4 30 28
f 4 28 14
f 4 14 15
f 4 15 5
f 4 13 19
f 4 19 8
f 5 15 16
f 5 16 6
f 6 16 7
f 7 16 17
f 7 17 32
f 7 32 22
f 7 22 21
f 7 21 20
f 7 20 10
f 8 19 9
f 8 12 18
f 10 20 11
f 11 20 21
f 11 21 22
f 11 22 23
f 11 23 24
f 11 24 12
f 12 24 25
f 12 25 26
f 12 26 27
f 12 27 18
f 14 28 15
f 15 29 40
f 15 40 46
f 15 46 44
f 15 44 43
f 15 43 42
f 15 42 41
f 15 41 31
f 15 31 16
f 15 28 30
f 15 30 29
f 16 31 32
f 16 32 17
f 22 33 34
f 22 34 35
f 22 35 36
f 22 36 23
f 22 32 45
f 22 45 33
f 23 36 35
f 23 35 34
f 23 34 37
f 23 37 24
f 24 37 25
f 25 37 39
f 25 39 33
f 25 33 45
f 25 45 38
f 29 30 38
f 29 38 40
f 31 41 32
f 32 41 42
f 32 42 43
f 32 43 44
f 32 44 46
f 32 46 45
f 33 39 34
f 34 39 37
f 38 45 46
f 38 46 40

