# https://github.com/mikedh/trimesh
v -5.49759445 0.37990519 2.22503665
v -5.51838444 0.37990519 2.22527567
v -5.65393006 0.40730494 2.22859223
v -5.63658024 0.40730494 2.22856236
v -5.53233157 0.40730494 2.22853248
v -5.39334599 0.40730494 2.22850260
v -5.35860886 0.40730494 2.22850260
v -5.34122155 0.40730494 2.22853248
v -5.48024463 0.37990519 2.22512628
v -5.64144131 0.37990519 2.22670986
v -5.65393006 0.37990519 2.22685925
v -5.67131737 0.40730494 2.23002642
v -5.67131737 0.42467474 2.23271553
v -5.65393006 0.42467474 2.23146061
v -5.54968139 0.42467474 2.23143073
v -5.35860886 0.42467474 2.23140086
v -5.34122155 0.42467474 2.23143073
v -5.32383424 0.42467474 2.23349238
v -5.32383424 0.40730494 2.23086304
v -5.34122155 0.37990519 2.22679949
v -5.35860886 0.37990519 2.22656047
v -5.67262600 0.37990519 2.23017581
v -5.68231065 0.40730494 2.23435887
v -5.68092704 0.43410629 2.23606197
v -5.67131737 0.43458941 2.23528512
v -5.65393006 0.43469919 2.23510585
v -5.34122155 0.43469919 2.23510585
v -5.32383424 0.43435883 2.23564367
v -5.31467341 0.43380435 2.23654004
v -5.32338560 0.37990519 2.23029534
v -5.32847099 0.37990519 2.22927944
v -5.31373844 0.40730494 2.23522536
v -5.31355161 0.39478812 2.23495644
v -5.68608721 0.37990519 2.24493601
v -5.68231065 0.39331136 2.23435887
v -5.68496541 0.40730494 2.24595190
v -5.68287135 0.42467474 2.24595190
v -5.68133840 0.43445214 2.24595190
v -5.67131737 0.43575875 2.24595190
v -5.65393006 0.43598379 2.24595190
v -5.34122155 0.43598379 2.24595190
v -5.32383424 0.43530307 2.24595190
v -5.31444888 0.43399651 2.24595190
v -5.31201845 0.40730494 2.24595190
v -5.31725339 0.37990519 2.24586226
v -5.31272890 0.39254276 2.24595190
v -5.31721590 0.37992166 2.24595190
v -5.68825583 0.37990519 2.26331156
v -5.68537676 0.40730494 2.26331156
v -5.68320793 0.42467474 2.26331156
v -5.68081499 0.43402944 2.49935518
v -5.68332019 0.42467474 2.48916648
v -5.67131737 0.43482549 2.48916648
v -5.65393006 0.43502858 2.48916648
v -5.34122155 0.43502858 2.48916648
v -5.32383424 0.43424905 2.49983323
v -5.32293696 0.43424905 2.48818045
v -5.31474818 0.43372750 2.49869786
v -5.31358889 0.42609662 2.48818045
v -5.30734441 0.37990519 2.48916648
v -5.31171936 0.40730494 2.26331156
v -5.31572023 0.37990519 2.26271400
v -5.68930286 0.37990519 2.48916648
v -5.68548882 0.40730494 2.29806075
v -5.68567585 0.40730494 2.36755917
v -5.68597494 0.40730494 2.48916648
v -5.68193658 0.42467474 2.50192475
v -5.67131737 0.42467474 2.50706394
v -5.67131737 0.43447410 2.50034121
v -5.65393006 0.43458392 2.50055031
v -5.34122155 0.43458392 2.50055031
v -5.34122155 0.42467474 2.50816949
v -5.32383424 0.42467474 2.50595840
v -5.31400025 0.42467474 2.50078938
v -5.30884029 0.37990519 2.50652614
v -5.32304902 0.37990519 2.52083812
v -5.68679765 0.37990519 2.50715358
v -5.68017931 0.37990519 2.51578856
v -5.65393006 0.42467474 2.50816949
v -5.67045737 0.37990519 2.52044971
v -5.66683037 0.37990519 2.52125642
v -5.65393006 0.37990519 2.52334799
v -5.64873261 0.37990519 2.52379616
v -5.63658024 0.37990519 2.52478214
v -5.61919293 0.37990519 2.52609683
v -5.49688400 0.37990519 2.53024999
v -5.48024463 0.37990519 2.53010060
v -5.37595868 0.37990519 2.52672427
v -5.35860886 0.37990519 2.52558890
v -5.34122155 0.37990519 2.52397543
v -5.31833770 0.37990519 2.51620691
v -5.60180583 0.37990519 2.52696329
v -5.51494447 0.37990519 2.52986158
v -5.49759445 0.37990519 2.53024999
f 1 2 3
f 1 3 4
f 1 4 5
f 1 5 6
f 1 6 7
f 1 7 8
f 1 8 9
f 1 9 21
f 1 21 20
f 1 20 31
f 1 31 30
f 1 30 45
f 1 45 62
f 1 62 60
f 1 60 75
f 1 75 91
f 1 91 76
f 1 76 90
f 1 90 89
f 1 89 88
f 1 88 87
f 1 87 86
f 1 86 94
f 1 94 93
f 1 93 92
f 1 92 85
f 1 85 84
f 1 84 83
f 1 83 82
f 1 82 81
f 1 81 80
f 1 80 78
f 1 78 77
f 1 77 63
f 1 63 48
f 1 48 34
f 1 34 22
f 1 22 11
f 1 11 10
f 1 10 2
f 2 10 3
f 3 10 11
f 3 11 12
f 3 12 13
f 3 13 14
f 3 14 4
f 4 14 15
f 4 15 5
f 5 15 6
f 6 16 7
f 6 15 16
f 7 16 17
f 7 17 8
f 8 17 18
f 8 18 19
f 8 19 20
f 8 20 21
f 8 21 9
f 11 22 12
f 12 22 23
f 12 23 24
f 12 24 13
f 13 25 14
f 13 24 25
f 14 25 26
f 14 26 15
f 15 26 16
f 16 27 17
f 16 26 27
f 17 27 28
f 17 28 29
f 17 29 18
f 18 29 19
f 19 30 31
f 19 31 20
f 19 29 32
f 19 32 33
f 19 33 30
f 22 34 35
f 22 35 23
f 23 35 34
f 23 34 36
f 23 36 24
f 24 36 37
f 24 37 38
f 24 38 39
f 24 39 25
f 25 39 40
f 25 40 26
f 26 40 41
f 26 41 27
f 27 41 28
f 28 41 42
f 28 42 29
f 29 43 44
f 29 44 32
f 29 42 43
f 30 33 45
f 32 44 33
f 33 44 46
f 33 46 47
f 33 47 45
f 34 48 36
f 36 48 49
f 36 49 37
f 37 49 50
f 37 50 38
f 38 51 39
f 38 50 52
f 38 52 51
f 39 53 40
f 39 51 53
f 40 53 54
f 40 54 55
f 40 55 41
f 41 55 42
f 42 55 56
f 42 56 57
f 42 57 58
f 42 58 43
f 43 58 59
f 43 59 60
f 43 60 61
f 43 61 44
f 44 61 60
f 44 60 46
f 45 47 62
f 46 60 62
f 46 62 47
f 48 63 49
f 49 63 64
f 49 64 50
f 50 64 65
f 50 65 66
f 50 66 52
f 51 52 66
f 51 66 67
f 51 67 68
f 51 68 69
f 51 69 53
f 53 69 54
f 54 69 70
f 54 70 71
f 54 71 55
f 55 71 56
f 56 71 72
f 56 72 73
f 56 73 58
f 56 58 57
f 58 74 75
f 58 75 60
f 58 60 59
f 58 73 76
f 58 76 74
f 63 66 65
f 63 65 64
f 63 77 66
f 66 77 67
f 67 78 68
f 67 77 78
f 68 79 69
f 68 78 80
f 68 80 81
f 68 81 82
f 68 82 83
f 68 83 84
f 68 84 85
f 68 85 79
f 69 79 70
f 70 79 72
f 70 72 71
f 72 86 87
f 72 87 88
f 72 88 89
f 72 89 90
f 72 90 73
f 72 79 94
f 72 94 86
f 73 90 76
f 74 76 91
f 74 91 75
f 79 85 92
f 79 92 93
f 79 93 94

