# https://github.com/mikedh/trimesh
v -4.66442534 0.25756188 1.75818854
v -4.66442534 0.25954678 1.75792520
v -4.64620155 0.26831034 1.75635518
v -4.64620155 0.25567453 1.75818854
v -4.66442534 0.34462156 1.75818854
v -4.66442534 0.26831034 1.75676288
v -4.64620155 0.28567797 1.75571368
v -4.62881962 0.26831034 1.75629074
v -4.62881962 0.25531123 1.75818854
v -4.64620155 0.34582663 1.75818854
v -4.64620155 0.33779858 1.75682248
v -4.66442534 0.34354046 1.75803058
v -4.66442534 0.28567797 1.75615289
v -4.62881962 0.28567797 1.75571368
v -4.66442534 0.28682991 1.75615240
v -4.66442534 0.30304560 1.75614562
v -4.64620155 0.32042204 1.75571368
v -4.57754990 0.33779858 1.75797463
v -4.61145479 0.26831034 1.75794242
v -4.61145479 0.26631653 1.75818854
v -4.62015424 0.25962652 1.75818854
v -4.62881962 0.34551645 1.75818854
v -4.66442534 0.33779858 1.75726700
v -4.66442534 0.33879983 1.75734307
v -4.62881962 0.33779858 1.75694795
v -4.66442534 0.32151194 1.75619988
v -4.62881962 0.32042204 1.75601966
v -4.66442534 0.30419754 1.75614611
v -4.66442534 0.32042204 1.75615579
v -4.57754990 0.33864914 1.75805870
v -4.57754990 0.33645163 1.75817787
v -4.61046834 0.26731789 1.75818854
v -4.57754990 0.33996057 1.75818854
f 1 2 3
f 1 3 4
f 1 4 9
f 1 9 21
f 1 21 20
f 1 20 32
f 1 32 33
f 1 33 22
f 1 22 10
f 1 10 5
f 1 5 12
f 1 12 24
f 1 24 23
f 1 23 26
f 1 26 29
f 1 29 28
f 1 28 16
f 1 16 15
f 1 15 13
f 1 13 6
f 1 6 2
f 2 6 3
f 3 6 7
f 3 7 8
f 3 8 4
f 4 8 9
f 5 10 11
f 5 11 12
f 6 13 7
f 7 14 8
f 7 13 15
f 7 15 16
f 7 16 17
f 7 17 14
f 8 14 18
f 8 18 19
f 8 19 20
f 8 20 21
f 8 21 9
f 10 22 11
f 11 23 24
f 11 24 12
f 11 22 25
f 11 25 17
f 11 17 26
f 11 26 23
f 14 17 27
f 14 27 18
f 16 28 17
f 17 28 29
f 17 29 26
f 17 25 27
f 18 27 25
f 18 25 30
f 18 30 33
f 18 33 31
f 18 31 32
f 18 32 19
f 19 32 20
f 22 33 25
f 25 33 30
f 31 33 32

