# https://github.com/mikedh/trimesh
v -6.45841886 -0.00740905 4.27880515
v -6.45841886 -0.00633354 4.27552590
v -6.36635487 0.00147848 4.15897284
v -6.36635487 -0.00774864 4.27880515
v -6.45841886 -0.00474839 4.29095296
v -6.45841886 -0.00367289 4.26786551
v -6.37939396 0.00810158 4.15897284
v -6.35282179 0.00900735 4.15897284
v -6.31425488 -0.00746570 4.27877863
v -6.31425488 -0.00469185 4.29092645
v -6.39725932 -0.00474839 4.29095296
v -6.45841886 0.00776189 4.29453771
v -6.38087575 0.00889405 4.15897284
v -6.45841886 0.05061427 4.15897284
v -6.31425488 -0.00361624 4.26786551
v -6.34791101 0.02514071 4.15897284
v -6.33161215 -0.00469185 4.29095296
v -6.31425488 0.00770535 4.29451099
v -6.33161215 0.00776189 4.29453771
v -6.31425488 0.02508406 4.29460399
v -6.45841886 0.02514071 4.29460399
v -6.45841886 0.39111244 4.15897284
v -6.31425488 0.00776189 4.26550218
v -6.34779812 0.04251932 4.15897284
v -6.31425488 0.39111244 4.29460399
v -6.45841886 0.39111244 4.29460399
v -6.45840477 0.57044712 4.15897284
v -6.31425488 0.02514071 4.26543590
v -6.34779812 0.39111244 4.15897284
v -6.31425488 0.39111244 4.27757046
v -6.31426896 0.57044712 4.29460399
v -6.45840477 0.57044712 4.29460399
v -6.34781221 0.57044712 4.15897284
v -6.31425488 0.07722020 4.26543590
v -6.31425488 0.09459891 4.26594046
v -6.31426896 0.57044712 4.27757046
f 1 2 3
f 1 3 4
f 1 4 5
f 1 5 12
f 1 12 21
f 1 21 26
f 1 26 22
f 1 22 14
f 1 14 6
f 1 6 2
f 2 6 3
f 3 7 13
f 3 13 14
f 3 14 22
f 3 22 27
f 3 27 33
f 3 33 29
f 3 29 24
f 3 24 16
f 3 16 8
f 3 8 9
f 3 9 4
f 3 6 7
f 4 9 10
f 4 10 11
f 4 11 5
f 5 11 19
f 5 19 12
f 6 13 7
f 6 14 13
f 8 15 9
f 8 16 15
f 9 15 23
f 9 23 28
f 9 28 34
f 9 34 35
f 9 35 30
f 9 30 25
f 9 25 20
f 9 20 18
f 9 18 10
f 10 17 11
f 10 18 17
f 11 17 19
f 12 19 20
f 12 20 21
f 15 16 23
f 16 24 23
f 17 18 19
f 18 20 19
f 20 25 31
f 20 31 32
f 20 32 26
f 20 26 21
f 22 26 32
f 22 32 27
f 23 24 28
f 24 29 34
f 24 34 28
f 25 30 36
f 25 36 31
f 27 32 31
f 27 31 36
f 27 36 33
f 29 33 34
f 30 35 36
f 33 36 34
f 34 36 35

