# https://github.com/mikedh/trimesh
v -5.60877649 0.27805382 0.89709856
v -5.60877649 0.27062747 0.89709856
v -5.64744304 0.27805382 0.89709856
v -5.60913234 0.27805382 0.96018500
v -5.60921933 0.27798857 0.97755719
v -5.60918536 0.26830402 1.10085785
v -5.60918143 0.26830402 1.09916251
v -5.61044946 0.25956894 0.99909792
v -5.61921136 0.26296096 0.89709856
v -5.60921560 0.26739742 1.10085785
v -5.60963939 0.25903642 1.10085785
v -5.61020339 0.25941442 1.02967376
v -5.64622057 0.27805382 1.10065839
v -5.64651945 0.27500428 0.89709856
v -5.64565656 0.27611759 1.10085785
v -5.64592914 0.27705401 1.10085785
v -5.60914373 0.27805382 0.96190023
v -5.60931772 0.27805382 0.97755719
v -5.60953727 0.27805382 0.99532820
v -5.60931399 0.27790852 0.99492938
v -5.60952588 0.27773546 1.02967376
v -5.60963566 0.27764795 1.04704595
v -5.60975683 0.27755485 1.06441814
v -5.60989685 0.27744870 1.08179032
v -5.60997245 0.27646018 1.10085785
v -5.61034341 0.25950194 1.01228158
v -5.61108534 0.25956894 0.99909792
v -5.63015743 0.26561944 0.89709856
v -5.61781098 0.26049232 0.99397193
v -5.62051337 0.26057423 1.01228158
v -5.61574819 0.25903642 1.10085785
v -5.64495254 0.27805382 1.10085785
v -5.64287463 0.27215959 0.89709856
v -5.63658045 0.26803041 1.10085785
v -5.64477089 0.27532264 1.10085785
v -5.60976822 0.27805382 1.01289986
v -5.61023364 0.27805382 1.04812301
v -5.60941983 0.27782287 1.01228158
v -5.61048343 0.27805382 1.06575442
v -5.61076740 0.27805382 1.08340592
v -5.61107022 0.27805382 1.10085785
v -5.61005198 0.27733519 1.09916251
v -5.61006710 0.27732401 1.10085785
v -5.61182707 0.25950194 1.01228158
v -5.63658045 0.26733591 0.89709856
v -5.61267877 0.25941442 1.02967376
v -5.61659224 0.25914630 1.10085785
v -5.62443843 0.26021311 1.10085785
v -5.63547521 0.26728195 1.10085785
f 1 2 9
f 1 9 28
f 1 28 45
f 1 45 33
f 1 33 14
f 1 14 3
f 1 3 13
f 1 13 32
f 1 32 41
f 1 41 40
f 1 40 39
f 1 39 37
f 1 37 36
f 1 36 19
f 1 19 18
f 1 18 17
f 1 17 4
f 1 4 5
f 1 5 6
f 1 6 7
f 1 7 2
f 2 8 9
f 2 7 10
f 2 10 11
f 2 11 12
f 2 12 8
f 3 14 15
f 3 15 16
f 3 16 13
f 4 17 5
f 5 17 18
f 5 18 19
f 5 19 20
f 5 20 6
f 6 10 7
f 6 20 21
f 6 21 22
f 6 22 23
f 6 23 24
f 6 24 25
f 6 25 43
f 6 43 41
f 6 41 32
f 6 32 16
f 6 16 15
f 6 15 35
f 6 35 34
f 6 34 49
f 6 49 48
f 6 48 47
f 6 47 31
f 6 31 11
f 6 11 10
f 8 26 11
f 8 11 31
f 8 31 27
f 8 27 9
f 8 12 26
f 9 27 29
f 9 29 30
f 9 30 28
f 11 26 12
f 13 16 32
f 14 33 34
f 14 34 35
f 14 35 15
f 19 36 20
f 20 36 37
f 20 37 38
f 20 38 21
f 21 37 22
f 21 38 37
f 22 37 39
f 22 39 23
f 23 39 40
f 23 40 24
f 24 40 41
f 24 41 42
f 24 42 25
f 25 42 43
f 27 31 44
f 27 44 30
f 27 30 29
f 28 30 45
f 30 44 46
f 30 46 31
f 30 31 47
f 30 47 48
f 30 48 45
f 31 46 44
f 33 45 34
f 34 45 49
f 41 43 42
f 45 48 49

