# https://github.com/mikedh/trimesh
v -5.14889341 0.41575351 1.41197997
v -5.15260575 0.41709435 1.41197997
v -5.14889341 0.39697824 1.41197997
v -5.14889341 0.41728439 1.39334223
v -5.15264573 0.41710838 1.41192596
v -5.16747543 0.41894896 1.41192596
v -5.16755538 0.41894544 1.41197997
v -5.35279707 0.40533298 1.41197997
v -5.25431814 0.39219908 1.13608711
v -5.14897315 0.38922530 1.13608711
v -5.14889341 0.38975669 1.15250993
v -5.14889341 0.41909680 1.35979428
v -5.15009102 0.41932904 1.35979428
v -5.16747543 0.42162712 1.35979428
v -5.18483995 0.41991677 1.41192596
v -5.18491990 0.41991325 1.41197997
v -5.35279707 0.42085288 1.41197997
v -5.35279707 0.39659464 1.13608711
v -5.27170255 0.39296628 1.13608711
v -5.14889341 0.39036202 1.13608711
v -5.14889341 0.38973209 1.15132144
v -5.14889341 0.41914605 1.35836266
v -5.15009102 0.41989564 1.34242602
v -5.18483995 0.42247526 1.35979428
v -5.18483995 0.42162712 1.37716248
v -5.18483995 0.42077547 1.39453073
v -5.16747543 0.42216560 1.34242602
v -5.21958909 0.42352752 1.35979428
v -5.23697350 0.42404487 1.35979428
v -5.20222457 0.42040947 1.41192596
v -5.20230431 0.42040595 1.41197997
v -5.27178251 0.42178200 1.41197997
v -5.35279707 0.42085992 1.41192596
v -5.35279707 0.41656291 1.13608711
v -5.14889341 0.40729670 1.13608711
v -5.14889341 0.41966340 1.34242602
v -5.14889341 0.41962467 1.34085936
v -5.14889341 0.41919886 1.32503079
v -5.15009102 0.41942758 1.32503079
v -5.16747543 0.42173271 1.32503079
v -5.18483995 0.42301022 1.34242602
v -5.23697350 0.42459034 1.34242602
v -5.18483995 0.42269699 1.32503079
v -5.25431814 0.42448123 1.35979428
v -5.23697350 0.42316152 1.37716248
v -5.25431814 0.42506192 1.34242602
v -5.21958909 0.42088457 1.41192596
v -5.21966884 0.42088105 1.41197997
v -5.25439789 0.42173975 1.41197997
v -5.27170255 0.42178547 1.41192596
v -5.27170255 0.42362958 1.37716248
v -5.27170255 0.42454814 1.35979428
v -5.35279707 0.42175383 1.39453073
v -5.35279707 0.42218668 1.25555783
v -5.32381622 0.42222541 1.25555783
v -5.30645170 0.42219020 1.25555783
v -5.28906729 0.42214800 1.25555783
v -5.27170255 0.42210574 1.25555783
v -5.34022278 0.41638695 1.13608711
v -5.15009102 0.40747266 1.13608711
v -5.15863357 0.41601392 1.24642802
v -5.16747543 0.42064171 1.30766254
v -5.18483995 0.42174327 1.30766254
v -5.20222457 0.42328471 1.32503079
v -5.21958909 0.42381258 1.32503079
v -5.23697350 0.42434049 1.32503079
v -5.25431814 0.42482615 1.32503079
v -5.21958909 0.42231339 1.29029434
v -5.23697350 0.42119076 1.25555783
v -5.25431814 0.42265825 1.39453073
v -5.23705346 0.42135263 1.41197997
v -5.23697350 0.42226057 1.39453073
v -5.27170255 0.42517806 1.34242602
v -5.27170255 0.42502323 1.32503079
v -5.25431814 0.42174327 1.41192596
v -5.35279707 0.42353808 1.35979428
v -5.35279707 0.42294331 1.37138207
v -5.35279707 0.42428415 1.34242602
v -5.35279707 0.42274623 1.27292608
v -5.28906729 0.42491061 1.32503079
v -5.30645170 0.42361549 1.29029434
v -5.30645170 0.42292928 1.27292608
v -5.28906729 0.42362958 1.29029434
v -5.27170255 0.42284829 1.27292608
v -5.25431814 0.42185237 1.25555783
v -5.25431814 0.42263014 1.27292608
v -5.16747543 0.40845102 1.13608711
v -5.25431814 0.42075434 1.23818963
v -5.23697350 0.42009976 1.23818963
v -5.23697350 0.41876245 1.22082138
v -5.21958909 0.41802342 1.22082138
v -5.20222457 0.41626729 1.20834216
v -5.19314307 0.41601040 1.21177260
v -5.17529946 0.41604209 1.22862764
v -5.18483995 0.42063120 1.29029434
v -5.21958909 0.42309115 1.30766254
v -5.23697350 0.42289407 1.29029434
v -5.27170255 0.42432641 1.30766254
v -5.23697350 0.42211983 1.27292608
v -5.35279707 0.42431936 1.32503079
v -5.35279707 0.42309819 1.28451393
v -5.35279707 0.42414693 1.31925038
f 1 2 7
f 1 7 16
f 1 16 31
f 1 31 48
f 1 48 71
f 1 71 49
f 1 49 32
f 1 32 17
f 1 17 8
f 1 8 3
f 1 3 11
f 1 11 21
f 1 21 20
f 1 20 35
f 1 35 38
f 1 38 37
f 1 37 36
f 1 36 22
f 1 22 12
f 1 12 4
f 1 4 2
f 2 5 6
f 2 6 7
f 2 4 5
f 3 8 9
f 3 9 10
f 3 10 11
f 4 12 5
f 5 12 13
f 5 13 14
f 5 14 6
f 6 15 16
f 6 16 7
f 6 14 15
f 8 17 33
f 8 33 53
f 8 53 77
f 8 77 76
f 8 76 78
f 8 78 100
f 8 100 102
f 8 102 101
f 8 101 79
f 8 79 54
f 8 54 34
f 8 34 18
f 8 18 19
f 8 19 9
f 9 19 18
f 9 18 34
f 9 34 59
f 9 59 87
f 9 87 60
f 9 60 35
f 9 35 20
f 9 20 10
f 10 20 21
f 10 21 11
f 12 22 13
f 13 22 23
f 13 23 14
f 14 24 25
f 14 25 26
f 14 26 15
f 14 23 27
f 14 27 24
f 15 26 28
f 15 28 29
f 15 29 30
f 15 30 31
f 15 31 16
f 17 32 33
f 22 36 23
f 23 36 37
f 23 37 38
f 23 38 39
f 23 39 40
f 23 40 27
f 24 28 25
f 24 27 41
f 24 41 42
f 24 42 28
f 25 28 26
f 27 40 43
f 27 43 41
f 28 42 29
f 29 44 45
f 29 45 30
f 29 42 46
f 29 46 44
f 30 47 48
f 30 48 31
f 30 45 47
f 32 49 75
f 32 75 50
f 32 50 51
f 32 51 33
f 33 51 52
f 33 52 53
f 34 54 55
f 34 55 56
f 34 56 57
f 34 57 58
f 34 58 59
f 35 60 61
f 35 61 39
f 35 39 38
f 39 61 40
f 40 62 63
f 40 63 43
f 40 61 62
f 41 43 64
f 41 64 65
f 41 65 66
f 41 66 42
f 42 66 67
f 42 67 46
f 43 68 64
f 43 63 69
f 43 69 68
f 44 52 70
f 44 70 71
f 44 71 72
f 44 72 45
f 44 46 73
f 44 73 52
f 45 72 47
f 46 67 74
f 46 74 73
f 47 72 71
f 47 71 48
f 49 71 75
f 50 75 51
f 51 75 52
f 52 76 77
f 52 77 53
f 52 75 70
f 52 73 78
f 52 78 76
f 54 79 80
f 54 80 74
f 54 74 81
f 54 81 55
f 55 81 82
f 55 82 56
f 56 82 83
f 56 83 84
f 56 84 57
f 57 84 58
f 58 85 59
f 58 84 86
f 58 86 85
f 59 85 88
f 59 88 89
f 59 89 90
f 59 90 91
f 59 91 92
f 59 92 87
f 60 87 92
f 60 92 93
f 60 93 94
f 60 94 61
f 61 94 62
f 62 95 63
f 62 94 95
f 63 95 89
f 63 89 69
f 64 96 65
f 64 68 96
f 65 96 66
f 66 96 97
f 66 97 67
f 67 97 86
f 67 86 98
f 67 98 74
f 68 99 96
f 68 69 99
f 69 89 85
f 69 85 99
f 70 75 71
f 73 74 80
f 73 80 100
f 73 100 78
f 74 98 83
f 74 83 82
f 74 82 81
f 79 101 80
f 80 102 100
f 80 101 102
f 83 98 84
f 84 98 86
f 85 89 88
f 85 86 99
f 86 97 99
f 89 93 91
f 89 91 90
f 89 95 93
f 91 93 92
f 93 95 94
f 96 99 97

