# https://github.com/mikedh/trimesh
v -1.15746405 0.78927845 -0.19367137
v -1.15381488 0.78927845 -0.19367137
v -1.53600034 0.77217045 -0.19127035
v -1.53600034 0.78927845 -0.19362932
v -1.14706812 0.78927845 -0.19299737
v -1.14706812 0.77217045 -0.19089110
v -1.15381488 0.77217045 -0.19127035
v -1.53600034 0.75480287 -0.18516216
v -1.55339749 0.77217045 -0.19021710
v -1.53782492 0.78927845 -0.19358707
v -1.14706812 0.78927845 -0.17446258
v -1.13786048 0.77532329 0.23667183
v -1.13786048 0.75682589 0.01345437
v -1.13786048 0.74086299 0.01345437
v -1.14706812 0.75426087 -0.18427773
v -1.15381488 0.75480287 -0.18516216
v -1.53600034 0.74574120 -0.17838019
v -1.54728723 0.74587097 -0.17821179
v -1.55318528 0.75339057 -0.18292974
v -1.57079463 0.75852832 -0.18116046
v -1.57079463 0.77217045 -0.18545711
v -1.55212448 0.78927845 -0.19223908
v -1.57134621 0.78927845 -0.15942410
v -1.13786048 0.74361131 0.23667183
v -1.55322775 0.77546834 0.23667183
v -1.14706812 0.74068745 -0.13444432
v -1.14706812 0.74097753 -0.15179974
v -1.14706812 0.74244327 -0.16241501
v -1.14706812 0.74358837 -0.16957624
v -1.14706812 0.74582519 -0.17829589
v -1.14706812 0.74925289 -0.18082346
v -1.13786048 0.74086299 0.15949989
v -1.37081231 0.71130379 -0.05680904
v -1.15381488 0.74574120 -0.17838019
v -1.53600034 0.74322958 -0.16919699
v -1.37110933 0.71130379 -0.05680904
v -1.55318528 0.74409221 -0.17033432
v -1.55887114 0.74667255 -0.17690585
v -1.57134621 0.75872680 -0.18103411
v -1.57079463 0.78927845 -0.18701574
v -1.57134621 0.77217045 -0.18520441
v -1.57134621 0.78927845 -0.18672079
v -1.57134621 0.77077338 0.01345437
v -1.15385734 0.74311509 0.23667183
v -1.13786048 0.74349677 0.23616644
v -1.55322775 0.74355021 0.23667183
v -1.15381488 0.74323724 -0.16919699
v -1.13786048 0.74087066 0.17685510
v -1.37081231 0.71130379 -0.05541901
v -1.37110933 0.71130379 -0.05541901
v -1.57079463 0.74271046 -0.13444432
v -1.57079463 0.74331357 -0.15179974
v -1.55339749 0.74115313 -0.15179974
v -1.57079463 0.74502361 -0.16410000
v -1.57134621 0.74509233 -0.16388935
v -1.57079463 0.74984833 -0.17281985
v -1.57134621 0.75052776 -0.17311459
v -1.57134621 0.74284789 0.01345437
v -1.53600034 0.74311509 0.23667183
v -1.17121213 0.74178673 0.23039525
v -1.15385734 0.74179439 0.23039525
v -1.13786048 0.74221424 0.23039525
v -1.55322775 0.74215319 0.23039525
v -1.54440184 0.74329068 0.23667183
v -1.13786048 0.74089354 0.19425256
v -1.13786048 0.74100808 0.21165001
v -1.13786048 0.74103097 0.21299800
v -1.53600034 0.74178673 0.23039525
v -1.55322775 0.74100042 0.21299800
v -1.55322775 0.74090121 0.19564259
v -1.57079463 0.74271046 0.01345437
v -1.57134621 0.74284789 -0.13444432
v -1.57134621 0.74287839 -0.13541327
v -1.57134621 0.74345100 -0.15179974
v -1.57134621 0.74348916 -0.15234738
v -1.57134621 0.75011553 -0.17256695
f 1 2 7
f 1 7 3
f 1 3 4
f 1 4 10
f 1 10 22
f 1 22 40
f 1 40 42
f 1 42 23
f 1 23 11
f 1 11 5
f 1 5 2
f 2 5 6
f 2 6 7
f 3 8 9
f 3 9 10
f 3 10 4
f 3 7 16
f 3 16 8
f 5 11 12
f 5 12 13
f 5 13 14
f 5 14 6
f 6 14 15
f 6 15 16
f 6 16 7
f 8 17 18
f 8 18 19
f 8 19 9
f 8 16 34
f 8 34 17
f 9 20 21
f 9 21 22
f 9 22 10
f 9 19 20
f 11 23 12
f 12 24 45
f 12 45 62
f 12 62 67
f 12 67 66
f 12 66 65
f 12 65 48
f 12 48 32
f 12 32 14
f 12 14 13
f 12 23 25
f 12 25 46
f 12 46 64
f 12 64 59
f 12 59 44
f 12 44 24
f 14 26 27
f 14 27 28
f 14 28 29
f 14 29 30
f 14 30 31
f 14 31 15
f 14 32 49
f 14 49 33
f 14 33 26
f 15 31 16
f 16 31 30
f 16 30 34
f 17 35 18
f 17 34 33
f 17 33 36
f 17 36 35
f 18 35 37
f 18 37 38
f 18 38 19
f 19 38 20
f 20 38 39
f 20 39 21
f 21 40 22
f 21 39 41
f 21 41 40
f 23 42 41
f 23 41 39
f 23 39 57
f 23 57 76
f 23 76 55
f 23 55 75
f 23 75 74
f 23 74 73
f 23 73 72
f 23 72 58
f 23 58 43
f 23 43 25
f 24 44 45
f 25 43 58
f 25 58 46
f 26 33 27
f 27 33 28
f 28 33 29
f 29 33 47
f 29 47 30
f 30 47 34
f 32 48 49
f 33 49 50
f 33 50 36
f 33 34 47
f 35 36 37
f 36 50 71
f 36 71 51
f 36 51 52
f 36 52 53
f 36 53 37
f 37 53 54
f 37 54 38
f 38 54 55
f 38 55 56
f 38 56 39
f 39 56 57
f 40 41 42
f 44 59 68
f 44 68 60
f 44 60 61
f 44 61 62
f 44 62 45
f 46 58 63
f 46 63 64
f 48 65 49
f 49 65 66
f 49 66 67
f 49 67 62
f 49 62 61
f 49 61 60
f 49 60 68
f 49 68 50
f 50 68 63
f 50 63 69
f 50 69 70
f 50 70 71
f 51 71 58
f 51 58 72
f 51 72 73
f 51 73 52
f 52 73 74
f 52 74 75
f 52 75 55
f 52 55 54
f 52 54 53
f 55 76 56
f 56 76 57
f 58 71 69
f 58 69 63
f 59 64 68
f 63 68 64
f 69 71 70

