# https://github.com/mikedh/trimesh
v -2.16099647 0.47549707 1.44582914
v -2.02192369 0.47549707 1.44582914
v -2.00997078 0.47549707 1.59535907
v -2.00999170 0.49419281 1.59535907
v -2.00997078 0.50310229 1.59535907
v -2.00992884 0.52052527 1.59535907
v -2.00980301 0.56368664 1.59535907
v -2.00969820 0.59844769 1.59535907
v -2.00959329 0.63315219 1.59535907
v -2.15485225 0.66791324 1.44582914
v -1.99805981 0.47549707 1.47481295
v -2.02177683 0.47682647 1.44582914
v -1.99789204 0.47682647 1.47459334
v -1.94731257 0.47549707 1.59535907
v -2.00879647 0.65054685 1.59535907
v -2.15357313 0.68527963 1.44582914
v -1.99759854 0.47549707 1.47545701
v -2.02169295 0.49419281 1.44582914
v -1.99789204 0.49419281 1.47457874
v -1.99204142 0.47682647 1.48328850
v -1.99218827 0.47549707 1.48349345
v -1.94873854 0.47549707 1.58726412
v -1.94710285 0.47682647 1.59535907
v -2.00682524 0.66729098 1.59535907
v -2.00386850 0.68527963 1.59535907
v -2.00206514 0.69172839 1.59535907
v -1.99965356 0.69961963 1.59535907
v -2.14803703 0.70267429 1.44582914
v -2.02173489 0.52895391 1.44582914
v -1.99789204 0.65054685 1.47457874
v -1.99204142 0.49419281 1.48327384
v -1.97769805 0.47682647 1.50528983
v -1.97776092 0.47549707 1.50537765
v -1.98275175 0.47549707 1.49773646
v -1.98333896 0.49419281 1.49658007
v -1.97767703 0.49419281 1.50526052
v -1.94909500 0.47549707 1.58566856
v -1.94882232 0.47682647 1.58566856
v -1.94838197 0.49419281 1.58566856
v -1.94693508 0.48420859 1.59535907
v -1.99476752 0.70516329 1.59535907
v -2.13335802 0.73740707 1.44582914
v -2.02177683 0.54632025 1.44582914
v -1.99791307 0.66791324 1.47460799
v -1.99204142 0.65054685 1.48327384
v -1.97199418 0.47682647 1.51618069
v -1.97174252 0.49419281 1.51618069
v -1.97224584 0.47549707 1.51619534
v -1.98333896 0.65054685 1.49658007
v -1.97767703 0.65054685 1.50526052
v -1.95316319 0.47549707 1.56829290
v -1.95291153 0.47682647 1.56829290
v -1.94676731 0.49419281 1.59535907
v -1.95261793 0.49419281 1.56829290
v -1.94838197 0.61581408 1.58566856
v -1.99128654 0.70787858 1.59535907
v -2.11328975 0.75471691 1.44582914
v -2.12679446 0.74351640 1.44582914
v -2.02190266 0.58108135 1.44582914
v -2.02221729 0.61581408 1.44582914
v -1.99799695 0.68527963 1.47473973
v -1.99206244 0.66791324 1.48330315
v -2.02202849 0.59844769 1.44582914
v -1.96473861 0.47682647 1.53300005
v -1.96429815 0.47549707 1.53430288
v -1.97153280 0.47549707 1.51774698
v -1.96450787 0.49419281 1.53289758
v -1.97174252 0.65054685 1.51618069
v -1.97771897 0.66791324 1.50531908
v -1.95859438 0.47549707 1.55104903
v -1.95842661 0.47682647 1.55091730
v -1.94676731 0.61581408 1.59535907
v -1.95836375 0.49419281 1.55091730
v -1.95261793 0.63315219 1.56829290
v -1.94840299 0.63315219 1.58566856
v -1.98430355 0.71158377 1.59535907
v -2.11043792 0.75607453 1.44582914
v -1.98220659 0.71268683 1.59535907
v -2.02244793 0.63315219 1.44582914
v -1.99814370 0.70267429 1.47493002
v -1.99227216 0.70267429 1.48361053
v -1.99216725 0.68527963 1.48342023
v -2.02269959 0.65054685 1.44582914
v -1.96157215 0.47682647 1.54169521
v -1.96159307 0.47549707 1.54172447
v -1.96153021 0.49419281 1.54159273
v -1.96450787 0.63315219 1.53289758
v -1.97182641 0.66791324 1.51618069
v -1.96450787 0.65054685 1.53294149
v -1.98346479 0.68527963 1.49679962
v -1.97782378 0.68527963 1.50548012
v -1.94680925 0.63315219 1.59535907
v -1.95836375 0.63315219 1.55091730
v -1.95840559 0.65054685 1.55091730
v -1.95270182 0.65054685 1.56829290
v -1.94852882 0.65054685 1.58566856
v -2.10926361 0.75649878 1.44582914
v -1.99690653 0.72895016 1.55997840
v -1.98010953 0.71271510 1.59535907
v -1.98782648 0.72914813 1.56047607
v -1.99826953 0.72004068 1.47516423
v -1.98359062 0.70267429 1.49698992
v -1.99254474 0.72004068 1.48385939
v -2.02739682 0.72004068 1.44582914
v -2.02433517 0.72004068 1.44869827
v -2.01563271 0.72004068 1.45705669
v -2.00697209 0.72004068 1.46575185
v -1.96153021 0.63315219 1.54159273
v -1.96454981 0.66791324 1.53314644
v -1.97228778 0.70267429 1.51618069
v -1.96155113 0.65054685 1.54163664
v -1.97794961 0.70267429 1.50568502
v -1.94687211 0.64044950 1.59535907
v -1.95857336 0.66791324 1.55091730
v -1.95291153 0.66791324 1.56829290
v -1.94875946 0.66791324 1.58566856
v -1.94708183 0.65931492 1.59535907
v -1.94697702 0.65082969 1.59535907
v -2.09204718 0.76243842 1.44582914
v -2.00518966 0.74495894 1.52114305
v -2.01923952 0.74770244 1.51137932
v -2.07835389 0.76255156 1.45291409
v -1.97354598 0.71271510 1.59535907
v -1.97845293 0.72906331 1.56037360
v -1.98782648 0.73307961 1.55091730
v -2.00823029 0.73740707 1.46682047
v -1.99954875 0.73740707 1.47825292
v -1.97889328 0.72914813 1.50709033
v -1.97839007 0.72004068 1.50632914
v -2.02783717 0.72620661 1.44582914
v -2.02502718 0.73740707 1.44928382
v -2.01634564 0.73740707 1.45813997
v -1.96501119 0.70267429 1.53354169
v -1.96410946 0.68581702 1.53519581
v -1.96178176 0.69198295 1.54231002
v -1.95937028 0.68581702 1.54923392
v -1.97354598 0.72004068 1.51618069
v -1.95316319 0.68527963 1.56829290
v -1.94720766 0.66791324 1.59535907
v -1.94926278 0.68527963 1.58566856
v -1.94741737 0.67560652 1.59535907
v -2.06675745 0.76359807 1.45563683
v -2.07738919 0.76441830 1.44582914
v -2.00518966 0.74764590 1.51247720
v -1.98782648 0.73893443 1.53354169
v -2.02406259 0.75098339 1.50041529
v -2.03995785 0.75641391 1.48142942
v -1.96369003 0.71073523 1.59535907
v -1.97660753 0.73050579 1.55091730
v -1.96255766 0.71115953 1.59386599
v -1.95981063 0.71316768 1.58227245
v -2.02754357 0.74937122 1.45166983
v -2.01091445 0.74832470 1.46946999
v -1.99644515 0.74617514 1.48996354
v -1.97690113 0.73132602 1.51618069
v -1.96813571 0.72004068 1.53354169
v -2.02871788 0.73740707 1.44582914
v -1.96199148 0.70267429 1.54304190
v -1.95928640 0.70267429 1.55172240
v -1.95502951 0.70267429 1.56829290
v -1.94831910 0.68527963 1.59535907
v -2.06233279 0.76359807 1.45563683
v -2.07340489 0.76430515 1.44694168
v -2.07357266 0.76430515 1.44582914
v -1.99569028 0.74657111 1.51025218
v -2.02257376 0.75604626 1.48142942
v -1.97507675 0.73254222 1.53354169
v -1.95557467 0.70241973 1.59535907
v -1.95150648 0.69447195 1.59535907
v -1.95574245 0.70428647 1.58710307
v -1.95926537 0.71432733 1.56829290
v -2.03981100 0.75344412 1.44582914
v -2.03962231 0.75358553 1.44619514
v -2.02207044 0.75211477 1.46383421
v -2.00514771 0.74937122 1.48306894
v -1.99583703 0.74651451 1.49880508
v -1.96037682 0.71347878 1.55481109
v -2.06245862 0.76379603 1.44667816
v -2.03995785 0.75977973 1.46405382
v -2.06268926 0.76379603 1.44582914
v -2.00518966 0.75007830 1.49880508
v -2.05478362 0.76190103 1.44582914
v -2.05379800 0.76170301 1.44667816
f 1 2 11
f 1 11 17
f 1 17 21
f 1 21 34
f 1 34 33
f 1 33 48
f 1 48 66
f 1 66 65
f 1 65 85
f 1 85 70
f 1 70 51
f 1 51 37
f 1 37 22
f 1 22 14
f 1 14 3
f 1 3 4
f 1 4 5
f 1 5 6
f 1 6 7
f 1 7 8
f 1 8 9
f 1 9 10
f 1 10 16
f 1 16 28
f 1 28 42
f 1 42 58
f 1 58 57
f 1 57 77
f 1 77 97
f 1 97 119
f 1 119 143
f 1 143 164
f 1 164 180
f 1 180 182
f 1 182 172
f 1 172 157
f 1 157 130
f 1 130 104
f 1 104 83
f 1 83 79
f 1 79 60
f 1 60 63
f 1 63 59
f 1 59 43
f 1 43 29
f 1 29 18
f 1 18 12
f 1 12 2
f 2 12 13
f 2 13 11
f 3 14 23
f 3 23 40
f 3 40 53
f 3 53 72
f 3 72 92
f 3 92 113
f 3 113 118
f 3 118 117
f 3 117 139
f 3 139 141
f 3 141 161
f 3 161 169
f 3 169 168
f 3 168 148
f 3 148 123
f 3 123 99
f 3 99 78
f 3 78 76
f 3 76 56
f 3 56 41
f 3 41 27
f 3 27 26
f 3 26 25
f 3 25 24
f 3 24 15
f 3 15 9
f 3 9 8
f 3 8 7
f 3 7 6
f 3 6 5
f 3 5 4
f 9 15 10
f 10 15 16
f 11 13 17
f 12 18 13
f 13 18 19
f 13 19 31
f 13 31 20
f 13 20 21
f 13 21 17
f 14 22 23
f 15 24 16
f 16 24 25
f 16 25 26
f 16 26 27
f 16 27 28
f 18 29 30
f 18 30 19
f 19 30 45
f 19 45 31
f 20 32 33
f 20 33 34
f 20 34 21
f 20 31 35
f 20 35 36
f 20 36 32
f 22 37 38
f 22 38 23
f 23 38 39
f 23 39 40
f 27 41 42
f 27 42 28
f 29 43 30
f 30 44 62
f 30 62 45
f 30 43 44
f 31 45 49
f 31 49 35
f 32 46 33
f 32 36 47
f 32 47 46
f 33 46 48
f 35 49 50
f 35 50 36
f 36 50 68
f 36 68 47
f 37 51 38
f 38 51 52
f 38 52 39
f 39 53 40
f 39 52 54
f 39 54 74
f 39 74 55
f 39 55 72
f 39 72 53
f 41 56 57
f 41 57 58
f 41 58 42
f 43 59 44
f 44 60 61
f 44 61 62
f 44 59 63
f 44 63 60
f 45 62 49
f 46 64 65
f 46 65 66
f 46 66 48
f 46 47 67
f 46 67 64
f 47 68 87
f 47 87 67
f 49 62 50
f 50 62 69
f 50 69 68
f 51 70 52
f 52 70 71
f 52 71 54
f 54 71 73
f 54 73 93
f 54 93 74
f 55 74 75
f 55 75 72
f 56 76 57
f 57 76 78
f 57 78 77
f 60 79 61
f 61 80 81
f 61 81 82
f 61 82 62
f 61 79 83
f 61 83 80
f 62 82 69
f 64 84 85
f 64 85 65
f 64 67 84
f 67 86 84
f 67 87 108
f 67 108 86
f 68 69 88
f 68 88 89
f 68 89 87
f 69 82 90
f 69 90 91
f 69 91 88
f 70 85 71
f 71 85 84
f 71 84 86
f 71 86 73
f 72 75 92
f 73 86 108
f 73 108 93
f 74 93 94
f 74 94 95
f 74 95 75
f 75 95 96
f 75 96 92
f 77 78 98
f 77 98 97
f 78 99 100
f 78 100 98
f 80 101 81
f 80 83 101
f 81 102 91
f 81 91 90
f 81 90 82
f 81 101 103
f 81 103 102
f 83 104 105
f 83 105 106
f 83 106 107
f 83 107 101
f 87 89 108
f 88 109 89
f 88 91 110
f 88 110 109
f 89 111 108
f 89 109 111
f 91 102 112
f 91 112 110
f 92 96 113
f 93 108 111
f 93 111 94
f 94 111 109
f 94 109 114
f 94 114 95
f 95 114 115
f 95 115 96
f 96 115 116
f 96 116 117
f 96 117 118
f 96 118 113
f 97 98 119
f 98 100 120
f 98 120 121
f 98 121 122
f 98 122 119
f 99 123 100
f 100 124 125
f 100 125 120
f 100 123 124
f 101 107 126
f 101 126 127
f 101 127 128
f 101 128 103
f 102 103 112
f 103 128 129
f 103 129 112
f 104 130 105
f 105 130 131
f 105 131 106
f 106 131 107
f 107 131 132
f 107 132 126
f 109 110 133
f 109 133 134
f 109 134 135
f 109 135 136
f 109 136 114
f 110 112 129
f 110 129 137
f 110 137 133
f 114 136 115
f 115 136 138
f 115 138 116
f 116 139 117
f 116 138 140
f 116 140 141
f 116 141 139
f 119 122 142
f 119 142 143
f 120 144 121
f 120 125 124
f 120 124 145
f 120 145 144
f 121 144 146
f 121 146 147
f 121 147 142
f 121 142 122
f 123 148 124
f 124 149 145
f 124 148 150
f 124 150 151
f 124 151 149
f 126 132 152
f 126 152 153
f 126 153 127
f 127 153 154
f 127 154 128
f 128 154 155
f 128 155 156
f 128 156 137
f 128 137 129
f 130 157 131
f 131 157 152
f 131 152 132
f 133 137 158
f 133 158 138
f 133 138 135
f 133 135 134
f 135 138 136
f 137 156 159
f 137 159 158
f 138 158 159
f 138 159 160
f 138 160 140
f 140 161 141
f 140 160 161
f 142 162 143
f 142 147 162
f 143 163 164
f 143 162 163
f 144 145 165
f 144 165 166
f 144 166 162
f 144 162 147
f 144 147 146
f 145 149 167
f 145 167 165
f 148 168 150
f 149 151 167
f 150 168 151
f 151 168 169
f 151 169 170
f 151 170 171
f 151 171 167
f 152 172 173
f 152 173 174
f 152 174 153
f 152 157 172
f 153 174 175
f 153 175 154
f 154 175 176
f 154 176 167
f 154 167 155
f 155 167 177
f 155 177 156
f 156 177 159
f 159 177 160
f 160 169 161
f 160 177 171
f 160 171 169
f 162 178 163
f 162 166 179
f 162 179 178
f 163 178 164
f 164 178 180
f 165 167 176
f 165 176 181
f 165 181 166
f 166 181 176
f 166 176 175
f 166 175 179
f 167 171 177
f 169 171 170
f 172 182 173
f 173 182 174
f 174 182 183
f 174 183 175
f 175 183 179
f 178 179 180
f 179 183 182
f 179 182 180

