# https://github.com/mikedh/trimesh
v -4.64528397 2.00522426 4.29519016
v -4.64528397 2.07531166 4.29519016
v -4.58839208 2.00522426 4.29519016
v -4.62148151 2.00522426 4.38293389
v -4.64523820 2.09073038 4.29519016
v -4.62148151 2.07531166 4.38293389
v -4.57851687 2.09073038 4.29519016
v -4.57995465 2.09073038 4.36569012
v -4.60731897 2.00522426 4.36569012
v -4.61372387 2.00522426 4.38293389
v -4.61276963 2.09073038 4.38957812
v -4.61395916 2.09073038 4.38947663
v -4.62145541 2.09073038 4.38279532
v -4.58413748 2.09073038 4.37353569
v -4.59072527 2.09073038 4.38346993
v -4.59260754 2.09073038 4.38450495
f 1 2 5
f 1 5 7
f 1 7 3
f 1 3 9
f 1 9 10
f 1 10 4
f 1 4 6
f 1 6 2
f 2 6 5
f 3 7 8
f 3 8 9
f 4 10 11
f 4 11 12
f 4 12 6
f 5 6 13
f 5 13 12
f 5 12 11
f 5 11 16
f 5 16 15
f 5 15 14
f 5 14 8
f 5 8 7
f 6 12 13
f 8 14 10
f 8 10 9
f 10 15 16
f 10 16 11
f 10 14 15

