# https://github.com/mikedh/trimesh
v -1.06162911 0.71875059 0.28777430
v -1.05920468 0.71875059 0.28777430
v -1.11453856 0.71875059 0.33781183
v -1.06162911 0.71876928 0.23656930
v -1.05920468 0.71875059 0.35567812
v -1.05920468 0.71876928 0.23656930
v -1.11453856 0.71875059 0.34125667
v -1.14703747 0.74067544 -0.11690374
v -1.14703747 0.74069413 -0.13430306
v -1.14703747 0.74101161 -0.15170218
v -1.06162911 0.71959101 0.01353204
v -1.05920468 0.87640768 0.35672908
v -1.11453856 0.87640768 0.35667067
v -1.11453856 0.86354035 0.35649555
v -1.11453856 0.71912414 0.35363460
v -1.10299203 0.71875059 0.35363460
v -1.05922187 0.71959101 0.01353204
v -1.05920468 0.73727653 -0.23974934
v -1.14703747 0.74067544 0.01353204
v -1.14703747 0.74246828 -0.16232864
v -1.06162911 0.73727653 -0.23863997
v -1.06000419 0.73727653 -0.23974934
v -1.11453856 0.89377572 0.35567812
v -1.11453856 0.88092709 0.35643714
v -1.05920468 0.89377572 0.35567812
v -1.13780373 0.77537420 0.23656930
v -1.13780373 0.74364482 0.23656930
v -1.13780373 0.74224417 0.23032193
v -1.13780373 0.74104894 0.21292260
v -1.05920468 0.90951901 -0.23974934
v -1.14703747 0.75664284 0.01353204
v -1.14703747 0.74358879 -0.16956857
v -1.06162911 0.73744461 -0.23974934
v -1.11453856 0.89695052 0.35392654
v -1.05920468 0.90598935 0.34884685
v -1.14703747 0.90598935 -0.18819388
v -1.11453856 0.90598935 0.34884685
v -1.14703747 0.90951901 -0.23974934
v -1.05920468 0.90951901 0.33465893
v -1.14703747 0.74584850 -0.17826813
v -1.14703747 0.74926610 -0.18077872
v -1.14703747 0.75428977 -0.18428187
v -1.14703747 0.89254313 -0.23974934
v -1.05920468 0.90757678 0.34254106
v -1.11453856 0.90692313 0.34516847
v -1.14703747 0.90737133 -0.19432444
v -1.11453856 0.90951901 0.33465893
v -1.14703747 0.90951901 -0.20389994
f 1 2 5
f 1 5 16
f 1 16 7
f 1 7 3
f 1 3 4
f 1 4 6
f 1 6 2
f 2 6 18
f 2 18 30
f 2 30 39
f 2 39 44
f 2 44 35
f 2 35 25
f 2 25 12
f 2 12 5
f 3 7 19
f 3 19 8
f 3 8 9
f 3 9 10
f 3 10 11
f 3 11 4
f 4 11 17
f 4 17 6
f 5 12 13
f 5 13 14
f 5 14 15
f 5 15 16
f 6 17 18
f 7 16 15
f 7 15 19
f 8 19 31
f 8 31 36
f 8 36 46
f 8 46 48
f 8 48 38
f 8 38 43
f 8 43 42
f 8 42 41
f 8 41 40
f 8 40 32
f 8 32 20
f 8 20 10
f 8 10 9
f 10 20 21
f 10 21 11
f 11 21 22
f 11 22 18
f 11 18 17
f 12 23 24
f 12 24 13
f 12 25 23
f 13 24 26
f 13 26 27
f 13 27 14
f 14 27 15
f 15 27 28
f 15 28 29
f 15 29 19
f 18 22 33
f 18 33 43
f 18 43 38
f 18 38 30
f 19 29 28
f 19 28 27
f 19 27 26
f 19 26 31
f 20 32 33
f 20 33 21
f 21 33 22
f 23 34 26
f 23 26 24
f 23 25 34
f 25 35 34
f 26 36 31
f 26 34 37
f 26 37 36
f 30 38 48
f 30 48 47
f 30 47 39
f 32 40 33
f 33 40 41
f 33 41 42
f 33 42 43
f 34 35 37
f 35 44 45
f 35 45 37
f 36 37 45
f 36 45 47
f 36 47 46
f 39 47 44
f 44 47 45
f 46 47 48

