# https://github.com/mikedh/trimesh
v -2.40714915 0.70552312 2.12956533
v -2.43904998 0.70552312 2.12956533
v -2.40705916 0.70267321 2.12956533
v -2.40704114 0.70552312 2.12429853
v -2.46822750 0.70552312 2.04336387
v -2.46822750 0.02509918 2.03453354
v -2.42661478 0.02509918 2.12956533
v -2.40695114 0.70267321 2.12429853
v -2.40705916 0.02509918 2.12956533
v -2.40727509 0.70552312 2.12145978
v -2.46822750 0.70552312 2.00620641
v -2.46822750 0.00772192 2.03267325
v -2.42584095 0.01300460 2.12956533
v -2.40843282 0.70267321 2.10692778
v -2.40851081 0.70552312 2.10692778
v -2.40695114 0.02509918 2.12429853
v -2.40707718 0.01981650 2.12956533
v -2.46516217 0.70552312 2.00833245
v -2.46822750 0.70267321 2.00615809
v -2.46822750 0.00362090 2.03122367
v -2.42541504 0.00772192 2.12956533
v -2.41145616 0.70267321 2.09133276
v -2.41149220 0.70552312 2.09146563
v -2.40896670 0.70552312 2.10449974
v -2.40843282 0.02509918 2.10692778
v -2.40701110 0.00772192 2.12429853
v -2.40847487 0.00772192 2.10692778
v -2.40711912 0.00772192 2.12956533
v -2.46343457 0.70552312 2.00957667
v -2.46336855 0.70267321 2.00952835
v -2.46822750 0.69301149 2.00615809
v -2.46822750 -0.00242639 2.02857820
v -2.42094606 -0.00082768 2.12956533
v -2.41450347 0.70267321 2.08264738
v -2.41193007 0.70552312 2.09004022
v -2.41145616 0.02509918 2.09133276
v -2.41147418 0.00772192 2.09138108
v -2.40805492 0.00403795 2.12956533
v -2.41034036 -0.00451165 2.12956533
v -2.41028641 -0.00451165 2.12429853
v -2.41101229 -0.00395561 2.10692778
v -2.41216402 -0.00263497 2.09370040
v -2.45616419 0.70552312 2.01624472
v -2.45468251 0.70267321 2.01750102
v -2.46336855 0.02509918 2.00952835
v -2.46822750 0.03281468 2.00619433
v -2.46822750 -0.00374714 2.02500258
v -2.41886449 -0.00451165 2.12956533
v -2.41839063 0.70267321 2.07217420
v -2.41447949 0.70552312 2.08278026
v -2.41863654 0.02509918 2.07217420
v -2.41862458 0.04247644 2.07217420
v -2.43079585 -0.00110575 2.04599727
v -2.42599692 0.00772192 2.05481552
v -2.41881053 -0.00451165 2.12429853
v -2.42523510 -0.00416409 2.07217420
v -2.42847437 -0.00312151 2.05481552
v -2.45474247 0.70552312 2.01756142
v -2.44609242 0.70552312 2.02624680
v -2.44603846 0.70267321 2.02618640
v -2.45468251 0.02509918 2.01750102
v -2.46339258 0.00772192 2.00954043
v -2.46822750 0.01543741 2.00621849
v -2.46822750 -0.00339958 2.01212551
v -2.43480294 -0.00416409 2.07217420
v -2.42592494 0.70267321 2.05481552
v -2.41842662 0.70552312 2.07217420
v -2.42592494 0.02509918 2.05481552
v -2.44680628 -0.00242639 2.02706822
v -2.44606243 0.00772192 2.02621056
v -2.43738235 0.00772192 2.03722734
v -2.43074184 0.00772192 2.04591271
v -2.45778983 -0.00332999 2.02079881
v -2.44042971 -0.00305202 2.03909970
v -2.43882804 0.70552312 2.03546369
v -2.43735837 0.70267321 2.03720318
v -2.44603846 0.02509918 2.02618640
v -2.45470648 0.00772192 2.01752518
v -2.46822750 0.00772192 2.00638760
v -2.46415439 -0.00221792 2.01016859
v -2.46822750 0.00174412 2.00705199
v -2.46822750 -0.00270446 2.00892436
v -2.43072387 0.70267321 2.04588855
v -2.42729260 0.70552312 2.05231501
v -2.42615889 0.70552312 2.05458601
v -2.43072387 0.02509918 2.04588855
v -2.43735837 0.02509918 2.03720318
v -2.43721442 0.70552312 2.03752933
v -2.43073584 0.70552312 2.04591271
f 1 2 7
f 1 7 13
f 1 13 21
f 1 21 33
f 1 33 48
f 1 48 39
f 1 39 38
f 1 38 28
f 1 28 17
f 1 17 9
f 1 9 3
f 1 3 8
f 1 8 4
f 1 4 10
f 1 10 15
f 1 15 24
f 1 24 23
f 1 23 35
f 1 35 50
f 1 50 67
f 1 67 85
f 1 85 84
f 1 84 89
f 1 89 88
f 1 88 75
f 1 75 59
f 1 59 58
f 1 58 43
f 1 43 29
f 1 29 18
f 1 18 11
f 1 11 5
f 1 5 2
f 2 5 6
f 2 6 7
f 3 9 16
f 3 16 8
f 4 8 10
f 5 11 19
f 5 19 31
f 5 31 46
f 5 46 63
f 5 63 79
f 5 79 81
f 5 81 82
f 5 82 64
f 5 64 47
f 5 47 32
f 5 32 20
f 5 20 12
f 5 12 6
f 6 12 7
f 7 12 13
f 8 14 15
f 8 15 10
f 8 16 25
f 8 25 14
f 9 17 16
f 11 18 19
f 12 20 21
f 12 21 13
f 14 22 23
f 14 23 24
f 14 24 15
f 14 25 36
f 14 36 22
f 16 17 26
f 16 26 27
f 16 27 25
f 17 28 26
f 18 29 30
f 18 30 19
f 19 30 45
f 19 45 31
f 20 32 21
f 21 32 33
f 22 34 35
f 22 35 23
f 22 36 34
f 25 27 37
f 25 37 36
f 26 28 38
f 26 38 39
f 26 39 40
f 26 40 41
f 26 41 27
f 27 41 42
f 27 42 37
f 29 43 30
f 30 43 44
f 30 44 61
f 30 61 45
f 31 45 46
f 32 47 48
f 32 48 33
f 34 49 50
f 34 50 35
f 34 36 49
f 36 37 51
f 36 51 52
f 36 52 49
f 37 42 53
f 37 53 54
f 37 54 51
f 39 48 55
f 39 55 40
f 40 55 65
f 40 65 56
f 40 56 41
f 41 56 57
f 41 57 42
f 42 57 53
f 43 58 44
f 44 58 59
f 44 59 60
f 44 60 77
f 44 77 61
f 45 61 62
f 45 62 63
f 45 63 46
f 47 64 56
f 47 56 65
f 47 65 55
f 47 55 48
f 49 66 67
f 49 67 50
f 49 52 68
f 49 68 66
f 51 68 52
f 51 54 68
f 53 57 69
f 53 69 70
f 53 70 71
f 53 71 72
f 53 72 54
f 54 72 68
f 56 64 73
f 56 73 57
f 57 73 74
f 57 74 69
f 59 75 60
f 60 75 76
f 60 76 87
f 60 87 77
f 61 77 70
f 61 70 78
f 61 78 62
f 62 79 63
f 62 78 80
f 62 80 81
f 62 81 79
f 64 82 80
f 64 80 73
f 66 83 84
f 66 84 85
f 66 85 67
f 66 68 86
f 66 86 83
f 68 72 86
f 69 80 78
f 69 78 70
f 69 74 73
f 69 73 80
f 70 77 87
f 70 87 71
f 71 87 72
f 72 87 86
f 75 88 76
f 76 88 89
f 76 89 83
f 76 83 86
f 76 86 87
f 80 82 81
f 83 89 84

