# https://github.com/mikedh/trimesh
v -1.31018384 0.67165401 2.58132900
v -1.31630073 0.67075472 2.58132900
v -1.30291512 0.66844225 2.58132900
v -1.29947950 0.66086252 2.56377294
v -1.31018384 0.66219865 2.56110793
v -1.32366866 0.66155630 2.56261577
v -1.32885203 0.66844225 2.58132900
v -1.29708635 0.66505064 2.58132900
v -1.29736431 0.66353472 2.57605751
v -1.29653021 0.64683363 2.54130769
v -1.29899296 0.64380175 2.52863735
v -1.31018384 0.65801053 2.55242339
v -1.31018384 0.65256339 2.54130769
v -1.31018384 0.64508646 2.52611267
v -1.32330122 0.64421285 2.52792437
v -1.33811642 0.66165903 2.58007832
v -1.33827529 0.66199308 2.58132900
v -1.33523694 0.65819037 2.56849503
v -1.29067161 0.65053360 2.58132900
v -1.29092990 0.65053360 2.57605751
v -1.28943051 0.63316446 2.54130769
v -1.29516006 0.65161273 2.55825595
v -1.29633178 0.62964439 2.50656953
v -1.29882415 0.62656109 2.49399276
v -1.31018384 0.63524563 2.50656953
v -1.31018384 0.62774301 2.49187716
v -1.32283456 0.62674098 2.49375896
v -1.33487943 0.64017888 2.53464523
v -1.33715328 0.62581595 2.51240208
v -1.34189981 0.65127869 2.58132900
v -1.28874533 0.63316446 2.58132900
v -1.28848704 0.63316446 2.57605751
v -1.28812975 0.63316446 2.55867672
v -1.28757361 0.61579533 2.52392691
v -1.28915233 0.61579533 2.50656953
v -1.29453433 0.61684878 2.48859269
v -1.29671890 0.61181274 2.47181972
v -1.29894325 0.60916627 2.46194295
v -1.30079020 0.60983431 2.46194295
v -1.31018384 0.61664321 2.47181972
v -1.33441257 0.62201324 2.50080714
v -1.31018384 0.61111902 2.46194295
v -1.32218895 0.60898643 2.46194295
v -1.32741208 0.61132459 2.47286001
v -1.33665679 0.60772741 2.47934709
v -1.37968295 0.45690377 2.46194295
v -1.34516662 0.63845740 2.58132900
v -1.28848704 0.61579533 2.58132900
v -1.27824935 0.51155485 2.46194295
v -1.27894447 0.52894966 2.46194295
v -1.28755372 0.59842620 2.48918880
v -1.28108949 0.54385217 2.46194295
v -1.28959931 0.59842620 2.47181972
v -1.29269732 0.59878593 2.46194295
v -1.28548825 0.44207836 2.46193127
v -1.33110599 0.60094419 2.46194295
v -1.33709383 0.59251659 2.46194295
v -1.37968295 0.44061382 2.46194295
v -1.37968295 0.45777738 2.58132900
v -1.28835800 0.59842620 2.58132900
v -1.28834806 0.58103138 2.58132900
v -1.28834806 0.49418571 2.58132900
v -1.27936163 0.42450366 2.46194295
v -1.28754378 0.58103138 2.46194295
v -1.28017585 0.41134837 2.46194295
v -1.28149649 0.40916437 2.46194295
v -1.31334150 0.40916437 2.46194295
v -1.37968295 0.44061382 2.48918880
v -1.31519840 0.40916437 2.58132900
v -1.37968295 0.44079366 2.58132900
v -1.28892408 0.47681658 2.58132900
v -1.29124763 0.40916437 2.58132900
v -1.37968295 0.44063950 2.50656953
f 1 2 7
f 1 7 17
f 1 17 30
f 1 30 47
f 1 47 59
f 1 59 70
f 1 70 69
f 1 69 72
f 1 72 71
f 1 71 62
f 1 62 61
f 1 61 60
f 1 60 48
f 1 48 31
f 1 31 19
f 1 19 8
f 1 8 3
f 1 3 4
f 1 4 5
f 1 5 6
f 1 6 2
f 2 6 7
f 3 8 4
f 4 8 9
f 4 9 10
f 4 10 11
f 4 11 5
f 5 11 12
f 5 12 6
f 6 12 13
f 6 13 14
f 6 14 15
f 6 15 7
f 7 16 17
f 7 15 18
f 7 18 16
f 8 19 20
f 8 20 9
f 9 20 21
f 9 21 22
f 9 22 10
f 10 22 21
f 10 21 23
f 10 23 11
f 11 23 24
f 11 24 14
f 11 14 13
f 11 13 12
f 14 24 25
f 14 25 15
f 15 25 26
f 15 26 27
f 15 27 18
f 16 18 28
f 16 28 29
f 16 29 17
f 17 29 30
f 18 27 28
f 19 31 32
f 19 32 33
f 19 33 20
f 20 33 21
f 21 33 34
f 21 34 35
f 21 35 23
f 23 35 36
f 23 36 37
f 23 37 24
f 24 26 25
f 24 37 38
f 24 38 39
f 24 39 26
f 26 39 40
f 26 40 27
f 27 41 28
f 27 40 42
f 27 42 43
f 27 43 44
f 27 44 41
f 28 41 29
f 29 41 45
f 29 45 46
f 29 46 30
f 30 46 47
f 31 48 49
f 31 49 32
f 32 49 50
f 32 50 33
f 33 50 34
f 34 51 35
f 34 50 52
f 34 52 51
f 35 51 53
f 35 53 36
f 36 53 37
f 37 53 54
f 37 54 38
f 38 54 55
f 38 55 39
f 39 55 42
f 39 42 40
f 41 44 45
f 42 55 43
f 43 55 56
f 43 56 45
f 43 45 44
f 45 56 57
f 45 57 46
f 46 55 58
f 46 58 68
f 46 68 73
f 46 73 70
f 46 70 59
f 46 59 47
f 46 57 55
f 48 60 49
f 49 60 61
f 49 61 62
f 49 62 63
f 49 63 55
f 49 55 50
f 50 55 52
f 51 52 64
f 51 64 53
f 52 55 64
f 53 64 54
f 54 64 55
f 55 63 65
f 55 65 66
f 55 66 67
f 55 67 58
f 55 57 56
f 58 67 69
f 58 69 68
f 62 71 63
f 63 71 72
f 63 72 65
f 65 72 66
f 66 72 69
f 66 69 67
f 68 69 73
f 69 70 73

