# https://github.com/mikedh/trimesh
v -3.74997514 0.86781054 3.39269811
v -3.74997514 0.86781054 3.36370162
v -3.75228819 0.86781054 3.39269811
v -3.75047075 0.86776818 3.40159361
v -3.74130122 0.86738681 3.39269811
v -3.75228819 0.86781054 3.36370162
v -3.74130122 0.86738681 3.36370162
v -3.75204036 0.86776818 3.40159361
v -4.47106446 0.86261980 3.39269811
v -3.74394468 0.86556476 3.40845988
v -3.72544044 0.86314948 3.41006792
v -3.72544044 0.86567068 3.39269811
v -4.11584803 0.86103080 3.36370162
v -4.47106446 0.86257742 3.37994838
v -4.47106446 0.86261980 3.39142189
v -3.72544044 0.86567068 3.36370162
v -4.47106446 0.86096723 3.41008065
v -4.47106446 0.85696294 3.42617425
v -4.47106446 0.85664516 3.42745056
v -3.74278819 0.85647565 3.42695273
v -3.72544044 0.85547989 3.42642953
v -4.47106446 0.85189933 3.44030240
v -4.47106446 0.84867896 3.44835552
v -4.47106446 0.84842471 3.44898094
v -4.40291240 0.84842471 3.44899368
v -4.11584803 0.84842471 3.44899368
v -3.88173566 0.84842471 3.44898094
v -3.86438786 0.84840353 3.44898094
v -3.70801002 0.85386970 3.42474486
v -3.70801002 0.85992909 3.41006792
v -3.70801002 0.86253506 3.39269811
v -4.11584803 0.65136718 3.36370162
v -4.47106446 0.67083778 3.37994838
v -3.70801002 0.86253506 3.36370162
v -3.86438786 0.84014070 3.46217744
v -3.85521833 0.83325504 3.47121327
v -3.72544044 0.84889083 3.43509533
v -4.47106446 0.84081868 3.46122020
v -4.11584803 0.84020427 3.46217744
v -3.88173566 0.84018309 3.46217744
v -3.70801002 0.84683571 3.43341065
v -3.69553616 0.85202645 3.42186051
v -3.69008400 0.85397562 3.41018277
v -3.69066225 0.85694177 3.39269811
v -4.11584803 0.65136718 3.46628695
v -3.67199274 0.65136718 3.36370162
v -4.47106446 0.67083778 3.46540635
v -3.69066225 0.85694177 3.36370162
v -3.86438786 0.83340334 3.47143023
v -3.88173566 0.83344573 3.47148129
v -3.86438786 0.82427187 3.47912605
v -3.86438786 0.81300054 3.48725580
v -4.47106446 0.84020427 3.46217744
v -3.69487530 0.83535251 3.43707350
v -3.68331011 0.83230163 3.43570790
v -3.67323188 0.83817035 3.42533196
v -3.66183190 0.83514065 3.42212853
v -3.68397097 0.84933574 3.41605359
v -3.67984054 0.85126373 3.40447796
v -3.67884926 0.85172984 3.39269811
v -3.68273183 0.85346715 3.36370162
v -4.11584803 0.75683459 3.49014015
v -4.47106446 0.75683459 3.49012742
v -4.47106446 0.74814803 3.48766415
v -4.47106446 0.72007564 3.47959830
v -4.47106446 0.68380400 3.46917130
v -3.95038327 0.65136718 3.46628695
v -3.63366242 0.75484306 3.36370162
v -3.67199274 0.65136718 3.37532830
v -3.88173566 0.82427187 3.47949619
v -4.11584803 0.82429305 3.47948345
v -4.47106446 0.83344573 3.47148129
v -3.88173566 0.81418702 3.48753656
v -3.86438786 0.80429280 3.49058683
v -3.85414443 0.80147499 3.48927229
v -3.88173566 0.80550046 3.49140363
v -3.67323188 0.82016166 3.43791578
v -3.67323188 0.82884820 3.43399776
v -3.65712322 0.82344559 3.42770575
v -3.64456675 0.81878452 3.42169460
v -3.65010150 0.83050076 3.41006792
v -3.65869278 0.83751355 3.41006792
v -3.67372751 0.84643316 3.41018277
v -3.67017536 0.84755607 3.39269811
v -3.67595794 0.85035271 3.36370162
v -3.67884926 0.85172984 3.36370162
v -3.67017536 0.84757725 3.37532830
v -4.11584803 0.76484317 3.49153122
v -4.47106446 0.75795747 3.49033154
v -3.89908341 0.75683459 3.49014015
v -3.93386155 0.65136718 3.46624863
v -3.63019286 0.76566945 3.36370162
v -3.63366242 0.75484306 3.39269811
v -3.67224057 0.65136718 3.39269811
v -4.03811348 0.81418702 3.48756214
v -4.47106446 0.82429305 3.47948345
v -3.88173566 0.78952566 3.49408376
v -3.86339655 0.78905957 3.49118667
v -3.85414443 0.79452576 3.48927229
v -3.67323188 0.78952566 3.44248480
v -3.67323188 0.80691996 3.44096604
v -3.66397973 0.81653872 3.43638428
v -4.11584803 0.81005561 3.48939988
v -4.11584803 0.80547928 3.49141637
v -3.64192326 0.82183541 3.41006792
v -3.65216672 0.80691996 3.43357656
v -3.64167543 0.80691996 3.42491077
v -3.63316677 0.80666571 3.41022109
v -3.64836673 0.83200503 3.39269811
v -3.65704060 0.83886951 3.39269811
v -3.67017536 0.84757725 3.36370162
v -4.11584803 0.77215259 3.49279470
v -4.47106446 0.77215259 3.49279470
v -3.88173566 0.75791512 3.49012742
v -3.88173566 0.77217377 3.49276922
v -3.89908341 0.77217377 3.49278196
v -3.76013599 0.65136718 3.45772327
v -3.62969720 0.76855085 3.36370162
v -3.63019286 0.76566945 3.39269811
v -3.63729720 0.75484306 3.41006792
v -3.64597107 0.72575367 3.40432479
v -3.67719708 0.65136718 3.41098684
v -3.66455798 0.67645222 3.40155529
v -4.05537863 0.81418702 3.48756214
v -4.47106446 0.81418702 3.48754930
v -4.11584803 0.78954684 3.49408376
v -4.11584803 0.78952566 3.49408376
v -4.11584803 0.78126288 3.49347118
v -3.86802264 0.77217377 3.49051029
v -3.67323188 0.77217377 3.44205087
v -3.65803192 0.78952566 3.43799242
v -3.66084059 0.80691996 3.43725214
v -4.47106446 0.80547928 3.49141637
v -3.63184503 0.81067000 3.39269811
v -3.64051891 0.82331847 3.39269811
v -3.64927542 0.78952566 3.43527397
v -3.64051891 0.78952566 3.42660818
v -3.63184503 0.78952566 3.41387119
v -3.62887112 0.80073342 3.40450344
v -3.64836673 0.83200503 3.36370162
v -3.65704060 0.83886951 3.36370162
v -4.47106446 0.78954684 3.49408376
v -3.87083134 0.76043632 3.48948926
v -3.70801002 0.65136718 3.44328887
v -3.62870591 0.77435601 3.36370162
v -3.62870591 0.77435601 3.39269811
v -3.62911895 0.77649584 3.40332934
v -3.63258852 0.77130513 3.40950639
v -3.64407109 0.75484306 3.42345580
v -3.64621890 0.74365647 3.42054597
v -3.64374064 0.73770300 3.41010623
v -3.68157534 0.65136718 3.41944840
v -3.65918844 0.77217377 3.43766060
v -3.63184503 0.81067000 3.36370162
v -3.63762762 0.81914469 3.36370162
v -3.62837547 0.80198344 3.39269811
v -3.64051891 0.82331847 3.36370162
v -3.65051454 0.77217377 3.43467413
v -3.64184066 0.77217377 3.42600834
v -3.62854070 0.78952566 3.40519265
v -3.62730156 0.78952566 3.39269811
v -3.70743177 0.65136718 3.44309738
v -3.62730156 0.78952566 3.36370162
v -3.66241015 0.70590175 3.42239655
v -3.65365366 0.75484306 3.43210886
v -3.66811014 0.72007564 3.43430400
v -3.69677528 0.65136718 3.43833697
v -3.68702747 0.65136718 3.42649332
v -3.62837547 0.80198344 3.36370162
v -3.66521885 0.73363513 3.43587381
f 1 2 6
f 1 6 3
f 1 3 8
f 1 8 4
f 1 4 5
f 1 5 7
f 1 7 2
f 2 7 16
f 2 16 34
f 2 34 48
f 2 48 61
f 2 61 86
f 2 86 85
f 2 85 111
f 2 111 141
f 2 141 140
f 2 140 157
f 2 157 155
f 2 155 154
f 2 154 169
f 2 169 163
f 2 163 145
f 2 145 118
f 2 118 92
f 2 92 68
f 2 68 46
f 2 46 32
f 2 32 13
f 2 13 6
f 3 6 15
f 3 15 9
f 3 9 8
f 4 8 10
f 4 10 11
f 4 11 12
f 4 12 5
f 5 12 16
f 5 16 7
f 6 13 14
f 6 14 15
f 8 9 17
f 8 17 18
f 8 18 19
f 8 19 10
f 9 15 14
f 9 14 33
f 9 33 47
f 9 47 66
f 9 66 65
f 9 65 64
f 9 64 63
f 9 63 89
f 9 89 113
f 9 113 142
f 9 142 133
f 9 133 125
f 9 125 96
f 9 96 72
f 9 72 53
f 9 53 38
f 9 38 24
f 9 24 23
f 9 23 22
f 9 22 19
f 9 19 18
f 9 18 17
f 10 20 21
f 10 21 11
f 10 19 22
f 10 22 23
f 10 23 24
f 10 24 25
f 10 25 26
f 10 26 27
f 10 27 28
f 10 28 20
f 11 21 29
f 11 29 30
f 11 30 31
f 11 31 12
f 12 31 34
f 12 34 16
f 13 32 33
f 13 33 14
f 20 28 35
f 20 35 36
f 20 36 21
f 21 37 29
f 21 36 37
f 24 38 25
f 25 38 26
f 26 38 27
f 27 38 39
f 27 39 40
f 27 40 28
f 28 40 35
f 29 41 42
f 29 42 30
f 29 37 41
f 30 42 43
f 30 43 44
f 30 44 31
f 31 44 48
f 31 48 34
f 32 45 47
f 32 47 33
f 32 46 69
f 32 69 94
f 32 94 122
f 32 122 152
f 32 152 168
f 32 168 167
f 32 167 162
f 32 162 144
f 32 144 117
f 32 117 91
f 32 91 67
f 32 67 45
f 35 49 36
f 35 40 50
f 35 50 49
f 36 49 51
f 36 51 52
f 36 52 41
f 36 41 37
f 38 53 39
f 39 50 40
f 39 53 72
f 39 72 50
f 41 54 55
f 41 55 56
f 41 56 42
f 41 52 54
f 42 56 57
f 42 57 58
f 42 58 43
f 43 58 59
f 43 59 44
f 44 59 60
f 44 60 61
f 44 61 48
f 45 62 63
f 45 63 64
f 45 64 65
f 45 65 66
f 45 66 47
f 45 67 90
f 45 90 62
f 46 68 93
f 46 93 69
f 49 50 70
f 49 70 51
f 50 71 70
f 50 72 96
f 50 96 71
f 51 70 73
f 51 73 52
f 52 74 75
f 52 75 55
f 52 55 54
f 52 73 76
f 52 76 74
f 55 77 78
f 55 78 56
f 55 75 77
f 56 78 57
f 57 79 80
f 57 80 81
f 57 81 82
f 57 82 83
f 57 83 58
f 57 78 79
f 58 83 59
f 59 83 82
f 59 82 84
f 59 84 60
f 60 85 86
f 60 86 61
f 60 84 87
f 60 87 85
f 62 88 89
f 62 89 63
f 62 90 88
f 67 91 90
f 68 92 119
f 68 119 93
f 69 93 94
f 70 95 73
f 70 71 95
f 71 96 124
f 71 124 95
f 73 95 76
f 74 76 97
f 74 97 75
f 75 97 98
f 75 98 99
f 75 99 100
f 75 100 101
f 75 101 102
f 75 102 77
f 76 95 103
f 76 103 104
f 76 104 97
f 77 102 78
f 78 102 79
f 79 102 80
f 80 105 81
f 80 102 106
f 80 106 107
f 80 107 108
f 80 108 105
f 81 105 109
f 81 109 82
f 82 110 84
f 82 109 110
f 84 110 87
f 85 87 111
f 87 110 141
f 87 141 111
f 88 112 113
f 88 113 89
f 88 90 112
f 90 91 114
f 90 114 115
f 90 115 116
f 90 116 112
f 91 117 114
f 92 118 119
f 93 119 120
f 93 120 121
f 93 121 94
f 94 121 123
f 94 123 122
f 95 124 103
f 96 125 124
f 97 116 115
f 97 115 98
f 97 104 126
f 97 126 142
f 97 142 127
f 97 127 128
f 97 128 112
f 97 112 116
f 98 129 117
f 98 117 99
f 98 115 129
f 99 117 130
f 99 130 100
f 100 130 131
f 100 131 101
f 101 131 132
f 101 132 102
f 102 132 106
f 103 125 133
f 103 133 104
f 103 124 125
f 104 133 142
f 104 142 126
f 105 108 134
f 105 134 135
f 105 135 109
f 106 136 107
f 106 132 136
f 107 137 138
f 107 138 108
f 107 136 137
f 108 138 139
f 108 139 134
f 109 140 141
f 109 141 110
f 109 135 157
f 109 157 140
f 112 128 113
f 113 128 127
f 113 127 142
f 114 117 143
f 114 143 115
f 115 143 117
f 115 117 129
f 117 144 130
f 118 145 146
f 118 146 119
f 119 146 147
f 119 147 120
f 120 147 148
f 120 148 149
f 120 149 150
f 120 150 151
f 120 151 121
f 121 151 122
f 121 122 123
f 122 151 150
f 122 150 152
f 130 144 153
f 130 153 136
f 130 136 131
f 131 136 132
f 134 154 155
f 134 155 135
f 134 139 156
f 134 156 169
f 134 169 154
f 135 155 157
f 136 153 158
f 136 158 137
f 137 158 159
f 137 159 138
f 138 159 148
f 138 148 147
f 138 147 160
f 138 160 139
f 139 160 161
f 139 161 156
f 144 162 153
f 145 163 161
f 145 161 146
f 146 161 147
f 147 161 160
f 148 159 149
f 149 164 150
f 149 159 158
f 149 158 165
f 149 165 166
f 149 166 167
f 149 167 168
f 149 168 164
f 150 164 152
f 152 164 168
f 153 162 158
f 156 161 163
f 156 163 169
f 158 162 170
f 158 170 166
f 158 166 165
f 162 167 170
f 166 170 167

