# https://github.com/mikedh/trimesh
v -0.18178985 0.04615627 3.28201348
v 0.18881781 0.00456343 3.28201348
v -0.18178985 0.04664571 3.28234167
v -0.18178985 2.50307509 3.28201348
v 0.19566254 0.00456343 3.28201348
v 0.18837373 0.00774408 3.28226617
v -0.18178985 0.05985754 3.28517859
v -0.18178985 2.50380894 3.28202787
v -0.18079087 2.50380894 3.28201348
v 0.19595832 0.00774408 3.28201348
v 0.19595832 0.00774408 3.28226617
v 0.18404497 0.05985754 3.28486220
v -0.18178985 0.07722869 3.28520075
v -0.18178985 2.50331971 3.28240909
v -0.18079087 2.50380894 3.28226338
v 0.16702594 2.50405377 3.28201348
v 0.19599519 0.00823331 3.28201348
v 0.19610621 0.02560447 3.28201348
v 0.19603247 0.02511523 3.28230273
v 0.19603247 0.05985754 3.28230677
v 0.18404497 2.47493870 3.28486220
v -0.18178985 2.07515720 3.28520075
v 0.18404497 2.50380894 3.28226338
v -0.18178985 2.49230985 3.28481922
v 0.18404497 2.49230985 3.28481922
v 0.18404497 2.50405377 3.28201348
v 0.19618036 0.05985754 3.28201348
v 0.19603247 2.47493870 3.28230677
v 0.19599519 2.49230985 3.28228523
v -0.18178985 2.47493870 3.28486220
v -0.18178985 2.09154973 3.28519982
v 0.18730081 2.50356433 3.28201348
v 0.19303575 2.50111774 3.28201348
v 0.19618036 2.47493870 3.28201348
v 0.19610621 2.49230985 3.28201348
v 0.19566254 2.49549050 3.28201348
f 1 2 3
f 1 3 7
f 1 7 13
f 1 13 22
f 1 22 31
f 1 31 30
f 1 30 24
f 1 24 14
f 1 14 8
f 1 8 4
f 1 4 9
f 1 9 16
f 1 16 26
f 1 26 32
f 1 32 33
f 1 33 36
f 1 36 35
f 1 35 34
f 1 34 27
f 1 27 18
f 1 18 17
f 1 17 10
f 1 10 5
f 1 5 2
f 2 5 11
f 2 11 6
f 2 6 7
f 2 7 3
f 4 8 9
f 5 10 11
f 6 11 7
f 7 12 13
f 7 11 12
f 8 14 15
f 8 15 16
f 8 16 9
f 10 17 11
f 11 17 18
f 11 18 19
f 11 19 12
f 12 19 20
f 12 20 28
f 12 28 21
f 12 21 22
f 12 22 13
f 14 23 15
f 14 24 25
f 14 25 23
f 15 23 26
f 15 26 16
f 18 27 19
f 19 27 20
f 20 27 34
f 20 34 28
f 21 28 29
f 21 29 25
f 21 25 24
f 21 24 30
f 21 30 31
f 21 31 22
f 23 25 32
f 23 32 26
f 25 29 33
f 25 33 32
f 28 34 29
f 29 35 36
f 29 36 33
f 29 34 35

