# https://github.com/mikedh/trimesh
v -2.24773822 0.17247664 0.73876189
v -2.24773822 0.17247664 0.73105167
v -2.24814822 0.17247664 0.74630226
v -2.24773822 0.16474581 0.74630226
v -2.24773822 0.09454578 0.72760538
v -3.29501615 0.09454578 0.72766762
v -3.29501615 0.17247664 0.73121862
v -3.29501615 0.17247664 0.74630226
v -2.24773822 0.09454578 0.75572997
v -2.24773822 0.07718167 0.72739888
v -3.29501615 0.07718167 0.72745542
v -3.29501615 0.09454578 0.75572997
v -2.24773822 0.07718167 0.75630433
v -2.24773822 0.05981756 0.72741017
v -3.29501615 0.05981756 0.72745542
v -3.29501615 0.07718167 0.75630433
v -2.24773822 0.05981756 0.75630433
v -2.24773822 0.00769064 0.73726508
v -3.29501615 0.00769064 0.73727357
v -3.29501615 0.05981756 0.75630433
v -2.24773822 0.00769064 0.75309013
v -2.24773822 0.00720648 0.73738677
v -2.24845581 -0.00420821 0.74017377
v -3.29501615 -0.00420821 0.74017377
v -3.29501615 0.00769064 0.75309013
v -2.24773822 -0.00374124 0.74818390
v -2.24773822 -0.00420821 0.74048498
v -3.29501615 -0.00420821 0.74797450
v -2.24773822 -0.00420821 0.74797450
f 1 2 7
f 1 7 8
f 1 8 3
f 1 3 4
f 1 4 9
f 1 9 13
f 1 13 17
f 1 17 21
f 1 21 26
f 1 26 29
f 1 29 27
f 1 27 22
f 1 22 18
f 1 18 14
f 1 14 10
f 1 10 5
f 1 5 2
f 2 5 6
f 2 6 7
f 3 8 12
f 3 12 9
f 3 9 4
f 5 10 11
f 5 11 6
f 6 11 15
f 6 15 19
f 6 19 24
f 6 24 28
f 6 28 25
f 6 25 20
f 6 20 16
f 6 16 12
f 6 12 8
f 6 8 7
f 9 12 16
f 9 16 13
f 10 14 15
f 10 15 11
f 13 16 20
f 13 20 17
f 14 18 19
f 14 19 15
f 17 20 25
f 17 25 21
f 18 22 23
f 18 23 24
f 18 24 19
f 21 25 26
f 22 27 23
f 23 27 29
f 23 29 28
f 23 28 24
f 25 28 26
f 26 28 29

