# https://github.com/mikedh/trimesh
v -0.51076946 0.77217123 1.61992720
v -0.51076946 0.78961757 1.61992720
v -0.50932599 0.78961757 1.60303886
v -0.51023362 0.04206799 1.61992720
v -0.51025081 1.76238370 1.61992720
v -0.50630938 0.78961757 1.56831776
v -0.50630938 0.77217123 1.56831776
v -0.50781334 0.77217123 1.58566639
v -0.50726880 0.04259658 1.58566639
v -0.50554011 0.02515024 1.56831776
v -0.50701817 0.02515024 1.58566639
v -0.50846164 0.02515024 1.60303886
v -0.50969757 0.02479771 1.61992720
v -0.50624020 1.77877271 1.61992720
v -0.50549682 1.77824402 1.60303886
v -0.50474474 1.77736290 1.58566639
v -0.50398417 1.77595309 1.56831776
v -0.50574745 1.76238370 1.56831776
v -0.50388040 0.78961757 1.55680225
v -0.50360389 1.76238370 1.55731810
v -0.50388040 0.77217123 1.55680225
v -0.50361258 0.04259658 1.55731810
v -0.50573895 0.04259658 1.56831776
v -0.50350881 0.02515024 1.55747681
v -0.50301606 0.01563398 1.55829424
v -0.50377684 0.01475286 1.56831776
v -0.50449412 0.01404800 1.58566639
v -0.50518572 0.01351941 1.60303886
v -0.50579944 0.01299062 1.61992720
v -0.49723348 1.78758401 1.61992720
v -0.47629000 1.81331296 1.53885839
v -0.50314572 1.77366215 1.55808794
v -0.49279080 0.78961757 1.53885839
v -0.49192625 1.76238370 1.53885839
v -0.49279080 0.77217123 1.53885839
v -0.49191776 0.07731310 1.53885839
v -0.49179659 0.06603470 1.53885839
v -0.49172761 0.06004292 1.53885839
v -0.49353397 0.01422427 1.55631814
v -0.48909130 0.04647359 1.53885839
v -0.47616903 0.01351941 1.55501661
v -0.45882129 0.01334315 1.55493723
v -0.49779541 0.01299062 1.61992720
v -0.48822695 1.78881756 1.61992720
v -0.47616033 1.78969868 1.61992720
v -0.45881259 1.79005121 1.61992720
v -0.44866500 1.78916999 1.61992720
v -0.45881259 1.81172689 1.53885839
v -0.48905671 1.78071122 1.53885839
v -0.47616903 0.04065807 1.53885839
v -0.46862318 0.03995322 1.53885839
v -0.45882129 0.03960069 1.53885839
v -0.45882129 0.01334315 1.56316712
v -0.42246608 0.04770713 1.53885839
v -0.44703988 0.01440053 1.55643719
v -0.49290306 0.02515024 1.61992720
v -0.44703988 0.01440053 1.56234177
v -0.42946740 0.04805956 1.58047609
v -0.42250937 1.80432540 1.53885839
v -0.42246608 1.78159234 1.61992720
v -0.42246608 0.04682601 1.55094531
v -0.42246608 1.80291569 1.53885839
v -0.42246608 0.04612106 1.56758764
v -0.42782509 0.06004292 1.58222207
v -0.42318357 0.73745471 1.61992720
v -0.42246608 0.05616591 1.57505561
v -0.42246608 0.06004292 1.57622226
v -0.42246608 1.80397297 1.53892188
v -0.42246608 1.75462979 1.61992720
v -0.42316617 0.73798340 1.61992720
v -0.42246608 0.07061656 1.57656350
v -0.42270800 0.77217123 1.61992720
f 1 2 3
f 1 3 4
f 1 4 13
f 1 13 29
f 1 29 43
f 1 43 56
f 1 56 65
f 1 65 70
f 1 70 72
f 1 72 69
f 1 69 60
f 1 60 47
f 1 47 46
f 1 46 45
f 1 45 44
f 1 44 30
f 1 30 14
f 1 14 5
f 1 5 2
f 2 5 3
f 3 6 7
f 3 7 8
f 3 8 4
f 3 5 6
f 4 9 10
f 4 10 11
f 4 11 12
f 4 12 13
f 4 8 9
f 5 14 15
f 5 15 16
f 5 16 17
f 5 17 18
f 5 18 6
f 6 19 21
f 6 21 7
f 6 18 20
f 6 20 19
f 7 21 22
f 7 22 23
f 7 23 9
f 7 9 8
f 9 23 10
f 10 24 25
f 10 25 26
f 10 26 11
f 10 23 24
f 11 26 12
f 12 26 13
f 13 26 27
f 13 27 28
f 13 28 29
f 14 30 31
f 14 31 15
f 15 31 16
f 16 31 17
f 17 32 18
f 17 31 32
f 18 32 20
f 19 33 35
f 19 35 21
f 19 20 33
f 20 32 34
f 20 34 33
f 21 35 22
f 22 24 23
f 22 35 36
f 22 36 37
f 22 37 38
f 22 38 24
f 24 38 25
f 25 39 26
f 25 38 40
f 25 40 39
f 26 39 27
f 27 39 29
f 27 29 28
f 29 41 42
f 29 42 43
f 29 39 41
f 30 44 31
f 31 45 46
f 31 46 47
f 31 47 48
f 31 48 59
f 31 59 62
f 31 62 54
f 31 54 52
f 31 52 51
f 31 51 50
f 31 50 40
f 31 40 38
f 31 38 37
f 31 37 36
f 31 36 35
f 31 35 33
f 31 33 34
f 31 34 49
f 31 49 32
f 31 44 45
f 32 49 34
f 39 40 50
f 39 50 41
f 41 50 51
f 41 51 52
f 41 52 42
f 42 53 43
f 42 52 54
f 42 54 55
f 42 55 57
f 42 57 53
f 43 53 57
f 43 57 58
f 43 58 56
f 47 59 48
f 47 60 59
f 54 61 55
f 54 62 68
f 54 68 60
f 54 60 69
f 54 69 71
f 54 71 67
f 54 67 66
f 54 66 63
f 54 63 61
f 55 63 57
f 55 61 63
f 56 58 64
f 56 64 65
f 57 63 58
f 58 66 67
f 58 67 64
f 58 63 66
f 59 60 68
f 59 68 62
f 64 67 65
f 65 67 70
f 67 71 72
f 67 72 70
f 69 72 71

