# https://github.com/mikedh/trimesh
v -1.83143152 0.67158613 2.58134066
v -1.84435399 0.66494557 2.58134066
v -1.81266019 0.66862048 2.58134066
v -1.81779622 0.66156085 2.56257579
v -1.83143152 0.66214107 2.56119498
v -1.84201449 0.66075492 2.56392119
v -1.84409809 0.66343049 2.57604751
v -1.84870419 0.65588732 2.58134066
v -1.80442605 0.66326934 2.58134066
v -1.80621718 0.65840175 2.56825833
v -1.81818925 0.64421802 2.52789614
v -1.83143152 0.65247034 2.54129713
v -1.83143152 0.65795041 2.55250293
v -1.83143152 0.64505617 2.52617901
v -1.84248964 0.64373449 2.52876359
v -1.84488403 0.64673240 2.54129713
v -1.84620923 0.65156778 2.55834480
v -1.85174741 0.63312894 2.54129713
v -1.85028519 0.65050398 2.57604751
v -1.85054110 0.65050398 2.58134066
v -1.80316485 0.66217333 2.58134066
v -1.80336587 0.66178647 2.57983593
v -1.80660109 0.64041418 2.53432227
v -1.81866450 0.62674626 2.49371225
v -1.83143152 0.63519203 2.50654670
v -1.84266332 0.62645618 2.49408400
v -1.84509427 0.62955076 2.50654670
v -1.87448513 0.53561595 2.42987626
v -1.87535330 0.53819479 2.44145383
v -1.85216777 0.63841561 2.58134066
v -1.87535330 0.53819479 2.44651680
v -1.80257992 0.66056151 2.58134066
v -1.80432549 0.62600485 2.51201683
v -1.80707624 0.62229773 2.50043929
v -1.81930421 0.60904888 2.46193586
v -1.82000793 0.60869428 2.46048426
v -1.82147015 0.60972582 2.46193586
v -1.83143152 0.62768113 2.49192428
v -1.84219728 0.60866207 2.46044884
v -1.84252620 0.60908109 2.46193586
v -1.84471046 0.61172445 2.47181397
v -1.87521618 0.52401107 2.42792896
v -1.87593823 0.52945894 2.43621384
v -1.84635547 0.59902355 2.45457155
v -1.84295578 0.59264092 2.43706356
v -1.84013181 0.58973969 2.42837154
v -1.84334870 0.58100383 2.42449463
v -1.84129244 0.55837434 2.41031476
v -1.87721766 0.51153589 2.43706356
v -1.85235978 0.63312894 2.58134066
v -1.87593823 0.52887867 2.44738425
v -1.79934480 0.65134212 2.58134066
v -1.80481897 0.60792061 2.47900129
v -1.81415896 0.61146657 2.47264600
v -1.81752209 0.59347901 2.44019696
v -1.83144074 0.60950016 2.45913883
v -1.82808673 0.58951402 2.42861936
v -1.83144074 0.60414907 2.45044681
v -1.83143152 0.61659205 2.47181397
v -1.86617777 0.51153589 2.42130815
v -1.87563665 0.51153589 2.42738017
v -1.87798527 0.49419306 2.43706356
v -1.84265420 0.54628597 2.40944734
v -1.83965666 0.58973969 2.42837154
v -1.83290296 0.58264785 2.42244112
v -1.83144074 0.56736812 2.41227976
v -1.83144074 0.55866447 2.41024395
v -1.83144074 0.54628597 2.40834977
v -1.85256080 0.62107278 2.58134066
v -1.87644082 0.51153589 2.44805695
v -1.88340476 0.34226621 2.43706356
v -1.87869820 0.47678577 2.43706356
v -1.87937447 0.45944299 2.43706356
v -1.88004153 0.44210016 2.43706356
v -1.88066301 0.42469287 2.43706356
v -1.88125705 0.40731783 2.43706356
v -1.79503116 0.63312894 2.58134066
v -1.79836685 0.63312894 2.55866347
v -1.79943614 0.61578611 2.52391303
v -1.80067901 0.59841108 2.48919807
v -1.80348465 0.59789533 2.47264600
v -1.80453562 0.59173831 2.45897953
v -1.80594305 0.58828907 2.44740193
v -1.81170057 0.58309913 2.43502776
v -1.81744897 0.57794140 2.42368031
v -1.83290296 0.59431715 2.43547031
v -1.86617777 0.49419306 2.42040531
v -1.87611180 0.49419306 2.42676060
v -1.84361372 0.52887867 2.40895166
v -1.83144074 0.52887867 2.40725221
v -1.81406762 0.42469287 2.40105625
v -1.82210986 0.55650470 2.41066882
v -1.79653905 0.42456393 2.40050746
v -1.79669450 0.42469287 2.40050746
v -1.85262480 0.61578611 2.58134066
v -1.88240858 0.37260002 2.43706356
v -1.87875299 0.38997505 2.42330857
v -1.87918247 0.37260002 2.42275978
v -1.87960293 0.35519272 2.42221100
v -1.87991363 0.34226621 2.42180384
v -1.88218012 0.34226621 2.44023235
v -1.84511260 0.39245722 2.58134066
v -1.85011151 0.40735009 2.58134066
v -1.85278014 0.49422532 2.58134066
v -1.85278014 0.58629045 2.58134066
v -1.85276181 0.59841108 2.58134066
v -1.85273447 0.60369774 2.58134066
v -1.87789393 0.42469287 2.42444153
v -1.79263677 0.61578611 2.58134066
v -1.79759012 0.58100383 2.48919807
v -1.79826639 0.59841108 2.50654670
v -1.79977428 0.58100383 2.47181397
v -1.80155640 0.58148737 2.46193586
v -1.80305517 0.58190639 2.45368641
v -1.80435293 0.57671645 2.44145383
v -1.80586993 0.57020483 2.42987626
v -1.81399450 0.56337087 2.41967951
v -1.86617777 0.45944299 2.41868815
v -1.87744612 0.44210016 2.42500802
v -1.87700742 0.45944299 2.42559220
v -1.83144074 0.42469287 2.40367625
v -1.86617777 0.34226621 2.41330654
v -1.86617777 0.40731783 2.41619208
v -1.86617777 0.42469287 2.41700640
v -1.86617777 0.44210016 2.41783843
v -1.81406762 0.40731783 2.40125097
v -1.83144074 0.40731783 2.40380017
v -1.79653905 0.44193902 2.40348153
v -1.79005047 0.46179617 2.46193586
v -1.79005047 0.43881212 2.46193586
v -1.79653905 0.40718889 2.40093233
v -1.79669450 0.40731783 2.40089692
v -1.87835996 0.34226621 2.44940234
v -1.84098175 0.39055527 2.58134066
v -1.79178682 0.59841108 2.58134066
v -1.79597245 0.58100383 2.50654670
v -1.79753523 0.56366100 2.47181397
v -1.79868675 0.56366100 2.46193586
v -1.79956404 0.56366100 2.45444763
v -1.80310996 0.56411228 2.43621384
v -1.80472762 0.55863221 2.42729168
v -1.79669450 0.39213482 2.40592449
v -1.84879553 0.34226621 2.41913073
v -1.79653905 0.45293137 2.40893395
v -1.79005047 0.46585788 2.58132295
v -1.79005047 0.36653968 2.47517751
v -1.79653905 0.39210261 2.40604843
v -1.87526196 0.34226621 2.45078316
v -1.83143152 0.38626794 2.58134066
v -1.79005047 0.46585788 2.58134066
v -1.80088013 0.54628597 2.43706356
v -1.83967488 0.34226621 2.42762803
v -1.79005047 0.36134969 2.47714248
v -1.79005047 0.35941563 2.48027590
v -1.86617777 0.34226621 2.45450073
v -1.81437831 0.39277956 2.58134066
v -1.86174545 0.34226621 2.45522653
v -1.79005047 0.35928670 2.50566159
v -1.79005047 0.36080173 2.50973319
v -1.79005047 0.43810297 2.58134066
v -1.79005047 0.35706236 2.48942819
v -1.79005047 0.35590192 2.49583655
v -1.83753640 0.34226621 2.43679802
v -1.79005047 0.36289703 2.51261874
v -1.84324824 0.34226621 2.45131423
v -1.83936419 0.34226621 2.44626897
f 1 2 8
f 1 8 20
f 1 20 30
f 1 30 50
f 1 50 69
f 1 69 95
f 1 95 107
f 1 107 106
f 1 106 105
f 1 105 104
f 1 104 103
f 1 103 102
f 1 102 134
f 1 134 149
f 1 149 156
f 1 156 160
f 1 160 150
f 1 150 135
f 1 135 109
f 1 109 77
f 1 77 52
f 1 52 32
f 1 32 21
f 1 21 9
f 1 9 3
f 1 3 4
f 1 4 5
f 1 5 6
f 1 6 2
f 2 6 7
f 2 7 8
f 3 9 10
f 3 10 11
f 3 11 4
f 4 12 13
f 4 13 5
f 4 11 14
f 4 14 12
f 5 13 15
f 5 15 6
f 6 15 16
f 6 16 7
f 7 16 17
f 7 17 18
f 7 18 19
f 7 19 8
f 8 19 20
f 9 21 22
f 9 22 10
f 10 22 23
f 10 23 24
f 10 24 11
f 11 25 14
f 11 24 25
f 12 14 15
f 12 15 13
f 14 25 26
f 14 26 15
f 15 26 27
f 15 27 16
f 16 18 17
f 16 27 28
f 16 28 18
f 18 28 19
f 19 28 29
f 19 29 20
f 20 29 31
f 20 31 30
f 21 32 33
f 21 33 22
f 22 33 23
f 23 33 34
f 23 34 24
f 24 34 35
f 24 35 36
f 24 36 37
f 24 37 38
f 24 38 25
f 25 38 26
f 26 38 39
f 26 39 40
f 26 40 41
f 26 41 27
f 27 41 28
f 28 42 43
f 28 43 29
f 28 41 44
f 28 44 45
f 28 45 46
f 28 46 47
f 28 47 48
f 28 48 42
f 29 43 49
f 29 49 31
f 30 31 51
f 30 51 50
f 31 49 51
f 32 52 33
f 33 52 53
f 33 53 34
f 34 54 35
f 34 53 54
f 35 54 53
f 35 53 55
f 35 55 36
f 36 56 37
f 36 55 57
f 36 57 58
f 36 58 56
f 37 56 59
f 37 59 38
f 38 59 39
f 39 59 56
f 39 56 46
f 39 46 45
f 39 45 44
f 39 44 40
f 40 44 41
f 42 60 61
f 42 61 62
f 42 62 49
f 42 49 43
f 42 48 63
f 42 63 60
f 46 58 64
f 46 64 65
f 46 65 66
f 46 66 48
f 46 48 47
f 46 56 58
f 48 66 67
f 48 67 68
f 48 68 63
f 49 62 51
f 50 51 70
f 50 70 71
f 50 71 69
f 51 62 72
f 51 72 73
f 51 73 74
f 51 74 75
f 51 75 76
f 51 76 70
f 52 77 78
f 52 78 79
f 52 79 53
f 53 80 81
f 53 81 82
f 53 82 83
f 53 83 55
f 53 79 80
f 55 83 84
f 55 84 85
f 55 85 57
f 57 85 65
f 57 65 64
f 57 64 86
f 57 86 58
f 58 86 64
f 60 87 88
f 60 88 61
f 60 63 89
f 60 89 87
f 61 88 75
f 61 75 74
f 61 74 73
f 61 73 72
f 61 72 62
f 63 68 90
f 63 90 91
f 63 91 89
f 65 85 66
f 66 85 92
f 66 92 67
f 67 92 68
f 68 92 93
f 68 93 94
f 68 94 90
f 69 71 95
f 70 76 96
f 70 96 71
f 71 97 98
f 71 98 99
f 71 99 100
f 71 100 122
f 71 122 143
f 71 143 152
f 71 152 163
f 71 163 166
f 71 166 165
f 71 165 157
f 71 157 155
f 71 155 148
f 71 148 133
f 71 133 101
f 71 101 102
f 71 102 103
f 71 103 104
f 71 104 105
f 71 105 106
f 71 106 107
f 71 107 95
f 71 96 108
f 71 108 97
f 75 88 76
f 76 88 96
f 77 109 110
f 77 110 111
f 77 111 79
f 77 79 78
f 79 111 80
f 80 111 112
f 80 112 113
f 80 113 114
f 80 114 81
f 81 114 82
f 82 114 83
f 83 114 115
f 83 115 116
f 83 116 84
f 84 116 85
f 85 116 117
f 85 117 92
f 87 89 118
f 87 118 119
f 87 119 120
f 87 120 88
f 88 120 96
f 89 91 121
f 89 121 122
f 89 122 123
f 89 123 124
f 89 124 125
f 89 125 118
f 90 94 91
f 91 94 126
f 91 126 127
f 91 127 121
f 92 117 128
f 92 128 93
f 93 128 129
f 93 129 130
f 93 130 131
f 93 131 132
f 93 132 94
f 94 132 126
f 96 120 108
f 97 108 125
f 97 125 124
f 97 124 98
f 98 124 123
f 98 123 99
f 99 123 100
f 100 123 122
f 101 133 102
f 102 133 134
f 108 120 119
f 108 119 125
f 109 135 129
f 109 129 136
f 109 136 110
f 110 136 137
f 110 137 138
f 110 138 139
f 110 139 112
f 110 112 111
f 112 139 113
f 113 139 114
f 114 139 115
f 115 139 140
f 115 140 116
f 116 140 141
f 116 141 117
f 117 141 128
f 118 125 119
f 121 127 122
f 122 132 131
f 122 131 142
f 122 142 143
f 122 127 126
f 122 126 132
f 128 144 129
f 128 141 140
f 128 140 144
f 129 145 150
f 129 150 160
f 129 160 164
f 129 164 159
f 129 159 158
f 129 158 162
f 129 162 161
f 129 161 154
f 129 154 153
f 129 153 146
f 129 146 130
f 129 144 139
f 129 139 138
f 129 138 137
f 129 137 136
f 129 135 145
f 130 146 131
f 131 146 147
f 131 147 142
f 133 148 149
f 133 149 134
f 135 150 145
f 139 144 151
f 139 151 140
f 140 151 144
f 142 147 143
f 143 147 152
f 146 153 147
f 147 153 154
f 147 154 152
f 148 155 149
f 149 155 157
f 149 157 158
f 149 158 159
f 149 159 156
f 152 154 161
f 152 161 162
f 152 162 163
f 156 159 164
f 156 164 160
f 157 165 162
f 157 162 158
f 162 165 166
f 162 166 163

