# https://github.com/mikedh/trimesh
v -1.77957252 0.75089609 2.75999062
v -1.76194401 0.75053760 2.75999062
v -1.77997984 0.74846928 2.74864139
v -1.78876939 0.74631826 2.74042236
v -1.79034957 0.74728348 2.74979555
v -1.79048534 0.74761441 2.75999062
v -1.76194401 0.74808319 2.75456958
v -1.77462218 0.74549094 2.74206618
v -1.78620174 0.74631826 2.74042236
v -1.75141386 0.74706283 2.75999062
v -1.79668249 0.73559067 2.71504833
v -1.80863239 0.72999243 2.70334936
v -1.79539861 0.74262290 2.73374225
v -1.81207661 0.73445996 2.73243066
v -1.79409008 0.74532545 2.75999062
v -1.81264445 0.66863275 2.58134066
v -1.79668249 0.73002003 2.70359418
v -1.80202782 0.71322536 2.66807753
v -1.74761162 0.74242986 2.75999062
v -1.80315118 0.66220719 2.58134066
v -1.80441041 0.66328270 2.58134066
v -1.81405177 0.71394239 2.66624135
v -1.81144694 0.73230894 2.71504833
v -1.81405177 0.71989911 2.68030110
v -1.82510036 0.71292202 2.66800757
v -1.82013780 0.72585584 2.71504833
v -1.82543374 0.71716896 2.71504833
v -1.82056987 0.72042309 2.73248317
v -1.80906446 0.73308111 2.74979555
v -1.80603988 0.73048881 2.75999062
v -1.83143339 0.67158354 2.58134066
v -1.81701453 0.67886396 2.59755138
v -1.81405177 0.70964030 2.65755018
v -1.74380939 0.73741075 2.75999062
v -1.80257101 0.66058016 2.58134066
v -1.73757516 0.72003701 2.75999062
v -1.83143339 0.67902941 2.59709668
v -1.82780389 0.69609981 2.63250842
v -1.82726081 0.71501790 2.68030110
v -1.83143339 0.68526192 2.61082420
v -1.84122285 0.67756781 2.59999957
v -1.83938345 0.69331452 2.63864644
v -1.82745830 0.71703107 2.69768349
v -1.82370546 0.71488000 2.72672984
v -1.84029699 0.69447277 2.67274665
v -1.83351957 0.70266321 2.69768349
v -1.82132288 0.70266321 2.73715224
v -1.81359496 0.72003701 2.74979555
v -1.80620040 0.73035097 2.75985071
v -1.80628678 0.72908241 2.75999062
v -1.84435845 0.66499254 2.58134066
v -1.79933662 0.65134170 2.58134066
v -1.73505681 0.70751688 2.75999062
v -1.79501594 0.63316819 2.58134066
v -1.84077846 0.69494155 2.65022304
v -1.84288940 0.67974643 2.61082420
v -1.84074138 0.69507945 2.66293626
v -1.82856933 0.70266321 2.71504833
v -1.82431038 0.70266321 2.72847857
v -1.84061793 0.68528947 2.67426800
v -1.83900079 0.68528947 2.68295917
v -1.84795076 0.66791573 2.62818904
v -1.84570405 0.66791573 2.64557138
v -1.83496398 0.68528947 2.69768349
v -1.82447080 0.68528947 2.72888076
v -1.82144633 0.68528947 2.73757193
v -1.81457021 0.70266321 2.74979555
v -1.80758298 0.71854781 2.75999062
v -1.80749661 0.72003701 2.75999062
v -1.84871620 0.65589198 2.58134066
v -1.73327924 0.69866451 2.75999062
v -1.79262103 0.61579445 2.58134066
v -1.73242743 0.69342481 2.75999062
v -1.73114355 0.68528947 2.75999062
v -1.84369181 0.68286266 2.62818904
v -1.84803724 0.66791573 2.61082420
v -1.82913717 0.68528947 2.71504833
v -1.84306224 0.66791573 2.66293626
v -1.84090191 0.66791573 2.67552712
v -1.83912424 0.66791573 2.68421829
v -1.85111111 0.65054199 2.59344187
v -1.85056792 0.65054199 2.61082420
v -1.84879025 0.65054199 2.62818904
v -1.83923526 0.65054199 2.68477785
v -1.83521087 0.66791573 2.69768349
v -1.82459425 0.66791573 2.72919554
v -1.82155745 0.66791573 2.73788671
v -1.81481711 0.68528947 2.74979555
v -1.80826194 0.70045705 2.75999062
v -1.80822497 0.70266321 2.75999062
v -1.85054317 0.65054199 2.58134066
v -1.79176922 0.59844826 2.58134066
v -1.72994604 0.66791573 2.75999062
v -1.84606197 0.65054199 2.64557138
v -1.84330914 0.65054199 2.66293626
v -1.84102535 0.65054199 2.67608668
v -1.85217274 0.63843549 2.58134066
v -1.85237024 0.63316819 2.58134066
v -1.85176532 0.63316819 2.59344187
v -1.85086422 0.63316819 2.61082420
v -1.84903714 0.63316819 2.62818904
v -1.84108708 0.63316819 2.67636651
v -1.83928466 0.63316819 2.68505768
v -1.83540837 0.65054199 2.69768349
v -1.82465597 0.65054199 2.72935291
v -1.82160685 0.65054199 2.73804408
v -1.81502703 0.66791573 2.74979555
v -1.80847187 0.68528947 2.75999062
v -1.72667467 0.46919300 2.75999062
v -1.79058414 0.46919300 2.58134066
v -1.84625957 0.63316819 2.64557138
v -1.84345724 0.63316819 2.66293626
v -1.85255541 0.62106175 2.58134066
v -1.85262946 0.61579445 2.58134066
v -1.85104939 0.61579445 2.61082420
v -1.85199990 0.61579445 2.59344187
v -1.84916059 0.61579445 2.62818904
v -1.84349431 0.61579445 2.66293626
v -1.84108708 0.61579445 2.67638396
v -1.83928466 0.61579445 2.68507513
v -1.83548242 0.63316819 2.69768349
v -1.82466830 0.63316819 2.72937041
v -1.82160685 0.63316819 2.73806158
v -1.81512573 0.65054199 2.74979555
v -1.80866936 0.66791573 2.75999062
v -1.80757066 0.46919300 2.75999062
v -1.85043215 0.46919300 2.58134066
v -1.84633361 0.61579445 2.64557138
v -1.85274058 0.60371556 2.58134066
v -1.85209869 0.59844826 2.59344187
v -1.85109868 0.59844826 2.61082420
v -1.84917292 0.59844826 2.62818904
v -1.84349431 0.49420570 2.66293626
v -1.84108708 0.49420570 2.67638396
v -1.83928466 0.49420570 2.68507513
v -1.83548242 0.49420570 2.69768349
v -1.82466830 0.49420570 2.72937041
v -1.82160685 0.49420570 2.73806158
v -1.80874341 0.65054199 2.75999062
v -1.80868169 0.66526828 2.75999062
v -1.81512573 0.49420570 2.74979555
v -1.81310116 0.46919300 2.75009283
v -1.80868169 0.47680436 2.75999062
v -1.81496531 0.47680436 2.74979555
v -1.84890137 0.46919300 2.61082420
v -1.85218507 0.47680436 2.58134066
v -1.84633361 0.49420570 2.64557138
v -1.85276533 0.59844826 2.58134066
v -1.85277766 0.58634176 2.58134066
v -1.85278998 0.49947300 2.58134066
v -1.85209869 0.49420570 2.59344187
v -1.85109868 0.49420570 2.61082420
v -1.84917292 0.49420570 2.62818904
v -1.84338319 0.47680436 2.66293626
v -1.84103768 0.47680436 2.67613913
v -1.83916121 0.47680436 2.68483030
v -1.83530967 0.47680436 2.69768349
v -1.82948287 0.47680436 2.71504833
v -1.82463132 0.47680436 2.72928295
v -1.82147097 0.47680436 2.73797412
v -1.80874341 0.49420570 2.75999062
v -1.82074271 0.46919300 2.73578825
v -1.84727180 0.46919300 2.62818904
v -1.85064197 0.47680436 2.61082420
v -1.85237024 0.48209926 2.58134066
v -1.85278998 0.49420570 2.58134066
v -1.84892602 0.47680436 2.62818904
v -1.84621017 0.47680436 2.64557138
v -1.84079078 0.46919300 2.67489756
v -1.84029699 0.46919300 2.67717089
v -1.82422390 0.46919300 2.72809383
v -1.82303883 0.46919300 2.73136396
f 1 2 3
f 1 3 4
f 1 4 5
f 1 5 6
f 1 6 15
f 1 15 30
f 1 30 50
f 1 50 69
f 1 69 68
f 1 68 90
f 1 90 89
f 1 89 108
f 1 108 125
f 1 125 140
f 1 140 139
f 1 139 161
f 1 161 143
f 1 143 126
f 1 126 109
f 1 109 93
f 1 93 74
f 1 74 73
f 1 73 71
f 1 71 53
f 1 53 36
f 1 36 34
f 1 34 19
f 1 19 10
f 1 10 2
f 2 7 8
f 2 8 9
f 2 9 3
f 2 10 7
f 3 9 4
f 4 9 11
f 4 11 12
f 4 12 13
f 4 13 5
f 5 13 14
f 5 14 6
f 6 14 15
f 7 10 16
f 7 16 8
f 8 17 11
f 8 11 9
f 8 16 18
f 8 18 17
f 10 19 20
f 10 20 21
f 10 21 16
f 11 17 22
f 11 22 12
f 12 23 13
f 12 22 24
f 12 24 25
f 12 25 23
f 13 23 14
f 14 23 26
f 14 26 27
f 14 27 28
f 14 28 29
f 14 29 15
f 15 29 30
f 16 31 32
f 16 32 18
f 16 21 20
f 16 20 35
f 16 35 52
f 16 52 54
f 16 54 72
f 16 72 92
f 16 92 110
f 16 110 127
f 16 127 146
f 16 146 165
f 16 165 166
f 16 166 150
f 16 150 149
f 16 149 148
f 16 148 129
f 16 129 114
f 16 114 113
f 16 113 98
f 16 98 97
f 16 97 91
f 16 91 70
f 16 70 51
f 16 51 31
f 17 18 22
f 18 33 22
f 18 32 33
f 19 34 20
f 20 34 36
f 20 36 35
f 22 33 31
f 22 31 37
f 22 37 38
f 22 38 25
f 22 25 24
f 23 25 39
f 23 39 26
f 25 38 40
f 25 40 41
f 25 41 42
f 25 42 39
f 26 39 43
f 26 43 27
f 27 44 28
f 27 43 45
f 27 45 46
f 27 46 44
f 28 44 47
f 28 47 48
f 28 48 49
f 28 49 29
f 29 49 30
f 30 49 50
f 31 41 37
f 31 33 32
f 31 51 41
f 35 36 52
f 36 53 54
f 36 54 52
f 37 41 40
f 37 40 38
f 39 42 55
f 39 55 43
f 41 56 42
f 41 51 56
f 42 56 55
f 43 55 57
f 43 57 45
f 44 46 58
f 44 58 59
f 44 59 47
f 45 60 61
f 45 61 46
f 45 57 62
f 45 62 63
f 45 63 60
f 46 61 64
f 46 64 58
f 47 59 65
f 47 65 66
f 47 66 67
f 47 67 48
f 48 68 69
f 48 69 50
f 48 50 49
f 48 67 68
f 51 70 56
f 53 71 54
f 54 71 73
f 54 73 74
f 54 74 72
f 55 56 75
f 55 75 76
f 55 76 57
f 56 70 76
f 56 76 75
f 57 76 62
f 58 64 59
f 59 64 77
f 59 77 65
f 60 63 78
f 60 78 79
f 60 79 61
f 61 79 80
f 61 80 64
f 62 76 81
f 62 81 82
f 62 82 83
f 62 83 63
f 63 83 78
f 64 80 84
f 64 84 85
f 64 85 77
f 65 77 86
f 65 86 66
f 66 86 87
f 66 87 67
f 67 87 88
f 67 88 89
f 67 89 90
f 67 90 68
f 70 91 76
f 72 74 93
f 72 93 92
f 76 91 81
f 77 85 86
f 78 83 94
f 78 94 95
f 78 95 79
f 79 95 96
f 79 96 80
f 80 96 84
f 81 91 97
f 81 97 82
f 82 97 98
f 82 98 99
f 82 99 100
f 82 100 83
f 83 100 101
f 83 101 94
f 84 96 102
f 84 102 103
f 84 103 104
f 84 104 85
f 85 104 86
f 86 104 105
f 86 105 87
f 87 105 106
f 87 106 107
f 87 107 88
f 88 107 108
f 88 108 89
f 92 93 109
f 92 109 110
f 94 101 95
f 95 101 111
f 95 111 112
f 95 112 96
f 96 112 102
f 98 113 99
f 99 113 114
f 99 114 100
f 100 115 101
f 100 114 116
f 100 116 115
f 101 115 117
f 101 117 111
f 102 112 118
f 102 118 119
f 102 119 120
f 102 120 103
f 103 120 121
f 103 121 104
f 104 121 105
f 105 121 122
f 105 122 106
f 106 122 123
f 106 123 124
f 106 124 107
f 107 124 125
f 107 125 108
f 109 126 142
f 109 142 162
f 109 162 172
f 109 172 171
f 109 171 170
f 109 170 169
f 109 169 163
f 109 163 145
f 109 145 127
f 109 127 110
f 111 117 112
f 112 117 128
f 112 128 118
f 114 129 116
f 115 116 129
f 115 129 130
f 115 130 131
f 115 131 117
f 117 131 132
f 117 132 128
f 118 128 147
f 118 147 133
f 118 133 134
f 118 134 119
f 119 134 135
f 119 135 120
f 120 135 136
f 120 136 121
f 121 136 137
f 121 137 122
f 122 137 138
f 122 138 123
f 123 138 141
f 123 141 124
f 124 139 140
f 124 140 125
f 124 141 161
f 124 161 139
f 126 143 144
f 126 144 142
f 127 145 146
f 128 132 153
f 128 153 147
f 129 148 130
f 130 148 149
f 130 149 150
f 130 150 166
f 130 166 151
f 130 151 152
f 130 152 131
f 131 152 153
f 131 153 132
f 133 147 154
f 133 154 155
f 133 155 134
f 134 155 135
f 135 155 156
f 135 156 157
f 135 157 136
f 136 157 158
f 136 158 159
f 136 159 137
f 137 159 138
f 138 159 160
f 138 160 144
f 138 144 141
f 141 144 143
f 141 143 161
f 142 144 160
f 142 160 162
f 145 163 164
f 145 164 146
f 146 164 165
f 147 153 154
f 151 166 164
f 151 164 152
f 152 164 167
f 152 167 153
f 153 167 168
f 153 168 154
f 154 168 169
f 154 169 155
f 155 169 156
f 156 169 170
f 156 170 157
f 157 170 171
f 157 171 158
f 158 171 159
f 159 171 172
f 159 172 160
f 160 172 162
f 163 169 167
f 163 167 164
f 164 166 165
f 167 169 168

