# https://github.com/mikedh/trimesh
v -5.65395968 0.46309687 1.39369601
v -5.65395968 0.49418017 1.38970466
v -5.66272489 0.52061703 1.38592609
v -5.66361824 0.51154848 1.38666605
v -5.66520773 0.49418017 1.38807669
v -5.66654764 0.47680508 1.38945031
v -5.66741778 0.46309687 1.39047704
v -5.65163115 0.46309687 1.39293751
v -5.64453103 0.51154848 1.38651806
v -5.64517478 0.52081432 1.38593997
v -5.65395968 0.51154848 1.38732280
v -5.65395968 0.52095719 1.38596772
v -5.65395968 0.52964473 1.38411310
v -5.65395968 0.53259044 1.38327600
v -5.66663629 0.53259044 1.37688431
v -5.66670858 0.52741330 1.37811454
v -5.66899754 0.51154848 1.37717568
v -5.67200254 0.46309687 1.37717568
v -5.67049839 0.49418017 1.37717568
v -5.67151973 0.47680508 1.37717568
v -5.64253764 0.46309687 1.38908028
v -5.64357203 0.49418017 1.38748933
v -5.64107946 0.52753576 1.37830882
v -5.64094814 0.53259044 1.37721731
v -5.65159180 0.53259044 1.38236951
v -5.66889232 0.53259044 1.35980443
v -5.66722743 0.46309687 1.36410563
v -5.66793663 0.49418017 1.36194576
v -5.66761828 0.47680508 1.36324999
v -5.64181828 0.46309687 1.38672156
v -5.63926337 0.49418017 1.37717568
v -5.63969026 0.51154848 1.37717568
v -5.64293159 0.47680508 1.38834492
v -5.63989386 0.53259044 1.37331850
v -5.66436037 0.53259044 1.34872306
v -5.65395968 0.46309687 1.36102539
v -5.66278724 0.51941284 1.35099851
v -5.63988724 0.46309687 1.37717568
v -5.63951296 0.47680508 1.37717568
v -5.63845536 0.53259044 1.35980443
v -5.65395968 0.53259044 1.34645222
v -5.64671498 0.53259044 1.34720606
v -5.64318781 0.53259044 1.34834842
v -5.64517478 0.46309687 1.36430448
v -5.64037999 0.46309687 1.37445159
v -5.63910906 0.53259044 1.35629869
v -5.64261966 0.46309687 1.36540986
f 1 2 3
f 1 3 4
f 1 4 5
f 1 5 6
f 1 6 7
f 1 7 18
f 1 18 27
f 1 27 36
f 1 36 44
f 1 44 47
f 1 47 45
f 1 45 38
f 1 38 30
f 1 30 21
f 1 21 8
f 1 8 9
f 1 9 10
f 1 10 2
f 2 10 11
f 2 11 3
f 3 11 12
f 3 12 13
f 3 13 14
f 3 14 15
f 3 15 16
f 3 16 4
f 4 16 5
f 5 16 6
f 6 16 17
f 6 17 7
f 7 17 19
f 7 19 20
f 7 20 18
f 8 21 22
f 8 22 9
f 9 23 10
f 9 22 23
f 10 23 24
f 10 24 25
f 10 25 14
f 10 14 13
f 10 13 12
f 10 12 11
f 14 25 24
f 14 24 34
f 14 34 40
f 14 40 46
f 14 46 43
f 14 43 42
f 14 42 41
f 14 41 35
f 14 35 26
f 14 26 15
f 15 26 17
f 15 17 16
f 17 26 19
f 18 20 26
f 18 26 28
f 18 28 29
f 18 29 27
f 19 26 20
f 21 30 31
f 21 31 32
f 21 32 33
f 21 33 22
f 22 33 23
f 23 33 32
f 23 32 24
f 24 32 34
f 26 35 28
f 27 29 35
f 27 35 37
f 27 37 36
f 28 35 29
f 30 38 39
f 30 39 31
f 31 39 40
f 31 40 32
f 32 40 34
f 35 41 37
f 36 41 42
f 36 42 43
f 36 43 44
f 36 37 41
f 38 45 40
f 38 40 39
f 40 45 46
f 43 46 47
f 43 47 44
f 45 47 46

