# https://github.com/mikedh/trimesh
v -4.11585414 0.85894989 3.16532826
v -4.01949221 0.82257558 3.16532826
v -4.00004978 0.85530833 3.07782077
v -4.00004978 0.86412259 3.05759426
v -4.00004978 0.86672960 3.05138313
v -4.00004978 0.86925388 3.04396890
v -4.00004978 0.87028841 3.04084718
v -4.00004978 0.87459210 3.02452285
v -4.00004978 0.87885437 3.00712539
v -4.00004978 0.88253733 2.99096366
v -4.11585414 0.86072930 3.15658075
v -4.11585414 0.51544232 3.16532826
v -4.01257684 0.81947198 3.16532826
v -4.00745267 0.81810639 3.16321452
v -4.00004978 0.82994149 3.13040327
v -4.00004978 0.88493744 2.97551734
v -4.11585414 0.86325356 3.14100436
v -4.11585414 0.50455896 3.15713358
v -4.08067634 0.53687793 3.15866197
v -4.07956536 0.54672668 3.16532826
v -4.00841628 0.81752705 3.16532826
v -4.00004978 0.81893402 3.15258092
v -4.00004978 0.82079617 3.14929660
v -4.00004978 0.82145828 3.14793080
v -4.00004978 0.88547540 2.97158264
v -4.11585414 0.86950215 3.08855194
v -4.11585414 0.46429480 3.12103800
v -4.07328485 0.46429480 3.09671410
v -4.09680846 0.50141399 3.14211000
v -4.09068666 0.51175933 3.14614226
v -4.07890784 0.51767691 3.14272787
v -4.07405572 0.54726464 3.16210888
v -4.07331887 0.55239597 3.16532826
v -4.00111545 0.80999559 3.16532826
v -4.00004978 0.81086459 3.16357223
v -4.00004978 0.88663410 2.95870522
v -4.11585414 0.87090914 3.07082929
v -4.11585414 0.46429480 2.83315102
v -4.08522238 0.50613147 3.13794757
v -4.05528216 0.46429480 3.07993450
v -4.00004978 0.49880693 3.06022820
v -4.02873164 0.50228299 3.08923483
v -4.01253148 0.53816072 3.10549402
v -4.01895942 0.54457484 3.11609511
v -4.02538731 0.55098900 3.12663117
v -4.04408149 0.55231317 3.14292298
v -4.06277572 0.55367876 3.15914975
v -4.06189144 0.56427244 3.16532826
v -4.00021983 0.80867143 3.16532826
v -4.00004978 0.80867143 3.16513315
v -4.00004978 0.88684099 2.95460793
v -4.01322303 0.88530991 2.95337221
v -4.11585414 0.87169537 3.01870205
v -4.00004978 0.46429480 2.83315102
v -4.11585414 0.77444891 2.83315102
v -4.03759690 0.46429480 3.06292727
v -4.02038783 0.46429480 3.04562737
v -4.00334875 0.46429480 3.02793724
v -4.00004978 0.46429480 3.02075065
v -4.00004978 0.55463056 3.10637204
v -4.00764540 0.54974753 3.11030684
v -4.01381257 0.55719619 3.12188339
v -4.03250675 0.55881008 3.13820772
v -4.05120098 0.56046534 3.15449954
v -4.05638180 0.56522419 3.16178369
v -4.05596237 0.57143144 3.16532826
v -4.00004978 0.80788517 3.16532826
v -4.00004978 0.88704791 2.94075494
v -4.01322303 0.88530991 2.94628317
v -4.11585414 0.87169537 3.01040981
v -4.00004978 0.83565212 2.83315102
v -4.11585414 0.79687770 2.85152405
v -4.10015279 0.79907092 2.84476020
v -4.08017753 0.79675352 2.83315102
v -4.00004978 0.56067226 3.11085966
v -4.00271390 0.56298960 3.11524962
v -4.00936855 0.56878300 3.12562308
v -4.02784736 0.57035552 3.14201245
v -4.04650757 0.57205215 3.15830426
v -4.04869556 0.58074228 3.16532826
v -4.00004978 0.66598810 3.16532826
v -4.00004978 0.88696517 2.93652758
v -4.11585414 0.87103329 3.00133711
v -4.01115978 0.88493744 2.93470651
v -4.00332612 0.83461760 2.83315102
v -4.00004978 0.83759705 2.83497208
v -4.11585414 0.80370565 2.85727981
v -4.09019918 0.81069910 2.84973550
v -4.09019918 0.80200897 2.84225624
v -4.06929433 0.80345736 2.83315102
v -4.00004978 0.57060381 3.11788366
v -4.00004978 0.57544541 3.12123301
v -4.00004978 0.58446659 3.12689132
v -4.00347349 0.58214925 3.12848465
v -4.03057953 0.59146004 3.15713358
v -4.03443401 0.58107332 3.15397923
v -4.04312922 0.58107332 3.16110079
v -4.03928608 0.59328084 3.16532826
v -4.00068468 0.66458113 3.16532826
v -4.00004978 0.66404317 3.16451529
v -4.00004978 0.88601336 2.92709717
v -4.11585414 0.87020566 2.99297984
v -4.00004978 0.88564095 2.92358522
v -4.00756602 0.88398569 2.92358522
v -4.11585414 0.86892282 2.98485019
v -4.00850695 0.83279680 2.83315102
v -4.00332612 0.84003857 2.83832149
v -4.00004978 0.84049375 2.83776866
v -4.11585414 0.81289232 2.86661266
v -4.10112774 0.81703047 2.86131211
v -4.07849969 0.81405099 2.84684136
v -4.09019918 0.82000994 2.85841797
v -4.06653949 0.80498844 2.83315102
v -4.00004978 0.59725349 3.13417547
v -4.00283865 0.59688103 3.13648432
v -4.01220272 0.59005307 3.14058161
v -4.02663432 0.60304685 3.16048293
v -4.03656530 0.59692240 3.16532826
v -4.00440308 0.65651171 3.16532826
v -4.00004978 0.63747623 3.15339389
v -4.00004978 0.65059418 3.15888960
v -4.00004978 0.88290977 2.90953712
v -4.02070525 0.87686807 2.90618776
v -4.02070525 0.88059240 2.92358522
v -4.11585414 0.86552955 2.96803807
v -4.11585414 0.86652270 2.97272071
v -4.11585414 0.86759863 2.97789123
v -4.11585414 0.86826073 2.98111050
v -4.02070525 0.83705909 2.84137822
v -4.02070525 0.82824483 2.83315102
v -4.00332612 0.84872867 2.84742670
v -4.00004978 0.84918386 2.84684136
v -4.11585414 0.82038236 2.87513253
v -4.09019918 0.82870002 2.86765326
v -4.07896454 0.83163813 2.86420625
v -4.09989207 0.83354168 2.87939242
v -4.05596237 0.81078185 2.83315102
v -4.07294474 0.82435498 2.85396292
v -4.05545222 0.82870002 2.84944283
v -4.04412685 0.83159675 2.84667877
v -4.05545222 0.82000994 2.84131318
v -4.04685902 0.81562350 2.83315102
v -4.00004978 0.60333651 3.13762238
v -4.00004978 0.60830229 3.14038650
v -4.00830293 0.60163988 3.14393096
v -4.01504824 0.61281290 3.15550763
v -4.02423097 0.61703380 3.16532826
v -4.03493278 0.59932254 3.16532826
v -4.00718061 0.65059418 3.16532826
v -4.00004978 0.63321397 3.15160545
v -4.00004978 0.88220628 2.90667555
v -4.00004978 0.88187522 2.90537479
v -4.00004978 0.87715774 2.88892038
v -4.03352706 0.86937803 2.89425344
v -4.11585414 0.86043963 2.94924230
v -4.02118138 0.82803794 2.83315102
v -4.03254077 0.83445205 2.84388219
v -4.02070525 0.84574920 2.85132893
v -4.00004978 0.85675667 2.85549131
v -4.11585414 0.82853453 2.88485556
v -4.09019918 0.83573490 2.87633568
v -4.06737840 0.83441068 2.86108448
v -4.11585414 0.83258988 2.88996099
v -4.11585414 0.83523831 2.89353803
v -4.11585414 0.83772120 2.89744025
v -4.10643331 0.83676942 2.88918053
v -4.08916753 0.84459053 2.89005854
v -4.03790304 0.82418946 2.83679315
v -4.04065783 0.81880985 2.83315102
v -4.00004978 0.61393020 3.14315061
v -4.01195334 0.62439971 3.15817418
v -4.02094334 0.62328242 3.16532826
v -4.01598922 0.63284155 3.16532826
v -4.00975401 0.63321397 3.16009270
v -4.00004978 0.61968223 3.14575203
v -4.00004978 0.87558522 2.88518075
v -4.02018375 0.87111604 2.88862771
v -4.11585414 0.85406686 2.93060922
v -4.11585414 0.85750155 2.94055983
v -4.01405061 0.86855040 2.87893720
v -4.02563669 0.86615026 2.88267684
v -4.10800913 0.84636991 2.90641539
v -4.11408558 0.84951493 2.91691893
v -4.11585414 0.84926663 2.91786188
v -4.11585414 0.85257715 2.92647931
v -4.03557902 0.82141691 2.83315102
v -4.05545222 0.83697632 2.85812530
v -4.00004978 0.86532263 2.86602731
v -4.04144005 0.84843900 2.86586472
v -4.07303541 0.83875575 2.87057992
v -4.11585414 0.84285249 2.90602517
v -4.00004978 0.87103329 2.87464475
v -4.00004978 0.86933666 2.87197819
f 1 2 3
f 1 3 4
f 1 4 5
f 1 5 6
f 1 6 7
f 1 7 8
f 1 8 9
f 1 9 10
f 1 10 11
f 1 11 17
f 1 17 26
f 1 26 37
f 1 37 53
f 1 53 70
f 1 70 83
f 1 83 102
f 1 102 105
f 1 105 128
f 1 128 127
f 1 127 126
f 1 126 125
f 1 125 155
f 1 155 179
f 1 179 178
f 1 178 185
f 1 185 184
f 1 184 191
f 1 191 165
f 1 165 164
f 1 164 163
f 1 163 160
f 1 160 133
f 1 133 109
f 1 109 87
f 1 87 72
f 1 72 55
f 1 55 38
f 1 38 27
f 1 27 18
f 1 18 12
f 1 12 20
f 1 20 33
f 1 33 48
f 1 48 66
f 1 66 80
f 1 80 98
f 1 98 118
f 1 118 148
f 1 148 147
f 1 147 172
f 1 172 173
f 1 173 149
f 1 149 119
f 1 119 99
f 1 99 81
f 1 81 67
f 1 67 49
f 1 49 34
f 1 34 21
f 1 21 13
f 1 13 2
f 2 13 3
f 3 13 14
f 3 14 15
f 3 15 24
f 3 24 23
f 3 23 22
f 3 22 35
f 3 35 50
f 3 50 67
f 3 67 81
f 3 81 100
f 3 100 121
f 3 121 120
f 3 120 150
f 3 150 175
f 3 175 170
f 3 170 144
f 3 144 143
f 3 143 114
f 3 114 93
f 3 93 92
f 3 92 91
f 3 91 75
f 3 75 60
f 3 60 41
f 3 41 59
f 3 59 54
f 3 54 71
f 3 71 86
f 3 86 108
f 3 108 132
f 3 132 159
f 3 159 188
f 3 188 193
f 3 193 192
f 3 192 176
f 3 176 153
f 3 153 152
f 3 152 151
f 3 151 122
f 3 122 103
f 3 103 101
f 3 101 82
f 3 82 68
f 3 68 51
f 3 51 36
f 3 36 25
f 3 25 16
f 3 16 10
f 3 10 9
f 3 9 8
f 3 8 7
f 3 7 6
f 3 6 5
f 3 5 4
f 10 16 17
f 10 17 11
f 12 18 19
f 12 19 20
f 13 21 14
f 14 21 22
f 14 22 23
f 14 23 24
f 14 24 15
f 16 25 17
f 17 25 26
f 18 27 28
f 18 28 29
f 18 29 30
f 18 30 19
f 19 30 31
f 19 31 32
f 19 32 20
f 20 32 33
f 21 34 35
f 21 35 22
f 25 36 26
f 26 36 37
f 27 38 54
f 27 54 59
f 27 59 58
f 27 58 57
f 27 57 56
f 27 56 40
f 27 40 28
f 28 39 30
f 28 30 29
f 28 40 41
f 28 41 42
f 28 42 43
f 28 43 44
f 28 44 45
f 28 45 46
f 28 46 47
f 28 47 31
f 28 31 39
f 30 39 31
f 31 47 32
f 32 47 33
f 33 47 48
f 34 49 35
f 35 49 50
f 36 51 37
f 37 51 52
f 37 52 53
f 38 55 74
f 38 74 90
f 38 90 113
f 38 113 137
f 38 137 142
f 38 142 169
f 38 169 186
f 38 186 156
f 38 156 130
f 38 130 106
f 38 106 85
f 38 85 71
f 38 71 54
f 40 56 41
f 41 56 57
f 41 57 58
f 41 58 59
f 41 60 61
f 41 61 43
f 41 43 42
f 43 61 62
f 43 62 44
f 44 62 45
f 45 62 46
f 46 62 47
f 47 62 63
f 47 63 64
f 47 64 65
f 47 65 48
f 48 65 66
f 49 67 50
f 51 68 52
f 52 68 69
f 52 69 70
f 52 70 53
f 55 72 73
f 55 73 74
f 60 75 76
f 60 76 61
f 61 76 62
f 62 76 77
f 62 77 78
f 62 78 63
f 63 78 79
f 63 79 64
f 64 79 65
f 65 79 66
f 66 79 80
f 68 82 69
f 69 82 70
f 70 82 84
f 70 84 83
f 71 85 86
f 72 87 73
f 73 87 88
f 73 88 89
f 73 89 90
f 73 90 74
f 75 91 76
f 76 91 92
f 76 92 77
f 77 92 93
f 77 93 94
f 77 94 95
f 77 95 78
f 78 95 96
f 78 96 97
f 78 97 79
f 79 97 80
f 80 97 98
f 81 99 100
f 82 101 84
f 83 84 102
f 84 101 103
f 84 103 104
f 84 104 105
f 84 105 102
f 85 106 107
f 85 107 86
f 86 107 108
f 87 109 110
f 87 110 88
f 88 111 90
f 88 90 89
f 88 110 112
f 88 112 111
f 90 111 113
f 93 114 115
f 93 115 116
f 93 116 94
f 94 116 95
f 95 116 117
f 95 117 118
f 95 118 97
f 95 97 96
f 97 118 98
f 99 119 120
f 99 120 121
f 99 121 100
f 103 122 104
f 104 122 123
f 104 123 124
f 104 124 125
f 104 125 126
f 104 126 127
f 104 127 128
f 104 128 105
f 106 129 107
f 106 130 129
f 107 129 131
f 107 131 132
f 107 132 108
f 109 133 110
f 110 134 135
f 110 135 112
f 110 133 136
f 110 136 134
f 111 137 113
f 111 112 138
f 111 138 139
f 111 139 140
f 111 140 141
f 111 141 142
f 111 142 137
f 112 135 138
f 114 143 115
f 115 143 144
f 115 144 145
f 115 145 116
f 116 145 117
f 117 145 144
f 117 144 146
f 117 146 147
f 117 147 148
f 117 148 118
f 119 149 150
f 119 150 120
f 122 151 123
f 123 151 152
f 123 152 153
f 123 153 154
f 123 154 155
f 123 155 125
f 123 125 124
f 129 130 156
f 129 156 157
f 129 157 158
f 129 158 131
f 131 158 159
f 131 159 132
f 133 160 136
f 134 136 135
f 135 136 161
f 135 161 162
f 135 162 138
f 136 163 164
f 136 164 165
f 136 165 166
f 136 166 167
f 136 167 161
f 136 160 163
f 138 162 139
f 139 162 140
f 140 168 141
f 140 162 157
f 140 157 168
f 141 168 142
f 142 168 169
f 144 170 146
f 146 170 147
f 147 170 171
f 147 171 172
f 149 173 174
f 149 174 150
f 150 174 175
f 153 176 177
f 153 177 154
f 154 178 179
f 154 179 155
f 154 177 180
f 154 180 181
f 154 181 182
f 154 182 183
f 154 183 184
f 154 184 185
f 154 185 178
f 156 186 157
f 157 162 187
f 157 187 158
f 157 186 168
f 158 187 188
f 158 188 159
f 161 189 190
f 161 190 162
f 161 167 181
f 161 181 180
f 161 180 189
f 162 190 189
f 162 189 188
f 162 188 187
f 165 191 166
f 166 191 167
f 167 191 182
f 167 182 181
f 168 186 169
f 170 175 171
f 171 173 172
f 171 175 174
f 171 174 173
f 176 192 177
f 177 192 180
f 180 192 193
f 180 193 188
f 180 188 189
f 182 191 183
f 183 191 184

