# https://github.com/mikedh/trimesh
v -3.37487977 -0.00412805 3.32145592
v -3.38222177 0.00768153 3.32145592
v -3.36360894 -0.00412805 3.32145592
v -3.37487977 -0.00412805 4.04712591
v -3.38381724 0.02505693 3.32145592
v -3.38222177 0.00768153 4.04712591
v -3.36286819 -0.00293676 3.32145592
v -3.36362319 -0.00412805 4.04712591
v -3.38381724 0.07718312 3.32145592
v -3.38381439 0.02505693 4.04712591
v -3.35639801 0.00768153 3.32145592
v -3.35643790 0.00768153 4.04712591
v -3.38337563 0.09455842 3.32145592
v -3.38381439 0.04243233 4.04712591
v -3.38381439 0.07718312 3.79226062
v -3.35621852 0.00942730 3.32145592
v -3.35587663 0.01349383 4.04712591
v -3.37387406 0.20567056 3.32145592
v -3.38337279 0.09455842 3.75752557
v -3.37387406 0.20567056 4.04712591
v -3.38381153 0.07718312 4.04712591
v -3.38351809 0.08874611 4.04712591
v -3.35471137 0.02505693 3.32145592
v -3.35476550 0.02505693 4.04712591
v -3.35840374 0.20567056 3.32145592
v -3.38336994 0.09455842 4.04712591
v -3.35849776 0.20567056 4.04712591
v -3.35471137 0.07718312 3.32145592
v -3.35476550 0.07718312 4.04712591
v -3.35493360 0.09455842 3.32145592
v -3.35498773 0.09455842 4.04712591
v -3.35473131 0.07892879 3.32145592
v -3.35483958 0.08299543 4.04712591
f 1 2 5
f 1 5 9
f 1 9 13
f 1 13 18
f 1 18 25
f 1 25 30
f 1 30 32
f 1 32 28
f 1 28 23
f 1 23 16
f 1 16 11
f 1 11 7
f 1 7 3
f 1 3 8
f 1 8 4
f 1 4 6
f 1 6 2
f 2 6 5
f 3 7 8
f 4 8 12
f 4 12 17
f 4 17 24
f 4 24 29
f 4 29 33
f 4 33 31
f 4 31 27
f 4 27 20
f 4 20 26
f 4 26 22
f 4 22 21
f 4 21 14
f 4 14 10
f 4 10 6
f 5 6 10
f 5 10 14
f 5 14 9
f 7 11 8
f 8 11 12
f 9 14 15
f 9 15 13
f 11 16 12
f 12 16 17
f 13 15 19
f 13 19 20
f 13 20 18
f 14 21 15
f 15 21 22
f 15 22 19
f 16 23 17
f 17 23 24
f 18 20 27
f 18 27 25
f 19 22 26
f 19 26 20
f 23 28 29
f 23 29 24
f 25 27 31
f 25 31 30
f 28 32 29
f 29 32 33
f 30 31 32
f 31 33 32

