# https://github.com/mikedh/trimesh
v -4.25791650 0.39126313 1.88106277
v -4.00332980 0.39126313 1.88106277
v -4.25791650 0.39150619 1.88709087
v -4.25791650 0.39213814 1.86971486
v -3.98892719 0.39155476 1.88106277
v -3.98892719 0.39208946 1.89545487
v -4.00332980 0.39204089 1.89843878
v -4.00332980 0.39262421 1.86368675
v -4.25791650 0.39204089 1.89843878
v -4.25791650 0.39262421 1.86368675
v -3.98892719 0.39179783 1.87807886
v -3.98892719 0.39223533 1.89843878
v -3.98892719 0.39422836 1.91281582
v -4.00332980 0.39456867 1.91579972
v -4.25791650 0.39291590 1.90445182
v -3.98892719 0.39315896 1.86368675
v -3.98892719 0.39733947 1.82302718
v -4.25791650 0.39816585 1.82329844
v -4.24764774 0.39811723 1.82302718
v -4.07284154 0.39743666 1.82302718
v -4.04250914 0.39738809 1.82302718
v -4.00822722 0.39733947 1.82302718
v -3.98892719 0.39466587 1.91579972
v -4.25791650 0.39549225 1.92059207
v -4.25791650 0.39456867 1.91579972
v -3.98892719 0.39680472 1.92714764
v -4.00332980 0.39724227 1.92958902
v -3.98892719 0.86254469 1.82302718
v -4.25791650 0.40764494 1.82302718
v -4.25791650 0.39724227 1.92958902
v -3.98892719 0.39729084 1.92951366
v -4.25625772 0.40662411 1.97696993
v -4.10778171 0.86560717 1.82302718
v -4.10759742 0.87639877 1.82816614
v -4.10759742 0.88685011 1.83413397
v -4.09796056 0.88587788 1.83610817
v -4.09682835 0.88655845 1.84631073
v -4.09553815 0.88675289 1.86368675
v -3.98892719 0.86239887 1.82893473
v -4.25791650 0.86254469 1.82302718
v -4.25791650 0.40667273 1.97696993
v -3.98892719 0.39933250 1.93670218
v -4.25309809 0.40667273 1.97696993
v -4.12494900 0.86541273 1.82302718
v -4.12494900 0.88675289 1.83452579
v -4.10759742 0.88777371 1.84631073
v -4.09624906 0.88612094 1.87809393
v -4.05546361 0.87212102 1.97696993
v -4.04166659 0.86900994 1.97696993
v -4.03713780 0.86794049 1.97696993
v -4.03297760 0.86672522 1.97696993
v -4.02070773 0.86210721 1.97696993
v -4.00480434 0.85408644 1.97696993
v -3.99877470 0.85024619 1.97696993
v -3.99666827 0.84859342 1.97696993
v -3.99453553 0.84650314 1.97696993
v -3.98892719 0.84096150 1.97696993
v -4.25791650 0.86239887 1.82893473
v -4.13429624 0.88573206 1.83974011
v -4.13429624 0.88573206 1.83663563
v -4.25791650 0.68671948 1.97696993
v -3.98892719 0.39977000 1.93819414
v -4.24714743 0.40676993 1.97696993
v -4.12347451 0.88646120 1.84584356
v -4.10198908 0.88612094 1.87809393
v -4.07284154 0.87338491 1.97696993
v -3.98892719 0.41634625 1.97696993
v -4.25791650 0.85982249 1.84631073
v -4.25791650 0.70227495 1.97207209
v -4.20567741 0.78505911 1.97696993
v -3.98892719 0.40375612 1.95055176
v -4.21181232 0.40764494 1.97696993
v -4.10446410 0.86905854 1.97696993
v -4.09614374 0.87071131 1.97696993
v -4.09021948 0.87178076 1.97696993
v -3.98892719 0.41313795 1.97112266
v -4.25791650 0.85501002 1.86368675
v -4.25791650 0.72001790 1.96483837
v -4.20388690 0.78812159 1.97696993
v -4.25791650 0.73032337 1.96004602
v -3.98892719 0.41216575 1.96931424
v -4.10951951 0.86745439 1.97696993
v -4.25791650 0.85248229 1.87036288
v -4.11254745 0.86633634 1.97696993
v -4.19238066 0.80761451 1.97696993
v -4.25791650 0.80017708 1.92544470
v -4.25791650 0.85112115 1.87390439
v -4.11765552 0.86439190 1.97696993
v -4.18653532 0.81660751 1.97696993
v -4.25791650 0.80319094 1.92374176
v -4.25791650 0.84810729 1.87957081
v -4.15083158 0.85044063 1.97696993
v -4.13492813 0.85729474 1.97696993
v -4.12434341 0.86166971 1.97696993
v -4.18377069 0.81962137 1.97696993
v -4.25791650 0.82088526 1.91183625
v -4.25791650 0.80882977 1.92051672
v -4.25791650 0.84650314 1.88258486
v -4.15122652 0.85019757 1.97696993
v -4.16989460 0.83439906 1.97696993
v -4.25791650 0.82389912 1.90909345
v -4.25791650 0.84086430 1.89087351
v -4.25791650 0.83780182 1.89528910
v -4.16520783 0.83853096 1.97696993
v -4.25791650 0.82953798 1.90395449
f 1 2 3
f 1 3 9
f 1 9 15
f 1 15 25
f 1 25 24
f 1 24 30
f 1 30 41
f 1 41 61
f 1 61 69
f 1 69 78
f 1 78 80
f 1 80 86
f 1 86 90
f 1 90 97
f 1 97 96
f 1 96 101
f 1 101 105
f 1 105 103
f 1 103 102
f 1 102 98
f 1 98 91
f 1 91 87
f 1 87 83
f 1 83 77
f 1 77 68
f 1 68 58
f 1 58 40
f 1 40 29
f 1 29 18
f 1 18 10
f 1 10 4
f 1 4 2
f 2 5 6
f 2 6 7
f 2 7 3
f 2 4 8
f 2 8 5
f 3 7 9
f 4 10 8
f 5 8 11
f 5 11 16
f 5 16 17
f 5 17 28
f 5 28 39
f 5 39 57
f 5 57 67
f 5 67 76
f 5 76 81
f 5 81 71
f 5 71 62
f 5 62 42
f 5 42 31
f 5 31 26
f 5 26 23
f 5 23 13
f 5 13 12
f 5 12 6
f 6 12 7
f 7 12 13
f 7 13 14
f 7 14 15
f 7 15 9
f 8 16 11
f 8 10 22
f 8 22 17
f 8 17 16
f 10 18 19
f 10 19 20
f 10 20 21
f 10 21 22
f 13 23 14
f 14 24 25
f 14 25 15
f 14 23 26
f 14 26 27
f 14 27 24
f 17 22 21
f 17 21 20
f 17 20 19
f 17 19 29
f 17 29 40
f 17 40 44
f 17 44 33
f 17 33 28
f 18 29 19
f 24 27 30
f 26 31 27
f 27 31 32
f 27 32 30
f 28 33 34
f 28 34 35
f 28 35 36
f 28 36 37
f 28 37 38
f 28 38 39
f 30 32 41
f 31 42 43
f 31 43 32
f 32 43 63
f 32 63 72
f 32 72 67
f 32 67 57
f 32 57 56
f 32 56 55
f 32 55 54
f 32 54 53
f 32 53 52
f 32 52 51
f 32 51 50
f 32 50 49
f 32 49 48
f 32 48 66
f 32 66 75
f 32 75 74
f 32 74 73
f 32 73 82
f 32 82 84
f 32 84 88
f 32 88 94
f 32 94 93
f 32 93 92
f 32 92 99
f 32 99 104
f 32 104 100
f 32 100 95
f 32 95 89
f 32 89 85
f 32 85 79
f 32 79 70
f 32 70 61
f 32 61 41
f 33 44 34
f 34 44 40
f 34 40 35
f 35 40 45
f 35 45 46
f 35 46 37
f 35 37 36
f 37 46 38
f 38 46 47
f 38 47 48
f 38 48 49
f 38 49 50
f 38 50 39
f 39 50 51
f 39 51 52
f 39 52 53
f 39 53 54
f 39 54 55
f 39 55 56
f 39 56 57
f 40 58 59
f 40 59 60
f 40 60 45
f 42 62 63
f 42 63 43
f 45 60 59
f 45 59 64
f 45 64 46
f 46 64 65
f 46 65 47
f 47 65 66
f 47 66 48
f 58 68 59
f 59 65 64
f 59 68 65
f 61 70 69
f 62 71 63
f 63 71 72
f 65 68 73
f 65 73 74
f 65 74 75
f 65 75 66
f 67 72 76
f 68 77 73
f 69 70 78
f 70 79 80
f 70 80 78
f 71 81 72
f 72 81 76
f 73 77 82
f 77 83 84
f 77 84 82
f 79 85 86
f 79 86 80
f 83 87 84
f 84 87 88
f 85 89 86
f 86 89 90
f 87 91 92
f 87 92 93
f 87 93 94
f 87 94 88
f 89 95 96
f 89 96 97
f 89 97 90
f 91 98 92
f 92 98 99
f 95 100 96
f 96 100 101
f 98 102 99
f 99 102 103
f 99 103 104
f 100 104 105
f 100 105 101
f 103 105 104

