# https://github.com/mikedh/trimesh
v -3.69385175 0.22814533 2.50757441
v -3.69385175 0.22744203 2.50757441
v -3.69385175 0.22814533 2.47716386
v -3.69393696 0.23302702 2.18069432
v -3.71267435 0.22814533 2.50757441
v -3.69394915 0.21617192 2.50757441
v -3.69394915 0.21617192 2.50651200
v -3.69403436 0.21617192 2.26329411
v -3.69390043 0.22814533 2.35014343
v -3.69405872 0.23302702 1.86370764
v -3.71134726 0.23302702 2.18069432
v -3.79581761 0.21649608 2.50757441
v -3.69668852 0.20413999 2.50757441
v -3.69668852 0.20413999 2.50651200
v -3.69668852 0.20414693 2.47171916
v -3.69673722 0.20419861 2.17637842
v -3.69676158 0.20422274 2.03747264
v -3.69679809 0.20425723 1.84637762
v -3.69425353 0.21595475 1.82924679
v -3.69416829 0.21617544 1.93322692
v -3.69420480 0.21617544 1.84637762
v -3.69407089 0.23302702 1.84637762
v -3.71135943 0.23302702 2.17637842
v -3.81821968 0.21235902 2.50757441
v -3.70796259 0.19926515 2.50757441
v -3.70796259 0.19926515 2.48911558
v -3.70796259 0.19933412 2.17637842
v -3.70796259 0.19936167 2.05480267
v -3.70796259 0.19941345 1.82924679
v -3.69681026 0.20426065 1.82924679
v -3.69408306 0.23302702 1.82924679
v -3.71179773 0.23302702 1.82924679
v -3.81821968 0.20230246 2.50757441
v -3.79480709 0.21659260 1.84637762
v -3.79507496 0.21651327 1.82924679
v -3.81274091 0.21241753 1.82924679
v -3.72533636 0.19780687 2.50757441
v -3.72533636 0.19784477 1.86370764
v -3.72533636 0.19784819 1.82924679
v -3.79480709 0.19788268 2.28069053
v -3.79480709 0.19787926 2.50757441
v -3.81274091 0.20238179 1.82924679
v -3.79480709 0.19788961 1.82924679
f 1 2 3
f 1 3 4
f 1 4 11
f 1 11 5
f 1 5 12
f 1 12 24
f 1 24 33
f 1 33 41
f 1 41 37
f 1 37 25
f 1 25 13
f 1 13 6
f 1 6 2
f 2 6 7
f 2 7 3
f 3 7 8
f 3 8 9
f 3 9 4
f 4 10 22
f 4 22 31
f 4 31 32
f 4 32 23
f 4 23 11
f 4 9 10
f 5 11 12
f 6 13 14
f 6 14 7
f 7 14 15
f 7 15 16
f 7 16 17
f 7 17 18
f 7 18 8
f 8 18 19
f 8 19 20
f 8 20 9
f 9 20 10
f 10 20 21
f 10 21 22
f 11 23 24
f 11 24 12
f 13 25 26
f 13 26 14
f 14 26 15
f 15 26 27
f 15 27 28
f 15 28 29
f 15 29 16
f 16 29 17
f 17 29 18
f 18 29 30
f 18 30 19
f 19 30 29
f 19 29 39
f 19 39 43
f 19 43 42
f 19 42 36
f 19 36 35
f 19 35 32
f 19 32 31
f 19 31 21
f 19 21 20
f 21 31 22
f 23 32 24
f 24 32 34
f 24 34 35
f 24 35 36
f 24 36 42
f 24 42 33
f 25 37 26
f 26 37 38
f 26 38 39
f 26 39 27
f 27 39 28
f 28 39 29
f 32 35 34
f 33 40 41
f 33 42 43
f 33 43 40
f 37 41 40
f 37 40 43
f 37 43 38
f 38 43 39

