# https://github.com/mikedh/trimesh
v -3.51771323 0.56493996 2.83311855
v -3.51829003 0.58105908 2.83311855
v -3.53529490 0.56493996 2.83311855
v -3.51771323 0.56493996 2.66295439
v -3.52024474 0.59843505 2.83311855
v -3.51829003 0.58105908 2.66295439
v -3.62683488 0.61806374 2.83311855
v -3.62683488 0.61333171 2.62036651
v -3.53915089 0.56493996 2.62036651
v -3.51802299 0.56493996 2.64556522
v -3.51858910 0.58105908 2.64556522
v -3.52091767 0.60070149 2.83311855
v -3.52024474 0.59843505 2.66295439
v -3.52052245 0.59843505 2.64556522
v -3.62683488 0.63463616 2.83311855
v -3.62683488 0.63493835 2.62036651
v -3.52067199 0.56493996 2.62036651
v -3.51809776 0.56493996 2.64431567
v -3.51965725 0.58105908 2.62819686
v -3.52152650 0.59843505 2.62819686
v -3.52354529 0.60951999 2.83311855
v -3.52354529 0.60951999 2.66295439
v -3.52367348 0.60936889 2.64556522
v -3.52414348 0.60882632 2.62819686
v -3.62106690 0.63472543 2.83311855
v -3.62106690 0.63509629 2.62036651
v -3.52124879 0.58057834 2.62036651
v -3.51937955 0.56493996 2.62675991
v -3.51909115 0.56493996 2.62819686
v -3.52203922 0.59084596 2.62036651
v -3.52285100 0.59843505 2.62036651
v -3.52390846 0.60530992 2.62036651
v -3.52463481 0.60822192 2.62036651
v -3.53316928 0.61820795 2.83311855
v -3.53316928 0.61820795 2.66295439
v -3.53332950 0.61805685 2.64556522
v -3.53383152 0.61751428 2.62819686
v -3.52734789 0.61066007 2.62036651
v -3.54196011 0.62378475 2.62036651
v -3.61749929 0.63471171 2.83311855
v -3.60368819 0.63496580 2.62036651
v -3.60368819 0.63464988 2.83311855
v -3.54186397 0.62531630 2.83311855
v -3.54201352 0.62519270 2.64556522
v -3.54186397 0.62531630 2.66295439
v -3.54252624 0.62478751 2.62819686
v -3.54284666 0.62452653 2.62036651
v -3.56895212 0.63388066 2.68032280
v -3.56895212 0.63387382 2.66295439
v -3.56895212 0.63383260 2.64556522
v -3.58632017 0.63437518 2.62819686
v -3.56895212 0.63369523 2.62819686
v -3.58632017 0.63418974 2.62036651
v -3.60012060 0.63458122 2.83311855
v -3.58632017 0.63431335 2.83311855
v -3.56895212 0.63388066 2.83311855
v -3.54958667 0.62892886 2.83311855
v -3.55157341 0.62916240 2.62819686
v -3.55157341 0.62969808 2.64556522
v -3.55157341 0.62985607 2.66295439
v -3.54376527 0.62496605 2.62036651
v -3.56538453 0.63305655 2.83311855
v -3.56895212 0.63325570 2.62036651
v -3.55157341 0.62985607 2.83311855
v -3.55139183 0.62832447 2.62036651
f 1 2 5
f 1 5 12
f 1 12 21
f 1 21 34
f 1 34 43
f 1 43 57
f 1 57 64
f 1 64 62
f 1 62 56
f 1 56 55
f 1 55 54
f 1 54 42
f 1 42 40
f 1 40 25
f 1 25 15
f 1 15 7
f 1 7 3
f 1 3 9
f 1 9 17
f 1 17 28
f 1 28 29
f 1 29 18
f 1 18 10
f 1 10 4
f 1 4 6
f 1 6 2
f 2 6 13
f 2 13 5
f 3 7 8
f 3 8 9
f 4 10 11
f 4 11 6
f 5 13 12
f 6 11 14
f 6 14 13
f 7 15 16
f 7 16 8
f 8 16 26
f 8 26 41
f 8 41 53
f 8 53 63
f 8 63 65
f 8 65 61
f 8 61 47
f 8 47 39
f 8 39 38
f 8 38 33
f 8 33 32
f 8 32 31
f 8 31 30
f 8 30 27
f 8 27 17
f 8 17 9
f 10 18 11
f 11 18 19
f 11 19 20
f 11 20 14
f 12 13 22
f 12 22 21
f 13 14 23
f 13 23 22
f 14 20 24
f 14 24 23
f 15 25 26
f 15 26 16
f 17 27 19
f 17 19 28
f 18 29 19
f 19 29 28
f 19 27 30
f 19 30 31
f 19 31 20
f 20 31 32
f 20 32 33
f 20 33 24
f 21 22 35
f 21 35 34
f 22 23 35
f 23 24 36
f 23 36 35
f 24 37 36
f 24 33 38
f 24 38 39
f 24 39 37
f 25 40 26
f 26 40 42
f 26 42 41
f 34 35 45
f 34 45 43
f 35 36 44
f 35 44 45
f 36 37 46
f 36 46 44
f 37 39 47
f 37 47 46
f 41 48 49
f 41 49 50
f 41 50 51
f 41 51 52
f 41 52 53
f 41 42 54
f 41 54 55
f 41 55 56
f 41 56 48
f 43 45 57
f 44 46 58
f 44 58 59
f 44 59 45
f 45 59 60
f 45 60 57
f 46 47 58
f 47 61 58
f 48 60 49
f 48 56 62
f 48 62 60
f 49 60 50
f 50 52 51
f 50 60 52
f 52 60 59
f 52 59 58
f 52 58 63
f 52 63 53
f 57 60 64
f 58 61 65
f 58 65 63
f 60 62 64

