# https://github.com/mikedh/trimesh
v -2.56245379 -0.00263538 1.97541127
v -2.50906691 -0.00451217 1.98944860
v -2.56245379 -0.00263538 1.98358954
v -2.56245379 0.00772150 1.97417029
v -2.56118094 0.00772150 1.97411604
v -2.56118094 -0.00263538 1.97538415
v -2.46823351 -0.00374756 2.02498949
v -2.50906691 -0.00451217 1.99883394
v -2.54381269 -0.00200986 1.97586562
v -2.53426613 -0.00131474 1.97640134
v -2.49560948 -0.00340000 1.99150334
v -2.47432114 -0.00346949 2.00706646
v -2.46823351 -0.00340000 2.01211176
v -2.46823351 -0.00242691 2.02857002
v -2.56245379 0.00153513 1.99213400
v -2.56245379 0.02509866 1.97414316
v -2.56118094 0.02509866 1.97408213
v -2.54381269 0.00772150 1.97507899
v -2.53377726 0.00772150 1.97627928
v -2.50906691 0.00772150 1.98451180
v -2.49319287 0.00772150 1.99022845
v -2.46823351 -0.00270488 2.00891776
v -2.48450414 0.00772150 1.99555179
v -2.46823351 0.00174360 2.00705290
v -2.46823351 0.00362038 2.03122152
v -2.46823351 0.00772150 2.03265916
v -2.56245379 0.01008472 1.99485331
v -2.56245379 0.70267326 1.97414316
v -2.54381269 0.02509866 1.97505186
v -2.56118094 0.70267326 1.97408213
v -2.53372191 0.02509866 1.97626572
v -2.50906691 0.02509866 1.98411170
v -2.49314674 0.02509866 1.99019454
v -2.48446722 0.02509866 1.99520594
v -2.46823351 0.00772150 2.00638155
v -2.46823351 0.02509866 2.03452402
v -2.56245379 0.02509866 1.99572810
v -2.56245379 0.70392441 1.97417029
v -2.54381269 0.70267326 1.97505186
v -2.56118094 0.70545363 1.97414994
v -2.54665359 0.70545363 1.97495692
v -2.50906691 0.04247603 1.98409814
v -2.53372191 0.70267326 1.97626572
v -2.50906691 0.70267326 1.98386079
v -2.48446722 0.04247603 1.99519238
v -2.49314674 0.70267326 1.99019454
v -2.48446722 0.70267326 1.99511778
v -2.47432114 0.02509866 2.00204151
v -2.46823351 0.01543700 2.00621880
v -2.46823351 0.70545363 2.04335330
v -2.56245379 0.70531460 2.00377752
v -2.56245379 0.70545363 1.97421098
v -2.54360975 0.70545363 1.97514680
v -2.53382340 0.70545363 1.97628606
v -2.50906691 0.70545363 1.98387436
v -2.47432114 0.04247603 2.00202795
v -2.49575706 0.70545363 1.98917734
v -2.49324823 0.70545363 1.99024879
v -2.48455949 0.70545363 1.99511778
v -2.47432114 0.70545363 2.00200760
v -2.47432114 0.70267326 2.00196013
v -2.46823351 0.03281416 2.00619167
v -2.46823351 0.02509866 2.00619846
v -2.46823351 0.70545363 2.00620524
v -2.56118094 0.70545363 2.00389959
v -2.56245379 0.70545363 1.99063533
v -2.46823351 0.70267326 2.00616455
v -2.46823351 0.69301149 2.00616455
f 1 2 8
f 1 8 3
f 1 3 15
f 1 15 27
f 1 27 37
f 1 37 51
f 1 51 66
f 1 66 52
f 1 52 38
f 1 38 28
f 1 28 16
f 1 16 4
f 1 4 5
f 1 5 6
f 1 6 2
f 2 7 8
f 2 6 9
f 2 9 10
f 2 10 11
f 2 11 12
f 2 12 13
f 2 13 7
f 3 8 7
f 3 7 14
f 3 14 15
f 4 16 17
f 4 17 5
f 5 9 6
f 5 17 18
f 5 18 9
f 7 13 22
f 7 22 24
f 7 24 35
f 7 35 49
f 7 49 63
f 7 63 62
f 7 62 68
f 7 68 67
f 7 67 64
f 7 64 50
f 7 50 36
f 7 36 26
f 7 26 25
f 7 25 14
f 9 18 10
f 10 18 19
f 10 19 20
f 10 20 21
f 10 21 11
f 11 22 12
f 11 21 23
f 11 23 24
f 11 24 22
f 12 22 13
f 14 25 15
f 15 25 26
f 15 26 27
f 16 28 30
f 16 30 17
f 17 29 18
f 17 30 39
f 17 39 29
f 18 29 19
f 19 29 31
f 19 31 32
f 19 32 20
f 20 32 21
f 21 32 33
f 21 33 34
f 21 34 23
f 23 35 24
f 23 34 35
f 26 36 27
f 27 36 37
f 28 38 30
f 29 39 43
f 29 43 31
f 30 38 40
f 30 40 41
f 30 41 39
f 31 42 32
f 31 43 44
f 31 44 42
f 32 42 33
f 33 45 34
f 33 42 44
f 33 44 46
f 33 46 47
f 33 47 45
f 34 48 49
f 34 49 35
f 34 45 56
f 34 56 48
f 36 50 37
f 37 50 51
f 38 52 40
f 39 41 53
f 39 53 54
f 39 54 43
f 40 52 66
f 40 66 65
f 40 65 50
f 40 50 64
f 40 64 60
f 40 60 59
f 40 59 58
f 40 58 57
f 40 57 55
f 40 55 54
f 40 54 53
f 40 53 41
f 43 54 55
f 43 55 44
f 44 55 46
f 45 47 56
f 46 55 57
f 46 57 58
f 46 58 59
f 46 59 47
f 47 59 60
f 47 60 61
f 47 61 56
f 48 56 62
f 48 62 63
f 48 63 49
f 50 65 51
f 51 65 66
f 56 61 62
f 60 64 61
f 61 64 67
f 61 67 68
f 61 68 62

