# https://github.com/mikedh/trimesh
v -2.65898950 0.42470229 1.86132614
v -2.64805043 0.42470229 1.86070049
v -2.61331211 0.52889079 1.85236755
v -2.61331211 0.54626479 1.85115622
v -2.63068129 0.54626479 1.84717610
v -2.65898950 0.43063214 1.86018136
v -2.68094676 0.45701183 1.80291565
v -2.68094676 0.44046914 1.80291565
v -2.65898950 0.40732829 1.86120633
v -2.64805043 0.40732829 1.86058070
v -2.63068129 0.40732829 1.85904988
v -2.63068129 0.42470229 1.85915637
v -2.59595426 0.51151684 1.84717610
v -2.59595426 0.52889079 1.84660372
v -2.61747076 0.42470229 1.85654733
v -2.60040673 0.56366649 1.84241062
v -2.61331211 0.56366649 1.84794817
v -2.63241029 0.56538451 1.84279665
v -2.65898950 0.44127269 1.85793172
v -2.68094676 0.45756600 1.74021889
v -2.65898950 0.44448700 1.85658728
v -2.65898950 0.44994584 1.85429771
v -2.63937153 0.57233964 1.83760520
v -2.64129264 0.57718880 1.82602426
v -2.64333807 0.58220429 1.81268623
v -2.64571118 0.58159466 1.80291565
v -2.64782445 0.58104049 1.79417004
v -2.64654746 0.59841444 1.77681196
v -2.64798264 0.61578844 1.74205585
v -2.65035581 0.61578844 1.72535005
v -2.68094676 0.35980617 1.75990645
v -2.65898950 0.39419388 1.85782523
v -2.57857379 0.34863911 1.84504627
v -2.61762901 0.40732829 1.85649410
v -2.58399815 0.52889079 1.83961521
v -2.58553503 0.53919879 1.83867011
v -2.59573958 0.54548894 1.84334242
v -2.58222394 0.49417054 1.84062689
v -2.58294718 0.51151684 1.84024085
v -2.60223747 0.57569252 1.84017430
v -2.61331211 0.57790930 1.84177167
v -2.62777701 0.57641296 1.84060026
v -2.68094676 0.45767687 1.72535005
v -2.63317873 0.58261994 1.83086962
v -2.63858046 0.58877147 1.81924875
v -2.64114573 0.59256770 1.80766783
v -2.64263741 0.59835904 1.79353110
v -2.64188026 0.61091153 1.77681196
v -2.64368838 0.61645348 1.75969348
v -2.64267133 0.62925540 1.74205585
v -2.64346235 0.63169381 1.73364304
v -2.64504444 0.63169381 1.72535005
v -2.68094676 0.35947363 1.75938732
v -2.65898950 0.38649060 1.84629756
v -2.60528861 0.34863911 1.83837726
v -2.59595426 0.34863911 1.84406123
v -2.57234713 0.34863911 1.84162524
v -2.56977056 0.40078881 1.83773831
v -2.57018870 0.41234378 1.83688639
v -2.57425694 0.51151684 1.82967159
v -2.57466379 0.52758842 1.82727554
v -2.56839187 0.34863911 1.83936231
v -2.56902470 0.37258034 1.83861686
v -2.60010163 0.58131758 1.82895277
v -2.60275726 0.59170869 1.82317563
v -2.61331211 0.58661015 1.83403774
v -2.62699727 0.59245689 1.82412074
v -2.68094676 0.44049684 1.72535005
v -2.63094119 0.59830363 1.81155476
v -2.63363079 0.60229383 1.80291565
v -2.63488515 0.60412267 1.79888229
v -2.64033208 0.60819598 1.78732797
v -2.64097620 0.62629042 1.75407608
v -2.64150732 0.63169381 1.73977960
v -2.59731033 0.63169381 1.72535005
v -2.68094676 0.35925190 1.75868181
v -2.68094676 0.35581597 1.74391946
v -2.60941340 0.34863911 1.82892616
v -2.56552150 0.34863911 1.82892616
v -2.56983840 0.52093813 1.82039353
v -2.60081358 0.59553268 1.81155476
v -2.60215835 0.60999711 1.79122823
v -2.60487053 0.60705989 1.80279586
v -2.60497223 0.60700448 1.80291565
v -2.61331211 0.59328814 1.82534538
v -2.62330191 0.60769722 1.80386075
v -2.62548297 0.60705989 1.80291565
v -2.63983482 0.39552394 1.72535005
v -2.68094676 0.37258034 1.72568282
v -2.62974332 0.61049587 1.79353110
v -2.63662544 0.62266046 1.76565701
v -2.63077170 0.62897826 1.75969348
v -2.63637683 0.63169381 1.74844534
v -2.59733295 0.63169381 1.72612211
v -2.56983840 0.52093813 1.82010068
v -2.59720863 0.63113964 1.72535005
v -2.68094676 0.35634238 1.74218898
v -2.57963609 0.34863911 1.80649642
v -2.59595426 0.34863911 1.80543150
v -2.60745838 0.34863911 1.81127521
v -2.61140229 0.34863911 1.81436347
v -2.56633515 0.34863911 1.82077956
v -2.56935243 0.49417054 1.81896922
v -2.56965758 0.51151684 1.81966141
v -2.59727646 0.61578844 1.75944057
v -2.60084744 0.61578844 1.77556070
v -2.60229397 0.62712173 1.75944057
v -2.60411337 0.62487724 1.76893162
v -2.61332345 0.62579166 1.77054229
v -2.61588867 0.60816828 1.80291565
v -2.61644242 0.60769722 1.80386075
v -2.61171873 0.60295887 1.81040996
v -2.62505354 0.62579166 1.77054229
v -2.62387825 0.60797430 1.80291565
v -2.63073779 0.38928925 1.72535005
v -2.61332345 0.38615806 1.72535005
v -2.68094676 0.37069610 1.72577600
v -2.63089598 0.63169381 1.75426244
v -2.60054234 0.63169381 1.74242858
v -2.59456428 0.61512341 1.72535005
v -2.59459820 0.61578844 1.72535005
v -2.68094676 0.36033259 1.73036843
v -2.56701318 0.34863911 1.81572123
v -2.56711488 0.35520629 1.81582772
v -2.56739740 0.37258034 1.81609395
v -2.56823368 0.42470229 1.81707900
v -2.56878743 0.45945024 1.81791761
v -2.60122037 0.63169381 1.74549021
v -2.61332345 0.63169381 1.75877500
v -2.61332345 0.63138902 1.75944057
v -2.68094676 0.36091451 1.72952982
v -2.60022595 0.39264218 1.72535005
v -2.56767992 0.38995429 1.81640011
v -2.59425918 0.59841444 1.72535005
v -2.59558133 0.40677412 1.72535005
v -2.59540051 0.40735599 1.72535005
v -2.59412357 0.49417054 1.72535005
v -2.59412357 0.58037546 1.72535005
f 1 2 3
f 1 3 4
f 1 4 5
f 1 5 6
f 1 6 7
f 1 7 8
f 1 8 9
f 1 9 10
f 1 10 2
f 2 10 11
f 2 11 12
f 2 12 3
f 3 13 14
f 3 14 4
f 3 12 15
f 3 15 13
f 4 16 17
f 4 17 5
f 4 14 16
f 5 17 18
f 5 18 6
f 6 19 7
f 6 18 19
f 7 20 43
f 7 43 68
f 7 68 89
f 7 89 117
f 7 117 131
f 7 131 122
f 7 122 97
f 7 97 77
f 7 77 76
f 7 76 53
f 7 53 31
f 7 31 8
f 7 19 21
f 7 21 22
f 7 22 23
f 7 23 24
f 7 24 25
f 7 25 26
f 7 26 27
f 7 27 28
f 7 28 29
f 7 29 30
f 7 30 20
f 8 31 32
f 8 32 9
f 9 32 33
f 9 33 10
f 10 33 11
f 11 34 12
f 11 33 34
f 12 34 15
f 13 15 33
f 13 33 14
f 14 35 36
f 14 36 37
f 14 37 16
f 14 33 38
f 14 38 39
f 14 39 35
f 15 34 33
f 16 37 36
f 16 36 40
f 16 40 17
f 17 40 41
f 17 41 42
f 17 42 18
f 18 42 23
f 18 23 19
f 19 23 21
f 20 30 43
f 21 23 22
f 23 42 44
f 23 44 45
f 23 45 46
f 23 46 24
f 24 46 25
f 25 46 47
f 25 47 28
f 25 28 26
f 26 28 27
f 28 48 29
f 28 47 48
f 29 48 49
f 29 49 50
f 29 50 51
f 29 51 52
f 29 52 30
f 30 52 75
f 30 75 96
f 30 96 121
f 30 121 120
f 30 120 134
f 30 134 138
f 30 138 137
f 30 137 136
f 30 136 135
f 30 135 132
f 30 132 116
f 30 116 115
f 30 115 88
f 30 88 68
f 30 68 43
f 31 53 54
f 31 54 32
f 32 54 55
f 32 55 56
f 32 56 33
f 33 56 55
f 33 55 78
f 33 78 101
f 33 101 100
f 33 100 99
f 33 99 98
f 33 98 123
f 33 123 102
f 33 102 79
f 33 79 62
f 33 62 57
f 33 57 38
f 35 39 58
f 35 58 59
f 35 59 60
f 35 60 61
f 35 61 36
f 36 61 40
f 38 57 62
f 38 62 39
f 39 62 63
f 39 63 58
f 40 64 65
f 40 65 66
f 40 66 41
f 40 61 64
f 41 66 42
f 42 66 67
f 42 67 44
f 44 67 45
f 45 67 69
f 45 69 70
f 45 70 71
f 45 71 72
f 45 72 46
f 46 72 47
f 47 72 48
f 48 72 73
f 48 73 50
f 48 50 49
f 50 74 51
f 50 73 74
f 51 74 93
f 51 93 118
f 51 118 129
f 51 129 128
f 51 128 119
f 51 119 94
f 51 94 75
f 51 75 52
f 53 76 55
f 53 55 54
f 55 77 78
f 55 76 77
f 58 63 79
f 58 79 80
f 58 80 59
f 59 80 60
f 60 80 61
f 61 80 81
f 61 81 65
f 61 65 64
f 62 79 63
f 65 81 82
f 65 82 83
f 65 83 84
f 65 84 85
f 65 85 66
f 66 85 67
f 67 85 86
f 67 86 87
f 67 87 69
f 68 88 89
f 69 87 70
f 70 87 71
f 71 87 90
f 71 90 72
f 72 90 91
f 72 91 73
f 73 91 92
f 73 92 93
f 73 93 74
f 75 94 80
f 75 80 95
f 75 95 96
f 77 97 98
f 77 98 99
f 77 99 100
f 77 100 101
f 77 101 78
f 79 102 103
f 79 103 104
f 79 104 95
f 79 95 80
f 80 94 105
f 80 105 106
f 80 106 82
f 80 82 81
f 82 106 107
f 82 107 108
f 82 108 83
f 83 108 109
f 83 109 110
f 83 110 84
f 84 110 111
f 84 111 112
f 84 112 85
f 85 112 111
f 85 111 86
f 86 111 109
f 86 109 113
f 86 113 114
f 86 114 87
f 87 114 90
f 88 115 89
f 89 115 116
f 89 116 117
f 90 114 113
f 90 113 91
f 91 113 92
f 92 113 118
f 92 118 93
f 94 119 105
f 95 120 121
f 95 121 96
f 95 104 120
f 97 122 98
f 98 122 116
f 98 116 123
f 102 123 124
f 102 124 125
f 102 125 126
f 102 126 127
f 102 127 103
f 103 127 120
f 103 120 104
f 105 119 128
f 105 128 106
f 106 128 107
f 107 128 108
f 108 128 129
f 108 129 130
f 108 130 109
f 109 130 113
f 109 111 110
f 113 130 129
f 113 129 118
f 116 122 131
f 116 131 117
f 116 132 123
f 120 127 126
f 120 126 133
f 120 133 125
f 120 125 124
f 120 124 123
f 120 123 134
f 123 132 135
f 123 135 136
f 123 136 137
f 123 137 138
f 123 138 134
f 125 133 126

