# https://github.com/mikedh/trimesh
v -2.64168167 0.39256083 2.58136365
v -3.16303623 0.42839874 2.58138669
v -2.64168167 0.40032588 2.58136365
v -2.63072381 0.38546838 2.58136365
v -2.68485262 0.38644664 2.78452419
v -3.16303623 0.42839874 2.58180151
v -3.16221026 0.46347680 2.58168625
v -3.16138429 0.46103109 2.58138669
v -2.63072381 0.40799483 2.58136365
v -2.61332324 0.38876129 2.58136365
v -2.63072381 0.38548583 2.59346201
v -2.64806922 0.38586140 2.71504491
v -2.64806922 0.38661260 2.73239747
v -2.66546974 0.38798389 2.76714858
v -2.68485262 0.39378366 2.80418115
v -3.07895212 0.42839874 2.81676346
v -3.10885236 0.42839874 2.77638947
v -3.12818016 0.42839874 2.74502587
v -3.14365338 0.42839874 2.70757848
v -3.14558065 0.42839874 2.70131039
v -3.14949026 0.42839874 2.68508704
v -3.15042637 0.42839874 2.68068553
v -3.16055832 0.42839874 2.61947928
v -3.16099882 0.42839874 2.61496256
v -3.16210012 0.42839874 2.59853181
v -3.16160454 0.46347680 2.59348505
v -3.15224352 0.46347680 2.58138669
v -2.93011169 0.47437755 2.81676346
v -2.66299182 0.47467452 2.58138669
v -2.61982093 0.41557641 2.58136365
v -2.60313625 0.39585374 2.58136365
v -2.61332324 0.38932902 2.59346201
v -2.63072381 0.38627193 2.68033989
v -2.64746353 0.39148646 2.74995737
v -2.63072381 0.38841191 2.69771544
v -2.63518404 0.39338188 2.73239747
v -2.65341052 0.39483183 2.76714858
v -2.65627390 0.39774917 2.77650468
v -2.68485262 0.39833435 2.81236195
v -3.07873186 0.46347680 2.81676346
v -2.68485262 0.40602080 2.81678650
v -2.68485262 0.41557641 2.81678650
v -3.11072458 0.46347680 2.77166536
v -3.12790481 0.46347680 2.74456496
v -3.14491989 0.46347680 2.69836069
v -3.14084507 0.46347680 2.71089692
v -3.14508507 0.46347680 2.69773848
v -3.15125234 0.46347680 2.66704319
v -3.15890637 0.46347680 2.62542477
v -3.14849910 0.46347680 2.68151513
v -3.16055832 0.46347680 2.61086066
v -2.83303222 0.47468322 2.81676346
v -2.74828735 0.47468322 2.77980003
v -2.60049315 0.47467452 2.58138669
v -2.60093366 0.41557641 2.58136365
v -2.60346667 0.39640403 2.59346201
v -2.60153935 0.40399437 2.58136365
v -2.61332324 0.39056060 2.61083756
v -2.61646195 0.39230751 2.66296428
v -2.61789366 0.39293641 2.68033989
v -2.63749677 0.39574019 2.74426541
v -2.61998612 0.39535591 2.69771544
v -2.62152797 0.39765306 2.70778592
v -2.63639547 0.40730478 2.74615503
v -2.65583334 0.40730478 2.77710385
v -2.68463234 0.40730478 2.81678650
v -2.68446715 0.41557641 2.81678650
v -2.74828735 0.47468322 2.81676346
v -2.60131912 0.47467452 2.59650388
v -2.60164954 0.40730478 2.59346201
v -2.60098870 0.40730478 2.58136365
v -2.60407236 0.39751335 2.61083756
v -2.60451287 0.39832565 2.62083892
v -2.61343343 0.40730478 2.68033989
v -2.62103237 0.40730478 2.70909942
v -2.61745315 0.40730478 2.69771544
v -2.63066871 0.47467452 2.73426405
v -2.63634038 0.41557641 2.74620111
v -2.65010663 0.47467452 2.76908434
v -2.65577835 0.41557641 2.77714993
v -2.68331076 0.47467452 2.81674042
v -2.65566816 0.47467452 2.77754166
v -2.64261779 0.47467452 2.75712424
v -2.63612015 0.47467452 2.74668507
v -2.62125260 0.47467452 2.70866160
v -2.61827907 0.47467452 2.69974337
v -2.61370871 0.47467452 2.68239086
v -2.61326820 0.47467452 2.68033989
v -2.60363185 0.47467452 2.62616219
v -2.60231028 0.47467452 2.61348771
v -2.60214509 0.47467452 2.61083756
v -2.60291602 0.40730478 2.61083756
v -2.60412741 0.40730478 2.62408818
v -2.61734301 0.42469530 2.69771544
v -2.61739806 0.41557641 2.69771544
v -2.62103237 0.41557641 2.70916860
v -2.62103237 0.42469530 2.70923773
f 1 2 3
f 1 3 9
f 1 9 30
f 1 30 55
f 1 55 71
f 1 71 57
f 1 57 31
f 1 31 10
f 1 10 4
f 1 4 2
f 2 5 6
f 2 6 7
f 2 7 8
f 2 8 3
f 2 4 5
f 3 8 9
f 4 10 11
f 4 11 12
f 4 12 5
f 5 12 13
f 5 13 14
f 5 14 15
f 5 15 16
f 5 16 17
f 5 17 18
f 5 18 19
f 5 19 20
f 5 20 21
f 5 21 22
f 5 22 23
f 5 23 24
f 5 24 25
f 5 25 6
f 6 25 26
f 6 26 7
f 7 27 8
f 7 26 28
f 7 28 29
f 7 29 27
f 8 27 30
f 8 30 9
f 10 31 32
f 10 32 33
f 10 33 11
f 11 33 12
f 12 33 13
f 13 34 14
f 13 33 35
f 13 35 36
f 13 36 34
f 14 34 37
f 14 37 15
f 15 37 38
f 15 38 39
f 15 39 16
f 16 40 17
f 16 39 41
f 16 41 42
f 16 42 40
f 17 40 43
f 17 43 44
f 17 44 18
f 18 44 19
f 19 45 20
f 19 44 46
f 19 46 45
f 20 45 47
f 20 47 21
f 21 47 22
f 22 48 49
f 22 49 23
f 22 47 50
f 22 50 48
f 23 49 51
f 23 51 24
f 24 51 25
f 25 51 26
f 26 51 28
f 27 29 30
f 28 51 49
f 28 49 48
f 28 48 50
f 28 50 47
f 28 47 45
f 28 45 46
f 28 46 44
f 28 44 43
f 28 43 40
f 28 40 42
f 28 42 52
f 28 52 29
f 29 52 53
f 29 53 54
f 29 54 55
f 29 55 30
f 31 56 32
f 31 57 56
f 32 56 58
f 32 58 59
f 32 59 33
f 33 59 60
f 33 60 35
f 34 36 61
f 34 61 37
f 35 60 62
f 35 62 36
f 36 62 63
f 36 63 61
f 37 61 38
f 38 61 64
f 38 64 65
f 38 65 66
f 38 66 41
f 38 41 39
f 41 66 67
f 41 67 42
f 42 67 68
f 42 68 52
f 52 68 53
f 53 68 54
f 54 69 70
f 54 70 71
f 54 71 55
f 54 68 69
f 56 72 59
f 56 59 58
f 56 57 72
f 57 71 72
f 59 72 60
f 60 72 73
f 60 73 62
f 61 63 64
f 62 73 74
f 62 74 63
f 63 75 64
f 63 74 76
f 63 76 75
f 64 75 77
f 64 77 78
f 64 78 79
f 64 79 65
f 65 79 80
f 65 80 81
f 65 81 67
f 65 67 66
f 67 81 68
f 68 81 82
f 68 82 79
f 68 79 83
f 68 83 84
f 68 84 77
f 68 77 85
f 68 85 86
f 68 86 87
f 68 87 88
f 68 88 89
f 68 89 90
f 68 90 91
f 68 91 69
f 69 91 70
f 70 91 90
f 70 90 92
f 70 92 73
f 70 73 72
f 70 72 71
f 73 92 93
f 73 93 74
f 74 87 94
f 74 94 95
f 74 95 76
f 74 93 89
f 74 89 88
f 74 88 87
f 75 96 77
f 75 76 95
f 75 95 94
f 75 94 96
f 77 84 78
f 77 96 97
f 77 97 85
f 78 84 83
f 78 83 79
f 79 82 80
f 80 82 81
f 85 97 86
f 86 97 94
f 86 94 87
f 89 93 90
f 90 93 92
f 94 97 96

