# https://github.com/mikedh/trimesh
v -3.53548663 0.05979851 2.54759111
v -3.53531588 0.08325672 2.54759111
v -3.53519849 0.04243077 2.54759111
v -3.62682421 0.04243077 2.59280733
v -3.51782524 0.08325672 2.54759111
v -3.62682421 0.04819078 2.59312372
v -3.62682421 0.05979851 2.59376612
v -3.62682421 0.06341143 2.59543438
v -3.62682421 0.07069403 2.59879973
v -3.56602852 0.08325672 2.59818612
v -3.53197569 0.03540108 2.54759111
v -3.62682421 0.03053389 2.59784094
v -3.53012951 0.03147850 2.54759111
v -3.51797465 0.08325672 2.64554041
v -3.51782524 0.07717152 2.54759111
v -3.62682421 0.07069403 2.60489756
v -3.56602852 0.08325672 2.60542491
v -3.55157929 0.03053389 2.59588504
v -3.62682421 0.03053389 2.60575093
v -3.52341713 0.03147850 2.54759111
v -3.51797465 0.07717152 2.64554041
v -3.53536924 0.08325672 2.64554041
v -3.51803868 0.07089018 2.54759111
v -3.62682421 0.05979851 2.60926966
v -3.55157929 0.03053389 2.60777394
v -3.62682421 0.04243077 2.61013255
v -3.53016151 0.03154043 2.64554041
v -3.52130415 0.03850819 2.54759111
v -3.52349183 0.03154043 2.64554041
v -3.51858291 0.05979851 2.64554041
v -3.53555065 0.05978308 2.64554041
v -3.62682421 0.05403850 2.60955726
v -3.51843352 0.05979851 2.54759111
v -3.53526251 0.04241524 2.64554041
v -3.52033306 0.04243077 2.64554041
v -3.52018364 0.04243077 2.54759111
v -3.51906313 0.05352234 2.54759111
f 1 2 5
f 1 5 15
f 1 15 23
f 1 23 33
f 1 33 37
f 1 37 36
f 1 36 28
f 1 28 20
f 1 20 13
f 1 13 11
f 1 11 3
f 1 3 4
f 1 4 2
f 2 4 6
f 2 6 7
f 2 7 8
f 2 8 9
f 2 9 10
f 2 10 17
f 2 17 22
f 2 22 14
f 2 14 5
f 3 11 4
f 4 12 19
f 4 19 26
f 4 26 32
f 4 32 24
f 4 24 16
f 4 16 9
f 4 9 8
f 4 8 7
f 4 7 6
f 4 11 13
f 4 13 12
f 5 14 21
f 5 21 15
f 9 16 17
f 9 17 10
f 12 18 25
f 12 25 19
f 12 13 18
f 13 20 18
f 14 22 31
f 14 31 34
f 14 34 27
f 14 27 29
f 14 29 35
f 14 35 30
f 14 30 21
f 15 21 23
f 16 24 22
f 16 22 17
f 18 20 25
f 19 25 27
f 19 27 26
f 20 28 29
f 20 29 25
f 21 30 23
f 22 24 32
f 22 32 26
f 22 26 31
f 23 30 33
f 25 29 27
f 26 27 34
f 26 34 31
f 28 35 29
f 28 36 35
f 30 35 37
f 30 37 33
f 35 36 37

