# https://github.com/mikedh/trimesh
v 0.14959244 1.26529627 -0.32638866
v 0.14959244 1.60599545 -0.33679142
v 0.16670696 1.60617340 -0.33691529
v 0.16670696 1.26529627 -0.32638866
v 0.14959244 1.26529627 -0.30818382
v 0.14959244 1.61809591 -0.33567687
v 0.18407169 1.60617340 -0.33691529
v 0.16670696 1.61827386 -0.33567687
v 0.18365847 1.26529627 -0.32155886
v 0.19469236 1.60617340 -0.33555301
v 0.14959244 1.26550980 -0.30768837
v 0.15823897 1.26529627 0.91946904
v 0.14959244 1.62549854 -0.32564548
v 0.18407169 1.61827386 -0.33567687
v 0.19414140 1.61713500 -0.33518142
v 0.16670696 1.62560532 -0.32552162
v 0.19171842 1.26529627 -0.30818382
v 0.19912033 1.60617340 -0.32552162
v 0.14959244 1.59008691 0.26458888
v 0.16670696 1.26529627 0.91946904
v 0.18406651 1.60617340 0.92826191
v 0.15823897 1.58873449 0.92355587
v 0.14959244 1.62674418 -0.30830768
v 0.16670696 1.62806099 -0.30818382
v 0.18407169 1.62887956 -0.30818382
v 0.18407169 1.62532060 -0.32552162
v 0.19618202 1.61994657 -0.32552162
v 0.20165556 1.60617340 -0.30818382
v 0.20170652 1.60617340 -0.29072194
v 0.20170652 1.60617340 0.83723750
v 0.20170155 1.60617340 0.89061371
v 0.19103469 1.26529627 0.89061371
v 0.14959244 1.60759699 0.26458888
v 0.17992935 1.26529627 0.91798300
v 0.19718161 1.60617340 0.92219359
v 0.19594216 1.61930595 0.92058370
v 0.18406651 1.62176166 0.92268894
v 0.17129815 1.61955508 0.92083132
v 0.15823897 1.60464304 0.92268894
v 0.15823897 1.59823690 0.92343201
v 0.15823897 1.61094241 0.90795162
v 0.16925256 1.62190400 0.90795162
v 0.18406651 1.62873719 0.90795162
v 0.19753373 1.62161928 -0.30818382
v 0.19753870 1.62161928 0.90795162
v 0.19753870 1.62161928 0.83723750
v 0.20155366 1.60674285 0.26458888
v 0.20165556 1.60617340 0.90795162
v 0.18937685 1.26529627 0.90138796
v 0.18835654 1.26529627 0.90795162
f 1 2 3
f 1 3 7
f 1 7 4
f 1 4 9
f 1 9 17
f 1 17 32
f 1 32 49
f 1 49 50
f 1 50 34
f 1 34 20
f 1 20 12
f 1 12 5
f 1 5 11
f 1 11 19
f 1 19 33
f 1 33 23
f 1 23 13
f 1 13 6
f 1 6 2
f 2 6 3
f 3 6 8
f 3 8 14
f 3 14 7
f 4 7 10
f 4 10 9
f 5 12 11
f 6 13 8
f 7 14 15
f 7 15 10
f 8 13 16
f 8 16 14
f 9 10 17
f 10 15 18
f 10 18 17
f 11 12 19
f 12 20 21
f 12 21 22
f 12 22 19
f 13 23 24
f 13 24 25
f 13 25 16
f 14 16 26
f 14 26 15
f 15 26 27
f 15 27 18
f 16 25 26
f 17 18 28
f 17 28 29
f 17 29 30
f 17 30 31
f 17 31 32
f 18 27 28
f 19 22 33
f 20 34 21
f 21 34 35
f 21 35 36
f 21 36 37
f 21 37 38
f 21 38 39
f 21 39 40
f 21 40 22
f 22 40 33
f 23 33 41
f 23 41 42
f 23 42 43
f 23 43 24
f 24 43 25
f 25 44 27
f 25 27 26
f 25 43 45
f 25 45 46
f 25 46 44
f 27 44 28
f 28 44 29
f 29 44 46
f 29 46 47
f 29 47 30
f 30 45 31
f 30 47 45
f 31 45 48
f 31 48 32
f 32 48 49
f 33 40 39
f 33 39 41
f 34 50 35
f 35 50 48
f 35 48 36
f 36 48 45
f 36 45 43
f 36 43 37
f 37 43 38
f 38 43 42
f 38 42 41
f 38 41 39
f 45 47 46
f 48 50 49

