# https://github.com/mikedh/trimesh
v 0.16076427 1.61150546 0.83731455
v -0.18348602 1.61917536 0.90883957
v 0.15820334 1.61098888 0.90800920
v 0.15820334 1.60978845 0.91085596
v 0.15820334 1.60465223 0.92283621
v 0.15820334 1.59826637 0.92354790
v 0.16076427 1.58615884 0.83731455
v 0.16076427 1.61150546 0.26464024
v 0.14923991 1.61297648 -0.28786959
v -0.18341870 1.62336208 0.07402546
v -0.18348602 1.62148273 0.49155110
v -0.18348602 1.61380299 0.92117556
v -0.18348602 1.60639873 0.92331063
v -0.18348602 1.58881551 0.92366648
v 0.15820334 1.58881551 0.92354790
v 0.15820334 1.58034858 0.92164999
v 0.15820334 1.57310671 0.91998945
v 0.16076427 1.58615884 0.26464024
v 0.14954314 1.60206444 -0.28786959
v 0.14954314 1.61122995 -0.28609037
v -0.18341870 1.61284363 -0.28786959
v -0.18348602 1.61414737 0.26464024
v -0.18348602 1.57310671 0.91998945
v 0.15820334 1.57310671 0.89282655
v 0.14923991 1.58942555 -0.28786959
v 0.14954314 1.59209205 -0.28786959
v -0.18341870 1.58959283 -0.28786959
v -0.18348602 1.59092608 0.26464024
v -0.18348602 1.57310671 0.89887592
v -0.18075649 1.57310671 0.89863865
v -0.18291310 1.57310671 0.89875723
f 1 2 3
f 1 3 4
f 1 4 5
f 1 5 6
f 1 6 15
f 1 15 7
f 1 7 18
f 1 18 8
f 1 8 9
f 1 9 10
f 1 10 11
f 1 11 2
f 2 12 5
f 2 5 4
f 2 4 3
f 2 11 22
f 2 22 28
f 2 28 29
f 2 29 23
f 2 23 14
f 2 14 13
f 2 13 12
f 5 13 6
f 5 12 13
f 6 14 15
f 6 13 14
f 7 15 16
f 7 16 17
f 7 17 24
f 7 24 18
f 8 18 26
f 8 26 19
f 8 19 20
f 8 20 9
f 9 19 26
f 9 26 25
f 9 25 27
f 9 27 21
f 9 21 10
f 9 20 19
f 10 21 11
f 11 21 22
f 14 23 17
f 14 17 16
f 14 16 15
f 17 23 29
f 17 29 31
f 17 31 30
f 17 30 24
f 18 25 26
f 18 24 25
f 21 27 28
f 21 28 22
f 24 30 25
f 25 30 27
f 27 30 31
f 27 31 29
f 27 29 28

