# https://github.com/mikedh/trimesh
v -2.45243694 0.46479221 2.46192625
v -2.45243694 0.46252189 2.43705346
v -2.45243694 0.43793462 2.46192625
v -2.22471570 0.45824139 2.46193244
v -2.01881160 0.45817832 2.46193244
v -2.01881160 0.45815466 2.45443034
v -2.01881160 0.45802065 2.43705346
v -2.01881160 0.45647558 2.41998632
v -2.45243694 0.46239575 2.43577730
v -2.45243694 0.39225232 2.43421615
v -2.01881160 0.43996846 2.46193244
v -2.22471570 0.44090654 2.46193244
v -2.01881160 0.45256559 2.40876105
v -2.03999203 0.45277841 2.40831500
v -2.05735231 0.45290455 2.40813534
v -2.45243694 0.45852516 2.41667821
v -2.45243694 0.45938443 2.41977570
v -2.45243694 0.38543347 2.41968896
v -2.42217314 0.38466094 2.41968896
v -2.40477040 0.38429831 2.41968896
v -2.05735231 0.38425891 2.41968896
v -2.03999203 0.39139310 2.43002216
v -2.01881160 0.39188969 2.43046821
v -2.01881160 0.44204957 2.40281388
v -2.02258929 0.44204957 2.40263422
v -2.03999203 0.44204957 2.40187844
v -2.05735231 0.44204957 2.40158108
v -2.16159890 0.45299128 2.40810438
v -2.28316342 0.45299915 2.40811057
v -2.38741012 0.45292821 2.40814775
v -2.40477040 0.45287301 2.40817871
v -2.45243694 0.45306223 2.40892212
v -2.17895929 0.45299915 2.40811057
v -2.45243694 0.39211830 2.40588037
v -2.42217314 0.39176360 2.40510600
v -2.40477040 0.39159013 2.40481486
v -2.38741012 0.39157439 2.40483964
v -2.05735231 0.39156652 2.40479627
v -2.03999203 0.38444812 2.41968896
v -2.01881160 0.38663171 2.42225988
v -2.01881160 0.43829725 2.40214481
v -2.01881160 0.42466744 2.39986506
v -2.02258929 0.42466744 2.39972258
v -2.03999203 0.42466744 2.39910309
v -2.05735231 0.42466744 2.39885529
v -2.16159890 0.42466744 2.39865704
v -2.17895929 0.42466744 2.39864466
v -2.16159890 0.44204957 2.40154390
v -2.28316342 0.44204170 2.40155009
v -2.38741012 0.44204170 2.40161205
v -2.40477040 0.44204170 2.40162445
v -2.45243694 0.45037413 2.40739815
v -2.45243694 0.40730898 2.40081909
v -2.42217314 0.40730898 2.39971020
v -2.40477040 0.40730898 2.39924557
v -2.28316342 0.40730898 2.39902257
v -2.17895929 0.40730898 2.39901635
v -2.16159890 0.40730898 2.39904113
v -2.05735231 0.40730898 2.39920220
v -2.03999203 0.39168473 2.40498211
v -2.01881160 0.39196063 2.40555205
v -2.01881160 0.39051804 2.40854421
v -2.01881160 0.38522852 2.41968896
v -2.01881160 0.42093879 2.39996419
v -2.03999203 0.40730898 2.39953674
v -2.28316342 0.42466744 2.39865085
v -2.40477040 0.42466744 2.39888628
v -2.42217314 0.42466744 2.39925178
v -2.42217314 0.44204170 2.40207047
v -2.45243694 0.44204170 2.40339000
v -2.45243694 0.42466744 2.40041643
v -2.01881160 0.40402963 2.40145098
v -2.01881160 0.40730898 2.40036066
v -2.45243694 0.43757200 2.40262182
f 1 2 9
f 1 9 17
f 1 17 16
f 1 16 32
f 1 32 52
f 1 52 70
f 1 70 74
f 1 74 71
f 1 71 53
f 1 53 34
f 1 34 18
f 1 18 10
f 1 10 3
f 1 3 12
f 1 12 4
f 1 4 5
f 1 5 6
f 1 6 7
f 1 7 8
f 1 8 2
f 2 8 9
f 3 10 11
f 3 11 12
f 4 12 11
f 4 11 5
f 5 11 23
f 5 23 40
f 5 40 63
f 5 63 62
f 5 62 61
f 5 61 72
f 5 72 73
f 5 73 64
f 5 64 42
f 5 42 41
f 5 41 24
f 5 24 13
f 5 13 8
f 5 8 7
f 5 7 6
f 8 13 14
f 8 14 15
f 8 15 16
f 8 16 17
f 8 17 9
f 10 18 19
f 10 19 20
f 10 20 21
f 10 21 22
f 10 22 23
f 10 23 11
f 13 24 25
f 13 25 26
f 13 26 14
f 14 26 27
f 14 27 15
f 15 27 28
f 15 28 16
f 16 29 30
f 16 30 31
f 16 31 32
f 16 28 33
f 16 33 29
f 18 34 19
f 19 35 20
f 19 34 35
f 20 35 36
f 20 36 37
f 20 37 21
f 21 38 39
f 21 39 23
f 21 23 22
f 21 37 38
f 23 39 40
f 24 41 25
f 25 41 26
f 26 41 42
f 26 42 43
f 26 43 44
f 26 44 27
f 27 45 46
f 27 46 47
f 27 47 48
f 27 48 28
f 27 44 45
f 28 48 29
f 28 29 33
f 29 49 50
f 29 50 51
f 29 51 30
f 29 48 49
f 30 51 31
f 31 51 32
f 32 51 52
f 34 53 54
f 34 54 35
f 35 54 55
f 35 55 36
f 36 55 56
f 36 56 38
f 36 38 37
f 38 57 58
f 38 58 59
f 38 59 60
f 38 60 39
f 38 56 57
f 39 60 61
f 39 61 62
f 39 62 63
f 39 63 40
f 42 64 43
f 43 65 44
f 43 64 65
f 44 65 59
f 44 59 45
f 45 59 46
f 46 58 57
f 46 57 47
f 46 59 58
f 47 57 56
f 47 56 66
f 47 66 48
f 48 66 49
f 49 66 50
f 50 66 51
f 51 67 68
f 51 68 69
f 51 69 52
f 51 66 67
f 52 69 70
f 53 71 68
f 53 68 54
f 54 68 55
f 55 68 67
f 55 67 66
f 55 66 56
f 59 65 60
f 60 65 61
f 61 65 72
f 64 73 65
f 65 73 72
f 68 71 69
f 69 71 74
f 69 74 70

