# https://github.com/mikedh/trimesh
v -3.87178972 0.75212492 3.16532826
v -3.87178972 0.89395950 2.94995772
v -3.93265203 0.85320589 3.04110733
v -3.93265203 0.84753453 3.04881423
v -3.93265203 0.83865104 3.06026072
v -3.93265203 0.82520035 3.07583711
v -3.93265203 0.82364448 3.07752810
v -3.93265203 0.80758396 3.09268174
v -3.93265203 0.80477339 3.09515319
v -3.93265203 0.78901400 3.10689234
v -3.93265203 0.77089569 3.11590000
v -3.93265203 0.76652923 3.11781862
v -3.87858862 0.73741950 3.16532826
v -3.87178972 0.40531791 3.16532826
v -3.87178972 0.90173881 2.93773078
v -3.88679972 0.88628056 2.96875349
v -3.93265203 0.86409696 3.02305950
v -3.93265203 0.75443367 3.12172080
v -3.88634684 0.72005409 3.16532826
v -3.88169905 0.40752625 3.16532826
v -3.87178972 0.40531791 2.96823319
v -3.87178972 0.90710906 2.92817030
v -3.93265203 0.87202683 3.00914157
v -3.93265203 0.86956755 3.01349901
v -3.93265203 0.61064174 3.16532826
v -3.93115636 0.61435574 3.16532826
v -3.92646094 0.62579886 3.16532826
v -3.91593188 0.65059227 3.16532826
v -3.89455799 0.70083164 3.16532826
v -3.89023788 0.71096985 3.16532826
v -3.88318276 0.40792777 3.16532826
v -3.88169905 0.40752625 2.83315102
v -3.87178972 0.40536809 2.83315102
v -3.87178972 0.90916679 2.92358522
v -3.93265203 0.88497563 2.98276897
v -3.93265203 0.88060918 2.99239449
v -3.91644431 0.88407222 2.98270393
v -3.93265203 0.42368716 3.16532826
v -3.89907466 0.41259533 3.16532826
v -3.89907466 0.41259533 2.83315102
v -3.87178972 0.75202457 2.83315102
v -3.87178972 0.91343289 2.91347191
v -3.93265203 0.88788660 2.97359872
v -3.87178972 0.91629365 2.90550486
v -3.93265203 0.42413880 2.83337865
v -3.92022811 0.42022409 2.83315102
v -3.93265203 0.83272873 2.83315102
v -3.87178972 0.75935217 2.83347621
v -3.93265203 0.89240363 2.95831499
v -3.87178972 0.91754838 2.89441604
v -3.88169905 0.91438648 2.90618776
v -3.93265203 0.89702102 2.94095006
v -3.93265203 0.59046567 2.83315102
v -3.93265203 0.84166239 2.83373636
v -3.91644431 0.85902782 2.83916698
v -3.87178972 0.87639328 2.85103626
v -3.87178972 0.91800010 2.88882282
v -3.88169905 0.91589214 2.88882282
v -3.89907466 0.91032116 2.90618776
v -3.93265203 0.90048409 2.92254461
v -3.93265203 0.89722178 2.94010467
v -3.93265203 0.85902782 2.83802882
v -3.90517042 0.87097286 2.84397974
v -3.87178972 0.89461195 2.85679202
v -3.87178972 0.91037134 2.87149040
v -3.88169905 0.90871510 2.87204323
v -3.92660992 0.90289316 2.89178200
v -3.93265203 0.90148785 2.90618776
v -3.93265203 0.90133730 2.90917941
v -3.89907466 0.90575395 2.87389681
v -3.92511425 0.90244147 2.88020539
v -3.93265203 0.87112344 2.84300417
v -3.91644431 0.87127400 2.84342692
v -3.87178972 0.90178899 2.86248279
v -3.88169905 0.89335722 2.85614164
v -3.87178972 0.90294334 2.86349088
v -3.88169905 0.90203995 2.86336081
v -3.89907466 0.90118671 2.86521434
v -3.93265203 0.90043388 2.88735947
v -3.91817237 0.89937992 2.87129534
v -3.93265203 0.89466212 2.87142536
v -3.93265203 0.90028333 2.88677418
v -3.93265203 0.87980614 2.85123138
v -3.89907466 0.89245381 2.85623920
v -3.87230215 0.90229088 2.86290554
v -3.93265203 0.88753528 2.85991385
f 1 2 3
f 1 3 4
f 1 4 5
f 1 5 6
f 1 6 7
f 1 7 8
f 1 8 9
f 1 9 10
f 1 10 11
f 1 11 12
f 1 12 13
f 1 13 19
f 1 19 30
f 1 30 29
f 1 29 28
f 1 28 27
f 1 27 26
f 1 26 25
f 1 25 38
f 1 38 39
f 1 39 31
f 1 31 20
f 1 20 14
f 1 14 21
f 1 21 33
f 1 33 41
f 1 41 48
f 1 48 56
f 1 56 64
f 1 64 74
f 1 74 76
f 1 76 65
f 1 65 57
f 1 57 50
f 1 50 44
f 1 44 42
f 1 42 34
f 1 34 22
f 1 22 15
f 1 15 2
f 2 15 16
f 2 16 3
f 3 16 15
f 3 15 17
f 3 17 24
f 3 24 23
f 3 23 36
f 3 36 35
f 3 35 43
f 3 43 49
f 3 49 52
f 3 52 61
f 3 61 60
f 3 60 69
f 3 69 68
f 3 68 79
f 3 79 82
f 3 82 81
f 3 81 86
f 3 86 83
f 3 83 72
f 3 72 62
f 3 62 54
f 3 54 47
f 3 47 53
f 3 53 45
f 3 45 38
f 3 38 25
f 3 25 18
f 3 18 12
f 3 12 11
f 3 11 10
f 3 10 9
f 3 9 8
f 3 8 7
f 3 7 6
f 3 6 5
f 3 5 4
f 12 18 13
f 13 18 19
f 14 20 32
f 14 32 21
f 15 22 23
f 15 23 24
f 15 24 17
f 18 25 26
f 18 26 27
f 18 27 28
f 18 28 29
f 18 29 30
f 18 30 19
f 20 31 32
f 21 32 33
f 22 34 35
f 22 35 36
f 22 36 37
f 22 37 23
f 23 37 36
f 31 39 40
f 31 40 32
f 32 40 46
f 32 46 53
f 32 53 47
f 32 47 41
f 32 41 33
f 34 42 35
f 35 42 44
f 35 44 43
f 38 45 40
f 38 40 39
f 40 45 46
f 41 47 48
f 43 44 49
f 44 50 51
f 44 51 52
f 44 52 49
f 45 53 46
f 47 54 48
f 48 54 55
f 48 55 56
f 50 57 58
f 50 58 51
f 51 58 59
f 51 59 60
f 51 60 61
f 51 61 52
f 54 62 55
f 55 62 63
f 55 63 56
f 56 63 64
f 57 65 66
f 57 66 58
f 58 67 68
f 58 68 69
f 58 69 59
f 58 66 70
f 58 70 71
f 58 71 67
f 59 69 60
f 62 72 73
f 62 73 63
f 63 73 64
f 64 73 72
f 64 72 75
f 64 75 74
f 65 76 77
f 65 77 78
f 65 78 66
f 66 78 70
f 67 71 79
f 67 79 68
f 70 78 71
f 71 78 80
f 71 80 81
f 71 81 82
f 71 82 79
f 72 83 84
f 72 84 75
f 74 85 76
f 74 75 85
f 75 84 85
f 76 85 77
f 77 85 84
f 77 84 78
f 78 84 83
f 78 83 86
f 78 86 80
f 80 86 81

