# https://github.com/mikedh/trimesh
v -4.02070297 0.50833495 2.74200647
v -4.02775167 0.50819747 2.74200647
v -3.99023210 0.50120505 2.74200647
v -3.99023210 0.49707048 2.73562659
v -3.99023210 0.49504741 2.73324053
v -3.99023210 0.42584998 2.65463796
v -4.00332928 0.42598746 2.65463796
v -4.02070297 0.42604639 2.65463796
v -4.02978359 0.42606602 2.65463796
v -4.07068183 0.42606602 2.65463796
v -4.03806879 0.50754926 2.74200647
v -3.99023210 0.42026189 2.74200647
v -3.99023210 0.40800554 2.65463796
v -4.07068183 0.40854568 2.65463796
v -4.07068183 0.43429586 2.69996422
v -4.04846462 0.50448517 2.74200647
v -4.04366050 0.50632167 2.74200647
v -3.99375249 0.42032082 2.74200647
v -4.07068183 0.41592112 2.70683158
v -4.05544248 0.41585236 2.70737892
v -4.02070297 0.41570504 2.70844795
v -3.99023210 0.41557740 2.70935445
v -3.99023210 0.40853589 2.65865748
v -3.99424866 0.40801538 2.65463796
v -4.06374342 0.40848675 2.65463796
v -4.07068183 0.43965803 2.73242807
v -4.07068183 0.44117042 2.74200647
v -4.00332928 0.42050744 2.74200647
v -4.07068183 0.42351260 2.74200647
v -4.01162235 0.40812340 2.65463796
f 1 2 11
f 1 11 17
f 1 17 16
f 1 16 27
f 1 27 29
f 1 29 28
f 1 28 18
f 1 18 12
f 1 12 3
f 1 3 4
f 1 4 5
f 1 5 6
f 1 6 7
f 1 7 8
f 1 8 9
f 1 9 10
f 1 10 2
f 2 10 11
f 3 12 22
f 3 22 23
f 3 23 13
f 3 13 6
f 3 6 5
f 3 5 4
f 6 13 24
f 6 24 30
f 6 30 25
f 6 25 14
f 6 14 10
f 6 10 9
f 6 9 8
f 6 8 7
f 10 14 19
f 10 19 29
f 10 29 27
f 10 27 26
f 10 26 15
f 10 15 16
f 10 16 17
f 10 17 11
f 12 18 19
f 12 19 20
f 12 20 21
f 12 21 22
f 13 23 24
f 14 25 21
f 14 21 20
f 14 20 19
f 15 26 16
f 16 26 27
f 18 28 19
f 19 28 29
f 21 25 22
f 22 25 30
f 22 30 23
f 23 30 24

