# https://github.com/mikedh/trimesh
v -3.03395667 0.76337422 1.44580859
v -3.03709496 0.76292232 1.44318899
v -3.03760744 0.76299766 1.44580859
v -3.03054362 0.76284698 1.44580859
v -3.03054362 0.75832813 1.42890233
v -3.04197677 0.76126540 1.44580859
v -3.03054362 0.75749967 1.42727115
v -3.06176821 0.75064603 1.44580859
v -3.03054362 0.36556307 1.44580859
v -3.03054362 0.75576747 1.42568238
v -3.05738301 0.74733220 1.43716749
v -3.06276674 0.74996821 1.44580859
v -3.03437934 0.35870943 1.44580859
v -3.06506500 0.00774398 1.42308096
v -3.05598293 -0.00136911 1.42092223
v -3.05027163 0.00774398 1.41192938
v -3.04915684 0.02506635 1.41192938
v -3.03054362 0.36616560 1.42939353
v -3.03054362 0.73739071 1.41678056
v -3.06829314 0.73897233 1.44580859
v -3.06328451 0.66787544 1.41371218
v -3.03487067 0.35818229 1.44580859
v -3.07644005 0.00774398 1.42238968
v -3.07542564 -0.00242349 1.42169839
v -3.06506500 -0.00234820 1.42166204
v -3.04773036 0.35306086 1.44580859
v -3.04833794 0.35283499 1.44580859
v -3.06033113 0.35690194 1.44580859
v -3.06506500 -0.00596330 1.41192938
v -3.05367939 -0.00332729 1.41192938
v -3.05354201 -0.00355317 1.39455621
v -3.05033503 0.00774398 1.39455621
v -3.03054362 0.37324522 1.42194704
v -3.03054362 0.66787544 1.40857604
v -3.05536479 0.64513047 1.40306391
v -3.05674374 0.64513047 1.40306391
v -3.06868410 0.73739071 1.44580859
v -3.07387763 0.64460323 1.42034616
v -3.06517068 0.65062841 1.41186874
v -3.08413789 0.02506635 1.41192938
v -3.08311292 0.00774398 1.41192938
v -3.06519709 0.37128704 1.44580859
v -3.07043817 0.38921184 1.44580859
v -3.07412066 0.40728733 1.44580859
v -3.07797222 -0.00355317 1.41192938
v -3.06506500 -0.00603859 1.39455621
v -3.05579802 -0.00159509 1.38539968
v -3.05556026 0.00774398 1.38521777
v -3.03054362 0.40728733 1.40682964
v -3.03054362 0.38891057 1.41072266
v -3.03054362 0.65055312 1.40758157
v -3.05377449 0.63315545 1.40273650
v -3.06506500 0.21621449 1.38926845
v -3.06506500 0.23361215 1.38982635
v -3.05739888 0.63315545 1.40273650
v -3.07371384 0.48501188 1.40330646
v -3.06506500 0.26833209 1.39096638
v -3.06506500 0.32044969 1.39268248
v -3.06506500 0.35524502 1.39383463
v -3.06506500 0.38988966 1.39499889
v -3.07370856 0.67510564 1.44580859
v -3.07413123 0.63315545 1.41979432
v -3.08019123 0.38988966 1.41192938
v -3.07504524 0.65055312 1.44580859
v -3.07477051 0.65928960 1.44580859
v -3.07419463 0.66787544 1.44580859
v -3.08430696 0.04246391 1.41192938
v -3.08280649 0.02506635 1.39455621
v -3.08245249 0.00774398 1.39455621
v -3.07439011 0.41579783 1.44580859
v -3.07461201 0.42460965 1.44580859
v -3.07565284 0.47680260 1.44580859
v -3.07579548 0.48734662 1.44580859
v -3.07780844 -0.00347788 1.39455621
v -3.07520903 -0.00219752 1.38489636
v -3.06506500 -0.00242349 1.38478725
v -3.06506500 0.00774398 1.38386553
v -3.05569764 0.02506635 1.38533904
v -3.03054362 0.52944744 1.40558652
v -3.03054362 0.52801645 1.40558652
v -3.03054362 0.47680260 1.40579877
v -3.04769336 0.51152259 1.39964388
v -3.04804734 0.54624257 1.40057165
v -3.04859682 0.56364019 1.40097188
v -3.04933119 0.58103785 1.40137816
v -3.05038260 0.59836017 1.40180867
v -3.05185136 0.61575784 1.40226953
v -3.03054362 0.63315545 1.40722987
v -3.05636332 0.08659820 1.38585448
v -3.06506500 0.19881682 1.38876518
v -3.07391989 0.08938489 1.38575744
v -3.05834988 0.61575784 1.40226953
v -3.06022547 0.58103785 1.40137816
v -3.06109722 0.56364019 1.40097188
v -3.06196897 0.54624257 1.40057165
v -3.06284071 0.52892020 1.40017749
v -3.06506500 0.40728733 1.39569018
v -3.07404141 0.47348877 1.40293658
v -3.05931144 0.59836017 1.40180867
v -3.07450635 0.61575784 1.41895141
v -3.07961534 0.40728733 1.41192938
v -3.07580605 0.40728733 1.40105069
v -3.07620229 0.38988966 1.40062017
v -3.07686272 0.35524502 1.39988037
v -3.07751785 0.32044969 1.39913450
v -3.07784014 0.30312742 1.39875851
v -3.08109468 0.35524502 1.41192938
v -3.07521959 0.64272039 1.44580859
v -3.08154376 0.33784735 1.41192938
v -3.08198228 0.32044969 1.41192938
v -3.08237324 0.30312742 1.41192938
v -3.08441262 0.05986158 1.41192938
v -3.07577963 0.00774398 1.38452042
v -3.08447074 0.07718395 1.41192938
v -3.08450243 0.09458162 1.41192938
v -3.08451300 0.11197928 1.41192938
v -3.08449187 0.12937684 1.41192938
v -3.08444432 0.14669922 1.41192938
v -3.08437563 0.16409688 1.41192938
v -3.08428053 0.18149445 1.41192938
v -3.08415902 0.19881682 1.41192938
v -3.08394240 0.21621449 1.41192938
v -3.08364653 0.23361215 1.41192938
v -3.08334010 0.25093442 1.41192938
v -3.08270609 0.28572975 1.41192938
v -3.07937760 0.21621449 1.39683627
v -3.07963118 0.19881682 1.39647851
v -3.07582191 0.49412492 1.44580859
v -3.07542036 0.02506635 1.38476297
v -3.07502412 0.04246391 1.38502980
v -3.07461729 0.05986158 1.38529658
v -3.06506500 0.02506635 1.38423541
v -3.05625238 0.07718395 1.38577566
v -3.05605690 0.05986158 1.38563010
v -3.05587199 0.04246391 1.38548460
v -3.06506500 0.04246391 1.38464775
v -3.06506500 0.07718395 1.38547854
v -3.06506500 0.08908363 1.38577566
v -3.07421048 0.07718395 1.38556947
v -3.07847415 0.26833209 1.39799447
v -3.07534111 0.42460965 1.40154189
v -3.07485505 0.59836017 1.41810856
v -3.07543621 0.62569933 1.44580859
v -3.07878058 0.25093442 1.39761248
v -3.07908173 0.23361215 1.39722437
v -3.07582719 0.50489487 1.44580859
v -3.07580077 0.55693718 1.44580859
v -3.07579020 0.57433485 1.44580859
v -3.07577963 0.58103785 1.44580859
v -3.07574265 0.59158188 1.44580859
v -3.07569509 0.59836017 1.44580859
v -3.07562113 0.60867823 1.44580859
f 1 2 3
f 1 3 6
f 1 6 8
f 1 8 12
f 1 12 20
f 1 20 37
f 1 37 61
f 1 61 66
f 1 66 65
f 1 65 64
f 1 64 108
f 1 108 143
f 1 143 152
f 1 152 151
f 1 151 150
f 1 150 149
f 1 149 148
f 1 148 147
f 1 147 146
f 1 146 128
f 1 128 73
f 1 73 72
f 1 72 71
f 1 71 70
f 1 70 44
f 1 44 43
f 1 43 42
f 1 42 28
f 1 28 27
f 1 27 26
f 1 26 22
f 1 22 13
f 1 13 9
f 1 9 4
f 1 4 5
f 1 5 2
f 2 6 3
f 2 5 7
f 2 7 8
f 2 8 6
f 4 9 18
f 4 18 33
f 4 33 50
f 4 50 49
f 4 49 81
f 4 81 80
f 4 80 79
f 4 79 88
f 4 88 51
f 4 51 34
f 4 34 19
f 4 19 10
f 4 10 7
f 4 7 5
f 7 10 11
f 7 11 8
f 8 11 12
f 9 13 14
f 9 14 15
f 9 15 16
f 9 16 17
f 9 17 18
f 10 19 11
f 11 20 12
f 11 19 21
f 11 21 20
f 13 22 14
f 14 23 24
f 14 24 25
f 14 25 15
f 14 22 26
f 14 26 27
f 14 27 28
f 14 28 23
f 15 25 29
f 15 29 30
f 15 30 16
f 16 30 31
f 16 31 32
f 16 32 17
f 17 32 18
f 18 32 33
f 19 34 35
f 19 35 36
f 19 36 21
f 20 21 38
f 20 38 37
f 21 36 39
f 21 39 38
f 23 40 41
f 23 41 24
f 23 28 42
f 23 42 43
f 23 43 44
f 23 44 40
f 24 41 45
f 24 45 29
f 24 29 25
f 29 46 31
f 29 31 30
f 29 45 46
f 31 46 47
f 31 47 32
f 32 47 48
f 32 48 49
f 32 49 50
f 32 50 33
f 34 51 35
f 35 51 52
f 35 52 53
f 35 53 54
f 35 54 36
f 36 55 56
f 36 56 39
f 36 54 57
f 36 57 58
f 36 58 59
f 36 59 60
f 36 60 55
f 37 38 61
f 38 62 63
f 38 63 64
f 38 64 65
f 38 65 66
f 38 66 61
f 38 39 56
f 38 56 62
f 40 67 68
f 40 68 69
f 40 69 41
f 40 44 70
f 40 70 71
f 40 71 72
f 40 72 73
f 40 73 67
f 41 69 74
f 41 74 45
f 45 74 46
f 46 74 75
f 46 75 76
f 46 76 47
f 47 77 48
f 47 76 77
f 48 77 78
f 48 78 79
f 48 79 80
f 48 80 81
f 48 81 49
f 51 82 83
f 51 83 84
f 51 84 85
f 51 85 86
f 51 86 87
f 51 87 52
f 51 88 89
f 51 89 82
f 52 87 53
f 53 87 86
f 53 86 89
f 53 89 90
f 53 90 91
f 53 91 54
f 54 91 57
f 55 92 56
f 55 60 92
f 56 93 94
f 56 94 95
f 56 95 96
f 56 96 97
f 56 97 98
f 56 98 62
f 56 92 99
f 56 99 93
f 57 91 58
f 58 91 59
f 59 91 60
f 60 91 97
f 60 97 99
f 60 99 92
f 62 98 100
f 62 100 63
f 63 101 102
f 63 102 103
f 63 103 104
f 63 104 105
f 63 105 106
f 63 106 107
f 63 107 64
f 63 100 101
f 64 107 109
f 64 109 110
f 64 110 111
f 64 111 108
f 67 112 68
f 67 73 112
f 68 113 69
f 68 112 114
f 68 114 115
f 68 115 116
f 68 116 117
f 68 117 118
f 68 118 119
f 68 119 120
f 68 120 121
f 68 121 122
f 68 122 123
f 68 123 124
f 68 124 125
f 68 125 111
f 68 111 126
f 68 126 127
f 68 127 113
f 69 113 75
f 69 75 74
f 73 128 112
f 75 113 77
f 75 77 76
f 77 113 129
f 77 129 130
f 77 130 131
f 77 131 91
f 77 91 132
f 77 132 89
f 77 89 133
f 77 133 134
f 77 134 135
f 77 135 78
f 78 135 79
f 79 135 134
f 79 134 133
f 79 133 89
f 79 89 88
f 82 89 83
f 83 89 84
f 84 89 85
f 85 89 86
f 89 132 136
f 89 136 137
f 89 137 138
f 89 138 90
f 90 138 91
f 91 138 137
f 91 137 136
f 91 136 132
f 91 131 139
f 91 139 140
f 91 140 106
f 91 106 104
f 91 104 103
f 91 103 102
f 91 102 141
f 91 141 98
f 91 98 97
f 93 99 97
f 93 97 94
f 94 97 95
f 95 97 96
f 98 142 100
f 98 141 102
f 98 102 142
f 100 142 101
f 101 142 102
f 104 106 105
f 106 140 107
f 107 140 109
f 108 111 125
f 108 125 124
f 108 124 123
f 108 123 122
f 108 122 143
f 109 140 144
f 109 144 110
f 110 144 145
f 110 145 126
f 110 126 111
f 112 128 114
f 113 127 126
f 113 126 129
f 114 128 115
f 115 128 116
f 116 128 146
f 116 146 147
f 116 147 148
f 116 148 117
f 117 148 149
f 117 149 118
f 118 149 150
f 118 150 119
f 119 150 120
f 120 150 151
f 120 151 121
f 121 151 152
f 121 152 143
f 121 143 122
f 126 145 131
f 126 131 130
f 126 130 129
f 131 145 140
f 131 140 139
f 140 145 144

