# https://github.com/mikedh/trimesh
v -0.18861718 2.50225166 0.87726362
v -0.18861718 2.50225166 0.68671833
v -0.19760775 2.50225166 0.87327994
v -0.19811087 2.50216228 0.87726362
v -0.18771390 2.49224512 0.87726362
v -0.19760775 2.50225166 0.68671833
v -0.18771390 2.49224512 0.68671833
v -0.18859005 2.50189426 0.10944507
v -0.18862153 2.50216228 0.12628204
v -0.19761210 2.50216228 0.10944507
v -0.20445953 2.49465743 0.87726362
v -0.18348602 1.61434932 0.87726362
v -0.18348602 1.62158619 0.49166315
v -0.18771390 2.49215575 0.10944507
v -0.20597819 2.49215575 0.10944507
v -0.20614907 2.49224512 0.87726362
v -0.18348602 1.58951166 0.87726362
v -0.18348602 1.61452802 0.12222318
v -0.18768697 2.47482302 0.10944507
v -0.22908159 2.28407319 0.10944507
v -0.22912654 2.28362652 0.10944507
v -0.22707763 2.28380517 0.87726362
v -0.19817839 1.59192392 0.87726362
v -0.18348602 1.59094115 0.12222318
v -0.18768697 2.31847073 0.10944507
v -0.22938710 2.26691911 0.10944507
v -0.22711802 2.26638306 0.87726362
v -0.19818274 1.59362148 0.12222318
v -0.20898858 1.59540837 0.87726362
v -0.22938710 1.64374357 0.10944507
v -0.20904264 1.64374357 0.10944507
v -0.20425302 1.64392224 0.10944507
v -0.22722593 1.62364113 0.87726362
v -0.20765426 1.59710588 0.12222318
v -0.21865770 1.60577230 0.12222318
v -0.21633932 1.60371739 0.12222318
v -0.22632286 1.61122229 0.87726362
v -0.22572985 1.61247310 0.12222318
v -0.22733385 1.62364113 0.12222318
f 1 2 6
f 1 6 3
f 1 3 4
f 1 4 11
f 1 11 16
f 1 16 22
f 1 22 27
f 1 27 33
f 1 33 37
f 1 37 29
f 1 29 23
f 1 23 17
f 1 17 12
f 1 12 5
f 1 5 7
f 1 7 2
f 2 7 8
f 2 8 9
f 2 9 10
f 2 10 6
f 3 6 4
f 4 6 10
f 4 10 11
f 5 12 13
f 5 13 7
f 7 14 8
f 7 13 14
f 8 10 9
f 8 14 19
f 8 19 25
f 8 25 32
f 8 32 31
f 8 31 30
f 8 30 26
f 8 26 21
f 8 21 20
f 8 20 15
f 8 15 10
f 10 15 11
f 11 15 16
f 12 17 24
f 12 24 18
f 12 18 13
f 13 18 14
f 14 18 19
f 15 20 16
f 16 20 21
f 16 21 22
f 17 23 24
f 18 24 25
f 18 25 19
f 21 26 22
f 22 26 27
f 23 28 24
f 23 29 28
f 24 30 31
f 24 31 32
f 24 32 25
f 24 28 30
f 26 30 33
f 26 33 27
f 28 29 34
f 28 34 30
f 29 35 36
f 29 36 34
f 29 37 35
f 30 34 36
f 30 36 35
f 30 35 38
f 30 38 39
f 30 39 37
f 30 37 33
f 35 37 38
f 37 39 38

