# https://github.com/mikedh/trimesh
v -2.37543422 0.76340959 1.44580853
v -2.37543422 0.76340959 1.44465162
v -2.37795382 0.76325895 1.44580853
v -2.37543422 0.35798086 1.44580853
v -2.37543422 0.76099992 1.43700769
v -2.37743300 0.76310837 1.44267703
v -2.38276477 0.76152706 1.44580853
v -2.38796274 0.35210725 1.44580853
v -2.40811447 -0.00256765 1.42181671
v -2.40331833 0.00714641 1.42231946
v -2.39653822 0.00104682 1.42042968
v -2.39230257 0.00714641 1.41355497
v -2.39056167 0.02506842 1.41193171
v -2.37543422 0.35737843 1.44425793
v -2.37543422 0.75602995 1.42853395
v -2.40222718 0.75143648 1.44580853
v -2.40113107 0.35594770 1.44580853
v -2.41679420 0.00774884 1.42259204
v -2.41554931 -0.00256765 1.42181671
v -2.40331833 -0.00467611 1.41355497
v -2.39321518 -0.00377251 1.40884867
v -2.39119154 0.00774884 1.39455419
v -2.37543422 0.35805615 1.43624453
v -2.37543422 0.73743022 1.41910924
v -2.39765423 0.74797259 1.43675935
v -2.40307527 0.75090940 1.44580853
v -2.40667618 0.37115872 1.44580853
v -2.42545409 0.02506842 1.41193171
v -2.42469025 0.00774884 1.41193171
v -2.41568819 0.40722866 1.44580853
v -2.41878308 -0.00354654 1.41193171
v -2.40481131 -0.00580568 1.39455419
v -2.39376075 -0.00332067 1.39455419
v -2.39588360 -0.00128750 1.38565641
v -2.37543422 0.40722866 1.40513576
v -2.37543422 0.38968321 1.40757064
v -2.37543422 0.37258956 1.41331268
v -2.37543422 0.36995396 1.41468159
v -2.37543422 0.35880916 1.42941223
v -2.37543422 0.66747418 1.40797040
v -2.39582902 0.65971804 1.40317328
v -2.39628532 0.65971804 1.40317328
v -2.40941399 0.73991518 1.44580853
v -2.40428551 0.66672112 1.41241628
v -2.41392745 0.66212771 1.41976946
v -2.42571693 0.04246329 1.41193171
v -2.42411491 0.00774884 1.39455419
v -2.41602047 0.42033133 1.44580853
v -2.41711659 0.47673290 1.44580853
v -2.41869381 -0.00347125 1.39455419
v -2.41542529 -0.00241697 1.38469943
v -2.40481131 -0.00226639 1.38483266
v -2.40481131 0.00774884 1.38393627
v -2.39579930 0.00774884 1.38558376
v -2.37543422 0.47673290 1.40482077
v -2.37543422 0.65053111 1.40675901
v -2.39480726 0.65053111 1.40290676
v -2.40481131 0.28569040 1.39125310
v -2.40481131 0.37258956 1.39398480
v -2.40481131 0.38990908 1.39452995
v -2.40555520 0.65053111 1.41024787
v -2.39687056 0.65053111 1.40290676
v -2.41325786 0.51822461 1.40349432
v -2.41014308 0.73743022 1.44580853
v -2.41434403 0.65053111 1.41892754
v -2.41613455 0.66160062 1.44580853
v -2.41568819 0.66792598 1.44580853
v -2.41498882 0.67703762 1.44580853
v -2.42590542 0.05985816 1.41193171
v -2.41621885 0.00774884 1.38422091
v -2.42602944 0.07717774 1.41193171
v -2.42608396 0.09457261 1.41193171
v -2.42609882 0.11196748 1.41193171
v -2.42607899 0.12936235 1.41193171
v -2.42409010 0.02506842 1.39455419
v -2.41725547 0.49036266 1.44580853
v -2.41164092 0.10775057 1.38572911
v -2.40481131 0.02506842 1.38426938
v -2.39617119 0.05082181 1.38587446
v -2.39602248 0.03922527 1.38578364
v -2.39589841 0.02506842 1.38568064
v -2.41583696 0.02506842 1.38445714
v -2.41540546 0.04246329 1.38472366
v -2.41496899 0.05985816 1.38499018
v -2.41407622 0.09457261 1.38552318
v -2.41373399 0.10775057 1.38572911
v -2.37543422 0.54623714 1.40516605
v -2.37543422 0.52891756 1.40502670
v -2.37543422 0.51152264 1.40492376
v -2.37543422 0.49412777 1.40483289
v -2.38915807 0.54623714 1.40045975
v -2.38959448 0.56363201 1.40081104
v -2.39015497 0.58102687 1.40118050
v -2.39091875 0.59842180 1.40158031
v -2.39194548 0.61574137 1.40201036
v -2.39322512 0.63313624 1.40245853
v -2.37543422 0.63313624 1.40638349
v -2.40481131 0.26837082 1.39071405
v -2.40481131 0.40722866 1.39515382
v -2.39894380 0.61574137 1.40201036
v -2.41371416 0.50670330 1.40302793
v -2.41653627 0.65053111 1.44580853
v -2.41474084 0.63313624 1.41808562
v -2.42109437 0.40722866 1.41193171
v -2.42166972 0.38990908 1.41193171
v -2.42028595 0.19886663 1.39600180
v -2.42003299 0.21618621 1.39633491
v -2.41726044 0.49412777 1.44580853
v -2.41725050 0.50775753 1.44580853
v -2.42602944 0.14668192 1.41193171
v -2.41723066 0.52507711 1.44580853
v -2.41720586 0.54239668 1.44580853
v -2.41715625 0.57696055 1.44580853
v -2.41714636 0.58102687 1.44580853
v -2.42595503 0.16407679 1.41193171
v -2.42584592 0.18147177 1.41193171
v -2.42571196 0.19886663 1.41193171
v -2.42547392 0.21618621 1.41193171
v -2.42515153 0.23358108 1.41193171
v -2.42448194 0.26837082 1.41193171
v -2.42413474 0.28569040 1.41193171
v -2.42341062 0.32048014 1.41193171
v -2.42301879 0.33787501 1.41193171
v -2.40481131 0.21618621 1.38918161
v -2.40481131 0.19886663 1.38870310
v -2.40942890 0.09457261 1.38552318
v -2.40721181 0.07717774 1.38525665
v -2.40557509 0.05985816 1.38499018
v -2.40310012 0.04404460 1.38489931
v -2.39852716 0.07717774 1.38618339
v -2.39689541 0.05985816 1.38598352
v -2.37543422 0.61574137 1.40606850
v -2.37543422 0.59842180 1.40577780
v -2.37543422 0.58102687 1.40553551
v -2.37543422 0.56363201 1.40533564
v -2.41912531 0.26837082 1.39741912
v -2.41880789 0.28569040 1.39777647
v -2.41681403 0.38990908 1.39990853
v -2.41641728 0.40722866 1.40031435
v -2.41595600 0.42462358 1.40077469
v -2.41548976 0.44201845 1.40124715
v -2.41501860 0.45941332 1.40171961
v -2.41454246 0.47673290 1.40219206
v -2.41406628 0.49412777 1.40267659
v -2.40481131 0.42462358 1.39590487
v -2.40099219 0.58102687 1.40118050
v -2.39999528 0.59842180 1.40158031
v -2.41546496 0.59842180 1.41637149
v -2.41511781 0.61574137 1.41723158
v -2.41664543 0.64525993 1.44580853
v -2.42257735 0.35519458 1.41193171
v -2.41710173 0.59420484 1.44580853
v -2.41699262 0.61129849 1.44580853
v -2.41683391 0.62831691 1.44580853
v -2.40074415 0.09457261 1.38637115
f 1 2 3
f 1 3 7
f 1 7 16
f 1 16 26
f 1 26 43
f 1 43 64
f 1 64 68
f 1 68 67
f 1 67 66
f 1 66 102
f 1 102 150
f 1 150 154
f 1 154 153
f 1 153 152
f 1 152 114
f 1 114 113
f 1 113 112
f 1 112 111
f 1 111 109
f 1 109 108
f 1 108 76
f 1 76 49
f 1 49 48
f 1 48 30
f 1 30 27
f 1 27 17
f 1 17 8
f 1 8 4
f 1 4 14
f 1 14 23
f 1 23 39
f 1 39 38
f 1 38 37
f 1 37 36
f 1 36 35
f 1 35 55
f 1 55 90
f 1 90 89
f 1 89 88
f 1 88 87
f 1 87 135
f 1 135 134
f 1 134 133
f 1 133 132
f 1 132 97
f 1 97 56
f 1 56 40
f 1 40 24
f 1 24 15
f 1 15 5
f 1 5 2
f 2 5 6
f 2 6 3
f 3 6 7
f 4 8 9
f 4 9 10
f 4 10 11
f 4 11 12
f 4 12 13
f 4 13 14
f 5 15 16
f 5 16 6
f 6 16 7
f 8 17 18
f 8 18 9
f 9 18 19
f 9 19 20
f 9 20 21
f 9 21 11
f 9 11 10
f 11 21 12
f 12 21 22
f 12 22 13
f 13 22 14
f 14 22 23
f 15 24 25
f 15 25 16
f 16 25 26
f 17 27 18
f 18 28 29
f 18 29 19
f 18 27 30
f 18 30 28
f 19 31 20
f 19 29 31
f 20 32 21
f 20 31 32
f 21 32 33
f 21 33 22
f 22 33 34
f 22 34 35
f 22 35 36
f 22 36 37
f 22 37 38
f 22 38 39
f 22 39 23
f 24 40 41
f 24 41 42
f 24 42 25
f 25 43 26
f 25 42 44
f 25 44 45
f 25 45 43
f 28 46 47
f 28 47 29
f 28 30 48
f 28 48 49
f 28 49 46
f 29 47 50
f 29 50 31
f 31 50 32
f 32 50 51
f 32 51 52
f 32 52 34
f 32 34 33
f 34 52 53
f 34 53 54
f 34 54 35
f 35 54 55
f 40 56 41
f 41 56 57
f 41 57 58
f 41 58 59
f 41 59 60
f 41 60 42
f 42 61 45
f 42 45 44
f 42 60 62
f 42 62 63
f 42 63 61
f 43 45 64
f 45 61 63
f 45 63 65
f 45 65 66
f 45 66 67
f 45 67 68
f 45 68 64
f 46 69 47
f 46 49 69
f 47 70 51
f 47 51 50
f 47 69 71
f 47 71 72
f 47 72 73
f 47 73 74
f 47 74 75
f 47 75 70
f 49 76 69
f 51 53 52
f 51 70 53
f 53 77 78
f 53 78 79
f 53 79 80
f 53 80 81
f 53 81 54
f 53 70 82
f 53 82 83
f 53 83 84
f 53 84 85
f 53 85 86
f 53 86 77
f 54 81 87
f 54 87 88
f 54 88 89
f 54 89 90
f 54 90 55
f 56 91 92
f 56 92 93
f 56 93 94
f 56 94 95
f 56 95 96
f 56 96 57
f 56 97 79
f 56 79 91
f 57 96 98
f 57 98 58
f 58 98 86
f 58 86 59
f 59 86 60
f 60 86 99
f 60 99 62
f 62 100 101
f 62 101 63
f 62 99 100
f 63 101 65
f 65 102 66
f 65 101 103
f 65 103 104
f 65 104 105
f 65 105 102
f 69 76 71
f 70 75 106
f 70 106 107
f 70 107 82
f 71 76 72
f 72 76 108
f 72 108 73
f 73 108 109
f 73 109 74
f 74 110 75
f 74 109 111
f 74 111 112
f 74 112 113
f 74 113 114
f 74 114 110
f 75 110 115
f 75 115 116
f 75 116 117
f 75 117 118
f 75 118 119
f 75 119 120
f 75 120 121
f 75 121 122
f 75 122 123
f 75 123 107
f 75 107 106
f 77 98 124
f 77 124 125
f 77 125 126
f 77 126 78
f 77 86 98
f 78 126 127
f 78 127 128
f 78 128 129
f 78 129 130
f 78 130 131
f 78 131 79
f 79 131 92
f 79 92 91
f 79 97 132
f 79 132 133
f 79 133 80
f 80 133 134
f 80 134 81
f 81 134 135
f 81 135 87
f 82 107 136
f 82 136 137
f 82 137 138
f 82 138 83
f 83 138 84
f 84 138 85
f 85 138 86
f 86 138 139
f 86 139 140
f 86 140 141
f 86 141 142
f 86 142 143
f 86 143 144
f 86 144 101
f 86 101 145
f 86 145 99
f 92 131 93
f 93 131 130
f 93 130 125
f 93 125 124
f 93 124 94
f 94 124 98
f 94 98 95
f 95 98 96
f 99 145 146
f 99 146 147
f 99 147 100
f 100 147 101
f 101 144 148
f 101 148 149
f 101 149 103
f 101 147 146
f 101 146 145
f 102 105 151
f 102 151 123
f 102 123 122
f 102 122 121
f 102 121 150
f 103 149 104
f 104 141 140
f 104 140 139
f 104 139 105
f 104 149 148
f 104 148 144
f 104 144 143
f 104 143 142
f 104 142 141
f 105 139 138
f 105 138 137
f 105 137 136
f 105 136 151
f 107 123 151
f 107 151 136
f 110 114 152
f 110 152 115
f 115 152 116
f 116 152 153
f 116 153 117
f 117 153 154
f 117 154 150
f 117 150 118
f 118 150 119
f 119 150 120
f 120 150 121
f 125 130 155
f 125 155 127
f 125 127 126
f 127 155 128
f 128 155 130
f 128 130 129

