# https://github.com/mikedh/trimesh
v 0.19175405 0.91118341 -0.30820826
v 0.18359903 0.89706910 -0.30820826
v 0.18084382 0.89887310 -0.32006713
v 0.18359903 0.91118341 -0.32159345
v 0.18359903 0.92692020 -0.32159345
v 0.19168052 0.92692020 -0.30820826
v 0.19153366 0.91118341 0.28696360
v 0.18359903 0.89707477 0.28696360
v 0.16666450 0.89172519 -0.30820826
v 0.16666450 0.89706343 -0.32159345
v 0.16666450 0.91118341 -0.32640730
v 0.16666450 0.92692020 -0.32640730
v -0.05914061 0.94810301 0.56053829
v 0.19054173 0.92692020 0.28696360
v 0.19072545 0.92412343 0.28696360
v -0.02439022 0.94641816 0.54316093
v -0.02439022 0.94649190 0.56053829
v 0.02766234 0.94184007 0.54316093
v 0.14601990 0.90987296 0.87297702
v 0.14601990 0.89259313 0.87297702
v 0.16666450 0.89212228 0.28696360
v 0.02766234 0.89046010 0.36938819
v -0.11126649 0.89045443 0.36938819
v -0.18344935 0.89045443 0.36938819
v -0.18344935 0.89181026 -0.30820826
v -0.18344935 0.89706343 -0.32159345
v 0.04503743 0.89062461 0.85583453
v 0.04503743 0.89061894 0.82108001
v 0.02766234 0.89045443 0.87297702
v 0.02766234 0.89045443 0.43889735
v -0.18344935 0.89924751 -0.32241533
v -0.18344935 0.91118341 -0.32640730
v -0.18344935 0.92692020 -0.32640730
v -0.09389120 0.94644651 0.54316093
v -0.09389120 0.94657700 0.56053829
v -0.05914061 0.94840368 0.76894822
v -0.02439022 0.94637844 0.78632538
v 0.02766234 0.94133517 0.80370274
v 0.04059268 0.93929292 0.80370274
v 0.03864569 0.93831150 0.81333065
v -0.05914061 0.94151672 0.87297702
v 0.04503743 0.89064165 0.87297702
v -0.11126649 0.89044876 0.38676545
v 0.01028705 0.89044876 0.43889735
v -0.18344935 0.89044876 0.38676545
v -0.05914061 0.89044876 0.87297702
v 0.01028705 0.89044876 0.80370274
v -0.18344935 0.94197623 0.54316093
v -0.09389120 0.94644084 0.78632538
v -0.05914061 0.94835262 0.78632538
v -0.02439022 0.94579981 0.80370274
v -0.07034454 0.93957089 0.87297702
v -0.05914061 0.94608911 0.82108001
v -0.07651590 0.94541970 0.82108001
v -0.18344935 0.94133517 0.80370274
v -0.18344935 0.94095510 0.80534651
v -0.18344935 0.93884475 0.81380031
v -0.18344935 0.89044876 0.87297702
v -0.09389120 0.94610615 0.80370274
v -0.18344935 0.91922199 0.87297702
f 1 2 3
f 1 3 4
f 1 4 5
f 1 5 6
f 1 6 7
f 1 7 8
f 1 8 2
f 2 9 3
f 2 8 9
f 3 10 11
f 3 11 4
f 3 9 10
f 4 11 12
f 4 12 5
f 5 12 13
f 5 13 6
f 6 14 15
f 6 15 7
f 6 13 16
f 6 16 17
f 6 17 18
f 6 18 14
f 7 15 19
f 7 19 20
f 7 20 8
f 8 21 9
f 8 20 21
f 9 22 23
f 9 23 24
f 9 24 25
f 9 25 26
f 9 26 10
f 9 21 27
f 9 27 28
f 9 28 29
f 9 29 30
f 9 30 22
f 10 26 31
f 10 31 11
f 11 31 32
f 11 32 33
f 11 33 12
f 12 33 13
f 13 34 35
f 13 35 36
f 13 36 17
f 13 17 16
f 13 33 34
f 14 18 37
f 14 37 38
f 14 38 39
f 14 39 19
f 14 19 15
f 17 36 37
f 17 37 18
f 19 39 40
f 19 40 41
f 19 41 52
f 19 52 60
f 19 60 58
f 19 58 46
f 19 46 29
f 19 29 42
f 19 42 20
f 20 42 21
f 21 42 27
f 22 43 23
f 22 30 44
f 22 44 43
f 23 43 45
f 23 45 24
f 24 45 58
f 24 58 60
f 24 60 57
f 24 57 56
f 24 56 55
f 24 55 48
f 24 48 33
f 24 33 32
f 24 32 31
f 24 31 26
f 24 26 25
f 27 42 29
f 27 29 28
f 29 46 47
f 29 47 44
f 29 44 30
f 33 48 34
f 34 48 35
f 35 48 36
f 36 49 50
f 36 50 37
f 36 48 49
f 37 50 51
f 37 51 38
f 38 51 41
f 38 41 40
f 38 40 39
f 41 51 53
f 41 53 54
f 41 54 55
f 41 55 56
f 41 56 57
f 41 57 52
f 43 44 47
f 43 47 46
f 43 46 58
f 43 58 45
f 48 55 49
f 49 55 50
f 50 55 59
f 50 59 53
f 50 53 51
f 52 57 60
f 53 59 54
f 54 59 55

