# https://github.com/mikedh/trimesh
v -5.35279728 0.38696699 1.47456885
v -5.35279728 0.39425897 1.46821278
v -5.42810134 0.39633972 1.47028685
v -5.42810134 0.38765062 1.47717813
v -5.40694970 0.38696699 1.47674327
v -5.35279728 0.38696699 1.44640159
v -5.35279728 0.40210386 1.45951509
v -5.44546089 0.39665729 1.47062141
v -5.35279728 0.41078928 1.44904438
v -5.42810134 0.40346366 1.46158916
v -5.44546089 0.38797187 1.47737889
v -5.44546089 0.38696699 1.47781376
v -5.42889132 0.38696699 1.47747924
v -5.41072190 0.38696699 1.47687707
v -5.55453625 0.38696699 1.44201924
v -5.55453625 0.38929428 1.13606008
v -5.46068766 0.39191672 1.13606008
v -5.44546089 0.39238369 1.13606008
v -5.35279728 0.39659376 1.13606008
v -5.44546089 0.40373261 1.46195712
v -5.46282045 0.39653773 1.47045416
v -5.46282045 0.38784858 1.47734544
v -5.35279728 0.41752838 1.44034664
v -5.46282045 0.38696699 1.47771340
v -5.55453625 0.38696699 1.47406703
v -5.55453625 0.40733378 1.13606008
v -5.35279728 0.41656462 1.13606008
v -5.42810134 0.41214902 1.45024867
v -5.44546089 0.41241803 1.45044938
v -5.46282045 0.40356453 1.46178986
v -5.51493888 0.39573832 1.46948402
v -5.51493888 0.38705290 1.47674327
v -5.49757932 0.38696699 1.47711123
v -5.35279728 0.41826803 1.43666681
v -5.42810134 0.42077842 1.42927376
v -5.42810134 0.41814479 1.44158438
v -5.55076425 0.38696699 1.47456885
v -5.53231832 0.39535353 1.46904911
v -5.55453625 0.39156186 1.46965128
v -5.54215355 0.41616486 1.24397879
v -5.55183055 0.40766254 1.13606008
v -5.55453625 0.41721831 1.29031091
v -5.54969775 0.42028157 1.32503488
v -5.35858380 0.41664680 1.13606008
v -5.35279728 0.42218678 1.25555343
v -5.46282045 0.41224990 1.45021522
v -5.44546089 0.41819336 1.44178509
v -5.46282045 0.41804765 1.44151748
v -5.51493888 0.40249984 1.46078628
v -5.53231832 0.38696699 1.47624145
v -5.53231832 0.40217858 1.46035141
v -5.51884924 0.38696699 1.47667637
v -5.51493888 0.38696699 1.47677672
v -5.35279728 0.41973615 1.42927376
v -5.35279728 0.42086060 1.41191177
v -5.42810134 0.42171981 1.41191177
v -5.44546089 0.42086060 1.42927376
v -5.54738704 0.38696699 1.47500371
v -5.54969775 0.39436729 1.46757721
v -5.55453625 0.39428884 1.46647327
v -5.53219984 0.41648239 1.23819144
v -5.52631452 0.41613871 1.22705166
v -5.54969775 0.40786796 1.13606008
v -5.53231832 0.42199622 1.32503488
v -5.55453625 0.41832411 1.30767289
v -5.55453625 0.41943732 1.32546975
v -5.54969775 0.42076345 1.34239687
v -5.53231832 0.42255661 1.34239687
v -5.37416599 0.41627697 1.13606008
v -5.44546089 0.42190286 1.25555343
v -5.42810134 0.42211952 1.25555343
v -5.39334246 0.42220169 1.25555343
v -5.37596303 0.42222039 1.25555343
v -5.35279728 0.42274711 1.27294887
v -5.41072190 0.42362870 1.29031091
v -5.42810134 0.42433101 1.30767289
v -5.42810134 0.42500345 1.32503488
v -5.48019989 0.41777870 1.44101571
v -5.49757932 0.41749850 1.44051389
v -5.51493888 0.41720713 1.44001207
v -5.53231832 0.41086395 1.44814115
v -5.46282045 0.42057295 1.42927376
v -5.54969775 0.40111763 1.45887946
v -5.54361484 0.41643760 1.43874088
v -5.35279728 0.42175342 1.39454979
v -5.42810134 0.42448046 1.35979231
v -5.42810134 0.42356521 1.37715430
v -5.42810134 0.42264251 1.39454979
v -5.44546089 0.42177957 1.41191177
v -5.46282045 0.42149565 1.41191177
v -5.55453625 0.39931334 1.46001685
v -5.50838226 0.41610883 1.21019144
v -5.49757932 0.41641518 1.20681273
v -5.44546089 0.42481295 1.32503488
v -5.46282045 0.42122296 1.25555343
v -5.46282045 0.42029276 1.23819144
v -5.48019989 0.41939620 1.23819144
v -5.49757932 0.41737521 1.22082945
v -5.55453625 0.41986690 1.34199546
v -5.54969775 0.42024046 1.35979231
v -5.53231832 0.42210455 1.35979231
v -5.46282045 0.42466723 1.34239687
v -5.48019989 0.41826431 1.22082945
v -5.44546089 0.42083072 1.23819144
v -5.42810134 0.42359882 1.29031091
v -5.35279728 0.42309824 1.28452356
v -5.41072190 0.42485774 1.32503488
v -5.44546089 0.42508190 1.34239687
v -5.42810134 0.42512669 1.34239687
v -5.53231832 0.41685972 1.43944341
v -5.48019989 0.42007237 1.42927376
v -5.49757932 0.42055425 1.41191177
v -5.51493888 0.42006864 1.41191177
v -5.55453625 0.40063574 1.45821039
v -5.53231832 0.41839878 1.42927376
v -5.54687357 0.41701289 1.42927376
v -5.55453625 0.41489103 1.43007664
v -5.55453625 0.40891395 1.44616743
v -5.55453625 0.40672115 1.44941234
v -5.35279728 0.42353906 1.35979231
v -5.35279728 0.42428244 1.34239687
v -5.44546089 0.42452152 1.35979231
v -5.44546089 0.42269481 1.39454979
v -5.46282045 0.42239971 1.39454979
v -5.55453625 0.41932148 1.35979231
v -5.55108012 0.41733788 1.41191177
v -5.54969775 0.41934391 1.37715430
v -5.53231832 0.41951204 1.41191177
v -5.53231832 0.42038990 1.39454979
v -5.53231832 0.42125284 1.37715430
v -5.51493888 0.42093532 1.39454979
v -5.49757932 0.42315805 1.35979231
v -5.48019989 0.42368478 1.35979231
v -5.46282045 0.42419654 1.35979231
v -5.35279728 0.42379683 1.30767289
v -5.35279728 0.42431983 1.32503488
v -5.49757932 0.41955683 1.42927376
v -5.51493888 0.41902638 1.42927376
v -5.48019989 0.42192901 1.39454979
v -5.48019989 0.42282183 1.37715430
v -5.55453625 0.41579876 1.42114474
v -5.55453625 0.41501054 1.42927376
v -5.54969775 0.41843990 1.39454979
v -5.55453625 0.41679619 1.40940279
v -5.46282045 0.42330371 1.37715430
f 1 2 3
f 1 3 4
f 1 4 5
f 1 5 14
f 1 14 13
f 1 13 12
f 1 12 24
f 1 24 33
f 1 33 53
f 1 53 52
f 1 52 50
f 1 50 58
f 1 58 37
f 1 37 25
f 1 25 15
f 1 15 6
f 1 6 19
f 1 19 27
f 1 27 45
f 1 45 74
f 1 74 106
f 1 106 135
f 1 135 136
f 1 136 121
f 1 121 120
f 1 120 85
f 1 85 55
f 1 55 54
f 1 54 34
f 1 34 23
f 1 23 9
f 1 9 7
f 1 7 2
f 2 7 3
f 3 8 4
f 3 7 9
f 3 9 10
f 3 10 8
f 4 11 12
f 4 12 13
f 4 13 14
f 4 14 5
f 4 8 11
f 6 15 16
f 6 16 17
f 6 17 18
f 6 18 19
f 8 10 20
f 8 20 21
f 8 21 22
f 8 22 11
f 9 20 10
f 9 23 20
f 11 22 12
f 12 22 24
f 15 25 39
f 15 39 60
f 15 60 91
f 15 91 114
f 15 114 119
f 15 119 118
f 15 118 117
f 15 117 142
f 15 142 141
f 15 141 144
f 15 144 125
f 15 125 99
f 15 99 66
f 15 66 65
f 15 65 42
f 15 42 26
f 15 26 16
f 16 26 41
f 16 41 63
f 16 63 69
f 16 69 44
f 16 44 27
f 16 27 19
f 16 19 18
f 16 18 17
f 20 23 28
f 20 28 29
f 20 29 30
f 20 30 21
f 21 31 32
f 21 32 22
f 21 30 31
f 22 32 33
f 22 33 24
f 23 34 35
f 23 35 36
f 23 36 29
f 23 29 28
f 25 37 38
f 25 38 39
f 26 40 41
f 26 42 43
f 26 43 40
f 27 44 45
f 29 46 30
f 29 36 47
f 29 47 48
f 29 48 46
f 30 46 49
f 30 49 31
f 31 38 50
f 31 50 32
f 31 49 51
f 31 51 38
f 32 50 52
f 32 52 53
f 32 53 33
f 34 54 35
f 35 54 55
f 35 55 56
f 35 56 57
f 35 57 47
f 35 47 36
f 37 58 38
f 38 58 50
f 38 51 59
f 38 59 39
f 39 59 60
f 40 61 62
f 40 62 63
f 40 63 41
f 40 43 64
f 40 64 61
f 42 65 43
f 43 66 67
f 43 67 68
f 43 68 64
f 43 65 66
f 44 69 70
f 44 70 71
f 44 71 72
f 44 72 73
f 44 73 45
f 45 73 75
f 45 75 76
f 45 76 77
f 45 77 74
f 46 51 49
f 46 48 78
f 46 78 79
f 46 79 80
f 46 80 81
f 46 81 51
f 47 57 48
f 48 57 82
f 48 82 78
f 51 83 59
f 51 81 84
f 51 84 83
f 55 85 86
f 55 86 87
f 55 87 88
f 55 88 56
f 56 88 57
f 57 88 87
f 57 87 89
f 57 89 90
f 57 90 82
f 59 83 91
f 59 91 60
f 61 64 62
f 62 92 63
f 62 64 92
f 63 92 93
f 63 93 69
f 64 68 94
f 64 94 70
f 64 70 95
f 64 95 96
f 64 96 97
f 64 97 98
f 64 98 92
f 66 99 67
f 67 99 100
f 67 100 101
f 67 101 68
f 68 101 102
f 68 102 94
f 69 93 103
f 69 103 96
f 69 96 104
f 69 104 70
f 70 76 105
f 70 105 71
f 70 104 96
f 70 96 95
f 70 94 76
f 71 105 72
f 72 105 76
f 72 76 75
f 72 75 73
f 74 77 107
f 74 107 106
f 76 94 77
f 77 94 108
f 77 108 109
f 77 109 107
f 78 82 79
f 79 82 80
f 80 82 110
f 80 110 81
f 81 110 84
f 82 111 110
f 82 90 112
f 82 112 113
f 82 113 111
f 83 114 91
f 83 84 114
f 84 110 115
f 84 115 116
f 84 116 117
f 84 117 118
f 84 118 119
f 84 119 114
f 85 120 86
f 86 120 121
f 86 121 109
f 86 109 122
f 86 122 123
f 86 123 89
f 86 89 87
f 89 123 90
f 90 124 139
f 90 139 112
f 90 123 122
f 90 122 124
f 92 98 103
f 92 103 93
f 94 102 108
f 96 103 98
f 96 98 97
f 99 125 100
f 100 125 126
f 100 126 127
f 100 127 116
f 100 116 128
f 100 128 129
f 100 129 130
f 100 130 101
f 101 130 131
f 101 131 132
f 101 132 102
f 102 132 133
f 102 133 134
f 102 134 108
f 106 107 135
f 107 109 136
f 107 136 135
f 108 134 122
f 108 122 109
f 109 121 136
f 110 111 137
f 110 137 138
f 110 138 115
f 111 113 137
f 112 139 134
f 112 134 140
f 112 140 113
f 113 128 138
f 113 138 137
f 113 140 131
f 113 131 129
f 113 129 128
f 115 138 128
f 115 128 116
f 116 141 142
f 116 142 117
f 116 127 143
f 116 143 126
f 116 126 144
f 116 144 141
f 122 134 145
f 122 145 124
f 124 145 139
f 125 144 126
f 126 143 127
f 129 131 130
f 131 140 134
f 131 134 133
f 131 133 132
f 134 139 145

