# https://github.com/mikedh/trimesh
v -6.50533839 0.78955657 0.97682023
v -6.50533839 0.77219417 0.97673231
v -6.49124855 0.68326542 0.97534714
v -6.50533839 0.80694419 0.97660037
v -6.51934869 0.91116899 0.97481949
v -6.50533839 0.75480660 0.97644647
v -6.50446038 0.68326542 0.97541311
v -6.49425438 0.68326542 0.97541311
v -6.51800464 0.85905659 0.97444572
v -6.48788149 0.68326542 0.96015445
v -6.49410981 0.77219417 0.97336835
v -6.49359696 0.75480660 0.97387405
v -6.49308390 0.73744420 0.97431378
v -6.50832620 0.92853139 0.97457766
v -6.50758904 0.91116899 0.97481949
v -6.51949327 0.92853139 0.97457766
v -6.52474975 0.92853139 0.96015445
v -6.51762167 0.84166899 0.97426977
v -6.51622003 0.78955657 0.97292862
v -6.51572873 0.77219417 0.97224707
v -6.51523017 0.75480660 0.97143357
v -6.51472789 0.73744420 0.97042217
v -6.51432337 0.72358448 0.96954271
v -6.50955074 0.68326542 0.96015445
v -6.51717738 0.82430659 0.97394002
v -6.51675111 0.80858215 0.97356626
v -6.48784172 0.68326542 0.76909155
v -6.49646899 0.85348750 0.76117638
v -6.49649799 0.85300873 0.96921286
v -6.49616555 0.84166899 0.96998244
v -6.49565249 0.82430659 0.97103775
v -6.49513592 0.80694419 0.97193928
v -6.49462286 0.78955657 0.97270875
v -6.50314905 0.92853139 0.96015445
v -6.51059487 0.93951833 0.97242292
v -6.51756036 0.93951833 0.97242292
v -6.51932694 0.94067749 0.96015445
v -6.51929443 0.94070271 0.76906959
v -6.52467746 0.92853139 0.76906959
v -6.52397654 0.91116899 0.76906959
v -6.52404531 0.91116899 0.96015445
v -6.51432337 0.72358448 0.96699225
v -6.50951822 0.68326542 0.76909155
v -6.51431964 0.72366008 0.75968134
v -6.49066321 0.68326542 0.75640531
v -6.49407004 0.77219417 0.75574571
v -6.49458309 0.78955657 0.75640531
v -6.49509615 0.80694419 0.75715283
v -6.49560920 0.82430659 0.75807631
v -6.49612226 0.84166899 0.75913162
v -6.49646899 0.85348750 0.75992316
v -6.50309126 0.92853139 0.76906959
v -6.50888255 0.94067749 0.96015445
v -6.50884278 0.94070271 0.76906959
v -6.51753509 0.93951833 0.75673516
v -6.51945702 0.92853139 0.75458041
v -6.51931245 0.91116899 0.75433859
v -6.51807693 0.85905659 0.75462443
v -6.51766868 0.84166899 0.75482234
v -6.51720637 0.82430659 0.75517404
v -6.51672584 0.80694419 0.75561377
v -6.51623080 0.78955657 0.75620740
v -6.51573225 0.77219417 0.75691101
v -6.51523017 0.75480660 0.75779047
v -6.51472064 0.73744420 0.75875786
v -6.50864766 0.68326542 0.76607940
v -6.50443883 0.68326542 0.75374496
v -6.49124130 0.68326542 0.75383289
v -6.49355346 0.75480660 0.75521805
v -6.50828995 0.92853139 0.75458041
v -6.51056608 0.93951833 0.75673516
v -6.50534191 0.80858215 0.75244772
v -6.50533839 0.80694419 0.75242577
v -6.50533839 0.78955657 0.75220590
v -6.50533839 0.77219417 0.75229383
v -6.50533839 0.75480660 0.75260162
v -6.50533839 0.80858215 0.75244772
v -6.50756024 0.91116899 0.75433859
v -6.49304041 0.73744420 0.75480028
f 1 2 3
f 1 3 4
f 1 4 5
f 1 5 2
f 2 6 7
f 2 7 8
f 2 8 3
f 2 5 9
f 2 9 6
f 3 8 7
f 3 7 24
f 3 24 43
f 3 43 66
f 3 66 67
f 3 67 68
f 3 68 45
f 3 45 27
f 3 27 10
f 3 10 11
f 3 11 12
f 3 12 13
f 3 13 14
f 3 14 15
f 3 15 4
f 4 15 14
f 4 14 16
f 4 16 5
f 5 16 17
f 5 17 18
f 5 18 9
f 6 9 18
f 6 18 7
f 7 19 20
f 7 20 21
f 7 21 22
f 7 22 23
f 7 23 24
f 7 18 25
f 7 25 26
f 7 26 19
f 10 27 28
f 10 28 29
f 10 29 30
f 10 30 31
f 10 31 32
f 10 32 33
f 10 33 11
f 11 33 14
f 11 14 12
f 12 14 13
f 14 33 32
f 14 32 31
f 14 31 30
f 14 30 29
f 14 29 34
f 14 34 35
f 14 35 36
f 14 36 16
f 16 36 17
f 17 36 37
f 17 37 38
f 17 38 39
f 17 39 40
f 17 40 41
f 17 41 21
f 17 21 20
f 17 20 19
f 17 19 26
f 17 26 25
f 17 25 18
f 21 41 22
f 22 41 23
f 23 42 24
f 23 41 42
f 24 42 44
f 24 44 43
f 27 45 46
f 27 46 47
f 27 47 48
f 27 48 49
f 27 49 50
f 27 50 51
f 27 51 28
f 28 51 52
f 28 52 34
f 28 34 29
f 34 52 53
f 34 53 35
f 35 53 37
f 35 37 36
f 37 53 54
f 37 54 38
f 38 54 71
f 38 71 55
f 38 55 39
f 39 56 57
f 39 57 58
f 39 58 59
f 39 59 60
f 39 60 61
f 39 61 62
f 39 62 63
f 39 63 64
f 39 64 40
f 39 55 56
f 40 64 65
f 40 65 44
f 40 44 41
f 41 44 42
f 43 44 66
f 44 65 67
f 44 67 66
f 45 68 46
f 46 68 69
f 46 69 70
f 46 70 47
f 47 70 48
f 48 70 49
f 49 70 50
f 50 70 51
f 51 70 52
f 52 70 71
f 52 71 54
f 52 54 53
f 55 71 70
f 55 70 56
f 56 70 77
f 56 77 72
f 56 72 57
f 57 72 73
f 57 73 74
f 57 74 75
f 57 75 58
f 58 75 76
f 58 76 59
f 59 76 67
f 59 67 60
f 60 67 61
f 61 67 62
f 62 67 63
f 63 67 64
f 64 67 65
f 67 76 75
f 67 75 68
f 68 75 74
f 68 74 73
f 68 73 77
f 68 77 78
f 68 78 70
f 68 70 79
f 68 79 69
f 69 79 70
f 70 78 77
f 72 77 73

