# https://github.com/mikedh/trimesh
v -2.61332997 0.63174813 1.75873694
v -2.60123083 0.63174813 1.74544598
v -2.60421523 0.64222587 1.73405833
v -2.61332997 0.64321915 1.73605755
v -2.62570123 0.64331526 1.73623350
v -2.63091328 0.63174813 1.75421066
v -2.68096789 0.44048949 1.72532566
v -2.63983249 0.39553456 1.72532566
v -2.63076026 0.38925435 1.72532566
v -2.61332148 0.38614625 1.72532566
v -2.60023605 0.39261878 1.72532566
v -2.59539807 0.40732601 1.72532566
v -2.60055063 0.63174813 1.74237514
v -2.60087375 0.63328615 1.74071180
v -2.60247225 0.64430859 1.72463792
v -2.59410570 0.49419187 1.72532566
v -2.59410570 0.52892538 1.72532566
v -2.59411420 0.58102563 1.72532566
v -2.59425023 0.59775158 1.72532566
v -2.59456485 0.61511833 1.72532566
v -2.59459033 0.61579119 1.72532566
v -2.60457237 0.65930425 1.69871178
v -2.61332997 0.66036164 1.70085495
v -2.61806594 0.67788860 1.66653203
v -2.62608384 0.66068201 1.70149472
v -2.64156703 0.71239779 1.59649467
v -2.64217919 0.71268621 1.59539110
v -2.63727323 0.64062374 1.73146729
v -2.63638895 0.63174813 1.74840485
v -2.68096789 0.45769603 1.72532566
v -2.68096789 0.43991274 1.59535912
v -2.64298694 0.39265078 1.59535912
v -2.64127793 0.39287510 1.63782295
v -2.63069222 0.38582583 1.63782295
v -2.63069222 0.38550540 1.62043756
v -2.61332148 0.38614625 1.72465389
v -2.60023605 0.39261878 1.72465389
v -2.59539807 0.40732601 1.72465389
v -2.59732819 0.63174813 1.72607735
v -2.59753221 0.63315799 1.72463792
v -2.60130737 0.65055680 1.70560516
v -2.60316095 0.66100244 1.68989913
v -2.59411420 0.49419187 1.72465389
v -2.59411420 0.56362683 1.72465389
v -2.59412269 0.58102563 1.72465389
v -2.59445430 0.59839238 1.70730050
v -2.59425023 0.59839238 1.72465389
v -2.59457334 0.61579119 1.72465389
v -2.59552561 0.63174813 1.70869198
v -2.60348402 0.67804881 1.65034619
v -2.60647696 0.67545340 1.66192577
v -2.61972394 0.69509514 1.63150536
v -2.63070071 0.70070249 1.62045356
v -2.63070071 0.70816824 1.60490749
v -2.63070071 0.71223757 1.59622279
v -2.63070071 0.71259005 1.59539110
v -2.64045315 0.71281437 1.59539110
v -2.66814603 0.63171607 1.59535912
v -2.64399876 0.71153267 1.59539110
v -2.65175309 0.70650211 1.59539110
v -2.64121838 0.64389206 1.71988771
v -2.64149050 0.63174813 1.73973616
v -2.68096789 0.46102840 1.59535912
v -2.65035016 0.61579119 1.72532566
v -2.66233880 0.68580294 1.59539110
v -2.66520415 0.66792355 1.59539110
v -2.66732979 0.65055680 1.59539110
v -2.63651649 0.38886982 1.59535912
v -2.63069222 0.38605014 1.59535912
v -2.61332148 0.38665894 1.67254574
v -2.61332148 0.38640257 1.68991513
v -2.61332148 0.38621036 1.70730050
v -2.60045711 0.39281099 1.70730050
v -2.59570416 0.40732601 1.70730050
v -2.59436927 0.49419187 1.70730050
v -2.59562768 0.63315799 1.70726852
v -2.59877363 0.65055680 1.68989913
v -2.60150295 0.66446302 1.67257771
v -2.59436927 0.58102563 1.70730050
v -2.59513450 0.59839238 1.68991513
v -2.59530456 0.61579119 1.68991513
v -2.59469239 0.61579119 1.70730050
v -2.59557667 0.63174813 1.69132259
v -2.59567019 0.63315799 1.68989913
v -2.60128189 0.66898093 1.65576811
v -2.60293984 0.67945863 1.63782295
v -2.61760679 0.70698270 1.59539110
v -2.62127139 0.71069960 1.59539110
v -2.62236824 0.71127635 1.59539110
v -2.62565022 0.71182104 1.59539110
v -2.60531207 0.63171607 1.59535912
v -2.65889525 0.69836340 1.59539110
v -2.65572377 0.70230457 1.59539110
v -2.65633599 0.69272400 1.61093717
v -2.64346307 0.63174813 1.73359449
v -2.62042963 0.38979905 1.59535912
v -2.61332148 0.38941451 1.62043756
v -2.61332148 0.38794060 1.63782295
v -2.61332148 0.38707548 1.65519235
v -2.60076319 0.39303531 1.68991513
v -2.59624833 0.40732601 1.68991513
v -2.59529606 0.47682507 1.68991513
v -2.59509199 0.49419187 1.68991513
v -2.59748121 0.65055680 1.67257771
v -2.59509199 0.58102563 1.68991513
v -2.59606979 0.59839238 1.67254574
v -2.59712412 0.61579119 1.65519235
v -2.59619733 0.61579119 1.67254574
v -2.59722613 0.63171607 1.65663178
v -2.59645240 0.63315799 1.67257771
v -2.59562768 0.63174813 1.68989913
v -2.59771930 0.65055680 1.65519235
v -2.60345854 0.68022764 1.62045356
v -2.60918075 0.69282016 1.59539110
v -2.61493697 0.70291337 1.59539110
v -2.60022756 0.66792355 1.63782295
v -2.60364558 0.63171607 1.60565920
v -2.60117983 0.61579119 1.62043756
v -2.60361156 0.61579119 1.60554722
v -2.60529509 0.61809822 1.59535912
v -2.60682555 0.68513009 1.59539110
v -2.60584775 0.67189672 1.59539110
v -2.60572022 0.66792355 1.59539110
v -2.60547363 0.65055680 1.59539110
v -2.60365407 0.63315799 1.60567518
v -2.61369560 0.39252262 1.59535912
v -2.60347552 0.39649584 1.62043756
v -2.60248924 0.39498987 1.63782295
v -2.60173250 0.39399654 1.65519235
v -2.60120536 0.39341979 1.67254574
v -2.59713261 0.40732601 1.67254574
v -2.59624833 0.47682507 1.67254574
v -2.59721764 0.47682507 1.65519235
v -2.59606979 0.49419187 1.67254574
v -2.59704759 0.59839238 1.65519235
v -2.59730266 0.63171607 1.65519235
v -2.59866308 0.61579119 1.63782295
v -2.59867157 0.63174813 1.63924641
v -2.59732819 0.63315799 1.65519235
v -2.59906268 0.65055680 1.63782295
v -2.60604328 0.68503398 1.60305219
v -2.60417272 0.67904209 1.60882597
v -2.60195355 0.66792355 1.62045356
v -2.60126485 0.63171607 1.62043756
v -2.60105229 0.63171607 1.62186102
v -2.59865458 0.59839238 1.63782295
v -2.60117983 0.49419187 1.62043756
v -2.60361156 0.49419187 1.60554722
v -2.60529509 0.49419187 1.59535912
v -2.60387513 0.66792355 1.60695468
v -2.60374759 0.65055680 1.60618699
v -2.60513353 0.65055680 1.59750229
v -2.60127335 0.63315799 1.62045356
v -2.60662997 0.40732601 1.59535912
v -2.60418975 0.39777749 1.60916186
v -2.59820393 0.40732601 1.65519235
v -2.59879061 0.47682507 1.63782295
v -2.59704759 0.49419187 1.65519235
v -2.59973439 0.40732601 1.63782295
v -2.59879911 0.63174813 1.63782295
v -2.59881614 0.63315799 1.63782295
v -2.60149440 0.65055680 1.62045356
v -2.59865458 0.49419187 1.63782295
v -2.60360306 0.42472482 1.60594708
v -2.60366256 0.40732601 1.60626697
v -2.60540559 0.47961275 1.59535912
v -2.60655344 0.41056227 1.59535912
v -2.60599228 0.40732601 1.59758227
v -2.60171551 0.40732601 1.62043756
f 1 2 3
f 1 3 4
f 1 4 5
f 1 5 6
f 1 6 7
f 1 7 8
f 1 8 9
f 1 9 10
f 1 10 11
f 1 11 12
f 1 12 2
f 2 13 14
f 2 14 15
f 2 15 3
f 2 12 16
f 2 16 17
f 2 17 18
f 2 18 19
f 2 19 20
f 2 20 21
f 2 21 13
f 3 15 22
f 3 22 23
f 3 23 4
f 4 23 24
f 4 24 25
f 4 25 5
f 5 25 26
f 5 26 6
f 6 26 27
f 6 27 28
f 6 28 29
f 6 29 30
f 6 30 7
f 7 30 63
f 7 63 31
f 7 31 32
f 7 32 8
f 8 32 33
f 8 33 9
f 9 33 34
f 9 34 10
f 10 34 35
f 10 35 36
f 10 36 37
f 10 37 11
f 11 37 38
f 11 38 12
f 12 38 16
f 13 39 40
f 13 40 14
f 13 21 39
f 14 40 41
f 14 41 15
f 15 41 42
f 15 42 22
f 16 43 44
f 16 44 17
f 16 38 43
f 17 44 18
f 18 45 46
f 18 46 47
f 18 47 19
f 18 44 45
f 19 47 20
f 20 48 21
f 20 47 48
f 21 48 49
f 21 49 39
f 22 42 50
f 22 50 51
f 22 51 52
f 22 52 23
f 23 52 24
f 24 52 53
f 24 53 25
f 25 53 26
f 26 53 54
f 26 54 55
f 26 55 56
f 26 56 57
f 26 57 27
f 27 57 58
f 27 58 59
f 27 59 28
f 28 59 60
f 28 60 29
f 29 60 61
f 29 61 62
f 29 62 30
f 30 62 64
f 30 64 65
f 30 65 66
f 30 66 67
f 30 67 63
f 31 63 58
f 31 58 91
f 31 91 120
f 31 120 149
f 31 149 166
f 31 166 167
f 31 167 154
f 31 154 126
f 31 126 96
f 31 96 69
f 31 69 68
f 31 68 32
f 32 68 35
f 32 35 34
f 32 34 33
f 35 68 69
f 35 69 70
f 35 70 71
f 35 71 72
f 35 72 36
f 36 72 37
f 37 72 71
f 37 71 70
f 37 70 73
f 37 73 38
f 38 73 74
f 38 74 75
f 38 75 43
f 39 49 76
f 39 76 40
f 40 76 77
f 40 77 41
f 41 77 78
f 41 78 50
f 41 50 42
f 43 75 79
f 43 79 44
f 44 79 45
f 45 79 46
f 46 80 81
f 46 81 82
f 46 82 47
f 46 79 80
f 47 82 48
f 48 82 83
f 48 83 49
f 49 83 84
f 49 84 76
f 50 78 77
f 50 77 85
f 50 85 86
f 50 86 87
f 50 87 88
f 50 88 51
f 51 88 52
f 52 88 89
f 52 89 90
f 52 90 55
f 52 55 54
f 52 54 53
f 55 90 56
f 56 90 91
f 56 91 57
f 57 91 58
f 58 63 67
f 58 67 66
f 58 66 65
f 58 65 92
f 58 92 93
f 58 93 60
f 58 60 59
f 60 93 94
f 60 94 61
f 61 94 62
f 62 94 92
f 62 92 95
f 62 95 64
f 64 95 92
f 64 92 65
f 69 96 97
f 69 97 98
f 69 98 99
f 69 99 70
f 70 99 100
f 70 100 73
f 73 100 74
f 74 100 101
f 74 101 75
f 75 101 102
f 75 102 103
f 75 103 105
f 75 105 79
f 76 84 104
f 76 104 77
f 77 104 85
f 79 105 80
f 80 105 106
f 80 106 107
f 80 107 108
f 80 108 81
f 81 108 109
f 81 109 110
f 81 110 111
f 81 111 83
f 81 83 82
f 83 111 84
f 84 111 112
f 84 112 104
f 85 104 86
f 86 113 114
f 86 114 115
f 86 115 87
f 86 104 116
f 86 116 113
f 87 115 91
f 87 91 88
f 88 91 89
f 89 91 90
f 91 117 118
f 91 118 119
f 91 119 120
f 91 115 114
f 91 114 121
f 91 121 122
f 91 122 123
f 91 123 124
f 91 124 125
f 91 125 117
f 92 94 93
f 96 126 97
f 97 126 127
f 97 127 128
f 97 128 129
f 97 129 98
f 98 129 130
f 98 130 99
f 99 130 100
f 100 130 101
f 101 130 129
f 101 129 131
f 101 131 102
f 102 131 132
f 102 132 103
f 103 132 133
f 103 133 134
f 103 134 106
f 103 106 105
f 104 112 116
f 106 134 158
f 106 158 135
f 106 135 107
f 107 136 108
f 107 135 137
f 107 137 138
f 107 138 136
f 108 136 109
f 109 136 139
f 109 139 110
f 110 139 112
f 110 112 111
f 112 139 140
f 112 140 116
f 113 141 114
f 113 116 142
f 113 142 141
f 114 141 121
f 116 140 143
f 116 143 142
f 117 125 153
f 117 153 144
f 117 144 118
f 118 144 145
f 118 145 137
f 118 137 146
f 118 146 163
f 118 163 147
f 118 147 148
f 118 148 119
f 119 148 149
f 119 149 120
f 121 141 142
f 121 142 122
f 122 142 150
f 122 150 123
f 123 150 151
f 123 151 152
f 123 152 124
f 124 152 153
f 124 153 125
f 126 154 155
f 126 155 127
f 127 155 156
f 127 156 128
f 128 156 131
f 128 131 129
f 131 156 133
f 131 133 132
f 133 157 158
f 133 158 134
f 133 156 159
f 133 159 157
f 135 146 137
f 135 158 163
f 135 163 146
f 136 138 140
f 136 140 139
f 137 145 160
f 137 160 138
f 138 160 161
f 138 161 140
f 140 161 162
f 140 162 143
f 142 143 150
f 143 162 150
f 144 153 145
f 145 153 162
f 145 162 161
f 145 161 160
f 147 163 164
f 147 164 148
f 148 164 149
f 149 164 165
f 149 165 166
f 150 162 151
f 151 162 153
f 151 153 152
f 154 167 168
f 154 168 155
f 155 168 165
f 155 165 169
f 155 169 159
f 155 159 156
f 157 159 169
f 157 169 163
f 157 163 158
f 163 169 165
f 163 165 164
f 165 168 166
f 166 168 167

