# https://github.com/mikedh/trimesh
v -4.67242853 0.23429557 1.75819543
v -4.67242853 0.21618818 1.75868223
v -4.67242853 0.25417679 1.75819543
v -4.66725718 0.25091371 1.75819543
v -4.62875852 0.25417679 1.75836232
v -3.72538203 0.23304245 1.76340419
v -3.72538203 0.21617617 1.76359891
v -4.67242853 0.20064772 1.76229847
v -3.72538203 0.20455249 1.76594945
v -4.67242853 0.25417679 1.78161744
v -4.66629943 0.25417679 1.75819543
v -4.40830134 0.25417679 1.76325814
v -3.98912619 0.25060499 1.76325814
v -3.70795231 0.23304245 1.76466987
v -3.70795231 0.21617617 1.76486457
v -3.70795231 0.20538193 1.76658227
v -4.67242853 0.19769947 1.76746549
v -3.72538203 0.19973968 1.77681204
v -4.67242853 0.19354646 1.77681204
v -4.67242853 0.25383773 1.78279271
v -4.67214125 0.25417679 1.78274404
v -4.40830134 0.25417679 1.77869664
v -3.98912619 0.25060499 1.77875228
v -3.69416177 0.23304245 1.79417687
v -3.69550250 0.23304245 1.77731968
v -3.69559825 0.23304245 1.77681204
v -3.69818398 0.23304245 1.76699953
v -3.69827977 0.21617617 1.76709691
v -3.69866285 0.20661693 1.76750026
v -3.70795231 0.20136811 1.77681204
v -3.70795231 0.19944297 1.79417687
v -3.72538203 0.19785689 1.79417687
v -4.67242853 0.19306821 1.78011530
v -4.67242853 0.21833133 1.82867703
v -3.71187877 0.23304245 1.82892043
v -3.69454480 0.23304245 1.82924033
v -3.69416177 0.23304245 1.82892043
v -3.69425751 0.21617617 1.79417687
v -3.69578979 0.21617617 1.77681204
v -3.69760940 0.20523052 1.77681204
v -3.69684324 0.20426800 1.79417687
v -3.70795231 0.19941873 1.81154865
v -3.72538203 0.19785078 1.81154865
v -4.67242853 0.19232959 1.79655521
v -4.67242853 0.19237195 1.79416294
v -4.67242853 0.19254148 1.82867703
v -3.81281791 0.21241660 1.82924033
v -3.79519665 0.21651513 1.82924033
v -3.69435331 0.21596428 1.82924033
v -3.69425751 0.21617617 1.82892043
v -3.69684324 0.20426189 1.82892043
v -3.70795231 0.19941873 1.82924033
v -3.72538203 0.19785078 1.82924033
v -3.79490931 0.19789314 1.82924033
v -3.81281791 0.20238521 1.82924033
v -3.69684324 0.20426189 1.82924033
f 1 2 8
f 1 8 17
f 1 17 19
f 1 19 33
f 1 33 45
f 1 45 44
f 1 44 46
f 1 46 34
f 1 34 20
f 1 20 10
f 1 10 3
f 1 3 11
f 1 11 4
f 1 4 5
f 1 5 6
f 1 6 7
f 1 7 2
f 2 7 9
f 2 9 8
f 3 10 21
f 3 21 22
f 3 22 12
f 3 12 5
f 3 5 11
f 4 11 5
f 5 12 13
f 5 13 6
f 6 14 15
f 6 15 7
f 6 13 14
f 7 15 16
f 7 16 9
f 8 9 17
f 9 16 18
f 9 18 19
f 9 19 17
f 10 20 21
f 12 22 23
f 12 23 13
f 13 23 37
f 13 37 24
f 13 24 25
f 13 25 26
f 13 26 27
f 13 27 14
f 14 27 28
f 14 28 15
f 15 28 29
f 15 29 16
f 16 30 18
f 16 29 30
f 18 30 31
f 18 31 32
f 18 32 33
f 18 33 19
f 20 34 21
f 21 34 35
f 21 35 36
f 21 36 22
f 22 36 23
f 23 36 37
f 24 37 50
f 24 50 38
f 24 38 25
f 25 39 26
f 25 38 39
f 26 39 28
f 26 28 27
f 28 39 29
f 29 39 40
f 29 40 30
f 30 40 31
f 31 40 41
f 31 41 42
f 31 42 32
f 32 42 43
f 32 43 44
f 32 44 45
f 32 45 33
f 34 46 55
f 34 55 47
f 34 47 48
f 34 48 36
f 34 36 35
f 36 49 37
f 36 48 47
f 36 47 55
f 36 55 54
f 36 54 53
f 36 53 52
f 36 52 56
f 36 56 49
f 37 49 50
f 38 50 56
f 38 56 51
f 38 51 41
f 38 41 40
f 38 40 39
f 41 51 42
f 42 51 56
f 42 56 52
f 42 52 53
f 42 53 43
f 43 53 44
f 44 53 46
f 46 53 54
f 46 54 55
f 49 56 50

