# https://github.com/mikedh/trimesh
v -6.76194541 0.11451608 4.27910900
v -6.74817558 0.11451608 4.22724658
v -6.76194541 0.11451608 4.28034389
v -6.76135095 0.71652055 4.28254794
v -6.74115852 0.60815264 4.15897284
v -6.74115852 0.60155278 4.15897284
v -6.69674502 0.11451608 4.15897284
v -6.76131781 0.11451608 4.29101903
v -6.76135095 0.55676780 4.29104555
v -6.76135095 0.71652055 4.29104555
v -6.67173149 0.71652055 4.15897284
v -6.73988717 0.65918396 4.15897284
v -6.74048163 0.65052164 4.15897284
v -6.68807715 0.35776928 4.15895958
v -6.68807715 0.11457500 4.15895958
v -6.68807715 0.11451608 4.15897284
v -6.74857181 0.11451608 4.29459074
v -6.75360750 0.55670888 4.29319656
v -6.74857181 0.71652055 4.29459074
v -6.65262875 0.71652055 4.15897284
v -6.59330622 0.35776928 4.15895958
v -6.59330622 0.11457500 4.15895958
v -6.68807715 0.11451608 4.29460399
v -6.73120273 0.11451608 4.29460399
v -6.73805451 0.55670888 4.29460399
v -6.59327329 0.71652055 4.29459074
v -6.59327329 0.71652055 4.24548995
v -6.59328986 0.65959646 4.15897284
v -6.59330622 0.11457500 4.29459074
v -6.59328986 0.35776928 4.15897284
v -6.59327329 0.55676780 4.23185392
v -6.59330622 0.20143429 4.29460399
v -6.59328986 0.55670888 4.29460399
v -6.59327329 0.55676780 4.29459074
v -6.59327329 0.66484103 4.23185392
v -6.59328986 0.35776928 4.29460399
f 1 2 7
f 1 7 16
f 1 16 23
f 1 23 24
f 1 24 17
f 1 17 8
f 1 8 3
f 1 3 10
f 1 10 4
f 1 4 5
f 1 5 6
f 1 6 2
f 2 6 7
f 3 8 9
f 3 9 10
f 4 10 19
f 4 19 26
f 4 26 27
f 4 27 20
f 4 20 11
f 4 11 12
f 4 12 13
f 4 13 5
f 5 13 14
f 5 14 15
f 5 15 6
f 6 15 7
f 7 15 22
f 7 22 16
f 8 17 9
f 9 17 18
f 9 18 10
f 10 18 19
f 11 20 21
f 11 21 14
f 11 14 12
f 12 14 13
f 14 21 22
f 14 22 15
f 16 22 29
f 16 29 23
f 17 24 25
f 17 25 19
f 17 19 18
f 19 25 33
f 19 33 26
f 20 27 28
f 20 28 21
f 21 28 30
f 21 30 22
f 22 30 31
f 22 31 34
f 22 34 29
f 23 29 32
f 23 32 36
f 23 36 33
f 23 33 25
f 23 25 24
f 26 33 36
f 26 36 34
f 26 34 31
f 26 31 35
f 26 35 27
f 27 35 28
f 28 35 31
f 28 31 30
f 29 34 36
f 29 36 32

