# https://github.com/mikedh/trimesh
v -4.50597257 0.53751246 4.34831876
v -4.47276114 0.50601471 4.36029486
v -4.47276114 0.50940730 4.34831876
v -4.47276114 0.50625295 4.33395737
v -4.51067302 0.53751246 4.33349154
v -4.51119695 0.53751246 4.36036715
v -4.47276114 0.49797003 4.36018239
v -4.61372832 0.53751246 4.38293741
v -4.61116999 0.42159704 4.38504182
v -4.47276114 0.46106004 4.30317824
v -4.55441025 0.53751246 4.30298540
v -4.47276114 0.44725137 4.34192535
v -4.62148017 0.53751246 4.38293741
v -4.60184615 0.42159704 4.37894544
v -4.62148017 0.42468329 4.38293741
v -4.62148017 0.42159704 4.38290530
v -4.47276114 0.43867345 4.30298540
v -4.47924931 0.46102596 4.30298540
v -4.63018759 0.53751246 4.30298540
v -4.47276114 0.44233836 4.33064002
v -4.59984271 0.42159704 4.37426270
v -4.47276114 0.43760690 4.30298540
v -4.63018759 0.42468329 4.30298540
v -4.63009511 0.42159704 4.30298540
v -4.59759268 0.42159704 4.36569239
v -4.59088880 0.42159704 4.30298540
f 1 2 3
f 1 3 4
f 1 4 5
f 1 5 11
f 1 11 19
f 1 19 13
f 1 13 8
f 1 8 6
f 1 6 2
f 2 7 12
f 2 12 20
f 2 20 22
f 2 22 17
f 2 17 10
f 2 10 4
f 2 4 3
f 2 6 8
f 2 8 9
f 2 9 7
f 4 10 11
f 4 11 5
f 7 9 12
f 8 13 9
f 9 14 12
f 9 13 15
f 9 15 16
f 9 16 24
f 9 24 26
f 9 26 25
f 9 25 21
f 9 21 14
f 10 17 18
f 10 18 11
f 11 18 17
f 11 17 22
f 11 22 26
f 11 26 24
f 11 24 23
f 11 23 19
f 12 14 20
f 13 19 23
f 13 23 15
f 14 21 22
f 14 22 20
f 15 23 16
f 16 23 24
f 21 25 22
f 22 25 26

