# https://github.com/mikedh/trimesh
v -6.36636564 0.00136953 0.76910916
v -6.36635570 0.00136953 1.02964642
v -6.36636564 0.00136953 0.92541474
v -6.38088776 0.00884517 1.26888446
v -6.38090764 0.00891197 0.81606794
v -6.38089770 0.00897877 0.66487747
v -6.36636564 0.00150302 0.69959347
v -6.35273480 0.00904546 0.63796003
v -6.35245745 0.00897877 0.90805674
v -6.35244751 0.00891197 1.23810968
v -6.35245745 0.00891197 1.35969936
v -6.36636564 0.00143622 1.35969936
v -6.38088776 0.00884517 1.49453805
v -6.44835785 0.04869327 0.63796003
v -6.38036269 0.00924575 0.63796003
v -6.36636564 0.00163651 0.63796003
v -6.34995121 0.01792284 0.63796003
v -6.34722707 0.02513149 0.90805674
v -6.34718751 0.02513149 1.23810968
v -6.34722707 0.02513149 1.35969936
v -6.35279424 0.00904546 1.49453805
v -6.35597406 0.00717655 1.49453805
v -6.36636564 0.00150302 1.49453805
v -6.36985243 0.00323844 1.49453805
v -6.44836759 0.05062898 1.49453805
v -6.44838747 0.05069567 0.95040352
v -6.44835785 0.67244514 0.63796003
v -6.44838747 0.05062898 1.26888446
v -6.44838747 0.05062898 1.08507443
v -6.34768275 0.02519829 0.63796003
v -6.34760363 0.03474314 0.63796003
v -6.34757380 0.04261926 0.63796003
v -6.34722707 0.63299757 0.90805674
v -6.34719745 0.02519829 1.02964642
v -6.34718751 0.63299757 1.23810968
v -6.34721713 0.11203624 1.35969936
v -6.34779170 0.02940339 1.49453805
v -6.34785115 0.02513149 1.49453805
v -6.44836759 0.53975182 1.49453805
v -6.44838747 0.28164075 0.95040352
v -6.40106632 0.67244514 0.63796003
v -6.44838747 0.65942941 1.00256120
v -6.44838747 0.68325817 1.12398321
v -6.44838747 0.65949621 1.26888446
v -6.34757380 0.05997353 0.63796003
v -6.34719745 0.63299757 1.02964642
v -6.34758375 0.61571010 0.63796003
v -6.34759369 0.63306432 0.63796003
v -6.34997110 0.64247567 0.63796003
v -6.35159560 0.65041854 1.15131988
v -6.34723702 0.63299757 1.35969936
v -6.34721713 0.61564330 1.35969936
v -6.34779170 0.61564330 1.49453805
v -6.44835785 0.65956290 1.49453805
v -6.38374073 0.67204466 0.63796003
v -6.40108620 0.68325817 1.12398321
v -6.38578135 0.68325817 1.12423477
v -6.37729182 0.68325817 1.12532488
v -6.37604367 0.68325817 1.12607955
v -6.44838747 0.68325817 1.17463155
v -6.35210099 0.65041854 0.63796003
v -6.36683106 0.68325817 1.15131988
v -6.35267535 0.65081907 1.49453805
v -6.34783147 0.63299757 1.49453805
v -6.38374073 0.65956290 1.49453805
v -6.36643482 0.66597065 0.63796003
v -6.37049639 0.68325817 1.13371033
v -6.40108620 0.68325817 1.17463155
v -6.35485475 0.65549135 0.63796003
v -6.36717779 0.68325817 1.15350011
v -6.35736099 0.65929591 1.49453805
v -6.35391377 0.65308846 1.49453805
v -6.35713315 0.65956290 0.63796003
v -6.36609804 0.65949621 1.49453805
v -6.38372085 0.68325817 1.17354144
v -6.37053595 0.68325817 1.16641377
f 1 2 3
f 1 3 13
f 1 13 4
f 1 4 5
f 1 5 6
f 1 6 7
f 1 7 8
f 1 8 9
f 1 9 10
f 1 10 2
f 2 10 11
f 2 11 12
f 2 12 13
f 2 13 3
f 4 13 14
f 4 14 5
f 5 14 6
f 6 14 15
f 6 15 16
f 6 16 7
f 7 16 8
f 8 16 15
f 8 15 14
f 8 14 27
f 8 27 41
f 8 41 55
f 8 55 66
f 8 66 73
f 8 73 69
f 8 69 61
f 8 61 49
f 8 49 48
f 8 48 47
f 8 47 45
f 8 45 32
f 8 32 31
f 8 31 30
f 8 30 17
f 8 17 18
f 8 18 9
f 9 18 19
f 9 19 10
f 10 19 11
f 11 19 20
f 11 20 21
f 11 21 22
f 11 22 23
f 11 23 12
f 12 23 24
f 12 24 13
f 13 24 23
f 13 23 22
f 13 22 21
f 13 21 38
f 13 38 37
f 13 37 53
f 13 53 64
f 13 64 63
f 13 63 72
f 13 72 71
f 13 71 74
f 13 74 65
f 13 65 54
f 13 54 39
f 13 39 25
f 13 25 14
f 14 26 40
f 14 40 27
f 14 25 28
f 14 28 29
f 14 29 26
f 17 30 18
f 18 30 31
f 18 31 32
f 18 32 45
f 18 45 33
f 18 33 46
f 18 46 34
f 18 34 19
f 19 35 52
f 19 52 36
f 19 36 20
f 19 34 46
f 19 46 35
f 20 36 37
f 20 37 38
f 20 38 21
f 25 39 44
f 25 44 28
f 26 29 28
f 26 28 44
f 26 44 60
f 26 60 43
f 26 43 42
f 26 42 40
f 27 40 42
f 27 42 43
f 27 43 56
f 27 56 41
f 33 45 47
f 33 47 48
f 33 48 49
f 33 49 50
f 33 50 46
f 35 50 51
f 35 51 52
f 35 46 50
f 36 52 53
f 36 53 37
f 39 54 44
f 41 56 57
f 41 57 58
f 41 58 59
f 41 59 55
f 43 60 68
f 43 68 75
f 43 75 76
f 43 76 70
f 43 70 62
f 43 62 67
f 43 67 59
f 43 59 58
f 43 58 57
f 43 57 56
f 44 54 60
f 49 61 50
f 50 62 63
f 50 63 51
f 50 61 62
f 51 63 64
f 51 64 53
f 51 53 52
f 54 65 68
f 54 68 60
f 55 59 67
f 55 67 62
f 55 62 66
f 61 69 62
f 62 70 71
f 62 71 72
f 62 72 63
f 62 69 73
f 62 73 66
f 65 74 68
f 68 74 75
f 70 76 71
f 71 76 75
f 71 75 74

