# https://github.com/mikedh/trimesh
v -2.62972121 0.35753533 2.47286105
v -2.64745856 0.35761539 2.48990266
v -2.65153990 0.35760876 2.48956370
v -2.64846701 0.35770880 2.47128310
v -2.61452292 0.35762875 2.46193244
v -2.65153990 0.35981000 2.49863386
v -2.61331868 0.38875409 2.58134066
v -2.63068818 0.38546542 2.58134066
v -2.65153990 0.35836923 2.47262731
v -2.64394076 0.36012359 2.46193244
v -2.63031447 0.35778212 2.46193244
v -2.60584408 0.36399253 2.46193244
v -2.60309747 0.39584499 2.58134066
v -2.65153990 0.36107079 2.50081957
v -2.64165682 0.39254970 2.58134066
v -2.65153990 0.37023628 2.46490130
v -2.64646787 0.36457963 2.46193244
v -2.60218393 0.36718115 2.46193244
v -2.60150766 0.40398323 2.58134066
v -2.59793052 0.37302463 2.46193244
v -2.59257374 0.38994145 2.46193244
v -2.65153990 0.36323879 2.50233906
v -2.64165682 0.40032101 2.58134066
v -2.65153990 0.38387784 2.51126899
v -2.65153990 0.37204409 2.50734170
v -2.65153990 0.36858195 2.50565858
v -2.65153990 0.37287125 2.46354544
v -2.65023479 0.37307133 2.46193244
v -2.60096188 0.40729857 2.58134066
v -2.59104918 0.40729857 2.46193244
v -2.65153990 0.38936113 2.51078975
v -2.62927630 0.42567626 2.58134066
v -2.65153990 0.40024096 2.50569364
v -2.65153990 0.38993482 2.46625716
v -2.64912547 0.38993482 2.46193244
v -2.60082543 0.42467562 2.58134066
v -2.59094240 0.42467562 2.46193244
v -2.62636362 0.42567626 2.46193244
v -2.65153990 0.40108148 2.48930655
v -2.65153990 0.40108816 2.49232217
v -2.60099155 0.42567626 2.58134066
v -2.65153990 0.40001416 2.47488313
v -2.64417207 0.40028767 2.46193244
v -2.59096016 0.42567626 2.46193244
v -2.65153990 0.40028767 2.47662471
f 1 2 3
f 1 3 4
f 1 4 5
f 1 5 2
f 2 6 3
f 2 5 7
f 2 7 8
f 2 8 6
f 3 6 14
f 3 14 22
f 3 22 26
f 3 26 25
f 3 25 24
f 3 24 31
f 3 31 33
f 3 33 40
f 3 40 39
f 3 39 45
f 3 45 42
f 3 42 34
f 3 34 27
f 3 27 16
f 3 16 9
f 3 9 4
f 4 10 11
f 4 11 5
f 4 9 10
f 5 11 10
f 5 10 17
f 5 17 28
f 5 28 35
f 5 35 43
f 5 43 38
f 5 38 44
f 5 44 37
f 5 37 30
f 5 30 21
f 5 21 20
f 5 20 18
f 5 18 12
f 5 12 13
f 5 13 7
f 6 8 15
f 6 15 14
f 7 13 19
f 7 19 29
f 7 29 36
f 7 36 41
f 7 41 32
f 7 32 23
f 7 23 15
f 7 15 8
f 9 16 17
f 9 17 10
f 12 18 13
f 13 18 20
f 13 20 21
f 13 21 19
f 14 15 22
f 15 23 24
f 15 24 25
f 15 25 26
f 15 26 22
f 16 27 17
f 17 27 28
f 19 21 29
f 21 30 29
f 23 31 24
f 23 32 33
f 23 33 31
f 27 34 35
f 27 35 28
f 29 30 36
f 30 37 36
f 32 38 39
f 32 39 40
f 32 40 33
f 32 41 44
f 32 44 38
f 34 42 35
f 35 42 43
f 36 37 44
f 36 44 41
f 38 43 42
f 38 42 45
f 38 45 39

