# https://github.com/mikedh/trimesh
v -6.63891112 0.68326542 1.11796543
v -6.38582443 0.68326542 1.12422182
v -6.63891112 0.68326542 1.17863015
v -6.63891112 0.80864533 1.11901050
v -6.62396874 1.17835741 1.10649058
v -6.62396874 1.09680204 1.10649058
v -6.40111313 1.09680204 1.10649058
v -6.39168428 1.09721942 1.10649058
v -6.38377367 1.09772026 1.10649058
v -6.37149474 1.10414787 1.10649058
v -6.37732786 0.68326542 1.12533047
v -6.63891112 0.80831144 1.17771920
v -6.40113964 0.68326542 1.17461923
v -6.40111313 1.53604908 1.17418147
v -6.62396874 1.53604908 1.17428736
v -6.63891112 0.80864533 1.17557963
v -6.62396874 1.53604908 1.12307786
v -6.40111313 1.17835741 1.10649058
v -6.36928407 1.11257887 1.10649058
v -6.37607598 0.68326542 1.12607903
v -6.36760613 1.11967427 1.10649058
v -6.38372023 0.68326542 1.17354589
v -6.38435963 1.53604908 1.17310104
v -6.40060691 1.53604908 1.12314144
v -6.38377367 1.17727223 1.10649058
v -6.37050923 0.68326542 1.13371944
v -6.36760613 1.15440000 1.10649058
v -6.36680703 0.68326542 1.15129534
v -6.37053595 0.68326542 1.16644210
v -6.38377367 1.53604908 1.17305868
v -6.38369371 1.53604908 1.12393940
v -6.37146823 1.17034378 1.10649058
v -6.38316098 1.53604908 1.12396757
v -6.37695503 1.52895367 1.12530924
v -6.37226732 1.53604908 1.13155154
v -6.37192101 1.53604908 1.13227887
v -6.36760613 1.53604908 1.15128830
v -6.36717986 0.68326542 1.15344905
v -6.37133504 1.53604908 1.16596193
v -6.38233537 1.53604908 1.12432777
f 1 2 11
f 1 11 20
f 1 20 26
f 1 26 28
f 1 28 38
f 1 38 29
f 1 29 22
f 1 22 13
f 1 13 3
f 1 3 12
f 1 12 16
f 1 16 4
f 1 4 5
f 1 5 6
f 1 6 7
f 1 7 8
f 1 8 9
f 1 9 10
f 1 10 2
f 2 10 11
f 3 13 14
f 3 14 15
f 3 15 12
f 4 16 15
f 4 15 17
f 4 17 5
f 5 17 18
f 5 18 25
f 5 25 32
f 5 32 27
f 5 27 21
f 5 21 19
f 5 19 10
f 5 10 9
f 5 9 8
f 5 8 7
f 5 7 6
f 10 19 11
f 11 19 21
f 11 21 20
f 12 15 16
f 13 22 14
f 14 23 30
f 14 30 39
f 14 39 37
f 14 37 36
f 14 36 35
f 14 35 40
f 14 40 33
f 14 33 31
f 14 31 24
f 14 24 17
f 14 17 15
f 14 22 23
f 17 24 18
f 18 24 25
f 20 21 26
f 21 27 28
f 21 28 26
f 22 29 30
f 22 30 23
f 24 31 32
f 24 32 25
f 27 32 33
f 27 33 34
f 27 34 35
f 27 35 36
f 27 36 37
f 27 37 28
f 28 37 38
f 29 38 39
f 29 39 30
f 31 33 32
f 33 40 34
f 34 40 35
f 37 39 38

