# https://github.com/mikedh/trimesh
v -3.07411861 0.46710707 1.44582925
v -3.05725661 0.46710707 1.44582925
v -3.09372228 0.46710707 1.46994814
v -3.09454596 0.47684439 1.46900432
v -3.07567184 0.47684439 1.44582925
v -3.05725661 0.75291605 1.44582925
v -3.05725661 0.46710707 1.52552643
v -3.10901926 0.46710707 1.48955783
v -3.09455773 0.49420596 1.46900432
v -3.07583657 0.49420596 1.44582925
v -3.07580127 0.48746691 1.44582925
v -3.10324171 0.47684439 1.48039964
v -3.10324171 0.49420596 1.48036468
v -3.06177512 0.75063159 1.44582925
v -3.05725661 0.75357280 1.44698274
v -3.05725661 0.66790718 1.52248533
v -3.10458314 0.47667304 1.80292847
v -3.05943349 0.46710707 1.53199305
v -3.11553813 0.47684439 1.49882087
v -3.10918400 0.47684439 1.48910344
v -3.12743448 0.46710707 1.52164642
v -3.12352786 0.47684439 1.51178912
v -3.09455773 0.65051708 1.46900432
v -3.07583657 0.50494272 1.44582925
v -3.10920753 0.49420596 1.48906844
v -3.10324171 0.65051708 1.48036468
v -3.06277529 0.75000342 1.44582925
v -3.06394022 0.75057447 1.44771680
v -3.05725661 0.75405825 1.44785661
v -3.05725661 0.66919220 1.52238048
v -3.10544212 0.54634774 1.80292847
v -3.17734971 0.47667304 1.80292847
v -3.08141409 0.46710707 1.59536629
v -3.11557343 0.49420596 1.49882087
v -3.12355140 0.49420596 1.51175417
v -3.12856410 0.46710707 1.52454770
v -3.13309436 0.47684439 1.53356603
v -3.12799929 0.47684439 1.52049292
v -3.12803459 0.49420596 1.52042302
v -3.07580127 0.58109942 1.44582925
v -3.07581304 0.55705592 1.44582925
v -3.09454596 0.66790718 1.46903932
v -3.10920753 0.65051708 1.48906844
v -3.10322995 0.66790718 1.48043459
v -3.10917224 0.66790718 1.48910344
v -3.06830574 0.73895255 1.44582925
v -3.07500112 0.74737632 1.45414852
v -3.08146116 0.74954650 1.46536902
v -3.05725661 0.75825584 1.45746924
v -3.05725661 0.68526876 1.52070264
v -3.10586573 0.55494286 1.80292847
v -3.05725661 0.68895236 1.52000353
v -3.05725661 0.70263033 1.51720716
v -3.05725661 0.72002044 1.51329219
v -3.17737325 0.47684439 1.80292847
v -3.15681646 0.47684439 1.63780154
v -3.15678115 0.47667304 1.63780154
v -3.14859139 0.46710707 1.59536629
v -3.11557343 0.65051708 1.49882087
v -3.12355140 0.65051708 1.51175417
v -3.14481420 0.46710707 1.57208634
v -3.13316497 0.49420596 1.53356603
v -3.14253142 0.47684439 1.56156489
v -3.14263733 0.49420596 1.56142508
v -3.13908372 0.49420596 1.55093863
v -3.12803459 0.65051708 1.52042302
v -3.07575420 0.59166483 1.44582925
v -3.09446359 0.68526876 1.46910923
v -3.07563654 0.60876941 1.44582925
v -3.10314757 0.68526876 1.48057440
v -3.11550283 0.66790718 1.49882087
v -3.10907810 0.68526876 1.48924325
v -3.06870582 0.73738201 1.44582925
v -3.08492062 0.73738201 1.46187354
v -3.09311040 0.73738201 1.47054234
v -3.09176897 0.74669099 1.47201046
v -3.07623665 0.73738201 1.45296002
v -3.06508161 0.75714217 1.46407572
v -3.05725661 0.75882694 1.46341157
v -3.10658351 0.56342374 1.80292847
v -3.05725661 0.72730200 1.51109001
v -3.17745562 0.49420596 1.80292847
v -3.15728713 0.49420596 1.63780154
v -3.15439247 0.47684439 1.62046392
v -3.15435717 0.47667304 1.62046392
v -3.15174492 0.47667304 1.60302141
v -3.14555552 0.46710707 1.57530220
v -3.12350433 0.66790718 1.51182407
v -3.14896793 0.47684439 1.58568379
v -3.14540255 0.47684439 1.57023374
v -3.13316497 0.63315551 1.53356603
v -3.14263733 0.63315551 1.56142508
v -3.14544962 0.49420596 1.57009393
v -3.13908372 0.63315551 1.55093863
v -3.13314143 0.65051708 1.53356603
v -3.12797575 0.66790718 1.52052788
v -3.09420472 0.72002044 1.46938885
v -3.07523646 0.64269295 1.44582925
v -3.07544826 0.62573118 1.44582925
v -3.10301813 0.70263033 1.48074917
v -3.11529103 0.68526876 1.49882087
v -3.11504392 0.70263033 1.49882087
v -3.10896042 0.70263033 1.48945297
v -3.07371853 0.67513168 1.44582925
v -3.10399479 0.72161951 1.48295134
v -3.10848975 0.72847279 1.49015202
v -3.12629309 0.72932941 1.52388355
v -3.09382818 0.74811877 1.48144827
v -3.08244958 0.75357280 1.48144827
v -3.08561488 0.72002044 1.46072005
v -3.05725661 0.75862707 1.47358344
v -3.10753663 0.57044831 1.80292847
v -3.05725661 0.73666814 1.50661580
v -3.17740855 0.51156748 1.80292847
v -3.15726359 0.61576540 1.63780154
v -3.15728713 0.59843241 1.63780154
v -3.15475725 0.49420596 1.62046392
v -3.15178022 0.47684439 1.60309132
v -3.15054469 0.47684439 1.59540124
v -3.12786986 0.68526876 1.52073759
v -3.12775219 0.70263033 1.52094731
v -3.12328076 0.70263033 1.51227851
v -3.14907383 0.49420596 1.58568379
v -3.15061530 0.48652459 1.59536629
v -3.13902489 0.65051708 1.55093863
v -3.14544962 0.63315551 1.57009393
v -3.14261380 0.65051708 1.56156489
v -3.13301199 0.66790718 1.53356603
v -3.07477754 0.65928354 1.44582925
v -3.07505996 0.65051708 1.44582925
v -3.10877216 0.71687935 1.48973259
v -3.11318475 0.72161951 1.49710809
v -3.12283362 0.72002044 1.51357181
v -3.12710500 0.72002044 1.52224067
v -3.13781289 0.70263033 1.55093863
v -3.14448474 0.69851839 1.57306507
v -3.14553199 0.69986047 1.58568379
v -3.12663433 0.72958641 1.53356603
v -3.09618156 0.74866129 1.49882087
v -3.06508161 0.75682806 1.48144827
v -3.08244958 0.75208795 1.49882087
v -3.08244958 0.74794742 1.51248823
v -3.06546992 0.75023183 1.49899564
v -3.05725661 0.75131692 1.49189982
v -3.10818381 0.57450314 1.80292847
v -3.05725661 0.74389259 1.50109291
v -3.17677314 0.52895764 1.80292847
v -3.15685176 0.65054566 1.63780154
v -3.15713416 0.63172778 1.63780154
v -3.15466311 0.63172778 1.62046392
v -3.15475725 0.61576540 1.62046392
v -3.13280019 0.68526876 1.53356603
v -3.13242365 0.70263033 1.53356603
v -3.14907383 0.61576540 1.58568379
v -3.14539079 0.65051708 1.57023374
v -3.14906206 0.63315551 1.58568379
v -3.14251966 0.66790718 1.56184456
v -3.13886014 0.66790718 1.55093863
v -3.14515544 0.68526876 1.57089784
v -3.14820308 0.68526876 1.58568379
v -3.14015451 0.70854123 1.58568379
v -3.14915620 0.68526876 1.59536629
v -3.14989751 0.68526876 1.60309132
v -3.15553386 0.66790718 1.63780154
v -3.14572025 0.69871826 1.59536629
v -3.14333158 0.70257322 1.59540124
v -3.12645782 0.72924377 1.54461177
v -3.11719727 0.73549736 1.53356603
v -3.10035881 0.74474922 1.51738192
v -3.09491074 0.74746197 1.51241832
v -3.07152989 0.74720497 1.50927237
v -3.09982930 0.74029463 1.53356603
v -3.10694828 0.72924377 1.56083083
v -3.05725661 0.74917527 1.49557006
v -3.12475162 0.62518861 1.76944167
v -3.12664610 0.60697041 1.80257892
v -3.11046659 0.58315537 1.80292847
v -3.16073484 0.59023705 1.80292847
v -3.16081720 0.60779850 1.77010582
v -3.16077014 0.62496020 1.73525581
v -3.16011119 0.63683916 1.70725692
v -3.15835792 0.65054566 1.67258165
v -3.15820495 0.65054566 1.65520907
v -3.15396887 0.66790718 1.62046392
v -3.15442777 0.65054566 1.62046392
v -3.15047409 0.65051708 1.59536629
v -3.14893262 0.65051708 1.58568379
v -3.15062706 0.63315551 1.59536629
v -3.13862481 0.68526876 1.55093863
v -3.14239023 0.68526876 1.56222904
v -3.14528489 0.66790718 1.57054831
v -3.14870905 0.66790718 1.58568379
v -3.15143898 0.66790718 1.60309132
v -3.13147052 0.71465206 1.58568379
v -3.14490834 0.69574852 1.61700336
v -3.15406300 0.66790718 1.65520907
v -3.14586146 0.69780447 1.60309132
v -3.12255122 0.72784457 1.55621681
v -3.11693839 0.73112842 1.55062401
v -3.12419858 0.64286429 1.73539562
v -3.11098434 0.72924377 1.56083083
v -3.12017430 0.71225342 1.59624016
v -3.13455346 0.66099684 1.70225837
v -3.13455346 0.65668502 1.71096215
v -3.13455346 0.64369239 1.73707346
v -3.13455346 0.63929492 1.74577721
v -3.12198639 0.61031137 1.79097391
v -3.11823275 0.59686187 1.80292847
v -3.11364366 0.58878074 1.80292847
v -3.13455346 0.63221323 1.75937465
v -3.13455346 0.62607382 1.77108455
v -3.13455346 0.62121948 1.77978833
v -3.12688144 0.60682765 1.80292847
v -3.16044067 0.59089385 1.80292847
v -3.16006412 0.60351521 1.78171086
v -3.16017003 0.62127654 1.74686082
v -3.15768721 0.63506874 1.72462950
v -3.15649875 0.65054566 1.68988435
v -3.14247259 0.69374964 1.62857345
v -3.12835230 0.71245330 1.59540124
v -3.14877966 0.68324134 1.63780154
v -3.14672045 0.67961485 1.65520907
v -3.11693839 0.72541735 1.56733245
v -3.12806989 0.71225342 1.59624016
v -3.13455346 0.67801573 1.66684906
v -3.14522605 0.66042574 1.70117476
v -3.14569672 0.64326405 1.73626949
v -3.14580263 0.62590253 1.77076998
v -3.14303740 0.60862660 1.80292847
v -3.13741281 0.60862660 1.80292847
v -3.15429833 0.59857517 1.80292847
v -3.15707533 0.60031706 1.79415479
v -3.15293337 0.61525141 1.77622291
v -3.15785194 0.61822115 1.75937465
v -3.14900322 0.64611961 1.72462950
v -3.14809717 0.66305284 1.68988435
v -3.14427293 0.67730186 1.66541592
v -3.13455346 0.68355545 1.65520907
v -3.14917973 0.62881515 1.75937465
v -3.14839134 0.61085394 1.79415479
v -3.14534372 0.60836961 1.80292847
f 1 2 7
f 1 7 18
f 1 18 33
f 1 33 58
f 1 58 87
f 1 87 61
f 1 61 36
f 1 36 21
f 1 21 8
f 1 8 3
f 1 3 4
f 1 4 5
f 1 5 11
f 1 11 10
f 1 10 24
f 1 24 41
f 1 41 40
f 1 40 67
f 1 67 69
f 1 69 99
f 1 99 98
f 1 98 130
f 1 130 129
f 1 129 104
f 1 104 73
f 1 73 46
f 1 46 27
f 1 27 14
f 1 14 6
f 1 6 2
f 2 6 15
f 2 15 29
f 2 29 49
f 2 49 79
f 2 79 111
f 2 111 144
f 2 144 174
f 2 174 146
f 2 146 113
f 2 113 81
f 2 81 54
f 2 54 53
f 2 53 52
f 2 52 50
f 2 50 30
f 2 30 16
f 2 16 7
f 3 8 4
f 4 9 10
f 4 10 11
f 4 11 5
f 4 8 12
f 4 12 13
f 4 13 9
f 6 14 15
f 7 16 17
f 7 17 18
f 8 19 20
f 8 20 12
f 8 21 22
f 8 22 19
f 9 13 26
f 9 26 23
f 9 23 24
f 9 24 10
f 12 20 25
f 12 25 13
f 13 25 43
f 13 43 26
f 14 27 28
f 14 28 29
f 14 29 15
f 16 30 31
f 16 31 17
f 17 31 51
f 17 51 80
f 17 80 112
f 17 112 145
f 17 145 177
f 17 177 209
f 17 209 208
f 17 208 213
f 17 213 230
f 17 230 229
f 17 229 241
f 17 241 231
f 17 231 214
f 17 214 178
f 17 178 147
f 17 147 114
f 17 114 82
f 17 82 55
f 17 55 32
f 17 32 58
f 17 58 33
f 17 33 18
f 19 34 25
f 19 25 20
f 19 22 35
f 19 35 34
f 21 36 37
f 21 37 38
f 21 38 22
f 22 38 39
f 22 39 35
f 23 40 41
f 23 41 24
f 23 26 42
f 23 42 40
f 25 34 59
f 25 59 43
f 26 44 42
f 26 43 45
f 26 45 44
f 27 46 47
f 27 47 28
f 28 47 48
f 28 48 29
f 29 48 49
f 30 50 31
f 31 50 52
f 31 52 53
f 31 53 54
f 31 54 51
f 32 55 56
f 32 56 57
f 32 57 58
f 34 35 60
f 34 60 59
f 35 39 66
f 35 66 60
f 36 61 37
f 37 62 38
f 37 61 63
f 37 63 64
f 37 64 65
f 37 65 62
f 38 62 39
f 39 62 91
f 39 91 66
f 40 42 67
f 42 44 68
f 42 68 69
f 42 69 67
f 43 59 45
f 44 70 68
f 44 45 70
f 45 59 71
f 45 71 72
f 45 72 70
f 46 73 47
f 47 74 75
f 47 75 76
f 47 76 48
f 47 73 77
f 47 77 74
f 48 78 49
f 48 76 78
f 49 78 79
f 51 54 81
f 51 81 80
f 55 82 83
f 55 83 56
f 56 83 84
f 56 84 85
f 56 85 57
f 57 85 58
f 58 85 86
f 58 86 87
f 59 60 71
f 60 66 88
f 60 88 71
f 61 87 89
f 61 89 90
f 61 90 63
f 62 65 94
f 62 94 91
f 63 90 64
f 64 92 94
f 64 94 65
f 64 90 93
f 64 93 126
f 64 126 92
f 66 91 95
f 66 95 96
f 66 96 88
f 68 70 97
f 68 97 98
f 68 98 99
f 68 99 69
f 70 100 97
f 70 72 100
f 71 88 101
f 71 101 72
f 72 101 102
f 72 102 103
f 72 103 100
f 73 104 77
f 74 77 97
f 74 97 75
f 75 97 105
f 75 105 106
f 75 106 76
f 76 106 107
f 76 107 108
f 76 108 109
f 76 109 78
f 77 104 110
f 77 110 97
f 78 109 79
f 79 109 111
f 80 81 113
f 80 113 112
f 82 114 115
f 82 115 116
f 82 116 83
f 83 116 151
f 83 151 117
f 83 117 84
f 84 117 118
f 84 118 86
f 84 86 85
f 86 118 119
f 86 119 87
f 87 119 89
f 88 96 120
f 88 120 121
f 88 121 122
f 88 122 102
f 88 102 101
f 89 123 90
f 89 119 117
f 89 117 124
f 89 124 123
f 90 123 93
f 91 94 95
f 92 125 95
f 92 95 94
f 92 126 127
f 92 127 125
f 93 123 154
f 93 154 126
f 95 125 128
f 95 128 96
f 96 128 120
f 97 100 105
f 97 110 129
f 97 129 130
f 97 130 98
f 100 103 131
f 100 131 105
f 102 132 131
f 102 131 103
f 102 122 132
f 104 129 110
f 105 131 106
f 106 131 132
f 106 132 133
f 106 133 107
f 107 133 134
f 107 134 135
f 107 135 136
f 107 136 137
f 107 137 138
f 107 138 139
f 107 139 108
f 108 139 109
f 109 140 111
f 109 139 141
f 109 141 140
f 111 140 142
f 111 142 143
f 111 143 144
f 112 113 145
f 113 146 145
f 114 147 148
f 114 148 149
f 114 149 115
f 115 149 150
f 115 150 151
f 115 151 116
f 117 119 118
f 117 151 154
f 117 154 123
f 117 123 124
f 120 128 121
f 121 134 133
f 121 133 122
f 121 128 152
f 121 152 153
f 121 153 134
f 122 133 132
f 125 127 128
f 126 155 127
f 126 154 156
f 126 156 155
f 127 155 157
f 127 157 158
f 127 158 128
f 128 158 152
f 134 153 135
f 135 153 159
f 135 159 136
f 136 159 160
f 136 160 137
f 137 161 138
f 137 160 162
f 137 162 163
f 137 163 164
f 137 164 165
f 137 165 166
f 137 166 161
f 138 167 168
f 138 168 139
f 138 161 167
f 139 168 169
f 139 169 170
f 139 170 141
f 140 141 142
f 141 170 142
f 142 171 143
f 142 170 172
f 142 172 173
f 142 173 171
f 143 171 144
f 144 171 175
f 144 175 176
f 144 176 174
f 145 146 177
f 146 174 177
f 147 178 179
f 147 179 180
f 147 180 181
f 147 181 182
f 147 182 183
f 147 183 148
f 148 183 164
f 148 164 184
f 148 184 185
f 148 185 149
f 149 185 150
f 150 186 187
f 150 187 188
f 150 188 151
f 150 185 186
f 151 188 156
f 151 156 154
f 152 158 157
f 152 157 189
f 152 189 153
f 153 189 190
f 153 190 159
f 155 156 187
f 155 187 191
f 155 191 157
f 156 188 187
f 157 191 159
f 157 159 190
f 157 190 189
f 159 191 187
f 159 187 192
f 159 192 160
f 160 192 193
f 160 193 184
f 160 184 162
f 161 194 167
f 161 166 195
f 161 195 194
f 162 184 163
f 163 184 164
f 164 183 182
f 164 182 181
f 164 181 196
f 164 196 197
f 164 197 165
f 165 197 166
f 166 197 195
f 167 198 168
f 167 194 198
f 168 198 199
f 168 199 169
f 169 199 172
f 169 172 170
f 171 173 200
f 171 200 175
f 172 199 201
f 172 201 173
f 173 201 224
f 173 224 202
f 173 202 203
f 173 203 204
f 173 204 205
f 173 205 206
f 173 206 200
f 174 176 207
f 174 207 208
f 174 208 209
f 174 209 177
f 175 200 210
f 175 210 211
f 175 211 212
f 175 212 213
f 175 213 176
f 176 213 208
f 176 208 207
f 178 214 215
f 178 215 179
f 179 215 216
f 179 216 180
f 180 216 217
f 180 217 218
f 180 218 181
f 181 218 196
f 184 193 185
f 185 193 192
f 185 192 186
f 186 192 187
f 194 195 219
f 194 219 220
f 194 220 198
f 195 197 221
f 195 221 222
f 195 222 219
f 196 221 197
f 196 218 221
f 198 223 201
f 198 201 199
f 198 220 224
f 198 224 223
f 200 206 210
f 201 223 224
f 202 224 203
f 203 224 225
f 203 225 226
f 203 226 227
f 203 227 204
f 204 227 205
f 205 227 228
f 205 228 206
f 206 228 210
f 210 228 211
f 211 228 229
f 211 229 230
f 211 230 212
f 212 230 213
f 214 231 232
f 214 232 215
f 215 232 233
f 215 233 234
f 215 234 216
f 216 235 217
f 216 234 235
f 217 235 236
f 217 236 222
f 217 222 221
f 217 221 218
f 219 222 237
f 219 237 224
f 219 224 220
f 222 236 237
f 224 237 226
f 224 226 238
f 224 238 225
f 225 238 226
f 226 237 236
f 226 236 235
f 226 235 227
f 227 235 239
f 227 239 228
f 228 239 240
f 228 240 241
f 228 241 229
f 231 241 240
f 231 240 232
f 232 240 233
f 233 239 234
f 233 240 239
f 234 239 235

