# https://github.com/mikedh/trimesh
v -2.61171334 0.33743113 2.43705608
v -2.60775131 0.33743113 2.44855304
v -2.60859069 0.33743113 2.42254597
v -2.60843400 0.32040309 2.42254126
v -2.60826612 0.30303721 2.42258836
v -2.60787439 0.26827161 2.42277666
v -2.60729242 0.21617399 2.42312976
v -2.60690069 0.18140849 2.42342637
v -2.60669920 0.16407638 2.42360056
v -2.60630747 0.12931077 2.42401958
v -2.60609486 0.11194490 2.42431619
v -2.60587100 0.09457903 2.42468811
v -2.60564715 0.07717940 2.42514009
v -2.60541211 0.05981342 2.42571448
v -2.60515465 0.04244755 2.42643008
v -2.60488606 0.02508168 2.42732932
v -2.60470700 0.01379727 2.42800728
v -2.60470700 0.01379727 2.42856282
v -2.59593226 0.30303721 2.45319516
v -2.59593226 0.32040309 2.45354826
v -2.59593226 0.33743113 2.45379306
v -2.60479653 0.22083643 2.44593068
v -2.59466748 0.33743113 2.41335594
v -2.59723053 0.32040309 2.41385027
v -2.59799162 0.30303721 2.41390206
v -2.59852886 0.28567134 2.41399151
v -2.59899893 0.26827161 2.41409039
v -2.59940185 0.25090573 2.41419866
v -2.59974879 0.23353986 2.41431636
v -2.60007341 0.21617399 2.41444349
v -2.60035318 0.19877436 2.41458472
v -2.60059941 0.18140849 2.41474009
v -2.60083444 0.16407638 2.41490958
v -2.60103593 0.14671051 2.41510259
v -2.60121499 0.12931077 2.41533331
v -2.60133813 0.11194490 2.41562991
v -2.60140529 0.09457903 2.41600184
v -2.60146121 0.07717940 2.41645381
v -2.60748266 0.23353986 2.42300266
v -2.60149482 0.05981342 2.41702347
v -2.60649777 0.14671051 2.42379361
v -2.60151719 0.04244755 2.41774380
v -2.60151719 0.02508168 2.41863833
v -2.60188655 0.00788472 2.42120420
v -2.59406314 -0.00437950 2.41968350
v -2.59136577 -0.00248750 2.43705608
v -2.59781256 0.00788472 2.43543181
v -2.60448315 0.20924796 2.44552580
v -2.52645054 0.19877436 2.45114245
v -2.52645054 0.21617399 2.45157089
v -2.52645054 0.23353986 2.45198520
v -2.52645054 0.25090573 2.45238066
v -2.52645054 0.26827161 2.45277143
v -2.52645054 0.28567134 2.45316220
v -2.52645054 0.30303721 2.45354826
v -2.59593226 0.26827161 2.45197577
v -2.59269765 0.12931077 2.44844948
v -2.59199254 0.11194490 2.44811049
v -2.59055994 0.07717940 2.44740429
v -2.58984364 0.05981342 2.44705119
v -2.58912734 0.04244755 2.44669338
v -2.58841105 0.02508168 2.44633088
v -2.58768351 0.00768204 2.44596364
v -2.58729178 -0.00103470 2.44576591
v -2.52645054 0.32040309 2.45360946
v -2.52645054 0.33743113 2.45353883
v -2.59593226 0.25090573 2.45134491
v -2.59338039 0.14671051 2.44876491
v -2.59405195 0.16407638 2.44907563
v -2.59423102 0.33743113 2.41319586
v -2.58930641 0.30303721 2.41043226
v -2.58984364 0.28567134 2.41023453
v -2.59030253 0.26827161 2.41003206
v -2.59070545 0.25090573 2.40983433
v -2.59106357 0.23353986 2.40963189
v -2.59137695 0.21617399 2.40942945
v -2.59165678 0.19877436 2.40923172
v -2.59191419 0.18140849 2.40902925
v -2.59213804 0.16407638 2.40883153
v -2.59235071 0.14671051 2.40862908
v -2.59252977 0.12931077 2.40843607
v -2.59264173 0.11194490 2.40827127
v -2.59272007 0.09457903 2.40813004
v -2.59277600 0.07717940 2.40798880
v -2.59280960 0.05981342 2.40784757
v -2.59283197 0.04244755 2.40770631
v -2.59283197 0.02508168 2.40756507
v -2.59277600 0.00768204 2.40746622
v -2.59089569 -0.00353484 2.40862437
v -2.57856183 -0.00721756 2.41968350
v -2.58021828 -0.00383890 2.43791765
v -2.52645054 0.18140849 2.45070461
v -2.51513512 0.11194490 2.44753613
v -2.51458670 0.12931077 2.44789394
v -2.50943829 0.33743113 2.45231945
v -2.52645054 -0.00468356 2.43636401
v -2.58711272 -0.00103470 2.44576591
v -2.52645054 0.12931077 2.44936284
v -2.52645054 0.14671051 2.44981950
v -2.52645054 0.16407638 2.45026677
v -2.59341395 0.33743113 2.41292278
v -2.58779546 0.33287008 2.41086539
v -2.58854532 0.32040309 2.41066766
v -2.57856183 0.00768204 2.40613385
v -2.57856183 -0.00370375 2.40852081
v -2.52645054 -0.00772430 2.41968350
v -2.51568354 0.09457903 2.44716418
v -2.49895112 0.33743113 2.44720185
v -2.51407189 0.14671051 2.44823290
v -2.50903532 0.33743113 2.45223942
v -2.51454196 -0.00373761 2.43335088
v -2.52674156 0.00670223 2.44502675
v -2.53272940 0.01180388 2.44587890
v -2.52645054 0.11194490 2.44885436
v -2.51767580 0.03241316 2.44580356
v -2.51735123 0.04244755 2.44602485
v -2.51679162 0.05981342 2.44640620
v -2.51624315 0.07717940 2.44678754
v -2.51899649 0.33743113 2.41069591
v -2.52645054 0.02508168 2.40591256
v -2.52645054 0.00768204 2.40570069
v -2.52645054 -0.00400791 2.40830894
v -2.51588503 -0.00285919 2.40937296
v -2.51394875 -0.00444702 2.41968350
v -2.50028300 0.20404492 2.42875586
v -2.49738420 0.33743113 2.43708904
v -2.51248255 0.00768204 2.43624160
v -2.50965091 0.00768204 2.41968350
v -2.52115657 0.02082469 2.44546931
v -2.52645054 0.05981342 2.44716418
v -2.52645054 0.07717940 2.44774328
v -2.52645054 0.09457903 2.44830353
v -2.51702661 0.33743113 2.41069591
v -2.51659014 0.32040309 2.41049346
v -2.51491132 0.02508168 2.40861495
v -2.51493369 0.00768204 2.40857259
v -2.51629913 0.30303721 2.41033809
v -2.51591858 0.26827161 2.41008858
v -2.51575071 0.25090573 2.40996146
v -2.51560520 0.23353986 2.40983433
v -2.51547093 0.21617399 2.40970723
v -2.51535898 0.19877436 2.40958011
v -2.51515754 0.16407638 2.40932586
v -2.51507920 0.14671051 2.40919876
v -2.51500085 0.12931077 2.40907635
v -2.51496725 0.11194490 2.40898690
v -2.51495606 0.09457903 2.40891155
v -2.51494488 0.07717940 2.40883624
v -2.50028300 0.20404492 2.42813440
v -2.50011507 0.21617399 2.42774363
v -2.49988003 0.23353986 2.42723987
v -2.49965618 0.25090573 2.42680203
v -2.49944357 0.26827161 2.42642539
v -2.49924208 0.28567134 2.42610994
v -2.49906302 0.30303721 2.42585100
v -2.49892870 0.32040309 2.42568623
v -2.49882798 0.33743113 2.42563914
v -2.50903532 0.02508168 2.41968350
v -2.50834145 0.33743113 2.41695286
v -2.50790493 0.32040309 2.41699993
v -2.51609770 0.28567134 2.41021568
f 1 2 21
f 1 21 66
f 1 66 95
f 1 95 110
f 1 110 108
f 1 108 126
f 1 126 157
f 1 157 159
f 1 159 133
f 1 133 119
f 1 119 101
f 1 101 70
f 1 70 23
f 1 23 3
f 1 3 4
f 1 4 5
f 1 5 6
f 1 6 7
f 1 7 8
f 1 8 9
f 1 9 10
f 1 10 11
f 1 11 12
f 1 12 13
f 1 13 14
f 1 14 15
f 1 15 16
f 1 16 17
f 1 17 18
f 1 18 2
f 2 19 20
f 2 20 21
f 2 18 22
f 2 22 19
f 3 23 24
f 3 24 25
f 3 25 26
f 3 26 27
f 3 27 28
f 3 28 29
f 3 29 30
f 3 30 31
f 3 31 32
f 3 32 33
f 3 33 34
f 3 34 35
f 3 35 36
f 3 36 4
f 4 36 37
f 4 37 5
f 5 37 38
f 5 38 6
f 6 39 7
f 6 38 39
f 7 39 38
f 7 38 40
f 7 40 8
f 8 40 9
f 9 41 10
f 9 40 41
f 10 41 40
f 10 40 42
f 10 42 11
f 11 42 12
f 12 42 43
f 12 43 13
f 13 43 14
f 14 43 15
f 15 43 16
f 16 43 44
f 16 44 17
f 17 44 18
f 18 44 45
f 18 45 46
f 18 46 47
f 18 47 48
f 18 48 22
f 19 49 50
f 19 50 51
f 19 51 52
f 19 52 53
f 19 53 54
f 19 54 55
f 19 55 20
f 19 22 56
f 19 56 57
f 19 57 58
f 19 58 59
f 19 59 60
f 19 60 61
f 19 61 62
f 19 62 63
f 19 63 64
f 19 64 49
f 20 55 21
f 21 55 65
f 21 65 66
f 22 67 56
f 22 48 64
f 22 64 63
f 22 63 62
f 22 62 61
f 22 61 60
f 22 60 59
f 22 59 58
f 22 58 57
f 22 57 68
f 22 68 69
f 22 69 67
f 23 70 71
f 23 71 24
f 24 71 72
f 24 72 73
f 24 73 74
f 24 74 75
f 24 75 76
f 24 76 77
f 24 77 78
f 24 78 79
f 24 79 80
f 24 80 25
f 25 80 81
f 25 81 82
f 25 82 26
f 26 82 27
f 27 82 83
f 27 83 84
f 27 84 28
f 28 84 85
f 28 85 86
f 28 86 87
f 28 87 29
f 29 87 30
f 30 87 31
f 31 87 32
f 32 87 88
f 32 88 33
f 33 88 34
f 34 88 35
f 35 88 36
f 36 88 37
f 37 88 38
f 38 88 40
f 40 88 42
f 42 88 43
f 43 88 44
f 44 88 89
f 44 89 45
f 45 89 90
f 45 90 46
f 46 90 91
f 46 91 64
f 46 64 47
f 47 64 48
f 49 64 92
f 49 92 93
f 49 93 94
f 49 94 50
f 50 94 95
f 50 95 51
f 51 95 52
f 52 95 53
f 53 95 54
f 54 95 55
f 55 95 65
f 56 67 68
f 56 68 57
f 64 91 96
f 64 96 97
f 64 97 98
f 64 98 99
f 64 99 100
f 64 100 92
f 65 95 66
f 67 69 68
f 70 101 102
f 70 102 103
f 70 103 71
f 71 73 72
f 71 103 104
f 71 104 73
f 73 75 74
f 73 104 75
f 75 104 76
f 76 78 77
f 76 104 78
f 78 104 80
f 78 80 79
f 80 104 81
f 81 104 82
f 82 104 83
f 83 104 84
f 84 104 85
f 85 104 86
f 86 104 87
f 87 104 88
f 88 104 89
f 89 105 90
f 89 104 105
f 90 106 96
f 90 96 91
f 90 105 106
f 92 100 93
f 93 100 107
f 93 107 108
f 93 108 94
f 94 109 110
f 94 110 95
f 94 108 109
f 96 106 111
f 96 111 112
f 96 112 97
f 97 112 113
f 97 113 114
f 97 114 98
f 98 114 115
f 98 115 99
f 99 115 116
f 99 116 117
f 99 117 118
f 99 118 100
f 100 118 107
f 101 119 102
f 102 119 103
f 103 119 120
f 103 120 104
f 104 120 121
f 104 121 105
f 105 121 122
f 105 122 106
f 106 122 123
f 106 123 124
f 106 124 111
f 107 118 117
f 107 117 108
f 108 125 126
f 108 110 109
f 108 117 116
f 108 116 115
f 108 115 127
f 108 127 125
f 111 124 128
f 111 128 127
f 111 127 112
f 112 127 129
f 112 129 113
f 113 129 115
f 113 115 130
f 113 130 131
f 113 131 132
f 113 132 114
f 114 132 115
f 115 132 131
f 115 131 130
f 115 129 127
f 119 133 120
f 120 133 134
f 120 134 121
f 121 135 136
f 121 136 123
f 121 123 122
f 121 134 137
f 121 137 138
f 121 138 139
f 121 139 140
f 121 140 141
f 121 141 142
f 121 142 143
f 121 143 144
f 121 144 145
f 121 145 146
f 121 146 147
f 121 147 148
f 121 148 135
f 123 136 128
f 123 128 124
f 125 149 126
f 125 127 128
f 125 128 149
f 126 149 150
f 126 150 151
f 126 151 152
f 126 152 153
f 126 153 154
f 126 154 155
f 126 155 156
f 126 156 157
f 128 136 158
f 128 158 149
f 133 159 134
f 134 159 137
f 135 148 157
f 135 157 136
f 136 157 156
f 136 156 155
f 136 155 154
f 136 154 153
f 136 153 152
f 136 152 151
f 136 151 158
f 137 159 160
f 137 160 161
f 137 161 138
f 138 161 160
f 138 160 139
f 139 160 140
f 140 160 141
f 141 160 142
f 142 160 143
f 143 160 144
f 144 160 145
f 145 160 146
f 146 160 157
f 146 157 147
f 147 157 148
f 149 158 150
f 150 158 151
f 157 160 159

