# https://github.com/mikedh/trimesh
v -5.25571004 0.27761253 0.93837138
v -5.25571004 0.27571214 0.94705634
v -5.25571004 0.27761253 0.93315125
v -5.34259936 0.27761253 0.93837418
v -5.25571004 0.26702801 0.95525237
v -5.47998012 0.27571214 0.94705634
v -5.47998012 0.26713593 0.95524098
v -5.25571004 0.26829843 0.92614724
v -5.34259936 0.26829843 0.92614155
v -5.34259936 0.27761253 0.93314835
v -5.46281299 0.27761253 0.93837418
v -5.25571004 0.25270868 0.95525237
v -5.34259936 0.26702801 0.95525527
v -5.47998012 0.25270868 0.95534671
v -5.47998012 0.27761253 0.93830842
v -5.46281299 0.26702801 0.95525527
v -5.25571004 0.25231192 0.92675330
v -5.34259936 0.25093359 0.92680477
v -5.46281299 0.26829843 0.92614155
v -5.46281299 0.27761253 0.93314835
v -5.25571004 0.24402455 0.94419177
v -5.47998012 0.24402455 0.94418897
v -5.34257741 0.24402455 0.94419177
v -5.47998012 0.27749768 0.93306260
v -5.25571004 0.25093359 0.92680767
v -5.47998012 0.25081874 0.92689052
v -5.46281299 0.25093359 0.92680477
v -5.47998012 0.26808612 0.92615294
v -5.25571004 0.24386444 0.94350286
v -5.47998012 0.24205456 0.93550971
v -5.34259936 0.24386444 0.94350286
v -5.25571004 0.24205456 0.93381158
v -5.46281299 0.24205456 0.93381158
v -5.47998012 0.24205456 0.93383446
v -5.27173569 0.24205456 0.93550691
v -5.25571004 0.24205456 0.93537249
v -5.35860285 0.24205456 0.93550971
f 1 2 5
f 1 5 12
f 1 12 21
f 1 21 29
f 1 29 36
f 1 36 32
f 1 32 25
f 1 25 17
f 1 17 8
f 1 8 3
f 1 3 10
f 1 10 20
f 1 20 15
f 1 15 11
f 1 11 4
f 1 4 2
f 2 4 11
f 2 11 6
f 2 6 7
f 2 7 5
f 3 8 9
f 3 9 10
f 5 7 13
f 5 13 14
f 5 14 12
f 6 11 15
f 6 15 24
f 6 24 28
f 6 28 26
f 6 26 34
f 6 34 30
f 6 30 22
f 6 22 14
f 6 14 7
f 7 14 16
f 7 16 13
f 8 17 9
f 9 17 18
f 9 18 27
f 9 27 19
f 9 19 20
f 9 20 10
f 12 14 21
f 13 16 14
f 14 22 23
f 14 23 21
f 15 20 24
f 17 25 18
f 18 26 27
f 18 25 26
f 19 27 28
f 19 28 24
f 19 24 20
f 21 23 31
f 21 31 29
f 22 30 31
f 22 31 23
f 25 32 26
f 26 33 34
f 26 28 27
f 26 32 33
f 29 35 36
f 29 31 30
f 29 30 37
f 29 37 35
f 30 34 33
f 30 33 32
f 30 32 36
f 30 36 35
f 30 35 37

