# https://github.com/mikedh/trimesh
v -5.61316366 0.36608099 0.66560760
v -5.61316366 0.36608099 0.67188118
v -5.61285048 0.37256522 0.66715846
v -5.61185234 0.38993182 0.67037722
v -5.61086724 0.36608099 0.65986665
v -5.61314419 0.36608099 0.67783288
v -5.61285048 0.37256522 0.67765143
v -5.61185234 0.38993182 0.67628201
v -5.61101741 0.40186981 0.67239620
v -5.60910583 0.36608099 0.65713371
v -5.59400955 0.48990926 0.67249562
v -5.60622883 0.36608099 0.68294178
v -5.59653423 0.42469017 0.69323580
v -5.59673659 0.44205682 0.69393807
v -5.59636480 0.45944853 0.69411951
v -5.59571877 0.47681518 0.69394387
v -5.57702138 0.61579833 0.70969207
v -5.59503380 0.49418178 0.69356348
v -5.59435546 0.51154837 0.69289632
v -5.59372910 0.52567291 0.69194250
v -5.61101741 0.40186981 0.67469024
v -5.59372910 0.52567291 0.68901641
v -5.57699528 0.62281032 0.68926217
v -5.59512514 0.38663947 0.65551853
v -5.60043568 0.36608099 0.65431294
v -5.57705411 0.54336625 0.67286431
v -5.60183172 0.36608099 0.68552849
v -5.59578401 0.40732358 0.69227608
v -5.57758249 0.56367338 0.70955164
v -5.57792176 0.58103998 0.71009587
v -5.57762163 0.59840657 0.71010177
v -5.57300269 0.62281032 0.71155311
v -5.57676040 0.62281032 0.70943461
v -5.57788904 0.62281032 0.70338929
v -5.57803920 0.62281032 0.69979025
v -5.56760102 0.62281032 0.68465068
v -5.59190887 0.38663947 0.65551853
v -5.59051925 0.36608099 0.65440076
v -5.59079328 0.37256522 0.65474014
v -5.56708569 0.61579833 0.68324615
v -5.56708569 0.59840657 0.68068285
v -5.57368766 0.54336625 0.67286431
v -5.59073466 0.36608099 0.68222781
v -5.59132829 0.39289747 0.69148009
v -5.59457708 0.39289747 0.69148009
v -5.57674735 0.54947345 0.70884358
v -5.56708569 0.59840657 0.71322681
v -5.56708569 0.61579833 0.71396418
v -5.56708569 0.62281032 0.71409881
v -5.55245918 0.62281032 0.68603181
v -5.57217418 0.52891502 0.67206842
v -5.58211008 0.36608099 0.66566621
v -5.57149584 0.51154837 0.67110869
v -5.57117604 0.49418178 0.67014307
v -5.57124128 0.47681518 0.66946421
v -5.57175019 0.45944853 0.66922425
v -5.57243516 0.44205682 0.66923015
v -5.57315286 0.42469017 0.66945250
v -5.57392917 0.40732358 0.67011966
v -5.56708569 0.58103998 0.67850004
v -5.58447817 0.36608099 0.68034347
v -5.57506423 0.42979214 0.69159722
v -5.55771731 0.56900147 0.70886698
v -5.57233740 0.54947345 0.70884358
v -5.56708569 0.58103998 0.71180477
v -5.55478812 0.59840657 0.71135417
v -5.55314415 0.61579833 0.71250114
v -5.55245918 0.62281032 0.71289323
v -5.56075753 0.62281032 0.71376523
v -5.54651586 0.62281032 0.69954449
v -5.55256999 0.61579833 0.68571573
v -5.57491427 0.38993182 0.67168803
v -5.57557977 0.37995418 0.67301654
v -5.57557977 0.37995418 0.67392356
v -5.55314415 0.59840657 0.68522412
v -5.55391383 0.58103998 0.68491985
v -5.55472287 0.56367338 0.68484963
v -5.55569492 0.54628162 0.68544657
v -5.55789358 0.51722838 0.69184297
v -5.55695405 0.52891502 0.69376833
v -5.55569492 0.54628162 0.69666521
v -5.54953640 0.59840657 0.69954449
v -5.55651038 0.58103998 0.70993793
v -5.56675946 0.56339692 0.70966287
v -5.54731828 0.61579833 0.69954449
v -5.55789358 0.51722838 0.68936749
v -5.55695405 0.52891502 0.68730751
f 1 2 7
f 1 7 3
f 1 3 4
f 1 4 5
f 1 5 10
f 1 10 25
f 1 25 38
f 1 38 52
f 1 52 61
f 1 61 43
f 1 43 27
f 1 27 12
f 1 12 6
f 1 6 2
f 2 6 7
f 3 7 8
f 3 8 4
f 4 8 21
f 4 21 9
f 4 9 5
f 5 9 11
f 5 11 10
f 6 12 13
f 6 13 14
f 6 14 15
f 6 15 16
f 6 16 17
f 6 17 18
f 6 18 7
f 7 18 19
f 7 19 20
f 7 20 8
f 8 20 21
f 9 21 20
f 9 20 22
f 9 22 23
f 9 23 11
f 10 24 25
f 10 11 26
f 10 26 24
f 11 23 26
f 12 27 13
f 13 27 28
f 13 28 29
f 13 29 14
f 14 29 30
f 14 30 15
f 15 30 31
f 15 31 16
f 16 31 17
f 17 31 32
f 17 32 33
f 17 33 18
f 18 33 19
f 19 33 20
f 20 33 34
f 20 34 35
f 20 35 22
f 22 35 23
f 23 35 34
f 23 34 33
f 23 33 32
f 23 32 49
f 23 49 69
f 23 69 68
f 23 68 70
f 23 70 50
f 23 50 36
f 23 36 26
f 24 37 25
f 24 26 42
f 24 42 37
f 25 37 39
f 25 39 38
f 26 36 40
f 26 40 41
f 26 41 42
f 27 43 44
f 27 44 45
f 27 45 28
f 28 45 46
f 28 46 29
f 29 46 47
f 29 47 48
f 29 48 30
f 30 48 49
f 30 49 31
f 31 49 32
f 36 50 40
f 37 42 51
f 37 51 39
f 38 39 53
f 38 53 54
f 38 54 55
f 38 55 56
f 38 56 57
f 38 57 58
f 38 58 59
f 38 59 52
f 39 51 53
f 40 50 41
f 41 50 60
f 41 60 42
f 42 60 50
f 42 50 51
f 43 61 44
f 44 61 62
f 44 62 63
f 44 63 64
f 44 64 46
f 44 46 45
f 46 64 65
f 46 65 47
f 47 65 66
f 47 66 67
f 47 67 68
f 47 68 69
f 47 69 48
f 48 69 49
f 50 70 71
f 50 71 55
f 50 55 54
f 50 54 53
f 50 53 51
f 52 59 72
f 52 72 73
f 52 73 74
f 52 74 61
f 55 71 75
f 55 75 56
f 56 75 76
f 56 76 57
f 57 76 77
f 57 77 58
f 58 77 59
f 59 77 78
f 59 78 72
f 61 74 62
f 62 74 79
f 62 79 63
f 63 79 80
f 63 80 81
f 63 81 82
f 63 82 83
f 63 83 65
f 63 65 84
f 63 84 64
f 64 84 65
f 65 83 66
f 66 83 82
f 66 82 85
f 66 85 67
f 67 85 68
f 68 85 70
f 70 85 79
f 70 79 86
f 70 86 87
f 70 87 78
f 70 78 77
f 70 77 76
f 70 76 75
f 70 75 71
f 72 78 87
f 72 87 73
f 73 87 86
f 73 86 79
f 73 79 74
f 79 85 82
f 79 82 80
f 80 82 81

