# https://github.com/mikedh/trimesh
v -2.71519667 -0.00734950 3.27107259
v -2.63067829 -0.00808729 3.27107259
v -2.62594382 -0.00489059 3.30595689
v -2.71519667 -0.00366108 3.28226286
v -2.71519667 -0.00489059 3.26078437
v -2.61719709 -0.00489059 3.30595689
v -2.71519667 -0.00439876 3.25916588
v -2.63067829 -0.00439876 3.25916588
v -2.57857902 -0.00439876 3.27409075
v -2.56487713 -0.00489059 3.28843846
v -2.52108320 0.04846978 3.31733294
v -2.52272826 0.06002718 3.31874586
v -2.63013665 0.00789632 3.30595689
v -2.71519667 0.00789632 3.28481674
v -2.71519667 -0.00243157 3.28261446
v -2.56612093 -0.00341512 3.29963546
v -2.51546606 0.04846978 3.31733294
v -2.71519667 0.00789632 3.25584925
v -2.63067829 0.00789632 3.25584925
v -2.61820016 -0.00316926 3.26023382
v -2.56698356 -0.00366108 3.27563623
v -2.53135465 0.03027322 3.29393076
v -2.51430247 0.04625673 3.30580434
v -2.51430247 0.06002718 3.31874586
v -2.55538810 2.09140945 3.32351518
v -2.63023695 0.02535519 3.30595689
v -2.71519667 0.02535519 3.28486314
v -2.51085194 0.06002718 3.30580434
v -2.71519667 0.02535519 3.25574972
v -2.61617394 0.00789632 3.25911275
v -2.63067829 0.02535519 3.25574972
v -2.51027017 2.09239305 3.26668139
v -2.57857902 0.02535519 3.26731147
v -2.57857902 0.00789632 3.26786212
v -2.56505769 0.00789632 3.27350696
v -2.51546606 0.04773209 3.29407678
v -2.52645966 2.09140945 3.32351518
v -2.51027017 2.10837655 3.32351518
v -2.55538810 2.10936015 3.32351518
v -2.63023695 2.07517998 3.30595689
v -2.71519667 2.47476803 3.28486314
v -2.51430247 0.06002718 3.29255108
v -2.51027017 2.05772111 3.26732473
v -2.51027017 1.98468872 3.29162243
v -2.51027017 1.97141009 3.30580434
v -2.51027017 1.97657399 3.31312080
v -2.51027017 1.98468872 3.31939593
v -2.51027017 1.98714768 3.31950208
v -2.51027017 2.09140945 3.32318357
v -2.71519667 0.07748605 3.25574972
v -2.63067829 0.07748605 3.25574972
v -2.52645966 0.06002718 3.28709856
v -2.61332526 2.09263891 3.26642932
v -2.51027017 2.49222690 3.26936120
v -2.51027017 2.49222690 3.28482337
v -2.52678065 2.10936015 3.32351518
v -2.55538810 2.49222690 3.28482337
v -2.71519667 2.49222690 3.28481674
v -2.63005639 2.09263891 3.30595689
v -2.71519667 2.49222690 3.26936120
v -2.55540814 2.50009567 3.27284364
v -2.55540814 2.50403016 3.27459479
v -2.51027017 2.50378419 3.27459479
v -2.51027017 2.50378419 3.28226949
v -2.55540814 2.50403016 3.28226286
v -2.71519667 2.50403016 3.28226286
v -2.71519667 2.50403016 3.27459479
f 1 2 3
f 1 3 4
f 1 4 15
f 1 15 14
f 1 14 27
f 1 27 41
f 1 41 58
f 1 58 66
f 1 66 67
f 1 67 60
f 1 60 50
f 1 50 29
f 1 29 18
f 1 18 7
f 1 7 5
f 1 5 2
f 2 6 3
f 2 5 7
f 2 7 8
f 2 8 9
f 2 9 10
f 2 10 6
f 3 6 17
f 3 17 11
f 3 11 12
f 3 12 13
f 3 13 14
f 3 14 15
f 3 15 4
f 6 10 16
f 6 16 17
f 7 18 19
f 7 19 8
f 8 19 20
f 8 20 21
f 8 21 9
f 9 21 10
f 10 21 22
f 10 22 23
f 10 23 16
f 11 17 24
f 11 24 12
f 12 24 37
f 12 37 25
f 12 25 13
f 13 25 26
f 13 26 27
f 13 27 14
f 16 23 17
f 17 28 24
f 17 23 28
f 18 29 31
f 18 31 19
f 19 30 20
f 19 31 32
f 19 32 33
f 19 33 30
f 20 30 34
f 20 34 21
f 21 34 35
f 21 35 36
f 21 36 22
f 22 36 23
f 23 36 28
f 24 28 38
f 24 38 37
f 25 37 38
f 25 38 56
f 25 56 39
f 25 39 40
f 25 40 26
f 26 40 41
f 26 41 27
f 28 36 42
f 28 42 43
f 28 43 44
f 28 44 45
f 28 45 46
f 28 46 47
f 28 47 48
f 28 48 49
f 28 49 38
f 29 50 51
f 29 51 31
f 30 33 34
f 31 51 32
f 32 43 42
f 32 42 52
f 32 52 33
f 32 51 53
f 32 53 54
f 32 54 63
f 32 63 64
f 32 64 55
f 32 55 38
f 32 38 49
f 32 49 48
f 32 48 47
f 32 47 46
f 32 46 45
f 32 45 44
f 32 44 43
f 33 52 34
f 34 52 35
f 35 52 42
f 35 42 36
f 38 55 56
f 39 56 55
f 39 55 57
f 39 57 58
f 39 58 59
f 39 59 40
f 40 59 41
f 41 59 58
f 50 60 53
f 50 53 51
f 53 60 54
f 54 60 61
f 54 61 62
f 54 62 63
f 55 64 65
f 55 65 66
f 55 66 57
f 57 66 58
f 60 67 61
f 61 67 62
f 62 65 64
f 62 64 63
f 62 67 66
f 62 66 65

