# https://github.com/mikedh/trimesh
v -0.18348622 0.90956090 -0.22614770
v -0.28135930 0.90956090 -0.22614770
v -0.18348622 0.89259163 -0.22614770
v -0.18348622 0.97792692 -0.30800382
v -0.28135930 0.89259163 -0.22614770
v -0.28135930 0.97792692 -0.30800382
v -0.18348622 0.89180765 -0.30820039
v -0.18348622 0.97792692 -0.32651501
v -0.28135930 0.89180765 -0.30820039
v -0.28135930 0.97792692 -0.32651501
v -0.18348622 0.89706788 -0.32170054
v -0.18348622 0.91118786 -0.32651501
v -0.28135930 0.89706788 -0.32170054
v -0.28135930 0.91118786 -0.32651501
v -0.18348622 0.89925119 -0.32244723
v -0.28135930 0.90819526 -0.32550298
f 1 2 5
f 1 5 3
f 1 3 7
f 1 7 11
f 1 11 15
f 1 15 12
f 1 12 8
f 1 8 4
f 1 4 6
f 1 6 2
f 2 6 10
f 2 10 14
f 2 14 16
f 2 16 13
f 2 13 9
f 2 9 5
f 3 5 9
f 3 9 7
f 4 8 10
f 4 10 6
f 7 9 13
f 7 13 11
f 8 12 14
f 8 14 10
f 11 13 15
f 12 15 16
f 12 16 14
f 13 16 15

