# https://github.com/mikedh/trimesh
v -5.20223410 0.66070340 0.96123576
v -5.20223410 0.65972068 0.97007927
v -5.19230835 0.65956471 0.96953246
v -5.18746736 0.65992346 0.96123576
v -5.54967621 0.65396487 0.96123576
v -5.54967621 0.65352814 0.97755574
v -5.27171436 0.64117424 1.01776797
v -5.23697413 0.65003411 0.99492824
v -5.25434424 0.64064389 1.01826011
v -5.49756607 0.64343596 1.00725709
v -5.21960401 0.64292125 1.00511114
v -5.21085805 0.64187614 1.00364862
v -5.19015215 0.64415350 0.98873648
v -5.18547418 0.65087639 0.97709105
v -5.18075540 0.65759933 0.96312207
v -5.17998240 0.65786451 0.96123576
v -5.23697413 0.64418468 1.00792683
v -5.56704633 0.65036168 0.96123576
v -5.56676153 0.64749157 0.97694068
v -5.56078176 0.64393514 0.98814876
v -5.54967621 0.64597850 0.99136078
v -5.53165530 0.64599409 0.99614470
v -5.51493619 0.64289003 1.00553482
v -5.48019595 0.64020711 1.01610049
v -5.32386531 0.63607352 1.02968681
v -5.30649519 0.63605793 1.02968681
v -5.27171436 0.63495047 1.02968681
v -5.27171436 0.62694847 1.04144160
v -5.25279845 0.63128483 1.03134072
v -5.23697413 0.63860047 1.01661987
v -5.32386531 0.62861750 1.04496804
v -5.49756607 0.63895921 1.01593645
v -5.46282583 0.63457609 1.02968681
v -5.21154965 0.62404718 1.02065201
v -5.24596428 0.62439034 1.03825681
v -5.23697413 0.62192578 1.03601527
v -5.17859941 0.63830412 0.98464965
v -5.17209064 0.64602531 0.97307257
v -5.16924305 0.64880181 0.96123576
v -5.56802273 0.64989373 0.96123576
v -5.57664669 0.64385716 0.97073524
v -5.53698428 0.64094023 1.00274658
v -5.56326315 0.63317223 0.99096444
v -5.54133706 0.60787167 1.02132176
v -5.53739107 0.61946128 1.01897086
v -5.52579753 0.62605937 1.02223757
v -5.52543133 0.64214131 1.00414065
v -5.44545592 0.63498164 1.02968681
v -5.34123543 0.62846153 1.04537805
v -5.37593486 0.62794677 1.04582907
v -5.28908448 0.62763484 1.04264439
v -5.30649519 0.62825875 1.04394287
v -5.27171436 0.61905567 1.05012096
v -5.25755803 0.62587218 1.04000641
v -5.32386531 0.62284610 1.05366108
v -5.30649519 0.62181663 1.05263590
v -5.37593486 0.62376642 1.05452221
v -5.35860534 0.62354800 1.05427614
v -5.34123543 0.62329847 1.05407109
v -5.46282583 0.62729163 1.04194730
v -5.44545592 0.62802475 1.04320477
v -5.42804500 0.62821194 1.04401122
v -5.22529918 0.60958746 1.04040275
v -5.22708918 0.59088500 1.05665438
v -5.19255234 0.62584101 1.00461911
v -5.23697413 0.61323751 1.04365579
v -5.25902242 0.60882316 1.05747450
v -5.26064961 0.59102538 1.07402688
v -5.25401885 0.59863741 1.06448638
v -5.24742867 0.60623381 1.05497323
v -5.17522303 0.62671452 0.98731496
v -5.20894606 0.59264760 1.04041642
v -5.21142745 0.57162101 1.05521919
v -5.21069525 0.53799088 1.07331612
v -5.21012586 0.50426717 1.09131736
v -5.20943426 0.50135025 1.09219205
v -5.17038205 0.63276668 0.97833485
v -5.16220549 0.63460726 0.96123576
v -5.57689089 0.64412228 0.96123576
v -5.57192791 0.63317223 0.98116421
v -5.57741969 0.63317223 0.97248485
v -5.51493619 0.62816513 1.02428782
v -5.47563998 0.62596580 1.04019780
v -5.51806837 0.50135025 1.08460612
v -5.51306500 0.50135025 1.08973180
v -5.50948501 0.50135025 1.09318989
v -5.50814261 0.50640410 1.09206902
v -5.50582403 0.55426001 1.07279675
v -5.50212204 0.56368141 1.07067815
v -5.52128216 0.60451802 1.03704035
v -5.48959291 0.57297806 1.07349384
v -5.47856876 0.57968536 1.07555776
v -5.47169399 0.58991792 1.07324777
v -5.47368739 0.60865156 1.05700981
v -5.41067488 0.62811837 1.04472198
v -5.28908448 0.61175567 1.06042689
v -5.27171436 0.61036740 1.05903272
v -5.30649519 0.61312831 1.06179373
v -5.34123543 0.61461015 1.06332461
v -5.32386531 0.61415778 1.06284614
v -5.39330497 0.62347002 1.05418045
v -5.39330497 0.61478175 1.06335195
v -5.37593486 0.61507810 1.06366626
v -5.35860534 0.61485974 1.06351589
v -5.46282583 0.61933648 1.05064033
v -5.44545592 0.62105228 1.05189780
v -5.42804500 0.62191020 1.05270425
v -5.23697413 0.60297373 1.05234893
v -5.23697413 0.59428546 1.05956576
v -5.24905587 0.58703222 1.07149827
v -5.23689293 0.58116720 1.06828614
v -5.23103495 0.56943722 1.07153928
v -5.22342799 0.58104241 1.05959310
v -5.21472264 0.58104241 1.05255388
v -5.27171436 0.60119554 1.06772575
v -5.25995802 0.55723928 1.09164534
v -5.25462904 0.58116720 1.07700661
v -5.27171436 0.59250722 1.07512030
v -5.27171436 0.58104241 1.08166750
v -5.27171436 0.55962585 1.09297116
v -5.21883122 0.56474210 1.06503310
v -5.21468183 0.54958048 1.07010409
v -5.21923801 0.50135025 1.10039306
v -5.21301404 0.50135025 1.09534950
v -5.21183425 0.50135025 1.09431066
v -5.20699347 0.50135025 1.08900737
v -5.20207130 0.50135025 1.08131207
v -5.19763732 0.50135025 1.07419092
v -5.19499313 0.50135025 1.06944802
v -5.16196149 0.63212712 0.96123576
v -5.19397614 0.50135025 1.06735676
v -5.19125055 0.50135025 1.06165702
v -5.18974556 0.50135025 1.05822627
v -5.57750109 0.63201796 0.96123576
v -5.52518734 0.50135025 1.07573537
v -5.57709429 0.62016318 0.97181510
v -5.53840807 0.50135025 1.04891817
v -5.53092311 0.50135025 1.06466410
v -5.52779093 0.50135025 1.07082852
v -5.46282583 0.61064816 1.05885500
v -5.49842026 0.50135025 1.10085785
v -5.49797287 0.50208338 1.10085785
v -5.50476623 0.51799371 1.08937636
v -5.49842026 0.51194155 1.09623787
v -5.49317269 0.52602689 1.09316255
v -5.48886071 0.53760091 1.09046989
v -5.49341669 0.56368141 1.07579005
v -5.47258899 0.55624097 1.09109863
v -5.47909755 0.56269874 1.08433281
v -5.46282583 0.56854812 1.08858369
v -5.46282583 0.58104241 1.08157180
v -5.46282583 0.59175851 1.07477865
v -5.46282583 0.60044683 1.06754804
v -5.30649519 0.60436200 1.07048676
v -5.28908448 0.60281776 1.06910626
v -5.32386531 0.60551627 1.07153928
v -5.34123543 0.60603103 1.07201764
v -5.41067488 0.61401740 1.06255917
v -5.39330497 0.60601545 1.07204498
v -5.37593486 0.60635861 1.07235930
v -5.35860534 0.60620264 1.07220903
v -5.44545592 0.61236401 1.06060461
v -5.42804500 0.61322188 1.06164335
v -5.24836448 0.55280934 1.08936269
v -5.24258790 0.57545820 1.07473764
v -5.23266215 0.51585678 1.10085785
v -5.22420079 0.50662252 1.10085785
v -5.21988881 0.50135025 1.10085785
v -5.22627558 0.55784761 1.07453258
v -5.25442564 0.53449684 1.10085785
v -5.25422224 0.54672596 1.09477535
v -5.25422224 0.56329144 1.08620535
v -5.27171436 0.54630482 1.09994204
v -5.27171436 0.54438619 1.10085785
v -5.28908448 0.59412949 1.07639145
v -5.32386531 0.58458325 1.08747649
v -5.30987158 0.57419473 1.09156332
v -5.32386531 0.56368141 1.09980533
v -5.29953903 0.55444715 1.10085785
v -5.32386531 0.56182518 1.10085785
v -5.30580359 0.55658413 1.10085785
v -5.18270799 0.50135025 1.02968681
v -5.16423948 0.61475053 0.96123576
v -5.18608438 0.50135025 1.04767437
v -5.18380618 0.50135025 1.03986971
v -5.57725688 0.62532625 0.96123576
v -5.57709429 0.62016318 0.96334069
v -5.54914742 0.50153744 0.96123576
v -5.54715423 0.50135025 1.01230074
v -5.54381844 0.50135025 1.03011049
v -5.54137765 0.50135025 1.04003375
v -5.44545592 0.59412949 1.07673321
v -5.44545592 0.60281776 1.06929764
v -5.49008111 0.51258111 1.10085785
v -5.48166034 0.52357797 1.10085785
v -5.48190455 0.53065960 1.09753636
v -5.47665697 0.54630482 1.09343585
v -5.48536233 0.54630482 1.08851534
v -5.47523318 0.53048805 1.10085785
v -5.46311063 0.54326315 1.10085785
v -5.46282583 0.54630482 1.09961395
v -5.46282583 0.55985980 1.09298483
v -5.45188309 0.57180815 1.09018282
v -5.44582192 0.57982574 1.08624636
v -5.32386531 0.59682800 1.07879713
v -5.30649519 0.59567373 1.07767636
v -5.34123543 0.59734271 1.07938485
v -5.37593486 0.59767029 1.07994523
v -5.41067488 0.60512635 1.07123853
v -5.39330497 0.59732713 1.07963092
v -5.42804500 0.60405007 1.07033639
v -5.23628273 0.51961598 1.10085785
v -5.27586354 0.54602405 1.10085785
v -5.27326015 0.54501017 1.10085785
v -5.34123543 0.58569076 1.08806421
v -5.34123543 0.57701803 1.09321723
v -5.34123543 0.56405579 1.10085785
v -5.33826584 0.56368141 1.10085785
v -5.32638729 0.56216839 1.10085785
v -5.18262659 0.50135025 1.02251098
v -5.18738617 0.50135025 0.96123576
v -5.57587389 0.61783900 0.96123576
v -5.54206925 0.50135025 0.96123576
v -5.54731683 0.50135025 0.96785131
v -5.54723563 0.50135025 0.99492824
v -5.42804500 0.58310141 1.08639673
v -5.41067488 0.58469246 1.08736713
v -5.39330497 0.58622111 1.08831028
v -5.42804500 0.59536175 1.07770370
v -5.45843245 0.54600842 1.10085785
v -5.44574052 0.55235697 1.10085785
v -5.44582192 0.56508526 1.09450204
v -5.44028955 0.57319642 1.09094825
v -5.37593486 0.58675141 1.08863827
v -5.35860534 0.58623670 1.08835129
v -5.41067488 0.59643803 1.07868776
v -5.35860534 0.57756396 1.09354522
v -5.35677495 0.56508526 1.10085785
v -5.42804500 0.57442873 1.09165901
v -5.41067488 0.57601972 1.09258850
v -5.39330497 0.57754838 1.09349054
v -5.37593486 0.57807873 1.09383230
v -5.42804500 0.55700533 1.10085785
v -5.42804500 0.56368141 1.09746800
v -5.41067488 0.56120126 1.10085785
v -5.41067488 0.56368141 1.09953192
v -5.39899994 0.56368141 1.10085785
v -5.35860534 0.56519447 1.10085785
v -5.39330497 0.56480450 1.10085785
v -5.37593486 0.56608357 1.10085785
f 1 2 3
f 1 3 4
f 1 4 16
f 1 16 39
f 1 39 78
f 1 78 130
f 1 130 183
f 1 183 221
f 1 221 223
f 1 223 188
f 1 188 222
f 1 222 186
f 1 186 134
f 1 134 79
f 1 79 40
f 1 40 18
f 1 18 5
f 1 5 6
f 1 6 2
f 2 7 8
f 2 8 9
f 2 9 3
f 2 6 10
f 2 10 7
f 3 11 12
f 3 12 13
f 3 13 14
f 3 14 15
f 3 15 16
f 3 16 4
f 3 9 17
f 3 17 11
f 5 18 6
f 6 18 19
f 6 19 20
f 6 20 21
f 6 21 22
f 6 22 23
f 6 23 10
f 7 9 8
f 7 10 24
f 7 24 25
f 7 25 26
f 7 26 9
f 9 27 28
f 9 28 29
f 9 29 30
f 9 30 11
f 9 11 17
f 9 26 31
f 9 31 27
f 10 23 32
f 10 32 33
f 10 33 24
f 11 30 12
f 12 34 13
f 12 30 35
f 12 35 36
f 12 36 34
f 13 37 38
f 13 38 14
f 13 34 37
f 14 38 15
f 15 38 16
f 16 38 39
f 18 40 19
f 19 40 41
f 19 41 20
f 20 42 21
f 20 41 43
f 20 43 44
f 20 44 45
f 20 45 46
f 20 46 42
f 21 42 47
f 21 47 22
f 22 47 23
f 23 47 32
f 24 33 48
f 24 48 25
f 25 49 26
f 25 48 50
f 25 50 49
f 26 49 31
f 27 51 28
f 27 31 52
f 27 52 51
f 28 53 54
f 28 54 29
f 28 51 52
f 28 52 55
f 28 55 56
f 28 56 53
f 29 54 35
f 29 35 30
f 31 55 52
f 31 49 57
f 31 57 58
f 31 58 59
f 31 59 55
f 32 47 60
f 32 60 33
f 33 60 61
f 33 61 62
f 33 62 48
f 34 63 64
f 34 64 65
f 34 65 37
f 34 36 66
f 34 66 63
f 35 54 67
f 35 67 68
f 35 68 69
f 35 69 70
f 35 70 36
f 36 70 66
f 37 71 38
f 37 65 72
f 37 72 73
f 37 73 74
f 37 74 75
f 37 75 76
f 37 76 71
f 38 71 77
f 38 77 78
f 38 78 39
f 40 79 41
f 41 80 43
f 41 79 81
f 41 81 80
f 42 46 82
f 42 82 83
f 42 83 60
f 42 60 47
f 43 80 84
f 43 84 85
f 43 85 86
f 43 86 44
f 44 86 87
f 44 87 88
f 44 88 45
f 45 88 89
f 45 89 90
f 45 90 46
f 46 90 91
f 46 91 92
f 46 92 93
f 46 93 94
f 46 94 82
f 48 62 95
f 48 95 50
f 49 50 57
f 50 95 57
f 53 96 97
f 53 97 54
f 53 56 98
f 53 98 96
f 54 97 67
f 55 59 99
f 55 99 100
f 55 100 56
f 56 100 98
f 57 95 62
f 57 62 101
f 57 101 102
f 57 102 103
f 57 103 104
f 57 104 99
f 57 99 59
f 57 59 58
f 60 83 105
f 60 105 106
f 60 106 61
f 61 106 107
f 61 107 101
f 61 101 62
f 63 66 108
f 63 108 109
f 63 109 64
f 64 109 110
f 64 110 111
f 64 111 112
f 64 112 113
f 64 113 114
f 64 114 72
f 64 72 65
f 66 70 108
f 67 97 115
f 67 115 68
f 68 116 117
f 68 117 110
f 68 110 109
f 68 109 69
f 68 115 118
f 68 118 119
f 68 119 120
f 68 120 116
f 69 109 70
f 70 109 108
f 71 76 77
f 72 114 73
f 73 114 113
f 73 113 121
f 73 121 122
f 73 122 74
f 74 122 123
f 74 123 124
f 74 124 75
f 75 124 125
f 75 125 76
f 76 125 124
f 76 124 123
f 76 123 168
f 76 168 141
f 76 141 86
f 76 86 85
f 76 85 84
f 76 84 135
f 76 135 139
f 76 139 138
f 76 138 137
f 76 137 191
f 76 191 190
f 76 190 189
f 76 189 225
f 76 225 224
f 76 224 223
f 76 223 221
f 76 221 220
f 76 220 182
f 76 182 185
f 76 185 184
f 76 184 133
f 76 133 132
f 76 132 131
f 76 131 129
f 76 129 128
f 76 128 127
f 76 127 126
f 76 126 77
f 77 126 127
f 77 127 128
f 77 128 129
f 77 129 78
f 78 129 131
f 78 131 132
f 78 132 133
f 78 133 130
f 79 134 81
f 80 81 135
f 80 135 84
f 81 134 136
f 81 136 137
f 81 137 138
f 81 138 139
f 81 139 135
f 82 94 83
f 83 94 140
f 83 140 105
f 86 141 87
f 87 141 142
f 87 142 143
f 87 143 88
f 88 143 142
f 88 142 144
f 88 144 145
f 88 145 146
f 88 146 89
f 89 146 147
f 89 147 91
f 89 91 90
f 91 147 148
f 91 148 149
f 91 149 92
f 92 149 148
f 92 148 93
f 93 148 150
f 93 150 151
f 93 151 152
f 93 152 94
f 94 152 153
f 94 153 140
f 96 98 154
f 96 154 97
f 97 154 155
f 97 155 115
f 98 100 156
f 98 156 154
f 99 157 100
f 99 104 157
f 100 157 156
f 101 107 102
f 102 158 159
f 102 159 160
f 102 160 103
f 102 107 158
f 103 160 161
f 103 161 157
f 103 157 104
f 105 140 162
f 105 162 106
f 106 163 158
f 106 158 107
f 106 162 163
f 110 117 164
f 110 164 165
f 110 165 111
f 111 165 112
f 112 166 167
f 112 167 168
f 112 168 169
f 112 169 113
f 112 165 166
f 113 169 123
f 113 123 121
f 115 155 118
f 116 170 171
f 116 171 164
f 116 164 172
f 116 172 117
f 116 120 173
f 116 173 174
f 116 174 170
f 117 172 164
f 118 155 154
f 118 154 175
f 118 175 176
f 118 176 177
f 118 177 178
f 118 178 119
f 119 179 120
f 119 178 180
f 119 180 181
f 119 181 179
f 120 179 173
f 121 123 122
f 123 169 168
f 130 182 183
f 130 133 184
f 130 184 185
f 130 185 182
f 134 186 187
f 134 187 136
f 136 188 189
f 136 189 190
f 136 190 191
f 136 191 137
f 136 187 188
f 140 153 192
f 140 192 193
f 140 193 162
f 141 168 167
f 141 167 166
f 141 166 212
f 141 212 170
f 141 170 174
f 141 174 214
f 141 214 213
f 141 213 179
f 141 179 181
f 141 181 180
f 141 180 219
f 141 219 218
f 141 218 217
f 141 217 238
f 141 238 248
f 141 248 250
f 141 250 249
f 141 249 247
f 141 247 245
f 141 245 243
f 141 243 231
f 141 231 230
f 141 230 200
f 141 200 199
f 141 199 195
f 141 195 194
f 141 194 142
f 142 194 145
f 142 145 144
f 145 194 195
f 145 195 146
f 146 195 196
f 146 196 197
f 146 197 198
f 146 198 147
f 147 198 148
f 148 198 197
f 148 197 195
f 148 195 199
f 148 199 200
f 148 200 201
f 148 201 202
f 148 202 150
f 150 202 203
f 150 203 151
f 151 203 152
f 152 203 204
f 152 204 192
f 152 192 153
f 154 156 205
f 154 205 206
f 154 206 175
f 156 157 207
f 156 207 205
f 157 161 208
f 157 208 207
f 158 209 159
f 158 163 209
f 159 209 210
f 159 210 208
f 159 208 160
f 160 208 161
f 162 193 211
f 162 211 209
f 162 209 163
f 164 212 165
f 164 171 212
f 165 212 166
f 170 212 171
f 173 179 213
f 173 213 214
f 173 214 174
f 175 206 176
f 176 206 205
f 176 205 215
f 176 215 216
f 176 216 178
f 176 178 177
f 178 216 217
f 178 217 218
f 178 218 219
f 178 219 180
f 182 220 183
f 183 220 221
f 186 222 187
f 187 222 188
f 188 223 224
f 188 224 225
f 188 225 189
f 192 204 226
f 192 226 227
f 192 227 228
f 192 228 229
f 192 229 211
f 192 211 193
f 195 197 196
f 200 230 201
f 201 230 203
f 201 203 202
f 203 230 231
f 203 231 232
f 203 232 233
f 203 233 204
f 204 233 226
f 205 207 215
f 207 208 234
f 207 234 235
f 207 235 215
f 208 210 234
f 209 236 210
f 209 211 236
f 210 236 228
f 210 228 234
f 211 229 236
f 215 235 237
f 215 237 216
f 216 237 238
f 216 238 217
f 226 233 239
f 226 239 227
f 227 240 228
f 227 239 240
f 228 236 229
f 228 240 241
f 228 241 242
f 228 242 234
f 231 243 232
f 232 243 244
f 232 244 233
f 233 244 245
f 233 245 246
f 233 246 247
f 233 247 239
f 234 242 237
f 234 237 235
f 237 242 248
f 237 248 238
f 239 247 249
f 239 249 240
f 240 249 241
f 241 249 250
f 241 250 242
f 242 250 248
f 243 245 244
f 245 247 246

