# https://github.com/mikedh/trimesh
v -3.67325733 0.65075388 2.62799253
v -3.67777232 0.65075388 2.58782457
v -3.67427961 0.65075388 2.63994021
v -3.67274619 0.65053841 2.63994021
v -3.56898671 0.63324990 2.62035719
v -3.56898671 0.63372391 2.57606714
v -3.56898671 0.63373251 2.57515397
v -3.90974042 0.65075388 2.58782457
v -3.58542807 0.63455129 2.57515397
v -3.60280650 0.63520627 2.57515397
v -3.60370098 0.63521487 2.57515397
v -3.62018493 0.63531833 2.57515397
v -3.91762033 0.65075388 2.63994021
v -3.62687224 0.63468918 2.63994021
v -3.55139528 0.62832017 2.62035719
v -3.56804962 0.63350845 2.57515397
v -3.62107941 0.63531833 2.57515397
v -3.62687224 0.63513735 2.57515397
v -3.90986822 0.65053841 2.58782457
v -3.91932411 0.65053841 2.63994021
v -3.91664067 0.65075388 2.62818914
v -3.62687224 0.61792636 2.63994021
v -3.52068486 0.56494043 2.62035719
v -3.52128118 0.58058284 2.62035719
v -3.52204786 0.59084735 2.62035719
v -3.52285716 0.59844018 2.62035719
v -3.52392200 0.60530904 2.62035719
v -3.52464612 0.60822208 2.62035719
v -3.54198196 0.62377828 2.62035719
v -3.54287644 0.62451943 2.62035719
v -3.54377092 0.62496760 2.62035719
v -3.55011746 0.62833741 2.57515397
v -3.62687224 0.61573728 2.57515397
v -3.94577510 0.56270827 2.58782457
v -3.94522140 0.56446642 2.58782457
v -3.94070638 0.57607539 2.58782457
v -3.92596880 0.61258299 2.58782457
v -3.92780038 0.63087120 2.63994021
v -3.62717040 0.61748684 2.63994021
v -3.51927924 0.56494043 2.57515397
v -3.51927924 0.56578504 2.57515397
v -3.51983297 0.58105686 2.57515397
v -3.69276547 0.56302714 2.63994021
v -3.70017688 0.56270827 2.63994021
v -3.67193692 0.56270827 2.60742027
v -3.52166452 0.59844018 2.57515397
v -3.52422016 0.60874777 2.57515397
v -3.53542244 0.61868481 2.57515397
v -3.53878738 0.62151163 2.57515397
v -3.54262090 0.62472630 2.57515397
v -3.54653954 0.62665683 2.57515397
v -3.54896743 0.62780307 2.57515397
v -3.53908554 0.56494043 2.57515397
v -3.95437917 0.56270827 2.63994021
v -3.76236442 0.56270827 2.58782457
v -3.94317690 0.59156267 2.63469569
v -3.94347506 0.59238144 2.63994021
v -3.67163876 0.56270827 2.59636676
v -3.68497075 0.56270827 2.58797676
f 1 2 8
f 1 8 21
f 1 21 13
f 1 13 3
f 1 3 4
f 1 4 5
f 1 5 6
f 1 6 7
f 1 7 2
f 2 7 9
f 2 9 10
f 2 10 11
f 2 11 12
f 2 12 17
f 2 17 8
f 3 13 20
f 3 20 38
f 3 38 57
f 3 57 54
f 3 54 44
f 3 44 43
f 3 43 39
f 3 39 22
f 3 22 14
f 3 14 4
f 4 14 15
f 4 15 5
f 5 15 16
f 5 16 6
f 6 16 7
f 7 16 32
f 7 32 52
f 7 52 51
f 7 51 50
f 7 50 49
f 7 49 48
f 7 48 47
f 7 47 46
f 7 46 42
f 7 42 41
f 7 41 40
f 7 40 53
f 7 53 33
f 7 33 18
f 7 18 17
f 7 17 12
f 7 12 11
f 7 11 10
f 7 10 9
f 8 17 18
f 8 18 19
f 8 19 20
f 8 20 21
f 13 21 20
f 14 22 23
f 14 23 24
f 14 24 25
f 14 25 26
f 14 26 27
f 14 27 28
f 14 28 29
f 14 29 30
f 14 30 31
f 14 31 15
f 15 32 16
f 15 31 32
f 18 33 34
f 18 34 35
f 18 35 36
f 18 36 37
f 18 37 19
f 19 37 38
f 19 38 20
f 22 39 23
f 23 40 41
f 23 41 42
f 23 42 24
f 23 39 43
f 23 43 44
f 23 44 45
f 23 45 40
f 24 42 25
f 25 46 26
f 25 42 46
f 26 46 27
f 27 47 28
f 27 46 47
f 28 47 29
f 29 48 49
f 29 49 50
f 29 50 30
f 29 47 48
f 30 50 31
f 31 50 51
f 31 51 52
f 31 52 32
f 33 53 34
f 34 54 35
f 34 53 40
f 34 40 55
f 34 55 59
f 34 59 58
f 34 58 45
f 34 45 44
f 34 44 54
f 35 54 56
f 35 56 36
f 36 56 37
f 37 56 38
f 38 56 57
f 40 45 58
f 40 58 59
f 40 59 55
f 54 57 56

