# https://github.com/mikedh/trimesh
v 0.04603123 0.04773748 1.55092626
v 0.16696794 0.03614497 1.55020882
v 0.04603123 0.04773748 1.55153526
v 0.04603123 0.04846201 1.52296225
v 0.16696794 0.03759404 1.53355329
v 0.16696794 0.04314878 1.56104241
v 0.04603123 0.04797899 1.56200757
v 0.04603123 0.05981301 1.52105771
v 0.16696794 0.04339029 1.52324611
v 0.16696794 0.03831857 1.53202552
v 0.16696794 0.05570733 1.56829922
v 0.16696794 0.05981301 1.57016244
v 0.04603123 0.05981301 1.56440761
v 0.16669557 0.05981301 1.52105771
v 0.16696794 0.04435633 1.52311195
v 0.04603123 2.47491364 1.52105771
v 0.16696794 0.07720176 1.57050311
v 0.04603123 1.75883623 1.57378054
v 0.16696794 0.07696025 1.52105771
v 0.16696794 0.05957150 1.52109903
v 0.04603123 2.49133635 1.52109385
v 0.16696794 2.49181937 1.52109385
v 0.16669557 2.47491364 1.52105771
v 0.16696794 1.76439098 1.55391464
v 0.15839722 1.77139478 1.57378054
v 0.15839722 1.76946270 1.57378054
v 0.15309393 1.76390795 1.57378054
v 0.15020533 1.76270040 1.57378054
v 0.13422421 1.75931925 1.57378054
v 0.13193938 1.75883623 1.57378054
v 0.04603123 1.78129666 1.57378054
v 0.16696794 2.47467213 1.52105771
v 0.04603123 2.49230240 1.52109903
v 0.16669557 2.49230240 1.52109903
v 0.16696794 2.50317016 1.52297260
v 0.16696794 2.47491364 1.54191974
v 0.15561529 1.77308536 1.57378054
v 0.11457300 1.78129666 1.57378054
v 0.04603123 2.49230240 1.53603587
v 0.04603123 2.50341167 1.52299839
v 0.16669557 2.50341167 1.52299839
v 0.16696794 2.50341167 1.53092101
v 0.16696794 2.48070989 1.54121783
v 0.13193938 1.78105515 1.57378054
v 0.14383657 1.77791551 1.57378054
v 0.14931758 1.77622499 1.57378054
v 0.16696794 2.49254391 1.53926685
v 0.16696794 2.49302693 1.53908105
v 0.04603123 2.50341167 1.53041003
v 0.16669557 2.50341167 1.53104487
f 1 2 3
f 1 3 7
f 1 7 13
f 1 13 18
f 1 18 31
f 1 31 39
f 1 39 49
f 1 49 40
f 1 40 33
f 1 33 21
f 1 21 16
f 1 16 8
f 1 8 4
f 1 4 2
f 2 5 10
f 2 10 9
f 2 9 15
f 2 15 20
f 2 20 19
f 2 19 32
f 2 32 22
f 2 22 35
f 2 35 42
f 2 42 48
f 2 48 47
f 2 47 43
f 2 43 36
f 2 36 24
f 2 24 17
f 2 17 12
f 2 12 11
f 2 11 6
f 2 6 7
f 2 7 3
f 2 4 5
f 4 8 9
f 4 9 10
f 4 10 5
f 6 11 7
f 7 11 12
f 7 12 13
f 8 14 15
f 8 15 9
f 8 16 23
f 8 23 32
f 8 32 19
f 8 19 14
f 12 17 13
f 13 17 18
f 14 19 20
f 14 20 15
f 16 21 22
f 16 22 23
f 17 24 25
f 17 25 26
f 17 26 27
f 17 27 28
f 17 28 29
f 17 29 30
f 17 30 18
f 18 30 29
f 18 29 28
f 18 28 27
f 18 27 26
f 18 26 25
f 18 25 37
f 18 37 46
f 18 46 45
f 18 45 44
f 18 44 38
f 18 38 31
f 21 33 22
f 22 32 23
f 22 33 34
f 22 34 35
f 24 36 25
f 25 36 37
f 31 38 36
f 31 36 39
f 33 40 41
f 33 41 34
f 34 41 35
f 35 41 42
f 36 43 39
f 36 38 44
f 36 44 45
f 36 45 46
f 36 46 37
f 39 43 47
f 39 47 48
f 39 48 49
f 40 49 50
f 40 50 42
f 40 42 41
f 42 50 48
f 48 50 49

