# https://github.com/mikedh/trimesh
v -3.29979994 0.71126739 1.84632440
v -3.30468404 0.72006026 1.84632440
v -3.30466684 0.72006026 1.82899644
v -3.29976410 0.71129307 1.82899644
v -3.29944586 0.71126739 1.84632440
v -3.29979994 0.71126739 2.41962610
v -3.30592263 0.72438218 2.18069756
v -3.30966275 0.73743534 1.84632440
v -3.30468404 0.72006026 2.41962610
v -3.30961545 0.73743534 1.82899644
v -3.30866500 0.73743534 1.81159805
v -3.30326483 0.71862134 1.81286595
v -3.29969816 0.71133419 1.81948719
v -3.29948026 0.71129307 1.82899644
v -3.29501763 0.71919177 1.81018927
v -3.29944586 0.71126739 2.41962610
v -3.29974403 0.71130850 2.43153025
v -3.30592263 0.72438218 2.18076801
v -3.30504099 0.75480531 1.84632440
v -3.30966275 0.73743534 2.41962610
v -3.30359024 0.71838496 2.43723581
v -3.30379811 0.72083113 2.45442288
v -3.30949073 0.73743534 2.43702449
v -3.30494208 0.75480531 1.82899644
v -3.30334224 0.75628021 1.81237288
v -3.30268281 0.75247217 1.79419966
v -3.30573340 0.73743534 1.79419966
v -3.30268281 0.72247562 1.79419966
v -3.29955337 0.71133419 1.81948719
v -3.29501763 0.72294839 1.77898488
v -3.29501763 0.71966972 2.43723581
v -3.29501763 0.71978788 2.44709725
v -3.29950893 0.71130850 2.43153025
v -3.29501763 0.72327731 2.48147139
v -3.29990172 0.76365472 1.84632440
v -3.29986589 0.76363416 1.82899644
v -3.30504099 0.75480531 2.41962610
v -3.30796543 0.73743534 2.45442288
v -3.30149870 0.72478820 2.47175085
v -3.30379811 0.75413722 2.45442288
v -3.29976410 0.76357249 1.81871238
v -3.29501763 0.75943041 1.79419966
v -3.29501763 0.75303747 1.77891443
v -3.30099265 0.74922944 1.78285902
v -3.29607702 0.76304830 1.80716039
v -3.29501763 0.76237509 1.80251145
v -3.30167216 0.73743534 1.78152066
v -3.30099265 0.72566694 1.78285902
v -3.29501763 0.73492237 1.77151835
v -3.29501763 0.72509651 2.48442984
v -3.29979564 0.72833412 2.48076700
v -3.29501763 0.76376776 1.84632440
v -3.29990172 0.76365472 2.41962610
v -3.29501763 0.76374208 1.82899644
v -3.30373360 0.75652172 2.43836282
v -3.29981284 0.76359818 2.43350255
v -3.30336231 0.73743534 2.47175085
v -3.29979564 0.74653145 2.48076700
v -3.30149870 0.75012878 2.47175085
v -3.29913621 0.76346458 2.44505451
v -3.29501763 0.76363929 1.81547218
v -3.29501763 0.76317677 1.80814655
v -3.29501763 0.73743534 1.77025045
v -3.29668054 0.73743534 1.77278626
v -3.29501763 0.73743534 2.48985363
v -3.29987592 0.73743534 2.48090790
v -3.29501763 0.76376776 2.41962610
v -3.29501763 0.76367528 2.43667230
v -3.29501763 0.76373695 2.42603604
v -3.29501763 0.76354681 2.44836515
v -3.29501763 0.75034461 2.48379587
v -3.29501763 0.75628021 2.47175085
v -3.29601968 0.76282217 2.45442288
v -3.29501763 0.76289928 2.45576123
v -3.29501763 0.76172756 2.45914228
f 1 2 3
f 1 3 4
f 1 4 14
f 1 14 5
f 1 5 16
f 1 16 6
f 1 6 9
f 1 9 2
f 2 7 8
f 2 8 3
f 2 9 18
f 2 18 7
f 3 8 10
f 3 10 11
f 3 11 12
f 3 12 13
f 3 13 4
f 4 13 29
f 4 29 14
f 5 14 15
f 5 15 16
f 6 16 33
f 6 33 17
f 6 17 9
f 7 18 20
f 7 20 8
f 8 19 10
f 8 20 37
f 8 37 19
f 9 17 21
f 9 21 22
f 9 22 23
f 9 23 20
f 9 20 18
f 10 19 24
f 10 24 11
f 11 25 26
f 11 26 27
f 11 27 28
f 11 28 12
f 11 24 25
f 12 28 13
f 13 28 30
f 13 30 29
f 14 29 15
f 15 29 30
f 15 30 49
f 15 49 63
f 15 63 43
f 15 43 42
f 15 42 46
f 15 46 62
f 15 62 61
f 15 61 54
f 15 54 52
f 15 52 67
f 15 67 69
f 15 69 68
f 15 68 70
f 15 70 74
f 15 74 75
f 15 75 72
f 15 72 71
f 15 71 65
f 15 65 50
f 15 50 34
f 15 34 32
f 15 32 31
f 15 31 16
f 16 31 32
f 16 32 33
f 17 33 34
f 17 34 22
f 17 22 21
f 19 35 36
f 19 36 24
f 19 37 53
f 19 53 35
f 20 23 37
f 22 38 23
f 22 34 39
f 22 39 38
f 23 38 40
f 23 40 37
f 24 36 41
f 24 41 25
f 25 41 26
f 26 42 43
f 26 43 44
f 26 44 27
f 26 41 45
f 26 45 46
f 26 46 42
f 27 44 47
f 27 47 48
f 27 48 28
f 28 48 30
f 30 48 49
f 32 34 33
f 34 50 51
f 34 51 39
f 35 52 36
f 35 53 67
f 35 67 52
f 36 54 41
f 36 52 54
f 37 40 55
f 37 55 56
f 37 56 53
f 38 39 51
f 38 51 57
f 38 57 58
f 38 58 59
f 38 59 40
f 40 60 55
f 40 59 60
f 41 61 62
f 41 62 45
f 41 54 61
f 43 63 44
f 44 63 64
f 44 64 47
f 45 62 46
f 47 64 48
f 48 64 63
f 48 63 49
f 50 65 51
f 51 65 66
f 51 66 57
f 53 56 67
f 55 60 56
f 56 68 69
f 56 69 67
f 56 60 70
f 56 70 68
f 57 66 58
f 58 66 65
f 58 65 71
f 58 71 59
f 59 71 72
f 59 72 73
f 59 73 60
f 60 73 74
f 60 74 70
f 72 75 73
f 73 75 74

