# https://github.com/mikedh/trimesh
v -4.30852984 0.51897353 2.49023904
v -4.30741197 0.51493340 2.49023904
v -4.30929838 0.51585077 2.49333875
v -4.30954279 0.51897353 2.49216501
v -3.99026695 0.51897353 2.49023904
v -4.30678323 0.51271590 2.49023904
v -4.34545268 0.51252151 2.57468405
v -4.34297253 0.51782526 2.56546750
v -4.34374097 0.51897353 2.56655859
v -3.99026695 0.51897353 2.57468405
v -3.99026695 0.45691412 2.49023904
v -4.29955242 0.49521902 2.49023904
v -4.34080670 0.50624570 2.56993938
v -4.34478894 0.51072323 2.57468405
v -4.34709447 0.51883377 2.57468405
v -4.32526210 0.51897353 2.57468405
v -3.99026695 0.45691412 2.57468405
v -4.27181661 0.45691412 2.49023904
v -4.29909829 0.49414366 2.49023904
v -4.33815195 0.49664064 2.57468405
v -4.30542096 0.45691412 2.57468405
v -4.28033990 0.45691412 2.50853160
v -4.27866320 0.46387034 2.49023904
v -4.29322975 0.48235149 2.49023904
v -4.33689438 0.49422874 2.57468405
v -4.31310590 0.46314130 2.57468405
v -4.28662767 0.47264918 2.49023904
v -4.32110526 0.47108174 2.57468405
v -4.29260101 0.48126402 2.49023904
v -4.33623064 0.49309871 2.57468405
v -4.32183881 0.47198088 2.57468405
v -4.32830118 0.48062001 2.57468405
f 1 2 3
f 1 3 4
f 1 4 9
f 1 9 16
f 1 16 10
f 1 10 5
f 1 5 11
f 1 11 18
f 1 18 23
f 1 23 27
f 1 27 29
f 1 29 24
f 1 24 19
f 1 19 12
f 1 12 6
f 1 6 2
f 2 6 3
f 3 6 7
f 3 7 8
f 3 8 4
f 4 8 9
f 5 10 17
f 5 17 11
f 6 12 13
f 6 13 14
f 6 14 7
f 7 14 20
f 7 20 25
f 7 25 30
f 7 30 32
f 7 32 31
f 7 31 28
f 7 28 26
f 7 26 21
f 7 21 17
f 7 17 10
f 7 10 16
f 7 16 15
f 7 15 9
f 7 9 8
f 9 15 16
f 11 17 21
f 11 21 22
f 11 22 18
f 12 19 13
f 13 20 14
f 13 19 20
f 18 22 23
f 19 24 20
f 20 24 25
f 21 26 22
f 22 27 23
f 22 26 28
f 22 28 27
f 24 29 25
f 25 29 30
f 27 28 31
f 27 31 32
f 27 32 29
f 29 32 30

