# https://github.com/mikedh/trimesh
v -1.43880291 0.91119669 -0.32651625
v -1.43880291 0.89707241 -0.32170136
v -1.43880291 0.97893258 -0.32651625
v -1.24771422 0.91119669 -0.32651625
v -1.43880291 0.89182132 -0.30819914
v -1.24771422 0.89707241 -0.32170136
v -1.43880291 0.97893258 -0.30799471
v -1.24771422 0.97893258 -0.32651625
v -1.43880291 0.89260118 -0.23897344
v -1.24771422 0.89182132 -0.30819914
v -1.36229254 0.89072950 -0.25609811
v -1.36229254 0.89041757 -0.23897344
v -1.37965230 0.89071218 -0.23897344
v -1.39703091 0.89114544 -0.23897344
v -1.43880291 0.90958498 -0.23897344
v -1.40170764 0.97893258 -0.23871225
v -1.24771422 0.97893258 -0.30799471
v -1.36229254 0.92422917 -0.21091307
v -1.36305953 0.92422917 -0.21106054
v -1.36932638 0.92422917 -0.21251416
v -1.37491964 0.92422917 -0.21410407
v -1.38002658 0.92422917 -0.21585285
v -1.24771422 0.89260118 -0.23897344
v -1.32757301 0.89100679 -0.23897344
v -1.34491413 0.89071218 -0.23897344
v -1.34519458 0.92422917 -0.21050420
v -1.35207867 0.92422917 -0.21065188
v -1.39429973 0.97893258 -0.22535772
v -1.39508536 0.97893258 -0.22669783
v -1.24771422 0.90956763 -0.23897344
v -1.27253782 0.97893258 -0.23871225
v -1.26499900 0.97335218 -0.22794681
v -1.32639446 0.97893258 -0.21393360
v -1.32875157 0.97893258 -0.21412665
v -1.37965230 0.97893258 -0.22149665
v -1.26402633 0.96330054 -0.22701577
v -1.31365530 0.97893258 -0.21452412
v -1.27545603 0.97893258 -0.23344314
v -1.27545603 0.97628968 -0.22506256
v -1.28413612 0.97893258 -0.22355219
f 1 2 5
f 1 5 9
f 1 9 15
f 1 15 7
f 1 7 3
f 1 3 8
f 1 8 4
f 1 4 6
f 1 6 2
f 2 6 10
f 2 10 5
f 3 7 16
f 3 16 29
f 3 29 28
f 3 28 35
f 3 35 34
f 3 34 33
f 3 33 37
f 3 37 40
f 3 40 38
f 3 38 31
f 3 31 17
f 3 17 8
f 4 8 17
f 4 17 30
f 4 30 23
f 4 23 10
f 4 10 6
f 5 10 11
f 5 11 12
f 5 12 13
f 5 13 14
f 5 14 9
f 7 15 16
f 9 14 18
f 9 18 19
f 9 19 20
f 9 20 21
f 9 21 22
f 9 22 15
f 10 23 24
f 10 24 25
f 10 25 12
f 10 12 11
f 12 25 26
f 12 26 13
f 13 26 14
f 14 26 27
f 14 27 18
f 15 22 28
f 15 28 29
f 15 29 16
f 17 31 32
f 17 32 30
f 18 27 33
f 18 33 34
f 18 34 35
f 18 35 19
f 19 35 20
f 20 35 28
f 20 28 21
f 21 28 22
f 23 30 36
f 23 36 26
f 23 26 24
f 24 26 25
f 26 36 37
f 26 37 33
f 26 33 27
f 30 32 36
f 31 38 32
f 32 38 39
f 32 39 36
f 36 39 37
f 37 39 40
f 38 40 39

