# https://github.com/mikedh/trimesh
v -2.75498864 0.39061777 1.42709613
v -2.75498864 0.39152250 1.42942082
v -2.75498864 0.39076856 1.41135004
v -2.70967543 -0.00203472 1.40119169
v -2.70967543 -0.00203472 1.40531435
v -2.75498864 0.43758831 1.44581464
v -2.75498864 0.39189947 1.40932807
v -2.75498864 0.39385973 1.40639193
v -2.75498864 0.40727987 1.40050154
v -2.71017554 0.00769105 1.40001122
v -2.70425621 0.00769105 1.39132393
v -2.69427862 -0.00263787 1.38454968
v -2.70012412 -0.00309024 1.39506522
v -2.70016513 -0.00309024 1.41143481
v -2.69436059 -0.00271326 1.42199272
v -2.70487930 0.00769105 1.41540612
v -2.75498864 0.76087828 1.44581464
v -2.69618885 0.00769105 1.42288264
v -2.73031107 0.37116607 1.44581464
v -2.75498864 0.41941832 1.40033812
v -2.69556576 0.00769105 1.38397454
v -2.68767876 -0.00263787 1.38454968
v -2.68225959 -0.00376879 1.39371522
v -2.68202999 -0.00376879 1.41294223
v -2.68729346 -0.00271326 1.42199272
v -2.75231592 0.76185836 1.44581464
v -2.75498864 0.76472334 1.44088072
v -2.68486670 0.00769105 1.42288264
v -2.70006674 0.35578573 1.44581464
v -2.71925130 0.35774598 1.44581464
v -2.75498864 0.42462053 1.40028364
v -2.69531980 0.02510715 1.38415619
v -2.68603909 0.00769105 1.38397454
v -2.75498864 0.47679328 1.39981750
v -2.75498864 0.66791733 1.39990222
v -2.75498864 0.68525799 1.39998698
v -2.75498864 0.68593654 1.39999304
v -2.75498864 0.70267398 1.40016858
v -2.75498864 0.72001469 1.40037442
v -2.67217538 -0.00324103 1.39895176
v -2.67735688 0.00769105 1.38830909
v -2.67217538 -0.00324103 1.40782670
v -2.67617626 0.00769105 1.41893552
v -2.73684532 0.76449716 1.44581464
v -2.75231592 0.76487413 1.44129238
v -2.75498864 0.76630662 1.42943895
v -2.68200544 0.40727987 1.44581464
v -2.68672774 0.38926067 1.44581464
v -2.68737543 0.38699889 1.44581464
v -2.69245031 0.37259857 1.44581464
v -2.69500828 0.04244776 1.38436808
v -2.69466393 0.05986386 1.38457992
v -2.69178626 0.15878096 1.38578467
v -2.68666218 0.02510715 1.38415619
v -2.75498864 0.73652595 1.40088297
v -2.69129433 0.15878096 1.38578467
v -2.69224535 0.14671786 1.38563937
v -2.69284385 0.12930176 1.38542748
v -2.69337674 0.11196116 1.38521559
v -2.69385230 0.09462056 1.38500370
v -2.69427862 0.07720446 1.38479181
v -2.67124077 0.00769105 1.39699638
v -2.67309363 0.21623126 1.40154282
v -2.67290504 0.19881516 1.40119169
v -2.67135552 0.02510715 1.39742622
v -2.68474372 0.38986383 1.39809213
v -2.67411026 0.29524425 1.40320761
v -2.67124077 0.00769105 1.41025429
v -2.67562695 0.02510715 1.41917164
v -2.73376264 0.76442177 1.44581464
v -2.75231592 0.76638202 1.42929970
v -2.75498864 0.76510031 1.41631422
v -2.67523346 0.04244776 1.41936536
v -2.68021814 0.47679328 1.44581464
v -2.75498864 0.73735529 1.40091321
v -2.68580131 0.42462053 1.39889123
v -2.68522741 0.40727987 1.39846144
v -2.70019791 0.51154993 1.39849774
v -2.70019791 0.52889058 1.39918183
v -2.69164686 0.58920587 1.40328026
v -2.69113039 0.57767058 1.40294730
v -2.69063028 0.56364728 1.40255987
v -2.69000719 0.54623123 1.40208767
v -2.68939228 0.52889058 1.40161547
v -2.68878560 0.51154993 1.40114933
v -2.68817887 0.49413388 1.40068319
v -2.68757220 0.47679328 1.40022311
v -2.68697370 0.45937723 1.39977509
v -2.68638344 0.44203658 1.39932713
v -2.67375773 0.26832857 1.40266281
v -2.67410203 0.36717017 1.42038240
v -2.67181467 0.07720446 1.39874593
v -2.67135552 0.02510715 1.41049041
v -2.68771978 0.65050129 1.41464943
v -2.67764381 0.42462053 1.41193124
v -2.67680758 0.40727987 1.41193124
v -2.67614348 0.38986383 1.41193124
v -2.67493831 0.05986386 1.41954090
v -2.67410203 0.36717017 1.42066089
v -2.67406925 0.35518257 1.42073354
v -2.67402824 0.33784187 1.42080013
v -2.67401188 0.32050126 1.42082431
v -2.68020996 0.49413388 1.44581464
v -2.72149770 0.76389400 1.44581464
v -2.72461310 0.76396940 1.43657039
v -2.73591889 0.76457255 1.43018357
v -2.75231592 0.76494953 1.41720414
v -2.74237112 0.76389400 1.41987385
v -2.75498864 0.75673159 1.40741504
v -2.75498864 0.74677959 1.40241457
v -2.70124732 0.65200917 1.40542941
v -2.70773237 0.64725933 1.40300183
v -2.70019791 0.54623123 1.39989616
v -2.70019791 0.56364728 1.40064078
v -2.69854182 0.58249582 1.40176077
v -2.69746781 0.63316068 1.40522964
v -2.68123477 0.65050129 1.44581464
v -2.68882656 0.66791733 1.41635657
v -2.68720325 0.73735529 1.44581464
v -2.68618667 0.72438751 1.44581464
v -2.68586692 0.72001469 1.44581464
v -2.68208741 0.66791733 1.44581464
v -2.68099699 0.63316068 1.44581464
v -2.68080845 0.61574458 1.44581464
v -2.68065264 0.59840398 1.44581464
v -2.68053789 0.58098793 1.44581464
v -2.68047228 0.56364728 1.44581464
v -2.68027551 0.51154993 1.44581464
v -2.71355333 0.76215993 1.44581464
v -2.69951744 0.75401745 1.44581464
v -2.73078658 0.76012434 1.42498938
v -2.72438355 0.74851366 1.41928665
v -2.73591889 0.75446976 1.41656846
v -2.75498864 0.75235877 1.40472715
v -2.70019791 0.66791733 1.40870451
v -2.69032689 0.67771855 1.41866915
v -2.69354891 0.73735529 1.43976078
v -2.70481369 0.74994615 1.43497821
f 1 2 6
f 1 6 17
f 1 17 27
f 1 27 46
f 1 46 72
f 1 72 109
f 1 109 134
f 1 134 110
f 1 110 75
f 1 75 55
f 1 55 39
f 1 39 38
f 1 38 37
f 1 37 36
f 1 36 35
f 1 35 34
f 1 34 31
f 1 31 20
f 1 20 9
f 1 9 8
f 1 8 7
f 1 7 3
f 1 3 4
f 1 4 5
f 1 5 2
f 2 5 6
f 3 7 4
f 4 7 8
f 4 8 9
f 4 9 10
f 4 10 11
f 4 11 12
f 4 12 13
f 4 13 14
f 4 14 5
f 5 14 15
f 5 15 16
f 5 16 6
f 6 16 18
f 6 18 19
f 6 19 30
f 6 30 29
f 6 29 50
f 6 50 49
f 6 49 48
f 6 48 47
f 6 47 74
f 6 74 103
f 6 103 128
f 6 128 127
f 6 127 126
f 6 126 125
f 6 125 124
f 6 124 123
f 6 123 117
f 6 117 122
f 6 122 121
f 6 121 120
f 6 120 119
f 6 119 130
f 6 130 129
f 6 129 104
f 6 104 70
f 6 70 44
f 6 44 26
f 6 26 17
f 9 20 21
f 9 21 11
f 9 11 10
f 11 21 12
f 12 22 23
f 12 23 13
f 12 21 33
f 12 33 22
f 13 23 14
f 14 23 24
f 14 24 15
f 15 24 25
f 15 25 28
f 15 28 18
f 15 18 16
f 17 26 27
f 18 28 29
f 18 29 30
f 18 30 19
f 20 31 21
f 21 32 54
f 21 54 33
f 21 31 34
f 21 34 35
f 21 35 36
f 21 36 37
f 21 37 38
f 21 38 39
f 21 39 32
f 22 40 23
f 22 33 41
f 22 41 40
f 23 40 24
f 24 40 42
f 24 42 25
f 25 42 43
f 25 43 28
f 26 44 27
f 27 44 45
f 27 45 46
f 28 43 47
f 28 47 48
f 28 48 49
f 28 49 50
f 28 50 29
f 32 51 52
f 32 52 53
f 32 53 56
f 32 56 54
f 32 39 51
f 33 54 41
f 39 55 56
f 39 56 53
f 39 53 57
f 39 57 58
f 39 58 59
f 39 59 60
f 39 60 61
f 39 61 52
f 39 52 51
f 40 41 62
f 40 62 68
f 40 68 42
f 41 63 64
f 41 64 65
f 41 65 62
f 41 54 56
f 41 56 66
f 41 66 67
f 41 67 63
f 42 68 43
f 43 68 69
f 43 69 47
f 44 70 71
f 44 71 45
f 45 71 46
f 46 71 72
f 47 69 73
f 47 73 74
f 52 61 60
f 52 60 53
f 53 60 59
f 53 59 58
f 53 58 57
f 55 75 56
f 56 76 77
f 56 77 66
f 56 75 78
f 56 78 79
f 56 79 80
f 56 80 81
f 56 81 82
f 56 82 83
f 56 83 84
f 56 84 85
f 56 85 86
f 56 86 87
f 56 87 88
f 56 88 89
f 56 89 76
f 62 65 93
f 62 93 68
f 63 67 90
f 63 90 91
f 63 91 64
f 64 92 65
f 64 91 92
f 65 92 91
f 65 91 99
f 65 99 93
f 66 77 67
f 67 77 76
f 67 76 89
f 67 89 88
f 67 88 87
f 67 87 86
f 67 86 85
f 67 85 84
f 67 84 83
f 67 83 82
f 67 82 81
f 67 81 94
f 67 94 95
f 67 95 96
f 67 96 97
f 67 97 91
f 67 91 90
f 68 98 73
f 68 73 69
f 68 93 99
f 68 99 100
f 68 100 101
f 68 101 102
f 68 102 103
f 68 103 74
f 68 74 98
f 70 104 71
f 71 104 105
f 71 105 106
f 71 106 107
f 71 107 72
f 72 107 108
f 72 108 109
f 73 98 74
f 75 110 111
f 75 111 112
f 75 112 79
f 75 79 78
f 79 113 80
f 79 112 113
f 80 113 114
f 80 114 115
f 80 115 112
f 80 112 111
f 80 111 116
f 80 116 94
f 80 94 81
f 91 97 117
f 91 117 99
f 94 116 118
f 94 118 119
f 94 119 120
f 94 120 121
f 94 121 122
f 94 122 117
f 94 117 96
f 94 96 95
f 96 117 97
f 99 117 123
f 99 123 124
f 99 124 125
f 99 125 126
f 99 126 100
f 100 126 127
f 100 127 128
f 100 128 103
f 100 103 101
f 101 103 102
f 104 129 105
f 105 108 107
f 105 107 106
f 105 129 130
f 105 130 131
f 105 131 108
f 108 131 132
f 108 132 133
f 108 133 109
f 109 133 134
f 110 134 132
f 110 132 135
f 110 135 111
f 111 135 118
f 111 118 116
f 112 115 114
f 112 114 113
f 118 135 132
f 118 132 136
f 118 136 119
f 119 137 138
f 119 138 130
f 119 136 137
f 130 138 131
f 131 138 132
f 132 134 133
f 132 138 136
f 136 138 137

