# https://github.com/mikedh/trimesh
v -4.71971737 0.59849874 1.86369710
v -4.71949140 0.58112272 1.86369710
v -4.71949140 0.56374665 1.88106865
v -4.71958181 0.58112272 1.88106865
v -4.71967222 0.63315535 1.86369710
v -4.71967222 0.66790739 1.84630689
v -4.71967222 0.65053137 1.84630689
v -4.71894904 0.56374665 1.86369710
v -4.71890388 0.52899461 1.88106865
v -4.71926542 0.54637063 1.88106865
v -4.71944624 0.63315535 1.84630689
v -4.71845183 0.59849874 1.84630689
v -4.71863265 0.51161854 1.89845887
v -4.71876821 0.52899461 1.89845887
v -4.71867780 0.54637063 1.89845887
v -4.71931058 0.59849874 1.88106865
v -4.71940109 0.65053137 1.86369710
v -4.71962707 0.68528341 1.84630689
v -4.71935583 0.70265948 1.82895399
v -4.71926542 0.68528341 1.82895399
v -4.71736710 0.56374665 1.84630689
v -4.71610155 0.49424252 1.86369710
v -4.71827100 0.51161854 1.88106865
v -4.71795472 0.47686650 1.89845887
v -4.71840667 0.49424252 1.89845887
v -4.71881347 0.66790739 1.82895399
v -4.71723143 0.66790739 1.81156378
v -4.71732184 0.61587476 1.82895399
v -4.71763823 0.47686650 1.91577445
v -4.71777390 0.49424252 1.91577445
v -4.71840667 0.56374665 1.89845887
v -4.71619186 0.49424252 1.93314601
v -4.71809028 0.58112272 1.89845887
v -4.71763823 0.59849874 1.89845887
v -4.71890388 0.66790739 1.86369710
v -4.71922027 0.70265948 1.84630689
v -4.71890388 0.73736378 1.82895399
v -4.71917501 0.71998776 1.82895399
v -4.71849708 0.75473985 1.81156378
v -4.71845183 0.73736378 1.81156378
v -4.71822585 0.71998776 1.81156378
v -4.71795472 0.70265948 1.81156378
v -4.71763823 0.68528341 1.81156378
v -4.71664391 0.54637063 1.84630689
v -4.71677948 0.59849874 1.82895399
v -4.71524270 0.47686650 1.86369710
v -4.71682463 0.47686650 1.88106865
v -4.71546867 0.45949048 1.88106865
v -4.71646309 0.45949048 1.89845887
v -4.71632753 0.45949048 1.91577445
v -4.71732184 0.68528341 1.80885822
v -4.71682463 0.66790739 1.80885822
v -4.71664391 0.65053137 1.81156378
v -4.71488116 0.45949048 1.93314601
v -4.71601104 0.47686650 1.93314601
v -4.71673433 0.56374665 1.91577445
v -4.71384158 0.47686650 1.95055488
v -4.71379633 0.49424252 1.95055488
v -4.71587547 0.51161854 1.93314601
v -4.71709587 0.61587476 1.89845887
v -4.71723143 0.66790739 1.88106865
v -4.71623712 0.58112272 1.91577445
v -4.71836152 0.68528341 1.86369710
v -4.71768349 0.70265948 1.86369710
v -4.71854224 0.71998776 1.84630689
v -4.71781905 0.77211587 1.82895399
v -4.71845183 0.75473985 1.82895399
v -4.71827100 0.77211587 1.81156378
v -4.71813544 0.77211587 1.80885822
v -4.71827100 0.75473985 1.80885822
v -4.71818070 0.73736378 1.80885822
v -4.71795472 0.71998776 1.80885822
v -4.71768349 0.70265948 1.80885822
v -4.71605629 0.58112272 1.82895399
v -4.71578506 0.52899461 1.84630689
v -4.71230470 0.47686650 1.84630689
v -4.71379633 0.45949048 1.86369710
v -4.71352509 0.49424252 1.84630689
v -4.71334427 0.44211440 1.88106865
v -4.71402230 0.44211440 1.89845887
v -4.71397715 0.44211440 1.91577445
v -4.71271150 0.44211440 1.93314601
v -4.71619186 0.65053137 1.80885822
v -4.71587547 0.63315535 1.81156378
v -4.71298273 0.45949048 1.95055488
v -4.71036122 0.47686650 1.96792644
v -4.70981876 0.45949048 1.96792644
v -4.70715199 0.52383905 1.97695740
v -4.71302799 0.51161854 1.95055488
v -4.71393189 0.56374665 1.93314601
v -4.71533311 0.52899461 1.93314601
v -4.71646309 0.63315535 1.89845887
v -4.71659866 0.68528341 1.88106865
v -4.71542352 0.59849874 1.91577445
v -4.71696030 0.71998776 1.86369710
v -4.71637268 0.77211587 1.84630689
v -4.71546867 0.78949190 1.84630689
v -4.71682463 0.78949190 1.82895399
v -4.71750266 0.78949190 1.81156378
v -4.71741225 0.78949190 1.80885822
v -4.71492631 0.61587476 1.81156378
v -4.71506188 0.56374665 1.82895399
v -4.70692601 0.46918093 1.82057609
v -4.70697127 0.43376054 1.83777971
v -4.71393189 0.54637063 1.82895399
v -4.71167192 0.44211440 1.86369710
v -4.69463187 0.37514033 1.80885822
v -4.70990917 0.42473838 1.88106865
v -4.71027081 0.42473838 1.89845887
v -4.71008999 0.42473838 1.91577445
v -4.69499341 0.37514033 1.99947885
v -4.71072276 0.44211440 1.95055488
v -4.71537826 0.63315535 1.80885822
v -4.70733281 0.45949048 1.97830085
v -4.70755879 0.47686650 1.97906588
v -4.70710684 0.45022960 1.97714399
v -4.70416884 0.49424252 1.98669741
v -4.70683560 0.53543902 1.97580055
v -4.70498244 0.47686650 1.98776098
v -4.71302799 0.58112272 1.93314601
v -4.71560424 0.65053137 1.89845887
v -4.71569475 0.70265948 1.88106865
v -4.71619186 0.73736378 1.86369710
v -4.71442910 0.61587476 1.91577445
v -4.71280191 0.78949190 1.86369710
v -4.71357035 0.80686797 1.84630689
v -4.71519754 0.75473985 1.86369710
v -4.71492631 0.80686797 1.82895399
v -4.71564950 0.80686797 1.81156378
v -4.71555908 0.80686797 1.80885822
v -4.71393189 0.59849874 1.81156378
v -4.70832723 0.52627363 1.80885822
v -4.70746848 0.51577165 1.80885822
v -4.71280191 0.58112272 1.81156378
v -4.67203220 0.37514033 1.80885822
v -4.69481258 0.37514033 1.81156378
v -4.69603298 0.37514033 1.84886318
v -4.69634937 0.37514033 1.86625339
v -4.69639462 0.37514033 1.88106865
v -4.69634937 0.37514033 1.89845887
v -4.67338815 0.37514033 1.99947885
v -4.69693699 0.47686650 1.99947885
v -4.70466605 0.45949048 1.98697730
v -4.71316355 0.59587325 1.80885822
v -4.69576185 0.49424252 1.99947885
v -4.69508382 0.49825240 1.99947885
v -4.69377301 0.51161854 1.99811674
v -4.69616865 0.54622740 1.98641753
v -4.69883541 0.59849874 1.96792644
v -4.70697127 0.58928561 1.95910071
v -4.69580700 0.49366971 1.99947885
v -4.71334427 0.63315535 1.91577445
v -4.71460992 0.66790739 1.89845887
v -4.71357035 0.68528341 1.89845887
v -4.71325396 0.73736378 1.88106865
v -4.70701643 0.79841862 1.88983840
v -4.71072276 0.80686797 1.86369710
v -4.70651922 0.82877894 1.86897760
v -4.71063235 0.82424399 1.84630689
v -4.71212398 0.82424399 1.82895399
v -4.71257593 0.82424399 1.81156378
v -4.71248552 0.82424399 1.80885822
v -4.71216913 0.58097949 1.80885822
v -4.25800680 0.39261184 1.86369710
v -4.25800680 0.39127519 1.88108732
v -4.56988183 0.39771960 1.80885822
v -4.40833955 0.39662167 1.81286991
v -4.25800680 0.39819698 1.82331897
v -4.25800680 0.39208672 1.89844022
v -4.25800680 0.39294593 1.90444842
v -4.25800680 0.39461673 1.91577445
v -4.25800680 0.39552374 1.92056982
v -4.25800680 0.39728996 1.92956347
v -4.25800680 0.39810149 1.93258623
v -4.25800680 0.39967680 1.93825858
v -4.25800680 0.40846029 1.96988563
v -4.40833955 0.42554991 1.99946019
v -4.56988183 0.40846029 1.99947885
v -4.69124191 0.51161854 1.99947885
v -4.69038306 0.54035586 1.99466482
v -4.69178428 0.52899461 1.99598962
v -4.68970513 0.60737767 1.97667752
v -4.69006667 0.66050828 1.95962317
v -4.69508382 0.66695269 1.95118929
v -4.69558103 0.71951038 1.93392969
v -4.70145692 0.70184796 1.93157865
v -4.70651922 0.70709895 1.92252902
v -4.70665489 0.76022951 1.90532539
v -4.70706168 0.64236843 1.94193441
v -4.70719725 0.74862960 1.90750850
v -4.69386342 0.78949190 1.91142690
v -4.69856418 0.80648602 1.89821630
v -4.70561531 0.81001853 1.88466985
v -4.69074471 0.83412541 1.89082733
v -4.69445104 0.83780110 1.88106865
v -4.69951334 0.84171549 1.86440615
v -4.70394286 0.84477060 1.84630689
v -4.70724240 0.83364804 1.85740901
v -4.70308411 0.82352795 1.87974386
v -4.70801084 0.83608259 1.84630689
v -4.70873403 0.83894677 1.82895399
v -4.70882444 0.83956735 1.81156378
v -4.70932165 0.83718052 1.80885822
v -4.56988183 0.86252854 1.80885822
v -4.25800680 0.40764877 1.82305773
v -4.40833955 0.86276722 1.81286991
v -4.25800680 0.70714669 1.96988563
v -4.40833955 0.82701269 1.99946019
v -4.56988183 0.62437185 1.99947885
v -4.68319647 0.52899461 1.99947885
v -4.68089124 0.53267029 1.99947885
v -4.51302112 0.77583930 1.99946019
v -4.69033791 0.71335244 1.94251284
v -4.69544546 0.77120886 1.91639020
v -4.70141177 0.75454888 1.91430039
v -4.69151304 0.80290583 1.90896391
v -4.69011193 0.76476446 1.92489871
v -4.69377301 0.82424399 1.89446583
v -4.45507568 0.82309831 1.99946019
v -4.68536602 0.84978293 1.87136596
v -4.68776155 0.81450574 1.90651957
v -4.47699731 0.81293048 1.99946019
v -4.46827383 0.81808599 1.99946019
v -4.46578789 0.81918392 1.99946019
v -4.69250746 0.85226522 1.85981602
v -4.70570562 0.84763478 1.82895399
v -4.69526464 0.85412693 1.84630689
v -4.70606726 0.84825536 1.81156378
v -4.70877918 0.83937640 1.80885822
v -4.66353469 0.86252854 1.80885822
v -4.56988183 0.86271948 1.81156378
v -4.25800680 0.86252854 1.82305773
v -4.50714522 0.86276722 1.81286991
v -4.40833955 0.86267174 1.81695624
v -4.25800680 0.71998776 1.96482903
v -4.25800680 0.73025108 1.96001500
v -4.25800680 0.77932406 1.93573961
v -4.25800680 0.80008936 1.92542116
v -4.25800680 0.80877737 1.92049518
v -4.25800680 0.82085471 1.91181873
v -4.25800680 0.82949498 1.90398194
v -4.25800680 0.83775335 1.89530550
v -4.25800680 0.84644139 1.88261736
v -4.25800680 0.84806441 1.87959459
v -4.25800680 0.85107180 1.87394091
v -4.25800680 0.85493846 1.86369710
v -4.42036258 0.83837393 1.96790778
v -4.42036258 0.82787193 1.99946019
v -4.66348954 0.54904387 1.99947885
v -4.43392238 0.82691723 1.99946019
v -4.43758356 0.82643985 1.99946019
v -4.45191170 0.82390984 1.99946019
v -4.48630831 0.80586547 1.99946019
v -4.49670414 0.79622276 1.99946019
v -4.50294168 0.78915775 1.99946019
v -4.50420723 0.78753470 1.99946019
v -4.68012290 0.85307674 1.86483530
v -4.48811633 0.80419468 1.99946019
v -4.68093650 0.85880511 1.84630689
v -4.69702740 0.85551129 1.82895399
v -4.68093650 0.86152606 1.82895399
v -4.69738904 0.85570224 1.81156378
v -4.69725337 0.85555903 1.80885822
v -4.70597685 0.84806441 1.80885822
v -4.66353469 0.86271948 1.81156378
v -4.67822448 0.86181250 1.80885822
v -4.68093650 0.86190796 1.81156378
v -4.40833955 0.86252854 1.82305773
v -4.25800680 0.86238533 1.82897264
v -4.56988183 0.86238533 1.82897264
v -4.25800680 0.85665697 1.85765158
v -4.42036258 0.84362495 1.95051756
v -4.66353469 0.85455656 1.86369710
v -4.66353469 0.85966435 1.84630689
v -4.66353469 0.86233759 1.82895399
v -4.68093650 0.86166929 1.80885822
v -4.40833955 0.85980755 1.84634421
v -4.25800680 0.85980755 1.84632554
v -4.56988183 0.85980755 1.84634421
v -4.64617824 0.85975984 1.84630689
f 1 2 10
f 1 10 3
f 1 3 4
f 1 4 5
f 1 5 6
f 1 6 7
f 1 7 11
f 1 11 2
f 2 8 9
f 2 9 10
f 2 11 12
f 2 12 21
f 2 21 8
f 3 10 25
f 3 25 13
f 3 13 14
f 3 14 4
f 4 14 15
f 4 15 31
f 4 31 16
f 4 16 17
f 4 17 5
f 5 17 18
f 5 18 6
f 6 18 19
f 6 19 7
f 7 19 20
f 7 20 11
f 8 21 22
f 8 22 23
f 8 23 9
f 9 23 24
f 9 24 25
f 9 25 10
f 11 20 26
f 11 26 27
f 11 27 12
f 12 28 45
f 12 45 21
f 12 27 28
f 13 25 29
f 13 29 30
f 13 30 14
f 14 30 15
f 15 30 32
f 15 32 31
f 16 31 33
f 16 33 34
f 16 34 35
f 16 35 17
f 17 35 36
f 17 36 18
f 18 36 37
f 18 37 38
f 18 38 19
f 19 38 39
f 19 39 40
f 19 40 20
f 20 40 41
f 20 41 42
f 20 42 43
f 20 43 27
f 20 27 26
f 21 44 22
f 21 45 74
f 21 74 44
f 22 46 47
f 22 47 23
f 22 44 75
f 22 75 46
f 23 47 24
f 24 48 49
f 24 49 50
f 24 50 29
f 24 29 25
f 24 47 48
f 27 43 51
f 27 51 52
f 27 52 53
f 27 53 45
f 27 45 28
f 29 50 54
f 29 54 55
f 29 55 32
f 29 32 30
f 31 32 56
f 31 56 33
f 32 55 57
f 32 57 58
f 32 58 59
f 32 59 56
f 33 56 34
f 34 60 61
f 34 61 35
f 34 56 62
f 34 62 60
f 35 61 63
f 35 63 36
f 36 63 64
f 36 64 65
f 36 65 66
f 36 66 67
f 36 67 37
f 37 67 68
f 37 68 38
f 38 68 39
f 39 68 69
f 39 69 70
f 39 70 40
f 40 70 71
f 40 71 72
f 40 72 41
f 41 72 73
f 41 73 42
f 42 73 43
f 43 73 51
f 44 74 75
f 45 53 74
f 46 76 77
f 46 77 48
f 46 48 47
f 46 75 78
f 46 78 76
f 48 77 106
f 48 106 79
f 48 79 49
f 49 79 80
f 49 80 81
f 49 81 50
f 50 81 82
f 50 82 54
f 51 73 72
f 51 72 71
f 51 71 70
f 51 70 69
f 51 69 100
f 51 100 130
f 51 130 162
f 51 162 203
f 51 203 229
f 51 229 264
f 51 264 263
f 51 263 276
f 51 276 266
f 51 266 230
f 51 230 204
f 51 204 166
f 51 166 135
f 51 135 107
f 51 107 133
f 51 133 132
f 51 132 163
f 51 163 144
f 51 144 113
f 51 113 83
f 51 83 52
f 52 83 53
f 53 83 84
f 53 84 74
f 54 85 55
f 54 82 85
f 55 85 57
f 56 59 62
f 57 86 58
f 57 85 87
f 57 87 86
f 58 88 89
f 58 89 90
f 58 90 62
f 58 62 91
f 58 91 59
f 58 86 88
f 59 91 62
f 60 62 92
f 60 92 93
f 60 93 61
f 61 93 63
f 62 90 94
f 62 94 92
f 63 93 64
f 64 93 95
f 64 95 96
f 64 96 65
f 65 96 66
f 66 96 97
f 66 97 98
f 66 98 99
f 66 99 68
f 66 68 67
f 68 99 100
f 68 100 69
f 74 84 101
f 74 101 131
f 74 131 102
f 74 102 75
f 75 102 105
f 75 105 78
f 76 103 104
f 76 104 77
f 76 78 105
f 76 105 103
f 77 104 106
f 79 106 107
f 79 107 108
f 79 108 80
f 80 108 109
f 80 109 81
f 81 109 110
f 81 110 111
f 81 111 82
f 82 112 85
f 82 111 112
f 83 113 84
f 84 113 101
f 85 112 111
f 85 111 87
f 86 87 114
f 86 114 115
f 86 115 88
f 87 111 116
f 87 116 114
f 88 117 118
f 88 118 89
f 88 115 119
f 88 119 117
f 89 118 90
f 90 120 94
f 90 118 120
f 92 121 93
f 92 94 121
f 93 122 123
f 93 123 95
f 93 121 122
f 94 120 124
f 94 124 153
f 94 153 121
f 95 123 96
f 96 123 97
f 97 125 126
f 97 126 128
f 97 128 98
f 97 123 127
f 97 127 125
f 98 128 129
f 98 129 99
f 99 129 130
f 99 130 100
f 101 113 131
f 102 131 134
f 102 134 105
f 103 132 133
f 103 133 107
f 103 107 104
f 103 105 134
f 103 134 132
f 104 107 106
f 107 135 141
f 107 141 111
f 107 111 140
f 107 140 139
f 107 139 138
f 107 138 137
f 107 137 136
f 107 136 108
f 108 136 137
f 108 137 109
f 109 137 138
f 109 138 139
f 109 139 140
f 109 140 110
f 110 140 111
f 111 141 178
f 111 178 209
f 111 209 249
f 111 249 211
f 111 211 210
f 111 210 179
f 111 179 146
f 111 146 145
f 111 145 151
f 111 151 142
f 111 142 119
f 111 119 143
f 111 143 116
f 113 144 131
f 114 116 143
f 114 143 119
f 114 119 115
f 117 145 118
f 117 119 145
f 118 145 146
f 118 146 147
f 118 147 148
f 118 148 149
f 118 149 150
f 118 150 120
f 119 142 151
f 119 151 145
f 120 150 152
f 120 152 124
f 121 153 122
f 122 153 154
f 122 154 155
f 122 155 125
f 122 125 127
f 122 127 123
f 124 152 154
f 124 154 153
f 125 155 156
f 125 156 157
f 125 157 126
f 126 157 158
f 126 158 159
f 126 159 160
f 126 160 128
f 128 160 129
f 129 160 161
f 129 161 162
f 129 162 130
f 131 144 134
f 132 134 163
f 134 144 163
f 135 164 165
f 135 165 141
f 135 166 167
f 135 167 168
f 135 168 164
f 141 165 169
f 141 169 170
f 141 170 171
f 141 171 172
f 141 172 173
f 141 173 174
f 141 174 175
f 141 175 176
f 141 176 177
f 141 177 178
f 146 179 147
f 147 179 180
f 147 180 181
f 147 181 148
f 148 182 149
f 148 181 180
f 148 180 182
f 149 182 183
f 149 183 184
f 149 184 185
f 149 185 186
f 149 186 150
f 150 186 187
f 150 187 188
f 150 188 189
f 150 189 154
f 150 154 152
f 154 189 190
f 154 190 155
f 155 190 156
f 156 190 188
f 156 188 191
f 156 191 192
f 156 192 193
f 156 193 158
f 156 158 157
f 158 194 195
f 158 195 196
f 158 196 197
f 158 197 198
f 158 198 159
f 158 193 199
f 158 199 194
f 159 198 200
f 159 200 160
f 160 200 201
f 160 201 161
f 161 201 202
f 161 202 203
f 161 203 162
f 164 168 205
f 164 205 232
f 164 232 269
f 164 269 278
f 164 278 271
f 164 271 246
f 164 246 245
f 164 245 244
f 164 244 243
f 164 243 242
f 164 242 241
f 164 241 240
f 164 240 239
f 164 239 238
f 164 238 237
f 164 237 236
f 164 236 235
f 164 235 207
f 164 207 176
f 164 176 175
f 164 175 174
f 164 174 173
f 164 173 172
f 164 172 171
f 164 171 170
f 164 170 169
f 164 169 165
f 166 204 206
f 166 206 167
f 167 205 168
f 167 206 232
f 167 232 205
f 176 207 208
f 176 208 177
f 177 208 209
f 177 209 178
f 179 210 180
f 180 210 211
f 180 211 212
f 180 212 182
f 182 212 183
f 183 213 185
f 183 185 184
f 183 212 213
f 185 213 214
f 185 214 215
f 185 215 188
f 185 188 186
f 186 188 187
f 188 190 189
f 188 215 214
f 188 214 191
f 191 216 192
f 191 214 217
f 191 217 216
f 192 216 218
f 192 218 193
f 193 218 199
f 194 219 220
f 194 220 195
f 194 199 218
f 194 218 221
f 194 221 222
f 194 222 223
f 194 223 224
f 194 224 219
f 195 220 225
f 195 225 196
f 196 225 197
f 197 226 198
f 197 225 227
f 197 227 226
f 198 226 200
f 200 226 201
f 201 226 228
f 201 228 202
f 202 229 203
f 202 228 229
f 204 230 265
f 204 265 231
f 204 231 206
f 206 231 265
f 206 265 233
f 206 233 234
f 206 234 232
f 207 235 208
f 208 235 236
f 208 236 237
f 208 237 238
f 208 238 239
f 208 239 240
f 208 240 241
f 208 241 242
f 208 242 243
f 208 243 244
f 208 244 245
f 208 245 246
f 208 246 247
f 208 247 248
f 208 248 209
f 209 248 250
f 209 250 251
f 209 251 252
f 209 252 219
f 209 219 224
f 209 224 223
f 209 223 222
f 209 222 253
f 209 253 249
f 211 249 254
f 211 254 255
f 211 255 256
f 211 256 212
f 212 256 213
f 213 256 217
f 213 217 214
f 216 221 218
f 216 217 221
f 217 256 255
f 217 255 221
f 219 252 220
f 220 257 225
f 220 252 251
f 220 251 250
f 220 250 257
f 221 255 254
f 221 254 258
f 221 258 253
f 221 253 222
f 225 257 259
f 225 259 227
f 226 227 260
f 226 260 228
f 227 259 261
f 227 261 260
f 228 260 262
f 228 262 263
f 228 263 264
f 228 264 229
f 230 266 267
f 230 267 265
f 232 234 268
f 232 268 270
f 232 270 269
f 233 268 234
f 233 265 270
f 233 270 268
f 246 271 272
f 246 272 247
f 247 272 259
f 247 259 273
f 247 273 257
f 247 257 250
f 247 250 248
f 249 253 258
f 249 258 254
f 257 273 259
f 259 272 274
f 259 274 261
f 260 261 267
f 260 267 262
f 261 275 265
f 261 265 267
f 261 274 275
f 262 267 263
f 263 267 276
f 265 275 270
f 266 276 267
f 269 270 279
f 269 279 277
f 269 277 278
f 270 275 279
f 271 278 272
f 272 278 277
f 272 277 279
f 272 279 280
f 272 280 274
f 274 280 275
f 275 280 279

