# https://github.com/mikedh/trimesh
v -4.11585424 0.59820555 3.44325946
v -4.11585424 0.33784135 3.44367351
v -4.11585424 0.59820555 3.37994093
v -4.47112971 0.59820555 3.44325946
v -4.68070079 0.32047164 3.45286085
v -4.11585424 0.24053497 3.43866941
v -4.68070079 0.29742064 3.45286085
v -4.68070079 0.28573234 3.45285370
v -4.68070079 0.28023197 3.45270374
v -4.68070079 0.26832649 3.45229684
v -4.11585424 0.39754960 3.37994093
v -4.47112971 0.59820555 3.37994093
v -4.64553273 0.58210244 3.44010429
v -4.68070079 0.33780520 3.45166862
v -4.11585424 0.24053497 3.42083750
v -4.68070079 0.22852096 3.44814228
v -4.47112971 0.22852096 3.43860520
v -4.68070079 0.22852096 3.39273322
v -4.40206525 0.39798384 3.37994093
v -4.47112971 0.39885233 3.37994093
v -4.68070079 0.35778026 3.39333989
v -4.64553273 0.58210244 3.39262613
v -4.68070079 0.35778026 3.44922732
v -4.47112971 0.22852096 3.41343487
v -4.42031286 0.39820096 3.37994093
f 1 2 6
f 1 6 15
f 1 15 11
f 1 11 3
f 1 3 12
f 1 12 4
f 1 4 5
f 1 5 2
f 2 5 7
f 2 7 8
f 2 8 9
f 2 9 10
f 2 10 6
f 3 11 19
f 3 19 25
f 3 25 20
f 3 20 12
f 4 12 22
f 4 22 13
f 4 13 5
f 5 13 14
f 5 14 23
f 5 23 21
f 5 21 18
f 5 18 16
f 5 16 10
f 5 10 9
f 5 9 8
f 5 8 7
f 6 10 16
f 6 16 17
f 6 17 24
f 6 24 15
f 11 15 18
f 11 18 19
f 12 20 18
f 12 18 21
f 12 21 22
f 13 22 21
f 13 21 23
f 13 23 14
f 15 24 18
f 16 18 24
f 16 24 17
f 18 20 25
f 18 25 19

