# https://github.com/mikedh/trimesh
v -1.13938452 2.14371341 3.28497271
v -1.13938452 2.10954739 3.32351518
v -1.13938452 2.14371341 3.26924863
v -2.51011591 2.14371341 3.28497271
v -1.13938452 2.09165567 3.32351518
v -2.50931080 2.10954739 3.32351518
v -1.13938452 2.11005278 3.26715095
v -2.51025013 2.14371341 3.26924863
v -2.51025013 2.14371341 3.28385432
v -2.51025013 2.14361234 3.28497830
v -2.51025013 2.10954739 3.32318688
v -1.13938452 1.98981455 3.31860760
v -2.50904242 2.09165567 3.32351518
v -2.50917664 1.98868581 3.31956464
v -2.51025013 1.98509733 3.31939769
v -2.51025013 2.10865446 3.32351518
v -1.13938452 2.09268334 3.26667797
v -2.51025013 2.11005278 3.26715095
v -1.13938452 1.98524895 3.30581024
v -2.51025013 1.97697700 3.31312701
v -2.51025013 1.97160277 3.30581024
v -2.51025013 2.09165567 3.32318688
v -2.51025013 1.98738857 3.31950343
v -1.13938452 2.05792767 3.26732348
v -2.51025013 2.09268334 3.26667797
v -1.13938452 1.98550169 3.30485321
v -2.51025013 1.98509733 3.29162740
v -1.13938452 1.98979772 3.29245083
v -1.13938452 1.99240903 3.29128243
v -2.51025013 2.05792767 3.26732348
f 1 2 5
f 1 5 12
f 1 12 19
f 1 19 26
f 1 26 28
f 1 28 29
f 1 29 24
f 1 24 17
f 1 17 7
f 1 7 3
f 1 3 8
f 1 8 9
f 1 9 4
f 1 4 6
f 1 6 2
f 2 6 16
f 2 16 13
f 2 13 5
f 3 7 18
f 3 18 8
f 4 9 10
f 4 10 11
f 4 11 6
f 5 13 14
f 5 14 15
f 5 15 12
f 6 11 16
f 7 17 25
f 7 25 18
f 8 18 25
f 8 25 30
f 8 30 27
f 8 27 21
f 8 21 20
f 8 20 15
f 8 15 23
f 8 23 22
f 8 22 16
f 8 16 11
f 8 11 10
f 8 10 9
f 12 15 20
f 12 20 21
f 12 21 19
f 13 16 22
f 13 22 23
f 13 23 14
f 14 23 15
f 17 24 30
f 17 30 25
f 19 21 26
f 21 27 28
f 21 28 26
f 24 29 27
f 24 27 30
f 27 29 28

