# https://github.com/mikedh/trimesh
v -6.36767117 2.49231430 3.65298578
v -6.37140795 2.50487782 3.65298578
v -6.36840792 2.47494212 3.65298578
v -6.36822378 2.47912371 1.49462183
v -6.36767117 2.49231430 1.49462183
v -6.36856596 2.49533609 1.49462183
v -6.37988153 2.50487782 3.63587271
v -6.38001327 2.50463735 3.65298578
v -6.37140795 2.50487782 1.49462183
v -6.37211861 2.46356192 3.65298578
v -6.37122382 2.46630087 1.49462183
v -6.36840792 2.47494212 1.49462183
v -6.63651217 2.47957162 3.65298578
v -6.37988153 2.50487782 1.49462183
v -6.38372375 2.46065789 3.65298578
v -6.37211861 2.46356192 1.49462183
v -6.63651217 2.45672153 3.65298578
v -6.63651217 2.47957162 1.49462183
v -6.63651217 2.45671677 2.32238906
v -6.38372375 2.46065789 1.49462183
v -6.63651217 2.45671677 1.49462183
f 1 2 8
f 1 8 13
f 1 13 17
f 1 17 15
f 1 15 10
f 1 10 3
f 1 3 4
f 1 4 5
f 1 5 6
f 1 6 2
f 2 7 8
f 2 6 9
f 2 9 14
f 2 14 7
f 3 10 11
f 3 11 12
f 3 12 4
f 4 12 11
f 4 11 16
f 4 16 20
f 4 20 21
f 4 21 18
f 4 18 14
f 4 14 9
f 4 9 6
f 4 6 5
f 7 13 8
f 7 14 18
f 7 18 13
f 10 15 20
f 10 20 16
f 10 16 11
f 13 18 21
f 13 21 19
f 13 19 17
f 15 17 19
f 15 19 21
f 15 21 20

