# https://github.com/mikedh/trimesh
v -6.36751085 1.15442660 0.63795205
v -6.36751085 1.11969506 0.63795205
v -6.36921800 1.16474093 0.63795205
v -6.36761131 1.15442660 1.10647732
v -6.37087501 1.10355583 0.63795205
v -6.36761131 1.11969506 1.10647732
v -6.37082468 1.17108675 0.63795205
v -6.37147755 1.17038587 1.10647732
v -6.38372872 1.09686904 0.63795205
v -6.36926833 1.11260100 1.10647732
v -6.37150261 1.10414305 1.10647732
v -6.38375399 1.09765516 1.10647732
v -6.38305100 1.18720703 0.63795205
v -6.38161996 1.17985724 0.97751359
v -6.37848177 1.17437332 1.10647732
v -6.40110153 1.09612080 0.63795205
v -6.39168717 1.09715318 1.10647732
v -6.40112680 1.09665120 1.10647732
v -6.40110153 1.19284250 0.63795205
v -6.38224755 1.17985724 0.98939183
v -6.38375399 1.17736628 1.10647732
v -6.62398552 1.09612080 0.63795205
v -6.62398552 1.09665120 1.10647732
v -6.40426478 1.19285197 0.63795205
v -6.40112680 1.17839865 1.10647732
v -6.62398552 1.19288039 0.63795205
v -6.62398552 1.17841760 1.10647732
v -6.41847434 1.19286145 0.63795205
f 1 2 5
f 1 5 9
f 1 9 16
f 1 16 22
f 1 22 26
f 1 26 28
f 1 28 24
f 1 24 19
f 1 19 13
f 1 13 7
f 1 7 3
f 1 3 4
f 1 4 6
f 1 6 2
f 2 6 5
f 3 7 8
f 3 8 4
f 4 8 15
f 4 15 21
f 4 21 25
f 4 25 27
f 4 27 23
f 4 23 18
f 4 18 17
f 4 17 12
f 4 12 11
f 4 11 10
f 4 10 6
f 5 6 10
f 5 10 11
f 5 11 12
f 5 12 9
f 7 13 8
f 8 14 15
f 8 13 14
f 9 12 17
f 9 17 18
f 9 18 16
f 13 19 20
f 13 20 14
f 14 20 21
f 14 21 15
f 16 18 23
f 16 23 22
f 19 24 25
f 19 25 21
f 19 21 20
f 22 23 27
f 22 27 26
f 24 28 25
f 25 28 26
f 25 26 27

