# https://github.com/mikedh/trimesh
v -3.38381744 0.02525815 3.28844199
v -3.38241796 0.02525815 3.27106358
v -3.38157480 0.00779835 3.27106358
v -3.38223542 0.00779835 3.28844199
v -3.38380874 0.02525815 3.32144950
v -3.38381744 0.07739191 3.28844199
v -3.37507291 0.02525815 3.25906842
v -3.37501206 0.00779835 3.25911347
v -3.38241796 0.07739191 3.27106358
v -3.37301282 -0.00326785 3.26023258
v -3.37493383 -0.00425150 3.27106358
v -3.38148788 0.00656863 3.32144950
v -3.38221804 0.00779835 3.32144950
v -3.38365228 0.02353671 3.32144950
v -3.38380874 0.07739191 3.32144950
v -3.37382990 2.49226346 3.32144950
v -3.37382990 2.49226346 3.28844199
v -3.36044366 0.02525815 3.25574972
v -3.37507291 0.07739191 3.25906842
v -3.36044366 0.00779835 3.25584614
v -3.37148296 2.49226346 3.27519919
v -3.36044366 -0.00449736 3.25916494
v -3.36044366 -0.00769437 3.27106358
v -3.37487299 -0.00400564 3.32144950
v -3.37145688 2.50382137 3.32144950
v -3.37145688 2.50382137 3.28844199
v -3.37068326 2.50283772 3.27674271
v -3.29501619 0.02525815 3.25574972
v -3.36044366 0.07739191 3.25574972
v -3.36044366 2.47480365 3.26842012
v -3.29501619 0.00779835 3.25584614
v -3.36044366 2.49226346 3.26917261
v -3.29501619 -0.00449736 3.25916494
v -3.29501619 -0.00744830 3.27106358
v -3.36359898 -0.00400564 3.32144950
v -3.36386845 2.50382137 3.32144950
v -3.35996557 2.50455916 3.28902091
v -3.36044366 2.50382137 3.27483900
v -3.29501619 0.07739191 3.25574972
v -3.34306761 2.47480365 3.26777699
v -3.34306761 2.49226346 3.26852948
v -3.29501619 -0.00400564 3.28226762
v -3.35639301 0.00779835 3.32144950
v -3.29501619 2.50382137 3.28226762
v -3.35850525 2.49226346 3.32144950
v -3.29501619 2.50382137 3.27458817
v -3.34306761 2.50406744 3.27451743
v -3.29501619 2.49226346 3.26935913
v -3.29501619 2.49496854 3.27058118
v -3.29501619 0.00779835 3.28482098
v -3.35621047 0.00951958 3.32144950
v -3.29501619 2.50111649 3.28286570
v -3.29501619 2.49226346 3.28482098
v -3.35840095 2.47480365 3.32144950
v -3.29501619 0.02525815 3.28486603
v -3.35470669 0.02525815 3.32144950
v -3.29501619 2.48808300 3.28483383
v -3.29501619 2.47480365 3.28486603
v -3.35470669 0.07739191 3.32144950
f 1 2 3
f 1 3 4
f 1 4 5
f 1 5 15
f 1 15 6
f 1 6 9
f 1 9 2
f 2 7 8
f 2 8 3
f 2 9 19
f 2 19 7
f 3 10 11
f 3 11 4
f 3 8 10
f 4 12 13
f 4 13 14
f 4 14 5
f 4 11 12
f 5 14 13
f 5 13 12
f 5 12 24
f 5 24 35
f 5 35 43
f 5 43 51
f 5 51 56
f 5 56 59
f 5 59 54
f 5 54 45
f 5 45 36
f 5 36 25
f 5 25 16
f 5 16 15
f 6 15 16
f 6 16 17
f 6 17 9
f 7 18 8
f 7 19 29
f 7 29 18
f 8 20 10
f 8 18 20
f 9 17 21
f 9 21 19
f 10 20 22
f 10 22 23
f 10 23 11
f 11 23 24
f 11 24 12
f 16 25 26
f 16 26 17
f 17 26 27
f 17 27 21
f 18 28 31
f 18 31 20
f 18 29 39
f 18 39 28
f 19 21 30
f 19 30 29
f 20 31 33
f 20 33 22
f 21 27 32
f 21 32 30
f 22 33 23
f 23 33 34
f 23 34 35
f 23 35 24
f 25 36 37
f 25 37 26
f 26 37 38
f 26 38 27
f 27 38 32
f 28 39 48
f 28 48 49
f 28 49 46
f 28 46 44
f 28 44 52
f 28 52 53
f 28 53 57
f 28 57 58
f 28 58 55
f 28 55 50
f 28 50 42
f 28 42 34
f 28 34 33
f 28 33 31
f 29 30 40
f 29 40 39
f 30 32 41
f 30 41 40
f 32 38 41
f 34 42 35
f 35 42 43
f 36 44 37
f 36 45 44
f 37 44 46
f 37 46 47
f 37 47 38
f 38 47 41
f 39 40 48
f 40 41 48
f 41 47 46
f 41 46 49
f 41 49 48
f 42 50 43
f 43 50 51
f 44 45 52
f 45 53 52
f 45 54 53
f 50 55 56
f 50 56 51
f 53 54 57
f 54 58 57
f 54 59 58
f 55 58 59
f 55 59 56

