# https://github.com/mikedh/trimesh
v -0.42246608 1.81412226 1.52105771
v 0.04603123 1.81412226 1.52105771
v -0.42246608 1.81412226 1.53626878
v -0.42246608 2.47493880 1.52105771
v 0.04603123 1.81412226 1.53627028
v 0.04603123 2.47493880 1.52105771
v -0.40664465 1.81412226 1.53627028
v -0.42246608 2.47493880 1.53611991
v -0.42246608 2.49227899 1.52109494
v 0.04603123 2.47493880 1.53611991
v 0.04603123 2.49227899 1.52109494
v 0.04603123 2.47588341 1.53611540
v -0.42246608 2.47649070 1.53611245
v -0.42246608 2.50334436 1.52299797
v 0.04603123 2.50334436 1.52299797
v 0.04603123 2.49227899 1.53603354
v -0.42246608 2.49227899 1.53603354
v -0.42246608 2.50334436 1.53040475
v 0.04603123 2.50334436 1.53040475
v -0.42246608 2.49329101 1.53551976
f 1 2 5
f 1 5 7
f 1 7 3
f 1 3 8
f 1 8 13
f 1 13 17
f 1 17 20
f 1 20 18
f 1 18 14
f 1 14 9
f 1 9 4
f 1 4 6
f 1 6 2
f 2 6 11
f 2 11 15
f 2 15 19
f 2 19 16
f 2 16 12
f 2 12 10
f 2 10 5
f 3 7 8
f 4 9 11
f 4 11 6
f 5 10 8
f 5 8 7
f 8 10 12
f 8 12 13
f 9 14 15
f 9 15 11
f 12 16 13
f 13 16 17
f 14 18 19
f 14 19 15
f 16 19 20
f 16 20 17
f 18 20 19

