# https://github.com/mikedh/trimesh
v -5.13569794 0.21832636 1.44416104
v -5.13449785 0.21727208 1.44552420
v -5.13461218 0.21832636 1.44590392
v -5.13162934 0.21832636 1.42949617
v -5.12782358 0.19880201 1.43291340
v -5.12536643 0.18681979 1.43575177
v -5.12536643 0.18681979 1.44107992
v -5.05476002 0.01588584 1.45565770
v -5.12424628 0.20681049 1.45552700
v -5.10626908 0.15582018 1.45508505
v -5.12562927 0.21615701 1.45626769
v -5.12586934 0.21832636 1.45628012
v -5.11748068 0.21832636 1.42325298
v -5.11532054 0.19880201 1.42492114
v -5.05677164 0.02839520 1.43598831
v -5.11185779 0.16405163 1.43242790
v -5.07338885 0.06499067 1.43639289
v -5.10889773 0.14983927 1.43512931
v -5.08994889 0.10158604 1.43707760
v -5.05476002 0.01588584 1.45199771
v -5.04738856 0.01120249 1.44639564
v -5.04583428 0.01284470 1.45840271
v -5.04583428 0.02507018 1.46214364
v -5.05630291 0.02507018 1.45713913
v -5.07272604 0.06602465 1.45619924
v -5.09057752 0.11642693 1.45644199
v -5.10848617 0.16741714 1.45659759
v -5.09287477 0.12930124 1.45776781
v -5.04583428 0.04244537 1.46289054
v -5.11565195 0.21832636 1.45636727
v -5.05557154 0.21832636 1.40212708
v -5.05543442 0.21615701 1.40228268
v -5.05474862 0.20608057 1.40302337
v -5.04583428 0.04244537 1.42792138
v -5.04738856 0.02359015 1.43285738
v -5.04263436 0.01245954 1.43514178
v -5.05422293 0.01681854 1.44041390
v -5.03167422 0.01245954 1.43514178
v -5.02690842 0.01124308 1.44620891
v -5.02846271 0.01288529 1.45851471
v -5.05945725 0.04244537 1.45924924
v -5.02706853 0.02496879 1.45963512
v -5.07465750 0.07719586 1.45761842
v -5.04583428 0.05982067 1.46196312
v -5.10340057 0.19880201 1.45675941
v -5.10585772 0.20993273 1.45582573
v -5.11222337 0.21832636 1.45532159
v -5.04583428 0.21832636 1.39930740
v -5.04583428 0.21615701 1.39961239
v -5.04556004 0.19969411 1.40203993
v -5.03918279 0.08153456 1.41992289
v -5.03566287 0.08153456 1.41992289
v -5.02690842 0.02507018 1.43389690
v -5.02008565 0.01927175 1.44010269
v -5.01946841 0.01592644 1.45168645
v -5.01946841 0.01592644 1.45581331
v -5.03031422 0.04244537 1.45900648
v -5.01946841 0.01910957 1.45581331
v -5.03256569 0.05982067 1.45754997
v -5.03544559 0.07719586 1.45610587
v -5.04583428 0.07719586 1.45952933
v -5.03669146 0.19176683 1.43825403
v -5.03087429 0.21832636 1.42721176
v -5.03526291 0.21832636 1.40015393
v -5.03645140 0.18732674 1.40280552
v -5.03958276 0.18732674 1.40280552
v -5.03391430 0.09457105 1.41888342
v -5.01959413 0.03084842 1.43772492
v -5.01927412 0.04244537 1.43715848
v -5.01896550 0.05982067 1.43647382
v -5.01896550 0.05982067 1.44071268
v -5.01903406 0.07719586 1.43987863
v -5.01938835 0.09073920 1.43887023
v -5.03538843 0.18142682 1.43907565
v -5.03710282 0.08597465 1.45537761
v -5.03032561 0.21832636 1.42547515
v -5.03365146 0.21832636 1.40042780
v -5.03377718 0.21615701 1.40057093
v -5.03525131 0.19880201 1.40190296
v -5.01903406 0.07719586 1.43639910
v -5.02805135 0.21832636 1.41038074
v -5.02737695 0.21615701 1.41193062
v -5.02737695 0.21832636 1.41193062
v -5.01938835 0.09073920 1.43704026
f 1 2 3
f 1 3 12
f 1 12 30
f 1 30 47
f 1 47 63
f 1 63 76
f 1 76 83
f 1 83 81
f 1 81 77
f 1 77 64
f 1 64 48
f 1 48 31
f 1 31 13
f 1 13 4
f 1 4 5
f 1 5 6
f 1 6 7
f 1 7 8
f 1 8 2
f 2 9 3
f 2 8 10
f 2 10 9
f 3 9 11
f 3 11 12
f 4 13 14
f 4 14 15
f 4 15 16
f 4 16 5
f 5 16 15
f 5 15 17
f 5 17 18
f 5 18 6
f 6 18 19
f 6 19 20
f 6 20 8
f 6 8 7
f 8 20 21
f 8 21 22
f 8 22 23
f 8 23 24
f 8 24 25
f 8 25 10
f 9 10 25
f 9 25 26
f 9 26 27
f 9 27 11
f 11 27 28
f 11 28 23
f 11 23 29
f 11 29 12
f 12 29 30
f 13 31 32
f 13 32 33
f 13 33 14
f 14 33 34
f 14 34 15
f 15 34 35
f 15 35 36
f 15 36 37
f 15 37 17
f 17 37 19
f 17 19 18
f 19 37 20
f 20 37 21
f 21 36 38
f 21 38 39
f 21 39 40
f 21 40 22
f 21 37 36
f 22 40 23
f 23 28 41
f 23 41 24
f 23 40 42
f 23 42 29
f 24 41 25
f 25 41 43
f 25 43 26
f 26 43 27
f 27 43 41
f 27 41 28
f 29 42 44
f 29 44 30
f 30 45 46
f 30 46 47
f 30 44 45
f 31 48 32
f 32 48 33
f 33 48 49
f 33 49 50
f 33 50 51
f 33 51 34
f 34 51 52
f 34 52 38
f 34 38 36
f 34 36 35
f 38 52 53
f 38 53 54
f 38 54 39
f 39 54 55
f 39 55 56
f 39 56 40
f 40 56 42
f 42 57 44
f 42 56 58
f 42 58 57
f 44 57 59
f 44 59 60
f 44 60 61
f 44 61 46
f 44 46 45
f 46 62 47
f 46 61 62
f 47 62 63
f 48 64 65
f 48 65 66
f 48 66 49
f 49 66 50
f 50 66 51
f 51 66 65
f 51 65 52
f 52 67 53
f 52 65 67
f 53 68 54
f 53 67 65
f 53 65 68
f 54 68 55
f 55 68 69
f 55 69 70
f 55 70 71
f 55 71 56
f 56 71 58
f 57 58 62
f 57 62 59
f 58 71 72
f 58 72 73
f 58 73 63
f 58 63 74
f 58 74 62
f 59 62 60
f 60 75 61
f 60 62 75
f 61 75 62
f 62 74 63
f 63 73 76
f 64 77 78
f 64 78 79
f 64 79 65
f 65 79 68
f 68 79 78
f 68 78 77
f 68 77 69
f 69 77 70
f 70 80 72
f 70 72 71
f 70 77 81
f 70 81 82
f 70 82 83
f 70 83 80
f 72 80 84
f 72 84 73
f 73 84 83
f 73 83 76
f 80 83 84
f 81 83 82

