# https://github.com/mikedh/trimesh
v -1.80872715 0.49420461 2.75999062
v -1.80868749 0.47682756 2.75999062
v -1.80753617 0.47682756 2.76184198
v -1.80755605 0.49420461 2.76186978
v -1.80872715 0.65054007 2.75999062
v -1.80757594 0.46916550 2.75999062
v -1.80707966 0.46916550 2.76113034
v -1.80187921 0.47682756 2.77053149
v -1.80187921 0.49420461 2.77055370
v -1.80755605 0.65054007 2.76186978
v -1.80866760 0.66791713 2.75999062
v -1.72667136 0.46916550 2.75999062
v -1.80497566 0.46916550 2.76435485
v -1.79318535 0.47682756 2.78290694
v -1.79320523 0.49420461 2.78291248
v -1.80187921 0.65054007 2.77055370
v -1.80185943 0.66791713 2.77050368
v -1.80751639 0.66791713 2.76181417
v -1.80741707 0.68529418 2.76166960
v -1.80846907 0.68529418 2.75999062
v -1.60596963 0.46916550 2.81678102
v -1.72992657 0.66791713 2.75999062
v -1.76736184 0.46916550 2.81678102
v -1.76827486 0.47682756 2.81678102
v -1.76831453 0.49420461 2.81678102
v -1.79320523 0.65054007 2.78291248
v -1.79318535 0.66791713 2.78289580
v -1.79308613 0.68529418 2.78279017
v -1.80177999 0.68529418 2.77035911
v -1.80729797 0.70267119 2.76148059
v -1.80823087 0.70267119 2.75999062
v -1.73111755 0.68529418 2.75999062
v -1.62611629 0.68517850 2.81678102
v -1.76783824 0.58106084 2.81678102
v -1.78641684 0.68529418 2.79147414
v -1.76773892 0.59843790 2.81678102
v -1.76758016 0.61581496 2.81678102
v -1.79296703 0.70267119 2.78262897
v -1.80166090 0.70267119 2.77016456
v -1.80146236 0.72004824 2.76964752
v -1.80692090 0.72004824 2.76095801
v -1.80757594 0.71854476 2.75999062
v -1.73240775 0.69344780 2.75999062
v -1.73326122 0.69865224 2.75999062
v -1.73502781 0.70749974 2.75999062
v -1.73756843 0.72004824 2.75999062
v -1.63226953 0.70267119 2.81678102
v -1.76740151 0.63316307 2.81678102
v -1.76718320 0.65054007 2.81678102
v -1.78611909 0.72004824 2.79112943
v -1.79276850 0.72004824 2.78244551
v -1.79112112 0.73742530 2.78052746
v -1.80628574 0.72909816 2.75999062
v -1.80749650 0.72004824 2.75999062
v -1.74380110 0.73742530 2.75999062
v -1.64906176 0.73762766 2.81678102
v -1.76634951 0.66791713 2.81678102
v -1.76779847 0.73742530 2.80759114
v -1.77633357 0.73742530 2.79890162
v -1.78500754 0.73742530 2.78920589
v -1.80602766 0.73048601 2.75999062
v -1.78907666 0.74708241 2.77776438
v -1.74759226 0.74242732 2.75999062
v -1.75138341 0.74705351 2.75999062
v -1.67153083 0.75503361 2.81678102
v -1.75827102 0.73742530 2.81678102
v -1.75910461 0.73742530 2.81605830
v -1.75678229 0.74954008 2.81395124
v -1.77373339 0.74852805 2.79645545
v -1.79058517 0.74786307 2.76719021
v -1.79407858 0.74531866 2.75999062
v -1.77943002 0.75040742 2.78395769
v -1.76192320 0.75052310 2.75999062
v -1.70189985 0.76338965 2.81088793
v -1.69245163 0.76139460 2.81333411
v -1.69245163 0.76295592 2.81678102
v -1.74798922 0.75309640 2.81678102
v -1.74171688 0.75688409 2.81678102
v -1.73631800 0.76362096 2.81112701
v -1.76232016 0.75257594 2.80212059
v -1.79048586 0.74763176 2.75999062
v -1.77929103 0.75243142 2.76719021
v -1.76192320 0.75731781 2.78456370
v -1.77954912 0.75087004 2.75999062
v -1.76192320 0.75379033 2.76719021
v -1.71345197 0.76388116 2.80949805
v -1.70759648 0.76445946 2.81678102
v -1.72760426 0.76391006 2.81678102
v -1.72607586 0.76396790 2.81678102
v -1.73631800 0.76362096 2.80934794
v -1.72716763 0.76388116 2.80882536
v -1.70908510 0.76451725 2.81678102
f 1 2 3
f 1 3 4
f 1 4 10
f 1 10 5
f 1 5 11
f 1 11 20
f 1 20 31
f 1 31 42
f 1 42 54
f 1 54 53
f 1 53 61
f 1 61 71
f 1 71 81
f 1 81 84
f 1 84 73
f 1 73 64
f 1 64 63
f 1 63 55
f 1 55 46
f 1 46 45
f 1 45 44
f 1 44 43
f 1 43 32
f 1 32 22
f 1 22 12
f 1 12 6
f 1 6 2
f 2 6 7
f 2 7 3
f 3 8 4
f 3 7 8
f 4 8 9
f 4 9 16
f 4 16 10
f 5 10 11
f 6 12 21
f 6 21 23
f 6 23 13
f 6 13 7
f 7 13 8
f 8 14 15
f 8 15 9
f 8 13 14
f 9 15 26
f 9 26 16
f 10 16 17
f 10 17 18
f 10 18 11
f 11 18 19
f 11 19 20
f 12 22 21
f 13 23 14
f 14 24 25
f 14 25 15
f 14 23 24
f 15 25 26
f 16 26 27
f 16 27 17
f 17 27 28
f 17 28 29
f 17 29 18
f 18 29 19
f 19 29 30
f 19 30 20
f 20 30 31
f 21 22 32
f 21 32 33
f 21 33 47
f 21 47 56
f 21 56 65
f 21 65 76
f 21 76 87
f 21 87 92
f 21 92 89
f 21 89 88
f 21 88 78
f 21 78 77
f 21 77 66
f 21 66 57
f 21 57 49
f 21 49 48
f 21 48 37
f 21 37 36
f 21 36 34
f 21 34 25
f 21 25 24
f 21 24 23
f 25 34 27
f 25 27 26
f 27 35 28
f 27 34 36
f 27 36 37
f 27 37 35
f 28 35 38
f 28 38 29
f 29 38 39
f 29 39 30
f 30 39 40
f 30 40 41
f 30 41 31
f 31 41 42
f 32 43 33
f 33 43 44
f 33 44 45
f 33 45 46
f 33 46 47
f 35 37 48
f 35 48 49
f 35 49 50
f 35 50 38
f 38 50 51
f 38 51 39
f 39 51 40
f 40 51 52
f 40 52 53
f 40 53 41
f 41 53 54
f 41 54 42
f 46 55 47
f 47 55 56
f 49 57 50
f 50 58 59
f 50 59 60
f 50 60 51
f 50 57 58
f 51 60 52
f 52 61 53
f 52 60 62
f 52 62 61
f 55 63 56
f 56 63 64
f 56 64 65
f 57 66 67
f 57 67 58
f 58 67 68
f 58 68 59
f 59 68 69
f 59 69 60
f 60 69 62
f 61 62 70
f 61 70 71
f 62 69 72
f 62 72 70
f 64 73 74
f 64 74 75
f 64 75 65
f 65 75 76
f 66 77 68
f 66 68 67
f 68 77 78
f 68 78 79
f 68 79 80
f 68 80 69
f 69 80 79
f 69 79 72
f 70 81 71
f 70 72 82
f 70 82 81
f 72 79 83
f 72 83 82
f 73 84 85
f 73 85 74
f 74 86 87
f 74 87 76
f 74 76 75
f 74 85 86
f 78 88 79
f 79 88 89
f 79 89 90
f 79 90 83
f 81 82 84
f 82 83 85
f 82 85 84
f 83 90 85
f 85 90 91
f 85 91 86
f 86 91 92
f 86 92 87
f 89 92 90
f 90 92 91

