# https://github.com/mikedh/trimesh
v -3.19173371 0.32582848 1.82893457
v -3.18538897 0.33781421 1.81246726
v -3.18555165 0.32582848 1.81251266
v -3.18418167 0.32582848 1.84293350
v -3.18385630 0.33781421 1.84265544
v -3.19123708 0.33781421 1.82893457
v -3.18246063 0.51153859 1.81199060
v -3.18282881 0.49415506 1.81195088
v -3.18316275 0.47679923 1.81199060
v -3.18345387 0.45944341 1.81205870
v -3.17774274 0.51153859 1.80330298
v -3.17699782 0.42470410 1.80292847
v -3.17686939 0.40723757 1.80292847
v -3.17567065 0.38993710 1.80292847
v -3.17452329 0.37255362 1.80368317
v -3.16931735 0.32582848 1.80545361
v -3.17775131 0.49415506 1.80326327
v -3.17746019 0.49415506 1.80292847
v -3.17737456 0.47679923 1.80292847
v -3.16931735 0.32582848 1.84779651
v -3.14422953 0.42470410 1.85552515
v -3.15193568 0.52892206 1.84978258
v -3.18333399 0.35519779 1.84222419
v -3.18280313 0.37255362 1.84178158
v -3.18227226 0.38993710 1.84133329
v -3.18173283 0.40732057 1.84087934
v -3.18119340 0.42470410 1.84041402
v -3.19044934 0.35519779 1.82893457
v -3.18176707 0.52892206 1.81251266
v -3.17752869 0.52892206 1.80382505
v -3.17741737 0.51153859 1.80292847
v -3.17678376 0.52892206 1.80292847
v -3.17185182 0.37255362 1.80292847
v -3.16511322 0.35959894 1.80292847
v -3.15157607 0.35660947 1.80292847
v -3.13533320 0.35788279 1.80292847
v -3.12151350 0.36026330 1.80292847
v -3.15431603 0.32582848 1.81318223
v -3.16501047 0.32582848 1.84623037
v -3.10426026 0.39442135 1.85761902
v -3.10426026 0.40413729 1.86007607
v -3.10426026 0.40732057 1.86077971
v -3.11719805 0.40732057 1.85999095
v -3.13457114 0.40732057 1.85769280
v -3.14414391 0.40732057 1.85547408
v -3.13457114 0.42470410 1.85780061
v -3.13457114 0.52892206 1.85214884
v -3.13457114 0.54627789 1.85096287
v -3.15193568 0.54627789 1.84732553
v -3.17051608 0.52764875 1.84089069
v -3.17808524 0.52103310 1.83768460
v -3.17842774 0.51153859 1.83799670
v -3.17900998 0.49415506 1.83851309
v -3.17955798 0.47679923 1.83899541
v -3.18010597 0.45944341 1.83947206
v -3.18065397 0.44205993 1.83994873
v -3.18964448 0.37255362 1.82893457
v -3.18018303 0.53977295 1.82510998
v -3.18018303 0.53977295 1.81539529
v -3.16075496 0.59017957 1.80292847
v -3.18883105 0.38993710 1.82893457
v -3.18719564 0.42470410 1.82893457
v -3.18556022 0.45944341 1.82893457
v -3.18472110 0.47679923 1.82893457
v -3.18383918 0.49415506 1.82893457
v -3.18288875 0.51153859 1.82893457
v -3.14918715 0.32582848 1.82893457
v -3.15078832 0.32582848 1.82398644
v -3.11856803 0.36574410 1.80292847
v -3.10426026 0.38691987 1.84197451
v -3.10426026 0.38683681 1.84630413
v -3.15549765 0.32582848 1.84247954
v -3.10426026 0.39248373 1.85482151
v -3.10426026 0.42470410 1.86089887
v -3.11719805 0.42470410 1.86010445
v -3.13457114 0.56366142 1.84768870
v -3.17710913 0.53260365 1.83669158
v -3.14822817 0.57683746 1.84094176
v -3.15318580 0.56266493 1.84255330
v -3.18106496 0.52764875 1.83011486
v -3.15981310 0.56781354 1.83323015
v -3.15936785 0.58497560 1.81527044
v -3.16073783 0.59006887 1.80368317
v -3.16045527 0.59087159 1.80292847
v -3.15347692 0.32582848 1.83830312
v -3.11510026 0.37283034 1.80292847
v -3.10426026 0.39024157 1.83118167
v -3.10426026 0.44089732 1.85773251
v -3.12114531 0.56366142 1.84170214
v -3.12344004 0.57520426 1.83963095
v -3.13457114 0.57786161 1.84162269
v -3.13457114 0.58655340 1.83404159
v -3.14779149 0.59278156 1.82457090
v -3.15379373 0.58090653 1.82890621
v -3.15213262 0.59721046 1.80977755
v -3.15430747 0.59856684 1.80292847
v -3.10426026 0.43774174 1.80292847
v -3.10426026 0.44958906 1.85423136
v -3.10812191 0.55696266 1.82144994
v -3.11211198 0.56313547 1.82791884
v -3.12008358 0.58101724 1.82869057
v -3.12370547 0.59150825 1.82273806
v -3.13457114 0.59333516 1.82535966
v -3.14490596 0.60795059 1.80428466
v -3.14536833 0.60833812 1.80292847
v -3.10426026 0.47602421 1.80292847
v -3.10426026 0.45675841 1.84574803
v -3.10543332 0.54627789 1.80292847
v -3.10585287 0.55491432 1.80292847
v -3.10616968 0.54627789 1.81155934
v -3.10656355 0.56338459 1.80292847
v -3.10747972 0.56313547 1.81073086
v -3.10825034 0.57368183 1.80438680
v -3.10925214 0.56856091 1.81596841
v -3.11173523 0.58010376 1.81073086
v -3.12067438 0.59530049 1.81155934
v -3.12689068 0.60678798 1.80292847
v -3.13328679 0.60296809 1.81066846
v -3.13822729 0.60795059 1.80428466
v -3.14305648 0.60861495 1.80292847
v -3.10426026 0.47511073 1.80955626
v -3.10426026 0.47004517 1.82602356
v -3.10426026 0.47483390 1.81155934
v -3.10753110 0.57041553 1.80292847
v -3.10816472 0.57445690 1.80292847
v -3.11045089 0.58309328 1.80292847
v -3.11363609 0.58874014 1.80292847
v -3.11823410 0.59685063 1.80292847
v -3.13743955 0.60861495 1.80292847
f 1 2 3
f 1 3 16
f 1 16 38
f 1 38 68
f 1 68 67
f 1 67 85
f 1 85 72
f 1 72 39
f 1 39 20
f 1 20 4
f 1 4 5
f 1 5 6
f 1 6 7
f 1 7 8
f 1 8 9
f 1 9 10
f 1 10 2
f 2 10 11
f 2 11 3
f 3 12 13
f 3 13 14
f 3 14 15
f 3 15 16
f 3 11 17
f 3 17 18
f 3 18 19
f 3 19 12
f 4 20 21
f 4 21 22
f 4 22 5
f 5 23 6
f 5 22 23
f 6 23 24
f 6 24 25
f 6 25 26
f 6 26 27
f 6 27 28
f 6 28 29
f 6 29 7
f 7 29 30
f 7 30 11
f 7 11 8
f 8 11 9
f 9 11 10
f 11 31 17
f 11 30 32
f 11 32 31
f 12 19 18
f 12 18 31
f 12 31 32
f 12 32 60
f 12 60 84
f 12 84 96
f 12 96 105
f 12 105 120
f 12 120 129
f 12 129 117
f 12 117 128
f 12 128 127
f 12 127 126
f 12 126 125
f 12 125 124
f 12 124 111
f 12 111 109
f 12 109 108
f 12 108 106
f 12 106 97
f 12 97 86
f 12 86 69
f 12 69 37
f 12 37 36
f 12 36 35
f 12 35 34
f 12 34 33
f 12 33 14
f 12 14 13
f 14 33 15
f 15 33 16
f 16 34 35
f 16 35 36
f 16 36 37
f 16 37 38
f 16 33 34
f 17 31 18
f 20 39 40
f 20 40 41
f 20 41 42
f 20 42 43
f 20 43 44
f 20 44 45
f 20 45 21
f 21 45 46
f 21 46 22
f 22 47 48
f 22 48 49
f 22 49 50
f 22 50 51
f 22 51 52
f 22 52 53
f 22 53 54
f 22 54 55
f 22 55 56
f 22 56 27
f 22 27 26
f 22 26 25
f 22 25 24
f 22 24 23
f 22 46 47
f 27 56 28
f 28 56 55
f 28 55 54
f 28 54 53
f 28 53 57
f 28 57 29
f 29 58 59
f 29 59 60
f 29 60 30
f 29 57 61
f 29 61 62
f 29 62 63
f 29 63 64
f 29 64 65
f 29 65 66
f 29 66 58
f 30 60 32
f 37 67 68
f 37 68 38
f 37 69 70
f 37 70 71
f 37 71 67
f 39 72 40
f 40 72 73
f 40 73 71
f 40 71 70
f 40 70 87
f 40 87 97
f 40 97 106
f 40 106 121
f 40 121 123
f 40 123 122
f 40 122 107
f 40 107 98
f 40 98 88
f 40 88 74
f 40 74 42
f 40 42 41
f 42 74 43
f 43 74 75
f 43 75 44
f 44 75 46
f 44 46 45
f 46 75 47
f 47 75 74
f 47 74 48
f 48 76 49
f 48 74 76
f 49 77 50
f 49 76 78
f 49 78 79
f 49 79 77
f 50 77 51
f 51 77 80
f 51 80 66
f 51 66 65
f 51 65 52
f 52 65 64
f 52 64 53
f 53 64 63
f 53 63 62
f 53 62 61
f 53 61 57
f 58 66 80
f 58 80 77
f 58 77 81
f 58 81 82
f 58 82 83
f 58 83 60
f 58 60 59
f 60 83 84
f 67 71 85
f 69 86 70
f 70 86 87
f 71 73 72
f 71 72 85
f 74 88 89
f 74 89 76
f 76 89 90
f 76 90 91
f 76 91 78
f 77 79 78
f 77 78 81
f 78 91 92
f 78 92 93
f 78 93 94
f 78 94 81
f 81 94 82
f 82 94 93
f 82 93 95
f 82 95 96
f 82 96 84
f 82 84 83
f 86 97 87
f 88 98 99
f 88 99 100
f 88 100 89
f 89 100 90
f 90 101 102
f 90 102 92
f 90 92 91
f 90 100 101
f 92 102 103
f 92 103 93
f 93 103 104
f 93 104 105
f 93 105 95
f 95 105 96
f 98 107 108
f 98 108 109
f 98 109 110
f 98 110 99
f 99 110 109
f 99 109 111
f 99 111 112
f 99 112 113
f 99 113 114
f 99 114 100
f 100 114 115
f 100 115 101
f 101 115 116
f 101 116 102
f 102 116 117
f 102 117 103
f 103 117 118
f 103 118 119
f 103 119 104
f 104 119 129
f 104 129 120
f 104 120 105
f 106 108 121
f 107 122 108
f 108 122 123
f 108 123 121
f 111 124 112
f 112 124 125
f 112 125 113
f 113 125 126
f 113 126 114
f 114 126 115
f 115 126 127
f 115 127 128
f 115 128 116
f 116 128 117
f 117 129 119
f 117 119 118

