# https://github.com/mikedh/trimesh
v -3.04781264 0.35285663 2.81678656
v -3.03489889 0.35887544 2.80192853
v -3.03626329 0.36002158 2.81678656
v -3.06419266 0.35561464 2.81678656
v -3.01294331 0.35573301 2.63346597
v -3.01294331 0.35546675 2.64556056
v -3.00062695 0.35928214 2.63346597
v -3.01743471 0.35879415 2.71507738
v -3.03020098 0.37255455 2.81678656
v -3.00177008 0.36019899 2.64556056
v -3.00318608 0.36204014 2.65961104
v -3.02058388 0.36206966 2.74635454
v -3.06886109 0.37255455 2.81678656
v -3.07217250 0.38320939 2.78443269
v -3.02410178 0.36031736 2.63346597
v -3.02531868 0.35913425 2.64556056
v -2.99761052 0.36879830 2.63346597
v -3.02582757 0.38874756 2.81678656
v -2.99682877 0.37255455 2.63346597
v -3.07217250 0.38478434 2.81678656
v -3.07217250 0.38997500 2.76986179
v -3.02522281 0.36439881 2.63346597
v -3.02710345 0.42837989 2.81678656
v -2.99910029 0.38993062 2.63346597
v -3.07217250 0.42837989 2.81678656
v -3.07217250 0.39663710 2.76998742
v -3.02657980 0.37255455 2.63346597
v -3.02991334 0.42837989 2.81289261
v -3.00356223 0.39916587 2.64556056
v -3.00289846 0.39955775 2.63346597
v -3.07217250 0.42837989 2.77856487
v -3.07217250 0.40202738 2.77102818
v -3.02453693 0.39049997 2.63346597
v -3.06636095 0.42837989 2.78283563
v -3.00575260 0.39985353 2.63346597
v -3.01357756 0.39990526 2.63346597
v -3.01681522 0.39972040 2.63346597
v -3.02222114 0.39910668 2.63346597
f 1 2 3
f 1 3 9
f 1 9 18
f 1 18 23
f 1 23 25
f 1 25 20
f 1 20 13
f 1 13 4
f 1 4 5
f 1 5 6
f 1 6 7
f 1 7 8
f 1 8 2
f 2 8 3
f 3 8 10
f 3 10 11
f 3 11 12
f 3 12 9
f 4 13 14
f 4 14 15
f 4 15 16
f 4 16 5
f 5 16 15
f 5 15 22
f 5 22 27
f 5 27 33
f 5 33 38
f 5 38 37
f 5 37 36
f 5 36 35
f 5 35 30
f 5 30 24
f 5 24 19
f 5 19 17
f 5 17 7
f 5 7 6
f 7 17 10
f 7 10 8
f 9 12 11
f 9 11 18
f 10 17 11
f 11 17 19
f 11 19 18
f 13 20 14
f 14 20 25
f 14 25 31
f 14 31 32
f 14 32 26
f 14 26 21
f 14 21 15
f 15 21 22
f 18 19 23
f 19 24 23
f 21 26 27
f 21 27 22
f 23 28 34
f 23 34 31
f 23 31 25
f 23 24 29
f 23 29 30
f 23 30 28
f 24 30 29
f 26 32 27
f 27 32 31
f 27 31 33
f 28 30 34
f 30 35 31
f 30 31 34
f 31 36 37
f 31 37 38
f 31 38 33
f 31 35 36

