# https://github.com/mikedh/trimesh
v -2.20050592 2.50527727 0.46196730
v -2.20956402 2.50527727 0.46196730
v -2.19579874 2.49225745 0.46196730
v -2.16196635 2.50404900 0.34845206
v -2.19964914 2.50527727 0.36943251
v -2.20956402 2.50527727 0.36943251
v -2.21434856 2.49225745 0.46196730
v -2.19572656 2.48660722 0.46196730
v -2.16196635 2.49225745 0.35362735
v -2.16196635 2.50404900 0.34066490
v -2.19556655 2.50503162 0.35243678
v -2.20900146 2.50454031 0.35204800
v -2.21434856 2.49225745 0.36943251
v -2.21457049 2.47481546 0.46196730
v -2.19557681 2.47481546 0.46196730
v -2.16196635 2.49176614 0.35363947
v -2.19630973 2.50404900 0.34066490
v -2.16196635 2.49225745 0.33790721
v -2.20729307 2.50306639 0.34156394
v -2.21314597 2.49225745 0.35204800
v -2.21457049 2.47481546 0.36943251
v -2.21469435 0.07741676 0.46196730
v -2.18557939 0.07741676 0.46196730
v -2.16196635 0.07741676 0.36741582
v -2.19630973 2.49225745 0.33790721
v -2.16196635 2.47481546 0.33785864
v -2.20846976 2.49225745 0.34064067
v -2.21328019 2.47481546 0.35204800
v -2.21469435 0.07741676 0.36943251
v -2.21469435 0.05997477 0.46196730
v -2.18557939 0.03688276 0.46196730
v -2.16196635 0.07692546 0.36741582
v -2.19630973 2.47481546 0.33785864
v -2.16196635 0.05997477 0.33785864
v -2.20849565 2.47481546 0.34061633
v -2.21334212 0.07741676 0.35204800
v -2.21469435 0.05997477 0.36943251
v -2.20354075 0.00789487 0.36943251
v -2.20239492 0.00789487 0.46196730
v -2.18558457 0.02509100 0.46196730
v -2.16196635 0.02459969 0.36739159
v -2.16196635 0.04204168 0.36740370
v -2.19630973 0.05997477 0.33785864
v -2.16196635 0.04646344 0.34061633
v -2.20849565 0.05997477 0.34061633
v -2.21334212 0.05997477 0.35204800
v -2.19305814 -0.00315994 0.35745413
v -2.19530847 -0.00315994 0.36943251
v -2.19730591 0.00101637 0.46196730
v -2.20732911 0.04867452 0.34152748
v -2.18560000 0.01944077 0.46196730
v -2.16196635 0.00764922 0.36718498
v -2.17894189 0.04646344 0.34061633
v -2.19630973 0.04695474 0.34061633
v -2.16196635 0.00789487 0.35074817
v -2.17894189 0.00789487 0.35035940
v -2.17894189 -0.00438820 0.35580188
v -2.19483881 -0.00217732 0.46196730
v -2.18563614 0.00789487 0.46196730
v -2.16196635 -0.00438820 0.36369840
v -2.16196635 -0.00438820 0.35580188
v -2.18011350 -0.00414255 0.36899517
v -2.18665811 -0.00217732 0.46196730
v -2.18597158 0.00445552 0.46196730
f 1 2 7
f 1 7 14
f 1 14 22
f 1 22 30
f 1 30 39
f 1 39 49
f 1 49 58
f 1 58 63
f 1 63 64
f 1 64 59
f 1 59 51
f 1 51 40
f 1 40 31
f 1 31 23
f 1 23 15
f 1 15 8
f 1 8 3
f 1 3 4
f 1 4 5
f 1 5 6
f 1 6 2
f 2 6 13
f 2 13 7
f 3 8 9
f 3 9 4
f 4 9 16
f 4 16 24
f 4 24 32
f 4 32 42
f 4 42 41
f 4 41 52
f 4 52 60
f 4 60 61
f 4 61 55
f 4 55 44
f 4 44 34
f 4 34 26
f 4 26 18
f 4 18 10
f 4 10 5
f 5 10 11
f 5 11 6
f 6 11 12
f 6 12 13
f 7 13 21
f 7 21 14
f 8 15 9
f 9 15 16
f 10 17 11
f 10 18 25
f 10 25 17
f 11 17 12
f 12 17 19
f 12 19 20
f 12 20 13
f 13 20 21
f 14 21 29
f 14 29 22
f 15 23 16
f 16 23 24
f 17 25 19
f 18 26 33
f 18 33 25
f 19 25 27
f 19 27 20
f 20 27 28
f 20 28 21
f 21 28 29
f 22 29 37
f 22 37 30
f 23 31 32
f 23 32 24
f 25 33 27
f 26 34 43
f 26 43 33
f 27 33 35
f 27 35 28
f 28 35 36
f 28 36 29
f 29 36 46
f 29 46 37
f 30 37 38
f 30 38 39
f 31 40 41
f 31 41 42
f 31 42 32
f 33 43 45
f 33 45 35
f 34 44 53
f 34 53 43
f 35 45 46
f 35 46 36
f 37 46 38
f 38 47 48
f 38 48 49
f 38 49 39
f 38 46 50
f 38 50 47
f 40 51 41
f 41 51 52
f 43 53 54
f 43 54 50
f 43 50 45
f 44 55 56
f 44 56 53
f 45 50 46
f 47 56 57
f 47 57 48
f 47 50 56
f 48 57 58
f 48 58 49
f 50 54 56
f 51 59 52
f 52 59 60
f 53 56 54
f 55 61 56
f 56 61 57
f 57 61 60
f 57 60 62
f 57 62 58
f 58 62 60
f 58 60 63
f 59 64 60
f 60 64 63

