# https://github.com/mikedh/trimesh
v -2.27433938 0.46401994 2.81678650
v -2.27433938 0.43969697 2.81678650
v -2.27433938 0.46401994 2.81282286
v -2.42475933 0.46401994 2.81678650
v -2.37259347 0.40532148 2.81678650
v -2.42109898 0.38539355 2.78542291
v -2.27433938 0.44119020 2.58136365
v -2.27433938 0.46016369 2.58136365
v -2.44124243 0.46401994 2.58159408
v -2.45197028 0.42468753 2.78039919
v -2.42471330 0.42468753 2.81678650
v -2.46336575 0.46401994 2.76207883
v -2.42109898 0.39513817 2.81678650
v -2.42109898 0.38986559 2.79994094
v -2.43956190 0.38610938 2.76714858
v -2.45694284 0.38550131 2.73239747
v -2.47430079 0.38556288 2.64558872
v -2.49168167 0.38619405 2.58136365
v -2.47430079 0.38613248 2.62821317
v -2.48638682 0.38682522 2.58136365
v -2.47430079 0.38924213 2.58136365
v -2.44662939 0.46401994 2.58136365
v -2.46064923 0.42468753 2.76795519
v -2.46060319 0.40730737 2.76788601
v -2.45190120 0.40730737 2.78033006
v -2.42446003 0.40730737 2.81678650
v -2.46746351 0.46401994 2.75544200
v -2.46610527 0.42468753 2.75926738
v -2.45056601 0.39542297 2.77864783
v -2.43942379 0.39195923 2.78447810
v -2.45694284 0.38834154 2.74977303
v -2.47430079 0.38872644 2.71504491
v -2.47430079 0.38642499 2.69771544
v -2.47430079 0.38580149 2.66296428
v -2.49168167 0.38634799 2.59346201
v -2.50075199 0.39072770 2.58136365
v -2.50738209 0.46401994 2.58136365
v -2.46605919 0.40730737 2.75919825
v -2.46601315 0.40532148 2.75910608
v -2.46175425 0.40532148 2.76588117
v -2.46578293 0.39830168 2.75876039
v -2.45171706 0.40532148 2.78005355
v -2.48000999 0.42468753 2.73405667
v -2.47181448 0.42468753 2.74977303
v -2.48127616 0.46401994 2.72778858
v -2.47176845 0.40730737 2.74977303
v -2.46854549 0.39523050 2.74977303
v -2.45657451 0.39376807 2.76558156
v -2.47480721 0.39303681 2.73108392
v -2.48737674 0.39300605 2.69771544
v -2.49168167 0.38893424 2.64558872
v -2.49168167 0.38755648 2.62821317
v -2.49168167 0.38676365 2.61083756
v -2.50457354 0.39275206 2.58136365
v -2.50950001 0.42468753 2.58136365
v -2.50687561 0.46401994 2.59341592
v -2.47998695 0.40730737 2.73396449
v -2.48070061 0.40532148 2.73189048
v -2.48323295 0.39814773 2.72440101
v -2.48357828 0.42468753 2.72536886
v -2.48403867 0.46401994 2.72006863
v -2.48735375 0.42468753 2.71504491
v -2.48491348 0.39570005 2.71504491
v -2.50098221 0.39741652 2.65738753
v -2.50181098 0.39600795 2.64558872
v -2.50282394 0.39456857 2.62821317
v -2.50365270 0.39357565 2.61083756
v -2.50425120 0.39300605 2.59346201
v -2.50931588 0.40730737 2.58136365
v -2.50876337 0.40730737 2.59346201
v -2.50892451 0.42468753 2.59346201
v -2.50659940 0.46401994 2.59807090
v -2.48353225 0.40730737 2.72527669
v -2.48348616 0.40532148 2.72506930
v -2.48726163 0.40730737 2.71504491
v -2.49195798 0.40730737 2.69771544
v -2.49046159 0.46401994 2.69771544
v -2.49223419 0.42468753 2.69771544
v -2.50148869 0.40532148 2.65969198
v -2.50383684 0.40730737 2.64558872
v -2.50583966 0.40730737 2.62821317
v -2.50754323 0.40730737 2.61083756
v -2.50814178 0.40532148 2.59346201
v -2.50768138 0.42468753 2.61083756
v -2.50583966 0.46401994 2.61083756
v -2.50158081 0.40730737 2.66026810
v -2.49499675 0.46401994 2.68033989
v -2.50164983 0.42468753 2.66054462
v -2.50395195 0.42468753 2.64558872
v -2.50597781 0.42468753 2.62821317
v -2.50220235 0.46401994 2.64558872
v -2.50008442 0.46401994 2.66022202
v -2.50178794 0.46401994 2.64918368
f 1 2 7
f 1 7 8
f 1 8 3
f 1 3 9
f 1 9 22
f 1 22 37
f 1 37 56
f 1 56 72
f 1 72 85
f 1 85 91
f 1 91 93
f 1 93 92
f 1 92 87
f 1 87 77
f 1 77 61
f 1 61 45
f 1 45 27
f 1 27 12
f 1 12 4
f 1 4 11
f 1 11 26
f 1 26 13
f 1 13 5
f 1 5 2
f 2 5 6
f 2 6 7
f 3 8 9
f 4 10 11
f 4 12 10
f 5 13 14
f 5 14 6
f 6 14 15
f 6 15 16
f 6 16 17
f 6 17 18
f 6 18 19
f 6 19 20
f 6 20 21
f 6 21 7
f 7 21 20
f 7 20 18
f 7 18 36
f 7 36 54
f 7 54 69
f 7 69 55
f 7 55 37
f 7 37 22
f 7 22 8
f 8 22 9
f 10 12 23
f 10 23 24
f 10 24 25
f 10 25 11
f 11 25 26
f 12 27 28
f 12 28 23
f 13 26 29
f 13 29 30
f 13 30 15
f 13 15 14
f 15 30 31
f 15 31 16
f 16 31 32
f 16 32 33
f 16 33 34
f 16 34 17
f 17 34 35
f 17 35 18
f 18 20 19
f 18 35 36
f 23 28 38
f 23 38 24
f 24 38 39
f 24 39 40
f 24 40 25
f 25 40 41
f 25 41 42
f 25 42 26
f 26 42 29
f 27 43 44
f 27 44 28
f 27 45 43
f 28 44 46
f 28 46 38
f 29 42 41
f 29 41 47
f 29 47 48
f 29 48 30
f 30 48 31
f 31 48 47
f 31 47 49
f 31 49 32
f 32 49 50
f 32 50 33
f 33 50 51
f 33 51 52
f 33 52 53
f 33 53 35
f 33 35 34
f 35 53 36
f 36 53 54
f 37 55 56
f 38 46 39
f 39 46 41
f 39 41 40
f 41 46 57
f 41 57 58
f 41 58 59
f 41 59 47
f 43 57 46
f 43 46 44
f 43 45 60
f 43 60 57
f 45 61 62
f 45 62 60
f 47 59 49
f 49 59 63
f 49 63 50
f 50 64 65
f 50 65 51
f 50 63 64
f 51 65 66
f 51 66 67
f 51 67 52
f 52 67 68
f 52 68 53
f 53 68 54
f 54 68 69
f 55 69 70
f 55 70 71
f 55 71 56
f 56 71 72
f 57 60 73
f 57 73 74
f 57 74 58
f 58 74 59
f 59 74 75
f 59 75 76
f 59 76 64
f 59 64 63
f 60 62 73
f 61 77 62
f 62 77 78
f 62 78 75
f 62 75 73
f 64 76 79
f 64 79 80
f 64 80 81
f 64 81 82
f 64 82 65
f 65 82 66
f 66 82 70
f 66 70 67
f 67 70 83
f 67 83 69
f 67 69 68
f 69 83 70
f 70 82 71
f 71 82 84
f 71 84 85
f 71 85 72
f 73 75 74
f 75 78 76
f 76 78 86
f 76 86 79
f 77 87 78
f 78 87 88
f 78 88 86
f 79 86 80
f 80 89 90
f 80 90 81
f 80 86 89
f 81 90 84
f 81 84 82
f 84 90 85
f 85 90 91
f 86 88 89
f 87 92 88
f 88 92 93
f 88 93 89
f 89 93 90
f 90 93 91

