# https://github.com/mikedh/trimesh
v -4.34955608 0.52617172 2.83390983
v -4.34955608 0.45477263 2.93545041
v -4.34955608 0.52617172 2.83330885
v -4.35086564 0.52617172 2.83339900
v -4.47116989 0.44235058 2.93545041
v -4.41420240 0.45112558 2.93545041
v -4.40295186 0.45210286 2.93545041
v -4.39747531 0.45238492 2.93545041
v -4.38558185 0.45298942 2.93545041
v -4.34955608 0.43853229 2.93545041
v -4.34955608 0.49989699 2.83312855
v -4.35142519 0.52617172 2.83316862
v -4.47116989 0.44212895 2.92228829
v -4.47116989 0.42416583 2.93545041
v -4.34955608 0.43353524 2.88131948
v -4.45507371 0.42583823 2.93545041
v -4.34955608 0.46385998 2.83312855
v -4.35881840 0.52079185 2.83312855
v -4.47116989 0.44022483 2.83312855
v -4.47116989 0.44176627 2.90490906
v -4.47116989 0.42393411 2.92356036
v -4.34955608 0.43175203 2.83338901
v -4.34955608 0.43304160 2.87186359
v -4.35082991 0.43171174 2.83312855
v -4.47116989 0.42937441 2.83312855
v -4.47116989 0.42365200 2.90618124
v -4.45507371 0.42404492 2.85406369
v -4.45507371 0.42381320 2.83669455
v -4.45507371 0.42378301 2.83312855
v -4.47116989 0.42325913 2.83338901
v -4.45863340 0.42368224 2.83312855
v -4.47116989 0.42349080 2.88880206
v -4.47116989 0.42337999 2.87144287
v -4.47116989 0.42330946 2.85406369
f 1 2 10
f 1 10 15
f 1 15 23
f 1 23 22
f 1 22 17
f 1 17 11
f 1 11 3
f 1 3 12
f 1 12 4
f 1 4 5
f 1 5 6
f 1 6 7
f 1 7 8
f 1 8 9
f 1 9 2
f 2 9 8
f 2 8 7
f 2 7 6
f 2 6 5
f 2 5 14
f 2 14 16
f 2 16 10
f 3 11 12
f 4 12 5
f 5 13 20
f 5 20 19
f 5 19 25
f 5 25 30
f 5 30 34
f 5 34 33
f 5 33 32
f 5 32 26
f 5 26 21
f 5 21 14
f 5 12 13
f 10 16 15
f 11 17 24
f 11 24 29
f 11 29 31
f 11 31 25
f 11 25 19
f 11 19 18
f 11 18 12
f 12 18 19
f 12 19 20
f 12 20 13
f 14 21 22
f 14 22 23
f 14 23 15
f 14 15 16
f 17 22 24
f 21 26 22
f 22 26 27
f 22 27 28
f 22 28 29
f 22 29 24
f 25 31 30
f 26 32 28
f 26 28 27
f 28 32 29
f 29 32 33
f 29 33 34
f 29 34 30
f 29 30 31

