# https://github.com/mikedh/trimesh
v -1.36279669 0.40208957 1.51401450
v -1.36279669 0.39316984 1.51401450
v -1.36279669 0.43146453 1.51164310
v -1.41989156 0.37255497 1.59534447
v -1.36279669 0.39277443 1.51334113
v -1.42066539 0.36541456 1.59534447
v -1.42150736 0.36134637 1.59534447
v -1.44225676 0.39972464 1.59534447
v -1.43782630 0.39995279 1.59534447
v -1.43178854 0.39980832 1.59534447
v -1.42817438 0.39942809 1.59534447
v -1.42398191 0.39875891 1.59534447
v -1.42319110 0.39817341 1.59534447
v -1.42292742 0.39716967 1.59534447
v -1.42160098 0.38993047 1.59534447
v -1.36279669 0.43146453 1.46330769
v -1.41478069 0.43146453 1.45756954
v -1.36279669 0.38767962 1.49832232
v -1.43092958 0.35685989 1.59534447
v -1.42053800 0.36009926 1.58566861
v -1.44688295 0.38993047 1.59534447
v -1.42532554 0.43146453 1.44581501
v -1.36279669 0.42603516 1.46225372
v -1.37400476 0.43146453 1.44581501
v -1.39538342 0.35378777 1.44581501
v -1.36279669 0.38872141 1.48085894
v -1.44504594 0.35868489 1.59534447
v -1.43180553 0.35543796 1.58566861
v -1.44967213 0.37255497 1.59534447
v -1.42977319 0.39061487 1.44581501
v -1.36279669 0.42563209 1.46219521
v -1.37338400 0.42467397 1.44581501
v -1.41443209 0.35599306 1.48142984
v -1.41213609 0.35804611 1.44581501
v -1.39494969 0.35436576 1.44581501
v -1.43180553 0.35583336 1.56829301
v -1.36279669 0.39502529 1.46819688
v -1.44805633 0.36664645 1.59534447
v -1.44406809 0.35920954 1.58566861
v -1.42666069 0.35922477 1.49880539
v -1.42841257 0.35828192 1.51618095
v -1.44113434 0.36269228 1.55640679
v -1.42345477 0.37511755 1.44581501
v -1.42373543 0.36272273 1.46964605
v -1.36279669 0.42467397 1.46206343
v -1.37325641 0.40811206 1.44581501
v -1.42491730 0.36101176 1.48142984
v -1.38472816 0.37255497 1.44581501
v -1.36279669 0.39545870 1.46765524
v -1.44232470 0.36097375 1.56829301
v -1.36279669 0.40601334 1.46278071
v -1.37325641 0.40607413 1.44581501
v -1.36279669 0.40529854 1.46283927
f 1 2 5
f 1 5 18
f 1 18 26
f 1 26 37
f 1 37 49
f 1 49 53
f 1 53 51
f 1 51 45
f 1 45 31
f 1 31 23
f 1 23 16
f 1 16 3
f 1 3 4
f 1 4 2
f 2 4 6
f 2 6 7
f 2 7 5
f 3 8 9
f 3 9 10
f 3 10 11
f 3 11 12
f 3 12 13
f 3 13 14
f 3 14 15
f 3 15 4
f 3 16 24
f 3 24 22
f 3 22 17
f 3 17 8
f 4 15 14
f 4 14 13
f 4 13 12
f 4 12 11
f 4 11 10
f 4 10 9
f 4 9 8
f 4 8 21
f 4 21 29
f 4 29 38
f 4 38 27
f 4 27 19
f 4 19 7
f 4 7 6
f 5 7 18
f 7 19 20
f 7 20 18
f 8 17 22
f 8 22 21
f 16 23 24
f 18 20 25
f 18 25 26
f 19 27 28
f 19 28 25
f 19 25 20
f 21 22 29
f 22 24 32
f 22 32 46
f 22 46 52
f 22 52 48
f 22 48 35
f 22 35 25
f 22 25 34
f 22 34 43
f 22 43 30
f 22 30 29
f 23 31 24
f 24 31 32
f 25 33 34
f 25 35 26
f 25 28 36
f 25 36 33
f 26 35 37
f 27 38 39
f 27 39 40
f 27 40 41
f 27 41 36
f 27 36 28
f 29 42 38
f 29 30 42
f 30 43 44
f 30 44 42
f 31 45 32
f 32 45 46
f 33 36 41
f 33 41 34
f 34 41 40
f 34 40 47
f 34 47 44
f 34 44 43
f 35 48 37
f 37 48 49
f 38 42 50
f 38 50 39
f 39 50 40
f 40 50 47
f 42 44 47
f 42 47 50
f 45 51 52
f 45 52 46
f 48 52 49
f 49 52 53
f 51 53 52

