# https://github.com/mikedh/trimesh
v -2.52647592 0.47025297 1.82892736
v -2.52614607 0.47681611 1.82892736
v -2.52325177 0.51155728 1.81155482
v -2.52357334 0.49418670 1.81155482
v -2.52535448 0.47025297 1.82238569
v -2.52273224 0.47025297 1.83555528
v -2.51956584 0.49418670 1.83912084
v -2.51896387 0.51155728 1.83862721
v -2.52526376 0.49418670 1.82892736
v -2.52429072 0.51155728 1.82892736
v -2.52145416 0.52881938 1.80997331
v -2.51763629 0.53454179 1.80312496
v -2.51796609 0.52311059 1.80293326
v -2.51807333 0.51155728 1.80293326
v -2.52304563 0.47025297 1.81037589
v -2.52034919 0.47025297 1.83974864
v -2.52013482 0.47681611 1.83958091
v -2.50906049 0.51155728 1.84335255
v -2.51076743 0.53051441 1.84167041
v -2.51834544 0.52576834 1.83811443
v -2.51770226 0.53736230 1.83756330
v -2.52174275 0.53051441 1.83063346
v -2.52039041 0.54004724 1.81470823
v -2.50116091 0.59351500 1.80293326
v -2.51748783 0.53439266 1.80293326
v -2.51799907 0.49418670 1.80293326
v -2.51780945 0.47025297 1.80293326
v -2.51345558 0.47025297 1.84250908
v -2.49168633 0.52894143 1.85064661
v -2.49168633 0.54629850 1.84849960
v -2.52039041 0.54004724 1.82598480
v -2.49168633 0.56366908 1.84460816
v -2.50041877 0.57245605 1.83768790
v -2.49999820 0.58857910 1.81902141
v -2.49904992 0.59697284 1.80293326
v -2.44223545 0.47025297 1.80293326
v -2.49825010 0.47025297 1.84762260
v -2.49168633 0.49418670 1.85055076
v -2.49168633 0.51155728 1.85063224
v -2.47432036 0.52894143 1.85188785
v -2.47432036 0.54629850 1.85068016
v -2.47432036 0.56366908 1.84739735
v -2.49168633 0.57590032 1.84023268
v -2.49319531 0.58491787 1.82988584
v -2.48841269 0.59290480 1.82473878
v -2.48513904 0.60810578 1.80449560
v -2.48595538 0.60841766 1.80293326
v -2.49518259 0.60127145 1.80293326
v -2.44296935 0.47025297 1.81155482
v -2.44752936 0.56042816 1.80293326
v -2.44776021 0.55855687 1.80711224
v -2.49168633 0.47025297 1.84932870
v -2.49168633 0.47681611 1.84995171
v -2.47432036 0.49418670 1.85178721
v -2.47432036 0.47025297 1.85106835
v -2.45864485 0.47025297 1.84425352
v -2.45978281 0.52894143 1.84354904
v -2.46023632 0.54629850 1.84292603
v -2.46170407 0.56366908 1.84126305
v -2.46369136 0.57480197 1.83935567
v -2.47432036 0.57766318 1.84148350
v -2.47432036 0.58634166 1.83377729
v -2.47432036 0.59316247 1.82509342
v -2.47910303 0.60810578 1.80449560
v -2.48319302 0.60877019 1.80293326
v -2.44487415 0.47025297 1.82390969
v -2.44840339 0.54629850 1.81899745
v -2.44870849 0.56907956 1.80293326
v -2.44935167 0.56407588 1.81236474
v -2.45169356 0.54629850 1.82892736
v -2.45415081 0.56366908 1.82892736
v -2.46082176 0.58076843 1.82837143
v -2.46402944 0.59114199 1.82221796
v -2.46821015 0.60608530 1.80293326
v -2.47371016 0.60255963 1.81079284
v -2.47817945 0.60877019 1.80293326
v -2.44954958 0.57324256 1.80293326
v -2.45382096 0.58105323 1.81155482
v -2.46128355 0.59470831 1.81155482
v -2.45955192 0.59742033 1.80293326
v -2.45171826 0.58112101 1.80293326
v -2.45606389 0.59104708 1.80293326
f 1 2 3
f 1 3 4
f 1 4 5
f 1 5 15
f 1 15 27
f 1 27 36
f 1 36 49
f 1 49 66
f 1 66 56
f 1 56 55
f 1 55 52
f 1 52 37
f 1 37 28
f 1 28 16
f 1 16 6
f 1 6 7
f 1 7 2
f 2 7 8
f 2 8 9
f 2 9 3
f 3 9 10
f 3 10 11
f 3 11 12
f 3 12 13
f 3 13 4
f 4 13 14
f 4 14 15
f 4 15 5
f 6 16 17
f 6 17 7
f 7 18 8
f 7 17 18
f 8 10 9
f 8 18 19
f 8 19 20
f 8 20 10
f 10 20 21
f 10 21 22
f 10 22 23
f 10 23 11
f 11 23 12
f 12 23 24
f 12 24 25
f 12 25 13
f 13 25 24
f 13 24 35
f 13 35 48
f 13 48 47
f 13 47 65
f 13 65 76
f 13 76 74
f 13 74 80
f 13 80 82
f 13 82 81
f 13 81 77
f 13 77 68
f 13 68 50
f 13 50 36
f 13 36 27
f 13 27 26
f 13 26 14
f 14 26 15
f 15 26 27
f 16 18 17
f 16 28 29
f 16 29 18
f 18 29 19
f 19 29 30
f 19 30 21
f 19 21 20
f 21 31 22
f 21 30 32
f 21 32 33
f 21 33 34
f 21 34 31
f 22 31 23
f 23 31 24
f 24 34 35
f 24 31 34
f 28 37 38
f 28 38 39
f 28 39 29
f 29 40 41
f 29 41 30
f 29 39 40
f 30 41 42
f 30 42 32
f 32 42 43
f 32 43 33
f 33 43 44
f 33 44 34
f 34 44 45
f 34 45 46
f 34 46 47
f 34 47 48
f 34 48 35
f 36 50 51
f 36 51 49
f 37 52 53
f 37 53 38
f 38 54 39
f 38 53 55
f 38 55 54
f 39 54 40
f 40 54 56
f 40 56 57
f 40 57 58
f 40 58 41
f 41 58 59
f 41 59 42
f 42 59 60
f 42 60 61
f 42 61 43
f 43 61 62
f 43 62 45
f 43 45 44
f 45 63 46
f 45 62 63
f 46 63 64
f 46 64 76
f 46 76 65
f 46 65 47
f 49 51 67
f 49 67 66
f 50 68 51
f 51 68 69
f 51 69 67
f 52 55 53
f 54 55 56
f 56 66 57
f 57 66 58
f 58 70 71
f 58 71 59
f 58 66 70
f 59 71 60
f 60 72 73
f 60 73 62
f 60 62 61
f 60 71 72
f 62 73 63
f 63 74 75
f 63 75 64
f 63 73 74
f 64 75 74
f 64 74 76
f 66 67 70
f 67 69 71
f 67 71 70
f 68 77 69
f 69 77 78
f 69 78 71
f 71 78 72
f 72 78 79
f 72 79 73
f 73 79 74
f 74 79 80
f 77 81 78
f 78 81 82
f 78 82 79
f 79 82 80

