# https://github.com/mikedh/trimesh
v -3.68744318 0.59548504 2.54502998
v -3.99023205 0.59548504 2.54502998
v -3.69319309 0.36684799 2.54502998
v -3.69325235 0.36684799 2.18079101
v -3.68768029 0.59548504 2.21120666
v -3.99023205 0.40831867 2.54502998
v -3.99023205 0.59548504 2.18079101
v -3.71005750 0.36684799 2.54502998
v -3.71026497 0.36684799 2.18079101
v -3.68770991 0.59548504 2.18079101
v -3.71008712 0.36684799 2.54128595
v -3.99023205 0.43363078 2.18079101
v -3.88169517 0.40749057 2.18079101
v -3.71026497 0.36684799 2.19384158
v -3.71020570 0.36684799 2.33283359
f 1 2 6
f 1 6 8
f 1 8 3
f 1 3 4
f 1 4 5
f 1 5 10
f 1 10 7
f 1 7 2
f 2 7 12
f 2 12 6
f 3 8 11
f 3 11 15
f 3 15 14
f 3 14 9
f 3 9 4
f 4 9 13
f 4 13 12
f 4 12 7
f 4 7 10
f 4 10 5
f 6 11 8
f 6 12 13
f 6 13 9
f 6 9 14
f 6 14 15
f 6 15 11

