# https://github.com/mikedh/trimesh
v -1.04955544 0.83706251 0.35625673
v -1.01733305 0.75474788 0.35604463
v -1.01934964 0.83706251 0.35477193
v -1.05920054 0.83706251 0.35587499
v -1.04955544 0.12935945 0.35625673
v -1.01733305 0.83706251 0.35460230
v -1.01733305 0.12935945 0.35371134
v -1.05920054 0.83706251 -0.07709427
v -1.05920054 0.11969374 0.35566279
v -1.05920054 0.10231099 0.35515377
v -1.04955544 0.11197669 0.35553561
v -1.01733305 0.83706251 0.33415437
v -1.01733305 0.11197669 0.35260839
v -1.04392759 0.83706251 -0.07709427
v -1.05920054 0.04852581 -0.07709427
v -1.05920054 0.05982854 0.35112359
v -1.01774296 0.83706251 0.28252549
v -1.01733305 0.75365663 0.30509460
v -1.05504826 0.04899360 0.34679639
v -1.01733305 0.10082993 0.34739033
v -1.01733305 0.05982854 0.29699178
v -1.04654692 0.05982854 -0.07709427
v -1.05239620 0.04852581 -0.07709427
v -1.04955544 0.04080886 0.29991901
v -1.05920054 0.04751254 0.33491795
v -1.05920054 0.04868177 0.34739033
v -1.01733305 0.07721129 0.29682214
v -1.01733305 0.06372606 0.29694942
v -1.01733305 0.04197809 0.31281559
v -1.01733305 0.04603147 0.30153108
v -1.01733305 0.04182223 0.30310069
v -1.04830937 0.05639872 -0.07709427
v -1.01733305 0.04182223 0.31031266
f 1 2 3
f 1 3 6
f 1 6 12
f 1 12 17
f 1 17 14
f 1 14 8
f 1 8 4
f 1 4 5
f 1 5 2
f 2 6 3
f 2 5 7
f 2 7 13
f 2 13 20
f 2 20 29
f 2 29 33
f 2 33 31
f 2 31 30
f 2 30 21
f 2 21 28
f 2 28 27
f 2 27 18
f 2 18 12
f 2 12 6
f 4 8 15
f 4 15 25
f 4 25 26
f 4 26 16
f 4 16 10
f 4 10 9
f 4 9 5
f 5 9 10
f 5 10 11
f 5 11 7
f 7 11 13
f 8 14 22
f 8 22 32
f 8 32 23
f 8 23 15
f 10 16 11
f 11 16 13
f 12 18 17
f 13 16 19
f 13 19 20
f 14 17 21
f 14 21 22
f 15 23 24
f 15 24 25
f 16 26 19
f 17 18 27
f 17 27 28
f 17 28 21
f 19 26 29
f 19 29 20
f 21 30 22
f 22 30 31
f 22 31 32
f 23 32 31
f 23 31 24
f 24 31 33
f 24 33 29
f 24 29 26
f 24 26 25

