# https://github.com/mikedh/trimesh
v -5.55456525 0.41946870 1.32731468
v -5.55456525 0.40214456 1.32731468
v -5.55456525 0.41943706 1.32549683
v -5.55622993 0.41917805 1.32731468
v -5.63432110 0.35492977 1.32731468
v -5.55456525 0.39940888 1.30538947
v -5.56848483 0.41702993 1.32731468
v -5.55456525 0.41246826 1.10088001
v -5.55456525 0.39793677 1.29199936
v -5.55456525 0.39888448 1.30106651
v -5.65063922 0.35492977 1.32731468
v -5.63155595 0.35492977 1.25617419
v -5.55456525 0.38732242 1.10088001
v -5.55456525 0.39057624 1.16869513
v -5.55456525 0.39148605 1.18605349
v -5.55456525 0.39241481 1.20343402
v -5.55456525 0.39341306 1.22079238
v -5.55456525 0.39445553 1.23817296
v -5.55456525 0.39523262 1.25069847
v -5.55456525 0.39553591 1.25553132
v -5.55456525 0.39626246 1.26679320
v -5.55456525 0.39660365 1.27204724
v -5.55456525 0.39779147 1.28984896
v -5.60183566 0.40833628 1.30767289
v -5.60183566 0.40881645 1.32503126
v -5.60183566 0.40882908 1.32731468
v -5.56903973 0.40879750 1.10088001
v -5.60183566 0.40711686 1.27291184
v -5.65062037 0.35518247 1.32731468
v -5.65052633 0.35492977 1.30767289
v -5.62764352 0.35492977 1.10088001
v -5.61920702 0.40386310 1.32503126
v -5.61920702 0.40391364 1.32731468
v -5.60411178 0.40821624 1.32731468
v -5.61920702 0.39033613 1.10088001
v -5.61029080 0.39843590 1.14333378
v -5.61116550 0.39890343 1.15490598
v -5.60183566 0.40631450 1.25553132
v -5.61199318 0.39928253 1.16869513
v -5.61296192 0.39975002 1.18605349
v -5.61735426 0.40218879 1.27291184
v -5.61815357 0.40270055 1.29029237
v -5.65020653 0.35717275 1.32731468
v -5.65050749 0.35518247 1.30767289
v -5.65041345 0.35492977 1.29029237
v -5.64837242 0.35492977 1.10088001
v -5.62067431 0.40232150 1.30882566
v -5.62844283 0.39895397 1.32503126
v -5.62851822 0.39900451 1.32731468
v -5.62049555 0.40326290 1.32731468
v -5.63204519 0.38415079 1.10088001
v -5.62068363 0.39451870 1.16869513
v -5.62256476 0.39553591 1.20343402
v -5.62344878 0.39603503 1.22079238
v -5.61387431 0.40022387 1.20343402
v -5.64751657 0.37001735 1.32731468
v -5.65039460 0.35518247 1.29029237
v -5.65029104 0.35492977 1.27291184
v -5.64833493 0.35518247 1.10088001
v -5.64859819 0.35492977 1.11633182
v -5.63251536 0.38455515 1.11655355
v -5.63461274 0.39115749 1.32731468
v -5.63298554 0.38500374 1.13393402
v -5.63339938 0.38542700 1.15131460
v -5.63446215 0.38685489 1.20343402
v -5.63469724 0.38734769 1.22079238
v -5.64315260 0.37696719 1.20343402
v -5.64337837 0.37725148 1.22079238
v -5.64073542 0.37370069 1.10088001
v -5.64120581 0.37425041 1.11655355
v -5.64167599 0.37484424 1.13393402
v -5.64208983 0.37542554 1.15131460
v -5.65027240 0.35518247 1.27291184
v -5.64361346 0.37870458 1.32731468
v -5.64694282 0.36856414 1.22079238
v -5.64989605 0.35518247 1.22079238
v -5.65004663 0.35492977 1.23817296
v -5.64807146 0.35618714 1.10088001
v -5.64856049 0.35518247 1.11655355
v -5.64681130 0.36827986 1.20343402
v -5.64665139 0.36786281 1.18605349
v -5.64883327 0.35492977 1.13393402
v -5.64950105 0.35518247 1.18605349
v -5.64244712 0.37601317 1.16869513
v -5.63555330 0.38992550 1.32731468
v -5.64274808 0.37655014 1.18605349
v -5.64645380 0.36732583 1.16869513
v -5.64568266 0.36501335 1.10088001
v -5.64587073 0.36556307 1.11655355
v -5.64606812 0.36615701 1.13393402
v -5.64261655 0.38013883 1.32731468
v -5.64972682 0.35518247 1.20343402
v -5.64991489 0.35492977 1.22079238
v -5.64952922 0.35492977 1.18605349
v -5.64974567 0.35492977 1.20343402
f 1 2 6
f 1 6 10
f 1 10 9
f 1 9 23
f 1 23 22
f 1 22 21
f 1 21 20
f 1 20 19
f 1 19 18
f 1 18 17
f 1 17 16
f 1 16 15
f 1 15 14
f 1 14 13
f 1 13 8
f 1 8 3
f 1 3 4
f 1 4 7
f 1 7 26
f 1 26 34
f 1 34 33
f 1 33 50
f 1 50 49
f 1 49 62
f 1 62 85
f 1 85 91
f 1 91 74
f 1 74 56
f 1 56 43
f 1 43 29
f 1 29 11
f 1 11 5
f 1 5 2
f 2 5 6
f 3 7 4
f 3 8 7
f 5 9 10
f 5 10 6
f 5 11 30
f 5 30 45
f 5 45 58
f 5 58 77
f 5 77 93
f 5 93 95
f 5 95 94
f 5 94 82
f 5 82 60
f 5 60 46
f 5 46 31
f 5 31 12
f 5 12 13
f 5 13 14
f 5 14 15
f 5 15 16
f 5 16 17
f 5 17 18
f 5 18 19
f 5 19 20
f 5 20 21
f 5 21 22
f 5 22 23
f 5 23 9
f 7 24 25
f 7 25 26
f 7 8 24
f 8 13 31
f 8 31 46
f 8 46 59
f 8 59 78
f 8 78 88
f 8 88 69
f 8 69 51
f 8 51 35
f 8 35 27
f 8 27 28
f 8 28 24
f 11 29 44
f 11 44 30
f 12 31 13
f 24 32 25
f 24 28 32
f 25 32 33
f 25 33 34
f 25 34 26
f 27 35 36
f 27 36 37
f 27 37 38
f 27 38 28
f 28 38 37
f 28 37 39
f 28 39 40
f 28 40 41
f 28 41 42
f 28 42 32
f 29 43 44
f 30 44 57
f 30 57 45
f 32 42 47
f 32 47 48
f 32 48 49
f 32 49 50
f 32 50 33
f 35 51 36
f 36 51 37
f 37 52 39
f 37 51 52
f 39 52 53
f 39 53 40
f 40 53 54
f 40 54 55
f 40 55 41
f 41 55 54
f 41 54 42
f 42 54 48
f 42 48 47
f 43 56 44
f 44 56 57
f 45 57 73
f 45 73 58
f 46 60 59
f 48 54 51
f 48 51 61
f 48 61 49
f 49 61 63
f 49 63 64
f 49 64 65
f 49 65 66
f 49 66 67
f 49 67 68
f 49 68 62
f 51 69 70
f 51 70 71
f 51 71 72
f 51 72 61
f 51 54 53
f 51 53 52
f 56 73 57
f 56 74 68
f 56 68 75
f 56 75 76
f 56 76 73
f 58 73 77
f 59 60 79
f 59 79 80
f 59 80 81
f 59 81 78
f 60 82 83
f 60 83 79
f 61 72 84
f 61 84 63
f 62 68 85
f 63 84 64
f 64 84 86
f 64 86 65
f 65 86 67
f 65 67 66
f 67 87 81
f 67 81 68
f 67 86 84
f 67 84 88
f 67 88 89
f 67 89 90
f 67 90 87
f 68 81 80
f 68 80 75
f 68 74 91
f 68 91 85
f 69 88 70
f 70 88 71
f 71 88 72
f 72 88 84
f 73 76 77
f 75 80 92
f 75 92 76
f 76 93 77
f 76 92 95
f 76 95 93
f 78 81 87
f 78 87 90
f 78 90 89
f 78 89 88
f 79 83 80
f 80 83 92
f 82 94 83
f 83 94 92
f 92 94 95

