# https://github.com/mikedh/trimesh
v -1.32118852 0.92422531 -0.23871578
v -1.32160381 0.92422531 -0.23896474
v -1.32139606 0.92422531 -0.23813975
v -1.14703747 0.90955137 -0.20395358
v -1.14703747 0.90955137 -0.23896474
v -1.40085013 0.92422531 -0.23896474
v -1.32708627 0.92422531 -0.22250578
v -1.14703747 0.90602487 -0.18826513
v -1.34523642 0.92422531 -0.21049819
v -1.14703747 0.89257925 -0.23896474
v -1.57134621 0.90955137 -0.23896474
v -1.57134621 0.90955137 -0.20395358
v -1.39478627 0.92422531 -0.22371975
v -1.14703747 0.89379436 -0.18024951
v -1.57134621 0.90578712 -0.18737014
v -1.57134621 0.89520762 -0.17762707
v -1.35213107 0.92422531 -0.21063821
v -1.14703747 0.78929367 -0.19304315
v -1.15185546 0.78929367 -0.19349448
v -1.15380742 0.78929367 -0.19367344
v -1.36230683 0.89039996 -0.23896474
v -1.57134621 0.89257925 -0.23896474
v -1.57134621 0.90945892 -0.20332330
v -1.38004170 0.92422531 -0.21583669
v -1.38336444 0.92422531 -0.21748646
v -1.14703747 0.78929367 -0.17451415
v -1.57134621 0.87632035 -0.17020300
v -1.57134621 0.87412785 -0.16989169
v -1.57134621 0.85887276 -0.16782953
v -1.57134621 0.78929367 -0.15946386
v -1.57134621 0.90603808 -0.18781360
v -1.36230683 0.92422531 -0.21090292
v -1.15746239 0.78929367 -0.19367344
v -1.53604259 0.78929367 -0.19365790
v -1.53782845 0.78929367 -0.19361896
v -1.55215762 0.78929367 -0.19228051
v -1.57080623 0.78929367 -0.18702776
v -1.57134621 0.78929367 -0.18675538
v -1.37489168 0.92422531 -0.21409351
v -1.36305456 0.92422531 -0.21105080
v -1.36932617 0.92422531 -0.21250587
f 1 2 6
f 1 6 13
f 1 13 25
f 1 25 24
f 1 24 39
f 1 39 41
f 1 41 40
f 1 40 32
f 1 32 17
f 1 17 9
f 1 9 7
f 1 7 3
f 1 3 4
f 1 4 5
f 1 5 2
f 2 5 10
f 2 10 21
f 2 21 22
f 2 22 11
f 2 11 6
f 3 7 4
f 4 8 14
f 4 14 26
f 4 26 18
f 4 18 10
f 4 10 5
f 4 7 9
f 4 9 8
f 6 11 12
f 6 12 13
f 8 9 15
f 8 15 16
f 8 16 14
f 9 17 15
f 10 18 19
f 10 19 20
f 10 20 21
f 11 22 38
f 11 38 30
f 11 30 29
f 11 29 28
f 11 28 27
f 11 27 16
f 11 16 15
f 11 15 31
f 11 31 23
f 11 23 12
f 12 23 24
f 12 24 25
f 12 25 13
f 14 16 27
f 14 27 28
f 14 28 29
f 14 29 30
f 14 30 26
f 15 17 32
f 15 32 31
f 18 26 30
f 18 30 38
f 18 38 37
f 18 37 36
f 18 36 35
f 18 35 34
f 18 34 33
f 18 33 20
f 18 20 19
f 20 33 21
f 21 33 34
f 21 34 22
f 22 34 35
f 22 35 36
f 22 36 37
f 22 37 38
f 23 31 39
f 23 39 24
f 31 32 40
f 31 40 41
f 31 41 39

