# https://github.com/mikedh/trimesh
v -1.67391000 0.37255466 1.69107416
v -1.67391000 0.37371384 1.69088353
v -1.77562923 0.37255466 1.77240512
v -1.75276609 0.36323506 1.75117554
v -1.67391000 0.35848335 1.68613503
v -1.67391000 0.38992415 1.68816268
v -1.77562923 0.38992415 1.76845383
v -1.77562923 0.36726928 1.77020416
v -1.76192734 0.36041533 1.75531747
v -1.67391000 0.35474812 1.67346663
v -1.77562923 0.35800489 1.76034323
v -1.67391000 0.39058655 1.68783340
v -1.75538501 0.39544415 1.74859331
v -1.76696592 0.39942773 1.75363645
v -1.77562923 0.39969451 1.75769172
v -1.67391000 0.39984633 1.68322354
v -1.67391000 0.35455953 1.67256544
v -1.76192734 0.35583834 1.74204249
v -1.77562923 0.35821647 1.74238910
v -1.77562923 0.39977731 1.75592402
v -1.67391000 0.40032013 1.67256544
v -1.67391000 0.35924227 1.65818132
v -1.67506505 0.35448590 1.67256544
v -1.70184175 0.35700674 1.59535909
v -1.69627531 0.35853855 1.59535909
v -1.71064446 0.35700208 1.59535909
v -1.69244148 0.35375909 1.67256544
v -1.77562923 0.36024052 1.73722466
v -1.71982559 0.36171713 1.59535909
v -1.71587225 0.35931590 1.59535909
v -1.77562923 0.39937714 1.74164388
v -1.67506505 0.40034773 1.67256544
v -1.69244148 0.40074790 1.67256544
v -1.70904119 0.39981873 1.59535909
v -1.67391000 0.39908731 1.66015696
v -1.69923278 0.39975892 1.59535909
v -1.67391000 0.35991388 1.65688155
v -1.69136608 0.37255466 1.59535909
v -1.77562923 0.36539706 1.73403591
v -1.72115990 0.37255466 1.59535909
v -1.77562923 0.39918855 1.74037879
v -1.71589224 0.39843874 1.59535909
v -1.67391000 0.39125816 1.65407404
v -1.69431360 0.38992415 1.59535909
v -1.69605617 0.39423437 1.59535909
v -1.67391000 0.37255466 1.65256631
v -1.69243154 0.38024581 1.59535909
v -1.67391000 0.38915597 1.65386608
v -1.77562923 0.37255466 1.73294409
v -1.77562923 0.38992415 1.73519704
v -1.72047286 0.38261939 1.59535909
v -1.71763480 0.39698052 1.59535909
v -1.71843141 0.39439997 1.59535909
v -1.71986536 0.38802438 1.59535909
f 1 2 3
f 1 3 4
f 1 4 5
f 1 5 10
f 1 10 17
f 1 17 22
f 1 22 37
f 1 37 46
f 1 46 48
f 1 48 43
f 1 43 35
f 1 35 21
f 1 21 16
f 1 16 12
f 1 12 6
f 1 6 2
f 2 6 3
f 3 7 15
f 3 15 20
f 3 20 31
f 3 31 41
f 3 41 50
f 3 50 49
f 3 49 39
f 3 39 28
f 3 28 19
f 3 19 11
f 3 11 8
f 3 8 4
f 3 6 7
f 4 8 9
f 4 9 5
f 5 9 11
f 5 11 10
f 6 12 7
f 7 13 14
f 7 14 15
f 7 12 16
f 7 16 13
f 8 11 9
f 10 11 18
f 10 18 17
f 11 19 18
f 13 16 14
f 14 16 15
f 15 16 20
f 16 21 20
f 17 18 23
f 17 23 24
f 17 24 25
f 17 25 22
f 18 19 26
f 18 26 27
f 18 27 23
f 19 28 29
f 19 29 30
f 19 30 26
f 20 21 32
f 20 32 33
f 20 33 34
f 20 34 31
f 21 35 36
f 21 36 32
f 22 25 37
f 23 27 24
f 24 26 30
f 24 30 29
f 24 29 40
f 24 40 51
f 24 51 54
f 24 54 53
f 24 53 52
f 24 52 42
f 24 42 34
f 24 34 36
f 24 36 45
f 24 45 44
f 24 44 47
f 24 47 38
f 24 38 25
f 24 27 26
f 25 38 37
f 28 39 29
f 29 39 40
f 31 34 42
f 31 42 41
f 32 36 33
f 33 36 34
f 35 43 44
f 35 44 45
f 35 45 36
f 37 38 46
f 38 47 43
f 38 43 48
f 38 48 46
f 39 49 40
f 40 49 50
f 40 50 51
f 41 42 52
f 41 52 53
f 41 53 54
f 41 54 50
f 43 47 44
f 50 54 51

