# https://github.com/mikedh/trimesh
v -6.49326079 1.41504076 1.02178697
v -6.48456538 1.41504076 1.01952669
v -6.49346668 1.42633020 1.02171800
v -6.50536138 1.42637339 1.02173519
v -6.50585227 1.41471698 1.02176967
v -6.49364087 1.25869385 1.02168340
v -6.46902792 1.41484649 1.00958820
v -6.46163120 1.42458175 1.00392886
v -6.47016816 1.43118704 1.00865654
v -6.48781230 1.43224475 1.01823256
v -6.48494545 1.25869385 1.01937135
v -6.46643034 1.24177048 1.01298726
v -6.50536138 1.43505093 1.01899178
v -6.51469019 1.42464650 1.02121758
v -6.51469019 1.42026456 1.02121758
v -6.51456343 1.26488901 1.02118309
v -6.50518719 1.25893129 1.02166621
v -6.49927929 1.24887225 1.02120028
v -6.49563654 1.24887225 1.02120028
v -6.48906356 1.24177048 1.01925059
v -6.45835278 1.41484649 0.99640599
v -6.45912868 1.43118704 0.99476679
v -6.46407033 1.43617339 1.00047801
v -6.45344283 1.24177048 1.00261754
v -6.44751919 1.24177048 0.99580211
v -6.47564833 1.44446239 1.00660329
v -6.48798650 1.44774345 1.00939847
v -6.55572772 1.24174889 0.99317947
v -6.52138993 1.43123022 1.01592050
v -6.50536138 1.44906019 1.01031294
v -6.52273626 1.44612451 1.00775927
v -6.53619892 1.41504076 1.00831136
v -6.52138993 1.41471698 1.01769776
v -6.53909725 1.24177048 1.00894983
v -6.53499510 1.43241744 1.00715539
v -6.52270457 1.24177048 1.01540289
v -6.52229259 1.24177048 1.01554094
v -6.51087304 1.25329736 1.02066548
v -6.50577315 1.24177048 1.01904357
v -6.50520293 1.24177048 1.01909535
v -6.45246084 1.41504076 0.97752985
v -6.45444056 1.43241744 0.97752985
v -6.46060177 1.44295137 0.98890042
v -6.44330601 1.24177048 0.97754704
v -6.47132434 1.44949191 0.99388691
v -6.47854667 1.45886021 0.98727851
v -6.48798650 1.45644259 0.99942550
v -6.50536138 1.45773775 1.00149594
v -6.59264735 1.24177048 0.92692314
v -6.59980629 1.24177048 0.91182573
v -6.60230881 1.24177048 0.90314678
v -6.60310065 1.24177048 0.89179351
v -6.60276801 1.24177048 0.88775597
v -6.60181771 1.24177048 0.88126843
v -6.59917269 1.24177048 0.87503959
v -6.58903608 1.24177048 0.85707792
v -6.58840248 1.24177048 0.85647404
v -6.57482901 1.24177048 0.84617328
v -6.56747992 1.24177048 0.84584550
v -6.55745413 1.24177048 0.84551762
v -6.55107129 1.24177048 0.84669090
v -6.53708584 1.24177048 0.85324751
v -6.52813711 1.24177048 0.86197814
v -6.45833683 1.24177048 0.93058101
v -6.45071848 1.24177048 0.93981206
v -6.44520682 1.24177048 0.95459899
v -6.44430395 1.24177048 0.96015476
v -6.44355954 1.24177048 0.97038655
v -6.53982593 1.24177048 1.00850120
v -6.55042194 1.24177048 1.00106460
v -6.54487839 1.41504076 0.99592287
v -6.59937858 1.36293233 0.91394796
v -6.53274611 1.44269235 1.00492960
v -6.52344899 1.45521219 0.99545704
v -6.54391214 1.43174828 0.99388691
v -6.54924981 1.42550995 0.98739926
v -6.45377527 1.41504076 0.96015476
v -6.45585027 1.43241744 0.96015476
v -6.46026913 1.44336151 0.96015476
v -6.45947728 1.44444080 0.97752985
v -6.46905941 1.45313994 0.97752985
v -6.47775482 1.45922717 0.97752985
v -6.48798650 1.46125624 0.97752985
v -6.48798650 1.45972364 0.99072936
v -6.50536138 1.46019854 0.99281710
v -6.51814300 1.45946462 0.99003921
v -6.59926776 1.25869385 0.91368915
v -6.60313234 1.25869385 0.90502750
v -6.60493787 1.25869385 0.89068921
v -6.60240388 1.24518105 0.87892189
v -6.60270463 1.25869385 0.87835249
v -6.60278396 1.36293233 0.87816266
v -6.59716128 1.36293233 0.86946652
v -6.58846586 1.36293233 0.86127070
v -6.57481306 1.36293233 0.85609448
v -6.55743839 1.36293233 0.85654312
v -6.54584443 1.37685525 0.86237500
v -6.46578099 1.41504076 0.93808669
v -6.45895449 1.41504076 0.94673104
v -6.60270463 1.37640194 0.90395779
v -6.60321147 1.36293233 0.90525182
v -6.53573951 1.44621086 0.99490484
v -6.52999028 1.45801836 0.97752985
v -6.54725414 1.43660512 0.97752985
v -6.46004750 1.43241744 0.94847371
v -6.46163120 1.44146195 0.95101009
v -6.47957630 1.45842850 0.95176921
v -6.47156192 1.45329104 0.95860193
v -6.47799240 1.45911925 0.96334680
v -6.50536138 1.46142894 0.96015476
v -6.50536138 1.46227079 0.97752985
v -6.48641854 1.46013378 0.95860193
v -6.52135824 1.46024171 0.97752985
v -6.60509633 1.36293233 0.89070650
v -6.60241962 1.37575437 0.87888730
v -6.58639107 1.38030899 0.86266839
v -6.57481306 1.38030899 0.85897593
v -6.55628199 1.38171209 0.86032174
v -6.54972496 1.38844689 0.86503213
v -6.47872107 1.44161305 0.93373856
v -6.47615518 1.43241744 0.93206487
v -6.46747571 1.43241744 0.93979476
v -6.59979034 1.38700063 0.89070650
v -6.60340161 1.37832310 0.89070650
v -6.53855872 1.44934081 0.97752985
v -6.52804204 1.45696064 0.96015476
v -6.51939426 1.45987474 0.96015476
v -6.47198964 1.44506679 0.94424645
v -6.49115431 1.45916241 0.94995757
v -6.48641854 1.45355007 0.94359079
v -6.50536138 1.45935669 0.94959520
v -6.51552968 1.45896815 0.95047518
v -6.59570414 1.38104292 0.87319347
v -6.58365098 1.38909447 0.86453181
v -6.57482901 1.38980681 0.86349649
v -6.56130297 1.39036805 0.86341032
v -6.48798650 1.44366371 0.93220292
v -6.59109514 1.39414558 0.89070650
v -6.58727799 1.39159843 0.87333141
v -6.58870344 1.38980681 0.87329693
v -6.50536138 1.45370118 0.94091636
v -6.57482901 1.39010901 0.86365183
v -6.58471230 1.38980681 0.86706819
v -6.50536138 1.44502363 0.93125397
f 1 2 3
f 1 3 4
f 1 4 5
f 1 5 6
f 1 6 2
f 2 7 8
f 2 8 9
f 2 9 10
f 2 10 3
f 2 6 11
f 2 11 12
f 2 12 7
f 3 10 13
f 3 13 4
f 4 13 14
f 4 14 5
f 5 14 15
f 5 15 16
f 5 16 17
f 5 17 6
f 6 17 18
f 6 18 19
f 6 19 20
f 6 20 11
f 7 12 8
f 8 21 22
f 8 22 23
f 8 23 9
f 8 12 24
f 8 24 25
f 8 25 21
f 9 23 26
f 9 26 10
f 10 26 27
f 10 27 13
f 11 20 12
f 12 20 28
f 12 28 24
f 13 29 14
f 13 27 30
f 13 30 31
f 13 31 29
f 14 32 33
f 14 33 34
f 14 34 15
f 14 29 35
f 14 35 32
f 15 34 16
f 16 34 36
f 16 36 37
f 16 37 38
f 16 38 17
f 17 38 18
f 18 38 39
f 18 39 40
f 18 40 20
f 18 20 19
f 20 40 28
f 21 41 22
f 21 25 41
f 22 42 43
f 22 43 23
f 22 41 42
f 23 43 26
f 24 28 25
f 25 28 44
f 25 44 41
f 26 43 45
f 26 45 46
f 26 46 47
f 26 47 27
f 27 47 48
f 27 48 30
f 28 49 50
f 28 50 51
f 28 51 52
f 28 52 53
f 28 53 54
f 28 54 55
f 28 55 56
f 28 56 57
f 28 57 58
f 28 58 59
f 28 59 60
f 28 60 61
f 28 61 62
f 28 62 63
f 28 63 64
f 28 64 65
f 28 65 66
f 28 66 67
f 28 67 68
f 28 68 44
f 28 40 39
f 28 39 37
f 28 37 36
f 28 36 34
f 28 34 69
f 28 69 70
f 28 70 71
f 28 71 72
f 28 72 49
f 29 31 73
f 29 73 35
f 30 48 31
f 31 48 74
f 31 74 73
f 32 35 71
f 32 71 70
f 32 70 69
f 32 69 33
f 33 69 34
f 35 73 75
f 35 75 76
f 35 76 71
f 37 39 38
f 41 77 42
f 41 44 68
f 41 68 67
f 41 67 77
f 42 78 79
f 42 79 80
f 42 80 43
f 42 77 78
f 43 80 81
f 43 81 46
f 43 46 45
f 46 82 83
f 46 83 84
f 46 84 47
f 46 81 82
f 47 84 48
f 48 84 85
f 48 85 86
f 48 86 74
f 49 72 87
f 49 87 50
f 50 87 88
f 50 88 51
f 51 88 89
f 51 89 52
f 52 89 53
f 53 89 90
f 53 90 54
f 54 90 55
f 55 90 56
f 56 90 91
f 56 91 92
f 56 92 93
f 56 93 57
f 57 93 94
f 57 94 58
f 58 94 95
f 58 95 59
f 59 95 60
f 60 95 96
f 60 96 61
f 61 96 97
f 61 97 62
f 62 97 98
f 62 98 63
f 63 98 64
f 64 98 65
f 65 98 99
f 65 99 77
f 65 77 66
f 66 77 67
f 71 76 72
f 72 76 100
f 72 100 101
f 72 101 88
f 72 88 87
f 73 74 102
f 73 102 75
f 74 86 103
f 74 103 102
f 75 102 104
f 75 104 100
f 75 100 76
f 77 99 105
f 77 105 78
f 78 105 106
f 78 106 79
f 79 106 107
f 79 107 108
f 79 108 81
f 79 81 80
f 81 108 109
f 81 109 82
f 82 109 83
f 83 110 111
f 83 111 84
f 83 109 112
f 83 112 110
f 84 111 85
f 85 111 86
f 86 111 113
f 86 113 103
f 88 101 114
f 88 114 89
f 89 91 90
f 89 114 91
f 91 114 92
f 92 114 115
f 92 115 93
f 93 115 116
f 93 116 94
f 94 116 95
f 95 116 117
f 95 117 96
f 96 117 118
f 96 118 97
f 97 118 119
f 97 119 120
f 97 120 121
f 97 121 98
f 98 121 122
f 98 122 105
f 98 105 99
f 100 123 124
f 100 124 114
f 100 114 101
f 100 104 123
f 102 103 125
f 102 125 104
f 103 126 123
f 103 123 125
f 103 113 127
f 103 127 126
f 104 125 123
f 105 122 106
f 106 122 120
f 106 120 128
f 106 128 107
f 107 129 112
f 107 112 109
f 107 109 108
f 107 128 120
f 107 120 130
f 107 130 129
f 110 112 129
f 110 129 131
f 110 131 132
f 110 132 127
f 110 127 111
f 111 127 113
f 114 124 115
f 115 124 123
f 115 123 133
f 115 133 116
f 116 133 134
f 116 134 117
f 117 134 135
f 117 135 136
f 117 136 118
f 118 136 119
f 119 136 137
f 119 137 120
f 120 137 130
f 120 122 121
f 123 138 139
f 123 139 140
f 123 140 133
f 123 126 138
f 126 127 132
f 126 132 139
f 126 139 138
f 129 130 141
f 129 141 131
f 130 137 141
f 131 141 132
f 132 141 142
f 132 142 134
f 132 134 139
f 133 140 143
f 133 143 134
f 134 143 139
f 134 142 135
f 135 142 136
f 136 141 144
f 136 144 137
f 136 142 141
f 137 144 141
f 139 143 140

