# https://github.com/mikedh/trimesh
v -5.12289934 0.50135025 0.89709856
v -5.06559775 0.50135025 0.89709856
v -5.12289934 0.50135025 0.94538844
v -5.12289934 0.63189985 0.89709856
v -5.06628811 0.50135025 0.90087915
v -5.04820008 0.54630652 0.89709856
v -5.01826935 0.55350109 0.94707332
v -5.01749407 0.55275989 0.95878948
v -5.12289934 0.50711357 0.94328072
v -5.10862432 0.50135025 0.94159573
v -5.04755219 0.54216615 0.95878948
v -5.06155089 0.53839638 0.95878948
v -5.08045686 0.54404469 0.95878948
v -5.09268193 0.55201873 0.95878948
v -5.09687730 0.56282970 0.95878948
v -5.09710038 0.56368591 0.95878948
v -5.09737648 0.57967236 0.95878948
v -5.09736591 0.58105245 0.95878948
v -5.09293670 0.59288575 0.95878948
v -5.09207650 0.59312855 0.95878948
v -5.08057368 0.59614438 0.95878948
v -5.07919297 0.59623386 0.95878948
v -5.06320791 0.59624660 0.95878948
v -5.04583158 0.59624660 0.95878948
v -5.02838089 0.59546712 0.95878948
v -5.02739310 0.59522432 0.95878948
v -5.01727099 0.59228513 0.95878948
v -5.01818443 0.59135228 0.94694055
v -5.09644171 0.61393269 0.89709856
v -5.12289934 0.55604410 0.92525960
v -5.06815743 0.50135025 0.90833760
v -5.04894346 0.55687473 0.89709856
v -5.02107344 0.58105245 0.93554440
v -5.02109457 0.56368591 0.93564714
v -5.01723910 0.56368591 0.94433158
v -5.01463695 0.56368591 0.95878948
v -5.09090810 0.50135025 0.93674626
v -5.08679765 0.50135025 0.93528477
v -5.07781205 0.50135025 0.92725858
v -5.07287331 0.50135025 0.92086301
v -5.07137557 0.50135025 0.91830840
v -5.07015414 0.50135025 0.91532504
v -5.09869360 0.50135025 0.93895061
v -5.01456260 0.58212589 0.95878948
v -5.01440331 0.58105245 0.95878948
v -5.01717540 0.58105245 0.94422884
v -5.03251246 0.59144176 0.93226516
v -5.08993087 0.60767097 0.89709856
v -5.04945341 0.56396703 0.89709856
v -5.05291596 0.56921916 0.89709856
v -5.05483831 0.57206887 0.89709856
f 1 2 5
f 1 5 31
f 1 31 42
f 1 42 41
f 1 41 40
f 1 40 39
f 1 39 38
f 1 38 37
f 1 37 43
f 1 43 10
f 1 10 3
f 1 3 9
f 1 9 30
f 1 30 4
f 1 4 29
f 1 29 48
f 1 48 51
f 1 51 50
f 1 50 49
f 1 49 32
f 1 32 6
f 1 6 2
f 2 6 7
f 2 7 8
f 2 8 5
f 3 10 11
f 3 11 12
f 3 12 13
f 3 13 14
f 3 14 15
f 3 15 16
f 3 16 17
f 3 17 18
f 3 18 9
f 4 18 19
f 4 19 20
f 4 20 21
f 4 21 22
f 4 22 23
f 4 23 24
f 4 24 25
f 4 25 26
f 4 26 27
f 4 27 28
f 4 28 29
f 4 30 18
f 5 8 31
f 6 32 33
f 6 33 34
f 6 34 7
f 7 34 35
f 7 35 36
f 7 36 8
f 8 36 45
f 8 45 44
f 8 44 27
f 8 27 26
f 8 26 25
f 8 25 24
f 8 24 23
f 8 23 22
f 8 22 21
f 8 21 20
f 8 20 19
f 8 19 18
f 8 18 17
f 8 17 16
f 8 16 15
f 8 15 14
f 8 14 13
f 8 13 12
f 8 12 11
f 8 11 37
f 8 37 38
f 8 38 39
f 8 39 40
f 8 40 41
f 8 41 42
f 8 42 31
f 9 18 30
f 10 43 11
f 11 43 37
f 27 44 28
f 28 44 45
f 28 45 46
f 28 46 33
f 28 33 47
f 28 47 29
f 29 47 48
f 32 49 33
f 33 50 51
f 33 51 47
f 33 46 34
f 33 49 50
f 34 46 35
f 35 46 45
f 35 45 36
f 47 51 48

