# https://github.com/mikedh/trimesh
v -3.61047567 1.88359859 4.39315479
v -3.60614127 1.88359859 4.38306852
v -3.61457908 1.88359859 4.39315479
v -3.61047567 0.54634262 4.39315479
v -3.58603938 1.88359859 4.29550811
v -3.60614127 0.54634262 4.38306852
v -3.61940680 1.88359859 4.38306852
v -3.61457908 0.52897219 4.39315479
v -3.61046392 0.52897219 4.39312041
v -3.58603938 1.88359859 4.28670416
v -3.58603938 0.52936998 4.29550811
v -3.60613737 0.52897219 4.38302254
v -3.62203799 1.88359859 4.36568908
v -3.61940680 0.52897219 4.38306852
v -3.58603938 1.88320080 4.27736188
v -3.58632522 1.88359859 4.27736188
v -3.58632522 0.52897219 4.29553110
v -3.58603938 0.52897219 4.27736188
v -3.62603174 1.88359859 4.30131264
v -3.62203799 0.52897219 4.36568908
v -3.60311072 1.88359859 4.27651473
v -3.60374111 0.52897219 4.27649174
v -3.60369805 0.54634262 4.27649174
v -3.62603174 1.88359859 4.27627426
v -3.62603174 0.52910475 4.30131264
v -3.62603174 0.52897219 4.28234205
v -3.60369805 1.88359859 4.27649174
v -3.62111394 0.52897219 4.27620549
v -3.62107086 0.54634262 4.27619410
v -3.62107086 1.88359859 4.27619410
v -3.62603174 0.52897219 4.27627426
f 1 2 5
f 1 5 10
f 1 10 16
f 1 16 21
f 1 21 27
f 1 27 30
f 1 30 24
f 1 24 19
f 1 19 13
f 1 13 7
f 1 7 3
f 1 3 8
f 1 8 4
f 1 4 6
f 1 6 2
f 2 6 11
f 2 11 5
f 3 7 14
f 3 14 8
f 4 8 9
f 4 9 6
f 5 11 18
f 5 18 15
f 5 15 10
f 6 9 12
f 6 12 11
f 7 13 20
f 7 20 14
f 8 14 20
f 8 20 26
f 8 26 31
f 8 31 28
f 8 28 22
f 8 22 18
f 8 18 17
f 8 17 12
f 8 12 9
f 10 15 16
f 11 12 17
f 11 17 18
f 13 19 25
f 13 25 20
f 15 21 16
f 15 18 21
f 18 22 23
f 18 23 21
f 19 24 31
f 19 31 26
f 19 26 25
f 20 25 26
f 21 23 27
f 22 28 29
f 22 29 23
f 23 29 30
f 23 30 27
f 24 30 29
f 24 29 31
f 28 31 29

