# https://github.com/mikedh/trimesh
v -3.52338169 0.03147321 1.74210919
v -3.53012728 0.03158071 1.72479639
v -3.53016822 0.03168832 1.70739614
v -3.52359710 0.03168832 1.70739614
v -3.52347427 0.03158071 1.72479639
v -3.52010770 0.04249602 1.74210919
v -3.52004005 0.04249602 1.75950939
v -3.52334966 0.03147321 1.75950939
v -3.53008811 0.03147321 1.75950939
v -3.53559638 0.04249602 1.65432109
v -3.53032133 0.03206467 1.65432109
v -3.52397808 0.03206467 1.65432109
v -3.51835232 0.05986375 1.74210919
v -3.51828112 0.05986375 1.75950939
v -3.52030533 0.04249602 1.72479639
v -3.52004005 0.04244227 2.18078730
v -3.52334966 0.03147321 2.54129558
v -3.53008811 0.03147321 2.54129558
v -3.53011838 0.03152696 2.54759111
v -3.53579579 0.05900335 1.65432109
v -3.53196989 0.03545213 2.54759111
v -3.53519049 0.04244227 2.54759111
v -3.53548246 0.05986375 2.54759111
v -3.52385704 0.03254862 1.65432109
v -3.52056703 0.04249602 1.70739614
v -3.51856240 0.05986375 1.72479639
v -3.51774345 0.07723138 1.74210919
v -3.51766870 0.07723138 1.75950939
v -3.51827934 0.05986375 2.18078730
v -3.51871728 0.05550828 2.18078730
v -3.52004005 0.04244227 2.54129558
v -3.52341374 0.03152696 2.54759111
v -3.53580467 0.05986375 1.65432109
v -3.53532934 0.56492376 2.54759111
v -3.53585454 0.58073208 1.65432109
v -3.52136994 0.04249602 1.65432109
v -3.51911608 0.05986375 1.68999594
v -3.51907336 0.07723138 1.65432109
v -3.51822947 0.07723138 1.70739614
v -3.51795353 0.07723138 1.72479639
v -3.51774345 0.56357955 1.74210919
v -3.51766870 0.56357955 1.75950939
v -3.51766870 0.07723138 2.54129558
v -3.51827934 0.05986375 2.54129558
v -3.52017714 0.04244227 2.54759111
v -3.52130052 0.03857085 2.54759111
v -3.53543793 0.58073208 2.18069985
v -3.51786097 0.56492376 2.54759111
v -3.51966618 0.58073208 1.65432109
v -3.51968400 0.05986375 1.65432109
v -3.51965373 0.06072395 1.65432109
v -3.51907336 0.56357955 1.65432109
v -3.51822947 0.56357955 1.70739614
v -3.51795353 0.56357955 1.72479639
v -3.51855707 0.58073208 1.72479639
v -3.51835054 0.58073208 1.74210919
v -3.51827934 0.58073208 1.75950939
v -3.51771497 0.56492376 2.18078730
v -3.51766870 0.56357955 2.54129558
v -3.51781646 0.07723138 2.54759111
v -3.51803720 0.07094030 2.54759111
v -3.51842710 0.05986375 2.54759111
v -3.51905376 0.05357267 2.54759111
v -3.51827934 0.58073208 2.18069985
v -3.51784315 0.56443985 2.54759111
v -3.51771497 0.56492376 2.54129558
v -3.51937779 0.58073208 1.67259568
v -3.51910363 0.58073208 1.68999594
v -3.51781646 0.56357955 2.54759111
f 1 2 3
f 1 3 4
f 1 4 5
f 1 5 6
f 1 6 7
f 1 7 8
f 1 8 17
f 1 17 18
f 1 18 9
f 1 9 2
f 2 9 10
f 2 10 11
f 2 11 3
f 3 11 12
f 3 12 4
f 4 12 6
f 4 6 5
f 6 13 14
f 6 14 7
f 6 12 15
f 6 15 13
f 7 14 16
f 7 16 8
f 8 16 31
f 8 31 17
f 9 18 19
f 9 19 10
f 10 20 33
f 10 33 35
f 10 35 49
f 10 49 52
f 10 52 38
f 10 38 51
f 10 51 50
f 10 50 36
f 10 36 24
f 10 24 12
f 10 12 11
f 10 19 21
f 10 21 22
f 10 22 23
f 10 23 20
f 12 24 25
f 12 25 15
f 13 15 26
f 13 26 40
f 13 40 27
f 13 27 28
f 13 28 14
f 14 28 29
f 14 29 30
f 14 30 16
f 15 25 26
f 16 30 31
f 17 31 32
f 17 32 19
f 17 19 18
f 19 32 46
f 19 46 45
f 19 45 63
f 19 63 62
f 19 62 61
f 19 61 60
f 19 60 69
f 19 69 65
f 19 65 48
f 19 48 34
f 19 34 23
f 19 23 22
f 19 22 21
f 20 23 33
f 23 34 35
f 23 35 33
f 24 36 25
f 25 36 26
f 26 36 37
f 26 37 38
f 26 38 39
f 26 39 40
f 27 40 54
f 27 54 41
f 27 41 42
f 27 42 28
f 28 42 59
f 28 59 43
f 28 43 44
f 28 44 29
f 29 44 30
f 30 44 31
f 31 44 45
f 31 45 46
f 31 46 32
f 34 47 35
f 34 48 64
f 34 64 47
f 35 47 64
f 35 64 57
f 35 57 56
f 35 56 55
f 35 55 68
f 35 68 67
f 35 67 49
f 36 50 37
f 37 50 51
f 37 51 38
f 38 52 53
f 38 53 39
f 39 53 54
f 39 54 40
f 41 54 55
f 41 55 56
f 41 56 42
f 42 57 58
f 42 58 66
f 42 66 59
f 42 56 57
f 43 59 69
f 43 69 60
f 43 60 61
f 43 61 44
f 44 61 62
f 44 62 63
f 44 63 45
f 48 65 66
f 48 66 64
f 49 67 54
f 49 54 53
f 49 53 52
f 54 67 68
f 54 68 55
f 57 64 66
f 57 66 58
f 59 66 65
f 59 65 69

