# https://github.com/mikedh/trimesh
v -6.76176521 0.09453553 4.15897284
v -6.76183190 0.02507018 4.27880515
v -6.76359911 0.09453553 4.27880515
v -6.76104813 0.10638032 4.15897284
v -6.75386247 0.00768588 4.15897284
v -6.76069809 0.00725516 4.27729167
v -6.76129834 0.00768588 4.29100619
v -6.76194872 0.11451608 4.27912371
v -6.76134847 0.02507018 4.29103270
v -6.76134847 0.11451608 4.29103270
v -6.76194872 0.11451608 4.28033188
v -6.74817703 0.11451608 4.22723975
v -6.69672596 0.11451608 4.15897284
v -6.75993130 -0.00352479 4.28207113
v -6.74672652 -0.00245995 4.15897284
v -6.75993130 -0.00352479 4.28981127
v -6.74857720 0.00768588 4.29453771
v -6.74857720 0.02507018 4.29459074
v -6.75944787 0.11451608 4.29156378
v -6.59327329 0.11451608 4.15897284
v -6.75004449 -0.00527160 4.27729167
v -6.73884056 -0.00245995 4.15897284
v -6.73122117 -0.00771228 4.27880515
v -6.74857720 -0.00478102 4.29096622
v -6.59327329 0.00768588 4.29453771
v -6.70096068 0.02505827 4.29460399
v -6.73122117 0.02507018 4.29460399
v -6.74857720 0.11451608 4.29459074
v -6.59327329 0.05055441 4.15897284
v -6.59327329 0.11451608 4.29460399
v -6.59327329 -0.00372809 4.26786551
v -6.59327329 -0.00749698 4.27880515
v -6.59327329 -0.00476900 4.29096622
v -6.70096068 -0.00478102 4.29096622
v -6.59327329 0.02505827 4.29460399
v -6.73122117 0.11451608 4.29460399
f 1 2 3
f 1 3 4
f 1 4 13
f 1 13 20
f 1 20 29
f 1 29 22
f 1 22 15
f 1 15 5
f 1 5 6
f 1 6 7
f 1 7 2
f 2 7 3
f 3 8 4
f 3 7 9
f 3 9 10
f 3 10 11
f 3 11 8
f 4 8 12
f 4 12 13
f 5 14 6
f 5 15 14
f 6 14 7
f 7 14 16
f 7 16 17
f 7 17 18
f 7 18 9
f 8 11 10
f 8 10 19
f 8 19 28
f 8 28 36
f 8 36 30
f 8 30 20
f 8 20 13
f 8 13 12
f 9 18 19
f 9 19 10
f 14 15 21
f 14 21 16
f 15 22 23
f 15 23 21
f 16 21 23
f 16 23 24
f 16 24 17
f 17 24 34
f 17 34 25
f 17 25 35
f 17 35 26
f 17 26 27
f 17 27 18
f 18 27 36
f 18 36 28
f 18 28 19
f 20 30 35
f 20 35 25
f 20 25 33
f 20 33 32
f 20 32 31
f 20 31 29
f 22 29 31
f 22 31 32
f 22 32 23
f 23 32 33
f 23 33 34
f 23 34 24
f 25 34 33
f 26 35 30
f 26 30 36
f 26 36 27

