# https://github.com/mikedh/trimesh
v -1.74588076 0.35492822 1.44581501
v -1.75386138 0.36253704 1.44581501
v -1.73022980 0.35834944 1.44581501
v -1.72718327 0.35567377 1.48142984
v -1.70981595 0.35563193 1.56829301
v -1.70981595 0.35554836 1.58566861
v -1.72253419 0.35889989 1.56829301
v -1.72079246 0.36041181 1.58566861
v -1.75606553 0.38100856 1.47479871
v -1.75606553 0.37301655 1.44581501
v -1.71982341 0.36171485 1.59534447
v -1.72945080 0.35889284 1.44581501
v -1.71639038 0.36063478 1.48142984
v -1.71464865 0.35901826 1.49880539
v -1.71290681 0.35817525 1.51618095
v -1.69628049 0.35853752 1.59534447
v -1.70184165 0.35701161 1.59534447
v -1.71063928 0.35700457 1.59534447
v -1.71586469 0.35931787 1.59534447
v -1.75606553 0.38900756 1.48268871
v -1.75606553 0.42611096 1.44581501
v -1.72115348 0.37255673 1.59534447
v -1.71737216 0.37552497 1.44581501
v -1.71767623 0.36240458 1.46863599
v -1.70028353 0.36237673 1.55541139
v -1.69899137 0.36059999 1.56829301
v -1.69724964 0.35900438 1.58566861
v -1.69135914 0.37255673 1.59534447
v -1.75606553 0.40570234 1.48192751
v -1.72378835 0.42611096 1.44581501
v -1.75606553 0.42611096 1.47031942
v -1.72047576 0.38262509 1.59534447
v -1.71370487 0.38337763 1.44581501
v -1.71101936 0.39055444 1.44581501
v -1.69242957 0.38024913 1.59534447
v -1.75606553 0.42583227 1.47640891
v -1.72154620 0.42611096 1.44593214
v -1.72264190 0.42524698 1.44581501
v -1.75272125 0.42611096 1.47345196
v -1.71986132 0.38803209 1.59534447
v -1.71322351 0.39824684 1.44581501
v -1.69431070 0.38993430 1.59534447
v -1.71842354 0.39439365 1.59534447
v -1.71763822 0.39697870 1.59534447
v -1.71793586 0.39811449 1.59357327
v -1.71589638 0.39843496 1.59534447
v -1.70903684 0.39982158 1.59534447
v -1.69922573 0.39975887 1.59534447
v -1.72276224 0.42611096 1.44749844
v -1.69605886 0.39423344 1.59534447
v -1.74225148 0.42611096 1.46444948
f 1 2 10
f 1 10 21
f 1 21 30
f 1 30 38
f 1 38 41
f 1 41 34
f 1 34 33
f 1 33 23
f 1 23 12
f 1 12 3
f 1 3 4
f 1 4 5
f 1 5 6
f 1 6 7
f 1 7 8
f 1 8 2
f 2 9 10
f 2 8 11
f 2 11 9
f 3 12 13
f 3 13 14
f 3 14 4
f 4 14 15
f 4 15 5
f 5 15 16
f 5 16 17
f 5 17 6
f 6 17 18
f 6 18 7
f 7 18 19
f 7 19 8
f 8 19 11
f 9 11 20
f 9 20 29
f 9 29 36
f 9 36 31
f 9 31 21
f 9 21 10
f 11 19 18
f 11 18 17
f 11 17 16
f 11 16 28
f 11 28 35
f 11 35 42
f 11 42 50
f 11 50 48
f 11 48 47
f 11 47 46
f 11 46 44
f 11 44 43
f 11 43 40
f 11 40 32
f 11 32 22
f 11 22 20
f 12 23 24
f 12 24 13
f 13 25 26
f 13 26 14
f 13 24 25
f 14 26 27
f 14 27 15
f 15 27 16
f 16 27 28
f 20 22 29
f 21 31 39
f 21 39 51
f 21 51 49
f 21 49 37
f 21 37 30
f 22 32 29
f 23 33 24
f 24 33 25
f 25 28 26
f 25 33 34
f 25 34 28
f 26 28 27
f 28 34 35
f 29 32 36
f 30 37 38
f 31 36 39
f 32 40 36
f 34 41 42
f 34 42 35
f 36 40 43
f 36 43 44
f 36 44 45
f 36 45 46
f 36 46 47
f 36 47 48
f 36 48 39
f 37 41 38
f 37 49 48
f 37 48 50
f 37 50 42
f 37 42 41
f 39 48 51
f 44 46 45
f 48 49 51

