# https://github.com/mikedh/trimesh
v -2.38795642 0.35206302 1.44582914
v -2.40113376 0.35590607 1.44582914
v -2.37477276 0.35826473 1.44582914
v -2.35708553 0.35874972 1.53354169
v -2.35534328 0.35804435 1.55091730
v -2.35199703 0.35657467 1.59535907
v -2.35890338 0.35669232 1.59535907
v -2.40458057 0.38521708 1.47984852
v -2.40458057 0.36537023 1.44582914
v -2.36574677 0.35878648 1.59535907
v -2.37449604 0.35869825 1.44582914
v -2.36026193 0.36198277 1.50190837
v -2.35882789 0.36013115 1.51618069
v -2.34219732 0.36110103 1.59535907
v -2.34528569 0.35935225 1.59535907
v -2.37011819 0.37255652 1.59535907
v -2.40458057 0.38871473 1.48167829
v -2.40458057 0.42712257 1.44582914
v -2.36652039 0.37357051 1.44582914
v -2.34287038 0.36196081 1.58868403
v -2.34032923 0.37287985 1.59535907
v -2.36881619 0.38224118 1.59535907
v -2.40458057 0.42712257 1.47468121
v -2.40458057 0.40543137 1.48015590
v -2.37018748 0.42712257 1.44582914
v -2.36629400 0.37412168 1.44582914
v -2.34404034 0.36809634 1.57710514
v -2.36362081 0.38992716 1.44582914
v -2.34090795 0.38008084 1.59535907
v -2.36326228 0.39334393 1.44582914
v -2.36735698 0.38992716 1.59535907
v -2.36535053 0.39528378 1.59535907
v -2.36298545 0.39967053 1.59535907
v -2.35265114 0.39990567 1.59535907
v -2.34377615 0.39880350 1.59535907
v -2.34388934 0.39871531 1.59369035
v -2.34330441 0.39715756 1.59535907
v -2.34185773 0.38911884 1.59535907
f 1 2 9
f 1 9 18
f 1 18 25
f 1 25 30
f 1 30 28
f 1 28 26
f 1 26 19
f 1 19 11
f 1 11 3
f 1 3 4
f 1 4 5
f 1 5 6
f 1 6 7
f 1 7 2
f 2 8 9
f 2 7 10
f 2 10 8
f 3 11 12
f 3 12 13
f 3 13 14
f 3 14 4
f 4 14 15
f 4 15 5
f 5 15 6
f 6 15 14
f 6 14 21
f 6 21 29
f 6 29 38
f 6 38 37
f 6 37 35
f 6 35 34
f 6 34 33
f 6 33 32
f 6 32 31
f 6 31 22
f 6 22 16
f 6 16 10
f 6 10 7
f 8 10 16
f 8 16 17
f 8 17 24
f 8 24 23
f 8 23 18
f 8 18 9
f 11 19 12
f 12 20 13
f 12 19 20
f 13 20 14
f 14 20 21
f 16 22 23
f 16 23 24
f 16 24 17
f 18 23 25
f 19 26 20
f 20 27 21
f 20 26 28
f 20 28 27
f 21 27 28
f 21 28 30
f 21 30 29
f 22 31 23
f 23 31 32
f 23 32 33
f 23 33 34
f 23 34 35
f 23 35 25
f 25 35 36
f 25 36 37
f 25 37 30
f 29 30 38
f 30 37 38
f 35 37 36

