# https://github.com/mikedh/trimesh
v -6.63651217 2.45672485 3.65298589
v -6.63632803 2.41673393 3.70252807
v -6.63651217 2.41693236 3.70248012
v -6.63651217 2.47956323 3.65298589
v -6.38373390 2.46065923 3.65298589
v -6.40110526 2.41673393 3.70550231
v -6.63651217 2.41673393 3.75451683
v -6.63651217 2.48121114 3.72280791
v -6.37989127 2.50487782 3.65332164
v -6.38002280 2.50463621 3.65298589
v -6.37210038 2.46355819 3.65298589
v -6.38373390 2.41673393 3.70591004
v -6.63651217 2.41673393 3.75834258
v -6.63651217 2.48117665 3.73763098
v -6.37989127 2.50487782 3.77549221
v -6.37138973 2.50487782 3.65298589
v -6.36838928 2.47493860 3.65298589
v -6.36767862 2.41673393 3.72280791
v -6.37007385 2.41673393 3.71462886
v -6.37138973 2.41673393 3.71022751
v -6.63651217 2.45650053 3.77549221
v -6.38373390 2.41673393 3.75438500
v -6.38373390 2.46030546 3.77549221
v -6.63651217 2.48115936 3.74018548
v -6.37138973 2.50487782 3.77549221
v -6.63651217 2.48051229 3.75499654
v -6.63651217 2.47975306 3.77237411
v -6.63651217 2.47956323 3.77549221
v -6.36767862 2.49231544 3.65298589
v -6.36762601 2.47493860 3.72280791
v -6.36767862 2.49231544 3.77549221
v -6.36841558 2.41673393 3.74018548
v -6.37212669 2.41673393 3.75153068
v -6.37210038 2.46338565 3.77549221
v -6.38333911 2.46040032 3.77549221
v -6.36838928 2.47493860 3.77549221
f 1 2 3
f 1 3 7
f 1 7 13
f 1 13 21
f 1 21 28
f 1 28 27
f 1 27 26
f 1 26 24
f 1 24 14
f 1 14 8
f 1 8 4
f 1 4 10
f 1 10 16
f 1 16 29
f 1 29 17
f 1 17 11
f 1 11 5
f 1 5 6
f 1 6 2
f 2 7 3
f 2 6 12
f 2 12 20
f 2 20 19
f 2 19 18
f 2 18 32
f 2 32 33
f 2 33 22
f 2 22 13
f 2 13 7
f 4 8 9
f 4 9 10
f 5 11 12
f 5 12 6
f 8 14 15
f 8 15 9
f 9 15 25
f 9 25 16
f 9 16 10
f 11 17 18
f 11 18 19
f 11 19 20
f 11 20 12
f 13 22 23
f 13 23 21
f 14 24 15
f 15 24 26
f 15 26 27
f 15 27 28
f 15 28 21
f 15 21 23
f 15 23 35
f 15 35 34
f 15 34 36
f 15 36 31
f 15 31 25
f 16 25 31
f 16 31 29
f 17 29 18
f 18 29 30
f 18 30 31
f 18 31 32
f 22 33 34
f 22 34 35
f 22 35 23
f 29 31 30
f 31 36 32
f 32 36 33
f 33 36 34

