# https://github.com/mikedh/trimesh
v -1.29893392 0.32297747 2.43727423
v -1.29802650 0.32297747 2.43878595
v -1.29387732 0.32297747 2.42225178
v -1.29306683 0.28565394 2.41968327
v -1.29307181 0.26830091 2.41968327
v -1.29303784 0.25091568 2.41968327
v -1.29296990 0.23353034 2.41968327
v -1.29286799 0.21614499 2.41968327
v -1.29273212 0.19879207 2.41968327
v -1.29256227 0.18140673 2.41968327
v -1.29237296 0.16402139 2.41968327
v -1.29217888 0.14670067 2.41968327
v -1.29197009 0.12931543 2.41968327
v -1.29171781 0.11193009 2.41968327
v -1.29143156 0.09457706 2.41968327
v -1.29084912 0.05980648 2.41968327
v -1.29052890 0.04245345 2.41968327
v -1.29016974 0.02506821 2.41968327
v -1.28974762 0.00768287 2.41968327
v -1.28841310 0.00768287 2.43503744
v -1.28876252 0.02506821 2.43563456
v -1.29184395 0.12931543 2.43705623
v -1.29091706 0.32297747 2.45059540
v -1.29258174 0.32297747 2.41944160
v -1.29285826 0.32042452 2.41968327
v -1.29301837 0.30303929 2.41968327
v -1.28585569 0.18140673 2.40975992
v -1.28586046 0.16402139 2.40971728
v -1.28586046 0.14670067 2.40967938
v -1.28585093 0.12931543 2.40964618
v -1.28581199 0.11193009 2.40963671
v -1.28575855 0.09457706 2.40964618
v -1.28570035 0.07719182 2.40965095
v -1.28553050 0.02506821 2.40968411
v -1.28545283 0.00768287 2.40971254
v -1.28497727 -0.00194689 2.41015800
v -1.28681179 -0.00375657 2.41968327
v -1.28685053 -0.00369194 2.43260636
v -1.27675182 0.00768287 2.44372866
v -1.28403111 0.06875770 2.44572376
v -1.28441927 0.08035859 2.44597967
v -1.28527346 0.11193009 2.44665260
v -1.28572955 0.12931543 2.44701274
v -1.28921385 0.26830091 2.44974237
v -1.29008731 0.30303929 2.45042004
v -1.29048043 0.32042452 2.45071385
v -1.28824325 0.32297747 2.45130150
v -1.28616618 0.14670067 2.44735870
v -1.28659825 0.16402139 2.44769989
v -1.28555474 0.32297747 2.41176450
v -1.28496277 0.30303929 2.41050395
v -1.28519579 0.28565394 2.41035231
v -1.28538986 0.26830091 2.41021014
v -1.28555474 0.25091568 2.41008692
v -1.28568109 0.23353034 2.40997792
v -1.28577326 0.21614499 2.40988314
v -1.28583146 0.19879207 2.40981207
v -1.27543201 0.00768287 2.40617729
v -1.28564215 0.05980648 2.40966042
v -1.28558394 0.04245345 2.40966990
v -1.27543201 -0.00362732 2.40858468
v -1.27543201 -0.00711731 2.41968327
v -1.27391294 -0.00382119 2.43786185
v -1.26710942 -0.00110668 2.44580905
v -1.26806552 0.00768287 2.44597019
v -1.27543201 0.12931543 2.44895099
v -1.27543201 0.14670067 2.44949597
v -1.27543201 0.19879207 2.45109297
v -1.27543201 0.25091568 2.45269000
v -1.27543201 0.26830091 2.45322076
v -1.27543201 0.28565394 2.45373731
v -1.27543201 0.30303929 2.45422541
v -1.27543201 0.32042452 2.45457136
v -1.27543201 0.32297747 2.45459032
v -1.28457461 0.32297747 2.41074090
v -1.28463758 0.32042452 2.41070297
v -1.27543201 0.12931543 2.40728620
v -1.27543201 0.11193009 2.40706346
v -1.27543201 0.09457706 2.40689287
v -1.27543201 0.07719182 2.40672227
v -1.27543201 0.05980648 2.40656115
v -1.27543201 0.04245345 2.40640951
v -1.27543201 0.02506821 2.40625786
v -1.26119883 0.00768287 2.40746153
v -1.26298945 -0.00353028 2.40861785
v -1.25754469 -0.00369194 2.42138930
v -1.25971870 -0.00220539 2.43533125
v -1.26661439 -0.00110668 2.44580905
v -1.26630390 0.00768287 2.44597019
v -1.26584781 0.02506821 2.44622136
v -1.26543998 0.04245345 2.44646303
v -1.26337761 0.18140673 2.44826384
v -1.26324173 0.19879207 2.44845813
v -1.26298945 0.23353034 2.44884199
v -1.26287781 0.25091568 2.44903153
v -1.26277114 0.26830091 2.44922111
v -1.26268850 0.28565394 2.44940118
v -1.26264003 0.30303929 2.44954335
v -1.26506155 0.05980648 2.44670946
v -1.26471710 0.07719182 2.44695589
v -1.26439667 0.09457706 2.44720232
v -1.26410566 0.11193009 2.44745348
v -1.26386291 0.12931543 2.44768093
v -1.26367856 0.14670067 2.44787998
v -1.26268850 0.32042452 2.44960020
v -1.26271273 0.32297747 2.44959547
v -1.28210441 0.32297747 2.41074090
v -1.27543201 0.18140673 2.40818187
v -1.27543201 0.16402139 2.40787382
v -1.27543201 0.14670067 2.40757053
v -1.26318353 0.12931543 2.40863680
v -1.26284860 0.11193009 2.40842356
v -1.26255759 0.09457706 2.40824347
v -1.26226637 0.07719182 2.40806813
v -1.26198012 0.05980648 2.40789754
v -1.26169863 0.04245345 2.40773165
v -1.26142191 0.02506821 2.40757527
v -1.25188618 0.00787674 2.42138930
v -1.25278884 0.02506821 2.41968327
v -1.24935798 -0.00100975 2.42832237
v -1.24935798 -0.00100975 2.42839818
v -1.26352322 0.16402139 2.44806953
v -1.26311083 0.21614499 2.44864768
v -1.24935798 0.00222165 2.42839818
v -1.25717580 0.32297747 2.43705623
v -1.25679241 0.30303929 2.43705623
v -1.25710310 0.32042452 2.43705623
v -1.27500491 0.32297747 2.41175503
v -1.28150768 0.32042452 2.41070297
v -1.27543201 0.19879207 2.40850885
v -1.26525087 0.21614499 2.40997319
v -1.26482854 0.19879207 2.40969833
v -1.26441138 0.18140673 2.40942347
v -1.26399878 0.16402139 2.40915335
v -1.26358142 0.14670067 2.40888797
v -1.25522507 0.12931543 2.41968327
v -1.25473004 0.11193009 2.41968327
v -1.25431268 0.09457706 2.41968327
v -1.25391479 0.07719182 2.41968327
v -1.25352642 0.05980648 2.41968327
v -1.25315276 0.04245345 2.41968327
v -1.24935798 0.00222165 2.42832237
v -1.25775803 0.32297747 2.43470099
v -1.27337440 0.32297747 2.41202988
v -1.27282593 0.32042452 2.41199198
v -1.27054525 0.30303929 2.41155124
v -1.26673100 0.27734907 2.41098731
v -1.27543201 0.25091568 2.40963197
v -1.27543201 0.23353034 2.40923390
v -1.27543201 0.21614499 2.40885954
v -1.26609036 0.25091568 2.41054185
v -1.26566823 0.23353034 2.41025752
v -1.26115989 0.32042452 2.42067846
v -1.25582678 0.14670067 2.41968327
v -1.26120836 0.32297747 2.42075427
v -1.26650772 0.26830091 2.41083566
f 1 2 23
f 1 23 47
f 1 47 74
f 1 74 106
f 1 106 125
f 1 125 143
f 1 143 155
f 1 155 144
f 1 144 128
f 1 128 107
f 1 107 75
f 1 75 50
f 1 50 24
f 1 24 3
f 1 3 4
f 1 4 5
f 1 5 6
f 1 6 7
f 1 7 8
f 1 8 9
f 1 9 10
f 1 10 11
f 1 11 12
f 1 12 13
f 1 13 14
f 1 14 15
f 1 15 16
f 1 16 17
f 1 17 18
f 1 18 19
f 1 19 20
f 1 20 21
f 1 21 22
f 1 22 2
f 2 22 23
f 3 24 25
f 3 25 26
f 3 26 4
f 4 26 27
f 4 27 28
f 4 28 29
f 4 29 30
f 4 30 5
f 5 30 31
f 5 31 6
f 6 31 32
f 6 32 33
f 6 33 34
f 6 34 7
f 7 34 35
f 7 35 8
f 8 35 9
f 9 35 10
f 10 35 11
f 11 35 12
f 12 35 13
f 13 35 14
f 14 35 15
f 15 35 16
f 16 35 17
f 17 35 18
f 18 35 19
f 19 35 36
f 19 36 37
f 19 37 38
f 19 38 20
f 20 38 39
f 20 39 40
f 20 40 41
f 20 41 21
f 21 41 42
f 21 42 43
f 21 43 23
f 21 23 22
f 23 44 45
f 23 45 46
f 23 46 47
f 23 43 48
f 23 48 49
f 23 49 44
f 24 50 51
f 24 51 25
f 25 51 52
f 25 52 53
f 25 53 54
f 25 54 55
f 25 55 56
f 25 56 26
f 26 56 57
f 26 57 27
f 27 57 58
f 27 58 28
f 28 58 29
f 29 58 30
f 30 58 31
f 31 58 33
f 31 33 32
f 33 58 59
f 33 59 34
f 34 59 60
f 34 60 58
f 34 58 35
f 35 58 36
f 36 61 62
f 36 62 37
f 36 58 61
f 37 62 38
f 38 62 63
f 38 63 64
f 38 64 39
f 39 64 40
f 40 64 65
f 40 65 66
f 40 66 67
f 40 67 68
f 40 68 69
f 40 69 70
f 40 70 71
f 40 71 41
f 41 71 72
f 41 72 42
f 42 72 43
f 43 72 48
f 44 72 45
f 44 49 72
f 45 72 46
f 46 73 74
f 46 74 47
f 46 72 73
f 48 72 49
f 50 75 76
f 50 76 51
f 51 76 77
f 51 77 78
f 51 78 52
f 52 78 53
f 53 78 79
f 53 79 80
f 53 80 81
f 53 81 54
f 54 81 82
f 54 82 83
f 54 83 55
f 55 83 56
f 56 83 57
f 57 83 58
f 58 60 59
f 58 83 84
f 58 84 85
f 58 85 61
f 61 85 62
f 62 85 86
f 62 86 87
f 62 87 63
f 63 87 88
f 63 88 64
f 64 67 66
f 64 66 65
f 64 88 72
f 64 72 71
f 64 71 70
f 64 70 69
f 64 69 68
f 64 68 67
f 72 88 89
f 72 89 90
f 72 90 91
f 72 91 73
f 73 92 93
f 73 93 94
f 73 94 95
f 73 95 96
f 73 96 97
f 73 97 98
f 73 98 74
f 73 91 99
f 73 99 100
f 73 100 101
f 73 101 102
f 73 102 103
f 73 103 104
f 73 104 92
f 74 98 105
f 74 105 106
f 75 107 108
f 75 108 109
f 75 109 110
f 75 110 77
f 75 77 76
f 77 110 111
f 77 111 112
f 77 112 78
f 78 112 113
f 78 113 114
f 78 114 115
f 78 115 116
f 78 116 117
f 78 117 79
f 79 117 80
f 80 117 81
f 81 117 82
f 82 117 83
f 83 117 84
f 84 118 85
f 84 117 119
f 84 119 118
f 85 120 86
f 85 118 120
f 86 120 121
f 86 121 87
f 87 121 88
f 88 121 89
f 89 121 90
f 90 121 91
f 91 121 99
f 92 104 122
f 92 122 121
f 92 121 93
f 93 123 94
f 93 121 123
f 94 123 121
f 94 121 95
f 95 121 96
f 96 121 97
f 97 121 98
f 98 121 124
f 98 124 105
f 99 121 100
f 100 121 101
f 101 121 102
f 102 121 103
f 103 121 104
f 104 121 122
f 105 124 106
f 106 124 126
f 106 126 127
f 106 127 125
f 107 128 129
f 107 129 130
f 107 130 108
f 108 130 131
f 108 131 132
f 108 132 133
f 108 133 134
f 108 134 135
f 108 135 109
f 109 135 110
f 110 135 111
f 111 136 137
f 111 137 112
f 111 135 136
f 112 137 113
f 113 137 138
f 113 138 114
f 114 138 115
f 115 138 116
f 116 138 139
f 116 139 117
f 117 139 140
f 117 140 141
f 117 141 119
f 118 142 120
f 118 119 142
f 119 141 142
f 120 142 124
f 120 124 121
f 124 142 127
f 124 127 126
f 125 127 142
f 125 142 136
f 125 136 143
f 128 144 145
f 128 145 146
f 128 146 147
f 128 147 129
f 129 147 148
f 129 148 149
f 129 149 150
f 129 150 130
f 130 150 147
f 130 147 151
f 130 151 152
f 130 152 131
f 131 152 153
f 131 153 132
f 132 153 133
f 133 153 135
f 133 135 134
f 135 153 154
f 135 154 136
f 136 154 153
f 136 153 155
f 136 155 143
f 136 142 137
f 137 142 138
f 138 142 139
f 139 142 140
f 140 142 141
f 144 155 145
f 145 155 147
f 145 147 146
f 147 155 153
f 147 153 156
f 147 156 151
f 147 150 149
f 147 149 148
f 151 156 153
f 151 153 152

