# https://github.com/mikedh/trimesh
v -2.43586410 0.70545363 2.21967351
v -2.47381994 0.70545363 2.21967351
v -2.43572688 0.70267347 2.21967351
v -2.43322390 0.70545363 2.21623327
v -2.43905977 0.70545363 2.12956533
v -2.46338341 0.02507049 2.21967351
v -2.43315855 0.70267347 2.21632148
v -2.43572031 0.68529724 2.21967351
v -2.43236127 0.70545363 2.21480423
v -2.40714884 0.70545363 2.12956533
v -2.42661043 0.02507049 2.12956533
v -2.42583924 0.01297664 2.12956533
v -2.46206328 0.00762477 2.21967351
v -2.43315203 0.68529724 2.21632148
v -2.42798933 0.70267347 2.20763262
v -2.42802853 0.70545363 2.20754441
v -2.43572031 0.03730333 2.21967351
v -2.40733836 0.70545363 2.13884519
v -2.40705740 0.70267347 2.12956533
v -2.42541447 0.00769427 2.12956533
v -2.46040994 0.00435796 2.21967351
v -2.43315203 0.04244662 2.21632148
v -2.42136270 0.70267347 2.19380105
v -2.42691755 0.70545363 2.20537440
v -2.42798933 0.02507049 2.20763262
v -2.43572688 0.02507049 2.21967351
v -2.43315855 0.02507049 2.21632148
v -2.40739719 0.70545363 2.14168561
v -2.40730574 0.70267347 2.14168561
v -2.40705740 0.02507049 2.12956533
v -2.42094446 -0.00085481 2.12956533
v -2.41886630 -0.00453857 2.12956533
v -2.45234559 -0.00384356 2.21463662
v -2.45377679 -0.00377407 2.21967351
v -2.41556609 0.70267347 2.17976657
v -2.42137580 0.70545363 2.19380105
v -2.42155880 0.04244662 2.19380105
v -2.42800890 0.00769427 2.20759733
v -2.42157185 0.02507049 2.19380105
v -2.43590983 0.00769427 2.21967351
v -2.43330235 0.00769427 2.21628619
v -2.40989359 0.70545363 2.15906330
v -2.40982172 0.70267347 2.15906330
v -2.40730574 0.02507049 2.14168561
v -2.40735804 0.00769427 2.14168561
v -2.40711622 0.00769427 2.12956533
v -2.41033798 -0.00453857 2.12956533
v -2.43628235 -0.00412163 2.19380105
v -2.44835269 -0.00384356 2.21967351
v -2.41249459 0.70267347 2.17108655
v -2.41553341 0.70545363 2.17962543
v -2.41576213 0.04244662 2.17976657
v -2.41249459 0.02507049 2.17108655
v -2.42898266 -0.00300956 2.20586839
v -2.41285406 -0.00189749 2.16991333
v -2.42200971 0.00769427 2.19380105
v -2.41250764 0.00769427 2.17104244
v -2.41577523 0.02507049 2.17976657
v -2.43755017 0.00317640 2.21967351
v -2.41252732 0.70545363 2.17094540
v -2.40982172 0.02507049 2.15906330
v -2.40986097 0.00769427 2.15906330
v -2.41170388 -0.00321803 2.15906330
v -2.41046216 -0.00439959 2.14168561
v -2.40805730 0.00401050 2.12956533
v -2.42666268 -0.00412163 2.19380105
v -2.44266057 -0.00363509 2.21967351
f 1 2 6
f 1 6 13
f 1 13 21
f 1 21 34
f 1 34 49
f 1 49 67
f 1 67 59
f 1 59 40
f 1 40 26
f 1 26 17
f 1 17 8
f 1 8 3
f 1 3 4
f 1 4 9
f 1 9 16
f 1 16 24
f 1 24 36
f 1 36 51
f 1 51 60
f 1 60 42
f 1 42 28
f 1 28 18
f 1 18 10
f 1 10 5
f 1 5 2
f 2 5 6
f 3 7 4
f 3 8 14
f 3 14 7
f 4 7 9
f 5 10 19
f 5 19 30
f 5 30 46
f 5 46 65
f 5 65 47
f 5 47 32
f 5 32 31
f 5 31 20
f 5 20 12
f 5 12 11
f 5 11 6
f 6 11 12
f 6 12 13
f 7 14 15
f 7 15 16
f 7 16 9
f 8 17 22
f 8 22 14
f 10 18 19
f 12 20 13
f 13 20 21
f 14 22 25
f 14 25 15
f 15 23 24
f 15 24 16
f 15 25 23
f 17 26 27
f 17 27 22
f 18 28 29
f 18 29 19
f 19 29 44
f 19 44 30
f 20 31 21
f 21 31 32
f 21 32 33
f 21 33 34
f 22 27 25
f 23 35 36
f 23 36 24
f 23 25 37
f 23 37 52
f 23 52 35
f 25 27 38
f 25 38 39
f 25 39 37
f 26 40 41
f 26 41 27
f 27 41 38
f 28 42 29
f 29 42 43
f 29 43 61
f 29 61 44
f 30 44 45
f 30 45 46
f 32 47 66
f 32 66 48
f 32 48 33
f 33 48 49
f 33 49 34
f 35 50 51
f 35 51 36
f 35 52 53
f 35 53 50
f 37 39 58
f 37 58 52
f 38 41 54
f 38 54 55
f 38 55 56
f 38 56 39
f 39 56 57
f 39 57 58
f 40 59 54
f 40 54 41
f 42 60 43
f 43 60 50
f 43 50 53
f 43 53 61
f 44 61 62
f 44 62 45
f 45 55 63
f 45 63 64
f 45 64 65
f 45 65 46
f 45 62 55
f 47 65 64
f 47 64 66
f 48 66 49
f 49 66 67
f 50 60 51
f 52 58 53
f 53 58 57
f 53 57 61
f 54 67 66
f 54 66 55
f 54 59 67
f 55 66 63
f 55 62 57
f 55 57 56
f 57 62 61
f 63 66 64

