# https://github.com/mikedh/trimesh
v -1.76335289 0.70552312 2.22090987
v -1.75762292 0.70552312 2.21273193
v -1.79924589 0.70552312 2.22090987
v -1.76324053 0.70260439 2.22090987
v -1.75755685 0.70260439 2.21281986
v -1.75675060 0.70552312 2.21130739
v -1.76323390 0.70552312 2.12977429
v -1.80085186 0.70545363 2.04125916
v -1.79142093 0.02518006 2.22090987
v -1.76324053 0.02518006 2.22090987
v -1.75755685 0.02518006 2.21281986
v -1.75236882 0.70260439 2.20413191
v -1.75240849 0.70552312 2.20404397
v -1.73352023 0.70552312 2.12977429
v -1.76117857 0.70545363 2.04125916
v -1.78822879 0.02511057 2.04125916
v -1.79081291 0.01586793 2.22090987
v -1.76329997 0.00780663 2.22090987
v -1.75236882 0.02518006 2.20413191
v -1.75759651 0.00780663 2.21278470
v -1.75238871 0.00780663 2.20409674
v -1.74731305 0.70260439 2.19379078
v -1.74742542 0.70552312 2.19379078
v -1.73341449 0.70545363 2.12432233
v -1.73485517 0.70545363 2.10687607
v -1.73507327 0.70545363 2.10437873
v -1.73580029 0.70545363 2.09799466
v -1.73618358 0.70545363 2.09678116
v -1.73854959 0.70545363 2.08960569
v -1.73962024 0.70545363 2.08647521
v -1.74455049 0.70545363 2.07219461
v -1.75050509 0.70545363 2.05837127
v -1.75125189 0.70545363 2.05694672
v -1.75529657 0.70545363 2.04968331
v -1.75698186 0.70545363 2.04725631
v -1.73376474 0.70552312 2.14168065
v -1.73333516 0.70267388 2.12432233
v -1.76115206 0.70455019 2.04125916
v -1.78664934 0.00773724 2.04125916
v -1.79033703 0.01169835 2.22090987
v -1.76538844 -0.00074110 2.22090987
v -1.75267941 -0.00164449 2.20353395
v -1.74731305 0.02518006 2.19379078
v -1.74746498 0.00780663 2.19379078
v -1.74109405 0.70260439 2.17641488
v -1.74632164 0.70552312 2.19095928
v -1.73478257 0.70267388 2.10692883
v -1.73579366 0.70267388 2.09795949
v -1.73865533 0.70267388 2.08927154
v -1.73875444 0.04248400 2.08927154
v -1.74464960 0.04248400 2.07219461
v -1.74455049 0.70267388 2.07219461
v -1.75046543 0.70267388 2.05828333
v -1.75530320 0.70267388 2.04959538
v -1.76111902 0.70267388 2.04125916
v -1.73525171 0.70552312 2.15372771
v -1.73369204 0.70260439 2.14168065
v -1.73333516 0.02511057 2.12432233
v -1.78600828 0.00627782 2.04125916
v -1.78774639 0.00169120 2.22090987
v -1.76667056 -0.00338177 2.22090987
v -1.75043239 -0.00359035 2.19379078
v -1.73545004 -0.00150550 2.15263732
v -1.74142452 0.02518006 2.17641488
v -1.74195984 0.00780663 2.17641488
v -1.73521205 0.02518006 2.15392116
v -1.73746570 0.70260439 2.16262670
v -1.74045299 0.70552312 2.17395270
v -1.74112046 0.70552312 2.17641488
v -1.73478257 0.02511057 2.10692883
v -1.73579366 0.02511057 2.09795949
v -1.73877433 0.02511057 2.08927154
v -1.74466948 0.02511057 2.07219461
v -1.75046543 0.02511057 2.05828333
v -1.75530320 0.04248400 2.04959538
v -1.76111902 0.03706348 2.04125916
v -1.73741951 0.70552312 2.16241567
v -1.73521205 0.70260439 2.15392116
v -1.73369204 0.02518006 2.14168065
v -1.73336820 0.00773724 2.12432233
v -1.73480898 0.00773724 2.10692883
v -1.77812377 -0.00379872 2.04125916
v -1.78681452 0.00113527 2.22090987
v -1.77795196 -0.00352075 2.22090987
v -1.74787478 -0.00442424 2.17641488
v -1.73482213 -0.00233940 2.14168065
v -1.73372508 0.00780663 2.14168065
v -1.73522530 0.00780663 2.15385082
v -1.73581354 0.00773724 2.09801225
v -1.73584658 -0.00094947 2.09811777
v -1.74501311 0.00773724 2.07219461
v -1.75049194 0.00773724 2.05831850
v -1.75531645 0.02511057 2.04959538
v -1.76112565 0.02511057 2.04125916
v -1.73382419 0.00454044 2.12977429
v -1.73469661 -0.00254787 2.12977429
v -1.73464369 -0.00261736 2.12432233
v -1.73535745 -0.00164449 2.10692883
v -1.77604193 -0.00372933 2.04125916
v -1.74930230 -0.00435475 2.07219461
v -1.75886537 -0.00435475 2.07219461
v -1.75718671 -0.00442424 2.17641488
v -1.75143033 -0.00289533 2.06007720
v -1.75561378 0.00773724 2.04963055
v -1.76145612 0.00773724 2.04125916
v -1.76643267 -0.00303431 2.04125916
f 1 2 6
f 1 6 13
f 1 13 23
f 1 23 46
f 1 46 69
f 1 69 68
f 1 68 77
f 1 77 56
f 1 56 36
f 1 36 14
f 1 14 7
f 1 7 3
f 1 3 9
f 1 9 17
f 1 17 40
f 1 40 60
f 1 60 83
f 1 83 84
f 1 84 61
f 1 61 41
f 1 41 18
f 1 18 10
f 1 10 4
f 1 4 5
f 1 5 2
f 2 5 6
f 3 7 8
f 3 8 9
f 4 10 11
f 4 11 5
f 5 11 19
f 5 19 12
f 5 12 13
f 5 13 6
f 7 14 15
f 7 15 8
f 8 15 38
f 8 38 55
f 8 55 76
f 8 76 94
f 8 94 105
f 8 105 106
f 8 106 99
f 8 99 82
f 8 82 59
f 8 59 39
f 8 39 16
f 8 16 9
f 9 16 17
f 10 18 11
f 11 18 20
f 11 20 21
f 11 21 19
f 12 19 43
f 12 43 22
f 12 22 13
f 13 22 23
f 14 24 25
f 14 25 26
f 14 26 27
f 14 27 28
f 14 28 29
f 14 29 30
f 14 30 31
f 14 31 32
f 14 32 33
f 14 33 34
f 14 34 35
f 14 35 15
f 14 36 37
f 14 37 24
f 15 35 38
f 16 39 17
f 17 39 40
f 18 41 42
f 18 42 20
f 19 21 43
f 20 42 21
f 21 42 44
f 21 44 43
f 22 43 45
f 22 45 46
f 22 46 23
f 24 37 25
f 25 37 47
f 25 47 26
f 26 47 48
f 26 48 27
f 27 48 28
f 28 48 49
f 28 49 29
f 29 49 30
f 30 49 50
f 30 50 51
f 30 51 52
f 30 52 31
f 31 52 74
f 31 74 53
f 31 53 32
f 32 53 33
f 33 53 54
f 33 54 34
f 34 54 35
f 35 54 55
f 35 55 38
f 36 56 57
f 36 57 37
f 37 57 79
f 37 79 58
f 37 58 70
f 37 70 47
f 39 59 60
f 39 60 40
f 41 61 42
f 42 61 62
f 42 62 63
f 42 63 44
f 43 64 45
f 43 44 64
f 44 63 65
f 44 65 64
f 45 64 66
f 45 66 67
f 45 67 68
f 45 68 69
f 45 69 46
f 47 70 71
f 47 71 48
f 48 71 49
f 49 71 50
f 50 71 72
f 50 72 73
f 50 73 51
f 51 73 74
f 51 74 52
f 53 74 75
f 53 75 54
f 54 75 76
f 54 76 55
f 56 77 78
f 56 78 57
f 57 78 66
f 57 66 79
f 58 80 81
f 58 81 70
f 58 79 87
f 58 87 80
f 59 82 60
f 60 82 83
f 61 84 85
f 61 85 62
f 62 85 63
f 63 85 86
f 63 86 87
f 63 87 88
f 63 88 65
f 64 65 88
f 64 88 66
f 66 78 67
f 66 88 79
f 67 78 77
f 67 77 68
f 70 81 89
f 70 89 71
f 71 89 72
f 72 89 73
f 73 89 90
f 73 90 91
f 73 91 92
f 73 92 74
f 74 93 75
f 74 92 93
f 75 93 94
f 75 94 76
f 79 88 87
f 80 87 95
f 80 95 96
f 80 96 97
f 80 97 98
f 80 98 90
f 80 90 81
f 81 90 89
f 82 99 100
f 82 100 101
f 82 101 102
f 82 102 84
f 82 84 83
f 84 102 85
f 85 102 101
f 85 101 100
f 85 100 97
f 85 97 96
f 85 96 86
f 86 96 95
f 86 95 87
f 90 98 100
f 90 100 103
f 90 103 92
f 90 92 91
f 92 103 104
f 92 104 93
f 93 104 94
f 94 104 105
f 97 100 98
f 99 106 100
f 100 106 103
f 103 106 105
f 103 105 104

