# https://github.com/mikedh/trimesh
v -1.72755072 0.36174085 1.42936780
v -1.57759411 0.38633557 1.39455455
v -1.72755072 0.36201943 1.44580817
v -1.72755072 0.37256574 1.41512727
v -1.58819302 0.39274295 1.38162291
v -1.57759411 0.39270313 1.38158180
v -1.57759411 0.39226536 1.40918572
v -1.57759411 0.44006187 1.44580817
v -1.72755072 0.76301682 1.44580817
v -1.72755072 0.37765972 1.41209824
v -1.62294072 0.39449400 1.38324705
v -1.60555952 0.39310107 1.38204095
v -1.58819302 0.40730872 1.37675040
v -1.57759411 0.39839411 1.37967664
v -1.57759411 0.46756182 1.44580817
v -1.72593585 0.76409135 1.44580817
v -1.72122360 0.76425052 1.43539842
v -1.72755072 0.75688802 1.43091659
v -1.72755072 0.39003673 1.40896642
v -1.64833723 0.40002586 1.38610479
v -1.63675466 0.39656346 1.38469306
v -1.62294072 0.40730872 1.37964241
v -1.60555952 0.40730872 1.37737406
v -1.57759411 0.40730872 1.37670245
v -1.58819302 0.42470012 1.37649687
v -1.57759411 0.42470012 1.37644204
v -1.57759411 0.41411404 1.37659966
v -1.57759411 0.68541214 1.43702260
v -1.63693082 0.68529273 1.44580817
v -1.72471742 0.76417093 1.44580817
v -1.69242139 0.76647916 1.42929929
v -1.70949428 0.76496687 1.42948431
v -1.70350478 0.76421075 1.41935557
v -1.71508734 0.76146471 1.42381689
v -1.72755072 0.75645026 1.42986123
v -1.72755072 0.40730872 1.40593739
v -1.64165778 0.40639337 1.38376787
v -1.65056851 0.41160687 1.38537151
v -1.62294072 0.42470012 1.37942995
v -1.60555952 0.42470012 1.37714104
v -1.58819302 0.47683460 1.37616107
v -1.57759411 0.47683460 1.37581154
v -1.57759411 0.69631657 1.43613170
v -1.65729196 0.73742716 1.44580817
v -1.65191908 0.72556757 1.44580817
v -1.64678108 0.71378761 1.44580817
v -1.64227430 0.70256472 1.44580817
v -1.71047783 0.76468829 1.44580817
v -1.64032191 0.76830986 1.41192006
v -1.65767370 0.76803127 1.41192006
v -1.69242139 0.76520564 1.41618264
v -1.67050400 0.76456893 1.40168165
v -1.68208656 0.76249947 1.40438860
v -1.70949428 0.75533592 1.41538080
v -1.72160523 0.74988370 1.41840983
v -1.72755072 0.75593291 1.42907999
v -1.72755072 0.47683460 1.40515611
v -1.66063904 0.47683460 1.38717382
v -1.65196320 0.47683460 1.38519332
v -1.64032191 0.47683460 1.38254805
v -1.62294072 0.47683460 1.37921066
v -1.62294072 0.66790133 1.37927916
v -1.60555952 0.66790133 1.37735350
v -1.58819302 0.66790133 1.37622958
v -1.57759411 0.66790133 1.37588010
v -1.57759411 0.70264436 1.43559032
v -1.57759411 0.71327021 1.43420603
v -1.57759411 0.72003576 1.43332196
v -1.57759411 0.73742716 1.43103994
v -1.66383926 0.74538665 1.44580817
v -1.70911255 0.76464852 1.44580817
v -1.57759411 0.76715574 1.40074963
v -1.57759411 0.76755374 1.39455455
v -1.58819302 0.76743433 1.39455455
v -1.57759411 0.76647916 1.41014513
v -1.60555952 0.76711592 1.39455455
v -1.64032191 0.76631998 1.39770693
v -1.65767370 0.76556387 1.39994100
v -1.67580356 0.76608122 1.41087153
v -1.61574749 0.76369340 1.38561819
v -1.62733006 0.76170353 1.38713271
v -1.67580356 0.75593291 1.39833053
v -1.68836967 0.75091846 1.40111288
v -1.70980249 0.73742716 1.40891159
v -1.72361643 0.73742716 1.41701866
v -1.72755072 0.73742716 1.41978044
v -1.72755072 0.49418618 1.40525206
v -1.66034544 0.68529273 1.38724238
v -1.66049229 0.66790133 1.38720810
v -1.65181635 0.66790133 1.38522760
v -1.64032191 0.66790133 1.38261661
v -1.62294072 0.68529273 1.37934084
v -1.60555952 0.68529273 1.37741517
v -1.58819302 0.68529273 1.37629125
v -1.57759411 0.68529273 1.37593494
v -1.57759411 0.67470666 1.37590066
v -1.57759411 0.74713771 1.42758604
v -1.67587699 0.75418180 1.44580817
v -1.69871910 0.76337500 1.44580817
v -1.57759411 0.76222088 1.41882786
v -1.57759411 0.76488728 1.41353047
v -1.57759411 0.76572304 1.38844165
v -1.58819302 0.76444952 1.38476157
v -1.62208932 0.76612104 1.39357453
v -1.60555952 0.76405153 1.38524816
v -1.58819302 0.75477879 1.38043048
v -1.60555952 0.75477879 1.38148585
v -1.62208932 0.75545532 1.38350063
v -1.64032191 0.74924699 1.38479585
v -1.64921793 0.74626218 1.38581693
v -1.65605883 0.75314710 1.39094986
v -1.67505490 0.73742716 1.39292353
v -1.69117355 0.73742716 1.39984505
v -1.69986410 0.73742716 1.40381294
v -1.72755072 0.66790133 1.40892526
v -1.72755072 0.61481173 1.40655417
v -1.66000782 0.70264436 1.38732461
v -1.65133187 0.70264436 1.38533723
v -1.65166960 0.68529273 1.38526183
v -1.64032191 0.68529273 1.38268512
v -1.62294072 0.70264436 1.37948479
v -1.60555952 0.70264436 1.37755224
v -1.58819302 0.70264436 1.37642831
v -1.57759411 0.70264436 1.37607195
v -1.57759411 0.75350527 1.42524912
v -1.68866327 0.76007183 1.44580817
v -1.57759411 0.76452911 1.38461767
v -1.57759411 0.75855954 1.38179421
v -1.57759411 0.75477879 1.38010151
v -1.57759411 0.74419272 1.37794283
v -1.57759411 0.73742716 1.37657227
v -1.58819302 0.73742716 1.37692858
v -1.60555952 0.73742716 1.37806617
v -1.62294072 0.73742716 1.38002617
v -1.64032191 0.73742716 1.38341156
v -1.65002542 0.73742716 1.38563192
v -1.65870126 0.73742716 1.38763297
v -1.65961148 0.72003576 1.38741368
v -1.72755072 0.65054970 1.40786306
v -1.65095024 0.72003576 1.38542634
v -1.64032191 0.70264436 1.38282902
v -1.64032191 0.72003576 1.38300036
v -1.62294072 0.72003576 1.37964925
v -1.60555952 0.72003576 1.37770986
v -1.58819302 0.72003576 1.37657910
v -1.57759411 0.72003576 1.37622274
f 1 2 3
f 1 3 9
f 1 9 18
f 1 18 35
f 1 35 56
f 1 56 86
f 1 86 115
f 1 115 139
f 1 139 116
f 1 116 87
f 1 87 57
f 1 57 36
f 1 36 19
f 1 19 10
f 1 10 4
f 1 4 5
f 1 5 6
f 1 6 2
f 2 6 14
f 2 14 24
f 2 24 27
f 2 27 26
f 2 26 42
f 2 42 65
f 2 65 96
f 2 96 95
f 2 95 124
f 2 124 146
f 2 146 131
f 2 131 130
f 2 130 129
f 2 129 128
f 2 128 127
f 2 127 102
f 2 102 73
f 2 73 72
f 2 72 75
f 2 75 101
f 2 101 100
f 2 100 125
f 2 125 97
f 2 97 69
f 2 69 68
f 2 68 67
f 2 67 66
f 2 66 43
f 2 43 28
f 2 28 15
f 2 15 8
f 2 8 7
f 2 7 3
f 3 7 8
f 3 8 15
f 3 15 29
f 3 29 47
f 3 47 46
f 3 46 45
f 3 45 44
f 3 44 70
f 3 70 98
f 3 98 126
f 3 126 99
f 3 99 71
f 3 71 48
f 3 48 30
f 3 30 16
f 3 16 9
f 4 10 11
f 4 11 12
f 4 12 5
f 5 12 13
f 5 13 14
f 5 14 6
f 9 16 17
f 9 17 18
f 10 19 20
f 10 20 21
f 10 21 11
f 11 21 22
f 11 22 23
f 11 23 12
f 12 23 13
f 13 24 14
f 13 23 25
f 13 25 26
f 13 26 27
f 13 27 24
f 15 28 29
f 16 30 31
f 16 31 17
f 17 31 32
f 17 32 33
f 17 33 34
f 17 34 35
f 17 35 18
f 19 36 20
f 20 37 22
f 20 22 21
f 20 36 38
f 20 38 37
f 22 37 38
f 22 38 39
f 22 39 40
f 22 40 23
f 23 40 25
f 25 40 41
f 25 41 42
f 25 42 26
f 28 43 44
f 28 44 45
f 28 45 46
f 28 46 47
f 28 47 29
f 30 48 31
f 31 49 50
f 31 50 32
f 31 48 49
f 32 50 51
f 32 51 33
f 33 51 52
f 33 52 53
f 33 53 34
f 34 54 55
f 34 55 56
f 34 56 35
f 34 53 54
f 36 57 58
f 36 58 38
f 38 58 59
f 38 59 60
f 38 60 39
f 39 60 61
f 39 61 40
f 40 61 62
f 40 62 63
f 40 63 64
f 40 64 41
f 41 64 65
f 41 65 42
f 43 66 44
f 44 66 67
f 44 67 68
f 44 68 69
f 44 69 70
f 48 71 49
f 49 72 73
f 49 73 74
f 49 74 50
f 49 71 75
f 49 75 72
f 50 74 76
f 50 76 77
f 50 77 78
f 50 78 79
f 50 79 51
f 51 79 52
f 52 80 81
f 52 81 82
f 52 82 53
f 52 79 78
f 52 78 80
f 53 82 83
f 53 83 55
f 53 55 54
f 55 83 84
f 55 84 85
f 55 85 86
f 55 86 56
f 57 87 88
f 57 88 89
f 57 89 58
f 58 89 90
f 58 90 59
f 59 90 60
f 60 90 91
f 60 91 62
f 60 62 61
f 62 91 92
f 62 92 93
f 62 93 63
f 63 93 94
f 63 94 64
f 64 94 95
f 64 95 96
f 64 96 65
f 69 97 98
f 69 98 70
f 71 99 100
f 71 100 101
f 71 101 75
f 73 102 74
f 74 102 103
f 74 103 76
f 76 104 77
f 76 103 105
f 76 105 104
f 77 104 80
f 77 80 78
f 80 104 105
f 80 105 106
f 80 106 107
f 80 107 108
f 80 108 81
f 81 108 109
f 81 109 110
f 81 110 111
f 81 111 82
f 82 111 110
f 82 110 83
f 83 110 112
f 83 112 113
f 83 113 114
f 83 114 84
f 84 114 115
f 84 115 85
f 85 115 86
f 87 116 117
f 87 117 88
f 88 117 118
f 88 118 119
f 88 119 90
f 88 90 89
f 90 119 91
f 91 119 120
f 91 120 92
f 92 120 141
f 92 141 121
f 92 121 122
f 92 122 93
f 93 122 123
f 93 123 94
f 94 123 124
f 94 124 95
f 97 125 98
f 98 125 126
f 99 126 125
f 99 125 100
f 102 127 103
f 103 127 128
f 103 128 106
f 103 106 105
f 106 128 129
f 106 129 130
f 106 130 131
f 106 131 132
f 106 132 107
f 107 132 133
f 107 133 134
f 107 134 108
f 108 134 109
f 109 134 110
f 110 134 135
f 110 135 136
f 110 136 137
f 110 137 112
f 112 137 138
f 112 138 116
f 112 116 139
f 112 139 115
f 112 115 113
f 113 115 114
f 116 138 117
f 117 138 140
f 117 140 118
f 118 141 119
f 118 140 142
f 118 142 141
f 119 141 120
f 121 141 143
f 121 143 144
f 121 144 122
f 122 144 145
f 122 145 123
f 123 145 146
f 123 146 124
f 131 146 145
f 131 145 132
f 132 145 144
f 132 144 133
f 133 144 143
f 133 143 134
f 134 143 142
f 134 142 135
f 135 142 140
f 135 140 136
f 136 140 138
f 136 138 137
f 141 142 143

