# https://github.com/mikedh/trimesh
v -2.41574862 0.42712993 1.44582914
v -2.41564220 0.46360413 1.44582914
v -2.37019141 0.42712993 1.44582914
v -2.44427513 0.42712993 1.48163085
v -2.44688297 0.46360413 1.48644636
v -2.27630937 0.47467799 1.44582914
v -2.46444592 0.42712993 1.59535907
v -2.04655403 0.43219103 1.44582914
v -2.02382864 0.43219103 1.44618043
v -1.99971942 0.43219103 1.47658114
v -1.99599403 0.43219103 1.48151378
v -1.99317327 0.43219103 1.48527542
v -1.97853754 0.43219103 1.50651348
v -1.97715372 0.43219103 1.50919200
v -1.96171962 0.43219103 1.54206633
v -1.96124064 0.43219103 1.54341292
v -1.95480095 0.43219103 1.56828094
v -1.94931911 0.43219103 1.59535907
v -2.44938434 0.42712993 1.48834914
v -2.44890536 0.46360413 1.48921270
v -2.45050200 0.46360413 1.49183271
v -2.46763915 0.46360413 1.52075510
v -2.46790531 0.46360413 1.52142842
v -2.48035905 0.46360413 1.55513705
v -2.48264750 0.46360413 1.56226519
v -2.48440384 0.46360413 1.56828094
v -2.48754389 0.46360413 1.58530355
v -2.48914053 0.46360413 1.59535907
v -2.00999118 0.47549707 1.59535907
v -2.16097939 0.47549707 1.44582914
v -2.49100323 0.42712993 1.59535907
v -2.02436085 0.44205765 1.44582914
v -2.02196594 0.47549707 1.44582914
v -1.99806965 0.47549707 1.47482470
v -1.97779240 0.47549707 1.50538645
v -1.99221530 0.47549707 1.48350437
v -1.98279515 0.47549707 1.49774599
v -1.97231067 0.47549707 1.51620306
v -1.97156553 0.47549707 1.51775455
v -1.96432746 0.47549707 1.53429419
v -1.96161316 0.47549707 1.54171504
v -1.95863280 0.47549707 1.55103873
v -1.95320420 0.47549707 1.56828094
v -1.94910619 0.47549707 1.58565484
v -1.94878690 0.47549707 1.58725024
v -1.94729672 0.47549707 1.59535907
v -2.46827783 0.42712993 1.51987688
v -2.48339264 0.42712993 1.55843033
v -2.48573432 0.42712993 1.56828094
v -2.48945982 0.42712993 1.58559633
v -2.48993880 0.42712993 1.58811386
f 1 2 6
f 1 6 30
f 1 30 33
f 1 33 32
f 1 32 8
f 1 8 3
f 1 3 7
f 1 7 31
f 1 31 51
f 1 51 50
f 1 50 49
f 1 49 48
f 1 48 47
f 1 47 19
f 1 19 4
f 1 4 2
f 2 4 5
f 2 5 6
f 3 8 9
f 3 9 10
f 3 10 11
f 3 11 12
f 3 12 13
f 3 13 14
f 3 14 15
f 3 15 16
f 3 16 17
f 3 17 18
f 3 18 7
f 4 19 5
f 5 19 20
f 5 20 6
f 6 20 21
f 6 21 22
f 6 22 23
f 6 23 24
f 6 24 25
f 6 25 26
f 6 26 27
f 6 27 28
f 6 28 29
f 6 29 30
f 7 18 46
f 7 46 29
f 7 29 28
f 7 28 31
f 8 32 9
f 9 32 33
f 9 33 34
f 9 34 10
f 10 34 11
f 11 34 12
f 12 34 13
f 13 35 14
f 13 34 36
f 13 36 37
f 13 37 35
f 14 35 38
f 14 38 39
f 14 39 15
f 15 39 40
f 15 40 41
f 15 41 16
f 16 41 42
f 16 42 43
f 16 43 17
f 17 43 44
f 17 44 18
f 18 44 45
f 18 45 46
f 19 47 21
f 19 21 20
f 21 47 22
f 22 47 23
f 23 47 48
f 23 48 24
f 24 48 25
f 25 48 26
f 26 49 50
f 26 50 51
f 26 51 27
f 26 48 49
f 27 51 28
f 28 51 31
f 29 46 45
f 29 45 44
f 29 44 43
f 29 43 42
f 29 42 41
f 29 41 40
f 29 40 39
f 29 39 38
f 29 38 35
f 29 35 37
f 29 37 36
f 29 36 34
f 29 34 33
f 29 33 30

