# https://github.com/mikedh/trimesh
v -3.29480530 0.72035210 2.32958451
v -3.18659304 0.71123166 2.53236958
v -3.20389014 0.71127805 2.53245326
v -3.21317152 0.71134506 2.53253699
v -3.29480530 0.71966123 2.43723299
v -3.29501625 0.71967671 2.43798623
v -3.29480530 0.76376310 2.32958451
v -1.14279467 0.72282680 2.32958451
v -1.16283404 0.71137085 2.48041794
v -1.25817892 0.71123166 2.53236958
v -3.18659304 0.71123166 2.53285079
v -3.20389014 0.71127805 2.53276711
v -3.21317152 0.71134506 2.53264159
v -3.29501625 0.76245872 2.43798623
v -3.29501625 0.71979529 2.44717140
v -3.29501625 0.76361355 2.44104097
v -3.29480530 0.76376310 2.41967866
v -3.29227409 0.76382498 2.32958451
v -1.14216189 0.72553355 2.32958451
v -1.14279467 0.72282680 2.41967866
v -1.16283404 0.71137085 2.48052254
v -1.19721739 0.71129354 2.51506631
v -1.25817892 0.71123166 2.53285079
v -1.25817892 0.72006336 2.53787233
v -3.18659304 0.72006336 2.53785136
v -3.20389014 0.72006336 2.53770492
v -3.21992160 0.71866619 2.53617756
v -3.23869531 0.72418276 2.53483848
v -3.25472666 0.72221847 2.52391671
v -3.26801596 0.72380124 2.51812108
v -3.28489114 0.72380124 2.50119442
v -3.29079748 0.72231126 2.48763633
v -3.29501625 0.72327539 2.48146409
v -3.29501625 0.76354137 2.44836399
v -3.29480530 0.76367543 2.43668899
v -3.29480530 0.76373731 2.42606015
v -3.29079748 0.76385589 2.41967866
v -3.29079748 0.76385589 2.32958451
v -1.14005251 0.73743809 2.32958451
v -1.14005251 0.73743809 2.41967866
v -1.14300552 0.72358474 2.43704468
v -1.17253733 0.72266701 2.50548361
v -1.19721739 0.71129354 2.51540108
v -1.14427128 0.72603365 2.45443166
v -1.14511491 0.72805988 2.46382605
v -1.16009188 0.72056865 2.48744805
v -1.16199041 0.72669361 2.49897655
v -1.24594452 0.71127805 2.53276711
v -1.24046000 0.71838775 2.53665877
v -1.24088192 0.73743809 2.54281014
v -1.25817892 0.73743809 2.54333319
v -3.18659304 0.73743809 2.54329135
v -3.20389014 0.73743809 2.54287290
v -3.22139821 0.73743809 2.54149199
v -3.23869531 0.73743809 2.53709814
v -3.24797659 0.72788455 2.53295544
v -3.26970342 0.73743809 2.51958568
v -3.27856299 0.73743809 2.51155126
v -3.28636775 0.73743809 2.50286827
v -3.29501625 0.73743809 2.48985420
v -3.29501625 0.72510049 2.48445604
v -3.29501625 0.76289177 2.45583349
v -3.28257080 0.76362386 2.48204995
v -3.28362549 0.76369092 2.47179771
v -3.29227409 0.76371670 2.43842560
v -3.28763341 0.76386620 2.32958451
v -3.27350038 0.76389199 2.47179771
v -3.27350038 0.76390229 2.43798623
v -1.14279467 0.75211638 2.32958451
v -1.14089614 0.73743809 2.43704468
v -1.14279467 0.75211638 2.41967866
v -1.14300552 0.75134302 2.43704468
v -1.17886549 0.72643067 2.51644723
v -1.21050648 0.72427556 2.53473389
v -1.22358471 0.72113059 2.53663785
v -1.14870111 0.73743809 2.47288570
v -1.15587311 0.73743809 2.48918466
v -1.14321659 0.73743809 2.45443166
v -1.14511491 0.73743809 2.46418174
v -1.16156828 0.73743809 2.49954149
v -1.16958411 0.73743809 2.50822453
v -1.25817892 0.75479733 2.53866739
v -1.22358471 0.73743809 2.54065504
v -1.22358471 0.75382803 2.53663785
v -1.23940530 0.75651416 2.53697262
v -3.18659304 0.75479733 2.53866739
v -3.20389014 0.75479733 2.53818618
v -3.22034352 0.75623578 2.53621940
v -3.23869531 0.75073981 2.53483848
v -3.24797659 0.74699158 2.53295544
v -3.24839851 0.73743809 2.53312280
v -3.25704701 0.73743809 2.52826866
v -3.26801596 0.75112647 2.51812108
v -3.28489114 0.75112647 2.50119442
v -3.29501625 0.75034280 2.48382839
v -3.29501625 0.76172657 2.45916025
v -3.28953183 0.75462205 2.48721788
v -3.27793011 0.76270618 2.49362029
v -3.26632839 0.76362386 2.49941597
v -3.27265665 0.76373731 2.48838955
v -3.29501625 0.75627700 2.47179771
v -3.27350038 0.76390229 2.32958451
v -3.25535954 0.76373731 2.50575562
v -3.23869531 0.76389199 2.50655068
v -3.18659304 0.76389199 2.52391671
v -1.17127158 0.76390229 2.43798623
v -1.15249797 0.76080372 2.32958451
v -1.14427128 0.74886313 2.45443166
v -1.14511491 0.74681112 2.46382605
v -1.15249797 0.76080372 2.41967866
v -1.15291988 0.76003035 2.43704468
v -1.16262297 0.76353107 2.48066903
v -1.17823251 0.73743809 2.51705401
v -1.18877964 0.73743809 2.52404228
v -1.19974849 0.73743809 2.53090498
v -1.20839709 0.73743809 2.53582187
v -1.16199041 0.74819287 2.49897655
v -1.17886549 0.74846612 2.51644723
v -1.24446771 0.76361873 2.53285079
v -1.25817892 0.76369092 2.53297636
v -1.21050648 0.75064184 2.53473389
v -1.23286609 0.76345376 2.53190929
v -3.18659304 0.76369092 2.53297636
v -3.20389014 0.76363934 2.53287171
v -3.21380430 0.76355173 2.53270435
v -3.22540602 0.76298456 2.52887544
v -3.25430485 0.75484886 2.52268228
v -3.26063300 0.76270618 2.51100724
v -3.27307846 0.75691630 2.50609039
v -3.24903128 0.76362386 2.51565217
v -1.17127158 0.76390229 2.32958451
v -3.23869531 0.76369092 2.51709585
v -3.20389014 0.76384559 2.52391671
v -1.25817892 0.76389199 2.52391671
v -1.20628771 0.76389199 2.50655068
v -1.18877964 0.76389199 2.48918466
v -1.17148264 0.76389199 2.45443166
v -1.16199041 0.76369092 2.45443166
v -1.16135743 0.76369092 2.43704468
v -1.16135743 0.76369092 2.32958451
v -1.16009188 0.75430753 2.48755265
v -1.16241212 0.76362386 2.47179771
v -1.17148264 0.76382498 2.47179771
v -1.17295904 0.76367543 2.48755265
v -1.17970933 0.76362386 2.49841166
v -1.18540450 0.76004584 2.50998206
v -1.16810750 0.75977771 2.49223937
v -1.17338117 0.75412194 2.50447930
v -1.19700633 0.76362386 2.51554752
v -1.19025625 0.75447250 2.51908349
v -1.20628771 0.76369092 2.51632171
v -1.19025625 0.76373731 2.50512792
f 1 2 3
f 1 3 4
f 1 4 5
f 1 5 6
f 1 6 14
f 1 14 7
f 1 7 18
f 1 18 38
f 1 38 66
f 1 66 102
f 1 102 131
f 1 131 140
f 1 140 107
f 1 107 69
f 1 69 39
f 1 39 19
f 1 19 8
f 1 8 9
f 1 9 2
f 2 10 23
f 2 23 11
f 2 11 12
f 2 12 3
f 2 9 10
f 3 12 13
f 3 13 4
f 4 13 6
f 4 6 5
f 6 13 15
f 6 15 33
f 6 33 61
f 6 61 60
f 6 60 95
f 6 95 101
f 6 101 96
f 6 96 62
f 6 62 34
f 6 34 16
f 6 16 14
f 7 14 16
f 7 16 17
f 7 17 18
f 8 19 20
f 8 20 21
f 8 21 9
f 9 21 43
f 9 43 22
f 9 22 10
f 10 22 43
f 10 43 23
f 11 23 24
f 11 24 25
f 11 25 12
f 12 25 26
f 12 26 13
f 13 27 28
f 13 28 29
f 13 29 30
f 13 30 31
f 13 31 32
f 13 32 15
f 13 26 27
f 15 32 33
f 16 34 35
f 16 35 36
f 16 36 17
f 17 36 37
f 17 37 18
f 18 37 38
f 19 39 40
f 19 40 20
f 20 40 41
f 20 41 21
f 21 42 43
f 21 41 44
f 21 44 45
f 21 45 46
f 21 46 47
f 21 47 42
f 23 43 48
f 23 48 24
f 24 48 49
f 24 49 50
f 24 50 51
f 24 51 25
f 25 51 52
f 25 52 26
f 26 52 53
f 26 53 27
f 27 53 54
f 27 54 28
f 28 54 55
f 28 55 56
f 28 56 30
f 28 30 29
f 30 56 57
f 30 57 58
f 30 58 31
f 31 58 59
f 31 59 60
f 31 60 61
f 31 61 33
f 31 33 32
f 34 62 63
f 34 63 35
f 35 63 64
f 35 64 65
f 35 65 37
f 35 37 36
f 37 66 38
f 37 65 67
f 37 67 68
f 37 68 66
f 39 69 71
f 39 71 40
f 40 70 41
f 40 71 72
f 40 72 70
f 41 70 44
f 42 73 43
f 42 47 73
f 43 74 75
f 43 75 48
f 43 73 74
f 44 70 45
f 45 76 77
f 45 77 47
f 45 47 46
f 45 70 78
f 45 78 79
f 45 79 76
f 47 77 80
f 47 80 81
f 47 81 73
f 48 75 49
f 49 75 50
f 50 82 51
f 50 75 83
f 50 83 84
f 50 84 85
f 50 85 82
f 51 82 86
f 51 86 52
f 52 86 53
f 53 86 87
f 53 87 54
f 54 88 89
f 54 89 55
f 54 87 88
f 55 89 90
f 55 90 91
f 55 91 56
f 56 91 92
f 56 92 57
f 57 92 90
f 57 90 93
f 57 93 58
f 58 94 59
f 58 93 94
f 59 94 60
f 60 94 95
f 62 96 63
f 63 97 98
f 63 98 99
f 63 99 100
f 63 100 67
f 63 67 64
f 63 96 101
f 63 101 97
f 64 67 65
f 66 68 102
f 67 100 103
f 67 103 104
f 67 104 68
f 68 104 105
f 68 105 134
f 68 134 106
f 68 106 131
f 68 131 102
f 69 107 110
f 69 110 71
f 70 72 108
f 70 108 109
f 70 109 78
f 71 110 72
f 72 110 111
f 72 111 112
f 72 112 108
f 73 81 113
f 73 113 114
f 73 114 115
f 73 115 74
f 74 115 116
f 74 116 83
f 74 83 75
f 76 79 109
f 76 109 77
f 77 109 117
f 77 117 80
f 78 109 79
f 80 117 81
f 81 118 113
f 81 117 118
f 82 85 119
f 82 119 120
f 82 120 123
f 82 123 86
f 83 116 121
f 83 121 84
f 84 122 85
f 84 121 122
f 85 122 119
f 86 123 124
f 86 124 125
f 86 125 87
f 87 125 88
f 88 125 89
f 89 125 126
f 89 126 127
f 89 127 90
f 90 127 93
f 90 92 91
f 93 127 128
f 93 128 129
f 93 129 94
f 94 129 98
f 94 98 97
f 94 97 95
f 95 97 101
f 98 129 128
f 98 128 99
f 99 128 130
f 99 130 103
f 99 103 100
f 103 130 104
f 104 130 132
f 104 132 133
f 104 133 105
f 105 123 120
f 105 120 134
f 105 133 123
f 106 134 135
f 106 135 136
f 106 136 137
f 106 137 138
f 106 138 139
f 106 139 140
f 106 140 131
f 107 140 139
f 107 139 110
f 108 112 109
f 109 141 117
f 109 112 141
f 110 139 142
f 110 142 112
f 110 112 111
f 112 142 143
f 112 143 144
f 112 144 145
f 112 145 146
f 112 146 147
f 112 147 117
f 112 117 141
f 113 118 114
f 114 118 115
f 115 121 116
f 115 118 121
f 117 147 148
f 117 148 118
f 118 148 146
f 118 146 149
f 118 149 150
f 118 150 121
f 119 122 149
f 119 149 151
f 119 151 135
f 119 135 134
f 119 134 120
f 121 150 149
f 121 149 122
f 123 133 124
f 124 133 132
f 124 132 125
f 125 132 130
f 125 130 126
f 126 130 128
f 126 128 127
f 135 151 149
f 135 149 152
f 135 152 136
f 136 144 143
f 136 143 137
f 136 152 144
f 137 143 138
f 138 143 142
f 138 142 139
f 144 152 145
f 145 152 149
f 145 149 146
f 146 148 147

