# https://github.com/mikedh/trimesh
v -1.29809382 0.42415951 1.59535907
v -1.30014583 0.42344254 1.58460672
v -1.30183682 0.42841174 1.57810836
v -1.29891715 0.43147209 1.59522858
v -1.29888546 0.43136009 1.59535907
v -1.29820152 0.40786744 1.59535907
v -1.30145694 0.41531895 1.57681651
v -1.30145694 0.41682446 1.57681651
v -1.30316057 0.43147209 1.57591612
v -1.30224216 0.43147209 1.57956985
v -1.30039293 0.43147209 1.58779069
v -1.29956960 0.43147209 1.59194028
v -1.30989303 0.42467479 1.55092740
v -1.31857623 0.43147209 1.52584727
v -1.30748642 0.43147209 1.59535907
v -1.30012056 0.39622642 1.59535907
v -1.30060814 0.39699714 1.59003512
v -1.30196358 0.40374064 1.57844763
v -1.30019015 0.40863811 1.58481551
v -1.31015277 0.40730737 1.55092740
v -1.31621394 0.40682792 1.53195422
v -1.31617583 0.42577702 1.53186287
v -1.31891198 0.43147209 1.52493384
v -1.33209191 0.43147209 1.59535907
v -1.30334429 0.39384714 1.59535907
v -1.31464951 0.39324223 1.55092740
v -1.31687261 0.39553637 1.53667791
v -1.31900705 0.40071616 1.52511653
v -1.31872205 0.41229443 1.52456847
v -1.31872205 0.42071825 1.52456847
v -1.32268667 0.42577702 1.51774388
v -1.31940598 0.43147209 1.52404651
v -1.33836849 0.40024567 1.59535907
v -1.36279669 0.43147209 1.51163699
v -1.30957012 0.38978310 1.59535907
v -1.31214782 0.39219375 1.56829554
v -1.32756349 0.38650764 1.55092740
v -1.32590419 0.39119452 1.53195422
v -1.33014761 0.39270903 1.51617799
v -1.33376405 0.39527203 1.50354664
v -1.33233260 0.40730737 1.50126306
v -1.32277532 0.40682792 1.51774388
v -1.33227564 0.42467479 1.50117172
v -1.33294694 0.43147209 1.50224174
v -1.33836849 0.39292408 1.59535907
v -1.35422120 0.39918818 1.54440288
v -1.36279669 0.43147209 1.46331670
v -1.36279669 0.40209620 1.51402491
v -1.31787966 0.38702742 1.59535907
v -1.32756349 0.38604611 1.56829554
v -1.34492988 0.38601923 1.51617799
v -1.34412560 0.39123485 1.49818349
v -1.35031975 0.39536166 1.48142865
v -1.35346104 0.39837718 1.47259451
v -1.33843188 0.40730737 1.49257246
v -1.33827342 0.42467479 1.49249417
v -1.35135849 0.43147209 1.47504767
v -1.33519530 0.43147209 1.49884899
v -1.33253537 0.38900792 1.59535907
v -1.35422120 0.39636980 1.54440288
v -1.36279669 0.39317056 1.51402491
v -1.36279669 0.39277624 1.51334641
v -1.36279669 0.38768158 1.49832703
v -1.35326489 0.43147209 1.47239877
v -1.36279669 0.42603692 1.46224668
v -1.32756349 0.38594306 1.59535907
v -1.32756349 0.38569663 1.58567674
v -1.36279669 0.38872116 1.48086754
v -1.36230269 0.38873907 1.48142865
v -1.36279669 0.39503455 1.46819699
v -1.36230269 0.39524515 1.46837967
v -1.36279669 0.39546471 1.46766198
v -1.36279669 0.40530445 1.46283389
v -1.35310644 0.40730737 1.47224218
v -1.35303042 0.42467479 1.47216389
v -1.36279669 0.42467479 1.46206400
v -1.36279669 0.40602137 1.46278169
f 1 2 3
f 1 3 4
f 1 4 5
f 1 5 15
f 1 15 24
f 1 24 33
f 1 33 45
f 1 45 59
f 1 59 66
f 1 66 49
f 1 49 35
f 1 35 25
f 1 25 16
f 1 16 6
f 1 6 7
f 1 7 8
f 1 8 2
f 2 8 3
f 3 9 10
f 3 10 11
f 3 11 12
f 3 12 4
f 3 8 13
f 3 13 14
f 3 14 9
f 4 12 11
f 4 11 10
f 4 10 9
f 4 9 14
f 4 14 23
f 4 23 32
f 4 32 44
f 4 44 58
f 4 58 57
f 4 57 64
f 4 64 47
f 4 47 34
f 4 34 24
f 4 24 15
f 4 15 5
f 6 16 17
f 6 17 18
f 6 18 19
f 6 19 7
f 7 18 20
f 7 20 21
f 7 21 13
f 7 13 8
f 7 19 18
f 13 21 22
f 13 22 14
f 14 22 23
f 16 25 26
f 16 26 17
f 17 26 27
f 17 27 18
f 18 27 28
f 18 28 20
f 20 28 21
f 21 28 29
f 21 29 22
f 22 29 30
f 22 30 23
f 23 30 31
f 23 31 32
f 24 34 33
f 25 35 36
f 25 36 26
f 26 36 35
f 26 35 37
f 26 37 38
f 26 38 27
f 27 38 39
f 27 39 40
f 27 40 28
f 28 40 41
f 28 41 42
f 28 42 29
f 29 42 41
f 29 41 43
f 29 43 30
f 30 43 31
f 31 43 32
f 32 43 44
f 33 34 46
f 33 46 60
f 33 60 45
f 34 47 65
f 34 65 76
f 34 76 77
f 34 77 73
f 34 73 72
f 34 72 70
f 34 70 68
f 34 68 63
f 34 63 62
f 34 62 61
f 34 61 48
f 34 48 46
f 35 49 37
f 37 49 50
f 37 50 51
f 37 51 38
f 38 51 39
f 39 51 52
f 39 52 40
f 40 52 53
f 40 53 54
f 40 54 41
f 41 54 55
f 41 55 56
f 41 56 43
f 43 56 57
f 43 57 58
f 43 58 44
f 45 60 61
f 45 61 62
f 45 62 63
f 45 63 59
f 46 48 61
f 46 61 60
f 47 64 65
f 49 66 67
f 49 67 50
f 50 67 51
f 51 63 68
f 51 68 69
f 51 69 52
f 51 67 63
f 52 69 53
f 53 69 68
f 53 68 70
f 53 70 54
f 54 70 71
f 54 71 72
f 54 72 73
f 54 73 74
f 54 74 55
f 55 74 56
f 56 74 75
f 56 75 64
f 56 64 57
f 59 63 66
f 63 67 66
f 64 75 76
f 64 76 65
f 70 72 71
f 73 77 74
f 74 77 76
f 74 76 75

