# https://github.com/mikedh/trimesh
v -4.67372660 0.36018822 2.61769685
v -4.67372660 0.37458357 2.83309748
v -4.67372660 0.40114383 2.61769685
v -4.55450873 0.38435496 2.61769685
v -4.40096530 0.40310838 2.63456618
v -4.67372660 0.40306550 2.83309748
v -4.40083170 0.42977158 2.83311855
v -4.51636322 0.41550490 2.83311855
v -4.54192709 0.41241648 2.83311855
v -4.55450873 0.41089803 2.83311855
v -4.67372660 0.40267087 2.62819805
v -4.66354919 0.40786967 2.62819805
v -4.66413681 0.40542469 2.61769685
v -4.55450873 0.41782121 2.61769685
v -4.40083170 0.41677454 2.63456618
v -4.40083170 0.40716621 2.64557345
v -4.66354919 0.40878761 2.83309748
v -4.67372660 0.40355448 2.83276007
v -4.55450873 0.42697484 2.83311855
v -4.40083170 0.44698941 2.83311855
v -4.67372660 0.40279096 2.64217853
v -4.66354919 0.40864179 2.78453480
v -4.65174220 0.41405506 2.83309748
v -4.65147511 0.41400359 2.80193133
v -4.65128808 0.41396926 2.78453480
v -4.65013945 0.41366903 2.69769980
v -4.64979220 0.41362610 2.68034543
v -4.64111066 0.41677454 2.68034543
v -4.64837649 0.41354889 2.64557345
v -4.64514426 0.41410653 2.62737565
v -4.63646262 0.41586520 2.62102854
v -4.64573188 0.41158434 2.61769685
v -4.55931699 0.41777828 2.61769685
v -4.40296874 0.42352617 2.63456618
v -4.40083170 0.42353471 2.63456618
v -4.66354919 0.40871899 2.80193133
v -4.67372660 0.40351161 2.80193133
v -4.52191941 0.43408677 2.83311855
v -4.64303395 0.41730644 2.83309748
v -4.40083170 0.44783014 2.81924350
v -4.40099202 0.44783014 2.83311855
v -4.67372660 0.40345154 2.78453480
v -4.64279357 0.41720350 2.80193133
v -4.64260654 0.41714344 2.78453480
v -4.64193876 0.41698902 2.73242958
v -4.64145791 0.41687748 2.69769980
v -4.64052294 0.41660299 2.66294890
v -4.62879622 0.41955414 2.74980503
v -4.62879622 0.41933966 2.73242958
v -4.63966813 0.41639710 2.64557345
v -4.63865310 0.41618262 2.63262623
v -4.62489611 0.41631990 2.61873010
v -4.63403188 0.41459551 2.61769685
v -4.41955716 0.44783014 2.76739133
v -4.40208721 0.44783014 2.73323085
v -4.40083170 0.44783014 2.73255608
v -4.57668006 0.41752093 2.61769685
v -4.42970796 0.44783014 2.83311855
v -4.61143304 0.42295994 2.83309748
v -4.62879622 0.42012032 2.83309748
v -4.62879622 0.41969136 2.76718043
v -4.62879622 0.41908230 2.71507520
v -4.62879622 0.41880776 2.69769980
v -4.62879622 0.41850747 2.68034543
v -4.61143304 0.42275405 2.80193133
v -4.61143304 0.42257390 2.78453480
v -4.42449901 0.44783014 2.78453480
v -4.42014488 0.44783014 2.76935236
v -4.61143304 0.41674026 2.61784448
v -4.61143304 0.41667160 2.61769685
v -4.62567077 0.41571938 2.61769685
v -4.59406996 0.41722064 2.61769685
v -4.60798716 0.41681747 2.61769685
v -4.61143304 0.42287413 2.81930678
v -4.61143304 0.42230795 2.76718043
v -4.61143304 0.42202486 2.74980503
f 1 2 6
f 1 6 18
f 1 18 37
f 1 37 42
f 1 42 21
f 1 21 11
f 1 11 3
f 1 3 13
f 1 13 32
f 1 32 53
f 1 53 71
f 1 71 70
f 1 70 73
f 1 73 72
f 1 72 57
f 1 57 33
f 1 33 14
f 1 14 4
f 1 4 5
f 1 5 2
f 2 5 7
f 2 7 8
f 2 8 9
f 2 9 10
f 2 10 19
f 2 19 6
f 3 11 12
f 3 12 13
f 4 14 35
f 4 35 15
f 4 15 5
f 5 15 16
f 5 16 7
f 6 17 18
f 6 19 17
f 7 16 15
f 7 15 35
f 7 35 56
f 7 56 40
f 7 40 20
f 7 20 41
f 7 41 58
f 7 58 38
f 7 38 19
f 7 19 10
f 7 10 9
f 7 9 8
f 11 21 12
f 12 22 23
f 12 23 24
f 12 24 25
f 12 25 26
f 12 26 27
f 12 27 28
f 12 28 29
f 12 29 30
f 12 30 31
f 12 31 13
f 12 21 22
f 13 31 32
f 14 33 34
f 14 34 35
f 17 23 36
f 17 36 37
f 17 37 18
f 17 19 23
f 19 38 39
f 19 39 23
f 20 40 41
f 21 42 22
f 22 36 23
f 22 42 36
f 23 39 24
f 24 39 25
f 25 39 43
f 25 43 44
f 25 44 45
f 25 45 46
f 25 46 26
f 26 46 27
f 27 46 28
f 28 47 29
f 28 46 48
f 28 48 49
f 28 49 47
f 29 47 30
f 30 47 50
f 30 50 51
f 30 51 31
f 31 52 53
f 31 53 32
f 31 51 54
f 31 54 55
f 31 55 56
f 31 56 52
f 33 56 34
f 33 57 56
f 34 56 35
f 36 42 37
f 38 58 59
f 38 59 60
f 38 60 39
f 39 60 43
f 40 56 55
f 40 55 54
f 40 54 68
f 40 68 67
f 40 67 58
f 40 58 41
f 43 60 45
f 43 45 44
f 45 60 46
f 46 60 61
f 46 61 48
f 47 49 62
f 47 62 63
f 47 63 64
f 47 64 50
f 48 61 65
f 48 65 66
f 48 66 49
f 49 66 62
f 50 64 67
f 50 67 51
f 51 67 68
f 51 68 54
f 52 69 70
f 52 70 71
f 52 71 53
f 52 56 69
f 56 57 72
f 56 72 73
f 56 73 69
f 58 67 66
f 58 66 65
f 58 65 74
f 58 74 59
f 59 74 60
f 60 74 61
f 61 74 65
f 62 66 75
f 62 75 63
f 63 75 76
f 63 76 67
f 63 67 64
f 66 67 75
f 67 76 75
f 69 73 70

