# https://github.com/mikedh/trimesh
v -3.08248440 0.37255859 2.49188037
v -3.08248440 0.35828213 2.50188669
v -3.08248440 0.38502165 2.49458291
v -2.77320177 0.38991820 2.57000468
v -2.77320177 0.37256294 2.56703877
v -2.77320177 0.36954064 2.56763473
v -3.08248440 0.35756454 2.50389629
v -2.77320177 0.35915175 2.57518799
v -3.08248440 0.38991820 2.49570549
v -2.77320177 0.39966773 2.57751636
v -3.08248440 0.39444072 2.49851890
v -3.04766550 0.35581638 2.54130226
v -3.08248440 0.35759498 2.50532376
v -2.80447821 0.35773852 2.57669867
v -2.77320177 0.35888653 2.58134148
v -2.78709908 0.39984172 2.58091185
v -2.77320177 0.39972863 2.58134148
v -3.08248440 0.39991126 2.50701460
v -3.03028635 0.35566425 2.55869557
v -3.01290717 0.35572949 2.63346592
v -3.08248440 0.35830377 2.52349319
v -2.78310246 0.35852126 2.58134148
v -2.80447821 0.35773852 2.58134148
v -2.80650682 0.37255859 2.59923372
v -2.80650682 0.35773417 2.59198535
v -2.78709908 0.39984172 2.58134148
v -2.99610326 0.40008520 2.59288620
v -2.80650682 0.39984172 2.58770283
v -3.00573145 0.39985477 2.63346592
v -3.00285509 0.39955904 2.63346592
v -2.80650682 0.38991820 2.59495120
v -3.08248440 0.39987652 2.50923210
v -3.01354300 0.39990692 2.63346592
v -3.00058430 0.35928659 2.63346592
v -3.02407949 0.36032161 2.63346592
v -3.08248440 0.35966056 2.52422771
v -2.99679965 0.37255859 2.63346592
v -2.99758686 0.36880140 2.63346592
v -2.99907044 0.38992255 2.63346592
v -3.08248440 0.39957644 2.52192710
v -3.08103109 0.39964169 2.52278636
v -3.01678265 0.39971993 2.63346592
v -3.02519974 0.36440492 2.63346592
v -3.08248440 0.37255859 2.53119889
v -3.08248440 0.39183594 2.52806671
v -3.02220229 0.39910243 2.63346592
v -3.02653195 0.37255859 2.63346592
v -3.08248440 0.37864223 2.53033963
v -3.08248440 0.38991820 2.52869037
v -3.02450338 0.39048785 2.63346592
f 1 2 7
f 1 7 13
f 1 13 21
f 1 21 36
f 1 36 44
f 1 44 48
f 1 48 49
f 1 49 45
f 1 45 40
f 1 40 32
f 1 32 18
f 1 18 11
f 1 11 9
f 1 9 3
f 1 3 4
f 1 4 5
f 1 5 6
f 1 6 2
f 2 6 8
f 2 8 7
f 3 9 4
f 4 10 17
f 4 17 15
f 4 15 8
f 4 8 6
f 4 6 5
f 4 9 11
f 4 11 10
f 7 12 13
f 7 8 14
f 7 14 12
f 8 15 14
f 10 16 17
f 10 11 18
f 10 18 16
f 12 19 20
f 12 20 13
f 12 14 19
f 13 20 21
f 14 15 22
f 14 22 23
f 14 23 20
f 14 20 19
f 15 17 24
f 15 24 25
f 15 25 22
f 16 26 17
f 16 18 27
f 16 27 26
f 17 26 28
f 17 28 29
f 17 29 30
f 17 30 31
f 17 31 24
f 18 32 33
f 18 33 27
f 20 34 38
f 20 38 37
f 20 37 39
f 20 39 30
f 20 30 29
f 20 29 33
f 20 33 42
f 20 42 46
f 20 46 50
f 20 50 47
f 20 47 43
f 20 43 35
f 20 35 21
f 20 23 25
f 20 25 34
f 21 35 36
f 22 25 23
f 24 37 38
f 24 38 34
f 24 34 25
f 24 31 30
f 24 30 39
f 24 39 37
f 26 27 28
f 27 33 28
f 28 33 29
f 32 40 41
f 32 41 33
f 33 41 42
f 35 43 44
f 35 44 36
f 40 45 46
f 40 46 42
f 40 42 41
f 43 47 44
f 44 47 48
f 45 49 50
f 45 50 46
f 47 50 49
f 47 49 48

