# https://github.com/mikedh/trimesh
v -1.84315794 0.49418255 1.59534447
v -1.84158211 0.49418255 1.58566861
v -1.84013243 0.48396102 1.57692960
v -1.84313691 0.48746634 1.59534447
v -1.84315794 0.61578068 1.59534447
v -1.84013243 0.49418255 1.57690029
v -1.84158211 0.61578068 1.58566861
v -1.83733807 0.49418255 1.56821984
v -1.83160230 0.49418255 1.55091745
v -1.82565640 0.47683242 1.53367363
v -1.84006936 0.47235495 1.57726628
v -1.84124594 0.47762774 1.58410232
v -1.84305282 0.47715647 1.59534447
v -1.84313691 0.63316027 1.59534447
v -1.84013243 0.64323453 1.57692960
v -1.84013243 0.63316027 1.57690029
v -1.83733807 0.63316027 1.56821984
v -1.82271498 0.49418255 1.52490536
v -1.82269396 0.47683242 1.52497853
v -1.83160230 0.63316027 1.55091745
v -1.82473199 0.46378298 1.53635241
v -1.82517317 0.46378298 1.53768450
v -1.83576235 0.46378298 1.57132313
v -1.83864070 0.46378298 1.58186265
v -1.84011140 0.46378298 1.58743981
v -1.84101489 0.46555040 1.58885972
v -1.84252755 0.47070539 1.59534447
v -1.84298985 0.65018635 1.59534447
v -1.84120400 0.64962669 1.58413157
v -1.84004844 0.65484055 1.57732480
v -1.83681280 0.68529900 1.56829301
v -1.83706497 0.66791940 1.56829301
v -1.83782130 0.64962669 1.57000569
v -1.83153923 0.65053981 1.55091745
v -1.81821876 0.49418255 1.51618095
v -1.81817682 0.47683242 1.51618095
v -1.82271498 0.65053981 1.52490536
v -1.81544543 0.46378298 1.51618095
v -1.81657997 0.46378298 1.51839131
v -1.82567742 0.65053981 1.53358581
v -1.84074169 0.46378298 1.59093835
v -1.84154007 0.46407757 1.59534447
v -1.84273768 0.66791940 1.59534447
v -1.84135106 0.66791940 1.58654689
v -1.83996434 0.66791940 1.57785178
v -1.83983831 0.68529900 1.57924243
v -1.83042571 0.70267854 1.55091745
v -1.82523624 0.70267854 1.53446408
v -1.82244188 0.70267854 1.52578363
v -1.83114010 0.68529900 1.55091745
v -1.83137115 0.66791940 1.55091745
v -1.82267293 0.66791940 1.52506635
v -1.80954158 0.49418255 1.50107432
v -1.80952055 0.47683242 1.50110357
v -1.81821876 0.65053981 1.51618095
v -1.80811291 0.46378298 1.50327002
v -1.81027698 0.46378298 1.50706133
v -1.81813477 0.66791940 1.51618095
v -1.84143505 0.46378298 1.59534447
v -1.84177122 0.68529900 1.59534447
v -1.84097285 0.68529900 1.58792288
v -1.84048962 0.69475467 1.59074805
v -1.83481681 0.70267854 1.56829301
v -1.82426968 0.71543339 1.53720143
v -1.81647496 0.72002867 1.51618095
v -1.81767257 0.70267854 1.51618095
v -1.82256792 0.68529900 1.52538838
v -1.82548831 0.68529900 1.53408348
v -1.80388979 0.49418255 1.49239387
v -1.80954158 0.65053981 1.50107432
v -1.79645226 0.47683242 1.48142984
v -1.78893054 0.46590392 1.47165151
v -1.79664127 0.49418255 1.48142984
v -1.80949953 0.66791940 1.50113288
v -1.79023316 0.46378298 1.47495975
v -1.80939452 0.68529900 1.50127927
v -1.77523196 0.46378298 1.59534447
v -1.84057361 0.69484301 1.59534447
v -1.82784149 0.71646442 1.56829301
v -1.82628669 0.71740701 1.55091745
v -1.82124427 0.72073565 1.53226838
v -1.80882719 0.72002867 1.50198190
v -1.81038200 0.73431528 1.51618095
v -1.80741956 0.73192928 1.50410444
v -1.80926848 0.70267854 1.50146957
v -1.80388979 0.65053981 1.49239387
v -1.80384785 0.66791940 1.49243778
v -1.78941376 0.47683242 1.47110987
v -1.76836154 0.47683242 1.44581501
v -1.76691186 0.46378298 1.44581501
v -1.78842628 0.46378298 1.47231023
v -1.78943479 0.49418255 1.47109522
v -1.79664127 0.65053981 1.48142984
v -1.80376376 0.68529900 1.49258417
v -1.62853864 0.46378298 1.45089450
v -1.78048450 0.64084853 1.59534447
v -1.83866172 0.69775926 1.59534447
v -1.82641272 0.71401949 1.58566861
v -1.81233593 0.73407962 1.53354190
v -1.78867846 0.73204713 1.47194423
v -1.80336462 0.72002867 1.49330140
v -1.79124166 0.74804223 1.49880539
v -1.78970799 0.74745306 1.48587981
v -1.78724980 0.74362369 1.47428638
v -1.79577993 0.72002867 1.48142984
v -1.80363772 0.70267854 1.49277446
v -1.79657830 0.66791940 1.48142984
v -1.79641022 0.68529900 1.48142984
v -1.76855065 0.49418255 1.44581501
v -1.62853864 0.46378298 1.44581501
v -1.76859270 0.52894169 1.44581501
v -1.78943479 0.65053981 1.47109522
v -1.78941376 0.66791940 1.47110987
v -1.79617906 0.70267854 1.48142984
v -1.62853864 0.47515340 1.44581501
v -1.63547203 0.66791940 1.44581501
v -1.78109377 0.65053981 1.59534447
v -1.82418569 0.71222261 1.59534447
v -1.80981467 0.73116342 1.55091745
v -1.79668331 0.74020666 1.53354190
v -1.79063240 0.74733526 1.51192122
v -1.77037855 0.74459574 1.45565190
v -1.77121897 0.73301918 1.45478823
v -1.78029540 0.72002867 1.46279536
v -1.78907760 0.72002867 1.47147581
v -1.77930792 0.75178327 1.49880539
v -1.78058952 0.75087009 1.48062473
v -1.77567314 0.74939726 1.46723074
v -1.78932977 0.68529900 1.47119769
v -1.76859270 0.53327184 1.44581501
v -1.76857167 0.54632128 1.44581501
v -1.76842461 0.58108042 1.44581501
v -1.76850860 0.56370088 1.44581501
v -1.63582922 0.67239688 1.44581501
v -1.63692181 0.68529900 1.44581501
v -1.78189214 0.65822807 1.59534447
v -1.82340834 0.71242880 1.59534447
v -1.80660016 0.72913088 1.56056405
v -1.80332258 0.72913088 1.56056405
v -1.77930792 0.74827784 1.51298984
v -1.76121813 0.73885168 1.44581501
v -1.75880189 0.75033985 1.44985518
v -1.75674294 0.74804223 1.44581501
v -1.76132315 0.73787958 1.44581501
v -1.76647068 0.67004034 1.44581501
v -1.76737406 0.65333826 1.44581501
v -1.76771023 0.63634159 1.44581501
v -1.76798343 0.61925658 1.44581501
v -1.76193241 0.75673201 1.48142984
v -1.73594279 0.76350709 1.45525665
v -1.73340061 0.76247611 1.44581501
v -1.76821448 0.60220104 1.44581501
v -1.76825653 0.59843055 1.44581501
v -1.64227937 0.70259020 1.44581501
v -1.78785907 0.69413609 1.59534447
v -1.78615720 0.68529900 1.59534447
v -1.78451841 0.67622625 1.59534447
v -1.78323681 0.66809614 1.59534447
v -1.81405871 0.71313578 1.59534447
v -1.81405871 0.71746593 1.58566861
v -1.77930792 0.74424228 1.52165563
v -1.80363772 0.71228154 1.59534447
v -1.76693288 0.74774765 1.51038423
v -1.71791608 0.76362495 1.45565190
v -1.74088019 0.75811650 1.44581501
v -1.72720264 0.76359543 1.45565190
v -1.73594279 0.76350709 1.45546160
v -1.72709752 0.76403734 1.44836205
v -1.72596298 0.76406675 1.44581501
v -1.64679651 0.71378383 1.44581501
v -1.65192302 0.72556658 1.44581501
v -1.65732272 0.73740826 1.44581501
v -1.78830025 0.69478409 1.59534447
v -1.79456129 0.70385684 1.59534447
v -1.66385687 0.74539111 1.44581501
v -1.67589573 0.75419868 1.44581501
v -1.68866990 0.76009011 1.44581501
v -1.69873381 0.76338924 1.44581501
v -1.70913378 0.76465592 1.44581501
v -1.71119283 0.76462646 1.44645912
v -1.71049947 0.76468533 1.44581501
v -1.72474445 0.76415514 1.44581501
f 1 2 3
f 1 3 4
f 1 4 13
f 1 13 27
f 1 27 42
f 1 42 59
f 1 59 77
f 1 77 96
f 1 96 117
f 1 117 136
f 1 136 158
f 1 158 157
f 1 157 156
f 1 156 155
f 1 155 173
f 1 173 174
f 1 174 162
f 1 162 159
f 1 159 137
f 1 137 118
f 1 118 97
f 1 97 78
f 1 78 60
f 1 60 43
f 1 43 28
f 1 28 14
f 1 14 5
f 1 5 7
f 1 7 2
f 2 6 3
f 2 7 16
f 2 16 6
f 3 6 8
f 3 8 9
f 3 9 10
f 3 10 11
f 3 11 12
f 3 12 4
f 4 12 13
f 5 14 15
f 5 15 7
f 6 16 17
f 6 17 8
f 7 15 16
f 8 17 20
f 8 20 9
f 9 18 19
f 9 19 10
f 9 20 37
f 9 37 18
f 10 19 11
f 11 19 21
f 11 21 22
f 11 22 23
f 11 23 24
f 11 24 25
f 11 25 26
f 11 26 27
f 11 27 13
f 11 13 12
f 14 28 15
f 15 17 16
f 15 28 29
f 15 29 30
f 15 30 31
f 15 31 32
f 15 32 33
f 15 33 17
f 17 33 34
f 17 34 20
f 18 35 36
f 18 36 19
f 18 37 55
f 18 55 35
f 19 36 38
f 19 38 39
f 19 39 21
f 20 34 40
f 20 40 37
f 21 39 38
f 21 38 57
f 21 57 56
f 21 56 75
f 21 75 91
f 21 91 90
f 21 90 110
f 21 110 95
f 21 95 77
f 21 77 59
f 21 59 41
f 21 41 25
f 21 25 24
f 21 24 23
f 21 23 22
f 25 41 26
f 26 41 42
f 26 42 27
f 28 43 44
f 28 44 45
f 28 45 30
f 28 30 29
f 30 45 31
f 31 46 47
f 31 47 48
f 31 48 49
f 31 49 50
f 31 50 32
f 31 45 46
f 32 50 51
f 32 51 33
f 33 51 34
f 34 51 52
f 34 52 40
f 35 53 54
f 35 54 36
f 35 55 70
f 35 70 53
f 36 54 56
f 36 56 57
f 36 57 38
f 37 40 52
f 37 52 58
f 37 58 55
f 41 59 42
f 43 60 61
f 43 61 46
f 43 46 44
f 44 46 45
f 46 61 62
f 46 62 63
f 46 63 47
f 47 63 64
f 47 64 48
f 48 64 49
f 49 64 65
f 49 65 66
f 49 66 67
f 49 67 68
f 49 68 50
f 50 68 51
f 51 68 67
f 51 67 52
f 52 67 66
f 52 66 58
f 53 69 54
f 53 70 86
f 53 86 69
f 54 71 72
f 54 72 56
f 54 69 73
f 54 73 71
f 55 58 74
f 55 74 70
f 56 72 75
f 58 76 74
f 58 66 76
f 60 78 62
f 60 62 61
f 62 78 79
f 62 79 80
f 62 80 63
f 63 80 64
f 64 80 81
f 64 81 65
f 65 82 66
f 65 81 83
f 65 83 84
f 65 84 82
f 66 82 85
f 66 85 76
f 69 86 93
f 69 93 73
f 70 74 87
f 70 87 86
f 71 88 72
f 71 73 88
f 72 88 89
f 72 89 90
f 72 90 91
f 72 91 75
f 73 92 88
f 73 93 112
f 73 112 92
f 74 76 94
f 74 94 87
f 76 85 106
f 76 106 94
f 77 95 96
f 78 97 79
f 79 97 98
f 79 98 99
f 79 99 80
f 80 99 83
f 80 83 81
f 82 84 100
f 82 100 101
f 82 101 85
f 83 99 102
f 83 102 103
f 83 103 84
f 84 103 104
f 84 104 100
f 85 101 105
f 85 105 106
f 86 87 107
f 86 107 93
f 87 94 108
f 87 108 107
f 88 92 109
f 88 109 89
f 89 109 111
f 89 111 130
f 89 130 131
f 89 131 133
f 89 133 132
f 89 132 153
f 89 153 152
f 89 152 148
f 89 148 147
f 89 147 146
f 89 146 145
f 89 145 144
f 89 144 141
f 89 141 143
f 89 143 165
f 89 165 151
f 89 151 169
f 89 169 182
f 89 182 181
f 89 181 179
f 89 179 178
f 89 178 177
f 89 177 176
f 89 176 175
f 89 175 172
f 89 172 171
f 89 171 170
f 89 170 154
f 89 154 135
f 89 135 134
f 89 134 116
f 89 116 115
f 89 115 110
f 89 110 90
f 92 111 109
f 92 112 130
f 92 130 111
f 93 107 113
f 93 113 112
f 94 106 114
f 94 114 108
f 95 110 115
f 95 115 116
f 95 116 96
f 96 116 117
f 97 118 98
f 98 118 119
f 98 119 99
f 99 119 120
f 99 120 121
f 99 121 102
f 100 104 122
f 100 122 123
f 100 123 124
f 100 124 125
f 100 125 105
f 100 105 101
f 102 121 126
f 102 126 127
f 102 127 103
f 103 127 128
f 103 128 104
f 104 128 122
f 105 125 114
f 105 114 106
f 107 108 129
f 107 129 113
f 108 114 125
f 108 125 129
f 112 113 131
f 112 131 130
f 113 129 132
f 113 132 133
f 113 133 131
f 116 134 117
f 117 134 135
f 117 135 136
f 118 137 138
f 118 138 119
f 119 138 120
f 120 138 139
f 120 139 140
f 120 140 121
f 121 140 126
f 122 141 123
f 122 128 142
f 122 142 143
f 122 143 141
f 123 141 144
f 123 144 145
f 123 145 124
f 124 145 125
f 125 145 146
f 125 146 147
f 125 147 148
f 125 148 129
f 126 140 149
f 126 149 127
f 127 149 150
f 127 150 151
f 127 151 128
f 128 151 142
f 129 148 152
f 129 152 153
f 129 153 132
f 135 154 155
f 135 155 156
f 135 156 157
f 135 157 158
f 135 158 136
f 137 159 160
f 137 160 138
f 138 160 159
f 138 159 139
f 139 161 140
f 139 159 162
f 139 162 161
f 140 161 163
f 140 163 164
f 140 164 149
f 142 151 165
f 142 165 143
f 149 164 166
f 149 166 167
f 149 167 150
f 150 167 168
f 150 168 169
f 150 169 151
f 154 170 155
f 155 170 171
f 155 171 172
f 155 172 173
f 161 162 163
f 162 174 175
f 162 175 176
f 162 176 177
f 162 177 178
f 162 178 164
f 162 164 163
f 164 178 179
f 164 179 180
f 164 180 166
f 166 180 167
f 167 180 181
f 167 181 168
f 168 181 182
f 168 182 169
f 172 175 174
f 172 174 173
f 179 181 180

