# https://github.com/mikedh/trimesh
v -4.67536736 0.08265574 2.58929569
v -4.66647207 0.08265574 2.59428405
v -4.67536736 0.08265574 2.61304166
v -4.67536736 0.16401248 2.58846656
v -4.67505594 0.16848187 2.58788645
v -4.64721823 0.16848187 2.59906444
v -4.66318734 0.08265574 2.59670298
v -4.66318734 0.08265574 2.60687123
v -4.64721823 0.16848187 2.60470406
v -4.65725987 0.16848187 2.60907947
v -4.67301957 0.16848187 2.61532653
v -4.67536736 0.16848187 2.61583824
f 1 2 7
f 1 7 8
f 1 8 3
f 1 3 12
f 1 12 4
f 1 4 5
f 1 5 6
f 1 6 2
f 2 6 7
f 3 8 9
f 3 9 10
f 3 10 11
f 3 11 12
f 4 12 5
f 5 12 11
f 5 11 10
f 5 10 9
f 5 9 6
f 6 9 8
f 6 8 7

