# https://github.com/mikedh/trimesh
v -1.33886498 0.37255869 2.46193244
v -1.33839666 0.38609540 2.46193244
v -1.33725415 0.36597878 2.46193244
v -1.47285134 0.37255869 2.56877569
v -1.33819078 0.39116251 2.46193244
v -1.33614892 0.36276996 2.46193244
v -1.33699193 0.36293224 2.46243503
v -1.47285134 0.35854559 2.57698088
v -1.47285134 0.37885589 2.57017825
v -1.33435064 0.39514081 2.46193244
v -1.47285134 0.38992193 2.57270298
v -1.32655850 0.35885442 2.46193244
v -1.34364154 0.35989617 2.47283770
v -1.45005511 0.35583927 2.58132895
v -1.47285134 0.35843571 2.57978611
v -1.32756991 0.35573985 2.47180910
v -1.32670826 0.40086229 2.46193244
v -1.47285134 0.39352335 2.57563673
v -1.47285134 0.39984151 2.58091988
v -1.30971884 0.35598063 2.46193244
v -1.43237264 0.35783898 2.58132895
v -1.31020580 0.38637285 2.58134066
v -1.47285134 0.35837813 2.58132895
v -1.34493402 0.35568227 2.48918968
v -1.31975893 0.40566242 2.46193244
v -1.47285134 0.39984151 2.58132895
v -1.31520710 0.40915914 2.58134066
v -1.31335268 0.40915914 2.46193244
v -1.29664434 0.35916853 2.46193244
v -1.29638212 0.39244500 2.58134066
v -1.32610883 0.39253401 2.58134066
v -1.32610883 0.40149563 2.58134066
v -1.31758616 0.40754163 2.58134066
v -1.29124950 0.40915914 2.58134066
v -1.28149048 0.40915914 2.46193244
v -1.29205502 0.36874268 2.46193244
v -1.29031308 0.37255869 2.46193244
v -1.29282305 0.40276766 2.58134066
v -1.29130584 0.40729562 2.58134066
f 1 2 5
f 1 5 10
f 1 10 17
f 1 17 25
f 1 25 28
f 1 28 35
f 1 35 37
f 1 37 36
f 1 36 29
f 1 29 20
f 1 20 12
f 1 12 6
f 1 6 3
f 1 3 4
f 1 4 2
f 2 4 5
f 3 6 7
f 3 7 4
f 4 8 15
f 4 15 23
f 4 23 26
f 4 26 19
f 4 19 18
f 4 18 11
f 4 11 9
f 4 9 5
f 4 7 8
f 5 9 11
f 5 11 10
f 6 12 13
f 6 13 8
f 6 8 7
f 8 14 15
f 8 13 12
f 8 12 16
f 8 16 14
f 10 11 18
f 10 18 19
f 10 19 17
f 12 20 16
f 14 21 22
f 14 22 23
f 14 23 15
f 14 16 24
f 14 24 20
f 14 20 21
f 16 20 24
f 17 19 25
f 19 26 27
f 19 27 28
f 19 28 25
f 20 29 22
f 20 22 21
f 22 29 30
f 22 30 38
f 22 38 39
f 22 39 34
f 22 34 27
f 22 27 33
f 22 33 32
f 22 32 31
f 22 31 23
f 23 31 32
f 23 32 26
f 26 32 33
f 26 33 27
f 27 34 35
f 27 35 28
f 29 36 30
f 30 36 37
f 30 37 38
f 34 39 35
f 35 39 37
f 37 39 38

