# https://github.com/mikedh/trimesh
v -2.47477309 0.63174580 1.75987507
v -2.47431088 0.63174580 1.75985897
v -2.47431088 0.63920942 1.74555882
v -2.48606122 0.64346983 1.73662124
v -2.48642152 0.63174580 1.75435148
v -2.50110162 0.39723295 1.72974493
v -2.49167784 0.39024976 1.72974493
v -2.48660172 0.38874420 1.72974493
v -2.47430306 0.38544481 1.72974493
v -2.47368422 0.63174580 1.75940805
v -2.46455032 0.64257286 1.73478542
v -2.47084844 0.38746286 1.72974493
v -2.46274857 0.39242801 1.72974493
v -2.42325973 0.44044532 1.72974493
v -2.42325973 0.45751883 1.72974493
v -2.46361809 0.67771296 1.66616730
v -2.47431088 0.64359794 1.73687891
v -2.50052974 0.64212443 1.71665258
v -2.49181884 0.63174580 1.75092137
v -2.47431088 0.66099182 1.70220749
v -2.48555987 0.66067145 1.70161167
v -2.49178752 0.64564803 1.72330342
v -2.50248813 0.40732327 1.72974493
v -2.50154026 0.40024402 1.72974493
v -2.50106242 0.39729701 1.72467225
v -2.49167784 0.39031381 1.72467225
v -2.47430306 0.38624562 1.60305667
v -2.45637992 0.39079429 1.59537517
v -2.46021835 0.63174580 1.74647673
v -2.44649398 0.69584359 1.61482853
v -2.45095126 0.71032247 1.59537517
v -2.44788837 0.39713685 1.59537517
v -2.42325973 0.43945230 1.61936979
v -2.44477845 0.59881596 1.72974493
v -2.42325973 0.46773736 1.59537517
v -2.42950301 0.63315519 1.59537517
v -2.43023940 0.65183042 1.59537517
v -2.43374882 0.67697621 1.59537517
v -2.46084501 0.71266084 1.59537517
v -2.46306977 0.69504279 1.63136708
v -2.48451797 0.67755280 1.66597405
v -2.48729104 0.67998732 1.65520063
v -2.48479997 0.69574749 1.62044872
v -2.48649204 0.69872655 1.60307278
v -2.49549277 0.66791091 1.65520063
v -2.49703597 0.66791091 1.63782469
v -2.50085876 0.64305340 1.70728020
v -2.50137575 0.63270676 1.72330342
v -2.50133661 0.63174580 1.72616991
v -2.50128177 0.63052851 1.72974493
v -2.49953491 0.63174580 1.73575162
v -2.49500710 0.63174580 1.74571986
v -2.46136206 0.71227646 1.59629311
v -2.47431088 0.67816144 1.66716573
v -2.47431088 0.68383124 1.65520063
v -2.46822424 0.71227646 1.59629311
v -2.50240197 0.40732327 1.72467225
v -2.50082744 0.39771338 1.70729630
v -2.50327931 0.49419648 1.72974493
v -2.50327149 0.49419648 1.72467225
v -2.50300512 0.49419648 1.70729630
v -2.49167784 0.39079429 1.70729630
v -2.49040882 0.39207564 1.65520063
v -2.48840342 0.39242801 1.62044872
v -2.48754171 0.39268423 1.60305667
v -2.47430306 0.38656600 1.59537517
v -2.45887099 0.63174580 1.74299833
v -2.44884405 0.65743617 1.67925964
v -2.44147270 0.70096886 1.59537517
v -2.44673684 0.61140485 1.72974493
v -2.44719118 0.61390343 1.72974493
v -2.44875789 0.62197575 1.72974493
v -2.45137427 0.62732523 1.72974493
v -2.42325973 0.43929214 1.59537517
v -2.43529984 0.68527274 1.59537517
v -2.46702569 0.71266084 1.59537517
v -2.48313927 0.69408177 1.62940242
v -2.47710747 0.70840049 1.59537517
v -2.48284945 0.70465267 1.59537517
v -2.48611606 0.70061648 1.59537517
v -2.49546144 0.66791091 1.62044872
v -2.49833637 0.65054908 1.63782469
v -2.49981691 0.64894742 1.65681102
v -2.49970724 0.65256717 1.67259270
v -2.49139584 0.68527274 1.60307278
v -2.50194763 0.63315519 1.70728020
v -2.50095275 0.64468706 1.68988813
v -2.50268397 0.61576136 1.72974493
v -2.50310698 0.59839953 1.72974493
v -2.50326367 0.58103770 1.72974493
v -2.50327149 0.56367586 1.72974493
v -2.46867075 0.71240462 1.59537517
v -2.50280146 0.47683470 1.70729630
v -2.50190843 0.40732327 1.70729630
v -2.50058458 0.39819392 1.69336655
v -2.49120782 0.39188342 1.67254439
v -2.50327149 0.56367586 1.72467225
v -2.50229229 0.49419648 1.68992034
v -2.50039656 0.41561981 1.66342967
v -2.50300512 0.58103770 1.70729630
v -2.50032608 0.39899473 1.68178794
v -2.48693074 0.39322882 1.59537517
v -2.43802594 0.69308875 1.59537517
v -2.47206267 0.71080296 1.59537517
v -2.49063599 0.68527274 1.59537517
v -2.49293122 0.66791091 1.60307278
v -2.49591577 0.65054908 1.62044872
v -2.49860268 0.63315519 1.63782469
v -2.50002057 0.63174580 1.65339702
v -2.50001275 0.63315519 1.65355806
v -2.50060027 0.64385420 1.67259270
v -2.50038092 0.64209238 1.66365511
v -2.50174392 0.63315519 1.68988813
v -2.50201811 0.63174580 1.70728020
v -2.50281715 0.61576136 1.72467225
v -2.50313048 0.59839953 1.72467225
v -2.50326367 0.58103770 1.72467225
v -2.50110162 0.40581776 1.68851933
v -2.50067074 0.41164772 1.67254439
v -2.50132092 0.49419648 1.67254439
v -2.50229229 0.58103770 1.68992034
v -2.49238285 0.40732327 1.60305667
v -2.49989521 0.40296681 1.67254439
v -2.50011455 0.49419648 1.65101366
v -2.49875937 0.49419648 1.63782469
v -2.49844604 0.47683470 1.63782469
v -2.50292683 0.59839953 1.70729630
v -2.50226878 0.59839953 1.68992034
v -2.48962547 0.40136514 1.59537517
v -2.49171699 0.66791091 1.59537517
v -2.49317403 0.65054908 1.60307278
v -2.49614294 0.63315519 1.62044872
v -2.49873586 0.61576136 1.63782469
v -2.50009105 0.61576136 1.65162561
v -2.50121124 0.61576136 1.67254439
v -2.50210427 0.61576136 1.68992034
v -2.50045927 0.63315519 1.66225410
v -2.50177530 0.63174580 1.68988813
v -2.50269966 0.61576136 1.70729630
v -2.50132092 0.59839953 1.67254439
v -2.49127834 0.40732327 1.59537517
v -2.50011455 0.59839953 1.65101366
v -2.49875937 0.59839953 1.63782469
v -2.49623697 0.49419648 1.62044872
v -2.49194421 0.65054908 1.59537517
v -2.49333854 0.63315519 1.60307278
v -2.49324455 0.63171374 1.60242864
v -2.49615081 0.63171374 1.62044872
v -2.49623697 0.61576136 1.62044872
v -2.49138802 0.41702926 1.59537517
v -2.49339337 0.49419648 1.60305667
v -2.49208521 0.48650859 1.59537517
v -2.49209303 0.63315519 1.59537517
v -2.49210085 0.63174580 1.59537517
v -2.49339337 0.61576136 1.60305667
v -2.49213218 0.49419648 1.59537517
v -2.49213218 0.61576136 1.59537517
f 1 2 3
f 1 3 4
f 1 4 5
f 1 5 6
f 1 6 7
f 1 7 8
f 1 8 9
f 1 9 2
f 2 10 11
f 2 11 3
f 2 9 12
f 2 12 13
f 2 13 14
f 2 14 15
f 2 15 10
f 3 11 16
f 3 16 17
f 3 17 4
f 4 18 19
f 4 19 5
f 4 17 20
f 4 20 21
f 4 21 22
f 4 22 18
f 5 19 23
f 5 23 24
f 5 24 6
f 6 24 25
f 6 25 26
f 6 26 7
f 7 26 27
f 7 27 8
f 8 27 9
f 9 27 28
f 9 28 12
f 10 29 11
f 10 15 29
f 11 29 30
f 11 30 31
f 11 31 16
f 12 28 13
f 13 28 32
f 13 32 14
f 14 33 74
f 14 74 35
f 14 35 15
f 14 32 33
f 15 34 29
f 15 35 36
f 15 36 37
f 15 37 38
f 15 38 34
f 16 31 39
f 16 39 40
f 16 40 20
f 16 20 17
f 18 22 21
f 18 21 41
f 18 41 42
f 18 42 43
f 18 43 44
f 18 44 45
f 18 45 46
f 18 46 47
f 18 47 48
f 18 48 49
f 18 49 50
f 18 50 51
f 18 51 52
f 18 52 19
f 19 52 23
f 20 40 53
f 20 53 54
f 20 54 21
f 21 54 55
f 21 55 56
f 21 56 41
f 23 57 58
f 23 58 25
f 23 25 24
f 23 52 59
f 23 59 60
f 23 60 61
f 23 61 57
f 25 58 62
f 25 62 26
f 26 62 27
f 27 62 63
f 27 63 64
f 27 64 65
f 27 65 66
f 27 66 28
f 28 66 102
f 28 102 129
f 28 129 141
f 28 141 150
f 28 150 152
f 28 152 156
f 28 156 157
f 28 157 154
f 28 154 153
f 28 153 145
f 28 145 130
f 28 130 105
f 28 105 80
f 28 80 79
f 28 79 78
f 28 78 104
f 28 104 92
f 28 92 76
f 28 76 39
f 28 39 31
f 28 31 69
f 28 69 103
f 28 103 75
f 28 75 38
f 28 38 37
f 28 37 36
f 28 36 35
f 28 35 74
f 28 74 32
f 29 67 68
f 29 68 69
f 29 69 30
f 29 34 70
f 29 70 71
f 29 71 72
f 29 72 73
f 29 73 67
f 30 69 31
f 32 74 33
f 34 38 70
f 38 75 71
f 38 71 70
f 39 76 56
f 39 56 53
f 39 53 40
f 41 56 77
f 41 77 42
f 42 77 43
f 43 77 78
f 43 78 79
f 43 79 44
f 44 79 80
f 44 80 46
f 44 46 45
f 46 81 82
f 46 82 83
f 46 83 84
f 46 84 47
f 46 80 85
f 46 85 81
f 47 86 48
f 47 84 87
f 47 87 86
f 48 86 88
f 48 88 49
f 49 88 50
f 50 88 51
f 51 88 52
f 52 88 89
f 52 89 90
f 52 90 91
f 52 91 59
f 53 56 54
f 54 56 55
f 56 76 92
f 56 92 77
f 57 61 93
f 57 93 94
f 57 94 95
f 57 95 58
f 58 95 63
f 58 63 96
f 58 96 62
f 59 91 97
f 59 97 60
f 60 97 100
f 60 100 61
f 61 98 99
f 61 99 93
f 61 100 121
f 61 121 98
f 62 96 63
f 63 95 65
f 63 65 64
f 65 95 101
f 65 101 102
f 65 102 66
f 67 73 68
f 68 73 72
f 68 72 69
f 69 72 103
f 71 75 72
f 72 75 103
f 77 92 104
f 77 104 78
f 80 105 85
f 81 106 107
f 81 107 82
f 81 85 105
f 81 105 106
f 82 107 108
f 82 108 109
f 82 109 110
f 82 110 83
f 83 111 87
f 83 87 84
f 83 110 112
f 83 112 113
f 83 113 111
f 86 87 113
f 86 113 114
f 86 114 115
f 86 115 88
f 87 111 113
f 88 115 89
f 89 116 90
f 89 115 116
f 90 117 97
f 90 97 91
f 90 116 117
f 93 99 94
f 94 118 101
f 94 101 95
f 94 99 119
f 94 119 118
f 97 117 100
f 98 120 99
f 98 121 140
f 98 140 120
f 99 122 123
f 99 123 101
f 99 101 119
f 99 120 124
f 99 124 125
f 99 125 126
f 99 126 122
f 100 117 127
f 100 127 128
f 100 128 121
f 101 129 102
f 101 118 119
f 101 123 122
f 101 122 129
f 105 130 106
f 106 130 107
f 107 130 131
f 107 131 132
f 107 132 108
f 108 132 133
f 108 133 134
f 108 134 109
f 109 134 135
f 109 135 110
f 110 135 136
f 110 136 137
f 110 137 112
f 112 138 113
f 112 137 136
f 112 136 138
f 113 138 139
f 113 139 114
f 114 139 115
f 115 139 116
f 116 127 117
f 116 139 127
f 120 140 142
f 120 142 124
f 121 128 140
f 122 141 129
f 122 126 125
f 122 125 141
f 124 142 143
f 124 143 125
f 125 143 149
f 125 149 144
f 125 144 141
f 127 139 136
f 127 136 128
f 128 136 135
f 128 135 134
f 128 134 140
f 130 145 131
f 131 145 132
f 132 145 146
f 132 146 147
f 132 147 148
f 132 148 133
f 133 148 149
f 133 149 143
f 133 143 142
f 133 142 134
f 134 142 140
f 136 139 138
f 141 144 150
f 144 149 155
f 144 155 151
f 144 151 152
f 144 152 150
f 145 153 146
f 146 153 147
f 147 149 148
f 147 153 154
f 147 154 149
f 149 154 155
f 151 156 152
f 151 155 157
f 151 157 156
f 154 157 155

