# https://github.com/mikedh/trimesh
v -3.61261447 0.61833627 3.36370162
v -4.11571246 0.59686813 3.36373165
v -3.61261447 0.63470156 3.36370162
v -3.54478413 0.59963308 3.36370162
v -4.11571246 0.65136361 3.36373165
v -3.68770232 0.59686813 3.36373165
v -4.11571246 0.59686813 3.44303348
v -4.47114700 0.59820716 3.37996485
v -3.67197760 0.65136361 3.36373165
v -3.60954396 0.63468706 3.36370162
v -3.52059228 0.59963308 3.36370162
v -4.47114700 0.67081230 3.37996485
v -3.68779537 0.59686813 3.41011628
v -3.52059228 0.59963308 3.44486718
v -4.47105390 0.59975611 3.67068792
v -4.47114700 0.59820716 3.44330399
v -3.81443055 0.59686813 3.45256290
v -4.11571246 0.59946660 3.67080816
v -4.11571246 0.67081230 3.37996485
v -3.67197760 0.65136361 3.37536538
v -3.56897604 0.63391261 3.46224268
v -3.56897604 0.63387641 3.36370162
v -3.58637557 0.63431790 3.36370162
v -3.59214441 0.63443374 3.36370162
v -3.60377513 0.63465811 3.36370162
v -3.52245321 0.60585057 3.36370162
v -4.47114700 0.67081230 3.46542913
v -3.69012152 0.59686813 3.42619910
v -3.52068533 0.59963308 3.46224268
v -3.52161580 0.59963308 3.53168432
v -3.52291842 0.59963308 3.61856152
v -3.52431410 0.59963308 3.63100698
v -3.52356973 0.60952750 3.44486718
v -4.47114700 0.61581739 3.66726090
v -4.47114700 0.59975611 3.65319218
v -3.81173220 0.59686813 3.45256290
v -3.69067980 0.59946660 3.67080816
v -4.11571246 0.60754431 3.66906456
v -4.11571246 0.67081230 3.46542913
v -3.67225675 0.65136361 3.39274088
v -3.56897604 0.63360135 3.61856152
v -3.56897604 0.63378232 3.53168432
v -3.56897604 0.63388366 3.47961808
v -3.55157651 0.62987373 3.44486718
v -3.55157651 0.62985928 3.36370162
v -3.52356973 0.60952750 3.36370162
v -4.47114700 0.63564248 3.63590699
v -3.69067980 0.59686813 3.42773226
v -3.52366278 0.60948411 3.46224268
v -3.52375584 0.60937552 3.47961808
v -3.52384889 0.60923799 3.49699359
v -3.52468630 0.60821742 3.61856152
v -3.52505846 0.60780487 3.62887263
v -3.52738461 0.59963308 3.63858245
v -3.52673329 0.61240828 3.36370162
v -3.53324652 0.61821323 3.44486718
v -3.53324652 0.61816979 3.46224268
v -3.69067980 0.61581739 3.66726090
v -4.11571246 0.62106501 3.66506649
v -4.47114700 0.62586384 3.66302224
v -3.79889195 0.59686813 3.45196171
v -3.62117466 0.59946660 3.66993636
v -3.63857421 0.59946660 3.67032721
v -3.65485720 0.59946660 3.67056769
v -3.67346635 0.59946660 3.67074799
v -4.11571246 0.63564248 3.63590699
v -3.69067980 0.63563523 3.63590699
v -3.67346635 0.63560629 3.63590699
v -3.65597374 0.63552670 3.63590699
v -3.63857421 0.63539642 3.63590699
v -3.62117466 0.63517924 3.63590699
v -3.61261447 0.63494043 3.63590699
v -3.60377513 0.63467981 3.63590699
v -3.58637557 0.63381852 3.63590699
v -3.69691384 0.65136361 3.43840398
v -3.68714406 0.65136361 3.42655981
v -3.68174741 0.65136361 3.41949542
v -3.67718817 0.65136361 3.41101811
v -3.56897604 0.63248669 3.63590699
v -3.55185562 0.62876632 3.61856152
v -3.55157651 0.62972900 3.47961808
v -3.55157651 0.62984478 3.46224268
v -3.54189973 0.62532102 3.44486718
v -3.54189973 0.62532102 3.36370162
v -4.47114700 0.63169049 3.65328239
v -4.11571246 0.63376783 3.64420389
v -3.69691384 0.59686813 3.43759235
v -3.53333952 0.61806120 3.47961808
v -3.52422104 0.60881819 3.54905982
v -3.53417693 0.61721436 3.58381072
v -3.53426999 0.61669323 3.61856152
v -3.54310935 0.62427870 3.61856152
v -3.54506329 0.62275150 3.63590699
v -3.53361867 0.61308864 3.63515543
v -3.53901533 0.61079419 3.64805170
v -3.53668918 0.59963308 3.64997570
v -3.53324652 0.61821323 3.36370162
v -3.53901533 0.62296862 3.36370162
v -3.54199278 0.62529207 3.46224268
v -3.54208583 0.62519798 3.47961808
v -3.69067980 0.62586384 3.66302224
v -3.67346635 0.61581739 3.66717069
v -3.67346635 0.62580595 3.66299221
v -4.11571246 0.62891830 3.65794193
v -3.79610055 0.59686813 3.45175127
v -3.62117466 0.61581739 3.66632903
v -3.63857421 0.61581739 3.66674991
v -3.61280055 0.59946660 3.66924497
v -3.61261447 0.59963308 3.66921494
v -3.65597374 0.61581739 3.66699039
v -3.69067980 0.63169774 3.65328239
v -3.67346635 0.63162535 3.65328239
v -3.65597374 0.63145168 3.65328239
v -3.63857421 0.63120556 3.65328239
v -3.62117466 0.63074232 3.65328239
v -3.61280055 0.63267487 3.64480508
v -3.61261447 0.63267487 3.64477505
v -3.58637557 0.62892555 3.65153889
v -3.56897604 0.62794118 3.64970509
v -3.55715922 0.62644292 3.64733027
v -3.55371656 0.62807871 3.63590699
v -3.54292325 0.62451032 3.59355058
v -4.11571246 0.63169774 3.65328239
v -3.70817238 0.59686813 3.43984693
v -3.54906427 0.59963308 3.65782169
v -3.55027384 0.59963308 3.65848305
v -3.55892710 0.59963308 3.66242106
v -3.53594482 0.61848825 3.60007385
v -3.55278609 0.61489816 3.65346280
v -3.55995062 0.60741402 3.66209038
v -3.63857421 0.62553089 3.66278177
v -3.77767750 0.59686813 3.44961692
v -3.61261447 0.62494461 3.66233085
v -3.62117466 0.62525587 3.66257133
v -3.60228640 0.59963308 3.66834314
v -3.60405426 0.61685246 3.66458543
v -3.61010222 0.62485777 3.66224065
v -3.56776645 0.59963308 3.66386401
v -3.58442161 0.59963308 3.66602839
v -3.61261447 0.62977964 3.65397378
v -3.60405426 0.62880977 3.65463514
v -3.59856455 0.62333777 3.66133882
v -3.58637557 0.62120980 3.66022654
v -3.56897604 0.61795267 3.65839284
v -3.56897604 0.60926693 3.66272170
v -3.58637557 0.61253131 3.66386401
f 1 2 5
f 1 5 3
f 1 3 10
f 1 10 25
f 1 25 24
f 1 24 23
f 1 23 22
f 1 22 45
f 1 45 84
f 1 84 98
f 1 98 97
f 1 97 55
f 1 55 46
f 1 46 26
f 1 26 11
f 1 11 4
f 1 4 2
f 2 4 11
f 2 11 6
f 2 6 13
f 2 13 28
f 2 28 48
f 2 48 87
f 2 87 124
f 2 124 132
f 2 132 105
f 2 105 61
f 2 61 36
f 2 36 17
f 2 17 7
f 2 7 16
f 2 16 8
f 2 8 12
f 2 12 5
f 3 5 9
f 3 9 10
f 5 12 19
f 5 19 9
f 6 11 14
f 6 14 13
f 7 15 16
f 7 17 18
f 7 18 15
f 8 16 35
f 8 35 34
f 8 34 60
f 8 60 85
f 8 85 47
f 8 47 27
f 8 27 12
f 9 19 39
f 9 39 20
f 9 20 21
f 9 21 22
f 9 22 23
f 9 23 24
f 9 24 25
f 9 25 10
f 11 26 14
f 12 27 39
f 12 39 19
f 13 14 29
f 13 29 30
f 13 30 31
f 13 31 32
f 13 32 28
f 14 26 33
f 14 33 29
f 15 34 35
f 15 35 16
f 15 18 34
f 17 36 37
f 17 37 18
f 18 37 38
f 18 38 34
f 20 39 40
f 20 40 41
f 20 41 42
f 20 42 43
f 20 43 21
f 21 43 82
f 21 82 44
f 21 44 45
f 21 45 22
f 26 46 33
f 27 47 66
f 27 66 39
f 28 32 48
f 29 33 49
f 29 49 50
f 29 50 51
f 29 51 52
f 29 52 30
f 30 52 31
f 31 52 53
f 31 53 32
f 32 53 54
f 32 54 48
f 33 46 55
f 33 55 56
f 33 56 57
f 33 57 49
f 34 38 58
f 34 58 59
f 34 59 60
f 36 61 62
f 36 62 63
f 36 63 64
f 36 64 65
f 36 65 37
f 37 58 38
f 37 65 58
f 39 66 67
f 39 67 68
f 39 68 69
f 39 69 70
f 39 70 71
f 39 71 72
f 39 72 73
f 39 73 74
f 39 74 75
f 39 75 76
f 39 76 77
f 39 77 78
f 39 78 40
f 40 78 41
f 41 74 79
f 41 79 80
f 41 80 81
f 41 81 82
f 41 82 42
f 41 78 77
f 41 77 76
f 41 76 74
f 42 82 43
f 44 82 83
f 44 83 84
f 44 84 45
f 47 85 86
f 47 86 66
f 48 54 87
f 49 57 88
f 49 88 50
f 50 88 51
f 51 89 52
f 51 88 89
f 52 89 88
f 52 88 90
f 52 90 91
f 52 91 53
f 53 91 92
f 53 92 93
f 53 93 94
f 53 94 95
f 53 95 54
f 54 96 87
f 54 95 96
f 55 97 56
f 56 97 98
f 56 98 83
f 56 83 57
f 57 83 99
f 57 99 100
f 57 100 88
f 58 101 59
f 58 65 102
f 58 102 103
f 58 103 101
f 59 101 60
f 60 101 104
f 60 104 85
f 61 105 62
f 62 106 107
f 62 107 63
f 62 105 108
f 62 108 109
f 62 109 106
f 63 107 64
f 64 110 102
f 64 102 65
f 64 107 110
f 66 86 67
f 67 111 68
f 67 86 111
f 68 111 112
f 68 112 69
f 69 112 70
f 70 112 113
f 70 113 71
f 71 113 114
f 71 114 115
f 71 115 116
f 71 116 72
f 72 116 73
f 73 116 117
f 73 117 74
f 74 117 115
f 74 115 118
f 74 118 79
f 74 76 75
f 79 118 119
f 79 119 120
f 79 120 121
f 79 121 80
f 80 121 92
f 80 92 122
f 80 122 100
f 80 100 99
f 80 99 81
f 81 99 82
f 82 99 83
f 83 98 84
f 85 104 123
f 85 123 86
f 86 123 111
f 87 96 125
f 87 125 126
f 87 126 127
f 87 127 108
f 87 108 124
f 88 100 122
f 88 122 128
f 88 128 90
f 90 128 91
f 91 128 92
f 92 128 122
f 92 121 93
f 93 95 94
f 93 121 120
f 93 120 95
f 95 120 129
f 95 129 130
f 95 130 125
f 95 125 96
f 101 111 104
f 101 103 112
f 101 112 111
f 102 110 131
f 102 131 103
f 103 113 112
f 103 131 113
f 104 111 123
f 105 132 108
f 106 133 134
f 106 134 107
f 106 109 135
f 106 135 136
f 106 136 137
f 106 137 133
f 107 134 131
f 107 131 110
f 108 132 124
f 108 127 138
f 108 138 139
f 108 139 135
f 108 135 109
f 113 131 114
f 114 131 134
f 114 134 115
f 115 134 133
f 115 133 137
f 115 137 140
f 115 140 118
f 115 117 116
f 118 141 137
f 118 137 119
f 118 140 141
f 119 137 142
f 119 142 143
f 119 143 144
f 119 144 120
f 120 144 130
f 120 130 129
f 125 130 126
f 126 130 127
f 127 130 138
f 130 144 143
f 130 143 142
f 130 142 145
f 130 145 135
f 130 135 139
f 130 139 138
f 135 145 146
f 135 146 136
f 136 146 142
f 136 142 137
f 137 141 140
f 142 146 145

