# https://github.com/mikedh/trimesh
v -6.65259374 2.41673393 3.94402369
v -6.67171285 2.41673393 3.94402369
v -6.61353366 2.09187005 3.94402369
v -6.61353366 2.41673393 3.75469144
v -6.67171285 2.41673393 3.66992663
v -6.67183277 0.68548200 3.94402369
v -6.61353366 1.55534460 3.94402369
v -6.61353366 2.41673393 3.70550687
v -6.65258235 2.41673393 3.66992663
v -6.67183277 0.68548200 3.66992663
v -6.65254818 0.68548200 3.94402369
v -6.61353366 1.42892390 3.75469144
v -6.61353925 1.09812867 3.94402369
v -6.61353925 0.68548200 3.75487920
v -6.61353366 1.42892390 3.70550687
v -6.61353925 0.68548200 3.70537275
v -6.65253099 0.68632935 3.66992663
v -6.65253099 0.68548200 3.66992663
f 1 2 6
f 1 6 11
f 1 11 13
f 1 13 7
f 1 7 3
f 1 3 4
f 1 4 8
f 1 8 9
f 1 9 5
f 1 5 2
f 2 5 10
f 2 10 6
f 3 7 12
f 3 12 15
f 3 15 8
f 3 8 4
f 5 9 17
f 5 17 18
f 5 18 10
f 6 10 18
f 6 18 16
f 6 16 14
f 6 14 11
f 7 13 14
f 7 14 12
f 8 15 16
f 8 16 9
f 9 16 17
f 11 14 13
f 12 14 16
f 12 16 15
f 16 18 17

