# https://github.com/mikedh/trimesh
v -4.66315720 0.08265564 2.60687040
v -4.66315720 0.08265564 2.59670625
v -4.67537005 0.08265564 2.61304104
v -3.62691066 0.07069072 2.60490083
v -4.66644131 0.08265564 2.59428441
v -3.62691066 0.07069072 2.59880926
v -4.67537005 0.08265564 2.58929751
v -4.67537005 0.07736457 2.61348838
v -3.62691066 0.05979219 2.60927246
v -3.62691066 0.06340460 2.59543355
v -4.67537005 0.07501232 2.58890702
v -3.62691066 0.05979219 2.59376302
v -3.62691066 0.04243409 2.59280169
v -4.67537005 0.05979726 2.61414818
v -3.62691066 0.04243409 2.61013240
v -4.67537005 0.05979726 2.58890453
v -3.62691066 0.03054062 2.59784793
v -4.67537005 0.04139835 2.58965584
v -4.67537005 0.05764407 2.58892188
v -4.67537005 0.04175036 2.61359464
v -3.62691066 0.03848997 2.60868183
v -3.62691066 0.03054062 2.60575341
v -3.69064335 0.03053545 2.59786279
v -4.67537005 0.03054062 2.59649368
v -4.67537005 0.03751036 2.59130908
v -4.67537005 0.03054062 2.60719414
v -3.69064335 0.03053545 2.60574601
v -3.99042312 0.03053037 2.59786279
v -4.40073446 0.03053037 2.59786279
v -4.66356773 0.03053545 2.59784545
v -4.66356773 0.03053545 2.60575833
v -4.40073446 0.03053037 2.60574601
v -3.99042312 0.03053037 2.60574601
f 1 2 5
f 1 5 7
f 1 7 3
f 1 3 4
f 1 4 6
f 1 6 2
f 2 6 5
f 3 7 11
f 3 11 16
f 3 16 19
f 3 19 18
f 3 18 25
f 3 25 24
f 3 24 26
f 3 26 20
f 3 20 14
f 3 14 8
f 3 8 9
f 3 9 4
f 4 9 15
f 4 15 21
f 4 21 22
f 4 22 17
f 4 17 13
f 4 13 12
f 4 12 10
f 4 10 6
f 5 6 7
f 6 10 7
f 7 10 12
f 7 12 13
f 7 13 11
f 8 14 15
f 8 15 9
f 11 13 16
f 13 17 18
f 13 18 19
f 13 19 16
f 14 20 15
f 15 20 21
f 17 22 27
f 17 27 23
f 17 23 24
f 17 24 25
f 17 25 18
f 20 26 22
f 20 22 21
f 22 26 27
f 23 27 33
f 23 33 28
f 23 28 24
f 24 28 29
f 24 29 30
f 24 30 31
f 24 31 26
f 26 31 32
f 26 32 33
f 26 33 27
f 28 33 32
f 28 32 29
f 29 32 31
f 29 31 30

