# https://github.com/mikedh/trimesh
v -6.45842466 0.02769376 4.29460420
v -6.45842466 0.62011311 4.29459074
v -6.59327329 0.02769376 4.29460420
v -6.45842466 0.02505206 4.29460420
v -6.45842466 0.62011311 4.27211389
v -6.59327329 0.62011311 4.29459074
v -6.59327329 0.02505206 4.29460420
v -6.45842466 0.00772730 4.29453771
v -6.59327329 0.62011311 4.27211389
v -6.45842466 0.60960771 4.15898609
v -6.59327329 0.00772730 4.29453771
v -6.45842466 -0.00474405 4.29097968
v -6.59327329 0.60960771 4.15898609
v -6.45842466 0.05060909 4.15898609
v -6.59327329 -0.00474405 4.29097968
v -6.45842466 -0.00744716 4.27881840
v -6.59327329 0.05060909 4.15898609
v -6.45842466 -0.00369961 4.26787876
v -6.59327329 -0.00744716 4.27881840
v -6.59327329 -0.00369961 4.26787876
f 1 2 6
f 1 6 3
f 1 3 7
f 1 7 4
f 1 4 8
f 1 8 12
f 1 12 16
f 1 16 18
f 1 18 14
f 1 14 10
f 1 10 5
f 1 5 2
f 2 5 9
f 2 9 6
f 3 6 9
f 3 9 13
f 3 13 17
f 3 17 20
f 3 20 19
f 3 19 15
f 3 15 11
f 3 11 7
f 4 7 11
f 4 11 8
f 5 10 13
f 5 13 9
f 8 11 15
f 8 15 12
f 10 14 17
f 10 17 13
f 12 15 19
f 12 19 16
f 14 18 20
f 14 20 17
f 16 19 20
f 16 20 18

