# https://github.com/mikedh/trimesh
v -4.40081948 0.44784210 2.73257990
v -4.40207116 0.44784210 2.73322867
v -4.40081948 0.49036986 2.69387198
v -4.40081948 0.44784210 2.81926339
v -4.41271678 0.48327388 2.72147419
v -4.40081948 0.49549672 2.68928453
v -4.41953697 0.44784210 2.76741086
v -4.40081948 0.46508374 2.83311855
v -4.40095795 0.44784210 2.83311855
v -4.41190587 0.50210041 2.70584270
v -4.40964850 0.49051391 2.70988961
v -4.40081948 0.51074524 2.67952256
v -4.42012459 0.44784210 2.76937251
v -4.40081948 0.46814545 2.83311855
v -4.42967689 0.44784210 2.83311855
v -4.41230988 0.51154967 2.70449891
v -4.40864269 0.51154967 2.69581820
v -4.40140721 0.51154967 2.68031032
v -4.40081948 0.51154967 2.67910551
v -4.42447271 0.44784210 2.78455603
v -4.40688252 0.48306981 2.83311855
v -4.40081948 0.48828067 2.83279419
v -4.42459988 0.44784210 2.78569901
v -4.41587537 0.47416079 2.83311855
v -4.40081948 0.55434156 2.75006492
v -4.40081948 0.56244610 2.73244092
v -4.40081948 0.56730883 2.71535752
v -4.41030965 0.53317377 2.73244092
v -4.41284105 0.52448089 2.73244092
v -4.41278741 0.52461298 2.71506407
v -4.41226752 0.52277597 2.70442171
v -4.41413788 0.51154967 2.71506407
v -4.40309954 0.52892341 2.68031032
v -4.40081948 0.52892341 2.67532124
v -4.41384407 0.47716248 2.83311855
v -4.40081948 0.56971016 2.70368029
v -4.40280563 0.56367079 2.69768717
v -4.40653786 0.54629710 2.69768717
v -4.40081948 0.56367079 2.68574736
v -4.40081948 0.55719915 2.68031032
v -4.40233949 0.54629710 2.68031032
v -4.40081948 0.54629710 2.67668051
v -4.40081948 0.57049056 2.69768717
f 1 2 3
f 1 3 6
f 1 6 12
f 1 12 19
f 1 19 34
f 1 34 42
f 1 42 40
f 1 40 39
f 1 39 43
f 1 43 36
f 1 36 27
f 1 27 26
f 1 26 25
f 1 25 22
f 1 22 14
f 1 14 8
f 1 8 4
f 1 4 9
f 1 9 15
f 1 15 23
f 1 23 20
f 1 20 13
f 1 13 7
f 1 7 2
f 2 5 6
f 2 6 3
f 2 7 5
f 4 8 9
f 5 10 11
f 5 11 6
f 5 7 10
f 6 11 10
f 6 10 12
f 7 13 10
f 8 14 21
f 8 21 35
f 8 35 24
f 8 24 15
f 8 15 9
f 10 16 17
f 10 17 18
f 10 18 19
f 10 19 12
f 10 13 20
f 10 20 16
f 14 22 21
f 15 24 25
f 15 25 26
f 15 26 27
f 15 27 28
f 15 28 29
f 15 29 30
f 15 30 31
f 15 31 32
f 15 32 23
f 16 32 31
f 16 31 33
f 16 33 17
f 16 20 32
f 17 33 34
f 17 34 18
f 18 34 19
f 20 23 32
f 21 22 25
f 21 25 35
f 24 35 25
f 27 36 28
f 28 36 29
f 29 36 37
f 29 37 30
f 30 37 31
f 31 37 38
f 31 38 39
f 31 39 40
f 31 40 41
f 31 41 33
f 33 41 42
f 33 42 34
f 36 43 37
f 37 43 39
f 37 39 38
f 40 42 41

