# https://github.com/mikedh/trimesh
v -5.58686076 0.39424835 0.97997395
v -5.60195413 0.39166920 0.97997395
v -5.58686076 0.36836903 0.97997395
v -5.58686076 0.44320923 0.96804891
v -5.60429757 0.39099158 0.97997395
v -5.60935210 0.27807567 0.97997395
v -5.58686076 0.31936455 0.89710663
v -5.58686076 0.44659711 0.96705107
v -5.61475460 0.38480593 0.97997395
v -5.64611949 0.27807567 0.97997395
v -5.60932041 0.27807567 0.97754839
v -5.58686076 0.50135020 0.89710663
v -5.60914290 0.27807567 0.96187537
v -5.60878188 0.27807567 0.89710663
v -5.58686076 0.45805047 0.96352224
v -5.62343200 0.37820499 0.97997395
v -5.64645504 0.27912477 0.97997395
v -5.64733554 0.27807567 0.90805011
v -5.63894336 0.50135020 0.89710663
v -5.58686076 0.50135020 0.94779247
v -5.64743682 0.27807567 0.89710663
v -5.58686076 0.48878212 0.95269227
v -5.59391034 0.48629038 0.95179987
v -5.63436398 0.36950564 0.97997395
v -5.64853253 0.28568211 0.97997395
v -5.64741155 0.27807567 0.90022991
v -5.64964086 0.28568211 0.90805011
v -5.64770277 0.27892810 0.89710663
v -5.63696073 0.50135020 0.90805011
v -5.63976669 0.49415910 0.89710663
v -5.64998304 0.33781225 0.97997395
v -5.59327694 0.50135020 0.94568319
v -5.58686076 0.49527380 0.95026671
v -5.60142844 0.50135020 0.94294123
v -5.61731346 0.50135020 0.93680022
v -5.64183775 0.36119983 0.97997395
v -5.62009393 0.49490227 0.93811444
v -5.62798590 0.45099049 0.95156467
v -5.64895051 0.28810830 0.97997395
v -5.65151578 0.30305876 0.97997395
v -5.65154747 0.30305876 0.96017185
v -5.65156011 0.30305876 0.94279521
v -5.64960938 0.28568211 0.89710663
v -5.63109571 0.50135020 0.92461553
v -5.64703789 0.35112350 0.97997395
v -5.64105875 0.47678235 0.89710663
v -5.65151578 0.32043550 0.97997395
v -5.65131942 0.32286169 0.97997395
v -5.62638336 0.50135020 0.93296308
v -5.62647843 0.50117538 0.93299549
v -5.64304759 0.35980089 0.97997395
v -5.65152842 0.30548494 0.97997395
v -5.65147767 0.30305876 0.92542675
v -5.65018561 0.29210814 0.89710663
v -5.62903728 0.48959085 0.93552659
v -5.64361760 0.35859872 0.97997395
v -5.64208486 0.45942751 0.89710663
v -5.65130037 0.32043550 0.96017185
v -5.65149673 0.32043550 0.97754839
v -5.65119908 0.30305876 0.90805011
v -5.65050231 0.30305876 0.89710663
v -5.65098367 0.32043550 0.94279521
f 1 2 5
f 1 5 9
f 1 9 16
f 1 16 24
f 1 24 36
f 1 36 51
f 1 51 56
f 1 56 45
f 1 45 31
f 1 31 48
f 1 48 47
f 1 47 52
f 1 52 40
f 1 40 39
f 1 39 25
f 1 25 17
f 1 17 10
f 1 10 6
f 1 6 3
f 1 3 7
f 1 7 12
f 1 12 20
f 1 20 33
f 1 33 22
f 1 22 15
f 1 15 8
f 1 8 4
f 1 4 2
f 2 4 5
f 3 6 7
f 4 8 9
f 4 9 5
f 6 10 18
f 6 18 26
f 6 26 21
f 6 21 14
f 6 14 13
f 6 13 11
f 6 11 7
f 7 11 13
f 7 13 14
f 7 14 21
f 7 21 28
f 7 28 43
f 7 43 54
f 7 54 61
f 7 61 57
f 7 57 46
f 7 46 30
f 7 30 19
f 7 19 12
f 8 15 9
f 9 15 16
f 10 17 18
f 12 19 29
f 12 29 44
f 12 44 49
f 12 49 35
f 12 35 34
f 12 34 32
f 12 32 20
f 15 22 23
f 15 23 24
f 15 24 16
f 17 25 18
f 18 25 27
f 18 27 28
f 18 28 26
f 19 30 31
f 19 31 29
f 20 32 23
f 20 23 33
f 21 26 28
f 22 33 23
f 23 32 34
f 23 34 35
f 23 35 24
f 24 35 37
f 24 37 38
f 24 38 36
f 25 39 27
f 27 39 40
f 27 40 41
f 27 41 42
f 27 42 43
f 27 43 28
f 29 31 45
f 29 45 44
f 30 46 47
f 30 47 48
f 30 48 31
f 35 49 50
f 35 50 37
f 36 38 50
f 36 50 51
f 37 50 38
f 40 52 41
f 41 52 47
f 41 47 42
f 42 53 43
f 42 47 53
f 43 53 54
f 44 55 50
f 44 50 49
f 44 45 55
f 45 56 50
f 45 50 55
f 46 57 58
f 46 58 59
f 46 59 47
f 47 59 53
f 50 56 51
f 53 60 54
f 53 59 58
f 53 58 60
f 54 60 61
f 57 61 60
f 57 60 62
f 57 62 58
f 58 62 60

