# https://github.com/mikedh/trimesh
v -5.14889341 0.35516320 1.48401940
v -5.16747605 0.33148223 1.49028940
v -5.15870089 0.32916033 1.49011194
v -5.14889341 0.33896916 1.48635584
v -5.14889341 0.35516320 1.46622493
v -5.21718890 0.35516320 1.48743042
v -5.21182845 0.34630209 1.48998378
v -5.18486750 0.33472812 1.49053583
v -5.18486750 0.32041769 1.49081188
v -5.15870089 0.32881681 1.49011194
v -5.14889341 0.32174444 1.48721356
v -5.14889341 0.32436253 1.48715437
v -5.14889341 0.26145794 1.41832278
v -5.16993797 0.26651641 1.39505689
v -5.18486750 0.27190648 1.39505689
v -5.53230050 0.26927659 1.39125154
v -5.35278692 0.35516320 1.46699389
v -5.23700229 0.35516320 1.48784447
v -5.23700229 0.34761704 1.49026967
v -5.22342282 0.34694180 1.49018092
v -5.20225916 0.33662354 1.49067388
v -5.23700229 0.33778449 1.49107804
v -5.25435418 0.32041769 1.49184700
v -5.23700229 0.32041769 1.49161041
v -5.20225916 0.32041769 1.49108793
v -5.17291584 0.31107086 1.49023021
v -5.16727762 0.32198140 1.49032881
v -5.16132167 0.31721912 1.48942185
v -5.14889341 0.30305078 1.48495597
v -5.14889341 0.26084195 1.41822424
v -5.16731718 0.25061845 1.39505689
v -5.16985843 0.26604250 1.39505689
v -5.50597503 0.26004823 1.39125154
v -5.51490905 0.26734564 1.39125154
v -5.52896513 0.26890935 1.39125154
v -5.54048017 0.26341260 1.39125154
v -5.55453625 0.32354510 1.47000070
v -5.35278692 0.35516320 1.48487711
v -5.25435418 0.35516320 1.48818954
v -5.25435418 0.34831599 1.49036826
v -5.25435418 0.33778449 1.49128506
v -5.21841965 0.33943115 1.49070345
v -5.25435418 0.30704306 1.49094004
v -5.23700229 0.30790781 1.49080204
v -5.18486750 0.31037191 1.49037810
v -5.27170608 0.32041769 1.49195548
v -5.16747605 0.28568387 1.48156468
v -5.14889341 0.28568387 1.48089431
v -5.14889341 0.25476473 1.41822424
v -5.17331290 0.24007515 1.39505689
v -5.51070022 0.25018017 1.39125154
v -5.50597503 0.25887548 1.39125154
v -5.14889341 0.25414873 1.41838197
v -5.14889341 0.24539418 1.42267039
v -5.54242572 0.26197918 1.39125154
v -5.55453625 0.26417079 1.41800733
v -5.55453625 0.32354510 1.48710513
v -5.27170608 0.35516320 1.48788393
v -5.54858030 0.32354510 1.48865289
v -5.54254482 0.32354510 1.49021054
v -5.27170608 0.34755780 1.49025978
v -5.46281403 0.32354510 1.49157095
v -5.44542237 0.32354510 1.49177803
v -5.42807069 0.32354510 1.49182727
v -5.25435418 0.29834775 1.48804165
v -5.27170608 0.30665210 1.49097950
v -5.27170608 0.29796870 1.48816981
v -5.42807069 0.32041769 1.49194559
v -5.42807069 0.30666391 1.49097950
v -5.16747605 0.27361239 1.47593552
v -5.15012437 0.27388486 1.47551159
v -5.14889341 0.27467857 1.47583693
v -5.25435418 0.28568387 1.48365464
v -5.18486750 0.23924591 1.39505689
v -5.51939585 0.24006334 1.39125154
v -5.51772826 0.24198248 1.39125154
v -5.14889341 0.23414012 1.43194716
v -5.54242572 0.25538072 1.39125154
v -5.55453625 0.25283378 1.41535542
v -5.55453625 0.26184890 1.41632152
v -5.55453625 0.32041769 1.48732199
v -5.54242572 0.32041769 1.49020065
v -5.53230050 0.32041769 1.49051610
v -5.53230050 0.32354510 1.49047670
v -5.51490905 0.32354510 1.49080204
v -5.46281403 0.32041769 1.49166954
v -5.44542237 0.32041769 1.49187657
v -5.35278692 0.29806346 1.48821911
v -5.35854444 0.29806346 1.48821911
v -5.27170608 0.28568387 1.48382226
v -5.44542237 0.30684163 1.49094988
v -5.42807069 0.29796870 1.48815998
v -5.18486750 0.27339915 1.47622141
v -5.14889341 0.24535866 1.45333995
v -5.14889341 0.27390858 1.47547213
v -5.25435418 0.27281867 1.47701994
v -5.23700229 0.27293715 1.47687205
v -5.21961084 0.27306743 1.47667487
v -5.52896513 0.24006334 1.39125154
v -5.14889341 0.23414012 1.44361956
v -5.55453625 0.23667525 1.44481241
v -5.55453625 0.23719649 1.43051767
v -5.53857419 0.24835579 1.39125154
v -5.55453625 0.31670969 1.48714453
v -5.54111543 0.31169866 1.49011194
v -5.51490905 0.32041769 1.49086118
v -5.53230050 0.31109447 1.49023021
v -5.51490905 0.31009943 1.49041756
v -5.49755716 0.30927020 1.49056540
v -5.46281403 0.30748134 1.49085129
v -5.42807069 0.28567207 1.48382226
v -5.27170608 0.27278315 1.47707907
v -5.44542237 0.29815822 1.48812052
v -5.44542237 0.28567207 1.48375324
v -5.14889341 0.23554983 1.44495046
v -5.53766096 0.24669732 1.39125154
v -5.55453625 0.24272876 1.45106268
v -5.55453625 0.30416430 1.48581364
v -5.55453625 0.29822927 1.48448274
v -5.55453625 0.28567207 1.48084501
v -5.54969196 0.28567207 1.48108160
v -5.53230050 0.28567207 1.48172240
v -5.46281403 0.29879794 1.48797263
v -5.44542237 0.27279496 1.47704951
v -5.42807069 0.27278315 1.47707907
v -5.46281403 0.28567207 1.48345746
v -5.48016571 0.27303191 1.47670443
v -5.46281403 0.27288982 1.47691151
v -5.49755716 0.27318591 1.47647773
v -5.51490905 0.27335182 1.47626082
v -5.53230050 0.27355315 1.47600450
v -5.54969196 0.27387306 1.47552143
v -5.55453625 0.27400334 1.47534397
f 1 2 3
f 1 3 4
f 1 4 12
f 1 12 11
f 1 11 29
f 1 29 48
f 1 48 72
f 1 72 95
f 1 95 94
f 1 94 115
f 1 115 100
f 1 100 77
f 1 77 54
f 1 54 53
f 1 53 49
f 1 49 30
f 1 30 13
f 1 13 5
f 1 5 17
f 1 17 38
f 1 38 58
f 1 58 39
f 1 39 18
f 1 18 6
f 1 6 7
f 1 7 2
f 2 8 9
f 2 9 3
f 2 7 8
f 3 10 11
f 3 11 12
f 3 12 4
f 3 9 10
f 5 13 14
f 5 14 15
f 5 15 16
f 5 16 17
f 6 18 19
f 6 19 20
f 6 20 7
f 7 20 8
f 8 21 22
f 8 22 23
f 8 23 24
f 8 24 25
f 8 25 9
f 8 20 21
f 9 25 26
f 9 26 27
f 9 27 10
f 10 27 26
f 10 26 28
f 10 28 11
f 11 28 29
f 13 30 31
f 13 31 32
f 13 32 14
f 14 32 33
f 14 33 34
f 14 34 15
f 15 34 35
f 15 35 16
f 16 35 34
f 16 34 33
f 16 33 52
f 16 52 51
f 16 51 76
f 16 76 75
f 16 75 99
f 16 99 116
f 16 116 103
f 16 103 78
f 16 78 55
f 16 55 36
f 16 36 37
f 16 37 17
f 17 37 57
f 17 57 38
f 18 39 19
f 19 39 40
f 19 40 41
f 19 41 20
f 20 41 22
f 20 22 42
f 20 42 21
f 21 42 22
f 22 41 23
f 23 43 44
f 23 44 45
f 23 45 24
f 23 41 46
f 23 46 43
f 24 45 26
f 24 26 25
f 26 47 48
f 26 48 29
f 26 29 28
f 26 45 47
f 30 49 31
f 31 50 51
f 31 51 52
f 31 52 33
f 31 33 32
f 31 49 53
f 31 53 54
f 31 54 50
f 36 55 37
f 37 55 56
f 37 56 80
f 37 80 79
f 37 79 102
f 37 102 101
f 37 101 117
f 37 117 133
f 37 133 120
f 37 120 119
f 37 119 118
f 37 118 104
f 37 104 81
f 37 81 57
f 38 57 59
f 38 59 60
f 38 60 58
f 39 58 40
f 40 58 61
f 40 61 62
f 40 62 63
f 40 63 41
f 41 63 64
f 41 64 46
f 43 65 45
f 43 45 44
f 43 46 66
f 43 66 67
f 43 67 65
f 45 65 47
f 46 64 68
f 46 68 69
f 46 69 66
f 47 70 71
f 47 71 72
f 47 72 48
f 47 65 73
f 47 73 70
f 50 74 75
f 50 75 76
f 50 76 51
f 50 54 77
f 50 77 74
f 55 78 79
f 55 79 80
f 55 80 56
f 57 81 59
f 58 60 61
f 59 81 60
f 60 81 82
f 60 82 83
f 60 83 84
f 60 84 61
f 61 84 85
f 61 85 62
f 62 86 87
f 62 87 63
f 62 85 86
f 63 87 68
f 63 68 64
f 65 67 73
f 66 88 67
f 66 69 89
f 66 89 88
f 67 90 73
f 67 88 90
f 68 87 91
f 68 91 69
f 69 91 92
f 69 92 89
f 70 73 93
f 70 93 94
f 70 94 71
f 71 94 95
f 71 95 72
f 73 90 96
f 73 96 97
f 73 97 98
f 73 98 93
f 74 77 99
f 74 99 75
f 77 100 101
f 77 101 102
f 77 102 99
f 78 102 79
f 78 103 102
f 81 104 105
f 81 105 82
f 82 105 83
f 83 106 84
f 83 105 106
f 84 106 85
f 85 106 86
f 86 106 107
f 86 107 108
f 86 108 87
f 87 108 109
f 87 109 110
f 87 110 91
f 88 89 111
f 88 111 90
f 89 92 111
f 90 112 96
f 90 111 112
f 91 110 113
f 91 113 92
f 92 113 114
f 92 114 111
f 93 98 94
f 94 98 97
f 94 97 96
f 94 96 112
f 94 112 115
f 99 102 116
f 100 115 117
f 100 117 101
f 102 103 116
f 104 118 105
f 105 118 119
f 105 119 120
f 105 120 121
f 105 121 122
f 105 122 107
f 105 107 106
f 107 122 108
f 108 122 123
f 108 123 110
f 108 110 109
f 110 123 113
f 111 114 124
f 111 124 125
f 111 125 112
f 112 125 115
f 113 123 126
f 113 126 114
f 114 126 127
f 114 127 128
f 114 128 124
f 115 125 117
f 117 125 124
f 117 124 128
f 117 128 127
f 117 127 129
f 117 129 130
f 117 130 131
f 117 131 132
f 117 132 133
f 120 133 132
f 120 132 121
f 121 132 122
f 122 132 131
f 122 131 126
f 122 126 123
f 126 131 130
f 126 130 127
f 127 130 129

