# https://github.com/mikedh/trimesh
v -4.68075609 0.35775509 3.39330696
v -4.64555396 0.35775509 3.42186568
v -4.68075609 0.35775509 3.44923985
v -4.68075609 0.35876536 3.18615948
v -4.64555396 0.35775509 3.44179755
v -4.64555396 0.39625552 3.18615948
v -4.68075609 0.58212491 3.44887934
v -4.68075609 0.39781488 3.18615948
v -4.64555396 0.58212491 3.44009797
v -4.64555396 0.41824007 3.18615948
v -4.68075609 0.58212491 3.21600581
v -4.67624900 0.49416474 3.19213386
v -4.66357539 0.49416474 3.18991925
v -4.64620517 0.49416474 3.18819388
v -4.64555396 0.49416474 3.18816809
v -4.67665559 0.40203168 3.18615948
v -4.68075609 0.49416474 3.19324127
v -4.64555396 0.58212491 3.21489851
v -4.64659799 0.41797650 3.18615948
v -4.66535348 0.58212491 3.21129325
v -4.67200724 0.57210999 3.21031467
v -4.68075609 0.56644360 3.21137050
v -4.67369222 0.50398201 3.19257173
v -4.66357539 0.50780351 3.19161884
v -4.64744918 0.51307454 3.19079478
v -4.64555396 0.51292080 3.19064026
v -4.65370670 0.41531906 3.18615948
v -4.66186628 0.41134382 3.18615948
v -4.68075609 0.50819881 3.19604815
v -4.64555396 0.58203709 3.20781672
v -4.64702529 0.58212491 3.20799702
v -4.66487791 0.58212491 3.21119020
v -4.66042944 0.57751275 3.20894981
v -4.67786853 0.56053571 3.20884676
v -4.68075609 0.56343477 3.21054645
v -4.68007040 0.51048296 3.19633140
v -4.68075609 0.55278288 3.20763652
v -4.65407197 0.51988292 3.19298370
v -4.64555396 0.51658856 3.19138706
v -4.64555396 0.58063147 3.20745621
v -4.64784199 0.58212491 3.20812575
v -4.64555396 0.56367633 3.20315562
v -4.64744918 0.52842636 3.19442583
v -4.64555396 0.52607639 3.19365324
v -4.64555396 0.54630393 3.19875210
f 1 2 5
f 1 5 3
f 1 3 7
f 1 7 11
f 1 11 22
f 1 22 35
f 1 35 37
f 1 37 29
f 1 29 17
f 1 17 8
f 1 8 4
f 1 4 2
f 2 4 6
f 2 6 10
f 2 10 15
f 2 15 26
f 2 26 39
f 2 39 44
f 2 44 45
f 2 45 42
f 2 42 40
f 2 40 30
f 2 30 18
f 2 18 9
f 2 9 5
f 3 5 7
f 4 8 16
f 4 16 28
f 4 28 27
f 4 27 19
f 4 19 10
f 4 10 6
f 5 9 7
f 7 9 18
f 7 18 31
f 7 31 41
f 7 41 32
f 7 32 20
f 7 20 11
f 8 12 13
f 8 13 14
f 8 14 15
f 8 15 16
f 8 17 12
f 10 19 15
f 11 20 21
f 11 21 22
f 12 23 13
f 12 17 23
f 13 23 24
f 13 24 14
f 14 24 25
f 14 25 26
f 14 26 15
f 15 19 27
f 15 27 28
f 15 28 16
f 17 29 23
f 18 30 31
f 20 32 33
f 20 33 23
f 20 23 21
f 21 34 22
f 21 23 34
f 22 34 35
f 23 29 36
f 23 36 37
f 23 37 34
f 23 33 24
f 24 38 25
f 24 33 38
f 25 38 39
f 25 39 26
f 29 37 36
f 30 40 31
f 31 40 38
f 31 38 41
f 32 41 33
f 33 41 38
f 34 37 35
f 38 40 42
f 38 42 43
f 38 43 44
f 38 44 39
f 42 45 43
f 43 45 44

