# https://github.com/mikedh/trimesh
v -3.51827659 0.58079681 2.18075537
v -3.52025758 0.59843241 2.18075537
v -3.53546068 0.58079681 2.18075537
v -3.51827659 0.58079681 1.75949456
v -3.52274537 0.60676572 2.18075537
v -3.52025758 0.59843241 1.75949456
v -3.98892719 0.58111599 2.18075537
v -3.53587530 0.58079681 1.65432107
v -3.51836874 0.58079681 1.74207729
v -3.51836874 0.58105898 1.74207729
v -3.52030367 0.59843241 1.74207729
v -3.52357463 0.60951880 2.18075537
v -3.52357463 0.60951880 1.75949456
v -3.52357463 0.60949027 1.74207729
v -3.98892719 0.63902166 2.18075537
v -3.98892719 0.58111599 1.76238025
v -3.98892719 0.61975586 1.65432107
v -3.51970476 0.58079681 1.65432107
v -3.51859906 0.58079681 1.72471155
v -3.51859906 0.58105898 1.72471155
v -3.52053402 0.59843241 1.72471155
v -3.52417353 0.60882912 1.65432107
v -3.52366677 0.60938769 1.72471155
v -3.53320325 0.61820552 2.18075537
v -3.53320325 0.61820552 1.75949456
v -3.53334146 0.61806871 1.72471155
v -3.53324931 0.61816559 1.74207729
v -3.66910961 0.63902166 2.18075537
v -3.98892719 0.63902166 1.72161973
v -3.98892719 0.63512865 1.65432107
v -3.51970476 0.58105898 1.65432107
v -3.51910585 0.58079681 1.68992854
v -3.52154755 0.59843241 1.65432107
v -3.53384822 0.61750439 1.65432107
v -3.53969911 0.62354635 2.18075537
v -3.54191047 0.62529052 1.74207729
v -3.54186442 0.62531335 1.75949456
v -3.54255544 0.62477182 1.65432107
v -3.54200262 0.62520502 1.72471155
v -3.56895352 0.63388035 2.18075537
v -3.56895352 0.63391452 1.74207729
v -3.66901746 0.63902166 2.03739787
v -3.93378149 0.63902166 1.72161973
v -3.67320982 0.63516852 1.65432107
v -3.54186442 0.62531335 2.18075537
v -3.55158516 0.62973651 1.72471155
v -3.55158516 0.62984478 1.74207729
v -3.55158516 0.62986757 1.75949456
v -3.55158516 0.62917788 1.65432107
v -3.55158516 0.62985048 2.18075537
v -3.66920175 0.63902166 1.81159177
v -3.66897140 0.63902166 1.82895750
v -3.66897140 0.63902166 1.95051766
v -3.56895352 0.63388604 1.72471155
v -3.76051239 0.63902166 1.73573904
v -3.65501221 0.63513435 1.65432107
v -3.56895352 0.63373784 1.65432107
v -3.56895352 0.63374354 1.65524861
v -3.56895352 0.63381764 1.68992854
v -3.67109063 0.63902166 1.79422601
v -3.76005169 0.63902166 1.73579059
v -3.62110473 0.63499185 1.65432107
v -3.63847308 0.63507164 1.65432107
v -3.58632190 0.63432495 1.65432107
v -3.67528299 0.63902166 1.77871538
v -3.69251314 0.63902166 1.75939148
v -3.62027544 0.63498045 1.65432107
v -3.69126923 0.63902166 1.75985527
v -3.60373634 0.63471253 1.65432107
v -3.67606616 0.63902166 1.77768477
f 1 2 5
f 1 5 12
f 1 12 24
f 1 24 35
f 1 35 45
f 1 45 50
f 1 50 40
f 1 40 28
f 1 28 15
f 1 15 7
f 1 7 3
f 1 3 8
f 1 8 18
f 1 18 32
f 1 32 19
f 1 19 9
f 1 9 4
f 1 4 6
f 1 6 2
f 2 6 5
f 3 7 8
f 4 9 10
f 4 10 11
f 4 11 6
f 5 6 13
f 5 13 12
f 6 11 14
f 6 14 13
f 7 15 29
f 7 29 30
f 7 30 17
f 7 17 16
f 7 16 8
f 8 17 30
f 8 30 44
f 8 44 56
f 8 56 63
f 8 63 62
f 8 62 67
f 8 67 69
f 8 69 64
f 8 64 57
f 8 57 49
f 8 49 38
f 8 38 34
f 8 34 22
f 8 22 33
f 8 33 31
f 8 31 18
f 8 16 17
f 9 19 20
f 9 20 10
f 10 20 21
f 10 21 11
f 11 21 22
f 11 22 23
f 11 23 14
f 12 13 25
f 12 25 24
f 13 14 25
f 14 23 26
f 14 26 27
f 14 27 25
f 15 28 42
f 15 42 53
f 15 53 52
f 15 52 51
f 15 51 60
f 15 60 65
f 15 65 70
f 15 70 68
f 15 68 66
f 15 66 61
f 15 61 55
f 15 55 43
f 15 43 29
f 18 31 32
f 19 32 20
f 20 32 33
f 20 33 21
f 21 33 22
f 22 34 26
f 22 26 23
f 24 25 35
f 25 27 36
f 25 36 37
f 25 37 35
f 26 34 38
f 26 38 39
f 26 39 27
f 27 39 36
f 28 40 41
f 28 41 42
f 29 43 44
f 29 44 30
f 31 33 32
f 35 37 45
f 36 39 46
f 36 46 47
f 36 47 37
f 37 47 48
f 37 48 45
f 38 49 39
f 39 49 46
f 40 50 41
f 41 51 52
f 41 52 53
f 41 53 42
f 41 50 48
f 41 48 47
f 41 47 54
f 41 54 51
f 43 55 56
f 43 56 44
f 45 48 50
f 46 49 57
f 46 57 47
f 47 57 58
f 47 58 59
f 47 59 54
f 51 54 59
f 51 59 58
f 51 58 60
f 55 61 62
f 55 62 63
f 55 63 56
f 57 64 65
f 57 65 60
f 57 60 58
f 61 66 62
f 62 66 68
f 62 68 67
f 64 69 68
f 64 68 70
f 64 70 65
f 67 68 69

