# https://github.com/mikedh/trimesh
v -1.63289225 1.62461665 0.23667183
v -1.61625257 1.62461665 0.09504806
v -1.65145128 1.62461665 0.23667183
v -1.62665544 1.60612576 0.23667183
v -1.61625257 1.62350857 0.09504806
v -1.61625257 1.62461665 0.06325297
v -1.62509795 1.59989283 0.23667183
v -1.62234129 1.58874291 0.23667183
v -1.61843714 0.91711442 0.23667183
v -1.65145128 1.62461665 0.07404804
v -1.65145128 1.62350857 0.23667183
v -1.61625257 1.60951924 0.09168266
v -1.62380568 1.62461665 0.06021566
v -1.61625257 1.60820335 0.01345188
v -1.64120355 0.91711442 0.23667183
v -1.61843714 0.91711442 0.23605998
v -1.61625257 1.58486465 0.03930304
v -1.61625257 1.58528020 0.05667564
v -1.61625257 1.58985099 0.07350164
v -1.61625257 1.59088978 0.07496582
v -1.61625257 1.60640274 0.09065572
v -1.65029696 1.62461665 0.06366826
v -1.65002480 1.59940810 0.01345188
v -1.65145128 1.62350857 0.07404804
v -1.65125493 1.60612576 0.23667183
v -1.62450867 1.62461665 0.06006259
v -1.62293740 1.60848039 0.01345188
v -1.61625257 1.58486465 0.01345188
v -1.64120355 0.91711442 0.01345188
v -1.61844408 0.91711442 0.01345188
v -1.65022115 1.62461665 0.06299075
v -1.64529028 1.60217828 0.01345188
v -1.65002480 1.59552985 0.01345188
v -1.65125493 1.60612576 0.07404804
v -1.64030762 1.62461665 0.05888258
v -1.64091067 1.62461665 0.05905740
v -1.63184481 1.60674906 0.01345188
v -1.64030762 1.60508692 0.01345188
f 1 2 6
f 1 6 13
f 1 13 26
f 1 26 35
f 1 35 36
f 1 36 31
f 1 31 22
f 1 22 10
f 1 10 3
f 1 3 11
f 1 11 25
f 1 25 15
f 1 15 9
f 1 9 8
f 1 8 7
f 1 7 4
f 1 4 2
f 2 5 12
f 2 12 21
f 2 21 20
f 2 20 19
f 2 19 18
f 2 18 17
f 2 17 28
f 2 28 14
f 2 14 6
f 2 4 7
f 2 7 8
f 2 8 9
f 2 9 5
f 3 10 24
f 3 24 11
f 5 9 12
f 6 14 13
f 9 15 29
f 9 29 30
f 9 30 16
f 9 16 28
f 9 28 17
f 9 17 18
f 9 18 19
f 9 19 20
f 9 20 21
f 9 21 12
f 10 22 23
f 10 23 33
f 10 33 24
f 11 24 34
f 11 34 25
f 13 14 26
f 14 27 26
f 14 28 30
f 14 30 29
f 14 29 33
f 14 33 23
f 14 23 32
f 14 32 38
f 14 38 37
f 14 37 27
f 15 25 34
f 15 34 29
f 16 30 28
f 22 31 23
f 23 31 32
f 24 33 34
f 26 27 35
f 27 31 36
f 27 36 35
f 27 37 31
f 29 34 33
f 31 37 38
f 31 38 32

