# https://github.com/mikedh/trimesh
v -5.06320522 0.27785083 0.72423873
v -5.07130639 0.27710611 0.72423873
v -5.05328858 0.27322775 0.72423873
v -5.09794960 0.34406263 0.68429650
v -5.07329233 0.27539969 0.72423873
v -5.11225754 0.34406263 0.67955815
v -5.05220717 0.26829449 0.72423873
v -5.08411349 0.34406263 0.66423662
v -5.08566694 0.34406263 0.67823212
v -5.07476707 0.27040429 0.72423873
v -5.11174635 0.33779516 0.67906829
v -5.07846367 0.22349129 0.72423873
v -5.07909293 0.24086648 0.72423873
v -5.07728388 0.25734191 0.72423873
v -5.11432219 0.34406263 0.67042776
v -5.10708640 0.23804302 0.65726005
v -5.04991323 0.25091930 0.72423873
v -5.05058164 0.25091930 0.71952565
v -5.07166037 0.26118920 0.65564684
v -5.08537199 0.34406263 0.66057948
v -5.11028486 0.32041997 0.67753948
v -5.07611734 0.20810193 0.72423873
v -5.10878381 0.30304477 0.67590939
v -5.10757129 0.28902059 0.67454111
v -5.11540360 0.34406263 0.66480260
v -5.11497775 0.33779516 0.66480260
v -5.10708640 0.23804302 0.65517387
v -5.08971090 0.08191464 0.63981019
v -5.08641405 0.07654693 0.64633067
v -5.08569967 0.11362439 0.66309639
v -5.05054891 0.21616892 0.72423873
v -5.04845154 0.21616892 0.71691585
v -5.04850394 0.07719855 0.64742865
v -5.04976245 0.09457375 0.64742865
v -5.05416038 0.10552633 0.63806183
v -5.07185030 0.20772951 0.63868684
v -5.08752177 0.34406263 0.65438834
v -5.07456388 0.20229977 0.72423873
v -5.08328104 0.05982336 0.64742865
v -5.07601895 0.18144960 0.71315721
v -5.11213306 0.34406263 0.65740370
v -5.10961626 0.32041997 0.65304543
v -5.10917715 0.30304477 0.65306231
v -5.10870531 0.28566958 0.65319746
v -5.10822685 0.26829449 0.65349303
v -5.10765000 0.25091930 0.65420254
v -5.08972395 0.08219395 0.63796044
v -5.08279616 0.05036013 0.63796044
v -5.05267901 0.20329264 0.72423873
v -5.05058164 0.19894886 0.71755774
v -5.05087016 0.11194894 0.67951589
v -5.04915950 0.09457375 0.66480260
v -5.04896273 0.05982336 0.64742865
v -5.04887097 0.04263438 0.63796044
v -5.04877279 0.05982336 0.63796044
v -5.05050313 0.07667110 0.63796044
v -5.05410798 0.10475064 0.63796044
v -5.07110320 0.19947631 0.63796044
v -5.07829984 0.21260084 0.63796044
v -5.08699090 0.22994496 0.63818000
v -5.09739243 0.34406263 0.65185455
v -5.07400029 0.16782870 0.71031087
v -5.06320522 0.19621851 0.72423873
v -5.08050864 0.04226207 0.63796044
v -5.07800489 0.04204479 0.64841685
v -5.07559952 0.05982336 0.66014026
v -5.10978009 0.34406263 0.65345088
v -5.10986543 0.33779516 0.65323122
v -5.09350589 0.18449023 0.63796044
v -5.09315833 0.16733232 0.63796044
v -5.09247025 0.14992606 0.63796044
v -5.09025482 0.09457375 0.63796044
v -5.06043282 0.19727341 0.72423873
v -5.05309865 0.16885263 0.70978715
v -5.05146648 0.18144960 0.71237168
v -5.05114544 0.14669922 0.69588465
v -5.05226620 0.05982336 0.65905916
v -5.05097497 0.04291359 0.64793549
v -5.05200398 0.03078203 0.64248762
v -5.05025396 0.03503270 0.63796044
v -5.08441507 0.22339829 0.63796044
v -5.09794960 0.33779516 0.65096763
v -5.09062847 0.22588040 0.63796044
v -5.09031385 0.22994496 0.63818000
v -5.10216402 0.34406263 0.65199809
v -5.07358065 0.04759870 0.65765701
v -5.07295802 0.08377630 0.67440596
v -5.07225027 0.11998496 0.69114641
v -5.06796377 0.11998496 0.69114641
v -5.05638224 0.12107083 0.69062268
v -5.07605168 0.02969606 0.63796044
v -5.07567802 0.03009944 0.64328154
v -5.09176229 0.21716178 0.63796044
v -5.09308625 0.20105877 0.63796044
v -5.05413408 0.08498634 0.67387384
v -5.05369497 0.04902592 0.65698975
v -5.05161727 0.03044068 0.63796044
v -5.06320522 0.03819750 0.65364506
v -5.06320522 0.02876523 0.64495389
v -5.05608087 0.02873416 0.63796044
v -5.06320522 0.04688505 0.65792731
v -5.06320522 0.08362116 0.67446509
v -5.06320522 0.02708978 0.63796044
f 1 2 5
f 1 5 10
f 1 10 14
f 1 14 13
f 1 13 12
f 1 12 22
f 1 22 38
f 1 38 63
f 1 63 73
f 1 73 49
f 1 49 31
f 1 31 17
f 1 17 7
f 1 7 3
f 1 3 4
f 1 4 2
f 2 4 6
f 2 6 5
f 3 7 8
f 3 8 9
f 3 9 4
f 4 9 8
f 4 8 20
f 4 20 37
f 4 37 61
f 4 61 85
f 4 85 67
f 4 67 41
f 4 41 25
f 4 25 15
f 4 15 6
f 5 6 10
f 6 11 12
f 6 12 13
f 6 13 14
f 6 14 10
f 6 15 16
f 6 16 11
f 7 17 18
f 7 18 19
f 7 19 8
f 8 19 20
f 11 21 12
f 11 16 21
f 12 16 22
f 12 21 23
f 12 23 24
f 12 24 16
f 15 25 26
f 15 26 16
f 16 24 23
f 16 23 21
f 16 26 27
f 16 27 28
f 16 28 29
f 16 29 30
f 16 30 22
f 17 31 32
f 17 32 18
f 18 32 33
f 18 33 34
f 18 34 35
f 18 35 19
f 19 36 37
f 19 37 20
f 19 35 36
f 22 30 39
f 22 39 40
f 22 40 38
f 25 41 42
f 25 42 43
f 25 43 44
f 25 44 45
f 25 45 46
f 25 46 27
f 25 27 26
f 27 46 47
f 27 47 28
f 28 47 48
f 28 48 39
f 28 39 29
f 29 39 30
f 31 49 50
f 31 50 32
f 32 50 51
f 32 51 52
f 32 52 53
f 32 53 54
f 32 54 33
f 33 54 55
f 33 55 34
f 34 55 56
f 34 56 35
f 35 56 57
f 35 57 36
f 36 58 59
f 36 59 60
f 36 60 61
f 36 61 37
f 36 57 58
f 38 40 62
f 38 62 63
f 39 48 64
f 39 64 65
f 39 65 40
f 40 65 66
f 40 66 62
f 41 67 68
f 41 68 42
f 42 68 69
f 42 69 70
f 42 70 43
f 43 70 44
f 44 70 71
f 44 71 45
f 45 71 72
f 45 72 47
f 45 47 46
f 47 72 71
f 47 71 70
f 47 70 69
f 47 69 94
f 47 94 93
f 47 93 83
f 47 83 81
f 47 81 59
f 47 59 58
f 47 58 57
f 47 57 56
f 47 56 55
f 47 55 54
f 47 54 80
f 47 80 97
f 47 97 100
f 47 100 103
f 47 103 91
f 47 91 64
f 47 64 48
f 49 73 74
f 49 74 75
f 49 75 50
f 50 75 76
f 50 76 51
f 51 76 75
f 51 75 77
f 51 77 78
f 51 78 52
f 52 78 53
f 53 78 54
f 54 78 79
f 54 79 80
f 59 81 60
f 60 82 61
f 60 81 83
f 60 83 84
f 60 84 82
f 61 82 85
f 62 66 86
f 62 86 87
f 62 87 88
f 62 88 63
f 63 88 89
f 63 89 90
f 63 90 73
f 64 91 92
f 64 92 65
f 65 92 86
f 65 86 66
f 67 85 84
f 67 84 83
f 67 83 93
f 67 93 94
f 67 94 68
f 68 94 69
f 73 90 74
f 74 90 95
f 74 95 96
f 74 96 75
f 75 96 77
f 77 96 78
f 78 96 79
f 79 97 80
f 79 96 98
f 79 98 99
f 79 99 100
f 79 100 97
f 82 84 85
f 86 92 98
f 86 98 101
f 86 101 87
f 87 101 88
f 88 101 89
f 89 101 102
f 89 102 90
f 90 102 101
f 90 101 95
f 91 103 92
f 92 103 99
f 92 99 98
f 95 101 96
f 96 101 98
f 99 103 100

