# https://github.com/mikedh/trimesh
v -0.45476180 0.85382416 0.38592017
v -0.42794232 0.85382416 0.33099899
v -0.47898327 0.85382416 0.38592017
v -0.45656505 0.07817247 0.38592017
v -0.42794232 0.05995541 0.33099899
v -0.42451022 0.85382416 0.32132645
v -0.47923121 0.85382416 0.38466145
v -0.48060052 0.12941796 0.36180515
v -0.47165138 0.05995541 0.38592017
v -0.45687512 0.05995541 0.38592017
v -0.42954279 0.04791623 0.32934270
v -0.42313510 0.05995541 0.31721901
v -0.42309015 0.85382416 0.31721901
v -0.48060052 0.85382416 0.37267023
v -0.48060052 0.11207208 0.36028142
v -0.48060052 0.09615195 0.35120520
v -0.48060052 0.04680748 0.31635778
v -0.47154429 0.05932170 0.38592017
v -0.46204295 0.04942122 0.38592017
v -0.46231905 0.04886674 0.38592017
v -0.42794232 0.04625300 0.31721901
v -0.42303382 0.85382416 0.30502905
v -0.42793673 0.04617377 0.09283056
v -0.42313510 0.05987618 0.09283056
v -0.48060052 0.85382416 0.24812038
v -0.48060052 0.04466889 0.30271026
v -0.46949870 0.04886674 0.38592017
v -0.44162536 0.04538172 0.31715273
v -0.44143377 0.04633222 0.33219153
v -0.42303382 0.85382416 0.09283056
v -0.42793673 0.04617377 -0.29088889
v -0.42313510 0.05987618 -0.29088889
v -0.44606617 0.85382416 0.09283056
v -0.44189028 0.82356795 -0.29088889
v -0.44189028 0.07722206 -0.29088889
v -0.48060052 0.05995541 0.25752790
v -0.43730862 0.04617377 -0.29075633
v -0.48060052 0.04997559 0.26514667
v -0.42313510 0.82356795 -0.29088889
v -0.43731981 0.04625300 -0.29088889
v -0.44187329 0.05987618 -0.29088889
f 1 2 6
f 1 6 13
f 1 13 22
f 1 22 30
f 1 30 33
f 1 33 25
f 1 25 14
f 1 14 7
f 1 7 3
f 1 3 9
f 1 9 18
f 1 18 27
f 1 27 20
f 1 20 19
f 1 19 10
f 1 10 4
f 1 4 5
f 1 5 2
f 2 5 6
f 3 7 8
f 3 8 9
f 4 10 5
f 5 10 11
f 5 11 12
f 5 12 6
f 6 12 13
f 7 14 8
f 8 15 9
f 8 14 25
f 8 25 36
f 8 36 38
f 8 38 26
f 8 26 17
f 8 17 16
f 8 16 15
f 9 15 16
f 9 16 17
f 9 17 18
f 10 19 11
f 11 19 20
f 11 20 21
f 11 21 12
f 12 22 13
f 12 21 23
f 12 23 24
f 12 24 22
f 17 26 27
f 17 27 18
f 20 27 28
f 20 28 29
f 20 29 21
f 21 29 28
f 21 28 23
f 22 24 32
f 22 32 30
f 23 28 31
f 23 31 32
f 23 32 24
f 25 33 34
f 25 34 35
f 25 35 36
f 26 37 31
f 26 31 28
f 26 28 27
f 26 38 37
f 30 39 34
f 30 34 33
f 30 32 39
f 31 37 40
f 31 40 41
f 31 41 35
f 31 35 34
f 31 34 39
f 31 39 32
f 35 41 36
f 36 41 38
f 37 38 41
f 37 41 40

