# https://github.com/mikedh/trimesh
v -2.17928344 0.47404330 2.81678650
v -2.05544187 0.47404330 2.74184041
v -2.02872906 0.47404330 2.81678650
v -2.17398015 0.66791713 2.81678650
v -2.05247591 0.66791713 2.74184041
v -1.97876031 0.47404330 2.74184041
v -1.99305945 0.47404330 2.76379234
v -1.99863780 0.47683159 2.77284603
v -1.99848059 0.49418752 2.77286804
v -2.02870939 0.47933545 2.81678650
v -2.17303731 0.67938339 2.81678650
v -2.05224030 0.67175820 2.74184041
v -1.97874063 0.47449851 2.74184041
v -1.98414210 0.47683159 2.75059330
v -1.99282384 0.47683159 2.76415916
v -1.99280416 0.49418752 2.76418117
v -1.99848059 0.65053277 2.77286804
v -2.02870939 0.49671976 2.81678650
v -2.17250706 0.68530148 2.81678650
v -2.05104207 0.68521615 2.74184041
v -1.97866202 0.47683159 2.74184041
v -1.97870138 0.47683159 2.74190643
v -1.98412252 0.49418752 2.75063732
v -1.99280416 0.65053277 2.76418117
v -1.99850027 0.66791713 2.77281667
v -2.02886649 0.56671235 2.81678650
v -2.16958035 0.69332503 2.81678650
v -2.04526746 0.72015553 2.74184041
v -2.04899938 0.70126319 2.74184041
v -1.97862277 0.49418752 2.74184041
v -1.97868170 0.49418752 2.74195045
v -1.98412252 0.65053277 2.75063732
v -1.99284341 0.66791713 2.76412980
v -1.99857888 0.68530148 2.77267728
v -1.99871631 0.70265736 2.77249387
v -2.00739805 0.70265736 2.78432824
v -2.00759441 0.72004172 2.78416679
v -2.01423336 0.72004172 2.79285366
v -2.03159674 0.65992206 2.81678650
v -2.16596629 0.70265736 2.81678650
v -2.03825527 0.73614572 2.74184041
v -1.97862277 0.63317689 2.74184041
v -1.97868170 0.65053277 2.74195045
v -1.97870138 0.66791713 2.74184041
v -1.98416177 0.66791713 2.75054929
v -1.99294159 0.68530148 2.76399041
v -1.99305945 0.70265736 2.76379969
v -1.99891277 0.72004172 2.77204631
v -2.01535298 0.73742602 2.79130559
v -2.02403463 0.73742602 2.80043266
v -2.03255916 0.73742602 2.80911948
v -2.03244130 0.67332305 2.81678650
v -2.15027245 0.73662941 2.81678650
v -2.14714949 0.73973068 2.81678650
v -2.13809461 0.74778270 2.81678650
v -2.12829334 0.75463966 2.81678650
v -2.02645056 0.74428308 2.74184041
v -1.97864245 0.65053277 2.74184041
v -1.97891741 0.68498851 2.74184041
v -1.98425995 0.68530148 2.75036588
v -1.98437781 0.70265736 2.75016776
v -1.97936916 0.71173363 2.74184041
v -1.97942808 0.71284326 2.74184041
v -1.99345237 0.72004172 2.76335944
v -1.99467007 0.73210549 2.76151057
v -2.00924438 0.73742602 2.78261872
v -2.01179775 0.74786804 2.77939053
v -2.02713802 0.74906306 2.79752723
v -2.04406923 0.75020112 2.81478358
v -2.04073013 0.73742602 2.81678650
v -2.11311017 0.76152514 2.81678650
v -2.02678445 0.74485211 2.74277222
v -2.01629572 0.74678684 2.74184041
v -1.97915312 0.70265736 2.74184041
v -1.98398499 0.71887518 2.74817949
v -1.98168691 0.72160657 2.74184041
v -1.99123279 0.73480845 2.74981559
v -2.00967645 0.74877852 2.76718928
v -2.02183473 0.75122542 2.78492985
v -2.03894272 0.75333087 2.80276579
v -2.04538521 0.74789652 2.81678650
v -2.04181051 0.73992988 2.81678650
v -2.06716797 0.76272011 2.81678650
v -2.05059032 0.75281875 2.81678650
v -2.10297502 0.76400047 2.81678650
v -2.09798604 0.76294774 2.81200290
v -2.03664464 0.74846555 2.75435712
v -2.08639737 0.76391513 2.80958904
v -2.02161869 0.74877852 2.74906724
v -2.01411550 0.74678684 2.74184041
v -1.98917042 0.73441015 2.74184041
v -1.99502364 0.73933237 2.74184041
v -2.00156441 0.74348636 2.74981559
v -2.01026573 0.74766889 2.74981559
v -2.02258111 0.75338778 2.76718928
v -2.06502710 0.76374441 2.81171675
v -2.07304097 0.76414276 2.81678650
v -2.09109170 0.76465489 2.81678650
v -2.08934365 0.76471180 2.81678650
v -2.07469084 0.76400047 2.80830510
v -2.01219056 0.74658768 2.74184041
v -2.00384281 0.74323030 2.74184041
v -2.06502710 0.76374441 2.80856924
v -2.03994449 0.75771255 2.78455567
v -2.07522119 0.76422810 2.81678650
f 1 2 6
f 1 6 7
f 1 7 3
f 1 3 10
f 1 10 18
f 1 18 26
f 1 26 39
f 1 39 52
f 1 52 70
f 1 70 82
f 1 82 81
f 1 81 84
f 1 84 83
f 1 83 97
f 1 97 105
f 1 105 99
f 1 99 98
f 1 98 85
f 1 85 71
f 1 71 56
f 1 56 55
f 1 55 54
f 1 54 53
f 1 53 40
f 1 40 27
f 1 27 19
f 1 19 11
f 1 11 4
f 1 4 5
f 1 5 2
f 2 5 12
f 2 12 20
f 2 20 29
f 2 29 28
f 2 28 41
f 2 41 57
f 2 57 73
f 2 73 90
f 2 90 101
f 2 101 102
f 2 102 92
f 2 92 91
f 2 91 76
f 2 76 63
f 2 63 62
f 2 62 74
f 2 74 59
f 2 59 44
f 2 44 58
f 2 58 42
f 2 42 30
f 2 30 21
f 2 21 13
f 2 13 6
f 3 7 8
f 3 8 9
f 3 9 10
f 4 11 12
f 4 12 5
f 6 13 14
f 6 14 15
f 6 15 7
f 7 15 8
f 8 15 9
f 9 15 16
f 9 16 24
f 9 24 17
f 9 17 18
f 9 18 10
f 11 19 20
f 11 20 12
f 13 21 22
f 13 22 14
f 14 22 31
f 14 31 23
f 14 23 15
f 15 23 16
f 16 23 32
f 16 32 24
f 17 24 25
f 17 25 26
f 17 26 18
f 19 27 28
f 19 28 29
f 19 29 20
f 21 30 31
f 21 31 22
f 23 31 43
f 23 43 32
f 24 32 33
f 24 33 25
f 25 33 34
f 25 34 26
f 26 34 35
f 26 35 36
f 26 36 37
f 26 37 38
f 26 38 39
f 27 40 28
f 28 40 41
f 30 42 43
f 30 43 31
f 32 43 44
f 32 44 45
f 32 45 33
f 33 45 46
f 33 46 34
f 34 46 47
f 34 47 35
f 35 47 48
f 35 48 37
f 35 37 36
f 37 48 49
f 37 49 38
f 38 49 50
f 38 50 51
f 38 51 52
f 38 52 39
f 40 53 41
f 41 53 54
f 41 54 55
f 41 55 56
f 41 56 57
f 42 58 43
f 43 58 44
f 44 59 60
f 44 60 45
f 45 60 46
f 46 60 47
f 47 60 61
f 47 61 62
f 47 62 48
f 48 62 63
f 48 63 64
f 48 64 65
f 48 65 66
f 48 66 49
f 49 66 67
f 49 67 68
f 49 68 69
f 49 69 50
f 50 69 51
f 51 69 70
f 51 70 52
f 56 71 72
f 56 72 57
f 57 72 73
f 59 74 60
f 60 74 61
f 61 74 62
f 63 75 64
f 63 76 75
f 64 75 65
f 65 75 76
f 65 76 77
f 65 77 67
f 65 67 66
f 67 78 79
f 67 79 68
f 67 77 78
f 68 79 80
f 68 80 69
f 69 81 82
f 69 82 70
f 69 80 83
f 69 83 84
f 69 84 81
f 71 85 86
f 71 86 87
f 71 87 72
f 72 87 73
f 73 87 86
f 73 86 88
f 73 88 89
f 73 89 90
f 76 91 77
f 77 91 78
f 78 91 92
f 78 92 93
f 78 93 94
f 78 94 95
f 78 95 79
f 79 95 96
f 79 96 80
f 80 96 83
f 83 96 97
f 85 98 88
f 85 88 86
f 88 98 99
f 88 99 100
f 88 100 89
f 89 100 95
f 89 95 90
f 90 95 101
f 92 102 94
f 92 94 93
f 94 102 101
f 94 101 95
f 95 100 103
f 95 103 104
f 95 104 96
f 96 103 97
f 96 104 103
f 97 103 105
f 99 105 103
f 99 103 100

