# https://github.com/mikedh/trimesh
v -1.97699921 0.70545363 2.22085953
v -2.01747055 0.70545363 2.12908294
v -2.01457781 0.70545363 2.22085953
v -1.98611177 0.02507008 2.22085953
v -2.02224401 0.02507008 2.12908294
v -2.04325149 0.70545363 2.12908294
v -2.01461033 0.70545363 2.22081461
v -2.01463622 0.70399318 2.22085953
v -1.98695489 0.01415115 2.22085953
v -2.02328172 0.00768318 2.12908294
v -2.02252291 0.02034084 2.12908294
v -2.04305689 0.70545363 2.14168695
v -2.04268075 0.02507008 2.12908294
v -2.04255099 0.02507008 2.14168695
v -2.01957186 0.70545363 2.21269343
v -2.02060315 0.70267170 2.21117519
v -2.01468811 0.70260221 2.22085953
v -1.98751921 0.00768318 2.22085953
v -2.02777638 -0.00455711 2.12908294
v -2.04089718 0.70267170 2.15906126
v -2.04089065 0.70545363 2.15906126
v -2.04078688 0.02507008 2.15906126
v -2.04079341 0.04245697 2.15906126
v -2.04194783 0.00768318 2.12908294
v -2.04185701 0.00768318 2.14168695
v -2.04046262 0.00768318 2.15906126
v -2.02047991 0.70545363 2.21117519
v -2.02708240 0.70545363 2.19937971
v -2.02848983 0.70267170 2.19707093
v -2.02849636 0.68528486 2.19707093
v -2.02060315 0.02507008 2.21117519
v -2.01468811 0.02500059 2.22085953
v -1.99257156 -0.00316615 2.22085953
v -1.99596369 -0.00407026 2.22085953
v -2.02655713 -0.00497437 2.15906126
v -2.03623391 -0.00455711 2.12908294
v -2.03686948 0.70267170 2.17642658
v -2.03686948 0.02507008 2.17642658
v -2.03675919 0.70545363 2.17642658
v -2.03680465 0.00768318 2.17642658
v -2.03620792 -0.00462671 2.14168695
v -2.03569559 -0.00497437 2.15906126
v -2.03399631 -0.00393128 2.17642658
v -2.03221916 -0.00226204 2.18725183
v -2.02843153 0.70545363 2.19695413
v -2.03273801 0.70267170 2.18838377
v -2.03269265 0.70545363 2.18826698
v -2.02849636 0.04245697 2.19707093
v -2.02848983 0.02507008 2.19707093
v -2.02826282 0.00768318 2.19704397
v -2.02035024 0.00768318 2.21117519
v -2.01463622 0.00740501 2.22085953
v -2.00938274 -0.00344442 2.22085953
v -2.03614309 0.70545363 2.17826823
v -2.03271854 0.00768318 2.18835682
v -2.03273801 0.02507008 2.18838377
v -2.01698411 -0.00351392 2.21117519
v -2.01437679 -0.00156661 2.22051815
v -2.01412389 -0.00121884 2.22085953
v -2.01387088 -0.00170569 2.22085953
f 1 2 6
f 1 6 12
f 1 12 21
f 1 21 39
f 1 39 54
f 1 54 47
f 1 47 45
f 1 45 28
f 1 28 27
f 1 27 15
f 1 15 7
f 1 7 3
f 1 3 8
f 1 8 17
f 1 17 32
f 1 32 52
f 1 52 59
f 1 59 60
f 1 60 53
f 1 53 34
f 1 34 33
f 1 33 18
f 1 18 9
f 1 9 4
f 1 4 5
f 1 5 2
f 2 5 11
f 2 11 10
f 2 10 19
f 2 19 36
f 2 36 24
f 2 24 13
f 2 13 6
f 3 7 8
f 4 9 10
f 4 10 11
f 4 11 5
f 6 13 14
f 6 14 12
f 7 15 16
f 7 16 17
f 7 17 8
f 9 18 10
f 10 18 19
f 12 20 21
f 12 14 22
f 12 22 23
f 12 23 20
f 13 24 25
f 13 25 14
f 14 25 26
f 14 26 22
f 15 27 16
f 16 27 28
f 16 28 29
f 16 29 30
f 16 30 48
f 16 48 31
f 16 31 32
f 16 32 17
f 18 33 19
f 19 33 34
f 19 34 35
f 19 35 42
f 19 42 36
f 20 37 21
f 20 23 38
f 20 38 37
f 21 37 39
f 22 38 23
f 22 26 40
f 22 40 38
f 24 36 41
f 24 41 25
f 25 41 42
f 25 42 26
f 26 42 43
f 26 43 44
f 26 44 40
f 28 45 29
f 29 46 30
f 29 45 47
f 29 47 46
f 30 46 56
f 30 56 48
f 31 48 49
f 31 49 50
f 31 50 51
f 31 51 52
f 31 52 32
f 34 42 35
f 34 53 42
f 36 42 41
f 37 46 47
f 37 47 54
f 37 54 39
f 37 38 56
f 37 56 46
f 38 40 55
f 38 55 56
f 40 44 55
f 42 53 57
f 42 57 43
f 43 57 44
f 44 57 58
f 44 58 50
f 44 50 55
f 48 56 49
f 49 56 55
f 49 55 50
f 50 58 51
f 51 58 52
f 52 58 59
f 53 60 57
f 57 60 58
f 58 60 59

