# https://github.com/mikedh/trimesh
v -6.36751085 1.60618376 0.63795205
v -6.36751085 1.58882081 0.63795205
v -6.36803799 1.61565248 0.63795205
v -6.36761131 1.64622635 1.15129824
v -6.36778695 1.57143630 0.63795205
v -6.36761131 1.53606337 1.15129824
v -6.36899202 1.62355748 0.63795205
v -6.37122651 1.64622635 1.13260820
v -6.37132676 1.64622635 1.16594577
v -6.36773683 1.53606337 1.15182320
v -6.37054858 1.63303700 0.63795205
v -6.37218033 1.63788999 0.63795205
v -6.38372872 1.64427438 0.63795205
v -6.40110153 1.64583812 0.63795205
v -6.37107572 1.55591749 0.63795205
v -6.37190423 1.53606337 1.13224076
v -6.38372872 1.54939292 0.63795205
v -6.38159489 1.55026646 0.63795205
v -6.37494196 1.64622635 1.12294819
v -6.37993787 1.64622635 1.17088079
v -6.37177871 1.53606337 1.16620830
v -6.37132676 1.53606337 1.16594577
v -6.41847434 1.64584889 0.63795205
v -6.48869363 1.64622635 0.94360777
v -6.37225573 1.53606337 1.13150566
v -6.39876679 1.54865956 0.63795205
v -6.38372872 1.53606337 1.17303325
v -6.38372872 1.64622635 1.17303325
v -6.61193505 1.64585968 0.63795205
v -6.50568988 1.64622635 0.94329273
v -6.38232295 1.53606337 1.12431316
v -6.40110153 1.54856252 0.63795205
v -6.38435652 1.53606337 1.17308576
v -6.39580445 1.64622635 1.17382075
v -6.62398552 1.64585968 0.63795205
v -6.62398552 1.64622635 1.11806568
v -6.38312639 1.53606337 1.12394572
v -6.62398552 1.54856252 0.63795205
v -6.38370366 1.53606337 1.12389321
v -6.40057439 1.53606337 1.12310571
v -6.62398552 1.53606337 1.12305321
v -6.40110153 1.53606337 1.17413579
v -6.40110153 1.64622635 1.17413579
v -6.62398552 1.64622635 1.17424081
v -6.62398552 1.53606337 1.17424081
v -6.61959214 1.64622635 1.17424081
f 1 2 5
f 1 5 15
f 1 15 18
f 1 18 17
f 1 17 26
f 1 26 32
f 1 32 38
f 1 38 35
f 1 35 29
f 1 29 23
f 1 23 14
f 1 14 13
f 1 13 12
f 1 12 11
f 1 11 7
f 1 7 3
f 1 3 4
f 1 4 6
f 1 6 2
f 2 6 5
f 3 7 4
f 4 8 19
f 4 19 24
f 4 24 30
f 4 30 36
f 4 36 44
f 4 44 46
f 4 46 43
f 4 43 34
f 4 34 28
f 4 28 20
f 4 20 9
f 4 9 10
f 4 10 6
f 4 7 11
f 4 11 12
f 4 12 13
f 4 13 14
f 4 14 8
f 5 6 15
f 6 10 22
f 6 22 21
f 6 21 27
f 6 27 33
f 6 33 42
f 6 42 45
f 6 45 41
f 6 41 40
f 6 40 39
f 6 39 37
f 6 37 31
f 6 31 25
f 6 25 16
f 6 16 17
f 6 17 18
f 6 18 15
f 8 14 19
f 9 20 21
f 9 21 22
f 9 22 10
f 14 23 24
f 14 24 19
f 16 25 17
f 17 25 26
f 20 27 21
f 20 28 27
f 23 29 24
f 24 29 30
f 25 31 32
f 25 32 26
f 27 28 33
f 28 34 33
f 29 35 30
f 30 35 36
f 31 37 32
f 32 37 39
f 32 39 40
f 32 40 41
f 32 41 38
f 33 34 42
f 34 43 42
f 35 38 41
f 35 41 45
f 35 45 44
f 35 44 36
f 42 43 46
f 42 46 45
f 44 45 46

