# https://github.com/mikedh/trimesh
v -3.56599719 2.13915754 4.29460254
v -3.58010738 2.09890353 4.29517422
v -3.57985150 2.08179356 4.29517422
v -3.56599719 2.02262736 4.29460254
v -3.56599719 2.13915754 4.27760153
v -3.60936350 2.13915754 4.29484074
v -3.61728374 2.13122995 4.29517422
v -3.58841754 2.12533272 4.29517422
v -3.57985150 2.02262736 4.29517422
v -3.56599719 2.02262736 4.27760153
v -3.60805971 2.07531462 4.23072984
v -3.60815719 2.09268691 4.23083858
v -3.60964377 2.10404790 4.23242435
v -3.62107327 2.10542814 4.23089989
v -3.63843686 2.10546237 4.23086592
v -3.62107327 2.13915754 4.27754022
v -3.62673929 2.13915754 4.29484737
v -3.63451330 2.13136686 4.29517422
v -3.62294977 2.02262736 4.29517422
v -3.60807191 2.02262736 4.23074331
v -3.60805971 2.02319769 4.23072984
v -3.62107327 2.07531462 4.22584329
v -3.62107327 2.09268691 4.22613576
v -3.63843686 2.09268691 4.22597938
v -3.69046672 2.10539392 4.23083858
v -3.67318841 2.10546237 4.23086592
v -3.68491037 2.13915754 4.27754022
v -3.69046672 2.13915754 4.29484737
v -3.69046672 2.13143521 4.29517422
v -3.69046672 2.09120403 4.29517422
v -3.69046672 2.02262736 4.24592719
v -3.62067116 2.02262736 4.22602018
v -3.62107327 2.02319769 4.22585676
v -3.62107327 2.04056998 4.22584329
v -3.63843686 2.07531462 4.22565274
v -3.67318841 2.09268691 4.22597938
v -3.69046672 2.09258428 4.22597938
v -3.69046672 2.13908909 4.27754022
v -3.69046672 2.02262736 4.22574801
v -3.62107327 2.02262736 4.22587726
v -3.63843686 2.02319769 4.22567987
v -3.69046672 2.07522338 4.22570037
v -3.69046672 2.02310645 4.22572751
v -3.63843686 2.02262736 4.22570700
v -3.63787635 2.02262736 4.22570700
f 1 2 3
f 1 3 9
f 1 9 4
f 1 4 10
f 1 10 5
f 1 5 16
f 1 16 27
f 1 27 28
f 1 28 17
f 1 17 6
f 1 6 7
f 1 7 8
f 1 8 2
f 2 8 7
f 2 7 18
f 2 18 29
f 2 29 30
f 2 30 19
f 2 19 9
f 2 9 3
f 4 9 19
f 4 19 31
f 4 31 39
f 4 39 44
f 4 44 45
f 4 45 40
f 4 40 32
f 4 32 20
f 4 20 10
f 5 10 21
f 5 21 11
f 5 11 12
f 5 12 13
f 5 13 14
f 5 14 15
f 5 15 16
f 6 17 7
f 7 17 18
f 10 20 21
f 11 21 34
f 11 34 22
f 11 22 12
f 12 22 23
f 12 23 13
f 13 23 14
f 14 23 24
f 14 24 15
f 15 24 25
f 15 25 26
f 15 26 27
f 15 27 16
f 17 28 29
f 17 29 18
f 19 30 31
f 20 32 21
f 21 32 33
f 21 33 34
f 22 34 35
f 22 35 23
f 23 35 24
f 24 35 36
f 24 36 25
f 25 37 42
f 25 42 43
f 25 43 39
f 25 39 31
f 25 31 30
f 25 30 29
f 25 29 28
f 25 28 38
f 25 38 27
f 25 27 26
f 25 36 37
f 27 38 28
f 32 40 33
f 33 40 41
f 33 41 34
f 34 41 35
f 35 41 43
f 35 43 42
f 35 42 37
f 35 37 36
f 39 43 41
f 39 41 44
f 40 45 41
f 41 45 44

