# https://github.com/mikedh/trimesh
v -5.55455593 0.41749452 1.39488678
v -5.55456773 0.41678894 1.40941169
v -5.55456773 0.41579338 1.42117140
v -5.55456773 0.41501049 1.42929991
v -5.55456773 0.41488481 1.43010512
v -5.55456773 0.40892115 1.44616459
v -5.55456773 0.40673673 1.44940080
v -5.55456773 0.40064740 1.45822815
v -5.55456773 0.39932323 1.46000577
v -5.55456773 0.39429713 1.46647819
v -5.55456773 0.39157144 1.46966883
v -5.55456773 0.38529848 1.47568542
v -5.55456773 0.38203151 1.47715918
v -5.55456773 0.37255921 1.48110946
v -5.55456773 0.36771678 1.48199069
v -5.55456773 0.36435314 1.48255283
v -5.55455593 0.41494281 1.39488678
v -5.55455593 0.41932133 1.35980520
v -5.63987916 0.46309677 1.37718645
v -5.64180710 0.46309677 1.38672793
v -5.64252417 0.46309677 1.38908292
v -5.65162307 0.46309677 1.39294201
v -5.65395077 0.46309677 1.39370170
v -5.60184933 0.38189615 1.47325447
v -5.58446243 0.37255921 1.47899759
v -5.56709936 0.37255921 1.48033460
v -5.57529311 0.36435314 1.48147411
v -5.55791802 0.36435314 1.48238568
v -5.55456773 0.36435314 1.46242155
v -5.55455593 0.39807638 1.39455253
v -5.55455593 0.41986260 1.34202891
v -5.55455593 0.41947600 1.32733684
v -5.64037274 0.46309677 1.37445165
v -5.66739935 0.46309677 1.39048072
v -5.61063070 0.38129693 1.47276829
v -5.60184933 0.37255921 1.47734151
v -5.60184933 0.36435314 1.47951417
v -5.59266799 0.36435314 1.48038017
v -5.62983969 0.36435314 1.39488678
v -5.62119917 0.37623210 1.32733684
v -5.55455593 0.40215523 1.32733684
v -5.65395077 0.46309677 1.36103585
v -5.64516919 0.46309677 1.36430246
v -5.64260640 0.46309677 1.36541157
v -5.56849829 0.41703060 1.32733684
v -5.67199571 0.46309677 1.37718645
v -5.67303031 0.38993793 1.39455253
v -5.66808100 0.36435314 1.40748215
v -5.64260640 0.36435314 1.44961352
v -5.63805685 0.36435314 1.45707347
v -5.63384844 0.36435314 1.46321159
v -5.62686555 0.36435314 1.47199342
v -5.62561927 0.36435314 1.47273789
v -5.61462784 0.37255921 1.47459147
v -5.61770783 0.36435314 1.47576138
v -5.67465253 0.36435314 1.39488678
v -5.64471061 0.37623210 1.32733684
v -5.60184933 0.40883416 1.32733684
v -5.60412980 0.40822525 1.32733684
v -5.61920080 0.40392405 1.32733684
v -5.62048209 0.40327646 1.32733684
v -5.62851118 0.39901394 1.32733684
v -5.66721107 0.46309677 1.36410491
v -5.67417055 0.37623210 1.39455253
v -5.67212496 0.45941420 1.37718645
v -5.67428820 0.37255921 1.39488678
v -5.67226622 0.44204512 1.37718645
v -5.67179583 0.42467604 1.37718645
v -5.66978566 0.37623210 1.37925276
v -5.64360559 0.37870655 1.32733684
v -5.63460072 0.39116547 1.32733684
v -5.63554129 0.38993793 1.32733684
v -5.64261821 0.38014670 1.32733684
f 1 2 3
f 1 3 4
f 1 4 5
f 1 5 6
f 1 6 7
f 1 7 8
f 1 8 9
f 1 9 10
f 1 10 11
f 1 11 12
f 1 12 13
f 1 13 14
f 1 14 15
f 1 15 16
f 1 16 17
f 1 17 30
f 1 30 41
f 1 41 32
f 1 32 31
f 1 31 18
f 1 18 2
f 2 18 19
f 2 19 3
f 3 19 4
f 4 19 20
f 4 20 21
f 4 21 5
f 5 21 6
f 6 21 22
f 6 22 23
f 6 23 7
f 7 23 8
f 8 23 9
f 9 23 10
f 10 23 11
f 11 23 12
f 12 23 24
f 12 24 25
f 12 25 13
f 13 25 26
f 13 26 14
f 14 27 15
f 14 26 27
f 15 27 28
f 15 28 16
f 16 28 27
f 16 27 38
f 16 38 37
f 16 37 55
f 16 55 53
f 16 53 52
f 16 52 51
f 16 51 50
f 16 50 49
f 16 49 48
f 16 48 56
f 16 56 39
f 16 39 29
f 16 29 30
f 16 30 17
f 18 31 19
f 19 31 32
f 19 32 33
f 19 33 44
f 19 44 43
f 19 43 42
f 19 42 63
f 19 63 46
f 19 46 34
f 19 34 23
f 19 23 22
f 19 22 21
f 19 21 20
f 23 34 35
f 23 35 24
f 24 35 25
f 25 35 36
f 25 36 37
f 25 37 38
f 25 38 26
f 26 38 27
f 29 39 40
f 29 40 41
f 29 41 30
f 32 42 43
f 32 43 44
f 32 44 33
f 32 41 40
f 32 40 57
f 32 57 70
f 32 70 73
f 32 73 72
f 32 72 71
f 32 71 62
f 32 62 61
f 32 61 60
f 32 60 59
f 32 59 58
f 32 58 45
f 32 45 42
f 34 46 47
f 34 47 48
f 34 48 49
f 34 49 50
f 34 50 51
f 34 51 52
f 34 52 35
f 35 52 53
f 35 53 54
f 35 54 36
f 36 54 37
f 37 54 55
f 39 56 57
f 39 57 40
f 42 45 58
f 42 58 59
f 42 59 60
f 42 60 61
f 42 61 62
f 42 62 63
f 46 56 64
f 46 64 47
f 46 63 65
f 46 65 56
f 47 64 48
f 48 64 66
f 48 66 56
f 53 55 54
f 56 66 64
f 56 65 67
f 56 67 68
f 56 68 69
f 56 69 57
f 57 63 70
f 57 69 68
f 57 68 63
f 62 71 63
f 63 71 72
f 63 72 73
f 63 73 70
f 63 68 67
f 63 67 65

