# https://github.com/mikedh/trimesh
v -4.97716388 0.14964530 4.29460420
v -4.97716388 0.02505744 4.29460420
v -4.97716388 0.14964530 4.27760981
v -6.31425488 0.14964530 4.29460420
v -4.97716388 0.00768981 4.29453854
v -6.31425488 0.02501125 4.29460420
v -4.97716388 0.10664948 4.26830068
v -6.31425488 0.10666481 4.26829509
v -6.31412397 0.14964530 4.27760981
v -6.31425488 0.14964530 4.28051788
v -4.97716388 -0.00477045 4.29098838
v -6.31412397 0.00768981 4.29453854
v -6.31425488 0.00765905 4.29453005
v -4.97716388 0.09512750 4.26610327
v -5.04587694 0.09454299 4.26598914
v -6.31425488 0.09454299 4.26595765
v -6.31425488 0.14667633 4.27760981
v -4.97716388 -0.00490892 4.29040345
v -6.31412397 -0.00477045 4.29098838
v -6.31425488 -0.00478589 4.29095980
v -4.97716388 0.09454299 4.26599204
v -4.97716388 0.07800614 4.26553263
v -6.31425488 0.07717546 4.26545558
v -4.97716388 -0.00750868 4.27881985
v -6.31425488 -0.00749325 4.27879417
v -6.31412397 -0.00750868 4.27881985
v -4.97716388 0.07717546 4.26550964
v -6.31425488 0.05980783 4.26545268
v -4.97716388 0.05980783 4.26550405
v -4.97716388 0.02588813 4.26549535
v -4.97716388 -0.00372446 4.26788125
v -6.31425488 -0.00372446 4.26788125
v -6.31425488 0.02505744 4.26544978
v -4.97716388 0.02505744 4.26549535
v -4.97716388 -0.00318603 4.26777002
v -6.31425488 0.00768981 4.26554112
v -4.97716388 0.00768981 4.26556101
f 1 2 5
f 1 5 11
f 1 11 18
f 1 18 24
f 1 24 31
f 1 31 35
f 1 35 37
f 1 37 34
f 1 34 30
f 1 30 29
f 1 29 27
f 1 27 22
f 1 22 21
f 1 21 14
f 1 14 7
f 1 7 3
f 1 3 9
f 1 9 10
f 1 10 4
f 1 4 6
f 1 6 2
f 2 6 5
f 3 7 8
f 3 8 9
f 4 10 17
f 4 17 8
f 4 8 16
f 4 16 23
f 4 23 28
f 4 28 33
f 4 33 36
f 4 36 32
f 4 32 25
f 4 25 20
f 4 20 13
f 4 13 6
f 5 6 12
f 5 12 13
f 5 13 11
f 6 13 12
f 7 14 15
f 7 15 16
f 7 16 8
f 8 17 9
f 9 17 10
f 11 13 19
f 11 19 20
f 11 20 18
f 13 20 19
f 14 21 15
f 15 21 22
f 15 22 23
f 15 23 16
f 18 20 24
f 20 25 26
f 20 26 24
f 22 27 23
f 23 27 29
f 23 29 30
f 23 30 28
f 24 26 32
f 24 32 31
f 25 32 26
f 28 30 33
f 30 34 33
f 31 32 35
f 32 36 35
f 33 34 37
f 33 37 36
f 35 36 37

