# https://github.com/mikedh/trimesh
v -2.20050975 2.50527748 0.69928693
v -2.20956650 2.50527748 0.68216464
v -2.20962936 2.50503182 0.69928693
v -2.19580144 2.49226801 0.69928693
v -2.20050975 2.50527748 0.46196740
v -2.20956650 2.50527748 0.46196740
v -2.21435187 2.49226801 0.68216464
v -2.21437186 2.49202257 0.69928693
v -2.19558437 2.47484031 0.69928693
v -2.19573008 2.48662234 0.46196740
v -2.19580144 2.49226801 0.46196740
v -2.21435187 2.49226801 0.46196740
v -2.21460891 2.47459466 0.69928693
v -2.19558437 2.47484031 0.46196740
v -2.18558250 0.07717753 0.69928693
v -2.18557970 0.07717753 0.63003098
v -2.18557680 0.07717753 0.47367652
v -2.21456894 2.47484031 0.46196740
v -2.21474593 0.07717753 0.69928693
v -2.18557680 0.07717753 0.46196740
v -2.18558250 0.02513988 0.69928693
v -2.18557970 0.04256758 0.63003098
v -2.18557970 0.03692212 0.46196740
v -2.21469166 0.07717753 0.46196740
v -2.21469166 0.05999528 0.46196740
v -2.21469166 0.05999528 0.68216464
v -2.21464599 0.05974983 0.69928693
v -2.18563386 0.00771218 0.69928693
v -2.18558250 0.02513988 0.46196740
v -2.20239420 0.00771218 0.46196740
v -2.20239420 0.00771218 0.68216464
v -2.20229136 0.00771218 0.69928693
v -2.18665604 -0.00210628 0.69928693
v -2.18665604 -0.00235172 0.52581017
v -2.18563386 0.00771218 0.46196740
v -2.19484492 -0.00235172 0.46196740
v -2.19484492 -0.00235172 0.52581017
v -2.19484492 -0.00210628 0.69928693
v -2.18665604 -0.00235172 0.46196740
f 1 2 3
f 1 3 8
f 1 8 13
f 1 13 19
f 1 19 27
f 1 27 32
f 1 32 38
f 1 38 33
f 1 33 28
f 1 28 21
f 1 21 15
f 1 15 9
f 1 9 4
f 1 4 11
f 1 11 5
f 1 5 6
f 1 6 2
f 2 6 12
f 2 12 7
f 2 7 3
f 3 7 8
f 4 9 10
f 4 10 11
f 5 11 10
f 5 10 14
f 5 14 20
f 5 20 23
f 5 23 29
f 5 29 35
f 5 35 39
f 5 39 36
f 5 36 30
f 5 30 25
f 5 25 24
f 5 24 18
f 5 18 12
f 5 12 6
f 7 12 8
f 8 12 13
f 9 14 10
f 9 15 16
f 9 16 17
f 9 17 20
f 9 20 14
f 12 18 13
f 13 18 19
f 15 21 22
f 15 22 16
f 16 22 17
f 17 22 23
f 17 23 20
f 18 24 19
f 19 24 25
f 19 25 26
f 19 26 27
f 21 28 35
f 21 35 29
f 21 29 23
f 21 23 22
f 25 30 27
f 25 27 26
f 27 30 31
f 27 31 32
f 28 33 34
f 28 34 39
f 28 39 35
f 30 36 37
f 30 37 31
f 31 37 38
f 31 38 32
f 33 38 37
f 33 37 34
f 34 37 36
f 34 36 39

