# https://github.com/mikedh/trimesh
v -3.99027135 0.87486253 2.44198462
v -4.25664391 0.79876121 2.74197711
v -4.24700005 0.80245160 2.74197711
v -4.23872231 0.80488799 2.74197711
v -4.22915883 0.80753937 2.74197711
v -4.22136328 0.80893670 2.74197711
v -4.21179979 0.81036987 2.74197711
v -4.20400424 0.81115809 2.74197711
v -4.19448094 0.81155226 2.74197711
v -4.18668549 0.81122976 2.74197711
v -4.17708172 0.81019071 2.74197711
v -4.16932645 0.80868592 2.74197711
v -4.15972268 0.80639282 2.74197711
v -4.15172632 0.80381315 2.74197711
v -4.14372991 0.80091098 2.74197711
v -4.13561295 0.79714888 2.74197711
v -3.99027135 0.87471922 2.44224892
v -3.99027135 0.51904224 2.44198462
v -4.08425918 0.81721326 2.44198462
v -4.08566558 0.81782237 2.44330615
v -4.09723825 0.81423942 2.44721210
v -4.10294425 0.81789403 2.45881238
v -4.11447674 0.81427526 2.46615432
v -4.11785209 0.81653251 2.47775464
v -4.21175961 0.78837071 2.55869241
v -4.21175961 0.79191782 2.57607817
v -4.22915883 0.79281355 2.62817672
v -4.24651786 0.79062794 2.66291887
v -4.26391698 0.79130871 2.71504682
v -4.26267131 0.79485582 2.73263815
v -4.26484118 0.79524993 2.74197711
v -4.13227778 0.79503494 2.74197711
v -3.99027135 0.86798331 2.45305628
v -4.11753062 0.78550438 2.74197711
v -4.11327126 0.78256638 2.74197711
v -4.10443101 0.77590211 2.74197711
v -3.99027135 0.51904224 2.58309710
v -4.09470674 0.50886675 2.65463714
v -4.28726334 0.51904224 2.44198462
v -4.08662996 0.81556514 2.44198462
v -4.09366199 0.81047737 2.44198462
v -4.11608405 0.79804460 2.44591989
v -4.14658288 0.77737116 2.44897416
v -4.17302326 0.76687317 2.45934102
v -4.15389619 0.78299633 2.46054510
v -4.17157669 0.78306799 2.47760779
v -4.18318949 0.77891178 2.48383378
v -4.17728263 0.78586266 2.48947241
v -4.16040579 0.79539327 2.48773968
v -4.15506149 0.80033771 2.49255602
v -4.16663421 0.79725638 2.50271732
v -4.21159888 0.78421455 2.54306874
v -4.22051944 0.78084655 2.54997018
v -4.22220711 0.78213644 2.55869241
v -4.22558246 0.78439366 2.57607817
v -4.24478990 0.78507444 2.62817672
v -4.22915883 0.78969638 2.61079096
v -4.27645409 0.78392788 2.71504682
v -4.27858377 0.78564771 2.73240322
v -4.25921560 0.78371289 2.66291887
v -4.27946779 0.78636427 2.74197711
v -3.99027135 0.85619549 2.46662424
v -4.09543003 0.76744645 2.74197711
v -4.08341535 0.75358051 2.74197711
v -4.07935684 0.74877940 2.74197711
v -3.99079372 0.51904224 2.58391939
v -4.12717453 0.50886675 2.74197711
v -4.09936793 0.50886675 2.66835192
v -4.09739898 0.50886675 2.66291887
v -4.09607295 0.50886675 2.65901296
v -3.99027135 0.64960401 2.55323000
v -4.00670613 0.72004431 2.59340520
v -4.01060390 0.72004431 2.60659135
v -4.01349706 0.72004431 2.61531364
v -4.02583321 0.70263131 2.65463714
v -4.02752088 0.70263131 2.65945347
v -4.03415108 0.68532577 2.68030467
v -4.04118305 0.68532577 2.69766102
v -4.04966171 0.68532577 2.71716128
v -4.06051104 0.68532577 2.74197711
v -4.06115397 0.66794861 2.74197711
v -4.06890928 0.62563424 2.74197711
v -4.38751973 0.50886675 2.65463714
v -4.28931266 0.51904224 2.44468644
v -4.28802681 0.52896691 2.44198462
v -4.10314516 0.80306071 2.44198462
v -4.15401674 0.76576245 2.44406972
v -4.16562964 0.76103301 2.44777008
v -4.18463607 0.76250201 2.46418671
v -4.20263803 0.76300362 2.48116132
v -4.18748914 0.78213644 2.49540469
v -4.19078413 0.78439366 2.50659387
v -4.20565183 0.78274550 2.52826732
v -4.21722446 0.77841017 2.53839921
v -4.22843554 0.77160261 2.54265760
v -4.23936524 0.76479506 2.54685716
v -4.25612153 0.76425762 2.58259782
v -4.27275728 0.76357689 2.61913141
v -4.25346947 0.77962839 2.62817672
v -4.25519733 0.78081072 2.63689895
v -4.26391698 0.77235506 2.62817672
v -4.24129401 0.78310383 2.61079096
v -4.25700555 0.78210061 2.64846992
v -4.26319369 0.77672622 2.64382980
v -4.27420386 0.76486673 2.62817672
v -4.27677555 0.76698067 2.64553311
v -4.28517384 0.77694117 2.71504682
v -4.28726334 0.77848183 2.73240322
v -4.28818754 0.77927011 2.74197711
v -3.99027135 0.85325749 2.46944355
v -4.07288742 0.73767230 2.74197711
v -4.07324907 0.60542653 2.74197711
v -4.08843818 0.56888072 2.74197711
v -4.09153231 0.56261061 2.74197711
v -4.10623923 0.53369640 2.74197711
v -4.10901184 0.52832201 2.74197711
v -4.12416082 0.51141058 2.74197711
v -4.40073984 0.50886675 2.74197711
v -3.99027135 0.65594578 2.55146791
v -4.00895636 0.73856807 2.59487358
v -3.99027135 0.68532577 2.54283376
v -3.99027135 0.73799480 2.52447890
v -4.01124683 0.73355196 2.60424195
v -4.01819844 0.72004431 2.62817672
v -4.02651631 0.70868648 2.65463714
v -4.03073555 0.70263131 2.66814635
v -4.03551729 0.70263131 2.68030467
v -4.04351370 0.70298959 2.69907073
v -4.06191744 0.70263131 2.74197711
v -4.39077453 0.50886675 2.66062819
v -4.28991540 0.51904224 2.44589053
v -4.29003595 0.51993796 2.44562623
v -4.39531518 0.50886675 2.66929171
v -4.29015650 0.52896691 2.44547938
v -4.29019668 0.54634412 2.44542066
v -4.28806700 0.53946490 2.44198462
v -4.14485503 0.77016945 2.44198462
v -4.15236925 0.76415012 2.44198462
v -4.18407351 0.74465902 2.44688904
v -4.17856848 0.75594523 2.45311503
v -4.19102522 0.75089334 2.45848933
v -4.19681153 0.75694845 2.46970785
v -4.20255766 0.74555474 2.46365807
v -4.20802261 0.75146657 2.47522898
v -4.21955505 0.74508896 2.48186612
v -4.21292491 0.75608856 2.48729918
v -4.21786738 0.76074634 2.50204183
v -4.22140346 0.76425762 2.51364215
v -4.20629476 0.76608489 2.49273223
v -4.22441716 0.76662234 2.52395026
v -4.21159888 0.77604544 2.52306920
v -4.23639171 0.76203623 2.53528624
v -4.24635713 0.75465540 2.54157095
v -4.25069686 0.75873995 2.55869241
v -4.25342929 0.76171373 2.57102690
v -4.27765957 0.75494201 2.61231811
v -4.28963412 0.74566224 2.62068792
v -4.28408880 0.75397462 2.62714885
v -4.28545512 0.75848912 2.64553311
v -4.28951357 0.76300362 2.67302145
v -4.29124143 0.76461595 2.68462173
v -4.29296929 0.76626406 2.69766102
v -4.29489806 0.76827050 2.71504682
v -4.29626427 0.76981117 2.73240322
v -4.29698756 0.77056356 2.74197711
v -4.03129811 0.74053868 2.65014387
v -4.02948983 0.72918080 2.65463714
v -4.02932910 0.72900163 2.65440220
v -4.01148792 0.76436512 2.58618070
v -4.01221121 0.74512479 2.60159885
v -3.99027135 0.84272369 2.47596320
v -4.06541339 0.72513208 2.73836486
v -4.06649832 0.72326897 2.74197711
v -4.40073984 0.55777367 2.74197711
v -4.40073984 0.50886675 2.68089198
v -3.99027135 0.75551529 2.51781241
v -3.99027135 0.82480908 2.48588952
v -4.02936928 0.72882252 2.65460778
v -4.02864600 0.72000847 2.65628173
v -4.04700960 0.70900892 2.70582531
v -4.06328370 0.71402503 2.74197711
v -4.39937363 0.50886675 2.67760280
v -4.39567682 0.51158975 2.66855750
v -4.40073984 0.51158975 2.67907118
v -4.39129691 0.52896691 2.65460778
v -4.30401953 0.54634412 2.47050078
v -4.29554098 0.54634412 2.45446594
v -4.29011631 0.55555222 2.44556748
v -4.28782590 0.55182600 2.44198462
v -4.16651366 0.75207568 2.44198462
v -4.18684622 0.73462685 2.44198462
v -4.19058321 0.73308619 2.44307121
v -4.20211565 0.72767597 2.44650725
v -4.20770115 0.73398191 2.45810757
v -4.21360801 0.73953546 2.46982534
v -4.22429661 0.73351613 2.47602197
v -4.23590952 0.72584869 2.48342263
v -4.23960633 0.73090058 2.49502290
v -4.25829140 0.73244124 2.52762123
v -4.23474422 0.74250929 2.50309911
v -4.22313132 0.74917351 2.49346644
v -4.24105291 0.74967512 2.52395026
v -4.23309673 0.75834579 2.52395026
v -4.25334892 0.74404991 2.53625539
v -4.25624208 0.74727457 2.54785566
v -4.25869322 0.75003340 2.55869241
v -4.28750444 0.74322585 2.61079096
v -4.29457660 0.73455519 2.61079096
v -4.30574739 0.72635030 2.62485817
v -4.30743517 0.72889414 2.63642909
v -4.30188985 0.73924880 2.64553311
v -4.30438118 0.74240179 2.66291887
v -4.29132180 0.74763285 2.63225889
v -4.29449623 0.75132329 2.65460778
v -4.29566153 0.75268479 2.66291887
v -4.30783699 0.74662963 2.68732355
v -4.30168894 0.75694845 2.69766102
v -4.30357752 0.75895490 2.71504682
v -4.30570721 0.76139128 2.74197711
v -4.40073984 0.56250311 2.73240322
v -4.39479280 0.57837549 2.74197711
v -4.39354714 0.58769104 2.73240322
v -4.40073984 0.51076569 2.67951174
v -4.40057911 0.50886675 2.68045148
v -4.40073984 0.52896691 2.67531213
v -4.39270330 0.52896691 2.65754458
v -4.30791736 0.55917100 2.47928174
v -4.38751973 0.54634412 2.64553311
v -4.28850901 0.56712505 2.44788754
v -4.28469165 0.56533361 2.44198462
v -4.28649987 0.55899183 2.44198462
v -4.30389898 0.56443789 2.47282082
v -4.29369258 0.56228811 2.45399604
v -4.29228618 0.58109849 2.45957595
v -4.18945810 0.73233375 2.44198462
v -4.19122614 0.73061397 2.44198462
v -4.21778701 0.70746826 2.44856299
v -4.21276418 0.72154914 2.45334996
v -4.21927377 0.72699519 2.46442164
v -4.19813756 0.72373475 2.44198462
v -4.20545092 0.71477742 2.44198462
v -4.20621439 0.71610309 2.44318870
v -4.22176510 0.69593126 2.44456898
v -4.22956065 0.72065342 2.47129372
v -4.23972688 0.71427581 2.47813643
v -4.25495623 0.69353071 2.48095574
v -4.27392258 0.69607454 2.51311351
v -4.27014540 0.70764742 2.51919265
v -4.27376185 0.71309347 2.53076362
v -4.25471514 0.72796258 2.51605032
v -4.25057632 0.73788730 2.52268746
v -4.26990431 0.72470214 2.53813492
v -4.27271710 0.72889414 2.54973524
v -4.26311332 0.73645413 2.54300997
v -4.26737279 0.73996541 2.55869241
v -4.27468605 0.73129474 2.55869241
v -4.29188435 0.73115141 2.59766354
v -4.30329624 0.72283903 2.61079096
v -4.30924339 0.71416831 2.61079096
v -4.32495493 0.69431893 2.61883776
v -4.32073565 0.70517520 2.62817672
v -4.32338770 0.70925970 2.64553311
v -4.32503530 0.71097953 2.65460778
v -4.30876120 0.73054230 2.64553311
v -4.32455311 0.71169614 2.65463714
v -4.32640151 0.71370253 2.66588503
v -4.32226259 0.72527541 2.68030467
v -4.31004704 0.73222630 2.65463714
v -4.30618940 0.74465902 2.67575263
v -4.31261874 0.73828141 2.68103884
v -4.30912284 0.74824196 2.69766102
v -4.31064978 0.75028423 2.71504682
v -4.31229728 0.75272062 2.74197711
v -4.40073984 0.56734005 2.71534048
v -4.39423024 0.58969749 2.72338727
v -4.39037270 0.59847565 2.73240322
v -4.38820284 0.59847565 2.74197711
v -4.40073984 0.54634412 2.67666306
v -4.39290421 0.54634412 2.65754458
v -4.39161837 0.54634412 2.65460778
v -4.30711371 0.57070799 2.48101446
v -4.37972418 0.56372133 2.63096667
v -4.38631425 0.56372133 2.64553311
v -4.29067887 0.59191893 2.46204284
v -4.28625877 0.58109849 2.45088307
v -4.28320478 0.56995560 2.44198462
v -4.29947889 0.58109849 2.47182236
v -4.23876249 0.69532215 2.46216033
v -4.22325186 0.71542236 2.46016331
v -4.23478441 0.70689498 2.46656546
v -4.20842444 0.71054959 2.44198462
v -4.21601897 0.69947832 2.44198462
v -4.22465826 0.68643649 2.44198462
v -4.23948578 0.66182178 2.44198462
v -4.24008852 0.66321911 2.44336489
v -4.23679354 0.67482783 2.44688904
v -4.23369947 0.68532577 2.45020760
v -4.21975597 0.69399648 2.44198462
v -4.24282095 0.70169976 2.47214537
v -4.25125942 0.68679477 2.47117622
v -4.25379093 0.67411122 2.46495028
v -4.25801012 0.68195783 2.47652120
v -4.27175271 0.64014512 2.46436287
v -4.27259655 0.65931373 2.48048587
v -4.26962303 0.67088661 2.48518472
v -4.27331984 0.67801661 2.49678499
v -4.27022577 0.68962532 2.50154260
v -4.27649427 0.68443005 2.50703438
v -4.28858937 0.67403955 2.51763619
v -4.28585695 0.68586321 2.52362720
v -4.28891083 0.69195421 2.53484573
v -4.27693628 0.70216554 2.52456699
v -4.28541494 0.70259548 2.54092487
v -4.27565043 0.71932775 2.54289253
v -4.29083960 0.71262770 2.56559385
v -4.28939303 0.72785508 2.58612198
v -4.30510447 0.70779070 2.58993981
v -4.30759590 0.71169614 2.60148136
v -4.31820413 0.70112648 2.61214190
v -4.33837596 0.68503916 2.64432903
v -4.34026455 0.69098682 2.66291887
v -4.32636133 0.69654032 2.62817672
v -4.32298588 0.69062849 2.60726684
v -4.34183167 0.67615350 2.63775066
v -4.33122344 0.70435109 2.66121555
v -4.34171113 0.69335154 2.67369690
v -4.32829010 0.71656892 2.68030467
v -4.32391008 0.72753264 2.69463613
v -4.31936943 0.73817391 2.71504682
v -4.31623518 0.74727457 2.74197711
v -4.40073984 0.56974061 2.70365207
v -4.39459189 0.59105904 2.71181636
v -4.39254257 0.59750826 2.71657392
v -4.38390318 0.61585286 2.73240322
v -4.38591232 0.61585286 2.71504682
v -4.38161277 0.61603203 2.74197711
v -4.40073984 0.55720039 2.68030467
v -4.39551609 0.56372133 2.66832256
v -4.39214074 0.56372133 2.65962968
v -4.39009142 0.56372133 2.65460778
v -4.36730772 0.58109849 2.61079096
v -4.31752103 0.58109849 2.50659387
v -4.31036851 0.58109849 2.49188057
v -4.30582776 0.58109849 2.48318770
v -4.37807669 0.58109849 2.63416777
v -4.37413878 0.58109849 2.62550425
v -4.38289862 0.58109849 2.64553311
v -4.28858937 0.60345592 2.46530266
v -4.28175821 0.59929976 2.45402543
v -4.27834268 0.58428732 2.44198462
v -4.30884156 0.59460609 2.49516976
v -4.30389898 0.59962220 2.48932555
v -4.29409440 0.59800992 2.47138180
v -4.27950797 0.58109849 2.44198462
v -4.24181638 0.68532577 2.45890048
v -4.24149492 0.65834634 2.44198462
v -4.25495623 0.64139912 2.44606674
v -4.25238454 0.65060723 2.44882733
v -4.24695987 0.66870100 2.45402543
v -4.25700555 0.66250256 2.46116182
v -4.26488136 0.63498568 2.45343807
v -4.27018558 0.61585286 2.44856299
v -4.27440477 0.62853641 2.46083875
v -4.28658024 0.61721436 2.47138180
v -4.27878469 0.63387496 2.47082385
v -4.28766517 0.63323007 2.48418621
v -4.29079942 0.64358468 2.49660877
v -4.27480660 0.65060723 2.47707920
v -4.26026035 0.65060723 2.45752021
v -4.28794645 0.65515756 2.50110209
v -4.29160307 0.66243089 2.51270237
v -4.28485238 0.66812772 2.50677008
v -4.29489806 0.66812772 2.52362720
v -4.29184417 0.68038133 2.52920711
v -4.30377844 0.66848605 2.54086615
v -4.30635013 0.67461283 2.55211400
v -4.30912284 0.67995138 2.56368496
v -4.31193563 0.68557660 2.57604881
v -4.30594830 0.69148843 2.57026333
v -4.30872101 0.69625371 2.58183429
v -4.29164326 0.69675532 2.54641665
v -4.28806700 0.70832815 2.55402293
v -4.31077033 0.70227304 2.59478550
v -4.34355953 0.67901983 2.64935093
v -4.34432300 0.68030971 2.65460778
v -4.34552848 0.68231610 2.66291887
v -4.32595950 0.67905566 2.59922005
v -4.34010382 0.67271389 2.62817672
v -4.32021327 0.68503916 2.59343456
v -4.34456410 0.66400739 2.62817672
v -4.35810578 0.65565917 2.65460778
v -4.35854779 0.65727150 2.65827875
v -4.35469025 0.66665872 2.66359436
v -4.35987382 0.65999450 2.66984971
v -4.34267551 0.69503549 2.68529717
v -4.33781340 0.70155643 2.67980539
v -4.32877229 0.72104753 2.69930566
v -4.32475402 0.72875086 2.70620709
v -4.32041418 0.73967874 2.73240322
v -4.32101692 0.74035952 2.74197711
v -4.40073984 0.57052888 2.69766102
v -4.39772614 0.58106266 2.69766102
v -4.39185946 0.59972970 2.69766102
v -4.37835797 0.62463102 2.74197711
v -4.37763468 0.62624335 2.74197711
v -4.35344458 0.67944977 2.74197711
v -4.37843833 0.62785569 2.73240322
v -4.34741718 0.69263493 2.74197711
v -4.37936254 0.62936052 2.71504682
v -4.37932235 0.62910969 2.69766102
v -4.38563104 0.61585286 2.69766102
v -4.40073984 0.56372133 2.68573773
v -4.39989601 0.56372133 2.68030467
v -4.39455171 0.57350271 2.67076009
v -4.36023546 0.59277882 2.60054157
v -4.32595950 0.59514354 2.53002940
v -4.32198131 0.59994470 2.52412648
v -4.37695157 0.59027076 2.63657594
v -4.37896071 0.59704253 2.64585618
v -4.37550500 0.60184364 2.64030563
v -4.30703334 0.60617897 2.49845894
v -4.29208527 0.61234158 2.47690299
v -4.28971449 0.62395030 2.48092638
v -4.27729792 0.61585286 2.45722650
v -4.27492714 0.59510771 2.44298313
v -4.27460568 0.59399704 2.44198462
v -4.32463347 0.60671642 2.53284872
v -4.31253837 0.59962220 2.50518421
v -4.25218362 0.63914190 2.44198462
v -4.25764847 0.62918135 2.44198462
v -4.26186766 0.62090480 2.44198462
v -4.25829140 0.62792730 2.44198462
v -4.27239563 0.60671642 2.44600802
v -4.26472063 0.61517208 2.44198462
v -4.29304965 0.63323007 2.49287908
v -4.30197021 0.63265679 2.50753361
v -4.29405422 0.64985484 2.50677008
v -4.30333643 0.65085806 2.52397962
v -4.30626977 0.65684151 2.53478701
v -4.30920321 0.66300417 2.54635793
v -4.32656224 0.66264589 2.58107072
v -4.32338770 0.67425455 2.58767849
v -4.32905357 0.66827106 2.59343456
v -4.34046546 0.65580250 2.60644455
v -4.33692938 0.66687372 2.61167198
v -4.34263533 0.66035278 2.61801546
v -4.35681993 0.65110884 2.64450524
v -4.36115966 0.64569862 2.64961523
v -4.37080362 0.63319424 2.66291887
v -4.36272679 0.65114467 2.66359436
v -4.36043637 0.66106939 2.68030467
v -4.35581536 0.66974005 2.68030467
v -4.37827760 0.62713908 2.68324143
v -4.34339880 0.69628954 2.69766102
v -4.33845633 0.70499604 2.69766102
v -4.32616042 0.73100808 2.73240322
v -4.32644169 0.73168885 2.74197711
v -4.39435079 0.59016332 2.68849827
v -4.34014400 0.70743242 2.74197711
v -4.34460428 0.69894093 2.73240322
v -4.34010382 0.70761159 2.73240322
v -4.35079252 0.68532577 2.71504682
v -4.34420245 0.69772271 2.71504682
v -4.38145204 0.61757269 2.67857195
v -4.39579737 0.58002360 2.68174369
v -4.39282385 0.58507554 2.67689800
v -4.38450592 0.59847565 2.66291887
v -4.37771505 0.60926025 2.65187659
v -4.35874870 0.60435165 2.60374267
v -4.34179149 0.60585653 2.56797265
v -4.36304825 0.59851148 2.61002739
v -4.37221001 0.59704253 2.62976259
v -4.36453511 0.61732186 2.62662026
v -4.36132039 0.61252075 2.61531364
v -4.31004704 0.61585286 2.51032356
v -4.30522501 0.61585286 2.50166004
v -4.29650537 0.61721436 2.48771032
v -4.27030613 0.60363509 2.44198462
v -4.34432300 0.61585286 2.58013093
v -4.34255496 0.62588508 2.58380190
v -4.33709011 0.63226268 2.57722353
v -4.31695847 0.61585286 2.52395026
v -4.30807809 0.62649413 2.51393581
v -4.30586794 0.63806701 2.51819414
v -4.30876120 0.64523284 2.52976511
v -4.32366898 0.65684151 2.56947039
v -4.32917412 0.65085806 2.57560830
v -4.33777322 0.65024895 2.59372827
v -4.34311752 0.64422962 2.59974864
v -4.34496593 0.65024895 2.61167198
v -4.35902998 0.64093335 2.63801496
v -4.36429402 0.63437657 2.64450524
v -4.37566573 0.62172886 2.66291887
v -4.37683103 0.62448774 2.67164116
v -4.33925998 0.70639337 2.71504682
v -4.33287093 0.72000847 2.73240322
v -4.32945540 0.72674441 2.74197711
v -4.39021197 0.59697087 2.68174369
v -4.33644719 0.71445497 2.74197711
v -4.37928217 0.61305819 2.66291887
v -4.37293330 0.61535125 2.64585618
v -4.35931126 0.62412941 2.61980690
v -4.37811687 0.61019186 2.65460778
v -4.35035051 0.61585286 2.59340520
v -4.35730212 0.61732186 2.61002739
v -4.34054583 0.63742207 2.58817772
v -4.32322697 0.63767290 2.55305379
v -4.31077033 0.63265679 2.52397962
v -4.32608005 0.64523284 2.56462470
v -4.36164186 0.62936052 2.63140718
f 1 2 3
f 1 3 4
f 1 4 5
f 1 5 6
f 1 6 7
f 1 7 8
f 1 8 9
f 1 9 10
f 1 10 11
f 1 11 12
f 1 12 13
f 1 13 14
f 1 14 15
f 1 15 16
f 1 16 17
f 1 17 33
f 1 33 62
f 1 62 110
f 1 110 171
f 1 171 177
f 1 177 176
f 1 176 122
f 1 122 121
f 1 121 119
f 1 119 71
f 1 71 37
f 1 37 18
f 1 18 39
f 1 39 85
f 1 85 136
f 1 136 189
f 1 189 231
f 1 231 230
f 1 230 286
f 1 286 354
f 1 354 350
f 1 350 426
f 1 426 478
f 1 478 434
f 1 434 431
f 1 431 432
f 1 432 430
f 1 430 429
f 1 429 356
f 1 356 294
f 1 294 293
f 1 293 298
f 1 298 292
f 1 292 291
f 1 291 241
f 1 241 240
f 1 240 236
f 1 236 235
f 1 235 191
f 1 191 190
f 1 190 138
f 1 138 137
f 1 137 86
f 1 86 41
f 1 41 40
f 1 40 19
f 1 19 20
f 1 20 21
f 1 21 22
f 1 22 23
f 1 23 24
f 1 24 25
f 1 25 26
f 1 26 27
f 1 27 28
f 1 28 29
f 1 29 30
f 1 30 31
f 1 31 2
f 2 31 61
f 2 61 109
f 2 109 165
f 2 165 219
f 2 219 273
f 2 273 330
f 2 330 400
f 2 400 457
f 2 457 497
f 2 497 499
f 2 499 459
f 2 459 408
f 2 408 406
f 2 406 405
f 2 405 404
f 2 404 336
f 2 336 277
f 2 277 221
f 2 221 174
f 2 174 118
f 2 118 67
f 2 67 117
f 2 117 116
f 2 116 115
f 2 115 114
f 2 114 113
f 2 113 112
f 2 112 82
f 2 82 81
f 2 81 80
f 2 80 129
f 2 129 181
f 2 181 173
f 2 173 111
f 2 111 65
f 2 65 64
f 2 64 63
f 2 63 36
f 2 36 35
f 2 35 34
f 2 34 32
f 2 32 16
f 2 16 15
f 2 15 14
f 2 14 13
f 2 13 12
f 2 12 11
f 2 11 10
f 2 10 9
f 2 9 8
f 2 8 7
f 2 7 6
f 2 6 5
f 2 5 4
f 2 4 3
f 16 32 17
f 17 32 34
f 17 34 35
f 17 35 36
f 17 36 33
f 18 37 38
f 18 38 83
f 18 83 39
f 19 40 20
f 20 40 21
f 21 40 41
f 21 41 42
f 21 42 43
f 21 43 44
f 21 44 45
f 21 45 46
f 21 46 22
f 22 46 47
f 22 47 48
f 22 48 23
f 23 48 49
f 23 49 50
f 23 50 24
f 24 50 51
f 24 51 52
f 24 52 25
f 25 52 53
f 25 53 54
f 25 54 55
f 25 55 56
f 25 56 26
f 26 56 57
f 26 57 28
f 26 28 27
f 28 57 56
f 28 56 29
f 29 58 59
f 29 59 31
f 29 31 30
f 29 56 60
f 29 60 58
f 31 59 61
f 33 36 63
f 33 63 64
f 33 64 65
f 33 65 62
f 37 66 67
f 37 67 68
f 37 68 69
f 37 69 70
f 37 70 38
f 37 71 72
f 37 72 73
f 37 73 74
f 37 74 75
f 37 75 76
f 37 76 77
f 37 77 78
f 37 78 79
f 37 79 80
f 37 80 81
f 37 81 82
f 37 82 66
f 38 70 69
f 38 69 68
f 38 68 67
f 38 67 118
f 38 118 175
f 38 175 224
f 38 224 182
f 38 182 133
f 38 133 130
f 38 130 83
f 39 83 84
f 39 84 85
f 41 86 42
f 42 86 87
f 42 87 88
f 42 88 43
f 43 88 44
f 44 88 89
f 44 89 45
f 45 89 90
f 45 90 46
f 46 90 47
f 47 91 48
f 47 90 91
f 48 91 49
f 49 91 92
f 49 92 51
f 49 51 50
f 51 92 52
f 52 92 93
f 52 93 53
f 53 93 94
f 53 94 95
f 53 95 96
f 53 96 97
f 53 97 98
f 53 98 54
f 54 99 100
f 54 100 55
f 54 98 101
f 54 101 99
f 55 100 102
f 55 102 56
f 56 102 100
f 56 100 103
f 56 103 60
f 58 104 105
f 58 105 106
f 58 106 107
f 58 107 59
f 58 60 103
f 58 103 100
f 58 100 104
f 59 107 108
f 59 108 109
f 59 109 61
f 62 65 111
f 62 111 110
f 66 82 112
f 66 112 113
f 66 113 114
f 66 114 115
f 66 115 116
f 66 116 117
f 66 117 67
f 71 119 72
f 72 120 73
f 72 119 121
f 72 121 122
f 72 122 120
f 73 120 123
f 73 123 74
f 74 124 76
f 74 76 75
f 74 123 124
f 76 124 125
f 76 125 126
f 76 126 77
f 77 126 127
f 77 127 78
f 78 127 128
f 78 128 129
f 78 129 79
f 79 129 80
f 83 130 84
f 84 131 132
f 84 132 85
f 84 130 133
f 84 133 131
f 85 132 134
f 85 134 135
f 85 135 136
f 86 137 87
f 87 137 138
f 87 138 139
f 87 139 88
f 88 139 140
f 88 140 89
f 89 140 139
f 89 139 141
f 89 141 142
f 89 142 90
f 90 142 143
f 90 143 144
f 90 144 145
f 90 145 146
f 90 146 147
f 90 147 148
f 90 148 149
f 90 149 91
f 91 149 148
f 91 148 150
f 91 150 151
f 91 151 93
f 91 93 92
f 93 151 94
f 94 151 150
f 94 150 95
f 95 150 96
f 96 150 152
f 96 152 153
f 96 153 154
f 96 154 155
f 96 155 97
f 97 155 98
f 98 156 157
f 98 157 158
f 98 158 159
f 98 159 160
f 98 160 105
f 98 105 101
f 98 155 156
f 99 101 100
f 100 101 104
f 101 105 104
f 105 160 161
f 105 161 106
f 106 161 107
f 107 161 162
f 107 162 163
f 107 163 108
f 108 163 109
f 109 163 164
f 109 164 165
f 110 166 167
f 110 167 168
f 110 168 169
f 110 169 170
f 110 170 171
f 110 111 172
f 110 172 166
f 111 173 172
f 118 174 220
f 118 220 274
f 118 274 331
f 118 331 401
f 118 401 412
f 118 412 337
f 118 337 278
f 118 278 225
f 118 225 184
f 118 184 223
f 118 223 175
f 120 170 123
f 120 122 176
f 120 176 177
f 120 177 171
f 120 171 170
f 123 170 178
f 123 178 179
f 123 179 124
f 124 179 125
f 125 179 126
f 126 179 127
f 127 180 128
f 127 179 178
f 127 178 180
f 128 180 129
f 129 180 181
f 131 133 182
f 131 182 132
f 132 182 183
f 132 183 184
f 132 184 185
f 132 185 186
f 132 186 187
f 132 187 134
f 134 187 135
f 135 188 136
f 135 187 188
f 136 188 189
f 138 190 139
f 139 190 191
f 139 191 192
f 139 192 193
f 139 193 141
f 141 193 143
f 141 143 142
f 143 193 194
f 143 194 144
f 144 194 195
f 144 195 145
f 145 195 196
f 145 196 197
f 145 197 198
f 145 198 199
f 145 199 200
f 145 200 201
f 145 201 146
f 146 201 147
f 147 201 202
f 147 202 203
f 147 203 152
f 147 152 148
f 148 152 150
f 152 203 202
f 152 202 204
f 152 204 153
f 153 204 205
f 153 205 154
f 154 205 206
f 154 206 155
f 155 206 156
f 156 206 157
f 157 206 207
f 157 207 208
f 157 208 209
f 157 209 210
f 157 210 211
f 157 211 212
f 157 212 213
f 157 213 158
f 158 213 159
f 159 213 160
f 160 213 214
f 160 214 215
f 160 215 216
f 160 216 217
f 160 217 161
f 161 217 162
f 162 217 163
f 163 217 218
f 163 218 219
f 163 219 164
f 164 219 165
f 166 172 181
f 166 181 167
f 167 181 168
f 168 178 170
f 168 170 169
f 168 181 178
f 172 173 181
f 174 221 222
f 174 222 220
f 175 223 224
f 178 181 180
f 182 224 223
f 182 223 184
f 182 184 183
f 184 225 226
f 184 226 185
f 185 226 186
f 186 227 187
f 186 226 228
f 186 228 227
f 187 227 188
f 188 229 230
f 188 230 231
f 188 231 189
f 188 227 232
f 188 232 233
f 188 233 234
f 188 234 229
f 191 235 192
f 192 236 193
f 192 235 236
f 193 237 238
f 193 238 239
f 193 239 194
f 193 236 240
f 193 240 241
f 193 241 242
f 193 242 243
f 193 243 237
f 194 239 196
f 194 196 195
f 196 244 197
f 196 239 244
f 197 244 245
f 197 245 246
f 197 246 247
f 197 247 248
f 197 248 249
f 197 249 250
f 197 250 198
f 198 250 199
f 199 204 202
f 199 202 251
f 199 251 200
f 199 250 252
f 199 252 253
f 199 253 254
f 199 254 204
f 200 251 201
f 201 251 202
f 204 254 205
f 205 254 253
f 205 253 255
f 205 255 206
f 206 255 207
f 207 255 256
f 207 256 257
f 207 257 208
f 208 257 258
f 208 258 209
f 209 258 259
f 209 259 260
f 209 260 261
f 209 261 262
f 209 262 263
f 209 263 210
f 210 264 211
f 210 263 265
f 210 265 266
f 210 266 267
f 210 267 264
f 211 264 268
f 211 268 212
f 212 268 269
f 212 269 213
f 213 269 216
f 213 216 214
f 214 216 215
f 216 269 270
f 216 270 267
f 216 267 271
f 216 271 217
f 217 271 218
f 218 271 272
f 218 272 219
f 219 272 273
f 220 222 275
f 220 275 274
f 221 276 222
f 221 277 276
f 222 276 275
f 225 278 279
f 225 279 280
f 225 280 228
f 225 228 226
f 227 281 232
f 227 228 282
f 227 282 281
f 228 280 283
f 228 283 282
f 229 234 284
f 229 284 285
f 229 285 230
f 230 285 286
f 232 281 233
f 233 281 287
f 233 287 234
f 234 287 284
f 237 243 288
f 237 288 238
f 238 288 289
f 238 289 239
f 239 289 288
f 239 288 290
f 239 290 244
f 241 291 242
f 242 291 292
f 242 292 243
f 243 293 294
f 243 294 295
f 243 295 296
f 243 296 297
f 243 297 288
f 243 292 298
f 243 298 293
f 244 290 245
f 245 290 288
f 245 288 299
f 245 299 246
f 246 299 288
f 246 288 300
f 246 300 301
f 246 301 302
f 246 302 303
f 246 303 304
f 246 304 305
f 246 305 306
f 246 306 307
f 246 307 247
f 247 308 309
f 247 309 310
f 247 310 311
f 247 311 312
f 247 312 249
f 247 249 248
f 247 307 308
f 249 252 250
f 249 312 311
f 249 311 313
f 249 313 252
f 252 313 314
f 252 314 315
f 252 315 253
f 253 316 257
f 253 257 256
f 253 256 255
f 253 315 317
f 253 317 318
f 253 318 316
f 257 318 258
f 257 316 318
f 258 318 259
f 259 318 319
f 259 319 260
f 260 320 321
f 260 321 322
f 260 322 262
f 260 262 261
f 260 319 323
f 260 323 324
f 260 324 320
f 262 322 263
f 263 322 321
f 263 321 325
f 263 325 266
f 263 266 265
f 264 267 268
f 266 325 326
f 266 326 327
f 266 327 267
f 267 327 328
f 267 328 271
f 267 270 268
f 268 270 269
f 271 328 272
f 272 328 329
f 272 329 330
f 272 330 273
f 274 275 332
f 274 332 331
f 275 276 333
f 275 333 332
f 276 277 334
f 276 334 335
f 276 335 333
f 277 336 334
f 278 337 338
f 278 338 339
f 278 339 340
f 278 340 279
f 279 340 283
f 279 283 280
f 281 282 341
f 281 341 342
f 281 342 343
f 281 343 344
f 281 344 287
f 282 283 345
f 282 345 346
f 282 346 341
f 283 347 345
f 283 340 347
f 284 348 349
f 284 349 350
f 284 350 285
f 284 287 351
f 284 351 352
f 284 352 353
f 284 353 348
f 285 354 286
f 285 350 354
f 287 344 351
f 288 297 355
f 288 355 301
f 288 301 300
f 294 356 295
f 295 356 357
f 295 357 358
f 295 358 296
f 296 358 359
f 296 359 355
f 296 355 297
f 301 359 360
f 301 360 303
f 301 303 302
f 301 355 359
f 303 361 362
f 303 362 363
f 303 363 348
f 303 348 364
f 303 364 365
f 303 365 366
f 303 366 367
f 303 367 368
f 303 368 304
f 303 360 369
f 303 369 361
f 304 368 370
f 304 370 305
f 305 370 371
f 305 371 372
f 305 372 306
f 306 308 307
f 306 372 308
f 308 372 371
f 308 371 309
f 309 371 373
f 309 373 374
f 309 374 310
f 310 374 311
f 311 374 375
f 311 375 376
f 311 376 377
f 311 377 378
f 311 378 379
f 311 379 380
f 311 380 381
f 311 381 313
f 313 381 382
f 313 382 314
f 314 382 315
f 315 380 317
f 315 382 380
f 317 380 383
f 317 383 318
f 318 383 323
f 318 323 319
f 320 324 384
f 320 384 321
f 321 384 385
f 321 385 386
f 321 386 326
f 321 326 325
f 323 387 388
f 323 388 324
f 323 383 380
f 323 380 389
f 323 389 387
f 324 388 390
f 324 390 391
f 324 391 392
f 324 392 384
f 326 386 393
f 326 393 394
f 326 394 395
f 326 395 396
f 326 396 327
f 327 396 328
f 328 396 397
f 328 397 398
f 328 398 329
f 329 399 330
f 329 398 399
f 330 399 400
f 331 332 401
f 332 402 401
f 332 333 403
f 332 403 402
f 333 335 403
f 334 336 404
f 334 404 405
f 334 405 406
f 334 406 407
f 334 407 335
f 335 407 408
f 335 408 409
f 335 409 410
f 335 410 411
f 335 411 403
f 337 412 413
f 337 413 338
f 338 413 414
f 338 414 339
f 339 414 347
f 339 347 340
f 341 346 415
f 341 415 342
f 342 415 416
f 342 416 343
f 343 416 417
f 343 417 351
f 343 351 344
f 345 347 418
f 345 418 415
f 345 415 346
f 347 419 420
f 347 420 418
f 347 414 419
f 348 353 421
f 348 421 422
f 348 422 423
f 348 423 364
f 348 363 424
f 348 424 349
f 349 424 425
f 349 425 426
f 349 426 350
f 351 417 427
f 351 427 428
f 351 428 421
f 351 421 352
f 352 421 353
f 356 429 357
f 357 369 358
f 357 429 430
f 357 430 361
f 357 361 369
f 358 369 360
f 358 360 359
f 361 431 362
f 361 430 432
f 361 432 431
f 362 433 363
f 362 431 434
f 362 434 433
f 363 433 424
f 364 423 365
f 365 423 366
f 366 423 435
f 366 435 367
f 367 370 368
f 367 435 436
f 367 436 437
f 367 437 370
f 370 437 371
f 371 437 438
f 371 438 373
f 373 438 439
f 373 439 375
f 373 375 374
f 375 439 440
f 375 440 376
f 376 440 441
f 376 441 377
f 377 441 378
f 378 389 380
f 378 380 379
f 378 441 442
f 378 442 389
f 380 382 381
f 384 392 385
f 385 392 393
f 385 393 386
f 387 389 442
f 387 442 441
f 387 441 443
f 387 443 444
f 387 444 445
f 387 445 388
f 388 445 390
f 390 445 446
f 390 446 447
f 390 447 391
f 391 447 448
f 391 448 392
f 392 448 449
f 392 449 450
f 392 450 394
f 392 394 393
f 394 451 452
f 394 452 395
f 394 450 453
f 394 453 410
f 394 410 451
f 395 452 454
f 395 454 455
f 395 455 396
f 396 455 397
f 397 455 456
f 397 456 398
f 398 456 399
f 399 456 400
f 400 456 457
f 401 402 458
f 401 458 412
f 402 403 458
f 403 411 458
f 406 408 407
f 408 459 409
f 409 459 460
f 409 460 410
f 410 453 411
f 410 460 461
f 410 461 462
f 410 462 463
f 410 463 454
f 410 454 452
f 410 452 451
f 411 453 464
f 411 464 458
f 412 458 413
f 413 465 414
f 413 458 465
f 414 465 466
f 414 466 467
f 414 467 468
f 414 468 419
f 415 469 470
f 415 470 416
f 415 418 471
f 415 471 469
f 416 470 427
f 416 427 417
f 418 420 472
f 418 472 471
f 419 468 420
f 420 468 473
f 420 473 474
f 420 474 469
f 420 469 472
f 421 428 427
f 421 427 475
f 421 475 476
f 421 476 422
f 422 476 477
f 422 477 436
f 422 436 435
f 422 435 423
f 424 433 425
f 425 433 426
f 426 433 478
f 427 470 479
f 427 479 480
f 427 480 481
f 427 481 482
f 427 482 475
f 433 434 478
f 436 477 476
f 436 476 483
f 436 483 484
f 436 484 437
f 437 484 438
f 438 484 485
f 438 485 439
f 439 485 486
f 439 486 440
f 440 486 441
f 441 486 487
f 441 487 488
f 441 488 444
f 441 444 443
f 444 489 490
f 444 490 447
f 444 447 446
f 444 446 445
f 444 488 489
f 447 491 448
f 447 490 491
f 448 491 492
f 448 492 468
f 448 468 449
f 449 468 493
f 449 493 494
f 449 494 450
f 450 494 453
f 453 494 464
f 454 463 455
f 455 495 496
f 455 496 456
f 455 463 495
f 456 496 457
f 457 496 497
f 458 464 498
f 458 498 467
f 458 467 466
f 458 466 465
f 459 499 461
f 459 461 460
f 461 499 497
f 461 497 496
f 461 496 495
f 461 495 463
f 461 463 462
f 464 494 500
f 464 500 498
f 467 498 468
f 468 492 501
f 468 501 502
f 468 502 473
f 468 498 503
f 468 503 493
f 469 471 472
f 469 474 504
f 469 504 479
f 469 479 470
f 473 502 474
f 474 502 505
f 474 505 504
f 475 482 483
f 475 483 476
f 479 504 480
f 480 504 506
f 480 506 481
f 481 507 482
f 481 506 507
f 482 508 483
f 482 507 508
f 483 508 484
f 484 508 507
f 484 507 509
f 484 509 485
f 485 509 486
f 486 509 487
f 487 509 506
f 487 506 489
f 487 489 488
f 489 506 502
f 489 502 510
f 489 510 490
f 490 510 491
f 491 510 492
f 492 510 501
f 493 503 500
f 493 500 494
f 498 500 503
f 501 510 502
f 502 506 505
f 504 505 506
f 506 509 507

