# https://github.com/mikedh/trimesh
v -2.47365869 0.49419011 2.74819948
v -2.47344405 0.47682719 2.74819948
v -2.47264392 0.47682719 2.74981078
v -2.47283909 0.49419011 2.74981078
v -2.47365869 0.64872030 2.74819948
v -2.47317085 0.47538517 2.74819948
v -2.46624301 0.46661540 2.75945167
v -2.46655526 0.47682719 2.75994847
v -2.46657478 0.49419011 2.75997534
v -2.47283909 0.65054489 2.74981078
v -2.47356113 0.66790781 2.74819948
v -2.47084854 0.46402569 2.74819948
v -2.45221174 0.47682719 2.78141883
v -2.46089591 0.47682719 2.76863596
v -2.46749199 0.46402569 2.75546375
v -2.46339382 0.46402569 2.76212372
v -2.42477362 0.46402569 2.81677988
v -2.46091544 0.49419011 2.76866284
v -2.46657478 0.65054489 2.75997534
v -2.46653573 0.66790781 2.75992160
v -2.47274153 0.66790781 2.74981078
v -2.47254636 0.68530019 2.74981078
v -2.47336602 0.68350507 2.74819948
v -2.40480975 0.46402569 2.74819948
v -2.42633479 0.47682719 2.81677988
v -2.45221174 0.49419011 2.78143229
v -2.27431287 0.46402569 2.81677988
v -2.46091544 0.65054489 2.76866284
v -2.46087639 0.66790781 2.76860914
v -2.46079831 0.68530019 2.76845473
v -2.46643818 0.68530019 2.75976718
v -2.46632110 0.70266311 2.75957921
v -2.47229269 0.70266311 2.74981078
v -2.47311229 0.70089740 2.74819948
v -2.39185176 0.46405515 2.74819948
v -2.39171516 0.46402569 2.74826664
v -2.42627628 0.49419011 2.81677988
v -2.45219221 0.66790781 2.78140542
v -2.45221174 0.65054489 2.78143229
v -2.27431287 0.46402569 2.81285238
v -2.27431287 0.47403144 2.81677988
v -2.45211413 0.68530019 2.78129802
v -2.46068123 0.70266311 2.76826671
v -2.46046659 0.72002608 2.76768266
v -2.46593077 0.72002608 2.75899511
v -2.47307325 0.70266311 2.74819948
v -2.47137547 0.72002608 2.74981078
v -2.47225364 0.71831920 2.74819948
v -2.39899424 0.66790781 2.74819948
v -2.38857324 0.46402569 2.74995178
v -2.42600308 0.54630839 2.81677988
v -2.42590547 0.56370072 2.81677988
v -2.42580791 0.58106369 2.81677988
v -2.42567131 0.59845607 2.81677988
v -2.40004810 0.68285759 2.74819948
v -2.40022374 0.68530019 2.74819948
v -2.28262624 0.66790781 2.81677988
v -2.44542050 0.68530019 2.78997883
v -2.45197753 0.70266311 2.78113015
v -2.42549567 0.61578958 2.81677988
v -2.45178241 0.72002608 2.78092203
v -2.46561852 0.72873698 2.75850500
v -2.47203895 0.71990838 2.74819948
v -2.40285830 0.70266311 2.74819948
v -2.28410937 0.68530019 2.81677988
v -2.42530050 0.63315250 2.81677988
v -2.42506635 0.65054489 2.81677988
v -2.44528389 0.70266311 2.78981096
v -2.44514729 0.72002608 2.78960285
v -2.44407396 0.73741846 2.78732020
v -2.45010411 0.73741846 2.77863939
v -2.46809696 0.73147386 2.74981078
v -2.46905316 0.73038499 2.74819948
v -2.44846485 0.74630589 2.77627617
v -2.40570744 0.71940806 2.74819948
v -2.40619533 0.72214494 2.74819948
v -2.28444119 0.68635965 2.81677988
v -2.42420770 0.66790781 2.81677988
v -2.43644359 0.72002608 2.79861931
v -2.43538978 0.73741846 2.79771297
v -2.43322359 0.74807165 2.79566531
v -2.46837016 0.73167984 2.74819948
v -2.43923422 0.74954308 2.78305700
v -2.44955766 0.74698278 2.76718581
v -2.41074230 0.73379871 2.74819948
v -2.28959317 0.70231001 2.81677988
v -2.41606992 0.73741846 2.81677988
v -2.41811898 0.73741846 2.81501417
v -2.42682268 0.73741846 2.80640052
v -2.41622604 0.74892506 2.81324173
v -2.42208055 0.75180905 2.80164720
v -2.45843700 0.74015534 2.74981078
v -2.45814428 0.74036133 2.74819948
v -2.40480975 0.75999027 2.80192921
v -2.42217811 0.75675308 2.78455417
v -2.43954647 0.75133825 2.76718581
v -2.44975282 0.74695337 2.74981078
v -2.41530883 0.73838958 2.74819948
v -2.30700057 0.73741846 2.81677988
v -2.40896649 0.75104392 2.81677988
v -2.39109067 0.76084369 2.81677988
v -2.45033827 0.74645305 2.74819948
v -2.38314806 0.76378656 2.81677988
v -2.38412384 0.76384543 2.80938807
v -2.42217811 0.75398679 2.76718581
v -2.44957718 0.74683561 2.74819948
v -2.42217811 0.74427531 2.74819948
v -2.32177342 0.75154424 2.81677988
v -2.37007304 0.76458115 2.81677988
v -2.35606129 0.76466944 2.81677988
v -2.37007304 0.76390426 2.80947537
v -2.40480975 0.75816569 2.78455417
v -2.36080336 0.76366886 2.81032801
v -2.42217811 0.74836592 2.75355030
v -2.43909762 0.74813047 2.74819948
v -2.41214745 0.74686508 2.75745771
v -2.33416543 0.75722398 2.81677988
v -2.33531686 0.75766537 2.81677988
v -2.34923105 0.76116743 2.81380568
f 1 2 3
f 1 3 4
f 1 4 10
f 1 10 5
f 1 5 11
f 1 11 23
f 1 23 34
f 1 34 46
f 1 46 48
f 1 48 63
f 1 63 73
f 1 73 82
f 1 82 93
f 1 93 102
f 1 102 106
f 1 106 115
f 1 115 107
f 1 107 98
f 1 98 85
f 1 85 76
f 1 76 75
f 1 75 64
f 1 64 56
f 1 56 55
f 1 55 49
f 1 49 35
f 1 35 24
f 1 24 12
f 1 12 6
f 1 6 2
f 2 6 7
f 2 7 3
f 3 8 4
f 3 7 8
f 4 8 9
f 4 9 19
f 4 19 10
f 5 10 11
f 6 12 7
f 7 13 14
f 7 14 8
f 7 12 15
f 7 15 16
f 7 16 17
f 7 17 13
f 8 14 18
f 8 18 9
f 9 18 28
f 9 28 19
f 10 19 20
f 10 20 21
f 10 21 11
f 11 21 22
f 11 22 23
f 12 24 36
f 12 36 50
f 12 50 40
f 12 40 27
f 12 27 17
f 12 17 16
f 12 16 15
f 13 25 26
f 13 26 18
f 13 18 14
f 13 17 25
f 17 27 41
f 17 41 57
f 17 57 65
f 17 65 77
f 17 77 86
f 17 86 99
f 17 99 108
f 17 108 117
f 17 117 118
f 17 118 110
f 17 110 109
f 17 109 103
f 17 103 101
f 17 101 100
f 17 100 87
f 17 87 78
f 17 78 67
f 17 67 66
f 17 66 60
f 17 60 54
f 17 54 53
f 17 53 52
f 17 52 51
f 17 51 37
f 17 37 25
f 18 26 39
f 18 39 28
f 19 28 29
f 19 29 20
f 20 29 30
f 20 30 31
f 20 31 21
f 21 31 22
f 22 31 32
f 22 32 33
f 22 33 34
f 22 34 23
f 24 35 36
f 25 37 38
f 25 38 39
f 25 39 26
f 27 40 41
f 28 39 38
f 28 38 29
f 29 38 42
f 29 42 30
f 30 42 43
f 30 43 32
f 30 32 31
f 32 43 44
f 32 44 45
f 32 45 33
f 33 46 34
f 33 45 47
f 33 47 48
f 33 48 46
f 35 49 36
f 36 49 50
f 37 51 38
f 38 51 52
f 38 52 53
f 38 53 54
f 38 54 42
f 40 50 49
f 40 49 55
f 40 55 56
f 40 56 57
f 40 57 41
f 42 58 68
f 42 68 59
f 42 59 43
f 42 54 60
f 42 60 58
f 43 59 61
f 43 61 44
f 44 61 62
f 44 62 45
f 45 62 47
f 47 63 48
f 47 62 63
f 56 64 65
f 56 65 57
f 58 60 66
f 58 66 67
f 58 67 68
f 59 68 69
f 59 69 61
f 61 69 70
f 61 70 71
f 61 71 62
f 62 72 73
f 62 73 63
f 62 71 74
f 62 74 72
f 64 75 65
f 65 75 76
f 65 76 77
f 67 78 69
f 67 69 68
f 69 78 79
f 69 79 80
f 69 80 70
f 70 80 81
f 70 81 74
f 70 74 71
f 72 82 73
f 72 74 82
f 74 81 83
f 74 83 84
f 74 84 82
f 76 85 86
f 76 86 77
f 78 87 88
f 78 88 89
f 78 89 79
f 79 89 80
f 80 89 90
f 80 90 81
f 81 90 91
f 81 91 83
f 82 84 92
f 82 92 93
f 83 91 94
f 83 94 95
f 83 95 96
f 83 96 84
f 84 97 92
f 84 96 97
f 85 98 99
f 85 99 86
f 87 100 90
f 87 90 88
f 88 90 89
f 90 100 101
f 90 101 91
f 91 101 94
f 92 97 93
f 93 97 102
f 94 101 103
f 94 103 104
f 94 104 95
f 95 105 106
f 95 106 96
f 95 104 105
f 96 106 97
f 97 106 102
f 98 107 108
f 98 108 99
f 103 109 104
f 104 109 110
f 104 110 111
f 104 111 112
f 104 112 105
f 105 112 111
f 105 111 113
f 105 113 114
f 105 114 115
f 105 115 106
f 107 115 114
f 107 114 116
f 107 116 117
f 107 117 108
f 110 118 119
f 110 119 113
f 110 113 111
f 113 119 118
f 113 118 117
f 113 117 114
f 114 117 116

