# https://github.com/mikedh/trimesh
v -4.64519056 2.09073872 4.29518084
v -4.62141844 2.09073872 4.38279117
v -4.64519056 2.09269540 4.29518084
v -3.58014016 2.09073872 4.29518084
v -4.61391152 2.09073872 4.38947290
v -4.61297313 2.09267546 4.39029001
v -4.62141844 2.09269540 4.38277212
v -4.64414798 2.10995926 4.29518084
v -3.58014016 2.09891927 4.29518084
v -3.60641453 2.09073872 4.38305091
v -4.61266037 2.09073872 4.38957853
v -4.59399726 2.09806425 4.39311647
v -4.60817700 2.09845401 4.39265499
v -4.60817700 2.10257807 4.39265499
v -4.62089710 2.10251842 4.37986861
v -4.62861260 2.12544550 4.29518084
v -3.58848123 2.12533417 4.29518084
v -3.61121061 2.10255420 4.39264547
v -3.60641453 2.09269540 4.38305091
v -3.60683158 2.09073872 4.38419488
v -3.61944745 2.09073872 4.39334721
v -4.59399726 2.10317858 4.39311647
v -3.62038579 2.09353453 4.39339527
v -4.59399726 2.10727085 4.38306044
v -4.61297313 2.10441938 4.38461783
v -4.59399726 2.13136717 4.29518084
v -3.61736219 2.13122798 4.29518084
v -3.61058504 2.09269540 4.39311647
v -3.62111565 2.10721519 4.38305091
v -3.62111565 2.10316269 4.39308768
v -3.61058504 2.09073872 4.39311647
v -3.63852766 2.10317858 4.39311647
v -4.10333375 2.10727085 4.38306044
v -3.63456563 2.13136717 4.29518084
v -3.63852766 2.10727085 4.38305091
f 1 2 3
f 1 3 8
f 1 8 16
f 1 16 26
f 1 26 34
f 1 34 27
f 1 27 17
f 1 17 9
f 1 9 4
f 1 4 10
f 1 10 20
f 1 20 31
f 1 31 21
f 1 21 11
f 1 11 5
f 1 5 2
f 2 5 6
f 2 6 7
f 2 7 3
f 3 7 8
f 4 9 19
f 4 19 10
f 5 11 6
f 6 11 12
f 6 12 13
f 6 13 14
f 6 14 7
f 7 15 8
f 7 14 15
f 8 15 16
f 9 17 18
f 9 18 19
f 10 19 20
f 11 21 12
f 12 22 14
f 12 14 13
f 12 21 23
f 12 23 22
f 14 24 25
f 14 25 15
f 14 22 24
f 15 25 16
f 16 25 26
f 17 27 18
f 18 28 19
f 18 27 29
f 18 29 30
f 18 30 28
f 19 28 20
f 20 28 31
f 21 31 23
f 22 23 32
f 22 32 33
f 22 33 24
f 23 31 28
f 23 28 30
f 23 30 32
f 24 26 25
f 24 33 34
f 24 34 26
f 27 34 29
f 29 34 35
f 29 35 30
f 30 35 32
f 32 35 33
f 33 35 34

