# https://github.com/mikedh/trimesh
v -5.63895827 0.50136128 0.89709856
v -5.68471851 0.55201029 0.96020323
v -5.68310292 0.55279272 0.94283280
v -5.68099995 0.55411517 0.93321950
v -5.66347200 0.55305722 0.89709856
v -5.60820772 0.50136128 0.89709856
v -5.63696363 0.50136128 0.90809195
v -5.66663111 0.53261468 1.37685526
v -5.66887844 0.53261468 1.35977040
v -5.69140665 0.56366970 0.97757356
v -5.69113594 0.56366970 0.96020323
v -5.69888892 0.56897045 1.30761153
v -5.68720963 0.56366970 0.94283280
v -5.66347200 0.55669391 0.89709856
v -5.68732707 0.58104862 0.94283280
v -5.60820772 0.61394403 0.89709856
v -5.60820772 0.50136128 0.94031051
v -5.63110586 0.50136128 0.92465334
v -5.65397708 0.53261468 1.38323235
v -5.66643247 0.54631284 1.37357151
v -5.68354534 0.59393127 1.35282221
v -5.68537738 0.58103759 1.35377402
v -5.69406928 0.58103759 1.34644512
v -5.69833838 0.57034796 1.33645117
v -5.62640345 0.50136128 0.93298162
v -5.69878971 0.56935613 1.32731385
v -5.69889804 0.56912471 1.32498196
v -5.69869940 0.56913574 1.29028869
v -5.69469211 0.58104862 1.06442570
v -5.69419562 0.58104862 1.04705527
v -5.69319375 0.58104862 1.01231441
v -5.69214672 0.58104862 0.97757356
v -5.69147894 0.58104862 0.96020323
v -5.69851899 0.56935613 1.27287073
v -5.69833838 0.56962063 1.25550030
v -5.69814886 0.56994023 1.23817746
v -5.69796824 0.57033693 1.22075944
v -5.69777872 0.57083284 1.20338902
v -5.69759831 0.57144998 1.18606623
v -5.69746285 0.57198996 1.17345481
v -5.70040530 0.58103759 1.32498196
v -5.70037817 0.58103759 1.30761153
v -5.68179429 0.58104862 0.93269609
v -5.68105422 0.59063624 0.93331478
v -5.68321124 0.59199173 0.94283280
v -5.61044594 0.58987582 1.07727505
v -5.60845130 0.58104862 0.97757356
v -5.60820772 0.61140936 0.89847875
v -5.68506151 0.59300557 0.96020323
v -5.68868997 0.60139200 1.30761153
v -5.68868997 0.60178870 1.32498196
v -5.67131550 0.60564578 1.32498196
v -5.65396796 0.60564578 1.32498196
v -5.63659350 0.60542539 1.32498196
v -5.62189056 0.59746875 1.32498196
v -5.61586149 0.58103759 1.32498196
v -5.61521153 0.58103759 1.30761153
v -5.61732361 0.50136128 0.93683636
v -5.60820772 0.54626872 0.92893642
v -5.60874915 0.58104862 0.99494398
v -5.60906502 0.58104862 1.01231441
v -5.60939001 0.58104862 1.02968484
v -5.60973301 0.58104862 1.04705527
v -5.61008492 0.58104862 1.06442570
v -5.61039188 0.58104862 1.07936900
v -5.61043703 0.57162629 1.07732259
v -5.61484160 0.58103759 1.29028869
v -5.62187254 0.56560924 1.32498196
v -5.63846178 0.53261468 1.35977040
v -5.63990588 0.53261468 1.37328599
v -5.64096202 0.53261468 1.37718837
v -5.65161230 0.53261468 1.38232813
v -5.65397708 0.54631284 1.37937755
v -5.67131550 0.59660917 1.35420235
v -5.67131550 0.60467601 1.34239998
v -5.68908703 0.59707205 1.34225721
v -5.69832947 0.59237740 1.33635600
v -5.69880773 0.58103759 1.33778373
v -5.69568487 0.58104862 1.10087981
v -5.69746285 0.58990891 1.17340722
v -5.69965612 0.58103759 1.27287073
v -5.69731848 0.58103759 1.16279459
v -5.69878060 0.59353452 1.32731385
v -5.69889804 0.59382108 1.32498196
v -5.69888892 0.59365579 1.30761153
v -5.60820772 0.56465050 0.92332078
v -5.69063034 0.59989323 1.32731385
v -5.68874403 0.60116054 1.32731385
v -5.65397708 0.60520496 1.34239998
v -5.65397708 0.60559068 1.32731385
v -5.63660261 0.60313317 1.34239998
v -5.62382202 0.59820711 1.32731385
v -5.62220643 0.59719327 1.32731385
v -5.62427335 0.59540799 1.34239998
v -5.61647521 0.58103759 1.32731385
v -5.64060100 0.54631284 1.37423784
v -5.62058193 0.58103759 1.34239998
v -5.62636741 0.58103759 1.35239393
v -5.62691795 0.59209089 1.35187041
v -5.65397708 0.59713817 1.35458305
v -5.64262277 0.55896408 1.37133479
v -5.63660261 0.59518760 1.35339332
f 1 2 3
f 1 3 4
f 1 4 5
f 1 5 14
f 1 14 16
f 1 16 6
f 1 6 17
f 1 17 58
f 1 58 25
f 1 25 18
f 1 18 7
f 1 7 8
f 1 8 9
f 1 9 2
f 2 10 11
f 2 11 3
f 2 9 12
f 2 12 10
f 3 11 13
f 3 13 4
f 4 13 5
f 5 13 15
f 5 15 14
f 6 16 48
f 6 48 86
f 6 86 59
f 6 59 17
f 7 18 8
f 8 19 20
f 8 20 21
f 8 21 22
f 8 22 23
f 8 23 24
f 8 24 9
f 8 18 25
f 8 25 19
f 9 24 26
f 9 26 27
f 9 27 12
f 10 12 28
f 10 28 11
f 11 29 30
f 11 30 31
f 11 31 32
f 11 32 33
f 11 33 13
f 11 28 34
f 11 34 35
f 11 35 36
f 11 36 37
f 11 37 38
f 11 38 39
f 11 39 40
f 11 40 29
f 12 27 41
f 12 41 42
f 12 42 34
f 12 34 28
f 13 33 15
f 14 15 43
f 14 43 44
f 14 44 16
f 15 45 44
f 15 44 43
f 15 33 45
f 16 46 47
f 16 47 48
f 16 44 45
f 16 45 49
f 16 49 50
f 16 50 51
f 16 51 52
f 16 52 53
f 16 53 54
f 16 54 55
f 16 55 56
f 16 56 57
f 16 57 46
f 17 59 47
f 17 47 60
f 17 60 61
f 17 61 62
f 17 62 63
f 17 63 64
f 17 64 65
f 17 65 66
f 17 66 67
f 17 67 57
f 17 57 56
f 17 56 68
f 17 68 69
f 17 69 70
f 17 70 71
f 17 71 72
f 17 72 19
f 17 19 58
f 19 72 73
f 19 73 21
f 19 21 20
f 19 25 58
f 21 73 74
f 21 74 75
f 21 75 76
f 21 76 77
f 21 77 23
f 21 23 22
f 23 77 78
f 23 78 24
f 24 78 41
f 24 41 26
f 26 41 27
f 29 40 79
f 29 79 80
f 29 80 30
f 30 80 31
f 31 80 32
f 32 80 33
f 33 49 45
f 33 80 49
f 34 42 35
f 35 42 37
f 35 37 36
f 37 42 38
f 38 42 39
f 39 42 40
f 40 42 81
f 40 81 82
f 40 82 79
f 41 78 77
f 41 77 83
f 41 83 84
f 41 84 42
f 42 84 85
f 42 85 80
f 42 80 81
f 46 65 64
f 46 64 63
f 46 63 62
f 46 62 61
f 46 61 60
f 46 60 47
f 46 57 67
f 46 67 65
f 47 59 86
f 47 86 48
f 49 80 85
f 49 85 50
f 50 85 51
f 51 84 83
f 51 83 87
f 51 87 88
f 51 88 75
f 51 75 52
f 51 85 84
f 52 75 89
f 52 89 90
f 52 90 53
f 53 90 54
f 54 90 89
f 54 89 91
f 54 91 92
f 54 92 55
f 55 92 93
f 55 93 56
f 56 93 94
f 56 94 95
f 56 95 70
f 56 70 68
f 65 67 66
f 68 70 69
f 70 95 71
f 71 96 72
f 71 95 97
f 71 97 98
f 71 98 99
f 71 99 96
f 72 96 73
f 73 100 74
f 73 96 101
f 73 101 102
f 73 102 100
f 74 100 75
f 75 88 76
f 75 100 89
f 76 88 87
f 76 87 77
f 77 87 83
f 79 82 80
f 80 82 81
f 89 100 91
f 91 100 102
f 91 102 99
f 91 99 94
f 91 94 92
f 92 94 93
f 94 97 95
f 94 99 97
f 96 99 101
f 97 99 98
f 99 102 101

