# https://github.com/mikedh/trimesh
v -0.42246608 0.68507820 2.22495915
v -0.42246608 0.68507820 2.18885699
v -0.42405992 0.68507820 2.22494579
v -0.42246608 0.05982191 2.22495915
v -0.42793797 0.68507820 2.18035923
v -0.42246608 0.07719555 2.18885699
v -0.47617587 0.68507820 2.22299504
v -0.42405992 0.05982191 2.22494579
v -0.47617587 0.02507443 2.22276790
v -0.45880389 0.02507443 2.22250068
v -0.44892267 0.01553207 2.22059002
v -0.42246608 0.04777870 2.22240715
v -0.49299026 0.68507820 2.08846039
v -0.42793797 0.05982191 2.18035923
v -0.42246608 0.05982191 2.18989918
v -0.49105114 0.68507820 2.22143177
v -0.47617587 0.07719555 2.22299504
v -0.47617587 0.04244817 2.22298168
v -0.49071455 0.02507443 2.22132490
v -0.48854531 0.01526881 2.22077707
v -0.47617587 0.01474240 2.22120463
v -0.45880389 0.01493979 2.22107102
v -0.44837357 0.01513718 2.21117032
v -0.42246608 0.04652837 2.21105007
v -0.51292110 0.68507820 2.08846039
v -0.49517711 0.04244817 2.08846039
v -0.42954072 0.04804196 2.18194922
v -0.49552240 0.02507443 2.08846039
v -0.42246608 0.05534682 2.19380067
v -0.49973702 0.68507820 2.21706264
v -0.49105114 0.04244817 2.22143177
v -0.49940956 0.02507443 2.21668853
v -0.49973702 0.04244817 2.21706264
v -0.50299555 0.01546620 2.20591934
v -0.50379237 0.01454490 2.19380067
v -0.50459810 0.01382099 2.17643102
v -0.50536840 0.01329458 2.15904799
v -0.49763862 0.01329458 2.15904799
v -0.45887472 0.01474240 2.21076948
v -0.49825855 0.01283382 2.12430869
v -0.49860383 0.01296555 2.10693903
v -0.49905537 0.01322871 2.08846039
v -0.44898460 0.01566370 2.20188423
v -0.42696406 0.04633088 2.19380067
v -0.51241633 0.68507820 2.10693903
v -0.51217730 0.04244817 2.08846039
v -0.51216840 0.04244817 2.08955601
v -0.51198260 0.04244817 2.10693903
v -0.51178770 0.04244817 2.12430869
v -0.50357095 0.68507820 2.20837782
v -0.50347360 0.02507443 2.20800371
v -0.50357095 0.04244817 2.20837782
v -0.50555440 0.02507443 2.19380067
v -0.50721888 0.02507443 2.17643102
v -0.50884814 0.02507443 2.15904799
v -0.51032683 0.02507443 2.14169170
v -0.50601485 0.01296555 2.14169170
v -0.51119448 0.02507443 2.12430869
v -0.49793087 0.01296555 2.14169170
v -0.50642206 0.01283382 2.12430869
v -0.50662567 0.01296555 2.10693903
v -0.50679385 0.01322871 2.08846039
v -0.51192046 0.68507820 2.12430869
v -0.51215970 0.04139524 2.08846039
v -0.51177009 0.02507443 2.08846039
v -0.51150435 0.02507443 2.10693903
v -0.51085811 0.04244817 2.14169170
v -0.50576692 0.68507820 2.19380067
v -0.50576692 0.04244817 2.19380067
v -0.50919343 0.04244817 2.15904799
v -0.51085811 0.68507820 2.14169170
v -0.50919343 0.68507820 2.15904799
f 1 2 5
f 1 5 13
f 1 13 25
f 1 25 45
f 1 45 63
f 1 63 71
f 1 71 72
f 1 72 68
f 1 68 50
f 1 50 30
f 1 30 16
f 1 16 7
f 1 7 3
f 1 3 8
f 1 8 4
f 1 4 12
f 1 12 24
f 1 24 29
f 1 29 15
f 1 15 6
f 1 6 2
f 2 6 14
f 2 14 5
f 3 7 17
f 3 17 8
f 4 8 9
f 4 9 10
f 4 10 11
f 4 11 12
f 5 14 13
f 6 15 14
f 7 16 31
f 7 31 17
f 8 17 18
f 8 18 9
f 9 18 19
f 9 19 20
f 9 20 21
f 9 21 22
f 9 22 10
f 10 22 11
f 11 22 23
f 11 23 12
f 12 23 24
f 13 14 26
f 13 26 28
f 13 28 42
f 13 42 62
f 13 62 65
f 13 65 64
f 13 64 46
f 13 46 25
f 14 15 27
f 14 27 28
f 14 28 26
f 15 29 27
f 16 30 33
f 16 33 31
f 17 31 18
f 18 31 19
f 19 32 20
f 19 31 33
f 19 33 32
f 20 34 35
f 20 35 21
f 20 32 34
f 21 35 36
f 21 36 37
f 21 37 38
f 21 38 22
f 22 38 39
f 22 39 23
f 23 39 40
f 23 40 41
f 23 41 42
f 23 42 43
f 23 43 24
f 24 44 29
f 24 43 44
f 25 46 47
f 25 47 48
f 25 48 49
f 25 49 45
f 27 29 44
f 27 44 43
f 27 43 42
f 27 42 28
f 30 50 52
f 30 52 33
f 32 51 34
f 32 33 51
f 33 52 51
f 34 51 53
f 34 53 54
f 34 54 55
f 34 55 56
f 34 56 35
f 35 56 36
f 36 56 37
f 37 57 59
f 37 59 38
f 37 56 58
f 37 58 57
f 38 59 39
f 39 59 40
f 40 59 57
f 40 57 60
f 40 60 61
f 40 61 41
f 41 61 62
f 41 62 42
f 45 49 63
f 46 64 47
f 47 64 48
f 48 64 65
f 48 65 49
f 49 65 66
f 49 66 58
f 49 58 56
f 49 56 67
f 49 67 63
f 50 68 69
f 50 69 52
f 51 52 69
f 51 69 53
f 53 69 70
f 53 70 67
f 53 67 54
f 54 67 55
f 55 67 56
f 57 58 60
f 58 66 60
f 60 66 65
f 60 65 61
f 61 65 62
f 63 67 71
f 67 70 72
f 67 72 71
f 68 72 70
f 68 70 69

