# https://github.com/mikedh/trimesh
v -5.08057596 0.25655379 1.36087978
v -5.09216246 0.25785320 1.36087978
v -5.09293049 0.25794247 1.35976885
v -5.09295079 0.25800202 1.34236466
v -5.09284515 0.25808135 1.32503452
v -5.08057596 0.25666294 1.34236466
v -5.07043210 0.25860704 1.25552873
v -5.07009883 0.25833923 1.32503452
v -5.07004602 0.25828962 1.34236466
v -5.06998926 0.25824995 1.36087978
v -5.09292241 0.25794247 1.36087978
v -5.09293049 0.26620510 1.35976885
v -5.09295079 0.26632409 1.34236466
v -5.09199158 0.26996435 0.98257879
v -5.09266226 0.25818057 1.30763028
v -5.07080597 0.25889474 1.20342718
v -5.09074819 0.25904346 1.15132558
v -5.09052056 0.25914267 1.13395846
v -5.09027263 0.25924189 1.11659125
v -5.08932564 0.25959898 1.05345468
v -5.08057596 0.25680172 1.32503452
v -5.07180163 0.25956915 1.08511555
v -5.07166348 0.25947004 1.10089047
v -5.06365738 0.26830785 1.23816156
v -5.06351923 0.26830785 1.25552873
v -5.07034283 0.25854749 1.27289589
v -5.07053774 0.25870626 1.23816156
v -5.06538068 0.26883365 0.98257879
v -5.06338915 0.26830785 1.27289589
v -5.06273483 0.26834762 1.36087978
v -5.09292241 0.26619515 1.36087978
v -5.09028878 0.35788714 0.98257879
v -5.09199158 0.27849479 0.98257879
v -5.08870799 0.26758384 0.98257879
v -5.09119911 0.25885497 1.18606001
v -5.09164630 0.25866659 1.22079435
v -5.09207712 0.25847811 1.25552873
v -5.09228031 0.25837889 1.27289589
v -5.07122457 0.25919228 1.15132558
v -5.08057596 0.26180095 0.98257879
v -5.08761891 0.25959898 1.05345468
v -5.08057596 0.25764494 1.23816156
v -5.08057596 0.25746639 1.25552873
v -5.07222023 0.25962870 1.07352511
v -5.05920746 0.27970493 0.98257879
v -5.05669583 0.28418831 0.98257879
v -5.05565129 0.28470416 1.36087978
v -5.07261046 0.33361512 1.36087978
v -5.07984439 0.35788714 1.10063125
v -5.06175139 0.35788714 0.98257879
v -5.07524388 0.25969819 1.06445262
v -5.08132369 0.25992624 1.04741878
v -5.08057596 0.25860704 1.15132558
v -5.05417198 0.29286757 0.98257879
v -5.05398101 0.29284769 1.36087978
v -5.05143293 0.33361512 1.36087978
v -5.07731246 0.35788714 1.10089047
v -5.06044691 0.35516931 0.98257879
v -5.05915050 0.35788714 1.06152726
v -5.05347707 0.30306435 0.98257879
v -5.05301787 0.30298502 1.36087978
v -5.05446051 0.34676781 1.10089047
v -5.05704525 0.35545691 1.10089047
v -5.05810202 0.35788714 1.10089047
v -5.05207088 0.31934156 1.36087978
v -5.05339173 0.32042276 0.99494688
v -5.05346091 0.32042276 0.98257879
v -5.05408664 0.33255380 0.99494688
v -5.05388345 0.33690824 1.06445262
v -5.05449303 0.34660915 1.08648570
v -5.05415583 0.33186935 0.98257879
v -5.05775239 0.35516931 1.06445262
v -5.05665523 0.35350287 1.08115330
v -5.05461503 0.34632145 1.07489516
v -5.05811424 0.35788714 1.09918706
v -5.05704525 0.35543713 1.09918706
f 1 2 3
f 1 3 4
f 1 4 5
f 1 5 6
f 1 6 7
f 1 7 8
f 1 8 9
f 1 9 10
f 1 10 30
f 1 30 47
f 1 47 55
f 1 55 61
f 1 61 65
f 1 65 56
f 1 56 48
f 1 48 31
f 1 31 11
f 1 11 2
f 2 11 3
f 3 11 31
f 3 31 12
f 3 12 13
f 3 13 4
f 4 13 33
f 4 33 14
f 4 14 5
f 5 15 6
f 5 14 15
f 6 16 7
f 6 15 17
f 6 17 18
f 6 18 19
f 6 19 20
f 6 20 21
f 6 21 22
f 6 22 23
f 6 23 16
f 7 24 25
f 7 25 26
f 7 26 8
f 7 16 27
f 7 27 28
f 7 28 24
f 8 26 25
f 8 25 29
f 8 29 30
f 8 30 9
f 9 30 10
f 12 31 32
f 12 32 13
f 13 32 33
f 14 33 32
f 14 32 50
f 14 50 58
f 14 58 71
f 14 71 67
f 14 67 60
f 14 60 54
f 14 54 46
f 14 46 45
f 14 45 28
f 14 28 40
f 14 40 34
f 14 34 20
f 14 20 19
f 14 19 18
f 14 18 17
f 14 17 35
f 14 35 36
f 14 36 37
f 14 37 38
f 14 38 15
f 15 38 36
f 15 36 35
f 15 35 17
f 16 23 39
f 16 39 28
f 16 28 27
f 20 34 40
f 20 40 41
f 20 41 42
f 20 42 43
f 20 43 21
f 21 43 44
f 21 44 22
f 22 44 28
f 22 28 23
f 23 28 39
f 24 28 25
f 25 28 45
f 25 45 46
f 25 46 29
f 28 44 40
f 29 46 30
f 30 46 47
f 31 48 32
f 32 49 57
f 32 57 64
f 32 64 75
f 32 75 59
f 32 59 50
f 32 48 49
f 36 38 37
f 40 44 51
f 40 51 52
f 40 52 41
f 41 52 51
f 41 51 44
f 41 44 53
f 41 53 42
f 42 53 44
f 42 44 43
f 46 54 47
f 47 54 55
f 48 56 64
f 48 64 57
f 48 57 49
f 50 59 58
f 54 60 61
f 54 61 55
f 56 62 63
f 56 63 64
f 56 65 60
f 56 60 66
f 56 66 67
f 56 67 68
f 56 68 69
f 56 69 70
f 56 70 62
f 58 59 72
f 58 72 73
f 58 73 74
f 58 74 71
f 59 75 72
f 60 67 66
f 60 65 61
f 62 70 76
f 62 76 63
f 63 76 64
f 64 76 75
f 67 71 68
f 68 71 70
f 68 70 69
f 70 71 74
f 70 74 73
f 70 73 76
f 72 75 76
f 72 76 73

