# https://github.com/mikedh/trimesh
v -0.49513859 0.66786747 2.08846039
v -0.49243247 0.66786747 1.61993517
v -0.51218269 0.66786747 2.08846039
v -0.49518043 0.04245469 2.08846039
v -0.49243247 0.04245469 1.61993517
v -0.51025205 0.66786747 1.61993517
v -0.51983853 0.66786747 1.96623841
v -0.51983853 0.47679405 1.96628428
v -0.51218269 0.04245469 2.08846039
v -0.49552923 0.02507847 2.08846039
v -0.49291218 0.02507847 1.61993517
v -0.51029389 0.66786747 1.62043966
v -0.51025205 0.04245469 1.61993517
v -0.52023477 0.66786747 1.95055364
v -0.52023746 0.65049134 1.95055364
v -0.51983853 0.04245469 1.96628428
v -0.51975754 0.02507847 1.96376187
v -0.51215763 0.04136458 2.08846039
v -0.49905868 0.01321659 2.08846039
v -0.49781716 0.01302417 1.61993517
v -0.51145174 0.66786747 1.63782132
v -0.51029389 0.04245469 1.62043966
v -0.51024377 0.04194164 1.61993517
v -0.52047731 0.66786747 1.93317198
v -0.52048290 0.63317933 1.93317198
v -0.52048580 0.61580320 1.93317198
v -0.52049699 0.47679405 1.93317198
v -0.52023746 0.04245469 1.95055364
v -0.52007569 0.02507847 1.95055364
v -0.51965709 0.01635840 1.96059740
v -0.51176988 0.02507847 2.08846039
v -0.50679800 0.01321659 2.08846039
v -0.49809885 0.01283185 1.63782132
v -0.50580482 0.01302417 1.61993517
v -0.51973807 0.66786747 1.79742075
v -0.51145174 0.04245469 1.63782132
v -0.50984753 0.02507847 1.62043966
v -0.50971642 0.02475794 1.61993517
v -0.52061692 0.66786747 1.91579032
v -0.52062251 0.63317933 1.91579032
v -0.52064757 0.47679405 1.91579032
v -0.52081493 0.28572064 1.89840866
v -0.52082342 0.19883992 1.89840866
v -0.52066145 0.32047289 1.91579032
v -0.52082901 0.11195919 1.89840866
v -0.52049699 0.04245469 1.93317198
v -0.52033232 0.02507847 1.93317198
v -0.51976314 0.01616598 1.95055364
v -0.51989155 0.01603777 1.93317198
v -0.52005063 0.01578124 1.89840866
v -0.52010345 0.01571724 1.88102699
v -0.50627624 0.01283185 1.63782132
v -0.51967946 0.01629430 1.81594895
v -0.51999760 0.66786747 1.81159207
v -0.51973807 0.04245469 1.79742075
v -0.51087696 0.02507847 1.63782132
v -0.51969623 0.02924618 1.79925522
v -0.51928322 0.01764073 1.80439175
v -0.52089032 0.66786747 1.88102699
v -0.52075921 0.63317933 1.89840866
v -0.52080664 0.33784901 1.89840866
v -0.52089302 0.63317933 1.88102699
v -0.52091829 0.32047289 1.88102699
v -0.52093216 0.14671144 1.88102699
v -0.52082901 0.04245469 1.89840866
v -0.52065875 0.02507847 1.89840866
v -0.52076190 0.02507847 1.88102699
v -0.52004773 0.01584545 1.86364533
v -0.51991662 0.01597366 1.84630953
v -0.51978261 0.01616598 1.82897373
v -0.52065316 0.02507847 1.86364533
v -0.52038535 0.02507847 1.84630953
v -0.51980788 0.02411667 1.81072071
v -0.52027660 0.66786747 1.82897373
v -0.51999760 0.04245469 1.81159207
v -0.52011194 0.02507847 1.82897373
v -0.52082342 0.04245469 1.86364533
v -0.52027660 0.04245469 1.82897373
v -0.52082342 0.66786747 1.86364533
v -0.52093216 0.04245469 1.88102699
f 1 2 6
f 1 6 12
f 1 12 21
f 1 21 35
f 1 35 54
f 1 54 74
f 1 74 79
f 1 79 59
f 1 59 39
f 1 39 24
f 1 24 14
f 1 14 7
f 1 7 3
f 1 3 9
f 1 9 18
f 1 18 31
f 1 31 32
f 1 32 19
f 1 19 10
f 1 10 4
f 1 4 5
f 1 5 2
f 2 5 11
f 2 11 20
f 2 20 34
f 2 34 38
f 2 38 23
f 2 23 13
f 2 13 6
f 3 7 8
f 3 8 16
f 3 16 9
f 4 10 5
f 5 10 11
f 6 13 22
f 6 22 12
f 7 14 15
f 7 15 8
f 8 15 28
f 8 28 16
f 9 16 17
f 9 17 18
f 10 19 11
f 11 19 20
f 12 22 36
f 12 36 21
f 13 23 22
f 14 24 25
f 14 25 26
f 14 26 15
f 15 26 27
f 15 27 46
f 15 46 28
f 16 28 17
f 17 29 30
f 17 30 31
f 17 31 18
f 17 28 29
f 19 32 52
f 19 52 33
f 19 33 20
f 20 33 52
f 20 52 34
f 21 36 55
f 21 55 35
f 22 23 37
f 22 37 36
f 23 38 37
f 24 39 40
f 24 40 25
f 25 40 41
f 25 41 26
f 26 41 42
f 26 42 43
f 26 43 44
f 26 44 27
f 27 44 45
f 27 45 65
f 27 65 46
f 28 46 29
f 29 47 30
f 29 46 47
f 30 48 32
f 30 32 31
f 30 47 48
f 32 48 49
f 32 49 50
f 32 50 51
f 32 51 52
f 34 52 53
f 34 53 38
f 35 55 75
f 35 75 54
f 36 37 56
f 36 56 57
f 36 57 55
f 37 38 53
f 37 53 58
f 37 58 56
f 39 59 60
f 39 60 40
f 40 60 61
f 40 61 42
f 40 42 41
f 42 61 59
f 42 59 43
f 43 59 62
f 43 62 63
f 43 63 64
f 43 64 45
f 43 45 44
f 45 64 80
f 45 80 65
f 46 65 47
f 47 66 48
f 47 65 66
f 48 66 49
f 49 66 67
f 49 67 50
f 50 67 51
f 51 68 52
f 51 67 68
f 52 68 69
f 52 69 53
f 53 69 70
f 53 70 71
f 53 71 72
f 53 72 73
f 53 73 57
f 53 57 58
f 54 75 78
f 54 78 74
f 55 57 75
f 56 58 57
f 57 73 76
f 57 76 72
f 57 72 77
f 57 77 78
f 57 78 75
f 59 79 62
f 59 61 60
f 62 79 63
f 63 79 64
f 64 79 77
f 64 77 80
f 65 80 67
f 65 67 66
f 67 71 68
f 67 80 77
f 67 77 71
f 68 71 69
f 69 71 70
f 71 77 72
f 72 76 73
f 74 78 77
f 74 77 79

