# https://github.com/mikedh/trimesh
v -1.92173316 0.41949583 1.80292844
v -1.92185993 0.47283005 1.80292844
v -1.92188302 0.41077774 1.80292844
v -1.94411897 0.41207694 1.61028293
v -1.94089141 0.47282151 1.63781242
v -1.93691446 0.47283005 1.70975483
v -1.99231420 0.47283005 1.80292844
v -1.94311617 0.47282151 1.62044142
v -1.94432652 0.47282151 1.61142068
v -1.96031468 0.41077774 1.80292844
v -1.95307558 0.38670042 1.70975483
v -1.95133498 0.38765771 1.70975483
v -1.94101817 0.39347835 1.70975483
v -1.94104127 0.39351253 1.70729646
v -1.94135248 0.39383731 1.68994579
v -1.94180205 0.39436724 1.67255444
v -1.94233229 0.39507665 1.65518344
v -1.94309307 0.39628182 1.63781242
v -1.94385385 0.39760661 1.62444385
v -1.94458004 0.40049552 1.61286320
v -1.94335820 0.40669220 1.61936462
v -1.94855699 0.40698280 1.59539058
v -1.94770394 0.47282151 1.59539058
v -1.94411897 0.42097452 1.61028293
v -2.00015273 0.47283005 1.70975483
v -1.94517947 0.47282151 1.60668681
v -2.03949503 0.45708619 1.80268466
v -2.03129920 0.45693235 1.80292844
v -1.99755908 0.47283005 1.74063662
v -2.01025050 0.47282151 1.59539058
v -2.03949503 0.44066715 1.80292844
v -1.97044714 0.38698248 1.70975483
v -1.96798026 0.38687995 1.70975483
v -1.97044714 0.38603378 1.67255444
v -1.97044714 0.38563206 1.65518344
v -1.97044714 0.38551239 1.63781242
v -1.95307558 0.38672610 1.70729646
v -1.95307558 0.38698248 1.68994579
v -1.95307558 0.38740983 1.67255444
v -1.95307558 0.38800817 1.65518344
v -1.95307558 0.38921329 1.63781242
v -1.95518507 0.39217060 1.59539058
v -2.03949503 0.44150478 1.80292844
v -2.03949503 0.45806912 1.67212778
v -2.03949503 0.45837680 1.59539058
v -2.03949503 0.45836826 1.60264374
v -2.03949503 0.45825714 1.63738576
v -2.03949503 0.45818878 1.65473646
v -2.03949503 0.44066715 1.79417185
v -1.98366881 0.39264073 1.59539058
v -1.98053342 0.39376041 1.70975483
v -1.97911553 0.39280312 1.70975483
v -1.97682170 0.38898255 1.59539058
v -1.97044714 0.38571750 1.62044142
v -1.97044714 0.38618763 1.59539058
v -1.96152503 0.38946117 1.59539058
v -2.03949503 0.45744520 1.59539058
v -2.03949503 0.44068424 1.77680083
v -2.03949503 0.44086372 1.59557345
v -2.03025021 0.44035087 1.59539058
f 1 2 7
f 1 7 28
f 1 28 43
f 1 43 31
f 1 31 10
f 1 10 3
f 1 3 4
f 1 4 5
f 1 5 2
f 2 6 25
f 2 25 29
f 2 29 7
f 2 5 8
f 2 8 9
f 2 9 6
f 3 10 11
f 3 11 12
f 3 12 13
f 3 13 14
f 3 14 15
f 3 15 16
f 3 16 17
f 3 17 18
f 3 18 19
f 3 19 20
f 3 20 21
f 3 21 4
f 4 21 20
f 4 20 22
f 4 22 23
f 4 23 24
f 4 24 5
f 5 24 8
f 6 9 26
f 6 26 23
f 6 23 30
f 6 30 25
f 7 27 28
f 7 29 30
f 7 30 27
f 8 24 9
f 9 24 26
f 10 31 32
f 10 32 33
f 10 33 11
f 11 33 34
f 11 34 35
f 11 35 36
f 11 36 37
f 11 37 12
f 12 37 38
f 12 38 13
f 13 38 14
f 14 38 39
f 14 39 15
f 15 39 40
f 15 40 16
f 16 40 17
f 17 40 41
f 17 41 18
f 18 41 42
f 18 42 19
f 19 42 20
f 20 42 22
f 22 42 56
f 22 56 55
f 22 55 53
f 22 53 50
f 22 50 60
f 22 60 57
f 22 57 45
f 22 45 30
f 22 30 23
f 23 26 24
f 25 30 29
f 27 43 28
f 27 30 44
f 27 44 48
f 27 48 47
f 27 47 46
f 27 46 45
f 27 45 57
f 27 57 59
f 27 59 58
f 27 58 49
f 27 49 31
f 27 31 43
f 30 45 46
f 30 46 47
f 30 47 48
f 30 48 44
f 31 49 50
f 31 50 51
f 31 51 52
f 31 52 32
f 32 52 50
f 32 50 34
f 32 34 33
f 34 50 35
f 35 50 36
f 36 50 53
f 36 53 54
f 36 54 37
f 37 54 38
f 38 54 55
f 38 55 39
f 39 55 40
f 40 55 41
f 41 55 56
f 41 56 42
f 49 58 50
f 50 59 60
f 50 52 51
f 50 58 59
f 53 55 54
f 57 60 59

