# https://github.com/mikedh/trimesh
v -4.40832081 0.59844002 1.53209268
v -4.40832081 0.58057280 1.53229090
v -4.40832081 0.61579621 1.53485255
v -4.14228023 0.59844002 1.53209268
v -3.98898172 0.56860239 1.53226040
v -4.40832081 0.58057280 1.54906366
v -4.40832081 0.61928843 1.53645359
v -3.98898172 0.61773560 1.53573693
v -3.98898172 0.61579621 1.53485255
v -3.69061914 0.59843350 1.53210796
v -3.67815212 0.56860239 1.53226040
v -3.98898172 0.56860239 1.54889594
v -4.40832081 0.61976016 1.68786599
v -4.40832081 0.62709180 1.54005212
v -3.69061914 0.62709180 1.54005212
v -3.69061914 0.61579621 1.53486782
v -3.67322686 0.59843350 1.53213840
v -3.62212737 0.56860239 1.53238240
v -3.62212737 0.56860239 1.54991755
v -4.40832081 0.63513109 1.68786599
v -3.98898172 0.61976016 1.68786599
v -4.40832081 0.62886082 1.54340665
v -3.98898172 0.63281820 1.55093915
v -3.69061914 0.63281167 1.55093915
v -3.67322686 0.63275269 1.55093915
v -3.67322686 0.62704592 1.54008262
v -3.67322686 0.61579621 1.53492882
v -3.63851922 0.59843350 1.53226040
v -3.62212737 0.58207975 1.53238240
v -3.62212737 0.61931463 1.65415272
v -4.40832081 0.63552416 1.56832185
v -3.98898172 0.63513109 1.68786599
v -3.70801145 0.63553074 1.56832185
v -3.62212737 0.63500003 1.65430519
v -4.40832081 0.63281820 1.55093915
v -4.40832081 0.63365686 1.55630644
v -3.69061914 0.63553074 1.56832185
v -3.67322686 0.63550454 1.56832185
v -3.65591150 0.63543903 1.56832185
v -3.63851922 0.63536038 1.56832185
v -3.62212737 0.63528177 1.56832185
v -3.65591150 0.63260859 1.55093915
v -3.65591150 0.62692801 1.54018934
v -3.65591150 0.61579621 1.53505077
v -3.62212737 0.59945557 1.53258062
v -3.62212737 0.59843350 1.53241290
v -3.63851922 0.63507211 1.65430519
v -3.65498802 0.63513109 1.65430519
v -3.67238033 0.63516381 1.65430519
v -3.62212737 0.63214338 1.55093915
v -3.63851922 0.63243165 1.55093915
v -3.63851922 0.62679043 1.54031134
v -3.63851922 0.61579621 1.53521849
v -3.62212737 0.61579621 1.53558449
v -3.62212737 0.62654799 1.54050956
f 1 2 6
f 1 6 13
f 1 13 20
f 1 20 31
f 1 31 36
f 1 36 35
f 1 35 22
f 1 22 14
f 1 14 7
f 1 7 3
f 1 3 9
f 1 9 4
f 1 4 11
f 1 11 5
f 1 5 2
f 2 5 12
f 2 12 6
f 3 7 8
f 3 8 9
f 4 9 10
f 4 10 11
f 5 11 18
f 5 18 19
f 5 19 12
f 6 12 13
f 7 14 8
f 8 14 15
f 8 15 16
f 8 16 9
f 9 16 10
f 10 16 17
f 10 17 11
f 11 17 18
f 12 19 13
f 13 19 21
f 13 21 32
f 13 32 20
f 14 22 15
f 15 22 23
f 15 23 24
f 15 24 25
f 15 25 26
f 15 26 16
f 16 26 27
f 16 27 17
f 17 27 28
f 17 28 18
f 18 28 29
f 18 29 46
f 18 46 45
f 18 45 54
f 18 54 55
f 18 55 50
f 18 50 41
f 18 41 34
f 18 34 30
f 18 30 19
f 19 30 21
f 20 32 37
f 20 37 33
f 20 33 31
f 21 30 34
f 21 34 32
f 22 35 23
f 23 35 36
f 23 36 37
f 23 37 24
f 24 37 38
f 24 38 25
f 25 38 39
f 25 39 40
f 25 40 41
f 25 41 42
f 25 42 26
f 26 42 43
f 26 43 44
f 26 44 27
f 27 44 28
f 28 45 46
f 28 46 29
f 28 44 45
f 31 33 36
f 32 34 47
f 32 47 48
f 32 48 49
f 32 49 37
f 33 37 36
f 34 41 40
f 34 40 39
f 34 39 47
f 37 49 38
f 38 49 48
f 38 48 47
f 38 47 39
f 41 50 51
f 41 51 42
f 42 51 43
f 43 51 52
f 43 52 53
f 43 53 44
f 44 53 45
f 45 53 54
f 50 55 52
f 50 52 51
f 52 55 53
f 53 55 54

