# https://github.com/mikedh/trimesh
v -3.69301868 0.58111501 2.18075539
v -3.69304763 0.58111501 2.14160297
v -3.98892719 0.58111501 2.18075539
v -3.69345316 0.38333911 2.18075539
v -3.69345316 0.38333911 2.07214855
v -3.69348213 0.38333911 1.82893163
v -3.69325041 0.58111501 1.88102245
v -3.98892719 0.43355745 2.18075539
v -3.98892719 0.58111501 1.76230090
v -3.71323639 0.38333911 2.18075539
v -3.69351108 0.38333911 1.81156803
v -3.69330835 0.58111501 1.81152586
v -3.69327935 0.58111501 1.84625309
v -3.88169802 0.40749969 2.18075539
v -3.98892719 0.39464500 1.91583395
v -3.82776479 0.58111501 1.75020538
v -3.83940882 0.55958733 1.75066899
v -3.84088605 0.54628742 1.75054254
v -3.86431889 0.51153724 1.75193329
v -3.86431889 0.49417183 1.75180689
v -3.88169802 0.49417183 1.75328195
v -3.98892719 0.38333911 1.76297520
v -3.84693976 0.40091744 2.18075539
v -3.71364189 0.38333911 2.18071324
v -3.69362697 0.38333911 1.80077901
v -3.69333730 0.58111501 1.79416227
v -3.86431889 0.40370522 2.18075539
v -3.98892719 0.39421909 1.91284168
v -3.98892719 0.39220571 1.89847034
v -3.81157328 0.58111501 1.75028968
v -3.83561440 0.53351019 1.75054254
v -3.84062538 0.53351019 1.75054254
v -3.84693976 0.49417183 1.75180689
v -3.86431889 0.47680643 1.75281835
v -3.84036466 0.38333911 1.76293305
v -3.98892719 0.38333911 1.79074855
v -3.69380075 0.38333911 1.79420442
v -3.69493039 0.58111501 1.77679868
v -3.81730838 0.56367214 1.75045823
v -3.79625067 0.58111501 1.75151187
v -3.80522990 0.57573306 1.75092184
v -3.72534387 0.38333911 1.76310165
v -3.84693976 0.47680643 1.75307120
v -3.73611889 0.38333911 1.76301735
v -3.75349802 0.38333911 1.76297520
v -3.79483138 0.38333911 1.76293305
v -3.69481453 0.38333911 1.78341536
v -3.69550970 0.38333911 1.77684083
v -3.69713174 0.38333911 1.77072984
v -3.69811656 0.38333911 1.76702110
v -3.69788483 0.58103759 1.76681037
v -3.69791380 0.58111501 1.76681037
v -3.77753914 0.58111501 1.75328195
v -3.70796474 0.38333911 1.76449241
v -3.70796474 0.58103759 1.76436598
v -3.70802266 0.58111501 1.76436598
f 1 2 7
f 1 7 13
f 1 13 12
f 1 12 26
f 1 26 38
f 1 38 52
f 1 52 56
f 1 56 53
f 1 53 40
f 1 40 30
f 1 30 16
f 1 16 9
f 1 9 3
f 1 3 8
f 1 8 14
f 1 14 27
f 1 27 23
f 1 23 10
f 1 10 4
f 1 4 5
f 1 5 6
f 1 6 2
f 2 6 7
f 3 9 22
f 3 22 36
f 3 36 29
f 3 29 28
f 3 28 15
f 3 15 8
f 4 10 24
f 4 24 36
f 4 36 22
f 4 22 35
f 4 35 46
f 4 46 45
f 4 45 44
f 4 44 42
f 4 42 54
f 4 54 50
f 4 50 49
f 4 49 48
f 4 48 47
f 4 47 37
f 4 37 25
f 4 25 11
f 4 11 6
f 4 6 5
f 6 11 26
f 6 26 12
f 6 12 13
f 6 13 7
f 8 15 14
f 9 16 17
f 9 17 18
f 9 18 19
f 9 19 20
f 9 20 21
f 9 21 22
f 10 23 24
f 11 25 26
f 14 15 28
f 14 28 29
f 14 29 27
f 16 30 31
f 16 31 32
f 16 32 18
f 16 18 17
f 18 32 20
f 18 20 19
f 20 32 31
f 20 31 33
f 20 33 34
f 20 34 22
f 20 22 21
f 22 34 35
f 23 27 29
f 23 29 24
f 24 29 36
f 25 37 26
f 26 37 38
f 30 39 31
f 30 40 41
f 30 41 39
f 31 39 42
f 31 42 33
f 33 43 34
f 33 42 43
f 34 43 42
f 34 42 44
f 34 44 45
f 34 45 46
f 34 46 35
f 37 47 38
f 38 47 48
f 38 48 49
f 38 49 50
f 38 50 51
f 38 51 52
f 39 41 42
f 40 53 54
f 40 54 41
f 41 54 42
f 50 54 51
f 51 54 55
f 51 55 52
f 52 55 56
f 53 56 55
f 53 55 54

