# https://github.com/mikedh/trimesh
v -3.45660990 2.50477706 4.29099066
v -3.45660990 2.49228665 4.29453958
v -3.45660990 2.50477706 4.28263100
v -4.97716398 2.50477706 4.29099066
v -3.45660990 2.47492907 4.29460399
v -4.97716398 2.49228665 4.29453958
v -4.97716398 2.49146353 4.29454289
v -3.45660990 2.49228665 4.27768107
v -4.97716398 2.49289509 4.27791988
v -4.97716398 2.50477706 4.28263100
v -3.62673455 2.13919327 4.29484799
v -3.60946909 2.13919327 4.29484447
v -3.45660990 2.13919327 4.29460399
v -4.97716398 2.47492907 4.29460399
v -3.45660990 2.47492907 4.27760816
v -4.97716398 2.47575219 4.27761168
v -4.97716398 2.49228665 4.27768107
v -4.59404863 2.13919327 4.29484799
v -3.45660990 2.13919327 4.27760816
v -4.97716398 2.13919327 4.29460399
v -3.62107863 2.13919327 4.27754395
v -4.97716398 2.47492907 4.27760816
v -4.97716398 2.13919327 4.27760816
v -4.60565822 2.13919327 4.27754395
f 1 2 5
f 1 5 13
f 1 13 19
f 1 19 15
f 1 15 8
f 1 8 3
f 1 3 10
f 1 10 4
f 1 4 6
f 1 6 2
f 2 6 7
f 2 7 5
f 3 8 9
f 3 9 10
f 4 10 9
f 4 9 17
f 4 17 16
f 4 16 22
f 4 22 23
f 4 23 20
f 4 20 14
f 4 14 7
f 4 7 6
f 5 11 12
f 5 12 13
f 5 7 14
f 5 14 18
f 5 18 11
f 8 15 16
f 8 16 17
f 8 17 9
f 11 18 20
f 11 20 23
f 11 23 24
f 11 24 21
f 11 21 19
f 11 19 13
f 11 13 12
f 14 20 18
f 15 19 21
f 15 21 24
f 15 24 22
f 15 22 16
f 22 24 23

