# https://github.com/mikedh/trimesh
v -2.68096794 0.37256191 1.76494747
v -2.68096794 0.35979292 1.75988341
v -2.68096794 0.37759883 1.76456656
v -2.79965546 0.37256191 1.69133924
v -2.79965546 0.35830719 1.68625278
v -2.68096794 0.35946234 1.75936803
v -2.68096794 0.39029978 1.76239302
v -2.79965546 0.37733153 1.69051018
v -2.68096794 0.35579329 1.74388453
v -2.68096794 0.35924486 1.75865100
v -2.79965546 0.35548073 1.67253945
v -2.68096794 0.39149107 1.76194490
v -2.79965546 0.38991928 1.68824703
v -2.68096794 0.35630965 1.74215916
v -2.76968153 0.35421249 1.67253945
v -2.75230127 0.35449781 1.67253945
v -2.73494425 0.35556234 1.55093464
v -2.72088672 0.35828461 1.53605611
v -2.79965546 0.36105215 1.66214243
v -2.74455222 0.36224344 1.53760222
v -2.74210087 0.36105215 1.53605611
v -2.73621063 0.35779994 1.53605611
v -2.68096794 0.39930008 1.75481935
v -2.68283840 0.39928196 1.75428155
v -2.69165634 0.39869765 1.75085323
v -2.79965546 0.39984364 1.68316055
v -2.79965546 0.39264612 1.68688017
v -2.68096794 0.36031384 1.73032809
v -2.71607697 0.37060507 1.53605611
v -2.79965546 0.37256191 1.66030503
v -2.74520281 0.37255735 1.53605611
v -2.74486586 0.36897446 1.53605611
v -2.68096794 0.39961714 1.74220400
v -2.68240856 0.39963527 1.74162140
v -2.76968153 0.40048682 1.67253945
v -2.79965546 0.39989345 1.67253945
v -2.68096794 0.36089359 1.72949901
v -2.71551928 0.37255735 1.53605611
v -2.79965546 0.38514510 1.66144780
v -2.79965546 0.38991928 1.66196316
v -2.74438957 0.38480992 1.53605611
v -2.68096794 0.39695374 1.73348751
v -2.72420941 0.39979833 1.53605611
v -2.72604502 0.39982096 1.53605611
v -2.73301574 0.39982096 1.53605611
v -2.79965546 0.39955827 1.67014187
v -2.74326264 0.39830354 1.54273354
v -2.68096794 0.37067301 1.72573458
v -2.71883036 0.38992379 1.53605611
v -2.68096794 0.39098827 1.72965586
v -2.68096794 0.38870536 1.72866993
v -2.68096794 0.37256191 1.72564494
v -2.79965546 0.39626525 1.66317317
v -2.74364598 0.38811199 1.53605611
v -2.79965546 0.39866141 1.66380059
v -2.74205437 0.39386454 1.53605611
f 1 2 6
f 1 6 10
f 1 10 9
f 1 9 14
f 1 14 28
f 1 28 37
f 1 37 48
f 1 48 52
f 1 52 51
f 1 51 50
f 1 50 42
f 1 42 33
f 1 33 23
f 1 23 12
f 1 12 7
f 1 7 3
f 1 3 4
f 1 4 5
f 1 5 2
f 2 5 6
f 3 7 4
f 4 7 8
f 4 8 13
f 4 13 27
f 4 27 26
f 4 26 36
f 4 36 46
f 4 46 55
f 4 55 53
f 4 53 40
f 4 40 39
f 4 39 30
f 4 30 19
f 4 19 11
f 4 11 5
f 5 9 10
f 5 10 6
f 5 11 9
f 7 12 13
f 7 13 8
f 9 11 15
f 9 15 16
f 9 16 17
f 9 17 18
f 9 18 14
f 11 19 20
f 11 20 21
f 11 21 22
f 11 22 17
f 11 17 15
f 12 23 24
f 12 24 25
f 12 25 26
f 12 26 27
f 12 27 13
f 14 18 28
f 15 17 16
f 17 22 18
f 18 22 21
f 18 21 32
f 18 32 31
f 18 31 41
f 18 41 54
f 18 54 56
f 18 56 45
f 18 45 44
f 18 44 43
f 18 43 49
f 18 49 38
f 18 38 29
f 18 29 28
f 19 30 31
f 19 31 32
f 19 32 20
f 20 32 21
f 23 33 34
f 23 34 35
f 23 35 26
f 23 26 24
f 24 26 25
f 26 35 36
f 28 29 38
f 28 38 37
f 30 39 31
f 31 39 40
f 31 40 41
f 33 42 43
f 33 43 34
f 34 43 44
f 34 44 35
f 35 44 45
f 35 45 36
f 36 45 47
f 36 47 46
f 37 38 48
f 38 49 42
f 38 42 50
f 38 50 51
f 38 51 52
f 38 52 48
f 40 53 41
f 41 53 55
f 41 55 54
f 42 49 43
f 45 56 47
f 46 47 55
f 47 56 55
f 54 55 56

