# https://github.com/mikedh/trimesh
v -0.55846385 0.11544131 0.35267114
v -0.55846385 0.11192056 0.35244641
v -0.55846385 0.11544131 0.33735842
v -1.01732891 0.11544131 0.35283022
v -0.55846385 0.10391602 0.34869088
v -1.01732891 0.11192056 0.35260538
v -1.01732891 0.11012384 0.35177749
v -1.01732891 0.10078374 0.34741342
v -0.55846385 0.11008334 0.30384915
v -1.01732891 0.11077132 0.30297196
v -1.01714933 0.11544131 0.33639901
v -1.01732891 0.11544131 0.33756679
v -0.55846385 0.10104275 0.34734217
v -1.01732891 0.04196722 0.31284604
v -1.00848043 0.03321806 0.30941942
v -0.99738606 0.03286190 0.30996769
v -0.98004846 0.03275668 0.31011568
v -0.55846385 0.03275668 0.31011568
v -0.55846385 0.10597984 0.30258816
v -1.01732891 0.09806426 0.29849273
v -1.01732891 0.04174870 0.31035699
v -1.00848043 0.03321806 0.30770886
v -0.99738606 0.03286190 0.30718804
v -0.98004846 0.03275668 0.30711130
v -0.55846385 0.03275668 0.30711130
v -0.55846385 0.09454351 0.29908480
v -1.01732891 0.09454351 0.29747294
v -1.01732891 0.04174870 0.30310349
v -0.99738606 0.04242860 0.30205087
v -0.55846385 0.04242860 0.30235244
v -0.55846385 0.05980565 0.29908480
v -1.01732891 0.07717463 0.29682598
v -1.01732891 0.08080858 0.29694114
v -1.01732891 0.04599792 0.30156847
v -1.01732891 0.05980565 0.29703435
v -1.01732891 0.06372295 0.29697956
f 1 2 5
f 1 5 13
f 1 13 18
f 1 18 25
f 1 25 30
f 1 30 31
f 1 31 26
f 1 26 19
f 1 19 9
f 1 9 3
f 1 3 11
f 1 11 12
f 1 12 4
f 1 4 6
f 1 6 2
f 2 6 7
f 2 7 8
f 2 8 5
f 3 9 10
f 3 10 11
f 4 12 10
f 4 10 20
f 4 20 27
f 4 27 33
f 4 33 32
f 4 32 36
f 4 36 35
f 4 35 34
f 4 34 28
f 4 28 21
f 4 21 14
f 4 14 8
f 4 8 7
f 4 7 6
f 5 8 13
f 8 14 15
f 8 15 16
f 8 16 17
f 8 17 18
f 8 18 13
f 9 19 20
f 9 20 10
f 10 12 11
f 14 21 15
f 15 22 23
f 15 23 16
f 15 21 28
f 15 28 22
f 16 23 24
f 16 24 17
f 17 24 25
f 17 25 18
f 19 26 20
f 20 26 27
f 22 28 23
f 23 28 29
f 23 29 24
f 24 29 25
f 25 29 30
f 26 31 32
f 26 32 33
f 26 33 27
f 28 34 29
f 29 34 35
f 29 35 30
f 30 35 31
f 31 35 36
f 31 36 32

