# https://github.com/mikedh/trimesh
v -4.47114700 0.42416215 2.93547485
v -4.43768723 0.41262682 3.16679306
v -4.47114700 0.41405087 3.18509608
v -4.47114700 0.44233976 2.93547485
v -4.11585419 0.43711166 2.93547485
v -4.43768723 0.41408535 3.18138177
v -4.46186034 0.41395233 3.18509608
v -4.11585419 0.43573685 2.97569764
v -4.11585419 0.43197226 3.18509608
v -4.47114700 0.41566708 3.18509608
v -4.47114700 0.46296633 3.10005631
v -4.41420965 0.45111564 2.93547485
v -4.11585419 0.46296633 2.93547485
v -4.45514745 0.41417406 3.18509608
v -4.11585419 0.46296633 3.18509608
v -4.47114700 0.46296633 3.18475401
v -4.45862563 0.46296633 3.18509608
v -4.43935667 0.46296633 3.06276582
v -4.33403840 0.46296633 2.95172524
v -4.32127356 0.46296633 2.94058209
v -4.31703024 0.46296633 2.93718541
v -4.31466505 0.46296633 2.93547485
f 1 2 3
f 1 3 10
f 1 10 16
f 1 16 11
f 1 11 4
f 1 4 12
f 1 12 22
f 1 22 13
f 1 13 5
f 1 5 2
f 2 6 7
f 2 7 3
f 2 5 8
f 2 8 9
f 2 9 6
f 3 7 14
f 3 14 9
f 3 9 15
f 3 15 17
f 3 17 10
f 4 11 12
f 5 13 15
f 5 15 9
f 5 9 8
f 6 14 7
f 6 9 14
f 10 17 16
f 11 16 17
f 11 17 15
f 11 15 13
f 11 13 22
f 11 22 21
f 11 21 20
f 11 20 19
f 11 19 18
f 11 18 12
f 12 18 19
f 12 19 20
f 12 20 21
f 12 21 22

