# https://github.com/mikedh/trimesh
v -4.66479185 0.59886800 1.75818854
v -4.67518975 0.61572832 1.53669153
v -4.67518975 0.62229504 1.53945005
v -4.67518975 0.62584458 1.54103893
v -4.67518975 0.62933494 1.54750487
v -4.67518975 0.63116889 1.55094749
v -4.67518975 0.63389019 1.56255527
v -4.67518975 0.63495508 1.56831507
v -4.67518975 0.63471849 1.65093782
v -4.66654291 0.59886800 1.75818854
v -4.66442534 0.34454275 1.75818854
v -4.66442534 0.34347791 1.75801202
v -4.66442534 0.33874515 1.75732787
v -4.66442534 0.32152986 1.75618034
v -4.66442534 0.32040588 1.75613622
v -4.67518975 0.59833558 1.53324892
v -4.68095887 0.61572832 1.53719910
v -4.68095887 0.62554875 1.54128168
v -4.68095887 0.59833558 1.53360202
v -4.68095887 0.63081393 1.55094749
v -4.68095887 0.63483676 1.56831507
v -4.68095887 0.63471849 1.65093782
v -4.70558714 0.59886800 1.75816648
v -4.70559626 0.59833558 1.75818854
v -4.66442534 0.25757886 1.75818854
v -4.67518975 0.56360917 1.53274135
v -4.67518975 0.58094278 1.53285170
v -4.66442534 0.28573856 1.75613622
v -4.68095887 0.58094278 1.53305028
v -4.69237034 0.61572832 1.54026655
v -4.69007620 0.62477969 1.54196577
v -4.69487255 0.59833558 1.53836869
v -4.69541998 0.58094278 1.53794941
v -4.69303999 0.62714607 1.55094749
v -4.69606249 0.62945331 1.56831507
v -4.69633404 0.62957158 1.58568259
v -4.69633404 0.62957158 1.65093782
v -4.70727036 0.59886800 1.75172259
v -4.70728393 0.59833558 1.75176674
v -4.70759618 0.58100197 1.75295842
v -4.70578630 0.59307040 1.75818854
v -4.69276399 0.04212122 1.75818854
v -4.67518975 0.03088093 1.54882894
v -4.67518975 0.03064429 1.54097275
v -4.67518975 0.03064429 1.53841281
v -4.67518975 0.04253527 1.53375648
v -4.66442534 0.25959028 1.75790167
v -4.68095887 0.56360917 1.53293999
v -4.67518975 0.07726173 1.53274135
v -4.66442534 0.26834576 1.75675413
v -4.67518975 0.05986893 1.53285170
v -4.69553763 0.56360917 1.53786113
v -4.70122980 0.61430857 1.55244812
v -4.70356009 0.59833558 1.54960131
v -4.70410753 0.58094278 1.54860829
v -4.70422072 0.56360917 1.54838760
v -4.70475004 0.61791725 1.56831507
v -4.70502158 0.61939624 1.58568259
v -4.70502158 0.61939624 1.65093782
v -4.70836534 0.59886800 1.74247609
v -4.70843773 0.59833558 1.74203473
v -4.70907123 0.58100197 1.74203473
v -4.70602149 0.58100197 1.75818854
v -4.70921146 0.56360917 1.74203473
v -4.71046489 0.11198819 1.75818854
v -4.70618895 0.56360917 1.75818854
v -4.69861896 0.03253744 1.75818854
v -4.70824324 0.03230079 1.75818854
v -4.68095887 0.03064429 1.53856733
v -4.68095887 0.04253527 1.53402129
v -4.68095887 0.05986893 1.53305028
v -4.67518975 0.05413047 1.53311651
v -4.68095887 0.07726173 1.53293999
v -4.69553763 0.07726173 1.53786113
v -4.70714371 0.60756440 1.55924506
v -4.70746941 0.59833558 1.55827410
v -4.70779523 0.58094278 1.55730309
v -4.70786316 0.56360917 1.55708239
v -4.70422072 0.07726173 1.54838760
v -4.70756449 0.60928003 1.56831507
v -4.70791743 0.61069984 1.58568259
v -4.70791743 0.61069984 1.65093782
v -4.70926583 0.59886800 1.72466717
v -4.70923870 0.59886800 1.72539541
v -4.70839703 0.59886800 1.74203473
v -4.70932010 0.59833558 1.72466717
v -4.70995360 0.58100197 1.72466717
v -4.71009382 0.56360917 1.72466717
v -4.71061413 0.07726173 1.75818854
v -4.70823413 0.03235993 1.74203473
v -4.70821155 0.03235993 1.72466717
v -4.70809390 0.03247820 1.65093782
v -4.70994904 0.04247613 1.75818854
v -4.70993547 0.04247613 1.74203473
v -4.69276399 0.03176837 1.54000174
v -4.70801240 0.03259657 1.60307223
v -4.70798526 0.03265571 1.58568259
v -4.69481372 0.04253527 1.53845698
v -4.69542454 0.05986893 1.53794941
v -4.70862332 0.59833558 1.56831507
v -4.70926583 0.58094278 1.56831507
v -4.70941061 0.56360917 1.56831507
v -4.70786316 0.07726173 1.55708239
v -4.70942418 0.16410734 1.56831507
v -4.70410753 0.05986893 1.54860829
v -4.70779978 0.05986893 1.55730309
v -4.70932010 0.59833558 1.58568259
v -4.70926583 0.59886800 1.65093782
v -4.70995805 0.58094278 1.65093782
v -4.71009382 0.56360917 1.58568259
v -4.71065037 0.07726173 1.74203473
v -4.71055085 0.05986893 1.75818854
v -4.70815718 0.03241906 1.68991000
v -4.71054173 0.05986893 1.74203473
v -4.70989022 0.04247613 1.72466717
v -4.71050559 0.05986893 1.72466717
v -4.70763232 0.03306986 1.56831507
v -4.70719797 0.03360228 1.55906854
v -4.70350127 0.04253527 1.54946896
v -4.70964135 0.04247613 1.65093782
v -4.70948300 0.04253527 1.60307223
v -4.70941962 0.04253527 1.58568259
v -4.70995805 0.58094278 1.58568259
v -4.71015265 0.11198819 1.58568259
v -4.71014809 0.16410734 1.58568259
v -4.70942418 0.07726173 1.56831507
v -4.70751022 0.04253527 1.55814169
v -4.70928385 0.05986893 1.56831507
v -4.71038794 0.07726173 1.65093782
v -4.71063681 0.07726173 1.72466717
v -4.71060967 0.11198819 1.72466717
v -4.71032456 0.05986893 1.67254245
v -4.70870472 0.04253527 1.56831507
v -4.71001687 0.05986893 1.58568259
v -4.71015265 0.07726173 1.58568259
f 1 2 3
f 1 3 4
f 1 4 5
f 1 5 6
f 1 6 7
f 1 7 8
f 1 8 9
f 1 9 22
f 1 22 10
f 1 10 24
f 1 24 41
f 1 41 63
f 1 63 66
f 1 66 65
f 1 65 89
f 1 89 112
f 1 112 93
f 1 93 68
f 1 68 67
f 1 67 42
f 1 42 25
f 1 25 11
f 1 11 12
f 1 12 13
f 1 13 14
f 1 14 15
f 1 15 16
f 1 16 2
f 2 17 18
f 2 18 3
f 2 16 19
f 2 19 17
f 3 18 4
f 4 18 20
f 4 20 5
f 5 20 6
f 6 20 7
f 7 21 8
f 7 20 21
f 8 21 22
f 8 22 9
f 10 23 24
f 10 22 23
f 11 25 47
f 11 47 50
f 11 50 28
f 11 28 15
f 11 15 14
f 11 14 13
f 11 13 12
f 15 26 27
f 15 27 16
f 15 28 49
f 15 49 26
f 16 27 29
f 16 29 19
f 17 30 31
f 17 31 18
f 17 19 30
f 18 31 20
f 19 32 30
f 19 29 33
f 19 33 32
f 20 31 34
f 20 34 21
f 21 34 35
f 21 35 36
f 21 36 37
f 21 37 22
f 22 37 23
f 23 38 39
f 23 39 40
f 23 40 41
f 23 41 24
f 23 37 38
f 25 42 43
f 25 43 44
f 25 44 45
f 25 45 46
f 25 46 47
f 26 48 29
f 26 29 27
f 26 49 73
f 26 73 48
f 28 50 51
f 28 51 49
f 29 48 52
f 29 52 33
f 30 53 31
f 30 32 54
f 30 54 53
f 31 53 34
f 32 33 55
f 32 55 54
f 33 52 56
f 33 56 55
f 34 53 57
f 34 57 35
f 35 57 58
f 35 58 36
f 36 58 59
f 36 59 37
f 37 59 38
f 38 60 61
f 38 61 62
f 38 62 39
f 38 59 60
f 39 62 40
f 40 63 41
f 40 62 64
f 40 64 65
f 40 65 66
f 40 66 63
f 42 67 43
f 43 67 44
f 44 68 69
f 44 69 45
f 44 67 68
f 45 69 46
f 46 70 71
f 46 71 72
f 46 72 50
f 46 50 47
f 46 69 70
f 48 73 74
f 48 74 52
f 49 51 71
f 49 71 73
f 50 72 51
f 51 72 71
f 52 74 79
f 52 79 56
f 53 75 57
f 53 54 75
f 54 76 75
f 54 55 76
f 55 56 77
f 55 77 76
f 56 78 77
f 56 79 103
f 56 103 78
f 57 75 80
f 57 80 81
f 57 81 58
f 58 81 82
f 58 82 59
f 59 82 83
f 59 83 84
f 59 84 85
f 59 85 60
f 60 85 61
f 61 85 86
f 61 86 87
f 61 87 62
f 62 87 88
f 62 88 64
f 64 88 65
f 65 88 89
f 68 90 91
f 68 91 92
f 68 92 69
f 68 93 94
f 68 94 90
f 69 95 70
f 69 92 96
f 69 96 97
f 69 97 95
f 70 98 71
f 70 95 98
f 71 98 99
f 71 99 74
f 71 74 73
f 74 99 79
f 75 76 100
f 75 100 80
f 76 77 101
f 76 101 100
f 77 78 102
f 77 102 101
f 78 103 126
f 78 126 104
f 78 104 102
f 79 99 105
f 79 105 106
f 79 106 103
f 80 100 107
f 80 107 81
f 81 108 83
f 81 83 82
f 81 107 108
f 83 108 107
f 83 107 86
f 83 86 84
f 84 86 85
f 86 107 123
f 86 123 109
f 86 109 87
f 87 109 88
f 88 109 123
f 88 123 110
f 88 110 111
f 88 111 89
f 89 111 112
f 90 94 91
f 91 113 92
f 91 94 113
f 92 113 94
f 92 94 96
f 93 112 114
f 93 114 94
f 94 115 97
f 94 97 96
f 94 114 116
f 94 116 115
f 95 97 117
f 95 117 118
f 95 118 119
f 95 119 98
f 97 115 120
f 97 120 121
f 97 121 122
f 97 122 117
f 98 119 105
f 98 105 99
f 100 101 107
f 101 102 123
f 101 123 107
f 102 110 123
f 102 104 124
f 102 124 125
f 102 125 110
f 103 106 126
f 104 126 135
f 104 135 124
f 105 119 127
f 105 127 106
f 106 127 128
f 106 128 126
f 110 125 129
f 110 129 130
f 110 130 131
f 110 131 111
f 111 130 114
f 111 114 112
f 111 131 130
f 114 130 116
f 115 121 120
f 115 116 121
f 116 132 121
f 116 130 129
f 116 129 132
f 117 122 133
f 117 133 118
f 118 133 127
f 118 127 119
f 121 132 134
f 121 134 122
f 122 134 133
f 124 129 125
f 124 135 129
f 126 128 134
f 126 134 135
f 127 133 128
f 128 133 134
f 129 135 134
f 129 134 132

