# https://github.com/mikedh/trimesh
v -4.47114700 0.46296638 3.10005631
v -4.43935667 0.46296638 3.06276582
v -4.47114700 0.46296638 3.18475401
v -4.47114700 0.46417275 3.09868782
v -4.47111220 0.46412966 3.09863894
v -4.33403840 0.46296638 2.95172524
v -4.47114700 0.47253132 3.09064817
v -4.47114700 0.47683988 3.08693375
v -4.46373847 0.48558620 3.07124530
v -4.45862563 0.46296638 3.18509608
v -4.47114700 0.56223519 3.18509608
v -4.32774297 0.48381971 2.93547485
v -4.32127356 0.46296638 2.94058209
v -4.44652173 0.48537078 3.05374863
v -4.46412114 0.51927904 3.05338212
v -4.45793000 0.52893014 3.04211677
v -4.37741088 0.51932212 2.96660724
v -4.47114700 0.49256603 3.07874746
v -4.46596457 0.52893014 3.05081622
v -4.11585419 0.46296638 3.18509608
v -4.47114700 0.57261874 3.18509608
v -4.33059501 0.48967929 2.93547485
v -4.31466505 0.46296638 2.93547485
v -4.31703024 0.46296638 2.93718541
v -4.46102551 0.54633666 3.03952643
v -4.43278297 0.53211845 3.01548071
v -4.41532275 0.53190304 2.99830166
v -4.38774094 0.52893014 2.97330284
v -4.37904563 0.52893014 2.96531207
v -4.33209058 0.49420327 2.93547485
v -4.47114700 0.52893014 3.06103082
v -4.46742534 0.54633666 3.04822589
v -4.11585419 0.46296638 2.93547485
v -4.11585419 0.85353571 3.18509608
v -4.47114700 0.61872018 3.13446317
v -4.41998343 0.79088949 3.18509608
v -4.42057467 0.78955388 3.18416753
v -4.46112991 0.56370010 3.04023512
v -4.45243449 0.56370010 3.03092475
v -4.45233020 0.54633666 3.03075366
v -4.44335662 0.54633666 3.02207864
v -4.42558322 0.54633666 3.00507069
v -4.41688781 0.54633666 2.99678663
v -4.39901023 0.54633666 2.97987634
v -4.38923661 0.54633666 2.97120132
v -4.38057599 0.54633666 2.96413911
v -4.35995056 0.53638393 2.94930599
v -4.34068160 0.52905939 2.93547485
v -4.33657747 0.51156670 2.93547485
v -4.47114700 0.54633666 3.05604567
v -4.46638193 0.56370010 3.04893458
v -4.11585419 0.85573305 2.93547485
v -4.11585419 0.85388040 3.18416753
v -4.11644548 0.85383731 3.18509608
v -4.47114700 0.62061591 3.13231278
v -4.41528795 0.80786518 3.18509608
v -4.45946036 0.68528714 3.11466946
v -4.46043427 0.58106348 3.04311865
v -4.44895641 0.61583344 3.03346609
v -4.45062585 0.59847000 3.03212215
v -4.45173885 0.58106348 3.03143790
v -4.39848847 0.59847000 2.98019407
v -4.39890583 0.58106348 2.97977857
v -4.38948009 0.56370010 2.97112800
v -4.38961917 0.58106348 2.97110356
v -4.38092386 0.58106348 2.96379704
v -4.38078467 0.56370010 2.96396802
v -4.36958509 0.56370010 2.95526857
v -4.36088967 0.56370010 2.94857286
v -4.35080309 0.54633666 2.94138854
v -4.34106427 0.53121367 2.93547485
v -4.47114700 0.56370010 3.06217934
v -4.46311243 0.60170140 3.05570360
v -4.45984302 0.59691893 3.04685750
v -4.22920698 0.82699508 2.93547485
v -4.32189970 0.90187754 3.18509608
v -4.11585419 0.85749956 2.94055765
v -4.11585419 0.85637934 3.17583459
v -4.12496691 0.85831820 3.18416753
v -4.12604517 0.85853362 3.18509608
v -4.47114700 0.63043939 3.11466946
v -4.46499066 0.66408910 3.11046632
v -4.41229672 0.81751628 3.18509608
v -4.41567052 0.80691726 3.18416753
v -4.45626044 0.68528714 3.09729489
v -4.46499066 0.66408910 3.10252433
v -4.41233152 0.81764553 3.18416753
v -4.42248770 0.78955388 3.16679306
v -4.41647044 0.80691726 3.16679306
v -4.45309533 0.70265058 3.11466946
v -4.45546052 0.61583344 3.04519582
v -4.44749554 0.62837128 3.03505455
v -4.42954836 0.64353735 3.01860864
v -4.44081754 0.61583344 3.02479108
v -4.44203483 0.59847000 3.02344703
v -4.41591400 0.59847000 2.99747077
v -4.40718389 0.59847000 2.98879576
v -4.38913222 0.59847000 2.97149451
v -4.41473140 0.61583344 2.99866817
v -4.40568822 0.61583344 2.98999316
v -4.39699281 0.61583344 2.98178242
v -4.38043691 0.59847000 2.96418799
v -4.36965458 0.58106348 2.95509748
v -4.36099406 0.58106348 2.94852398
v -4.35080309 0.56370010 2.94097305
v -4.34294239 0.54633666 2.93547485
v -4.47114700 0.61583344 3.08903527
v -4.46874702 0.61583344 3.07992042
v -4.46474718 0.61583344 3.06806859
v -4.46158207 0.61583344 3.05941791
v -4.23838935 0.82298812 2.93547485
v -4.35901144 0.88490189 3.17583459
v -4.35202037 0.89231257 3.18509608
v -4.33351665 0.89886158 3.18509608
v -4.31605633 0.90256691 3.18509608
v -4.11585419 0.86042938 2.94923267
v -4.11585419 0.85870595 3.16654865
v -4.13936646 0.86512568 3.18416753
v -4.13960994 0.86495332 3.18509608
v -4.47038177 0.63319688 3.09729489
v -4.47114700 0.62871599 3.09729489
v -4.40906202 0.82712435 3.18509608
v -4.40940989 0.82634882 3.18416753
v -4.44659122 0.71165544 3.10553006
v -4.44919989 0.70183196 3.09876114
v -4.44721726 0.69554145 3.08695819
v -4.44707818 0.67817806 3.06975471
v -4.45479968 0.66796678 3.07992042
v -4.46144298 0.66913012 3.09695282
v -4.46453850 0.64457144 3.08666490
v -4.46575579 0.63168889 3.08048246
v -4.41250540 0.81760245 3.16679306
v -4.41201845 0.81626681 3.15660292
v -4.41459232 0.80747739 3.15024939
v -4.41372269 0.80209171 3.13578278
v -4.45024329 0.63380009 3.04426717
v -4.44579129 0.63996130 3.03784031
v -4.43448732 0.64982781 3.02694148
v -4.42746145 0.65512732 3.02056351
v -4.41160109 0.64185703 3.00177167
v -4.41316624 0.63026706 3.00023219
v -4.43055697 0.63319688 3.01755778
v -4.43212213 0.61583344 3.01601830
v -4.42342682 0.61583344 3.00731885
v -4.38718450 0.61583344 2.97308297
v -4.37848908 0.61583344 2.96572746
v -4.39532336 0.62785429 2.98344410
v -4.35963759 0.60760411 2.94952596
v -4.36902854 0.59847000 2.95551298
v -4.35080309 0.58106348 2.94087528
v -4.35080309 0.59847000 2.94177950
v -4.34332506 0.58106348 2.93547485
v -4.34318587 0.56370010 2.93547485
v -4.34308158 0.55094680 2.93547485
v -4.46384286 0.62488139 3.07097655
v -4.24405874 0.82040302 2.93547485
v -4.37080238 0.88227368 3.18509608
v -4.36328966 0.88731469 3.18509608
v -4.30930874 0.90308395 3.18509608
v -4.11585419 0.86551345 2.96802451
v -4.11585419 0.86073098 3.15660292
v -4.12639298 0.86361769 3.16571776
v -4.13585353 0.86676294 3.17080067
v -4.14830530 0.86896028 3.18509608
v -4.40040140 0.84530638 3.18509608
v -4.41114893 0.79739541 3.12419980
v -4.44429563 0.68968187 3.07537511
v -4.42979184 0.71260331 3.06963251
v -4.42697450 0.70721763 3.05807397
v -4.42968745 0.67809190 3.03564104
v -4.44060886 0.66641571 3.04673530
v -4.44648693 0.65960821 3.05355310
v -4.44836506 0.66641571 3.06340118
v -4.43208733 0.68442544 3.04597773
v -4.45288665 0.65056026 3.06254585
v -4.46217331 0.63647136 3.07508192
v -4.41020981 0.81363860 3.14501983
v -4.39866236 0.84858089 3.18509608
v -4.39601900 0.85310486 3.18509608
v -4.40739246 0.80747739 3.13079764
v -4.44784341 0.65056026 3.05030307
v -4.44415654 0.65056026 3.04160361
v -4.43208733 0.66796678 3.03256198
v -4.30923914 0.74995837 2.94783973
v -4.31233477 0.73742048 2.94500509
v -4.32586474 0.71432671 2.94823079
v -4.39344513 0.63940117 2.98508134
v -4.31807364 0.70265058 2.93745416
v -4.32043883 0.68938024 2.93547485
v -4.32151703 0.68623501 2.93547485
v -4.32635170 0.67137056 2.93547485
v -4.32850810 0.66391677 2.93547485
v -4.33508181 0.65056026 2.93796732
v -4.33911644 0.61574728 2.93547485
v -4.33188190 0.65056026 2.93547485
v -4.33657747 0.63319688 2.93628120
v -4.34217727 0.59847000 2.93547485
v -4.25233669 0.81036412 2.93547485
v -4.30704794 0.78041977 2.96741358
v -4.37521968 0.81389715 3.09069695
v -4.36363742 0.81958440 3.08351263
v -4.35762027 0.83117437 3.09096580
v -4.36224615 0.83556909 3.10254878
v -4.37650656 0.85008888 3.14115888
v -4.36019404 0.85086441 3.12248924
v -4.38102815 0.87257944 3.18509608
v -4.38061079 0.85366496 3.15274185
v -4.29870040 0.90308395 3.18509608
v -4.11585419 0.86891720 2.98486148
v -4.11585419 0.86827093 2.98112262
v -4.11585419 0.86762465 2.97789703
v -4.11585419 0.86327300 3.14101223
v -4.13317537 0.86792622 3.15921759
v -4.16061799 0.87425979 3.18509608
v -4.15971367 0.87387202 3.18509608
v -4.14868792 0.86913264 3.18509608
v -4.39873195 0.80631411 3.11579354
v -4.39574072 0.80010982 3.10374618
v -4.39633197 0.78360808 3.08541862
v -4.39661024 0.76702018 3.06779974
v -4.41215764 0.72966512 3.05311327
v -4.42979184 0.69562761 3.05230692
v -4.41107933 0.71053519 3.03705830
v -4.30603934 0.76154834 2.95094323
v -4.39661024 0.83643079 3.15279074
v -4.39400168 0.83268236 3.14120776
v -4.38975826 0.86185118 3.18509608
v -4.39803631 0.82031685 3.13204392
v -4.27859672 0.77335372 2.93547485
v -4.30614362 0.72583051 2.93547485
v -4.31570856 0.71902301 2.94094861
v -4.31076961 0.71475759 2.93547485
v -4.25633653 0.80545236 2.93547485
v -4.39226253 0.76060047 3.05624120
v -4.39236693 0.77861015 3.07383564
v -4.37591532 0.79709383 3.07241826
v -4.38033251 0.80230713 3.08400135
v -4.38568883 0.80700343 3.09722156
v -4.37946299 0.81842109 3.10228003
v -4.37828040 0.83440576 3.12146282
v -4.37382840 0.83001106 3.10987984
v -4.36871557 0.82479774 3.09661064
v -4.38728878 0.84323829 3.14697481
v -4.38210635 0.83819728 3.13204392
v -4.29184842 0.90295468 3.18509608
v -4.11585419 0.87020975 2.99299889
v -4.11585419 0.86952038 3.08854655
v -4.17773044 0.88098110 3.18509608
v -4.39490600 0.81639609 3.12234259
v -4.39108004 0.81169973 3.11075951
v -4.39191477 0.79515497 3.09216320
v -4.30760449 0.72255604 2.93547485
v -4.28134447 0.90235149 3.18509608
v -4.11585419 0.87102837 3.00135627
v -4.26419722 0.90110200 3.18509608
v -4.11585419 0.87089912 3.07082991
v -4.18771274 0.88451412 3.18416753
v -4.18781703 0.88447104 3.18509608
v -4.11585419 0.87171774 3.01044668
v -4.24753683 0.89920624 3.18509608
v -4.11585419 0.87171774 3.01873074
v -4.22920698 0.89597484 3.18509608
v -4.21275537 0.89179556 3.18509608
v -4.21185105 0.89153704 3.18509608
v -4.19720808 0.88727158 3.18509608
v -4.19647764 0.88705615 3.18509608
v -4.23018090 0.89619026 3.18509608
f 1 2 6
f 1 6 13
f 1 13 24
f 1 24 23
f 1 23 33
f 1 33 20
f 1 20 10
f 1 10 3
f 1 3 11
f 1 11 21
f 1 21 35
f 1 35 55
f 1 55 81
f 1 81 121
f 1 121 107
f 1 107 72
f 1 72 50
f 1 50 31
f 1 31 18
f 1 18 8
f 1 8 7
f 1 7 4
f 1 4 5
f 1 5 2
f 2 5 7
f 2 7 8
f 2 8 9
f 2 9 6
f 3 10 11
f 4 7 5
f 6 12 13
f 6 9 14
f 6 14 15
f 6 15 16
f 6 16 17
f 6 17 12
f 8 18 19
f 8 19 9
f 9 19 15
f 9 15 14
f 10 20 34
f 10 34 54
f 10 54 80
f 10 80 119
f 10 119 164
f 10 164 216
f 10 216 215
f 10 215 214
f 10 214 248
f 10 248 258
f 10 258 266
f 10 266 265
f 10 265 264
f 10 264 263
f 10 263 262
f 10 262 267
f 10 267 260
f 10 260 255
f 10 255 253
f 10 253 245
f 10 245 208
f 10 208 159
f 10 159 115
f 10 115 76
f 10 76 114
f 10 114 113
f 10 113 158
f 10 158 157
f 10 157 206
f 10 206 227
f 10 227 179
f 10 179 178
f 10 178 165
f 10 165 122
f 10 122 83
f 10 83 56
f 10 56 36
f 10 36 21
f 10 21 11
f 12 22 30
f 12 30 49
f 12 49 48
f 12 48 71
f 12 71 106
f 12 106 154
f 12 154 153
f 12 153 152
f 12 152 197
f 12 197 194
f 12 194 195
f 12 195 192
f 12 192 191
f 12 191 190
f 12 190 189
f 12 189 232
f 12 232 252
f 12 252 230
f 12 230 229
f 12 229 233
f 12 233 198
f 12 198 156
f 12 156 111
f 12 111 75
f 12 75 52
f 12 52 33
f 12 33 23
f 12 23 24
f 12 24 13
f 12 17 22
f 15 19 16
f 16 19 25
f 16 25 26
f 16 26 17
f 17 26 27
f 17 27 28
f 17 28 29
f 17 29 30
f 17 30 22
f 18 31 19
f 19 31 32
f 19 32 25
f 20 33 52
f 20 52 77
f 20 77 116
f 20 116 160
f 20 160 211
f 20 211 210
f 20 210 209
f 20 209 246
f 20 246 254
f 20 254 259
f 20 259 261
f 20 261 256
f 20 256 247
f 20 247 212
f 20 212 161
f 20 161 117
f 20 117 78
f 20 78 53
f 20 53 34
f 21 36 37
f 21 37 35
f 25 32 38
f 25 38 39
f 25 39 40
f 25 40 26
f 26 40 27
f 27 40 41
f 27 41 42
f 27 42 43
f 27 43 44
f 27 44 28
f 28 44 29
f 29 44 45
f 29 45 46
f 29 46 47
f 29 47 48
f 29 48 49
f 29 49 30
f 31 50 32
f 32 50 51
f 32 51 38
f 34 53 54
f 35 37 55
f 36 56 37
f 37 56 57
f 37 57 55
f 38 51 58
f 38 58 59
f 38 59 60
f 38 60 61
f 38 61 39
f 39 41 40
f 39 61 62
f 39 62 63
f 39 63 41
f 41 63 42
f 42 63 43
f 43 63 44
f 44 64 45
f 44 63 65
f 44 65 64
f 45 64 66
f 45 66 67
f 45 67 46
f 46 67 68
f 46 68 69
f 46 69 70
f 46 70 47
f 47 70 71
f 47 71 48
f 50 72 51
f 51 72 73
f 51 73 74
f 51 74 58
f 52 75 76
f 52 76 77
f 53 78 79
f 53 79 80
f 53 80 54
f 55 57 82
f 55 82 81
f 56 83 84
f 56 84 57
f 57 85 86
f 57 86 82
f 57 84 83
f 57 83 87
f 57 87 88
f 57 88 89
f 57 89 90
f 57 90 85
f 58 74 59
f 59 91 92
f 59 92 93
f 59 93 94
f 59 94 60
f 59 74 91
f 60 94 95
f 60 95 61
f 61 95 96
f 61 96 97
f 61 97 62
f 62 98 65
f 62 65 63
f 62 97 99
f 62 99 100
f 62 100 101
f 62 101 98
f 64 65 66
f 65 98 102
f 65 102 66
f 66 102 103
f 66 103 68
f 66 68 67
f 68 103 69
f 69 103 104
f 69 104 105
f 69 105 70
f 70 105 106
f 70 106 71
f 72 107 108
f 72 108 73
f 73 108 109
f 73 109 110
f 73 110 91
f 73 91 74
f 75 111 112
f 75 112 113
f 75 113 114
f 75 114 76
f 76 115 116
f 76 116 77
f 78 117 118
f 78 118 79
f 79 118 119
f 79 119 80
f 81 120 121
f 81 82 86
f 81 86 120
f 83 122 123
f 83 123 87
f 85 90 124
f 85 124 125
f 85 125 126
f 85 126 127
f 85 127 128
f 85 128 129
f 85 129 86
f 86 129 130
f 86 130 131
f 86 131 120
f 87 123 88
f 88 123 89
f 89 123 132
f 89 132 90
f 90 132 133
f 90 133 134
f 90 134 135
f 90 135 124
f 91 110 136
f 91 136 137
f 91 137 92
f 92 137 138
f 92 138 93
f 93 138 139
f 93 139 140
f 93 140 141
f 93 141 101
f 93 101 100
f 93 100 99
f 93 99 142
f 93 142 94
f 94 142 143
f 94 143 95
f 95 143 144
f 95 144 99
f 95 99 96
f 96 99 97
f 98 101 145
f 98 145 146
f 98 146 102
f 99 144 142
f 101 141 140
f 101 140 147
f 101 147 145
f 102 148 149
f 102 149 103
f 102 146 148
f 103 149 104
f 104 150 105
f 104 149 151
f 104 151 150
f 105 150 152
f 105 152 153
f 105 153 154
f 105 154 106
f 107 121 108
f 108 121 120
f 108 120 131
f 108 131 109
f 109 131 155
f 109 155 110
f 110 155 136
f 111 156 112
f 112 157 158
f 112 158 113
f 112 156 157
f 115 159 160
f 115 160 116
f 117 161 162
f 117 162 163
f 117 163 118
f 118 163 164
f 118 164 119
f 122 165 123
f 123 165 132
f 124 135 125
f 125 135 166
f 125 166 126
f 126 167 127
f 126 166 168
f 126 168 169
f 126 169 167
f 127 170 171
f 127 171 172
f 127 172 173
f 127 173 128
f 127 167 174
f 127 174 170
f 128 173 172
f 128 172 129
f 129 172 175
f 129 175 130
f 130 175 176
f 130 176 131
f 131 176 155
f 132 165 133
f 133 177 135
f 133 135 134
f 133 165 178
f 133 178 179
f 133 179 177
f 135 177 180
f 135 180 166
f 136 155 176
f 136 176 181
f 136 181 137
f 137 181 172
f 137 172 182
f 137 182 183
f 137 183 138
f 138 183 139
f 139 183 184
f 139 184 185
f 139 185 186
f 139 186 140
f 140 187 147
f 140 186 188
f 140 188 189
f 140 189 190
f 140 190 187
f 142 144 143
f 145 147 191
f 145 191 146
f 146 191 192
f 146 192 193
f 146 193 148
f 147 187 191
f 148 194 151
f 148 151 149
f 148 193 195
f 148 195 196
f 148 196 194
f 150 151 197
f 150 197 152
f 151 194 197
f 156 198 199
f 156 199 200
f 156 200 201
f 156 201 202
f 156 202 203
f 156 203 204
f 156 204 205
f 156 205 157
f 157 205 204
f 157 204 207
f 157 207 206
f 159 208 209
f 159 209 210
f 159 210 211
f 159 211 160
f 161 212 213
f 161 213 162
f 162 213 163
f 163 213 214
f 163 214 215
f 163 215 216
f 163 216 164
f 166 180 217
f 166 217 218
f 166 218 219
f 166 219 220
f 166 220 221
f 166 221 169
f 166 169 168
f 167 169 222
f 167 222 174
f 169 221 170
f 169 170 222
f 170 183 171
f 170 174 222
f 170 221 223
f 170 223 224
f 170 224 184
f 170 184 183
f 171 183 182
f 171 182 172
f 172 181 175
f 175 181 176
f 177 225 226
f 177 226 180
f 177 179 227
f 177 227 225
f 180 226 228
f 180 228 217
f 184 224 229
f 184 229 230
f 184 230 185
f 185 230 231
f 185 231 186
f 186 231 188
f 187 190 191
f 188 231 232
f 188 232 189
f 192 195 193
f 194 196 195
f 198 233 199
f 199 224 221
f 199 221 234
f 199 234 220
f 199 220 235
f 199 235 236
f 199 236 200
f 199 233 224
f 200 236 237
f 200 237 238
f 200 238 239
f 200 239 240
f 200 240 241
f 200 241 242
f 200 242 201
f 201 242 202
f 202 242 203
f 203 242 241
f 203 241 240
f 203 240 204
f 204 243 207
f 204 240 244
f 204 244 226
f 204 226 243
f 206 207 243
f 206 243 226
f 206 226 225
f 206 225 227
f 208 245 246
f 208 246 209
f 212 247 213
f 213 247 248
f 213 248 214
f 217 228 249
f 217 249 250
f 217 250 218
f 218 251 219
f 218 250 251
f 219 251 235
f 219 235 220
f 220 234 221
f 221 224 223
f 224 233 229
f 226 244 240
f 226 240 239
f 226 239 250
f 226 250 249
f 226 249 228
f 230 252 231
f 231 252 232
f 235 251 237
f 235 237 236
f 237 251 238
f 238 250 239
f 238 251 250
f 245 253 246
f 246 253 255
f 246 255 254
f 247 256 257
f 247 257 258
f 247 258 248
f 254 255 259
f 255 260 259
f 256 261 262
f 256 262 263
f 256 263 264
f 256 264 265
f 256 265 266
f 256 266 257
f 257 266 258
f 259 260 267
f 259 267 261
f 261 267 262

