# https://github.com/mikedh/trimesh
v -1.24768564 0.91118581 -0.32651625
v -1.24768564 0.89706159 -0.32170799
v -1.24768564 0.97894122 -0.32651625
v -1.14703747 0.91118581 -0.32651625
v -1.14703747 0.90568454 -0.32464775
v -1.24768564 0.89180765 -0.30820039
v -1.14703747 0.89706159 -0.32170799
v -1.14703747 0.89501460 -0.31644551
v -1.24768564 0.97894122 -0.30800320
v -1.14703747 0.97894122 -0.32651625
v -1.24768564 0.89259233 -0.23896474
v -1.14703747 0.89180765 -0.30820039
v -1.24768564 0.90955676 -0.23896474
v -1.14703747 0.97894122 -0.30800320
v -1.14703747 0.89259233 -0.23896474
v -1.14703747 0.90955676 -0.23896474
f 1 2 6
f 1 6 11
f 1 11 13
f 1 13 9
f 1 9 3
f 1 3 10
f 1 10 4
f 1 4 5
f 1 5 2
f 2 5 7
f 2 7 8
f 2 8 6
f 3 9 14
f 3 14 10
f 4 10 14
f 4 14 16
f 4 16 15
f 4 15 12
f 4 12 8
f 4 8 7
f 4 7 5
f 6 8 12
f 6 12 15
f 6 15 11
f 9 13 16
f 9 16 14
f 11 15 16
f 11 16 13

