# https://github.com/mikedh/trimesh
v -5.58686076 0.40144592 1.10084604
v -5.58686076 0.40313557 1.08179530
v -5.58800514 0.40123776 1.10084604
v -5.58686076 0.38104791 1.10084604
v -5.60193860 0.39647497 1.10084604
v -5.58686076 0.40289069 1.06441296
v -5.61920929 0.39032862 1.10084604
v -5.58686076 0.38060715 1.09703594
v -5.61107292 0.27805382 1.10084604
v -5.58686076 0.39425886 0.97997416
v -5.60195765 0.39167547 0.97997416
v -5.60429674 0.39098982 0.97997416
v -5.61920929 0.38857777 1.06441296
v -5.61920929 0.38942259 1.08179530
v -5.63142028 0.38363131 1.08179530
v -5.63199858 0.38409657 1.09916583
v -5.63204953 0.38413334 1.10084604
v -5.58686076 0.36836343 0.97997416
v -5.64495316 0.27805382 1.10084604
v -5.61076782 0.27805382 1.08341638
v -5.61475336 0.38479449 0.97997416
v -5.63068291 0.38308035 1.06441296
v -5.64010948 0.37300381 1.08179530
v -5.64068799 0.37362820 1.09916583
v -5.64073894 0.37368940 1.10084604
v -5.61048177 0.27805382 1.06574996
v -5.61023384 0.27805382 1.04813098
v -5.60976988 0.27805382 1.01292844
v -5.60953458 0.27805382 0.99493073
v -5.60935024 0.27805382 0.97997416
v -5.64621829 0.27805382 1.10065673
v -5.64847474 0.28568170 1.10084604
v -5.62944325 0.38222331 1.04704232
v -5.62343635 0.37818293 0.97997416
v -5.63436335 0.36950212 0.97997416
v -5.64183858 0.36118864 0.97997416
v -5.64305256 0.35979281 0.97997416
v -5.64530279 0.36395566 1.07204508
v -5.64543639 0.36432300 1.08179530
v -5.64566526 0.36494738 1.09916583
v -5.64568432 0.36499637 1.10084604
v -5.64611659 0.27805382 0.97997416
v -5.64853190 0.28568170 0.97997416
v -5.64621829 0.27805382 1.09916583
v -5.65151309 0.30305544 0.97997416
v -5.64895154 0.28810592 0.97997416
v -5.65136064 0.30305544 1.10084604
v -5.65136706 0.30305544 1.09916583
v -5.65147498 0.30305544 1.01230126
v -5.64361843 0.35858070 0.97997416
v -5.64703810 0.35111200 0.97997416
v -5.64729245 0.35660947 1.06552523
v -5.64802983 0.35517698 1.08179530
v -5.64807436 0.35618092 1.10084604
v -5.65179292 0.32042929 1.10084604
v -5.65179292 0.32042929 1.08179530
v -5.65178650 0.32042929 1.06441296
v -5.65175481 0.32042929 1.04704232
v -5.65152593 0.30547976 0.97997416
v -5.65140518 0.30474508 1.10084604
v -5.64956174 0.33970094 0.97997416
v -5.64831587 0.35517698 1.09916583
v -5.64998117 0.33780313 0.97997416
v -5.64833493 0.35517698 1.10084604
v -5.65173575 0.32211893 1.10084604
v -5.65116988 0.33780313 1.09916583
v -5.65171027 0.32042929 1.02968370
v -5.65165932 0.32042929 1.01230126
v -5.65160215 0.32042929 0.99493073
v -5.65151309 0.32042929 0.97997416
v -5.65022289 0.33780313 0.99493073
v -5.65063590 0.33780313 1.02968370
v -5.65083930 0.33780313 1.04704232
v -5.65132253 0.32285351 0.97997416
v -5.65100459 0.33780313 1.06441296
v -5.65110629 0.33780313 1.08179530
v -5.65091573 0.33949277 1.10084604
v -5.65116988 0.33780313 1.10084604
f 1 2 3
f 1 3 5
f 1 5 7
f 1 7 17
f 1 17 25
f 1 25 41
f 1 41 54
f 1 54 64
f 1 64 77
f 1 77 78
f 1 78 65
f 1 65 55
f 1 55 60
f 1 60 47
f 1 47 32
f 1 32 19
f 1 19 9
f 1 9 4
f 1 4 8
f 1 8 18
f 1 18 10
f 1 10 6
f 1 6 2
f 2 5 3
f 2 6 7
f 2 7 5
f 4 9 8
f 6 10 11
f 6 11 12
f 6 12 13
f 6 13 14
f 6 14 7
f 7 14 15
f 7 15 16
f 7 16 17
f 8 9 18
f 9 19 31
f 9 31 44
f 9 44 42
f 9 42 30
f 9 30 29
f 9 29 28
f 9 28 27
f 9 27 26
f 9 26 20
f 9 20 18
f 10 18 30
f 10 30 42
f 10 42 43
f 10 43 46
f 10 46 45
f 10 45 59
f 10 59 70
f 10 70 74
f 10 74 63
f 10 63 61
f 10 61 51
f 10 51 50
f 10 50 37
f 10 37 36
f 10 36 35
f 10 35 34
f 10 34 21
f 10 21 12
f 10 12 11
f 12 21 22
f 12 22 13
f 13 22 15
f 13 15 14
f 15 22 23
f 15 23 24
f 15 24 25
f 15 25 16
f 16 25 17
f 18 20 26
f 18 26 27
f 18 27 28
f 18 28 29
f 18 29 30
f 19 32 31
f 21 33 22
f 21 34 33
f 22 33 35
f 22 35 36
f 22 36 37
f 22 37 23
f 23 37 24
f 24 37 25
f 25 37 38
f 25 38 39
f 25 39 40
f 25 40 41
f 31 32 43
f 31 43 44
f 32 45 46
f 32 46 43
f 32 47 48
f 32 48 49
f 32 49 45
f 33 34 35
f 37 50 38
f 38 50 51
f 38 51 39
f 39 51 40
f 40 51 52
f 40 52 53
f 40 53 41
f 41 53 54
f 42 44 43
f 45 49 55
f 45 55 56
f 45 56 57
f 45 57 58
f 45 58 59
f 47 60 48
f 48 60 55
f 48 55 49
f 51 61 53
f 51 53 52
f 53 62 54
f 53 61 63
f 53 63 62
f 54 62 64
f 55 65 56
f 56 65 66
f 56 66 57
f 57 66 58
f 58 67 59
f 58 66 67
f 59 67 68
f 59 68 69
f 59 69 70
f 62 63 71
f 62 71 72
f 62 72 73
f 62 73 64
f 63 74 71
f 64 73 75
f 64 75 76
f 64 76 77
f 65 78 66
f 66 78 77
f 66 77 76
f 66 76 69
f 66 69 68
f 66 68 67
f 69 76 75
f 69 75 70
f 70 75 73
f 70 73 74
f 71 74 72
f 72 74 73

