# https://github.com/mikedh/trimesh
v -4.59229716 0.53751246 4.27687824
v -4.57670181 0.53751246 4.27740165
v -4.59229716 0.53751246 4.29909389
v -4.59229716 1.88359859 4.27687824
v -4.56914260 0.53751246 4.27990458
v -4.57670181 1.88359859 4.27740165
v -4.57618720 1.88359859 4.27756528
v -4.56961971 0.53751246 4.34125115
v -4.59229716 0.53777593 4.30005911
v -4.59229716 1.88359859 4.30005911
v -4.56177062 0.53751246 4.28235034
v -4.56177062 1.88359859 4.28235034
v -4.51944693 0.53751246 4.36036694
v -4.56961971 1.88359859 4.34125115
v -4.51068089 0.53751246 4.33348077
v -4.50695746 1.88359859 4.33261374
v -4.51119550 0.53751246 4.36036694
v -4.50780886 1.88359859 4.36044047
v -4.51944693 1.88359859 4.36036694
v -4.50829530 0.53751246 4.34098955
v -4.49673210 1.88359859 4.34831834
v -4.50861334 0.53751246 4.35441224
v -4.49831311 1.88359859 4.35159013
v -4.50731300 1.88359859 4.36044047
v -4.50597516 0.53751246 4.34831834
f 1 2 5
f 1 5 11
f 1 11 15
f 1 15 20
f 1 20 25
f 1 25 22
f 1 22 17
f 1 17 13
f 1 13 8
f 1 8 3
f 1 3 9
f 1 9 10
f 1 10 4
f 1 4 6
f 1 6 2
f 2 6 7
f 2 7 5
f 3 8 9
f 4 10 14
f 4 14 19
f 4 19 18
f 4 18 24
f 4 24 23
f 4 23 21
f 4 21 16
f 4 16 12
f 4 12 7
f 4 7 6
f 5 7 11
f 7 12 11
f 8 13 19
f 8 19 14
f 8 14 10
f 8 10 9
f 11 12 16
f 11 16 15
f 13 17 24
f 13 24 18
f 13 18 19
f 15 16 21
f 15 21 20
f 17 22 21
f 17 21 23
f 17 23 24
f 20 21 25
f 21 22 25

