# https://github.com/mikedh/trimesh
v -4.13529382 0.42468194 2.74201538
v -4.13273792 0.42460002 2.74201538
v -4.13529382 0.42500956 2.74519007
v -4.13529382 0.79692901 2.74201538
v -4.00333813 0.42054540 2.74201538
v -3.99023205 0.42967853 2.83311850
v -4.10409758 0.43365123 2.83311850
v -4.13529382 0.43475703 2.83311850
v -4.13529382 0.79590513 2.74717870
v -4.02070411 0.82821923 2.83311850
v -4.00850674 0.83276531 2.83311850
v -4.00333813 0.83456737 2.83311850
v -3.99824057 0.83620560 2.83311850
v -3.99023205 0.83866295 2.83311850
v -3.99023205 0.83800766 2.83247640
v -3.99023205 0.82924311 2.82626973
v -4.13222673 0.79504503 2.74201538
v -3.99376771 0.42034060 2.74201538
v -3.99023205 0.42029964 2.74201538
v -4.13529382 0.77620535 2.83311850
v -3.99023205 0.82506561 2.82420084
v -4.09539332 0.76739989 2.74201538
v -4.10439580 0.77587772 2.74201538
v -4.11319944 0.78255354 2.74201538
v -4.11747346 0.78550236 2.74201538
v -3.99023205 0.50126921 2.74201538
v -3.99023205 0.80688128 2.81738769
v -4.07930532 0.74876501 2.74201538
v -4.08339474 0.75355685 2.74201538
v -4.08707244 0.75781621 2.74201538
v -4.06324569 0.71399355 2.74201538
v -4.06645477 0.72324955 2.74201538
v -4.07284455 0.73766598 2.74201538
f 1 2 3
f 1 3 8
f 1 8 20
f 1 20 9
f 1 9 4
f 1 4 17
f 1 17 25
f 1 25 24
f 1 24 23
f 1 23 22
f 1 22 30
f 1 30 29
f 1 29 28
f 1 28 33
f 1 33 32
f 1 32 31
f 1 31 26
f 1 26 19
f 1 19 18
f 1 18 5
f 1 5 2
f 2 5 3
f 3 5 6
f 3 6 7
f 3 7 8
f 4 9 10
f 4 10 11
f 4 11 12
f 4 12 13
f 4 13 14
f 4 14 15
f 4 15 16
f 4 16 17
f 5 18 6
f 6 18 19
f 6 19 26
f 6 26 27
f 6 27 21
f 6 21 16
f 6 16 15
f 6 15 14
f 6 14 13
f 6 13 12
f 6 12 11
f 6 11 10
f 6 10 20
f 6 20 8
f 6 8 7
f 9 20 10
f 16 21 22
f 16 22 23
f 16 23 24
f 16 24 25
f 16 25 17
f 21 27 28
f 21 28 29
f 21 29 30
f 21 30 22
f 26 31 27
f 27 31 32
f 27 32 33
f 27 33 28

