# https://github.com/mikedh/trimesh
v 0.15862029 1.77175741 2.20451120
v 0.15862029 1.77057885 2.20451120
v 0.15833591 1.77150958 1.57378566
v 0.15560576 1.77310120 1.57378566
v 0.14929190 1.77645511 1.57378566
v 0.14929190 1.77655976 2.19380256
v 0.15020201 1.77499020 2.21063042
v 0.14496915 1.77370700 2.22146652
v 0.14735795 1.76255479 2.22235893
v 0.14758558 1.74519042 2.22235893
v 0.15833591 1.76959857 1.57378566
v 0.14758558 1.72767185 2.22235893
v 0.14758558 1.72767185 2.21458241
v 0.14383140 1.77796409 1.57378566
v 0.13194353 1.78121340 2.19380256
v 0.13194353 1.78003484 2.21114037
v 0.13194353 1.78116933 1.57378566
v 0.13194353 1.77493511 2.22235893
v 0.13194353 1.76255479 2.22497233
v 0.15304608 1.76412435 1.57378566
v 0.13194353 1.72767185 2.22497233
v 0.13194353 1.72767185 2.20929183
v 0.13194353 1.75888698 1.57378566
v 0.15020201 1.76276409 1.57378566
v 0.11453820 1.78141162 2.19380256
v 0.11453820 1.78022757 2.21114037
v 0.11453820 1.78130702 1.57378566
v 0.04599788 1.76256033 2.22497233
v -0.42246608 1.78051398 2.21107662
v -0.40659660 1.77493511 2.22235893
v 0.04599788 1.72767185 2.22497233
v 0.04599788 1.72767185 2.20929183
v -0.42246608 1.75190378 1.58589661
v -0.42223865 1.75206348 1.58545040
v 0.11664282 1.75883742 1.57378566
v -0.42246608 1.78393396 2.17633729
v -0.42246608 1.78316847 2.19373884
v 0.04599788 1.78130702 1.57378566
v -0.42246608 1.78173106 1.58545040
v -0.42246608 1.78392847 2.17480750
v -0.40659660 1.76256033 2.22497233
v -0.42246608 1.77492962 2.22235893
v -0.40659660 1.74550432 2.22497233
v -0.42246608 1.74550432 2.22490859
v -0.42246608 1.74550432 2.18207407
v -0.42246608 1.75891453 1.58545040
v 0.04599788 1.75883742 1.57378566
v -0.42246608 1.76368928 2.22471736
v -0.42246608 1.76256033 2.22490859
f 1 2 11
f 1 11 3
f 1 3 4
f 1 4 5
f 1 5 6
f 1 6 7
f 1 7 8
f 1 8 9
f 1 9 10
f 1 10 12
f 1 12 2
f 2 12 13
f 2 13 11
f 3 11 20
f 3 20 24
f 3 24 23
f 3 23 35
f 3 35 47
f 3 47 38
f 3 38 27
f 3 27 17
f 3 17 14
f 3 14 5
f 3 5 4
f 5 14 6
f 6 15 16
f 6 16 7
f 6 14 17
f 6 17 15
f 7 16 8
f 8 16 18
f 8 18 19
f 8 19 9
f 9 19 10
f 10 19 21
f 10 21 12
f 11 13 20
f 12 21 31
f 12 31 32
f 12 32 22
f 12 22 13
f 13 22 23
f 13 23 24
f 13 24 20
f 15 17 25
f 15 25 16
f 16 26 18
f 16 25 26
f 17 27 25
f 18 28 19
f 18 26 29
f 18 29 30
f 18 30 41
f 18 41 28
f 19 28 41
f 19 41 43
f 19 43 31
f 19 31 21
f 22 32 33
f 22 33 23
f 23 33 34
f 23 34 35
f 25 27 36
f 25 36 37
f 25 37 26
f 26 37 29
f 27 38 39
f 27 39 40
f 27 40 36
f 29 42 30
f 29 37 36
f 29 36 40
f 29 40 39
f 29 39 46
f 29 46 33
f 29 33 45
f 29 45 44
f 29 44 49
f 29 49 48
f 29 48 42
f 30 42 41
f 31 43 44
f 31 44 45
f 31 45 32
f 32 45 33
f 33 46 34
f 34 46 47
f 34 47 35
f 38 47 46
f 38 46 39
f 41 48 49
f 41 49 44
f 41 44 43
f 41 42 48

