# https://github.com/mikedh/trimesh
v -6.76135302 1.03965516 4.28255187
v -6.67163579 1.03983033 4.22687727
v -6.76126562 0.71660900 4.28254524
v -6.76135302 1.03965516 4.29103747
v -6.76135302 2.47479278 4.28255187
v -6.65111030 1.03965516 4.22687727
v -6.67163579 0.71660900 4.23186262
v -6.67163579 1.30243669 4.22687727
v -6.76126562 0.71660900 4.29104410
v -6.75636395 1.03965516 4.29243641
v -6.76135302 1.30243669 4.29105072
v -6.76135302 2.47479278 4.29105072
v -6.76126562 2.49213638 4.28259164
v -6.65036630 1.03965516 4.22687727
v -6.64725897 0.71660900 4.23186262
v -6.65097898 1.30243669 4.22687727
v -6.67194214 2.49213638 4.24539343
v -6.67106682 2.50177164 4.24539343
v -6.66248905 2.50212210 4.24539343
v -6.37990163 2.50474992 4.24539343
v -6.75111223 0.71660900 4.29387491
v -6.74857389 1.03965516 4.29459757
v -6.74857389 2.47479278 4.29459757
v -6.76126562 2.49213638 4.29101758
v -6.75990893 2.50334840 4.28424887
v -6.38379666 1.09921899 4.22687727
v -6.37141127 1.10570094 4.22687727
v -6.38379666 0.71660900 4.24578469
v -6.65036630 1.30226152 4.22687727
v -6.37136756 2.50474992 4.24539343
v -6.74857389 2.50457469 4.28262478
v -6.66170134 2.50632658 4.27881281
v -6.74848627 0.71660900 4.29459095
v -6.74174655 1.03965516 4.29460420
v -6.31425488 2.47479278 4.29459757
v -6.74857389 2.49213638 4.29453129
v -6.73964587 1.30243669 4.29460420
v -6.75990893 2.50334840 4.28982432
v -6.36764756 1.11954077 4.22687727
v -6.37171761 0.71660900 4.24941087
v -6.38410300 1.17665196 4.22687727
v -6.36615955 2.50545063 4.27860050
v -6.31425488 2.50457469 4.28262478
v -6.31425488 2.49213638 4.27767257
v -6.37097361 2.50369875 4.24539343
v -6.37127995 1.16894366 4.22687727
v -6.74857389 2.50457469 4.29098444
v -6.31425488 2.50457469 4.29098444
v -6.73465679 0.71660900 4.29460420
v -6.31425488 2.49213638 4.29453129
v -6.31425488 1.30243669 4.29460420
v -6.36764756 1.15440311 4.22687727
v -6.31425488 1.03965516 4.27759283
v -6.31429858 0.71660900 4.27759283
v -6.31425488 2.47479278 4.27759946
v -6.36751624 2.49213638 4.24539343
v -6.62717114 0.71660900 4.29460420
v -6.31425488 1.03965516 4.29460420
v -6.31425488 1.30243669 4.27759283
v -6.31429858 0.71660900 4.29459757
f 1 2 3
f 1 3 9
f 1 9 4
f 1 4 11
f 1 11 12
f 1 12 5
f 1 5 8
f 1 8 2
f 2 6 7
f 2 7 3
f 2 8 16
f 2 16 29
f 2 29 41
f 2 41 46
f 2 46 52
f 2 52 39
f 2 39 27
f 2 27 26
f 2 26 14
f 2 14 6
f 3 7 15
f 3 15 28
f 3 28 40
f 3 40 54
f 3 54 60
f 3 60 57
f 3 57 49
f 3 49 33
f 3 33 21
f 3 21 9
f 4 9 10
f 4 10 11
f 5 12 24
f 5 24 13
f 5 13 8
f 6 14 15
f 6 15 7
f 8 13 17
f 8 17 18
f 8 18 19
f 8 19 20
f 8 20 30
f 8 30 16
f 9 21 10
f 10 21 22
f 10 22 23
f 10 23 12
f 10 12 11
f 12 23 24
f 13 24 38
f 13 38 25
f 13 25 18
f 13 18 17
f 14 26 15
f 15 26 27
f 15 27 28
f 16 30 29
f 18 25 31
f 18 31 19
f 19 31 32
f 19 32 20
f 20 32 30
f 21 33 22
f 22 33 34
f 22 34 23
f 23 35 50
f 23 50 36
f 23 36 24
f 23 34 37
f 23 37 51
f 23 51 35
f 24 36 38
f 25 38 47
f 25 47 31
f 27 39 28
f 28 39 40
f 29 30 41
f 30 32 42
f 30 42 43
f 30 43 44
f 30 44 45
f 30 45 46
f 30 46 41
f 31 47 32
f 32 47 48
f 32 48 42
f 33 49 34
f 34 49 57
f 34 57 58
f 34 58 51
f 34 51 37
f 35 51 58
f 35 58 53
f 35 53 59
f 35 59 55
f 35 55 44
f 35 44 43
f 35 43 48
f 35 48 50
f 36 50 48
f 36 48 47
f 36 47 38
f 39 52 59
f 39 59 53
f 39 53 54
f 39 54 40
f 42 48 43
f 44 55 52
f 44 52 56
f 44 56 45
f 45 56 46
f 46 56 52
f 52 55 59
f 53 58 60
f 53 60 54
f 57 60 58

