# https://github.com/mikedh/trimesh
v 0.18405201 2.50405149 3.28199670
v 0.19664267 2.50454280 3.27106058
v 0.18318788 2.50478845 3.27055436
v 0.16705411 2.50405149 3.28199670
v 0.18730516 2.50356008 3.28199670
v 0.19491978 2.50282312 3.28142285
v 0.19729346 2.50527986 3.25367772
v 0.20067875 2.49225911 3.27106058
v 0.20207148 2.49225911 3.25367772
v 0.18721879 2.50527986 3.25367772
v 0.15039174 2.50356008 3.28176037
v 0.15039174 2.50331443 3.28199670
v 0.19304404 2.50110334 3.28199670
v 0.19567704 2.49545291 3.28199670
v 0.19613438 2.49225911 3.28199670
v 0.19729346 2.50527986 3.23062434
v 0.20082623 2.47481629 3.27106058
v 0.20231547 2.47481629 3.25367772
v 0.20224422 2.47997542 3.10960229
v 0.20207148 2.49225911 3.23062434
v 0.18822522 2.50527986 3.23062434
v 0.18823019 2.50503410 3.10960229
v 0.15039174 2.50356008 3.27457098
v 0.15039174 0.04633253 3.28199670
v 0.19618036 2.47481629 3.28199670
v 0.19728849 2.50503410 3.10960229
v 0.20206651 2.49225911 3.10960229
v 0.20082623 0.05984459 3.27106058
v 0.20231547 2.47481629 3.10960229
v 0.20231547 0.05984459 3.25367772
v 0.18345735 2.49225911 3.10960229
v 0.15039174 2.50306877 3.27416594
v 0.15039174 0.00776179 3.27225881
v 0.18987727 -0.00280212 3.28138909
v 0.18881491 0.00456809 3.28199670
v 0.19618036 0.05984459 3.28199670
v 0.19616503 0.04289318 3.28199670
v 0.19610414 0.02569602 3.28199670
v 0.19600223 0.00825320 3.28199670
v 0.19597696 0.00776179 3.28199670
v 0.20231547 0.06009035 3.10960229
v 0.19565674 0.00456809 3.28199670
v 0.19488416 -0.00280212 3.28138909
v 0.20231547 0.05984459 3.23062434
v 0.18338092 2.48709998 3.10960229
v 0.15039174 2.49225911 3.26925484
v 0.15039174 -0.00452190 3.26724654
v 0.19488416 -0.00280212 3.27416594
v 0.18951624 0.00800744 3.10960229
v 0.16670862 -0.00452190 3.26724654
v 0.18320818 2.47481629 3.10960229
v 0.15039174 2.49103074 3.26918732
v 0.15039174 -0.00452190 3.25953394
v 0.18229827 -0.00231082 3.10960229
v 0.17320972 0.07753317 3.10960229
v 0.15039174 0.07728741 3.25509541
v 0.15039174 -0.00403049 3.25874075
v 0.17435348 -0.00231082 3.10960229
v 0.17320972 0.02520461 3.10960229
v 0.15039174 0.02520461 3.25509541
v 0.15039174 0.00776179 3.25521347
v 0.17326565 0.00800744 3.10960229
v 0.17322505 0.02029113 3.10960229
f 1 2 3
f 1 3 4
f 1 4 12
f 1 12 24
f 1 24 35
f 1 35 42
f 1 42 40
f 1 40 39
f 1 39 38
f 1 38 37
f 1 37 36
f 1 36 25
f 1 25 15
f 1 15 14
f 1 14 13
f 1 13 5
f 1 5 6
f 1 6 2
f 2 7 3
f 2 6 8
f 2 8 9
f 2 9 7
f 3 7 10
f 3 10 11
f 3 11 4
f 4 11 12
f 5 13 6
f 6 13 14
f 6 14 15
f 6 15 8
f 7 16 21
f 7 21 10
f 7 9 20
f 7 20 16
f 8 15 17
f 8 17 18
f 8 18 9
f 9 18 19
f 9 19 20
f 10 21 22
f 10 22 23
f 10 23 11
f 11 23 32
f 11 32 46
f 11 46 52
f 11 52 56
f 11 56 60
f 11 60 61
f 11 61 57
f 11 57 53
f 11 53 47
f 11 47 33
f 11 33 24
f 11 24 12
f 15 25 17
f 16 26 22
f 16 22 21
f 16 20 27
f 16 27 26
f 17 25 36
f 17 36 28
f 17 28 30
f 17 30 18
f 18 29 19
f 18 30 44
f 18 44 41
f 18 41 29
f 19 27 20
f 19 29 41
f 19 41 49
f 19 49 54
f 19 54 58
f 19 58 62
f 19 62 63
f 19 63 59
f 19 59 55
f 19 55 51
f 19 51 45
f 19 45 31
f 19 31 22
f 19 22 26
f 19 26 27
f 22 31 23
f 23 31 32
f 24 33 34
f 24 34 35
f 28 36 37
f 28 37 38
f 28 38 39
f 28 39 40
f 28 40 30
f 30 40 42
f 30 42 43
f 30 43 48
f 30 48 44
f 31 45 46
f 31 46 32
f 33 47 34
f 34 47 50
f 34 50 43
f 34 43 42
f 34 42 35
f 41 44 48
f 41 48 49
f 43 50 48
f 45 51 46
f 46 51 52
f 47 53 50
f 48 50 54
f 48 54 49
f 50 53 54
f 51 55 52
f 52 55 56
f 53 57 58
f 53 58 54
f 55 59 60
f 55 60 56
f 57 61 62
f 57 62 58
f 59 63 61
f 59 61 60
f 61 63 62

