# https://github.com/mikedh/trimesh
v -1.13938452 2.50399484 3.28226265
v -1.13938452 2.50201978 3.28269658
v -1.13938452 2.50399484 3.27458900
v -2.51025013 2.50399484 3.28226265
v -2.51025013 2.50321894 3.28243653
v -1.13938452 2.49228520 3.28481850
v -1.13938452 2.49429558 3.27024502
v -2.51025013 2.50399484 3.27458900
v -2.51025013 2.49228520 3.28481850
v -1.13938452 2.48935787 3.28482627
v -2.51025013 2.49112135 3.28482161
v -1.13938452 2.49228520 3.26935571
v -2.51025013 2.49309642 3.26971270
v -1.13938452 2.47493248 3.28486158
v -2.51025013 2.47493248 3.28486158
v -1.13938452 2.47493248 3.26928488
v -2.51025013 2.47609644 3.26928954
v -2.51025013 2.49228520 3.26935571
v -1.13938452 2.14371341 3.28496628
v -2.51025013 2.14484205 3.28487857
v -2.51011591 2.14371341 3.28496628
v -1.13938452 2.14371341 3.26924801
v -2.51025013 2.47493248 3.26928488
v -2.51025013 2.14371341 3.28385215
v -2.51025013 2.14371341 3.26924801
f 1 2 6
f 1 6 10
f 1 10 14
f 1 14 19
f 1 19 22
f 1 22 16
f 1 16 12
f 1 12 7
f 1 7 3
f 1 3 8
f 1 8 4
f 1 4 5
f 1 5 2
f 2 5 6
f 3 7 8
f 4 8 13
f 4 13 18
f 4 18 17
f 4 17 23
f 4 23 25
f 4 25 24
f 4 24 20
f 4 20 15
f 4 15 11
f 4 11 9
f 4 9 5
f 5 9 6
f 6 9 11
f 6 11 10
f 7 12 13
f 7 13 8
f 10 11 15
f 10 15 14
f 12 16 17
f 12 17 18
f 12 18 13
f 14 15 21
f 14 21 19
f 15 20 21
f 16 22 25
f 16 25 23
f 16 23 17
f 19 21 24
f 19 24 25
f 19 25 22
f 20 24 21

