# https://github.com/mikedh/trimesh
v -0.48060632 0.85372857 0.37273837
v -0.48060632 0.85372857 0.29675431
v -0.55846385 0.85372857 0.35576584
v -0.55846385 0.75471365 0.35604691
v -0.55846385 0.12944095 0.35355206
v -0.48060632 0.12944095 0.36183332
v -0.55846385 0.85372857 0.29675431
v -0.48060632 0.79666643 0.25762028
v -0.48179524 0.79666643 0.25307549
v -0.55846385 0.11208119 0.35243927
v -0.48060632 0.11208119 0.36032233
v -0.55846385 0.83845842 0.29675431
v -0.48978973 0.79666643 0.25307549
v -0.48060632 0.70978726 0.25762028
v -0.48179524 0.70978726 0.25307549
v -0.55846385 0.10123134 0.34732053
v -0.55846385 0.03275678 0.31011920
v -0.48060632 0.09616811 0.35127966
v -0.48978973 0.06000191 0.25307549
v -0.55846385 0.06000191 0.29912043
v -0.48060632 0.06000191 0.25765529
v -0.48181802 0.06000191 0.25307549
v -0.55846385 0.03275678 0.30714403
v -0.54567560 0.03275678 0.31011920
v -0.48060632 0.04682135 0.31642095
v -0.48815115 0.04666062 0.25422339
v -0.55846385 0.04256178 0.30236498
v -0.48060632 0.05003618 0.26519866
v -0.48282404 0.04666062 0.25422339
v -0.54567560 0.03275678 0.30714403
v -0.53174421 0.03323898 0.30960377
v -0.48060632 0.04481222 0.30275148
v -0.48174946 0.04432992 0.26519866
v -0.53174421 0.03323898 0.30761255
v -0.48148268 0.04424956 0.29994034
v -0.48170368 0.04424956 0.28258120
f 1 2 7
f 1 7 3
f 1 3 4
f 1 4 5
f 1 5 6
f 1 6 11
f 1 11 18
f 1 18 25
f 1 25 32
f 1 32 28
f 1 28 21
f 1 21 14
f 1 14 8
f 1 8 2
f 2 8 9
f 2 9 13
f 2 13 7
f 3 7 12
f 3 12 20
f 3 20 27
f 3 27 23
f 3 23 17
f 3 17 16
f 3 16 10
f 3 10 5
f 3 5 4
f 5 10 6
f 6 10 11
f 7 13 19
f 7 19 12
f 8 14 15
f 8 15 9
f 9 15 22
f 9 22 19
f 9 19 13
f 10 16 11
f 11 16 17
f 11 17 18
f 12 19 20
f 14 21 15
f 15 21 22
f 17 23 30
f 17 30 24
f 17 24 18
f 18 24 25
f 19 22 29
f 19 29 26
f 19 26 20
f 20 26 27
f 21 28 29
f 21 29 22
f 23 27 26
f 23 26 29
f 23 29 30
f 24 30 34
f 24 34 31
f 24 31 25
f 25 31 32
f 28 32 33
f 28 33 29
f 29 33 30
f 30 33 34
f 31 34 35
f 31 35 32
f 32 35 33
f 33 35 36
f 33 36 34
f 34 36 35

