# https://github.com/mikedh/trimesh
v -3.45659988 -0.00735054 4.27881799
v -3.39519849 -0.00759640 4.27881799
v -3.45659988 -0.00612061 4.28448085
v -3.45659988 -0.00538262 4.27296747
v -3.37603734 -0.00415270 4.24894421
v -3.37782186 -0.00759640 4.27881799
v -3.45659988 -0.00464462 4.29098838
v -3.45659988 -0.00366056 4.26788125
v -3.36362547 -0.00390663 4.24894421
v -3.45659988 0.00248905 4.26664325
v -3.45659988 0.00790087 4.26556618
v -3.38364398 0.00790087 4.24894421
v -3.36343605 -0.00439856 4.27881799
v -3.36521060 -0.00341470 4.28982639
v -3.37782186 -0.00464462 4.29098838
v -3.45659988 0.00790087 4.29453709
v -3.35846133 0.00445697 4.24894421
v -3.45659988 0.01700226 4.26553035
v -3.38506960 0.02512000 4.24894421
v -3.35643755 0.00790087 4.24894421
v -3.35643755 0.00790087 4.26144538
v -3.35686623 0.00790087 4.27881799
v -3.36321672 0.00790087 4.29101965
v -3.37782186 0.00790087 4.29453709
v -3.45659988 0.01577234 4.29456837
v -3.45659988 0.02512000 4.26549907
v -3.38506960 0.05980431 4.24894421
v -3.35476269 0.02512000 4.24894421
v -3.35476269 0.02512000 4.26144538
v -3.35598893 0.02512000 4.27881799
v -3.36317684 0.02512000 4.29105093
v -3.37782186 0.02512000 4.29460420
v -3.45659988 0.02512000 4.29460420
v -3.45659988 0.05193264 4.26550798
v -3.38505963 0.07726950 4.24894421
v -3.35476269 0.07726950 4.24894421
v -3.35476269 0.07726950 4.26144538
v -3.35598893 0.07726950 4.27881799
v -3.36317684 2.47491716 4.29105093
v -3.37782186 2.47491716 4.29460420
v -3.45659988 2.47491716 4.29460420
v -3.45659988 0.06915197 4.26551689
v -3.45659988 0.07726950 4.26552144
v -3.37486096 2.47491716 4.24894421
v -3.35813234 2.47491716 4.24894421
v -3.35720519 2.47491716 4.26144538
v -3.35655718 2.47491716 4.27881799
v -3.36321672 2.49213649 4.29101965
v -3.37782186 2.49213649 4.29453709
v -3.45659988 2.49213649 4.29453709
v -3.45659988 2.49213649 4.27767837
v -3.37461173 2.49213649 4.24894421
v -3.35819215 2.48721659 4.24894421
v -3.35839154 2.49213649 4.24894421
v -3.35791301 2.49213649 4.26144538
v -3.35727498 2.49213649 4.27881799
v -3.36521060 2.50345186 4.28982639
v -3.37782186 2.50468178 4.29098838
v -3.45659988 2.49804024 4.29288794
v -3.45659988 2.50468178 4.28263058
v -3.37175051 2.50369792 4.24894421
v -3.36221979 2.50050008 4.24894421
v -3.36356565 2.50418985 4.27881799
v -3.37770223 2.50492785 4.27860361
v -3.45659988 2.50468178 4.29098838
v -3.36389464 2.50369792 4.24894421
f 1 2 3
f 1 3 7
f 1 7 16
f 1 16 25
f 1 25 33
f 1 33 41
f 1 41 50
f 1 50 59
f 1 59 65
f 1 65 60
f 1 60 51
f 1 51 43
f 1 43 42
f 1 42 34
f 1 34 26
f 1 26 18
f 1 18 11
f 1 11 10
f 1 10 8
f 1 8 4
f 1 4 5
f 1 5 2
f 2 6 15
f 2 15 7
f 2 7 3
f 2 5 6
f 4 8 5
f 5 9 6
f 5 8 10
f 5 10 11
f 5 11 12
f 5 12 19
f 5 19 27
f 5 27 35
f 5 35 44
f 5 44 52
f 5 52 61
f 5 61 66
f 5 66 62
f 5 62 54
f 5 54 53
f 5 53 45
f 5 45 36
f 5 36 28
f 5 28 20
f 5 20 17
f 5 17 9
f 6 9 13
f 6 13 14
f 6 14 15
f 7 15 24
f 7 24 16
f 9 17 13
f 11 18 19
f 11 19 12
f 13 17 20
f 13 20 21
f 13 21 22
f 13 22 14
f 14 22 23
f 14 23 24
f 14 24 15
f 16 24 25
f 18 26 19
f 19 26 27
f 20 28 29
f 20 29 21
f 21 29 22
f 22 29 30
f 22 30 23
f 23 30 31
f 23 31 32
f 23 32 24
f 24 32 25
f 25 32 33
f 26 34 35
f 26 35 27
f 28 36 37
f 28 37 29
f 29 37 38
f 29 38 30
f 30 38 39
f 30 39 31
f 31 39 40
f 31 40 32
f 32 40 41
f 32 41 33
f 34 42 35
f 35 42 43
f 35 43 44
f 36 45 46
f 36 46 47
f 36 47 37
f 37 47 38
f 38 47 39
f 39 47 48
f 39 48 40
f 40 48 49
f 40 49 50
f 40 50 41
f 43 51 44
f 44 51 52
f 45 53 46
f 46 53 54
f 46 54 55
f 46 55 47
f 47 55 56
f 47 56 48
f 48 56 57
f 48 57 49
f 49 57 58
f 49 58 59
f 49 59 50
f 51 60 61
f 51 61 52
f 54 62 55
f 55 62 56
f 56 62 63
f 56 63 57
f 57 63 58
f 58 64 65
f 58 65 59
f 58 63 64
f 60 65 64
f 60 64 61
f 61 64 66
f 62 66 63
f 63 66 64

