# https://github.com/mikedh/trimesh
v -2.42744277 0.37255849 2.53224955
v -2.42744277 0.35839895 2.52327291
v -2.42744277 0.37506421 2.53175866
v -2.46492780 0.39927471 2.58134066
v -2.46492780 0.39578907 2.58134066
v -2.42744277 0.35754507 2.52087680
v -2.47139075 0.39126054 2.58134066
v -2.47430757 0.38924477 2.58134066
v -2.48640008 0.38682998 2.58134066
v -2.49168944 0.38619306 2.58134066
v -2.42744277 0.38941974 2.52873139
v -2.48338969 0.42567589 2.58134066
v -2.42744277 0.38993068 2.52861451
v -2.42744277 0.39971563 2.52036251
v -2.50276149 0.35733514 2.46193244
v -2.48418905 0.35417842 2.46193244
v -2.42744277 0.35784602 2.50680405
v -2.50076307 0.39072159 2.58134066
v -2.50928398 0.42567589 2.58134066
v -2.42744277 0.39986963 2.50720142
v -2.48592384 0.42567589 2.46193244
v -2.50639264 0.36336151 2.46193244
v -2.50458985 0.39274440 2.58134066
v -2.46838885 0.35918997 2.46193244
v -2.45764847 0.35881900 2.47227664
v -2.43990091 0.35833598 2.48931825
v -2.42744277 0.35807003 2.50129881
v -2.50949655 0.42467500 2.58134066
v -2.50953906 0.42567589 2.57605751
v -2.42744277 0.39941468 2.50083127
v -2.42983235 0.39916271 2.49695074
v -2.46249572 0.39912071 2.46193244
v -2.51425022 0.42567589 2.46193244
v -2.51178411 0.37496624 2.46193244
v -2.50931795 0.40730286 2.58134066
v -2.46366070 0.36177968 2.46193244
v -2.44591315 0.36140167 2.47838964
v -2.42792750 0.36098877 2.49520916
v -2.42744277 0.36072975 2.49614424
v -2.50973469 0.42467500 2.57605751
v -2.42744277 0.39708392 2.49835336
v -2.46020815 0.39453621 2.46193244
v -2.51430972 0.42467500 2.46193244
v -2.51391007 0.39213544 2.46193244
v -2.50955609 0.40730286 2.57605751
v -2.45979995 0.37255849 2.46193244
v -2.42744277 0.36479628 2.49476503
v -2.51415665 0.40730286 2.46193244
v -2.42744277 0.38993068 2.49558318
v -2.45932377 0.39033665 2.46193244
v -2.45836280 0.38068461 2.46193244
v -2.42744277 0.37255849 2.49296504
v -2.42744277 0.38918176 2.49545466
v -2.42744277 0.37414032 2.49319878
f 1 2 6
f 1 6 17
f 1 17 27
f 1 27 39
f 1 39 47
f 1 47 52
f 1 52 54
f 1 54 53
f 1 53 49
f 1 49 41
f 1 41 30
f 1 30 20
f 1 20 14
f 1 14 13
f 1 13 11
f 1 11 3
f 1 3 4
f 1 4 5
f 1 5 2
f 2 5 7
f 2 7 8
f 2 8 9
f 2 9 10
f 2 10 6
f 3 11 4
f 4 12 19
f 4 19 28
f 4 28 35
f 4 35 23
f 4 23 18
f 4 18 10
f 4 10 9
f 4 9 8
f 4 8 7
f 4 7 5
f 4 11 13
f 4 13 14
f 4 14 12
f 6 10 15
f 6 15 16
f 6 16 17
f 10 18 15
f 12 14 20
f 12 20 21
f 12 21 33
f 12 33 29
f 12 29 19
f 15 22 34
f 15 34 44
f 15 44 48
f 15 48 43
f 15 43 33
f 15 33 21
f 15 21 32
f 15 32 42
f 15 42 50
f 15 50 51
f 15 51 46
f 15 46 36
f 15 36 24
f 15 24 16
f 15 18 23
f 15 23 22
f 16 24 25
f 16 25 26
f 16 26 27
f 16 27 17
f 19 29 28
f 20 30 21
f 21 30 31
f 21 31 32
f 22 23 34
f 23 35 34
f 24 36 37
f 24 37 38
f 24 38 25
f 25 38 26
f 26 38 39
f 26 39 27
f 28 29 40
f 28 40 45
f 28 45 35
f 29 33 40
f 30 41 31
f 31 41 32
f 32 41 42
f 33 43 40
f 34 35 44
f 35 45 44
f 36 46 37
f 37 46 38
f 38 47 39
f 38 46 47
f 40 43 48
f 40 48 45
f 41 49 42
f 42 49 50
f 44 45 48
f 46 51 52
f 46 52 47
f 49 53 50
f 50 53 54
f 50 54 52
f 50 52 51

