# https://github.com/mikedh/trimesh
v -0.28136883 1.60743872 0.03426156
v -0.55846385 1.60743872 0.03426156
v -0.28136883 1.59044886 0.03426156
v -0.28136883 1.62678012 -0.30817595
v -0.55846385 1.59044886 0.03426156
v -0.55846385 1.62678012 -0.30817595
v -0.28136883 1.57104198 -0.30770370
v -0.28136883 1.62653460 -0.31188187
v -0.55846385 1.62647458 -0.31279033
v -0.55846385 1.57104198 -0.30770370
v -0.28136883 1.57104198 -0.32656037
v -0.28136883 1.62561800 -0.32557941
v -0.55846385 1.62561800 -0.32557941
v -0.55846385 1.57104198 -0.32656037
v -0.28136883 1.59527739 -0.33546187
v -0.28136883 1.62406305 -0.32772297
v -0.55846385 1.61827971 -0.33567998
v -0.55846385 1.59527739 -0.33546187
v -0.28136883 1.60618386 -0.33691529
v -0.28136883 1.61827971 -0.33567998
v -0.55846385 1.61508252 -0.33600703
v -0.55846385 1.60618386 -0.33691529
f 1 2 5
f 1 5 3
f 1 3 7
f 1 7 11
f 1 11 15
f 1 15 19
f 1 19 20
f 1 20 16
f 1 16 12
f 1 12 8
f 1 8 4
f 1 4 6
f 1 6 2
f 2 6 9
f 2 9 13
f 2 13 17
f 2 17 21
f 2 21 22
f 2 22 18
f 2 18 14
f 2 14 10
f 2 10 5
f 3 5 10
f 3 10 7
f 4 8 9
f 4 9 6
f 7 10 14
f 7 14 11
f 8 12 9
f 9 12 13
f 11 14 18
f 11 18 15
f 12 16 13
f 13 16 17
f 15 18 22
f 15 22 19
f 16 20 17
f 17 20 21
f 19 22 21
f 19 21 20

