# https://github.com/mikedh/trimesh
v -0.55846385 1.59044373 0.03426156
v -0.28136883 1.59044373 0.03426156
v -0.55846385 1.59044373 0.03929682
v -0.55846385 1.60744594 0.03426156
v -0.28136883 1.59044373 0.03929682
v -0.28136883 1.60744594 0.03426156
v -0.55846385 1.59098066 0.05666881
v -0.55846385 2.49227557 0.05543122
v -0.28136883 1.59098066 0.05666881
v -0.28136883 2.49227557 0.05543122
v -0.28136883 1.59169654 0.05950003
v -0.55846385 1.59187550 0.06019515
v -0.55846385 2.50462451 0.06043252
v -0.28136883 2.50462451 0.06043252
v -0.28136883 1.59447055 0.07001692
v -0.55846385 1.59447055 0.07001692
v -0.55846385 2.50462451 0.06861550
v -0.28136883 2.50462451 0.06861550
v -0.28136883 1.60055559 0.07870281
v -0.55846385 1.60055559 0.07870281
v -0.55846385 2.49227557 0.07193265
v -0.28136883 2.49227557 0.07193265
v -0.28136883 1.60923563 0.08736053
v -0.55846385 1.60923563 0.08736053
v -0.55846385 2.28377503 0.09198879
v -0.28136883 2.28377503 0.09198879
v -0.28136883 1.61227812 0.08834376
v -0.55846385 1.62364273 0.09198879
v -0.28136883 1.62364273 0.09198879
f 1 2 5
f 1 5 3
f 1 3 7
f 1 7 12
f 1 12 16
f 1 16 20
f 1 20 24
f 1 24 28
f 1 28 25
f 1 25 21
f 1 21 17
f 1 17 13
f 1 13 8
f 1 8 4
f 1 4 6
f 1 6 2
f 2 6 10
f 2 10 14
f 2 14 18
f 2 18 22
f 2 22 26
f 2 26 29
f 2 29 27
f 2 27 23
f 2 23 19
f 2 19 15
f 2 15 11
f 2 11 9
f 2 9 5
f 3 5 9
f 3 9 7
f 4 8 10
f 4 10 6
f 7 9 11
f 7 11 12
f 8 13 14
f 8 14 10
f 11 15 12
f 12 15 16
f 13 17 18
f 13 18 14
f 15 19 20
f 15 20 16
f 17 21 22
f 17 22 18
f 19 23 24
f 19 24 20
f 21 25 26
f 21 26 22
f 23 27 24
f 24 27 28
f 25 28 29
f 25 29 26
f 27 29 28

