# https://github.com/mikedh/trimesh
v -2.56246301 -0.00455949 2.26858254
v -2.54380362 -0.00476807 2.26801019
v -2.56246301 -0.00455949 2.27697891
v -2.56246301 -0.00358600 2.26823032
v -2.46041973 0.00434087 2.21968233
v -2.45378228 -0.00379457 2.21968233
v -2.54380362 -0.00476807 2.27687198
v -2.44836067 -0.00379457 2.21968233
v -2.52643459 -0.00469858 2.26690325
v -2.56246301 0.00677452 2.28219912
v -2.56246301 0.00767852 2.26426171
v -2.46206981 0.00760903 2.21968233
v -2.52643459 -0.00469858 2.27594745
v -2.54380362 0.00767852 2.28240040
v -2.56118513 0.00767852 2.28261423
v -2.44266612 -0.00365559 2.21968233
v -2.44417970 -0.00379457 2.22497172
v -2.56246301 0.00767852 2.28260165
v -2.56246301 0.00899969 2.26418623
v -2.56246301 0.02506200 2.26333717
v -2.46338491 0.02506200 2.21968233
v -2.46056865 -0.00372508 2.24157578
v -2.47875651 -0.00358600 2.25745656
v -2.50905314 -0.00289067 2.27368326
v -2.52643459 0.00767852 2.28022424
v -2.54380362 0.02506200 2.28305448
v -2.56118513 0.02506200 2.28325575
v -2.43755463 0.00322829 2.21968233
v -2.43591697 0.00767852 2.21968233
v -2.44199616 0.00767852 2.22760070
v -2.44921673 0.00767852 2.23629267
v -2.56246301 0.02506200 2.28324317
v -2.56246301 0.70552312 2.25853834
v -2.47383112 0.70552312 2.21968233
v -2.45790122 0.00767852 2.24396576
v -2.50003362 -0.00122184 2.27216121
v -2.46790086 0.00767852 2.25265144
v -2.47659778 0.00767852 2.25892199
v -2.50905314 0.00767852 2.27541914
v -2.52643459 0.02506200 2.28054500
v -2.52643459 0.04244558 2.28055758
v -2.54380362 0.04244558 2.28306077
v -2.56118513 0.70552312 2.28393500
v -2.43573087 0.02506200 2.21968233
v -2.44184724 0.02506200 2.22768876
v -2.44908023 0.02506200 2.23637444
v -2.45776477 0.02506200 2.24419218
v -2.56246301 0.70531449 2.28389099
v -2.56246301 0.70552312 2.27540027
v -2.43586737 0.70552312 2.21968233
v -2.49116297 0.00767852 2.26760767
v -2.49983509 0.00767852 2.27226185
v -2.46786363 0.02506200 2.25287786
v -2.47654817 0.02506200 2.25895974
v -2.50905314 0.02506200 2.27545686
v -2.52643459 0.68528864 2.28055758
v -2.54380362 0.70267222 2.28328719
v -2.54380362 0.70552312 2.28327460
v -2.43573087 0.70267222 2.21968233
v -2.44184724 0.68528864 2.22768876
v -2.44908023 0.70267222 2.23637444
v -2.45776477 0.70267222 2.24419218
v -2.44190927 0.70552312 2.22760699
v -2.49113817 0.02506200 2.26764542
v -2.49981028 0.02506200 2.27227443
v -2.46786363 0.70267222 2.25287786
v -2.47654817 0.70267222 2.25895974
v -2.50905314 0.70267222 2.27545686
v -2.52643459 0.70267222 2.28054500
v -2.52643459 0.70552312 2.28043181
v -2.44184724 0.70267222 2.22768247
v -2.44910503 0.70552312 2.23629896
v -2.45778957 0.70552312 2.24419218
v -2.46623840 0.70552312 2.25146274
v -2.49113817 0.70267222 2.26764542
v -2.49981028 0.70267222 2.27227443
v -2.46796289 0.70552312 2.25287786
v -2.47522069 0.70552312 2.25796599
v -2.47664744 0.70552312 2.25889056
v -2.48884299 0.70552312 2.26615482
v -2.49985994 0.70552312 2.27225556
v -2.50679514 0.70552312 2.27463925
v -2.50884223 0.70552312 2.27529334
v -2.52335777 0.70552312 2.27953870
v -2.49147315 0.70552312 2.26770831
f 1 2 7
f 1 7 3
f 1 3 10
f 1 10 18
f 1 18 32
f 1 32 48
f 1 48 49
f 1 49 33
f 1 33 20
f 1 20 19
f 1 19 11
f 1 11 4
f 1 4 5
f 1 5 6
f 1 6 2
f 2 6 8
f 2 8 9
f 2 9 13
f 2 13 7
f 3 7 10
f 4 11 5
f 5 11 12
f 5 12 21
f 5 21 34
f 5 34 50
f 5 50 59
f 5 59 44
f 5 44 29
f 5 29 28
f 5 28 16
f 5 16 8
f 5 8 6
f 7 13 14
f 7 14 15
f 7 15 10
f 8 16 17
f 8 17 9
f 9 17 13
f 10 15 18
f 11 19 12
f 12 19 20
f 12 20 21
f 13 17 22
f 13 22 23
f 13 23 24
f 13 24 25
f 13 25 14
f 14 25 26
f 14 26 15
f 15 26 27
f 15 27 32
f 15 32 18
f 16 28 17
f 17 28 29
f 17 29 30
f 17 30 31
f 17 31 22
f 20 33 21
f 21 33 34
f 22 31 35
f 22 35 23
f 23 36 24
f 23 35 37
f 23 37 38
f 23 38 36
f 24 36 25
f 25 36 39
f 25 39 40
f 25 40 26
f 26 40 41
f 26 41 42
f 26 42 43
f 26 43 27
f 27 43 32
f 29 44 45
f 29 45 30
f 30 45 31
f 31 45 46
f 31 46 47
f 31 47 35
f 32 43 48
f 33 49 43
f 33 43 58
f 33 58 70
f 33 70 84
f 33 84 83
f 33 83 82
f 33 82 81
f 33 81 85
f 33 85 80
f 33 80 79
f 33 79 78
f 33 78 77
f 33 77 74
f 33 74 73
f 33 73 72
f 33 72 63
f 33 63 50
f 33 50 34
f 35 47 37
f 36 38 51
f 36 51 52
f 36 52 39
f 37 47 53
f 37 53 38
f 38 53 54
f 38 54 51
f 39 52 55
f 39 55 40
f 40 55 41
f 41 55 68
f 41 68 56
f 41 56 57
f 41 57 42
f 42 57 43
f 43 57 58
f 43 49 48
f 44 59 60
f 44 60 45
f 45 60 61
f 45 61 46
f 46 61 62
f 46 62 47
f 47 62 66
f 47 66 53
f 50 63 59
f 51 54 64
f 51 64 52
f 52 64 65
f 52 65 55
f 53 66 67
f 53 67 54
f 54 67 75
f 54 75 64
f 55 65 76
f 55 76 68
f 56 68 69
f 56 69 57
f 57 69 58
f 58 69 70
f 59 63 71
f 59 71 60
f 60 71 61
f 61 71 72
f 61 72 73
f 61 73 62
f 62 73 74
f 62 74 66
f 63 72 71
f 64 75 76
f 64 76 65
f 66 74 77
f 66 77 78
f 66 78 67
f 67 78 79
f 67 79 80
f 67 80 75
f 68 76 81
f 68 81 82
f 68 82 83
f 68 83 69
f 69 83 84
f 69 84 70
f 75 80 85
f 75 85 81
f 75 81 76

