# https://github.com/mikedh/trimesh
v -3.51925164 0.56860234 1.65432101
v -3.51968451 0.58105867 1.65432101
v -3.53565005 0.56860234 1.65432101
v -3.52014757 0.56860234 1.59814074
v -3.52078175 0.58105867 1.58568938
v -3.52258368 0.59843749 1.58568938
v -3.51977511 0.58192042 1.65432101
v -3.62191025 0.61931556 1.65432101
v -3.62209143 0.61931556 1.65415389
v -3.62208136 0.56860886 1.54991118
v -3.53651576 0.56860234 1.58449560
v -3.52034890 0.56860234 1.58568938
v -3.52055023 0.56935307 1.58448364
v -3.52299640 0.56860886 1.56794949
v -3.52096296 0.58100642 1.58448364
v -3.52106362 0.58254714 1.58448364
v -3.52468757 0.60817796 1.58448364
v -3.52465738 0.60823673 1.58568938
v -3.52154682 0.59843749 1.65432101
v -3.52271453 0.59843749 1.58448364
v -3.52497949 0.60781238 1.57484968
v -3.62209143 0.63500350 1.65432101
v -3.62209143 0.61886511 1.58449560
v -3.62208136 0.56860886 1.53237422
v -3.52053009 0.56860234 1.58449560
v -3.52402319 0.56860886 1.56406963
v -3.52540229 0.57396875 1.55946156
v -3.52361046 0.58028179 1.56712579
v -3.52411378 0.59843749 1.57173386
v -3.53421054 0.61672378 1.58568938
v -3.53410985 0.61721990 1.62041706
v -3.53397900 0.61737007 1.63778686
v -3.53337499 0.61708283 1.65432101
v -3.52440572 0.60853049 1.62041706
v -3.52166760 0.59894671 1.65432101
v -3.52683176 0.59843749 1.56304295
v -3.53843848 0.61120720 1.55547426
v -3.53327432 0.61335506 1.56876127
v -3.54461934 0.62306944 1.56830761
v -3.54317980 0.62419885 1.58448364
v -3.54308921 0.62429025 1.58568938
v -3.62105458 0.63499697 1.65432101
v -3.62208136 0.63529078 1.56830761
v -3.62209143 0.63493167 1.58449560
v -3.62208136 0.58208364 1.53237422
v -3.62106465 0.56860886 1.53237422
v -3.60860226 0.56860886 1.53267269
v -3.60367972 0.56860886 1.53281592
v -3.59122740 0.56860886 1.53395004
v -3.58631494 0.56860886 1.53443948
v -3.56895015 0.56860886 1.53673161
v -3.55371948 0.56860886 1.54006232
v -3.54749836 0.56860886 1.54246184
v -3.54503207 0.56860886 1.54341690
v -3.53737141 0.56860886 1.54948139
v -3.53376760 0.56860886 1.55235844
v -3.52537210 0.56860886 1.55941382
v -3.53271060 0.58028179 1.55361192
v -3.53550910 0.59843749 1.55289567
v -3.52592576 0.58554370 1.56053598
v -3.53593190 0.61850601 1.60366804
v -3.54286774 0.62450571 1.60988773
v -3.53385819 0.61750066 1.65432101
v -3.52416411 0.60881778 1.65432101
v -3.52428492 0.60868066 1.63778686
v -3.55658845 0.62667967 1.55623830
v -3.54687423 0.59843749 1.54420482
v -3.55783671 0.60918336 1.54137546
v -3.55142430 0.61599257 1.55005440
v -3.55329668 0.62825958 1.56830761
v -3.54378381 0.62456448 1.58449560
v -3.55177665 0.62876228 1.58568938
v -3.54296840 0.62440779 1.59829593
v -3.62019891 0.63498392 1.65432101
v -3.62106465 0.63527768 1.56830761
v -3.62208136 0.63214405 1.55093780
v -3.62208136 0.62655565 1.54050402
v -3.62208136 0.61580325 1.53557361
v -3.62208136 0.59946246 1.53257715
v -3.62208136 0.59843749 1.53239809
v -3.62106465 0.59843749 1.53241005
v -3.60367972 0.58106519 1.53289949
v -3.58631494 0.58106519 1.53458277
v -3.56895015 0.58106519 1.53688680
v -3.55405169 0.58106519 1.54014584
v -3.54536425 0.58106519 1.54353626
v -3.54266641 0.62467545 1.63778686
v -3.53429106 0.61786624 1.65432101
v -3.56895015 0.62085628 1.54456294
v -3.56895015 0.62825306 1.55325380
v -3.56895015 0.63279686 1.56830761
v -3.55556165 0.59843749 1.54058760
v -3.58083875 0.62337630 1.54293937
v -3.56895015 0.59843749 1.53778216
v -3.56895015 0.61217340 1.54036074
v -3.56896022 0.63359337 1.58568938
v -3.55158537 0.62917358 1.65432101
v -3.55114245 0.62895812 1.65432101
v -3.54254563 0.62477337 1.65432101
v -3.56895015 0.63354112 1.58448364
v -3.60367972 0.63470974 1.65432101
v -3.60367972 0.63478808 1.56830761
v -3.62106465 0.63212443 1.55093780
v -3.58630487 0.63431801 1.65432101
v -3.62106465 0.62653608 1.54051593
v -3.62106465 0.61580325 1.53559748
v -3.60367972 0.59843749 1.53342477
v -3.58631494 0.59843749 1.53546616
v -3.58650622 0.62837055 1.54961271
v -3.60367972 0.63092971 1.55093780
v -3.59241525 0.62487129 1.54192465
v -3.58631494 0.63395243 1.56830761
v -3.58650622 0.61686737 1.53960866
v -3.60367972 0.61580325 1.53701812
v -3.58630487 0.63427886 1.58568938
v -3.56896022 0.63367167 1.62041706
v -3.56896022 0.63374349 1.65432101
v -3.58630487 0.63431148 1.63778686
v -3.58630487 0.63429191 1.60304725
v -3.58544922 0.63429191 1.65432101
v -3.60367972 0.62570695 1.54122027
f 1 2 7
f 1 7 19
f 1 19 35
f 1 35 64
f 1 64 33
f 1 33 63
f 1 63 88
f 1 88 99
f 1 99 98
f 1 98 97
f 1 97 117
f 1 117 120
f 1 120 104
f 1 104 101
f 1 101 74
f 1 74 42
f 1 42 22
f 1 22 8
f 1 8 3
f 1 3 11
f 1 11 25
f 1 25 12
f 1 12 4
f 1 4 2
f 2 4 5
f 2 5 6
f 2 6 7
f 3 8 9
f 3 9 10
f 3 10 11
f 4 12 5
f 5 12 13
f 5 13 14
f 5 14 15
f 5 15 16
f 5 16 6
f 6 17 18
f 6 18 19
f 6 19 7
f 6 16 20
f 6 20 21
f 6 21 17
f 8 22 9
f 9 22 44
f 9 44 23
f 9 23 10
f 10 24 11
f 10 23 24
f 11 24 46
f 11 46 25
f 12 25 14
f 12 14 13
f 14 26 27
f 14 27 28
f 14 28 15
f 14 25 26
f 15 28 16
f 16 28 29
f 16 29 20
f 17 21 18
f 18 30 31
f 18 31 32
f 18 32 33
f 18 33 34
f 18 34 35
f 18 35 19
f 18 21 30
f 20 29 21
f 21 29 36
f 21 36 37
f 21 37 38
f 21 38 39
f 21 39 40
f 21 40 41
f 21 41 30
f 22 42 43
f 22 43 44
f 23 44 45
f 23 45 24
f 24 45 46
f 25 46 47
f 25 47 48
f 25 48 49
f 25 49 50
f 25 50 51
f 25 51 52
f 25 52 53
f 25 53 54
f 25 54 55
f 25 55 56
f 25 56 57
f 25 57 26
f 26 57 27
f 27 57 56
f 27 56 58
f 27 58 59
f 27 59 60
f 27 60 28
f 28 60 29
f 29 60 36
f 30 41 61
f 30 61 31
f 31 61 62
f 31 62 32
f 32 62 63
f 32 63 33
f 33 64 65
f 33 65 34
f 34 65 64
f 34 64 35
f 36 60 59
f 36 59 37
f 37 66 39
f 37 39 38
f 37 59 67
f 37 67 68
f 37 68 69
f 37 69 66
f 39 66 70
f 39 70 71
f 39 71 40
f 40 71 41
f 41 71 72
f 41 72 73
f 41 73 61
f 42 74 75
f 42 75 43
f 43 75 76
f 43 76 44
f 44 76 77
f 44 77 78
f 44 78 79
f 44 79 80
f 44 80 45
f 45 80 81
f 45 81 46
f 46 81 47
f 47 81 48
f 48 81 82
f 48 82 49
f 49 83 50
f 49 82 83
f 50 83 51
f 51 83 84
f 51 84 52
f 52 85 53
f 52 84 85
f 53 85 54
f 54 85 86
f 54 86 55
f 55 86 56
f 56 86 58
f 58 86 59
f 59 86 67
f 61 73 62
f 62 87 88
f 62 88 63
f 62 73 72
f 62 72 87
f 66 69 89
f 66 89 90
f 66 90 91
f 66 91 70
f 67 86 92
f 67 92 68
f 68 93 89
f 68 89 69
f 68 92 94
f 68 94 95
f 68 95 93
f 70 91 72
f 70 72 71
f 72 96 97
f 72 97 98
f 72 98 99
f 72 99 87
f 72 91 100
f 72 100 96
f 74 101 75
f 75 102 103
f 75 103 76
f 75 101 104
f 75 104 102
f 76 103 77
f 77 103 105
f 77 105 78
f 78 105 106
f 78 106 81
f 78 81 79
f 79 81 80
f 81 106 107
f 81 107 82
f 82 107 83
f 83 108 84
f 83 107 108
f 84 108 94
f 84 94 92
f 84 92 85
f 85 92 86
f 87 99 88
f 89 93 90
f 90 109 110
f 90 110 91
f 90 93 111
f 90 111 109
f 91 110 103
f 91 103 112
f 91 112 100
f 93 95 113
f 93 113 111
f 94 108 95
f 95 108 114
f 95 114 113
f 96 115 116
f 96 116 97
f 96 100 112
f 96 112 102
f 96 102 115
f 97 116 117
f 102 112 103
f 102 104 118
f 102 118 119
f 102 119 115
f 103 110 105
f 104 120 118
f 105 110 121
f 105 121 106
f 106 121 114
f 106 114 107
f 107 114 108
f 109 111 121
f 109 121 110
f 111 113 114
f 111 114 121
f 115 119 117
f 115 117 116
f 117 119 118
f 117 118 120

