# https://github.com/mikedh/trimesh
v -6.67171077 2.41674222 1.49462188
v -6.67171077 2.47493942 1.49462188
v -6.65259706 2.41674222 1.49462188
v -6.67171430 2.41674222 3.16061528
v -6.67169027 2.48813333 1.49462188
v -6.67171430 2.42281633 3.16661369
v -6.67171430 2.45757065 3.32309398
v -6.67171430 2.47493942 3.40994053
v -6.63651217 2.45671718 1.49462188
v -6.63651217 2.41693464 3.70229795
v -6.63651217 2.41674222 3.75445801
v -6.67171430 2.41674222 4.15895958
v -6.67168323 2.49230819 1.49462188
v -6.67171430 2.47493942 4.15895958
v -6.63651217 2.47956603 1.49462188
v -6.63651217 2.41674222 3.75810925
v -6.65260058 2.41674222 4.15895958
v -6.67102850 2.50192129 2.43715480
v -6.67102850 2.50191290 1.49462188
v -6.67168323 2.49230819 4.15895958
v -6.67161777 2.49328708 4.15895958
v -6.65281765 2.50128541 1.49462188
v -6.63651217 2.48120586 3.72264034
v -6.63651217 2.45671718 4.15895958
v -6.66171460 2.50220578 1.49462188
v -6.66878531 2.50198819 1.49462188
v -6.67102850 2.50192129 4.15895958
v -6.65281765 2.50128541 4.15895958
v -6.63651217 2.48117240 3.73750587
v -6.63651217 2.47716490 4.15895958
v -6.66171460 2.50220578 4.15895958
v -6.63816276 2.48009317 4.15895958
v -6.63651217 2.47956603 4.15869860
v -6.63651217 2.48116402 3.74011402
f 1 2 5
f 1 5 13
f 1 13 19
f 1 19 26
f 1 26 25
f 1 25 22
f 1 22 15
f 1 15 9
f 1 9 3
f 1 3 11
f 1 11 16
f 1 16 17
f 1 17 12
f 1 12 4
f 1 4 2
f 2 4 6
f 2 6 7
f 2 7 8
f 2 8 5
f 3 9 10
f 3 10 11
f 4 12 14
f 4 14 8
f 4 8 7
f 4 7 6
f 5 8 13
f 8 14 20
f 8 20 13
f 9 15 23
f 9 23 29
f 9 29 34
f 9 34 33
f 9 33 30
f 9 30 24
f 9 24 16
f 9 16 11
f 9 11 10
f 12 17 24
f 12 24 30
f 12 30 32
f 12 32 28
f 12 28 31
f 12 31 27
f 12 27 21
f 12 21 20
f 12 20 14
f 13 18 19
f 13 20 21
f 13 21 18
f 15 22 23
f 16 24 17
f 18 25 26
f 18 26 19
f 18 21 27
f 18 27 31
f 18 31 25
f 22 25 31
f 22 31 28
f 22 28 23
f 23 28 29
f 28 32 33
f 28 33 34
f 28 34 29
f 30 33 32

