# https://github.com/mikedh/trimesh
v -5.37593589 0.56608232 1.10086469
v -5.39332734 0.56478752 1.10086469
v -5.37593589 0.56366768 1.10227036
v -5.35854444 0.56366768 1.10175699
v -5.35854444 0.56518997 1.10086469
v -5.39904510 0.56366768 1.10086469
v -5.39332734 0.56366768 1.10150554
v -5.37593589 0.55441152 1.10761435
v -5.35854444 0.55388656 1.10737315
v -5.34123232 0.56366768 1.10107823
v -5.35278692 0.56480502 1.10086469
v -5.39332734 0.55350161 1.10718362
v -5.41071880 0.56118303 1.10086469
v -5.39332734 0.54480537 1.11092538
v -5.37593589 0.54573273 1.11122862
v -5.35854444 0.54519031 1.11098742
v -5.35278692 0.54494539 1.11087712
v -5.35278692 0.55364163 1.10725943
v -5.34123232 0.55311672 1.10702859
v -5.33825424 0.56366768 1.10086469
v -5.34079549 0.56398262 1.10086469
v -5.34123232 0.56401762 1.10086469
v -5.42807069 0.55698363 1.10086469
v -5.41071880 0.55122699 1.10612241
v -5.41071880 0.54253070 1.11002614
v -5.39332734 0.52890016 1.11656556
v -5.41071880 0.52890016 1.11508750
v -5.37593589 0.52890016 1.11710306
v -5.35854444 0.52890016 1.11666208
v -5.35278692 0.52891766 1.11646562
v -5.34123232 0.52891766 1.11607291
v -5.34123232 0.54443792 1.11064969
v -5.32384087 0.54319563 1.11019495
v -5.32384087 0.55185686 1.10641187
v -5.32634235 0.56214540 1.10086469
v -5.44574010 0.55234682 1.10086469
v -5.44570033 0.54510285 1.10447554
v -5.45169605 0.53680906 1.10756950
v -5.44010168 0.53850631 1.10826545
v -5.42807069 0.52890016 1.11324759
v -5.39332734 0.51154268 1.12163035
v -5.42807069 0.51154268 1.11914968
v -5.41071880 0.51154268 1.12050026
v -5.44542237 0.51154268 1.11743384
v -5.37593589 0.51154268 1.12214371
v -5.35854444 0.51154268 1.12185435
v -5.35278692 0.51154268 1.12170968
v -5.34123232 0.51154268 1.12141328
v -5.32384087 0.51154268 1.12087578
v -5.32384087 0.52891766 1.11530457
v -5.30648898 0.54058851 1.10916822
v -5.32384087 0.56179546 1.10086469
v -5.30648898 0.54926725 1.10505436
v -5.45844633 0.54597771 1.10086469
v -5.44570033 0.53017751 1.11070137
v -5.46313155 0.54324813 1.10086469
v -5.55453625 0.40734517 1.13605988
v -5.39332734 0.49899697 1.12467274
v -5.41071880 0.49712475 1.12412488
v -5.44542237 0.49416769 1.12260198
v -5.37593589 0.49932946 1.12495526
v -5.35854444 0.49791214 1.12486909
v -5.32384087 0.49500754 1.12445225
v -5.14889341 0.40732767 1.13605988
v -5.30648898 0.51154268 1.11916004
v -5.30648898 0.52891766 1.11334059
v -5.29552987 0.53843630 1.10824484
v -5.30581395 0.55656368 1.10086469
v -5.27587514 0.54601271 1.10086469
v -5.29950071 0.55441152 1.10086469
v -5.47524209 0.53043994 1.10086469
v -5.48167463 0.52354597 1.10086469
v -5.49005273 0.51255755 1.10086469
v -5.49795423 0.50204154 1.10086469
v -5.55453625 0.41248944 1.10086469
v -5.55453625 0.38932276 1.13605988
v -5.55179658 0.40769516 1.13605988
v -5.42934121 0.49315282 1.12388368
v -5.54969196 0.40788759 1.13605988
v -5.37414900 0.41628639 1.13605988
v -5.35854444 0.41665384 1.13605988
v -5.35278692 0.41658383 1.13605988
v -5.34023956 0.41640886 1.13605988
v -5.16747605 0.40848251 1.13605988
v -5.15012437 0.40750264 1.13605988
v -5.14889341 0.39037263 1.13605988
v -5.14889341 0.40654033 1.11655521
v -5.21921378 0.50050175 1.10086469
v -5.22421694 0.50659088 1.10086469
v -5.23267437 0.51584704 1.10086469
v -5.23628771 0.51959149 1.10086469
v -5.25443351 0.53446438 1.10086469
v -5.27170608 0.54436797 1.10086469
v -5.27170608 0.53309956 1.10615689
v -5.28397527 0.53582919 1.10724566
v -5.27325456 0.54498034 1.10086469
v -5.55453625 0.38732807 1.10086469
v -5.14901251 0.38925280 1.13605988
v -5.14889341 0.38920029 1.13511248
v -5.14889341 0.40573543 1.10086469
v -5.14889341 0.38832544 1.10086469
v -5.14889341 0.38864038 1.11655521
f 1 2 3
f 1 3 4
f 1 4 5
f 1 5 11
f 1 11 22
f 1 22 21
f 1 21 20
f 1 20 35
f 1 35 52
f 1 52 68
f 1 68 70
f 1 70 69
f 1 69 96
f 1 96 93
f 1 93 92
f 1 92 91
f 1 91 90
f 1 90 89
f 1 89 88
f 1 88 100
f 1 100 101
f 1 101 97
f 1 97 75
f 1 75 74
f 1 74 73
f 1 73 72
f 1 72 71
f 1 71 56
f 1 56 54
f 1 54 36
f 1 36 23
f 1 23 13
f 1 13 6
f 1 6 2
f 2 6 7
f 2 7 8
f 2 8 3
f 3 8 4
f 4 8 9
f 4 9 10
f 4 10 11
f 4 11 5
f 6 12 7
f 6 13 12
f 7 12 8
f 8 12 14
f 8 14 15
f 8 15 9
f 9 15 16
f 9 16 17
f 9 17 18
f 9 18 10
f 10 18 19
f 10 19 20
f 10 20 21
f 10 21 22
f 10 22 11
f 12 13 23
f 12 23 24
f 12 24 25
f 12 25 14
f 14 26 15
f 14 25 27
f 14 27 26
f 15 26 28
f 15 28 16
f 16 28 29
f 16 29 30
f 16 30 17
f 17 30 31
f 17 31 32
f 17 32 18
f 18 32 19
f 19 32 33
f 19 33 34
f 19 34 35
f 19 35 20
f 23 36 24
f 24 36 37
f 24 37 38
f 24 38 39
f 24 39 25
f 25 40 27
f 25 39 40
f 26 41 28
f 26 27 42
f 26 42 43
f 26 43 41
f 27 40 44
f 27 44 42
f 28 41 45
f 28 45 46
f 28 46 47
f 28 47 29
f 29 47 48
f 29 48 49
f 29 49 30
f 30 49 31
f 31 49 50
f 31 50 32
f 32 50 33
f 33 50 51
f 33 51 34
f 34 52 35
f 34 51 53
f 34 53 52
f 36 54 38
f 36 38 37
f 38 55 40
f 38 40 39
f 38 54 56
f 38 56 57
f 38 57 44
f 38 44 55
f 40 55 44
f 41 58 45
f 41 43 59
f 41 59 58
f 42 44 60
f 42 60 43
f 43 60 59
f 44 57 60
f 45 58 61
f 45 61 46
f 46 61 62
f 46 62 47
f 47 62 48
f 48 62 63
f 48 63 49
f 49 63 64
f 49 64 65
f 49 65 50
f 50 65 66
f 50 66 51
f 51 66 64
f 51 64 67
f 51 67 53
f 52 53 68
f 53 67 69
f 53 69 70
f 53 70 68
f 56 71 57
f 57 71 72
f 57 72 73
f 57 73 74
f 57 74 75
f 57 75 97
f 57 97 76
f 57 76 98
f 57 98 86
f 57 86 64
f 57 64 85
f 57 85 84
f 57 84 83
f 57 83 82
f 57 82 81
f 57 81 80
f 57 80 79
f 57 79 77
f 57 77 58
f 57 58 59
f 57 59 78
f 57 78 60
f 58 77 61
f 59 60 78
f 61 77 79
f 61 79 80
f 61 80 81
f 61 81 82
f 61 82 83
f 61 83 84
f 61 84 85
f 61 85 62
f 62 85 64
f 62 64 63
f 64 86 99
f 64 99 102
f 64 102 101
f 64 101 100
f 64 100 87
f 64 87 88
f 64 88 89
f 64 89 90
f 64 90 91
f 64 91 92
f 64 92 93
f 64 93 94
f 64 94 95
f 64 95 67
f 64 66 65
f 67 95 93
f 67 93 96
f 67 96 69
f 76 97 98
f 86 98 99
f 87 100 88
f 93 95 94
f 97 101 102
f 97 102 99
f 97 99 98

