# https://github.com/mikedh/trimesh
v -1.67389996 0.40032101 1.67255027
v -1.67389996 0.39908467 1.66015587
v -1.67389996 0.39984618 1.68321699
v -1.55343591 0.39984618 1.68318274
v -1.48279263 0.39987305 1.68247493
v -1.48279263 0.39992235 1.67255027
v -1.67389996 0.39125422 1.65406332
v -1.48279263 0.39984172 1.67175873
v -1.48279263 0.39869491 1.66359602
v -1.48279263 0.39818424 1.66316981
v -1.67389996 0.38992824 1.68816410
v -1.64029954 0.38992824 1.68827445
v -1.62291938 0.38992824 1.68828206
v -1.60555786 0.38992824 1.68828587
v -1.57081617 0.38992824 1.68829348
v -1.48279263 0.38992824 1.68831251
v -1.48279263 0.39984172 1.68318274
v -1.67389996 0.38915773 1.65385402
v -1.48279263 0.38999095 1.66150300
v -1.67389996 0.37255611 1.69108670
v -1.64029954 0.37255611 1.69136067
v -1.60555786 0.37255611 1.69138351
v -1.50131396 0.37255611 1.69143299
v -1.48279263 0.37371633 1.69110953
v -1.67389996 0.37255611 1.65255637
v -1.48279263 0.37255611 1.65980577
v -1.67389996 0.35848097 1.68614339
v -1.64029954 0.35828389 1.68626516
v -1.53607449 0.35827043 1.68629941
v -1.50131396 0.35827043 1.68631083
v -1.48279263 0.37255611 1.69130361
v -1.62291938 0.35828389 1.68627277
v -1.58817759 0.35827944 1.68628419
v -1.67389996 0.35991450 1.65687937
v -1.48279263 0.36098069 1.66172372
v -1.67389996 0.35474947 1.67345979
v -1.48279263 0.35550652 1.67255027
v -1.48279263 0.35840485 1.68617765
v -1.48279263 0.35934107 1.68652394
v -1.67389996 0.35924258 1.65816941
v -1.67389996 0.35456129 1.67255027
f 1 2 7
f 1 7 18
f 1 18 25
f 1 25 34
f 1 34 40
f 1 40 41
f 1 41 36
f 1 36 27
f 1 27 20
f 1 20 11
f 1 11 3
f 1 3 4
f 1 4 5
f 1 5 6
f 1 6 2
f 2 6 8
f 2 8 9
f 2 9 10
f 2 10 7
f 3 11 12
f 3 12 13
f 3 13 14
f 3 14 15
f 3 15 16
f 3 16 17
f 3 17 4
f 4 17 5
f 5 17 16
f 5 16 24
f 5 24 31
f 5 31 39
f 5 39 38
f 5 38 37
f 5 37 35
f 5 35 26
f 5 26 19
f 5 19 10
f 5 10 9
f 5 9 8
f 5 8 6
f 7 10 19
f 7 19 18
f 11 20 21
f 11 21 12
f 12 22 23
f 12 23 13
f 12 21 22
f 13 23 14
f 14 23 15
f 15 23 16
f 16 23 24
f 18 19 26
f 18 26 25
f 20 27 21
f 21 27 28
f 21 28 22
f 22 28 23
f 23 29 30
f 23 30 31
f 23 31 24
f 23 28 32
f 23 32 33
f 23 33 29
f 25 26 35
f 25 35 34
f 27 36 28
f 28 36 29
f 28 29 33
f 28 33 32
f 29 36 30
f 30 37 38
f 30 38 39
f 30 39 31
f 30 36 37
f 34 35 40
f 35 37 40
f 36 41 37
f 37 41 40

