# https://github.com/mikedh/trimesh
v -6.36762933 2.47493321 1.15123279
v -6.36768898 2.49230695 1.49462183
v -6.36762933 2.42430247 1.15123279
v -6.36762933 2.49230695 0.63795205
v -6.36840357 2.47493321 1.49462183
v -6.37141085 2.50486208 1.49462183
v -6.37123210 2.46628968 1.49462183
v -6.37212544 2.46356896 1.49462183
v -6.37132158 2.42430247 1.16582367
v -6.37138103 2.42430247 1.13379080
v -6.38373783 2.45326137 0.63795205
v -6.38168334 2.45406585 0.63795205
v -6.37138103 2.45974404 0.63795205
v -6.36810572 2.47493321 0.63795205
v -6.37135120 2.50486208 0.63795205
v -6.37989686 2.50486208 1.49462183
v -6.37492435 2.46286700 1.49462183
v -6.38373783 2.46066669 1.49462183
v -6.65245890 2.42430247 1.49462183
v -6.63968536 2.42430247 0.63795205
v -6.37989686 2.50486208 0.63795205
v -6.66168912 2.50220443 1.49462183
v -6.67169358 2.42430247 1.49462183
v -6.67178285 2.42430247 0.63795205
v -6.66168912 2.50220443 0.63795205
v -6.67100882 2.50191259 1.49462183
v -6.67103865 2.50191259 0.63795205
v -6.67169358 2.47493321 1.49462183
v -6.67178285 2.47493321 0.63795205
v -6.67166396 2.49231482 1.49462183
v -6.67142577 2.49668397 0.63795205
v -6.67172341 2.49231482 0.63795205
f 1 2 3
f 1 3 4
f 1 4 2
f 2 5 3
f 2 4 15
f 2 15 6
f 2 6 16
f 2 16 22
f 2 22 26
f 2 26 30
f 2 30 28
f 2 28 23
f 2 23 19
f 2 19 18
f 2 18 17
f 2 17 8
f 2 8 7
f 2 7 5
f 3 5 7
f 3 7 8
f 3 8 9
f 3 9 19
f 3 19 23
f 3 23 24
f 3 24 20
f 3 20 10
f 3 10 11
f 3 11 12
f 3 12 13
f 3 13 14
f 3 14 4
f 4 14 13
f 4 13 12
f 4 12 11
f 4 11 20
f 4 20 24
f 4 24 29
f 4 29 32
f 4 32 31
f 4 31 27
f 4 27 25
f 4 25 21
f 4 21 15
f 6 15 21
f 6 21 16
f 8 17 9
f 9 17 18
f 9 18 19
f 10 20 11
f 16 21 25
f 16 25 22
f 22 25 27
f 22 27 26
f 23 28 29
f 23 29 24
f 26 27 31
f 26 31 30
f 28 30 29
f 29 30 32
f 30 31 32

