# https://github.com/mikedh/trimesh
v -6.65247092 2.42430247 1.49462183
v -6.62398552 2.17267562 1.17429311
v -6.62631839 2.42430247 1.17429311
v -6.67170705 2.42430247 1.49462183
v -6.65259478 0.80857625 1.49462183
v -6.62398552 0.80857625 1.17429311
v -6.62398552 2.17267562 1.12490203
v -6.62631839 2.42430247 1.14645301
v -6.67177416 2.42430247 0.63795205
v -6.67671352 1.83200657 1.42921442
v -6.67671352 1.38995933 1.42929825
v -6.67171222 1.38995933 1.49462183
v -6.67171222 0.80857625 1.49462183
v -6.62398552 0.80857625 1.12490203
v -6.62631839 2.42414433 1.12481824
v -6.62398552 2.09818386 0.63811972
v -6.63971726 2.42430247 0.63795205
v -6.67177933 1.71054246 0.63811972
v -6.67671352 1.83200657 1.29018166
v -6.67177933 1.38995933 0.63795205
v -6.67671352 1.32827832 1.42929825
v -6.67177933 0.80857625 0.63795205
v -6.63971726 0.80857625 0.63795205
v -6.62398552 1.09626284 0.63795205
v -6.62398552 1.19289642 0.63795205
v -6.67671352 1.32827832 1.29018166
f 1 2 3
f 1 3 8
f 1 8 17
f 1 17 9
f 1 9 4
f 1 4 12
f 1 12 13
f 1 13 5
f 1 5 6
f 1 6 2
f 2 7 8
f 2 8 3
f 2 6 14
f 2 14 24
f 2 24 25
f 2 25 16
f 2 16 7
f 4 9 10
f 4 10 11
f 4 11 12
f 5 13 22
f 5 22 23
f 5 23 14
f 5 14 6
f 7 15 8
f 7 16 15
f 8 15 17
f 9 18 19
f 9 19 10
f 9 17 25
f 9 25 24
f 9 24 23
f 9 23 22
f 9 22 20
f 9 20 18
f 10 19 26
f 10 26 21
f 10 21 11
f 11 21 13
f 11 13 12
f 13 21 22
f 14 23 24
f 15 16 17
f 16 25 17
f 18 20 19
f 19 20 22
f 19 22 26
f 21 26 22

