# https://github.com/mikedh/trimesh
v -1.88875154 -0.00450233 2.26851574
v -1.77796169 -0.00359822 2.22093638
v -1.86618077 -0.00491969 2.26772493
v -1.88875154 -0.00450233 2.27698008
v -1.88875154 -0.00088588 2.26713798
v -1.78775426 0.00161787 2.22093638
v -1.78682043 0.00106153 2.22093638
v -1.76668236 -0.00345913 2.22093638
v -1.86618077 -0.00491969 2.27686269
v -1.88875154 0.00405214 2.28099599
v -1.88875154 0.00773828 2.26403027
v -1.79034677 0.01163300 2.22093638
v -1.76539227 -0.00081629 2.22093638
v -1.76775135 -0.00345913 2.22340153
v -1.78424024 -0.00366781 2.24073176
v -1.81407249 -0.00415466 2.25961895
v -1.84880723 -0.00457192 2.27565791
v -1.86618077 0.00773828 2.28221929
v -1.88355430 0.00773828 2.28271357
v -1.88875154 0.00773828 2.28267650
v -1.88875154 0.02505599 2.26301084
v -1.79082596 0.01580589 2.22093638
v -1.76329127 0.00773828 2.22093638
v -1.76627691 0.00773828 2.22520561
v -1.77361212 0.00773828 2.23389234
v -1.80237549 -0.00318096 2.25676455
v -1.78229894 0.00773828 2.24252348
v -1.79215292 0.00773828 2.25121022
v -1.83563580 -0.00297228 2.27368082
v -1.84880723 0.00773828 2.27952555
v -1.86618077 0.02505599 2.28271973
v -1.88355430 0.02505599 2.28344880
v -1.88875154 0.01990929 2.28318929
v -1.79142797 0.02505599 2.22093638
v -1.88875154 0.70538393 2.25828442
v -1.76324208 0.02505599 2.22093638
v -1.76625237 0.02505599 2.22524267
v -1.77356303 0.02505599 2.23392941
v -1.78224975 0.02505599 2.24257291
v -1.80083964 0.00773828 2.25786429
v -1.81407249 0.00773828 2.26493231
v -1.82467606 0.00773828 2.27037543
v -1.79211605 0.02505599 2.25125965
v -1.83335046 0.00773828 2.27454579
v -1.84880723 0.02505599 2.27972944
v -1.86618077 0.04244320 2.28272592
v -1.88355430 0.70552302 2.28404809
v -1.88875154 0.02505599 2.28339318
v -1.79925470 0.70552302 2.22093638
v -1.88875154 0.70552302 2.25925443
v -1.76324208 0.70267155 2.22093638
v -1.76625237 0.70267155 2.22524267
v -1.77356303 0.70267155 2.23392941
v -1.78224975 0.70267155 2.24257291
v -1.80080277 0.02505599 2.25788902
v -1.81407249 0.02505599 2.26524740
v -1.82463920 0.02505599 2.27066580
v -1.79211605 0.70267155 2.25125965
v -1.83331359 0.02505599 2.27456433
v -1.84880723 0.70267155 2.27972944
v -1.86618077 0.70267155 2.28292981
v -1.86618077 0.70552302 2.28291128
v -1.88875154 0.70552302 2.28396775
v -1.76335269 0.70552302 2.22093638
v -1.76327895 0.70364520 2.22093638
v -1.76631378 0.70552302 2.22516853
v -1.77243263 0.70552302 2.23243425
v -1.77364899 0.70552302 2.23385528
v -1.78091046 0.70552302 2.24108393
v -1.78233581 0.70552302 2.24249877
v -1.81407249 0.04244320 2.26525359
v -1.80080277 0.70267155 2.25788902
v -1.81407249 0.70267155 2.26540805
v -1.82463920 0.04244320 2.27067199
v -1.79059242 0.70552302 2.24976450
v -1.79221433 0.70552302 2.25118552
v -1.80090105 0.70552302 2.25782105
v -1.82463920 0.70267155 2.27082645
v -1.83331359 0.70267155 2.27456433
v -1.83342419 0.70552302 2.27452728
v -1.84638674 0.70552302 2.27884593
v -1.84880723 0.70552302 2.27961821
v -1.81407249 0.70552302 2.26535863
v -1.82474970 0.70552302 2.27083880
v -1.83201127 0.70552302 2.27396503
f 1 2 3
f 1 3 9
f 1 9 4
f 1 4 10
f 1 10 20
f 1 20 33
f 1 33 48
f 1 48 63
f 1 63 50
f 1 50 35
f 1 35 21
f 1 21 11
f 1 11 5
f 1 5 6
f 1 6 7
f 1 7 2
f 2 7 6
f 2 6 12
f 2 12 22
f 2 22 34
f 2 34 49
f 2 49 64
f 2 64 65
f 2 65 51
f 2 51 36
f 2 36 23
f 2 23 13
f 2 13 8
f 2 8 3
f 3 8 9
f 4 9 10
f 5 11 6
f 6 11 12
f 8 13 14
f 8 14 15
f 8 15 16
f 8 16 9
f 9 16 17
f 9 17 18
f 9 18 19
f 9 19 10
f 10 19 20
f 11 21 12
f 12 21 22
f 13 23 14
f 14 23 24
f 14 24 25
f 14 25 15
f 15 26 16
f 15 25 27
f 15 27 28
f 15 28 26
f 16 26 17
f 17 26 29
f 17 29 30
f 17 30 18
f 18 30 31
f 18 31 32
f 18 32 19
f 19 32 20
f 20 32 33
f 21 34 22
f 21 35 34
f 23 36 37
f 23 37 24
f 24 37 38
f 24 38 25
f 25 38 39
f 25 39 27
f 26 28 40
f 26 40 41
f 26 41 42
f 26 42 29
f 27 39 28
f 28 39 43
f 28 43 40
f 29 42 44
f 29 44 30
f 30 44 45
f 30 45 31
f 31 45 46
f 31 46 47
f 31 47 32
f 32 48 33
f 32 47 48
f 34 35 49
f 35 50 49
f 36 51 52
f 36 52 37
f 37 52 53
f 37 53 38
f 38 53 54
f 38 54 39
f 39 54 58
f 39 58 43
f 40 43 55
f 40 55 56
f 40 56 41
f 41 56 42
f 42 56 57
f 42 57 44
f 43 58 72
f 43 72 55
f 44 57 59
f 44 59 45
f 45 59 79
f 45 79 60
f 45 60 61
f 45 61 46
f 46 61 47
f 47 61 62
f 47 62 82
f 47 82 81
f 47 81 80
f 47 80 85
f 47 85 84
f 47 84 83
f 47 83 77
f 47 77 76
f 47 76 75
f 47 75 70
f 47 70 69
f 47 69 68
f 47 68 67
f 47 67 66
f 47 66 64
f 47 64 49
f 47 49 50
f 47 50 63
f 47 63 48
f 51 65 52
f 52 65 64
f 52 64 66
f 52 66 53
f 53 66 67
f 53 67 68
f 53 68 69
f 53 69 54
f 54 69 70
f 54 70 58
f 55 71 56
f 55 72 73
f 55 73 71
f 56 71 74
f 56 74 57
f 57 74 59
f 58 70 75
f 58 75 76
f 58 76 77
f 58 77 72
f 59 74 78
f 59 78 79
f 60 79 80
f 60 80 81
f 60 81 82
f 60 82 62
f 60 62 61
f 71 73 78
f 71 78 74
f 72 77 83
f 72 83 73
f 73 83 84
f 73 84 78
f 78 84 79
f 79 84 85
f 79 85 80

