# https://github.com/mikedh/trimesh
v -5.64087171 0.31576550 0.74176689
v -5.64802320 0.31563336 0.74176689
v -5.63997671 0.31464153 0.74176689
v -5.58448749 0.36604785 0.68034792
v -5.59074419 0.36604785 0.68222791
v -5.60183773 0.36604785 0.68554071
v -5.64382991 0.31394734 0.74176689
v -5.60623815 0.36604785 0.68294934
v -5.61316035 0.36604785 0.67783795
v -5.61316780 0.36604785 0.67189319
v -5.61316780 0.36604785 0.66561309
v -5.65144743 0.30773227 0.74175674
v -5.65493815 0.29328566 0.74175674
v -5.65692740 0.27576454 0.74175674
v -5.65490853 0.25867322 0.74175674
v -5.65094452 0.24382985 0.74175674
v -5.64839292 0.23834211 0.74175674
v -5.63944419 0.31394734 0.74176689
v -5.58483526 0.33778263 0.66481026
v -5.58211361 0.36604785 0.66567398
v -5.63300274 0.30545128 0.74175674
v -5.62809941 0.29741795 0.74175674
v -5.62722678 0.29553361 0.74175674
v -5.62647242 0.28564908 0.74175674
v -5.62653166 0.27963244 0.74175674
v -5.62666464 0.26792964 0.74175674
v -5.62738213 0.25685495 0.74175674
v -5.58970897 0.32042680 0.67738062
v -5.59033760 0.31394734 0.67667949
v -5.59140990 0.30303794 0.67551077
v -5.59256360 0.29133514 0.67418971
v -5.59282976 0.25649134 0.65714810
v -5.64016168 0.23764782 0.74175674
v -5.61087511 0.36604785 0.65988166
v -5.62875766 0.26452457 0.65450598
v -5.65715669 0.26826021 0.73428773
v -5.65720847 0.25090439 0.73428773
v -5.65247540 0.23384610 0.73511085
v -5.65072994 0.21615970 0.73006026
v -5.64777920 0.20366350 0.72728610
v -5.63455578 0.24429268 0.74175674
v -5.63190082 0.24759853 0.74175674
v -5.62946024 0.25106968 0.74175674
v -5.59282976 0.25649134 0.65550185
v -5.59039663 0.32042680 0.65323578
v -5.58996042 0.33778263 0.65327637
v -5.59007123 0.35517149 0.65383531
v -5.59052981 0.36604785 0.65441454
v -5.59233431 0.26826021 0.65473973
v -5.59167606 0.28564908 0.65396745
v -5.59102526 0.30303794 0.65349997
v -5.59062592 0.31394734 0.65332722
v -5.62719716 0.22177969 0.72677801
v -5.61001719 0.15278618 0.65680261
v -5.62486760 0.04246930 0.64418141
v -5.62347715 0.04246930 0.63795216
v -5.64103431 0.20366350 0.72728610
v -5.62922349 0.05331252 0.65519706
v -5.60911494 0.36604785 0.65713795
v -5.60996541 0.36307257 0.65652827
v -5.61154061 0.35150202 0.65511577
v -5.64646270 0.12657068 0.63795216
v -5.65482713 0.08511507 0.63795216
v -5.65615088 0.09456981 0.64742316
v -5.65675735 0.06772610 0.63795216
v -5.65766705 0.07721399 0.64742316
v -5.65747484 0.21615970 0.71692082
v -5.65689053 0.05982512 0.64742316
v -5.65652806 0.09456981 0.66481026
v -5.65585510 0.12931450 0.68217706
v -5.65143252 0.18141501 0.71362843
v -5.65038984 0.05982512 0.66049145
v -5.64953192 0.09456981 0.67692328
v -5.64757953 0.04749421 0.65774773
v -5.64682517 0.08366041 0.67449461
v -5.64589331 0.11982672 0.69121103
v -5.63069534 0.24654063 0.74062873
v -5.62778147 0.13757919 0.69100784
v -5.61015762 0.15007540 0.63825705
v -5.60988400 0.15794334 0.63795216
v -5.60884132 0.18141501 0.63795216
v -5.60833842 0.19877084 0.63795216
v -5.60872306 0.21615970 0.63795216
v -5.60942563 0.22482104 0.63795216
v -5.60969179 0.22987909 0.63818590
v -5.60183773 0.33778263 0.65095945
v -5.60044728 0.36604785 0.65432309
v -5.62704927 0.06488307 0.65748344
v -5.62638357 0.03149382 0.64113280
v -5.62503765 0.03463439 0.63795216
v -5.62256020 0.05010588 0.63795216
v -5.64397779 0.11982672 0.69121103
v -5.64215839 0.08366041 0.67449461
v -5.64080502 0.04749421 0.65774773
v -5.63564299 0.04200647 0.65252440
v -5.62884631 0.21206044 0.63795216
v -5.65673518 0.05037038 0.63795216
v -5.65470140 0.04227097 0.63795216
v -5.65223866 0.04200647 0.64817514
v -5.64965019 0.03063435 0.64288075
v -5.63657485 0.02970870 0.64363273
v -5.61071231 0.14974482 0.63795216
v -5.61611108 0.22657324 0.63795216
v -5.61474301 0.22987909 0.63818590
v -5.62930489 0.03007231 0.63795216
v -5.62614703 0.03129550 0.63795216
v -5.65004228 0.03017152 0.63795216
v -5.63657485 0.02838629 0.63795216
f 1 2 7
f 1 7 18
f 1 18 3
f 1 3 4
f 1 4 5
f 1 5 6
f 1 6 2
f 2 6 8
f 2 8 9
f 2 9 10
f 2 10 11
f 2 11 12
f 2 12 13
f 2 13 14
f 2 14 15
f 2 15 16
f 2 16 17
f 2 17 7
f 3 18 4
f 4 19 20
f 4 20 48
f 4 48 87
f 4 87 59
f 4 59 34
f 4 34 11
f 4 11 10
f 4 10 9
f 4 9 8
f 4 8 6
f 4 6 5
f 4 18 21
f 4 21 22
f 4 22 23
f 4 23 24
f 4 24 25
f 4 25 26
f 4 26 27
f 4 27 28
f 4 28 29
f 4 29 30
f 4 30 31
f 4 31 32
f 4 32 19
f 7 17 33
f 7 33 18
f 11 34 35
f 11 35 36
f 11 36 13
f 11 13 12
f 13 36 14
f 14 36 37
f 14 37 15
f 15 37 38
f 15 38 16
f 16 38 39
f 16 39 17
f 17 39 40
f 17 40 33
f 18 26 25
f 18 25 24
f 18 24 23
f 18 23 22
f 18 22 21
f 18 33 41
f 18 41 42
f 18 42 43
f 18 43 27
f 18 27 26
f 19 32 44
f 19 44 20
f 20 45 46
f 20 46 47
f 20 47 48
f 20 44 49
f 20 49 50
f 20 50 51
f 20 51 52
f 20 52 45
f 27 43 53
f 27 53 31
f 27 31 30
f 27 30 29
f 27 29 28
f 31 53 54
f 31 54 32
f 32 54 55
f 32 55 56
f 32 56 44
f 33 40 57
f 33 57 58
f 33 58 41
f 34 59 60
f 34 60 35
f 35 60 61
f 35 61 62
f 35 62 63
f 35 63 36
f 36 63 64
f 36 64 65
f 36 65 66
f 36 66 67
f 36 67 37
f 37 67 68
f 37 68 69
f 37 69 70
f 37 70 71
f 37 71 38
f 38 71 39
f 39 71 72
f 39 72 73
f 39 73 40
f 40 73 74
f 40 74 75
f 40 75 76
f 40 76 92
f 40 92 57
f 41 58 42
f 42 77 43
f 42 58 77
f 43 77 58
f 43 58 78
f 43 78 53
f 44 56 79
f 44 79 49
f 45 52 80
f 45 80 81
f 45 81 82
f 45 82 46
f 46 82 83
f 46 83 47
f 47 83 84
f 47 84 85
f 47 85 48
f 48 86 87
f 48 85 86
f 49 79 50
f 50 79 80
f 50 80 51
f 51 80 52
f 53 78 55
f 53 55 54
f 55 88 58
f 55 58 89
f 55 89 90
f 55 90 56
f 55 78 88
f 56 91 79
f 56 90 106
f 56 106 105
f 56 105 108
f 56 108 107
f 56 107 98
f 56 98 97
f 56 97 65
f 56 65 63
f 56 63 62
f 56 62 96
f 56 96 103
f 56 103 84
f 56 84 83
f 56 83 82
f 56 82 81
f 56 81 80
f 56 80 102
f 56 102 91
f 57 92 93
f 57 93 58
f 58 93 94
f 58 94 95
f 58 95 89
f 58 88 78
f 59 87 60
f 60 87 61
f 61 87 96
f 61 96 62
f 63 65 64
f 65 97 66
f 66 97 68
f 66 68 67
f 68 72 69
f 68 97 98
f 68 98 99
f 68 99 72
f 69 72 70
f 70 72 71
f 72 99 74
f 72 74 73
f 74 99 100
f 74 100 101
f 74 101 94
f 74 94 93
f 74 93 75
f 75 93 92
f 75 92 76
f 79 102 80
f 79 91 102
f 84 103 85
f 85 103 104
f 85 104 86
f 86 104 87
f 87 104 96
f 89 101 105
f 89 105 106
f 89 106 90
f 89 95 101
f 94 101 95
f 96 104 103
f 98 107 100
f 98 100 99
f 100 107 108
f 100 108 101
f 101 108 105

