# https://github.com/mikedh/trimesh
v -0.28138188 0.90955621 0.09284982
v -0.41621456 0.90955621 0.09284982
v -0.28138188 0.89258852 0.09284982
v -0.28138188 0.92765560 -0.30739321
v -0.41621456 0.88888482 0.09284982
v -0.41621456 0.92765560 -0.30739321
v -0.28138188 0.89181120 -0.30817325
v -0.28138188 0.92765560 -0.32648373
v -0.41621456 0.88873240 -0.29080707
v -0.41621456 0.92765560 -0.32648373
v -0.41621456 0.89009271 -0.30887127
v -0.28138188 0.89594929 -0.31884756
v -0.28138188 0.91117945 -0.32648373
v -0.41621456 0.91117945 -0.32648373
v -0.41621456 0.89701240 -0.32168024
v -0.28138188 0.89706193 -0.32168024
v -0.28138188 0.90819210 -0.32549842
v -0.41621456 0.90481227 -0.32434887
f 1 2 5
f 1 5 3
f 1 3 7
f 1 7 12
f 1 12 16
f 1 16 17
f 1 17 13
f 1 13 8
f 1 8 4
f 1 4 6
f 1 6 2
f 2 6 10
f 2 10 14
f 2 14 18
f 2 18 15
f 2 15 11
f 2 11 9
f 2 9 5
f 3 5 7
f 4 8 10
f 4 10 6
f 5 9 7
f 7 9 11
f 7 11 12
f 8 13 14
f 8 14 10
f 11 15 16
f 11 16 12
f 13 17 14
f 14 17 18
f 15 18 17
f 15 17 16

