# https://github.com/mikedh/trimesh
v -4.10777451 0.86563068 1.82301592
v -3.98896821 0.86253465 1.82301592
v -3.98896821 0.86272815 1.81452771
v -3.98896821 0.86278620 1.81155175
v -3.98896821 0.86143169 1.79416952
v -4.40832081 0.86143169 1.79416952
v -4.40832081 0.86185739 1.79954652
v -4.40832081 0.86278620 1.81155175
v -4.40832081 0.86267011 1.81691748
v -4.40832081 0.86253465 1.82301592
v -3.98896821 0.66796818 1.82301592
v -3.98896821 0.85746489 1.77679855
v -4.40832081 0.85746489 1.77679855
v -4.40832081 0.66796818 1.82301592
v -3.98896821 0.66796818 1.73735598
v -3.98896821 0.85233709 1.76271917
v -4.40832081 0.85392379 1.76705908
v -4.40832081 0.66796818 1.73735598
v -3.98896821 0.67915260 1.73409820
v -3.98896821 0.84902820 1.75402805
v -4.40832081 0.85005377 1.75671089
v -4.40832081 0.85233709 1.76271917
v -4.40832081 0.68182293 1.73332041
v -3.98896821 0.69037574 1.73086300
v -3.98896821 0.84165576 1.74205660
v -4.40832081 0.84902820 1.75402805
v -4.40832081 0.70268248 1.72732343
v -3.98896821 0.70268248 1.72732343
v -3.98896821 0.83430269 1.73158442
v -4.40832081 0.84165576 1.74205660
v -4.40832081 0.73542305 1.71791086
v -3.98896821 0.70566242 1.72646669
v -3.98896821 0.82667869 1.72439255
v -4.40832081 0.83430269 1.73158442
v -4.40832081 0.74411132 1.71541963
v -3.98896821 0.73691302 1.71748249
v -3.98896821 0.82509197 1.72290460
v -4.40832081 0.82509197 1.72290460
v -4.40832081 0.74742018 1.71447272
v -3.98896821 0.74411132 1.71541963
v -3.98896821 0.81789370 1.71679488
v -4.40832081 0.81909340 1.71780939
v -4.40832081 0.75481199 1.71236476
v -3.98896821 0.75481199 1.71236476
v -3.98896821 0.81640372 1.71553236
v -4.40832081 0.81640372 1.71553236
v -4.40832081 0.77216911 1.70912956
v -3.98896821 0.77216911 1.70912956
v -3.98896821 0.80692213 1.71121497
v -4.40832081 0.80692213 1.71122624
v -4.19447773 0.80692213 1.71121497
v -4.40832081 0.78954564 1.70787831
v -4.09020400 0.78954564 1.70786704
v -4.07283875 0.78954564 1.70786704
v -3.98896821 0.78954564 1.70787831
v -3.98896821 0.79252553 1.70844193
v -4.40832081 0.79492500 1.70890410
f 1 2 3
f 1 3 4
f 1 4 5
f 1 5 6
f 1 6 7
f 1 7 8
f 1 8 9
f 1 9 10
f 1 10 14
f 1 14 11
f 1 11 2
f 2 11 15
f 2 15 19
f 2 19 24
f 2 24 28
f 2 28 32
f 2 32 36
f 2 36 40
f 2 40 44
f 2 44 48
f 2 48 55
f 2 55 56
f 2 56 49
f 2 49 45
f 2 45 41
f 2 41 37
f 2 37 33
f 2 33 29
f 2 29 25
f 2 25 20
f 2 20 16
f 2 16 12
f 2 12 5
f 2 5 4
f 2 4 3
f 5 12 13
f 5 13 6
f 6 13 17
f 6 17 22
f 6 22 21
f 6 21 26
f 6 26 30
f 6 30 34
f 6 34 38
f 6 38 42
f 6 42 46
f 6 46 50
f 6 50 57
f 6 57 52
f 6 52 47
f 6 47 43
f 6 43 39
f 6 39 35
f 6 35 31
f 6 31 27
f 6 27 23
f 6 23 18
f 6 18 14
f 6 14 10
f 6 10 9
f 6 9 8
f 6 8 7
f 11 14 18
f 11 18 15
f 12 16 17
f 12 17 13
f 15 18 23
f 15 23 19
f 16 20 21
f 16 21 22
f 16 22 17
f 19 23 24
f 20 25 30
f 20 30 26
f 20 26 21
f 23 27 32
f 23 32 28
f 23 28 24
f 25 29 34
f 25 34 30
f 27 31 32
f 29 33 34
f 31 35 36
f 31 36 32
f 33 37 38
f 33 38 34
f 35 39 40
f 35 40 36
f 37 41 42
f 37 42 38
f 39 43 44
f 39 44 40
f 41 45 42
f 42 45 46
f 43 47 48
f 43 48 44
f 45 49 51
f 45 51 46
f 46 51 50
f 47 52 53
f 47 53 54
f 47 54 48
f 48 54 55
f 49 56 54
f 49 54 53
f 49 53 51
f 50 51 57
f 51 53 57
f 52 57 53
f 54 56 55

