# https://github.com/mikedh/trimesh
v -3.88169072 0.86092506 3.36370162
v -3.88815257 0.86092506 3.36370162
v -3.86431785 0.86074385 3.36370162
v -3.81086003 0.85109440 3.20909656
v -3.88815257 0.86047204 3.36006954
v -3.88815257 0.39933633 3.36370162
v -3.81086003 0.85091319 3.36370162
v -3.81086003 0.85095848 3.36111377
v -3.81086003 0.85109440 3.21325826
v -3.81418174 0.84851215 3.20909656
v -3.88815257 0.85136621 3.32998387
v -3.88815257 0.85290651 3.33400949
v -3.88815257 0.85539815 3.34056228
v -3.88815257 0.85716495 3.34700922
v -3.88815257 0.86015493 3.35793571
v -3.81086003 0.40155622 3.20909656
v -3.88815257 0.40939356 3.20909656
v -3.88169072 0.40749083 3.20909656
v -3.87416195 0.40585991 3.20909656
v -3.86431785 0.40373075 3.20909656
v -3.85678152 0.40250756 3.20909656
v -3.84695255 0.40096725 3.20909656
v -3.82957969 0.40042365 3.20909656
v -3.85919528 0.39888334 3.36370162
v -3.81086003 0.39820381 3.36370162
v -3.81670895 0.84651883 3.20909656
v -3.88815257 0.84638290 3.32129726
v -3.81086003 0.39820381 3.36312653
v -3.81219932 0.40142029 3.20909656
v -3.88815257 0.71206058 3.20909656
v -3.81219932 0.39820381 3.36370162
v -3.82973105 0.39843030 3.36370162
v -3.82513815 0.83782072 3.20909656
v -3.88815257 0.83773010 3.30965949
v -3.88815257 0.71473341 3.20926298
v -3.88587500 0.72003385 3.20909656
v -3.83005639 0.83165956 3.20909656
v -3.83382456 0.82690278 3.20909656
v -3.83988537 0.81824998 3.20909656
v -3.84321468 0.81181697 3.20909656
v -3.84572677 0.80692431 3.20909656
v -3.88815257 0.82758231 3.30097278
v -3.87811171 0.73743006 3.20909656
v -3.84970678 0.79858862 3.20909656
v -3.85278640 0.79211035 3.20909656
v -3.85453424 0.78835021 3.20909656
v -3.86203272 0.77217718 3.20909656
f 1 2 6
f 1 6 24
f 1 24 32
f 1 32 31
f 1 31 25
f 1 25 7
f 1 7 3
f 1 3 4
f 1 4 2
f 2 4 5
f 2 5 15
f 2 15 14
f 2 14 13
f 2 13 12
f 2 12 11
f 2 11 27
f 2 27 34
f 2 34 42
f 2 42 35
f 2 35 30
f 2 30 17
f 2 17 6
f 3 7 8
f 3 8 9
f 3 9 4
f 4 10 11
f 4 11 12
f 4 12 13
f 4 13 14
f 4 14 15
f 4 15 5
f 4 9 8
f 4 8 7
f 4 7 25
f 4 25 28
f 4 28 16
f 4 16 29
f 4 29 23
f 4 23 22
f 4 22 21
f 4 21 20
f 4 20 19
f 4 19 18
f 4 18 17
f 4 17 30
f 4 30 36
f 4 36 43
f 4 43 47
f 4 47 46
f 4 46 45
f 4 45 44
f 4 44 41
f 4 41 40
f 4 40 39
f 4 39 38
f 4 38 37
f 4 37 33
f 4 33 26
f 4 26 10
f 6 17 18
f 6 18 19
f 6 19 20
f 6 20 21
f 6 21 22
f 6 22 23
f 6 23 24
f 10 26 11
f 11 26 27
f 16 28 29
f 23 29 28
f 23 28 31
f 23 31 32
f 23 32 24
f 25 31 28
f 26 33 27
f 27 33 34
f 30 35 36
f 33 37 34
f 34 37 38
f 34 38 39
f 34 39 40
f 34 40 41
f 34 41 42
f 35 42 36
f 36 42 43
f 41 44 42
f 42 44 45
f 42 45 46
f 42 46 47
f 42 47 43

