# https://github.com/mikedh/trimesh
v -3.08251173 0.37255497 2.53116254
v -3.08251173 0.35965197 2.52420798
v -3.08251173 0.37865062 2.53032098
v -3.12337997 0.40038144 2.58134066
v -3.12337997 0.39256958 2.58134066
v -3.08251173 0.35829735 2.52345994
v -3.08251173 0.38992353 2.52866127
v -3.12744169 0.40352108 2.58134066
v -3.08251173 0.39184065 2.52803005
v -3.08251173 0.39958359 2.52190540
v -3.13111785 0.38763912 2.58134066
v -3.13456090 0.38551539 2.58134066
v -3.14665639 0.38816145 2.58134066
v -3.14625291 0.35582922 2.46193244
v -3.08251173 0.35758566 2.50531962
v -3.13918750 0.41217093 2.58134066
v -3.08251173 0.39988206 2.50922351
v -3.14254983 0.41446108 2.58134066
v -3.15193752 0.38956194 2.58134066
v -3.15038636 0.35774059 2.46193244
v -3.12617744 0.35774629 2.46193244
v -3.11661940 0.35763154 2.47111947
v -3.09887517 0.35753968 2.48817279
v -3.08251173 0.35755687 2.50389365
v -3.08251173 0.39991075 2.50699104
v -3.16342330 0.41446108 2.58134066
v -3.14549974 0.41446108 2.46193244
v -3.15883257 0.39448665 2.58134066
v -3.16077826 0.36482352 2.46193244
v -3.12094114 0.35994464 2.46193244
v -3.10403974 0.36029479 2.47646108
v -3.08605342 0.36012256 2.49328060
v -3.08251173 0.35827436 2.50187152
v -3.08251173 0.39444647 2.49850528
v -3.08875226 0.39942861 2.49585203
v -3.16336950 0.40729784 2.58134066
v -3.17410212 0.41446108 2.46193244
v -3.12093218 0.40034701 2.46193244
v -3.16169281 0.39661038 2.58134066
v -3.16663322 0.37205558 2.46193244
v -3.11437784 0.37296819 2.46193244
v -3.08251173 0.37255497 2.49187799
v -3.08251173 0.38992353 2.49568840
v -3.11710359 0.39431448 2.46193244
v -3.17404832 0.40966841 2.46193244
v -3.17402143 0.40729784 2.46193244
v -3.17273925 0.39241460 2.46193244
v -3.16819336 0.37464426 2.46193244
v -3.11413575 0.37838084 2.46193244
v -3.08251173 0.38503325 2.49457799
v -3.11567794 0.38992353 2.46193244
f 1 2 6
f 1 6 15
f 1 15 24
f 1 24 33
f 1 33 42
f 1 42 50
f 1 50 43
f 1 43 34
f 1 34 25
f 1 25 17
f 1 17 10
f 1 10 9
f 1 9 7
f 1 7 3
f 1 3 4
f 1 4 5
f 1 5 2
f 2 5 6
f 3 7 4
f 4 8 16
f 4 16 18
f 4 18 26
f 4 26 36
f 4 36 39
f 4 39 28
f 4 28 19
f 4 19 13
f 4 13 12
f 4 12 11
f 4 11 5
f 4 7 9
f 4 9 10
f 4 10 8
f 5 11 6
f 6 11 12
f 6 12 13
f 6 13 14
f 6 14 15
f 8 10 16
f 10 17 18
f 10 18 16
f 13 19 14
f 14 20 29
f 14 29 40
f 14 40 48
f 14 48 47
f 14 47 46
f 14 46 45
f 14 45 37
f 14 37 27
f 14 27 38
f 14 38 44
f 14 44 51
f 14 51 49
f 14 49 41
f 14 41 30
f 14 30 21
f 14 21 22
f 14 22 23
f 14 23 24
f 14 24 15
f 14 19 20
f 17 25 18
f 18 25 27
f 18 27 37
f 18 37 26
f 19 28 29
f 19 29 20
f 21 30 31
f 21 31 32
f 21 32 22
f 22 32 23
f 23 32 33
f 23 33 24
f 25 34 35
f 25 35 27
f 26 37 36
f 27 35 38
f 28 39 29
f 29 39 40
f 30 41 31
f 31 41 32
f 32 42 33
f 32 41 42
f 34 43 44
f 34 44 38
f 34 38 35
f 36 37 45
f 36 45 46
f 36 46 47
f 36 47 39
f 39 47 48
f 39 48 40
f 41 49 42
f 42 49 51
f 42 51 50
f 43 50 51
f 43 51 44

