# https://github.com/mikedh/trimesh
v -6.74683008 -0.00254415 0.63795216
v -6.75422681 0.00769654 0.63795216
v -6.73845033 -0.00254415 0.63795216
v -6.74673190 -0.00245115 4.15895958
v -6.76173124 0.09453874 0.63795216
v -6.75387573 0.00768484 4.15895958
v -6.76176852 0.09453874 4.15895958
v -6.76176852 0.09453874 4.10484838
v -6.76174988 0.09453874 2.26369526
v -6.71814252 0.04629950 0.63795216
v -6.71394322 0.05010049 1.49476739
v -6.71394322 0.05010049 3.42690986
v -6.71394322 0.05011219 4.15861492
v -6.73884366 -0.00245115 4.15895958
v -6.76104772 0.10660433 0.63795216
v -6.76106180 0.10638353 4.15895958
v -6.76106180 0.10638353 4.00041765
v -6.71814252 0.11620572 0.63795216
v -6.71394322 0.07213947 1.49476739
v -6.71394322 0.05163489 4.15895958
v -6.74755585 0.11620572 0.64794730
v -6.74693779 0.11620572 0.63795216
v -6.74985435 0.10716233 4.15895958
v -6.71814252 0.11620572 0.64725798
v -6.71394322 0.07283687 1.49511205
v -6.71394322 0.07282527 4.15895958
v -6.72766438 0.11620572 0.65346165
v -6.74858569 0.10724373 4.15895958
v -6.71814708 0.11620572 0.65415097
v -6.71394322 0.07283687 3.79224530
v -6.73918542 0.10409363 4.15895958
v -6.74014049 0.10441903 4.15895958
f 1 2 5
f 1 5 15
f 1 15 22
f 1 22 18
f 1 18 10
f 1 10 3
f 1 3 14
f 1 14 4
f 1 4 2
f 2 4 6
f 2 6 7
f 2 7 8
f 2 8 9
f 2 9 5
f 3 10 11
f 3 11 12
f 3 12 13
f 3 13 14
f 4 14 20
f 4 20 26
f 4 26 31
f 4 31 32
f 4 32 28
f 4 28 23
f 4 23 16
f 4 16 7
f 4 7 6
f 5 9 15
f 7 16 17
f 7 17 8
f 8 17 15
f 8 15 9
f 10 18 19
f 10 19 11
f 11 19 25
f 11 25 30
f 11 30 26
f 11 26 20
f 11 20 13
f 11 13 12
f 13 20 14
f 15 21 22
f 15 17 16
f 15 16 21
f 16 23 21
f 18 24 30
f 18 30 25
f 18 25 19
f 18 22 21
f 18 21 27
f 18 27 29
f 18 29 24
f 21 23 28
f 21 28 27
f 24 29 26
f 24 26 30
f 26 29 31
f 27 28 29
f 28 32 29
f 29 32 31

