# https://github.com/mikedh/trimesh
v -4.47118170 0.58212491 3.19540740
v -4.54195609 0.58212491 3.19824702
v -4.52458048 0.59843629 3.20070603
v -4.52458048 0.61581863 3.20509703
v -4.50720488 0.61581863 3.20477505
v -4.47118170 0.61452802 3.20377970
v -4.47118170 0.58212491 3.43984414
v -4.55933180 0.58212491 3.19915444
v -4.54195609 0.59843629 3.20149633
v -4.50720488 0.62891716 3.20887338
v -4.54195609 0.61581863 3.20623872
v -4.54195609 0.62661054 3.20960526
v -4.52458048 0.69089496 3.22860392
v -4.50720488 0.68273927 3.22573510
v -4.50720488 0.69141671 3.22845758
v -4.50720488 0.70270288 3.23199977
v -4.47118170 0.69218562 3.22819412
v -4.47118170 0.61977290 3.49446912
v -4.68075609 0.61065609 3.49446912
v -4.68075609 0.58212491 3.44886049
v -4.57668690 0.58212491 3.20064742
v -4.55933180 0.59843629 3.20304792
v -4.60370429 0.60744328 3.21016140
v -4.57668690 0.61202913 3.20872704
v -4.55190556 0.62493545 3.21013219
v -4.60704815 0.66071614 3.22716956
v -4.55933180 0.65055586 3.21894360
v -4.56031648 0.68449674 3.22968709
v -4.54195609 0.68908259 3.22918947
v -4.54195609 0.70270288 3.23346344
v -4.52458048 0.70270288 3.23232175
v -4.47245356 0.70270288 3.23153135
v -4.52458048 0.72005777 3.23896692
v -4.47118170 0.70270288 3.23153135
v -4.47118170 0.63559003 3.49446912
v -4.68075609 0.63226734 3.49446912
v -4.68075609 0.58212491 3.21598696
v -4.59406251 0.58212491 3.20243316
v -4.64179936 0.59143394 3.20981011
v -4.57668690 0.59843629 3.20486287
v -4.61529482 0.60524644 3.21077615
v -4.64618943 0.61581863 3.21730429
v -4.64618943 0.63320097 3.22271995
v -4.59406251 0.61776832 3.21235695
v -4.57668690 0.63320097 3.21534290
v -4.64618943 0.65407076 3.22924798
v -4.64618943 0.68532054 3.23902543
v -4.62881382 0.68532054 3.23718117
v -4.62815733 0.70363656 3.24286029
v -4.57668690 0.71841018 3.24245049
v -4.56048053 0.72165048 3.24192356
v -4.54195609 0.72005777 3.23969880
v -4.63351157 0.71003477 3.24543644
v -4.62192104 0.71190208 3.24482168
v -4.61143822 0.71341240 3.24426544
v -4.50720488 0.72005777 3.23873276
v -4.47245356 0.72005777 3.23829365
v -4.47118170 0.71879460 3.23779592
v -4.54195609 0.73065741 3.24411911
v -4.52458048 0.73095951 3.24394346
v -4.47118170 0.78953223 3.49405932
v -4.60897640 0.63559003 3.49446912
v -4.67847904 0.63498589 3.49446912
v -4.66356503 0.78953223 3.49405932
v -4.68075609 0.78953223 3.49312248
v -4.68075609 0.59824408 3.22020231
v -4.66807824 0.58212491 3.21212279
v -4.63016771 0.58212491 3.20620941
v -4.65336950 0.58912726 3.21042486
v -4.64703057 0.59769488 3.21209348
v -4.62881382 0.60263772 3.21150804
v -4.65667225 0.64322397 3.22722807
v -4.64618943 0.69921542 3.24338722
v -4.56704512 0.72846062 3.24511446
v -4.55545458 0.72983361 3.24449970
v -4.64618943 0.70789287 3.24613901
v -4.64618943 0.72005777 3.25047150
v -4.64618943 0.74908326 3.26127360
v -4.61143822 0.72208985 3.24748555
v -4.47118170 0.73062997 3.24324089
v -4.47118170 0.72005777 3.23829365
v -4.55933180 0.75479500 3.25609210
v -4.54195609 0.73933486 3.24824674
v -4.64036335 0.79875888 3.27951117
v -4.62881382 0.79928058 3.27927701
v -4.54195609 0.75479500 3.25562369
v -4.54195609 0.77489589 3.26522559
v -4.52458048 0.75479500 3.25533102
v -4.47118170 0.79071301 3.49388367
v -4.62635211 0.63550764 3.49446912
v -4.64372772 0.63534287 3.49446912
v -4.66356503 0.80548664 3.49142466
v -4.68075609 0.80471773 3.49086841
v -4.68075609 0.61548909 3.22503252
v -4.66356503 0.59843629 3.21519656
v -4.66534985 0.58212491 3.21130308
v -4.64701007 0.58212491 3.20799516
v -4.64703057 0.58242695 3.20805367
v -4.64783060 0.58212491 3.20811229
v -4.66487802 0.58212491 3.21118606
v -4.66356503 0.61581863 3.22031944
v -4.65814927 0.69649687 3.24423624
v -4.66290865 0.63306370 3.22553025
v -4.61043292 0.75575607 3.25992696
v -4.60397096 0.76377449 3.26226885
v -4.66356503 0.72005777 3.25339893
v -4.65712358 0.74727089 3.26194687
v -4.65195399 0.79755060 3.28000890
v -4.64618943 0.77217734 3.26988006
v -4.62881382 0.75158215 3.26033677
v -4.47118170 0.73148121 3.24365069
v -4.52458048 0.77519798 3.26507916
v -4.52458048 0.78953223 3.27192927
v -4.52458048 0.80199918 3.27793037
v -4.61143822 0.79977489 3.27901355
v -4.55933180 0.77440163 3.26545975
v -4.64616892 0.80548664 3.28355098
v -4.62881382 0.80795803 3.28410722
v -4.54195609 0.78953223 3.27222205
v -4.47118170 0.80548664 3.49142466
v -4.66356503 0.81419153 3.48756049
v -4.68075609 0.81328534 3.48706286
v -4.68075609 0.61590102 3.22514965
v -4.66514469 0.58242695 3.21133239
v -4.67505315 0.62718718 3.22678896
v -4.66826289 0.63877539 3.22860392
v -4.66973992 0.69202085 3.24564139
v -4.66379070 0.70245572 3.24748555
v -4.62881382 0.77217734 3.26803580
v -4.67657118 0.73252472 3.26106865
v -4.66871422 0.74411292 3.26308856
v -4.66317532 0.75375149 3.26551827
v -4.66356503 0.77217734 3.27239769
v -4.66356503 0.78640176 3.27769622
v -4.66356503 0.79510665 3.28094563
v -4.66356503 0.80691457 3.28636129
v -4.50720488 0.80208156 3.27790117
v -4.47245356 0.80213645 3.27784255
v -4.47118170 0.80123027 3.27740344
v -4.54195609 0.80169708 3.27807681
v -4.52458048 0.81067663 3.28264345
v -4.54195609 0.81040203 3.28281910
v -4.55933180 0.80123027 3.27831097
v -4.66356503 0.81973850 3.29385536
v -4.64618943 0.82072707 3.29297714
v -4.47118170 0.81419153 3.48756049
v -4.66356503 0.82429691 3.47948086
v -4.68075609 0.82580720 3.47719749
v -4.68075609 0.67027232 3.24215771
v -4.67620188 0.68043264 3.24382633
v -4.68075609 0.71978317 3.25814132
v -4.68075609 0.72316080 3.25925370
v -4.68075609 0.77322085 3.27693513
v -4.67546336 0.78316141 3.27889642
v -4.68075609 0.80677725 3.29031328
v -4.68075609 0.81737691 3.29558250
v -4.50720488 0.81075901 3.28261425
v -4.48982917 0.81078646 3.28258494
v -4.47118170 0.81020976 3.28223365
v -4.47118170 0.80213645 3.27784255
v -4.54195609 0.82185294 3.29151348
v -4.52458048 0.82204515 3.29133783
v -4.68075609 0.82610927 3.30213984
v -4.66356503 0.82844339 3.30064697
v -4.64618943 0.82940452 3.30003221
v -4.47118170 0.82429691 3.47948086
v -4.66356503 0.83344117 3.47148916
v -4.67573004 0.83330384 3.47128421
v -4.68075609 0.82660356 3.47652422
v -4.68075609 0.78876332 3.28278989
v -4.47245356 0.81084140 3.28258494
v -4.47245356 0.82212753 3.29125001
v -4.47118170 0.81084140 3.28258494
v -4.54195609 0.83055783 3.29932964
v -4.52458048 0.83072260 3.29921251
v -4.50720488 0.83077751 3.29915399
v -4.68075609 0.83648926 3.31083422
v -4.66356503 0.83786225 3.30934124
v -4.64618943 0.83824671 3.30872649
v -4.47118170 0.83344117 3.47148916
v -4.47118170 0.83393543 3.47081589
v -4.66356503 0.84019637 3.46218003
v -4.68075609 0.83827418 3.46367300
v -4.68075609 0.83772498 3.46446340
v -4.68075609 0.83302924 3.47096223
v -4.47245356 0.83080498 3.29912468
v -4.47118170 0.82212753 3.29125001
v -4.52458048 0.83857622 3.30787758
v -4.50720488 0.83860369 3.30784827
v -4.68075609 0.84546875 3.32286573
v -4.66356503 0.84653970 3.32125573
v -4.64618943 0.84692413 3.32087513
v -4.54195609 0.83854878 3.30802391
v -4.47118170 0.84019637 3.46218003
v -4.47118170 0.84080051 3.46121399
v -4.66356503 0.84843445 3.44897752
v -4.68075609 0.84796763 3.44798227
v -4.47245356 0.83860369 3.30781906
v -4.47118170 0.83080498 3.29912468
v -4.55933180 0.84719875 3.32064097
v -4.52458048 0.84728111 3.32052384
v -4.68075609 0.84629254 3.32400742
v -4.68075609 0.84807746 3.32681772
v -4.67784305 0.85096081 3.33082822
v -4.66356503 0.85140015 3.32992080
v -4.64618943 0.85156492 3.32956951
v -4.47118170 0.84843445 3.44897752
v -4.66356503 0.85192190 3.44028325
v -4.68075609 0.85156492 3.43914156
v -4.47118170 0.84664953 3.31958711
v -4.47118170 0.83860369 3.30781906
v -4.54195609 0.85167477 3.32924743
v -4.52458048 0.85170225 3.32921822
v -4.47118170 0.84728111 3.32052384
v -4.68075609 0.85255349 3.33577557
v -4.68075609 0.85376176 3.33902498
v -4.66356503 0.85543683 3.34057647
v -4.62881382 0.85159239 3.32954020
v -4.64618943 0.85565651 3.34057647
v -4.47118170 0.85192190 3.44028325
v -4.66356503 0.85664508 3.42743203
v -4.68075609 0.85582128 3.42722707
v -4.52458048 0.85582128 3.34057647
v -4.47118170 0.85170225 3.32921822
v -4.68075609 0.85941857 3.35773097
v -4.66356503 0.86018745 3.35793581
v -4.64618943 0.86024237 3.35793581
v -4.47118170 0.85664508 3.42743203
v -4.47118170 0.85697460 3.42614390
v -4.66356503 0.86098378 3.41004327
v -4.68075609 0.86010507 3.40983842
v -4.55933180 0.86026981 3.35793581
v -4.47118170 0.85994032 3.35664779
v -4.47118170 0.85582128 3.34057647
v -4.68075609 0.86186252 3.37509031
v -4.66356503 0.86254904 3.37529527
v -4.47118170 0.86098378 3.41004327
v -4.66356503 0.86265887 3.39268392
v -4.68075609 0.86180760 3.39247897
v -4.52458048 0.86257649 3.37529527
v -4.47118170 0.86241172 3.37403645
v -4.47118170 0.86026981 3.35793581
v -4.47118170 0.86265887 3.39268392
v -4.47118170 0.86257649 3.37529527
f 1 2 3
f 1 3 4
f 1 4 5
f 1 5 6
f 1 6 17
f 1 17 34
f 1 34 58
f 1 58 81
f 1 81 80
f 1 80 111
f 1 111 139
f 1 139 160
f 1 160 159
f 1 159 173
f 1 173 187
f 1 187 199
f 1 199 211
f 1 211 210
f 1 210 214
f 1 214 224
f 1 224 234
f 1 234 233
f 1 233 242
f 1 242 241
f 1 241 244
f 1 244 243
f 1 243 237
f 1 237 229
f 1 229 228
f 1 228 220
f 1 220 207
f 1 207 195
f 1 195 194
f 1 194 181
f 1 181 180
f 1 180 166
f 1 166 146
f 1 146 120
f 1 120 89
f 1 89 61
f 1 61 35
f 1 35 18
f 1 18 7
f 1 7 20
f 1 20 37
f 1 37 67
f 1 67 96
f 1 96 100
f 1 100 99
f 1 99 97
f 1 97 68
f 1 68 38
f 1 38 21
f 1 21 8
f 1 8 2
f 2 8 9
f 2 9 3
f 3 9 4
f 4 10 5
f 4 9 11
f 4 11 12
f 4 12 13
f 4 13 10
f 5 10 6
f 6 10 14
f 6 14 15
f 6 15 16
f 6 16 17
f 7 18 19
f 7 19 20
f 8 21 9
f 9 21 22
f 9 22 11
f 10 13 14
f 11 23 24
f 11 24 25
f 11 25 12
f 11 22 23
f 12 25 26
f 12 26 27
f 12 27 28
f 12 28 29
f 12 29 13
f 13 29 30
f 13 30 31
f 13 31 16
f 13 16 15
f 13 15 14
f 16 32 17
f 16 31 33
f 16 33 56
f 16 56 32
f 17 32 34
f 18 35 62
f 18 62 90
f 18 90 91
f 18 91 63
f 18 63 36
f 18 36 19
f 19 36 65
f 19 65 93
f 19 93 122
f 19 122 148
f 19 148 169
f 19 169 185
f 19 185 184
f 19 184 183
f 19 183 197
f 19 197 209
f 19 209 222
f 19 222 231
f 19 231 239
f 19 239 235
f 19 235 225
f 19 225 216
f 19 216 215
f 19 215 203
f 19 203 202
f 19 202 190
f 19 190 177
f 19 177 163
f 19 163 156
f 19 156 155
f 19 155 170
f 19 170 153
f 19 153 152
f 19 152 151
f 19 151 149
f 19 149 123
f 19 123 94
f 19 94 66
f 19 66 37
f 19 37 20
f 21 38 22
f 22 38 39
f 22 39 40
f 22 40 23
f 23 40 41
f 23 41 42
f 23 42 43
f 23 43 44
f 23 44 24
f 24 44 25
f 25 44 45
f 25 45 26
f 26 46 47
f 26 47 48
f 26 48 27
f 26 45 44
f 26 44 43
f 26 43 46
f 27 48 28
f 28 48 49
f 28 49 30
f 28 30 29
f 30 50 51
f 30 51 52
f 30 52 31
f 30 49 53
f 30 53 54
f 30 54 55
f 30 55 50
f 31 52 33
f 32 56 57
f 32 57 58
f 32 58 34
f 33 52 59
f 33 59 60
f 33 60 56
f 35 61 64
f 35 64 62
f 36 63 64
f 36 64 65
f 37 66 67
f 38 68 69
f 38 69 39
f 39 69 70
f 39 70 41
f 39 41 40
f 41 70 71
f 41 71 42
f 42 71 70
f 42 70 69
f 42 69 72
f 42 72 43
f 43 72 46
f 46 72 47
f 47 72 73
f 47 73 53
f 47 53 48
f 48 53 49
f 50 55 51
f 51 55 74
f 51 74 75
f 51 75 52
f 52 75 59
f 53 76 77
f 53 77 54
f 53 73 76
f 54 77 78
f 54 78 79
f 54 79 74
f 54 74 55
f 56 60 57
f 57 60 80
f 57 80 81
f 57 81 58
f 59 82 83
f 59 83 60
f 59 75 84
f 59 84 85
f 59 85 82
f 60 83 86
f 60 86 87
f 60 87 88
f 60 88 80
f 61 89 64
f 62 64 90
f 63 91 64
f 64 89 92
f 64 92 93
f 64 93 65
f 64 91 90
f 66 94 95
f 66 95 96
f 66 96 67
f 68 97 98
f 68 98 69
f 69 98 99
f 69 99 100
f 69 100 95
f 69 95 101
f 69 101 72
f 72 102 73
f 72 101 103
f 72 103 102
f 73 102 76
f 74 79 104
f 74 104 105
f 74 105 75
f 75 105 84
f 76 102 106
f 76 106 107
f 76 107 77
f 77 107 108
f 77 108 78
f 78 108 109
f 78 109 110
f 78 110 79
f 79 110 104
f 80 88 112
f 80 112 113
f 80 113 114
f 80 114 111
f 82 86 83
f 82 85 115
f 82 115 116
f 82 116 87
f 82 87 86
f 84 105 108
f 84 108 117
f 84 117 118
f 84 118 85
f 85 118 115
f 87 116 119
f 87 119 113
f 87 113 112
f 87 112 88
f 89 120 92
f 92 121 93
f 92 120 146
f 92 146 121
f 93 121 122
f 94 123 95
f 95 100 124
f 95 124 96
f 95 123 125
f 95 125 101
f 96 124 100
f 97 99 98
f 101 125 126
f 101 126 103
f 102 127 128
f 102 128 106
f 102 103 126
f 102 126 127
f 104 110 109
f 104 109 129
f 104 129 108
f 104 108 105
f 106 128 130
f 106 130 131
f 106 131 107
f 107 131 132
f 107 132 133
f 107 133 134
f 107 134 135
f 107 135 108
f 108 135 136
f 108 136 117
f 108 129 109
f 111 114 137
f 111 137 138
f 111 138 139
f 113 119 140
f 113 140 114
f 114 140 141
f 114 141 157
f 114 157 137
f 115 118 142
f 115 142 143
f 115 143 119
f 115 119 116
f 117 136 144
f 117 144 145
f 117 145 118
f 118 145 142
f 119 143 140
f 121 146 166
f 121 166 147
f 121 147 148
f 121 148 122
f 123 149 125
f 125 149 150
f 125 150 127
f 125 127 126
f 127 150 151
f 127 151 152
f 127 152 130
f 127 130 128
f 130 153 154
f 130 154 131
f 130 152 153
f 131 154 133
f 131 133 132
f 133 154 134
f 134 154 135
f 135 155 136
f 135 154 155
f 136 155 156
f 136 156 144
f 137 157 158
f 137 158 138
f 138 158 159
f 138 159 160
f 138 160 139
f 140 143 142
f 140 142 141
f 141 142 161
f 141 161 162
f 141 162 157
f 142 145 161
f 144 156 163
f 144 163 164
f 144 164 145
f 145 164 165
f 145 165 161
f 147 167 168
f 147 168 148
f 147 166 180
f 147 180 167
f 148 168 169
f 149 151 150
f 153 170 154
f 154 170 155
f 157 162 172
f 157 172 158
f 158 171 159
f 158 172 171
f 159 171 173
f 161 165 162
f 162 165 174
f 162 174 175
f 162 175 176
f 162 176 172
f 163 177 164
f 164 177 178
f 164 178 165
f 165 178 179
f 165 179 174
f 167 180 181
f 167 181 182
f 167 182 168
f 168 182 183
f 168 183 184
f 168 184 185
f 168 185 169
f 171 172 187
f 171 187 173
f 172 176 186
f 172 186 199
f 172 199 187
f 174 179 175
f 175 188 176
f 175 179 188
f 176 188 189
f 176 189 186
f 177 190 178
f 178 190 191
f 178 191 179
f 179 191 192
f 179 192 193
f 179 193 188
f 181 194 182
f 182 195 196
f 182 196 183
f 182 194 195
f 183 196 197
f 186 189 198
f 186 198 211
f 186 211 199
f 188 193 192
f 188 192 200
f 188 200 201
f 188 201 189
f 189 201 198
f 190 202 191
f 191 202 203
f 191 203 204
f 191 204 205
f 191 205 192
f 192 205 206
f 192 206 200
f 195 207 196
f 196 208 209
f 196 209 197
f 196 207 220
f 196 220 208
f 198 201 210
f 198 210 211
f 200 206 201
f 201 206 212
f 201 212 213
f 201 213 224
f 201 224 214
f 201 214 210
f 203 215 204
f 204 215 216
f 204 216 217
f 204 217 205
f 205 217 206
f 206 218 213
f 206 213 212
f 206 217 219
f 206 219 218
f 208 220 228
f 208 228 221
f 208 221 209
f 209 221 222
f 213 218 219
f 213 219 223
f 213 223 234
f 213 234 224
f 216 225 217
f 217 225 226
f 217 226 219
f 219 226 227
f 219 227 223
f 221 228 229
f 221 229 230
f 221 230 222
f 222 230 231
f 223 227 232
f 223 232 233
f 223 233 234
f 225 235 226
f 226 235 236
f 226 236 227
f 227 236 232
f 229 237 230
f 230 237 243
f 230 243 238
f 230 238 239
f 230 239 231
f 232 236 240
f 232 240 241
f 232 241 242
f 232 242 233
f 235 239 238
f 235 238 236
f 236 238 240
f 238 243 244
f 238 244 240
f 240 244 241

