# https://github.com/mikedh/trimesh
v -3.69296385 0.58055323 2.76768784
v -3.69296385 0.58055323 2.72474629
v -3.69298710 0.58055323 2.83311855
v -3.69342919 0.38341481 2.83311855
v -3.69340591 0.38341481 2.73897175
v -3.69340591 0.38341481 2.72474629
v -3.93063979 0.58055323 2.72474629
v -3.93056998 0.58055323 2.83311855
v -3.70785493 0.38341481 2.83311855
v -3.71348564 0.38341481 2.72474629
v -3.93063979 0.41444747 2.72474629
v -3.93063979 0.58055323 2.82867375
v -3.93063979 0.57603728 2.83311855
v -3.71362525 0.38341481 2.83300189
v -3.84694717 0.40093825 2.83311855
v -3.71350892 0.38341481 2.73240534
v -3.84694717 0.40093825 2.80193076
v -3.84694717 0.40101541 2.72474629
v -3.86430460 0.40364008 2.72474629
v -3.86430460 0.40369797 2.83311855
v -3.86788775 0.40446993 2.83311855
v -3.88168533 0.40749984 2.83311855
v -3.88524523 0.40854200 2.83311855
v -3.89906601 0.41259476 2.83311855
v -3.93063979 0.42346004 2.83311855
v -3.71360197 0.38341481 2.80181409
v -3.85050707 0.40149791 2.83311855
v -3.85462538 0.40209615 2.72474629
v -3.71357872 0.38341481 2.78444864
f 1 2 7
f 1 7 12
f 1 12 8
f 1 8 3
f 1 3 4
f 1 4 5
f 1 5 6
f 1 6 2
f 2 6 10
f 2 10 18
f 2 18 28
f 2 28 19
f 2 19 11
f 2 11 7
f 3 8 13
f 3 13 25
f 3 25 24
f 3 24 23
f 3 23 22
f 3 22 21
f 3 21 20
f 3 20 27
f 3 27 15
f 3 15 9
f 3 9 4
f 4 9 14
f 4 14 26
f 4 26 29
f 4 29 16
f 4 16 10
f 4 10 6
f 4 6 5
f 7 11 25
f 7 25 13
f 7 13 12
f 8 12 13
f 9 15 14
f 10 16 17
f 10 17 18
f 11 19 20
f 11 20 21
f 11 21 22
f 11 22 23
f 11 23 24
f 11 24 25
f 14 15 17
f 14 17 26
f 15 27 28
f 15 28 17
f 16 29 17
f 17 28 18
f 17 29 26
f 19 28 20
f 20 28 27

