# https://github.com/mikedh/trimesh
v -1.94832687 0.42533869 1.59534615
v -1.94855616 0.40697742 1.59534615
v -1.95340118 0.40730566 1.56829394
v -1.95338886 0.42467759 1.56829394
v -1.94926868 0.43218715 1.59534615
v -1.95517316 0.39216341 1.59534615
v -1.95611496 0.39230021 1.58567260
v -1.95770104 0.39311179 1.56829394
v -1.95968988 0.39547366 1.55388072
v -1.96178404 0.39908483 1.54229065
v -1.95893407 0.40584666 1.54921880
v -1.95815341 0.42467759 1.55091523
v -1.96120170 0.43218715 1.54343021
v -1.95474575 0.43218715 1.56829394
v -1.97771949 0.43218715 1.59534615
v -1.96151768 0.38945506 1.59534615
v -1.97043948 0.38635913 1.56829394
v -1.97218049 0.39205855 1.53354946
v -1.97615816 0.39488092 1.51618374
v -1.96443589 0.40584666 1.53487036
v -1.96149903 0.41066610 1.54153955
v -1.97866751 0.39782637 1.50676918
v -1.97289922 0.40730566 1.51618374
v -1.96154243 0.42467759 1.54165606
v -1.96169736 0.43218715 1.54208342
v -1.98545187 0.43218715 1.57697030
v -1.98366125 0.40103633 1.59534615
v -1.97043948 0.38617219 1.59534615
v -1.97043948 0.38618586 1.58567260
v -1.98780618 0.38560679 1.53354946
v -1.98780618 0.38798233 1.51618374
v -1.98798586 0.39328961 1.50011299
v -1.99389666 0.39517271 1.48643792
v -1.96511734 0.42467759 1.53296676
v -1.97825233 0.40730566 1.50609581
v -1.99239105 0.40730566 1.48427530
v -1.98370464 0.40730566 1.49741940
v -1.97820904 0.42467759 1.50603103
v -1.97288679 0.42467759 1.51618374
v -1.97709997 0.43218715 1.50917787
v -1.99071818 0.43218715 1.56394276
v -1.99721753 0.39928087 1.56307516
v -1.98366125 0.39262851 1.59534615
v -1.97681497 0.38897173 1.59534615
v -2.01161641 0.38667370 1.49238191
v -2.00518531 0.38590774 1.49880503
v -2.00457190 0.39133360 1.48096012
v -2.00996218 0.39477606 1.46917577
v -1.99900815 0.40730566 1.47558595
v -1.98364882 0.42467759 1.49734173
v -1.99234144 0.42467759 1.48419763
v -1.99890893 0.42467759 1.47550827
v -1.97850015 0.43218715 1.50649722
v -2.01064374 0.43218715 1.51245416
v -1.99721753 0.39602079 1.56307516
v -2.01161641 0.40244977 1.51299807
v -2.01161641 0.39297503 1.51349015
v -2.01161641 0.39157982 1.50990307
v -2.01161641 0.39118768 1.47408375
v -2.01161641 0.39426539 1.46843762
v -2.01161641 0.39773974 1.46661168
v -2.00769455 0.40730566 1.46702610
v -2.00760166 0.42467759 1.46692248
v -1.99309735 0.43218715 1.48525947
v -1.99967106 0.43218715 1.47657016
v -2.01161641 0.43160807 1.46406060
v -2.00342566 0.43218715 1.47245211
v -2.01161641 0.43218715 1.50828432
v -2.01161641 0.40730566 1.46334834
v -2.01161641 0.41489279 1.46318000
v -2.01161641 0.42467759 1.46306344
v -2.01161641 0.43218715 1.46417711
f 1 2 3
f 1 3 4
f 1 4 5
f 1 5 15
f 1 15 27
f 1 27 43
f 1 43 44
f 1 44 28
f 1 28 16
f 1 16 6
f 1 6 2
f 2 6 7
f 2 7 8
f 2 8 3
f 3 8 9
f 3 9 10
f 3 10 11
f 3 11 12
f 3 12 4
f 4 12 13
f 4 13 14
f 4 14 5
f 5 14 13
f 5 13 25
f 5 25 40
f 5 40 53
f 5 53 64
f 5 64 65
f 5 65 67
f 5 67 72
f 5 72 68
f 5 68 54
f 5 54 41
f 5 41 26
f 5 26 15
f 6 16 17
f 6 17 7
f 7 17 8
f 8 17 18
f 8 18 9
f 9 18 19
f 9 19 10
f 10 20 21
f 10 21 11
f 10 19 22
f 10 22 23
f 10 23 20
f 11 21 12
f 12 21 24
f 12 24 13
f 13 24 25
f 15 26 27
f 16 28 29
f 16 29 17
f 17 30 31
f 17 31 18
f 17 29 30
f 18 31 19
f 19 31 32
f 19 32 33
f 19 33 22
f 20 23 34
f 20 34 21
f 21 34 24
f 22 35 23
f 22 33 36
f 22 36 37
f 22 37 35
f 23 35 38
f 23 38 39
f 23 39 34
f 24 34 25
f 25 34 39
f 25 39 40
f 26 41 42
f 26 42 27
f 27 42 55
f 27 55 43
f 28 30 29
f 28 44 45
f 28 45 46
f 28 46 30
f 30 46 31
f 31 46 47
f 31 47 32
f 32 47 33
f 33 47 48
f 33 48 49
f 33 49 36
f 35 37 50
f 35 50 38
f 36 51 50
f 36 50 37
f 36 49 52
f 36 52 51
f 38 53 39
f 38 50 53
f 39 53 40
f 41 54 42
f 42 54 56
f 42 56 57
f 42 57 55
f 43 55 57
f 43 57 58
f 43 58 45
f 43 45 44
f 45 58 57
f 45 57 56
f 45 56 68
f 45 68 72
f 45 72 66
f 45 66 71
f 45 71 70
f 45 70 69
f 45 69 61
f 45 61 60
f 45 60 59
f 45 59 46
f 46 59 47
f 47 59 48
f 48 59 60
f 48 60 61
f 48 61 62
f 48 62 49
f 49 62 63
f 49 63 52
f 50 51 53
f 51 64 53
f 51 52 64
f 52 65 64
f 52 63 66
f 52 66 67
f 52 67 65
f 54 68 56
f 61 69 62
f 62 69 70
f 62 70 71
f 62 71 63
f 63 71 66
f 66 72 67

