# https://github.com/mikedh/trimesh
v -1.13938452 1.98501831 3.30581024
v -1.13938452 1.98968085 3.31860760
v -1.13938452 1.98526370 3.30485321
v -1.12993579 0.05988964 3.30581024
v -1.13938452 2.09152000 3.32351518
v -1.12884174 0.05988964 3.31627628
v -1.13938452 1.98968085 3.29245083
v -1.12884174 0.05988964 3.29518284
v -1.12846870 0.04982843 3.29582825
v -1.12884174 0.04933764 3.30581024
v -1.12846870 0.05007388 3.31568089
v -1.13938452 1.99238019 3.29128243
v -1.13938452 2.05790085 3.26732348
v -1.01481169 2.09152000 3.32351518
v -1.13938452 2.10943388 3.32351518
v -1.11904503 0.07731279 3.31689394
v -1.02730623 0.05988964 3.31857426
v -1.11904503 0.05988964 3.28991363
v -1.13938452 2.09250158 3.26667797
v -1.11869685 0.04344818 3.29279580
v -1.11266716 0.03166916 3.29469879
v -1.11266716 0.03166916 3.29905540
v -1.09528669 0.01424612 3.29897752
v -1.07791864 -0.00293158 3.29897752
v -1.02603820 0.04835607 3.31721664
v -1.01238747 2.09397400 3.32351518
v -1.01847929 0.05988964 3.31857426
v -1.01514744 2.10943388 3.32351518
v -1.13938452 2.49225103 3.28482254
v -1.10167698 0.05988964 3.28696465
v -1.10167698 0.04246660 3.28778819
v -1.01238747 2.09250158 3.26667797
v -1.13938452 2.49225103 3.26935996
v -1.10131637 0.02553435 3.29225613
v -1.08394833 0.00811121 3.29225613
v -1.09528669 0.01424612 3.29469879
v -1.07791864 -0.00293158 3.29469879
v -1.06694068 -0.00244079 3.29854359
v -1.02015765 0.04835607 3.31721664
v -1.01238747 1.98869927 3.31932540
v -1.01238747 2.10943388 3.32318688
v -1.01308362 0.05988964 3.30581024
v -1.01238747 2.49225103 3.28482254
v -1.13938452 2.50403005 3.28226855
v -1.06694068 0.02528891 3.28734307
v -1.08429651 0.02528891 3.28796621
v -1.01238747 2.05790085 3.26732348
v -1.01810626 0.05988964 3.29223387
v -1.03219216 0.05988964 3.28734307
v -1.04956021 0.04246660 3.28734307
v -1.01238747 2.49225103 3.26935996
v -1.13938452 2.50403005 3.27459013
v -1.06694068 0.00786587 3.29037542
v -1.06694068 -0.00244079 3.29526072
v -1.05821316 -0.00096842 3.29715811
v -1.02346464 0.03387776 3.29718587
v -1.01931215 0.04271205 3.30410765
v -1.01238747 1.97348473 3.30581024
v -1.02077924 0.04246660 3.29464307
v -1.01238747 1.98845388 3.29136031
v -1.01238747 2.50403005 3.28226855
v -1.04956021 0.02528891 3.28975227
v -1.03219216 0.04246660 3.28975227
v -1.01238747 2.50403005 3.27459013
v -1.05127584 0.00958358 3.29510496
v -1.05821316 -0.00096842 3.29707464
v -1.04083269 0.01645472 3.29715811
v -1.02346464 0.03387776 3.29707464
v -1.03390780 0.02700672 3.29510496
v -1.04083269 0.01645472 3.29707464
f 1 2 5
f 1 5 15
f 1 15 29
f 1 29 44
f 1 44 52
f 1 52 33
f 1 33 19
f 1 19 13
f 1 13 12
f 1 12 7
f 1 7 3
f 1 3 4
f 1 4 2
f 2 4 6
f 2 6 5
f 3 7 4
f 4 8 9
f 4 9 10
f 4 10 11
f 4 11 6
f 4 7 12
f 4 12 13
f 4 13 8
f 5 14 26
f 5 26 28
f 5 28 15
f 5 6 16
f 5 16 17
f 5 17 27
f 5 27 14
f 6 11 17
f 6 17 16
f 8 18 9
f 8 13 19
f 8 19 18
f 9 20 21
f 9 21 10
f 9 18 20
f 10 21 22
f 10 22 11
f 11 22 23
f 11 23 24
f 11 24 25
f 11 25 17
f 14 27 26
f 15 28 43
f 15 43 29
f 17 25 39
f 17 39 27
f 18 30 31
f 18 31 20
f 18 19 30
f 19 32 30
f 19 33 51
f 19 51 32
f 20 31 34
f 20 34 21
f 21 34 35
f 21 35 36
f 21 36 23
f 21 23 22
f 23 36 37
f 23 37 24
f 24 37 54
f 24 54 38
f 24 38 39
f 24 39 25
f 26 40 58
f 26 58 60
f 26 60 47
f 26 47 32
f 26 32 51
f 26 51 64
f 26 64 61
f 26 61 43
f 26 43 41
f 26 41 28
f 26 27 42
f 26 42 40
f 27 39 42
f 28 41 43
f 29 43 61
f 29 61 44
f 30 45 46
f 30 46 31
f 30 32 45
f 31 46 35
f 31 35 34
f 32 47 48
f 32 48 49
f 32 49 50
f 32 50 45
f 33 52 64
f 33 64 51
f 35 53 37
f 35 37 36
f 35 46 53
f 37 53 54
f 38 54 66
f 38 66 55
f 38 55 39
f 39 55 56
f 39 56 57
f 39 57 42
f 40 42 58
f 42 57 59
f 42 59 48
f 42 48 47
f 42 47 60
f 42 60 58
f 44 61 64
f 44 64 52
f 45 50 62
f 45 62 53
f 45 53 46
f 48 59 63
f 48 63 49
f 49 63 50
f 50 63 62
f 53 62 65
f 53 65 66
f 53 66 54
f 55 66 70
f 55 70 67
f 55 67 56
f 56 68 57
f 56 67 70
f 56 70 68
f 57 68 59
f 59 68 69
f 59 69 63
f 62 63 65
f 63 69 65
f 65 69 68
f 65 68 70
f 65 70 66

