# https://github.com/mikedh/trimesh
v -4.71826313 0.75472934 1.80885387
v -4.71811141 0.77212473 1.80885387
v -4.71726198 0.77212473 1.79416859
v -4.71820244 0.73733396 1.80885387
v -4.67242108 0.37512842 1.81075374
v -4.71738326 0.78946057 1.80885387
v -4.71677658 0.78946057 1.79416859
v -4.71568429 0.77212473 1.77681274
v -4.71707992 0.75472934 1.79416859
v -4.71686751 0.73733396 1.79416859
v -4.71765635 0.70260273 1.80885387
v -4.40832102 0.39663441 1.81286235
v -4.42036558 0.39675356 1.81286235
v -4.56954194 0.39836200 1.81286235
v -4.56987562 0.41337449 1.81286235
v -4.56987562 0.86273569 1.81286235
v -4.71729233 0.68520734 1.80885387
v -4.71680682 0.66787151 1.80885387
v -4.71620014 0.65047612 1.80885387
v -4.71535061 0.63308073 1.80885387
v -4.71316614 0.59584741 1.80885387
v -4.71216499 0.58095412 1.80885387
v -4.70831201 0.52632541 1.80885387
v -4.70746247 0.51578097 1.80885387
v -4.69462917 0.37512842 1.80885387
v -4.67220867 0.25419471 1.78273717
v -4.71553268 0.80685595 1.80885387
v -4.71510786 0.80685595 1.79416859
v -4.71510786 0.78946057 1.77681274
v -4.71353027 0.80685595 1.77681274
v -4.71295384 0.77212473 1.75943550
v -4.70606685 0.37512842 1.75818854
v -4.71656417 0.71999812 1.79416859
v -4.71262015 0.78946057 1.75943550
v -4.40835136 0.25419471 1.77869123
v -4.40832102 0.37512842 1.78451930
v -4.40832102 0.86273569 1.81286235
v -4.47248774 0.86279526 1.81154582
v -4.56987562 0.86273569 1.81154582
v -4.66353179 0.86249739 1.80885387
v -4.68091599 0.86166336 1.80885387
v -4.69723825 0.85552732 1.80885387
v -4.70594558 0.84802110 1.80885387
v -4.70873672 0.83932338 1.80885387
v -4.70931316 0.83711918 1.80885387
v -4.71243809 0.82419177 1.80885387
v -4.71292349 0.82151099 1.80885387
v -4.67242108 0.25419471 1.78160794
v -4.71198303 0.82419177 1.79416859
v -4.71122453 0.80685595 1.75943550
v -4.70967718 0.82591942 1.77513764
v -4.70867603 0.82228544 1.75943550
v -4.71237740 0.78946057 1.75818854
v -4.71268074 0.77212473 1.75818854
v -4.67242108 0.25419471 1.75818854
v -4.40835136 0.25419471 1.76324597
v -4.40832102 0.37512842 1.76259305
v -4.40832102 0.86279526 1.81154582
v -4.66353179 0.86136549 1.79416859
v -4.68091599 0.86047189 1.79416859
v -4.69669216 0.85493159 1.79416859
v -4.70539949 0.84694878 1.79416859
v -4.70843328 0.83825108 1.79416859
v -4.70770523 0.83574898 1.77980974
v -4.70855466 0.82192799 1.75818854
v -4.71098178 0.80685595 1.75818854
v -4.70640064 0.83104271 1.75943550
v -4.66635328 0.25419471 1.75818854
v -4.62879373 0.25419471 1.75835981
v -4.62879373 0.25532656 1.75818854
v -4.40835136 0.33658450 1.75818854
v -4.40832102 0.59960056 1.75818854
v -4.40832102 0.86136549 1.79416859
v -4.56987562 0.85987617 1.78738252
v -4.66353179 0.85737409 1.77681274
v -4.68091599 0.85654007 1.77681274
v -4.69396170 0.85290610 1.77681274
v -4.70348811 0.84158718 1.77513764
v -4.70612754 0.83056611 1.75818854
v -4.69696526 0.84248078 1.75985294
v -4.69666182 0.84188503 1.75818854
v -4.40832102 0.85058275 1.75818854
v -4.40832102 0.85868469 1.78218057
v -4.56987562 0.85743367 1.77681274
v -4.66353179 0.85225080 1.76271614
v -4.68091599 0.85183377 1.76376511
v -4.69101884 0.85099975 1.76591116
v -4.68382851 0.84927212 1.75818854
v -4.47248774 0.85058275 1.75818854
v -4.56987562 0.85165505 1.76094471
v -4.40832102 0.85231037 1.76271614
v -4.40832102 0.85743367 1.77681274
v -4.56987562 0.85231037 1.76271614
v -4.66353179 0.85052317 1.75818854
v -4.68091599 0.84974872 1.75818854
f 1 2 3
f 1 3 4
f 1 4 5
f 1 5 2
f 2 6 7
f 2 7 3
f 2 5 6
f 3 7 8
f 3 8 9
f 3 9 4
f 4 9 10
f 4 10 11
f 4 11 5
f 5 12 13
f 5 13 14
f 5 14 15
f 5 15 16
f 5 16 6
f 5 11 17
f 5 17 18
f 5 18 19
f 5 19 20
f 5 20 21
f 5 21 22
f 5 22 23
f 5 23 24
f 5 24 25
f 5 25 26
f 5 26 12
f 6 27 28
f 6 28 7
f 6 16 27
f 7 29 8
f 7 28 30
f 7 30 29
f 8 31 32
f 8 32 33
f 8 33 10
f 8 10 9
f 8 29 34
f 8 34 31
f 10 33 11
f 11 33 32
f 11 32 17
f 12 26 35
f 12 35 36
f 12 36 57
f 12 57 72
f 12 72 82
f 12 82 91
f 12 91 92
f 12 92 83
f 12 83 73
f 12 73 58
f 12 58 37
f 12 37 16
f 12 16 15
f 12 15 14
f 12 14 13
f 16 37 58
f 16 58 38
f 16 38 39
f 16 39 40
f 16 40 41
f 16 41 42
f 16 42 43
f 16 43 44
f 16 44 45
f 16 45 46
f 16 46 47
f 16 47 27
f 17 32 18
f 18 32 19
f 19 32 20
f 20 32 21
f 21 32 22
f 22 32 23
f 23 32 24
f 24 32 25
f 25 32 26
f 26 48 55
f 26 55 68
f 26 68 69
f 26 69 56
f 26 56 35
f 26 32 48
f 27 47 28
f 28 47 49
f 28 49 30
f 29 30 50
f 29 50 34
f 30 49 51
f 30 51 52
f 30 52 50
f 31 34 53
f 31 53 54
f 31 54 32
f 32 55 48
f 32 54 53
f 32 53 66
f 32 66 65
f 32 65 79
f 32 79 81
f 32 81 88
f 32 88 95
f 32 95 94
f 32 94 89
f 32 89 82
f 32 82 72
f 32 72 71
f 32 71 70
f 32 70 68
f 32 68 55
f 34 50 66
f 34 66 53
f 35 56 57
f 35 57 36
f 38 40 39
f 38 58 73
f 38 73 59
f 38 59 40
f 40 59 41
f 41 59 60
f 41 60 61
f 41 61 42
f 42 61 43
f 43 62 63
f 43 63 44
f 43 61 62
f 44 63 45
f 45 63 49
f 45 49 46
f 46 49 47
f 49 63 64
f 49 64 51
f 50 52 65
f 50 65 66
f 51 64 52
f 52 64 67
f 52 67 65
f 56 69 70
f 56 70 71
f 56 71 57
f 57 71 72
f 59 73 74
f 59 74 75
f 59 75 76
f 59 76 60
f 60 76 77
f 60 77 61
f 61 77 62
f 62 78 67
f 62 67 64
f 62 64 63
f 62 77 78
f 65 67 79
f 67 78 80
f 67 80 81
f 67 81 79
f 68 70 69
f 73 83 74
f 74 83 84
f 74 84 75
f 75 84 93
f 75 93 85
f 75 85 86
f 75 86 76
f 76 86 87
f 76 87 77
f 77 87 80
f 77 80 78
f 80 87 81
f 81 87 88
f 82 89 90
f 82 90 91
f 83 92 84
f 84 92 91
f 84 91 93
f 85 93 90
f 85 90 94
f 85 94 95
f 85 95 86
f 86 95 87
f 87 95 88
f 89 94 90
f 90 93 91

