# https://github.com/mikedh/trimesh
v -3.69273427 0.67681863 2.83317049
v -3.69273427 0.85763235 2.83317049
v -3.66422539 0.67681863 2.83317049
v -3.69273427 0.67681863 3.36370162
v -3.69056645 0.85694202 2.83317049
v -3.69273427 0.85763235 3.36370162
v -3.64534350 0.72425681 2.83317049
v -3.66202551 0.68234132 3.36370162
v -3.66422539 0.67681863 3.36370162
v -3.68814847 0.85587998 2.83317049
v -3.69056645 0.85694202 3.36370162
v -3.64426600 0.72696500 2.83317049
v -3.64183520 0.73307179 3.36370162
v -3.64534350 0.72425681 3.36370162
v -3.67877808 0.85173797 2.83317049
v -3.67877808 0.85173797 3.36370162
v -3.64009709 0.73744389 2.83317049
v -3.64009709 0.73744389 3.36370162
v -3.67187693 0.84844563 2.83317049
v -3.67009393 0.84757829 3.36370162
v -3.63875662 0.74100177 2.83317049
v -3.63572937 0.74905561 3.36370162
v -3.67009393 0.84757829 2.83317049
v -3.65699076 0.83890491 3.36370162
v -3.66740018 0.84580823 2.83317049
v -3.63356794 0.75480836 2.83317049
v -3.63356794 0.75480836 3.36370162
v -3.65410460 0.83662151 3.36370162
v -3.65699076 0.83890491 2.83317049
v -3.63286244 0.75703871 2.83317049
v -3.63013020 0.76567670 3.36370162
v -3.64830019 0.83201929 3.36370162
v -3.64830019 0.83201929 2.83317049
v -3.63013020 0.76567670 2.83317049
v -3.62867430 0.77435005 3.36370162
v -3.64046907 0.82332820 3.36370162
v -3.64046907 0.82332820 2.83317049
v -3.62867430 0.77435005 2.83317049
v -3.62722480 0.78955507 3.36370162
v -3.62721840 0.78955507 2.83317049
v -3.63178494 0.81070754 3.36370162
v -3.63178494 0.81070754 2.83317049
v -3.62830872 0.80201642 3.36370162
v -3.62830872 0.80201642 2.83317049
f 1 2 5
f 1 5 10
f 1 10 15
f 1 15 19
f 1 19 23
f 1 23 25
f 1 25 29
f 1 29 33
f 1 33 37
f 1 37 42
f 1 42 44
f 1 44 40
f 1 40 38
f 1 38 34
f 1 34 30
f 1 30 26
f 1 26 21
f 1 21 17
f 1 17 12
f 1 12 7
f 1 7 3
f 1 3 9
f 1 9 4
f 1 4 6
f 1 6 2
f 2 6 11
f 2 11 5
f 3 7 8
f 3 8 9
f 4 9 8
f 4 8 14
f 4 14 13
f 4 13 18
f 4 18 22
f 4 22 27
f 4 27 31
f 4 31 35
f 4 35 39
f 4 39 43
f 4 43 41
f 4 41 36
f 4 36 32
f 4 32 28
f 4 28 24
f 4 24 20
f 4 20 16
f 4 16 11
f 4 11 6
f 5 11 10
f 7 12 13
f 7 13 14
f 7 14 8
f 10 11 16
f 10 16 15
f 12 17 13
f 13 17 18
f 15 16 19
f 16 20 19
f 17 21 18
f 18 21 22
f 19 20 23
f 20 24 25
f 20 25 23
f 21 26 22
f 22 26 27
f 24 28 29
f 24 29 25
f 26 30 27
f 27 30 31
f 28 32 33
f 28 33 29
f 30 34 31
f 31 34 38
f 31 38 35
f 32 36 37
f 32 37 33
f 35 38 40
f 35 40 39
f 36 41 42
f 36 42 37
f 39 40 43
f 40 44 43
f 41 43 44
f 41 44 42

