# https://github.com/mikedh/trimesh
v -3.12739424 0.49420425 2.74898102
v -3.12735564 0.48205007 2.74898102
v -3.12361073 0.47682849 2.75504742
v -3.12363004 0.49420425 2.75508061
v -3.12739424 0.65052707 2.74898102
v -3.12733634 0.47682849 2.74898102
v -3.11569623 0.47682849 2.76718685
v -3.10899785 0.46682781 2.77664485
v -3.11573484 0.49420425 2.76718685
v -3.12363004 0.65052707 2.75508061
v -3.12359142 0.66790283 2.75501423
v -3.12729772 0.66790283 2.74898102
v -3.12612020 0.46906986 2.74898102
v -3.10926810 0.47682849 2.77704306
v -3.08108474 0.47682849 2.81678656
v -3.12463383 0.46349425 2.74898102
v -3.11077379 0.46349425 2.77171341
v -3.07876829 0.46349425 2.81678656
v -3.10928740 0.49420425 2.77705631
v -3.11573484 0.65052707 2.76718685
v -3.11567692 0.66790283 2.76718685
v -3.10917159 0.68527860 2.77689703
v -3.11548388 0.68527860 2.76718685
v -3.12349492 0.68527860 2.75484832
v -3.12723982 0.67333092 2.74898102
v -3.08114265 0.49420425 2.81678656
v -3.04095240 0.46349425 2.74898102
v -2.93018794 0.46349425 2.81678656
v -3.10928740 0.65052707 2.77705631
v -3.10924880 0.66790283 2.77702317
v -3.08050563 0.58108306 2.81678656
v -3.08033190 0.59845882 2.81678656
v -3.07969488 0.65052707 2.81678656
v -3.10903647 0.70265436 2.77671119
v -3.11523294 0.70265436 2.76718685
v -3.12337908 0.70265436 2.75464917
v -3.12685374 0.70265436 2.74898102
v -3.12708539 0.68527860 2.74898102
v -3.08104614 0.51158001 2.81678656
v -2.93018794 0.46349425 2.81072016
v -3.05203270 0.66790283 2.74898102
v -2.93018794 0.47440945 2.81678656
v -3.08079519 0.54633153 2.81678656
v -3.07905786 0.66831585 2.81678656
v -3.10216434 0.72003012 2.78508731
v -3.10884342 0.72003012 2.77640588
v -3.10863108 0.72920472 2.77608732
v -3.12299302 0.72003012 2.75389253
v -3.12652558 0.70929196 2.74898102
v -3.05330677 0.68527860 2.74898102
v -2.93794802 0.68527860 2.81678656
v -2.93655815 0.66790283 2.81678656
v -3.06961836 0.73740588 2.81678656
v -3.07517782 0.73740588 2.81201439
v -3.08386447 0.73740588 2.80331308
v -3.09253182 0.73740588 2.79462496
v -3.09347770 0.72003012 2.79554093
v -3.11135290 0.73327581 2.76718685
v -3.12592716 0.72003012 2.74898102
v -3.09147012 0.74643301 2.79359621
v -3.05608650 0.70265436 2.74898102
v -3.05819057 0.71463155 2.74898102
v -3.05921368 0.72003012 2.74898102
v -2.94441475 0.70265436 2.81678656
v -3.06469593 0.74737705 2.81678656
v -3.07434775 0.74681651 2.81121131
v -3.11836012 0.73610787 2.74898102
v -3.10677792 0.74197848 2.76718685
v -3.08104614 0.74911754 2.80040599
v -3.06506270 0.75717117 2.80193252
v -3.09421124 0.74843904 2.78455634
v -3.06593137 0.73666835 2.74898102
v -2.94499385 0.70401140 2.81678656
v -3.05979278 0.75242163 2.81678656
v -3.06506270 0.75038609 2.81520690
v -3.10743426 0.74587252 2.74981067
v -3.10710609 0.74572500 2.74898102
v -3.09809128 0.74970754 2.76718685
v -3.08243600 0.75430965 2.78455634
v -3.04508340 0.75994419 2.81678656
v -3.04093311 0.76380877 2.81262506
v -2.95217483 0.71961711 2.81678656
v -3.06855665 0.73899890 2.74898102
v -2.96101590 0.73740588 2.81678656
v -3.09874759 0.74796705 2.74981067
v -3.09849666 0.74784904 2.74898102
v -3.08243600 0.75395562 2.76718685
v -3.04093311 0.76380877 2.80888832
v -3.06506270 0.75817418 2.78455634
v -3.03404170 0.76433979 2.81678656
v -3.08260973 0.74776054 2.74898102
v -3.07012026 0.74787855 2.75581069
v -2.97931579 0.75345411 2.81678656
v -3.08409611 0.74846855 2.74898102
v -3.03031609 0.76407431 2.80864272
v -3.01973768 0.76395625 2.80971797
v -3.03068287 0.76448727 2.81678656
v -2.99556946 0.76015069 2.81678656
v -2.98917997 0.75787918 2.81678656
v -3.01506619 0.76484130 2.81678656
f 1 2 3
f 1 3 4
f 1 4 10
f 1 10 5
f 1 5 12
f 1 12 25
f 1 25 38
f 1 38 37
f 1 37 49
f 1 49 59
f 1 59 67
f 1 67 77
f 1 77 86
f 1 86 94
f 1 94 91
f 1 91 83
f 1 83 72
f 1 72 63
f 1 63 62
f 1 62 61
f 1 61 50
f 1 50 41
f 1 41 27
f 1 27 16
f 1 16 13
f 1 13 6
f 1 6 2
f 2 6 3
f 3 7 4
f 3 6 8
f 3 8 7
f 4 7 9
f 4 9 20
f 4 20 10
f 5 10 11
f 5 11 12
f 6 13 8
f 7 14 9
f 7 8 14
f 8 15 14
f 8 13 16
f 8 16 17
f 8 17 18
f 8 18 15
f 9 14 19
f 9 19 29
f 9 29 20
f 10 20 21
f 10 21 11
f 11 21 22
f 11 22 23
f 11 23 24
f 11 24 25
f 11 25 12
f 14 15 26
f 14 26 19
f 15 18 28
f 15 28 42
f 15 42 52
f 15 52 51
f 15 51 64
f 15 64 73
f 15 73 82
f 15 82 84
f 15 84 93
f 15 93 99
f 15 99 98
f 15 98 100
f 15 100 97
f 15 97 90
f 15 90 80
f 15 80 74
f 15 74 65
f 15 65 53
f 15 53 44
f 15 44 33
f 15 33 32
f 15 32 31
f 15 31 43
f 15 43 39
f 15 39 26
f 16 27 40
f 16 40 28
f 16 28 18
f 16 18 17
f 19 26 29
f 20 29 21
f 21 30 22
f 21 29 30
f 22 30 31
f 22 31 32
f 22 32 33
f 22 33 34
f 22 34 35
f 22 35 23
f 23 35 36
f 23 36 24
f 24 36 37
f 24 37 38
f 24 38 25
f 26 39 30
f 26 30 29
f 27 41 40
f 28 40 42
f 30 39 43
f 30 43 31
f 33 44 45
f 33 45 46
f 33 46 34
f 34 46 35
f 35 46 36
f 36 46 47
f 36 47 48
f 36 48 37
f 37 48 49
f 40 41 50
f 40 50 51
f 40 51 52
f 40 52 42
f 44 53 54
f 44 54 55
f 44 55 56
f 44 56 57
f 44 57 45
f 45 57 56
f 45 56 47
f 45 47 46
f 47 58 59
f 47 59 48
f 47 56 60
f 47 60 58
f 48 59 49
f 50 61 51
f 51 61 62
f 51 62 63
f 51 63 64
f 53 65 66
f 53 66 54
f 54 66 55
f 55 66 56
f 56 66 60
f 58 67 59
f 58 60 68
f 58 68 67
f 60 66 69
f 60 69 70
f 60 70 71
f 60 71 68
f 63 72 64
f 64 72 73
f 65 74 75
f 65 75 66
f 66 75 69
f 67 68 76
f 67 76 77
f 68 71 78
f 68 78 76
f 69 75 70
f 70 79 71
f 70 75 74
f 70 74 80
f 70 80 81
f 70 81 79
f 71 79 78
f 72 82 73
f 72 83 84
f 72 84 82
f 76 85 86
f 76 86 77
f 76 78 87
f 76 87 85
f 78 79 87
f 79 81 88
f 79 88 89
f 79 89 87
f 80 90 81
f 81 90 88
f 83 91 92
f 83 92 93
f 83 93 84
f 85 87 86
f 86 87 94
f 87 89 95
f 87 95 96
f 87 96 94
f 88 90 97
f 88 97 95
f 88 95 89
f 91 94 92
f 92 94 98
f 92 98 99
f 92 99 93
f 94 96 98
f 95 97 100
f 95 100 96
f 96 100 98

