# https://github.com/mikedh/trimesh
v -5.07467159 0.32046015 1.47706059
v -5.07467159 0.30309003 1.47616290
v -5.07027241 0.30309003 1.47398811
v -5.06976702 0.32046015 1.47445596
v -5.07467159 0.33783027 1.47597322
v -5.07128754 0.29336157 1.47315365
v -5.07467159 0.29121324 1.47379849
v -5.03086932 0.21835701 1.42720549
v -5.07062473 0.33783027 1.47373526
v -5.07147768 0.34758938 1.47302720
v -5.07467159 0.34415221 1.47520193
v -5.07467159 0.28581198 1.47149725
v -5.04408550 0.21835701 1.43140329
v -5.03033162 0.21835701 1.42546065
v -5.02777277 0.25097968 1.41193161
v -5.02866735 0.26834980 1.41193161
v -5.03001181 0.28571991 1.41193161
v -5.03168064 0.23357891 1.42597904
v -5.06444074 0.33783027 1.46403735
v -5.06719429 0.35409557 1.46477068
v -5.03593151 0.53184769 1.37107899
v -5.07402266 0.35912855 1.47104209
v -5.07467159 0.35860690 1.47159843
v -5.07467159 0.34995250 1.47422838
v -5.07467159 0.28271232 1.46944897
v -5.04583324 0.21835701 1.43184582
v -5.02736949 0.21835701 1.41193161
v -5.02731833 0.23357891 1.41193161
v -5.03569498 0.53184769 1.36437769
v -5.03569498 0.53184769 1.36968818
v -5.03576913 0.52890151 1.37145834
v -5.03529170 0.37257050 1.40523031
v -5.03274217 0.25097968 1.42467672
v -5.03412350 0.42465015 1.39122084
v -5.03645990 0.38990991 1.40395327
v -5.03711815 0.39877911 1.40328316
v -5.03663140 0.47258673 1.38655519
v -5.03747524 0.48421796 1.38513911
v -5.04410414 0.53184769 1.37799523
v -5.07467159 0.36072447 1.47075128
v -5.04646829 0.53184769 1.37974013
v -5.07467159 0.27270765 1.46160971
v -5.05769128 0.21835701 1.42525834
v -5.02804617 0.21835701 1.41038908
v -5.03356736 0.38990991 1.38032174
v -5.03549572 0.49416127 1.36573060
v -5.03538905 0.51153139 1.36504786
v -5.03677514 0.53184769 1.36230409
v -5.05338013 0.52242608 1.38621384
v -5.05529005 0.52242608 1.38621384
v -5.07467159 0.37333770 1.46364536
v -5.06239183 0.53184769 1.37842513
v -5.07467159 0.26773597 1.45241756
v -5.05874349 0.21835701 1.41193161
v -5.07467159 0.25555233 1.42878598
v -5.07467159 0.25233005 1.41193161
v -5.03365539 0.21835701 1.40043826
v -5.03278856 0.23357891 1.39940149
v -5.03218127 0.25097968 1.39832670
v -5.03180574 0.26834980 1.39710025
v -5.03162037 0.28571991 1.39560826
v -5.03387785 0.37257050 1.38154819
v -5.03682610 0.44564158 1.36812033
v -5.03590376 0.47676045 1.36667893
v -5.03582940 0.47973733 1.36651452
v -5.04282927 0.53184769 1.35387059
v -5.07467159 0.37876972 1.46043380
v -5.07239091 0.53184769 1.36949851
v -5.05556346 0.21835701 1.40213257
v -5.07467159 0.25272897 1.40156359
v -5.07467159 0.25751652 1.36088801
v -5.03526850 0.21835701 1.40016009
v -5.06997559 0.25825306 1.36088801
v -5.06272096 0.26834980 1.36088801
v -5.05564694 0.28470716 1.36088801
v -5.05396879 0.29287047 1.36088801
v -5.05300917 0.30299796 1.36088801
v -5.03556055 0.32046015 1.38426664
v -5.03482815 0.33783027 1.38345744
v -5.03729897 0.43410240 1.36863872
v -5.05001928 0.53184769 1.34790263
v -5.07467159 0.38251381 1.45722224
v -5.07249281 0.53184769 1.36593291
v -5.04583324 0.21835701 1.39932557
v -5.07467159 0.40184801 1.36088801
v -5.05865070 0.53184769 1.34799117
v -5.07467159 0.38806855 1.44653809
v -5.06700414 0.53184769 1.35758790
v -5.07467159 0.40365867 1.36179834
v -5.07467159 0.40964309 1.37718604
v -5.07467159 0.40952032 1.38647933
v -5.07467159 0.40936689 1.39457148
v -5.07467159 0.40596037 1.40583725
v -5.07467159 0.39647740 1.42905151
f 1 2 3
f 1 3 4
f 1 4 5
f 1 5 11
f 1 11 24
f 1 24 23
f 1 23 40
f 1 40 51
f 1 51 67
f 1 67 82
f 1 82 87
f 1 87 94
f 1 94 93
f 1 93 92
f 1 92 91
f 1 91 90
f 1 90 89
f 1 89 85
f 1 85 71
f 1 71 70
f 1 70 56
f 1 56 55
f 1 55 53
f 1 53 42
f 1 42 25
f 1 25 12
f 1 12 7
f 1 7 2
f 2 6 3
f 2 7 6
f 3 6 8
f 3 8 4
f 4 9 5
f 4 8 9
f 5 9 10
f 5 10 11
f 6 7 8
f 7 12 8
f 8 13 26
f 8 26 43
f 8 43 54
f 8 54 69
f 8 69 84
f 8 84 72
f 8 72 57
f 8 57 44
f 8 44 27
f 8 27 14
f 8 14 15
f 8 15 16
f 8 16 17
f 8 17 18
f 8 18 19
f 8 19 9
f 8 12 13
f 9 19 10
f 10 19 20
f 10 20 21
f 10 21 22
f 10 22 23
f 10 23 24
f 10 24 11
f 12 25 26
f 12 26 13
f 14 27 28
f 14 28 15
f 15 28 29
f 15 29 30
f 15 30 31
f 15 31 16
f 16 31 17
f 17 32 33
f 17 33 18
f 17 31 34
f 17 34 32
f 18 33 19
f 19 35 36
f 19 36 37
f 19 37 20
f 19 33 35
f 20 37 38
f 20 38 21
f 21 31 30
f 21 30 29
f 21 29 48
f 21 48 66
f 21 66 81
f 21 81 86
f 21 86 88
f 21 88 83
f 21 83 68
f 21 68 52
f 21 52 41
f 21 41 39
f 21 39 22
f 21 38 37
f 21 37 31
f 22 40 23
f 22 39 41
f 22 41 40
f 25 42 26
f 26 42 43
f 27 44 45
f 27 45 46
f 27 46 47
f 27 47 28
f 28 47 29
f 29 47 48
f 31 37 34
f 32 35 33
f 32 34 37
f 32 37 35
f 35 37 36
f 40 41 49
f 40 49 50
f 40 50 51
f 41 52 50
f 41 50 49
f 42 53 43
f 43 53 55
f 43 55 56
f 43 56 54
f 44 57 58
f 44 58 59
f 44 59 60
f 44 60 61
f 44 61 45
f 45 61 62
f 45 62 63
f 45 63 64
f 45 64 65
f 45 65 46
f 46 65 66
f 46 66 47
f 47 66 48
f 50 52 51
f 51 52 67
f 52 68 67
f 54 56 70
f 54 70 71
f 54 71 69
f 57 72 73
f 57 73 74
f 57 74 75
f 57 75 76
f 57 76 58
f 58 76 77
f 58 77 78
f 58 78 59
f 59 78 79
f 59 79 60
f 60 79 62
f 60 62 61
f 62 79 63
f 63 80 77
f 63 77 66
f 63 66 65
f 63 65 64
f 63 79 80
f 66 77 81
f 67 68 82
f 68 83 82
f 69 71 84
f 71 73 72
f 71 72 84
f 71 85 86
f 71 86 81
f 71 81 73
f 73 81 74
f 74 81 75
f 75 81 76
f 76 81 77
f 77 80 78
f 78 80 79
f 82 83 87
f 83 88 85
f 83 85 89
f 83 89 90
f 83 90 91
f 83 91 92
f 83 92 93
f 83 93 94
f 83 94 87
f 85 88 86

