# https://github.com/mikedh/trimesh
v -4.59403040 0.59843624 1.53209273
v -4.59403040 0.59834770 1.53211489
v -4.61144060 0.59834770 1.53213701
v -4.61144060 0.59843624 1.53213701
v -4.59403040 0.61580859 1.53485918
v -4.40832091 0.59843624 1.53209273
v -4.40832091 0.59834770 1.53211489
v -4.62879197 0.59834770 1.53218128
v -4.62879197 0.59843624 1.53218128
v -4.61144060 0.61580859 1.53490345
v -4.59403040 0.62709724 1.54006009
v -4.40832091 0.61580859 1.53485918
v -4.61144060 0.62707678 1.54008220
v -4.40832091 0.59834770 1.55074963
v -4.64617275 0.59834770 1.53224766
v -4.64617275 0.59843624 1.53224766
v -4.62879197 0.61580859 1.53501411
v -4.59403040 0.63282669 1.55094878
v -4.40832091 0.62886854 1.54342410
v -4.40832091 0.62709724 1.54006009
v -4.62879197 0.62697462 1.54014864
v -4.62879197 0.63266316 1.55094878
v -4.61144060 0.63279262 1.55094878
v -4.40832091 0.59964892 1.75818854
v -4.66476140 0.59888592 1.75818854
v -4.67516044 0.59834770 1.55526444
v -4.66373032 0.59834770 1.53251320
v -4.64617275 0.61580859 1.53521326
v -4.66355354 0.59843624 1.53251320
v -4.40832091 0.63282669 1.55094878
v -4.66358305 0.66793924 1.73738490
v -4.64620227 0.66793924 1.73734062
v -4.64617275 0.62681793 1.54030352
v -4.64617275 0.63246562 1.55094878
v -4.40832091 0.66793924 1.75818854
v -4.66652892 0.59888592 1.75818854
v -4.70556208 0.59888592 1.75816640
v -4.70724126 0.59888592 1.75172614
v -4.70836068 0.59888592 1.74247513
v -4.70927391 0.59888592 1.72465925
v -4.67516044 0.59834770 1.53322147
v -4.66355354 0.61580859 1.53570017
v -4.66355354 0.62649771 1.54056911
v -4.40832091 0.66793924 1.73734062
v -4.68090491 0.66793924 1.73844720
v -4.66355354 0.63207730 1.55094878
v -4.70573886 0.66793924 1.75818854
v -4.70514969 0.61161881 1.75818854
v -4.70523803 0.61461636 1.75818854
v -4.70927391 0.59888592 1.65093909
v -4.67516044 0.61580859 1.53669609
v -4.67516044 0.62238286 1.53944042
v -4.67516044 0.62592546 1.54105601
v -4.67516044 0.62943400 1.54749628
v -4.69625305 0.66793924 1.74508667
v -4.67516044 0.63395761 1.56254574
v -4.67516044 0.63128023 1.55094878
v -4.70497291 0.66793924 1.75573196
v -4.70497291 0.61946703 1.65093909
v -4.70788936 0.61078083 1.65093909
f 1 2 3
f 1 3 4
f 1 4 10
f 1 10 5
f 1 5 12
f 1 12 6
f 1 6 7
f 1 7 2
f 2 7 14
f 2 14 26
f 2 26 41
f 2 41 27
f 2 27 15
f 2 15 8
f 2 8 3
f 3 8 9
f 3 9 4
f 4 9 10
f 5 11 20
f 5 20 12
f 5 10 13
f 5 13 11
f 6 12 20
f 6 20 19
f 6 19 30
f 6 30 44
f 6 44 35
f 6 35 24
f 6 24 14
f 6 14 7
f 8 15 16
f 8 16 9
f 9 16 10
f 10 16 17
f 10 17 13
f 11 13 18
f 11 18 19
f 11 19 20
f 13 17 21
f 13 21 22
f 13 22 23
f 13 23 18
f 14 24 25
f 14 25 26
f 15 27 16
f 16 28 17
f 16 27 29
f 16 29 28
f 17 28 21
f 18 30 19
f 18 23 31
f 18 31 32
f 18 32 44
f 18 44 30
f 21 28 33
f 21 33 34
f 21 34 22
f 22 34 31
f 22 31 23
f 24 35 47
f 24 47 49
f 24 49 48
f 24 48 36
f 24 36 25
f 25 36 26
f 26 36 37
f 26 37 38
f 26 38 39
f 26 39 40
f 26 40 50
f 26 50 41
f 27 41 29
f 28 29 42
f 28 42 43
f 28 43 33
f 29 41 42
f 31 45 55
f 31 55 58
f 31 58 47
f 31 47 35
f 31 35 44
f 31 44 32
f 31 34 45
f 33 43 46
f 33 46 34
f 34 46 45
f 36 48 37
f 37 48 49
f 37 49 47
f 37 47 38
f 38 47 39
f 39 47 40
f 40 47 50
f 41 50 51
f 41 51 42
f 42 51 52
f 42 52 43
f 43 52 53
f 43 53 54
f 43 54 46
f 45 46 56
f 45 56 55
f 46 54 57
f 46 57 56
f 47 58 57
f 47 57 59
f 47 59 60
f 47 60 50
f 50 60 51
f 51 60 52
f 52 60 53
f 53 60 59
f 53 59 54
f 54 59 57
f 55 56 58
f 56 57 58

