# https://github.com/mikedh/trimesh
v -3.73941698 0.38333905 1.79126236
v -3.73941698 0.23322244 1.78268772
v -3.73941698 0.38333905 1.76300158
v -3.98892719 0.38333905 1.79071526
v -3.74271450 0.23306067 1.78212107
v -3.73941698 0.23306067 1.77009119
v -3.98892719 0.23306067 1.78191591
v -3.73941698 0.35516652 1.75981664
v -3.74271450 0.35516652 1.75978733
v -3.74271450 0.38333905 1.76298530
v -3.98892719 0.38333905 1.76295273
v -3.73941698 0.23306067 1.76333700
v -3.98892719 0.23306067 1.76326862
v -3.73941698 0.35187112 1.75947470
v -3.74271450 0.33779215 1.75800596
v -3.76008125 0.35516652 1.75976778
v -3.76008125 0.38333905 1.76294947
v -3.75348632 0.38333905 1.76296252
v -3.88169765 0.35516652 1.75977754
v -3.98892719 0.35516652 1.75982640
v -3.85773586 0.38333905 1.76293321
v -3.84696405 0.35516652 1.75976778
v -3.86430641 0.35516652 1.75977104
v -3.74220155 0.23306067 1.76332398
v -3.73941698 0.33779215 1.75803200
v -3.98892719 0.33779215 1.75801248
v -3.91643121 0.33779215 1.75799620
v -3.77744806 0.33779215 1.75799293
v -3.77695955 0.23306067 1.76326862
v -3.75956830 0.23306067 1.76328491
v -3.76008125 0.33779215 1.75799620
v -3.77744806 0.38333905 1.76293321
v -3.98892719 0.34077862 1.75832185
f 1 2 6
f 1 6 12
f 1 12 25
f 1 25 14
f 1 14 8
f 1 8 3
f 1 3 10
f 1 10 18
f 1 18 17
f 1 17 32
f 1 32 21
f 1 21 11
f 1 11 4
f 1 4 2
f 2 5 6
f 2 4 7
f 2 7 5
f 3 8 9
f 3 9 10
f 4 11 20
f 4 20 33
f 4 33 26
f 4 26 13
f 4 13 7
f 5 7 13
f 5 13 29
f 5 29 30
f 5 30 24
f 5 24 12
f 5 12 6
f 8 14 9
f 9 15 16
f 9 16 17
f 9 17 18
f 9 18 10
f 9 14 15
f 11 19 20
f 11 21 22
f 11 22 23
f 11 23 19
f 12 24 15
f 12 15 25
f 13 26 27
f 13 27 28
f 13 28 29
f 14 25 15
f 15 24 30
f 15 30 29
f 15 29 31
f 15 31 16
f 16 32 17
f 16 31 28
f 16 28 22
f 16 22 21
f 16 21 32
f 19 33 20
f 19 23 33
f 22 28 27
f 22 27 23
f 23 27 26
f 23 26 33
f 28 31 29

