# https://github.com/mikedh/trimesh
v -1.51308729 0.47541350 1.44581501
v -1.37320152 0.47541350 1.44581501
v -1.36160943 0.47541350 1.59534447
v -1.36068191 0.63315338 1.59534447
v -1.50543641 0.66792355 1.44581501
v -1.35199831 0.47541350 1.47089032
v -1.37301179 0.47682921 1.44581501
v -1.29814746 0.47541350 1.59534447
v -1.35986003 0.65053846 1.59534447
v -1.50398217 0.68528030 1.44581501
v -1.34489549 0.47541350 1.48140053
v -1.35193513 0.47682921 1.47081710
v -1.34457942 0.47682921 1.48142984
v -1.37301179 0.49418597 1.44581501
v -1.35193513 0.49418597 1.47080249
v -1.29962283 0.47541350 1.58566861
v -1.29791569 0.47682921 1.59534447
v -1.35777343 0.66764040 1.59534447
v -1.35509672 0.68321333 1.59534447
v -1.35387426 0.69003714 1.59534447
v -1.35336845 0.69284025 1.59534447
v -1.49881828 0.70252382 1.44581501
v -1.33193346 0.47541350 1.50085476
v -1.33178578 0.47682921 1.50062055
v -1.34441081 0.49418597 1.48142984
v -1.37315927 0.51157105 1.44581501
v -1.35193513 0.66792355 1.47081710
v -1.35193513 0.65053846 1.47080249
v -1.30122475 0.47541350 1.57608058
v -1.29949648 0.47682921 1.58566861
v -1.29778934 0.49418597 1.59534447
v -1.35199831 0.69499215 1.59534447
v -1.48370647 0.73740723 1.44581501
v -1.49142052 0.72005047 1.44581501
v -1.32242776 0.47541350 1.51694214
v -1.32308125 0.47682921 1.51559545
v -1.33743435 0.49418597 1.49191079
v -1.33174373 0.49418597 1.50060590
v -1.32306012 0.49418597 1.51553688
v -1.34441081 0.65053846 1.48142984
v -1.37377050 0.58105473 1.44581501
v -1.35201943 0.68528030 1.47090492
v -1.34445286 0.66792355 1.48142984
v -1.31863402 0.47541350 1.52430516
v -1.31538833 0.47682921 1.53354190
v -1.30120363 0.47682921 1.57602202
v -1.29939105 0.49418597 1.58566861
v -1.29778934 0.61582490 1.59534447
v -1.34706640 0.70269366 1.59534447
v -1.46520109 0.75414105 1.44581501
v -1.33766633 0.71215073 1.59534447
v -1.31861289 0.47682921 1.52426124
v -1.31857084 0.49418597 1.52420268
v -1.33743435 0.65053846 1.49191079
v -1.33174373 0.65053846 1.50060590
v -1.32306012 0.65053846 1.51553688
v -1.37396023 0.59843982 1.44581501
v -1.35227234 0.72005047 1.47118304
v -1.34462146 0.68528030 1.48142984
v -1.37417109 0.61582490 1.44581501
v -1.37463464 0.65053846 1.44581501
v -1.33745548 0.66792355 1.49196936
v -1.31532495 0.49418597 1.53354190
v -1.30938143 0.49418597 1.55091745
v -1.30396463 0.49418597 1.56718053
v -1.30116158 0.49418597 1.57586098
v -1.29939105 0.63315338 1.58566861
v -1.29783139 0.63315338 1.59534447
v -1.46482163 0.75431095 1.44581501
v -1.33713940 0.71223566 1.59534447
v -1.33815101 0.72913937 1.56059331
v -1.37450829 0.74771368 1.51023784
v -1.42363787 0.76362640 1.45563725
v -1.44918289 0.76051182 1.44581501
v -1.31857084 0.63315338 1.52420268
v -1.33180691 0.66792355 1.50064981
v -1.32310238 0.66792355 1.51565396
v -1.31859197 0.65053846 1.52420268
v -1.36101912 0.72005047 1.46250259
v -1.37018761 0.73446250 1.45458333
v -1.35275722 0.73282029 1.47175393
v -1.34525382 0.72005047 1.48142984
v -1.34487457 0.70266539 1.48142984
v -1.37541447 0.66792355 1.44581501
v -1.33766633 0.70266539 1.49230599
v -1.33753978 0.68528030 1.49211570
v -1.31532495 0.65053846 1.53354190
v -1.30938143 0.63315338 1.55091745
v -1.30396463 0.63315338 1.56718053
v -1.30116158 0.63315338 1.57586098
v -1.30120363 0.65053846 1.57603667
v -1.29951761 0.65053846 1.58566861
v -1.29789456 0.64085490 1.59534447
v -1.32757053 0.71308509 1.59534447
v -1.33492624 0.72913937 1.56059331
v -1.34493775 0.74026698 1.53354190
v -1.36232588 0.74825164 1.51291662
v -1.36232588 0.74414606 1.52159712
v -1.37969310 0.75674599 1.48142984
v -1.41442733 0.76359812 1.45565190
v -1.43038235 0.76464572 1.44642981
v -1.43230035 0.76464572 1.44581501
v -1.33191233 0.68528030 1.50079620
v -1.31863402 0.66792355 1.52431981
v -1.33203889 0.70266539 1.50098650
v -1.32322873 0.68528030 1.51588817
v -1.32247002 0.70331660 1.51784972
v -1.31882375 0.69796515 1.52474432
v -1.31873945 0.68528030 1.52456867
v -1.36972385 0.72005047 1.45412952
v -1.37992488 0.73955913 1.44581501
v -1.37998826 0.74023866 1.44581501
v -1.37100949 0.74604314 1.45538844
v -1.37840746 0.72005047 1.44581501
v -1.37906074 0.72848817 1.44581501
v -1.33246039 0.72005047 1.50149882
v -1.33794016 0.72005047 1.49280372
v -1.35414829 0.74440088 1.47384721
v -1.31545151 0.66792355 1.53354190
v -1.30944460 0.65053846 1.55091745
v -1.30400689 0.65053846 1.56734157
v -1.30409119 0.66792355 1.56769286
v -1.30141448 0.68202411 1.57670999
v -1.29797886 0.65053846 1.59534447
v -1.29974939 0.66792355 1.58566861
v -1.32757053 0.71747386 1.58566861
v -1.31722182 0.71232063 1.59534447
v -1.33153288 0.73117803 1.55091745
v -1.32889842 0.73417935 1.53354190
v -1.35081809 0.74737394 1.51199444
v -1.36232588 0.75184758 1.49880539
v -1.35012256 0.74813839 1.49880539
v -1.36089277 0.75099815 1.48036122
v -1.40563850 0.76351315 1.45522739
v -1.40563850 0.76351315 1.45547626
v -1.43044573 0.76467405 1.44581501
v -1.31890805 0.70957412 1.52493462
v -1.39623823 0.75533027 1.44581501
v -1.38260158 0.75043186 1.44966488
v -1.36574038 0.74946919 1.46696727
v -1.32449344 0.72005047 1.51618095
v -1.33397781 0.73216903 1.50376775
v -1.35174540 0.74754378 1.48542605
v -1.30961321 0.66792355 1.55091745
v -1.31568328 0.68528030 1.53354190
v -1.30984498 0.68528030 1.55091745
v -1.30366969 0.68680927 1.56987396
v -1.30151970 0.69360475 1.57704668
v -1.29808429 0.65823998 1.59534447
v -1.29823176 0.66792355 1.59534447
v -1.31266937 0.70852647 1.59534447
v -1.31490345 0.71416106 1.58566861
v -1.31347033 0.71668102 1.56829301
v -1.31503000 0.71789857 1.55091745
v -1.33090072 0.73463239 1.51618095
v -1.32284927 0.72659109 1.55091745
v -1.41132912 0.76314508 1.44581501
v -1.41552345 0.76410776 1.44581501
v -1.41442733 0.76405111 1.44833280
v -1.37796483 0.75348984 1.46232694
v -1.31713752 0.71591657 1.53651345
v -1.31996191 0.72104147 1.53185847
v -1.40026396 0.75802013 1.44581501
v -1.30617779 0.70266539 1.56829301
v -1.30092960 0.69519037 1.58862551
v -1.29974939 0.69057510 1.59534447
v -1.29926450 0.68590319 1.59534447
v -1.29842149 0.67554014 1.59534447
v -1.30078212 0.69533194 1.59534447
f 1 2 6
f 1 6 11
f 1 11 23
f 1 23 35
f 1 35 44
f 1 44 29
f 1 29 16
f 1 16 8
f 1 8 3
f 1 3 4
f 1 4 5
f 1 5 10
f 1 10 22
f 1 22 34
f 1 34 33
f 1 33 50
f 1 50 69
f 1 69 74
f 1 74 102
f 1 102 136
f 1 136 158
f 1 158 157
f 1 157 163
f 1 163 138
f 1 138 112
f 1 112 111
f 1 111 115
f 1 115 114
f 1 114 84
f 1 84 61
f 1 61 60
f 1 60 57
f 1 57 41
f 1 41 26
f 1 26 14
f 1 14 7
f 1 7 2
f 2 7 6
f 3 8 17
f 3 17 31
f 3 31 48
f 3 48 68
f 3 68 93
f 3 93 124
f 3 124 149
f 3 149 150
f 3 150 168
f 3 168 167
f 3 167 166
f 3 166 169
f 3 169 151
f 3 151 127
f 3 127 94
f 3 94 70
f 3 70 51
f 3 51 49
f 3 49 32
f 3 32 21
f 3 21 20
f 3 20 19
f 3 19 18
f 3 18 9
f 3 9 4
f 4 9 5
f 5 9 10
f 6 7 12
f 6 12 13
f 6 13 11
f 7 14 28
f 7 28 15
f 7 15 12
f 8 16 17
f 9 18 10
f 10 18 19
f 10 19 20
f 10 20 21
f 10 21 22
f 11 13 24
f 11 24 23
f 12 15 25
f 12 25 13
f 13 25 24
f 14 26 27
f 14 27 28
f 15 28 40
f 15 40 25
f 16 29 30
f 16 30 17
f 17 30 31
f 21 32 33
f 21 33 34
f 21 34 22
f 23 24 35
f 24 36 35
f 24 25 37
f 24 37 38
f 24 38 39
f 24 39 36
f 25 40 54
f 25 54 37
f 26 41 27
f 27 42 43
f 27 43 40
f 27 40 28
f 27 41 42
f 29 44 45
f 29 45 46
f 29 46 30
f 30 46 47
f 30 47 31
f 31 47 67
f 31 67 48
f 32 49 33
f 33 49 51
f 33 51 50
f 35 36 52
f 35 52 44
f 36 39 53
f 36 53 52
f 37 54 55
f 37 55 38
f 38 55 56
f 38 56 39
f 39 56 75
f 39 75 53
f 40 43 54
f 41 57 42
f 42 58 59
f 42 59 43
f 42 57 60
f 42 60 61
f 42 61 58
f 43 62 54
f 43 59 62
f 44 52 45
f 45 52 63
f 45 63 64
f 45 64 46
f 46 64 65
f 46 65 66
f 46 66 47
f 47 66 90
f 47 90 67
f 48 67 68
f 50 51 69
f 51 70 71
f 51 71 72
f 51 72 73
f 51 73 74
f 51 74 69
f 52 53 63
f 53 75 87
f 53 87 63
f 54 62 55
f 55 62 76
f 55 76 56
f 56 76 77
f 56 77 104
f 56 104 78
f 56 78 75
f 58 79 80
f 58 80 81
f 58 81 82
f 58 82 83
f 58 83 59
f 58 61 84
f 58 84 79
f 59 83 85
f 59 85 86
f 59 86 62
f 62 86 76
f 63 87 88
f 63 88 64
f 64 88 89
f 64 89 65
f 65 89 90
f 65 90 66
f 67 90 91
f 67 91 92
f 67 92 68
f 68 92 93
f 70 94 71
f 71 95 96
f 71 96 97
f 71 97 98
f 71 98 72
f 71 94 95
f 72 98 97
f 72 97 73
f 73 97 99
f 73 99 100
f 73 100 101
f 73 101 102
f 73 102 74
f 75 78 87
f 76 86 103
f 76 103 77
f 77 103 105
f 77 105 106
f 77 106 107
f 77 107 108
f 77 108 109
f 77 109 104
f 78 104 87
f 79 110 80
f 79 84 110
f 80 111 112
f 80 112 113
f 80 113 81
f 80 110 114
f 80 114 115
f 80 115 111
f 81 116 117
f 81 117 82
f 81 113 118
f 81 118 116
f 82 117 105
f 82 105 85
f 82 85 83
f 84 114 110
f 85 105 103
f 85 103 86
f 87 104 119
f 87 119 120
f 87 120 88
f 88 120 89
f 89 120 121
f 89 121 90
f 90 121 91
f 91 121 122
f 91 122 123
f 91 123 92
f 92 124 93
f 92 123 125
f 92 125 124
f 94 126 95
f 94 127 126
f 95 128 96
f 95 126 127
f 95 127 128
f 96 128 129
f 96 129 130
f 96 130 97
f 97 130 131
f 97 131 99
f 99 131 132
f 99 132 133
f 99 133 134
f 99 134 135
f 99 135 100
f 100 135 101
f 101 136 102
f 101 135 136
f 104 109 119
f 105 107 106
f 105 117 116
f 105 116 107
f 107 116 137
f 107 137 108
f 108 137 119
f 108 119 109
f 112 138 139
f 112 139 113
f 113 139 140
f 113 140 118
f 116 141 137
f 116 118 142
f 116 142 141
f 118 140 143
f 118 143 142
f 119 144 120
f 119 137 145
f 119 145 146
f 119 146 144
f 120 144 121
f 121 144 122
f 122 144 146
f 122 146 147
f 122 147 123
f 123 147 148
f 123 148 125
f 124 125 149
f 125 148 150
f 125 150 149
f 127 151 152
f 127 152 128
f 128 152 129
f 129 153 154
f 129 154 155
f 129 155 132
f 129 132 130
f 129 152 156
f 129 156 153
f 130 132 131
f 132 155 143
f 132 143 133
f 133 143 140
f 133 140 134
f 134 157 158
f 134 158 159
f 134 159 135
f 134 140 160
f 134 160 157
f 135 159 136
f 136 159 158
f 137 161 148
f 137 148 147
f 137 147 146
f 137 146 145
f 137 141 162
f 137 162 161
f 138 163 139
f 139 163 140
f 140 163 157
f 140 157 160
f 141 142 155
f 141 155 162
f 142 143 155
f 148 161 164
f 148 164 165
f 148 165 166
f 148 166 167
f 148 167 168
f 148 168 150
f 151 169 152
f 152 169 153
f 152 153 156
f 153 169 165
f 153 165 154
f 154 165 164
f 154 164 161
f 154 161 162
f 154 162 155
f 165 169 166

