# https://github.com/mikedh/trimesh
v -4.41364709 0.77218029 3.20221941
v -4.41364709 0.77795868 3.20213563
v -4.41526351 0.77218029 3.19933485
v -4.42109135 0.70702785 3.18655613
v -4.41364792 0.70702785 3.19800561
v -4.41364709 0.70702785 3.19567750
v -4.41364709 0.78954663 3.20145842
v -4.41487805 0.78954663 3.19906828
v -4.42221139 0.77324032 3.18509619
v -4.42224246 0.77218029 3.18509619
v -4.42189242 0.70702785 3.18509619
v -4.41364709 0.70702785 3.18509619
v -4.41364709 0.79318410 3.20019971
v -4.42024741 0.78954663 3.18509619
v -4.41364709 0.80086438 3.19693290
v -4.41364709 0.81320063 3.18509619
v -4.41364709 0.80534367 3.19481595
v -4.42000000 0.79090808 3.18509619
v -4.41530049 0.80786912 3.18509619
v -4.41364709 0.81163133 3.18918426
f 1 2 3
f 1 3 4
f 1 4 5
f 1 5 6
f 1 6 12
f 1 12 16
f 1 16 20
f 1 20 17
f 1 17 15
f 1 15 13
f 1 13 7
f 1 7 2
f 2 7 8
f 2 8 3
f 3 8 9
f 3 9 10
f 3 10 11
f 3 11 4
f 4 11 12
f 4 12 6
f 4 6 5
f 7 13 8
f 8 14 9
f 8 13 15
f 8 15 14
f 9 14 18
f 9 18 19
f 9 19 16
f 9 16 12
f 9 12 11
f 9 11 10
f 14 15 17
f 14 17 18
f 16 19 20
f 17 20 18
f 18 20 19

