# https://github.com/mikedh/trimesh
v -6.62019115 1.67553954 4.24537458
v -6.62019115 1.63476568 4.15896807
v -6.62019115 1.51941297 4.24537458
v -6.40110836 1.66754675 4.24537458
v -6.38371339 1.63450589 4.15896807
v -6.38549489 1.63452117 4.15896807
v -6.40110836 1.63464343 4.15896807
v -6.62019115 1.55543395 4.15896807
v -6.40110836 1.52434923 4.24537458
v -6.40110836 1.55555621 4.15896807
v -6.39932686 1.55557148 4.15896807
v -6.38371339 1.55583130 4.15896807
v -6.38371339 1.65779649 4.24537458
v -6.37366730 1.63329855 4.15896807
v -6.37468181 1.63342083 4.15896807
v -6.37166313 1.55942268 4.15896807
v -6.38383705 1.53677395 4.24537458
v -6.37173729 1.64356844 4.24537458
v -6.36995578 1.62354828 4.15896807
v -6.36795141 1.57145008 4.15896807
v -6.37109395 1.55055882 4.24537458
v -6.37680984 1.54248963 4.24537458
v -6.36866911 1.62354828 4.24537458
v -6.36970827 1.62179081 4.15896807
v -6.37062377 1.55324855 4.24537458
v -6.36760509 1.58881105 4.15896807
v -6.36770410 1.57013577 4.24537458
v -6.36740708 1.60617203 4.24537458
v -6.36760509 1.60617203 4.15896807
v -6.36740708 1.58881105 4.24537458
v -6.36767925 1.57145008 4.24537458
f 1 2 8
f 1 8 3
f 1 3 9
f 1 9 17
f 1 17 22
f 1 22 21
f 1 21 25
f 1 25 27
f 1 27 31
f 1 31 30
f 1 30 28
f 1 28 23
f 1 23 18
f 1 18 13
f 1 13 4
f 1 4 5
f 1 5 6
f 1 6 7
f 1 7 2
f 2 7 6
f 2 6 5
f 2 5 15
f 2 15 14
f 2 14 19
f 2 19 24
f 2 24 29
f 2 29 26
f 2 26 20
f 2 20 16
f 2 16 12
f 2 12 11
f 2 11 10
f 2 10 8
f 3 8 10
f 3 10 11
f 3 11 12
f 3 12 9
f 4 13 14
f 4 14 15
f 4 15 5
f 9 12 16
f 9 16 17
f 13 18 14
f 14 18 19
f 16 20 21
f 16 21 22
f 16 22 17
f 18 23 19
f 19 23 24
f 20 25 21
f 20 26 27
f 20 27 25
f 23 28 29
f 23 29 24
f 26 29 28
f 26 28 30
f 26 30 31
f 26 31 27

