# https://github.com/mikedh/trimesh
v -2.54149032 0.33745785 2.43705294
v -2.53905015 0.33745785 2.42258056
v -2.53755992 0.33745785 2.44848392
v -2.53755992 0.33780583 2.44848392
v -2.53743793 0.35520297 2.44843573
v -2.53730718 0.37257330 2.44836345
v -2.53715903 0.38994362 2.44826107
v -2.53697603 0.40731400 2.44811049
v -2.53677559 0.42468432 2.44791779
v -2.53654899 0.44205470 2.44767687
v -2.53630499 0.45945179 2.44739984
v -2.53604355 0.47679540 2.44708063
v -2.53576465 0.49416572 2.44671326
v -2.53546835 0.51153610 2.44627961
v -2.53524176 0.52197434 2.44593633
v -2.54094128 0.35520297 2.43705294
v -2.53735948 0.40731400 2.42511609
v -2.53778652 0.38994362 2.42448373
v -2.53820482 0.37257330 2.42384534
v -2.53862311 0.35520297 2.42321898
v -2.53904146 0.33780583 2.42259263
v -2.52767726 0.33745785 2.41389595
v -2.52643972 0.33745785 2.45353689
v -2.51390774 0.39216511 2.46193244
v -2.51728039 0.51078666 2.46193244
v -2.51727169 0.51153610 2.46193244
v -2.51670525 0.52890642 2.46193244
v -2.51667910 0.52928112 2.46193244
v -2.51140657 0.58104427 2.46193244
v -2.51047408 0.58853840 2.46193244
v -2.50711018 0.59860194 2.46193244
v -2.53347263 0.52821058 2.43799247
v -2.53524176 0.52197434 2.44441262
v -2.53921575 0.40731400 2.43705294
v -2.53981704 0.38994362 2.43705294
v -2.54039224 0.37257330 2.43705294
v -2.53530275 0.48894658 2.42811537
v -2.53605224 0.45945179 2.42703129
v -2.51898852 0.33745785 2.41069189
v -2.52588198 0.51153610 2.42250830
v -2.51201661 0.52890642 2.41466685
v -2.51221706 0.51153610 2.41382366
v -2.50333663 0.52890642 2.40931271
v -2.50942830 0.33745785 2.45232033
v -2.48419878 0.35418587 2.46193244
v -2.50276144 0.35734415 2.46193244
v -2.50639554 0.36336617 2.46193244
v -2.51178132 0.37498209 2.46193244
v -2.50474841 0.60398166 2.46193244
v -2.52199518 0.54073645 2.42546541
v -2.52484494 0.52890642 2.42335750
v -2.53457071 0.51153610 2.43277087
v -2.50527130 0.59876252 2.45486186
v -2.50332793 0.59319545 2.44034733
v -2.50651754 0.58259664 2.43555935
v -2.50391182 0.57783250 2.42347794
v -2.53496291 0.50053577 2.42978966
v -2.53546835 0.51153610 2.44146152
v -2.53791722 0.44205470 2.43705294
v -2.53857956 0.42468432 2.43705294
v -2.53574720 0.49451370 2.43616763
v -2.53722873 0.45945179 2.43705294
v -2.49169353 0.42468432 2.40435610
v -2.49169353 0.40731400 2.40453677
v -2.47431611 0.40731400 2.40138693
v -2.45245920 0.40731400 2.40081479
v -2.51701895 0.33745785 2.41069189
v -2.50230824 0.54630357 2.40978247
v -2.49169353 0.52890642 2.40730717
v -2.47431611 0.42468432 2.40120626
v -2.50902745 0.33745785 2.45224204
v -2.46838999 0.35919090 2.46193244
v -2.50205555 0.60863877 2.46193244
v -2.50107076 0.55741093 2.41052326
v -2.50185510 0.60837111 2.46093869
v -2.49513594 0.58942164 2.42877184
v -2.49169353 0.56747448 2.41226381
v -2.53653154 0.47679540 2.43705294
v -2.45245920 0.42468432 2.40040525
v -2.45245920 0.39211157 2.40587983
v -2.50833026 0.33745785 2.41694942
v -2.49169353 0.54630357 2.40835511
v -2.49893559 0.33745785 2.44720107
v -2.46366650 0.36178703 2.46193244
v -2.49169353 0.61086021 2.46193244
v -2.49169353 0.55877596 2.41022213
v -2.49169353 0.60938816 2.45930658
v -2.49169353 0.60400844 2.45061593
v -2.48355384 0.58974280 2.42834422
v -2.49028175 0.58259664 2.42241797
v -2.49028175 0.59421255 2.43555935
v -2.48296125 0.58974280 2.42834422
v -2.47602419 0.57983983 2.42492338
v -2.48181961 0.55762505 2.41043894
v -2.45245920 0.43758494 2.40261556
v -2.45245920 0.38544714 2.41968368
v -2.49881359 0.33745785 2.42564007
v -2.49737566 0.33745785 2.43708909
v -2.45980586 0.37257330 2.46193244
v -2.48141872 0.60997702 2.46193244
v -2.47962344 0.60887966 2.46020997
v -2.47602419 0.59239252 2.43838998
v -2.46528748 0.59017103 2.44507509
v -2.47137045 0.58481808 2.43348756
v -2.46516548 0.57322894 2.42765164
v -2.47534445 0.56351332 2.41663624
v -2.45245920 0.44205470 2.40338646
v -2.45245920 0.39224543 2.43421628
v -2.45835917 0.38068306 2.46193244
v -2.47878680 0.60938816 2.46193244
v -2.47605034 0.60762167 2.46193244
v -2.47007197 0.60363374 2.46193244
v -2.46671671 0.60066286 2.46193244
v -2.46331791 0.59530991 2.46193244
v -2.46061634 0.58104427 2.45442824
v -2.46404125 0.57983983 2.43838998
v -2.46059019 0.56367390 2.43705294
v -2.45245920 0.45040530 2.40739150
v -2.45245920 0.43795969 2.46193244
v -2.45929166 0.58104427 2.46193244
v -2.45734824 0.56367390 2.45442824
v -2.45245920 0.45308180 2.40891523
v -2.45245920 0.46480474 2.46193244
v -2.45646805 0.56367390 2.46193244
v -2.45245920 0.45854178 2.41667236
v -2.45546581 0.54630357 2.46193244
v -2.45245920 0.46242267 2.43578217
v -2.45245920 0.45939825 2.41976801
f 1 2 22
f 1 22 39
f 1 39 67
f 1 67 81
f 1 81 97
f 1 97 98
f 1 98 83
f 1 83 71
f 1 71 44
f 1 44 23
f 1 23 3
f 1 3 4
f 1 4 5
f 1 5 6
f 1 6 7
f 1 7 8
f 1 8 9
f 1 9 10
f 1 10 11
f 1 11 12
f 1 12 13
f 1 13 14
f 1 14 15
f 1 15 16
f 1 16 17
f 1 17 18
f 1 18 19
f 1 19 20
f 1 20 2
f 2 20 21
f 2 21 22
f 3 23 24
f 3 24 25
f 3 25 4
f 4 25 5
f 5 25 26
f 5 26 6
f 6 26 7
f 7 26 8
f 8 26 9
f 9 26 10
f 10 26 27
f 10 27 11
f 11 27 12
f 12 27 13
f 13 27 14
f 14 27 15
f 15 27 28
f 15 28 29
f 15 29 30
f 15 30 31
f 15 31 32
f 15 32 33
f 15 33 34
f 15 34 35
f 15 35 36
f 15 36 16
f 16 36 37
f 16 37 38
f 16 38 17
f 17 22 18
f 17 38 22
f 18 22 19
f 19 22 20
f 20 22 21
f 22 38 37
f 22 37 40
f 22 40 41
f 22 41 42
f 22 42 43
f 22 43 39
f 23 44 45
f 23 45 46
f 23 46 47
f 23 47 48
f 23 48 24
f 24 48 47
f 24 47 46
f 24 46 45
f 24 45 72
f 24 72 84
f 24 84 99
f 24 99 109
f 24 109 119
f 24 119 123
f 24 123 126
f 24 126 124
f 24 124 120
f 24 120 114
f 24 114 113
f 24 113 112
f 24 112 111
f 24 111 110
f 24 110 100
f 24 100 85
f 24 85 73
f 24 73 49
f 24 49 31
f 24 31 30
f 24 30 29
f 24 29 28
f 24 28 27
f 24 27 26
f 24 26 25
f 31 49 32
f 32 50 51
f 32 51 52
f 32 52 33
f 32 49 53
f 32 53 54
f 32 54 55
f 32 55 56
f 32 56 50
f 33 52 57
f 33 57 58
f 33 58 59
f 33 59 60
f 33 60 34
f 34 60 37
f 34 37 35
f 35 37 36
f 37 61 57
f 37 57 51
f 37 51 40
f 37 60 59
f 37 59 62
f 37 62 61
f 39 63 64
f 39 64 65
f 39 65 66
f 39 66 67
f 39 43 63
f 40 51 41
f 41 51 68
f 41 68 43
f 41 43 42
f 43 68 69
f 43 69 70
f 43 70 63
f 44 71 45
f 45 71 72
f 49 73 53
f 50 74 51
f 50 56 74
f 51 74 68
f 51 57 52
f 53 73 54
f 54 73 75
f 54 75 76
f 54 76 56
f 54 56 55
f 56 76 77
f 56 77 74
f 57 61 58
f 58 61 78
f 58 78 62
f 58 62 59
f 61 62 78
f 63 70 65
f 63 65 64
f 65 70 79
f 65 79 66
f 66 80 67
f 66 79 95
f 66 95 107
f 66 107 118
f 66 118 122
f 66 122 125
f 66 125 128
f 66 128 127
f 66 127 123
f 66 123 119
f 66 119 108
f 66 108 96
f 66 96 80
f 67 80 81
f 68 74 82
f 68 82 69
f 69 82 79
f 69 79 70
f 71 83 72
f 72 83 84
f 73 85 75
f 74 86 82
f 74 77 86
f 75 85 87
f 75 87 88
f 75 88 76
f 76 89 90
f 76 90 77
f 76 88 91
f 76 91 89
f 77 90 92
f 77 92 93
f 77 93 94
f 77 94 86
f 79 82 94
f 79 94 95
f 80 96 97
f 80 97 81
f 82 86 94
f 83 98 84
f 84 98 97
f 84 97 96
f 84 96 99
f 85 100 101
f 85 101 87
f 87 101 92
f 87 92 88
f 88 92 89
f 88 89 91
f 89 92 90
f 92 101 102
f 92 102 103
f 92 103 104
f 92 104 105
f 92 105 93
f 93 105 106
f 93 106 94
f 94 106 107
f 94 107 95
f 96 108 99
f 99 108 109
f 100 110 101
f 101 110 111
f 101 111 103
f 101 103 102
f 103 111 112
f 103 112 113
f 103 113 114
f 103 114 115
f 103 115 116
f 103 116 105
f 103 105 104
f 105 116 117
f 105 117 118
f 105 118 107
f 105 107 106
f 108 119 109
f 114 120 115
f 115 120 121
f 115 121 117
f 115 117 116
f 117 121 122
f 117 122 118
f 120 124 121
f 121 124 122
f 122 124 126
f 122 126 125
f 123 127 126
f 125 126 128
f 126 127 128

