# https://github.com/mikedh/trimesh
v -1.14703747 0.91633542 -0.32652184
v -1.05920468 0.91633542 -0.32652184
v -1.14703747 0.91633542 -0.30366865
v -1.14703747 1.60612602 -0.33691529
v -1.05920468 0.91633542 -0.30366865
v -1.05920468 1.60612602 -0.33691529
v -1.14703747 1.58971402 -0.28479002
v -1.14703747 1.61822640 -0.33569075
v -1.05920468 1.61287164 -0.33623674
v -1.05920468 1.58971402 -0.28479002
v -1.14703747 1.61064627 -0.28479002
v -1.14703747 1.62274665 -0.32952208
v -1.05920468 1.61822640 -0.33569075
v -1.05920468 1.61064627 -0.28479002
v -1.14703747 1.61940864 -0.29505070
v -1.14703747 1.62559786 -0.32558314
v -1.05920468 1.62559786 -0.32558314
v -1.05920468 1.61940864 -0.29505070
v -1.14703747 1.62678009 -0.30821468
v -1.05920468 1.62678009 -0.30821468
f 1 2 5
f 1 5 3
f 1 3 7
f 1 7 11
f 1 11 15
f 1 15 19
f 1 19 16
f 1 16 12
f 1 12 8
f 1 8 4
f 1 4 6
f 1 6 2
f 2 6 9
f 2 9 13
f 2 13 17
f 2 17 20
f 2 20 18
f 2 18 14
f 2 14 10
f 2 10 5
f 3 5 10
f 3 10 7
f 4 8 9
f 4 9 6
f 7 10 14
f 7 14 11
f 8 12 13
f 8 13 9
f 11 14 18
f 11 18 15
f 12 16 17
f 12 17 13
f 15 18 20
f 15 20 19
f 16 19 20
f 16 20 17

