# https://github.com/mikedh/trimesh
v -5.16847710 0.25092935 1.04776716
v -5.16921136 0.26758249 1.04776716
v -5.17518015 0.24158355 1.04776716
v -5.17518015 0.24158707 1.04704098
v -5.16857962 0.25092935 1.02967096
v -5.16880167 0.26830195 0.96017910
v -5.16880167 0.26830195 0.97756102
v -5.16889549 0.26830195 0.99491913
v -5.16924554 0.26830195 1.04776716
v -5.18156713 0.24158355 1.04776716
v -5.21957356 0.24205611 0.93382048
v -5.20221421 0.24205963 0.93383239
v -5.17561554 0.24189041 0.97756102
v -5.17539349 0.24173869 1.01228904
v -5.16889549 0.25092935 0.97756102
v -5.16878447 0.25092935 0.99491913
v -5.16868195 0.25092935 1.01228904
v -5.16910904 0.25092935 0.96017910
v -5.17403598 0.25616656 0.93197518
v -5.17403598 0.26325529 0.93197518
v -5.17196098 0.26874634 0.94367819
v -5.17565820 0.27732338 0.95004757
v -5.17543616 0.27746796 0.96017910
v -5.17566690 0.27675907 1.04776716
v -5.17551321 0.27740800 0.97756102
v -5.17561554 0.27733747 0.99491913
v -5.19025965 0.24301190 1.04776716
v -5.25571004 0.24205611 0.93538005
v -5.25571004 0.24205611 0.93382048
v -5.25571004 0.24276149 0.93326093
v -5.21957356 0.25092935 0.92680818
v -5.20221421 0.25092935 0.92691537
v -5.19299207 0.24212312 0.93392767
v -5.17574375 0.24197854 0.96017910
v -5.17593161 0.24209847 0.95085713
v -5.17212316 0.25059784 0.94415438
v -5.18140495 0.24458131 0.93927322
v -5.18625505 0.25059784 0.92998697
v -5.20221421 0.26830195 0.92626054
v -5.18558043 0.26874634 0.92973697
v -5.19187359 0.27739039 0.93351093
v -5.18028626 0.27483703 0.93847546
v -5.20221421 0.27760197 0.93317756
v -5.20221421 0.27760197 0.94038041
v -5.17582908 0.27719289 1.02967096
v -5.17594010 0.27712237 1.04704098
v -5.17594860 0.27711885 1.04776716
v -5.19730426 0.25134195 1.04776716
v -5.25571004 0.24402051 0.94420202
v -5.25571004 0.24386537 0.94351146
v -5.25571004 0.25092935 0.92680818
v -5.21957356 0.26830195 0.92615335
v -5.21957356 0.27761253 0.93315374
v -5.21957356 0.27761253 0.93838029
v -5.17735748 0.27712237 1.04704098
v -5.17733179 0.27711885 1.04776716
v -5.19758595 0.25169820 1.04776716
v -5.25571004 0.25270681 0.95526210
v -5.25571004 0.26830195 0.92615335
v -5.25571004 0.26903912 0.92670100
v -5.25571004 0.27761253 0.93315374
v -5.25571004 0.27761253 0.93838029
v -5.18565728 0.27558113 1.04776716
v -5.19758595 0.26682430 1.04776716
v -5.25571004 0.26702532 0.95526210
v -5.25571004 0.27571514 0.94705934
v -5.18601582 0.27551413 1.04776716
v -5.18651976 0.27515445 1.04776716
v -5.25571004 0.27502396 0.94771407
f 1 2 9
f 1 9 24
f 1 24 47
f 1 47 56
f 1 56 63
f 1 63 67
f 1 67 68
f 1 68 64
f 1 64 57
f 1 57 48
f 1 48 27
f 1 27 10
f 1 10 3
f 1 3 4
f 1 4 5
f 1 5 6
f 1 6 7
f 1 7 8
f 1 8 2
f 2 8 9
f 3 10 29
f 3 29 11
f 3 11 12
f 3 12 13
f 3 13 14
f 3 14 4
f 4 14 15
f 4 15 16
f 4 16 17
f 4 17 5
f 5 17 6
f 6 18 19
f 6 19 20
f 6 20 21
f 6 21 22
f 6 22 23
f 6 23 7
f 6 17 16
f 6 16 15
f 6 15 18
f 7 23 8
f 8 23 9
f 9 23 25
f 9 25 26
f 9 26 24
f 10 27 28
f 10 28 29
f 11 29 30
f 11 30 31
f 11 31 12
f 12 31 32
f 12 32 33
f 12 33 34
f 12 34 13
f 13 34 15
f 13 15 14
f 15 34 18
f 18 34 35
f 18 35 36
f 18 36 19
f 19 36 35
f 19 35 37
f 19 37 33
f 19 33 38
f 19 38 32
f 19 32 39
f 19 39 20
f 20 39 40
f 20 40 41
f 20 41 42
f 20 42 22
f 20 22 21
f 22 42 41
f 22 41 43
f 22 43 23
f 23 43 44
f 23 44 25
f 24 26 45
f 24 45 46
f 24 46 47
f 25 44 26
f 26 46 45
f 26 44 46
f 27 48 49
f 27 49 50
f 27 50 28
f 28 50 49
f 28 49 58
f 28 58 65
f 28 65 69
f 28 69 66
f 28 66 62
f 28 62 61
f 28 61 60
f 28 60 59
f 28 59 51
f 28 51 30
f 28 30 29
f 30 51 31
f 31 51 59
f 31 59 52
f 31 52 39
f 31 39 32
f 32 38 33
f 33 37 35
f 33 35 34
f 39 52 43
f 39 43 41
f 39 41 40
f 43 52 53
f 43 53 54
f 43 54 44
f 44 54 46
f 46 54 62
f 46 62 55
f 46 55 56
f 46 56 47
f 48 57 49
f 49 57 58
f 52 59 60
f 52 60 53
f 53 60 61
f 53 61 62
f 53 62 54
f 55 62 56
f 56 62 63
f 57 64 65
f 57 65 58
f 62 66 67
f 62 67 63
f 64 68 66
f 64 66 69
f 64 69 65
f 66 68 67

