# https://github.com/mikedh/trimesh
v -0.18348581 1.26529627 -0.32652412
v 0.14955992 1.26529627 -0.32652412
v -0.18348581 1.26529627 -0.30800900
v -0.18348581 1.60616465 -0.33691052
v 0.14955992 1.26529627 -0.30830954
v 0.14929915 1.60616465 -0.33691052
v 0.14955992 1.60598771 -0.33689147
v 0.14929915 1.26529627 -0.30785138
v 0.14955992 1.26550859 -0.30776542
v -0.18348581 1.58956885 -0.28815253
v -0.18348581 1.60804009 -0.33672452
v 0.14955992 1.61808955 -0.33571250
v 0.14955992 1.59208123 -0.28815253
v 0.14929915 1.58939194 -0.28815253
v -0.18348581 1.61281712 -0.28815253
v -0.18348581 1.61826648 -0.33569344
v 0.14929915 1.61826648 -0.33569344
v 0.14955992 1.62548513 -0.32573662
v 0.14955992 1.60205993 -0.28815253
v 0.14929915 1.61295866 -0.28815253
v -0.18348581 1.61943422 -0.29504966
v -0.18348581 1.62559129 -0.32557900
v 0.14929915 1.62559129 -0.32557900
v 0.14955992 1.62675899 -0.30847670
v 0.14955992 1.61957574 -0.29517373
v 0.14929915 1.61943422 -0.29496847
v -0.18348581 1.62675899 -0.30820929
v 0.14929915 1.62679438 -0.30820929
f 1 2 5
f 1 5 8
f 1 8 3
f 1 3 10
f 1 10 15
f 1 15 21
f 1 21 27
f 1 27 22
f 1 22 16
f 1 16 11
f 1 11 4
f 1 4 6
f 1 6 2
f 2 6 7
f 2 7 12
f 2 12 18
f 2 18 24
f 2 24 25
f 2 25 19
f 2 19 13
f 2 13 9
f 2 9 5
f 3 8 9
f 3 9 10
f 4 11 6
f 5 9 8
f 6 11 12
f 6 12 7
f 9 13 14
f 9 14 10
f 10 14 13
f 10 13 19
f 10 19 20
f 10 20 15
f 11 16 12
f 12 16 17
f 12 17 18
f 15 20 21
f 16 22 18
f 16 18 17
f 18 22 23
f 18 23 24
f 19 25 20
f 20 25 26
f 20 26 21
f 21 26 25
f 21 25 27
f 22 27 28
f 22 28 23
f 23 28 24
f 24 28 25
f 25 28 27

