# https://github.com/mikedh/trimesh
v -2.08201196 0.38540163 2.83669005
v -2.08201196 0.38964070 2.84492326
v -2.08201196 0.38835382 2.81855076
v -2.05834870 0.00774594 2.85405856
v -2.08201196 0.39289570 2.84990768
v -2.08136997 0.38676416 2.81679225
v -2.08201196 0.42741385 2.81679225
v -2.05286748 0.00774594 2.84138335
v -2.05129280 -0.00330596 2.84287922
v -2.05324301 -0.00489566 2.85405856
v -2.05211043 -0.00383579 2.86667666
v -2.05410310 0.00774594 2.86876067
v -2.08201196 0.40727827 2.85319070
v -2.07866872 0.37260872 2.81679225
v -2.08201196 0.76441990 2.81679225
v -2.03994263 0.00774594 2.83707261
v -2.03994263 -0.00466855 2.84142902
v -2.03994263 -0.00883191 2.85405856
v -2.03994263 -0.00504707 2.86865788
v -2.03994263 0.00774594 2.87493270
v -2.05442405 0.02508064 2.86884062
v -2.08201196 0.47676873 2.85430975
v -2.07766933 0.37048918 2.81679225
v -2.08201196 0.76441990 2.82472855
v -2.07521643 0.76419279 2.81679225
v -2.02637589 0.00774594 2.84106360
v -2.02805352 -0.00353308 2.84261089
v -2.07143708 0.35754486 2.81679225
v -2.06046854 0.35262455 2.81679225
v -2.05783398 0.35292726 2.81679225
v -2.04400057 0.35716633 2.81679225
v -2.04226846 0.35936157 2.81679225
v -2.03861629 0.37487966 2.81679225
v -2.02604273 -0.00489566 2.85405856
v -2.02750235 -0.00360878 2.86669955
v -2.02532803 0.00774594 2.86891483
v -2.03994263 0.02508064 2.87511544
v -2.05455733 0.04249115 2.86876067
v -2.08201196 0.49410348 2.85426408
v -2.05467840 0.05982585 2.86868072
v -2.05478745 0.07723636 2.86860082
v -2.05487227 0.09457116 2.86851517
v -2.08201196 0.76404138 2.82975863
v -2.08151527 0.76404138 2.82949030
v -2.07302398 0.76411708 2.81679225
v -2.02045246 0.00774594 2.85405856
v -2.03284427 0.40568862 2.81679225
v -2.02876220 0.46390011 2.81679225
v -2.02014363 0.02508064 2.85405856
v -2.02514027 0.02508064 2.86901761
v -2.05502969 0.21621728 2.86749315
v -2.05502368 0.19880688 2.86766445
v -2.05493285 0.12931636 2.86824679
v -2.05490862 0.11198156 2.86838955
v -2.03994263 0.07723636 2.87402492
v -2.05447251 0.40727827 2.86519218
v -2.05472086 0.38986776 2.86545481
v -2.05482380 0.37260872 2.86566039
v -2.05489039 0.35519821 2.86586591
v -2.08201196 0.65049486 2.85293945
v -2.08201196 0.51151394 2.85413846
v -2.08201196 0.76373861 2.83030105
v -2.06992898 0.76139201 2.82330688
v -2.06716114 0.76267884 2.81679225
v -2.02869551 0.47926674 2.81679225
v -2.02030716 0.04249115 2.85405856
v -2.02869551 0.49667720 2.81679225
v -2.02885904 0.56662184 2.81679225
v -2.02048881 0.05982585 2.85405856
v -2.02068258 0.07723636 2.85405856
v -2.02088857 0.09457116 2.85405856
v -2.02110056 0.11198156 2.85405856
v -2.02131256 0.12931636 2.85405856
v -2.02153657 0.14672687 2.85405856
v -2.02180314 0.16406157 2.85405856
v -2.02210596 0.18147208 2.85405856
v -2.02242690 0.19880688 2.85405856
v -2.02560061 0.05982585 2.86845236
v -2.02583684 0.07723636 2.86817258
v -2.02734494 0.18147208 2.86654534
v -2.03994263 0.09457116 2.87365949
v -2.08201196 0.63316011 2.85311075
v -2.08201196 0.59841486 2.85342480
v -2.08201196 0.56366965 2.85372167
v -2.08201196 0.52892444 2.85400714
v -2.05404852 0.42461302 2.86487248
v -2.08201196 0.66790537 2.85232283
v -2.05349736 0.44202347 2.86452989
v -2.05280690 0.45935822 2.86417021
v -2.05195291 0.47676873 2.86380479
v -2.05092328 0.49410348 2.86342222
v -2.04966964 0.51151394 2.86303396
v -2.04887013 0.52158173 2.86280560
v -2.08201196 0.75692583 2.83831160
v -2.06237639 0.74981027 2.83056369
v -2.05057210 0.75283817 2.81679225
v -2.03159664 0.65988141 2.81679225
v -2.03110606 0.57525139 2.84561983
v -2.03082747 0.56366965 2.84609374
v -2.03040959 0.54625920 2.84681884
v -2.03000373 0.52892444 2.84754963
v -2.02960407 0.51151394 2.84829188
v -2.02921643 0.49410348 2.84902842
v -2.02282065 0.21621728 2.85405856
v -2.02760529 0.19880688 2.86627701
v -2.02683012 0.14672687 2.86707636
v -2.02657566 0.12931636 2.86734470
v -2.02632742 0.11198156 2.86761878
v -2.02607908 0.09457116 2.86789281
v -2.03994263 0.11198156 2.87326554
v -2.05730705 0.65049486 2.85503491
v -2.08201196 0.73739584 2.84734411
v -2.03994263 0.18147208 2.87160976
v -2.03994263 0.19880688 2.87119297
v -2.04847038 0.52158173 2.86280560
v -2.08201196 0.74799351 2.84599665
v -2.04537548 0.74791780 2.81679225
v -2.04627182 0.67812452 2.84727561
v -2.03244462 0.67327991 2.81679225
v -2.03500658 0.65049486 2.83669005
v -2.04220788 0.65049486 2.85077554
v -2.03138464 0.38002709 2.86265145
v -2.02884692 0.47676873 2.84977636
v -2.02785975 0.42461302 2.85204880
v -2.02758717 0.40727827 2.85284811
v -2.02328089 0.23362779 2.85405856
v -2.02790211 0.21621728 2.86597439
v -2.02848962 0.45935822 2.85052435
v -2.02815646 0.44202347 2.85128373
v -2.04379468 0.66790537 2.84938240
v -2.05730705 0.66790537 2.85258547
v -2.08201196 0.74670663 2.84626498
v -2.02824739 0.23362779 2.86563755
v -2.03994263 0.21621728 2.87071906
v -2.04790109 0.51151394 2.86303396
v -2.04179601 0.73989384 2.81679225
v -2.04072402 0.73739584 2.81679225
v -2.03758666 0.66790537 2.83669005
v -2.04275293 0.42461302 2.86487248
v -2.04163248 0.40727827 2.86519218
v -2.04059684 0.38986776 2.86545481
v -2.03105158 0.36852106 2.86293123
v -2.04590241 0.47676873 2.86380479
v -2.04383103 0.44202347 2.86452989
v -2.03076689 0.35519821 2.86320526
v -2.02739340 0.38986776 2.85358465
v -2.02469816 0.28570780 2.85405856
v -2.02374724 0.25096259 2.85405856
v -2.02518273 0.30311820 2.85405856
v -2.02859257 0.25096259 2.86529496
v -2.02930115 0.28570780 2.86460409
v -2.02966456 0.30311820 2.86425581
v -2.03002796 0.32045300 2.86390757
v -2.03994263 0.23362779 2.87018234
v -2.04690781 0.49410348 2.86342222
v -2.03994263 0.26837299 2.86909756
v -2.02894386 0.26837299 2.86494668
f 1 2 5
f 1 5 13
f 1 13 22
f 1 22 39
f 1 39 61
f 1 61 85
f 1 85 84
f 1 84 83
f 1 83 82
f 1 82 60
f 1 60 87
f 1 87 112
f 1 112 132
f 1 132 116
f 1 116 94
f 1 94 62
f 1 62 43
f 1 43 24
f 1 24 15
f 1 15 7
f 1 7 3
f 1 3 4
f 1 4 2
f 2 4 5
f 3 6 4
f 3 7 6
f 4 8 9
f 4 9 10
f 4 10 11
f 4 11 12
f 4 12 13
f 4 13 5
f 4 6 8
f 6 14 8
f 6 7 15
f 6 15 25
f 6 25 45
f 6 45 64
f 6 64 96
f 6 96 117
f 6 117 136
f 6 136 137
f 6 137 119
f 6 119 97
f 6 97 68
f 6 68 67
f 6 67 65
f 6 65 48
f 6 48 47
f 6 47 33
f 6 33 32
f 6 32 31
f 6 31 30
f 6 30 29
f 6 29 28
f 6 28 23
f 6 23 14
f 8 16 9
f 8 14 16
f 9 17 18
f 9 18 10
f 9 16 17
f 10 18 11
f 11 18 19
f 11 19 20
f 11 20 12
f 12 20 21
f 12 21 13
f 13 21 22
f 14 23 16
f 15 24 25
f 16 26 27
f 16 27 17
f 16 23 28
f 16 28 29
f 16 29 30
f 16 30 31
f 16 31 32
f 16 32 33
f 16 33 26
f 17 27 18
f 18 27 34
f 18 34 35
f 18 35 19
f 19 35 20
f 20 35 36
f 20 36 37
f 20 37 21
f 21 37 38
f 21 38 22
f 22 38 40
f 22 40 41
f 22 41 42
f 22 42 39
f 24 43 44
f 24 44 45
f 24 45 25
f 26 46 27
f 26 33 47
f 26 47 48
f 26 48 46
f 27 46 34
f 34 46 35
f 35 46 36
f 36 46 49
f 36 49 50
f 36 50 37
f 37 51 52
f 37 52 53
f 37 53 54
f 37 54 42
f 37 42 41
f 37 41 40
f 37 40 38
f 37 50 55
f 37 55 56
f 37 56 57
f 37 57 58
f 37 58 59
f 37 59 60
f 37 60 51
f 39 42 54
f 39 54 61
f 43 62 44
f 44 62 63
f 44 63 64
f 44 64 45
f 46 48 49
f 48 65 49
f 49 66 50
f 49 65 67
f 49 67 68
f 49 68 66
f 50 66 69
f 50 69 70
f 50 70 71
f 50 71 72
f 50 72 73
f 50 73 74
f 50 74 75
f 50 75 76
f 50 76 77
f 50 77 78
f 50 78 79
f 50 79 80
f 50 80 81
f 50 81 55
f 51 60 82
f 51 82 52
f 52 82 83
f 52 83 84
f 52 84 85
f 52 85 53
f 53 85 54
f 54 85 61
f 55 81 56
f 56 81 86
f 56 86 60
f 56 60 57
f 57 60 58
f 58 60 59
f 60 86 88
f 60 88 89
f 60 89 90
f 60 90 91
f 60 91 92
f 60 92 93
f 60 93 87
f 62 94 63
f 63 94 95
f 63 95 96
f 63 96 64
f 66 68 69
f 68 76 75
f 68 75 74
f 68 74 73
f 68 73 72
f 68 72 71
f 68 71 70
f 68 70 69
f 68 97 98
f 68 98 99
f 68 99 100
f 68 100 101
f 68 101 102
f 68 102 103
f 68 103 104
f 68 104 77
f 68 77 76
f 77 104 105
f 77 105 80
f 77 80 106
f 77 106 107
f 77 107 108
f 77 108 109
f 77 109 79
f 77 79 78
f 79 109 108
f 79 108 106
f 79 106 80
f 80 105 81
f 81 105 110
f 81 110 86
f 86 110 88
f 87 111 112
f 87 93 111
f 88 110 89
f 89 110 113
f 89 113 90
f 90 113 114
f 90 114 91
f 91 114 92
f 92 114 93
f 93 114 115
f 93 115 111
f 94 116 95
f 95 117 96
f 95 116 118
f 95 118 117
f 97 119 98
f 98 100 99
f 98 119 120
f 98 120 121
f 98 121 122
f 98 122 100
f 100 122 101
f 101 122 102
f 102 122 103
f 103 123 104
f 103 122 123
f 104 124 125
f 104 125 126
f 104 126 127
f 104 127 105
f 104 123 128
f 104 128 129
f 104 129 124
f 105 127 114
f 105 114 113
f 105 113 110
f 106 108 107
f 111 121 130
f 111 130 131
f 111 131 132
f 111 132 112
f 111 115 121
f 114 127 133
f 114 133 134
f 114 134 115
f 115 134 135
f 115 135 122
f 115 122 121
f 116 132 130
f 116 130 118
f 117 118 130
f 117 130 136
f 119 137 120
f 120 137 138
f 120 138 130
f 120 130 121
f 122 139 140
f 122 140 141
f 122 141 142
f 122 142 129
f 122 129 128
f 122 128 123
f 122 135 143
f 122 143 144
f 122 144 139
f 124 142 125
f 124 129 142
f 125 142 145
f 125 145 146
f 125 146 147
f 125 147 148
f 125 148 126
f 126 148 127
f 127 148 147
f 127 147 149
f 127 149 146
f 127 146 133
f 130 138 137
f 130 137 136
f 130 132 131
f 133 150 134
f 133 146 150
f 134 150 151
f 134 151 152
f 134 152 153
f 134 153 145
f 134 145 142
f 134 142 154
f 134 154 140
f 134 140 139
f 134 139 144
f 134 144 143
f 134 143 155
f 134 155 135
f 135 155 143
f 140 154 156
f 140 156 141
f 141 156 142
f 142 156 154
f 145 153 146
f 146 153 152
f 146 152 151
f 146 151 157
f 146 157 150
f 146 149 147
f 150 157 151

