# https://github.com/mikedh/trimesh
v -1.37968772 1.11418539 -0.25634812
v -1.38883798 1.11418539 -0.25424391
v -1.39307415 1.11969093 -0.25144727
v -1.37968772 1.11969093 -0.25448376
v -1.36804757 1.11969093 -0.25038202
v -1.36732863 1.11418539 -0.25131409
v -1.39378087 1.11418539 -0.25237955
v -1.39020212 1.12993608 -0.24862413
v -1.40060137 1.11969093 -0.23868926
v -1.37968772 1.13004982 -0.24873059
v -1.37031562 1.12904883 -0.24790498
v -1.36248848 1.11969093 -0.23868926
v -1.36195016 1.11418539 -0.23868926
v -1.39892923 1.11418539 -0.24364334
v -1.37968772 1.13873280 -0.23975473
v -1.39316860 1.13626061 -0.23765052
v -1.38968845 1.14661951 -0.23120492
v -1.39989072 1.13706445 -0.22132350
v -1.40117263 1.11418539 -0.23868926
v -1.40222442 1.13706445 -0.20393080
v -1.37078414 1.14591427 -0.23021941
v -1.36821203 1.13572979 -0.23709127
v -1.36304731 1.13706445 -0.22132350
v -1.36087786 1.13706445 -0.20393080
v -1.36362664 1.11418539 -0.22132350
v -1.36092301 1.13706445 -0.18656503
v -1.36049985 1.15442282 -0.09973578
v -1.36050813 1.17179635 -0.01285309
v -1.36290356 1.15442282 -0.01285309
v -1.36849559 1.14341933 -0.01285309
v -1.37968772 1.14652093 -0.23107174
v -1.39232642 1.14880353 -0.22132350
v -1.37968772 1.15640966 -0.20393080
v -1.37968772 1.15081313 -0.22132350
v -1.39482459 1.15159422 -0.20393080
v -1.40156285 1.11418539 -0.22681009
v -1.40240524 1.15442282 -0.09973578
v -1.40247504 1.17179635 -0.01285309
v -1.40219977 1.15442282 -0.11710155
v -1.40097938 1.15442282 -0.13444080
v -1.36882430 1.14776461 -0.22132350
v -1.36631785 1.15058563 -0.20393080
v -1.36547567 1.15229947 -0.18656503
v -1.36190500 1.15442282 -0.13444080
v -1.36085735 1.15442282 -0.11710155
v -1.36865570 1.11418539 -0.20885836
v -1.36937070 1.14433692 -0.00238570
v -1.36610430 1.18558293 -0.01285309
v -1.36727934 1.18488526 0.00451268
v -1.36357735 1.17179635 0.00451268
v -1.36148184 1.17179635 -0.03024558
v -1.36706165 1.15540108 0.00384697
v -1.38965987 1.16387929 -0.16507080
v -1.37968772 1.15990560 -0.18656503
v -1.37082101 1.16323470 -0.16120870
v -1.39901125 1.15442282 -0.15180657
v -1.40023579 1.17179635 -0.04761155
v -1.39411373 1.18493076 -0.03024558
v -1.39319325 1.16653348 -0.13444080
v -1.39135251 1.16500922 -0.15180657
v -1.39529290 1.11418539 -0.20893831
v -1.39245795 1.14262308 -0.01285309
v -1.39988657 1.15442282 -0.01285309
v -1.39842384 1.17179635 0.00451268
v -1.39341923 1.18571185 0.00451268
v -1.39504642 1.18655360 -0.01285309
v -1.40184227 1.17179635 -0.03024558
v -1.36976507 1.16404613 -0.15180657
v -1.36804364 1.16556280 -0.13444080
v -1.36714367 1.18395251 -0.03024558
v -1.37968772 1.11418539 -0.20054820
v -1.37968772 1.14028739 -0.01285309
v -1.37968772 1.15226913 0.00778881
v -1.37968772 1.14336625 -0.00089417
v -1.36951445 1.16147536 0.01343552
v -1.36966648 1.16185453 0.01402148
v -1.37062382 1.16093694 0.01343552
v -1.37968772 1.19165722 -0.01285309
v -1.37968772 1.19011022 0.00451268
v -1.36942414 1.18257992 0.01343552
v -1.36957617 1.18241308 0.01407471
v -1.36893097 1.17180393 0.01447426
v -1.36928433 1.16247637 0.01343552
v -1.39253189 1.18329275 -0.04761155
v -1.39031729 1.18167749 -0.06497732
v -1.38882991 1.18075232 -0.07515183
v -1.38603576 1.18075232 -0.07515183
v -1.37006106 1.18116941 -0.05991678
v -1.36868449 1.18232208 -0.04761155
v -1.39293041 1.11418539 -0.20664769
v -1.39090056 1.14398808 -0.00158660
v -1.39389189 1.15518116 0.00432626
v -1.39028021 1.16148294 0.01407471
v -1.39135665 1.17180393 0.01450078
v -1.39044053 1.18287567 0.01407471
v -1.37968378 1.16094452 0.01447426
v -1.37968378 1.17180393 0.01575265
v -1.37968378 1.18372501 0.01450078
f 1 2 3
f 1 3 4
f 1 4 5
f 1 5 6
f 1 6 13
f 1 13 25
f 1 25 46
f 1 46 71
f 1 71 90
f 1 90 61
f 1 61 36
f 1 36 19
f 1 19 14
f 1 14 7
f 1 7 2
f 2 7 3
f 3 8 4
f 3 7 9
f 3 9 8
f 4 8 10
f 4 10 11
f 4 11 5
f 5 11 12
f 5 12 6
f 6 12 13
f 7 14 9
f 8 15 10
f 8 9 16
f 8 16 17
f 8 17 15
f 9 18 16
f 9 14 19
f 9 19 20
f 9 20 18
f 10 15 11
f 11 15 21
f 11 21 22
f 11 22 12
f 12 22 23
f 12 23 24
f 12 24 13
f 13 24 26
f 13 26 27
f 13 27 28
f 13 28 29
f 13 29 30
f 13 30 25
f 15 17 31
f 15 31 21
f 16 18 17
f 17 18 32
f 17 32 33
f 17 33 34
f 17 34 31
f 18 20 35
f 18 35 32
f 19 36 20
f 20 37 38
f 20 38 39
f 20 39 40
f 20 40 35
f 20 36 37
f 21 31 34
f 21 34 33
f 21 33 41
f 21 41 23
f 21 23 22
f 23 41 42
f 23 42 24
f 24 42 43
f 24 43 44
f 24 44 45
f 24 45 27
f 24 27 26
f 25 30 47
f 25 47 46
f 27 45 28
f 28 48 49
f 28 49 50
f 28 50 29
f 28 45 51
f 28 51 48
f 29 50 52
f 29 52 47
f 29 47 30
f 32 35 53
f 32 53 33
f 33 53 54
f 33 54 55
f 33 55 41
f 35 40 56
f 35 56 57
f 35 57 58
f 35 58 59
f 35 59 60
f 35 60 53
f 36 61 62
f 36 62 63
f 36 63 38
f 36 38 37
f 38 63 64
f 38 64 65
f 38 65 66
f 38 66 67
f 38 67 39
f 39 67 40
f 40 67 57
f 40 57 56
f 41 55 42
f 42 55 68
f 42 68 69
f 42 69 70
f 42 70 48
f 42 48 43
f 43 48 44
f 44 48 51
f 44 51 45
f 46 47 72
f 46 72 71
f 47 73 74
f 47 74 72
f 47 52 75
f 47 75 76
f 47 76 77
f 47 77 73
f 48 70 78
f 48 78 49
f 49 78 79
f 49 79 80
f 49 80 81
f 49 81 50
f 50 81 82
f 50 82 83
f 50 83 52
f 52 83 75
f 53 60 84
f 53 84 85
f 53 85 86
f 53 86 54
f 54 86 87
f 54 87 78
f 54 78 55
f 55 88 89
f 55 89 68
f 55 78 88
f 57 67 66
f 57 66 58
f 58 66 78
f 58 78 84
f 58 84 59
f 59 84 60
f 61 90 72
f 61 72 91
f 61 91 62
f 62 91 63
f 63 91 92
f 63 92 64
f 64 92 93
f 64 93 94
f 64 94 95
f 64 95 65
f 65 79 78
f 65 78 66
f 65 95 79
f 68 89 69
f 69 89 70
f 70 89 78
f 71 72 90
f 72 74 91
f 73 91 74
f 73 77 96
f 73 96 93
f 73 93 91
f 75 83 76
f 76 82 97
f 76 97 96
f 76 96 77
f 76 83 82
f 78 89 88
f 78 87 86
f 78 86 85
f 78 85 84
f 79 95 98
f 79 98 81
f 79 81 80
f 81 98 97
f 81 97 82
f 91 93 92
f 93 96 97
f 93 97 94
f 94 97 95
f 95 97 98

