# https://github.com/mikedh/trimesh
v -0.28135930 0.98136249 0.90407119
v -0.18348622 0.98136249 0.90407119
v -0.28135930 0.98136249 0.91949969
v -0.28135930 1.58893481 0.90251473
v -0.22723981 1.62367453 0.87729231
v -0.22633922 1.61129944 0.87729231
v -0.20900825 1.59549511 0.87729231
v -0.19819206 1.59191677 0.87729231
v -0.18348622 1.58968031 0.87729231
v -0.18348622 0.98136249 0.91949969
v -0.21556135 1.60637924 0.92872246
v -0.28135930 1.60637924 0.92806555
v -0.22713438 2.26628478 0.87729231
v -0.28135930 2.49216745 0.91043870
v -0.22709607 2.28372915 0.87729231
v -0.18348622 1.61443048 0.87729231
v -0.18348622 1.58893481 0.92378516
v -0.19819206 1.60637924 0.92748943
v -0.21556135 1.62367453 0.92891457
v -0.21556135 2.28372915 0.92891457
v -0.28135930 2.47487221 0.92679203
v -0.28135930 2.50439346 0.91361231
v -0.20616294 2.49216745 0.87729231
v -0.18348622 1.61935069 0.90888721
v -0.18772073 2.49216745 0.87729231
v -0.18348622 1.60652832 0.92335558
v -0.18861180 2.49216745 0.91856990
v -0.19819206 2.47487221 0.92455329
v -0.21556135 2.30102449 0.92884373
v -0.28135930 2.49216745 0.92672637
v -0.28135930 2.47845054 0.92678188
v -0.28135930 2.50439346 0.92169297
v -0.23292090 2.50439346 0.91352138
v -0.19819206 2.50409530 0.90804327
v -0.18863085 2.50215700 0.87729231
v -0.19812495 2.50200797 0.87729231
v -0.20446719 2.49455304 0.87729231
v -0.18348622 1.61398319 0.92126846
v -0.18772073 2.49216745 0.90804327
v -0.18842020 2.49992054 0.87729231
v -0.18891835 2.50170971 0.91793816
v -0.19819206 2.49216745 0.92402771
v -0.21556135 2.47487221 0.92771685
v -0.21556135 2.49216745 0.92718619
v -0.21556135 2.50439346 0.92169297
v -0.19819206 2.50334974 0.92011621
v -0.18863085 2.50215700 0.90804327
f 1 2 10
f 1 10 3
f 1 3 12
f 1 12 21
f 1 21 31
f 1 31 30
f 1 30 32
f 1 32 22
f 1 22 14
f 1 14 4
f 1 4 5
f 1 5 6
f 1 6 7
f 1 7 8
f 1 8 9
f 1 9 2
f 2 9 16
f 2 16 24
f 2 24 38
f 2 38 26
f 2 26 17
f 2 17 10
f 3 10 11
f 3 11 12
f 4 13 5
f 4 14 15
f 4 15 13
f 5 13 15
f 5 15 23
f 5 23 37
f 5 37 36
f 5 36 35
f 5 35 40
f 5 40 25
f 5 25 16
f 5 16 9
f 5 9 8
f 5 8 7
f 5 7 6
f 10 17 18
f 10 18 11
f 11 18 19
f 11 19 12
f 12 19 20
f 12 20 21
f 14 22 23
f 14 23 15
f 16 25 24
f 17 26 27
f 17 27 28
f 17 28 18
f 18 28 20
f 18 20 19
f 20 28 29
f 20 29 30
f 20 30 31
f 20 31 21
f 22 32 45
f 22 45 33
f 22 33 34
f 22 34 35
f 22 35 36
f 22 36 37
f 22 37 23
f 24 25 39
f 24 39 38
f 25 40 39
f 26 38 39
f 26 39 27
f 27 39 41
f 27 41 42
f 27 42 28
f 28 43 29
f 28 42 43
f 29 43 30
f 30 43 44
f 30 44 32
f 32 44 45
f 33 45 34
f 34 46 41
f 34 41 47
f 34 47 35
f 34 45 46
f 35 47 40
f 39 40 47
f 39 47 41
f 41 46 42
f 42 46 44
f 42 44 43
f 44 46 45

