# https://github.com/mikedh/trimesh
v -2.68482729 0.41556922 2.81678650
v -2.73130606 0.41556922 2.81678650
v -2.68482729 0.40601883 2.81678650
v -2.68482729 0.41556922 2.77143047
v -2.73518721 0.40738313 2.81678650
v -2.71709096 0.41556922 2.80231317
v -2.80645302 0.39984561 2.58136365
v -2.80645302 0.39984561 2.58772458
v -2.68672028 0.39392937 2.81678650
v -2.68482729 0.39832829 2.81238458
v -2.70018527 0.41556922 2.78601908
v -2.68482729 0.40603105 2.76788124
v -2.73471097 0.37255869 2.58136365
v -2.73659205 0.38574945 2.58136365
v -2.73717543 0.38976290 2.58136365
v -2.73774684 0.39181864 2.58136365
v -2.74419958 0.39778992 2.58136365
v -2.75272386 0.39967431 2.58136365
v -2.75652170 0.39974158 2.58136365
v -2.78705911 0.39984561 2.58136365
v -2.73571104 0.40603716 2.81678650
v -2.80645302 0.35773448 2.58136365
v -2.80645302 0.38992809 2.59498434
v -2.68738697 0.39154332 2.81678650
v -2.68482729 0.39377030 2.80420300
v -2.68482729 0.39781441 2.81146271
v -2.68482729 0.39039309 2.76721289
v -2.73543721 0.36971380 2.58136365
v -2.73911600 0.38878402 2.81678650
v -2.75186666 0.35703698 2.58136365
v -2.75230717 0.35549523 2.62819474
v -2.71732905 0.35306635 2.81678650
v -2.80645302 0.35773448 2.59201129
v -2.80645302 0.37255869 2.59924796
v -2.70048291 0.35579505 2.81678650
v -2.68482729 0.38644079 2.78454407
v -2.70072101 0.35529949 2.81678650
v -2.73868741 0.36068346 2.58136365
v -2.73919932 0.38658759 2.81678650
v -2.70117343 0.35510977 2.81678650
v -2.71919822 0.35361700 2.81678650
v -2.80645302 0.37083954 2.59841831
v -2.72855587 0.36055494 2.81678650
v -2.73380619 0.37060704 2.81678650
f 1 2 5
f 1 5 21
f 1 21 29
f 1 29 39
f 1 39 44
f 1 44 43
f 1 43 41
f 1 41 32
f 1 32 40
f 1 40 37
f 1 37 35
f 1 35 24
f 1 24 9
f 1 9 3
f 1 3 10
f 1 10 26
f 1 26 25
f 1 25 36
f 1 36 27
f 1 27 12
f 1 12 4
f 1 4 11
f 1 11 6
f 1 6 2
f 2 6 7
f 2 7 8
f 2 8 5
f 3 9 10
f 4 12 13
f 4 13 14
f 4 14 15
f 4 15 16
f 4 16 17
f 4 17 18
f 4 18 19
f 4 19 20
f 4 20 7
f 4 7 11
f 5 8 21
f 6 11 7
f 7 20 19
f 7 19 18
f 7 18 17
f 7 17 16
f 7 16 15
f 7 15 14
f 7 14 13
f 7 13 28
f 7 28 38
f 7 38 30
f 7 30 22
f 7 22 33
f 7 33 42
f 7 42 34
f 7 34 23
f 7 23 8
f 8 23 21
f 9 24 25
f 9 25 26
f 9 26 10
f 12 27 13
f 13 27 28
f 21 23 29
f 22 30 31
f 22 31 32
f 22 32 33
f 23 34 29
f 24 35 25
f 25 35 36
f 27 36 37
f 27 37 38
f 27 38 28
f 29 34 39
f 30 38 40
f 30 40 32
f 30 32 31
f 32 41 33
f 33 41 43
f 33 43 44
f 33 44 39
f 33 39 42
f 34 42 39
f 35 37 36
f 37 40 38

