# https://github.com/mikedh/trimesh
v -3.99027218 0.51897353 2.49023904
v -3.99027218 0.45691412 2.49023904
v -3.99027218 0.51897353 2.44198457
v -4.30849939 0.51897353 2.49023904
v -3.99027218 0.45691412 2.44198457
v -4.27180563 0.45691412 2.49023904
v -4.28727888 0.51897353 2.44198457
v -4.30375700 0.51897353 2.47766055
v -4.38554436 0.51842671 2.44198457
v -4.40081669 0.51477547 2.44198457
v -4.40081669 0.49971472 2.45724595
v -4.40081669 0.48986058 2.46642353
v -4.39551153 0.46941711 2.48141096
v -4.39997264 0.45691412 2.48527942
v -4.38554436 0.45691412 2.48978087
v -4.30677122 0.51271590 2.49023904
v -4.39945017 0.45691412 2.44198457
v -4.27867822 0.46387034 2.49023904
v -4.28784154 0.51897353 2.44271197
v -4.29041375 0.51897353 2.44684026
v -4.28997164 0.51897353 2.44587194
v -4.28932861 0.51897353 2.44465801
v -4.40081669 0.46649490 2.44198457
v -4.40081669 0.47468441 2.47563894
v -4.40081669 0.45691412 2.48442922
v -4.28663585 0.47264918 2.49023904
v -4.29258403 0.48126402 2.49023904
v -4.29322706 0.48235149 2.49023904
v -4.29909487 0.49414366 2.49023904
v -4.40081669 0.45691412 2.44225381
f 1 2 5
f 1 5 3
f 1 3 7
f 1 7 19
f 1 19 22
f 1 22 21
f 1 21 20
f 1 20 8
f 1 8 4
f 1 4 16
f 1 16 29
f 1 29 28
f 1 28 27
f 1 27 26
f 1 26 18
f 1 18 6
f 1 6 2
f 2 6 15
f 2 15 14
f 2 14 25
f 2 25 30
f 2 30 17
f 2 17 5
f 3 5 17
f 3 17 23
f 3 23 10
f 3 10 9
f 3 9 7
f 4 8 9
f 4 9 10
f 4 10 11
f 4 11 12
f 4 12 13
f 4 13 14
f 4 14 15
f 4 15 16
f 6 18 15
f 7 9 19
f 8 20 9
f 9 20 21
f 9 21 22
f 9 22 19
f 10 23 30
f 10 30 25
f 10 25 24
f 10 24 12
f 10 12 11
f 12 24 13
f 13 24 14
f 14 24 25
f 15 18 26
f 15 26 27
f 15 27 28
f 15 28 29
f 15 29 16
f 17 30 23

