# https://github.com/mikedh/trimesh
v -1.75607402 0.38900264 1.48268871
v -1.75607402 0.38100411 1.47479871
v -1.75607402 0.40570659 1.48192751
v -1.80308334 0.40030667 1.59534447
v -1.80308334 0.39279665 1.59534447
v -1.75607402 0.37301593 1.44581501
v -1.81405333 0.38584794 1.59534447
v -1.75607402 0.42583031 1.47640891
v -1.81473364 0.42611096 1.59534447
v -1.80764998 0.39544726 1.50385557
v -1.78797195 0.39898654 1.47277864
v -1.76723104 0.40458401 1.44581501
v -1.75607402 0.42611096 1.44581501
v -1.81405333 0.38575954 1.58566861
v -1.83198807 0.39017721 1.59534447
v -1.81405333 0.38658593 1.55091745
v -1.82677520 0.39336832 1.55091745
v -1.82454713 0.39575909 1.53721608
v -1.75607402 0.42611096 1.47031942
v -1.76065754 0.42611096 1.48151766
v -1.84270288 0.42611096 1.59534447
v -1.80898502 0.40730214 1.50171838
v -1.82230218 0.40730214 1.52553477
v -1.81723377 0.40730214 1.51618095
v -1.80297284 0.40730214 1.49303793
v -1.78833763 0.41056600 1.47241265
v -1.76728210 0.40691233 1.44581501
v -1.76689943 0.42611096 1.44581501
v -1.84121477 0.39666858 1.59534447
v -1.82919879 0.39219893 1.56829301
v -1.84081502 0.39731824 1.59096766
v -1.83106967 0.40730214 1.55091745
v -1.82566116 0.40730214 1.53421527
v -1.84141030 0.42611096 1.58814244
v -1.84294097 0.42467650 1.59534447
v -1.80904457 0.42467650 1.50164521
v -1.80307485 0.42467650 1.49295011
v -1.81735287 0.42467650 1.51618095
v -1.82237011 0.42467650 1.52540303
v -1.78831216 0.42467650 1.47244196
v -1.78827819 0.42611096 1.47247122
v -1.84207363 0.40093551 1.59534447
v -1.84283047 0.40730214 1.59534447
v -1.84143588 0.40730214 1.58802536
v -1.83125671 0.42467650 1.55091745
v -1.82572071 0.42467650 1.53408348
v -1.84148683 0.42467650 1.58777650
v -1.83141827 0.42611096 1.55235202
v -1.80890000 0.42611096 1.50186477
v -1.80295586 0.42611096 1.49318432
v -1.81707221 0.42611096 1.51618095
v -1.82259972 0.42611096 1.52657408
v -1.82226810 0.42611096 1.52591536
v -1.83095057 0.42611096 1.55081498
v -1.82561010 0.42611096 1.53439091
f 1 2 6
f 1 6 13
f 1 13 19
f 1 19 8
f 1 8 3
f 1 3 4
f 1 4 5
f 1 5 2
f 2 5 7
f 2 7 6
f 3 8 4
f 4 9 21
f 4 21 35
f 4 35 43
f 4 43 42
f 4 42 29
f 4 29 15
f 4 15 7
f 4 7 5
f 4 8 9
f 6 10 11
f 6 11 12
f 6 12 27
f 6 27 28
f 6 28 13
f 6 7 14
f 6 14 15
f 6 15 16
f 6 16 17
f 6 17 18
f 6 18 10
f 7 15 14
f 8 19 20
f 8 20 9
f 9 20 19
f 9 19 13
f 9 13 28
f 9 28 41
f 9 41 50
f 9 50 49
f 9 49 51
f 9 51 53
f 9 53 52
f 9 52 55
f 9 55 54
f 9 54 48
f 9 48 34
f 9 34 21
f 10 22 11
f 10 18 23
f 10 23 24
f 10 24 22
f 11 22 25
f 11 25 26
f 11 26 12
f 12 26 27
f 15 29 30
f 15 30 16
f 16 30 17
f 17 30 29
f 17 29 31
f 17 31 18
f 18 31 32
f 18 32 33
f 18 33 23
f 21 34 35
f 22 36 37
f 22 37 25
f 22 24 38
f 22 38 36
f 23 33 39
f 23 39 24
f 24 39 38
f 25 37 26
f 26 37 40
f 26 40 27
f 27 40 28
f 28 40 41
f 29 42 31
f 31 42 43
f 31 43 44
f 31 44 32
f 32 45 33
f 32 44 45
f 33 46 39
f 33 45 46
f 34 47 35
f 34 48 45
f 34 45 47
f 35 47 44
f 35 44 43
f 36 38 49
f 36 49 50
f 36 50 37
f 37 50 41
f 37 41 40
f 38 39 51
f 38 51 49
f 39 46 52
f 39 52 53
f 39 53 51
f 44 47 45
f 45 48 54
f 45 54 55
f 45 55 46
f 46 55 52

