# https://github.com/mikedh/trimesh
v -0.47997314 2.50467764 0.98274770
v -0.45447575 2.50443695 0.92170850
v -0.47586041 2.50515900 0.92567406
v -0.48826320 2.50467764 0.98274770
v -0.47500767 2.49216155 0.98274770
v -0.45447575 2.49529062 0.92548557
v -0.45447575 2.50443695 0.91362183
v -0.48800036 2.50443695 0.92542830
v -0.48826320 2.50467764 0.94279780
v -0.45880306 2.50443695 0.91362183
v -0.47618208 2.50419627 0.91378578
v -0.49069219 2.49601267 0.98274770
v -0.45447575 2.49216155 0.92673921
v -0.47217645 2.28372118 0.98274770
v -0.45447575 2.49216155 0.91045113
v -0.48677251 2.50299265 0.91488365
v -0.49118556 2.49216155 0.92542830
v -0.49172720 2.49216155 0.94279780
v -0.45880306 2.49216155 0.91045113
v -0.47618208 2.49216155 0.91078709
v -0.49172720 2.49216155 0.98274770
v -0.45447575 2.47483161 0.92680466
v -0.47098070 1.76237977 0.98274770
v -0.45447575 1.58859932 0.90196294
v -0.45880306 1.58859932 0.90178274
v -0.47618208 1.58859932 0.90162709
v -0.48775367 2.49216155 0.91393325
v -0.49152877 0.89395880 0.89905446
v -0.50295558 1.10239909 0.95032729
v -0.50530440 1.10239909 0.96016729
v -0.50839826 1.10239909 0.97754508
v -0.50925080 1.10239909 0.98274770
v -0.45447575 1.60616991 0.92807467
v -0.47108799 0.51173805 0.98274770
v -0.45447575 0.92958139 0.89905446
v -0.47675044 0.92669308 0.89905446
v -0.48845086 0.91032593 0.89905446
v -0.49010249 0.90358652 0.89905446
v -0.49155549 0.88481246 0.89905446
v -0.49152877 0.87662889 0.89905446
v -0.49124459 0.05995696 0.92542830
v -0.49179162 0.05995696 0.94279780
v -0.49179162 0.05995696 0.96016729
v -0.49175931 0.05995696 0.98274770
v -0.45447575 0.92861861 0.92270810
v -0.47257869 0.07728689 0.98274770
v -0.45447575 0.89107048 0.89905446
v -0.47624650 0.05995696 0.89905446
v -0.48778060 0.05995696 0.91363012
v -0.48680461 0.04864428 0.91467062
v -0.48805400 0.04720019 0.92542830
v -0.48832762 0.04695951 0.94279780
v -0.48832762 0.04695951 0.96016729
v -0.48829531 0.04720019 0.98274770
v -0.45447575 0.91128871 0.92238860
v -0.47266444 0.05995696 0.98274770
v -0.45503355 0.07728689 0.90805052
v -0.45447575 0.89347741 0.90805052
v -0.45565017 0.07728689 0.89905446
v -0.47516861 0.05538379 0.89905446
v -0.47243391 0.04792224 0.89905446
v -0.47545279 0.04720019 0.90855032
v -0.47582810 0.04623746 0.92570679
v -0.47880949 0.04720019 0.98274770
v -0.45447575 0.89925403 0.91940628
v -0.47444470 0.05610584 0.98274770
v -0.46340936 0.04840360 0.92009446
v -0.45561806 0.05995696 0.90805052
v -0.45617565 0.05995696 0.89905446
v -0.46209556 0.04840360 0.89905446
v -0.46184887 0.04792224 0.90805052
f 1 2 3
f 1 3 4
f 1 4 12
f 1 12 21
f 1 21 32
f 1 32 44
f 1 44 54
f 1 54 64
f 1 64 66
f 1 66 56
f 1 56 46
f 1 46 34
f 1 34 23
f 1 23 14
f 1 14 5
f 1 5 2
f 2 6 13
f 2 13 22
f 2 22 33
f 2 33 45
f 2 45 55
f 2 55 65
f 2 65 58
f 2 58 47
f 2 47 35
f 2 35 24
f 2 24 15
f 2 15 7
f 2 7 3
f 2 5 6
f 3 8 9
f 3 9 4
f 3 7 10
f 3 10 11
f 3 11 8
f 4 9 12
f 5 13 6
f 5 14 13
f 7 15 19
f 7 19 10
f 8 11 16
f 8 16 17
f 8 17 18
f 8 18 9
f 9 18 12
f 10 19 11
f 11 19 20
f 11 20 16
f 12 18 21
f 13 14 23
f 13 23 22
f 15 24 25
f 15 25 26
f 15 26 19
f 16 20 27
f 16 27 17
f 17 27 28
f 17 28 29
f 17 29 30
f 17 30 31
f 17 31 32
f 17 32 18
f 18 32 21
f 19 26 20
f 20 26 27
f 22 23 33
f 23 34 33
f 24 35 25
f 25 35 26
f 26 35 36
f 26 36 37
f 26 37 38
f 26 38 28
f 26 28 27
f 28 38 37
f 28 37 36
f 28 36 35
f 28 35 47
f 28 47 59
f 28 59 69
f 28 69 70
f 28 70 61
f 28 61 60
f 28 60 48
f 28 48 40
f 28 40 39
f 28 39 30
f 28 30 29
f 30 39 40
f 30 40 41
f 30 41 31
f 31 41 32
f 32 41 42
f 32 42 43
f 32 43 44
f 33 34 45
f 34 46 45
f 40 48 49
f 40 49 41
f 41 49 50
f 41 50 51
f 41 51 42
f 42 51 52
f 42 52 53
f 42 53 43
f 43 53 44
f 44 53 54
f 45 46 55
f 46 56 57
f 46 57 55
f 47 58 57
f 47 57 59
f 48 60 50
f 48 50 49
f 50 60 61
f 50 61 51
f 51 61 62
f 51 62 63
f 51 63 52
f 52 63 53
f 53 63 54
f 54 63 64
f 55 57 65
f 56 66 67
f 56 67 68
f 56 68 57
f 57 68 69
f 57 69 59
f 57 58 65
f 61 70 62
f 62 70 63
f 63 70 71
f 63 71 64
f 64 71 67
f 64 67 66
f 67 71 68
f 68 71 70
f 68 70 69

