# https://github.com/mikedh/trimesh
v -0.48060632 0.85390334 0.29674685
v -0.48060632 0.79671495 0.29674685
v -0.48060632 0.85390334 0.24817796
v -0.55846385 0.85390334 0.29674685
v -0.48060632 0.79671495 0.25761717
v -0.49604684 0.79671495 0.29674685
v -0.48179524 0.79671495 0.25307611
v -0.49266300 0.85390334 0.24499918
v -0.55846385 0.85390334 0.24491757
v -0.55846385 0.83859302 0.29674685
v -0.55846385 0.83777013 0.28254206
v -0.49482728 0.79671495 0.26517380
v -0.48978973 0.79671495 0.25307611
v -0.50972678 0.85390334 0.24462159
v -0.49356981 0.85390334 0.24492254
v -0.55846385 0.85236951 0.24633598
v -0.55846385 0.83880012 0.26976064
v -0.55846385 0.83917521 0.26517380
v -0.55846385 0.84380468 0.25601504
v -0.55846385 0.84547286 0.25272917
f 1 2 5
f 1 5 3
f 1 3 8
f 1 8 15
f 1 15 14
f 1 14 9
f 1 9 4
f 1 4 10
f 1 10 6
f 1 6 2
f 2 6 12
f 2 12 13
f 2 13 7
f 2 7 5
f 3 5 7
f 3 7 8
f 4 9 16
f 4 16 20
f 4 20 19
f 4 19 18
f 4 18 17
f 4 17 11
f 4 11 10
f 6 10 11
f 6 11 12
f 7 13 14
f 7 14 15
f 7 15 8
f 9 14 13
f 9 13 16
f 11 17 12
f 12 17 18
f 12 18 13
f 13 18 19
f 13 19 20
f 13 20 16

