# https://github.com/mikedh/trimesh
v -3.07218143 0.42838289 2.81678650
v -3.07901133 0.42838289 2.81678650
v -3.07218143 0.38478781 2.81678650
v -3.07218143 0.42838289 2.77855193
v -3.07949408 0.42467702 2.81678650
v -3.10894130 0.42838289 2.77643162
v -3.07703567 0.39189445 2.81678650
v -3.10870887 0.39826698 2.77613201
v -3.12747321 0.39608681 2.74379740
v -3.12975282 0.39361475 2.73241228
v -3.11720154 0.38678669 2.73241228
v -3.11720154 0.38579170 2.71505806
v -3.07218143 0.38320908 2.78442886
v -3.07218143 0.40203479 2.77103869
v -3.12336990 0.40038528 2.58136365
v -3.13244366 0.42838289 2.58136365
v -3.07916331 0.40730178 2.81678650
v -3.10905751 0.42467702 2.77659297
v -3.10901281 0.40730178 2.77652379
v -3.12823308 0.42838289 2.74506497
v -3.12850126 0.42467702 2.74550284
v -3.12844763 0.40730178 2.74543371
v -3.14345731 0.39821396 2.70694555
v -3.14484295 0.39602488 2.69770384
v -3.14698847 0.39327863 2.68032653
v -3.13456235 0.38906421 2.69770384
v -3.13456235 0.38649485 2.68032653
v -3.07218143 0.38997521 2.76986330
v -3.13456235 0.38620735 2.66294926
v -3.13456235 0.38561481 2.59344021
v -3.13456235 0.38552192 2.58136365
v -3.13111165 0.38764906 2.58136365
v -3.12336990 0.39257108 2.58136365
v -3.07218143 0.39664404 2.76997851
v -3.16305304 0.42838289 2.58136365
v -3.13216652 0.42838289 2.73559272
v -3.13394551 0.42467702 2.73241228
v -3.13381143 0.40730178 2.73241228
v -3.14690803 0.40730178 2.69770384
v -3.15114541 0.40730178 2.68032653
v -3.14378808 0.40730178 2.70782134
v -3.16037114 0.40098232 2.61750101
v -3.14838306 0.39246493 2.66294926
v -3.16093433 0.39800611 2.60593154
v -3.15194104 0.39023168 2.59344021
v -3.15194104 0.38956831 2.58136365
v -3.14665771 0.38816647 2.58136365
v -3.16308879 0.42812642 2.58136365
v -3.16303516 0.42838289 2.58175548
v -3.14370762 0.42838289 2.70761395
v -3.14383278 0.42467702 2.70793661
v -3.14700636 0.42467702 2.69770384
v -3.15128845 0.42467702 2.68032653
v -3.16086282 0.41256431 2.62155723
v -3.16138132 0.40698337 2.61137061
v -3.16135450 0.39721892 2.59344021
v -3.16169420 0.39661747 2.58136365
v -3.15883352 0.39449478 2.58136365
v -3.16267757 0.40730178 2.59344021
v -3.16336593 0.40730178 2.58136365
v -3.16349109 0.42467702 2.58136365
v -3.16214118 0.42838289 2.59848744
v -3.14564753 0.42838289 2.70134519
v -3.14955416 0.42838289 2.68505115
v -3.15045706 0.42838289 2.68064918
v -3.16062145 0.42838289 2.61943698
v -3.16086282 0.42029892 2.62155723
v -3.16281167 0.42467702 2.59344021
v -3.16101480 0.42838289 2.61491979
v -3.16143496 0.42552609 2.61196983
f 1 2 5
f 1 5 17
f 1 17 7
f 1 7 3
f 1 3 13
f 1 13 28
f 1 28 34
f 1 34 14
f 1 14 4
f 1 4 16
f 1 16 35
f 1 35 49
f 1 49 62
f 1 62 69
f 1 69 66
f 1 66 65
f 1 65 64
f 1 64 63
f 1 63 50
f 1 50 36
f 1 36 20
f 1 20 6
f 1 6 2
f 2 6 5
f 3 7 8
f 3 8 9
f 3 9 10
f 3 10 11
f 3 11 12
f 3 12 13
f 4 14 15
f 4 15 16
f 5 6 18
f 5 18 19
f 5 19 17
f 6 20 21
f 6 21 18
f 7 17 8
f 8 17 19
f 8 19 22
f 8 22 9
f 9 22 23
f 9 23 10
f 10 23 24
f 10 24 25
f 10 25 26
f 10 26 11
f 11 26 27
f 11 27 12
f 12 27 13
f 13 27 29
f 13 29 30
f 13 30 31
f 13 31 32
f 13 32 33
f 13 33 28
f 14 34 15
f 15 33 32
f 15 32 31
f 15 31 47
f 15 47 46
f 15 46 58
f 15 58 57
f 15 57 60
f 15 60 61
f 15 61 48
f 15 48 35
f 15 35 16
f 15 34 28
f 15 28 33
f 18 21 19
f 19 21 22
f 20 36 37
f 20 37 21
f 21 37 22
f 22 37 38
f 22 38 23
f 23 39 40
f 23 40 24
f 23 38 41
f 23 41 39
f 24 40 42
f 24 42 25
f 25 43 27
f 25 27 26
f 25 42 44
f 25 44 43
f 27 43 45
f 27 45 46
f 27 46 29
f 29 46 47
f 29 47 30
f 30 47 31
f 35 48 49
f 36 50 37
f 37 50 51
f 37 51 41
f 37 41 38
f 39 52 53
f 39 53 40
f 39 41 52
f 40 53 54
f 40 54 42
f 41 51 52
f 42 54 55
f 42 55 44
f 43 44 56
f 43 56 57
f 43 57 58
f 43 58 45
f 44 55 59
f 44 59 60
f 44 60 56
f 45 58 46
f 48 61 62
f 48 62 49
f 50 63 52
f 50 52 51
f 52 63 53
f 53 63 64
f 53 64 65
f 53 65 66
f 53 66 67
f 53 67 54
f 54 67 68
f 54 68 59
f 54 59 55
f 56 60 57
f 59 68 60
f 60 68 61
f 61 68 62
f 62 68 69
f 66 69 70
f 66 70 67
f 67 70 68
f 68 70 69

