# https://github.com/mikedh/trimesh
v -6.62039476 2.42254779 4.24538307
v -6.63244211 2.42254779 4.24348827
v -6.63244211 2.42254779 4.24538307
v -6.62039476 2.14551646 4.24538307
v -6.61309124 1.97752755 4.24536608
v -6.62020399 1.63470334 4.15899210
v -6.63244771 2.09391750 4.15899210
v -6.65258442 2.42238074 4.15899210
v -6.67212006 2.42238074 4.24536608
v -6.67169835 2.42238074 4.15899210
v -6.63244211 2.14551646 4.24538307
v -6.62040056 1.30256628 4.24536608
v -6.62020399 1.55555152 4.15899210
v -6.62658890 1.17732608 4.15896662
v -6.65259602 1.30239931 4.15896662
v -6.67170974 1.03972884 4.15896662
v -6.67212006 1.87566551 4.24536608
v -6.67170394 1.30239931 4.15896662
v -6.67210266 1.30256628 4.24536608
v -6.64733789 0.71660910 4.23184874
v -6.62658890 1.09800724 4.22668029
v -6.62658890 1.09817424 4.15930507
v -6.62697022 1.09817424 4.15896662
v -6.62658890 1.16046039 4.15896662
v -6.67170974 0.71660910 4.15896662
v -6.67172714 0.71660910 4.23184874
v -6.65260162 0.71660910 4.15896662
f 1 2 3
f 1 3 11
f 1 11 4
f 1 4 5
f 1 5 6
f 1 6 7
f 1 7 8
f 1 8 2
f 2 9 3
f 2 8 10
f 2 10 9
f 3 9 17
f 3 17 11
f 4 11 19
f 4 19 12
f 4 12 5
f 5 12 13
f 5 13 6
f 6 13 24
f 6 24 14
f 6 14 7
f 7 14 8
f 8 14 15
f 8 15 18
f 8 18 10
f 9 10 16
f 9 16 25
f 9 25 17
f 10 18 16
f 11 17 19
f 12 19 26
f 12 26 20
f 12 20 21
f 12 21 22
f 12 22 13
f 13 22 23
f 13 23 24
f 14 24 23
f 14 23 27
f 14 27 25
f 14 25 16
f 14 16 18
f 14 18 15
f 17 25 19
f 19 25 26
f 20 26 25
f 20 25 27
f 20 27 22
f 20 22 21
f 22 27 23

