# https://github.com/mikedh/trimesh
v -6.34717985 0.56358100 3.82696047
v -6.34717985 0.36610823 3.82696047
v -6.34721402 0.56358100 2.61110869
v -6.34721402 0.56358100 4.07002653
v -6.34721402 0.36610823 4.07002653
v -6.34721402 0.36610823 2.61110869
v -6.34724820 0.56358100 1.74238239
v -6.34779584 0.56358100 4.15895958
v -6.34779584 0.36610823 4.15895958
v -6.34724820 0.36610823 1.74238239
v -6.34772749 0.56358100 1.49905555
v -6.69680157 0.56358100 4.15895958
v -6.69673301 0.36610823 4.15895958
v -6.34772749 0.36610823 1.49905555
v -6.34776167 0.36610823 1.49696916
v -6.34783023 0.56358100 1.49462188
v -6.69683574 0.56358100 2.57616143
v -6.69673301 0.36610823 2.59337429
v -6.34783023 0.36610823 1.49462188
v -6.69683574 0.56358100 1.49462188
v -6.69669883 0.36610823 1.49462188
f 1 2 6
f 1 6 3
f 1 3 7
f 1 7 11
f 1 11 16
f 1 16 20
f 1 20 17
f 1 17 12
f 1 12 8
f 1 8 4
f 1 4 5
f 1 5 2
f 2 5 9
f 2 9 13
f 2 13 18
f 2 18 21
f 2 21 19
f 2 19 15
f 2 15 14
f 2 14 10
f 2 10 6
f 3 6 10
f 3 10 7
f 4 8 9
f 4 9 5
f 7 10 14
f 7 14 11
f 8 12 13
f 8 13 9
f 11 14 15
f 11 15 16
f 12 17 13
f 13 17 20
f 13 20 18
f 15 19 16
f 16 19 21
f 16 21 20
f 18 20 21

