# https://github.com/mikedh/trimesh
v -4.14019859 0.50883086 2.74200647
v -4.12714470 0.50882102 2.74200647
v -4.09935680 0.50882102 2.66838123
v -4.09738578 0.50882102 2.66294206
v -4.09606104 0.50882102 2.65901664
v -4.09470394 0.50882102 2.65463796
v -4.14019859 0.50883086 2.65463796
v -4.40079121 0.50883086 2.74200647
v -4.07072874 0.44117125 2.74200647
v -4.07072874 0.44099457 2.74081772
v -4.07072874 0.43966942 2.73241953
v -4.07072874 0.43430026 2.69995568
v -4.07072874 0.42607467 2.65463796
v -4.38757576 0.50883086 2.65463796
v -4.40079121 0.50883086 2.68091865
v -4.40079121 0.42261957 2.74200647
v -4.07072874 0.42352260 2.74200647
v -4.07072874 0.40855366 2.65463796
v -4.40079121 0.42605504 2.65463796
v -4.39077463 0.50883086 2.66064155
v -4.39936949 0.50883086 2.67761751
v -4.40079121 0.41504182 2.69830513
v -4.38554011 0.42229563 2.74200647
v -4.07072874 0.41593505 2.70682304
v -4.40079121 0.40858312 2.65463796
v -4.39533050 0.50883086 2.66930486
f 1 2 3
f 1 3 4
f 1 4 5
f 1 5 6
f 1 6 7
f 1 7 14
f 1 14 20
f 1 20 26
f 1 26 21
f 1 21 15
f 1 15 8
f 1 8 16
f 1 16 23
f 1 23 17
f 1 17 9
f 1 9 2
f 2 9 3
f 3 9 4
f 4 9 5
f 5 9 6
f 6 9 10
f 6 10 11
f 6 11 12
f 6 12 13
f 6 13 18
f 6 18 25
f 6 25 19
f 6 19 14
f 6 14 7
f 8 15 19
f 8 19 25
f 8 25 22
f 8 22 16
f 9 17 24
f 9 24 18
f 9 18 13
f 9 13 12
f 9 12 11
f 9 11 10
f 14 19 20
f 15 21 19
f 16 22 23
f 17 23 24
f 18 24 25
f 19 21 26
f 19 26 20
f 22 25 24
f 22 24 23

