# https://github.com/mikedh/trimesh
v -0.49514874 1.74501136 2.08846039
v -0.49238027 1.74501136 1.61993517
v -0.51222639 1.74501136 2.08846039
v -0.49527364 0.83969968 2.08846039
v -0.49243309 0.83969968 1.61993517
v -0.51025205 1.74501136 1.61993517
v -0.51981823 1.74501136 1.96504601
v -0.51225974 0.83969968 2.08846039
v -0.51025475 0.83969968 1.61993517
v -0.51029928 1.72773103 1.62043966
v -0.51029369 1.74501136 1.62043966
v -0.51025475 1.02996048 1.61993517
v -0.52024864 1.74501136 1.95055364
v -0.51989321 1.02996048 1.96261532
v -0.51982092 1.02996048 1.96504601
v -0.51982092 0.83969968 1.96504601
v -0.51029079 0.83969968 1.62043966
v -0.51029638 0.84173786 1.62043966
v -0.51029079 1.02996048 1.62034793
v -0.51029928 1.41500151 1.62043966
v -0.51146541 0.83969968 1.63782132
v -0.51146002 1.74501136 1.63782132
v -0.52060967 1.74501136 1.93317198
v -0.52030975 1.02996048 1.94761848
v -0.52024864 0.83969968 1.95055364
v -0.51967946 0.83969968 1.80099797
v -0.51968215 1.02996048 1.80099797
v -0.51968215 1.74501136 1.80099797
v -0.52074575 1.74501136 1.91579032
v -0.52060967 0.83969968 1.93317198
v -0.52004586 0.83969968 1.81159207
v -0.52004876 1.02996048 1.81159207
v -0.52004876 1.74501136 1.81159207
v -0.52074844 1.74501136 1.89840866
v -0.52074575 1.02996048 1.91579032
v -0.52074285 0.83969968 1.91579032
v -0.52048456 0.83969968 1.82897373
v -0.52041248 1.02996048 1.82608443
v -0.52048187 1.74501136 1.82897373
v -0.52048456 1.02996048 1.82897373
v -0.52074844 1.74501136 1.86359948
v -0.52074844 0.83969968 1.89840866
v -0.52066228 0.83969968 1.84433747
v -0.52068465 1.74501136 1.84630953
v -0.52074844 0.83969968 1.86359948
v -0.52068465 0.83969968 1.84630953
f 1 2 6
f 1 6 11
f 1 11 22
f 1 22 28
f 1 28 33
f 1 33 39
f 1 39 44
f 1 44 41
f 1 41 34
f 1 34 29
f 1 29 23
f 1 23 13
f 1 13 7
f 1 7 3
f 1 3 8
f 1 8 4
f 1 4 5
f 1 5 2
f 2 5 9
f 2 9 12
f 2 12 6
f 3 7 8
f 4 8 16
f 4 16 25
f 4 25 30
f 4 30 36
f 4 36 42
f 4 42 45
f 4 45 46
f 4 46 43
f 4 43 37
f 4 37 31
f 4 31 26
f 4 26 21
f 4 21 17
f 4 17 9
f 4 9 5
f 6 10 11
f 6 12 10
f 7 13 14
f 7 14 15
f 7 15 8
f 8 15 16
f 9 17 18
f 9 18 19
f 9 19 20
f 9 20 10
f 9 10 12
f 10 20 21
f 10 21 22
f 10 22 11
f 13 23 24
f 13 24 25
f 13 25 14
f 14 25 16
f 14 16 15
f 17 21 18
f 18 21 20
f 18 20 19
f 21 26 27
f 21 27 28
f 21 28 22
f 23 29 35
f 23 35 30
f 23 30 24
f 24 30 25
f 26 31 32
f 26 32 27
f 27 32 33
f 27 33 28
f 29 34 42
f 29 42 35
f 30 35 36
f 31 37 32
f 32 38 33
f 32 37 38
f 33 38 40
f 33 40 39
f 34 41 45
f 34 45 42
f 35 42 36
f 37 43 40
f 37 40 38
f 39 40 44
f 40 43 44
f 41 44 46
f 41 46 45
f 43 46 44

