# https://github.com/mikedh/trimesh
v -6.52244048 1.19387908 3.75806803
v -6.52393574 1.39764962 3.94870912
v -6.52363250 1.39764962 3.93139824
v -6.51576394 1.32816698 3.75806803
v -6.45355343 1.19387908 3.75806803
v -6.50343075 1.19387908 3.81062806
v -6.51222931 1.19390167 4.12237177
v -6.51422747 1.19390167 4.10989607
v -6.52347405 1.39764962 4.10502402
v -6.52357036 1.39764962 4.08760233
v -6.52111756 1.41502594 3.94870912
v -6.52115899 1.41502594 4.08760233
v -6.52115899 1.41502594 4.05290663
v -6.52113827 1.41502594 3.96609394
v -6.52059394 1.41502594 3.93139824
v -6.51482006 1.34554330 3.75806803
v -6.47717259 1.19387908 3.81062806
v -6.48773505 1.34554330 3.75806803
v -6.50611781 1.41502594 4.10502402
v -6.50252808 1.39764962 4.10502402
v -6.47498159 1.19390167 4.01621794
v -6.48865159 1.19390167 4.12237177
v -6.50225261 1.19390167 4.13510575
v -6.51107188 1.19390167 4.12491861
v -6.51411728 1.33207609 4.13115646
v -6.51757610 1.34552070 4.12237177
v -6.51816869 1.36291960 4.12237177
v -6.51869914 1.38027332 4.12237177
v -6.51909869 1.39764962 4.12237177
v -6.51684577 1.41380575 4.12218722
v -6.52092473 1.41502594 4.10502402
v -6.51566763 1.42456144 3.93139824
v -6.51588117 1.42471961 3.94870912
v -6.51588801 1.42467441 4.10502402
v -6.51497168 1.42419990 3.92209698
v -6.50533238 1.35634417 3.75806803
v -6.49399133 1.19390167 4.13351854
v -6.48796931 1.34595002 3.75806803
v -6.51298719 1.42419990 3.92209698
v -6.50658633 1.41502594 3.93139824
v -6.50596619 1.41502594 3.94870912
v -6.50596619 1.41502594 3.96609394
v -6.50599395 1.41502594 4.07029145
v -6.50600078 1.41502594 4.08760233
v -6.51204331 1.42467441 4.10502402
v -6.51270487 1.42435808 4.11631847
v -6.51070672 1.41380575 4.12218722
v -6.50745461 1.39764962 4.12237177
v -6.49632710 1.32498095 4.11506349
v -6.49590684 1.31076808 4.11676131
v -6.51368997 1.40718513 4.13123019
v -6.51428961 1.40718513 4.13123019
v -6.51441347 1.39764962 4.13126706
v -6.51437909 1.38027332 4.13126706
v -6.51433082 1.36291960 4.13126706
v -6.51423430 1.34552070 4.13123019
v -6.51526787 1.42435808 4.11631847
v -6.51225002 1.42456144 3.93139824
v -6.51202260 1.42471961 3.94870912
v -6.49689194 1.35397159 3.75806803
f 1 2 3
f 1 3 4
f 1 4 16
f 1 16 36
f 1 36 60
f 1 60 38
f 1 38 18
f 1 18 5
f 1 5 17
f 1 17 6
f 1 6 7
f 1 7 8
f 1 8 9
f 1 9 10
f 1 10 2
f 2 11 3
f 2 10 12
f 2 12 13
f 2 13 14
f 2 14 11
f 3 11 15
f 3 15 16
f 3 16 4
f 5 18 19
f 5 19 20
f 5 20 21
f 5 21 22
f 5 22 17
f 6 17 23
f 6 23 24
f 6 24 7
f 7 24 25
f 7 25 26
f 7 26 9
f 7 9 8
f 9 26 27
f 9 27 28
f 9 28 29
f 9 29 30
f 9 30 31
f 9 31 12
f 9 12 10
f 11 32 15
f 11 14 33
f 11 33 32
f 12 33 13
f 12 31 34
f 12 34 33
f 13 33 14
f 15 32 35
f 15 35 16
f 16 35 36
f 17 22 37
f 17 37 23
f 18 38 39
f 18 39 40
f 18 40 41
f 18 41 42
f 18 42 43
f 18 43 44
f 18 44 19
f 19 44 45
f 19 45 46
f 19 46 47
f 19 47 20
f 20 47 48
f 20 48 49
f 20 49 21
f 21 49 22
f 22 50 37
f 22 49 50
f 23 37 51
f 23 51 52
f 23 52 53
f 23 53 54
f 23 54 55
f 23 55 56
f 23 56 25
f 23 25 24
f 25 56 29
f 25 29 28
f 25 28 27
f 25 27 26
f 29 56 55
f 29 55 54
f 29 54 53
f 29 53 52
f 29 52 30
f 30 52 57
f 30 57 31
f 31 57 34
f 32 33 59
f 32 59 58
f 32 58 39
f 32 39 35
f 33 34 45
f 33 45 59
f 34 57 46
f 34 46 45
f 35 39 36
f 36 39 60
f 37 50 49
f 37 49 48
f 37 48 51
f 38 60 39
f 39 58 40
f 40 58 41
f 41 58 59
f 41 59 42
f 42 59 43
f 43 59 45
f 43 45 44
f 46 51 47
f 46 57 52
f 46 52 51
f 47 51 48

