# https://github.com/mikedh/trimesh
v -3.36388644 2.50386797 4.24894421
v -3.37174069 2.50386797 4.24894421
v -3.36221355 2.50043080 4.24894421
v -3.36388940 2.50362242 4.04712591
v -3.37146187 2.50362242 4.04712591
v -3.37460298 2.49208325 4.24894421
v -3.35838727 2.49208325 4.24894421
v -3.36035084 2.49601153 4.04712591
v -3.37225679 2.49993970 4.04712591
v -3.37383179 2.49208325 4.04712591
v -3.37485510 2.47489738 4.24894421
v -3.35818558 2.48741854 4.24894421
v -3.35857117 2.49208325 4.04712591
v -3.38381274 0.07721378 4.04712591
v -3.38505554 0.07721378 4.24894421
v -3.35813218 2.47489738 4.24894421
v -3.35849702 2.47489738 4.04712591
v -3.38381571 0.02516494 4.04712591
v -3.38506444 0.02516494 4.24894421
v -3.38505851 0.06002790 4.24894421
v -3.35476269 0.07721378 4.24894421
v -3.35476269 0.07721378 4.04712591
v -3.38328181 0.01927269 4.04712591
v -3.38363478 0.00773352 4.24894421
v -3.35476269 0.02516494 4.24894421
v -3.35476269 0.02516494 4.04712591
v -3.38222291 0.00773352 4.04712591
v -3.37487883 -0.00405110 4.04712591
v -3.37602671 -0.00429665 4.24894421
v -3.35523430 0.02025468 4.24894421
v -3.35643854 0.00773352 4.04712591
v -3.36362245 -0.00405110 4.04712591
v -3.36362245 -0.00405110 4.24894421
v -3.35643854 0.00773352 4.24894421
v -3.36121694 -0.00012293 4.04712591
f 1 2 6
f 1 6 11
f 1 11 15
f 1 15 20
f 1 20 19
f 1 19 24
f 1 24 29
f 1 29 33
f 1 33 34
f 1 34 30
f 1 30 25
f 1 25 21
f 1 21 16
f 1 16 12
f 1 12 7
f 1 7 3
f 1 3 4
f 1 4 5
f 1 5 2
f 2 5 6
f 3 7 8
f 3 8 4
f 4 8 13
f 4 13 17
f 4 17 22
f 4 22 26
f 4 26 31
f 4 31 35
f 4 35 32
f 4 32 28
f 4 28 27
f 4 27 23
f 4 23 18
f 4 18 14
f 4 14 10
f 4 10 9
f 4 9 5
f 5 9 6
f 6 9 10
f 6 10 11
f 7 12 13
f 7 13 8
f 10 14 15
f 10 15 11
f 12 16 17
f 12 17 13
f 14 18 19
f 14 19 20
f 14 20 15
f 16 21 22
f 16 22 17
f 18 23 24
f 18 24 19
f 21 25 26
f 21 26 22
f 23 27 24
f 24 27 28
f 24 28 29
f 25 30 26
f 26 30 31
f 28 32 29
f 29 32 33
f 30 34 31
f 31 34 35
f 32 35 33
f 33 35 34

