# https://github.com/mikedh/trimesh
v 0.19729139 2.50527996 1.58895008
v 0.19729139 2.50527996 1.55093304
v 0.18823205 2.50527996 1.58895008
v 0.20207023 2.49220049 1.58895008
v 0.19632245 2.50417142 1.53355288
v 0.18271273 2.50461488 1.53454315
v 0.18661604 2.50527996 1.55093304
v 0.20207023 2.49220049 1.55093304
v 0.16696794 2.50328470 1.53092091
v 0.18345673 2.49220049 1.58895008
v 0.20211870 2.48887506 1.58895008
v 0.19448854 2.50239799 1.52362324
v 0.18407956 2.50328470 1.52299849
v 0.20002837 2.49220049 1.53355288
v 0.16696794 2.50306308 1.52297188
v 0.20231920 2.47490887 1.55093304
v 0.16696794 2.49308720 1.53908261
v 0.16696794 2.49264374 1.53926871
v 0.16696794 2.48067281 1.54121607
v 0.16696794 2.47490887 1.54192062
v 0.18321087 2.47490887 1.58895008
v 0.20231920 2.47490887 1.58895008
v 0.19537422 2.49220049 1.52298518
v 0.18407956 2.49220049 1.52109763
v 0.20017378 2.47490887 1.53355288
v 0.16696794 2.49197865 1.52109763
v 0.20231920 0.24053538 1.55093304
v 0.20145755 0.24053538 1.54394772
v 0.16696794 1.76440516 1.55391723
v 0.18321087 0.24053538 1.58895008
v 0.20231920 0.24053538 1.58895008
v 0.19539825 2.47490887 1.52296525
v 0.18407956 2.47490887 1.52105771
v 0.20017378 0.24053538 1.53355288
v 0.16696794 2.47446541 1.52105771
v 0.16696794 1.76241001 1.55391723
v 0.16696794 0.24053538 1.55216260
v 0.19539825 0.24053538 1.52296525
v 0.18407956 0.24053538 1.52105771
v 0.16696794 0.24053538 1.52105771
f 1 2 7
f 1 7 3
f 1 3 10
f 1 10 21
f 1 21 30
f 1 30 31
f 1 31 22
f 1 22 11
f 1 11 4
f 1 4 8
f 1 8 2
f 2 5 6
f 2 6 7
f 2 8 5
f 3 7 9
f 3 9 10
f 4 11 8
f 5 12 13
f 5 13 6
f 5 8 14
f 5 14 12
f 6 13 15
f 6 15 9
f 6 9 7
f 8 11 16
f 8 16 14
f 9 15 26
f 9 26 35
f 9 35 40
f 9 40 37
f 9 37 36
f 9 36 29
f 9 29 20
f 9 20 19
f 9 19 18
f 9 18 17
f 9 17 10
f 10 17 18
f 10 18 19
f 10 19 20
f 10 20 21
f 11 22 16
f 12 14 23
f 12 23 24
f 12 24 13
f 13 24 15
f 14 16 25
f 14 25 23
f 15 24 26
f 16 22 31
f 16 31 27
f 16 27 28
f 16 28 25
f 20 29 21
f 21 29 36
f 21 36 30
f 23 25 32
f 23 32 33
f 23 33 24
f 24 33 26
f 25 28 34
f 25 34 38
f 25 38 32
f 26 33 35
f 27 31 30
f 27 30 37
f 27 37 40
f 27 40 39
f 27 39 38
f 27 38 34
f 27 34 28
f 30 36 37
f 32 38 39
f 32 39 33
f 33 39 40
f 33 40 35

