# https://github.com/mikedh/trimesh
v -2.35156103 0.39313359 2.58134066
v -2.35156103 0.35639789 2.58134066
v -2.35156103 0.40005392 2.58129742
v -2.35280131 0.40007101 2.58134066
v -2.35165755 0.35637645 2.58134066
v -2.35156103 0.35657322 2.58025065
v -2.35156103 0.39989992 2.57653934
v -2.38807168 0.40003254 2.54190080
v -2.38646748 0.39993840 2.55781865
v -2.36665989 0.39962191 2.58134066
v -2.42166355 0.40000685 2.52342230
v -2.40406927 0.40002394 2.54062045
v -2.35156103 0.35761249 2.57390944
v -2.36481801 0.35701803 2.58134066
v -2.42743428 0.35754413 2.52087028
v -2.42743428 0.35784778 2.50680379
v -2.42215377 0.35795901 2.50636256
v -2.40440347 0.35770662 2.52340500
v -2.38666798 0.35756547 2.54043880
v -2.35156103 0.39578539 2.56846800
v -2.35873540 0.39942943 2.56515469
v -2.40567347 0.39999401 2.52471130
v -2.37162857 0.39135861 2.58134066
v -2.42743428 0.39972029 2.52036851
v -2.41552150 0.39942089 2.53438312
v -2.42743428 0.38992581 2.52863020
v -2.42743428 0.39986999 2.50720174
v -2.35156103 0.35790764 2.57313085
v -2.36847205 0.35868178 2.58134066
v -2.41800952 0.36028143 2.53671024
v -2.42743428 0.35839522 2.52328388
v -2.42743428 0.35807013 2.50129306
v -2.37396061 0.36020013 2.54565535
v -2.35156103 0.38972904 2.56467886
v -2.41203083 0.39931396 2.51395813
v -2.39427318 0.39940380 2.53100922
v -2.37653769 0.39942943 2.54809490
v -2.42329748 0.39985291 2.50753045
v -2.37221525 0.38992581 2.58134066
v -2.42743428 0.37506297 2.53177051
v -2.42743428 0.39941664 2.50083459
v -2.35576468 0.36043108 2.56270644
v -2.35156103 0.37090996 2.56165102
v -2.37437652 0.37255662 2.58134066
v -2.38205588 0.36078609 2.57036254
v -2.40002905 0.36050378 2.55352774
v -2.42743428 0.37255662 2.53226363
v -2.42743428 0.36073048 2.49614574
v -2.40992911 0.36065353 2.51202030
v -2.39194113 0.36039690 2.52884650
v -2.35156103 0.38781720 2.56350233
v -2.42743428 0.39708563 2.49835175
v -2.35156103 0.37218027 2.56109737
v -2.42743428 0.36479370 2.49476161
v -2.42743428 0.38917306 2.49545368
v -2.42743428 0.38992581 2.49557479
v -2.42743428 0.37255662 2.49296219
v -2.42743428 0.37413483 2.49319578
f 1 2 6
f 1 6 13
f 1 13 28
f 1 28 43
f 1 43 53
f 1 53 51
f 1 51 34
f 1 34 20
f 1 20 7
f 1 7 3
f 1 3 4
f 1 4 10
f 1 10 23
f 1 23 39
f 1 39 44
f 1 44 29
f 1 29 14
f 1 14 5
f 1 5 2
f 2 5 6
f 3 7 8
f 3 8 4
f 4 9 10
f 4 8 11
f 4 11 12
f 4 12 9
f 5 13 6
f 5 14 15
f 5 15 16
f 5 16 17
f 5 17 18
f 5 18 19
f 5 19 13
f 7 20 21
f 7 21 8
f 8 22 11
f 8 21 22
f 9 12 10
f 10 12 11
f 10 11 24
f 10 24 25
f 10 25 26
f 10 26 23
f 11 22 27
f 11 27 24
f 13 19 28
f 14 29 30
f 14 30 31
f 14 31 15
f 15 31 47
f 15 47 40
f 15 40 26
f 15 26 24
f 15 24 27
f 15 27 41
f 15 41 52
f 15 52 56
f 15 56 55
f 15 55 58
f 15 58 57
f 15 57 54
f 15 54 48
f 15 48 32
f 15 32 16
f 16 32 17
f 17 32 33
f 17 33 18
f 18 33 19
f 19 33 28
f 20 34 35
f 20 35 36
f 20 36 21
f 21 36 37
f 21 37 22
f 22 37 36
f 22 36 35
f 22 35 38
f 22 38 27
f 23 26 39
f 24 26 25
f 26 40 39
f 27 38 41
f 28 42 43
f 28 33 42
f 29 44 45
f 29 45 46
f 29 46 30
f 30 47 31
f 30 46 45
f 30 45 47
f 32 48 49
f 32 49 50
f 32 50 33
f 33 50 43
f 33 43 42
f 34 51 35
f 35 52 41
f 35 41 38
f 35 51 52
f 39 40 47
f 39 47 44
f 43 50 49
f 43 49 53
f 44 47 45
f 48 54 49
f 49 54 53
f 51 53 55
f 51 55 56
f 51 56 52
f 53 54 57
f 53 57 58
f 53 58 55

