# https://github.com/mikedh/trimesh
v -1.01732891 0.11544131 0.33756679
v -1.01732891 0.11544131 0.35283094
v -1.01732891 0.12935820 0.33645255
v -1.01714933 0.11544131 0.33639756
v -0.55846385 0.11544131 0.35267104
v -1.01732891 0.12935820 0.35374531
v -1.01732891 0.74678678 0.30513965
v -0.55846385 0.11544131 0.33736184
v -0.68472353 0.75476953 0.30502967
v -0.55846385 0.12935820 0.35356542
v -0.55846385 0.75476953 0.35606866
v -1.01732891 0.75476953 0.35606866
v -1.01732891 0.75363923 0.30513965
v -0.84103243 0.75476953 0.30502967
v -0.55846385 0.74466746 0.30624882
v -0.68472353 0.79948719 0.30745803
v -0.55846385 0.75229705 0.30624882
v -0.55846385 0.83714046 0.35445482
v -0.65449495 0.83714046 0.35450981
v -1.01732891 0.83714046 0.35463471
v -0.91051787 0.78952643 0.35547907
v -1.01732891 0.83714046 0.33417415
v -0.86816177 0.79863952 0.30821746
v -0.85841497 0.79913399 0.30773786
v -0.84103243 0.79948719 0.30745803
v -0.55855375 0.83714046 0.33501353
v -0.67255128 0.79906336 0.30784277
v -0.55846385 0.83706983 0.33501851
f 1 2 6
f 1 6 12
f 1 12 20
f 1 20 22
f 1 22 13
f 1 13 7
f 1 7 3
f 1 3 4
f 1 4 8
f 1 8 5
f 1 5 2
f 2 5 6
f 3 7 4
f 4 7 9
f 4 9 8
f 5 8 15
f 5 15 17
f 5 17 28
f 5 28 18
f 5 18 11
f 5 11 10
f 5 10 6
f 6 10 11
f 6 11 12
f 7 13 14
f 7 14 9
f 8 9 15
f 9 14 25
f 9 25 16
f 9 16 17
f 9 17 15
f 11 18 19
f 11 19 20
f 11 20 21
f 11 21 12
f 12 21 20
f 13 22 23
f 13 23 24
f 13 24 25
f 13 25 14
f 16 25 22
f 16 22 26
f 16 26 27
f 16 27 17
f 17 27 26
f 17 26 28
f 18 28 26
f 18 26 22
f 18 22 20
f 18 20 19
f 22 25 24
f 22 24 23

