# https://github.com/mikedh/trimesh
v -3.98891725 0.72591192 1.95374549
v -3.98891725 0.82693664 1.95374549
v -3.96253896 0.72591192 1.95374549
v -3.98891725 0.72591192 2.18075537
v -3.98512335 0.82101301 1.95374549
v -3.98891725 0.83184859 1.95938963
v -3.92470916 0.81607173 2.04540717
v -3.96512800 0.75456245 1.95374549
v -3.88719803 0.72591192 2.07864981
v -3.88719803 0.72591192 2.18075537
v -3.98891725 0.87366609 2.18075537
v -3.97764502 0.81470810 1.95987849
v -3.98490426 0.82058778 1.95374549
v -3.98891725 0.83743503 1.96890022
v -3.89313285 0.83013309 2.12031421
v -3.90596853 0.81772859 2.07784986
v -3.94139850 0.80107197 2.00954246
v -3.96010925 0.79739168 1.97698867
v -3.97529495 0.80312471 1.95607868
v -3.97076414 0.80811001 1.96656701
v -3.89093217 0.81396032 2.09944868
v -3.90377780 0.80692234 2.07429449
v -3.97306440 0.78962057 1.95374549
v -3.95857573 0.78580829 1.97478879
v -3.94492355 0.78956190 1.99796531
v -3.92469922 0.78242124 2.02803034
v -3.88719803 0.76503150 2.08509391
v -3.88719803 0.85299195 2.18075537
v -3.98593985 0.87436990 2.18075537
v -3.98891725 0.86453135 2.07216128
v -3.97759520 0.80514814 1.95374549
v -3.97977600 0.81045598 1.95374549
v -3.98891725 0.83893059 1.97230003
v -3.89047411 0.85029404 2.16786719
v -3.88991647 0.83344681 2.13189137
v -3.88868173 0.81854969 2.11104805
v -3.89242587 0.78956190 2.08420507
v -3.95408474 0.79077888 1.98378830
v -3.97400046 0.79305159 1.95374549
v -3.88719803 0.79967904 2.09851540
v -3.88914974 0.80237693 2.09618219
v -3.89447716 0.80767012 2.09004919
v -3.88719803 0.81689283 2.11293684
v -3.88719803 0.80875516 2.10480395
v -3.88736730 0.78956190 2.09289349
v -3.88719803 0.78931263 2.09313792
v -3.88734736 0.85315322 2.18075537
v -3.88719803 0.85265472 2.17997764
v -3.96857341 0.87568951 2.18075537
v -3.98891725 0.86291848 2.05480666
v -3.98891725 0.84394517 1.98385496
v -3.89780310 0.86083641 2.18075537
v -3.88832325 0.85393034 2.18075537
v -3.88764609 0.85285998 2.17944433
v -3.88719803 0.83624736 2.14469067
v -3.88719803 0.83520631 2.14255746
v -3.88719803 0.83082222 2.13466900
v -3.88719803 0.82313907 2.12246966
v -3.93814225 0.87483910 2.18075537
v -3.98593985 0.86230264 2.05480666
v -3.98891725 0.85960475 2.03745205
v -3.93383053 0.87470713 2.18075537
v -3.98891725 0.84885712 1.99623207
v -3.90374792 0.86463398 2.18075537
v -3.91668313 0.87115881 2.18075537
v -3.98891725 0.85305059 2.01007576
v -3.98891725 0.85164301 2.00520936
v -3.91188347 0.86920870 2.18075537
v -3.91113662 0.86595362 2.17240028
v -3.91674288 0.87029372 2.17748888
f 1 2 5
f 1 5 13
f 1 13 32
f 1 32 31
f 1 31 39
f 1 39 23
f 1 23 8
f 1 8 3
f 1 3 9
f 1 9 10
f 1 10 4
f 1 4 11
f 1 11 30
f 1 30 50
f 1 50 61
f 1 61 66
f 1 66 67
f 1 67 63
f 1 63 51
f 1 51 33
f 1 33 14
f 1 14 6
f 1 6 2
f 2 6 7
f 2 7 5
f 3 8 9
f 4 10 28
f 4 28 47
f 4 47 53
f 4 53 52
f 4 52 64
f 4 64 68
f 4 68 65
f 4 65 62
f 4 62 59
f 4 59 49
f 4 49 29
f 4 29 11
f 5 12 13
f 5 7 12
f 6 14 15
f 6 15 16
f 6 16 7
f 7 17 18
f 7 18 19
f 7 19 20
f 7 20 12
f 7 16 21
f 7 21 22
f 7 22 17
f 8 23 24
f 8 24 25
f 8 25 26
f 8 26 27
f 8 27 9
f 9 27 46
f 9 46 40
f 9 40 44
f 9 44 43
f 9 43 58
f 9 58 57
f 9 57 56
f 9 56 55
f 9 55 48
f 9 48 28
f 9 28 10
f 11 29 30
f 12 20 19
f 12 19 31
f 12 31 32
f 12 32 13
f 14 33 34
f 14 34 35
f 14 35 15
f 15 35 36
f 15 36 21
f 15 21 16
f 17 25 18
f 17 22 37
f 17 37 25
f 18 25 38
f 18 38 24
f 18 24 23
f 18 23 39
f 18 39 19
f 19 39 31
f 21 40 41
f 21 41 42
f 21 42 22
f 21 36 43
f 21 43 44
f 21 44 40
f 22 42 37
f 24 38 25
f 25 37 26
f 26 37 27
f 27 37 45
f 27 45 46
f 28 48 47
f 29 49 30
f 30 49 50
f 33 51 34
f 34 52 53
f 34 53 54
f 34 54 35
f 34 51 52
f 35 54 48
f 35 48 55
f 35 55 56
f 35 56 57
f 35 57 36
f 36 57 58
f 36 58 43
f 37 42 41
f 37 41 45
f 40 46 45
f 40 45 41
f 47 48 54
f 47 54 53
f 49 59 50
f 50 60 61
f 50 59 62
f 50 62 60
f 51 63 52
f 52 63 64
f 60 62 65
f 60 65 61
f 61 65 66
f 63 67 68
f 63 68 69
f 63 69 64
f 64 69 68
f 65 68 70
f 65 70 66
f 66 70 68
f 66 68 67

