# https://github.com/mikedh/trimesh
v -2.66637343 0.74482192 2.73711392
v -2.66981076 0.74482192 2.73711392
v -2.66150755 0.74407103 2.73711392
v -2.64807062 0.73494976 2.71502616
v -2.64807062 0.73038908 2.70263544
v -2.67837067 0.74204103 2.73711392
v -2.66000090 0.73027785 2.70333579
v -2.65185396 0.74206878 2.73711392
v -2.63833890 0.72938798 2.70441321
v -2.63070527 0.71295294 2.66821082
v -2.63070527 0.70313645 2.64555734
v -2.63070527 0.69665698 2.63103870
v -2.64807062 0.72641244 2.69396193
v -2.68344860 0.73895421 2.73711392
v -2.63070527 0.62702360 2.49320552
v -2.64029195 0.62524386 2.49651867
v -2.63913126 0.60694566 2.46333314
v -2.63070527 0.69259687 2.62233826
v -2.63070527 0.67524415 2.58734797
v -2.63070527 0.64020503 2.51844487
v -2.63070527 0.63405925 2.50656591
v -2.63996826 0.73364274 2.73711392
v -2.63657557 0.73183514 2.73242699
v -2.63693271 0.73077843 2.71502616
v -2.62181060 0.71150688 2.67114685
v -2.61996913 0.69540557 2.63324745
v -2.61804958 0.67888711 2.59728745
v -2.68996618 0.73303094 2.73711392
v -2.61519257 0.61006023 2.46193244
v -2.61975708 0.61014365 2.46193244
v -2.62859599 0.61014365 2.46193244
v -2.63070527 0.62221271 2.48453200
v -2.63227887 0.61350854 2.47020190
v -2.63810453 0.60650070 2.46193244
v -2.64456629 0.59768530 2.46193244
v -2.69268928 0.72983294 2.73711392
v -2.61682193 0.66175690 2.56216252
v -2.61331765 0.62668992 2.49369035
v -2.63708893 0.73139023 2.73711392
v -2.62089546 0.71264706 2.69455452
v -2.62102936 0.71245236 2.68027826
v -2.60460147 0.67666241 2.61924057
v -2.60524879 0.65839201 2.56884269
v -2.60448988 0.64201258 2.53226317
v -2.60857454 0.60780772 2.46193244
v -2.64785858 0.59012127 2.46193244
v -2.69564675 0.72001640 2.73711392
v -2.65111736 0.58105561 2.46193244
v -2.61331765 0.64393141 2.52838434
v -2.60432247 0.62482671 2.49713819
v -2.60464611 0.60708469 2.46314455
v -2.63354001 0.72001640 2.73711392
v -2.63188828 0.72001640 2.73242699
v -2.62205609 0.71081166 2.70613714
v -2.61678848 0.70266368 2.68027826
v -2.60460147 0.67666241 2.61994092
v -2.60161055 0.65052210 2.59346253
v -2.59963518 0.63316938 2.55868770
v -2.60057263 0.63316938 2.54131380
v -2.60233596 0.64740753 2.55868770
v -2.60383142 0.66058891 2.58042531
v -2.60342965 0.64382018 2.54131380
v -2.60556125 0.60666754 2.46193244
v -2.69799039 0.70639006 2.73711392
v -2.65315969 0.57118346 2.46193244
v -2.60323992 0.62671773 2.50656591
v -2.60309488 0.60967088 2.47472722
v -2.60431134 0.60549960 2.46193244
v -2.63193291 0.70266368 2.73711392
v -2.62986827 0.70266368 2.73242699
v -2.62398683 0.70405412 2.71400254
v -2.62160968 0.69921537 2.70753783
v -2.61777058 0.68528315 2.69767914
v -2.61970132 0.70405412 2.69926838
v -2.61076196 0.68528315 2.66293129
v -2.60413274 0.66790263 2.62287695
v -2.60219087 0.65052210 2.61080950
v -2.59068468 0.52896965 2.46193244
v -2.59909949 0.61578886 2.52393986
v -2.60031595 0.61578886 2.50656591
v -2.60248105 0.63300254 2.52544826
v -2.70031172 0.69270810 2.73711392
v -2.66876172 0.46075457 2.46193244
v -2.67136205 0.46075457 2.47187196
v -2.60235828 0.61559421 2.49051188
v -2.60184491 0.59779653 2.46193244
v -2.63167623 0.68528315 2.73711392
v -2.62958927 0.68528315 2.73242699
v -2.62426583 0.68528315 2.71699248
v -2.61323951 0.68528315 2.68027826
v -2.62123023 0.66790263 2.70866916
v -2.61753621 0.66790263 2.69767914
v -2.61284892 0.66790263 2.68027826
v -2.60705676 0.66790263 2.64555734
v -2.60522648 0.66790263 2.63155046
v -2.60363056 0.65052210 2.62600157
v -2.60188955 0.63314158 2.61080950
v -2.59036100 0.51158912 2.46193244
v -2.59907717 0.58105561 2.46193244
v -2.59904367 0.59843614 2.48919201
v -2.70134959 0.68542219 2.73711392
v -2.59129845 0.46075457 2.46193244
v -2.67389542 0.46075457 2.57813572
v -2.70436288 0.47471460 2.73711392
v -2.70290087 0.65803047 2.73711392
v -2.70276696 0.66790263 2.73711392
v -2.70228705 0.67493828 2.73711392
v -2.63147537 0.66790263 2.73711392
v -2.62936609 0.66790263 2.73242699
v -2.62415424 0.66790263 2.71734268
v -2.60969054 0.66790263 2.66293129
v -2.61733530 0.65052210 2.69767914
v -2.61261455 0.65052210 2.68027826
v -2.60669962 0.65052210 2.64555734
v -2.60349660 0.63314158 2.62672884
v -2.60172214 0.61576105 2.61080950
v -2.60166632 0.49420860 2.61080950
v -2.59039450 0.49420860 2.46193244
v -2.60166632 0.59846395 2.61080950
v -2.59068468 0.47682807 2.46193244
v -2.60182260 0.47682807 2.61080950
v -2.60224669 0.47471460 2.61344923
v -2.60249219 0.46264554 2.58134117
v -2.60320647 0.46075457 2.58134117
v -2.67396237 0.46075457 2.58134117
v -2.63186596 0.47471460 2.73711392
v -2.63137491 0.65052210 2.73711392
v -2.62925444 0.65052210 2.73242699
v -2.62409842 0.65052210 2.71758507
v -2.60945617 0.65052210 2.66293129
v -2.61726835 0.63314158 2.69767914
v -2.61249178 0.63314158 2.68027826
v -2.60929995 0.63314158 2.66293129
v -2.60486934 0.63314158 2.63542928
v -2.60341851 0.61576105 2.62707904
v -2.60340733 0.49420860 2.62707904
v -2.60348547 0.47682807 2.62664806
v -2.60340733 0.59846395 2.62707904
v -2.60356361 0.47471460 2.62613625
v -2.61321719 0.47471460 2.68027826
v -2.61370824 0.47471460 2.68235239
v -2.61818349 0.47471460 2.69975321
v -2.62121909 0.47471460 2.70866916
v -2.63063831 0.47471460 2.73428559
v -2.62951113 0.47682807 2.73242699
v -2.63155346 0.47682807 2.73711392
v -2.63136373 0.63314158 2.73711392
v -2.62924331 0.63314158 2.73242699
v -2.62408729 0.63314158 2.71766590
v -2.61726835 0.49420860 2.69767914
v -2.61249178 0.49420860 2.68027826
v -2.60925531 0.61576105 2.66293129
v -2.60642062 0.61576105 2.64555734
v -2.60482470 0.61576105 2.63575256
v -2.60642062 0.49420860 2.64555734
v -2.60490279 0.47682807 2.63534850
v -2.60973517 0.47682807 2.66293129
v -2.61279310 0.47682807 2.68027826
v -2.61734648 0.47682807 2.69767914
v -2.62116327 0.47682807 2.70885770
v -2.62924331 0.49420860 2.73242699
v -2.63137491 0.48864681 2.73711392
v -2.63136373 0.49420860 2.73711392
v -2.62408729 0.49420860 2.71766590
v -2.60925531 0.49420860 2.66293129
f 1 2 6
f 1 6 14
f 1 14 28
f 1 28 36
f 1 36 47
f 1 47 64
f 1 64 82
f 1 82 101
f 1 101 107
f 1 107 106
f 1 106 105
f 1 105 104
f 1 104 126
f 1 126 146
f 1 146 162
f 1 162 163
f 1 163 147
f 1 147 127
f 1 127 108
f 1 108 87
f 1 87 69
f 1 69 52
f 1 52 39
f 1 39 22
f 1 22 8
f 1 8 3
f 1 3 4
f 1 4 5
f 1 5 2
f 2 5 7
f 2 7 6
f 3 8 4
f 4 8 9
f 4 9 5
f 5 9 10
f 5 10 11
f 5 11 12
f 5 12 13
f 5 13 7
f 6 7 15
f 6 15 16
f 6 16 17
f 6 17 14
f 7 13 18
f 7 18 19
f 7 19 20
f 7 20 21
f 7 21 15
f 8 22 23
f 8 23 24
f 8 24 9
f 9 25 10
f 9 24 25
f 10 25 26
f 10 26 11
f 11 26 12
f 12 26 27
f 12 27 18
f 12 18 13
f 14 17 28
f 15 21 29
f 15 29 30
f 15 30 31
f 15 31 32
f 15 32 16
f 16 32 33
f 16 33 17
f 17 33 31
f 17 31 34
f 17 34 35
f 17 35 36
f 17 36 28
f 18 27 37
f 18 37 19
f 19 37 20
f 20 37 38
f 20 38 21
f 21 38 29
f 22 39 23
f 23 39 40
f 23 40 41
f 23 41 24
f 24 41 25
f 25 41 42
f 25 42 43
f 25 43 26
f 26 43 27
f 27 43 44
f 27 44 37
f 29 45 63
f 29 63 68
f 29 68 86
f 29 86 99
f 29 99 78
f 29 78 98
f 29 98 118
f 29 118 120
f 29 120 102
f 29 102 83
f 29 83 65
f 29 65 48
f 29 48 46
f 29 46 35
f 29 35 34
f 29 34 31
f 29 31 30
f 29 38 45
f 31 33 32
f 35 46 36
f 36 46 48
f 36 48 47
f 37 44 49
f 37 49 38
f 38 50 51
f 38 51 45
f 38 49 50
f 39 52 53
f 39 53 54
f 39 54 40
f 40 54 55
f 40 55 56
f 40 56 42
f 40 42 41
f 42 56 57
f 42 57 58
f 42 58 59
f 42 59 60
f 42 60 61
f 42 61 43
f 43 61 62
f 43 62 44
f 44 62 50
f 44 50 49
f 45 51 63
f 47 48 65
f 47 65 64
f 50 66 67
f 50 67 51
f 50 62 66
f 51 67 68
f 51 68 63
f 52 69 70
f 52 70 53
f 53 70 54
f 54 71 72
f 54 72 73
f 54 73 74
f 54 74 75
f 54 75 55
f 54 70 71
f 55 75 56
f 56 75 76
f 56 76 77
f 56 77 57
f 57 77 78
f 57 78 58
f 58 78 79
f 58 79 59
f 59 62 60
f 59 79 80
f 59 80 81
f 59 81 62
f 60 62 61
f 62 81 66
f 64 65 82
f 65 83 84
f 65 84 82
f 66 81 80
f 66 80 85
f 66 85 67
f 67 85 86
f 67 86 68
f 69 87 88
f 69 88 70
f 70 88 89
f 70 89 73
f 70 73 72
f 70 72 71
f 73 90 74
f 73 89 91
f 73 91 92
f 73 92 113
f 73 113 93
f 73 93 90
f 74 90 75
f 75 90 94
f 75 94 95
f 75 95 76
f 76 95 96
f 76 96 77
f 77 96 97
f 77 97 98
f 77 98 78
f 78 99 100
f 78 100 80
f 78 80 79
f 80 100 86
f 80 86 85
f 82 84 101
f 83 102 124
f 83 124 125
f 83 125 103
f 83 103 84
f 84 103 104
f 84 104 105
f 84 105 106
f 84 106 107
f 84 107 101
f 86 100 99
f 87 108 109
f 87 109 88
f 88 109 110
f 88 110 89
f 89 110 91
f 90 93 111
f 90 111 94
f 91 112 92
f 91 110 112
f 92 112 113
f 93 113 130
f 93 130 111
f 94 111 96
f 94 96 95
f 96 111 114
f 96 114 115
f 96 115 97
f 97 115 116
f 97 116 98
f 98 117 118
f 98 116 119
f 98 119 117
f 102 120 121
f 102 121 122
f 102 122 123
f 102 123 124
f 103 125 104
f 104 125 124
f 104 124 126
f 108 127 128
f 108 128 109
f 109 128 129
f 109 129 110
f 110 129 112
f 111 130 114
f 112 129 131
f 112 131 132
f 112 132 113
f 113 132 133
f 113 133 130
f 114 130 134
f 114 134 115
f 115 134 135
f 115 135 116
f 116 135 119
f 117 136 137
f 117 137 121
f 117 121 118
f 117 119 138
f 117 138 136
f 118 121 120
f 119 135 138
f 121 137 139
f 121 139 122
f 122 139 123
f 123 139 124
f 124 139 140
f 124 140 141
f 124 141 142
f 124 142 143
f 124 143 144
f 124 144 126
f 126 144 145
f 126 145 146
f 127 147 148
f 127 148 128
f 128 148 149
f 128 149 129
f 129 149 131
f 130 133 134
f 131 150 151
f 131 151 132
f 131 149 164
f 131 164 150
f 132 151 165
f 132 165 152
f 132 152 133
f 133 152 153
f 133 153 154
f 133 154 135
f 133 135 134
f 135 154 138
f 136 155 156
f 136 156 137
f 136 138 153
f 136 153 155
f 137 156 139
f 138 154 153
f 139 156 157
f 139 157 158
f 139 158 140
f 140 158 141
f 141 158 142
f 142 158 159
f 142 159 143
f 143 159 160
f 143 160 145
f 143 145 144
f 145 160 161
f 145 161 146
f 146 161 162
f 147 163 161
f 147 161 148
f 148 161 164
f 148 164 149
f 150 164 159
f 150 159 151
f 151 159 158
f 151 158 165
f 152 165 155
f 152 155 153
f 155 165 156
f 156 165 157
f 157 165 158
f 159 164 160
f 160 164 161
f 161 163 162

