# https://github.com/mikedh/trimesh
v -3.18659304 0.73743876 1.71378470
v -3.18659304 0.72581684 1.71492623
v -3.20389014 0.72693476 1.71533210
v -3.20389014 0.73743876 1.71464720
v -3.20389014 0.74795307 1.71533210
v -3.18659304 0.74909159 1.71492623
v -3.10875622 0.73743876 1.71378470
v -3.10875622 0.72580654 1.71492623
v -1.21662378 0.71127402 1.73324134
v -3.26506273 0.71128432 1.75051639
v -3.23869531 0.72064984 1.72832010
v -3.19840572 0.72657415 1.71520526
v -3.21359344 0.72828446 1.71583943
v -3.21422622 0.73743876 1.71576334
v -3.21359344 0.74658794 1.71583943
v -3.23173428 0.76362412 1.73308913
v -3.18659304 0.75778225 1.72395696
v -3.10875622 0.75364037 1.71964451
v -3.10875622 0.74909159 1.71492623
v -1.25838998 0.74908129 1.71492623
v -1.25838998 0.73744389 1.71383542
v -1.34065642 0.73411085 1.71413984
v -1.27610890 0.72581684 1.71492623
v -1.34065642 0.72580654 1.71492623
v -1.21430333 0.71127402 1.73324134
v -1.21662378 0.71127402 1.73359646
v -3.26442996 0.71128432 1.75102374
v -3.28214888 0.71132036 1.76865394
v -3.28214888 0.71132036 1.76799436
v -3.27793011 0.72006771 1.75508248
v -3.26928161 0.72006771 1.74666058
v -3.25261728 0.72374075 1.73067925
v -3.23869531 0.73743876 1.72268859
v -3.22287472 0.73743876 1.71807174
v -3.25261728 0.75118824 1.73067925
v -3.23806244 0.75610798 1.72870059
v -3.22139821 0.76389716 1.74206911
v -3.22139821 0.76369107 1.73286082
v -3.24333590 0.76277412 1.73752839
v -3.26506273 0.76361894 1.75041492
v -3.25599231 0.76388686 1.75947102
v -3.19840572 0.76180046 1.72989287
v -3.18659304 0.76369625 1.73263251
v -3.10875622 0.75778225 1.72395696
v -1.27610890 0.75777712 1.72395696
v -1.25838998 0.75776681 1.72395696
v -1.21388162 0.76362412 1.73313985
v -1.24510069 0.74808703 1.71528138
v -1.24278045 0.73744389 1.71492623
v -1.24510069 0.72680593 1.71528138
v -1.25838998 0.72582715 1.71492623
v -1.20755346 0.71967619 1.72991824
v -1.19468588 0.72521410 1.73177004
v -1.17633419 0.72357075 1.74716791
v -1.16241212 0.71129975 1.78493966
v -1.21430333 0.71127402 1.73359646
v -1.16283404 0.71129975 1.78620801
v -3.29501625 0.72036137 1.97288516
v -3.29501625 0.71919198 1.81018000
v -3.29501625 0.72295258 1.77897838
v -3.28510210 0.72006771 1.76375807
v -3.28193802 0.73743876 1.75092225
v -3.27328942 0.73743876 1.74277940
v -3.26400804 0.73743876 1.73410382
v -3.25535954 0.73743876 1.72930941
v -3.26928161 0.75479951 1.74645765
v -3.19840572 0.76390229 1.74209448
v -3.19840572 0.76369625 1.73268326
v -3.27350038 0.76389716 1.79422405
v -3.20389014 0.76369107 1.73270861
v -3.27793011 0.75479951 1.75498102
v -3.28235984 0.76358803 1.76786755
v -3.27202377 0.76370655 1.76104377
v -3.27350038 0.76386625 1.77682216
v -3.10875622 0.76369625 1.73263251
v -1.25838998 0.76368595 1.73263251
v -1.24088192 0.76368595 1.73275935
v -1.23307694 0.76369625 1.73283547
v -1.22337385 0.76369625 1.73293691
v -1.22337385 0.76389716 1.74209448
v -1.20734240 0.76373229 1.74338820
v -1.18920156 0.76373229 1.76002907
v -1.19552972 0.76362412 1.75000905
v -1.18392810 0.76294412 1.75460050
v -1.20249085 0.76126986 1.73844161
v -1.19468588 0.74968916 1.73177004
v -1.20734240 0.75521164 1.72966456
v -1.23307694 0.73743358 1.71698096
v -1.20607664 0.73743358 1.72474332
v -1.22337385 0.73743358 1.71928939
v -1.19320948 0.73743358 1.73095828
v -1.18456087 0.73743358 1.73664053
v -1.17464672 0.73743358 1.74534149
v -1.16599811 0.73743358 1.75467659
v -1.16051359 0.72450319 1.76497569
v -1.15861527 0.71924345 1.77824272
v -1.14469320 0.72706867 1.80000777
v -1.14363851 0.72472471 1.81160057
v -1.14279467 0.72301954 1.82897710
v -1.14279467 0.72282893 1.84627752
v -1.16241212 0.71129975 1.78620801
v -3.29501625 0.76375803 1.97288516
v -1.14279467 0.72282893 1.97293589
v -1.15102135 0.72282893 1.97293589
v -1.23307694 0.74478490 1.97293589
v -3.29501625 0.73492481 1.77149505
v -3.29501625 0.73743876 1.77027743
v -3.28784426 0.73743876 1.75962321
v -3.28510210 0.75479951 1.76365660
v -3.19840572 0.76390229 1.97288516
v -3.10875622 0.76390229 1.74209448
v -3.29079748 0.76382503 1.82897710
v -3.29079748 0.76384564 1.84625216
v -3.27350038 0.76389716 1.97288516
v -3.28278176 0.76366534 1.77682216
v -3.29501625 0.75303250 1.77892764
v -3.29501625 0.75424311 1.78181950
v -3.29501625 0.75943072 1.79422405
v -3.29501625 0.76237229 1.80249376
v -3.29501625 0.76317595 1.80815064
v -3.29501625 0.76363442 1.81545639
v -3.29501625 0.76373742 1.82897710
v -1.20607664 0.76390229 1.75947102
v -1.17148264 0.76390229 1.79422405
v -1.17253733 0.76373229 1.77798904
v -1.17907635 0.76362412 1.76619331
v -1.16241212 0.76362412 1.78453380
v -1.16747473 0.76200138 1.77294098
v -1.17190435 0.75668499 1.75980077
v -1.17633419 0.75136342 1.74716791
v -1.18920156 0.75631407 1.74280477
v -1.16051359 0.75042068 1.76497569
v -1.15966996 0.73743358 1.76337755
v -1.15249797 0.73743358 1.77684753
v -1.14680258 0.73743358 1.78986091
v -1.14448234 0.73743358 1.79856184
v -1.14216189 0.73743358 1.81160057
v -1.14026357 0.73743358 1.82897710
v -1.14005251 0.73743358 1.84627752
v -3.29332879 0.76379412 1.97288516
v -3.29501625 0.76375803 1.84625216
v -1.23307694 0.76390229 1.97293589
v -1.14005251 0.73743358 1.97293589
v -3.29501625 0.76374772 1.83686629
v -3.29079748 0.76384564 1.97288516
v -1.17148264 0.76390229 1.97293589
v -1.16135743 0.76369625 1.82897710
v -1.16220126 0.76369625 1.79422405
v -1.15270903 0.76060016 1.82897710
v -1.15313074 0.75887438 1.81160057
v -1.14279467 0.75191464 1.82897710
v -1.14363851 0.75019403 1.81160057
v -1.14469320 0.74780885 1.80000777
v -1.15819335 0.75564951 1.77798904
v -1.14279467 0.75211555 1.84627752
v -1.14279467 0.75211555 1.97293589
v -1.16135743 0.76369625 1.97293589
v -1.15270903 0.76080107 1.84627752
v -1.15270903 0.76080107 1.97293589
f 1 2 3
f 1 3 4
f 1 4 5
f 1 5 6
f 1 6 19
f 1 19 7
f 1 7 24
f 1 24 8
f 1 8 2
f 2 8 9
f 2 9 10
f 2 10 11
f 2 11 12
f 2 12 3
f 3 13 4
f 3 12 11
f 3 11 13
f 4 13 14
f 4 14 15
f 4 15 5
f 5 15 16
f 5 16 6
f 6 17 18
f 6 18 19
f 6 16 17
f 7 19 20
f 7 20 21
f 7 21 22
f 7 22 23
f 7 23 24
f 8 24 25
f 8 25 9
f 9 25 56
f 9 56 26
f 9 26 10
f 10 27 28
f 10 28 29
f 10 29 30
f 10 30 31
f 10 31 32
f 10 32 11
f 10 26 27
f 11 32 13
f 13 32 33
f 13 33 34
f 13 34 14
f 14 34 15
f 15 34 33
f 15 33 35
f 15 35 36
f 15 36 16
f 16 37 38
f 16 38 17
f 16 36 39
f 16 39 40
f 16 40 41
f 16 41 37
f 17 38 42
f 17 42 43
f 17 43 75
f 17 75 44
f 17 44 18
f 18 44 45
f 18 45 20
f 18 20 19
f 20 45 46
f 20 46 47
f 20 47 48
f 20 48 21
f 21 48 49
f 21 49 50
f 21 50 51
f 21 51 22
f 22 51 23
f 23 51 25
f 23 25 24
f 25 52 53
f 25 53 54
f 25 54 55
f 25 55 101
f 25 101 56
f 25 51 50
f 25 50 52
f 26 56 101
f 26 101 57
f 26 57 27
f 27 57 28
f 28 58 59
f 28 59 29
f 28 57 58
f 29 59 60
f 29 60 61
f 29 61 30
f 30 61 62
f 30 62 31
f 31 62 63
f 31 63 64
f 31 64 32
f 32 64 65
f 32 65 33
f 33 65 35
f 35 39 36
f 35 65 64
f 35 64 66
f 35 66 40
f 35 40 39
f 37 67 68
f 37 68 38
f 37 41 69
f 37 69 67
f 38 68 70
f 38 70 42
f 40 66 71
f 40 71 72
f 40 72 73
f 40 73 41
f 41 73 74
f 41 74 69
f 42 70 68
f 42 68 43
f 43 68 67
f 43 67 111
f 43 111 75
f 44 75 45
f 45 76 46
f 45 75 76
f 46 76 77
f 46 77 78
f 46 78 79
f 46 79 47
f 47 79 80
f 47 80 81
f 47 81 82
f 47 82 83
f 47 83 84
f 47 84 85
f 47 85 86
f 47 86 87
f 47 87 48
f 48 88 49
f 48 87 86
f 48 86 89
f 48 89 90
f 48 90 88
f 49 88 50
f 50 88 90
f 50 90 89
f 50 89 53
f 50 53 52
f 53 89 91
f 53 91 92
f 53 92 54
f 54 93 94
f 54 94 95
f 54 95 55
f 54 92 93
f 55 95 96
f 55 96 97
f 55 97 98
f 55 98 99
f 55 99 100
f 55 100 103
f 55 103 101
f 57 101 58
f 58 102 141
f 58 141 144
f 58 144 122
f 58 122 121
f 58 121 120
f 58 120 119
f 58 119 118
f 58 118 117
f 58 117 116
f 58 116 107
f 58 107 106
f 58 106 60
f 58 60 59
f 58 101 103
f 58 103 104
f 58 104 105
f 58 105 142
f 58 142 102
f 60 106 61
f 61 106 107
f 61 107 108
f 61 108 62
f 62 71 66
f 62 66 63
f 62 108 109
f 62 109 71
f 63 66 64
f 67 110 142
f 67 142 146
f 67 146 124
f 67 124 123
f 67 123 111
f 67 69 114
f 67 114 110
f 69 74 112
f 69 112 113
f 69 113 145
f 69 145 114
f 71 109 72
f 72 115 74
f 72 74 73
f 72 109 116
f 72 116 117
f 72 117 118
f 72 118 119
f 72 119 120
f 72 120 121
f 72 121 115
f 74 115 122
f 74 122 112
f 75 111 78
f 75 78 76
f 76 78 77
f 78 80 79
f 78 111 80
f 80 123 82
f 80 82 81
f 80 111 123
f 82 123 124
f 82 124 125
f 82 125 126
f 82 126 83
f 83 126 84
f 84 126 127
f 84 127 128
f 84 128 129
f 84 129 130
f 84 130 131
f 84 131 85
f 85 131 86
f 86 131 130
f 86 130 92
f 86 92 91
f 86 91 89
f 92 130 93
f 93 130 94
f 94 130 132
f 94 132 133
f 94 133 95
f 95 133 134
f 95 134 135
f 95 135 97
f 95 97 96
f 97 135 136
f 97 136 137
f 97 137 98
f 98 137 138
f 98 138 99
f 99 138 139
f 99 139 100
f 100 139 143
f 100 143 103
f 102 140 141
f 102 142 140
f 103 143 156
f 103 156 159
f 103 159 157
f 103 157 146
f 103 146 142
f 103 142 105
f 103 105 104
f 107 116 109
f 107 109 108
f 110 114 142
f 112 122 144
f 112 144 113
f 113 144 141
f 113 141 140
f 113 140 145
f 114 145 142
f 115 121 122
f 124 146 157
f 124 157 147
f 124 147 148
f 124 148 127
f 124 127 125
f 125 127 126
f 127 148 149
f 127 149 150
f 127 150 151
f 127 151 152
f 127 152 153
f 127 153 154
f 127 154 128
f 128 154 132
f 128 132 129
f 129 132 130
f 132 154 153
f 132 153 135
f 132 135 134
f 132 134 133
f 135 153 136
f 136 153 137
f 137 153 152
f 137 152 138
f 138 152 151
f 138 151 139
f 139 151 155
f 139 155 156
f 139 156 143
f 140 142 145
f 147 157 159
f 147 159 158
f 147 158 148
f 148 158 149
f 149 158 155
f 149 155 151
f 149 151 150
f 155 158 159
f 155 159 156

