# https://github.com/mikedh/trimesh
v -4.35136388 0.52621460 2.83317862
v -4.35078745 0.52675416 2.83312855
v -4.34954251 0.46387536 2.83312855
v -4.34954251 0.43179262 2.83339895
v -4.34954251 0.43303777 2.87186981
v -4.34954251 0.43357729 2.88134480
v -4.34954251 0.43855782 2.93545041
v -4.34954251 0.45478594 2.93545041
v -4.34329451 0.58112464 2.93545041
v -4.34214174 0.59847337 2.93545041
v -4.33907543 0.61573910 2.93545041
v -4.31968592 0.69858146 2.83312855
v -4.33697733 0.43208317 2.83312855
v -4.11590033 0.43407537 2.83312855
v -4.11590033 0.43714666 2.93545041
v -4.29868259 0.43756169 2.93545041
v -4.33889098 0.43826727 2.93545041
v -4.33753067 0.62329288 2.93545041
v -4.31650424 0.71480958 2.83312855
v -4.11585424 0.52621460 2.83312855
v -4.11585424 0.52621460 2.93545041
v -4.33183602 0.65056109 2.93545041
v -4.31187018 0.73290536 2.83312855
v -4.32846999 0.66392547 2.93545041
v -4.11585424 0.77445108 2.83312855
v -4.11585424 0.85575772 2.93545041
v -4.30652132 0.75083519 2.83312855
v -4.32632581 0.67135472 2.93545041
v -4.17711206 0.80707333 2.83312855
v -4.11585424 0.79686330 2.85151763
v -4.11585424 0.85405604 2.93056272
v -4.22564346 0.81915104 2.83312855
v -4.22951674 0.81910953 2.83312855
v -4.24609346 0.81699282 2.83312855
v -4.25035873 0.81624576 2.83312855
v -4.24655452 0.81998113 2.85407166
v -4.24655452 0.82205633 2.87145918
v -4.22921703 0.82911205 2.90616405
v -4.22921703 0.82961009 2.92354162
v -4.22921703 0.82699531 2.93545041
v -4.32150730 0.68625468 2.93545041
v -4.32042371 0.68940903 2.93545041
v -4.31074040 0.71468504 2.93545041
v -4.30760491 0.72248784 2.93545041
v -4.29852113 0.76963656 2.83312855
v -4.18857056 0.81259338 2.83312855
v -4.11585424 0.80366997 2.85726671
v -4.11585424 0.84924157 2.91780253
v -4.21183334 0.81852846 2.83312855
v -4.25420892 0.81545718 2.83312855
v -4.25605339 0.81607973 2.84161197
v -4.24655452 0.82330145 2.88879662
v -4.25695253 0.81674380 2.85407166
v -4.24655452 0.82371649 2.90616405
v -4.24733840 0.82143379 2.92288057
v -4.23834689 0.82296943 2.93545041
v -4.30612944 0.72580814 2.93545041
v -4.29040567 0.78150677 2.84691034
v -4.29282647 0.78042764 2.83312855
v -4.19172915 0.81379700 2.83312855
v -4.11585424 0.82417305 2.87968219
v -4.11585424 0.82031315 2.87514501
v -4.11585424 0.81284240 2.86662151
v -4.11585424 0.84276692 2.90601388
v -4.20968916 0.81823794 2.83312855
v -4.26290071 0.81010314 2.83312855
v -4.27569642 0.80072317 2.83312855
v -4.25764412 0.81740785 2.87145918
v -4.25764412 0.81761539 2.88879662
v -4.25676808 0.81707583 2.90616405
v -4.24401846 0.82035465 2.93545041
v -4.25582275 0.81628724 2.91665070
v -4.27855529 0.77333042 2.93545041
v -4.29114346 0.78254438 2.83670419
v -4.27419785 0.80005912 2.87145918
v -4.29132791 0.78271039 2.83312855
v -4.20042094 0.81632877 2.83312855
v -4.11585424 0.83521314 2.89350406
v -4.11585424 0.83255689 2.88993841
v -4.11585424 0.82848948 2.88481030
v -4.11585424 0.83766191 2.89742027
v -4.27747170 0.79910452 2.83312855
v -4.27574250 0.80088924 2.83670419
v -4.27535062 0.80097219 2.85407166
v -4.25229537 0.81031063 2.93545041
v -4.25628392 0.80541316 2.93545041
v -4.28443440 0.79126025 2.83670419
v -4.28438831 0.79142626 2.83312855
f 1 2 3
f 1 3 4
f 1 4 5
f 1 5 6
f 1 6 7
f 1 7 8
f 1 8 9
f 1 9 10
f 1 10 11
f 1 11 12
f 1 12 2
f 2 12 19
f 2 19 23
f 2 23 27
f 2 27 45
f 2 45 59
f 2 59 76
f 2 76 88
f 2 88 82
f 2 82 67
f 2 67 66
f 2 66 50
f 2 50 35
f 2 35 34
f 2 34 33
f 2 33 32
f 2 32 49
f 2 49 65
f 2 65 77
f 2 77 60
f 2 60 46
f 2 46 29
f 2 29 25
f 2 25 20
f 2 20 14
f 2 14 13
f 2 13 3
f 3 13 4
f 4 13 14
f 4 14 15
f 4 15 5
f 5 15 6
f 6 15 16
f 6 16 17
f 6 17 7
f 7 17 16
f 7 16 15
f 7 15 21
f 7 21 26
f 7 26 40
f 7 40 56
f 7 56 71
f 7 71 85
f 7 85 86
f 7 86 73
f 7 73 57
f 7 57 44
f 7 44 43
f 7 43 42
f 7 42 41
f 7 41 28
f 7 28 24
f 7 24 22
f 7 22 18
f 7 18 11
f 7 11 10
f 7 10 9
f 7 9 8
f 11 18 19
f 11 19 12
f 14 20 21
f 14 21 15
f 18 22 19
f 19 22 24
f 19 24 23
f 20 25 30
f 20 30 47
f 20 47 63
f 20 63 62
f 20 62 61
f 20 61 80
f 20 80 79
f 20 79 78
f 20 78 81
f 20 81 64
f 20 64 48
f 20 48 31
f 20 31 26
f 20 26 21
f 23 24 28
f 23 28 27
f 25 29 30
f 26 31 32
f 26 32 33
f 26 33 34
f 26 34 35
f 26 35 36
f 26 36 37
f 26 37 38
f 26 38 39
f 26 39 40
f 27 28 41
f 27 41 42
f 27 42 43
f 27 43 44
f 27 44 45
f 29 46 47
f 29 47 30
f 31 48 32
f 32 48 49
f 35 50 36
f 36 50 51
f 36 51 37
f 37 52 38
f 37 51 53
f 37 53 52
f 38 52 39
f 39 52 54
f 39 54 55
f 39 55 56
f 39 56 40
f 44 57 45
f 45 58 59
f 45 57 58
f 46 60 61
f 46 61 62
f 46 62 63
f 46 63 47
f 48 64 65
f 48 65 49
f 50 66 51
f 51 66 67
f 51 67 53
f 52 53 68
f 52 68 54
f 53 67 68
f 54 68 69
f 54 69 70
f 54 70 55
f 55 71 56
f 55 70 72
f 55 72 71
f 57 73 58
f 58 74 59
f 58 73 72
f 58 72 75
f 58 75 74
f 59 74 76
f 60 77 78
f 60 78 79
f 60 79 80
f 60 80 61
f 64 81 65
f 65 81 77
f 67 82 83
f 67 83 68
f 68 83 69
f 69 83 84
f 69 84 70
f 70 84 75
f 70 75 72
f 71 72 85
f 72 73 86
f 72 86 85
f 74 75 84
f 74 84 87
f 74 87 76
f 76 87 88
f 77 81 78
f 82 88 84
f 82 84 83
f 84 88 87

