# https://github.com/mikedh/trimesh
v -3.51828146 0.58093232 3.36370162
v -3.52024531 0.59843702 3.36370162
v -3.53546097 0.58093232 3.36370162
v -3.51828146 0.58093232 2.83317049
v -3.52244827 0.60585187 3.36370162
v -3.52024531 0.59843702 2.83317049
v -3.69274067 0.58264055 3.36370162
v -3.69274067 0.58262176 3.35627548
v -3.69274067 0.58253730 3.32158527
v -3.69274067 0.58241530 3.26960189
v -3.69274067 0.58221817 3.18292839
v -3.69274067 0.58194600 3.06166866
v -3.69274067 0.58188029 3.02786133
v -3.69274067 0.58185212 3.01051617
v -3.69274067 0.58182395 2.99228824
v -3.69274067 0.58180521 2.97577407
v -3.69274067 0.58167378 2.85415078
v -3.69274067 0.58165504 2.83675379
v -3.53546097 0.58093232 2.83317049
v -3.52354120 0.60952175 3.36370162
v -3.52354120 0.60952175 2.83317049
v -3.69274067 0.67680926 3.36370162
v -3.69274067 0.58165504 2.83317049
v -3.53317265 0.61821313 3.36370162
v -3.53317265 0.61821313 2.83317049
v -3.66422197 0.67680926 3.36370162
v -3.69274067 0.67680926 2.83317049
v -3.54186488 0.62532764 3.36370162
v -3.54186488 0.62532764 2.83317049
v -3.55158172 0.62985162 3.36370162
v -3.66422197 0.67680926 2.83317049
v -3.55158172 0.62985162 2.83317049
f 1 2 5
f 1 5 20
f 1 20 24
f 1 24 28
f 1 28 30
f 1 30 26
f 1 26 22
f 1 22 7
f 1 7 3
f 1 3 19
f 1 19 4
f 1 4 6
f 1 6 2
f 2 6 5
f 3 7 8
f 3 8 9
f 3 9 10
f 3 10 11
f 3 11 12
f 3 12 13
f 3 13 14
f 3 14 15
f 3 15 16
f 3 16 17
f 3 17 18
f 3 18 23
f 3 23 19
f 4 19 23
f 4 23 27
f 4 27 31
f 4 31 32
f 4 32 29
f 4 29 25
f 4 25 21
f 4 21 6
f 5 6 21
f 5 21 20
f 7 22 27
f 7 27 23
f 7 23 18
f 7 18 17
f 7 17 16
f 7 16 15
f 7 15 14
f 7 14 13
f 7 13 12
f 7 12 11
f 7 11 10
f 7 10 9
f 7 9 8
f 20 21 25
f 20 25 24
f 22 26 31
f 22 31 27
f 24 25 29
f 24 29 28
f 26 30 32
f 26 32 31
f 28 29 32
f 28 32 30

