# https://github.com/mikedh/trimesh
v -6.74756000 0.11624952 0.64786341
v -6.74694089 0.11624952 0.63795205
v -6.73009087 0.11624952 0.65255981
v -6.71824609 0.56320372 0.65320232
v -6.71860317 0.56320372 0.65310197
v -6.73121702 0.56320372 0.64953700
v -6.74174572 0.56320372 0.64359959
v -6.74174572 0.56320372 0.63795205
v -6.71814231 0.11624952 0.63795205
v -6.72766023 0.11624952 0.65318192
v -6.71814231 0.54627069 0.65312237
v -6.71814231 0.56320372 0.65248929
v -6.71814231 0.11624952 0.65396072
v -6.71814231 0.56320372 0.63795205
f 1 2 9
f 1 9 13
f 1 13 10
f 1 10 3
f 1 3 4
f 1 4 5
f 1 5 6
f 1 6 7
f 1 7 8
f 1 8 2
f 2 8 14
f 2 14 9
f 3 10 4
f 4 11 12
f 4 12 14
f 4 14 8
f 4 8 7
f 4 7 6
f 4 6 5
f 4 10 13
f 4 13 11
f 9 14 12
f 9 12 11
f 9 11 13

