# https://github.com/mikedh/trimesh
v -3.99024225 0.51897353 2.58308959
v -3.99024225 0.51897353 2.57468410
v -3.99076172 0.51897353 2.58392700
v -3.99024225 0.49041009 2.62726929
v -3.99024225 0.44332221 2.57468410
v -4.09428762 0.51897353 2.57468410
v -4.00361719 0.51897353 2.59517345
v -3.99024225 0.47617215 2.64158366
v -4.08724870 0.51897353 2.65463015
v -3.99024225 0.44327437 2.57669546
v -4.00172249 0.43757764 2.57468410
v -4.09428762 0.47094550 2.57468410
v -4.09428762 0.51897353 2.65463015
v -3.99024225 0.47157491 2.64228799
v -4.09190400 0.51249598 2.65463015
v -4.02070002 0.45943248 2.64554378
v -3.99024225 0.44612677 2.61009046
v -4.00371904 0.43757764 2.59455518
v -4.00166133 0.43757764 2.57603804
v -4.02638411 0.43757764 2.57468410
v -4.06480775 0.44994320 2.57468410
v -4.09428762 0.47106501 2.57581890
v -4.09428762 0.51404167 2.65463015
v -4.00333192 0.45943248 2.64301589
v -3.99306389 0.44903489 2.63815570
v -3.99024225 0.46419703 2.63921226
v -4.09428762 0.50924522 2.65444233
v -4.02070002 0.44772823 2.63975229
v -4.00333192 0.44733779 2.63967405
v -3.99024225 0.44685974 2.61763502
v -3.99119974 0.44738564 2.62817713
v -4.00422837 0.43757764 2.59720045
v -4.02292068 0.43757764 2.59054809
v -4.05609825 0.44646139 2.57468410
v -4.05934776 0.44763264 2.57468410
v -4.03893391 0.44634187 2.61097484
v -4.03342303 0.44763264 2.62817713
v -4.04836670 0.44956871 2.60529292
v -4.09428762 0.47111281 2.57626500
v -3.99024225 0.44851702 2.62657272
v -3.99024225 0.45371183 2.63366342
v -4.00333192 0.44215096 2.62817713
v -4.09428762 0.47790110 2.59407775
v -4.03044852 0.44954479 2.63826527
v -4.02070002 0.44239796 2.62817713
v -4.00333192 0.43941812 2.61081048
v -4.01420098 0.43757764 2.59939186
v -4.02207519 0.43757764 2.59365510
v -4.02004809 0.43757764 2.60037012
v -4.02070002 0.43901976 2.61081048
v -4.05750402 0.44695538 2.57468410
f 1 2 6
f 1 6 13
f 1 13 9
f 1 9 7
f 1 7 3
f 1 3 4
f 1 4 8
f 1 8 14
f 1 14 26
f 1 26 41
f 1 41 40
f 1 40 30
f 1 30 17
f 1 17 10
f 1 10 5
f 1 5 2
f 2 5 11
f 2 11 20
f 2 20 34
f 2 34 51
f 2 51 35
f 2 35 21
f 2 21 12
f 2 12 6
f 3 7 4
f 4 7 9
f 4 9 8
f 5 10 11
f 6 12 22
f 6 22 39
f 6 39 43
f 6 43 27
f 6 27 23
f 6 23 13
f 8 9 14
f 9 13 23
f 9 23 15
f 9 15 16
f 9 16 14
f 10 17 18
f 10 18 19
f 10 19 11
f 11 19 18
f 11 18 32
f 11 32 47
f 11 47 49
f 11 49 48
f 11 48 33
f 11 33 20
f 12 21 22
f 14 16 24
f 14 24 25
f 14 25 26
f 15 23 27
f 15 27 16
f 16 28 29
f 16 29 24
f 16 27 28
f 17 30 18
f 18 30 31
f 18 31 32
f 20 33 34
f 21 35 36
f 21 36 37
f 21 37 38
f 21 38 39
f 21 39 22
f 24 29 25
f 25 31 40
f 25 40 41
f 25 41 26
f 25 29 42
f 25 42 31
f 27 43 44
f 27 44 28
f 28 44 45
f 28 45 29
f 29 45 42
f 30 40 31
f 31 42 46
f 31 46 32
f 32 46 47
f 33 48 34
f 34 48 49
f 34 49 50
f 34 50 51
f 35 51 50
f 35 50 36
f 36 50 45
f 36 45 37
f 37 45 44
f 37 44 43
f 37 43 39
f 37 39 38
f 42 45 50
f 42 50 46
f 46 50 49
f 46 49 47

