# https://github.com/mikedh/trimesh
v -1.05920468 0.85888853 -0.23974976
v -1.05920468 0.85888853 -0.33082802
v -1.06171465 0.85888853 -0.23974976
v -1.05920468 0.73727472 -0.23974976
v -1.05920468 0.84882846 -0.33082802
v -1.06021650 0.85888853 -0.32562995
v -1.06171465 0.85888853 -0.30820784
v -1.06162227 0.73727472 -0.25608403
v -1.06162227 0.73742949 -0.23974976
v -1.06000295 0.73727472 -0.23974976
v -1.05920468 0.73727472 -0.33073005
v -1.06017031 0.73727472 -0.32562995
v -1.06017963 0.73744135 -0.32557651
v -1.06162227 0.73727472 -0.30820784
f 1 2 6
f 1 6 7
f 1 7 3
f 1 3 9
f 1 9 10
f 1 10 4
f 1 4 11
f 1 11 5
f 1 5 2
f 2 5 6
f 3 7 14
f 3 14 8
f 3 8 9
f 4 10 8
f 4 8 14
f 4 14 12
f 4 12 11
f 5 11 6
f 6 11 12
f 6 12 13
f 6 13 7
f 7 13 14
f 8 10 9
f 12 14 13

