# https://github.com/mikedh/trimesh
v -2.03950414 0.37255766 1.74955762
v -2.03950414 0.35861643 1.74211636
v -2.03950414 0.37935372 1.74863689
v -2.13329339 0.37255766 1.69135583
v -2.13329339 0.36722703 1.68943892
v -2.13329339 0.35834872 1.68622391
v -2.03958679 0.35835328 1.74188994
v -2.03950414 0.35828524 1.74024473
v -2.03950414 0.38992420 1.74711240
v -2.13329339 0.38344578 1.68946911
v -2.13329339 0.35542253 1.67254892
v -2.10943056 0.35413865 1.67254892
v -2.03950414 0.35758204 1.72335474
v -2.03950414 0.39221980 1.74637283
v -2.13329339 0.38992420 1.68830686
v -2.13329339 0.36094372 1.66186250
v -2.09160010 0.35850303 1.59535909
v -2.09205920 0.35618931 1.62042995
v -2.09205920 0.35535449 1.63781804
v -2.03950414 0.35756391 1.72238874
v -2.03950414 0.39958737 1.74029001
v -2.13329339 0.39984146 1.68317497
v -2.13329339 0.39614403 1.68509188
v -2.13329339 0.37255766 1.65958332
v -2.09848626 0.37255766 1.59535909
v -2.09629184 0.36786218 1.59535909
v -2.08252875 0.35808556 1.59535909
v -2.07546819 0.35841220 1.59535909
v -2.07690047 0.35793136 1.60305696
v -2.03950414 0.35804020 1.72101518
v -2.03950414 0.39979155 1.73185255
v -2.05619612 0.39984597 1.72370188
v -2.13329339 0.39987776 1.67651860
v -2.10943056 0.40048112 1.67254892
v -2.13329339 0.37903153 1.66018707
v -2.13329339 0.38992420 1.66153042
v -2.13329339 0.39318610 1.66214926
v -2.13329339 0.39866643 1.66380960
v -2.09663153 0.38196228 1.59535909
v -2.07209854 0.36526263 1.59535909
v -2.03950414 0.37255766 1.71022312
v -2.06886662 0.37255766 1.59535909
v -2.03950414 0.39988682 1.72531693
v -2.04022950 0.39991401 1.72495469
v -2.13329339 0.39989589 1.67254892
v -2.09205920 0.40019985 1.63781804
v -2.08708275 0.39983691 1.59535909
v -2.09503396 0.38991514 1.59535909
v -2.03950414 0.38436221 1.71281925
v -2.07033568 0.37959409 1.59535909
v -2.03950414 0.39409798 1.71674364
v -2.03950414 0.38992420 1.71410223
v -2.07259430 0.38966110 1.59535909
v -2.08014150 0.39983691 1.59535909
f 1 2 8
f 1 8 13
f 1 13 20
f 1 20 30
f 1 30 41
f 1 41 49
f 1 49 52
f 1 52 51
f 1 51 43
f 1 43 31
f 1 31 21
f 1 21 14
f 1 14 9
f 1 9 3
f 1 3 4
f 1 4 5
f 1 5 6
f 1 6 2
f 2 7 8
f 2 6 7
f 3 9 4
f 4 9 10
f 4 10 15
f 4 15 23
f 4 23 22
f 4 22 33
f 4 33 45
f 4 45 38
f 4 38 37
f 4 37 36
f 4 36 35
f 4 35 24
f 4 24 16
f 4 16 11
f 4 11 6
f 4 6 5
f 6 11 7
f 7 11 12
f 7 12 8
f 8 12 13
f 9 14 15
f 9 15 10
f 11 16 17
f 11 17 18
f 11 18 12
f 12 18 19
f 12 19 20
f 12 20 13
f 14 21 22
f 14 22 23
f 14 23 15
f 16 24 25
f 16 25 26
f 16 26 17
f 17 26 25
f 17 25 39
f 17 39 48
f 17 48 47
f 17 47 54
f 17 54 53
f 17 53 50
f 17 50 42
f 17 42 40
f 17 40 28
f 17 28 27
f 17 27 18
f 18 27 28
f 18 28 29
f 18 29 19
f 19 29 20
f 20 29 28
f 20 28 30
f 21 31 32
f 21 32 22
f 22 32 34
f 22 34 33
f 24 35 25
f 25 35 36
f 25 36 37
f 25 37 38
f 25 38 39
f 28 40 30
f 30 40 42
f 30 42 41
f 31 43 44
f 31 44 32
f 32 44 34
f 33 34 45
f 34 46 47
f 34 47 45
f 34 44 46
f 38 45 47
f 38 47 48
f 38 48 39
f 41 42 49
f 42 50 51
f 42 51 52
f 42 52 49
f 43 51 53
f 43 53 54
f 43 54 44
f 44 54 46
f 46 54 47
f 50 53 51

