# https://github.com/mikedh/trimesh
v -2.01746817 0.70552312 2.12908294
v -1.94287942 0.70538404 2.01662030
v -1.94287942 0.70552312 2.01613878
v -2.04325222 0.70552312 2.12908294
v -2.02223759 0.02505548 2.12908294
v -1.94287942 0.02505548 2.00693330
v -1.94287942 0.70552312 1.98452858
v -2.04333092 0.70552312 2.12429610
v -2.04268189 0.02505548 2.12908294
v -2.02327996 0.00773776 2.12908294
v -1.94287942 0.00773776 2.00592778
v -1.94287942 0.01587507 2.00640930
v -1.94287942 0.70267160 1.98440112
v -1.95306719 0.70552312 1.98818245
v -2.04243603 0.70552312 2.10976559
v -2.04198366 0.04244279 2.10691898
v -2.04273098 0.02505548 2.12429610
v -2.04194431 0.00773776 2.12908294
v -2.02777390 -0.00450285 2.12908294
v -1.94287942 -0.00415508 1.99999379
v -1.95306719 0.70267160 1.98805499
v -1.94287942 0.02505548 1.98459939
v -1.95306719 0.02505548 1.98805499
v -1.95467004 0.70552312 1.98893305
v -2.04215082 0.70552312 2.10691898
v -2.04216065 0.70267160 2.10691898
v -2.03894500 0.02505548 2.08954187
v -2.04196399 0.02505548 2.10691898
v -2.04146243 0.00773776 2.10691898
v -2.04198366 0.00773776 2.12429610
v -2.03623091 -0.00450285 2.12908294
v -2.02696755 -0.00498970 2.10691898
v -1.94287942 -0.00415508 1.98968365
v -1.96339259 0.70267160 1.99311092
v -1.96331388 0.70552312 1.99315341
v -1.94287942 0.00773776 1.98498178
v -1.95306719 0.00773776 1.98821077
v -1.96336308 0.00773776 1.99312509
v -1.96339259 0.02505548 1.99311092
v -2.03944656 0.70552312 2.09238848
v -2.03893516 0.70267160 2.08954187
v -2.03894500 0.68528434 2.08954187
v -2.03382171 0.02505548 2.07406250
v -2.03379219 0.00773776 2.07410498
v -2.03875817 0.00773776 2.08954187
v -2.03491316 -0.00457234 2.08954187
v -2.03611295 -0.00498970 2.10691898
v -1.95306719 -0.00366823 1.99118485
v -2.01887446 -0.00415508 2.05481596
v -1.99997398 -0.00366823 2.02499021
v -1.98265689 -0.00345965 2.00850532
v -1.97208563 0.70267160 1.99830847
v -1.97199708 0.70552312 1.99836512
v -1.96281243 -0.00172092 1.99343665
v -1.97205611 0.00773776 1.99833680
v -1.97208563 0.02505548 1.99830847
v -2.03882704 0.70552312 2.08954187
v -2.03377251 0.70552312 2.07417579
v -2.03382171 0.70267160 2.07406250
v -2.02992750 0.04244279 2.06536686
v -2.02991766 0.02505548 2.06536686
v -2.03008482 0.70267160 2.06536686
v -2.02963255 0.00773776 2.06540934
v -2.03292681 -0.00297280 2.07638511
v -2.01601279 -0.00318137 2.04311792
v -2.01045680 0.00773776 2.03290692
v -2.00176377 0.00773776 2.02304997
v -1.99313961 0.00773776 2.01436850
v -1.98445641 0.00773776 2.00703244
v -1.98449577 0.70267160 2.00698995
v -1.97404246 0.70552312 1.99979551
v -1.98449577 0.02505548 2.00698995
v -2.03009466 0.70552312 2.06549432
v -2.02450915 0.04244279 2.05481596
v -2.02449932 0.02505548 2.05481596
v -2.02556136 0.70552312 2.05665706
v -2.02466647 0.70267160 2.05481596
v -2.02418459 0.00773776 2.05481596
v -2.01711419 0.00773776 2.04158840
v -2.01050589 0.02505548 2.03286443
v -2.00182280 0.02505548 2.02300749
v -1.99317896 0.02505548 2.01431185
v -1.99317896 0.70267160 2.01431185
v -1.98442690 0.70552312 2.00706076
v -2.01714370 0.02505548 2.04156007
v -2.02460744 0.70552312 2.05481596
v -2.01714370 0.70267160 2.04156007
v -2.01050589 0.70267160 2.03286443
v -2.00182280 0.70267160 2.02300749
v -2.00174409 0.70552312 2.02307830
v -1.99451628 0.70552312 2.01581305
v -1.99310025 0.70552312 2.01439682
v -2.01831387 0.70552312 2.04372690
v -2.01707483 0.70552312 2.04165921
v -2.01152858 0.70552312 2.03439396
v -2.01042729 0.70552312 2.03296357
f 1 2 3
f 1 3 7
f 1 7 14
f 1 14 24
f 1 24 35
f 1 35 53
f 1 53 71
f 1 71 84
f 1 84 92
f 1 92 91
f 1 91 90
f 1 90 96
f 1 96 95
f 1 95 94
f 1 94 93
f 1 93 86
f 1 86 76
f 1 76 73
f 1 73 58
f 1 58 57
f 1 57 40
f 1 40 25
f 1 25 15
f 1 15 8
f 1 8 4
f 1 4 9
f 1 9 18
f 1 18 31
f 1 31 19
f 1 19 10
f 1 10 5
f 1 5 2
f 2 5 6
f 2 6 12
f 2 12 11
f 2 11 20
f 2 20 33
f 2 33 36
f 2 36 22
f 2 22 13
f 2 13 7
f 2 7 3
f 4 8 9
f 5 10 11
f 5 11 12
f 5 12 6
f 7 13 21
f 7 21 14
f 8 15 16
f 8 16 17
f 8 17 9
f 9 17 18
f 10 19 20
f 10 20 11
f 13 22 23
f 13 23 21
f 14 21 24
f 15 25 26
f 15 26 16
f 16 27 28
f 16 28 17
f 16 26 27
f 17 28 29
f 17 29 30
f 17 30 18
f 18 30 31
f 19 31 47
f 19 47 32
f 19 32 20
f 20 32 33
f 21 34 35
f 21 35 24
f 21 23 39
f 21 39 34
f 22 36 37
f 22 37 23
f 23 37 38
f 23 38 39
f 25 40 41
f 25 41 26
f 26 41 42
f 26 42 27
f 27 43 44
f 27 44 45
f 27 45 28
f 27 42 59
f 27 59 43
f 28 45 29
f 29 45 46
f 29 46 47
f 29 47 30
f 30 47 31
f 32 47 33
f 33 48 36
f 33 47 49
f 33 49 50
f 33 50 51
f 33 51 48
f 34 52 35
f 34 39 56
f 34 56 52
f 35 52 53
f 36 48 54
f 36 54 37
f 37 54 38
f 38 55 56
f 38 56 39
f 38 54 55
f 40 57 41
f 41 57 58
f 41 58 59
f 41 59 42
f 43 60 61
f 43 61 44
f 43 59 62
f 43 62 60
f 44 63 64
f 44 64 45
f 44 61 63
f 45 64 46
f 46 64 65
f 46 65 49
f 46 49 47
f 48 51 54
f 49 65 50
f 50 65 66
f 50 66 67
f 50 67 68
f 50 68 51
f 51 68 69
f 51 69 54
f 52 70 71
f 52 71 53
f 52 56 72
f 52 72 70
f 54 69 55
f 55 69 72
f 55 72 56
f 58 73 59
f 59 73 62
f 60 74 75
f 60 75 61
f 60 62 77
f 60 77 74
f 61 75 63
f 62 73 76
f 62 76 77
f 63 78 65
f 63 65 64
f 63 75 78
f 65 78 79
f 65 79 66
f 66 79 80
f 66 80 81
f 66 81 67
f 67 81 68
f 68 81 82
f 68 82 69
f 69 82 72
f 70 83 84
f 70 84 71
f 70 72 82
f 70 82 83
f 74 85 75
f 74 77 85
f 75 85 79
f 75 79 78
f 76 86 77
f 77 86 87
f 77 87 85
f 79 85 80
f 80 85 87
f 80 87 88
f 80 88 89
f 80 89 81
f 81 89 83
f 81 83 82
f 83 89 90
f 83 90 91
f 83 91 92
f 83 92 84
f 86 93 87
f 87 93 94
f 87 94 88
f 88 94 95
f 88 95 96
f 88 96 90
f 88 90 89

