# https://github.com/mikedh/trimesh
v -6.45841057 0.57050372 4.24368835
v -6.36858667 0.57050372 4.24368835
v -6.45841057 0.57050372 4.29459923
v -6.45841057 0.68042570 4.24368835
v -6.34825111 0.57074673 4.24368835
v -6.34826520 0.57050372 4.24407216
v -6.31426896 0.57050372 4.29459923
v -6.45841057 0.71655173 4.29459923
v -6.45841057 0.71655173 4.24549264
v -6.40108703 0.68042570 4.24368835
v -6.31426896 0.57050372 4.27760401
v -6.34825111 0.61619374 4.24368835
v -6.31426896 0.71655173 4.29459923
v -6.40108703 0.71655173 4.24549264
v -6.39530093 0.68025415 4.24368835
v -6.31426896 0.71655173 4.27760401
v -6.34837808 0.63319170 4.24368835
v -6.38371484 0.71655173 4.24577682
v -6.38371484 0.67968232 4.24368835
v -6.35266810 0.65054706 4.24368835
v -6.37164905 0.71655173 4.24940507
v -6.35724044 0.65959646 4.24368835
v -6.36630061 0.66701607 4.24368835
f 1 2 6
f 1 6 11
f 1 11 7
f 1 7 3
f 1 3 8
f 1 8 9
f 1 9 4
f 1 4 10
f 1 10 15
f 1 15 19
f 1 19 23
f 1 23 22
f 1 22 20
f 1 20 17
f 1 17 12
f 1 12 5
f 1 5 2
f 2 5 6
f 3 7 13
f 3 13 8
f 4 9 14
f 4 14 10
f 5 11 6
f 5 12 16
f 5 16 11
f 7 11 16
f 7 16 13
f 8 13 16
f 8 16 21
f 8 21 18
f 8 18 14
f 8 14 9
f 10 14 15
f 12 17 16
f 14 18 19
f 14 19 15
f 16 17 20
f 16 20 21
f 18 21 22
f 18 22 23
f 18 23 19
f 20 22 21

