# https://github.com/mikedh/trimesh
v -4.61372138 2.00522426 4.38293016
v -4.55251213 1.88420573 4.34445107
v -4.55251213 1.93632763 4.34407430
v -4.55251213 1.94953071 4.34184520
v -4.55251213 1.98621131 4.29519306
v -4.60730789 2.00522426 4.36568411
v -4.62147799 2.00522426 4.38293016
v -4.61372138 1.88359854 4.38293016
v -4.55251213 1.88383663 4.34445107
v -4.55495882 1.97047237 4.27687969
v -4.58840058 2.00522426 4.29519306
v -4.55251213 1.95663828 4.29519306
v -4.64527869 2.00522426 4.29519306
v -4.65885527 1.97047237 4.29468042
v -4.62147799 1.88359854 4.38293016
v -4.55933159 1.88359854 4.34373938
v -4.55251213 1.88359854 4.33860117
v -4.55495882 1.95368574 4.27691097
v -4.55933159 1.95368574 4.27664936
v -4.61145168 1.97047237 4.27603212
v -4.55251213 1.93022017 4.29525582
v -4.65885527 1.97047237 4.27761230
v -4.65885527 1.88376522 4.29468042
v -4.65885527 1.88359854 4.28198642
v -4.55251213 1.88359854 4.30740550
v -4.55495882 1.93657763 4.28176665
v -4.56178874 1.88359854 4.28235282
v -4.57670844 1.88359854 4.27740289
v -4.61145168 1.88359854 4.27603212
v -4.65885527 1.88359854 4.27761230
v -4.55605204 1.88359854 4.29619763
v -4.56159094 1.88359854 4.28282362
f 1 2 3
f 1 3 4
f 1 4 5
f 1 5 6
f 1 6 11
f 1 11 13
f 1 13 7
f 1 7 15
f 1 15 8
f 1 8 9
f 1 9 2
f 2 9 17
f 2 17 25
f 2 25 21
f 2 21 12
f 2 12 5
f 2 5 4
f 2 4 3
f 5 10 11
f 5 11 6
f 5 12 10
f 7 13 14
f 7 14 23
f 7 23 15
f 8 15 24
f 8 24 30
f 8 30 29
f 8 29 28
f 8 28 27
f 8 27 32
f 8 32 31
f 8 31 25
f 8 25 17
f 8 17 16
f 8 16 9
f 9 16 17
f 10 12 18
f 10 18 19
f 10 19 20
f 10 20 11
f 11 20 13
f 12 21 18
f 13 22 14
f 13 20 22
f 14 22 30
f 14 30 24
f 14 24 23
f 15 23 24
f 18 21 25
f 18 25 26
f 18 26 27
f 18 27 28
f 18 28 19
f 19 28 29
f 19 29 20
f 20 29 30
f 20 30 22
f 25 31 26
f 26 31 32
f 26 32 27

