# https://github.com/mikedh/trimesh
v -4.25791650 0.40582480 2.07133052
v -4.25789019 0.40666781 1.97698499
v -4.25789019 0.39851833 1.99375975
v -4.25789019 0.39692589 2.00243635
v -4.25789019 0.39608288 2.00871940
v -4.25789019 0.39519295 2.02006879
v -4.25789019 0.39561446 2.02553404
v -4.25789019 0.39678540 2.03670392
v -4.25791650 0.40727671 2.07823190
v -4.25791650 0.51677979 1.97698499
v -4.25625772 0.40666781 1.97698499
v -4.25438829 0.39861201 1.99391932
v -4.25309809 0.40671467 1.97698499
v -4.24712112 0.40680835 1.97698499
v -4.21181232 0.40769822 1.97698499
v -3.98895350 0.41636293 1.97698499
v -4.22916390 0.39795629 2.00710376
v -4.24654189 0.39528663 2.02006879
v -4.24654189 0.39650438 2.03584623
v -4.17703014 0.42062504 2.18075537
v -4.19011624 0.42114022 2.18075537
v -4.19443444 0.42151491 2.18075537
v -4.20746782 0.42324784 2.18075537
v -4.25789019 0.39884616 2.04538051
v -4.25791650 0.41889206 2.12785805
v -4.25791650 0.68670156 1.97698499
v -3.98892719 0.42989860 2.07133052
v -3.98892719 0.43322398 2.17273699
v -3.98892719 0.43355181 2.18029661
v -4.10327922 0.42104654 2.18075537
v -4.20254410 0.39861201 2.02894485
v -4.20254410 0.39861201 2.02726936
v -3.98892719 0.51677979 1.97698499
v -4.10762372 0.42062504 2.18075537
v -4.12065716 0.42029716 2.18075537
v -4.17271195 0.42057818 2.18075537
v -4.24222370 0.42938337 2.18075537
v -4.25791650 0.42380988 2.14770452
v -4.25791650 0.77170928 2.18041628
v -4.20675696 0.78674368 1.98532251
v -4.20567741 0.78501075 1.97698499
v -3.98892719 0.43359867 2.18075537
v -3.98892719 0.84093323 1.97698499
v -4.24609429 0.43013276 2.18075537
v -4.25749520 0.43256826 2.18075537
v -4.25791650 0.43238092 2.17963839
v -4.18653532 0.81657836 1.97698499
v -4.19238066 0.80763268 1.97698499
v -4.25791650 0.77067888 2.18075537
v -4.11225783 0.83142546 2.18075537
v -4.11633902 0.85030046 2.06367118
v -4.13271643 0.84992577 2.02665103
v -4.13490183 0.85723221 1.97698499
v -4.15083158 0.85039413 1.97698499
v -4.15120022 0.85015995 1.97698499
v -4.16515522 0.83854458 1.97698499
v -4.16984199 0.83437614 1.97698499
v -4.18377069 0.81957591 1.97698499
v -3.98892719 0.87367173 2.18075537
v -3.99332435 0.84528896 1.97698499
v -3.98892719 0.84388389 1.98384649
v -4.25791650 0.43270880 2.18075537
v -4.11007243 0.83226852 2.18075537
v -4.03808567 0.85915249 2.18075537
v -4.01459913 0.86777036 2.18075537
v -4.11254745 0.86631845 1.97698499
v -4.11765552 0.86430447 1.97698499
v -4.12434341 0.86158797 1.97698499
v -3.98892719 0.86449182 2.07218820
v -4.04169290 0.86898811 1.97698499
v -4.05546361 0.87203245 1.97698499
v -4.07286785 0.87334387 1.97698499
v -4.09024579 0.87175143 1.97698499
v -4.09614374 0.87067421 1.97698499
v -4.10446410 0.86903495 1.97698499
v -4.00396174 0.87044002 2.18075537
v -3.99666827 0.84856753 1.97698499
v -3.99603632 0.84917638 1.97987719
v -3.98892719 0.84884855 1.99623308
v -4.01336160 0.86819189 2.18075537
v -4.10954581 0.86739567 1.97698499
v -3.98892719 0.86285256 2.05481507
v -4.03716411 0.86786403 1.97698499
v -4.01215042 0.86851975 2.18075537
v -3.99877470 0.85020679 1.97698499
v -3.99364027 0.85095617 1.99146594
v -3.98892719 0.85156502 2.00520887
v -3.98892719 0.85952718 2.03744193
v -4.02070773 0.86200950 1.97698499
v -4.03297760 0.86664628 1.97698499
v -4.00483064 0.85404734 1.97698499
v -3.98892719 0.85297012 2.01007574
f 1 2 3
f 1 3 4
f 1 4 5
f 1 5 6
f 1 6 7
f 1 7 8
f 1 8 9
f 1 9 25
f 1 25 38
f 1 38 46
f 1 46 62
f 1 62 49
f 1 49 39
f 1 39 26
f 1 26 10
f 1 10 2
f 2 11 3
f 2 10 26
f 2 26 41
f 2 41 48
f 2 48 47
f 2 47 58
f 2 58 57
f 2 57 56
f 2 56 55
f 2 55 54
f 2 54 53
f 2 53 68
f 2 68 67
f 2 67 66
f 2 66 81
f 2 81 75
f 2 75 74
f 2 74 73
f 2 73 72
f 2 72 71
f 2 71 70
f 2 70 83
f 2 83 90
f 2 90 89
f 2 89 91
f 2 91 85
f 2 85 77
f 2 77 60
f 2 60 43
f 2 43 33
f 2 33 16
f 2 16 15
f 2 15 14
f 2 14 13
f 2 13 11
f 3 12 4
f 3 11 13
f 3 13 14
f 3 14 15
f 3 15 16
f 3 16 12
f 4 12 16
f 4 16 17
f 4 17 5
f 5 18 6
f 5 17 18
f 6 18 7
f 7 18 19
f 7 19 8
f 8 19 20
f 8 20 21
f 8 21 22
f 8 22 23
f 8 23 24
f 8 24 25
f 8 25 9
f 16 27 28
f 16 28 29
f 16 29 30
f 16 30 31
f 16 31 32
f 16 32 18
f 16 18 17
f 16 33 27
f 18 32 31
f 18 31 19
f 19 31 34
f 19 34 35
f 19 35 36
f 19 36 20
f 20 36 35
f 20 35 34
f 20 34 30
f 20 30 42
f 20 42 59
f 20 59 76
f 20 76 84
f 20 84 80
f 20 80 65
f 20 65 64
f 20 64 63
f 20 63 50
f 20 50 49
f 20 49 62
f 20 62 45
f 20 45 44
f 20 44 37
f 20 37 23
f 20 23 22
f 20 22 21
f 23 37 38
f 23 38 25
f 23 25 24
f 26 39 40
f 26 40 41
f 27 33 43
f 27 43 61
f 27 61 79
f 27 79 87
f 27 87 92
f 27 92 88
f 27 88 82
f 27 82 69
f 27 69 59
f 27 59 42
f 27 42 29
f 27 29 28
f 29 42 30
f 30 34 31
f 37 44 38
f 38 44 45
f 38 45 46
f 39 47 48
f 39 48 40
f 39 49 50
f 39 50 51
f 39 51 52
f 39 52 53
f 39 53 54
f 39 54 55
f 39 55 56
f 39 56 57
f 39 57 58
f 39 58 47
f 40 48 41
f 43 60 61
f 45 62 46
f 50 63 51
f 51 63 64
f 51 64 65
f 51 65 66
f 51 66 67
f 51 67 52
f 52 67 68
f 52 68 53
f 59 69 70
f 59 70 71
f 59 71 72
f 59 72 73
f 59 73 74
f 59 74 75
f 59 75 76
f 60 77 78
f 60 78 61
f 61 78 79
f 65 80 81
f 65 81 66
f 69 82 83
f 69 83 70
f 75 81 80
f 75 80 84
f 75 84 76
f 77 85 78
f 78 85 86
f 78 86 79
f 79 86 87
f 82 88 89
f 82 89 90
f 82 90 83
f 85 91 86
f 86 91 92
f 86 92 87
f 88 92 91
f 88 91 89

