# https://github.com/mikedh/trimesh
v -1.76690709 0.46378283 1.44581506
v -1.76685376 0.42611096 1.44581506
v -1.78838817 0.46378283 1.47232224
v -1.62853233 0.47512393 1.44581506
v -1.72378493 0.42611096 1.44581506
v -1.78822827 0.42611096 1.47248328
v -1.80288668 0.42611096 1.49319431
v -1.80885661 0.42611096 1.50187393
v -1.79020054 0.46378283 1.47497150
v -1.36164381 0.47541350 1.59532986
v -1.51313120 0.47541350 1.44581506
v -1.80811033 0.46378283 1.50327908
v -1.81541281 0.46378283 1.51618871
v -1.81653223 0.46378283 1.51839887
v -1.82468756 0.46378283 1.53634361
v -1.82516737 0.46378283 1.53767554
v -1.83572134 0.46378283 1.57131091
v -1.83859968 0.46378283 1.58184939
v -1.84009214 0.46378283 1.58742599
v -1.84057185 0.46378283 1.59004599
v -1.84073175 0.46378283 1.59092416
v -1.84142480 0.46378283 1.59532986
v -1.72154609 0.42611096 1.44594674
v -1.37401015 0.43147748 1.44581506
v -1.80944288 0.42611096 1.50285463
v -1.29815989 0.47541350 1.59532986
v -1.37321064 0.47541350 1.44581506
v -1.81706527 0.42611096 1.51618871
v -1.82223569 0.42611096 1.52590755
v -1.82255549 0.42611096 1.52656621
v -1.82559374 0.42611096 1.53438227
v -1.83092406 0.42611096 1.55080472
v -1.84137146 0.42611096 1.58812856
v -1.83140377 0.42611096 1.55234161
v -1.84270402 0.42611096 1.59532986
v -1.81471986 0.42611096 1.59532986
v -1.35327525 0.43147748 1.47241006
v -1.35140965 0.43147748 1.47505932
v -1.33525889 0.43147748 1.49885878
v -1.33296682 0.43147748 1.50225448
v -1.31942773 0.43147748 1.52401942
v -1.31894802 0.43147748 1.52491225
v -1.31862822 0.43147748 1.52581972
v -1.30322374 0.43147748 1.57589220
v -1.30231756 0.43147748 1.57955142
v -1.30039873 0.43147748 1.58777727
v -1.29895940 0.43147748 1.59521276
v -1.35204926 0.47541350 1.47090248
v -1.30007872 0.43776095 1.59532986
v -1.29965245 0.47541350 1.58565494
v -1.30754131 0.43147748 1.59532986
v -1.34490668 0.47541350 1.48141171
v -1.33195397 0.47541350 1.50086398
v -1.32246608 0.47541350 1.51694986
v -1.31868166 0.47541350 1.52429749
v -1.30125147 0.47541350 1.57606784
v -1.30135814 0.46764845 1.57643374
f 1 2 3
f 1 3 4
f 1 4 11
f 1 11 27
f 1 27 24
f 1 24 5
f 1 5 2
f 2 5 23
f 2 23 36
f 2 36 35
f 2 35 33
f 2 33 34
f 2 34 32
f 2 32 31
f 2 31 30
f 2 30 29
f 2 29 28
f 2 28 25
f 2 25 8
f 2 8 7
f 2 7 6
f 2 6 3
f 3 6 7
f 3 7 8
f 3 8 9
f 3 9 4
f 4 10 11
f 4 9 12
f 4 12 13
f 4 13 14
f 4 14 15
f 4 15 16
f 4 16 17
f 4 17 18
f 4 18 19
f 4 19 20
f 4 20 21
f 4 21 22
f 4 22 10
f 5 24 23
f 8 12 9
f 8 25 12
f 10 26 50
f 10 50 56
f 10 56 55
f 10 55 54
f 10 54 53
f 10 53 52
f 10 52 48
f 10 48 27
f 10 27 11
f 10 22 35
f 10 35 36
f 10 36 51
f 10 51 49
f 10 49 26
f 12 25 28
f 12 28 13
f 13 28 29
f 13 29 14
f 14 29 30
f 14 30 15
f 15 30 31
f 15 31 16
f 16 31 32
f 16 32 17
f 17 33 18
f 17 32 34
f 17 34 33
f 18 33 19
f 19 33 35
f 19 35 20
f 20 35 21
f 21 35 22
f 23 24 37
f 23 37 38
f 23 38 39
f 23 39 40
f 23 40 41
f 23 41 42
f 23 42 43
f 23 43 44
f 23 44 45
f 23 45 46
f 23 46 47
f 23 47 36
f 24 27 48
f 24 48 37
f 26 49 47
f 26 47 50
f 36 47 51
f 37 48 38
f 38 52 39
f 38 48 52
f 39 52 40
f 40 53 41
f 40 52 53
f 41 53 54
f 41 54 42
f 42 54 55
f 42 55 43
f 43 55 56
f 43 56 57
f 43 57 44
f 44 57 45
f 45 57 46
f 46 57 47
f 47 57 56
f 47 56 50
f 47 49 51

