# https://github.com/mikedh/trimesh
v -0.42246608 1.78172438 2.08846039
v -0.42246608 1.75473879 2.08846039
v -0.42246608 1.78175089 2.07217940
v -0.44865299 1.78926853 1.61993517
v -0.45385748 1.78843324 2.08846039
v -0.42801709 1.74983753 2.08846039
v -0.42801709 1.74981542 1.61993517
v -0.42246608 1.75473433 1.62043966
v -0.42246608 1.78179952 1.62043966
v -0.42246608 1.78179952 1.61993517
v -0.45880244 1.79015685 1.61993517
v -0.45880244 1.79015685 1.62043966
v -0.46254482 1.78872052 2.08846039
v -0.49513880 1.74501141 2.08846039
v -0.49237779 1.74501141 1.61993517
v -0.42246608 1.75473433 1.61993517
v -0.47567669 1.78986516 1.61993517
v -0.50244066 1.78872052 2.07217940
v -0.50181534 1.78870281 2.08846039
v -0.49355137 1.78879566 2.08846039
v -0.47617690 1.78882217 2.08846039
v -0.47531111 1.78881772 2.08846039
v -0.51222473 1.74501141 2.08846039
v -0.51025247 1.74501141 1.61993517
v -0.47617690 1.78985190 1.61993517
v -0.47617690 1.78985190 1.62043966
v -0.50257550 1.78872052 1.96788944
v -0.51131089 1.78175535 1.91579032
v -0.50237334 1.78869401 2.08846039
v -0.51282126 1.76256577 2.08846039
v -0.51981533 1.74501141 1.96504601
v -0.51025247 1.76256577 1.61993517
v -0.51029099 1.74501141 1.62043966
v -0.48823130 1.78899010 1.61993517
v -0.50223871 1.78862328 1.66377915
v -0.50231576 1.78866304 1.67258465
v -0.50242160 1.78871167 1.68996632
v -0.50245992 1.78872052 1.70734798
v -0.50261402 1.78872052 1.82897373
v -0.50262355 1.78872052 1.84630953
v -0.50262355 1.78872052 1.91579032
v -0.50261402 1.78872052 1.93317198
v -0.50259476 1.78872052 1.95055364
v -0.51131089 1.78175535 1.86364533
v -0.52018091 1.77307096 1.89840866
v -0.52018091 1.77306656 1.91579032
v -0.50276792 1.78814155 2.08846039
v -0.52010386 1.77285881 1.93317198
v -0.51993070 1.77229755 1.95055364
v -0.50828041 1.77883842 2.08846039
v -0.51974802 1.77170977 1.96307395
v -0.51981533 1.76256577 1.96504601
v -0.52024823 1.74501141 1.95055364
v -0.50624082 1.77901521 1.61993517
v -0.51029099 1.76256577 1.62043966
v -0.51145505 1.74501141 1.63782132
v -0.49724570 1.78770399 1.61993517
v -0.49727449 1.78772170 1.62043966
v -0.48858736 1.78895918 1.62043966
v -0.50626961 1.77903732 1.62043966
v -0.50684688 1.77949693 1.63782132
v -0.51982486 1.77196609 1.81159207
v -0.52004607 1.77266877 1.82897373
v -0.52014239 1.77297371 1.84630953
v -0.51131089 1.78166250 1.84630953
v -0.52018091 1.77307096 1.86364533
v -0.52074844 1.76256577 1.89840866
v -0.52073891 1.76256577 1.91579032
v -0.50797241 1.77993449 2.08846039
v -0.52060407 1.76256577 1.93317198
v -0.52024823 1.76256577 1.95055364
v -0.52060407 1.74501141 1.93317198
v -0.51145505 1.76256577 1.63782132
v -0.51968049 1.74501141 1.80099797
v -0.51965170 1.77140037 1.80164003
v -0.52047897 1.76256577 1.82897373
v -0.52068112 1.76256577 1.84630953
v -0.52074844 1.76256577 1.86364533
v -0.52074844 1.74501141 1.89840866
v -0.52073891 1.74501141 1.91579032
v -0.51968049 1.76256577 1.80099797
v -0.52004607 1.74501141 1.81159207
v -0.52004607 1.76256577 1.81159207
v -0.52047897 1.74501141 1.82897373
v -0.52068112 1.74501141 1.84630953
v -0.52074844 1.74501141 1.86364533
f 1 2 8
f 1 8 16
f 1 16 10
f 1 10 9
f 1 9 3
f 1 3 4
f 1 4 5
f 1 5 13
f 1 13 22
f 1 22 21
f 1 21 20
f 1 20 19
f 1 19 29
f 1 29 47
f 1 47 69
f 1 69 50
f 1 50 30
f 1 30 23
f 1 23 14
f 1 14 6
f 1 6 2
f 2 6 7
f 2 7 8
f 3 9 4
f 4 9 10
f 4 10 16
f 4 16 7
f 4 7 15
f 4 15 24
f 4 24 32
f 4 32 54
f 4 54 57
f 4 57 34
f 4 34 25
f 4 25 17
f 4 17 11
f 4 11 12
f 4 12 5
f 5 12 13
f 6 14 15
f 6 15 7
f 7 16 8
f 11 17 12
f 12 17 18
f 12 18 19
f 12 19 20
f 12 20 21
f 12 21 22
f 12 22 13
f 14 23 31
f 14 31 53
f 14 53 72
f 14 72 80
f 14 80 79
f 14 79 86
f 14 86 85
f 14 85 84
f 14 84 82
f 14 82 74
f 14 74 56
f 14 56 33
f 14 33 24
f 14 24 15
f 17 25 26
f 17 26 18
f 18 27 28
f 18 28 29
f 18 29 19
f 18 26 27
f 23 30 31
f 24 33 55
f 24 55 32
f 25 34 35
f 25 35 36
f 25 36 37
f 25 37 38
f 25 38 39
f 25 39 40
f 25 40 41
f 25 41 26
f 26 41 42
f 26 42 43
f 26 43 27
f 27 43 28
f 28 43 42
f 28 42 41
f 28 41 40
f 28 40 44
f 28 44 66
f 28 66 45
f 28 45 46
f 28 46 29
f 29 46 48
f 29 48 49
f 29 49 47
f 30 50 51
f 30 51 52
f 30 52 31
f 31 52 71
f 31 71 53
f 32 55 54
f 33 56 73
f 33 73 55
f 34 57 58
f 34 58 59
f 34 59 35
f 35 59 58
f 35 58 57
f 35 57 54
f 35 54 60
f 35 60 61
f 35 61 62
f 35 62 63
f 35 63 64
f 35 64 36
f 36 64 65
f 36 65 37
f 37 65 44
f 37 44 38
f 38 44 39
f 39 44 40
f 44 65 66
f 45 67 46
f 45 66 78
f 45 78 67
f 46 67 68
f 46 68 48
f 47 49 51
f 47 51 69
f 48 68 70
f 48 70 49
f 49 70 51
f 50 69 51
f 51 70 71
f 51 71 52
f 53 71 70
f 53 70 72
f 54 55 60
f 55 73 60
f 56 74 81
f 56 81 73
f 60 73 75
f 60 75 62
f 60 62 61
f 62 75 76
f 62 76 63
f 63 76 77
f 63 77 64
f 64 77 78
f 64 78 66
f 64 66 65
f 67 79 80
f 67 80 68
f 67 78 86
f 67 86 79
f 68 80 72
f 68 72 70
f 73 81 75
f 74 82 83
f 74 83 81
f 75 81 83
f 75 83 76
f 76 84 85
f 76 85 77
f 76 83 82
f 76 82 84
f 77 85 86
f 77 86 78

