# https://github.com/mikedh/trimesh
v -4.68095441 0.63484618 3.49446901
v -4.69634201 0.62964884 3.49446901
v -4.68075609 0.63224746 3.49446901
v -4.68075609 0.78954798 3.49311098
v -4.68095441 0.78954798 3.49311098
v -4.70502552 0.61941659 3.49446901
v -4.68075609 0.61064609 3.49446901
v -4.68075609 0.80465274 3.49087774
v -4.68095441 0.80457155 3.49090798
v -4.69179629 0.80181043 3.48970073
v -4.69251326 0.78954798 3.49018365
v -4.70792002 0.61072729 3.49446901
v -4.69537338 0.05981011 3.49446901
v -4.68075609 0.21621739 3.44790274
v -4.68075609 0.81326080 3.48704505
v -4.68095441 0.81326080 3.48704505
v -4.70691700 0.79571980 3.47044648
v -4.70230262 0.78979161 3.47796106
v -4.70932341 0.59838363 3.49446901
v -4.69404248 0.82105679 3.47554679
v -4.69699415 0.80733261 3.48061685
v -4.69607513 0.04243160 3.49446901
v -4.68075609 0.19900116 3.44485465
v -4.68075609 0.19965082 3.44497530
v -4.68075609 0.21516166 3.44772160
v -4.68075609 0.82657896 3.47654266
v -4.68130529 0.82584809 3.47711609
v -4.68733446 0.83266959 3.47053710
v -4.70589877 0.80692658 3.46739840
v -4.70742043 0.81772727 3.45508540
v -4.70811451 0.80692658 3.45870681
v -4.71085263 0.80692658 3.44479427
v -4.71228647 0.78954798 3.44479427
v -4.70941486 0.59594735 3.49446901
v -4.69998021 0.82519843 3.46281125
v -4.69433609 0.83681121 3.45894832
v -4.70197463 0.03236179 3.49446901
v -4.68940138 0.03349871 3.43773237
v -4.68075609 0.18722597 3.43598193
v -4.68075609 0.83299442 3.47095954
v -4.68075609 0.83770450 3.46447106
v -4.68130529 0.83819177 3.46371660
v -4.68095441 0.84793675 3.44796311
v -4.69060272 0.85086025 3.43755134
v -4.70591409 0.82934005 3.44778198
v -4.70818690 0.82381788 3.44310422
v -4.71335815 0.80692658 3.42741111
v -4.71493315 0.78954798 3.42741111
v -4.71547085 0.77216937 3.42741111
v -4.70996022 0.58100507 3.49446901
v -4.69826032 0.84070922 3.44265154
v -4.70819073 0.03236179 3.49446901
v -4.70201658 0.03228049 3.41005818
v -4.69806956 0.03244299 3.44403981
v -4.68940138 0.03349871 3.43447301
v -4.68075609 0.18072932 3.18618961
v -4.68075609 0.18081051 3.20218451
v -4.68075609 0.18178505 3.39267501
v -4.68075609 0.18194743 3.41005818
v -4.68075609 0.18284067 3.42517786
v -4.68075609 0.18324674 3.42741111
v -4.68075609 0.83827296 3.46365623
v -4.68075609 0.83851659 3.46326393
v -4.68075609 0.84793675 3.44796311
v -4.68095441 0.85150993 3.43927153
v -4.68095441 0.85573274 3.42741111
v -4.68095441 0.86003679 3.41005818
v -4.69341323 0.85256563 3.42741111
v -4.70209674 0.84347030 3.42741111
v -4.70702378 0.83299442 3.43619320
v -4.71021572 0.82430514 3.42741111
v -4.71501320 0.80692658 3.41005818
v -4.71661108 0.78954798 3.41005818
v -4.71191281 0.82430514 3.41005818
v -4.71711451 0.77216937 3.41005818
v -4.71009755 0.56362646 3.49446901
v -4.70821362 0.03236179 3.47956061
v -4.70824801 0.03228049 3.41005818
v -4.70983823 0.04243160 3.49446901
v -4.70988783 0.04243160 3.47956061
v -4.70993734 0.04243160 3.46217744
v -4.70201658 0.03228049 3.18618961
v -4.69806956 0.03244299 3.42819581
v -4.69618957 0.04243160 3.18618961
v -4.68075609 0.39788033 3.18618961
v -4.68075609 0.85150993 3.43915078
v -4.68075609 0.85581396 3.42723008
v -4.68075609 0.86003679 3.40984691
v -4.68095441 0.86174215 3.39267501
v -4.69649839 0.85475825 3.41005818
v -4.70518190 0.84663741 3.41005818
v -4.70750431 0.83478100 3.42741111
v -4.70841578 0.83794813 3.41005818
v -4.71568440 0.80692658 3.39267501
v -4.71751872 0.78954798 3.39267501
v -4.71260307 0.82430514 3.39267501
v -4.71831191 0.77216937 3.39267501
v -4.70885810 0.83949108 3.39267501
v -4.71840346 0.75479086 3.39267501
v -4.71058565 0.07718872 3.49446901
v -4.71057425 0.09456733 3.49446901
v -4.71055893 0.11194594 3.49446901
v -4.71054370 0.12688821 3.49446901
v -4.70823651 0.03236179 3.46217744
v -4.70824801 0.03228049 3.18618961
v -4.70995639 0.04243160 3.41005818
v -4.71036443 0.05737387 3.49446901
v -4.71050176 0.05981011 3.47956061
v -4.71054370 0.05981011 3.46217744
v -4.68435990 0.39414473 3.18618961
v -4.68075609 0.49411218 3.19325152
v -4.68075609 0.86174215 3.39246374
v -4.68095441 0.86190459 3.37529185
v -4.69737175 0.85565154 3.39267501
v -4.70605515 0.84818038 3.39267501
v -4.71508942 0.80692658 3.37529185
v -4.71700007 0.78954798 3.37529185
v -4.71221408 0.82430514 3.37529185
v -4.71803736 0.77216937 3.37529185
v -4.70879710 0.83916625 3.37529185
v -4.71858646 0.75479086 3.37529185
v -4.71890678 0.73741225 3.37529185
v -4.71918526 0.72003364 3.37529185
v -4.71928821 0.70265508 3.37529185
v -4.71056659 0.07475248 3.49446901
v -4.71960853 0.65051936 3.35790868
v -4.70995639 0.04243160 3.18618961
v -4.71055137 0.05981011 3.41005818
v -4.71044842 0.05981011 3.49446901
v -4.71929577 0.54624791 3.32320273
v -4.71844157 0.49411218 3.30581956
v -4.68534759 0.39308906 3.18618961
v -4.68493955 0.49411218 3.19427763
v -4.68075609 0.50816122 3.19605820
v -4.68601878 0.39211452 3.18618961
v -4.69126242 0.38439975 3.18618961
v -4.69607896 0.37262456 3.18618961
v -4.68075609 0.86182337 3.37511071
v -4.68095441 0.85946833 3.35790868
v -4.69571286 0.85459584 3.35790868
v -4.69726880 0.85581396 3.37529185
v -4.70595221 0.84785555 3.37529185
v -4.71385008 0.80692658 3.35790868
v -4.71571112 0.78954798 3.35790868
v -4.71089458 0.82430514 3.35790868
v -4.70815262 0.83656758 3.35790868
v -4.71658437 0.77216937 3.35790868
v -4.71805259 0.73741225 3.35790868
v -4.71878478 0.72003364 3.35790868
v -4.71937209 0.70265508 3.35790868
v -4.71965047 0.68527652 3.35790868
v -4.71971530 0.66789792 3.35790868
v -4.71965814 0.59838363 3.34055565
v -4.71054753 0.05981011 3.18618961
v -4.71953603 0.56362646 3.32320273
v -4.71867801 0.51149074 3.30581956
v -4.69654034 0.49411218 3.20296921
v -4.69487389 0.51149074 3.20493081
v -4.69110221 0.54316197 3.20894463
v -4.68945482 0.55469358 3.21033290
v -4.70798868 0.33445668 3.18618961
v -4.68075609 0.55274456 3.20764698
v -4.68075609 0.85938711 3.35772755
v -4.68075609 0.85370255 3.33904673
v -4.68257519 0.85354011 3.33886570
v -4.68944716 0.85029179 3.33195458
v -4.69279547 0.85240322 3.34351322
v -4.70439626 0.84525688 3.35790868
v -4.70738615 0.83405012 3.34550506
v -4.71121490 0.80692658 3.34055565
v -4.71324371 0.78954798 3.34055565
v -4.70671868 0.83072058 3.33394642
v -4.71442972 0.77216937 3.34055565
v -4.71556996 0.75479086 3.34055565
v -4.71648142 0.73741225 3.34055565
v -4.71721362 0.72003364 3.34055565
v -4.71793815 0.70265508 3.34055565
v -4.71859029 0.68527652 3.34055565
v -4.71913949 0.66789792 3.34055565
v -4.71954753 0.65051936 3.34055565
v -4.71970391 0.63314080 3.34055565
v -4.71971147 0.61576219 3.34055565
v -4.71967336 0.58100507 3.32320273
v -4.71055137 0.06184037 3.18618961
v -4.71890305 0.52886930 3.30581956
v -4.71799925 0.49411218 3.28846653
v -4.70707339 0.53820826 3.22753493
v -4.69873319 0.54649154 3.21893386
v -4.69617424 0.56362646 3.22056354
v -4.69047679 0.60967161 3.22690123
v -4.68089714 0.61559980 3.22509042
v -4.68075609 0.59822119 3.22020148
v -4.68075609 0.56338283 3.21054417
v -4.70892676 0.32048884 3.18618961
v -4.68075609 0.85256563 3.33575724
v -4.68075609 0.84801797 3.32682414
v -4.68257519 0.84623136 3.32428911
v -4.68095441 0.83656758 3.31095000
v -4.69146458 0.83469980 3.31279095
v -4.69513322 0.83859779 3.32320273
v -4.69975899 0.84217097 3.33874494
v -4.70719538 0.79953659 3.31411874
v -4.70694756 0.76250563 3.29752028
v -4.71373564 0.73741225 3.32320273
v -4.71492931 0.72003364 3.32320273
v -4.70393862 0.82462997 3.32377605
v -4.70615436 0.81106820 3.31834383
v -4.71608477 0.70265508 3.32320273
v -4.71692002 0.68527652 3.32320273
v -4.71746911 0.66789792 3.32320273
v -4.71736617 0.61576219 3.30581956
v -4.71788865 0.59838363 3.30581956
v -4.71903644 0.61576219 3.32320273
v -4.71949792 0.59838363 3.32320273
v -4.71890678 0.54624791 3.30581956
v -4.71057425 0.07718872 3.18618961
v -4.71642042 0.49411218 3.27108336
v -4.71349164 0.51149074 3.25370020
v -4.71354498 0.58100507 3.27108336
v -4.71386913 0.63314080 3.28846653
v -4.70689039 0.70972025 3.28034838
v -4.70676073 0.65644755 3.26347827
v -4.70659285 0.60301251 3.24675905
v -4.70156276 0.59773398 3.23791657
v -4.69575097 0.61559980 3.23535140
v -4.69623151 0.66838518 3.25246292
v -4.69077805 0.66286301 3.24398261
v -4.68778827 0.67447581 3.24582345
v -4.68664804 0.62120317 3.22889307
v -4.68157984 0.66838518 3.24187001
v -4.68075609 0.67017176 3.24217180
v -4.68075609 0.61584338 3.22515079
v -4.68075609 0.61543736 3.22503014
v -4.71615344 0.51149074 3.27108336
v -4.71421617 0.49411218 3.25370020
v -4.68075609 0.84623136 3.32401757
v -4.68075609 0.84541929 3.32287070
v -4.68075609 0.83648638 3.31082925
v -4.68095441 0.82617291 3.30225842
v -4.68991247 0.81594067 3.29688657
v -4.69385566 0.82276217 3.30654388
v -4.70124627 0.80595205 3.30732848
v -4.69492340 0.78954798 3.29160513
v -4.69649083 0.77249424 3.28728953
v -4.69661283 0.72084579 3.26972533
v -4.71408268 0.68527652 3.30581956
v -4.71507037 0.66789792 3.30581956
v -4.71603527 0.65051936 3.30581956
v -4.71680175 0.63314080 3.30581956
v -4.71658820 0.58100507 3.28846653
v -4.71835002 0.58100507 3.30581956
v -4.71867418 0.56362646 3.30581956
v -4.71509326 0.54624791 3.27108336
v -4.71435350 0.56362646 3.27108336
v -4.71585600 0.59838363 3.28846653
v -4.71487587 0.61576219 3.28846653
v -4.69101076 0.71556725 3.26109413
v -4.68816203 0.72709876 3.26302559
v -4.68180478 0.72084579 3.25880050
v -4.68075609 0.72311958 3.25925318
v -4.71574156 0.52886930 3.27108336
v -4.71696569 0.56362646 3.28846653
v -4.68075609 0.82609172 3.30216790
v -4.68095441 0.81748363 3.29570957
v -4.68095441 0.80692658 3.29042823
v -4.68075609 0.78930434 3.28300417
v -4.68113741 0.78914190 3.28306454
v -4.68705225 0.77850363 3.28074068
v -4.69085055 0.76689083 3.27865832
v -4.69176584 0.80692658 3.29501538
v -4.68113741 0.77249424 3.27678724
v -4.68075609 0.77322509 3.27693813
v -4.68075609 0.81732122 3.29558881
v -4.68075609 0.80676415 3.29030748
f 1 2 6
f 1 6 12
f 1 12 19
f 1 19 34
f 1 34 50
f 1 50 76
f 1 76 103
f 1 103 102
f 1 102 101
f 1 101 100
f 1 100 125
f 1 125 129
f 1 129 107
f 1 107 79
f 1 79 52
f 1 52 37
f 1 37 22
f 1 22 13
f 1 13 7
f 1 7 3
f 1 3 4
f 1 4 5
f 1 5 2
f 2 5 6
f 3 7 14
f 3 14 25
f 3 25 24
f 3 24 23
f 3 23 39
f 3 39 61
f 3 61 60
f 3 60 59
f 3 59 58
f 3 58 57
f 3 57 56
f 3 56 85
f 3 85 111
f 3 111 134
f 3 134 162
f 3 162 193
f 3 193 192
f 3 192 233
f 3 233 232
f 3 232 231
f 3 231 260
f 3 260 272
f 3 272 266
f 3 266 274
f 3 274 273
f 3 273 263
f 3 263 238
f 3 238 237
f 3 237 236
f 3 236 196
f 3 196 195
f 3 195 164
f 3 164 163
f 3 163 138
f 3 138 112
f 3 112 88
f 3 88 87
f 3 87 86
f 3 86 64
f 3 64 63
f 3 63 62
f 3 62 41
f 3 41 40
f 3 40 26
f 3 26 15
f 3 15 8
f 3 8 4
f 4 8 9
f 4 9 5
f 5 9 10
f 5 10 11
f 5 11 12
f 5 12 6
f 7 13 14
f 8 15 16
f 8 16 9
f 9 16 10
f 10 17 18
f 10 18 19
f 10 19 12
f 10 12 11
f 10 16 20
f 10 20 21
f 10 21 17
f 13 22 23
f 13 23 24
f 13 24 25
f 13 25 14
f 15 26 16
f 16 26 27
f 16 27 28
f 16 28 20
f 17 21 29
f 17 29 30
f 17 30 31
f 17 31 32
f 17 32 33
f 17 33 34
f 17 34 19
f 17 19 18
f 20 35 29
f 20 29 21
f 20 28 36
f 20 36 35
f 22 37 38
f 22 38 23
f 23 38 39
f 26 40 28
f 26 28 27
f 28 40 41
f 28 41 42
f 28 42 43
f 28 43 44
f 28 44 36
f 29 35 30
f 30 35 45
f 30 45 46
f 30 46 32
f 30 32 31
f 32 47 48
f 32 48 33
f 32 46 47
f 33 48 49
f 33 49 50
f 33 50 34
f 35 36 45
f 36 51 45
f 36 44 51
f 37 52 78
f 37 78 53
f 37 53 54
f 37 54 38
f 38 54 83
f 38 83 55
f 38 55 56
f 38 56 57
f 38 57 58
f 38 58 59
f 38 59 60
f 38 60 61
f 38 61 39
f 41 62 42
f 42 62 63
f 42 63 43
f 43 64 65
f 43 65 44
f 43 63 64
f 44 65 66
f 44 66 67
f 44 67 68
f 44 68 51
f 45 51 69
f 45 69 70
f 45 70 46
f 46 71 47
f 46 70 71
f 47 72 73
f 47 73 48
f 47 71 74
f 47 74 72
f 48 73 49
f 49 73 75
f 49 75 76
f 49 76 50
f 51 68 69
f 52 77 78
f 52 79 80
f 52 80 81
f 52 81 77
f 53 78 105
f 53 105 82
f 53 82 83
f 53 83 54
f 55 83 82
f 55 82 84
f 55 84 56
f 56 84 82
f 56 82 105
f 56 105 127
f 56 127 154
f 56 154 184
f 56 184 216
f 56 216 194
f 56 194 161
f 56 161 137
f 56 137 136
f 56 136 135
f 56 135 132
f 56 132 110
f 56 110 85
f 64 86 65
f 65 86 87
f 65 87 66
f 66 87 67
f 67 88 112
f 67 112 89
f 67 89 90
f 67 90 68
f 67 87 88
f 68 91 69
f 68 90 91
f 69 91 70
f 70 91 92
f 70 92 71
f 71 92 93
f 71 93 74
f 72 94 95
f 72 95 73
f 72 74 96
f 72 96 94
f 73 95 97
f 73 97 75
f 74 93 98
f 74 98 96
f 75 97 99
f 75 99 100
f 75 100 101
f 75 101 102
f 75 102 103
f 75 103 76
f 77 104 78
f 77 81 104
f 78 104 81
f 78 81 106
f 78 106 127
f 78 127 105
f 79 107 108
f 79 108 80
f 80 108 81
f 81 108 109
f 81 109 106
f 85 110 111
f 89 113 114
f 89 114 90
f 89 112 113
f 90 114 115
f 90 115 91
f 91 115 93
f 91 93 92
f 93 115 98
f 94 116 117
f 94 117 95
f 94 96 118
f 94 118 116
f 95 117 119
f 95 119 97
f 96 98 120
f 96 120 118
f 97 119 121
f 97 121 122
f 97 122 123
f 97 123 124
f 97 124 99
f 98 115 120
f 99 124 100
f 100 124 126
f 100 126 125
f 106 109 128
f 106 128 127
f 107 129 108
f 108 129 130
f 108 130 131
f 108 131 109
f 109 131 128
f 110 132 111
f 111 133 134
f 111 132 135
f 111 135 136
f 111 136 137
f 111 137 133
f 112 138 113
f 113 138 163
f 113 163 139
f 113 139 140
f 113 140 141
f 113 141 114
f 114 141 115
f 115 142 120
f 115 141 142
f 116 143 117
f 116 118 143
f 117 143 144
f 117 144 119
f 118 145 143
f 118 120 146
f 118 146 145
f 119 147 148
f 119 148 149
f 119 149 150
f 119 150 121
f 119 144 147
f 120 142 146
f 121 150 122
f 122 150 151
f 122 151 123
f 123 151 124
f 124 151 152
f 124 152 126
f 125 126 129
f 126 152 153
f 126 153 129
f 127 128 154
f 128 131 154
f 129 153 155
f 129 155 130
f 130 155 131
f 131 155 156
f 131 156 154
f 133 157 158
f 133 158 159
f 133 159 160
f 133 160 134
f 133 137 161
f 133 161 157
f 134 160 162
f 139 163 164
f 139 164 165
f 139 165 166
f 139 166 167
f 139 167 140
f 140 167 168
f 140 168 142
f 140 142 141
f 142 168 169
f 142 169 146
f 143 170 171
f 143 171 144
f 143 145 172
f 143 172 170
f 144 171 173
f 144 173 174
f 144 174 175
f 144 175 147
f 145 146 169
f 145 169 172
f 147 175 148
f 148 175 176
f 148 176 149
f 149 176 177
f 149 177 178
f 149 178 150
f 150 178 179
f 150 179 180
f 150 180 151
f 151 180 181
f 151 181 152
f 152 181 182
f 152 182 153
f 153 182 183
f 153 183 155
f 154 156 185
f 154 185 186
f 154 186 184
f 155 183 185
f 155 185 156
f 157 187 158
f 157 161 187
f 158 187 188
f 158 188 159
f 159 188 189
f 159 189 190
f 159 190 160
f 160 190 191
f 160 191 192
f 160 192 193
f 160 193 162
f 161 194 187
f 164 195 165
f 165 195 166
f 166 195 196
f 166 196 197
f 166 197 198
f 166 198 199
f 166 199 200
f 166 200 201
f 166 201 167
f 167 201 168
f 168 201 172
f 168 172 169
f 170 202 171
f 170 172 202
f 171 202 203
f 171 203 204
f 171 204 205
f 171 205 173
f 172 201 200
f 172 200 199
f 172 199 206
f 172 206 207
f 172 207 202
f 173 205 208
f 173 208 174
f 174 208 175
f 175 208 209
f 175 209 176
f 176 209 177
f 177 209 178
f 178 209 210
f 178 210 179
f 179 210 211
f 179 211 212
f 179 212 213
f 179 213 214
f 179 214 180
f 180 214 183
f 180 183 181
f 181 183 182
f 183 214 215
f 183 215 185
f 184 186 216
f 185 215 186
f 186 215 217
f 186 217 216
f 187 218 219
f 187 219 220
f 187 220 221
f 187 221 222
f 187 222 223
f 187 223 224
f 187 224 225
f 187 225 189
f 187 189 188
f 187 194 218
f 189 225 190
f 190 225 226
f 190 226 227
f 190 227 228
f 190 228 229
f 190 229 191
f 191 229 228
f 191 228 230
f 191 230 231
f 191 231 232
f 191 232 233
f 191 233 192
f 194 216 217
f 194 217 234
f 194 234 235
f 194 235 218
f 196 236 197
f 197 236 237
f 197 237 198
f 198 238 239
f 198 239 199
f 198 237 238
f 199 239 240
f 199 240 241
f 199 241 206
f 202 207 242
f 202 242 203
f 203 242 243
f 203 243 244
f 203 244 245
f 203 245 221
f 203 221 246
f 203 246 204
f 204 246 205
f 205 246 208
f 206 241 207
f 207 241 242
f 208 246 247
f 208 247 248
f 208 248 209
f 209 248 249
f 209 249 211
f 209 211 210
f 211 249 250
f 211 250 212
f 212 250 251
f 212 251 214
f 212 214 213
f 214 251 252
f 214 252 215
f 215 252 217
f 217 252 234
f 218 235 253
f 218 253 254
f 218 254 219
f 219 254 255
f 219 255 256
f 219 256 220
f 220 256 246
f 220 246 221
f 221 245 226
f 221 226 222
f 222 226 224
f 222 224 223
f 224 226 225
f 226 245 257
f 226 257 227
f 227 257 228
f 228 231 230
f 228 257 258
f 228 258 259
f 228 259 231
f 231 259 260
f 234 261 235
f 234 252 262
f 234 262 250
f 234 250 261
f 235 261 253
f 238 263 239
f 239 263 264
f 239 264 240
f 240 264 265
f 240 265 266
f 240 266 267
f 240 267 268
f 240 268 269
f 240 269 270
f 240 270 242
f 240 242 241
f 242 270 243
f 243 270 269
f 243 269 244
f 244 269 257
f 244 257 245
f 246 256 247
f 247 256 255
f 247 255 248
f 248 255 249
f 249 255 250
f 250 262 251
f 250 255 253
f 250 253 261
f 251 262 252
f 253 255 254
f 257 269 258
f 258 269 268
f 258 268 260
f 258 260 259
f 260 268 271
f 260 271 272
f 263 273 264
f 264 273 274
f 264 274 265
f 265 274 266
f 266 272 268
f 266 268 267
f 268 272 271

