# https://github.com/mikedh/trimesh
v -6.45842466 0.57050879 4.15895958
v -6.45842466 0.57050879 4.24368835
v -6.45842466 0.60964872 4.15895958
v -6.34779191 0.57050879 4.15895958
v -6.45842466 0.60973546 4.24368835
v -6.36858791 0.57050879 4.24368835
v -6.38960182 0.62262898 4.15895958
v -6.34778114 0.61403672 4.15895958
v -6.34754149 0.57050879 4.16775089
v -6.38960182 0.62262898 4.24368835
v -6.34803156 0.57050879 4.23724421
v -6.34824925 0.57073839 4.24368835
v -6.34782464 0.62262898 4.15895958
v -6.34778114 0.61580211 4.15895958
v -6.34735632 0.61580211 4.17457678
v -6.34735632 0.57050879 4.17457678
v -6.34829274 0.62262898 4.24368835
v -6.34768317 0.57050879 4.22668630
v -6.34768317 0.61580211 4.22668630
v -6.34824925 0.61618478 4.24368835
v -6.34738905 0.62262898 4.17457678
v -6.34719310 0.62262898 4.19194379
v -6.34719310 0.57050879 4.19194379
v -6.34805330 0.62262898 4.23701181
v -6.34771569 0.62262898 4.22668630
f 1 2 5
f 1 5 3
f 1 3 7
f 1 7 13
f 1 13 14
f 1 14 8
f 1 8 4
f 1 4 9
f 1 9 16
f 1 16 23
f 1 23 18
f 1 18 11
f 1 11 6
f 1 6 2
f 2 6 12
f 2 12 20
f 2 20 17
f 2 17 10
f 2 10 5
f 3 5 7
f 4 8 9
f 5 10 7
f 6 11 12
f 7 10 17
f 7 17 24
f 7 24 25
f 7 25 22
f 7 22 21
f 7 21 13
f 8 14 9
f 9 15 16
f 9 14 15
f 11 18 19
f 11 19 20
f 11 20 12
f 13 21 14
f 14 21 15
f 15 21 22
f 15 22 23
f 15 23 16
f 17 20 24
f 18 23 22
f 18 22 19
f 19 25 24
f 19 24 20
f 19 22 25

