# https://github.com/mikedh/trimesh
v -5.27178043 0.42178314 1.41200700
v -5.35279707 0.42084102 1.41200700
v -5.27169883 0.42084102 1.42930789
v -5.25430302 0.42081218 1.42930789
v -5.25438463 0.42173509 1.41200700
v -5.35279707 0.41972590 1.42930789
v -5.35279707 0.40532506 1.41200700
v -5.27169883 0.41817814 1.44171678
v -5.25430302 0.41816851 1.44183609
v -5.35279707 0.41826467 1.43667567
v -5.35279707 0.41752445 1.44036704
v -5.23696170 0.41796661 1.44153037
v -5.21956610 0.41768787 1.44104564
v -5.20222478 0.41740908 1.44050126
v -5.23696170 0.42041807 1.42930789
v -5.23704351 0.42135056 1.41200700
v -5.35279707 0.35517221 1.46699694
v -5.14889424 0.39696146 1.41200700
v -5.07468339 0.35674876 1.41300629
v -5.07468339 0.32357307 1.43193286
v -5.27169883 0.41227553 1.45038962
v -5.25430302 0.41249664 1.45050893
v -5.23696170 0.41236205 1.45020316
v -5.35279707 0.41078545 1.44905474
v -5.27169883 0.40359466 1.46179178
v -5.21956610 0.41208326 1.44973334
v -5.18485632 0.41711107 1.43994942
v -5.21956610 0.41990853 1.42930789
v -5.18493792 0.41990853 1.41200700
v -5.20230639 0.42039880 1.41200700
v -5.35279707 0.35517221 1.48487204
v -5.14889424 0.32357307 1.46992764
v -5.14889424 0.41574595 1.41200700
v -5.07468339 0.40210459 1.41300629
v -5.07468339 0.32357307 1.47687039
v -5.25430302 0.40381577 1.46206767
v -5.23696170 0.40367156 1.46190363
v -5.21956610 0.40339277 1.46164265
v -5.20222478 0.40303708 1.46132942
v -5.35279707 0.40209496 1.45951731
v -5.27169883 0.39650003 1.47047948
v -5.25430302 0.39674035 1.47075542
v -5.18485632 0.40262370 1.46094908
v -5.20222478 0.41172757 1.44918896
v -5.18485632 0.41886068 1.42930789
v -5.20222478 0.41938942 1.42930789
v -5.18485632 0.41131420 1.44863712
v -5.16748786 0.41659191 1.43903961
v -5.16756946 0.41893757 1.41200700
v -5.14889424 0.32357307 1.48716887
v -5.27169883 0.35517221 1.48788476
v -5.35279707 0.36096898 1.48369379
v -5.15262377 0.41709181 1.41200700
v -5.07490108 0.39657693 1.42930789
v -5.07468339 0.39672114 1.42841299
v -5.09798667 0.40768993 1.41300629
v -5.09798667 0.40618065 1.42930789
v -5.08358552 0.40178737 1.42930789
v -5.08704289 0.40005693 1.44044906
v -5.07468339 0.33782001 1.47597550
v -5.08059087 0.33782001 1.47924180
v -5.08059087 0.32357307 1.48005462
v -5.21956610 0.39631735 1.47033035
v -5.23696170 0.39657693 1.47059138
v -5.20222478 0.39604818 1.47001717
v -5.18485632 0.39576939 1.46963683
v -5.35279707 0.39425047 1.46820501
v -5.35279707 0.38846323 1.47327596
v -5.35279707 0.38556961 1.47579654
v -5.27169883 0.38781917 1.47727305
v -5.25430302 0.38805949 1.47742223
v -5.23696170 0.38789606 1.47730293
v -5.16748786 0.40202769 1.46017354
v -5.15790511 0.41614011 1.43826407
v -5.16748786 0.41784166 1.42930789
v -5.16748786 0.41071819 1.44771991
v -5.15542786 0.41654385 1.42930789
v -5.09798667 0.32357307 1.48369379
v -5.14889424 0.32438055 1.48715396
v -5.25430302 0.35517221 1.48819053
v -5.27169883 0.37256273 1.48339548
v -5.35279707 0.37256273 1.48121800
v -5.07468339 0.38810754 1.44656403
v -5.07468339 0.39648077 1.42906922
v -5.09798667 0.40162395 1.44311878
v -5.09069082 0.38085912 1.47248551
v -5.08059087 0.38431027 1.45984540
v -5.07468339 0.38252220 1.45722048
v -5.08097199 0.39274119 1.44641485
v -5.09798667 0.39621161 1.45179156
v -5.07468339 0.34414568 1.47521488
v -5.09798667 0.35519137 1.48162811
v -5.09798667 0.33782001 1.48339548
v -5.07468339 0.34997135 1.47424542
v -5.08015528 0.35408583 1.47631110
v -5.18485632 0.38707889 1.47669884
v -5.21956610 0.38763648 1.47710900
v -5.20222478 0.38736732 1.47690768
v -5.16748786 0.38646367 1.47631855
v -5.16748786 0.39514454 1.46885379
v -5.25430302 0.37256273 1.48361177
v -5.23696170 0.37256273 1.48335074
v -5.15009206 0.40099905 1.45869698
v -5.13272359 0.39969166 1.45689234
v -5.12254204 0.39889375 1.45578120
v -5.11619897 0.40254681 1.44757072
v -5.14889424 0.33899287 1.48635605
v -5.21717047 0.35517221 1.48742990
v -5.23696170 0.35517221 1.48784747
v -5.18485632 0.37256273 1.48241116
v -5.09708816 0.37405281 1.47603515
v -5.08562718 0.36928463 1.47496130
v -5.08015528 0.37405281 1.46836165
v -5.07468339 0.37878256 1.46044198
v -5.15009206 0.39398131 1.46738474
v -5.10226054 0.38183003 1.47320885
v -5.11535513 0.37255310 1.47848117
v -5.13272359 0.37255310 1.47992785
v -5.14889424 0.37256273 1.48100916
v -5.15009206 0.37256273 1.48108373
v -5.11535513 0.35519137 1.48250809
v -5.07468339 0.35860411 1.47160553
v -5.16748786 0.37256273 1.48193388
v -5.15009206 0.38531008 1.47561758
v -5.07468339 0.36072872 1.47076288
v -5.07468339 0.37331253 1.46365608
f 1 2 3
f 1 3 4
f 1 4 5
f 1 5 16
f 1 16 30
f 1 30 29
f 1 29 49
f 1 49 53
f 1 53 33
f 1 33 18
f 1 18 7
f 1 7 2
f 2 6 3
f 2 7 17
f 2 17 31
f 2 31 52
f 2 52 82
f 2 82 69
f 2 69 68
f 2 68 67
f 2 67 40
f 2 40 24
f 2 24 11
f 2 11 10
f 2 10 6
f 3 8 9
f 3 9 4
f 3 6 10
f 3 10 11
f 3 11 8
f 4 9 12
f 4 12 13
f 4 13 14
f 4 14 15
f 4 15 16
f 4 16 5
f 7 18 19
f 7 19 20
f 7 20 17
f 8 11 21
f 8 21 22
f 8 22 9
f 9 22 23
f 9 23 12
f 11 24 25
f 11 25 21
f 12 23 26
f 12 26 13
f 13 26 14
f 14 26 27
f 14 27 15
f 15 27 28
f 15 28 29
f 15 29 30
f 15 30 16
f 17 20 32
f 17 32 50
f 17 50 31
f 18 33 34
f 18 34 19
f 19 34 55
f 19 55 84
f 19 84 83
f 19 83 88
f 19 88 114
f 19 114 126
f 19 126 125
f 19 125 122
f 19 122 94
f 19 94 91
f 19 91 60
f 19 60 35
f 19 35 20
f 20 35 62
f 20 62 78
f 20 78 50
f 20 50 32
f 21 25 36
f 21 36 22
f 22 36 37
f 22 37 23
f 23 37 38
f 23 38 39
f 23 39 26
f 24 40 41
f 24 41 25
f 25 42 36
f 25 41 42
f 26 39 43
f 26 43 44
f 26 44 27
f 27 45 46
f 27 46 28
f 27 44 47
f 27 47 48
f 27 48 45
f 28 46 29
f 29 46 45
f 29 45 49
f 31 50 51
f 31 51 52
f 33 53 34
f 34 54 55
f 34 53 56
f 34 56 57
f 34 57 58
f 34 58 59
f 34 59 54
f 35 60 61
f 35 61 62
f 36 42 37
f 37 63 38
f 37 42 64
f 37 64 63
f 38 63 65
f 38 65 66
f 38 66 39
f 39 66 43
f 40 67 41
f 41 67 68
f 41 68 69
f 41 69 70
f 41 70 42
f 42 70 71
f 42 71 72
f 42 72 64
f 43 47 44
f 43 66 73
f 43 73 47
f 45 48 74
f 45 74 75
f 45 75 49
f 47 73 76
f 47 76 48
f 48 76 74
f 49 75 77
f 49 77 53
f 50 78 79
f 50 79 80
f 50 80 51
f 51 80 81
f 51 81 82
f 51 82 52
f 53 77 56
f 54 83 84
f 54 84 55
f 54 59 83
f 56 77 57
f 57 85 59
f 57 59 58
f 57 77 74
f 57 74 85
f 59 86 87
f 59 87 88
f 59 88 89
f 59 89 83
f 59 85 90
f 59 90 86
f 60 91 61
f 61 92 93
f 61 93 62
f 61 91 94
f 61 94 95
f 61 95 92
f 62 93 78
f 63 96 65
f 63 64 96
f 64 72 97
f 64 97 98
f 64 98 96
f 65 96 66
f 66 96 99
f 66 99 100
f 66 100 73
f 69 82 70
f 70 81 71
f 70 82 81
f 71 101 72
f 71 81 101
f 72 102 97
f 72 101 102
f 73 100 103
f 73 103 76
f 74 77 75
f 74 76 103
f 74 103 104
f 74 104 105
f 74 105 106
f 74 106 85
f 78 93 79
f 79 93 107
f 79 107 108
f 79 108 109
f 79 109 80
f 80 109 110
f 80 110 102
f 80 102 101
f 80 101 81
f 83 89 88
f 85 106 105
f 85 105 90
f 86 111 112
f 86 112 113
f 86 113 114
f 86 114 88
f 86 88 87
f 86 90 105
f 86 105 104
f 86 104 103
f 86 103 115
f 86 115 100
f 86 100 116
f 86 116 117
f 86 117 111
f 92 117 118
f 92 118 119
f 92 119 120
f 92 120 121
f 92 121 107
f 92 107 93
f 92 95 112
f 92 112 111
f 92 111 117
f 94 122 95
f 95 122 112
f 96 110 123
f 96 123 99
f 96 98 110
f 97 102 98
f 98 102 110
f 99 123 120
f 99 120 119
f 99 119 118
f 99 118 124
f 99 124 100
f 100 124 116
f 100 115 103
f 107 121 108
f 108 123 110
f 108 110 109
f 108 121 123
f 112 122 125
f 112 125 113
f 113 125 126
f 113 126 114
f 116 124 118
f 116 118 117
f 120 123 121

