# https://github.com/mikedh/trimesh
v -3.61257872 0.03074268 3.65773190
v -3.53070993 0.03252459 3.61803832
v -3.52449720 0.03252459 3.61803832
v -3.53920156 0.03163364 3.64780853
v -3.61257872 0.03074268 3.66523747
v -3.61257872 0.04243667 3.65280879
v -3.53643431 0.04215819 3.61803832
v -3.52449720 0.03252459 3.61856815
v -3.52243532 0.04243667 3.61803832
v -3.55963033 0.03347117 3.66221776
v -3.56894490 0.03274726 3.66287622
v -3.58631703 0.03168925 3.66395142
v -3.60368917 0.03096534 3.66494946
v -3.52487702 0.03302574 3.62921698
v -3.52787938 0.04243667 3.64029778
v -3.53656998 0.04243667 3.65001547
v -3.61257872 0.04243667 3.66932720
v -3.61257872 0.05134636 3.65246931
v -3.61257872 0.05981062 3.65219145
v -3.54781076 0.59957363 3.61803832
v -3.52244438 0.04243667 3.61856815
v -3.52079850 0.05981062 3.61803832
v -3.52079850 0.05981062 3.61856815
v -3.54981837 0.04243667 3.65870426
v -3.55850897 0.04243667 3.66258821
v -3.56894490 0.04243667 3.66430125
v -3.58631703 0.04243667 3.66652870
v -3.60368917 0.04243667 3.66867910
v -3.52404504 0.04243667 3.63160910
v -3.52669472 0.05981062 3.64247904
v -3.53538531 0.05981062 3.65086428
v -3.54862466 0.05981062 3.65955307
v -3.61257872 0.05981062 3.67038697
v -3.61257872 0.59957363 3.65009263
v -3.52286037 0.59957363 3.61803832
v -3.52019260 0.07718457 3.61803832
v -3.52322210 0.05981062 3.63379025
v -3.52020163 0.07718457 3.61856815
v -3.55731524 0.05981062 3.66295348
v -3.56894490 0.05981062 3.66505748
v -3.60368917 0.05981062 3.66966161
v -3.52630586 0.07718457 3.64324033
v -3.53499643 0.07718457 3.65109574
v -3.54824484 0.07718457 3.65977935
v -3.61257872 0.07718457 3.67059275
v -3.61257872 0.59957363 3.66922436
v -3.52286037 0.59957363 3.61856815
v -3.52260716 0.59840419 3.61803832
v -3.52019260 0.56365624 3.61803832
v -3.52293271 0.07718457 3.63455165
v -3.52020163 0.56365624 3.61856815
v -3.55693544 0.07718457 3.66305114
v -3.56894490 0.07718457 3.66525808
v -3.60368917 0.07718457 3.66986739
v -3.52630586 0.56365624 3.64324033
v -3.53499643 0.56365624 3.65109574
v -3.54824484 0.56365624 3.65977935
v -3.61257872 0.56365624 3.67059275
v -3.60371630 0.59957363 3.66850418
v -3.61257872 0.59840419 3.66949705
v -3.52423495 0.59957363 3.63104322
v -3.52261620 0.59840419 3.61856815
v -3.52079850 0.58103024 3.61803832
v -3.52293271 0.56365624 3.63455165
v -3.52080753 0.58103024 3.61856815
v -3.52323113 0.58103024 3.63378000
v -3.55693544 0.56365624 3.66305114
v -3.56894490 0.56365624 3.66525808
v -3.60368917 0.56365624 3.66986739
v -3.52670375 0.58103024 3.64246868
v -3.53538531 0.58103024 3.65086428
v -3.54863370 0.58103024 3.65955307
v -3.55732430 0.58103024 3.66294830
v -3.61257872 0.58103024 3.67038179
v -3.60221512 0.59957363 3.66836012
v -3.60368917 0.59840419 3.66877169
v -3.52737295 0.59957363 3.63861559
v -3.52772564 0.59840419 3.64004571
v -3.52412644 0.59840419 3.63135702
v -3.56894490 0.58103024 3.66504712
v -3.60368917 0.58103024 3.66965653
v -3.53641624 0.59840419 3.65020582
v -3.55005351 0.59840419 3.65889451
v -3.55874408 0.59840419 3.66250587
v -3.58439083 0.59957363 3.66606060
v -3.58631703 0.59840419 3.66647216
v -3.56773310 0.59957363 3.66388969
v -3.52820493 0.59957363 3.63964968
v -3.53666042 0.59957363 3.64999486
v -3.56894490 0.59840419 3.66416745
v -3.54897735 0.59957363 3.65783992
v -3.55025245 0.59957363 3.65849848
v -3.55889782 0.59957363 3.66245440
f 1 2 3
f 1 3 4
f 1 4 5
f 1 5 17
f 1 17 33
f 1 33 45
f 1 45 58
f 1 58 74
f 1 74 60
f 1 60 46
f 1 46 34
f 1 34 19
f 1 19 18
f 1 18 6
f 1 6 2
f 2 6 7
f 2 7 20
f 2 20 35
f 2 35 48
f 2 48 63
f 2 63 49
f 2 49 36
f 2 36 22
f 2 22 9
f 2 9 3
f 3 8 4
f 3 9 8
f 4 10 11
f 4 11 12
f 4 12 13
f 4 13 5
f 4 8 14
f 4 14 15
f 4 15 16
f 4 16 10
f 5 13 17
f 6 18 7
f 7 18 19
f 7 19 20
f 8 9 21
f 8 21 14
f 9 22 23
f 9 23 21
f 10 16 24
f 10 24 25
f 10 25 26
f 10 26 27
f 10 27 28
f 10 28 11
f 11 28 12
f 12 28 17
f 12 17 13
f 14 21 29
f 14 29 15
f 15 29 30
f 15 30 16
f 16 30 31
f 16 31 32
f 16 32 24
f 17 28 33
f 19 34 20
f 20 34 46
f 20 46 59
f 20 59 75
f 20 75 85
f 20 85 87
f 20 87 93
f 20 93 92
f 20 92 91
f 20 91 89
f 20 89 88
f 20 88 77
f 20 77 61
f 20 61 47
f 20 47 35
f 21 23 29
f 22 36 23
f 23 37 29
f 23 36 38
f 23 38 37
f 24 32 25
f 25 32 39
f 25 39 40
f 25 40 26
f 26 41 27
f 26 40 41
f 27 41 28
f 28 41 33
f 29 37 30
f 30 37 42
f 30 42 31
f 31 42 43
f 31 43 32
f 32 43 44
f 32 44 39
f 33 41 54
f 33 54 45
f 35 47 48
f 36 49 51
f 36 51 38
f 37 38 50
f 37 50 42
f 38 51 64
f 38 64 50
f 39 44 52
f 39 52 53
f 39 53 40
f 40 53 54
f 40 54 41
f 42 50 64
f 42 64 55
f 42 55 56
f 42 56 43
f 43 56 57
f 43 57 44
f 44 57 67
f 44 67 52
f 45 54 69
f 45 69 58
f 46 60 59
f 47 61 62
f 47 62 48
f 48 62 65
f 48 65 63
f 49 63 65
f 49 65 51
f 51 65 66
f 51 66 64
f 52 67 68
f 52 68 53
f 53 68 69
f 53 69 54
f 55 64 66
f 55 66 70
f 55 70 71
f 55 71 56
f 56 71 72
f 56 72 57
f 57 72 73
f 57 73 67
f 58 69 81
f 58 81 74
f 59 60 76
f 59 76 75
f 60 74 81
f 60 81 76
f 61 77 78
f 61 78 79
f 61 79 62
f 62 79 65
f 65 79 66
f 66 79 70
f 67 73 68
f 68 73 80
f 68 80 81
f 68 81 69
f 70 79 78
f 70 78 82
f 70 82 71
f 71 82 72
f 72 82 83
f 72 83 84
f 72 84 73
f 73 84 80
f 75 76 85
f 76 86 87
f 76 87 85
f 76 81 86
f 77 88 78
f 78 88 89
f 78 89 82
f 80 84 90
f 80 90 86
f 80 86 81
f 82 89 83
f 83 89 91
f 83 91 92
f 83 92 93
f 83 93 84
f 84 93 90
f 86 90 87
f 87 90 93

