# https://github.com/mikedh/trimesh
v -3.77863863 2.36194633 -3.24995082
v -3.66087316 2.38063472 -3.15428321
v -3.77863863 2.36194633 -0.51064990
v -3.77863863 2.36211901 -3.27321243
v -3.66087316 2.38063472 -0.61581869
v -3.66087316 2.38144059 -3.24995082
v -3.66087316 2.38134465 -0.51064990
v -3.77863863 2.37555010 -0.40515361
v -3.77863863 2.40504093 -3.50812196
v -3.66087316 2.38445299 -3.26141775
v -3.66087316 2.41991106 -0.39696301
v -3.77863863 2.40761202 -0.22266463
v -3.77863863 2.50107319 -3.55005835
v -3.66087316 2.41423162 -3.35053269
v -3.66087316 2.42559049 -0.39008275
v -3.77863863 2.42229028 -0.21512921
v -3.77863863 2.52052908 -3.49829312
v -3.66087316 2.55569933 -3.31776982
v -3.66087316 2.50107319 -3.36462063
v -3.66087316 2.42735571 -3.35413661
v -3.66087316 2.48858228 -0.38123682
v -3.77863863 2.50063188 -0.20300694
v -3.77863863 2.55610226 -3.39902175
v -3.66087316 2.55587201 -3.30859630
v -3.66087316 2.48986782 -0.38123682
v -3.66087316 2.49537457 -0.38156441
v -3.66087316 2.55124789 -0.43562306
v -3.66087316 2.55510453 -0.44184799
v -3.77863863 2.55606389 -0.35109496
v -3.77863863 2.55717675 -3.24995082
v -3.75647116 2.55796343 -3.24995082
v -3.66087316 2.55614064 -3.25846916
v -3.66087316 2.55560340 -0.50016589
v -3.75647116 2.55796343 -0.51064990
v -3.77863863 2.55717675 -0.47133452
v -3.66087316 2.55614064 -3.25715866
f 1 2 5
f 1 5 3
f 1 3 8
f 1 8 12
f 1 12 16
f 1 16 22
f 1 22 29
f 1 29 35
f 1 35 30
f 1 30 23
f 1 23 17
f 1 17 13
f 1 13 9
f 1 9 4
f 1 4 2
f 2 4 6
f 2 6 10
f 2 10 14
f 2 14 20
f 2 20 19
f 2 19 18
f 2 18 24
f 2 24 32
f 2 32 36
f 2 36 33
f 2 33 28
f 2 28 27
f 2 27 26
f 2 26 25
f 2 25 21
f 2 21 15
f 2 15 11
f 2 11 7
f 2 7 5
f 3 5 7
f 3 7 8
f 4 9 6
f 6 9 10
f 7 11 12
f 7 12 8
f 9 13 14
f 9 14 10
f 11 15 12
f 12 15 16
f 13 17 18
f 13 18 19
f 13 19 20
f 13 20 14
f 15 21 22
f 15 22 16
f 17 23 18
f 18 23 24
f 21 25 22
f 22 25 26
f 22 26 27
f 22 27 28
f 22 28 29
f 23 30 31
f 23 31 24
f 24 31 32
f 28 33 34
f 28 34 29
f 29 34 35
f 30 35 34
f 30 34 31
f 31 34 36
f 31 36 32
f 33 36 34

