# https://github.com/mikedh/trimesh
v -3.17218528 2.49793818 -4.44465542
v -3.66086189 2.53766967 -4.44465542
v -3.17218528 2.38945974 -4.44465542
v -3.17218528 2.55381219 -4.98890034
v -3.66086189 2.38062672 -4.44465542
v -3.66086189 2.55547267 -4.94352194
v -3.17218528 2.38915161 -4.93634425
v -3.17218528 2.55381219 -4.99020535
v -3.66086189 2.55550690 -4.94547930
v -3.66086189 2.38062672 -4.51494765
v -3.66086189 2.38064383 -4.83093590
v -3.66086189 2.38100332 -4.84078265
v -3.66086189 2.38483780 -4.93640362
v -3.17218528 2.41864638 -5.03795631
v -3.66086189 2.55513030 -4.99471335
v -3.66086189 2.55550690 -4.94666558
v -3.17218528 2.50107083 -5.03908355
v -3.66086189 2.55494200 -5.00177232
v -3.66086189 2.41871485 -5.03789695
v -3.54572441 2.41866350 -5.03795631
v -3.44029730 2.41864638 -5.03795631
v -3.66086189 2.42706857 -5.04003270
v -3.66086189 2.50107083 -5.05065052
v -3.17218528 2.45622097 -5.03849025
f 1 2 5
f 1 5 3
f 1 3 7
f 1 7 14
f 1 14 24
f 1 24 17
f 1 17 8
f 1 8 4
f 1 4 2
f 2 4 6
f 2 6 9
f 2 9 16
f 2 16 15
f 2 15 18
f 2 18 23
f 2 23 22
f 2 22 19
f 2 19 13
f 2 13 12
f 2 12 11
f 2 11 10
f 2 10 5
f 3 5 7
f 4 8 16
f 4 16 9
f 4 9 6
f 5 10 7
f 7 10 11
f 7 11 12
f 7 12 13
f 7 13 14
f 8 15 16
f 8 17 18
f 8 18 15
f 13 19 20
f 13 20 21
f 13 21 14
f 14 21 22
f 14 22 23
f 14 23 24
f 17 24 23
f 17 23 18
f 19 22 20
f 20 22 21

