# https://github.com/mikedh/trimesh
v -3.17218525 2.38944564 -2.93426927
v -3.17218525 2.38805237 -2.87665726
v -3.17218525 2.49820571 -2.93426927
v -1.10992311 2.38944564 -2.93426927
v -3.12414116 2.38689698 -2.82861279
v -3.17218525 2.38567362 -2.72328625
v -1.10992311 2.38689698 -2.82861279
v -3.17218525 2.55539777 -2.67685019
v -3.12414116 2.55585654 -2.67948956
v -3.01856525 2.55585654 -2.68093292
v -3.12434304 2.49829066 -2.93426927
v -1.10992311 2.49834164 -2.93426927
v -2.91319128 2.38438230 -2.72328625
v -3.12414116 2.38533380 -2.72328625
v -3.17218525 2.40089765 -2.61787727
v -1.10992311 2.38494300 -2.72328625
v -1.22720717 2.38438230 -2.72328625
v -3.17218525 2.55719883 -2.61804216
v -3.12414116 2.55796343 -2.61787727
v -3.01856525 2.49835863 -2.93426927
v -1.22720717 2.55585654 -2.68093292
v -1.12183321 2.49835863 -2.93426927
v -1.12183321 2.55585654 -2.68089178
v -1.10992311 2.55585654 -2.68064428
v -3.17218525 2.41821158 -2.51300427
v -1.10992311 2.38689698 -2.71140913
v -3.17218525 2.55796343 -2.56987410
v -1.10992311 2.55796343 -2.61787727
v -3.17218525 2.55796343 -2.51300427
v -1.10992311 2.41250258 -2.60604145
v -1.10992311 2.43739454 -2.51300427
v -1.10992311 2.55796343 -2.51300427
f 1 2 6
f 1 6 15
f 1 15 25
f 1 25 29
f 1 29 27
f 1 27 18
f 1 18 8
f 1 8 3
f 1 3 11
f 1 11 20
f 1 20 22
f 1 22 12
f 1 12 4
f 1 4 2
f 2 5 6
f 2 4 7
f 2 7 5
f 3 8 9
f 3 9 10
f 3 10 11
f 4 12 24
f 4 24 28
f 4 28 32
f 4 32 31
f 4 31 30
f 4 30 26
f 4 26 16
f 4 16 7
f 5 13 14
f 5 14 6
f 5 7 17
f 5 17 13
f 6 14 15
f 7 16 17
f 8 18 19
f 8 19 9
f 9 19 10
f 10 20 11
f 10 19 28
f 10 28 21
f 10 21 22
f 10 22 20
f 12 22 23
f 12 23 24
f 13 15 14
f 13 17 15
f 15 17 25
f 16 26 17
f 17 26 25
f 18 27 19
f 19 27 29
f 19 29 32
f 19 32 28
f 21 28 23
f 21 23 22
f 23 28 24
f 25 26 30
f 25 30 31
f 25 31 32
f 25 32 29

