# https://github.com/mikedh/trimesh
v 0.21142721 2.50106848 3.07299404
v 0.19882849 2.55558604 3.07348935
v 0.21139989 2.50077548 3.07348935
v 0.20816800 2.42223252 3.07348935
v 0.20816800 2.42221159 2.29455003
v 0.21142721 2.50106848 2.29467378
v 0.19880116 2.55581624 2.29455003
v 0.19877384 2.55581624 3.07299404
v 0.18516189 2.55583717 3.07348935
v 0.14509271 2.36943106 3.07348935
v 0.14531194 2.36953570 3.07299404
v 0.18384715 2.40180675 2.29455003
v 0.20816800 2.42221159 1.80828569
v 0.21139989 2.50104755 1.80828569
v 0.19880116 2.55581624 1.80828569
v 0.13219279 2.54367798 3.07348935
v 0.18540844 2.55581624 1.80853318
v 0.09261672 2.34255946 3.07348935
v 0.11302098 2.35298162 2.29455003
v 0.14531194 2.36951478 2.29455003
v 0.14531194 2.36951478 1.80828569
v 0.18527150 2.55577439 1.80828569
v -0.04350309 2.47909403 3.07299404
v 0.03707340 2.50301478 3.07348935
v 0.13271322 2.54359426 1.80828569
v 0.03751155 2.34207811 3.07348935
v 0.03753887 2.34205719 2.29455003
v 0.09261672 2.34253852 2.29455003
v 0.09261672 2.34253852 1.80828569
v -0.04350309 2.44169561 3.07348935
v -0.06837170 2.45902403 1.80828569
v -0.06837170 2.45856361 2.29455003
v -0.04350309 2.34207811 3.07299404
v -0.06785127 2.34203624 2.29455003
v 0.03753887 2.34205719 1.80828569
v -0.06837170 2.45722422 2.29455003
v -0.06837170 2.34203624 2.29430222
v -0.06785127 2.34203624 1.80828569
v -0.06837170 2.34203624 1.80853318
f 1 2 3
f 1 3 4
f 1 4 5
f 1 5 13
f 1 13 6
f 1 6 15
f 1 15 7
f 1 7 2
f 2 8 9
f 2 9 16
f 2 16 24
f 2 24 30
f 2 30 26
f 2 26 18
f 2 18 10
f 2 10 4
f 2 4 3
f 2 7 8
f 4 10 11
f 4 11 12
f 4 12 5
f 5 12 13
f 6 13 14
f 6 14 15
f 7 15 9
f 7 9 8
f 9 15 17
f 9 17 16
f 10 18 11
f 11 18 19
f 11 19 20
f 11 20 12
f 12 20 21
f 12 21 13
f 13 21 29
f 13 29 35
f 13 35 38
f 13 38 31
f 13 31 25
f 13 25 22
f 13 22 15
f 13 15 14
f 15 22 17
f 16 23 24
f 16 17 25
f 16 25 23
f 17 22 25
f 18 26 27
f 18 27 28
f 18 28 19
f 19 28 29
f 19 29 21
f 19 21 20
f 23 30 24
f 23 25 31
f 23 31 32
f 23 32 30
f 26 30 33
f 26 33 34
f 26 34 27
f 27 34 38
f 27 38 35
f 27 35 29
f 27 29 28
f 30 32 36
f 30 36 37
f 30 37 33
f 31 38 39
f 31 39 37
f 31 37 36
f 31 36 32
f 33 37 34
f 34 37 39
f 34 39 38

