# https://github.com/mikedh/trimesh
v -0.69985085 2.48690783 -1.03372876
v -0.69985085 2.38943304 -1.03372876
v -0.69985085 2.49953513 -1.03387348
v -0.70030485 2.49946858 -1.03372876
v -0.80561835 2.38818529 -1.03372876
v -0.80565965 2.38800229 -2.51209751
v -0.69985085 2.38943304 -1.67928501
v -0.85460256 2.55576739 -1.03720187
v -0.85464370 2.55575075 -1.03372876
v -0.69985085 2.49953513 -1.66987884
v -0.91093201 2.39820062 -1.03372876
v -0.91097331 2.39612102 -2.51209751
v -0.70026355 2.38943304 -2.51209751
v -0.70009850 2.38943304 -2.40689253
v -0.69985085 2.49951849 -1.67928501
v -0.70009850 2.49886966 -2.40703716
v -0.91093201 2.55786362 -1.03720187
v -0.85460256 2.55576739 -2.40689253
v -0.91076696 2.55781371 -1.03372876
v -1.12143558 2.44125656 -1.03372876
v -1.10992201 2.43752992 -2.51209751
v -0.70063495 2.49893621 -2.51209751
v -1.01636958 2.55794680 -1.03372876
v -0.91427477 2.55786362 -1.03372876
v -0.91093201 2.55786362 -1.67928501
v -1.01636958 2.55796344 -1.67928501
v -0.85464370 2.55553447 -2.51209751
v -0.91138601 2.55773053 -2.51209751
v -0.91097331 2.55786362 -2.40689253
v -1.12143558 2.55794680 -1.03372876
v -1.12143558 2.44182221 -1.67928501
v -1.10992201 2.55796344 -2.51209751
v -1.01636958 2.55796344 -2.40689253
v -1.10992201 2.55796344 -1.67928501
v -1.01674098 2.55796344 -2.51209751
v -1.12143558 2.55794680 -1.67928501
f 1 2 7
f 1 7 15
f 1 15 10
f 1 10 3
f 1 3 4
f 1 4 9
f 1 9 19
f 1 19 24
f 1 24 23
f 1 23 30
f 1 30 20
f 1 20 11
f 1 11 5
f 1 5 2
f 2 5 6
f 2 6 7
f 3 8 9
f 3 9 4
f 3 10 18
f 3 18 8
f 5 11 12
f 5 12 6
f 6 12 21
f 6 21 32
f 6 32 35
f 6 35 28
f 6 28 27
f 6 27 22
f 6 22 13
f 6 13 14
f 6 14 7
f 7 14 16
f 7 16 15
f 8 17 9
f 8 18 25
f 8 25 17
f 9 17 19
f 10 15 16
f 10 16 18
f 11 20 12
f 12 20 21
f 13 22 16
f 13 16 14
f 16 22 18
f 17 23 24
f 17 24 19
f 17 25 33
f 17 33 26
f 17 26 23
f 18 22 27
f 18 27 28
f 18 28 29
f 18 29 25
f 20 30 36
f 20 36 31
f 20 31 21
f 21 31 36
f 21 36 32
f 23 26 34
f 23 34 30
f 25 29 33
f 26 33 35
f 26 35 32
f 26 32 34
f 28 35 29
f 29 35 33
f 30 34 32
f 30 32 36

