# https://github.com/mikedh/trimesh
v -0.27125221 2.50106923 1.51699142
v -0.27125221 2.40599317 1.52123811
v -0.27125221 2.55198336 1.53905151
v -0.06786163 2.50106923 1.51699142
v -0.06786163 2.40599317 1.52123811
v -0.27125221 2.35331760 1.59269118
v -0.27125221 2.55586273 1.54073310
v 0.03749522 2.55586273 1.54073310
v 0.14285175 2.55584176 1.54076168
v 0.03749522 2.50106923 1.51719086
v -0.02354577 2.35335954 1.59269118
v -0.06786163 2.35331760 1.59269118
v 0.03749522 2.40613996 1.52143770
v 0.03749522 2.35344342 1.59271976
v -0.02354577 2.34876721 1.61486529
v -0.27125221 2.34253924 1.64541876
v -0.27125221 2.55586273 1.55139269
v 0.14908814 2.55626116 1.59149406
v 0.19879017 2.55582080 1.59770737
v 0.19770345 2.55514976 1.54221525
v 0.14285175 2.50106923 1.52428783
v 0.14285175 2.42008473 1.52847751
v 0.13326097 2.37311288 1.60625790
v 0.09182712 2.34270700 1.64704334
v 0.03749522 2.34256021 1.64539033
v -0.02354577 2.34253924 1.64541876
v -0.27125221 2.34249730 1.64946600
v -0.27125221 2.45845905 1.80813336
v 0.18523067 2.55579982 1.80816194
v 0.19879017 2.55582080 1.80816194
v 0.21140460 2.50106923 1.70302024
v 0.20890075 2.50106923 1.59770737
v 0.20096330 2.50106923 1.53808242
v 0.20063257 2.43874765 1.53853846
v 0.20564059 2.42807414 1.59770737
v 0.14530849 2.36952708 1.70302024
v 0.03749522 2.34207791 1.70302024
v 0.09263022 2.34256021 1.70302024
v -0.02354577 2.34232954 1.66964507
v -0.27125221 2.34203597 1.70302024
v -0.27125221 2.34203597 1.80813336
v -0.02354577 2.47483629 1.80816194
v 0.13269406 2.54361650 1.80816194
v 0.21140460 2.50106923 1.80816194
v 0.20814475 2.42222363 1.70302024
v 0.14530849 2.36952708 1.80816194
v 0.03749522 2.34207791 1.80816194
v -0.02354577 2.34205694 1.70302024
v 0.09263022 2.34256021 1.80816194
v -0.02354577 2.34205694 1.80816194
v 0.20814475 2.42222363 1.80816194
f 1 2 6
f 1 6 16
f 1 16 27
f 1 27 40
f 1 40 41
f 1 41 28
f 1 28 17
f 1 17 7
f 1 7 3
f 1 3 4
f 1 4 5
f 1 5 2
f 2 5 12
f 2 12 6
f 3 7 8
f 3 8 4
f 4 8 9
f 4 9 10
f 4 10 5
f 5 11 12
f 5 10 13
f 5 13 14
f 5 14 11
f 6 12 15
f 6 15 16
f 7 17 18
f 7 18 8
f 8 18 9
f 9 18 19
f 9 19 20
f 9 20 10
f 10 20 21
f 10 21 13
f 11 15 12
f 11 14 15
f 13 21 22
f 13 22 14
f 14 22 23
f 14 23 24
f 14 24 25
f 14 25 15
f 15 25 26
f 15 26 16
f 16 26 27
f 17 28 29
f 17 29 30
f 17 30 18
f 18 30 19
f 19 30 44
f 19 44 31
f 19 31 20
f 20 31 32
f 20 32 33
f 20 33 21
f 21 33 34
f 21 34 22
f 22 34 23
f 23 34 35
f 23 35 36
f 23 36 24
f 24 37 25
f 24 36 38
f 24 38 37
f 25 37 39
f 25 39 26
f 26 39 27
f 27 39 40
f 28 41 50
f 28 50 42
f 28 42 43
f 28 43 29
f 29 43 42
f 29 42 50
f 29 50 47
f 29 47 49
f 29 49 46
f 29 46 51
f 29 51 44
f 29 44 30
f 31 44 51
f 31 51 45
f 31 45 32
f 32 45 35
f 32 35 34
f 32 34 33
f 35 45 36
f 36 45 51
f 36 51 46
f 36 46 49
f 36 49 38
f 37 38 49
f 37 49 47
f 37 47 50
f 37 50 48
f 37 48 39
f 39 48 40
f 40 48 50
f 40 50 41

