# https://github.com/mikedh/trimesh
v -6.38230605 2.39296254 -0.87671096
v -6.36056223 2.40799125 -0.61550556
v -6.38230605 2.41366365 -0.80501404
v -6.38230605 2.52834650 -0.87671096
v -6.33749519 2.37190561 -0.87671096
v -6.29012772 2.35528611 -0.61483908
v -6.36011121 2.40765635 -0.61483908
v -6.36059238 2.40855640 -0.61483908
v -6.36462235 2.50107296 -0.61483908
v -6.38230605 2.43919989 -0.80070762
v -6.38230605 2.51662495 -0.83713283
v -6.38218575 2.52981170 -0.87671096
v -6.33277330 2.37167536 -0.87671096
v -6.23599369 2.34268545 -0.77443328
v -6.29012772 2.35551636 -0.72088488
v -6.29012772 2.35528611 -0.61550556
v -6.23776825 2.34260172 -0.61483908
v -6.38230605 2.51593422 -0.83526158
v -6.34254750 2.55587123 -0.61483908
v -6.34254750 2.55587123 -0.72088488
v -6.34119412 2.55515956 -0.80037438
v -6.28083470 2.55135005 -0.87671096
v -6.28164691 2.36918453 -0.87671096
v -6.18041614 2.34253893 -0.77486905
v -6.18041614 2.34203657 -0.72088488
v -6.23743720 2.34253893 -0.72088488
v -6.23743720 2.34253893 -0.61550556
v -6.23707633 2.34251799 -0.61483908
v -6.33129963 2.55574564 -0.61483908
v -6.33160052 2.55587123 -0.61550556
v -6.31063845 2.55587123 -0.72088488
v -6.30591688 2.55515956 -0.80037438
v -6.23343738 2.55135005 -0.87671096
v -6.07506527 2.36924733 -0.87671096
v -6.07506527 2.34253893 -0.77486905
v -6.07506527 2.34205751 -0.72091051
v -6.07506527 2.34203657 -0.61555683
v -6.18041614 2.34203657 -0.61483908
v -6.07506527 2.46251741 -0.61483908
v -6.07506527 2.50996878 -0.72088488
v -6.07506527 2.55181055 -0.82626422
v -6.07506527 2.55103609 -0.87668533
v -6.12998136 2.55103609 -0.87671096
v -6.07506527 2.34203657 -0.61486471
v -6.17975437 2.34203657 -0.61483908
v -6.07506527 2.35045098 -0.61483908
f 1 2 3
f 1 3 10
f 1 10 18
f 1 18 11
f 1 11 4
f 1 4 12
f 1 12 22
f 1 22 33
f 1 33 43
f 1 43 34
f 1 34 23
f 1 23 13
f 1 13 5
f 1 5 6
f 1 6 7
f 1 7 2
f 2 8 3
f 2 7 8
f 3 8 9
f 3 9 10
f 4 11 12
f 5 13 14
f 5 14 15
f 5 15 16
f 5 16 6
f 6 16 17
f 6 17 28
f 6 28 38
f 6 38 45
f 6 45 46
f 6 46 39
f 6 39 29
f 6 29 19
f 6 19 9
f 6 9 8
f 6 8 7
f 9 12 11
f 9 11 18
f 9 18 10
f 9 19 12
f 12 19 20
f 12 20 21
f 12 21 22
f 13 23 14
f 14 24 25
f 14 25 26
f 14 26 15
f 14 23 24
f 15 26 16
f 16 26 17
f 17 26 27
f 17 27 28
f 19 29 30
f 19 30 31
f 19 31 20
f 20 31 32
f 20 32 21
f 21 32 33
f 21 33 22
f 23 34 35
f 23 35 24
f 24 35 25
f 25 28 26
f 25 35 36
f 25 36 37
f 25 37 44
f 25 44 45
f 25 45 38
f 25 38 28
f 26 28 27
f 29 39 40
f 29 40 41
f 29 41 30
f 30 41 31
f 31 41 32
f 32 41 42
f 32 42 33
f 33 42 43
f 34 43 42
f 34 42 41
f 34 41 40
f 34 40 39
f 34 39 46
f 34 46 44
f 34 44 37
f 34 37 36
f 34 36 35
f 44 46 45

