# https://github.com/mikedh/trimesh
v -1.55076916 2.55628966 0.11479622
v -1.54329734 2.55587023 0.06575729
v -1.60434209 2.55587023 0.12223468
v -1.60586695 2.55587023 0.23185109
v -1.59041512 2.55587023 0.23185109
v -1.12823370 2.55587023 0.07722336
v -1.12823370 2.55587023 0.06575729
v -1.43793044 2.50106956 0.04652635
v -1.54329734 2.50106956 0.04759674
v -1.60154661 2.55515717 0.06700914
v -1.12823370 2.50106956 0.04650822
v -1.64744450 2.50106956 0.23185109
v -1.12823370 2.49026882 0.23185109
v -1.12823370 2.53873584 0.12992699
v -1.12823370 2.55482161 0.08045266
v -1.43793044 2.41176943 0.05029996
v -1.54329734 2.41285999 0.05137042
v -1.61532094 2.42544338 0.05813753
v -1.61466027 2.50106956 0.05909901
v -1.63860030 2.50106956 0.12223468
v -1.12823370 2.41724321 0.05006416
v -1.64007444 2.40132522 0.23185109
v -1.12823370 2.34203648 0.23185109
v -1.43793044 2.35908698 0.11867873
v -1.54329734 2.36017753 0.11895088
v -1.12823370 2.41176943 0.05029996
v -1.59641296 2.34274954 0.17290636
v -1.62365680 2.39247490 0.13155981
v -1.63961698 2.39526422 0.23185109
v -1.12823370 2.34203648 0.22760573
v -1.43793044 2.34205746 0.23185109
v -1.43793044 2.34253981 0.17136430
v -1.54329734 2.34256080 0.17163645
v -1.12823370 2.35908698 0.11867873
v -1.12823370 2.34354648 0.16813492
v -1.54329734 2.34212038 0.22760573
v -1.59666705 2.34260273 0.22760573
v -1.59748036 2.34260273 0.23185109
v -1.59991999 2.34444830 0.23185109
v -1.12823370 2.34253981 0.17136430
v -1.43793044 2.34205746 0.22760573
v -1.54329734 2.34212038 0.23185109
f 1 2 3
f 1 3 4
f 1 4 5
f 1 5 6
f 1 6 7
f 1 7 2
f 2 8 9
f 2 9 10
f 2 10 3
f 2 7 11
f 2 11 8
f 3 12 4
f 3 10 12
f 4 12 22
f 4 22 29
f 4 29 39
f 4 39 38
f 4 38 42
f 4 42 31
f 4 31 23
f 4 23 13
f 4 13 5
f 5 13 14
f 5 14 15
f 5 15 6
f 6 15 14
f 6 14 13
f 6 13 23
f 6 23 30
f 6 30 40
f 6 40 35
f 6 35 34
f 6 34 26
f 6 26 21
f 6 21 11
f 6 11 7
f 8 16 9
f 8 11 16
f 9 17 18
f 9 18 19
f 9 19 10
f 9 16 17
f 10 19 20
f 10 20 12
f 11 21 16
f 12 20 22
f 16 24 25
f 16 25 17
f 16 21 26
f 16 26 34
f 16 34 24
f 17 25 18
f 18 27 28
f 18 28 20
f 18 20 19
f 18 25 27
f 20 28 29
f 20 29 22
f 23 31 41
f 23 41 30
f 24 32 33
f 24 33 25
f 24 34 35
f 24 35 32
f 25 33 27
f 27 36 37
f 27 37 38
f 27 38 39
f 27 39 29
f 27 29 28
f 27 33 36
f 30 41 32
f 30 32 40
f 31 42 36
f 31 36 41
f 32 41 33
f 32 35 40
f 33 41 36
f 36 38 37
f 36 42 38

