# https://github.com/mikedh/trimesh
v -5.96720017 2.40178232 3.41736201
v -5.96720017 2.34253190 3.75657747
v -5.96720017 2.50783187 3.41736201
v -5.01018582 2.40198728 3.41736201
v -5.01018582 2.34253190 3.75663652
v -5.96720017 2.34251481 3.75776030
v -5.96720017 2.51650850 3.70542313
v -5.23196505 2.51652558 3.70542313
v -5.01018582 2.50783187 3.41736201
v -5.01018582 2.34203657 3.81074794
v -5.96720017 2.34203657 3.81074794
v -5.96720017 2.45862447 4.02145629
v -5.01018582 2.51652558 3.70542313
v -5.01018582 2.34203657 4.02145629
v -5.96720017 2.34203657 4.02145629
v -5.01018582 2.45862447 4.02145629
f 1 2 6
f 1 6 11
f 1 11 15
f 1 15 12
f 1 12 7
f 1 7 3
f 1 3 9
f 1 9 4
f 1 4 5
f 1 5 2
f 2 5 6
f 3 7 8
f 3 8 13
f 3 13 9
f 4 9 13
f 4 13 16
f 4 16 14
f 4 14 10
f 4 10 5
f 5 10 6
f 6 10 11
f 7 12 8
f 8 12 16
f 8 16 13
f 10 14 15
f 10 15 11
f 12 15 14
f 12 14 16

