# https://github.com/mikedh/trimesh
v -2.25158637 2.38941404 -4.31560651
v -2.25158637 2.38941404 -4.30405211
v -2.25158637 2.49826526 -4.31560651
v -2.07023319 2.38766767 -4.31560651
v -2.07023319 2.38734552 -4.19868019
v -1.96474780 2.38607390 -4.09330858
v -2.25158637 2.38943099 -3.98793697
v -2.25158637 2.49880782 -3.98793697
v -2.02150268 2.55586145 -4.31560651
v -1.64858336 2.38475140 -4.09330858
v -1.75406882 2.38488705 -4.09330858
v -1.85940823 2.38512441 -4.09330858
v -0.76122208 2.43941439 -4.31560651
v -0.76122208 2.38475140 -4.09330858
v -2.17557268 2.38943099 -3.98774444
v -2.25158637 2.41993307 -3.98774444
v -1.85940823 2.38688774 -3.98774444
v -2.02018967 2.55516630 -4.23896105
v -2.02150268 2.55586145 -4.30405211
v -2.17571857 2.49885869 -3.98774444
v -1.85955412 2.51223619 -3.98774444
v -1.92447950 2.55516630 -4.14132432
v -2.01522907 2.55609883 -4.31560651
v -0.76122208 2.55794692 -4.31560651
v -0.76122208 2.38688774 -3.98774444
v -1.96474780 2.55796388 -4.30405211
v -1.96168395 2.55628533 -4.20176163
v -1.75421471 2.51406733 -3.98774444
v -1.85940823 2.55586145 -4.13776170
v -1.85940823 2.55794692 -4.19868019
v -1.96474780 2.55794692 -4.31560651
v -0.76122208 2.55794692 -4.19868019
v -0.76122208 2.51406733 -3.98774444
v -1.64858336 2.54111059 -4.08387234
v -1.75406882 2.54109364 -4.08387234
v -1.75406882 2.55586145 -4.13657416
v -0.76122208 2.55674312 -4.16270034
v -0.76122208 2.54111059 -4.08387234
v -0.76122208 2.55586145 -4.13657416
f 1 2 7
f 1 7 16
f 1 16 8
f 1 8 3
f 1 3 9
f 1 9 23
f 1 23 31
f 1 31 24
f 1 24 13
f 1 13 4
f 1 4 5
f 1 5 6
f 1 6 2
f 2 6 7
f 3 8 9
f 4 10 11
f 4 11 12
f 4 12 6
f 4 6 5
f 4 13 14
f 4 14 10
f 6 12 7
f 7 15 16
f 7 12 17
f 7 17 15
f 8 18 19
f 8 19 9
f 8 16 20
f 8 20 21
f 8 21 22
f 8 22 18
f 9 19 23
f 10 17 11
f 10 14 25
f 10 25 17
f 11 17 12
f 13 24 32
f 13 32 37
f 13 37 39
f 13 39 38
f 13 38 33
f 13 33 25
f 13 25 14
f 15 17 25
f 15 25 33
f 15 33 28
f 15 28 21
f 15 21 20
f 15 20 16
f 18 26 19
f 18 22 27
f 18 27 26
f 19 26 23
f 21 28 29
f 21 29 22
f 22 29 30
f 22 30 27
f 23 26 31
f 24 31 26
f 24 26 32
f 26 27 30
f 26 30 32
f 28 34 35
f 28 35 29
f 28 33 38
f 28 38 34
f 29 35 36
f 29 36 30
f 30 36 37
f 30 37 32
f 34 36 35
f 34 38 39
f 34 39 36
f 36 39 37

