# https://github.com/mikedh/trimesh
v -4.07641612 2.51581284 0.12010591
v -4.28338267 2.50783760 0.12010591
v -4.07641612 2.35415593 0.12010591
v -4.07641612 2.51567043 -4.40901761
v -4.28338267 2.50788507 -4.51612985
v -4.28338267 2.40075730 0.12010591
v -4.28338267 2.40123202 -4.51567601
v -4.07641612 2.35673522 -4.51612985
v -4.07641612 2.51505329 -4.51476831
v -4.07641612 2.51502164 -4.51612985
v -4.28338267 2.40460251 -4.51612985
f 1 2 6
f 1 6 3
f 1 3 8
f 1 8 10
f 1 10 9
f 1 9 4
f 1 4 5
f 1 5 2
f 2 5 11
f 2 11 7
f 2 7 6
f 3 6 7
f 3 7 8
f 4 9 5
f 5 9 10
f 5 10 8
f 5 8 11
f 7 11 8

