# https://github.com/mikedh/trimesh
v -3.17218530 2.47197415 3.27665913
v -3.17218530 2.39569815 3.27127233
v -3.17218530 2.47197415 3.07374784
v -3.31638659 2.47197415 3.30853237
v -3.33308111 2.38903338 3.30853237
v -3.17218530 2.34267253 3.23154299
v -3.41749162 2.34582684 3.30853237
v -3.33495690 2.47197415 3.07374784
v -3.17218530 2.46039984 1.01545458
v -3.59161174 2.47197415 3.30853237
v -3.17218530 2.34218920 3.17834586
v -3.41932052 2.34564878 3.30853237
v -3.45805556 2.34250719 3.30853237
v -3.54565492 2.34203657 3.30853237
v -3.43934456 2.47197415 3.08609310
v -3.65126185 2.46039984 1.01545458
v -3.17218530 2.34203657 1.01545458
v -3.65102739 2.45850470 3.30853237
v -3.59161174 2.47197415 3.28361759
v -3.17218530 2.34203657 3.07307445
v -3.65107427 2.34203657 3.30853237
v -3.54565492 2.47197415 3.17744822
v -3.65126185 2.34203657 1.01545458
v -3.65126185 2.45814857 2.33505170
v -3.65107427 2.45850470 3.28361759
v -3.54645213 2.47197415 3.17834586
v -3.65107427 2.43123511 3.30853237
v -3.65126185 2.34203657 2.33460288
f 1 2 6
f 1 6 11
f 1 11 20
f 1 20 17
f 1 17 9
f 1 9 3
f 1 3 8
f 1 8 15
f 1 15 22
f 1 22 26
f 1 26 19
f 1 19 10
f 1 10 4
f 1 4 5
f 1 5 2
f 2 5 7
f 2 7 6
f 3 9 16
f 3 16 8
f 4 10 18
f 4 18 27
f 4 27 21
f 4 21 14
f 4 14 13
f 4 13 12
f 4 12 7
f 4 7 5
f 6 7 12
f 6 12 13
f 6 13 14
f 6 14 11
f 8 16 15
f 9 17 23
f 9 23 16
f 10 19 16
f 10 16 18
f 11 14 20
f 14 21 28
f 14 28 23
f 14 23 17
f 14 17 20
f 15 16 22
f 16 23 28
f 16 28 24
f 16 24 25
f 16 25 18
f 16 19 26
f 16 26 22
f 18 25 27
f 21 27 24
f 21 24 28
f 24 27 25

