# https://github.com/mikedh/trimesh
v -3.17218525 2.34205238 1.07107201
v -3.17218525 2.34205238 1.28052279
v -3.17218525 2.45799636 1.07107201
v -0.80577099 2.34203596 1.07107201
v -3.17218525 2.45804562 1.28052279
v -0.80438024 2.34203596 1.07195364
v -0.80438024 2.34205238 1.28052279
v -2.80783624 2.50432798 1.28052279
v -2.70237897 2.50933547 1.28052279
v -2.59715349 2.50974593 1.28052279
v -2.80829975 2.45829189 1.07107201
v -0.80438024 2.34203596 1.07107201
v -0.80438024 2.45812771 1.28023572
v -0.80484383 2.45809487 1.28052279
v -2.49169630 2.50976235 1.28052279
v -2.59738528 2.45840681 1.07107201
v -2.70284255 2.45837398 1.07107201
v -0.80438024 2.45812771 1.07107201
v -1.33259354 2.50383544 1.28052279
v -1.64873349 2.50976235 1.28052279
v -2.28124533 2.45840681 1.07107201
v -1.43851447 2.45835756 1.07107201
v -1.54258108 2.50974593 1.28052279
v -1.43805089 2.50925339 1.28052279
v -1.54373988 2.45837398 1.07107201
f 1 2 5
f 1 5 3
f 1 3 11
f 1 11 17
f 1 17 16
f 1 16 21
f 1 21 25
f 1 25 22
f 1 22 18
f 1 18 12
f 1 12 4
f 1 4 2
f 2 4 6
f 2 6 7
f 2 7 14
f 2 14 19
f 2 19 24
f 2 24 23
f 2 23 20
f 2 20 15
f 2 15 10
f 2 10 9
f 2 9 8
f 2 8 5
f 3 5 8
f 3 8 9
f 3 9 10
f 3 10 11
f 4 12 6
f 6 12 18
f 6 18 13
f 6 13 7
f 7 13 14
f 10 15 16
f 10 16 17
f 10 17 11
f 13 18 19
f 13 19 14
f 15 20 21
f 15 21 16
f 18 22 23
f 18 23 24
f 18 24 19
f 20 23 25
f 20 25 21
f 22 25 23

