# https://github.com/mikedh/trimesh
v -4.89582836 2.34245627 -3.74572977
v -4.93739853 2.34578099 -3.74572977
v -4.89570398 2.34471457 -3.74572977
v -4.89570398 2.34247717 -3.74531267
v -4.89570398 2.34496550 -3.27222401
v -5.01118365 2.37930008 -3.74572977
v -4.91309354 2.34672195 -3.27222401
v -4.91817521 2.34726562 -3.27222401
v -4.92411165 2.34791383 -3.27222401
v -4.89570398 2.52703082 -3.74572977
v -4.89570398 2.52709355 -3.27222401
v -5.02725234 2.38927426 -3.74572977
v -5.00070953 2.40060760 -3.27222401
v -4.96322649 2.55580330 -3.74572977
v -4.96310212 2.55586603 -3.67170971
v -4.89570398 2.52709355 -3.67170971
v -4.96310212 2.55586603 -3.27222401
v -5.05444766 2.50108124 -3.74572977
v -5.00560479 2.48015010 -3.27222401
v -5.00240337 2.55607513 -3.74572977
v -4.97436882 2.55586603 -3.27222401
v -5.00663042 2.50108124 -3.27222401
f 1 2 6
f 1 6 12
f 1 12 18
f 1 18 20
f 1 20 14
f 1 14 10
f 1 10 3
f 1 3 4
f 1 4 5
f 1 5 2
f 2 5 7
f 2 7 8
f 2 8 9
f 2 9 6
f 3 10 16
f 3 16 11
f 3 11 5
f 3 5 4
f 5 11 17
f 5 17 21
f 5 21 22
f 5 22 19
f 5 19 13
f 5 13 9
f 5 9 8
f 5 8 7
f 6 9 12
f 9 13 12
f 10 14 15
f 10 15 16
f 11 16 15
f 11 15 17
f 12 13 18
f 13 19 18
f 14 20 15
f 15 20 17
f 17 20 21
f 18 19 22
f 18 22 21
f 18 21 20

