# https://github.com/mikedh/trimesh
v -4.88383141 2.34203657 1.01525985
v -4.88383141 2.34203657 1.07073328
v -4.88383141 2.47932469 1.01525985
v -4.12152488 2.34203657 1.01525985
v -4.88383141 2.34253188 1.12482428
v -4.12152488 2.34203657 1.07073328
v -4.12152488 2.34253188 1.12558812
v -4.88383141 2.48600293 1.03879518
v -4.17808597 2.47932469 1.01525985
v -4.12152488 2.47829990 1.01525985
v -4.88383141 2.40188449 1.38687684
v -4.12152488 2.40024482 1.38687684
v -4.88383141 2.49505527 1.07073328
v -4.17808597 2.49505527 1.07073328
v -4.12264418 2.47833406 1.01525985
v -4.12152488 2.49331312 1.07073328
v -4.88383141 2.50783102 1.38687684
v -4.12152488 2.50836050 1.38687684
v -4.88383141 2.51001725 1.14421265
v -4.28344784 2.51652469 1.17611446
v -4.17808597 2.51652469 1.17611446
v -4.12152488 2.51575609 1.17611446
v -4.88383141 2.51650761 1.17611446
f 1 2 5
f 1 5 11
f 1 11 17
f 1 17 23
f 1 23 19
f 1 19 13
f 1 13 8
f 1 8 3
f 1 3 9
f 1 9 15
f 1 15 10
f 1 10 4
f 1 4 6
f 1 6 2
f 2 6 7
f 2 7 5
f 3 8 9
f 4 10 16
f 4 16 22
f 4 22 18
f 4 18 12
f 4 12 7
f 4 7 6
f 5 7 12
f 5 12 11
f 8 13 14
f 8 14 9
f 9 14 15
f 10 15 14
f 10 14 16
f 11 12 18
f 11 18 17
f 13 19 20
f 13 20 21
f 13 21 14
f 14 21 22
f 14 22 16
f 17 18 23
f 18 22 21
f 18 21 20
f 18 20 23
f 19 23 20

