# https://github.com/mikedh/trimesh
v -6.77590053 2.50106940 4.01053695
v -6.77266016 2.42220304 4.01053695
v -6.77590053 2.50106940 4.12698431
v -6.76459205 2.55009613 4.01053695
v -6.77266016 2.42220304 4.12698431
v -6.70980159 2.36950664 4.01053695
v -6.77223018 2.50106940 4.23233047
v -6.76217802 2.55514978 4.28726353
v -6.76326914 2.55582082 4.23233047
v -6.76326914 2.55582082 4.01053695
v -6.76902279 2.43086345 4.23233047
v -6.70980159 2.36950664 4.12698431
v -6.65709411 2.34253985 4.01053695
v -6.76359987 2.44248057 4.28872275
v -6.76432728 2.50106940 4.28949538
v -6.70732161 2.50106940 4.29836503
v -6.60197324 2.50106940 4.30279985
v -6.70732161 2.55584178 4.28840804
v -6.71357087 2.55626118 4.23851033
v -6.74987767 2.55582082 4.01053695
v -6.65626745 2.34268662 4.18145974
v -6.69776538 2.38053661 4.22288858
v -6.65709411 2.34253985 4.12698431
v -6.60197324 2.34203657 4.01053695
v -6.70732161 2.42935365 4.29498866
v -6.60197324 2.41916246 4.29939521
v -6.60197324 2.55586275 4.28843693
v -6.43809780 2.50106940 4.30279985
v -6.43809780 2.53147520 4.29484607
v -6.43809780 2.55586275 4.28843693
v -6.43809780 2.55586275 4.27561898
v -6.43809780 2.54231644 4.22291747
v -6.70272535 2.54489569 4.01053695
v -6.60197324 2.34203657 4.12698431
v -6.60197324 2.34253985 4.18234671
v -6.60197324 2.36648704 4.23504853
v -6.43809780 2.34203657 4.01053695
v -6.49659158 2.36646606 4.23504853
v -6.43809780 2.41916246 4.29939521
v -6.43809780 2.45873194 4.01053695
v -6.69720349 2.54359558 4.01053695
v -6.43809780 2.34203657 4.12698431
v -6.43809780 2.34230918 4.15768382
v -6.43809780 2.34253985 4.18234671
v -6.43809780 2.35581355 4.21158732
v -6.43809780 2.36646606 4.23504853
f 1 2 5
f 1 5 3
f 1 3 4
f 1 4 10
f 1 10 20
f 1 20 33
f 1 33 41
f 1 41 40
f 1 40 37
f 1 37 24
f 1 24 13
f 1 13 6
f 1 6 2
f 2 6 12
f 2 12 5
f 3 5 7
f 3 7 8
f 3 8 9
f 3 9 4
f 4 9 10
f 5 11 7
f 5 12 11
f 6 13 23
f 6 23 12
f 7 11 14
f 7 14 15
f 7 15 8
f 8 15 16
f 8 16 17
f 8 17 18
f 8 18 9
f 9 18 19
f 9 19 10
f 10 19 20
f 11 12 21
f 11 21 22
f 11 22 14
f 12 23 21
f 13 24 34
f 13 34 23
f 14 22 25
f 14 25 16
f 14 16 15
f 16 25 26
f 16 26 17
f 17 27 18
f 17 26 39
f 17 39 28
f 17 28 29
f 17 29 27
f 18 27 19
f 19 27 30
f 19 30 31
f 19 31 20
f 20 31 32
f 20 32 33
f 21 23 34
f 21 34 35
f 21 35 36
f 21 36 25
f 21 25 22
f 24 37 42
f 24 42 34
f 25 36 26
f 26 36 38
f 26 38 46
f 26 46 39
f 27 29 30
f 28 39 46
f 28 46 45
f 28 45 44
f 28 44 43
f 28 43 42
f 28 42 37
f 28 37 40
f 28 40 32
f 28 32 31
f 28 31 30
f 28 30 29
f 32 40 41
f 32 41 33
f 34 42 43
f 34 43 35
f 35 43 44
f 35 44 45
f 35 45 38
f 35 38 36
f 38 45 46

