# https://github.com/mikedh/trimesh
v -2.59575057 2.49148726 -5.14660535
v -2.55704293 2.55575182 -5.14660535
v -2.59551878 2.48620456 -5.14660535
v -2.64998770 2.44838639 -5.09447171
v -2.64998770 2.44848513 -5.09447171
v -2.68419880 2.48268277 -5.05972620
v -2.68419880 2.49058213 -5.05895387
v -2.59533339 2.55461628 -5.03168255
v -2.53896389 2.55479731 -5.04178182
v -2.53405010 2.55575182 -5.14660535
v -2.68419880 2.54505478 -5.00768489
v -2.68419880 2.55397446 -4.99730766
v -2.68419880 2.55397446 -4.99625737
v -2.58647930 2.43785391 -5.14660535
v -2.68419880 2.42903297 -5.05898497
v -2.53349378 2.55568600 -5.14660535
v -2.59718765 2.55382635 -4.98896850
v -2.54424854 2.55380990 -4.98899959
v -2.21066713 2.49874479 -4.83111555
v -2.68419880 2.55382635 -4.98896850
v -2.49715031 2.40633877 -5.14660535
v -2.68419880 2.42330593 -5.05005910
v -2.21066713 2.49881062 -4.93643314
v -2.21066713 2.49887645 -5.04178182
v -2.21066713 2.49889291 -5.14660535
v -2.59718765 2.49877771 -4.83111555
v -2.21066713 2.38935515 -4.83111555
v -2.68419880 2.49877771 -4.83111555
v -2.49181934 2.40446267 -5.14660535
v -2.68419880 2.38907539 -4.93643314
v -2.21066713 2.38935515 -5.14660535
v -2.68419880 2.38943744 -4.83111555
v -2.49181934 2.38766008 -4.93643314
v -2.38645095 2.38766008 -5.04178182
v -2.38645095 2.38840065 -5.14660535
f 1 2 10
f 1 10 16
f 1 16 25
f 1 25 31
f 1 31 35
f 1 35 29
f 1 29 21
f 1 21 14
f 1 14 3
f 1 3 4
f 1 4 5
f 1 5 6
f 1 6 7
f 1 7 2
f 2 8 9
f 2 9 10
f 2 7 11
f 2 11 12
f 2 12 13
f 2 13 8
f 3 14 4
f 4 15 6
f 4 6 5
f 4 14 15
f 6 15 22
f 6 22 30
f 6 30 32
f 6 32 28
f 6 28 20
f 6 20 13
f 6 13 12
f 6 12 11
f 6 11 7
f 8 13 9
f 9 16 10
f 9 13 17
f 9 17 18
f 9 18 19
f 9 19 16
f 13 20 17
f 14 21 22
f 14 22 15
f 16 19 23
f 16 23 24
f 16 24 25
f 17 26 19
f 17 19 18
f 17 20 28
f 17 28 26
f 19 27 31
f 19 31 25
f 19 25 24
f 19 24 23
f 19 26 28
f 19 28 32
f 19 32 27
f 21 29 22
f 22 29 30
f 27 32 33
f 27 33 34
f 27 34 31
f 29 35 30
f 30 35 33
f 30 33 32
f 31 34 35
f 33 35 34

