# https://github.com/mikedh/trimesh
v -6.38225140 2.34212085 -4.50942580
v -6.38225140 2.34203657 -4.08448354
v -6.38225140 2.50159567 -4.50942580
v -6.37995484 2.34213770 -4.50942580
v -5.82376228 2.34203657 -3.98801486
v -6.38225140 2.34203657 -3.98775952
v -6.38225140 2.50267434 -4.30402792
v -6.28574346 2.51378129 -4.30402792
v -6.29115665 2.51153967 -4.50942580
v -6.33752409 2.34252535 -4.50942580
v -5.82376228 2.34254221 -4.04311815
v -5.82376228 2.34203657 -3.98775952
v -6.38225140 2.47304458 -3.98775952
v -6.38225140 2.49717986 -4.19872416
v -6.28574346 2.51389926 -4.19872416
v -6.28574346 2.51207901 -4.50942580
v -5.96969994 2.51421950 -4.09336951
v -5.82376228 2.51421950 -4.09336951
v -5.82376228 2.40185228 -4.50942580
v -5.82376228 2.49450003 -3.98775952
v -6.28596207 2.48425266 -3.98775952
v -6.28574346 2.50306199 -4.09336951
v -6.38225140 2.47454461 -3.99684964
v -6.18037720 2.51253407 -4.09336951
v -6.17966643 2.51255092 -4.09336951
v -6.07501124 2.51406781 -4.09336951
v -5.82376228 2.50781488 -4.50942580
v -6.07523016 2.49436520 -3.98775952
v -5.96986389 2.49450003 -3.98775952
v -6.18059611 2.49289888 -3.98775952
f 1 2 6
f 1 6 13
f 1 13 23
f 1 23 14
f 1 14 7
f 1 7 3
f 1 3 9
f 1 9 16
f 1 16 27
f 1 27 19
f 1 19 10
f 1 10 4
f 1 4 5
f 1 5 2
f 2 5 12
f 2 12 6
f 3 7 8
f 3 8 9
f 4 10 11
f 4 11 5
f 5 11 19
f 5 19 27
f 5 27 18
f 5 18 20
f 5 20 12
f 6 12 20
f 6 20 29
f 6 29 28
f 6 28 30
f 6 30 21
f 6 21 13
f 7 14 15
f 7 15 8
f 8 16 9
f 8 15 17
f 8 17 18
f 8 18 16
f 10 19 11
f 13 21 22
f 13 22 23
f 14 23 22
f 14 22 15
f 15 22 24
f 15 24 25
f 15 25 26
f 15 26 17
f 16 18 27
f 17 26 28
f 17 28 29
f 17 29 20
f 17 20 18
f 21 30 24
f 21 24 22
f 24 30 25
f 25 30 26
f 26 30 28

