# https://github.com/mikedh/trimesh
v -1.41426241 2.34447308 1.28054320
v -1.98341928 2.34555611 1.28056409
v -1.41426241 2.50802685 1.28054320
v -1.39058700 2.34383004 1.28054320
v -1.98341928 2.34635146 1.29162806
v -1.98341928 2.37170101 1.28056409
v -1.32429584 2.34245933 1.28054320
v -1.32240177 2.34244241 1.28054320
v -1.12182379 2.34205319 1.49380503
v -1.17656132 2.34254394 1.49380503
v -1.96476304 2.50973600 1.28056409
v -1.54239373 2.50973600 1.28056409
v -1.43803252 2.50922833 1.28056409
v -1.43708556 2.50919448 1.28056409
v -1.43803252 2.50949909 1.28150350
v -1.33262966 2.50383012 1.28054320
v -1.98341928 2.40112885 1.49178015
v -1.98341928 2.50978677 1.28073102
v -1.22817360 2.34205319 1.28054320
v -1.01736788 2.34203627 1.28054320
v -1.01651547 2.34203627 1.28152439
v -1.01651547 2.34205319 1.49380503
v -1.41426241 2.39793054 1.49380503
v -1.64864900 2.51000675 1.28150350
v -1.54334068 2.50998983 1.28150350
v -1.22722664 2.51488037 1.49223934
v -1.22722664 2.50885604 1.38690275
v -1.33262966 2.50408396 1.28152439
v -1.33158785 2.50372859 1.28054320
v -1.98341928 2.50784070 1.49178015
v -1.98341928 2.51000675 1.28150350
v -1.01651547 2.34203627 1.28054320
v -1.01604199 2.34203627 1.28152439
v -1.01604199 2.34205319 1.49223934
v -1.01604199 2.46133830 1.49380503
v -1.41426241 2.50865297 1.49380503
v -1.22722664 2.51491421 1.49380503
v -1.12182379 2.49186608 1.49223934
v -1.01604199 2.45810614 1.28054320
v -1.22627969 2.48893853 1.28054320
v -1.98341928 2.51110670 1.38688186
v -1.33262966 2.51146207 1.49380503
v -1.01604199 2.38999399 1.28054320
v -1.01604199 2.34203627 1.28056409
v -1.01604199 2.46355511 1.49186370
v -1.01651547 2.46358896 1.49380503
v -1.12182379 2.49189992 1.49380503
v -1.01803075 2.46401202 1.49380503
f 1 2 6
f 1 6 3
f 1 3 16
f 1 16 29
f 1 29 40
f 1 40 39
f 1 39 43
f 1 43 32
f 1 32 20
f 1 20 19
f 1 19 8
f 1 8 7
f 1 7 4
f 1 4 2
f 2 5 17
f 2 17 30
f 2 30 41
f 2 41 31
f 2 31 18
f 2 18 6
f 2 4 7
f 2 7 8
f 2 8 9
f 2 9 10
f 2 10 5
f 3 6 11
f 3 11 12
f 3 12 13
f 3 13 14
f 3 14 15
f 3 15 16
f 5 10 17
f 6 18 11
f 8 19 9
f 9 19 20
f 9 20 21
f 9 21 33
f 9 33 22
f 9 22 35
f 9 35 46
f 9 46 48
f 9 48 47
f 9 47 37
f 9 37 42
f 9 42 36
f 9 36 23
f 9 23 10
f 10 23 17
f 11 18 12
f 12 15 13
f 12 18 24
f 12 24 25
f 12 25 15
f 13 15 14
f 15 25 26
f 15 26 27
f 15 27 28
f 15 28 16
f 16 28 29
f 17 23 36
f 17 36 30
f 18 31 24
f 20 32 44
f 20 44 33
f 20 33 21
f 22 33 34
f 22 34 35
f 24 31 26
f 24 26 25
f 26 37 47
f 26 47 38
f 26 38 39
f 26 39 27
f 26 31 37
f 27 39 40
f 27 40 28
f 28 40 29
f 30 36 42
f 30 42 37
f 30 37 41
f 31 41 37
f 32 43 44
f 33 44 43
f 33 43 39
f 33 39 45
f 33 45 35
f 33 35 34
f 35 45 46
f 38 47 45
f 38 45 39
f 45 47 48
f 45 48 46

