# https://github.com/mikedh/trimesh
v -4.88395736 2.40188042 1.38696949
v -5.96883213 2.40164756 1.38845447
v -4.88395736 2.50782523 1.38696949
v -4.12170571 2.40023976 1.38696949
v -5.96883213 2.40182750 2.33508279
v -5.96883213 2.50782523 1.38845447
v -4.12170571 2.50837565 1.38696949
v -4.12170571 2.40057847 2.33508279
v -5.96883213 2.50783582 2.33508279
v -5.96883213 2.50783582 2.33443327
v -4.12170571 2.50837565 1.43587863
v -4.12170571 2.50832273 2.33508279
f 1 2 6
f 1 6 3
f 1 3 7
f 1 7 4
f 1 4 2
f 2 5 9
f 2 9 10
f 2 10 6
f 2 4 5
f 3 6 7
f 4 7 11
f 4 11 12
f 4 12 8
f 4 8 5
f 5 8 12
f 5 12 9
f 6 10 7
f 7 10 9
f 7 9 11
f 9 12 11

