# https://github.com/mikedh/trimesh
v -5.96905545 2.45866582 0.86080526
v -5.96969397 2.45866582 0.86080526
v -5.96905545 2.34203657 0.86080526
v -5.96905545 2.54151950 0.65772326
v -5.96969397 2.54143495 0.65800656
v -6.40390413 2.45860241 0.86080526
v -6.40390413 2.54143495 0.65800656
v -6.39117569 2.34203657 0.86080526
v -5.96905545 2.34203657 0.28227103
v -5.96905545 2.55587094 0.60496962
v -5.96969397 2.55587094 0.60536630
v -6.40390413 2.55587094 0.60536630
v -6.40390413 2.44524436 0.86080526
v -6.40390413 2.34203657 0.86063534
v -5.96965157 2.34203657 0.28193104
v -5.96905545 2.34355838 0.28193104
v -5.96905545 2.55794228 0.54348971
v -5.96969397 2.55796342 0.54382970
v -6.28573059 2.55796342 0.54382970
v -6.40390413 2.55620912 0.56269858
v -6.40390413 2.34203657 0.75450460
v -6.18041363 2.34203657 0.28193104
v -5.96905545 2.46521802 0.28193104
v -5.96905545 2.55563845 0.48705284
v -5.96969397 2.55587094 0.48739283
v -6.33157822 2.55584980 0.28193104
v -6.40390413 2.55620912 0.56031879
v -6.34251860 2.55584980 0.28193104
v -6.40390413 2.34252270 0.69886094
v -6.23741428 2.34254384 0.28193104
v -6.40390413 2.50057879 0.53136367
v -6.35324603 2.52930281 0.28193104
v -6.36461230 2.50106492 0.28193104
v -6.40390413 2.35780414 0.64622068
v -6.36056820 2.40800248 0.28193104
v -6.29011547 2.35528894 0.28193104
v -6.40390413 2.40347934 0.55079931
f 1 2 6
f 1 6 13
f 1 13 8
f 1 8 3
f 1 3 9
f 1 9 16
f 1 16 23
f 1 23 24
f 1 24 17
f 1 17 10
f 1 10 4
f 1 4 5
f 1 5 7
f 1 7 2
f 2 7 6
f 3 8 14
f 3 14 21
f 3 21 22
f 3 22 15
f 3 15 9
f 4 10 11
f 4 11 12
f 4 12 7
f 4 7 5
f 6 7 12
f 6 12 20
f 6 20 27
f 6 27 31
f 6 31 37
f 6 37 34
f 6 34 29
f 6 29 21
f 6 21 14
f 6 14 13
f 8 13 14
f 9 15 16
f 10 17 18
f 10 18 11
f 11 18 19
f 11 19 12
f 12 19 20
f 15 22 30
f 15 30 36
f 15 36 35
f 15 35 33
f 15 33 32
f 15 32 28
f 15 28 26
f 15 26 23
f 15 23 16
f 17 24 25
f 17 25 26
f 17 26 18
f 18 26 28
f 18 28 19
f 19 27 20
f 19 28 27
f 21 29 30
f 21 30 22
f 23 26 24
f 24 26 25
f 27 28 32
f 27 32 33
f 27 33 31
f 29 34 35
f 29 35 36
f 29 36 30
f 31 33 37
f 33 35 37
f 34 37 35

