# https://github.com/mikedh/trimesh
v -0.47255541 2.49163534 1.06122574
v -0.48515948 2.50107824 1.28054320
v -0.47255541 2.41381000 1.05374653
v -0.47255541 2.55591400 0.95214640
v -0.53118928 2.55541151 1.28054320
v -0.49509951 2.39666204 1.28054320
v -0.49519687 2.39569891 1.28054320
v -0.47255541 2.34871476 0.88362292
v -0.47255541 2.55591400 0.94877553
v -0.49555430 2.55593495 0.96020493
v -0.54444286 2.55541151 1.28054320
v -0.54122699 2.34253814 1.28054320
v -0.47255541 2.34245440 0.84175029
v -0.47255541 2.55568370 0.90569149
v -0.48947966 2.55564181 0.90579687
v -0.54457258 2.55541151 0.96536654
v -0.54457258 2.55541151 1.17609876
v -0.80434774 2.45870038 0.74252022
v -0.80434774 2.45811412 1.28022708
v -0.70020387 2.46540043 1.28054320
v -0.59485818 2.34203563 1.28054320
v -0.47255541 2.34205658 0.75458155
v -0.47255541 2.55291993 0.89721162
v -0.54376068 2.55486713 0.90864103
v -0.47255541 2.53845199 0.85296894
v -0.48947966 2.53841012 0.85312692
v -0.47255541 2.49063033 0.74252022
v -0.80434774 2.35399106 0.74252022
v -0.80434774 2.34205658 1.28054320
v -0.59580010 2.34203563 1.28054320
v -0.59485818 2.34203563 0.96536654
v -0.47255541 2.34205658 0.74252022
v -0.47255541 2.53252662 0.83727338
v -0.71228798 2.34205658 0.74252022
v -0.80434774 2.34205658 0.74262559
f 1 2 3
f 1 3 8
f 1 8 13
f 1 13 22
f 1 22 32
f 1 32 27
f 1 27 33
f 1 33 25
f 1 25 23
f 1 23 14
f 1 14 9
f 1 9 4
f 1 4 2
f 2 5 11
f 2 11 20
f 2 20 29
f 2 29 30
f 2 30 21
f 2 21 12
f 2 12 7
f 2 7 6
f 2 6 3
f 2 4 5
f 3 6 7
f 3 7 8
f 4 9 10
f 4 10 5
f 5 10 11
f 7 12 8
f 8 12 13
f 9 14 10
f 10 14 15
f 10 15 16
f 10 16 17
f 10 17 11
f 11 17 18
f 11 18 19
f 11 19 20
f 12 21 22
f 12 22 13
f 14 23 15
f 15 24 16
f 15 23 25
f 15 25 26
f 15 26 24
f 16 24 18
f 16 18 17
f 18 24 26
f 18 26 27
f 18 27 32
f 18 32 34
f 18 34 28
f 18 28 35
f 18 35 29
f 18 29 19
f 19 29 20
f 21 30 31
f 21 31 32
f 21 32 22
f 25 33 26
f 26 33 27
f 28 34 35
f 29 35 30
f 30 35 31
f 31 35 34
f 31 34 32

