# https://github.com/mikedh/trimesh
v -5.82370763 2.46208527 -0.61483908
v -6.07501595 2.46251651 -0.61483908
v -5.82370763 2.34203528 -0.61483908
v -5.82370763 2.50976848 -0.72088488
v -6.07506527 2.46251651 -0.61483908
v -6.07501595 2.50995330 -0.72088488
v -5.82370763 2.34205581 -0.72088488
v -6.07501595 2.34205581 -0.61483908
v -6.07506527 2.34205581 -0.61486471
v -6.07506527 2.34205581 -0.72091051
v -5.82370763 2.55182500 -0.82626422
v -6.07506527 2.35043425 -0.61483908
v -6.07506527 2.50995330 -0.72088488
v -5.82370763 2.34234331 -0.75410591
v -6.07506527 2.34252813 -0.77486905
v -5.82370763 2.55104465 -0.87671096
v -6.07501595 2.55182500 -0.82626422
v -6.07506527 2.55180445 -0.82626422
v -5.82370763 2.34252813 -0.77486905
v -6.07506527 2.36924469 -0.87671096
v -5.82370763 2.36924469 -0.87671096
v -6.07501595 2.55104465 -0.87671096
v -6.07506527 2.55104465 -0.87668533
f 1 2 5
f 1 5 12
f 1 12 8
f 1 8 3
f 1 3 7
f 1 7 14
f 1 14 19
f 1 19 21
f 1 21 16
f 1 16 11
f 1 11 4
f 1 4 2
f 2 4 6
f 2 6 13
f 2 13 5
f 3 8 9
f 3 9 10
f 3 10 7
f 4 11 6
f 5 13 18
f 5 18 23
f 5 23 20
f 5 20 15
f 5 15 10
f 5 10 9
f 5 9 12
f 6 11 17
f 6 17 13
f 7 10 14
f 8 12 9
f 10 15 14
f 11 16 22
f 11 22 17
f 13 17 18
f 14 15 19
f 15 20 21
f 15 21 19
f 16 21 20
f 16 20 22
f 17 22 23
f 17 23 18
f 20 23 22

