# https://github.com/mikedh/trimesh
v -3.65111784 2.45851009 3.46102332
v -3.65111784 2.34203657 3.46102332
v -3.65111784 2.45851009 3.28378280
v -3.86188473 2.50089468 3.38915723
v -3.86188473 2.50087786 3.46102332
v -3.86188473 2.34203657 3.46102332
v -3.65111784 2.34203657 2.33541352
v -3.65111784 2.45814007 2.33519304
v -3.86188473 2.50089468 2.33519304
v -3.93373708 2.50975844 3.46102332
v -3.91552621 2.34252432 3.46102332
v -3.86188473 2.34203657 2.33519304
v -3.75650127 2.34203657 2.33519304
v -3.96722686 2.51379507 2.33519304
v -3.96722686 2.51386234 3.46102332
v -4.07261032 2.39900347 3.46102332
v -4.07294065 2.39902029 3.46080284
v -3.91552621 2.34252432 2.33519304
v -4.07294065 2.50873247 2.33519304
v -4.07261032 2.50879974 3.46102332
v -4.07294065 2.50770649 3.46102332
v -4.07294065 2.39933986 2.33541352
v -4.07261032 2.39932304 2.33519304
v -4.07294065 2.50878292 3.46102332
f 1 2 7
f 1 7 8
f 1 8 3
f 1 3 9
f 1 9 4
f 1 4 5
f 1 5 10
f 1 10 15
f 1 15 20
f 1 20 24
f 1 24 21
f 1 21 16
f 1 16 11
f 1 11 6
f 1 6 2
f 2 6 12
f 2 12 13
f 2 13 7
f 3 8 9
f 4 10 5
f 4 9 10
f 6 11 18
f 6 18 12
f 7 13 8
f 8 13 12
f 8 12 18
f 8 18 23
f 8 23 19
f 8 19 14
f 8 14 9
f 9 14 15
f 9 15 10
f 11 16 17
f 11 17 18
f 14 19 15
f 15 19 20
f 16 21 17
f 17 21 24
f 17 24 19
f 17 19 22
f 17 22 18
f 18 22 23
f 19 24 20
f 19 23 22

