# https://github.com/mikedh/trimesh
v -4.07298196 2.50879917 3.46102332
v -5.01009222 2.50784265 3.46102332
v -4.07298196 2.50770294 3.46102332
v -4.07298196 2.50873469 2.33519304
v -5.01009222 2.50784265 2.33541352
v -5.01009222 2.40191667 3.46102332
v -4.10618815 2.39986393 3.46102332
v -4.07298196 2.39900414 3.46080284
v -4.07298196 2.39933731 2.33541352
v -4.17810418 2.40203490 2.33519304
v -4.91570245 2.50784265 2.33519304
v -5.01009222 2.49675138 2.33519304
v -5.01009222 2.40204564 2.33519304
f 1 2 6
f 1 6 7
f 1 7 3
f 1 3 8
f 1 8 9
f 1 9 4
f 1 4 5
f 1 5 2
f 2 5 12
f 2 12 13
f 2 13 6
f 3 7 8
f 4 9 10
f 4 10 13
f 4 13 12
f 4 12 11
f 4 11 5
f 5 11 12
f 6 8 7
f 6 13 8
f 8 13 9
f 9 13 10

