# https://github.com/mikedh/trimesh
v -2.70208931 2.50241690 2.55368745
v -2.70208931 2.50858538 2.55368745
v -2.69483554 2.39799213 2.55368745
v -2.70208931 2.39785692 2.55401158
v -2.70208931 2.51328357 2.65116872
v -1.23465905 2.51468626 2.55368745
v -1.18035338 2.34252649 2.55368745
v -2.70208931 2.34252649 2.70353699
v -2.70208931 2.50216340 2.75655383
v -2.59700681 2.50229860 2.75695900
v -1.43796232 2.51335116 2.65157388
v -1.33268384 2.51318217 2.65157388
v -0.69924797 2.45813904 2.96772954
v -1.22720921 2.51414546 2.55368745
v -1.12193057 2.34205330 2.55368745
v -2.70208931 2.34205330 2.75695900
v -2.70208931 2.45837563 2.96724303
v -2.59720288 2.45832494 2.96772954
v -1.75222972 2.50231550 2.75695900
v -1.54343695 2.50231550 2.75695900
v -1.43796232 2.50202820 2.75695900
v -0.69924797 2.34205330 2.96772954
v -0.69924797 2.45813904 2.96667548
v -1.43796232 2.45834184 2.96772954
v -0.69924797 2.45795314 2.55368745
v -0.70042420 2.34203640 2.55368745
v -2.70208931 2.34205330 2.96768871
v -2.59700681 2.34205330 2.96772954
v -1.64891157 2.45834184 2.96772954
v -0.69944395 2.34203640 2.55368745
v -0.69924797 2.34205330 2.65157388
v -0.69924797 2.34930337 2.55368745
f 1 2 6
f 1 6 14
f 1 14 25
f 1 25 32
f 1 32 30
f 1 30 26
f 1 26 15
f 1 15 7
f 1 7 3
f 1 3 4
f 1 4 8
f 1 8 16
f 1 16 27
f 1 27 17
f 1 17 9
f 1 9 5
f 1 5 2
f 2 5 6
f 3 7 4
f 4 7 8
f 5 9 10
f 5 10 11
f 5 11 6
f 6 11 12
f 6 12 13
f 6 13 14
f 7 15 8
f 8 15 16
f 9 17 10
f 10 17 18
f 10 18 19
f 10 19 11
f 11 19 20
f 11 20 12
f 12 20 21
f 12 21 13
f 13 22 31
f 13 31 32
f 13 32 25
f 13 25 23
f 13 23 14
f 13 21 20
f 13 20 24
f 13 24 29
f 13 29 18
f 13 18 28
f 13 28 22
f 14 23 25
f 15 26 16
f 16 26 27
f 17 27 18
f 18 27 28
f 18 29 19
f 19 29 24
f 19 24 20
f 22 28 26
f 22 26 30
f 22 30 31
f 26 28 27
f 30 32 31

