# https://github.com/mikedh/trimesh
v -3.33494377 2.47198240 3.07379338
v -3.33494377 2.55586875 3.22744455
v -3.17218526 2.47198240 3.07379338
v -3.43935721 2.47198240 3.08615529
v -3.39115377 2.55516723 3.22868517
v -3.17218526 2.55586875 3.22744455
v -3.39291930 2.55586875 3.28385441
v -3.34225230 2.55628967 3.27654763
v -3.17218526 2.47198240 3.27675430
v -3.54570042 2.47198240 3.17756003
v -3.54648056 2.47198240 3.17847935
v -3.59160457 2.47198240 3.28385441
v -3.17218526 2.55586875 3.23913998
v -3.39291930 2.55586875 3.30853237
v -3.59164564 2.47198240 3.29460791
v -3.35662301 2.55616588 3.30853237
v -3.35329722 2.55616588 3.30853237
v -3.17218526 2.50109172 3.27882221
v -3.31634398 2.47198240 3.30853237
v -3.17218526 2.53089432 3.25752219
v -3.59160457 2.47198240 3.30853237
v -3.31010298 2.50109172 3.30853237
f 1 2 6
f 1 6 3
f 1 3 9
f 1 9 19
f 1 19 21
f 1 21 15
f 1 15 12
f 1 12 11
f 1 11 10
f 1 10 4
f 1 4 5
f 1 5 2
f 2 5 7
f 2 7 8
f 2 8 6
f 3 6 13
f 3 13 20
f 3 20 18
f 3 18 9
f 4 10 5
f 5 10 11
f 5 11 12
f 5 12 7
f 6 8 13
f 7 14 8
f 7 12 15
f 7 15 14
f 8 14 16
f 8 16 17
f 8 17 13
f 9 18 19
f 13 17 20
f 14 15 21
f 14 21 19
f 14 19 22
f 14 22 17
f 14 17 16
f 17 22 18
f 17 18 20
f 18 22 19

