# https://github.com/mikedh/trimesh
v -5.37489460 2.45820960 -1.24771345
v -5.82370763 2.45796969 -1.24771345
v -5.37489460 2.34203657 -1.24771345
v -5.37489460 2.45874654 -2.83111947
v -5.82370763 2.34203657 -1.24771345
v -5.65096553 2.45840381 -2.83111947
v -5.82370763 2.45796969 -1.28847659
v -5.37489460 2.34203657 -2.83111947
v -5.82370763 2.34203657 -2.83111947
v -5.82370763 2.45795827 -2.83111947
f 1 2 5
f 1 5 3
f 1 3 8
f 1 8 4
f 1 4 2
f 2 4 6
f 2 6 7
f 2 7 10
f 2 10 9
f 2 9 5
f 3 5 9
f 3 9 8
f 4 8 9
f 4 9 10
f 4 10 6
f 6 10 7

