# https://github.com/mikedh/trimesh
v -5.04373829 2.50073597 -3.16978624
v -5.04373829 2.50132672 -3.16938861
v -5.04373829 2.38887420 -3.14669470
v -5.37489460 2.39845271 -3.13663438
v -5.37489460 2.43045842 -3.13939515
v -5.37489460 2.50016633 -3.14412112
v -5.04373829 2.55616052 -3.12715919
v -5.04373829 2.34802841 -3.03942494
v -5.17746511 2.34290159 -3.09225256
v -5.23189595 2.34285939 -3.09234615
v -5.37489460 2.34285939 -3.09234615
v -5.37489460 2.36347216 -3.11171787
v -5.37489460 2.55586514 -3.10060491
v -5.04373829 2.55757408 -3.04139015
v -5.04373829 2.34762755 -2.93405020
v -5.17328313 2.34269061 -3.03942494
v -5.23189595 2.34237413 -3.03942494
v -5.37489460 2.34254291 -3.05830529
v -5.37489460 2.55586514 -3.08822855
v -5.04373829 2.55713103 -2.93079805
v -5.04373829 2.34762755 -2.93079805
v -5.16997633 2.34252183 -2.93405020
v -5.23189595 2.34203657 -2.93405020
v -5.37489460 2.34237413 -3.03942494
v -5.37489460 2.47257010 -2.93079805
v -5.07923665 2.55586514 -2.93079805
v -5.16997633 2.34252183 -2.93079805
v -5.37489460 2.34203657 -2.93405020
v -5.23189595 2.34203657 -2.93079805
v -5.37489460 2.34203657 -2.93079805
f 1 2 7
f 1 7 14
f 1 14 20
f 1 20 21
f 1 21 15
f 1 15 8
f 1 8 3
f 1 3 4
f 1 4 5
f 1 5 6
f 1 6 2
f 2 6 7
f 3 8 9
f 3 9 10
f 3 10 11
f 3 11 12
f 3 12 4
f 4 12 11
f 4 11 18
f 4 18 24
f 4 24 28
f 4 28 30
f 4 30 25
f 4 25 19
f 4 19 13
f 4 13 6
f 4 6 5
f 6 13 7
f 7 13 14
f 8 15 16
f 8 16 9
f 9 16 17
f 9 17 10
f 10 17 18
f 10 18 11
f 13 19 14
f 14 19 20
f 15 21 27
f 15 27 22
f 15 22 16
f 16 22 23
f 16 23 17
f 17 23 28
f 17 28 24
f 17 24 18
f 19 25 26
f 19 26 20
f 20 26 25
f 20 25 30
f 20 30 29
f 20 29 27
f 20 27 21
f 22 27 29
f 22 29 23
f 23 29 30
f 23 30 28

