# https://github.com/mikedh/trimesh
v -5.37489460 2.46233222 -0.61556217
v -5.82370763 2.46212687 -0.61556217
v -5.37489460 2.34205707 -0.61556217
v -5.37489460 2.50985086 -0.72094135
v -5.82370763 2.50976873 -0.72094135
v -5.82370763 2.34205707 -0.61556217
v -5.65342572 2.34203654 -0.61556217
v -5.37489460 2.34205707 -1.24771341
v -5.37489460 2.55182498 -0.82632051
v -5.82370763 2.55182498 -0.82632051
v -5.75886344 2.34203654 -0.61556217
v -5.82370763 2.34205707 -1.24771341
v -5.37489460 2.45820463 -1.24771341
v -5.37489460 2.55020270 -0.93163780
v -5.82370763 2.55020270 -0.93163780
v -5.82370763 2.45795821 -1.24771341
f 1 2 6
f 1 6 11
f 1 11 7
f 1 7 3
f 1 3 8
f 1 8 13
f 1 13 14
f 1 14 9
f 1 9 4
f 1 4 5
f 1 5 2
f 2 5 10
f 2 10 15
f 2 15 16
f 2 16 12
f 2 12 6
f 3 7 8
f 4 9 10
f 4 10 5
f 6 12 11
f 7 11 12
f 7 12 8
f 8 12 16
f 8 16 13
f 9 14 15
f 9 15 10
f 13 16 15
f 13 15 14

