# https://github.com/mikedh/trimesh
v -3.44809332 2.38931973 -0.61572533
v -3.44809332 2.49915270 -0.61572533
v -3.17217559 2.38945676 -0.61572533
v -3.66087320 2.38061805 -0.61538047
v -3.66062460 2.53784774 -0.61538047
v -3.17217559 2.49959805 -0.61572533
v -1.12143558 2.49923834 -0.61528853
v -1.12193277 2.38945676 -0.61528853
v -3.66087320 2.38133748 -0.51005928
v -3.66087320 2.54634387 -0.56686975
v -1.12143558 2.38921695 -0.51008228
v -1.12193277 2.55410343 -0.45805393
v -1.12143558 2.49990638 -0.61528853
v -3.66087320 2.41994689 -0.39650735
v -1.12143558 2.41869645 -0.40924431
v -3.66087320 2.55555942 -0.50316202
v -1.12143558 2.55410343 -0.45274306
v -1.12143558 2.55400066 -0.45823786
v -3.66087320 2.55561082 -0.49996629
v -3.66087320 2.42563381 -0.38961010
v -1.12143558 2.50107117 -0.40450817
v -3.66087320 2.48858393 -0.38085058
v -3.66087320 2.55507980 -0.44133957
v -3.66087320 2.55122572 -0.43533893
v -3.66087320 2.49536712 -0.38137938
v -3.66087320 2.48986862 -0.38085058
f 1 2 6
f 1 6 3
f 1 3 4
f 1 4 2
f 2 4 5
f 2 5 6
f 3 6 13
f 3 13 7
f 3 7 8
f 3 8 4
f 4 9 14
f 4 14 20
f 4 20 22
f 4 22 26
f 4 26 25
f 4 25 24
f 4 24 23
f 4 23 19
f 4 19 16
f 4 16 10
f 4 10 5
f 4 8 11
f 4 11 9
f 5 10 12
f 5 12 13
f 5 13 6
f 7 13 18
f 7 18 17
f 7 17 21
f 7 21 15
f 7 15 11
f 7 11 8
f 9 11 15
f 9 15 14
f 10 16 12
f 12 17 18
f 12 18 13
f 12 16 19
f 12 19 17
f 14 15 20
f 15 21 22
f 15 22 20
f 17 19 23
f 17 23 24
f 17 24 25
f 17 25 21
f 21 25 26
f 21 26 22

