# https://github.com/mikedh/trimesh
v -3.17218525 2.34203657 2.96776032
v -3.17218525 2.34203657 3.07312282
v -3.17218525 2.45814276 2.96776032
v -0.69924812 2.34203657 2.96776032
v -3.17218525 2.34220403 3.17845516
v -0.69924812 2.34203657 3.07312282
v -3.17218525 2.55587123 3.22742131
v -2.70257896 2.45833115 2.96776032
v -0.69924812 2.45814276 2.96776032
v -3.17218525 2.34268545 3.23165417
v -0.69924812 2.34220403 3.17845516
v -3.17218525 2.55587123 3.23911485
v -0.70045843 2.55587123 3.22742131
v -1.43803079 2.45833115 2.96776032
v -0.69924812 2.55551539 3.22693417
v -3.17218525 2.39570455 3.27136310
v -0.69924812 2.34268545 3.23165417
v -3.17218525 2.53090013 3.25750774
v -0.70045843 2.55587123 3.23908438
v -0.69924812 2.55587123 3.23896252
v -3.17218525 2.47208304 3.27675304
v -0.69924812 2.39570455 3.27081503
v -3.17218525 2.50107296 3.27879331
v -0.69924812 2.50107296 3.27824524
v -0.69924812 2.47208304 3.27620497
f 1 2 5
f 1 5 10
f 1 10 16
f 1 16 21
f 1 21 23
f 1 23 18
f 1 18 12
f 1 12 7
f 1 7 3
f 1 3 8
f 1 8 14
f 1 14 9
f 1 9 4
f 1 4 6
f 1 6 2
f 2 6 11
f 2 11 5
f 3 7 8
f 4 9 15
f 4 15 20
f 4 20 24
f 4 24 25
f 4 25 22
f 4 22 17
f 4 17 11
f 4 11 6
f 5 11 17
f 5 17 10
f 7 12 19
f 7 19 20
f 7 20 13
f 7 13 14
f 7 14 8
f 9 14 13
f 9 13 15
f 10 17 16
f 12 18 19
f 13 20 15
f 16 17 22
f 16 22 25
f 16 25 21
f 18 23 24
f 18 24 19
f 19 24 20
f 21 25 24
f 21 24 23

