# https://github.com/mikedh/trimesh
v -1.12139444 2.44125515 -1.03372868
v -1.12139444 2.40016873 -0.82624019
v -1.12139444 2.55796342 -1.03372868
v -0.91099436 2.39818664 -1.03372868
v -1.12139444 2.38778905 -0.72090052
v -1.12139444 2.55796342 -0.82660837
v -1.01637994 2.55796342 -1.03372868
v -0.80564992 2.38819219 -1.03372868
v -1.12139444 2.38943520 -0.61580629
v -0.91099436 2.38636128 -0.82624019
v -1.01637994 2.38735232 -0.72090052
v -1.12139444 2.55586375 -0.76986812
v -1.01637994 2.55705637 -0.82624019
v -1.01637994 2.55796342 -0.93162078
v -0.91429409 2.55787944 -1.03372868
v -0.70026433 2.38943520 -1.03372868
v -0.70005798 2.38943520 -1.03352414
v -0.80564992 2.38757068 -0.93162078
v -1.12139444 2.49979406 -0.61580629
v -0.91099436 2.38715075 -0.72090052
v -0.70005798 2.38943520 -0.61580629
v -0.80564992 2.38715075 -0.82624019
v -1.01637994 2.55495668 -0.77134084
v -1.01637994 2.49972687 -0.61580629
v -0.70026433 2.49930694 -0.61580629
v -0.96321281 2.55396564 -0.77322264
v -0.94213563 2.55495668 -0.82624019
v -0.90464239 2.55625009 -0.92540267
v -0.91078816 2.55782905 -1.03372868
v -0.70005798 2.49378059 -1.03372868
v -0.70005798 2.49934053 -0.61601083
v -0.86525162 2.55319296 -0.88608949
v -0.85580611 2.55510787 -0.95632958
v -0.85460994 2.55574617 -1.03372868
v -0.70005798 2.49950850 -1.03372868
f 1 2 5
f 1 5 9
f 1 9 19
f 1 19 12
f 1 12 6
f 1 6 3
f 1 3 7
f 1 7 15
f 1 15 29
f 1 29 34
f 1 34 35
f 1 35 30
f 1 30 16
f 1 16 8
f 1 8 4
f 1 4 2
f 2 4 5
f 3 6 14
f 3 14 7
f 4 8 5
f 5 8 10
f 5 10 11
f 5 11 9
f 6 12 13
f 6 13 14
f 7 14 15
f 8 16 17
f 8 17 18
f 8 18 10
f 9 11 20
f 9 20 21
f 9 21 25
f 9 25 24
f 9 24 19
f 10 20 11
f 10 18 22
f 10 22 21
f 10 21 20
f 12 23 13
f 12 19 24
f 12 24 25
f 12 25 23
f 13 23 26
f 13 26 27
f 13 27 28
f 13 28 29
f 13 29 15
f 13 15 14
f 16 30 17
f 17 30 35
f 17 35 31
f 17 31 21
f 17 21 22
f 17 22 18
f 21 31 25
f 23 25 26
f 25 31 26
f 26 31 32
f 26 32 27
f 27 32 33
f 27 33 28
f 28 33 29
f 29 33 34
f 31 35 34
f 31 34 33
f 31 33 32

