# https://github.com/mikedh/trimesh
v -0.16666235 2.50108028 -6.26696561
v -0.16666235 2.49706832 -6.26677528
v -0.16666235 2.55241364 -6.25778377
v 0.03747103 2.50108028 -6.26696561
v 0.03747103 2.43733286 -6.26356977
v -0.16666235 2.43733286 -6.26356977
v -0.16666235 2.55586656 -6.25715875
v 0.03747103 2.55586656 -6.25715875
v 0.14286682 2.55585011 -6.25713174
v 0.19770471 2.55514308 -6.25599037
v 0.14286682 2.50108028 -6.26454782
v -0.06788801 2.40670056 -6.20106172
v 0.14286682 2.44048982 -6.26117961
v 0.03747103 2.40727605 -6.20106172
v -0.16666235 2.40670056 -6.20106172
v -0.16666235 2.55586656 -6.24411937
v 0.14908594 2.55624473 -6.20720105
v 0.19880211 2.55583367 -6.20106172
v 0.20535069 2.50108028 -6.20106172
v 0.19960710 2.50108028 -6.25794647
v 0.19880211 2.44522524 -6.25710473
v 0.03747103 2.38835078 -6.09568603
v -0.06788801 2.38830145 -6.09568603
v 0.14286682 2.42100550 -6.20106172
v -0.16666235 2.38830145 -6.09568603
v -0.16666235 2.49840016 -5.98946828
v 0.18519330 2.55583367 -5.98946828
v 0.19880211 2.55583367 -5.99031034
v 0.20706997 2.50108028 -6.09568603
v 0.20381421 2.43891134 -6.09568603
v 0.20209462 2.44127905 -6.20106172
v 0.14286682 2.40892029 -6.09568603
v 0.03747103 2.38840010 -5.98946828
v 0.14286682 2.40839413 -5.99031034
v 0.14286682 2.40839413 -5.98946828
v -0.16666235 2.38836722 -6.08905766
v -0.16666235 2.38943598 -5.98946828
v 0.19883885 2.55540616 -5.98946828
v 0.20706997 2.50108028 -5.99031034
v 0.20381421 2.43891134 -5.98946828
v 0.20703354 2.50058700 -5.98946828
f 1 2 6
f 1 6 15
f 1 15 25
f 1 25 36
f 1 36 37
f 1 37 26
f 1 26 16
f 1 16 7
f 1 7 3
f 1 3 4
f 1 4 2
f 2 4 5
f 2 5 6
f 3 7 8
f 3 8 4
f 4 8 9
f 4 9 10
f 4 10 11
f 4 11 5
f 5 12 15
f 5 15 6
f 5 11 13
f 5 13 14
f 5 14 12
f 7 16 17
f 7 17 8
f 8 17 9
f 9 17 18
f 9 18 10
f 10 18 19
f 10 19 20
f 10 20 11
f 11 20 21
f 11 21 13
f 12 14 22
f 12 22 23
f 12 23 25
f 12 25 15
f 13 21 14
f 14 21 24
f 14 24 22
f 16 26 27
f 16 27 17
f 17 27 28
f 17 28 18
f 18 28 39
f 18 39 29
f 18 29 19
f 19 29 30
f 19 30 31
f 19 31 21
f 19 21 20
f 21 31 32
f 21 32 24
f 22 33 23
f 22 24 32
f 22 32 34
f 22 34 35
f 22 35 33
f 23 33 25
f 25 33 36
f 26 37 33
f 26 33 35
f 26 35 40
f 26 40 41
f 26 41 38
f 26 38 27
f 27 38 28
f 28 38 39
f 29 39 40
f 29 40 30
f 30 40 35
f 30 35 34
f 30 34 32
f 30 32 31
f 33 37 36
f 38 41 39
f 39 41 40

