# https://github.com/mikedh/trimesh
v -6.43809780 2.45873034 4.01053633
v -6.69720349 2.54361374 4.01053633
v -6.43809780 2.34203657 4.01053633
v -6.43809780 2.46159745 3.54157061
v -6.74987767 2.55583562 4.01053633
v -6.69720349 2.54361374 3.41736075
v -6.60197324 2.34203657 4.01053633
v -6.43809780 2.34203657 3.41736075
v -6.43809780 2.46159745 3.41736075
v -6.76326914 2.55583562 4.01053633
v -6.74987767 2.55583562 3.41736075
v -6.65709411 2.34253885 4.01053633
v -6.64241303 2.34239235 3.41736075
v -6.60197324 2.34203657 3.41736075
v -6.77590053 2.50106740 4.01053633
v -6.76326914 2.55583562 3.41736075
v -6.70980159 2.36951486 4.01053633
v -6.65709411 2.34253885 3.41736075
v -6.77266016 2.42221122 4.01053633
v -6.77590053 2.50106740 3.41736075
v -6.70980159 2.36951486 3.41736075
v -6.77266016 2.42221122 3.41736075
f 1 2 5
f 1 5 10
f 1 10 15
f 1 15 19
f 1 19 17
f 1 17 12
f 1 12 7
f 1 7 3
f 1 3 8
f 1 8 9
f 1 9 4
f 1 4 2
f 2 4 9
f 2 9 6
f 2 6 11
f 2 11 5
f 3 7 14
f 3 14 8
f 5 11 16
f 5 16 10
f 6 9 8
f 6 8 14
f 6 14 13
f 6 13 18
f 6 18 21
f 6 21 22
f 6 22 20
f 6 20 16
f 6 16 11
f 7 12 13
f 7 13 14
f 10 16 20
f 10 20 15
f 12 17 21
f 12 21 18
f 12 18 13
f 15 20 22
f 15 22 19
f 17 19 22
f 17 22 21

