# https://github.com/mikedh/trimesh
v -5.96901304 2.34354937 0.28193104
v -5.96901304 2.46523698 0.28193104
v -5.91526361 2.34204628 0.28193104
v -5.96901304 2.34204628 0.28227080
v -5.96901304 2.55565586 0.48706823
v -5.86423269 2.55586756 0.48735121
v -5.39167060 2.46540634 0.28193104
v -5.75883439 2.34170755 0.28193104
v -5.96901304 2.34204628 0.86036900
v -5.96901304 2.55794227 0.54346238
v -5.33785944 2.55586756 0.48735121
v -5.33785944 2.46553336 0.28221418
v -5.33785944 2.46415728 0.28193104
v -5.59919260 2.34170755 0.28193104
v -5.96901304 2.45863180 0.86036900
v -5.44270167 2.34204628 0.86036900
v -5.96901304 2.55586756 0.60500919
v -5.86423269 2.55794227 0.54380222
v -5.33785944 2.55794227 0.54380222
v -5.33785944 2.34204628 0.28193104
v -5.33785944 2.34204628 0.85991610
v -5.86423269 2.54142933 0.65806294
v -5.96901304 2.54151401 0.65772326
v -5.44313400 2.45863180 0.86036900
v -5.33785944 2.45861063 0.85991610
v -5.86423269 2.55586756 0.60534903
v -5.33785944 2.55586756 0.60534903
v -5.33785944 2.54142933 0.65806294
f 1 2 7
f 1 7 13
f 1 13 20
f 1 20 14
f 1 14 8
f 1 8 3
f 1 3 4
f 1 4 9
f 1 9 15
f 1 15 23
f 1 23 17
f 1 17 10
f 1 10 5
f 1 5 2
f 2 5 6
f 2 6 7
f 3 8 4
f 4 8 9
f 5 10 6
f 6 10 11
f 6 11 12
f 6 12 7
f 7 12 13
f 8 14 16
f 8 16 9
f 9 16 24
f 9 24 15
f 10 17 26
f 10 26 18
f 10 18 19
f 10 19 11
f 11 19 27
f 11 27 28
f 11 28 25
f 11 25 21
f 11 21 20
f 11 20 13
f 11 13 12
f 14 20 21
f 14 21 16
f 15 22 23
f 15 24 28
f 15 28 22
f 16 21 25
f 16 25 24
f 17 23 26
f 18 26 27
f 18 27 19
f 22 26 23
f 22 28 27
f 22 27 26
f 24 25 28

