# https://github.com/mikedh/trimesh
v -0.33994106 2.38942851 -1.98531250
v -0.33994106 2.38908432 -1.94140455
v -0.33994106 2.49863471 -1.98531250
v 0.03743680 2.38839594 -1.98531250
v -0.33994106 2.38860901 -1.88012542
v -0.33994106 2.54724729 -1.78299827
v 0.18516440 2.55583562 -1.98531250
v 0.14286494 2.40840806 -1.98531250
v 0.03743680 2.38851067 -1.88012542
v -0.33994106 2.41145660 -1.77479283
v -0.33994106 2.55147588 -1.75235875
v 0.17981027 2.55583562 -1.88012542
v 0.19876473 2.55583562 -1.88012542
v 0.19881812 2.55570449 -1.98531250
v -0.33994106 2.55447526 -1.73030289
v -0.33994106 2.55455719 -1.70300958
v 0.20379788 2.43890975 -1.98531250
v 0.20379788 2.43892614 -1.88012542
v 0.14286494 2.40891615 -1.88012542
v 0.14286494 2.42604364 -1.77479283
v 0.03743680 2.41499682 -1.77479283
v -0.33994106 2.44199106 -1.69780110
v 0.14495295 2.55508167 -1.76772217
v -0.33994106 2.55455719 -1.69913963
v 0.19764032 2.55509806 -1.77479283
v 0.20706400 2.50107681 -1.88012542
v 0.20701061 2.50094569 -1.98531250
v 0.20096016 2.44253193 -1.77479283
v 0.19721192 2.44690804 -1.72067168
v 0.14286494 2.44553129 -1.71959509
v -0.33994106 2.50107681 -1.68808258
v 0.14286494 2.55437691 -1.72128273
v -0.33994106 2.52272793 -1.68927561
v 0.19614090 2.55416385 -1.72157372
v 0.20299477 2.50107681 -1.77479283
v 0.19726531 2.50107681 -1.72064255
v -0.33994106 2.51307425 -1.68872275
f 1 2 5
f 1 5 10
f 1 10 22
f 1 22 31
f 1 31 37
f 1 37 33
f 1 33 24
f 1 24 16
f 1 16 15
f 1 15 11
f 1 11 6
f 1 6 3
f 1 3 7
f 1 7 14
f 1 14 27
f 1 27 17
f 1 17 8
f 1 8 4
f 1 4 2
f 2 4 5
f 3 6 7
f 4 8 9
f 4 9 5
f 5 9 10
f 6 11 7
f 7 12 13
f 7 13 14
f 7 11 15
f 7 15 16
f 7 16 12
f 8 17 18
f 8 18 19
f 8 19 9
f 9 19 20
f 9 20 21
f 9 21 10
f 10 21 22
f 12 23 13
f 12 16 24
f 12 24 23
f 13 23 25
f 13 25 26
f 13 26 14
f 14 26 27
f 17 27 26
f 17 26 18
f 18 26 28
f 18 28 19
f 19 28 29
f 19 29 20
f 20 29 21
f 21 29 30
f 21 30 22
f 22 30 29
f 22 29 31
f 23 32 25
f 23 24 32
f 24 33 34
f 24 34 32
f 25 32 34
f 25 34 26
f 26 34 35
f 26 35 28
f 28 35 29
f 29 35 36
f 29 36 31
f 31 36 34
f 31 34 37
f 33 37 34
f 34 36 35

