# https://github.com/mikedh/trimesh
v -2.25759206 2.55392112 0.74244814
v -2.27177540 2.54131092 0.74244814
v -2.22667120 2.55387964 0.74244814
v -2.22754261 2.55379668 0.69654852
v -2.22895496 2.55379668 0.69654852
v -2.17573742 2.54595679 0.54259112
v -2.23153922 2.49678115 0.54259112
v -2.23208006 2.49620042 0.54259112
v -2.27177540 2.50012036 0.66857051
v -2.27177540 2.38391156 0.74244814
v -2.18496260 2.55072709 0.74244814
v -2.18571380 2.54944118 0.65651845
v -2.17426500 2.54581160 0.54259112
v -2.23208006 2.44063672 0.54259112
v -2.27177540 2.43350201 0.65892493
v -2.27177540 2.49611746 0.66737701
v -2.22658106 2.36702883 0.74244814
v -2.17769061 2.38853669 0.54259112
v -2.17630834 2.38727152 0.54259112
v -2.12438292 2.34253434 0.54259112
v -2.17522656 2.54985599 0.74244814
v -2.06906190 2.51221205 0.54259112
v -2.15776783 2.34245139 0.74244814
v -2.07107524 2.34205731 0.54259112
v -2.07029388 2.34203657 0.54378463
v -2.16188457 2.54477458 0.74244814
v -1.96482036 2.47593699 0.54259112
v -2.07029388 2.34203657 0.74244814
v -1.96491058 2.34205731 0.54259112
v -1.96482036 2.34203657 0.54378463
v -1.96491058 2.45982165 0.74244814
v -1.96482036 2.45982165 0.74240903
v -1.96482036 2.34921277 0.54259112
v -1.96482036 2.34203657 0.74244814
v -1.96482036 2.34205731 0.54261075
v -1.96482036 2.34267953 0.74244814
f 1 2 10
f 1 10 17
f 1 17 23
f 1 23 28
f 1 28 34
f 1 34 36
f 1 36 31
f 1 31 26
f 1 26 21
f 1 21 11
f 1 11 3
f 1 3 4
f 1 4 5
f 1 5 6
f 1 6 7
f 1 7 2
f 2 7 8
f 2 8 9
f 2 9 16
f 2 16 15
f 2 15 10
f 3 11 4
f 4 11 12
f 4 12 6
f 4 6 5
f 6 13 22
f 6 22 27
f 6 27 33
f 6 33 29
f 6 29 24
f 6 24 20
f 6 20 19
f 6 19 18
f 6 18 14
f 6 14 8
f 6 8 7
f 6 12 13
f 8 14 15
f 8 15 16
f 8 16 9
f 10 15 14
f 10 14 18
f 10 18 19
f 10 19 20
f 10 20 17
f 11 21 12
f 12 21 13
f 13 21 22
f 17 20 23
f 20 24 25
f 20 25 23
f 21 26 27
f 21 27 22
f 23 25 28
f 24 29 30
f 24 30 25
f 25 30 34
f 25 34 28
f 26 31 32
f 26 32 27
f 27 32 36
f 27 36 34
f 27 34 30
f 27 30 35
f 27 35 33
f 29 33 35
f 29 35 30
f 31 36 32

