# https://github.com/mikedh/trimesh
v -1.75357618 2.44190231 -5.14652464
v -1.75357618 2.55795182 -5.14652464
v -1.75347913 2.44190231 -5.14652464
v -1.75357618 2.43932395 -4.31563855
v -1.75357618 2.55795182 -4.31612663
v -0.76131913 2.55795182 -5.14652464
v -0.76131913 2.44204168 -5.14652464
v -0.76131913 2.43940525 -4.31563855
v -1.75357618 2.44479426 -4.31563855
v -1.74250264 2.55795182 -4.31563855
v -0.76131913 2.55795182 -4.31563855
f 1 2 6
f 1 6 7
f 1 7 3
f 1 3 4
f 1 4 9
f 1 9 5
f 1 5 2
f 2 5 10
f 2 10 11
f 2 11 6
f 3 7 8
f 3 8 4
f 4 8 11
f 4 11 10
f 4 10 9
f 5 9 10
f 6 11 8
f 6 8 7

