# https://github.com/mikedh/trimesh
v -4.07254695 2.34228775 0.28193112
v -4.07254695 2.49602850 0.28193112
v -4.06798540 2.34224589 0.28193112
v -4.07254695 2.34203657 0.33302021
v -4.07254695 2.45854046 0.54339140
v -3.81581634 2.55578751 0.54339140
v -3.81564528 2.55587123 0.43837219
v -3.81564528 2.55587123 0.28193112
v -3.96723180 2.34203657 0.28193112
v -4.07254695 2.34203657 0.54339140
v -3.80495413 2.55587123 0.54339140
v -3.80495413 2.55587123 0.28193112
v -3.93752462 2.34228775 0.28193112
v -3.96723180 2.34203657 0.54339140
v -3.78129100 2.50107296 0.54339140
v -3.79275193 2.52761391 0.28193112
v -3.90964206 2.34253893 0.28193112
v -3.90964206 2.34253893 0.54339140
v -3.78553894 2.40606557 0.54339140
v -3.78129100 2.50107296 0.28193112
v -3.88409728 2.34779270 0.28193112
v -3.85692748 2.35338136 0.54339140
v -3.78553894 2.40606557 0.28193112
v -3.85692748 2.35338136 0.28193112
f 1 2 8
f 1 8 12
f 1 12 16
f 1 16 20
f 1 20 23
f 1 23 24
f 1 24 21
f 1 21 17
f 1 17 13
f 1 13 9
f 1 9 3
f 1 3 4
f 1 4 10
f 1 10 5
f 1 5 2
f 2 5 6
f 2 6 7
f 2 7 8
f 3 9 4
f 4 9 14
f 4 14 10
f 5 10 14
f 5 14 18
f 5 18 22
f 5 22 19
f 5 19 15
f 5 15 11
f 5 11 6
f 6 11 7
f 7 11 12
f 7 12 8
f 9 13 14
f 11 15 16
f 11 16 12
f 13 17 18
f 13 18 14
f 15 19 23
f 15 23 20
f 15 20 16
f 17 21 18
f 18 21 22
f 19 22 24
f 19 24 23
f 21 24 22

