# https://github.com/mikedh/trimesh
v -5.96901336 2.50781470 2.33518518
v -5.96906487 2.50783177 3.41690596
v -5.96906487 2.50566262 3.41730296
v -5.96901336 2.40183353 2.33518518
v -5.96901336 2.50781470 1.38925035
v -6.18047927 2.51652548 3.41730296
v -5.96968455 2.50783177 3.41730296
v -5.96906487 2.50783177 2.33558218
v -5.96906487 2.40178229 3.41730296
v -5.96906487 2.40164565 1.38925035
v -5.96901336 2.40183353 1.49247929
v -5.96901336 2.40343904 1.38925035
v -6.18047927 2.51649132 1.38925035
v -6.18047927 2.51650840 2.33518518
v -6.49643925 2.45864148 2.33558218
v -6.49643925 2.45864148 3.41710446
v -6.49643925 2.45809492 3.41730296
v -6.23159059 2.34253189 3.41730296
v -6.23153877 2.34253189 1.38925035
v -6.49638774 2.45862440 1.38925035
v -6.49643925 2.34203657 2.33538368
v -6.49643925 2.34203657 3.41730296
v -6.28574755 2.34203657 3.41730296
v -6.28574755 2.34203657 1.38925035
v -6.49638774 2.34203657 1.38925035
f 1 2 3
f 1 3 9
f 1 9 4
f 1 4 11
f 1 11 12
f 1 12 5
f 1 5 8
f 1 8 2
f 2 6 7
f 2 7 3
f 2 8 6
f 3 7 6
f 3 6 17
f 3 17 22
f 3 22 23
f 3 23 18
f 3 18 9
f 4 9 10
f 4 10 11
f 5 12 10
f 5 10 19
f 5 19 24
f 5 24 25
f 5 25 20
f 5 20 13
f 5 13 14
f 5 14 8
f 6 8 14
f 6 14 15
f 6 15 16
f 6 16 17
f 9 18 10
f 10 12 11
f 10 18 19
f 13 20 15
f 13 15 14
f 15 20 21
f 15 21 22
f 15 22 17
f 15 17 16
f 18 23 19
f 19 23 24
f 20 25 21
f 21 25 24
f 21 24 23
f 21 23 22

