# https://github.com/mikedh/trimesh
v -4.89568859 2.34205365 -4.83110613
v -4.89568859 2.34205365 -4.83101348
v -4.89568859 2.49413375 -4.83110613
v -4.07647610 2.34205365 -4.83110613
v -4.89568859 2.34213904 -4.82068493
v -4.07647610 2.34205365 -4.83101348
v -4.07647610 2.34208781 -4.72936153
v -4.07647610 2.34246357 -4.64337185
v -4.89568859 2.51225560 -4.74567143
v -4.38884347 2.49413375 -4.83110613
v -4.07647610 2.47751493 -4.83110613
v -4.89568859 2.34253188 -4.77674973
v -4.07647610 2.34253188 -4.63877810
v -4.89568859 2.51650851 -4.72560010
v -4.38884347 2.51650851 -4.72560010
v -4.28346456 2.51509087 -4.72560010
v -4.28346456 2.49235743 -4.83110613
v -4.17808573 2.48842903 -4.83110613
v -4.17808573 2.51174320 -4.72560010
v -4.07647610 2.47831769 -4.82725205
v -4.89568859 2.40167984 -4.51616063
v -4.07647610 2.35665703 -4.51665374
v -4.07647610 2.35672535 -4.51616063
v -4.89568859 2.50788313 -4.51616063
v -4.07647610 2.51502256 -4.51616063
v -4.07647610 2.51186276 -4.62024828
v -4.07647610 2.49854038 -4.72560010
f 1 2 5
f 1 5 12
f 1 12 21
f 1 21 24
f 1 24 14
f 1 14 9
f 1 9 3
f 1 3 10
f 1 10 17
f 1 17 18
f 1 18 11
f 1 11 4
f 1 4 6
f 1 6 2
f 2 6 7
f 2 7 8
f 2 8 5
f 3 9 10
f 4 11 20
f 4 20 27
f 4 27 26
f 4 26 25
f 4 25 23
f 4 23 22
f 4 22 13
f 4 13 8
f 4 8 7
f 4 7 6
f 5 8 12
f 8 13 12
f 9 14 15
f 9 15 10
f 10 15 16
f 10 16 17
f 11 18 19
f 11 19 20
f 12 13 22
f 12 22 23
f 12 23 21
f 14 24 25
f 14 25 15
f 15 25 16
f 16 25 26
f 16 26 19
f 16 19 17
f 17 19 18
f 19 26 27
f 19 27 20
f 21 23 25
f 21 25 24

