# https://github.com/mikedh/trimesh
v -4.88383141 2.34317213 0.28208015
v -4.88383141 2.52330016 0.28208015
v -4.87262611 2.34253338 0.28208015
v -4.88383141 2.34203657 0.75455250
v -4.88383141 2.52330016 0.30511884
v -4.23241111 2.51004606 0.28208015
v -4.81024164 2.34203657 0.28208015
v -4.88383141 2.34203657 1.01522687
v -4.88383141 2.51748042 0.54375934
v -4.12258286 2.47833913 1.01522687
v -4.07267533 2.47679547 1.01522687
v -4.12703323 2.50472313 0.28208015
v -4.75596329 2.34203657 0.28208015
v -4.88383141 2.47929726 1.01522687
v -4.07196009 2.34203657 1.01522687
v -4.17805330 2.47929726 1.01522687
v -4.07196009 2.47495020 1.01522687
v -4.07196009 2.47667128 1.01486788
v -4.07259579 2.49601126 0.28208015
v -4.07259579 2.34230272 0.28208015
v -4.07259579 2.34203657 0.33303796
v -4.07196009 2.34203657 0.67854635
v -4.07196009 2.45859105 0.67804398
v -4.07196009 2.45562795 0.67804398
f 1 2 6
f 1 6 12
f 1 12 19
f 1 19 20
f 1 20 13
f 1 13 7
f 1 7 3
f 1 3 4
f 1 4 8
f 1 8 14
f 1 14 9
f 1 9 5
f 1 5 2
f 2 5 6
f 3 7 4
f 4 7 13
f 4 13 21
f 4 21 22
f 4 22 15
f 4 15 8
f 5 9 6
f 6 10 11
f 6 11 12
f 6 9 10
f 8 15 17
f 8 17 11
f 8 11 10
f 8 10 16
f 8 16 14
f 9 14 16
f 9 16 10
f 11 17 18
f 11 18 19
f 11 19 12
f 13 20 21
f 15 22 24
f 15 24 23
f 15 23 18
f 15 18 17
f 18 23 19
f 19 23 24
f 19 24 20
f 20 24 22
f 20 22 21

