# https://github.com/mikedh/trimesh
v -2.28118582 2.50105060 -6.26697441
v -0.58828384 2.50108345 -6.26697441
v -1.20757256 2.50105060 -6.26697441
v -0.58828384 2.49702692 -6.26677339
v -1.20736559 2.48893029 -6.26633494
v -0.58828384 2.43732861 -6.26357542
v -2.28118582 2.43734503 -6.26353899
v -2.28118582 2.55587123 -6.25712546
v -0.58828384 2.55587123 -6.25716189
v -0.58828384 2.55240593 -6.25778314
v -0.16686933 2.50108345 -6.26697441
v -0.58828384 2.50106703 -6.26697441
v -0.16686933 2.49704334 -6.26677339
v -0.16686933 2.43732861 -6.26357542
v -2.28097884 2.40673220 -6.20102968
v -0.58828384 2.40669935 -6.20102968
v -2.28118582 2.40681431 -6.20119426
v -2.28118582 2.55587123 -6.24407917
v -0.16686933 2.55587123 -6.25716189
v -0.16686933 2.55240593 -6.25778314
v -0.16686933 2.40669935 -6.20102968
v -2.28097884 2.38830538 -6.09572654
v -2.28118582 2.38835465 -6.09598252
v -0.58828384 2.38828895 -6.09569011
v -2.28118582 2.51100306 -6.08165698
v -1.85894339 2.51527309 -6.08165698
v -1.76621574 2.51532236 -6.08165698
v -0.48996743 2.51551944 -6.08034129
v -0.16686933 2.55587123 -6.24413413
v -0.16686933 2.38828895 -6.09569011
v -2.05598994 2.38812473 -6.08165698
v -2.26690409 2.38845319 -6.08165698
v -2.28118582 2.38850246 -6.08165698
v -0.47423700 2.38809188 -6.08034129
v -0.58828384 2.51515813 -6.08034129
v -0.39848165 2.51528951 -6.08034129
v -0.18880945 2.51110160 -6.08034129
v -0.16686933 2.51062532 -6.08034129
v -0.16686933 2.38845319 -6.08034129
v -0.38420008 2.38809188 -6.08034129
v -0.57959039 2.38814115 -6.08034129
v -0.58828384 2.38817400 -6.08034129
f 1 2 11
f 1 11 12
f 1 12 3
f 1 3 4
f 1 4 5
f 1 5 6
f 1 6 7
f 1 7 17
f 1 17 23
f 1 23 33
f 1 33 25
f 1 25 18
f 1 18 8
f 1 8 9
f 1 9 10
f 1 10 2
f 2 10 20
f 2 20 11
f 3 12 4
f 4 12 11
f 4 11 13
f 4 13 14
f 4 14 6
f 4 6 5
f 6 15 7
f 6 14 21
f 6 21 16
f 6 16 15
f 7 15 17
f 8 18 29
f 8 29 19
f 8 19 9
f 9 19 20
f 9 20 10
f 11 20 19
f 11 19 29
f 11 29 38
f 11 38 39
f 11 39 30
f 11 30 21
f 11 21 14
f 11 14 13
f 15 22 23
f 15 23 17
f 15 16 22
f 16 21 30
f 16 30 24
f 16 24 22
f 18 25 26
f 18 26 27
f 18 27 28
f 18 28 29
f 22 31 32
f 22 32 33
f 22 33 23
f 22 24 34
f 22 34 31
f 24 30 40
f 24 40 34
f 25 33 42
f 25 42 35
f 25 35 26
f 26 35 28
f 26 28 27
f 28 35 42
f 28 42 41
f 28 41 34
f 28 34 40
f 28 40 39
f 28 39 38
f 28 38 37
f 28 37 36
f 28 36 29
f 29 36 37
f 29 37 38
f 30 39 40
f 31 34 41
f 31 41 32
f 32 41 33
f 33 41 42

