# https://github.com/mikedh/trimesh
v -0.59489618 2.50107283 0.04650814
v -0.57094846 2.54343798 0.06139714
v -0.57094846 2.50107283 0.04650814
v -1.12823370 2.41724259 0.05006463
v -1.12823370 2.50107283 0.04653821
v -1.12823370 2.55587123 0.06576742
v -0.57094846 2.55587123 0.06576742
v -0.57094846 2.41177950 0.05030569
v -1.12823370 2.41177950 0.05030569
v -1.12823370 2.55587123 0.07725068
v -0.57094846 2.55587123 0.07725068
v -0.57094846 2.39982767 0.06579757
v -1.12823370 2.36229767 0.11450350
v -1.12823370 2.46927804 0.35438619
v -0.57585786 2.46929897 0.35438619
v -0.57094846 2.46929897 0.35438619
v -0.57094846 2.35907424 0.11869294
v -1.12823370 2.35907424 0.11869294
v -1.12823370 2.34220354 0.35438619
v -0.57094846 2.34220354 0.35438619
v -0.57094846 2.35532752 0.13062833
v -1.12823370 2.34354314 0.16815235
v -1.12823370 2.34205702 0.33298700
v -0.57094846 2.34216168 0.34887062
v -0.57094846 2.34253844 0.17137733
v -1.12823370 2.34253844 0.17137733
v -1.12823370 2.34205702 0.22758807
v -0.57094846 2.34203608 0.22758807
v -0.57094846 2.34205702 0.33298700
v -0.57094846 2.34241285 0.18412642
v -1.12823370 2.34207795 0.22415210
f 1 2 3
f 1 3 4
f 1 4 5
f 1 5 6
f 1 6 2
f 2 7 11
f 2 11 16
f 2 16 20
f 2 20 24
f 2 24 29
f 2 29 28
f 2 28 30
f 2 30 25
f 2 25 21
f 2 21 17
f 2 17 12
f 2 12 8
f 2 8 3
f 2 6 7
f 3 8 4
f 4 9 13
f 4 13 18
f 4 18 22
f 4 22 26
f 4 26 31
f 4 31 27
f 4 27 23
f 4 23 19
f 4 19 14
f 4 14 10
f 4 10 6
f 4 6 5
f 4 8 9
f 6 10 11
f 6 11 7
f 8 12 9
f 9 12 13
f 10 14 15
f 10 15 16
f 10 16 11
f 12 17 13
f 13 17 18
f 14 19 20
f 14 20 16
f 14 16 15
f 17 21 22
f 17 22 18
f 19 23 24
f 19 24 20
f 21 25 22
f 22 25 26
f 23 27 28
f 23 28 29
f 23 29 24
f 25 30 26
f 26 30 31
f 27 31 28
f 28 31 30

