# https://github.com/mikedh/trimesh
v -2.38502125 2.49241017 0.74246761
v -2.25760816 2.55391814 0.74246761
v -2.37949689 2.46605472 0.74246761
v -3.17206774 2.50109090 0.75269126
v -2.27089009 2.55396288 0.76376873
v -2.22681269 2.55389128 0.74246761
v -3.17206774 2.55398973 0.80394077
v -2.37526543 2.46257347 0.74246761
v -3.17206774 2.46257347 0.75350127
v -2.38654926 2.55398973 0.80394077
v -2.28111609 2.55398973 0.80755285
v -2.22657768 2.55390918 0.75455203
v -2.17380221 2.54992678 0.75455203
v -2.18508603 2.55073222 0.74246761
v -3.17206774 2.55398973 0.80755285
v -1.97139878 2.46257347 0.74246761
v -3.17206774 2.46257347 0.96605202
v -2.28111609 2.46257347 0.96611766
v -2.22669515 2.55391814 0.80744340
v -2.17533029 2.54986414 0.74246761
v -1.98185979 2.46257347 0.85991892
v -1.97151625 2.46257347 0.75455203
v -2.16193074 2.54477203 0.74246761
v -2.80792945 2.46257347 0.96609583
v -2.59718058 2.46257347 0.96611766
v -2.17580039 2.46257347 0.96419109
v -2.07036722 2.46257347 0.95199722
f 1 2 6
f 1 6 14
f 1 14 20
f 1 20 23
f 1 23 16
f 1 16 8
f 1 8 3
f 1 3 4
f 1 4 2
f 2 5 6
f 2 4 7
f 2 7 5
f 3 8 4
f 4 9 17
f 4 17 15
f 4 15 7
f 4 8 9
f 5 10 11
f 5 11 12
f 5 12 6
f 5 7 10
f 6 12 13
f 6 13 14
f 7 15 11
f 7 11 10
f 8 16 22
f 8 22 21
f 8 21 27
f 8 27 26
f 8 26 18
f 8 18 25
f 8 25 24
f 8 24 17
f 8 17 9
f 11 18 19
f 11 19 12
f 11 15 25
f 11 25 18
f 12 19 13
f 13 20 14
f 13 19 21
f 13 21 22
f 13 22 16
f 13 16 23
f 13 23 20
f 15 17 24
f 15 24 25
f 18 26 19
f 19 26 27
f 19 27 21

