# https://github.com/mikedh/trimesh
v -0.43239704 2.50078230 -1.56343999
v -0.43347119 2.44439444 -1.56343999
v -0.43567227 2.55429388 -1.56343999
v -0.43242311 2.50107480 -0.61580629
v -0.48949285 2.41405550 -1.56343999
v -0.43352365 2.44439444 -0.61580629
v -0.48949285 2.41405550 -0.61580629
v -0.48771107 2.41501425 -1.03378176
v -0.44536732 2.55458639 -1.56343999
v -0.43569866 2.55458639 -1.45852871
v -0.43569866 2.55458639 -0.61580629
v -0.59482771 2.38857534 -1.56343999
v -0.59480164 2.38857534 -1.03378176
v -0.59480164 2.38857534 -0.61580629
v -0.49779903 2.54677009 -1.56343999
v -0.49808736 2.54673759 -1.45852871
v -0.44536732 2.55458639 -0.72090307
v -0.44552467 2.55455389 -0.61580629
v -0.69982195 2.38943659 -1.56343999
v -0.59482771 2.38857534 -1.03378176
v -0.69688734 2.38940409 -1.03378176
v -0.70005782 2.38943659 -0.61580629
v -0.49858518 2.54659134 -1.56343999
v -0.69982195 2.49953105 -1.56343999
v -0.70005782 2.49951479 -1.03378176
v -0.49808736 2.54673759 -1.03378176
v -0.49806098 2.54673759 -0.61580629
v -0.70005782 2.49377851 -1.03378176
v -0.70005782 2.38943659 -1.03359624
v -0.59480164 2.51977867 -0.61580629
v -0.70005782 2.49935229 -0.61608456
f 1 2 5
f 1 5 12
f 1 12 19
f 1 19 24
f 1 24 23
f 1 23 15
f 1 15 9
f 1 9 3
f 1 3 11
f 1 11 4
f 1 4 2
f 2 4 6
f 2 6 7
f 2 7 8
f 2 8 5
f 3 9 10
f 3 10 11
f 4 11 18
f 4 18 27
f 4 27 30
f 4 30 22
f 4 22 14
f 4 14 7
f 4 7 6
f 5 8 7
f 5 7 14
f 5 14 13
f 5 13 12
f 9 15 16
f 9 16 26
f 9 26 17
f 9 17 11
f 9 11 10
f 11 17 18
f 12 13 14
f 12 14 20
f 12 20 21
f 12 21 19
f 14 22 21
f 14 21 20
f 15 23 16
f 16 23 24
f 16 24 25
f 16 25 26
f 17 27 18
f 17 26 27
f 19 28 25
f 19 25 24
f 19 21 29
f 19 29 28
f 21 22 29
f 22 30 31
f 22 31 25
f 22 25 28
f 22 28 29
f 25 31 27
f 25 27 26
f 27 31 30

