# https://github.com/mikedh/trimesh
v -3.66091379 2.50106492 -4.02868362
v -3.66091379 2.44021397 -4.03108854
v -3.66091379 2.54843103 -4.03395610
v -3.77984380 2.50106492 -3.88641662
v -3.66091379 2.40783339 -4.09334219
v -3.78391114 2.40967224 -3.88641662
v -3.78460259 2.40620591 -3.88641662
v -3.66091379 2.55422232 -4.03654632
v -3.80367861 2.55584981 -3.88641662
v -3.85696116 2.35330214 -3.88641662
v -3.66091379 2.38109617 -4.19870123
v -3.66091379 2.55502551 -4.08529449
v -3.81584005 2.55587095 -3.88641662
v -3.75649707 2.55707571 -4.09334219
v -3.75649707 2.55796342 -4.19870123
v -3.90768129 2.34283976 -3.88641662
v -3.85687982 2.34844084 -4.09334219
v -3.66091379 2.38063118 -4.30415261
v -3.66091379 2.55506777 -4.10730968
v -4.07639594 2.51567000 -3.88641662
v -3.81584005 2.55587095 -4.40941900
v -3.75649707 2.55796342 -4.83131782
v -3.90959298 2.34252271 -3.88641662
v -3.85683914 2.34814492 -4.19870123
v -3.66091379 2.38063118 -4.51477805
v -3.66091379 2.53788409 -4.83131782
v -3.69906574 2.55584981 -4.83131782
v -3.69914709 2.55587095 -4.83094783
v -4.07639594 2.35752938 -3.88641662
v -4.07639594 2.51567000 -4.40941900
v -3.81563664 2.55587095 -4.83094783
v -3.81588072 2.55580753 -4.83131782
v -3.96722764 2.34203657 -3.88641662
v -3.90947096 2.34252271 -4.19870123
v -3.85683914 2.34814492 -4.40941900
v -3.66091379 2.38065231 -4.83131782
v -4.07480967 2.35708552 -3.88641662
v -4.07639594 2.34252271 -4.63873005
v -4.07639594 2.51505705 -4.51477805
v -4.07639594 2.51184436 -4.62022975
v -4.07639594 2.47758267 -4.83131782
v -4.07639594 2.49852859 -4.72558879
v -4.02209646 2.34252271 -3.88641662
v -4.07639594 2.34209998 -4.72595878
v -4.07639594 2.34203657 -4.83094783
v -3.96722764 2.34203657 -4.83131782
v -3.90947096 2.34252271 -4.83131782
v -3.85683914 2.34835629 -4.83131782
v -4.07289794 2.35655712 -3.88641662
v -4.07639594 2.34248045 -4.64335489
v -4.07639594 2.34203657 -4.83131782
f 1 2 5
f 1 5 11
f 1 11 18
f 1 18 25
f 1 25 36
f 1 36 26
f 1 26 19
f 1 19 12
f 1 12 8
f 1 8 3
f 1 3 4
f 1 4 2
f 2 4 6
f 2 6 7
f 2 7 5
f 3 8 4
f 4 9 13
f 4 13 20
f 4 20 29
f 4 29 37
f 4 37 49
f 4 49 43
f 4 43 33
f 4 33 23
f 4 23 16
f 4 16 10
f 4 10 7
f 4 7 6
f 4 8 9
f 5 7 10
f 5 10 11
f 8 12 9
f 9 12 14
f 9 14 15
f 9 15 13
f 10 16 11
f 11 17 18
f 11 16 17
f 12 19 15
f 12 15 14
f 13 15 22
f 13 22 21
f 13 21 30
f 13 30 20
f 15 19 22
f 16 23 17
f 17 24 18
f 17 23 24
f 18 24 35
f 18 35 25
f 19 26 27
f 19 27 28
f 19 28 22
f 20 30 39
f 20 39 40
f 20 40 42
f 20 42 41
f 20 41 51
f 20 51 45
f 20 45 44
f 20 44 50
f 20 50 38
f 20 38 29
f 21 22 31
f 21 31 30
f 22 28 27
f 22 27 26
f 22 26 36
f 22 36 48
f 22 48 47
f 22 47 46
f 22 46 51
f 22 51 41
f 22 41 32
f 22 32 31
f 23 33 34
f 23 34 24
f 24 34 47
f 24 47 35
f 25 35 36
f 29 38 37
f 30 31 39
f 31 32 40
f 31 40 39
f 32 41 42
f 32 42 40
f 33 43 44
f 33 44 45
f 33 45 51
f 33 51 46
f 33 46 47
f 33 47 34
f 35 47 48
f 35 48 36
f 37 38 49
f 38 50 43
f 38 43 49
f 43 50 44

