# https://github.com/mikedh/trimesh
v -6.38225140 2.34203657 -1.24955224
v -6.38225140 2.34203657 -1.03707359
v -6.38225140 2.45796967 -1.24955224
v -5.82376228 2.34203657 -1.24955224
v -6.38225140 2.34207754 -1.03251161
v -5.82376228 2.34203657 -1.03707359
v -6.38225140 2.54812619 -0.93167367
v -6.28574346 2.55019569 -0.93167367
v -5.82376228 2.45796967 -1.24955224
v -6.38225140 2.34252833 -0.98305978
v -5.82376228 2.34252833 -0.98305978
v -6.38225140 2.52835323 -0.87671096
v -6.38219675 2.52980803 -0.87671096
v -6.28082213 2.55136364 -0.87671096
v -5.82376228 2.55019569 -0.93167367
v -6.28164251 2.36918598 -0.87671096
v -6.33746944 2.37191116 -0.87671096
v -6.38225140 2.39295452 -0.87671096
v -5.82376228 2.36924745 -0.87671096
v -6.23341571 2.55136364 -0.87671096
v -5.82376228 2.55103580 -0.87671096
f 1 2 5
f 1 5 10
f 1 10 18
f 1 18 12
f 1 12 7
f 1 7 3
f 1 3 9
f 1 9 4
f 1 4 6
f 1 6 2
f 2 6 5
f 3 7 8
f 3 8 15
f 3 15 9
f 4 9 15
f 4 15 21
f 4 21 19
f 4 19 11
f 4 11 6
f 5 6 11
f 5 11 10
f 7 12 13
f 7 13 14
f 7 14 8
f 8 14 20
f 8 20 15
f 10 16 17
f 10 17 18
f 10 11 16
f 11 19 16
f 12 18 17
f 12 17 16
f 12 16 19
f 12 19 21
f 12 21 20
f 12 20 14
f 12 14 13
f 15 20 21

