# https://github.com/mikedh/trimesh
v -4.89568859 2.52632262 0.28193096
v -4.89568859 2.34385430 0.28193096
v -4.89568859 2.52708352 0.21205551
v -4.96314138 2.55587095 0.28193096
v -5.23187396 2.34203657 0.28193096
v -4.89568859 2.34385430 -0.61252752
v -4.89568859 2.52708352 -0.61252752
v -4.99302146 2.55694888 0.28193096
v -4.96314138 2.55587095 -0.61252752
v -5.37489460 2.34203657 0.28193096
v -5.23187396 2.34203657 -0.61252752
v -5.02116593 2.55796342 0.28193096
v -5.02116593 2.55796342 -0.61252752
v -5.37489460 2.46542939 0.28193096
v -5.37489460 2.34203657 -0.61252752
v -5.07923727 2.55587095 0.28193096
v -5.07923727 2.55587095 -0.61252752
v -5.37489460 2.46219556 -0.61252752
f 1 2 6
f 1 6 7
f 1 7 3
f 1 3 4
f 1 4 8
f 1 8 12
f 1 12 16
f 1 16 14
f 1 14 10
f 1 10 5
f 1 5 2
f 2 5 11
f 2 11 6
f 3 7 9
f 3 9 4
f 4 9 8
f 5 10 15
f 5 15 11
f 6 11 15
f 6 15 18
f 6 18 17
f 6 17 13
f 6 13 9
f 6 9 7
f 8 9 13
f 8 13 12
f 10 14 18
f 10 18 15
f 12 13 17
f 12 17 16
f 14 16 17
f 14 17 18

