# https://github.com/mikedh/trimesh
v -6.70732129 2.50106740 -5.04948214
v -6.60194937 2.39571654 -5.04185469
v -6.69776664 2.39588397 -5.02766483
v -6.76830982 2.43112649 -5.01818367
v -6.76784750 2.50106740 -5.02186972
v -6.76218399 2.55514499 -5.00369575
v -6.38230605 2.50106740 -5.04183333
v -6.38230605 2.39571654 -5.04185469
v -6.60194937 2.34253885 -4.99023047
v -6.65627279 2.34268535 -4.98984698
v -6.38230605 2.39123798 -5.03750812
v -6.77254771 2.42233679 -4.93641178
v -6.77578400 2.50106740 -4.93641178
v -6.70978683 2.36964043 -4.93641178
v -6.70732129 2.55489386 -5.00182069
v -6.76326254 2.55583562 -4.93641178
v -6.38230605 2.55382654 -4.99018776
v -6.38230605 2.54938984 -4.99453432
v -6.60194937 2.34203657 -4.93641178
v -6.38230605 2.34253885 -4.99023047
v -6.65708186 2.34253885 -4.93641178
v -6.77266330 2.42221122 -4.83182098
v -6.77589959 2.50106740 -4.83182098
v -6.70940176 2.36930558 -4.83182098
v -6.71024915 2.36991249 -4.83182098
v -6.76333981 2.55541706 -4.83182098
v -6.74962421 2.55581468 -4.83182098
v -6.38230605 2.55382654 -4.98910104
v -6.60194937 2.34203657 -4.83182098
v -6.38230605 2.34203657 -4.93641178
v -6.65708186 2.34253885 -4.83182098
v -6.69730431 2.54369746 -4.83182098
v -6.38230605 2.47040808 -4.83182098
v -6.38230605 2.34203657 -4.83182098
f 1 2 3
f 1 3 4
f 1 4 5
f 1 5 6
f 1 6 7
f 1 7 8
f 1 8 2
f 2 9 10
f 2 10 3
f 2 8 11
f 2 11 9
f 3 10 4
f 4 12 13
f 4 13 5
f 4 10 14
f 4 14 12
f 5 13 6
f 6 15 7
f 6 13 16
f 6 16 17
f 6 17 15
f 7 18 17
f 7 17 28
f 7 28 33
f 7 33 34
f 7 34 30
f 7 30 20
f 7 20 11
f 7 11 8
f 7 15 18
f 9 19 10
f 9 11 20
f 9 20 30
f 9 30 19
f 10 19 21
f 10 21 14
f 12 14 22
f 12 22 13
f 13 22 23
f 13 23 16
f 14 24 25
f 14 25 22
f 14 21 24
f 15 17 18
f 16 23 26
f 16 26 27
f 16 27 17
f 17 27 28
f 19 29 31
f 19 31 21
f 19 30 34
f 19 34 29
f 21 31 24
f 22 25 24
f 22 24 31
f 22 31 29
f 22 29 34
f 22 34 33
f 22 33 32
f 22 32 27
f 22 27 26
f 22 26 23
f 27 32 28
f 28 32 33

