# https://github.com/mikedh/trimesh
v -3.44811287 2.49918809 -0.61567948
v -3.66085231 2.53784968 -0.61567948
v -3.44811287 2.38929805 -0.61567948
v -3.44811287 2.50454408 -1.02931004
v -3.66087316 2.53783429 -0.64436103
v -3.66087316 2.53783429 -0.61567948
v -3.44811287 2.50454408 -2.40697246
v -3.66087316 2.53766499 -2.96258852
v -3.66087316 2.38061766 -0.61567948
v -3.44811287 2.38712795 -1.03713230
v -3.44811287 2.50378993 -2.51245415
v -3.66053996 2.53751109 -3.03678133
v -3.66087316 2.38554270 -3.03678133
v -3.66087316 2.38061766 -3.03678133
v -3.44811287 2.38712795 -2.41479464
v -3.44811287 2.49837238 -3.03678133
v -3.44811287 2.38929805 -3.03678133
v -3.44811287 2.38737420 -2.52003936
f 1 2 6
f 1 6 9
f 1 9 3
f 1 3 10
f 1 10 15
f 1 15 18
f 1 18 17
f 1 17 16
f 1 16 11
f 1 11 7
f 1 7 4
f 1 4 2
f 2 5 6
f 2 4 7
f 2 7 8
f 2 8 5
f 3 9 10
f 5 8 13
f 5 13 14
f 5 14 9
f 5 9 6
f 7 11 12
f 7 12 8
f 8 12 13
f 9 14 15
f 9 15 10
f 11 16 12
f 12 16 17
f 12 17 14
f 12 14 13
f 14 17 18
f 14 18 15

