# https://github.com/mikedh/trimesh
v -0.37875549 2.34207467 0.75455423
v -0.37875549 2.34209564 0.74246761
v -0.32563657 2.34247307 0.74246761
v -0.31806659 2.34253598 0.75455423
v -0.32250078 2.34268276 0.80963976
v -0.37875549 2.34209564 0.75929323
v -0.37875549 2.50183427 0.74246761
v -0.31806659 2.34253598 0.74246761
v -0.26539272 2.34586998 0.75455423
v -0.31203655 2.34291341 0.74246761
v -0.28390936 2.36004474 0.85083429
v -0.37875549 2.35568328 0.86285558
v -0.37875549 2.34253598 0.81074831
v -0.37252161 2.50460213 0.74246761
v -0.37875549 2.53838250 0.84705166
v -0.19481436 2.39856402 0.75455423
v -0.20093705 2.40906928 0.85992096
v -0.26539272 2.34586998 0.74246761
v -0.19477730 2.39856402 0.74246761
v -0.21312684 2.42911524 0.92222361
v -0.27869561 2.41552760 0.92950604
v -0.37875549 2.41588407 0.95807044
v -0.23208885 2.55587030 0.74246761
v -0.37875549 2.55509446 0.90059380
v -0.18928560 2.50107940 0.75455423
v -0.19540829 2.50107940 0.85992096
v -0.18923000 2.50107940 0.74246761
v -0.21357221 2.50107940 0.92172359
v -0.37875549 2.49290166 0.96454851
v -0.22045561 2.55587030 0.74246761
v -0.37875549 2.55587030 0.90318057
v -0.27123714 2.55628967 0.86737724
v -0.22045561 2.55587030 0.85992096
v -0.22231119 2.55515736 0.91515852
v -0.37875549 2.50028260 0.96226593
v -0.37875549 2.55587030 0.92098456
v -0.27869561 2.55587030 0.91641940
f 1 2 3
f 1 3 4
f 1 4 5
f 1 5 6
f 1 6 13
f 1 13 12
f 1 12 22
f 1 22 29
f 1 29 35
f 1 35 36
f 1 36 31
f 1 31 24
f 1 24 15
f 1 15 7
f 1 7 2
f 2 7 14
f 2 14 23
f 2 23 30
f 2 30 27
f 2 27 19
f 2 19 18
f 2 18 10
f 2 10 8
f 2 8 3
f 3 8 4
f 4 9 5
f 4 8 10
f 4 10 9
f 5 11 12
f 5 12 13
f 5 13 6
f 5 9 11
f 7 15 14
f 9 16 17
f 9 17 11
f 9 10 18
f 9 18 19
f 9 19 16
f 11 17 20
f 11 20 21
f 11 21 22
f 11 22 12
f 14 15 23
f 15 24 23
f 16 25 26
f 16 26 17
f 16 19 27
f 16 27 25
f 17 26 20
f 20 28 29
f 20 29 22
f 20 22 21
f 20 26 28
f 23 24 31
f 23 31 32
f 23 32 30
f 25 27 33
f 25 33 34
f 25 34 26
f 26 34 28
f 27 30 33
f 28 34 29
f 29 34 35
f 30 32 33
f 31 36 32
f 32 36 37
f 32 37 33
f 33 37 34
f 34 37 36
f 34 36 35

