# https://github.com/mikedh/trimesh
v -1.98351398 2.50842492 2.55360642
v -2.70259490 2.50860921 2.55360642
v -1.98351398 2.39855733 2.55360642
v -1.98351398 2.50783954 1.54250169
v -2.70315852 2.50859837 2.55360642
v -2.70315852 2.50786122 1.54289759
v -2.70259490 2.39793943 2.55360642
v -2.70315852 2.39786354 2.55350748
v -1.98351398 2.40161432 1.54250169
v -2.70259490 2.50783954 1.54250169
v -2.70315852 2.40722966 2.55360642
v -2.70315852 2.40278509 1.54250169
v -2.70315852 2.40136500 1.54250169
f 1 2 5
f 1 5 11
f 1 11 7
f 1 7 3
f 1 3 9
f 1 9 4
f 1 4 2
f 2 4 6
f 2 6 5
f 3 7 8
f 3 8 9
f 4 9 13
f 4 13 12
f 4 12 10
f 4 10 6
f 5 6 12
f 5 12 13
f 5 13 8
f 5 8 11
f 6 10 12
f 7 11 8
f 8 13 9

