# https://github.com/mikedh/trimesh
v -4.89568859 2.55384203 -4.98921254
v -4.89568859 2.55384203 -4.99018619
v -4.91585509 2.55384203 -4.98899174
v -4.89568859 2.50742147 -4.90916307
v -4.89568859 2.50107726 -5.04176046
v -5.37486837 2.51990257 -5.02336161
v -4.91585509 2.55384203 -4.99018619
v -5.37486837 2.55382130 -4.98899174
v -5.37486837 2.50742147 -4.90916307
v -4.89568859 2.34203657 -4.90916307
v -4.89568859 2.39571358 -5.04179941
v -5.37486837 2.43330200 -5.04178653
v -5.37486837 2.50107726 -5.04176046
v -5.82370763 2.50105653 -5.04176046
v -5.82370763 2.53352396 -5.01002636
v -5.37486837 2.55382130 -4.99018619
v -5.82370763 2.55380056 -4.98944621
v -5.75875728 2.55380056 -4.98899174
v -5.82370763 2.50740074 -4.90918914
v -5.37486837 2.34203657 -4.90916307
v -4.89568859 2.34203657 -4.93641775
v -4.89568859 2.38557528 -5.03197025
v -5.82370763 2.39571358 -5.04179941
v -5.82370763 2.55380056 -4.99018619
v -5.82370763 2.34205730 -4.90918914
v -5.37486837 2.34203657 -4.93641775
v -4.89568859 2.34243050 -4.97996757
v -4.89568859 2.34253416 -4.99022514
v -5.82370763 2.37525039 -5.02195923
v -5.82370763 2.34205730 -4.93643063
v -5.82370763 2.34234756 -4.96955391
v -5.82370763 2.34253416 -4.99022514
f 1 2 7
f 1 7 3
f 1 3 4
f 1 4 10
f 1 10 21
f 1 21 27
f 1 27 28
f 1 28 22
f 1 22 11
f 1 11 5
f 1 5 2
f 2 5 6
f 2 6 7
f 3 7 16
f 3 16 8
f 3 8 9
f 3 9 4
f 4 9 20
f 4 20 10
f 5 11 12
f 5 12 13
f 5 13 6
f 6 13 14
f 6 14 15
f 6 15 7
f 7 15 16
f 8 16 24
f 8 24 17
f 8 17 18
f 8 18 9
f 9 18 19
f 9 19 25
f 9 25 20
f 10 20 26
f 10 26 21
f 11 22 23
f 11 23 12
f 12 23 14
f 12 14 13
f 14 23 29
f 14 29 32
f 14 32 31
f 14 31 30
f 14 30 25
f 14 25 19
f 14 19 17
f 14 17 24
f 14 24 15
f 15 24 16
f 17 19 18
f 20 25 30
f 20 30 26
f 21 26 27
f 22 28 29
f 22 29 23
f 26 30 31
f 26 31 32
f 26 32 27
f 27 32 28
f 28 32 29

