# https://github.com/mikedh/trimesh
v -0.57094846 2.50106943 0.04650806
v -0.57094846 2.55587023 0.06575423
v -0.48942218 2.50106943 0.04650806
v -0.57094846 2.41176908 0.05030600
v -0.57094846 2.55587023 0.07724126
v -0.27127169 2.55626871 0.11480156
v -0.27871038 2.55587023 0.06575423
v -0.38404775 2.50106943 0.04653138
v -0.48942218 2.41176908 0.05030600
v -0.57094846 2.35908648 0.11866939
v -0.57094846 2.53873580 0.12992345
v -0.23146163 2.55587023 0.28454490
v -0.22047194 2.55587023 0.28454490
v -0.22047194 2.55587023 0.12223436
v -0.22230366 2.55515717 0.06701243
v -0.27871038 2.50106943 0.04902448
v -0.38404775 2.41179005 0.05032932
v -0.38404775 2.35910746 0.11866939
v -0.48942218 2.35908648 0.11866939
v -0.57094846 2.34253929 0.17135158
v -0.57094846 2.47676245 0.28454490
v -0.20342677 2.52625724 0.28454490
v -0.18907265 2.50106943 0.28454490
v -0.18929690 2.50106943 0.22759875
v -0.19546451 2.50106943 0.12223436
v -0.21363157 2.50106943 0.06051159
v -0.21322013 2.42926004 0.06002225
v -0.27871038 2.41575383 0.05279918
v -0.28390622 2.36021900 0.13134483
v -0.32251994 2.34268609 0.17253990
v -0.38404775 2.34253929 0.17135158
v -0.57094846 2.34241345 0.18409690
v -0.57094846 2.34205692 0.28454490
v -0.19206301 2.44566043 0.28454490
v -0.19482912 2.39857746 0.22759875
v -0.20099704 2.40916850 0.12223436
v -0.26540309 2.34587390 0.22759875
v -0.31810899 2.34253929 0.22759875
v -0.38404775 2.34205692 0.22759875
v -0.57094846 2.34205692 0.22759875
v -0.38404775 2.34205692 0.28454490
v -0.19464224 2.39853552 0.28454490
v -0.22708836 2.37431243 0.28454490
v -0.26540309 2.34583195 0.28454490
v -0.31810899 2.34253929 0.28454490
v -0.34842439 2.34230859 0.28454490
f 1 2 7
f 1 7 3
f 1 3 9
f 1 9 4
f 1 4 10
f 1 10 20
f 1 20 32
f 1 32 40
f 1 40 33
f 1 33 21
f 1 21 11
f 1 11 5
f 1 5 2
f 2 5 6
f 2 6 7
f 3 8 9
f 3 7 8
f 4 9 19
f 4 19 10
f 5 11 12
f 5 12 6
f 6 12 13
f 6 13 14
f 6 14 7
f 7 14 15
f 7 15 16
f 7 16 8
f 8 17 9
f 8 16 17
f 9 17 18
f 9 18 19
f 10 19 31
f 10 31 20
f 11 21 12
f 12 21 33
f 12 33 41
f 12 41 46
f 12 46 45
f 12 45 44
f 12 44 43
f 12 43 42
f 12 42 34
f 12 34 23
f 12 23 22
f 12 22 13
f 13 22 14
f 14 22 23
f 14 23 24
f 14 24 15
f 15 24 25
f 15 25 26
f 15 26 16
f 16 26 27
f 16 27 28
f 16 28 17
f 17 28 18
f 18 28 29
f 18 29 30
f 18 30 31
f 18 31 19
f 20 31 32
f 23 34 24
f 24 34 35
f 24 35 25
f 25 35 36
f 25 36 27
f 25 27 26
f 27 36 29
f 27 29 28
f 29 36 37
f 29 37 30
f 30 38 39
f 30 39 31
f 30 37 38
f 31 39 32
f 32 39 40
f 33 40 39
f 33 39 41
f 34 42 35
f 35 42 37
f 35 37 36
f 37 42 43
f 37 43 44
f 37 44 38
f 38 45 46
f 38 46 39
f 38 44 45
f 39 46 41

