# https://github.com/mikedh/trimesh
v -4.55226373 2.50671622 0.28193104
v -4.55226373 2.35071346 0.28193104
v -4.55226373 2.50883563 0.25752248
v -4.89565498 2.52633431 0.28193104
v -4.63795182 2.34267059 0.28193104
v -4.75594539 2.34252567 -0.17898934
v -4.55226373 2.39484058 -0.17898934
v -4.55226373 2.51142601 0.22756443
v -4.89565498 2.34386614 0.28193104
v -4.89565498 2.52707700 0.21208912
v -4.66387008 2.34243509 0.28193104
v -4.81033665 2.34203657 -0.17898934
v -4.55226373 2.50983192 -0.17898934
v -4.89565498 2.52709512 0.10669466
v -4.89565498 2.52709512 -0.17898934
v -4.87262783 2.34252567 0.28193104
v -4.89565498 2.34386614 -0.17898934
v -4.88012432 2.34296042 -0.17898934
v -4.75601260 2.34203657 0.28193104
v -4.86378677 2.34245321 -0.17898934
v -4.81033665 2.34203657 0.28193104
v -4.84052422 2.34227207 0.28193104
v -4.87262783 2.34252567 -0.17898934
f 1 2 7
f 1 7 13
f 1 13 8
f 1 8 3
f 1 3 4
f 1 4 9
f 1 9 16
f 1 16 22
f 1 22 21
f 1 21 19
f 1 19 11
f 1 11 5
f 1 5 2
f 2 5 6
f 2 6 7
f 3 8 4
f 4 8 10
f 4 10 14
f 4 14 15
f 4 15 17
f 4 17 9
f 5 11 6
f 6 12 20
f 6 20 23
f 6 23 18
f 6 18 17
f 6 17 15
f 6 15 13
f 6 13 7
f 6 11 12
f 8 14 10
f 8 13 15
f 8 15 14
f 9 17 18
f 9 18 16
f 11 19 12
f 12 19 21
f 12 21 20
f 16 18 23
f 16 23 20
f 16 20 22
f 20 21 22

