# https://github.com/mikedh/trimesh
v -5.37489460 2.50783189 -4.40840923
v -5.82370763 2.50783189 -4.40840923
v -5.37489460 2.40203852 -4.40840923
v -5.37489460 2.51650851 -4.72562711
v -5.82370763 2.40203852 -4.40840923
v -5.82370763 2.51650851 -4.72562711
v -5.37489460 2.34253188 -4.77675664
v -5.37489460 2.50740488 -4.90916338
v -5.82370763 2.34253188 -4.77675664
v -5.82370763 2.50740488 -4.90916338
v -5.82370763 2.34222445 -4.81014029
v -5.37489460 2.34205365 -4.83097422
v -5.37489460 2.34205365 -4.90916338
v -5.82370763 2.34205365 -4.90916338
v -5.82370763 2.34205365 -4.83097422
f 1 2 5
f 1 5 3
f 1 3 7
f 1 7 12
f 1 12 13
f 1 13 8
f 1 8 4
f 1 4 6
f 1 6 2
f 2 6 10
f 2 10 14
f 2 14 15
f 2 15 11
f 2 11 9
f 2 9 5
f 3 5 9
f 3 9 7
f 4 8 10
f 4 10 6
f 7 9 11
f 7 11 12
f 8 13 14
f 8 14 10
f 11 15 12
f 12 15 14
f 12 14 13

