# https://github.com/mikedh/trimesh
v -0.33997624 2.50107048 -1.68809231
v -0.33997624 2.44201328 -1.69782348
v -0.33997624 2.52272860 -1.68929320
v -0.43239421 2.50077626 -1.56349264
v -0.43352208 2.44441610 -1.56349264
v -0.33997624 2.41144672 -1.77480281
v -0.33997624 2.55455378 -1.69918997
v -0.43567227 2.55427590 -1.56349264
v -0.48949474 2.41406204 -1.56349264
v -0.33997624 2.38859536 -1.88010587
v -0.33997624 2.55455378 -1.70304099
v -0.39422146 2.55471724 -1.67960349
v -0.43570745 2.55457013 -1.56403093
v -0.44540061 2.55457013 -1.56349264
v -0.59481326 2.38857902 -1.56349264
v -0.48949474 2.38772904 -1.88010587
v -0.33997624 2.38944534 -1.98648559
v -0.33997624 2.55447205 -1.73032951
v -0.38410554 2.55453743 -1.73095060
v -0.43591914 2.55461916 -1.67931360
v -0.44585854 2.55461916 -1.66937545
v -0.49781285 2.54677320 -1.56349264
v -0.69925048 2.38942899 -1.56349264
v -0.59481326 2.38772904 -1.77480281
v -0.59481326 2.38817037 -1.88010587
v -0.70006112 2.38944534 -1.98648559
v -0.33997624 2.49856957 -1.98648559
v -0.33997624 2.55148077 -1.75240052
v -0.38410554 2.54724723 -1.78358144
v -0.44314457 2.55437398 -1.72896302
v -0.44540061 2.55458647 -1.67931360
v -0.49858832 2.54672416 -1.66937545
v -0.49805972 2.54672416 -1.56403093
v -0.49858832 2.54659340 -1.56349264
v -0.69981441 2.38944534 -1.56349264
v -0.70006112 2.38944534 -1.67931360
v -0.70006112 2.49886380 -1.98648559
v -0.69921515 2.49886380 -1.98648559
v -0.33997624 2.54724723 -1.78296035
v -0.69981441 2.49953398 -1.56349264
v -0.70006112 2.49938687 -1.77492703
v -0.70006112 2.49948494 -1.67943781
v -0.70006112 2.39094915 -1.67931360
f 1 2 6
f 1 6 10
f 1 10 17
f 1 17 27
f 1 27 39
f 1 39 28
f 1 28 18
f 1 18 11
f 1 11 7
f 1 7 3
f 1 3 4
f 1 4 5
f 1 5 2
f 2 5 6
f 3 7 8
f 3 8 4
f 4 8 14
f 4 14 22
f 4 22 34
f 4 34 40
f 4 40 35
f 4 35 23
f 4 23 15
f 4 15 9
f 4 9 5
f 5 9 6
f 6 9 10
f 7 11 12
f 7 12 13
f 7 13 8
f 8 13 14
f 9 15 10
f 10 16 17
f 10 15 16
f 11 18 12
f 12 18 19
f 12 19 20
f 12 20 21
f 12 21 14
f 12 14 13
f 14 21 22
f 15 23 24
f 15 24 16
f 16 24 25
f 16 25 26
f 16 26 17
f 17 26 37
f 17 37 38
f 17 38 27
f 18 28 19
f 19 28 29
f 19 29 30
f 19 30 20
f 20 31 21
f 20 30 31
f 21 31 32
f 21 32 22
f 22 32 33
f 22 33 34
f 23 35 36
f 23 36 26
f 23 26 24
f 24 26 25
f 26 36 43
f 26 43 42
f 26 42 41
f 26 41 37
f 27 38 29
f 27 29 39
f 28 39 29
f 29 38 37
f 29 37 30
f 30 37 32
f 30 32 31
f 32 40 33
f 32 37 41
f 32 41 42
f 32 42 40
f 33 40 34
f 35 40 43
f 35 43 36
f 40 42 43

