# https://github.com/mikedh/trimesh
v -4.89568859 2.34385049 -2.93403983
v -5.04369149 2.34762303 -2.93403983
v -4.89568859 2.34387145 -3.03944881
v -4.89568859 2.34385049 -2.93079805
v -5.04369149 2.34804221 -3.03944881
v -4.89568859 2.34389240 -3.09806870
v -5.04369149 2.34762303 -2.93079805
v -4.89568859 2.52709143 -2.93079805
v -5.04369149 2.38886954 -3.14666235
v -5.00071785 2.40060634 -3.27222401
v -4.92411558 2.34791646 -3.27222401
v -4.91817521 2.34726675 -3.27222401
v -4.91308961 2.34672182 -3.27222401
v -4.89568859 2.34496130 -3.27222401
v -4.89568859 2.34435349 -3.20217425
v -5.04369149 2.55714604 -2.93079805
v -4.96310494 2.55586758 -2.93079805
v -4.89568859 2.52709143 -3.27222401
v -5.04369149 2.50074648 -3.16978953
v -5.00560055 2.48014419 -3.27222401
v -5.02113248 2.55796344 -2.93079805
v -5.04369149 2.55756522 -3.04138716
v -4.96310494 2.55586758 -3.27222401
v -5.04369149 2.50133332 -3.16938845
v -5.00662917 2.50108182 -3.27222401
v -5.02113248 2.55796344 -3.03944881
v -4.97436270 2.55586758 -3.27222401
v -5.04369149 2.55616099 -3.12714474
f 1 2 3
f 1 3 6
f 1 6 15
f 1 15 14
f 1 14 18
f 1 18 8
f 1 8 4
f 1 4 7
f 1 7 2
f 2 5 6
f 2 6 3
f 2 7 16
f 2 16 22
f 2 22 28
f 2 28 24
f 2 24 19
f 2 19 9
f 2 9 5
f 4 8 17
f 4 17 21
f 4 21 16
f 4 16 7
f 5 9 10
f 5 10 11
f 5 11 12
f 5 12 13
f 5 13 14
f 5 14 15
f 5 15 6
f 8 18 23
f 8 23 17
f 9 19 10
f 10 20 25
f 10 25 27
f 10 27 23
f 10 23 18
f 10 18 14
f 10 14 13
f 10 13 12
f 10 12 11
f 10 19 20
f 16 21 22
f 17 23 26
f 17 26 21
f 19 24 25
f 19 25 20
f 21 26 22
f 22 26 27
f 22 27 28
f 23 27 26
f 24 28 25
f 25 28 27

