# https://github.com/mikedh/trimesh
v -0.18893508 2.50107277 0.64910834
v -0.22046094 2.55587121 0.74237810
v -0.18927146 2.50107277 0.74237810
v -0.19446981 2.39850886 0.64910834
v -0.18893508 2.50107277 0.33304000
v -0.23209136 2.55587121 0.74237810
v -0.22046094 2.55587121 0.28454506
v -0.19417049 2.41033511 0.74237810
v -0.19480619 2.39859259 0.74237810
v -0.26541251 2.34588730 0.74237810
v -0.26541251 2.34582451 0.64910834
v -0.19446981 2.39850886 0.33304000
v -0.19461932 2.39855072 0.28454506
v -0.19207620 2.44568826 0.28454506
v -0.18912196 2.50107277 0.28454506
v -0.20344499 2.52625326 0.28454506
v -0.23149303 2.55587121 0.28454506
v -0.57094814 2.48872324 0.54373720
v -0.57094814 2.47626905 0.74237810
v -0.31204692 2.34291504 0.74237810
v -0.26541251 2.34582451 0.33304000
v -0.26541251 2.34584543 0.28454506
v -0.22708020 2.37433309 0.28454506
v -0.57094814 2.47677141 0.28454506
v -0.57094814 2.48868138 0.43845589
v -0.57094814 2.34205685 0.74237810
v -0.31810522 2.34255921 0.74237810
v -0.31810522 2.34255921 0.28454506
v -0.57094814 2.34205685 0.28454506
v -0.38631792 2.34203593 0.74237810
v -0.32565949 2.34249641 0.74237810
v -0.34843444 2.34232896 0.28454506
v -0.38631792 2.34205685 0.28454506
f 1 2 3
f 1 3 4
f 1 4 12
f 1 12 5
f 1 5 7
f 1 7 2
f 2 6 19
f 2 19 26
f 2 26 30
f 2 30 31
f 2 31 27
f 2 27 20
f 2 20 10
f 2 10 9
f 2 9 8
f 2 8 3
f 2 7 17
f 2 17 6
f 3 8 4
f 4 8 9
f 4 9 10
f 4 10 11
f 4 11 21
f 4 21 12
f 5 12 13
f 5 13 14
f 5 14 15
f 5 15 16
f 5 16 7
f 6 17 18
f 6 18 19
f 7 16 15
f 7 15 14
f 7 14 13
f 7 13 23
f 7 23 22
f 7 22 28
f 7 28 32
f 7 32 33
f 7 33 29
f 7 29 24
f 7 24 17
f 10 20 11
f 11 20 21
f 12 21 22
f 12 22 23
f 12 23 13
f 17 24 25
f 17 25 18
f 18 25 24
f 18 24 29
f 18 29 26
f 18 26 19
f 20 27 28
f 20 28 21
f 21 28 22
f 26 29 30
f 27 31 28
f 28 31 30
f 28 30 32
f 29 33 30
f 30 33 32

