# https://github.com/mikedh/trimesh
v -1.75362110 2.44479831 -4.31563855
v -1.75362110 2.43932417 -4.31563855
v -1.75362110 2.55794715 -4.31612663
v -1.75411326 2.55794715 -4.31563855
v -1.96489574 2.40018496 -4.31563855
v -1.96489574 2.40015148 -4.51492127
v -1.96489574 2.40015148 -5.14652464
v -1.75362110 2.44190221 -5.14652464
v -1.96489574 2.55796387 -4.31563855
v -1.75362110 2.55794715 -5.14652464
v -1.97648406 2.39874528 -4.31563855
v -2.07026467 2.38694325 -4.51492127
v -2.07026467 2.38694325 -5.14652464
v -2.02149514 2.55587133 -4.31563855
v -1.96520895 2.55794715 -5.14652464
v -2.02149514 2.55587133 -5.14652464
v -2.07026467 2.38767983 -4.31563855
v -2.07026467 2.38731154 -4.40950475
v -2.21066697 2.38938736 -4.31563855
v -2.21066697 2.38935388 -4.40950475
v -2.21066697 2.38935388 -5.14652464
v -2.21066697 2.49873610 -4.37452871
v -2.21066697 2.49866914 -4.31563855
v -2.21066697 2.49888676 -5.04175889
v -2.21066697 2.49888676 -5.14652464
f 1 2 8
f 1 8 10
f 1 10 3
f 1 3 4
f 1 4 9
f 1 9 14
f 1 14 23
f 1 23 19
f 1 19 17
f 1 17 11
f 1 11 5
f 1 5 2
f 2 5 6
f 2 6 7
f 2 7 8
f 3 9 4
f 3 10 9
f 5 11 12
f 5 12 6
f 6 12 13
f 6 13 7
f 7 13 21
f 7 21 25
f 7 25 16
f 7 16 15
f 7 15 10
f 7 10 8
f 9 10 15
f 9 15 16
f 9 16 14
f 11 17 18
f 11 18 12
f 12 18 19
f 12 19 20
f 12 20 21
f 12 21 13
f 14 22 23
f 14 16 25
f 14 25 24
f 14 24 22
f 17 19 18
f 19 23 22
f 19 22 24
f 19 24 25
f 19 25 21
f 19 21 20

