# https://github.com/mikedh/trimesh
v -4.89568859 2.52708352 -0.61261507
v -4.96314138 2.55587095 -0.61261507
v -4.89568859 2.34385430 -0.61261507
v -4.89568859 2.52708352 -1.14691495
v -5.02116593 2.55796342 -0.61261507
v -4.96314138 2.55587095 -1.14691495
v -5.23187396 2.34203657 -0.61261507
v -4.89568859 2.34385430 -1.14691495
v -5.37489460 2.55181281 -0.82631410
v -5.07923727 2.55587095 -0.61261507
v -5.02116593 2.55796342 -1.14691495
v -5.37489460 2.34203657 -0.61261507
v -5.23187396 2.34203657 -1.14691495
v -5.37489460 2.50985756 -0.72092899
v -5.37489460 2.55020647 -0.93164691
v -5.37489460 2.46219556 -0.61261507
v -5.07923727 2.55587095 -1.14691495
v -5.37489460 2.34203657 -1.14691495
v -5.37489460 2.52241243 -0.99942810
v -5.37489460 2.46088512 -1.14691495
v -5.37489460 2.50694077 -1.03703202
f 1 2 5
f 1 5 10
f 1 10 16
f 1 16 12
f 1 12 7
f 1 7 3
f 1 3 8
f 1 8 4
f 1 4 6
f 1 6 2
f 2 6 11
f 2 11 5
f 3 7 13
f 3 13 8
f 4 8 13
f 4 13 18
f 4 18 20
f 4 20 17
f 4 17 11
f 4 11 6
f 5 9 10
f 5 11 9
f 7 12 18
f 7 18 13
f 9 14 10
f 9 11 15
f 9 15 19
f 9 19 21
f 9 21 20
f 9 20 18
f 9 18 12
f 9 12 16
f 9 16 14
f 10 14 16
f 11 17 15
f 15 17 19
f 17 20 21
f 17 21 19

