# https://github.com/mikedh/trimesh
v -3.17203244 2.38944037 -3.98774381
v -3.33470096 2.38881405 -3.97763355
v -3.45025349 2.41915803 -3.97763355
v -3.17203244 2.49913036 -3.98774381
v -1.85989255 2.38688561 -3.98774381
v -3.33470096 2.38883053 -3.56641348
v -3.32443546 2.38879756 -3.97763355
v -3.44999029 2.42136667 -3.46907638
v -3.44999029 2.50630017 -3.46907638
v -3.44893734 2.51721148 -3.97763355
v -3.33470096 2.38897887 -3.46907638
v -3.33470096 2.52713385 -3.97763355
v -1.75460543 2.51404687 -3.98774381
v -0.76122208 2.38688561 -3.98774381
v -3.22941384 2.38869867 -3.56641348
v -3.17203244 2.38944037 -3.46077145
v -3.39155595 2.55406600 -3.70398560
v -3.40050529 2.55454399 -3.77707880
v -3.17203244 2.49891608 -3.46077145
v -3.33470096 2.52624381 -3.46907638
v -3.40076857 2.55449454 -3.85068773
v -0.76122208 2.38868219 -3.56641348
v -0.76122208 2.38944037 -3.46077145
v -0.76122208 2.55469233 -3.83160198
v -0.76122208 2.51404687 -3.98774381
v -3.33470096 2.55068712 -3.65291825
v -3.33470096 2.55423082 -3.70563609
v -3.33470096 2.55526921 -3.77707880
v -0.76122208 2.49858644 -3.46077145
v -0.76122208 2.54831366 -3.66478234
v -3.33470096 2.55479122 -3.84640618
v -0.76122208 2.55518680 -3.77707880
v -0.76122208 2.55423082 -3.71750018
f 1 2 3
f 1 3 4
f 1 4 13
f 1 13 25
f 1 25 14
f 1 14 5
f 1 5 2
f 2 6 3
f 2 5 7
f 2 7 6
f 3 8 9
f 3 9 10
f 3 10 4
f 3 6 11
f 3 11 8
f 4 10 12
f 4 12 13
f 5 14 11
f 5 11 15
f 5 15 6
f 5 6 7
f 6 15 11
f 8 11 16
f 8 16 19
f 8 19 9
f 9 17 18
f 9 18 10
f 9 19 20
f 9 20 17
f 10 18 21
f 10 21 12
f 11 14 22
f 11 22 23
f 11 23 16
f 12 21 24
f 12 24 25
f 12 25 13
f 14 25 24
f 14 24 32
f 14 32 33
f 14 33 30
f 14 30 29
f 14 29 23
f 14 23 22
f 16 23 29
f 16 29 19
f 17 20 26
f 17 26 27
f 17 27 28
f 17 28 18
f 18 28 21
f 19 29 20
f 20 29 30
f 20 30 26
f 21 28 31
f 21 31 24
f 24 31 32
f 26 30 33
f 26 33 27
f 27 33 32
f 27 32 28
f 28 32 31

