# https://github.com/mikedh/trimesh
v -3.66086197 2.38061767 -3.15461692
v -3.54627268 2.38759325 -3.14481712
v -3.66086197 2.38061767 -3.03705159
v -3.66086197 2.38144236 -3.25017428
v -3.54627268 2.38828050 -3.25017428
v -3.54627268 2.38759325 -3.03705159
v -3.66086197 2.38554869 -3.03705159
v -3.66086197 2.38444909 -3.26178020
v -3.54627268 2.42152624 -3.36245488
v -3.54627268 2.50313720 -3.03705159
v -3.66053662 2.53749972 -3.03705159
v -3.66086197 2.53767153 -3.03942636
v -3.66086197 2.41422420 -3.35081552
v -3.66086197 2.42735068 -3.35419362
v -3.54631753 2.42154342 -3.36245488
v -3.54627268 2.50767306 -3.37870998
v -3.54627268 2.55543695 -3.29917372
v -3.66086197 2.55610702 -3.25589370
v -3.66086197 2.50107546 -3.36486310
v -3.66086197 2.55571185 -3.31827188
v -3.54627268 2.55543695 -3.32305470
v -3.66086197 2.55614139 -3.25786707
v -3.66086197 2.55586649 -3.30910747
v -3.66086197 2.55614139 -3.25907109
f 1 2 6
f 1 6 3
f 1 3 7
f 1 7 12
f 1 12 18
f 1 18 22
f 1 22 24
f 1 24 23
f 1 23 20
f 1 20 19
f 1 19 14
f 1 14 13
f 1 13 8
f 1 8 4
f 1 4 5
f 1 5 2
f 2 5 9
f 2 9 16
f 2 16 21
f 2 21 17
f 2 17 10
f 2 10 6
f 3 6 10
f 3 10 11
f 3 11 7
f 4 8 5
f 5 8 9
f 7 11 12
f 8 13 9
f 9 13 14
f 9 14 15
f 9 15 16
f 10 17 11
f 11 17 18
f 11 18 12
f 14 19 16
f 14 16 15
f 16 19 20
f 16 20 21
f 17 21 24
f 17 24 22
f 17 22 18
f 20 23 21
f 21 23 24

