# https://github.com/mikedh/trimesh
v -3.17218528 2.34205347 2.55364693
v -3.17218528 2.34205347 2.96772954
v -3.17218528 2.46133104 2.55364693
v -3.01875340 2.34205347 2.55364693
v -3.17218528 2.45813837 2.96772954
v -2.70264229 2.34205347 2.96772954
v -3.17218528 2.46131415 2.59418346
v -2.91339838 2.51459293 2.55364693
v -3.01245051 2.34207036 2.55364693
v -2.70218224 2.34205347 2.75693858
v -2.70264229 2.45834108 2.96772954
v -2.70264229 2.50212630 2.75693858
v -2.80799733 2.51312329 2.65154310
v -2.91339838 2.50677173 2.65154310
v -2.70218224 2.34205347 2.96768902
v -2.70264229 2.51330910 2.65154310
v -2.80799733 2.51168743 2.55364693
v -2.96083114 2.34252645 2.55364693
v -2.70218224 2.34252645 2.70351123
v -2.70218224 2.45839175 2.96724334
v -2.70218224 2.50217698 2.75653310
v -2.70218224 2.51327532 2.65113763
v -2.70218224 2.50859610 2.55364693
v -2.70264229 2.39795057 2.55364693
v -2.70218224 2.39783233 2.55401158
v -2.70218224 2.50243036 2.55364693
f 1 2 5
f 1 5 7
f 1 7 3
f 1 3 8
f 1 8 17
f 1 17 23
f 1 23 26
f 1 26 24
f 1 24 18
f 1 18 9
f 1 9 4
f 1 4 10
f 1 10 15
f 1 15 6
f 1 6 2
f 2 6 11
f 2 11 5
f 3 7 8
f 4 9 10
f 5 11 12
f 5 12 13
f 5 13 14
f 5 14 8
f 5 8 7
f 6 15 11
f 8 14 13
f 8 13 16
f 8 16 17
f 9 18 19
f 9 19 10
f 10 19 25
f 10 25 26
f 10 26 23
f 10 23 22
f 10 22 21
f 10 21 20
f 10 20 15
f 11 15 20
f 11 20 21
f 11 21 12
f 12 21 13
f 13 21 16
f 16 21 22
f 16 22 23
f 16 23 17
f 18 24 25
f 18 25 19
f 24 26 25

