# https://github.com/mikedh/trimesh
v -5.82370763 2.34203657 -3.24842046
v -5.82370763 2.34203657 -2.83111947
v -5.82370763 2.46103636 -3.24842046
v -5.65342572 2.34203657 -3.24842046
v -5.82370763 2.45795716 -2.83111947
v -5.37489460 2.34203657 -2.83111947
v -5.82370763 2.46103636 -3.14478964
v -5.60334286 2.55552817 -3.24842046
v -5.59925714 2.34253930 -3.24842046
v -5.37489460 2.34285350 -3.09234113
v -5.37489460 2.34253930 -3.05827403
v -5.37489460 2.34237172 -3.03944316
v -5.37489460 2.34203657 -2.93405585
v -5.82370763 2.46101541 -3.07992331
v -5.65096553 2.45839704 -2.83111947
v -5.44272616 2.55586334 -3.08821536
v -5.54811991 2.55569576 -3.08850133
v -5.60246422 2.55494167 -3.08989020
v -5.60334286 2.55552817 -3.14478964
v -5.37489460 2.45873219 -2.83111947
v -5.55387497 2.55603092 -3.13968363
v -5.58880123 2.55554914 -3.24842046
v -5.53981672 2.40376732 -3.24842046
v -5.37489460 2.39844679 -3.13662009
v -5.37489460 2.36348627 -3.11170295
v -5.37489460 2.55586334 -3.08821536
v -5.37489460 2.55586334 -3.10059234
v -5.58783481 2.55500450 -3.24842046
v -5.53142558 2.49840577 -3.24842046
v -5.37489460 2.50016532 -3.14413604
v -5.37489460 2.43047472 -3.13939766
f 1 2 5
f 1 5 14
f 1 14 7
f 1 7 3
f 1 3 8
f 1 8 22
f 1 22 28
f 1 28 29
f 1 29 23
f 1 23 9
f 1 9 4
f 1 4 13
f 1 13 6
f 1 6 2
f 2 6 20
f 2 20 15
f 2 15 5
f 3 7 19
f 3 19 8
f 4 9 10
f 4 10 11
f 4 11 12
f 4 12 13
f 5 15 16
f 5 16 17
f 5 17 18
f 5 18 19
f 5 19 14
f 6 13 12
f 6 12 11
f 6 11 10
f 6 10 25
f 6 25 24
f 6 24 31
f 6 31 30
f 6 30 27
f 6 27 26
f 6 26 20
f 7 14 19
f 8 19 21
f 8 21 22
f 9 23 24
f 9 24 25
f 9 25 10
f 15 20 16
f 16 20 26
f 16 26 21
f 16 21 17
f 17 21 19
f 17 19 18
f 21 26 27
f 21 27 22
f 22 27 28
f 23 29 30
f 23 30 31
f 23 31 24
f 27 30 28
f 28 30 29

