# https://github.com/mikedh/trimesh
v -5.01009222 2.50783297 3.41730296
v -5.89227148 2.50783297 3.41730296
v -5.01009222 2.40199340 3.41730296
v -5.01009222 2.50783297 2.33540064
v -5.96905607 2.50783297 3.41709095
v -5.96905607 2.50566280 3.41730296
v -5.96905607 2.40177535 3.41730296
v -5.01009222 2.40204532 2.33518864
v -5.01009222 2.49674333 2.33508279
v -5.02116875 2.50783297 2.33508279
v -5.96905607 2.50783297 2.33540064
v -5.96905607 2.40182727 2.33518864
v -5.02116875 2.40204532 2.33508279
v -5.86420458 2.50783297 2.33508279
v -5.96905607 2.50726187 2.33508279
v -5.86420458 2.40204532 2.33508279
f 1 2 6
f 1 6 7
f 1 7 3
f 1 3 8
f 1 8 9
f 1 9 4
f 1 4 10
f 1 10 14
f 1 14 11
f 1 11 5
f 1 5 2
f 2 5 6
f 3 7 12
f 3 12 8
f 4 9 10
f 5 11 15
f 5 15 12
f 5 12 7
f 5 7 6
f 8 12 13
f 8 13 9
f 9 13 16
f 9 16 15
f 9 15 14
f 9 14 10
f 11 14 15
f 12 15 16
f 12 16 13

