# https://github.com/mikedh/trimesh
v -5.01009222 2.40191896 3.46113357
v -5.01009222 2.34253188 3.75664123
v -5.01009222 2.50783189 3.46113357
v -4.07269033 2.39899828 3.46113357
v -4.07204757 2.39882748 3.46135280
v -5.01009222 2.34248065 3.76229029
v -4.07204757 2.34253188 3.75505073
v -5.01009222 2.51650851 3.70541559
v -4.07204757 2.50882252 3.46113357
v -4.07204757 2.40099664 3.46113357
v -5.01009222 2.34205365 3.81077401
v -4.07204757 2.34205365 3.81077401
v -5.01009222 2.45864156 4.02143556
v -4.17810096 2.51650851 3.70541559
v -4.07204757 2.51498839 3.70486720
v -5.01009222 2.34205365 4.02143556
v -4.07204757 2.34205365 4.02143556
v -4.17810096 2.45864156 4.02143556
v -4.07204757 2.45860740 4.02143556
v -4.07269033 2.51500548 3.70541559
v -4.07204757 2.51495423 3.70541559
f 1 2 6
f 1 6 11
f 1 11 16
f 1 16 13
f 1 13 8
f 1 8 3
f 1 3 9
f 1 9 10
f 1 10 4
f 1 4 5
f 1 5 2
f 2 5 7
f 2 7 6
f 3 8 9
f 4 10 5
f 5 10 9
f 5 9 15
f 5 15 21
f 5 21 19
f 5 19 17
f 5 17 12
f 5 12 7
f 6 7 11
f 7 12 11
f 8 13 18
f 8 18 14
f 8 14 9
f 9 14 15
f 11 12 17
f 11 17 16
f 13 16 17
f 13 17 19
f 13 19 18
f 14 18 19
f 14 19 20
f 14 20 15
f 15 20 21
f 19 21 20

