# https://github.com/mikedh/trimesh
v -5.65153668 2.55684659 -3.74479004
v -5.61271802 2.55556467 -3.57955494
v -5.58983330 2.55552262 -3.57955494
v -5.56652065 2.55579583 -3.74479004
v -5.82370763 2.55636324 -3.74479004
v -5.61963345 2.55447186 -3.57955494
v -5.82370763 2.55615310 -3.73796381
v -5.82370763 2.55539653 -3.71347367
v -5.82370763 2.55007964 -3.68104137
v -5.82370763 2.54673819 -3.66078943
v -5.54342205 2.50056733 -3.57955494
v -5.46286173 2.49693166 -3.74479004
v -5.82370763 2.35261884 -3.74479004
v -5.82370763 2.50710312 -3.57955494
v -5.55226217 2.40797342 -3.57955494
v -5.46339645 2.42209578 -3.74479004
v -5.45954661 2.47976207 -3.74479004
v -5.45954661 2.48434343 -3.74479004
v -5.82370763 2.34253143 -3.62104564
v -5.75883172 2.35261884 -3.74479004
v -5.82370763 2.34215316 -3.57955494
v -5.55443671 2.39624682 -3.57955494
v -5.59336232 2.35007596 -3.57955494
v -5.59995676 2.34257346 -3.57955494
v -5.60017065 2.34269956 -3.62038231
v -5.54880461 2.38235564 -3.74479004
v -5.65346168 2.34253143 -3.62104564
v -5.72732046 2.35371163 -3.74479004
v -5.67887742 2.34215316 -3.57955494
v -5.65346168 2.34217418 -3.57955494
v -5.65346168 2.35627551 -3.74479004
f 1 2 3
f 1 3 4
f 1 4 12
f 1 12 18
f 1 18 17
f 1 17 16
f 1 16 26
f 1 26 31
f 1 31 28
f 1 28 20
f 1 20 13
f 1 13 5
f 1 5 2
f 2 6 14
f 2 14 21
f 2 21 29
f 2 29 30
f 2 30 24
f 2 24 23
f 2 23 22
f 2 22 15
f 2 15 11
f 2 11 3
f 2 5 7
f 2 7 8
f 2 8 9
f 2 9 10
f 2 10 6
f 3 11 12
f 3 12 4
f 5 13 19
f 5 19 21
f 5 21 14
f 5 14 10
f 5 10 9
f 5 9 8
f 5 8 7
f 6 10 14
f 11 15 16
f 11 16 17
f 11 17 18
f 11 18 12
f 13 20 27
f 13 27 19
f 15 22 16
f 16 22 23
f 16 23 24
f 16 24 25
f 16 25 26
f 19 27 29
f 19 29 21
f 20 28 25
f 20 25 27
f 24 30 25
f 25 30 27
f 25 28 31
f 25 31 26
f 27 30 29

