# https://github.com/mikedh/trimesh
v -3.65126185 2.45814523 2.33499014
v -3.86190432 2.50089112 2.33499014
v -3.75649102 2.34205340 2.33499014
v -3.65126185 2.34205340 2.33489749
v -3.65126185 2.45814523 1.38788771
v -3.96722560 2.51379396 2.33499014
v -3.86190432 2.50089112 1.49228692
v -3.96722560 2.51387807 1.38788771
v -3.86190432 2.34205340 2.33499014
v -3.65126185 2.34205340 1.38788771
v -3.86190432 2.50087430 1.38788771
v -4.12152488 2.50830983 2.33499014
v -3.96823827 2.51384442 1.38788771
v -3.86291704 2.50100888 1.38788771
v -3.91553162 2.34252442 2.33499014
v -3.86190432 2.34205340 1.38788771
v -4.12152488 2.40057875 2.33499014
v -4.12152488 2.50836030 1.43582225
v -4.12152488 2.50836030 1.38788771
v -4.12152488 2.40025912 1.38788771
v -3.91553162 2.34252442 1.49228692
v -3.91502529 2.34252442 1.38788771
v -3.91603796 2.34279359 1.38788771
f 1 2 6
f 1 6 12
f 1 12 17
f 1 17 15
f 1 15 9
f 1 9 3
f 1 3 4
f 1 4 10
f 1 10 5
f 1 5 7
f 1 7 2
f 2 7 8
f 2 8 6
f 3 9 16
f 3 16 10
f 3 10 4
f 5 10 16
f 5 16 22
f 5 22 23
f 5 23 20
f 5 20 19
f 5 19 13
f 5 13 8
f 5 8 14
f 5 14 11
f 5 11 7
f 6 8 13
f 6 13 12
f 7 11 14
f 7 14 8
f 9 15 21
f 9 21 16
f 12 13 18
f 12 18 19
f 12 19 20
f 12 20 17
f 13 19 18
f 15 17 20
f 15 20 21
f 16 21 22
f 20 23 21
f 21 23 22

