# https://github.com/mikedh/trimesh
v -2.70322891 2.50860651 2.55360642
v -2.91342382 2.51617555 2.44067865
v -2.91342382 2.51520385 2.54608450
v -2.80802799 2.51169209 2.55360642
v -2.70322891 2.40724280 2.55360642
v -2.70322891 2.50785643 1.54289759
v -2.91342382 2.51617555 1.59772841
v -3.01872786 2.49585508 2.44067865
v -3.17218528 2.46131709 2.55360642
v -2.91342382 2.51460719 2.55360642
v -2.96084276 2.34251390 2.55360642
v -2.70322891 2.39786674 2.55350748
v -2.70322891 2.40279344 1.54250169
v -2.75285125 2.50940774 1.54250169
v -2.85824708 2.51361845 1.54250169
v -2.91342382 2.51542546 1.54250169
v -3.01872786 2.49585508 1.59772841
v -3.17218528 2.46233993 2.48877919
v -3.17218528 2.34205363 2.55360642
v -3.01243898 2.34207067 2.55360642
v -3.01872786 2.34205363 1.54250169
v -2.99302156 2.34227524 1.54250169
v -2.96451510 2.34253096 1.54250169
v -2.70322891 2.40136146 1.54250169
v -2.96359702 2.50574256 1.54250169
v -3.01872786 2.49454243 1.54250169
v -3.17218528 2.46186260 1.54250169
v -3.17218528 2.46233993 1.59772841
v -3.01872786 2.34205363 2.55360642
v -3.17218528 2.34205363 1.54250169
f 1 2 3
f 1 3 4
f 1 4 10
f 1 10 9
f 1 9 19
f 1 19 29
f 1 29 20
f 1 20 11
f 1 11 5
f 1 5 12
f 1 12 24
f 1 24 13
f 1 13 6
f 1 6 7
f 1 7 2
f 2 8 3
f 2 7 17
f 2 17 8
f 3 8 9
f 3 9 10
f 3 10 4
f 5 11 12
f 6 13 14
f 6 14 15
f 6 15 7
f 7 15 16
f 7 16 17
f 8 18 9
f 8 17 28
f 8 28 18
f 9 18 28
f 9 28 27
f 9 27 30
f 9 30 19
f 11 20 21
f 11 21 22
f 11 22 23
f 11 23 12
f 12 23 24
f 13 24 23
f 13 23 22
f 13 22 21
f 13 21 30
f 13 30 27
f 13 27 26
f 13 26 25
f 13 25 16
f 13 16 15
f 13 15 14
f 16 25 17
f 17 25 26
f 17 26 27
f 17 27 28
f 19 30 21
f 19 21 29
f 20 29 21

