# https://github.com/mikedh/trimesh
v -0.47183648 2.45840725 1.80905801
v -0.49008992 2.45840725 1.80905801
v -0.47183648 2.34205658 1.80905801
v -0.47183648 2.55568370 1.55080175
v -0.69924797 2.45796756 1.80905801
v -0.69924797 2.34205658 1.80905801
v -0.59482488 2.34203563 1.49229053
v -0.47183648 2.34205658 1.70300328
v -0.48946678 2.55564181 1.55069826
v -0.47183648 2.55591400 1.50553453
v -0.49545473 2.55593495 1.49736058
v -0.69924797 2.45809318 1.80740249
v -0.54375974 2.55486713 1.54831847
v -0.69924797 2.34205658 1.28059502
v -0.59578189 2.34203563 1.28054320
v -0.59482488 2.34203563 1.28054320
v -0.47183648 2.34234971 1.62840280
v -0.54122196 2.34253814 1.28054320
v -0.54456096 2.55541151 1.49229053
v -0.47183648 2.49726758 1.40015225
v -0.48514817 2.50107824 1.28054320
v -0.53118237 2.55541151 1.28054320
v -0.54444977 2.55541151 1.28054320
v -0.54456096 2.55541151 1.28152612
v -0.69924797 2.46586106 1.49229053
v -0.69924797 2.46586106 1.28054320
v -0.47183648 2.34245440 1.61515895
v -0.49518745 2.39569891 1.28054320
v -0.47183648 2.34680943 1.58003153
v -0.47183648 2.49328942 1.39394413
v -0.49507627 2.39666204 1.28054320
v -0.47183648 2.41339125 1.40077303
v -0.47183648 2.40595837 1.40341147
v -0.47183648 2.36852180 1.50667261
v -0.47183648 2.35172978 1.56135549
f 1 2 5
f 1 5 6
f 1 6 3
f 1 3 8
f 1 8 17
f 1 17 27
f 1 27 29
f 1 29 35
f 1 35 34
f 1 34 33
f 1 33 32
f 1 32 30
f 1 30 20
f 1 20 10
f 1 10 4
f 1 4 2
f 2 4 5
f 3 6 7
f 3 7 16
f 3 16 8
f 4 9 5
f 4 10 11
f 4 11 9
f 5 12 25
f 5 25 26
f 5 26 14
f 5 14 6
f 5 9 13
f 5 13 12
f 6 14 15
f 6 15 7
f 7 15 16
f 8 16 18
f 8 18 17
f 9 11 19
f 9 19 13
f 10 20 21
f 10 21 22
f 10 22 11
f 11 22 23
f 11 23 24
f 11 24 19
f 12 13 25
f 13 19 25
f 14 26 15
f 15 26 23
f 15 23 22
f 15 22 21
f 15 21 31
f 15 31 28
f 15 28 18
f 15 18 16
f 17 18 27
f 18 28 29
f 18 29 27
f 19 24 26
f 19 26 25
f 20 30 21
f 21 30 32
f 21 32 33
f 21 33 31
f 23 26 24
f 28 31 33
f 28 33 34
f 28 34 35
f 28 35 29

