# https://github.com/mikedh/trimesh
v -2.68429286 2.48267937 -5.05973436
v -2.68429286 2.49058872 -5.05895105
v -2.68429286 2.42904106 -5.05899596
v -3.17218528 2.41862977 -5.03802447
v -3.17218528 2.45620726 -5.03853925
v -3.17218528 2.50108072 -5.03914354
v -2.68429286 2.54505026 -5.00767515
v -3.17218528 2.55383125 -4.99019498
v -2.68429286 2.42331081 -5.05006570
v -3.17218528 2.38913919 -4.93641210
v -2.80799737 2.41862977 -5.03802447
v -2.68429286 2.38907463 -4.93641210
v -2.68429286 2.55397653 -4.99729007
v -3.17218528 2.55383125 -4.98896410
v -3.17218528 2.38942973 -4.83110707
v -2.68429286 2.38942973 -4.83110707
v -2.68429286 2.55397653 -4.99628281
v -3.17218528 2.49878862 -4.83110707
v -2.68429286 2.55383125 -4.98896410
v -2.68429286 2.49878862 -4.83110707
f 1 2 7
f 1 7 13
f 1 13 17
f 1 17 19
f 1 19 20
f 1 20 16
f 1 16 12
f 1 12 9
f 1 9 3
f 1 3 4
f 1 4 5
f 1 5 6
f 1 6 2
f 2 6 8
f 2 8 7
f 3 9 4
f 4 10 15
f 4 15 18
f 4 18 14
f 4 14 8
f 4 8 6
f 4 6 5
f 4 9 11
f 4 11 12
f 4 12 10
f 7 8 13
f 8 14 17
f 8 17 13
f 9 12 11
f 10 12 15
f 12 16 15
f 14 18 20
f 14 20 19
f 14 19 17
f 15 16 20
f 15 20 18

