# https://github.com/mikedh/trimesh
v -3.01851342 2.43940608 -2.51296312
v -3.01813967 2.44182562 -1.03720964
v -3.01888718 2.43950051 -2.51238521
v -3.01888718 2.55796343 -2.51281864
v -3.01851342 2.55796343 -2.51296312
v -1.10992311 2.43738784 -2.51296312
v -3.01888718 2.55432823 -1.67935678
v -3.01888718 2.44193184 -1.67964574
v -1.12150955 2.44169579 -1.03720964
v -1.12188330 2.44170760 -1.03692061
v -2.91311394 2.44186103 -1.03692061
v -3.01813967 2.55796343 -1.03692061
v -3.01888718 2.55796343 -1.67935678
v -1.10992311 2.55796343 -2.51296312
v -1.10992311 2.44005523 -1.67935678
v -1.12150955 2.55796343 -1.03692061
v -1.10992311 2.55796343 -1.67935678
f 1 2 3
f 1 3 4
f 1 4 5
f 1 5 14
f 1 14 6
f 1 6 2
f 2 7 8
f 2 8 3
f 2 6 9
f 2 9 10
f 2 10 11
f 2 11 12
f 2 12 7
f 3 8 7
f 3 7 13
f 3 13 4
f 4 13 12
f 4 12 16
f 4 16 17
f 4 17 14
f 4 14 5
f 6 14 17
f 6 17 15
f 6 15 9
f 7 12 13
f 9 15 16
f 9 16 10
f 10 16 12
f 10 12 11
f 15 17 16

