# https://github.com/mikedh/trimesh
v -3.17218528 2.49959497 -0.61598531
v -3.44811286 2.49915406 -0.61598531
v -3.17218528 2.38943763 -0.61598531
v -3.17218528 2.55496192 -0.77146232
v -3.44811286 2.38930197 -0.61598531
v -3.18066621 2.55484321 -0.77169929
v -3.28497635 2.55516541 -0.87432363
v -3.28675897 2.55586067 -0.93167950
v -3.44811286 2.50451270 -1.02932661
v -3.17218528 2.38840321 -0.66362384
v -3.17218528 2.55526715 -0.77975758
v -3.33491665 2.38686006 -0.82644805
v -3.22955315 2.38718226 -0.72097971
v -3.44811286 2.38714834 -1.03738490
v -3.33491665 2.38507950 -1.03738490
v -3.17218528 2.55691205 -0.83024019
v -3.22134231 2.55608112 -0.83403232
v -3.22955315 2.55796343 -0.93167950
v -3.28719112 2.55586067 -1.02932661
v -3.44811286 2.50451270 -2.40705192
v -3.17218528 2.38741967 -0.72097971
v -3.44811286 2.38714834 -2.41463619
v -3.33491665 2.38472339 -1.14261627
v -3.17218528 2.55796343 -0.93167950
v -3.22955315 2.55796343 -2.51228345
v -3.28721813 2.55584372 -2.40705192
v -3.28705607 2.55584372 -2.51228345
v -3.44811286 2.50378352 -2.51228345
v -3.17218528 2.38567302 -2.72298316
v -3.44811286 2.38736879 -2.52010469
v -3.33491665 2.38472339 -2.30134660
v -3.17218528 2.55796343 -2.56963932
v -3.22987726 2.55628462 -2.61798877
v -3.28532747 2.55516541 -2.58314857
v -3.44811286 2.49837401 -3.03701830
v -3.33491665 2.38507950 -2.40705192
v -3.44811286 2.38930197 -3.03701830
v -3.17218528 2.38943763 -3.03701830
v -3.17218528 2.55720033 -2.61775179
v -3.19495416 2.55516541 -2.67534464
v -3.26523251 2.55162124 -2.65330292
v -3.17218528 2.55538586 -2.67652967
v -3.17218528 2.49793311 -3.03701830
f 1 2 5
f 1 5 3
f 1 3 10
f 1 10 21
f 1 21 29
f 1 29 38
f 1 38 43
f 1 43 42
f 1 42 39
f 1 39 32
f 1 32 24
f 1 24 16
f 1 16 11
f 1 11 4
f 1 4 2
f 2 4 6
f 2 6 7
f 2 7 8
f 2 8 9
f 2 9 20
f 2 20 28
f 2 28 35
f 2 35 37
f 2 37 30
f 2 30 22
f 2 22 14
f 2 14 5
f 3 5 10
f 4 11 6
f 5 12 13
f 5 13 10
f 5 14 15
f 5 15 12
f 6 11 16
f 6 16 17
f 6 17 7
f 7 17 18
f 7 18 8
f 8 18 19
f 8 19 9
f 9 19 20
f 10 13 21
f 12 15 13
f 13 15 21
f 14 22 31
f 14 31 23
f 14 23 15
f 15 23 21
f 16 24 18
f 16 18 17
f 18 24 32
f 18 32 25
f 18 25 19
f 19 25 26
f 19 26 20
f 20 26 27
f 20 27 28
f 21 23 29
f 22 30 31
f 23 31 29
f 25 32 33
f 25 33 34
f 25 34 27
f 25 27 26
f 27 34 35
f 27 35 28
f 29 31 36
f 29 36 37
f 29 37 38
f 30 37 36
f 30 36 31
f 32 39 33
f 33 39 40
f 33 40 34
f 34 40 41
f 34 41 35
f 35 41 40
f 35 40 42
f 35 42 43
f 35 43 38
f 35 38 37
f 39 42 40

