# https://github.com/mikedh/trimesh
v -0.06783619 2.38944793 -4.09334972
v -0.06783619 2.49838378 -4.09357649
v -0.06790403 2.49914676 -3.98811474
v -0.06790403 2.38944793 -3.98811474
v -0.06783619 2.38943098 -4.51496964
v -0.06783619 2.49838378 -5.14660567
v -0.48936565 2.51233775 -3.98811474
v -0.32740610 2.55586122 -5.04171115
v -0.32740610 2.55586122 -4.40973466
v -0.32747394 2.55584426 -4.30404614
v -0.32883140 2.55514912 -4.23804771
v -0.42331947 2.55514912 -4.14131772
v -0.48936565 2.38690469 -3.98811474
v -0.48936565 2.38512441 -4.09334972
v -0.38415297 2.38609084 -4.09334972
v -0.27873676 2.38670122 -4.40973466
v -0.06790403 2.38943098 -4.40973466
v -0.06783619 2.38943098 -5.14637890
v -0.06783619 2.46038764 -5.14660567
v -0.32774562 2.55586122 -5.14660567
v -0.59478217 2.51408411 -3.98811474
v -0.48936565 2.55584426 -4.13780221
v -0.38415297 2.55796363 -5.14660567
v -0.38415297 2.55794667 -4.30404614
v -0.38666467 2.55626815 -4.20119283
v -0.48936565 2.55794667 -4.19869809
v -0.59478217 2.38488704 -4.09334972
v -0.76122177 2.38690469 -3.98811474
v -0.70013053 2.38475140 -4.09334972
v -0.27873676 2.38670122 -5.14660567
v -0.06790403 2.38943098 -5.14660567
v -0.59478217 2.54107646 -4.08393735
v -0.70013053 2.54109341 -4.08393735
v -0.76122177 2.51408411 -3.98811474
v -0.59478217 2.55584426 -4.13666838
v -0.38469601 2.55796363 -5.14660567
v -0.76122177 2.55794667 -4.19869809
v -0.70013053 2.55584426 -4.13655500
v -0.76122177 2.38475140 -4.09334972
v -0.76122177 2.44204233 -5.14660567
v -0.76122177 2.54109341 -4.08393735
v -0.76122177 2.55794667 -5.14660567
v -0.76122177 2.55584426 -4.13655500
f 1 2 3
f 1 3 4
f 1 4 17
f 1 17 5
f 1 5 18
f 1 18 19
f 1 19 6
f 1 6 2
f 2 6 3
f 3 7 21
f 3 21 34
f 3 34 28
f 3 28 13
f 3 13 4
f 3 6 8
f 3 8 9
f 3 9 10
f 3 10 11
f 3 11 12
f 3 12 7
f 4 13 14
f 4 14 15
f 4 15 16
f 4 16 17
f 5 17 16
f 5 16 30
f 5 30 18
f 6 19 31
f 6 31 30
f 6 30 40
f 6 40 42
f 6 42 36
f 6 36 23
f 6 23 20
f 6 20 8
f 7 12 22
f 7 22 21
f 8 20 23
f 8 23 9
f 9 23 24
f 9 24 10
f 10 24 11
f 11 24 25
f 11 25 12
f 12 25 26
f 12 26 22
f 13 27 14
f 13 28 39
f 13 39 29
f 13 29 27
f 14 27 30
f 14 30 16
f 14 16 15
f 18 30 31
f 18 31 19
f 21 22 32
f 21 32 33
f 21 33 41
f 21 41 34
f 22 26 35
f 22 35 32
f 23 36 37
f 23 37 26
f 23 26 24
f 24 26 25
f 26 37 43
f 26 43 38
f 26 38 35
f 27 29 30
f 28 34 41
f 28 41 43
f 28 43 37
f 28 37 42
f 28 42 40
f 28 40 39
f 29 39 30
f 30 39 40
f 32 35 38
f 32 38 33
f 33 38 43
f 33 43 41
f 36 42 37

