# https://github.com/mikedh/trimesh
v -3.35150904 2.50107296 3.46118822
v -3.35491393 2.43266931 3.46118822
v -3.38217639 2.55587123 3.46118822
v -3.38266614 2.55587123 4.02117110
v -3.35393444 2.50107296 4.02117110
v -3.35890186 2.40076994 4.02117110
v -3.35698952 2.40062342 3.46118822
v -3.39295078 2.55587123 3.46118822
v -3.39295078 2.55587123 3.91613682
v -3.39313735 2.55576657 4.02117110
v -3.43175723 2.34808573 4.02117110
v -3.43175723 2.34793921 3.46118822
v -3.58973495 2.47239701 3.46118822
v -3.58973495 2.47269005 4.02117110
v -3.48443980 2.34253893 4.02117110
v -3.46769519 2.34415064 3.46118822
v -3.58973495 2.34203657 3.46118822
v -3.58973495 2.34203657 4.02117110
v -3.54586779 2.34203657 4.02117110
v -3.50391299 2.34237147 3.46118822
v -3.48443980 2.34253893 3.46118822
v -3.54570454 2.34203657 3.46118822
v -3.54570454 2.34203657 3.91613682
f 1 2 7
f 1 7 12
f 1 12 16
f 1 16 21
f 1 21 20
f 1 20 22
f 1 22 17
f 1 17 13
f 1 13 8
f 1 8 3
f 1 3 4
f 1 4 5
f 1 5 6
f 1 6 2
f 2 6 7
f 3 8 9
f 3 9 4
f 4 9 10
f 4 10 14
f 4 14 18
f 4 18 19
f 4 19 15
f 4 15 11
f 4 11 6
f 4 6 5
f 6 11 7
f 7 11 12
f 8 13 14
f 8 14 9
f 9 14 10
f 11 15 16
f 11 16 12
f 13 17 18
f 13 18 14
f 15 19 20
f 15 20 21
f 15 21 16
f 17 22 23
f 17 23 19
f 17 19 18
f 19 23 20
f 20 23 22

