# https://github.com/mikedh/trimesh
v -3.66087316 2.38063474 -4.44465542
v -3.66087316 2.38061767 -4.40945858
v -3.66087316 2.53765661 -4.44465542
v -3.17218528 2.38944641 -4.44465542
v -3.66087316 2.38061767 -4.30405085
v -3.17218528 2.38936102 -3.97768003
v -3.66087316 2.55333318 -4.16280619
v -3.47766303 2.55416995 -4.04592540
v -3.17218528 2.49795288 -4.44465542
v -3.66087316 2.38109581 -4.19873452
v -3.17218528 2.50182932 -3.97768003
v -3.32473282 2.38879749 -3.97768003
v -3.66087316 2.55507502 -4.10731407
v -3.47766303 2.55416995 -4.03216646
v -3.66087316 2.40782113 -4.09332680
v -3.33496963 2.38881457 -3.97768003
v -3.33496963 2.52713725 -3.97768003
v -3.66087316 2.55502379 -4.08528193
v -3.54568517 2.55422118 -4.03404058
v -3.66087316 2.55422118 -4.03646340
v -3.66087316 2.44021596 -4.03102384
v -3.45025328 2.41914309 -3.97768003
v -3.44915305 2.51723267 -3.97768003
v -3.66087316 2.55492133 -4.07888253
v -3.66087316 2.54843212 -4.03394919
v -3.66087316 2.50107794 -4.02864687
f 1 2 5
f 1 5 10
f 1 10 15
f 1 15 21
f 1 21 26
f 1 26 25
f 1 25 20
f 1 20 24
f 1 24 18
f 1 18 13
f 1 13 7
f 1 7 3
f 1 3 9
f 1 9 4
f 1 4 2
f 2 4 6
f 2 6 5
f 3 7 8
f 3 8 9
f 4 9 11
f 4 11 6
f 5 6 10
f 6 11 17
f 6 17 23
f 6 23 22
f 6 22 16
f 6 16 12
f 6 12 10
f 7 13 8
f 8 13 14
f 8 14 11
f 8 11 9
f 10 12 16
f 10 16 15
f 11 14 17
f 13 18 14
f 14 18 19
f 14 19 20
f 14 20 17
f 15 16 21
f 16 22 21
f 17 20 23
f 18 24 19
f 19 24 20
f 20 25 23
f 21 22 26
f 22 23 26
f 23 25 26

