# https://github.com/mikedh/trimesh
v -1.20720964 2.38835679 -6.09597278
v -1.20720964 2.51326808 -6.09597278
v -0.58818176 2.38835679 -6.09597278
v -1.20720964 2.38830628 -6.09564237
v -2.26693251 2.38845780 -6.08160013
v -2.28118589 2.38850829 -6.08160013
v -0.59497690 2.51326808 -6.09597278
v -2.28118589 2.51101227 -6.08160013
v -1.85905364 2.51528821 -6.08160013
v -1.75397632 2.55461339 -5.93919399
v -0.58818176 2.51325125 -6.09597278
v -0.58818176 2.38830628 -6.09564237
v -2.05611502 2.38813794 -6.08160013
v -1.96479382 2.38706054 -5.99024218
v -1.96479382 2.38598313 -5.88488314
v -2.07020264 2.38731305 -5.67854302
v -2.28118589 2.38945103 -5.67879083
v -0.59497690 2.55461339 -5.93919399
v -2.28118589 2.49843697 -5.67854302
v -2.02131015 2.55582547 -5.67854302
v -2.02031577 2.55523625 -5.77956555
v -2.01865837 2.55432721 -5.83366974
v -1.88921765 2.55202089 -5.92250845
v -1.81894520 2.55432721 -5.93865723
v -1.75397632 2.55670085 -5.88488314
v -1.20720964 2.55670085 -5.88492459
v -0.58818176 2.55457971 -5.93911139
v -0.58818176 2.38823895 -6.08895150
v -1.96479382 2.38813794 -6.08160013
v -0.58818176 2.38763291 -5.99024218
v -2.28102014 2.38945103 -5.67854302
v -0.58818176 2.38781808 -5.98359277
v -0.58818176 2.39234654 -5.88492459
v -0.58818176 2.39372696 -5.87827488
v -0.58818176 2.44091380 -5.67408276
v -1.20720964 2.44183970 -5.67408276
v -2.28118589 2.49081098 -5.67854302
v -0.59497690 2.55670085 -5.88492459
v -0.58818176 2.55646517 -5.89029349
v -1.20720964 2.55796344 -5.67408276
v -1.96479382 2.55791293 -5.67854302
v -1.96479382 2.55732371 -5.77956555
v -1.96479382 2.55523625 -5.84837312
v -1.85607034 2.55577496 -5.88636999
v -1.85938499 2.55794660 -5.77956555
v -1.20720964 2.55796344 -5.77956555
v -0.58818176 2.55796344 -5.67408276
v -0.58818176 2.55796344 -5.77956555
v -0.58818176 2.55665035 -5.88504834
v -1.96048463 2.55794660 -5.67854302
f 1 2 7
f 1 7 11
f 1 11 3
f 1 3 12
f 1 12 4
f 1 4 5
f 1 5 6
f 1 6 8
f 1 8 2
f 2 8 9
f 2 9 10
f 2 10 18
f 2 18 7
f 3 11 27
f 3 27 39
f 3 39 49
f 3 49 48
f 3 48 47
f 3 47 35
f 3 35 34
f 3 34 33
f 3 33 32
f 3 32 30
f 3 30 28
f 3 28 12
f 4 12 29
f 4 29 13
f 4 13 5
f 5 13 14
f 5 14 15
f 5 15 6
f 6 16 17
f 6 17 37
f 6 37 19
f 6 19 8
f 6 15 16
f 7 18 11
f 8 19 20
f 8 20 21
f 8 21 22
f 8 22 23
f 8 23 24
f 8 24 9
f 9 24 10
f 10 24 25
f 10 25 26
f 10 26 38
f 10 38 18
f 11 18 27
f 12 28 15
f 12 15 14
f 12 14 29
f 13 29 14
f 15 28 30
f 15 30 16
f 16 31 17
f 16 30 32
f 16 32 33
f 16 33 34
f 16 34 35
f 16 35 36
f 16 36 31
f 17 31 37
f 18 38 39
f 18 39 27
f 19 37 36
f 19 36 40
f 19 40 20
f 20 40 41
f 20 41 42
f 20 42 21
f 21 42 22
f 22 42 43
f 22 43 24
f 22 24 23
f 24 44 25
f 24 43 44
f 25 44 42
f 25 42 45
f 25 45 46
f 25 46 26
f 26 46 48
f 26 48 38
f 31 36 37
f 35 47 40
f 35 40 36
f 38 48 49
f 38 49 39
f 40 47 48
f 40 48 46
f 40 46 50
f 40 50 41
f 41 50 42
f 42 50 45
f 42 44 43
f 45 50 46

