# https://github.com/mikedh/trimesh
v -3.64342640 2.46040335 1.01518070
v -4.01714270 2.47507623 1.01518070
v -3.64342640 2.34203657 1.01518070
v -3.64342640 2.55396648 0.80726296
v -4.07195884 2.47666701 1.01485751
v -4.07195884 2.47492970 1.01518070
v -4.07195884 2.34203657 1.01518070
v -3.64342640 2.34203657 0.85986584
v -3.75851943 2.55476187 0.76385055
v -3.65111329 2.55396648 0.80754013
v -3.64342640 2.55396648 0.80393778
v -3.79640771 2.55587123 0.64917712
v -3.75654520 2.55396648 0.80754013
v -3.80968120 2.55388275 0.80740147
v -3.81278958 2.55490838 0.75456773
v -3.81493181 2.55559912 0.67808795
v -3.81568788 2.55587123 0.64917712
v -3.81568788 2.55587123 0.54378651
v -4.07254695 2.45851953 0.54341715
v -4.07254695 2.45843580 0.67804178
v -4.07254695 2.34203657 0.67808795
v -3.64342640 2.34249707 0.81003394
v -3.96719906 2.34203657 0.54341715
v -3.90956852 2.34253893 0.54341715
v -3.64342640 2.50419173 0.74205192
v -3.80497670 2.55587123 0.54341715
v -3.81581390 2.55578751 0.54341715
v -4.07254695 2.34203657 0.54341715
v -3.64342640 2.34253893 0.80610840
v -3.85697855 2.35338136 0.54341715
v -3.64342640 2.40146067 0.74394552
v -3.67408987 2.44079068 0.69462163
v -3.67408987 2.47179000 0.69462163
v -3.78132798 2.50107296 0.54341715
v -3.78557047 2.40606557 0.54341715
f 1 2 6
f 1 6 7
f 1 7 3
f 1 3 8
f 1 8 22
f 1 22 29
f 1 29 31
f 1 31 25
f 1 25 11
f 1 11 4
f 1 4 2
f 2 5 6
f 2 4 5
f 3 7 21
f 3 21 28
f 3 28 23
f 3 23 8
f 4 9 10
f 4 10 5
f 4 11 12
f 4 12 9
f 5 10 13
f 5 13 14
f 5 14 15
f 5 15 16
f 5 16 17
f 5 17 18
f 5 18 19
f 5 19 20
f 5 20 6
f 6 20 21
f 6 21 7
f 8 23 24
f 8 24 22
f 9 15 13
f 9 13 10
f 9 12 15
f 11 25 26
f 11 26 12
f 12 26 18
f 12 18 17
f 12 17 15
f 13 15 14
f 15 17 16
f 18 26 27
f 18 27 19
f 19 27 26
f 19 26 34
f 19 34 35
f 19 35 30
f 19 30 24
f 19 24 23
f 19 23 28
f 19 28 21
f 19 21 20
f 22 24 29
f 24 30 29
f 25 31 32
f 25 32 33
f 25 33 34
f 25 34 26
f 29 30 35
f 29 35 31
f 31 35 32
f 32 35 34
f 32 34 33

