# https://github.com/mikedh/trimesh
v -6.49663650 2.34203657 -3.42740256
v -6.49663650 2.45902723 -3.42717894
v -6.49656928 2.45900387 -3.42740256
v -6.38230605 2.34203657 -3.42740256
v -6.49663650 2.34203657 -1.14399163
v -6.38230605 2.45843160 -3.42740256
v -6.49663650 2.46135140 -1.14376808
v -6.38230605 2.34203657 -1.14376808
v -6.49656928 2.34203657 -1.14376808
v -6.49663650 2.45551179 -1.14376808
v -6.38230605 2.46075576 -1.14376808
f 1 2 3
f 1 3 6
f 1 6 4
f 1 4 8
f 1 8 9
f 1 9 5
f 1 5 10
f 1 10 7
f 1 7 2
f 2 6 3
f 2 7 6
f 4 6 11
f 4 11 8
f 5 9 10
f 6 7 11
f 7 10 9
f 7 9 8
f 7 8 11

