# https://github.com/mikedh/trimesh
v 0.14923638 2.55626116 3.18479551
v 0.03749522 2.55586275 3.23911579
v 0.14286274 2.55584178 3.23903570
v 0.19880179 2.55582082 3.17846176
v 0.18515215 2.55582082 3.07350945
v -0.06800925 2.55586275 3.22744989
v -0.06800925 2.55586275 3.23911579
v 0.03749522 2.50106953 3.27826251
v 0.19770753 2.55514978 3.23636978
v 0.19882912 2.55561111 3.07350945
v 0.21067342 2.50106953 3.17846176
v 0.21141214 2.50077596 3.07350945
v 0.13219467 2.54367949 3.07350945
v -0.06800925 2.47219457 3.07350945
v -0.06800925 2.50094371 3.27824241
v -0.06789995 2.50106953 3.27826251
v 0.03749522 2.39569795 3.27082602
v 0.14286274 2.50106953 3.26990388
v 0.20276801 2.50106953 3.24637169
v 0.20818433 2.42222433 3.07350945
v 0.20298692 2.43243646 3.24621151
v 0.20744561 2.42331474 3.17846176
v -0.06800925 2.34205805 3.07350945
v -0.06800925 2.39563504 3.27076572
v -0.06789995 2.39569795 3.27082602
v 0.03749522 2.34268713 3.23167930
v 0.09130040 2.34279198 3.23149902
v 0.13301536 2.39666255 3.25605323
v 0.14494164 2.37063944 3.17846176
v 0.14510590 2.36940224 3.07350945
v 0.03749522 2.34203709 3.07350945
v -0.06789995 2.34220484 3.17846176
v -0.06800925 2.34220484 3.17832136
v -0.06800925 2.34268713 3.23159921
v -0.06789995 2.34268713 3.23167930
v 0.03749522 2.34220484 3.17846176
v 0.09225772 2.34260326 3.17846176
v 0.09261357 2.34254036 3.07350945
f 1 2 3
f 1 3 4
f 1 4 5
f 1 5 6
f 1 6 7
f 1 7 2
f 2 7 16
f 2 16 8
f 2 8 3
f 3 9 4
f 3 8 9
f 4 10 5
f 4 9 11
f 4 11 12
f 4 12 10
f 5 10 12
f 5 12 20
f 5 20 30
f 5 30 38
f 5 38 31
f 5 31 23
f 5 23 14
f 5 14 13
f 5 13 6
f 6 14 23
f 6 23 33
f 6 33 34
f 6 34 24
f 6 24 15
f 6 15 7
f 6 13 14
f 7 15 16
f 8 16 25
f 8 25 17
f 8 17 18
f 8 18 9
f 9 19 11
f 9 18 19
f 11 20 12
f 11 19 21
f 11 21 22
f 11 22 20
f 15 24 25
f 15 25 16
f 17 26 27
f 17 27 28
f 17 28 18
f 17 25 35
f 17 35 26
f 18 28 21
f 18 21 19
f 20 22 29
f 20 29 30
f 21 28 27
f 21 27 29
f 21 29 22
f 23 31 32
f 23 32 33
f 24 34 35
f 24 35 25
f 26 36 27
f 26 35 32
f 26 32 36
f 27 37 29
f 27 36 37
f 29 37 30
f 30 37 38
f 31 38 37
f 31 37 36
f 31 36 32
f 32 34 33
f 32 35 34

