# https://github.com/mikedh/trimesh
v -6.40394025 2.50058710 0.53133666
v -6.40394025 2.55619826 0.56026790
v -6.40394025 2.40345629 0.55075314
v -6.70733448 2.42796966 0.58565145
v -6.76377481 2.44201924 0.59248914
v -6.70733448 2.50106940 0.58216798
v -6.76217268 2.55514978 0.59419853
v -6.40394025 2.55619826 0.56268695
v -6.70733448 2.55584178 0.59300518
v -6.71356114 2.55626118 0.64299790
v -6.40394025 2.35780565 0.64619100
v -6.60195502 2.36439008 0.64628774
v -6.65628316 2.34268662 0.69992520
v -6.69775784 2.37942522 0.65854411
v -6.76916381 2.43052794 0.64919063
v -6.77240481 2.50106940 0.64919063
v -6.76446673 2.50106940 0.59174728
v -6.77590021 2.50106940 0.75453020
v -6.76326506 2.55582082 0.64919063
v -6.40394025 2.55586275 0.60539048
v -6.74997410 2.55582082 0.86080526
v -6.76326506 2.55582082 0.86080526
v -6.40394025 2.34253985 0.69886078
v -6.60195502 2.34253985 0.69895752
v -6.60195502 2.34203657 0.75453020
v -6.65708438 2.34253985 0.75453020
v -6.70977426 2.36950664 0.75453020
v -6.77265953 2.42220304 0.75453020
v -6.77590021 2.50106940 0.86080526
v -6.40394025 2.55412229 0.61174434
v -6.74946434 2.55571595 0.86080526
v -6.40394025 2.54141475 0.65809246
v -6.40394025 2.34203657 0.75453020
v -6.65664749 2.34251887 0.86080526
v -6.60195502 2.34203657 0.86080526
v -6.65708438 2.34253985 0.85993431
v -6.65752126 2.34274954 0.86080526
v -6.70977426 2.36950664 0.86080526
v -6.77265953 2.42220304 0.85993431
v -6.77265953 2.42285310 0.86080526
v -6.69717522 2.54359558 0.86080526
v -6.40394025 2.45860612 0.86080526
v -6.40394025 2.34203657 0.86067617
v -6.49573791 2.34203657 0.86080526
v -6.77211334 2.42178365 0.86080526
v -6.40394025 2.44522757 0.86080526
f 1 2 8
f 1 8 20
f 1 20 30
f 1 30 32
f 1 32 42
f 1 42 46
f 1 46 43
f 1 43 33
f 1 33 23
f 1 23 11
f 1 11 3
f 1 3 4
f 1 4 5
f 1 5 6
f 1 6 7
f 1 7 2
f 2 7 9
f 2 9 10
f 2 10 8
f 3 11 12
f 3 12 4
f 4 12 13
f 4 13 14
f 4 14 5
f 5 15 16
f 5 16 17
f 5 17 6
f 5 14 15
f 6 17 7
f 7 17 16
f 7 16 18
f 7 18 19
f 7 19 9
f 8 10 21
f 8 21 20
f 9 19 10
f 10 19 22
f 10 22 21
f 11 23 24
f 11 24 13
f 11 13 12
f 13 24 25
f 13 25 26
f 13 26 27
f 13 27 15
f 13 15 14
f 15 28 16
f 15 27 28
f 16 28 18
f 18 28 39
f 18 39 29
f 18 29 22
f 18 22 19
f 20 21 30
f 21 22 29
f 21 29 40
f 21 40 45
f 21 45 38
f 21 38 37
f 21 37 34
f 21 34 35
f 21 35 44
f 21 44 46
f 21 46 42
f 21 42 41
f 21 41 31
f 21 31 32
f 21 32 30
f 23 33 25
f 23 25 24
f 25 34 26
f 25 33 43
f 25 43 44
f 25 44 35
f 25 35 34
f 26 34 36
f 26 36 37
f 26 37 27
f 27 37 38
f 27 38 39
f 27 39 28
f 29 39 40
f 31 41 32
f 32 41 42
f 34 37 36
f 38 45 39
f 39 45 40
f 43 46 44

