# https://github.com/mikedh/trimesh
v -2.70256750 2.34522424 1.28056880
v -2.70256750 2.34603620 1.29262055
v -2.70256750 2.50933708 1.28056880
v -1.98351398 2.34554902 1.28056880
v -2.70256750 2.40144418 1.54247609
v -1.98351398 2.34619860 1.28967180
v -1.98351398 2.34634474 1.29162052
v -1.98351398 2.40162281 1.54247609
v -2.70256750 2.50958067 1.28146628
v -2.59720107 2.50975930 1.28056880
v -1.98351398 2.37167782 1.28056880
v -2.70256750 2.50784308 1.54247609
v -1.98351398 2.50784308 1.54247609
v -2.70256750 2.51109091 1.38685485
v -2.59720107 2.51000288 1.28149188
v -2.06938368 2.50975930 1.28056880
v -1.98351398 2.50979178 1.28072270
v -2.59720107 2.51112339 1.38688045
v -1.98351398 2.51112339 1.38688045
v -1.98351398 2.51000288 1.28149188
f 1 2 5
f 1 5 12
f 1 12 14
f 1 14 9
f 1 9 3
f 1 3 10
f 1 10 16
f 1 16 11
f 1 11 4
f 1 4 2
f 2 4 6
f 2 6 7
f 2 7 8
f 2 8 5
f 3 9 10
f 4 11 17
f 4 17 20
f 4 20 19
f 4 19 13
f 4 13 8
f 4 8 7
f 4 7 6
f 5 8 13
f 5 13 12
f 9 14 15
f 9 15 10
f 10 15 20
f 10 20 16
f 11 16 17
f 12 18 14
f 12 13 19
f 12 19 18
f 14 18 15
f 15 18 19
f 15 19 20
f 16 20 17

