# https://github.com/mikedh/trimesh
v -3.17218525 2.42032264 -1.03677617
v -3.17218525 2.39688164 -0.87427184
v -3.17218525 2.55796343 -1.03677617
v -1.12183713 2.44169336 -1.03677617
v -1.12143558 2.40017072 -0.82625075
v -3.17218525 2.39222348 -0.82625075
v -1.12143558 2.38778238 -0.72088492
v -3.17218525 2.55796343 -0.93165785
v -1.12143558 2.55796343 -1.03677617
v -1.12143558 2.42786918 -0.93165785
v -3.17218525 2.38778238 -0.76894725
v -1.12143558 2.38943527 -0.61551906
v -1.12183713 2.38943527 -0.61531279
v -3.17218525 2.38739838 -0.72088492
v -3.17218525 2.55691159 -0.83004623
v -3.12400792 2.55771299 -0.82625075
v -3.01861990 2.55796343 -0.82625075
v -1.12143558 2.55796343 -0.82658080
v -1.12143558 2.49924404 -0.61531279
v -3.17218525 2.38943527 -0.61531279
v -3.17218525 2.38840013 -0.66354016
v -3.17218525 2.55527540 -0.77975613
v -3.17218525 2.55497487 -0.77134006
v -3.12400792 2.55562601 -0.77010238
v -3.01861990 2.55585975 -0.76968984
v -1.12183713 2.55796343 -0.82625075
v -1.12143558 2.55585975 -0.76985487
v -1.12143558 2.49991188 -0.61531279
v -3.17218525 2.49957796 -0.61531279
v -3.12420861 2.49972822 -0.61531279
v -3.01882067 2.49974491 -0.61531279
v -1.12183713 2.55585975 -0.76968984
f 1 2 6
f 1 6 11
f 1 11 14
f 1 14 21
f 1 21 20
f 1 20 29
f 1 29 23
f 1 23 22
f 1 22 15
f 1 15 8
f 1 8 3
f 1 3 9
f 1 9 4
f 1 4 5
f 1 5 2
f 2 5 7
f 2 7 6
f 3 8 17
f 3 17 26
f 3 26 18
f 3 18 9
f 4 9 10
f 4 10 5
f 5 10 9
f 5 9 18
f 5 18 27
f 5 27 28
f 5 28 19
f 5 19 12
f 5 12 7
f 6 7 11
f 7 12 13
f 7 13 14
f 7 14 11
f 8 15 16
f 8 16 17
f 12 19 13
f 13 20 21
f 13 21 14
f 13 19 28
f 13 28 31
f 13 31 30
f 13 30 29
f 13 29 20
f 15 22 16
f 16 22 23
f 16 23 24
f 16 24 17
f 17 24 25
f 17 25 32
f 17 32 26
f 18 26 27
f 23 29 24
f 24 29 25
f 25 29 30
f 25 30 31
f 25 31 28
f 25 28 32
f 26 32 27
f 27 32 28

