# https://github.com/mikedh/trimesh
v -1.12823370 2.45868910 0.74246761
v -1.33253920 2.45868910 0.74246761
v -1.12823370 2.34203628 0.74246761
v -1.12823370 2.48881697 0.54373893
v -1.42584587 2.45865883 0.74246761
v -1.22717529 2.48881697 0.54373893
v -1.13386847 2.34203628 0.74246761
v -1.12823370 2.34203628 0.73671962
v -1.12823370 2.49028478 0.23190102
v -1.43769111 2.49662510 0.23190102
v -1.43769111 2.45838646 0.74226770
v -1.43769111 2.34421529 0.74246761
v -1.33253920 2.48845380 0.54373893
v -1.43769111 2.34205141 0.74246761
v -1.43769111 2.34205141 0.23210094
v -1.43369223 2.34205141 0.23190102
v -1.12823370 2.34205141 0.23190102
v -1.43769111 2.47743768 0.54353902
v -1.43769111 2.48845380 0.23190102
f 1 2 5
f 1 5 12
f 1 12 14
f 1 14 7
f 1 7 3
f 1 3 8
f 1 8 17
f 1 17 9
f 1 9 4
f 1 4 6
f 1 6 2
f 2 6 5
f 3 7 8
f 4 9 10
f 4 10 6
f 5 11 12
f 5 6 13
f 5 13 11
f 6 10 13
f 7 14 15
f 7 15 8
f 8 15 16
f 8 16 17
f 9 17 16
f 9 16 19
f 9 19 10
f 10 18 13
f 10 19 15
f 10 15 14
f 10 14 12
f 10 12 11
f 10 11 18
f 11 13 18
f 15 19 16

