# https://github.com/mikedh/trimesh
v -6.53971425 2.47439948 -3.42740272
v -6.69719470 2.54360594 -3.42740272
v -6.53971425 2.34203657 -3.42740272
v -6.53971425 2.53523708 -3.62218544
v -6.74988867 2.55583248 -3.42740272
v -6.53971425 2.54687338 -3.66059345
v -6.60198046 2.34203657 -3.42740272
v -6.53971425 2.34203657 -3.98788326
v -6.76327605 2.55583248 -3.42740272
v -6.53971425 2.55199588 -3.69170378
v -6.53971425 2.55538980 -3.71321204
v -6.53971425 2.55654921 -3.75085180
v -6.53971425 2.55735025 -3.77713377
v -6.70734516 2.55739242 -3.77713377
v -6.65712521 2.34252142 -3.42740272
v -6.60198046 2.34203657 -3.98788326
v -6.53971425 2.48103975 -3.98788326
v -6.77187747 2.51852044 -3.42740272
v -6.76327605 2.55583248 -3.98788326
v -6.53971425 2.55572708 -3.83419692
v -6.74986574 2.55583248 -3.98788326
v -6.70979593 2.36952523 -3.42740272
v -6.70977301 2.36950415 -3.98788326
v -6.65712521 2.34252142 -3.98788326
v -6.69717177 2.54362702 -3.98788326
v -6.77587729 2.50106599 -3.42740272
v -6.77587729 2.50106599 -3.98788326
v -6.75264033 2.40542489 -3.42740272
v -6.77266361 2.42220478 -3.98788326
v -6.77266361 2.42220478 -3.42740272
f 1 2 5
f 1 5 9
f 1 9 18
f 1 18 26
f 1 26 30
f 1 30 28
f 1 28 22
f 1 22 15
f 1 15 7
f 1 7 3
f 1 3 8
f 1 8 17
f 1 17 20
f 1 20 13
f 1 13 12
f 1 12 11
f 1 11 10
f 1 10 6
f 1 6 4
f 1 4 2
f 2 4 6
f 2 6 5
f 3 7 16
f 3 16 8
f 5 6 10
f 5 10 11
f 5 11 12
f 5 12 13
f 5 13 14
f 5 14 9
f 7 15 24
f 7 24 16
f 8 16 24
f 8 24 23
f 8 23 29
f 8 29 27
f 8 27 19
f 8 19 21
f 8 21 25
f 8 25 17
f 9 14 19
f 9 19 18
f 13 20 21
f 13 21 14
f 14 21 19
f 15 22 23
f 15 23 24
f 17 25 20
f 18 19 27
f 18 27 26
f 20 25 21
f 22 28 23
f 23 28 29
f 26 27 29
f 26 29 30
f 28 30 29

