# https://github.com/mikedh/trimesh
v -4.55229718 2.50983192 -0.17898949
v -4.89568200 2.52709512 -0.17898949
v -4.55229718 2.39484058 -0.17898949
v -4.55229718 2.50983192 -3.92983484
v -4.89568200 2.52709512 -3.67128759
v -4.89568200 2.34386614 -0.17898949
v -4.75594131 2.34252567 -0.17898949
v -4.55229718 2.39484058 -3.77699903
v -4.55229718 2.50787555 -4.51612985
v -4.89568200 2.52700455 -3.77699903
v -4.89568200 2.34203657 -3.86233228
v -4.88011788 2.34296042 -0.17898949
v -4.81033163 2.34203657 -0.17898949
v -4.75594131 2.34252567 -3.77699903
v -4.75604213 2.34252567 -3.88228583
v -4.55229718 2.39523910 -3.88228583
v -4.55229718 2.40168789 -4.51612985
v -4.89568200 2.50787555 -4.51612985
v -4.86378065 2.34247132 -0.17898949
v -4.87262155 2.34254379 -0.17898949
v -4.89568200 2.34203657 -3.96761940
v -4.81033163 2.34203657 -3.88228583
v -4.75664720 2.34270681 -3.94469401
v -4.78320368 2.34442770 -4.01431882
v -4.85346058 2.34268870 -4.04148995
v -4.89568200 2.34258001 -4.04233891
v -4.82801344 2.40168789 -4.51612985
v -4.89568200 2.40170601 -4.51612985
v -4.89568200 2.34212715 -3.98672368
v -4.82801344 2.34238075 -3.98290257
v -4.81513864 2.34243509 -3.98247825
f 1 2 6
f 1 6 12
f 1 12 20
f 1 20 19
f 1 19 13
f 1 13 7
f 1 7 3
f 1 3 8
f 1 8 16
f 1 16 17
f 1 17 9
f 1 9 4
f 1 4 5
f 1 5 2
f 2 5 10
f 2 10 18
f 2 18 28
f 2 28 26
f 2 26 29
f 2 29 21
f 2 21 11
f 2 11 6
f 3 7 14
f 3 14 8
f 4 9 10
f 4 10 5
f 6 11 12
f 7 13 22
f 7 22 14
f 8 14 15
f 8 15 16
f 9 17 27
f 9 27 28
f 9 28 18
f 9 18 10
f 11 13 19
f 11 19 20
f 11 20 12
f 11 21 22
f 11 22 13
f 14 22 15
f 15 22 23
f 15 23 16
f 16 23 17
f 17 23 24
f 17 24 25
f 17 25 26
f 17 26 27
f 21 29 30
f 21 30 22
f 22 30 31
f 22 31 23
f 23 31 25
f 23 25 24
f 25 31 30
f 25 30 29
f 25 29 26
f 26 28 27

