# https://github.com/mikedh/trimesh
v -3.77865476 2.50061579 -0.20350884
v -3.78130678 2.50105804 0.28152289
v -3.77865476 2.42229493 -0.21533886
v -3.77865476 2.55606586 -0.35118039
v -3.78349255 2.45207328 0.28152289
v -3.77865476 2.40761635 -0.22268175
v -3.80497120 2.55585526 0.28152289
v -3.77865476 2.55718202 -0.47111262
v -3.78556172 2.40607899 0.28152289
v -3.77865476 2.37556355 -0.40502750
v -3.81563763 2.55585526 0.28152289
v -3.77865476 2.55718202 -3.24954141
v -3.81581249 2.55585526 0.01636674
v -3.85696289 2.35338773 0.28152289
v -3.77865476 2.36195902 -0.51068210
v -4.07638298 2.51579979 0.12528479
v -4.07638298 2.50786031 0.22685995
v -4.07638298 2.50752335 0.23093939
v -4.07638298 2.49661445 0.28152289
v -3.77865476 2.55608691 -3.39884476
v -3.80365976 2.55585526 -3.88591629
v -3.81581249 2.55585526 -3.88591629
v -3.90962486 2.34254201 0.28152289
v -3.85681716 2.34816494 -0.51068210
v -3.77865476 2.36195902 -3.24954141
v -4.07638298 2.51567344 -3.88591629
v -4.07638298 2.34231036 0.28152289
v -3.77865476 2.52051716 -3.49797228
v -3.77984965 2.50105804 -3.88591629
v -3.96724122 2.34203658 0.28152289
v -3.90950830 2.34254201 -0.51068210
v -3.85681716 2.34816494 -3.24954141
v -3.90773056 2.34285791 -3.88591629
v -3.77865476 2.36212749 -3.27279360
v -4.07638298 2.35753648 -3.88591629
v -4.06796059 2.34226824 0.28152289
v -4.07291490 2.35656774 -3.88591629
v -4.02211813 2.34254201 -3.88591629
v -3.96724122 2.34203658 -3.88591629
v -3.77865476 2.50105804 -3.54937177
v -3.78392971 2.40968019 -3.88591629
v -3.77865476 2.40502601 -3.50776265
v -3.91172320 2.34252096 -3.88591629
v -3.90950830 2.34254201 -3.24954141
v -3.90962486 2.34254201 -3.88591629
v -3.85696289 2.35330350 -3.88591629
v -3.78460000 2.40620535 -3.88591629
f 1 2 3
f 1 3 6
f 1 6 10
f 1 10 15
f 1 15 25
f 1 25 34
f 1 34 42
f 1 42 40
f 1 40 28
f 1 28 20
f 1 20 12
f 1 12 8
f 1 8 4
f 1 4 2
f 2 5 6
f 2 6 3
f 2 4 7
f 2 7 11
f 2 11 19
f 2 19 27
f 2 27 36
f 2 36 30
f 2 30 23
f 2 23 14
f 2 14 9
f 2 9 5
f 4 8 7
f 5 9 6
f 6 9 10
f 7 8 11
f 8 12 22
f 8 22 13
f 8 13 11
f 9 14 15
f 9 15 10
f 11 13 16
f 11 16 17
f 11 17 18
f 11 18 19
f 12 20 21
f 12 21 22
f 13 22 16
f 14 23 15
f 15 23 24
f 15 24 32
f 15 32 25
f 16 22 26
f 16 26 35
f 16 35 27
f 16 27 19
f 16 19 18
f 16 18 17
f 20 28 29
f 20 29 21
f 21 29 41
f 21 41 47
f 21 47 46
f 21 46 33
f 21 33 45
f 21 45 43
f 21 43 39
f 21 39 38
f 21 38 37
f 21 37 35
f 21 35 26
f 21 26 22
f 23 30 31
f 23 31 24
f 24 31 44
f 24 44 32
f 25 32 33
f 25 33 34
f 27 35 37
f 27 37 38
f 27 38 39
f 27 39 36
f 28 40 29
f 29 40 42
f 29 42 41
f 30 36 39
f 30 39 43
f 30 43 31
f 31 43 44
f 32 44 45
f 32 45 33
f 33 46 34
f 34 46 47
f 34 47 41
f 34 41 42
f 43 45 44

