# https://github.com/mikedh/trimesh
v -6.49663650 2.46745725 -3.98793791
v -6.69717303 2.54363467 -3.98793791
v -6.60196193 2.34203657 -3.98793791
v -6.49663650 2.34203657 -3.98802052
v -6.49663650 2.47231252 -4.30414633
v -6.74984941 2.55583562 -3.98793791
v -6.49663650 2.47291943 -4.40946643
v -6.69646257 2.54348818 -4.83182098
v -6.69730996 2.54369746 -4.83182098
v -6.65709851 2.34253885 -3.98793791
v -6.60196193 2.34203657 -4.83182098
v -6.49663650 2.34203657 -4.83182098
v -6.76327134 2.55583562 -4.09334062
v -6.76327134 2.55581468 -3.98793791
v -6.74963081 2.55581468 -4.83182098
v -6.74987673 2.55583562 -4.83099495
v -6.49663650 2.47256365 -4.51478653
v -6.49663650 2.46346003 -4.83173838
v -6.49663650 2.45364487 -4.83182098
v -6.70977489 2.36951486 -3.98793791
v -6.70980222 2.36951486 -4.09334062
v -6.65709851 2.34253885 -4.83182098
v -6.77587320 2.50106740 -4.09334062
v -6.76327134 2.55583562 -4.83099495
v -6.77587320 2.50104647 -3.98793791
v -6.76335363 2.55541706 -4.83182098
v -6.77264759 2.42221122 -3.98793791
v -6.70980222 2.36951486 -4.83099495
v -6.70939234 2.36930558 -4.83182098
v -6.77587320 2.50106740 -4.83182098
v -6.77587320 2.50048142 -4.83182098
v -6.77264759 2.42221122 -4.83182098
v -6.71026706 2.36991249 -4.83182098
f 1 2 6
f 1 6 14
f 1 14 25
f 1 25 27
f 1 27 20
f 1 20 10
f 1 10 3
f 1 3 4
f 1 4 12
f 1 12 19
f 1 19 18
f 1 18 17
f 1 17 7
f 1 7 5
f 1 5 2
f 2 5 7
f 2 7 8
f 2 8 9
f 2 9 6
f 3 10 22
f 3 22 11
f 3 11 12
f 3 12 4
f 6 13 14
f 6 9 15
f 6 15 16
f 6 16 24
f 6 24 13
f 7 17 8
f 8 18 19
f 8 19 12
f 8 12 11
f 8 11 22
f 8 22 29
f 8 29 33
f 8 33 32
f 8 32 31
f 8 31 30
f 8 30 26
f 8 26 15
f 8 15 9
f 8 17 18
f 10 20 21
f 10 21 28
f 10 28 22
f 13 23 25
f 13 25 14
f 13 24 30
f 13 30 23
f 15 26 24
f 15 24 16
f 20 27 21
f 21 27 32
f 21 32 28
f 22 28 29
f 23 30 31
f 23 31 25
f 24 26 30
f 25 31 27
f 27 31 32
f 28 32 33
f 28 33 29

