# https://github.com/mikedh/trimesh
v -6.38225140 2.34203657 -4.83129521
v -6.38225140 2.34203657 -4.83101159
v -6.38225140 2.47026047 -4.83129521
v -6.18037720 2.34203657 -4.83129521
v -6.38225140 2.34212197 -4.50953981
v -6.18037720 2.34203657 -4.83101159
v -6.38225140 2.49722711 -4.62917037
v -6.28574346 2.50525391 -4.72558659
v -6.28880544 2.48173709 -4.83129521
v -6.18015860 2.34203657 -4.83123208
v -5.82376228 2.34205365 -4.83129521
v -6.38000949 2.34213904 -4.50953981
v -6.38225140 2.50158208 -4.50953981
v -5.82376228 2.34205365 -4.83101159
v -5.82376228 2.34224151 -4.81009664
v -5.82376228 2.34254892 -4.77674000
v -6.38225140 2.49791025 -4.62028785
v -6.28574346 2.51348566 -4.62028785
v -6.28574346 2.48211282 -4.83129521
v -6.18037720 2.51322948 -4.72558659
v -6.18015860 2.51319533 -4.72583880
v -5.82376228 2.49415302 -4.83129521
v -6.33746944 2.34253184 -4.50953981
v -6.29115665 2.51153873 -4.50953981
v -6.38225140 2.50168455 -4.52377709
v -5.82376228 2.40184479 -4.50953981
v -6.28574346 2.51208524 -4.50953981
v -5.96969994 2.51650852 -4.72558659
v -6.07501124 2.51517641 -4.72558659
v -6.18037720 2.49002007 -4.83129521
v -6.07501124 2.49283799 -4.83129521
v -5.96969994 2.49415302 -4.83129521
v -5.82376228 2.51650852 -4.72558659
v -5.82376228 2.50781566 -4.50953981
f 1 2 5
f 1 5 13
f 1 13 25
f 1 25 17
f 1 17 7
f 1 7 3
f 1 3 9
f 1 9 19
f 1 19 30
f 1 30 31
f 1 31 32
f 1 32 22
f 1 22 11
f 1 11 4
f 1 4 10
f 1 10 6
f 1 6 2
f 2 6 5
f 3 7 8
f 3 8 9
f 4 11 10
f 5 12 23
f 5 23 26
f 5 26 34
f 5 34 27
f 5 27 24
f 5 24 13
f 5 6 14
f 5 14 15
f 5 15 16
f 5 16 12
f 6 10 14
f 7 17 18
f 7 18 8
f 8 19 9
f 8 18 20
f 8 20 21
f 8 21 19
f 10 11 14
f 11 22 33
f 11 33 34
f 11 34 26
f 11 26 16
f 11 16 15
f 11 15 14
f 12 16 23
f 13 24 18
f 13 18 25
f 16 26 23
f 17 25 18
f 18 24 27
f 18 27 28
f 18 28 29
f 18 29 20
f 19 21 30
f 20 29 21
f 21 29 31
f 21 31 30
f 22 32 28
f 22 28 33
f 27 34 33
f 27 33 28
f 28 32 31
f 28 31 29

