# https://github.com/mikedh/trimesh
v 0.20706997 2.50106034 -1.98562792
v 0.19878609 2.55583562 -1.98562792
v 0.20381546 2.43890959 -1.98562792
v 0.20386949 2.43963075 -3.98912797
v 0.20706997 2.50106034 -3.98912797
v 0.18514964 2.55583562 -1.98562792
v 0.19878609 2.55583562 -3.98912797
v 0.14284201 2.40840786 -1.98562792
v 0.14286902 2.40840786 -3.20400691
v 0.20381546 2.43890959 -3.20381077
v 0.20378877 2.43890959 -3.98912797
v -0.03639356 2.50345328 -1.98562792
v 0.17831807 2.55583562 -3.56626492
v 0.14921659 2.55578645 -3.87399755
v -0.06770051 2.55518001 -3.77710801
v -0.06770051 2.55424579 -3.71748354
v 0.18517665 2.55583562 -3.98912797
v 0.03751689 2.38839571 -1.98562792
v 0.14163186 2.40816201 -3.98912797
v 0.14286902 2.40840786 -3.98912797
v -0.03639356 2.38913326 -1.98562792
v -0.06770051 2.49840517 -3.20400691
v -0.06770051 2.55467193 -3.83163307
v -0.06770051 2.49919189 -3.98912797
v -0.06770051 2.38867434 -3.56626492
v 0.03751689 2.38839571 -3.98912797
v -0.06770051 2.38942828 -3.20400691
v -0.06770051 2.38942828 -3.98912797
v -0.06770051 2.38867434 -3.88243125
f 1 2 6
f 1 6 12
f 1 12 21
f 1 21 18
f 1 18 8
f 1 8 3
f 1 3 4
f 1 4 5
f 1 5 7
f 1 7 2
f 2 7 17
f 2 17 13
f 2 13 6
f 3 8 9
f 3 9 20
f 3 20 10
f 3 10 4
f 4 11 20
f 4 20 19
f 4 19 26
f 4 26 28
f 4 28 24
f 4 24 17
f 4 17 7
f 4 7 5
f 4 10 11
f 6 13 14
f 6 14 15
f 6 15 16
f 6 16 12
f 8 18 19
f 8 19 9
f 9 19 20
f 10 20 11
f 12 16 22
f 12 22 27
f 12 27 21
f 13 17 14
f 14 17 15
f 15 17 23
f 15 23 24
f 15 24 28
f 15 28 29
f 15 29 25
f 15 25 27
f 15 27 22
f 15 22 16
f 17 24 23
f 18 21 25
f 18 25 29
f 18 29 26
f 18 26 19
f 21 27 25
f 26 29 28

