# https://github.com/mikedh/trimesh
v -2.25093622 2.38940410 -5.67846481
v -2.25093622 2.49860197 -5.67846481
v -2.07009240 2.38731154 -5.67846481
v -2.07009240 2.38694325 -5.56867786
v -2.25093622 2.38940410 -5.14670900
v -2.25093622 2.49860197 -5.14670900
v -2.02142243 2.55587101 -5.67404004
v -2.02142243 2.55583753 -5.67846481
v -1.20721812 2.44094791 -5.67846481
v -0.58818176 2.44091443 -5.67404004
v -2.07009240 2.38694325 -5.14670900
v -2.02142243 2.55587101 -5.14670900
v -1.96477639 2.55794682 -5.67404004
v -1.96477639 2.55793009 -5.67846481
v -1.96477639 2.55796357 -5.14728157
v -1.20721812 2.55794682 -5.67846481
v -0.58818176 2.55794682 -5.67404004
v -0.58818176 2.44111531 -5.14670900
v -1.96510201 2.55794682 -5.14670900
v -1.96038145 2.55794682 -5.67846481
v -0.58818176 2.55794682 -5.14670900
f 1 2 8
f 1 8 14
f 1 14 20
f 1 20 16
f 1 16 9
f 1 9 3
f 1 3 4
f 1 4 11
f 1 11 5
f 1 5 6
f 1 6 2
f 2 6 12
f 2 12 7
f 2 7 8
f 3 9 10
f 3 10 4
f 4 10 11
f 5 11 18
f 5 18 21
f 5 21 19
f 5 19 12
f 5 12 6
f 7 13 14
f 7 14 8
f 7 12 15
f 7 15 13
f 9 16 17
f 9 17 10
f 10 17 21
f 10 21 18
f 10 18 11
f 12 19 15
f 13 15 20
f 13 20 14
f 15 21 17
f 15 17 16
f 15 16 20
f 15 19 21

