# https://github.com/mikedh/trimesh
v -5.01030360 2.34203657 4.02143556
v -6.43809780 2.34203657 4.02146320
v -5.01030360 2.45860325 4.02143556
v -3.58975838 2.34203657 4.02143556
v -6.43809780 2.45877070 4.02146320
v -6.43809780 2.34203657 4.12698525
v -3.58975838 2.47269005 4.02143556
v -3.58975838 2.34203657 4.12698525
v -6.43809780 2.54230772 4.22292218
v -6.43809780 2.34253893 4.18234922
v -3.58975838 2.54241237 4.22281194
v -3.58975838 2.34253893 4.18232190
v -5.01030360 2.34253893 4.18234922
v -6.43809780 2.55587123 4.27561427
v -3.58975838 2.54810570 4.24481990
v -6.43809780 2.36646346 4.23504162
v -5.01030360 2.34502976 4.18788584
v -3.58975838 2.35645827 4.21297870
v -3.65137570 2.36646346 4.23504162
v -6.43809780 2.55587123 4.28845012
v -3.58975838 2.55587123 4.27547670
v -6.43809780 2.41916859 4.29938516
v -3.58975838 2.36650532 4.23504162
v -3.58975838 2.41916859 4.29938516
v -6.43809780 2.50107296 4.30277284
v -5.01030360 2.50107296 4.30282812
v -3.58975838 2.55587123 4.28845012
v -6.43809780 2.46461055 4.30128535
v -3.58975838 2.46680834 4.30139591
v -3.65137570 2.50107296 4.30282812
v -3.58975838 2.53295141 4.29445472
v -3.58975838 2.50107296 4.30277284
f 1 2 5
f 1 5 3
f 1 3 7
f 1 7 4
f 1 4 8
f 1 8 6
f 1 6 2
f 2 6 10
f 2 10 16
f 2 16 22
f 2 22 28
f 2 28 25
f 2 25 20
f 2 20 14
f 2 14 9
f 2 9 5
f 3 5 7
f 4 7 11
f 4 11 15
f 4 15 21
f 4 21 27
f 4 27 31
f 4 31 32
f 4 32 29
f 4 29 24
f 4 24 23
f 4 23 18
f 4 18 12
f 4 12 8
f 5 9 7
f 6 8 13
f 6 13 10
f 7 9 11
f 8 12 13
f 9 14 15
f 9 15 11
f 10 13 17
f 10 17 16
f 12 18 19
f 12 19 17
f 12 17 13
f 14 20 27
f 14 27 21
f 14 21 15
f 16 17 19
f 16 19 24
f 16 24 22
f 18 23 19
f 19 23 24
f 20 25 26
f 20 26 30
f 20 30 27
f 22 24 29
f 22 29 26
f 22 26 28
f 25 28 26
f 26 29 30
f 27 30 31
f 29 32 30
f 30 32 31

