# https://github.com/mikedh/trimesh
v -3.01833652 2.55796344 -1.03692061
v -3.01878830 2.44178972 -1.03692061
v -3.01833652 2.44183076 -1.03720964
v -3.01833652 2.55796344 -1.67935678
v -3.17217023 2.55796344 -1.03692061
v -3.17217023 2.42032522 -1.03692061
v -3.17217023 2.42018841 -1.08518282
v -3.01907445 2.43951878 -2.51238521
v -3.01833652 2.44198124 -1.67935678
v -3.01907445 2.55794976 -2.51281864
v -3.12366329 2.55794976 -2.51296312
v -3.17217023 2.55796344 -1.67935678
v -3.17218528 2.55794976 -1.67935678
v -3.17218528 2.42024313 -1.67935678
v -3.17218528 2.41820476 -2.51296312
v -3.12435602 2.43027085 -2.51296312
v -3.17218528 2.55794976 -2.51296312
f 1 2 3
f 1 3 9
f 1 9 4
f 1 4 12
f 1 12 5
f 1 5 6
f 1 6 2
f 2 6 3
f 3 7 8
f 3 8 9
f 3 6 7
f 4 9 10
f 4 10 11
f 4 11 17
f 4 17 12
f 5 12 17
f 5 17 13
f 5 13 14
f 5 14 6
f 6 14 7
f 7 14 15
f 7 15 8
f 8 15 16
f 8 16 10
f 8 10 9
f 10 16 11
f 11 16 15
f 11 15 17
f 13 17 15
f 13 15 14

