# https://github.com/mikedh/trimesh
v -4.07639601 2.51582695 0.12597773
v -4.23239455 2.51005147 0.28191526
v -4.07639601 2.50787717 0.22759301
v -4.07639601 2.51580996 0.12055968
v -4.55221709 2.51142740 0.22759301
v -4.38876566 2.51008545 0.28191526
v -4.12698250 2.50475162 0.28191526
v -4.07639601 2.50752046 0.23135248
v -4.07639601 2.35416451 0.12055968
v -4.55221709 2.50983064 0.12055968
v -4.55221709 2.50882843 0.25752633
v -4.49417762 2.50972872 0.28191526
v -4.07639601 2.49661499 0.28191526
v -4.07639601 2.34687723 0.18687110
v -4.55221709 2.35071622 0.28191526
v -4.55221709 2.35258475 0.27457016
v -4.55221709 2.39240158 0.12055968
v -4.55221709 2.50670509 0.28191526
v -4.07639601 2.34229081 0.28191526
v -4.07639601 2.34247767 0.24327837
v -4.14156229 2.34266452 0.28191526
v -4.13872088 2.34268151 0.27741346
f 1 2 3
f 1 3 8
f 1 8 13
f 1 13 19
f 1 19 20
f 1 20 14
f 1 14 9
f 1 9 4
f 1 4 5
f 1 5 6
f 1 6 2
f 2 7 8
f 2 8 3
f 2 6 12
f 2 12 18
f 2 18 15
f 2 15 21
f 2 21 19
f 2 19 13
f 2 13 7
f 4 9 17
f 4 17 10
f 4 10 5
f 5 10 17
f 5 17 16
f 5 16 15
f 5 15 18
f 5 18 11
f 5 11 12
f 5 12 6
f 7 13 8
f 9 14 15
f 9 15 16
f 9 16 17
f 11 18 12
f 14 20 15
f 15 20 22
f 15 22 21
f 19 21 20
f 20 21 22

