# https://github.com/mikedh/trimesh
v -3.17218526 2.34205355 1.28056880
v -3.17218526 2.34205355 1.54247609
v -3.17218526 2.45804944 1.28056880
v -2.91338064 2.34205355 1.28056880
v -3.17218526 2.46186844 1.54247609
v -3.01874125 2.34205355 1.54247609
v -3.17218526 2.46183450 1.49224342
v -3.01874125 2.49454215 1.54247609
v -2.96357862 2.50574456 1.54247609
v -2.91338064 2.51474044 1.49224342
v -2.91338064 2.50983514 1.38688045
v -2.80802002 2.50457340 1.28149188
v -2.80802002 2.50431880 1.28056880
v -2.89687781 2.34210447 1.28056880
v -2.91338064 2.34205355 1.28149188
v -2.99299867 2.34227420 1.54247609
v -2.81680007 2.34244394 1.28056880
v -2.91338064 2.51541937 1.54247609
v -2.70261343 2.51109116 1.38685485
v -2.80802002 2.51217746 1.38688045
v -2.70261343 2.50959751 1.28149188
v -2.80705465 2.50436972 1.28056880
v -2.96454397 2.34252880 1.54247609
v -2.70261343 2.34522757 1.28056880
v -2.85826396 2.51362020 1.54247609
v -2.70261343 2.51109116 1.38688045
v -2.70261343 2.50934291 1.28056880
v -2.70261343 2.34604228 1.29262055
v -2.70261343 2.40144331 1.54247609
v -2.70261343 2.50783228 1.54247609
f 1 2 5
f 1 5 7
f 1 7 3
f 1 3 13
f 1 13 22
f 1 22 27
f 1 27 24
f 1 24 17
f 1 17 14
f 1 14 4
f 1 4 15
f 1 15 6
f 1 6 2
f 2 6 16
f 2 16 23
f 2 23 29
f 2 29 30
f 2 30 25
f 2 25 18
f 2 18 9
f 2 9 8
f 2 8 5
f 3 7 8
f 3 8 9
f 3 9 10
f 3 10 11
f 3 11 12
f 3 12 13
f 4 14 15
f 5 8 7
f 6 15 14
f 6 14 17
f 6 17 16
f 9 18 10
f 10 18 19
f 10 19 20
f 10 20 11
f 11 20 21
f 11 21 12
f 12 21 22
f 12 22 13
f 16 17 23
f 17 24 23
f 18 25 26
f 18 26 19
f 19 26 30
f 19 30 29
f 19 29 28
f 19 28 24
f 19 24 27
f 19 27 21
f 19 21 20
f 21 27 22
f 23 24 28
f 23 28 29
f 25 30 26

