# https://github.com/mikedh/trimesh
v -1.01604199 2.45621610 2.55360642
v -1.01604199 2.34205336 2.55360642
v -1.01604199 2.46250154 2.55350246
v -1.01643161 2.46251862 2.55360642
v -1.12181923 2.34205336 2.55360642
v -1.01604199 2.34203628 2.12454028
v -1.12181923 2.49018822 2.55360642
v -1.01604199 2.46272358 2.54572205
v -1.12181923 2.49435574 2.44073770
v -1.12181923 2.49097390 2.54613695
v -1.01643161 2.34203628 2.12454028
v -1.18028114 2.34251453 2.55360642
v -1.12181923 2.34205336 1.49390868
v -1.01604199 2.34203628 1.59775165
v -1.12926326 2.49199870 2.55360642
v -1.01604199 2.46439742 2.44032280
v -1.22716775 2.51652558 2.44073770
v -1.22716775 2.51478342 2.54613695
v -1.12181923 2.49435574 1.59775165
v -1.22716775 2.51413438 2.55360642
v -1.01643161 2.34203628 1.49390868
v -1.18378895 2.34299277 2.55360642
v -1.17650055 2.34253161 1.49390868
v -1.17568221 2.34251453 1.49390868
v -1.01604199 2.46134010 1.49390868
v -1.01604199 2.46439742 1.59733675
v -1.41416818 2.50943738 2.55360642
v -1.33999925 2.51191398 2.55360642
v -1.23461178 2.51468094 2.55360642
v -1.22716775 2.51652558 1.59775165
v -1.01795176 2.46402165 1.49390868
v -1.12181923 2.49191330 1.49390868
v -1.22716775 2.51490298 1.49390868
v -1.41416818 2.39455729 2.55360642
v -1.41416818 2.39792205 1.49390868
v -1.01643161 2.46357758 1.49390868
v -1.41416818 2.50865170 1.49390868
v -1.33255522 2.51145282 1.49390868
v -1.33407522 2.51140158 1.49390868
f 1 2 6
f 1 6 14
f 1 14 25
f 1 25 26
f 1 26 16
f 1 16 8
f 1 8 3
f 1 3 4
f 1 4 7
f 1 7 15
f 1 15 20
f 1 20 29
f 1 29 28
f 1 28 27
f 1 27 34
f 1 34 22
f 1 22 12
f 1 12 5
f 1 5 2
f 2 5 11
f 2 11 6
f 3 7 4
f 3 8 9
f 3 9 10
f 3 10 7
f 5 12 13
f 5 13 21
f 5 21 11
f 6 11 21
f 6 21 14
f 7 10 15
f 8 16 9
f 9 17 18
f 9 18 10
f 9 16 26
f 9 26 19
f 9 19 30
f 9 30 17
f 10 18 20
f 10 20 15
f 12 22 23
f 12 23 24
f 12 24 13
f 13 24 23
f 13 23 35
f 13 35 37
f 13 37 39
f 13 39 38
f 13 38 33
f 13 33 32
f 13 32 31
f 13 31 36
f 13 36 25
f 13 25 21
f 14 21 25
f 17 27 28
f 17 28 29
f 17 29 18
f 17 30 27
f 18 29 20
f 19 26 31
f 19 31 32
f 19 32 33
f 19 33 30
f 22 34 23
f 23 34 35
f 25 36 26
f 26 36 31
f 27 30 37
f 27 37 35
f 27 35 34
f 30 33 38
f 30 38 39
f 30 39 37

