# https://github.com/mikedh/trimesh
v -6.49646658 2.45808157 3.41730296
v -6.49646658 2.34203657 3.41730296
v -6.49646658 2.45864663 3.41705264
v -6.49660352 2.45864663 3.41730296
v -6.60199271 2.34203657 3.41730296
v -6.49646658 2.34203657 0.86119974
v -6.69717994 2.54361374 3.41730296
v -6.49646658 2.45908611 0.86119974
v -6.64239262 2.34239235 3.41730296
v -6.60199271 2.34203657 0.86119974
v -6.74986103 2.55583562 3.41730296
v -6.69717994 2.54361374 0.86119974
v -6.65708092 2.34253885 3.41730296
v -6.65661608 2.34251792 0.86119974
v -6.76323647 2.55583562 3.41730296
v -6.74986103 2.55583562 0.96554572
v -6.74942320 2.55573097 0.86119974
v -6.67111280 2.34971711 3.41730296
v -6.65751875 2.34274813 0.86119974
v -6.65708092 2.34253885 0.96554572
v -6.77250877 2.51565412 3.41730296
v -6.76323647 2.55583562 0.86119974
v -6.74997033 2.55583562 0.86119974
v -6.70976201 2.36951486 3.41730296
v -6.70976201 2.36951486 0.86119974
v -6.77584588 2.50106740 3.41730296
v -6.77584588 2.50106740 0.86119974
v -6.75590583 2.40818955 3.41730296
v -6.77209858 2.42177173 0.86119974
v -6.77349341 2.44320186 3.41730296
v -6.77584588 2.50085812 2.33505641
v -6.77264571 2.42285998 0.86119974
v -6.77584588 2.50085812 2.33480640
v -6.77261838 2.42221122 3.41730296
v -6.77261838 2.42221122 0.96554572
f 1 2 6
f 1 6 8
f 1 8 3
f 1 3 4
f 1 4 7
f 1 7 11
f 1 11 15
f 1 15 21
f 1 21 26
f 1 26 30
f 1 30 34
f 1 34 28
f 1 28 24
f 1 24 18
f 1 18 13
f 1 13 9
f 1 9 5
f 1 5 2
f 2 5 10
f 2 10 6
f 3 7 4
f 3 8 7
f 5 9 10
f 6 10 14
f 6 14 19
f 6 19 25
f 6 25 29
f 6 29 32
f 6 32 27
f 6 27 22
f 6 22 23
f 6 23 17
f 6 17 12
f 6 12 8
f 7 8 12
f 7 12 16
f 7 16 11
f 9 13 14
f 9 14 10
f 11 16 23
f 11 23 22
f 11 22 15
f 12 17 16
f 13 18 19
f 13 19 20
f 13 20 14
f 14 20 19
f 15 22 21
f 16 17 23
f 18 24 19
f 19 24 25
f 21 22 27
f 21 27 26
f 24 28 25
f 25 28 29
f 26 27 33
f 26 33 31
f 26 31 30
f 27 32 30
f 27 30 33
f 28 34 29
f 29 35 32
f 29 34 35
f 30 31 33
f 30 32 34
f 32 35 34

