# https://github.com/mikedh/trimesh
v -0.47181701 2.34203571 1.70303814
v -0.47181701 2.34234975 1.62843013
v -0.27125221 2.34205666 1.70303814
v -0.47181701 2.34203571 1.72063358
v -0.47181701 2.34245444 1.61518267
v -0.27125221 2.34249631 1.64939832
v -0.27125221 2.34205666 1.80905801
v -0.47181701 2.34205666 1.80905801
v -0.27125221 2.34253818 1.64533474
v -0.47181701 2.34680919 1.58007298
v -0.27125221 2.45839993 1.80905801
v -0.47181701 2.45839993 1.80905801
v -0.46855779 2.34735355 1.57678142
v -0.27125221 2.35252481 1.59640880
v -0.47181701 2.35172925 1.56138031
v -0.27125221 2.55585863 1.55142441
v -0.38405152 2.55585863 1.55142441
v -0.47181701 2.55567020 1.55085561
v -0.27125221 2.35329947 1.59271081
v -0.47181701 2.36854113 1.50664340
v -0.27125221 2.55585863 1.54073719
v -0.47181701 2.55592142 1.50554616
v -0.47181701 2.40595438 1.40342748
v -0.27125221 2.40226958 1.52627062
v -0.27125221 2.50106820 1.51700555
v -0.47181701 2.49327988 1.39395920
v -0.47181701 2.49725779 1.40013592
v -0.47181701 2.41338678 1.40078606
v -0.27125221 2.40599625 1.52127250
f 1 2 3
f 1 3 7
f 1 7 4
f 1 4 8
f 1 8 12
f 1 12 18
f 1 18 22
f 1 22 27
f 1 27 26
f 1 26 28
f 1 28 23
f 1 23 20
f 1 20 15
f 1 15 10
f 1 10 5
f 1 5 2
f 2 5 3
f 3 5 6
f 3 6 9
f 3 9 14
f 3 14 19
f 3 19 24
f 3 24 29
f 3 29 25
f 3 25 21
f 3 21 16
f 3 16 11
f 3 11 7
f 4 7 8
f 5 9 6
f 5 10 9
f 7 11 12
f 7 12 8
f 9 10 13
f 9 13 14
f 10 15 13
f 11 16 17
f 11 17 12
f 12 17 18
f 13 19 14
f 13 15 19
f 15 20 19
f 16 21 22
f 16 22 17
f 17 22 18
f 19 20 23
f 19 23 24
f 21 25 26
f 21 26 27
f 21 27 22
f 23 28 29
f 23 29 24
f 25 29 26
f 26 29 28

