# https://github.com/mikedh/trimesh
v -0.03644601 2.46578886 -1.98543185
v -0.06795083 2.38943407 -1.98543185
v -0.03644601 2.38913187 -1.98555112
v -0.03644601 2.50345140 -1.98555112
v -0.06821057 2.49899681 -1.98543185
v -0.33999666 2.38943407 -1.98543185
v -0.69999626 2.38944526 -1.98662457
v -0.03644601 2.38913187 -3.20393923
v -0.69999626 2.49885131 -1.98662457
v -0.33999666 2.49862746 -1.98543185
v -0.03644601 2.50295893 -3.20393923
v -0.69999626 2.49885131 -2.51274405
v -0.69999626 2.38944526 -3.20382004
v -0.65394086 2.38944526 -3.20393923
v -0.69999626 2.49795591 -3.20393923
f 1 2 3
f 1 3 8
f 1 8 11
f 1 11 4
f 1 4 5
f 1 5 10
f 1 10 6
f 1 6 2
f 2 6 3
f 3 6 7
f 3 7 13
f 3 13 8
f 4 9 10
f 4 10 5
f 4 11 12
f 4 12 9
f 6 10 9
f 6 9 7
f 7 9 12
f 7 12 15
f 7 15 13
f 8 13 14
f 8 14 15
f 8 15 11
f 11 15 12
f 13 15 14

