# https://github.com/mikedh/trimesh
v -3.17209122 2.38943818 -4.83108477
v -3.17209122 2.38943818 -3.98774444
v -3.17209122 2.49878401 -4.83108477
v -2.21076120 2.38934143 -4.83108477
v -2.21076120 2.38934143 -4.40941461
v -2.28116210 2.38943818 -3.98774444
v -3.17209122 2.49917104 -3.98774444
v -2.59730731 2.49878401 -4.83108477
v -2.21076120 2.49874101 -4.83108477
v -2.21076120 2.38939518 -4.31571927
v -2.25179696 2.38943818 -3.98799194
v -2.25179696 2.41992730 -3.98774444
v -2.28135032 2.49885927 -3.98774444
v -2.25179696 2.49881627 -3.98799194
v -2.21076120 2.49874101 -4.37449541
v -2.21076120 2.49866575 -4.31571927
f 1 2 7
f 1 7 3
f 1 3 8
f 1 8 9
f 1 9 4
f 1 4 5
f 1 5 2
f 2 5 6
f 2 6 12
f 2 12 13
f 2 13 7
f 3 7 8
f 4 9 15
f 4 15 16
f 4 16 10
f 4 10 5
f 5 10 11
f 5 11 6
f 6 11 12
f 7 13 9
f 7 9 8
f 9 14 15
f 9 13 14
f 10 16 12
f 10 12 11
f 12 14 13
f 12 16 14
f 14 16 15

