# https://github.com/mikedh/trimesh
v -0.06776835 2.38943230 -3.20401587
v -0.06776835 2.49839808 -3.20409266
v -0.06790403 2.49836513 -3.20401587
v -0.76122193 2.38943230 -3.20401587
v -0.70032841 2.38687866 -3.98811474
v -0.48940711 2.38689514 -3.98788452
v -0.06776835 2.38867444 -3.56639778
v -0.76122193 2.49795326 -3.20401587
v -0.06776835 2.55424840 -3.71753724
v -0.06790403 2.55424840 -3.71738366
v -0.76122193 2.55424840 -3.71738366
v -0.76122193 2.38687866 -3.98811474
v -0.48940711 2.38689514 -3.98811474
v -0.06776835 2.38867444 -3.88249344
v -0.06776835 2.55517099 -3.77717931
v -0.06790403 2.55518747 -3.77710267
v -0.76122193 2.55518747 -3.77710267
v -0.76122193 2.51411525 -3.98811474
v -0.06790403 2.38943230 -3.98811474
v -0.06776835 2.38943230 -3.98788452
v -0.06790403 2.55470970 -3.83160198
v -0.06776835 2.55466027 -3.83167862
v -0.76122193 2.55470970 -3.83160198
v -0.70053193 2.51411525 -3.98811474
v -0.06790403 2.49917240 -3.98811474
v -0.06776835 2.49920535 -3.98803779
v -0.48940711 2.51236889 -3.98811474
v -0.59483368 2.51409877 -3.98811474
f 1 2 3
f 1 3 8
f 1 8 4
f 1 4 12
f 1 12 5
f 1 5 6
f 1 6 7
f 1 7 14
f 1 14 20
f 1 20 26
f 1 26 22
f 1 22 15
f 1 15 9
f 1 9 2
f 2 8 3
f 2 9 10
f 2 10 11
f 2 11 8
f 4 8 11
f 4 11 17
f 4 17 23
f 4 23 18
f 4 18 12
f 5 12 18
f 5 18 24
f 5 24 28
f 5 28 27
f 5 27 25
f 5 25 19
f 5 19 13
f 5 13 6
f 6 13 14
f 6 14 7
f 9 15 16
f 9 16 10
f 10 16 17
f 10 17 11
f 13 19 14
f 14 19 20
f 15 21 16
f 15 22 21
f 16 21 23
f 16 23 17
f 18 23 21
f 18 21 24
f 19 25 26
f 19 26 20
f 21 22 26
f 21 26 27
f 21 27 28
f 21 28 24
f 25 27 26

