# https://github.com/mikedh/trimesh
v -2.37812687 2.40724359 0.74246761
v -2.37511389 2.46256453 0.74246761
v -2.15770965 2.34244885 0.74246761
v -3.17218525 2.39570512 0.75488354
v -3.17218525 2.44372308 0.75388649
v -3.17218525 2.46256453 0.75350048
v -1.97159500 2.46256453 0.74246761
v -2.07009900 2.34204771 0.74246761
v -3.17218525 2.34253143 0.80612347
v -3.17218525 2.36676457 0.78277109
v -3.17218525 2.46256453 0.96605108
v -1.97159500 2.46256453 0.75456192
v -0.80438024 2.45869478 0.74246761
v -3.17218525 2.34204771 0.85996870
v -3.17218525 2.34226007 0.83542627
v -0.80577099 2.34204771 0.74246761
v -0.80577099 2.34203591 0.85996870
v -3.17218525 2.45798689 1.07107186
v -2.70284255 2.45838803 1.07107186
v -2.59738528 2.45839982 1.07107186
v -2.70237897 2.46256453 0.96611531
v -1.98202484 2.46256453 0.85996870
v -0.80438024 2.45812847 1.07107186
v -0.80438024 2.35398731 0.74246761
v -3.17218525 2.34204771 1.07107186
v -0.80438024 2.34204771 0.74262842
v -0.80438024 2.34203591 0.85996870
v -0.80438024 2.34203591 0.86119095
v -2.17601985 2.45839982 1.07107186
v -2.28101354 2.46256453 0.96611531
v -2.07009900 2.46256453 0.95199470
v -1.43851447 2.45836443 1.07107186
v -0.80438024 2.34204771 1.07107186
v -2.17555627 2.46256453 0.96418544
f 1 2 7
f 1 7 13
f 1 13 24
f 1 24 16
f 1 16 8
f 1 8 3
f 1 3 4
f 1 4 5
f 1 5 6
f 1 6 2
f 2 6 11
f 2 11 21
f 2 21 30
f 2 30 34
f 2 34 31
f 2 31 22
f 2 22 12
f 2 12 7
f 3 8 9
f 3 9 10
f 3 10 4
f 4 10 9
f 4 9 15
f 4 15 14
f 4 14 25
f 4 25 18
f 4 18 11
f 4 11 6
f 4 6 5
f 7 12 13
f 8 14 15
f 8 15 9
f 8 16 27
f 8 27 17
f 8 17 14
f 11 18 19
f 11 19 20
f 11 20 21
f 12 22 13
f 13 23 33
f 13 33 28
f 13 28 27
f 13 27 26
f 13 26 24
f 13 22 23
f 14 17 25
f 16 24 26
f 16 26 27
f 17 27 28
f 17 28 25
f 18 25 33
f 18 33 23
f 18 23 32
f 18 32 29
f 18 29 20
f 18 20 19
f 20 29 30
f 20 30 21
f 22 31 23
f 23 31 34
f 23 34 30
f 23 30 32
f 25 28 33
f 29 32 30

