# https://github.com/mikedh/trimesh
v -0.69927890 2.45795842 2.55360642
v -1.01600289 2.46439520 2.44033159
v -1.01600289 2.46272236 2.54563096
v -1.01600289 2.46250416 2.55348173
v -0.91845880 2.45811600 2.55360642
v -0.69927890 2.34930902 2.55360642
v -0.69927890 2.46587407 1.49238805
v -1.01600289 2.46439520 1.59731367
v -1.01600289 2.45621285 2.55360642
v -0.69930984 2.34204794 2.55360642
v -0.69927890 2.34204794 2.54712630
v -0.69927890 2.46587407 1.28054320
v -1.01600289 2.46355878 1.49188961
v -1.01600289 2.34204794 2.55360642
v -0.69927890 2.34203582 1.70410822
v -0.69927890 2.34203582 1.28066789
v -0.70024015 2.34203582 1.28054320
v -1.01600289 2.45811600 1.28054320
v -1.01600289 2.34204794 1.28066789
v -0.70120124 2.34203582 1.28054320
v -0.70024015 2.34203582 1.70311132
v -1.01600289 2.38999041 1.28054320
v -0.91194759 2.34204794 1.28054320
f 1 2 3
f 1 3 4
f 1 4 5
f 1 5 9
f 1 9 14
f 1 14 10
f 1 10 6
f 1 6 11
f 1 11 15
f 1 15 16
f 1 16 12
f 1 12 7
f 1 7 2
f 2 7 12
f 2 12 8
f 2 8 13
f 2 13 18
f 2 18 22
f 2 22 19
f 2 19 14
f 2 14 9
f 2 9 4
f 2 4 3
f 4 9 5
f 6 10 11
f 8 12 13
f 10 14 15
f 10 15 11
f 12 16 17
f 12 17 20
f 12 20 23
f 12 23 22
f 12 22 18
f 12 18 13
f 14 19 20
f 14 20 21
f 14 21 15
f 15 21 20
f 15 20 17
f 15 17 16
f 19 22 23
f 19 23 20

