# https://github.com/mikedh/trimesh
v -0.16666235 2.39540958 -5.14660567
v -0.16666235 2.38907849 -5.14660567
v -0.16666235 2.49956958 -5.14669707
v -0.17330548 2.49963693 -5.14660567
v -0.27868525 2.38670433 -5.14660567
v -0.16666235 2.38845548 -6.08032276
v -0.32737312 2.55585909 -5.14724545
v -0.32708416 2.55570754 -5.14660567
v -0.16666235 2.51061532 -6.08032276
v -0.38406534 2.40064621 -5.14660567
v -0.58814062 2.39234506 -5.88482346
v -0.58814062 2.38779880 -5.98362418
v -0.58814062 2.38763042 -5.99020480
v -0.38406534 2.38594662 -5.88482346
v -0.27868525 2.38670433 -5.56877083
v -0.27868525 2.38697374 -5.88482346
v -0.38406534 2.38697374 -5.99020480
v -0.38406534 2.38810189 -6.08032276
v -0.32766176 2.55587593 -5.14660567
v -0.32737312 2.55585909 -5.67406077
v -0.18865461 2.51112046 -6.08032276
v -0.52909656 2.55434367 -5.93865660
v -0.45882945 2.55218839 -5.92330182
v -0.33001360 2.55449521 -5.83400644
v -0.32832196 2.55535395 -5.77944212
v -0.58814062 2.44110797 -5.14660567
v -0.58814062 2.38818607 -6.08032276
v -0.57947607 2.38815240 -6.08032276
v -0.47409598 2.38810189 -6.08032276
v -0.38406534 2.55794700 -5.14660567
v -0.38406534 2.55796384 -5.67406077
v -0.38406534 2.55745870 -5.77944212
v -0.39842386 2.51531313 -6.08032276
v -0.58814062 2.55459624 -5.93911359
v -0.58814062 2.55648210 -5.89030731
v -0.49216819 2.55579174 -5.88683421
v -0.38406534 2.55535395 -5.84917843
v -0.58814062 2.44861773 -5.14660567
v -0.58814062 2.51517842 -6.08032276
v -0.49002271 2.55794700 -5.14660567
v -0.48944511 2.55794700 -5.77944212
v -0.58814062 2.55794700 -5.77944212
v -0.58814062 2.55794700 -5.14669707
v -0.58814062 2.55665047 -5.88500626
v -0.48977521 2.51551519 -6.08032276
f 1 2 6
f 1 6 9
f 1 9 3
f 1 3 4
f 1 4 8
f 1 8 19
f 1 19 30
f 1 30 40
f 1 40 38
f 1 38 26
f 1 26 10
f 1 10 5
f 1 5 2
f 2 5 6
f 3 7 8
f 3 8 4
f 3 9 7
f 5 10 11
f 5 11 12
f 5 12 13
f 5 13 14
f 5 14 15
f 5 15 6
f 6 16 14
f 6 14 17
f 6 17 18
f 6 18 29
f 6 29 28
f 6 28 27
f 6 27 39
f 6 39 45
f 6 45 33
f 6 33 21
f 6 21 9
f 6 15 16
f 7 19 8
f 7 9 20
f 7 20 19
f 9 21 22
f 9 22 23
f 9 23 24
f 9 24 25
f 9 25 20
f 10 26 11
f 11 26 38
f 11 38 43
f 11 43 42
f 11 42 44
f 11 44 35
f 11 35 34
f 11 34 39
f 11 39 27
f 11 27 13
f 11 13 12
f 13 27 14
f 14 27 28
f 14 28 17
f 14 16 15
f 17 28 29
f 17 29 18
f 19 20 31
f 19 31 30
f 20 25 32
f 20 32 31
f 21 33 22
f 22 34 35
f 22 35 36
f 22 36 37
f 22 37 24
f 22 24 23
f 22 33 34
f 24 37 32
f 24 32 25
f 30 31 40
f 31 32 41
f 31 41 42
f 31 42 43
f 31 43 40
f 32 37 36
f 32 36 44
f 32 44 41
f 33 45 34
f 34 45 39
f 35 44 36
f 38 40 43
f 41 44 42

