# https://github.com/mikedh/trimesh
v 0.20706997 2.50107673 -5.14718326
v 0.19880211 2.55583562 -5.14718326
v 0.19883885 2.55552421 -5.14660567
v 0.20703354 2.50073255 -5.14660567
v 0.20381421 2.43890959 -5.14660567
v 0.20706997 2.50107673 -5.88485267
v 0.18519330 2.55583562 -5.14660567
v 0.19880211 2.55583562 -5.88485267
v 0.14286682 2.40840786 -5.14660567
v 0.20381421 2.43890959 -5.98946797
v 0.20703354 2.50060143 -5.98946797
v 0.19883885 2.55540948 -5.98946797
v -0.16666235 2.49956886 -5.14668827
v -0.06847346 2.49837239 -5.14660567
v 0.18519330 2.55583562 -5.98946797
v 0.03747103 2.38839571 -5.14660567
v 0.14286682 2.40840786 -5.98946797
v -0.16666235 2.39541062 -5.14660567
v -0.16666235 2.49956886 -5.68073750
v -0.16666235 2.49838878 -5.98946797
v -0.16666235 2.49917550 -5.78609529
v -0.16666235 2.38908409 -5.14660567
v 0.03747103 2.38839571 -5.98946797
v -0.16666235 2.38944467 -5.98946797
v -0.16666235 2.38908409 -5.67405449
f 1 2 3
f 1 3 4
f 1 4 5
f 1 5 10
f 1 10 6
f 1 6 8
f 1 8 2
f 2 7 3
f 2 8 15
f 2 15 7
f 3 7 14
f 3 14 18
f 3 18 22
f 3 22 16
f 3 16 9
f 3 9 5
f 3 5 4
f 5 9 17
f 5 17 10
f 6 10 11
f 6 11 12
f 6 12 8
f 7 13 14
f 7 15 19
f 7 19 13
f 8 12 15
f 9 16 23
f 9 23 17
f 10 17 23
f 10 23 24
f 10 24 20
f 10 20 15
f 10 15 12
f 10 12 11
f 13 18 14
f 13 19 21
f 13 21 20
f 13 20 24
f 13 24 25
f 13 25 22
f 13 22 18
f 15 20 21
f 15 21 19
f 16 22 25
f 16 25 23
f 23 25 24

