# https://github.com/mikedh/trimesh
v 0.20706997 2.50107673 -3.98924135
v 0.19878609 2.55583562 -3.98924135
v 0.20386949 2.43963075 -3.98924135
v 0.20706997 2.50107673 -5.04168948
v 0.19883980 2.55552421 -5.14649229
v 0.18517665 2.55583562 -3.98924135
v 0.19878609 2.55583562 -5.04168948
v 0.20381546 2.43890959 -3.98924135
v 0.20381546 2.43890959 -5.14649229
v 0.20704296 2.50073255 -5.14649229
v 0.18517665 2.55583562 -5.14649229
v -0.06770051 2.49919189 -3.98924135
v 0.14286902 2.40840786 -3.98924135
v 0.14286902 2.40840786 -5.14649229
v -0.06770051 2.49840517 -5.14649229
v -0.06770051 2.38942828 -3.98924135
v 0.14165855 2.40816201 -3.98924135
v 0.03749019 2.38839571 -5.14649229
v -0.06770051 2.46038045 -5.14649229
v 0.03749019 2.38839571 -3.98924135
v -0.06770051 2.38942828 -5.14637922
v -0.06732392 2.38942828 -5.14649229
f 1 2 6
f 1 6 12
f 1 12 16
f 1 16 20
f 1 20 17
f 1 17 13
f 1 13 8
f 1 8 3
f 1 3 4
f 1 4 5
f 1 5 2
f 2 5 7
f 2 7 11
f 2 11 6
f 3 8 9
f 3 9 4
f 4 9 10
f 4 10 5
f 5 10 9
f 5 9 14
f 5 14 18
f 5 18 22
f 5 22 19
f 5 19 15
f 5 15 11
f 5 11 7
f 6 11 12
f 8 13 14
f 8 14 9
f 11 15 12
f 12 15 19
f 12 19 21
f 12 21 16
f 13 17 14
f 14 17 18
f 16 21 18
f 16 18 20
f 17 20 18
f 18 21 22
f 19 22 21

