# https://github.com/mikedh/trimesh
v -1.12823370 2.34220836 0.35441634
v -1.12823370 2.34205030 0.64913928
v -1.12823370 2.46927300 0.35441634
v -0.57373059 2.34219399 0.35441634
v -1.12823370 2.34205030 0.74246761
v -0.57094846 2.34205030 0.64913928
v -0.60695154 2.34203593 0.74246761
v -1.12823370 2.48877167 0.43840046
v -0.57094846 2.48325399 0.41450801
v -0.57585786 2.46930174 0.35441634
v -0.57094846 2.34219399 0.35441634
v -1.12823370 2.45868308 0.74246761
v -0.57094846 2.34203593 0.74246761
v -1.12823370 2.48882914 0.54380787
v -0.59489618 2.48877167 0.43840046
v -0.57094846 2.48869983 0.43840046
v -0.57094846 2.46930174 0.35441634
v -0.57094846 2.47627068 0.74246761
v -0.59489618 2.48882914 0.54380787
v -0.57094846 2.48874293 0.54380787
f 1 2 5
f 1 5 12
f 1 12 14
f 1 14 8
f 1 8 3
f 1 3 10
f 1 10 17
f 1 17 11
f 1 11 4
f 1 4 2
f 2 4 11
f 2 11 6
f 2 6 13
f 2 13 7
f 2 7 5
f 3 8 9
f 3 9 10
f 5 7 13
f 5 13 18
f 5 18 12
f 6 11 17
f 6 17 9
f 6 9 16
f 6 16 20
f 6 20 18
f 6 18 13
f 8 14 19
f 8 19 15
f 8 15 9
f 9 15 16
f 9 17 10
f 12 18 14
f 14 18 19
f 15 19 16
f 16 19 20
f 18 20 19

