# https://github.com/mikedh/trimesh
v -2.25109891 2.49860019 -5.14665749
v -2.53347392 2.55568606 -5.14665749
v -2.25109891 2.38940743 -5.14665749
v -2.25109891 2.49860019 -5.67535133
v -2.28136421 2.55586681 -6.24407257
v -2.53377755 2.55576822 -5.14731549
v -2.53404743 2.55575178 -5.14665749
v -2.25109891 2.38940743 -5.67853140
v -2.38649987 2.38840506 -5.14665749
v -2.28136421 2.38833933 -6.09591562
v -2.25109891 2.49858375 -5.67853140
v -2.28136421 2.55586681 -6.25712295
v -2.49781004 2.55621189 -6.20689640
v -2.55685613 2.55576822 -5.14731549
v -2.55705856 2.55575178 -5.14665749
v -2.28136421 2.40680926 -6.20119363
v -2.28136421 2.43735694 -6.26348308
v -2.28136421 2.50108147 -6.26699262
v -2.49180426 2.40445944 -5.14665749
v -2.38646618 2.38835576 -6.09558678
v -2.38646618 2.55586681 -6.25712295
v -2.49177050 2.55581751 -6.25701302
v -2.54754372 2.55576822 -6.20097440
v -2.59579274 2.49148499 -5.14665749
v -2.38646618 2.43735694 -6.26348308
v -2.38646618 2.40730223 -6.20097440
v -2.38646618 2.50108147 -6.26688269
v -2.49716900 2.40634916 -5.14665749
v -2.49177050 2.40960276 -6.09558678
v -2.49177050 2.42141759 -6.20097440
v -2.54653151 2.55509449 -6.25580695
v -2.59548902 2.48619379 -5.14665749
v -2.55368447 2.50108147 -6.20097440
v -2.55061409 2.44169507 -6.20097440
v -2.49177050 2.50108147 -6.26436063
v -2.49177050 2.44057767 -6.26107094
v -2.54761116 2.44534304 -6.25701302
v -2.58644663 2.43786634 -5.14665749
v -2.55209867 2.43959173 -6.09558678
v -2.54835349 2.50108147 -6.25778063
f 1 2 7
f 1 7 15
f 1 15 24
f 1 24 32
f 1 32 38
f 1 38 28
f 1 28 19
f 1 19 9
f 1 9 3
f 1 3 8
f 1 8 11
f 1 11 4
f 1 4 12
f 1 12 5
f 1 5 2
f 2 5 6
f 2 6 7
f 3 9 10
f 3 10 8
f 4 11 12
f 5 12 13
f 5 13 6
f 6 14 15
f 6 15 7
f 6 13 14
f 8 10 16
f 8 16 17
f 8 17 18
f 8 18 11
f 9 19 20
f 9 20 10
f 10 20 16
f 11 18 12
f 12 18 21
f 12 21 13
f 13 21 22
f 13 22 23
f 13 23 14
f 14 23 15
f 15 23 24
f 16 25 17
f 16 20 26
f 16 26 25
f 17 25 18
f 18 25 27
f 18 27 21
f 19 28 29
f 19 29 20
f 20 29 30
f 20 30 26
f 21 27 22
f 22 31 23
f 22 27 31
f 23 31 24
f 24 31 33
f 24 33 34
f 24 34 32
f 25 35 27
f 25 26 36
f 25 36 35
f 26 30 37
f 26 37 36
f 27 35 31
f 28 38 29
f 29 39 34
f 29 34 37
f 29 37 30
f 29 38 39
f 31 35 40
f 31 40 33
f 32 34 38
f 33 40 37
f 33 37 34
f 34 39 38
f 35 36 37
f 35 37 40

