# https://github.com/mikedh/trimesh
v -3.75649707 2.50106492 -5.06122185
v -3.75649707 2.55587095 -5.01137471
v -3.66091379 2.55494096 -5.00176541
v -3.66091379 2.50106492 -5.05064487
v -3.66091379 2.42708842 -5.04002265
v -3.66091379 2.41871851 -5.03797484
v -3.96722764 2.39570125 -5.04186819
v -4.07639594 2.39570125 -5.04182328
v -4.07639594 2.39946348 -5.04182328
v -4.07639594 2.50106492 -5.04180066
v -3.75649707 2.55796342 -4.93641304
v -4.07639594 2.55384187 -4.99019812
v -3.66091379 2.55513118 -4.99481166
v -3.66091379 2.38483727 -4.93641304
v -3.91126060 2.34269181 -4.98986080
v -3.87042416 2.38760611 -5.03061593
v -3.75649707 2.41104609 -5.03894253
v -3.96722764 2.34252271 -4.99022074
v -4.07639594 2.34252271 -4.99022074
v -3.75649707 2.55796342 -4.83131782
v -3.66091379 2.55549050 -4.94674253
v -4.07639594 2.55384187 -4.98900556
v -3.66091379 2.38099049 -4.84081468
v -3.85687982 2.34871560 -4.93641304
v -3.90955231 2.34252271 -4.93641304
v -3.96722764 2.34203657 -4.93641304
v -4.07639594 2.34203657 -4.93641304
v -3.81588072 2.55580753 -4.83131782
v -3.69906574 2.55584981 -4.83131782
v -3.66091379 2.55549050 -4.94554965
v -4.07639594 2.47758267 -4.83131782
v -3.66091379 2.38065231 -4.83131782
v -3.85683914 2.34835629 -4.83131782
v -3.90947096 2.34252271 -4.83131782
v -3.96722764 2.34203657 -4.83131782
v -4.07639594 2.34203657 -4.83131782
v -3.66091379 2.53788409 -4.83131782
v -3.66091379 2.55546936 -4.94359167
f 1 2 3
f 1 3 4
f 1 4 5
f 1 5 6
f 1 6 7
f 1 7 8
f 1 8 9
f 1 9 10
f 1 10 2
f 2 11 3
f 2 10 12
f 2 12 11
f 3 13 21
f 3 21 30
f 3 30 38
f 3 38 37
f 3 37 32
f 3 32 23
f 3 23 14
f 3 14 6
f 3 6 5
f 3 5 4
f 3 11 13
f 6 14 15
f 6 15 16
f 6 16 17
f 6 17 7
f 7 18 19
f 7 19 8
f 7 17 16
f 7 16 15
f 7 15 18
f 8 19 27
f 8 27 36
f 8 36 31
f 8 31 22
f 8 22 12
f 8 12 10
f 8 10 9
f 11 20 30
f 11 30 21
f 11 21 13
f 11 12 22
f 11 22 20
f 14 23 24
f 14 24 15
f 15 24 25
f 15 25 26
f 15 26 18
f 18 26 27
f 18 27 19
f 20 28 31
f 20 31 36
f 20 36 35
f 20 35 34
f 20 34 33
f 20 33 32
f 20 32 37
f 20 37 29
f 20 29 30
f 20 22 28
f 22 31 28
f 23 32 24
f 24 33 25
f 24 32 33
f 25 34 26
f 25 33 34
f 26 34 35
f 26 35 36
f 26 36 27
f 29 37 38
f 29 38 30

