# https://github.com/mikedh/trimesh
v -3.58980544 2.47269325 4.02143556
v -4.07204757 2.51500387 3.70486720
v -4.07204757 2.51495308 3.70541559
v -4.07204757 2.45860664 4.02143556
v -3.58980544 2.34203657 4.02143556
v -3.58980544 2.47238849 3.46113357
v -3.96724311 2.51388642 3.49464411
v -3.96724311 2.51337849 3.60005717
v -3.96724311 2.51385256 3.46113357
v -4.07204757 2.50882404 3.46113357
v -4.07204757 2.34203657 4.02143556
v -3.58980544 2.34203657 3.46113357
v -4.07204757 2.40099038 3.46113357
v -4.07204757 2.34203657 3.81077401
v -3.86182494 2.34203657 3.46113357
v -3.91554902 2.34252758 3.46113357
v -4.07204757 2.39884015 3.46135280
v -4.07204757 2.34252758 3.75505073
f 1 2 3
f 1 3 4
f 1 4 11
f 1 11 5
f 1 5 12
f 1 12 6
f 1 6 7
f 1 7 8
f 1 8 2
f 2 8 7
f 2 7 9
f 2 9 10
f 2 10 13
f 2 13 17
f 2 17 18
f 2 18 14
f 2 14 11
f 2 11 4
f 2 4 3
f 5 11 14
f 5 14 15
f 5 15 12
f 6 12 15
f 6 15 16
f 6 16 13
f 6 13 10
f 6 10 9
f 6 9 7
f 13 16 17
f 14 18 16
f 14 16 15
f 16 18 17

