# https://github.com/mikedh/trimesh
v -0.04367050 2.44164201 3.07348935
v -0.06799386 2.34204945 3.07348935
v -0.04367050 2.34204945 3.07299404
v -0.04367050 2.47910158 3.07299404
v -0.06844331 2.47211145 3.07348935
v -0.69924765 2.34204945 3.07348935
v -0.27875403 2.34203604 2.29467378
v -0.04367050 2.34204945 2.29467378
v -0.69924765 2.47182970 3.07348935
v -0.04367050 2.46729484 2.29467378
v -0.69918358 2.45795678 1.80915255
v -0.69924765 2.34204945 2.29467378
v -0.31957135 2.34203604 2.29467378
v -0.27130938 2.34204945 1.80828569
v -0.06844331 2.34206287 1.80853318
v -0.06844331 2.45903012 1.80828569
v -0.69924765 2.45795678 2.29467378
v -0.49002773 2.45838611 1.80915255
v -0.59534375 2.45818486 1.80915255
v -0.27130938 2.45846662 1.80828569
v -0.69918358 2.34204945 1.80915255
v -0.17356648 2.34206287 1.80828569
f 1 2 3
f 1 3 8
f 1 8 10
f 1 10 4
f 1 4 5
f 1 5 9
f 1 9 6
f 1 6 2
f 2 6 13
f 2 13 7
f 2 7 3
f 3 7 8
f 4 9 5
f 4 10 11
f 4 11 9
f 6 9 17
f 6 17 12
f 6 12 13
f 7 13 14
f 7 14 8
f 8 14 15
f 8 15 16
f 8 16 10
f 9 11 17
f 10 16 18
f 10 18 19
f 10 19 11
f 11 19 16
f 11 16 20
f 11 20 14
f 11 14 21
f 11 21 12
f 11 12 17
f 12 21 13
f 13 21 14
f 14 20 16
f 14 16 22
f 14 22 15
f 15 22 16
f 16 19 18

