# https://github.com/mikedh/trimesh
v -5.96733994 2.45862446 4.02145629
v -6.43805163 2.45879526 4.02145629
v -5.96733994 2.34203657 4.02145629
v -5.96733994 2.51652556 3.70542313
v -6.43805163 2.34203657 4.02145629
v -5.96964403 2.51652556 3.70542313
v -6.07504045 2.51427101 3.70542313
v -6.18043687 2.51437348 3.60003927
v -6.18043687 2.51650848 3.49465541
v -6.43805163 2.46159637 3.54161081
v -5.96733994 2.34203657 3.81074794
v -5.96733994 2.50783186 3.41736201
v -6.18043687 2.51650848 3.41736201
v -6.43805163 2.34203657 3.41736201
v -6.43805163 2.46159637 3.41736201
v -5.96733994 2.34251481 3.75776030
v -6.28578712 2.34203657 3.41736201
v -6.23154505 2.34253189 3.41736201
v -5.96733994 2.40178232 3.41736201
v -5.96733994 2.34253189 3.75657747
f 1 2 5
f 1 5 3
f 1 3 11
f 1 11 16
f 1 16 20
f 1 20 19
f 1 19 12
f 1 12 4
f 1 4 2
f 2 4 6
f 2 6 7
f 2 7 8
f 2 8 9
f 2 9 10
f 2 10 15
f 2 15 14
f 2 14 5
f 3 5 14
f 3 14 17
f 3 17 11
f 4 12 13
f 4 13 6
f 6 13 9
f 6 9 8
f 6 8 7
f 9 13 15
f 9 15 10
f 11 17 18
f 11 18 16
f 12 19 18
f 12 18 17
f 12 17 14
f 12 14 15
f 12 15 13
f 16 18 20
f 18 19 20

