# https://github.com/mikedh/trimesh
v -6.77586221 2.50106740 -1.14376803
v -6.77582358 2.50008379 -1.14376803
v -6.77586221 2.50106740 -1.14242491
v -6.76326380 2.55583562 -1.14376803
v -6.77266455 2.42221122 -1.14376803
v -6.77266455 2.42221122 -1.14242491
v -6.77582358 2.50106740 -1.03702290
v -6.76326380 2.55583562 -1.03702290
v -6.74989495 2.55583562 -1.14376803
v -6.71059684 2.37018455 -1.14376803
v -6.70978777 2.36957765 -1.03702290
v -6.77258729 2.42227400 -1.03702290
v -6.76838803 2.43102185 -0.94995460
v -6.76792570 2.50106740 -0.94172794
v -6.76218493 2.55514499 -0.96194202
v -6.73729622 2.55583562 -1.03702290
v -6.69718936 2.54361374 -1.14376803
v -6.38230605 2.54813416 -0.93168805
v -6.70978777 2.36951486 -1.14376803
v -6.70978777 2.36951486 -1.14242491
v -6.65708249 2.34253885 -1.03702290
v -6.65627342 2.34268535 -0.98346565
v -6.70628200 2.40316686 -0.93158732
v -6.68601656 2.44556671 -0.87766071
v -6.68601656 2.46931984 -0.87766071
v -6.73644883 2.55514499 -0.96194202
v -6.38230605 2.51592618 -0.83528501
v -6.38230605 2.51661680 -0.83716539
v -6.38230605 2.50684349 -1.03702290
v -6.38230605 2.46073941 -1.14376803
v -6.65708249 2.34253885 -1.14376803
v -6.60195000 2.34203657 -1.03702290
v -6.60195000 2.34253885 -0.98302914
v -6.38230605 2.41367265 -0.80506461
v -6.38230605 2.43920464 -0.80073304
v -6.38230605 2.34203657 -1.14376803
v -6.60195000 2.34203657 -1.14376803
v -6.38230605 2.34203657 -1.03702290
v -6.38230605 2.34207844 -1.03248984
v -6.38230605 2.34253885 -0.98302914
f 1 2 3
f 1 3 8
f 1 8 4
f 1 4 9
f 1 9 17
f 1 17 30
f 1 30 36
f 1 36 37
f 1 37 31
f 1 31 19
f 1 19 10
f 1 10 5
f 1 5 2
f 2 5 6
f 2 6 7
f 2 7 3
f 3 7 8
f 4 8 16
f 4 16 9
f 5 10 6
f 6 10 11
f 6 11 12
f 6 12 7
f 7 12 13
f 7 13 14
f 7 14 15
f 7 15 8
f 8 15 26
f 8 26 16
f 9 16 18
f 9 18 17
f 10 19 20
f 10 20 11
f 11 13 12
f 11 20 21
f 11 21 22
f 11 22 13
f 13 22 23
f 13 23 24
f 13 24 14
f 14 24 25
f 14 25 15
f 15 25 27
f 15 27 28
f 15 28 18
f 15 18 26
f 16 26 18
f 17 18 29
f 17 29 30
f 18 28 27
f 18 27 35
f 18 35 34
f 18 34 40
f 18 40 39
f 18 39 38
f 18 38 36
f 18 36 30
f 18 30 29
f 19 31 21
f 19 21 20
f 21 31 37
f 21 37 32
f 21 32 22
f 22 32 33
f 22 33 34
f 22 34 23
f 23 34 24
f 24 34 35
f 24 35 25
f 25 35 27
f 32 37 36
f 32 36 38
f 32 38 39
f 32 39 33
f 33 39 40
f 33 40 34

