# https://github.com/mikedh/trimesh
v -4.28338267 2.50783863 0.12010591
v -4.55226366 2.50983905 0.12010591
v -4.28338267 2.40075913 0.12010591
v -4.28338267 2.50788462 -4.51612985
v -4.55226366 2.39238959 0.12010591
v -4.55226366 2.50983905 -3.92973560
v -4.28338267 2.40123049 -4.51567601
v -4.28338267 2.40461050 -4.51612985
v -4.55226366 2.50788462 -4.51612985
v -4.55226366 2.39482688 -3.77678325
v -4.55226366 2.39522926 -3.88207980
v -4.55226366 2.40167886 -4.51612985
v -4.28343527 2.40124199 -4.51612985
f 1 2 5
f 1 5 3
f 1 3 7
f 1 7 8
f 1 8 4
f 1 4 2
f 2 4 6
f 2 6 9
f 2 9 12
f 2 12 11
f 2 11 10
f 2 10 5
f 3 5 7
f 4 8 13
f 4 13 12
f 4 12 9
f 4 9 6
f 5 10 7
f 7 10 11
f 7 11 12
f 7 12 13
f 7 13 8

