v 0.042500 -0.000000 -0.047500
v 0.042500 -0.000000 0.047500
v 0.041052 0.011000 -0.047500
v 0.041052 0.011000 0.047500
v 0.036806 0.021250 -0.047500
v 0.036806 0.021250 0.047500
v 0.030052 0.030052 -0.047500
v 0.030052 0.030052 0.047500
v 0.021250 0.036806 -0.047500
v 0.021250 0.036806 0.047500
v 0.011000 0.041052 -0.047500
v 0.011000 0.041052 0.047500
v 0.000000 0.042500 -0.047500
v 0.000000 0.042500 0.047500
v -0.011000 0.041052 -0.047500
v -0.011000 0.041052 0.047500
v -0.021250 0.036806 -0.047500
v -0.021250 0.036806 0.047500
v -0.030052 0.030052 -0.047500
v -0.030052 0.030052 0.047500
v -0.036806 0.021250 -0.047500
v -0.036806 0.021250 0.047500
v -0.041052 0.011000 -0.047500
v -0.041052 0.011000 0.047500
v -0.042500 0.000000 -0.047500
v -0.042500 0.000000 0.047500
v -0.041052 -0.011000 -0.047500
v -0.041052 -0.011000 0.047500
v -0.036806 -0.021250 -0.047500
v -0.036806 -0.021250 0.047500
v -0.030052 -0.030052 -0.047500
v -0.030052 -0.030052 0.047500
v -0.021250 -0.036806 -0.047500
v -0.021250 -0.036806 0.047500
v -0.011000 -0.041052 -0.047500
v -0.011000 -0.041052 0.047500
v -0.000000 -0.042500 -0.047500
v -0.000000 -0.042500 0.047500
v 0.011000 -0.041052 -0.047500
v 0.011000 -0.041052 0.047500
v 0.021250 -0.036806 -0.047500
v 0.021250 -0.036806 0.047500
v 0.030052 -0.030052 -0.047500
v 0.030052 -0.030052 0.047500
v 0.036806 -0.021250 -0.047500
v 0.036806 -0.021250 0.047500
v 0.041052 -0.011000 -0.047500
v 0.041052 -0.011000 0.047500
v 0.000000 0.000000 -0.047500
v 0.000000 0.000000 0.047500
f 1 3 4
f 1 4 2
f 3 5 6
f 3 6 4
f 5 7 8
f 5 8 6
f 7 9 10
f 7 10 8
f 9 11 12
f 9 12 10
f 11 13 14
f 11 14 12
f 13 15 16
f 13 16 14
f 15 17 18
f 15 18 16
f 17 19 20
f 17 20 18
f 19 21 22
f 19 22 20
f 21 23 24
f 21 24 22
f 23 25 26
f 23 26 24
f 25 27 28
f 25 28 26
f 27 29 30
f 27 30 28
f 29 31 32
f 29 32 30
f 31 33 34
f 31 34 32
f 33 35 36
f 33 36 34
f 35 37 38
f 35 38 36
f 37 39 40
f 37 40 38
f 39 41 42
f 39 42 40
f 41 43 44
f 41 44 42
f 43 45 46
f 43 46 44
f 45 47 48
f 45 48 46
f 47 1 2
f 47 2 48
f 49 3 1
f 50 2 4
f 49 5 3
f 50 4 6
f 49 7 5
f 50 6 8
f 49 9 7
f 50 8 10
f 49 11 9
f 50 10 12
f 49 13 11
f 50 12 14
f 49 15 13
f 50 14 16
f 49 17 15
f 50 16 18
f 49 19 17
f 50 18 20
f 49 21 19
f 50 20 22
f 49 23 21
f 50 22 24
f 49 25 23
f 50 24 26
f 49 27 25
f 50 26 28
f 49 29 27
f 50 28 30
f 49 31 29
f 50 30 32
f 49 33 31
f 50 32 34
f 49 35 33
f 50 34 36
f 49 37 35
f 50 36 38
f 49 39 37
f 50 38 40
f 49 41 39
f 50 40 42
f 49 43 41
f 50 42 44
f 49 45 43
f 50 44 46
f 49 47 45
f 50 46 48
f 49 1 47
f 50 48 2
v -0.040000 0.005501 -0.023001
v -0.040000 0.005501 -0.011999
v -0.040000 -0.005500 -0.023001
v -0.040000 -0.005500 -0.011999
v -0.069999 0.005501 -0.023001
v -0.069999 0.005501 -0.011999
v -0.069999 -0.005500 -0.023001
v -0.069999 -0.005500 -0.011999
f 51 52 54
f 51 54 53
f 55 57 58
f 55 58 56
f 51 55 56
f 51 56 52
f 53 54 58
f 53 58 57
f 51 53 57
f 51 57 55
f 52 56 58
f 52 58 54
v -0.062500 0.005500 -0.018500
v -0.062500 0.005500 0.023501
v -0.062500 -0.005501 -0.018500
v -0.062500 -0.005501 0.023501
v -0.073501 0.005500 -0.018500
v -0.073501 0.005500 0.023501
v -0.073501 -0.005501 -0.018500
v -0.073501 -0.005501 0.023501
f 59 60 62
f 59 62 61
f 63 65 66
f 63 66 64
f 59 63 64
f 59 64 60
f 61 62 66
f 61 66 65
f 59 61 65
f 59 65 63
f 60 64 66
f 60 66 62
v -0.040000 0.005501 0.017000
v -0.040000 0.005501 0.028002
v -0.040000 -0.005500 0.017000
v -0.040000 -0.005500 0.028002
v -0.069999 0.005501 0.017000
v -0.069999 0.005501 0.028002
v -0.069999 -0.005500 0.017000
v -0.069999 -0.005500 0.028002
f 67 68 70
f 67 70 69
f 71 73 74
f 71 74 72
f 67 71 72
f 67 72 68
f 69 70 74
f 69 74 73
f 67 69 73
f 67 73 71
f 68 72 74
f 68 74 70
v 0.034001 0.000000 0.039002
v 0.034001 0.000000 0.051002
v 0.032842 0.008800 0.039002
v 0.032842 0.008800 0.051002
v 0.029445 0.017000 0.039002
v 0.029445 0.017000 0.051002
v 0.024042 0.024042 0.039002
v 0.024042 0.024042 0.051002
v 0.017000 0.029445 0.039002
v 0.017000 0.029445 0.051002
v 0.008800 0.032842 0.039002
v 0.008800 0.032842 0.051002
v 0.000000 0.034001 0.039002
v 0.000000 0.034001 0.051002
v -0.008800 0.032842 0.039002
v -0.008800 0.032842 0.051002
v -0.017000 0.029445 0.039002
v -0.017000 0.029445 0.051002
v -0.024042 0.024042 0.039002
v -0.024042 0.024042 0.051002
v -0.029445 0.017000 0.039002
v -0.029445 0.017000 0.051002
v -0.032842 0.008800 0.039002
v -0.032842 0.008800 0.051002
v -0.034001 -0.000000 0.039002
v -0.034001 -0.000000 0.051002
v -0.032842 -0.008800 0.039002
v -0.032842 -0.008800 0.051002
v -0.029445 -0.017000 0.039002
v -0.029445 -0.017000 0.051002
v -0.024042 -0.024042 0.039002
v -0.024042 -0.024042 0.051002
v -0.017000 -0.029445 0.039002
v -0.017000 -0.029445 0.051002
v -0.008800 -0.032842 0.039002
v -0.008800 -0.032842 0.051002
v -0.000000 -0.034001 0.039002
v -0.000000 -0.034001 0.051002
v 0.008800 -0.032842 0.039002
v 0.008800 -0.032842 0.051002
v 0.017000 -0.029445 0.039002
v 0.017000 -0.029445 0.051002
v 0.024042 -0.024042 0.039002
v 0.024042 -0.024042 0.051002
v 0.029445 -0.017000 0.039002
v 0.029445 -0.017000 0.051002
v 0.032842 -0.008800 0.039002
v 0.032842 -0.008800 0.051002
v 0.000000 0.000000 0.039002
v 0.000000 0.000000 0.051002
f 75 77 78
f 75 78 76
f 77 79 80
f 77 80 78
f 79 81 82
f 79 82 80
f 81 83 84
f 81 84 82
f 83 85 86
f 83 86 84
f 85 87 88
f 85 88 86
f 87 89 90
f 87 90 88
f 89 91 92
f 89 92 90
f 91 93 94
f 91 94 92
f 93 95 96
f 93 96 94
f 95 97 98
f 95 98 96
f 97 99 100
f 97 100 98
f 99 101 102
f 99 102 100
f 101 103 104
f 101 104 102
f 103 105 106
f 103 106 104
f 105 107 108
f 105 108 106
f 107 109 110
f 107 110 108
f 109 111 112
f 109 112 110
f 111 113 114
f 111 114 112
f 113 115 116
f 113 116 114
f 115 117 118
f 115 118 116
f 117 119 120
f 117 120 118
f 119 121 122
f 119 122 120
f 121 75 76
f 121 76 122
f 123 77 75
f 124 76 78
f 123 79 77
f 124 78 80
f 123 81 79
f 124 80 82
f 123 83 81
f 124 82 84
f 123 85 83
f 124 84 86
f 123 87 85
f 124 86 88
f 123 89 87
f 124 88 90
f 123 91 89
f 124 90 92
f 123 93 91
f 124 92 94
f 123 95 93
f 124 94 96
f 123 97 95
f 124 96 98
f 123 99 97
f 124 98 100
f 123 101 99
f 124 100 102
f 123 103 101
f 124 102 104
f 123 105 103
f 124 104 106
f 123 107 105
f 124 106 108
f 123 109 107
f 124 108 110
f 123 111 109
f 124 110 112
f 123 113 111
f 124 112 114
f 123 115 113
f 124 114 116
f 123 117 115
f 124 116 118
f 123 119 117
f 124 118 120
f 123 121 119
f 124 120 122
f 123 75 121
f 124 122 76
