v 0.027500 0.000000 -0.057500
v 0.027500 0.000000 0.057500
v 0.026563 0.007118 -0.057500
v 0.026563 0.007118 0.057500
v 0.023816 0.013750 -0.057500
v 0.023816 0.013750 0.057500
v 0.019446 0.019446 -0.057500
v 0.019446 0.019446 0.057500
v 0.013750 0.023816 -0.057500
v 0.013750 0.023816 0.057500
v 0.007118 0.026563 -0.057500
v 0.007118 0.026563 0.057500
v -0.000000 0.027500 -0.057500
v -0.000000 0.027500 0.057500
v -0.007118 0.026563 -0.057500
v -0.007118 0.026563 0.057500
v -0.013750 0.023816 -0.057500
v -0.013750 0.023816 0.057500
v -0.019446 0.019446 -0.057500
v -0.019446 0.019446 0.057500
v -0.023816 0.013750 -0.057500
v -0.023816 0.013750 0.057500
v -0.026563 0.007118 -0.057500
v -0.026563 0.007118 0.057500
v -0.027500 -0.000000 -0.057500
v -0.027500 -0.000000 0.057500
v -0.026563 -0.007118 -0.057500
v -0.026563 -0.007118 0.057500
v -0.023816 -0.013750 -0.057500
v -0.023816 -0.013750 0.057500
v -0.019446 -0.019446 -0.057500
v -0.019446 -0.019446 0.057500
v -0.013750 -0.023816 -0.057500
v -0.013750 -0.023816 0.057500
v -0.007118 -0.026563 -0.057500
v -0.007118 -0.026563 0.057500
v 0.000000 -0.027500 -0.057500
v 0.000000 -0.027500 0.057500
v 0.007118 -0.026563 -0.057500
v 0.007118 -0.026563 0.057500
v 0.013750 -0.023816 -0.057500
v 0.013750 -0.023816 0.057500
v 0.019446 -0.019446 -0.057500
v 0.019446 -0.019446 0.057500
v 0.023816 -0.013750 -0.057500
v 0.023816 -0.013750 0.057500
v 0.026563 -0.007118 -0.057500
v 0.026563 -0.007118 0.057500
v 0.000000 -0.000000 -0.057500
v 0.000000 -0.000000 0.057500
f 1 3 4
f 1 4 2
f 3 5 6
f 3 6 4
f 5 7 8
f 5 8 6
f 7 9 10
f 7 10 8
f 9 11 12
f 9 12 10
f 11 13 14
f 11 14 12
f 13 15 16
f 13 16 14
f 15 17 18
f 15 18 16
f 17 19 20
f 17 20 18
f 19 21 22
f 19 22 20
f 21 23 24
f 21 24 22
f 23 25 26
f 23 26 24
f 25 27 28
f 25 28 26
f 27 29 30
f 27 30 28
f 29 31 32
f 29 32 30
f 31 33 34
f 31 34 32
f 33 35 36
f 33 36 34
f 35 37 38
f 35 38 36
f 37 39 40
f 37 40 38
f 39 41 42
f 39 42 40
f 41 43 44
f 41 44 42
f 43 45 46
f 43 46 44
f 45 47 48
f 45 48 46
f 47 1 2
f 47 2 48
f 49 3 1
f 50 2 4
f 49 5 3
f 50 4 6
f 49 7 5
f 50 6 8
f 49 9 7
f 50 8 10
f 49 11 9
f 50 10 12
f 49 13 11
f 50 12 14
f 49 15 13
f 50 14 16
f 49 17 15
f 50 16 18
f 49 19 17
f 50 18 20
f 49 21 19
f 50 20 22
f 49 23 21
f 50 22 24
f 49 25 23
f 50 24 26
f 49 27 25
f 50 26 28
f 49 29 27
f 50 28 30
f 49 31 29
f 50 30 32
f 49 33 31
f 50 32 34
f 49 35 33
f 50 34 36
f 49 37 35
f 50 36 38
f 49 39 37
f 50 38 40
f 49 41 39
f 50 40 42
f 49 43 41
f 50 42 44
f 49 45 43
f 50 44 46
f 49 47 45
f 50 46 48
f 49 1 47
f 50 48 2
v 0.028325 0.000000 -0.025301
v 0.028325 0.000000 0.020698
v 0.027360 0.007331 -0.025301
v 0.027360 0.007331 0.020698
v 0.024530 0.014163 -0.025301
v 0.024530 0.014163 0.020698
v 0.020029 0.020029 -0.025301
v 0.020029 0.020029 0.020698
v 0.014163 0.024530 -0.025301
v 0.014163 0.024530 0.020698
v 0.007331 0.027360 -0.025301
v 0.007331 0.027360 0.020698
v -0.000000 0.028325 -0.025301
v -0.000000 0.028325 0.020698
v -0.007331 0.027360 -0.025301
v -0.007331 0.027360 0.020698
v -0.014163 0.024530 -0.025301
v -0.014163 0.024530 0.020698
v -0.020029 0.020029 -0.025301
v -0.020029 0.020029 0.020698
v -0.024530 0.014163 -0.025301
v -0.024530 0.014163 0.020698
v -0.027360 0.007331 -0.025301
v -0.027360 0.007331 0.020698
v -0.028325 -0.000000 -0.025301
v -0.028325 -0.000000 0.020698
v -0.027360 -0.007331 -0.025301
v -0.027360 -0.007331 0.020698
v -0.024530 -0.014163 -0.025301
v -0.024530 -0.014163 0.020698
v -0.020029 -0.020029 -0.025301
v -0.020029 -0.020029 0.020698
v -0.014163 -0.024530 -0.025301
v -0.014163 -0.024530 0.020698
v -0.007331 -0.027360 -0.025301
v -0.007331 -0.027360 0.020698
v 0.000000 -0.028325 -0.025301
v 0.000000 -0.028325 0.020698
v 0.007331 -0.027360 -0.025301
v 0.007331 -0.027360 0.020698
v 0.014163 -0.024530 -0.025301
v 0.014163 -0.024530 0.020698
v 0.020029 -0.020029 -0.025301
v 0.020029 -0.020029 0.020698
v 0.024530 -0.014163 -0.025301
v 0.024530 -0.014163 0.020698
v 0.027360 -0.007331 -0.025301
v 0.027360 -0.007331 0.020698
v 0.000000 -0.000000 -0.025301
v 0.000000 -0.000000 0.020698
f 51 53 54
f 51 54 52
f 53 55 56
f 53 56 54
f 55 57 58
f 55 58 56
f 57 59 60
f 57 60 58
f 59 61 62
f 59 62 60
f 61 63 64
f 61 64 62
f 63 65 66
f 63 66 64
f 65 67 68
f 65 68 66
f 67 69 70
f 67 70 68
f 69 71 72
f 69 72 70
f 71 73 74
f 71 74 72
f 73 75 76
f 73 76 74
f 75 77 78
f 75 78 76
f 77 79 80
f 77 80 78
f 79 81 82
f 79 82 80
f 81 83 84
f 81 84 82
f 83 85 86
f 83 86 84
f 85 87 88
f 85 88 86
f 87 89 90
f 87 90 88
f 89 91 92
f 89 92 90
f 91 93 94
f 91 94 92
f 93 95 96
f 93 96 94
f 95 97 98
f 95 98 96
f 97 51 52
f 97 52 98
f 99 53 51
f 100 52 54
f 99 55 53
f 100 54 56
f 99 57 55
f 100 56 58
f 99 59 57
f 100 58 60
f 99 61 59
f 100 60 62
f 99 63 61
f 100 62 64
f 99 65 63
f 100 64 66
f 99 67 65
f 100 66 68
f 99 69 67
f 100 68 70
f 99 71 69
f 100 70 72
f 99 73 71
f 100 72 74
f 99 75 73
f 100 74 76
f 99 77 75
f 100 76 78
f 99 79 77
f 100 78 80
f 99 81 79
f 100 80 82
f 99 83 81
f 100 82 84
f 99 85 83
f 100 84 86
f 99 87 85
f 100 86 88
f 99 89 87
f 100 88 90
f 99 91 89
f 100 90 92
f 99 93 91
f 100 92 94
f 99 95 93
f 100 94 96
f 99 97 95
f 100 96 98
f 99 51 97
f 100 98 52
v 0.024201 0.000000 -0.057501
v 0.024201 0.000000 -0.048300
v 0.023376 0.006264 -0.057501
v 0.023376 0.006264 -0.048300
v 0.020958 0.012100 -0.057501
v 0.020958 0.012100 -0.048300
v 0.017112 0.017112 -0.057501
v 0.017112 0.017112 -0.048300
v 0.012100 0.020958 -0.057501
v 0.012100 0.020958 -0.048300
v 0.006264 0.023376 -0.057501
v 0.006264 0.023376 -0.048300
v -0.000000 0.024201 -0.057501
v -0.000000 0.024201 -0.048300
v -0.006264 0.023376 -0.057501
v -0.006264 0.023376 -0.048300
v -0.012100 0.020958 -0.057501
v -0.012100 0.020958 -0.048300
v -0.017112 0.017112 -0.057501
v -0.017112 0.017112 -0.048300
v -0.020958 0.012100 -0.057501
v -0.020958 0.012100 -0.048300
v -0.023376 0.006264 -0.057501
v -0.023376 0.006264 -0.048300
v -0.024201 -0.000000 -0.057501
v -0.024201 -0.000000 -0.048300
v -0.023376 -0.006264 -0.057501
v -0.023376 -0.006264 -0.048300
v -0.020958 -0.012100 -0.057501
v -0.020958 -0.012100 -0.048300
v -0.017112 -0.017112 -0.057501
v -0.017112 -0.017112 -0.048300
v -0.012100 -0.020958 -0.057501
v -0.012100 -0.020958 -0.048300
v -0.006264 -0.023376 -0.057501
v -0.006264 -0.023376 -0.048300
v 0.000000 -0.024201 -0.057501
v 0.000000 -0.024201 -0.048300
v 0.006264 -0.023376 -0.057501
v 0.006264 -0.023376 -0.048300
v 0.012100 -0.020958 -0.057501
v 0.012100 -0.020958 -0.048300
v 0.017112 -0.017112 -0.057501
v 0.017112 -0.017112 -0.048300
v 0.020958 -0.012100 -0.057501
v 0.020958 -0.012100 -0.048300
v 0.023376 -0.006264 -0.057501
v 0.023376 -0.006264 -0.048300
v 0.000000 -0.000000 -0.057501
v 0.000000 -0.000000 -0.048300
f 101 103 104
f 101 104 102
f 103 105 106
f 103 106 104
f 105 107 108
f 105 108 106
f 107 109 110
f 107 110 108
f 109 111 112
f 109 112 110
f 111 113 114
f 111 114 112
f 113 115 116
f 113 116 114
f 115 117 118
f 115 118 116
f 117 119 120
f 117 120 118
f 119 121 122
f 119 122 120
f 121 123 124
f 121 124 122
f 123 125 126
f 123 126 124
f 125 127 128
f 125 128 126
f 127 129 130
f 127 130 128
f 129 131 132
f 129 132 130
f 131 133 134
f 131 134 132
f 133 135 136
f 133 136 134
f 135 137 138
f 135 138 136
f 137 139 140
f 137 140 138
f 139 141 142
f 139 142 140
f 141 143 144
f 141 144 142
f 143 145 146
f 143 146 144
f 145 147 148
f 145 148 146
f 147 101 102
f 147 102 148
f 149 103 101
f 150 102 104
f 149 105 103
f 150 104 106
f 149 107 105
f 150 106 108
f 149 109 107
f 150 108 110
f 149 111 109
f 150 110 112
f 149 113 111
f 150 112 114
f 149 115 113
f 150 114 116
f 149 117 115
f 150 116 118
f 149 119 117
f 150 118 120
f 149 121 119
f 150 120 122
f 149 123 121
f 150 122 124
f 149 125 123
f 150 124 126
f 149 127 125
f 150 126 128
f 149 129 127
f 150 128 130
f 149 131 129
f 150 130 132
f 149 133 131
f 150 132 134
f 149 135 133
f 150 134 136
f 149 137 135
f 150 136 138
f 149 139 137
f 150 138 140
f 149 141 139
f 150 140 142
f 149 143 141
f 150 142 144
f 149 145 143
f 150 144 146
f 149 147 145
f 150 146 148
f 149 101 147
f 150 148 102
v 0.024201 0.000000 0.050599
v 0.024201 0.000000 0.059800
v 0.023376 0.006264 0.050599
v 0.023376 0.006264 0.059800
v 0.020958 0.012100 0.050599
v 0.020958 0.012100 0.059800
v 0.017112 0.017112 0.050599
v 0.017112 0.017112 0.059800
v 0.012100 0.020958 0.050599
v 0.012100 0.020958 0.059800
v 0.006264 0.023376 0.050599
v 0.006264 0.023376 0.059800
v -0.000000 0.024201 0.050599
v -0.000000 0.024201 0.059800
v -0.006264 0.023376 0.050599
v -0.006264 0.023376 0.059800
v -0.012100 0.020958 0.050599
v -0.012100 0.020958 0.059800
v -0.017112 0.017112 0.050599
v -0.017112 0.017112 0.059800
v -0.020958 0.012100 0.050599
v -0.020958 0.012100 0.059800
v -0.023376 0.006264 0.050599
v -0.023376 0.006264 0.059800
v -0.024201 -0.000000 0.050599
v -0.024201 -0.000000 0.059800
v -0.023376 -0.006264 0.050599
v -0.023376 -0.006264 0.059800
v -0.020958 -0.012100 0.050599
v -0.020958 -0.012100 0.059800
v -0.017112 -0.017112 0.050599
v -0.017112 -0.017112 0.059800
v -0.012100 -0.020958 0.050599
v -0.012100 -0.020958 0.059800
v -0.006264 -0.023376 0.050599
v -0.006264 -0.023376 0.059800
v 0.000000 -0.024201 0.050599
v 0.000000 -0.024201 0.059800
v 0.006264 -0.023376 0.050599
v 0.006264 -0.023376 0.059800
v 0.012100 -0.020958 0.050599
v 0.012100 -0.020958 0.059800
v 0.017112 -0.017112 0.050599
v 0.017112 -0.017112 0.059800
v 0.020958 -0.012100 0.050599
v 0.020958 -0.012100 0.059800
v 0.023376 -0.006264 0.050599
v 0.023376 -0.006264 0.059800
v 0.000000 -0.000000 0.050599
v 0.000000 -0.000000 0.059800
f 151 153 154
f 151 154 152
f 153 155 156
f 153 156 154
f 155 157 158
f 155 158 156
f 157 159 160
f 157 160 158
f 159 161 162
f 159 162 160
f 161 163 164
f 161 164 162
f 163 165 166
f 163 166 164
f 165 167 168
f 165 168 166
f 167 169 170
f 167 170 168
f 169 171 172
f 169 172 170
f 171 173 174
f 171 174 172
f 173 175 176
f 173 176 174
f 175 177 178
f 175 178 176
f 177 179 180
f 177 180 178
f 179 181 182
f 179 182 180
f 181 183 184
f 181 184 182
f 183 185 186
f 183 186 184
f 185 187 188
f 185 188 186
f 187 189 190
f 187 190 188
f 189 191 192
f 189 192 190
f 191 193 194
f 191 194 192
f 193 195 196
f 193 196 194
f 195 197 198
f 195 198 196
f 197 151 152
f 197 152 198
f 199 153 151
f 200 152 154
f 199 155 153
f 200 154 156
f 199 157 155
f 200 156 158
f 199 159 157
f 200 158 160
f 199 161 159
f 200 160 162
f 199 163 161
f 200 162 164
f 199 165 163
f 200 164 166
f 199 167 165
f 200 166 168
f 199 169 167
f 200 168 170
f 199 171 169
f 200 170 172
f 199 173 171
f 200 172 174
f 199 175 173
f 200 174 176
f 199 177 175
f 200 176 178
f 199 179 177
f 200 178 180
f 199 181 179
f 200 180 182
f 199 183 181
f 200 182 184
f 199 185 183
f 200 184 186
f 199 187 185
f 200 186 188
f 199 189 187
f 200 188 190
f 199 191 189
f 200 190 192
f 199 193 191
f 200 192 194
f 199 195 193
f 200 194 196
f 199 197 195
f 200 196 198
f 199 151 197
f 200 198 152
