v -0.329999 -0.210000 -0.044000
v -0.329999 -0.210000 -0.014000
v -0.329999 0.210000 -0.044000
v -0.329999 0.210000 -0.014000
v 0.329999 -0.210000 -0.044000
v 0.329999 -0.210000 -0.014000
v 0.329999 0.210000 -0.044000
v 0.329999 0.210000 -0.014000
f 1 2 4
f 1 4 3
f 5 7 8
f 5 8 6
f 1 5 6
f 1 6 2
f 3 4 8
f 3 8 7
f 1 3 7
f 1 7 5
f 2 6 8
f 2 8 4
v 0.297000 0.176999 -0.286999
v 0.297000 0.176999 -0.013001
v 0.297000 0.212999 -0.286999
v 0.297000 0.212999 -0.013001
v 0.333000 0.176999 -0.286999
v 0.333000 0.176999 -0.013001
v 0.333000 0.212999 -0.286999
v 0.333000 0.212999 -0.013001
f 9 10 12
f 9 12 11
f 13 15 16
f 13 16 14
f 9 13 14
f 9 14 10
f 11 12 16
f 11 16 15
f 9 11 15
f 9 15 13
f 10 14 16
f 10 16 12
v -0.333000 -0.212999 -0.286999
v -0.333000 -0.212999 -0.013001
v -0.333000 -0.176999 -0.286999
v -0.333000 -0.176999 -0.013001
v -0.297000 -0.212999 -0.286999
v -0.297000 -0.212999 -0.013001
v -0.297000 -0.176999 -0.286999
v -0.297000 -0.176999 -0.013001
f 17 18 20
f 17 20 19
f 21 23 24
f 21 24 22
f 17 21 22
f 17 22 18
f 19 20 24
f 19 24 23
f 17 19 23
f 17 23 21
f 18 22 24
f 18 24 20
v 0.297000 -0.212999 -0.286999
v 0.297000 -0.212999 -0.013001
v 0.297000 -0.176999 -0.286999
v 0.297000 -0.176999 -0.013001
v 0.333000 -0.212999 -0.286999
v 0.333000 -0.212999 -0.013001
v 0.333000 -0.176999 -0.286999
v 0.333000 -0.176999 -0.013001
f 25 26 28
f 25 28 27
f 29 31 32
f 29 32 30
f 25 29 30
f 25 30 26
f 27 28 32
f 27 32 31
f 25 27 31
f 25 31 29
f 26 30 32
f 26 32 28
v -0.333000 0.176999 -0.286999
v -0.333000 0.176999 -0.013001
v -0.333000 0.212999 -0.286999
v -0.333000 0.212999 -0.013001
v -0.297000 0.176999 -0.286999
v -0.297000 0.176999 -0.013001
v -0.297000 0.212999 -0.286999
v -0.297000 0.212999 -0.013001
f 33 34 36
f 33 36 35
f 37 39 40
f 37 40 38
f 33 37 38
f 33 38 34
f 35 36 40
f 35 40 39
f 33 35 39
f 33 39 37
f 34 38 40
f 34 40 36
v -0.350000 -0.229999 -0.013001
v -0.350000 -0.229999 0.013001
v -0.350000 0.229999 -0.013001
v -0.350000 0.229999 0.013001
v 0.350000 -0.229999 -0.013001
v 0.350000 -0.229999 0.013001
v 0.350000 0.229999 -0.013001
v 0.350000 0.229999 0.013001
f 41 42 44
f 41 44 43
f 45 47 48
f 45 48 46
f 41 45 46
f 41 46 42
f 43 44 48
f 43 48 47
f 41 43 47
f 41 47 45
f 42 46 48
f 42 48 44
