v 0.039000 0.000000 -0.040999
v 0.039000 0.000000 0.040999
v 0.037671 0.010094 -0.040999
v 0.037671 0.010094 0.040999
v 0.033775 0.019500 -0.040999
v 0.033775 0.019500 0.040999
v 0.027577 0.027577 -0.040999
v 0.027577 0.027577 0.040999
v 0.019500 0.033775 -0.040999
v 0.019500 0.033775 0.040999
v 0.010094 0.037671 -0.040999
v 0.010094 0.037671 0.040999
v 0.000000 0.039000 -0.040999
v 0.000000 0.039000 0.040999
v -0.010094 0.037671 -0.040999
v -0.010094 0.037671 0.040999
v -0.019500 0.033775 -0.040999
v -0.019500 0.033775 0.040999
v -0.027577 0.027577 -0.040999
v -0.027577 0.027577 0.040999
v -0.033775 0.019500 -0.040999
v -0.033775 0.019500 0.040999
v -0.037671 0.010094 -0.040999
v -0.037671 0.010094 0.040999
v -0.039000 -0.000000 -0.040999
v -0.039000 -0.000000 0.040999
v -0.037671 -0.010094 -0.040999
v -0.037671 -0.010094 0.040999
v -0.033775 -0.019500 -0.040999
v -0.033775 -0.019500 0.040999
v -0.027577 -0.027577 -0.040999
v -0.027577 -0.027577 0.040999
v -0.019500 -0.033775 -0.040999
v -0.019500 -0.033775 0.040999
v -0.010094 -0.037671 -0.040999
v -0.010094 -0.037671 0.040999
v -0.000000 -0.039000 -0.040999
v -0.000000 -0.039000 0.040999
v 0.010094 -0.037671 -0.040999
v 0.010094 -0.037671 0.040999
v 0.019500 -0.033775 -0.040999
v 0.019500 -0.033775 0.040999
v 0.027577 -0.027577 -0.040999
v 0.027577 -0.027577 0.040999
v 0.033775 -0.019500 -0.040999
v 0.033775 -0.019500 0.040999
v 0.037671 -0.010094 -0.040999
v 0.037671 -0.010094 0.040999
v 0.000000 0.000000 -0.040999
v 0.000000 0.000000 0.040999
f 1 3 4
f 1 4 2
f 3 5 6
f 3 6 4
f 5 7 8
f 5 8 6
f 7 9 10
f 7 10 8
f 9 11 12
f 9 12 10
f 11 13 14
f 11 14 12
f 13 15 16
f 13 16 14
f 15 17 18
f 15 18 16
f 17 19 20
f 17 20 18
f 19 21 22
f 19 22 20
f 21 23 24
f 21 24 22
f 23 25 26
f 23 26 24
f 25 27 28
f 25 28 26
f 27 29 30
f 27 30 28
f 29 31 32
f 29 32 30
f 31 33 34
f 31 34 32
f 33 35 36
f 33 36 34
f 35 37 38
f 35 38 36
f 37 39 40
f 37 40 38
f 39 41 42
f 39 42 40
f 41 43 44
f 41 44 42
f 43 45 46
f 43 46 44
f 45 47 48
f 45 48 46
f 47 1 2
f 47 2 48
f 49 3 1
f 50 2 4
f 49 5 3
f 50 4 6
f 49 7 5
f 50 6 8
f 49 9 7
f 50 8 10
f 49 11 9
f 50 10 12
f 49 13 11
f 50 12 14
f 49 15 13
f 50 14 16
f 49 17 15
f 50 16 18
f 49 19 17
f 50 18 20
f 49 21 19
f 50 20 22
f 49 23 21
f 50 22 24
f 49 25 23
f 50 24 26
f 49 27 25
f 50 26 28
f 49 29 27
f 50 28 30
f 49 31 29
f 50 30 32
f 49 33 31
f 50 32 34
f 49 35 33
f 50 34 36
f 49 37 35
f 50 36 38
f 49 39 37
f 50 38 40
f 49 41 39
f 50 40 42
f 49 43 41
f 50 42 44
f 49 45 43
f 50 44 46
f 49 47 45
f 50 46 48
f 49 1 47
f 50 48 2
v -0.057000 0.005000 -0.017997
v -0.057000 0.005000 0.020002
v -0.057000 -0.004999 -0.017997
v -0.057000 -0.004999 0.020002
v -0.066999 0.005000 -0.017997
v -0.066999 0.005000 0.020002
v -0.066999 -0.004999 -0.017997
v -0.066999 -0.004999 0.020002
f 51 52 54
f 51 54 53
f 55 57 58
f 55 58 56
f 51 55 56
f 51 56 52
f 53 54 58
f 53 58 57
f 51 53 57
f 51 57 55
f 52 56 58
f 52 58 54
v -0.037000 0.004999 0.015001
v -0.037000 0.004999 0.025000
v -0.037000 -0.005000 0.015001
v -0.037000 -0.005000 0.025000
v -0.063001 0.004999 0.015001
v -0.063001 0.004999 0.025000
v -0.063001 -0.005000 0.015001
v -0.063001 -0.005000 0.025000
f 59 60 62
f 59 62 61
f 63 65 66
f 63 66 64
f 59 63 64
f 59 64 60
f 61 62 66
f 61 66 65
f 59 61 65
f 59 65 63
f 60 64 66
f 60 66 62
v 0.031000 -0.000000 0.032003
v 0.031000 -0.000000 0.042002
v 0.029944 0.008024 0.032003
v 0.029944 0.008024 0.042002
v 0.026847 0.015500 0.032003
v 0.026847 0.015500 0.042002
v 0.021921 0.021921 0.032003
v 0.021921 0.021921 0.042002
v 0.015500 0.026847 0.032003
v 0.015500 0.026847 0.042002
v 0.008024 0.029944 0.032003
v 0.008024 0.029944 0.042002
v -0.000000 0.031000 0.032003
v -0.000000 0.031000 0.042002
v -0.008024 0.029944 0.032003
v -0.008024 0.029944 0.042002
v -0.015500 0.026847 0.032003
v -0.015500 0.026847 0.042002
v -0.021921 0.021921 0.032003
v -0.021921 0.021921 0.042002
v -0.026847 0.015500 0.032003
v -0.026847 0.015500 0.042002
v -0.029944 0.008024 0.032003
v -0.029944 0.008024 0.042002
v -0.031000 0.000000 0.032003
v -0.031000 0.000000 0.042002
v -0.029944 -0.008024 0.032003
v -0.029944 -0.008024 0.042002
v -0.026847 -0.015500 0.032003
v -0.026847 -0.015500 0.042002
v -0.021921 -0.021921 0.032003
v -0.021921 -0.021921 0.042002
v -0.015500 -0.026847 0.032003
v -0.015500 -0.026847 0.042002
v -0.008024 -0.029944 0.032003
v -0.008024 -0.029944 0.042002
v 0.000000 -0.031000 0.032003
v 0.000000 -0.031000 0.042002
v 0.008024 -0.029944 0.032003
v 0.008024 -0.029944 0.042002
v 0.015500 -0.026847 0.032003
v 0.015500 -0.026847 0.042002
v 0.021921 -0.021921 0.032003
v 0.021921 -0.021921 0.042002
v 0.026847 -0.015500 0.032003
v 0.026847 -0.015500 0.042002
v 0.029944 -0.008024 0.032003
v 0.029944 -0.008024 0.042002
v 0.000000 0.000000 0.032003
v 0.000000 0.000000 0.042002
f 67 69 70
f 67 70 68
f 69 71 72
f 69 72 70
f 71 73 74
f 71 74 72
f 73 75 76
f 73 76 74
f 75 77 78
f 75 78 76
f 77 79 80
f 77 80 78
f 79 81 82
f 79 82 80
f 81 83 84
f 81 84 82
f 83 85 86
f 83 86 84
f 85 87 88
f 85 88 86
f 87 89 90
f 87 90 88
f 89 91 92
f 89 92 90
f 91 93 94
f 91 94 92
f 93 95 96
f 93 96 94
f 95 97 98
f 95 98 96
f 97 99 100
f 97 100 98
f 99 101 102
f 99 102 100
f 101 103 104
f 101 104 102
f 103 105 106
f 103 106 104
f 105 107 108
f 105 108 106
f 107 109 110
f 107 110 108
f 109 111 112
f 109 112 110
f 111 113 114
f 111 114 112
f 113 67 68
f 113 68 114
f 115 69 67
f 116 68 70
f 115 71 69
f 116 70 72
f 115 73 71
f 116 72 74
f 115 75 73
f 116 74 76
f 115 77 75
f 116 76 78
f 115 79 77
f 116 78 80
f 115 81 79
f 116 80 82
f 115 83 81
f 116 82 84
f 115 85 83
f 116 84 86
f 115 87 85
f 116 86 88
f 115 89 87
f 116 88 90
f 115 91 89
f 116 90 92
f 115 93 91
f 116 92 94
f 115 95 93
f 116 94 96
f 115 97 95
f 116 96 98
f 115 99 97
f 116 98 100
f 115 101 99
f 116 100 102
f 115 103 101
f 116 102 104
f 115 105 103
f 116 104 106
f 115 107 105
f 116 106 108
f 115 109 107
f 116 108 110
f 115 111 109
f 116 110 112
f 115 113 111
f 116 112 114
f 115 67 113
f 116 114 68
v 0.067500 -0.000000 -0.048999
v 0.067500 -0.000000 -0.040999
v 0.065200 0.017470 -0.048999
v 0.065200 0.017470 -0.040999
v 0.058457 0.033750 -0.048999
v 0.058457 0.033750 -0.040999
v 0.047730 0.047730 -0.048999
v 0.047730 0.047730 -0.040999
v 0.033750 0.058457 -0.048999
v 0.033750 0.058457 -0.040999
v 0.017470 0.065200 -0.048999
v 0.017470 0.065200 -0.040999
v 0.000000 0.067500 -0.048999
v 0.000000 0.067500 -0.040999
v -0.017470 0.065200 -0.048999
v -0.017470 0.065200 -0.040999
v -0.033750 0.058457 -0.048999
v -0.033750 0.058457 -0.040999
v -0.047730 0.047730 -0.048999
v -0.047730 0.047730 -0.040999
v -0.058457 0.033750 -0.048999
v -0.058457 0.033750 -0.040999
v -0.065200 0.017470 -0.048999
v -0.065200 0.017470 -0.040999
v -0.067500 0.000000 -0.048999
v -0.067500 0.000000 -0.040999
v -0.065200 -0.017470 -0.048999
v -0.065200 -0.017470 -0.040999
v -0.058457 -0.033750 -0.048999
v -0.058457 -0.033750 -0.040999
v -0.047730 -0.047730 -0.048999
v -0.047730 -0.047730 -0.040999
v -0.033750 -0.058457 -0.048999
v -0.033750 -0.058457 -0.040999
v -0.017470 -0.065200 -0.048999
v -0.017470 -0.065200 -0.040999
v -0.000000 -0.067500 -0.048999
v -0.000000 -0.067500 -0.040999
v 0.017470 -0.065200 -0.048999
v 0.017470 -0.065200 -0.040999
v 0.033750 -0.058457 -0.048999
v 0.033750 -0.058457 -0.040999
v 0.047730 -0.047730 -0.048999
v 0.047730 -0.047730 -0.040999
v 0.058457 -0.033750 -0.048999
v 0.058457 -0.033750 -0.040999
v 0.065200 -0.017470 -0.048999
v 0.065200 -0.017470 -0.040999
v 0.000000 0.000000 -0.048999
v 0.000000 0.000000 -0.040999
f 117 119 120
f 117 120 118
f 119 121 122
f 119 122 120
f 121 123 124
f 121 124 122
f 123 125 126
f 123 126 124
f 125 127 128
f 125 128 126
f 127 129 130
f 127 130 128
f 129 131 132
f 129 132 130
f 131 133 134
f 131 134 132
f 133 135 136
f 133 136 134
f 135 137 138
f 135 138 136
f 137 139 140
f 137 140 138
f 139 141 142
f 139 142 140
f 141 143 144
f 141 144 142
f 143 145 146
f 143 146 144
f 145 147 148
f 145 148 146
f 147 149 150
f 147 150 148
f 149 151 152
f 149 152 150
f 151 153 154
f 151 154 152
f 153 155 156
f 153 156 154
f 155 157 158
f 155 158 156
f 157 159 160
f 157 160 158
f 159 161 162
f 159 162 160
f 161 163 164
f 161 164 162
f 163 117 118
f 163 118 164
f 165 119 117
f 166 118 120
f 165 121 119
f 166 120 122
f 165 123 121
f 166 122 124
f 165 125 123
f 166 124 126
f 165 127 125
f 166 126 128
f 165 129 127
f 166 128 130
f 165 131 129
f 166 130 132
f 165 133 131
f 166 132 134
f 165 135 133
f 166 134 136
f 165 137 135
f 166 136 138
f 165 139 137
f 166 138 140
f 165 141 139
f 166 140 142
f 165 143 141
f 166 142 144
f 165 145 143
f 166 144 146
f 165 147 145
f 166 146 148
f 165 149 147
f 166 148 150
f 165 151 149
f 166 150 152
f 165 153 151
f 166 152 154
f 165 155 153
f 166 154 156
f 165 157 155
f 166 156 158
f 165 159 157
f 166 158 160
f 165 161 159
f 166 160 162
f 165 163 161
f 166 162 164
f 165 117 163
f 166 164 118
v 0.047500 0.000000 -0.040999
v 0.047500 0.000000 -0.036998
v 0.045881 0.012294 -0.040999
v 0.045881 0.012294 -0.036998
v 0.041136 0.023750 -0.040999
v 0.041136 0.023750 -0.036998
v 0.033587 0.033587 -0.040999
v 0.033587 0.033587 -0.036998
v 0.023750 0.041136 -0.040999
v 0.023750 0.041136 -0.036998
v 0.012294 0.045881 -0.040999
v 0.012294 0.045881 -0.036998
v -0.000000 0.047500 -0.040999
v -0.000000 0.047500 -0.036998
v -0.012294 0.045881 -0.040999
v -0.012294 0.045881 -0.036998
v -0.023750 0.041136 -0.040999
v -0.023750 0.041136 -0.036998
v -0.033587 0.033587 -0.040999
v -0.033587 0.033587 -0.036998
v -0.041136 0.023750 -0.040999
v -0.041136 0.023750 -0.036998
v -0.045881 0.012294 -0.040999
v -0.045881 0.012294 -0.036998
v -0.047500 -0.000000 -0.040999
v -0.047500 -0.000000 -0.036998
v -0.045881 -0.012294 -0.040999
v -0.045881 -0.012294 -0.036998
v -0.041136 -0.023750 -0.040999
v -0.041136 -0.023750 -0.036998
v -0.033587 -0.033587 -0.040999
v -0.033587 -0.033587 -0.036998
v -0.023750 -0.041136 -0.040999
v -0.023750 -0.041136 -0.036998
v -0.012294 -0.045881 -0.040999
v -0.012294 -0.045881 -0.036998
v 0.000000 -0.047500 -0.040999
v 0.000000 -0.047500 -0.036998
v 0.012294 -0.045881 -0.040999
v 0.012294 -0.045881 -0.036998
v 0.023750 -0.041136 -0.040999
v 0.023750 -0.041136 -0.036998
v 0.033587 -0.033587 -0.040999
v 0.033587 -0.033587 -0.036998
v 0.041136 -0.023750 -0.040999
v 0.041136 -0.023750 -0.036998
v 0.045881 -0.012294 -0.040999
v 0.045881 -0.012294 -0.036998
v 0.000000 0.000000 -0.040999
v 0.000000 0.000000 -0.036998
f 167 169 170
f 167 170 168
f 169 171 172
f 169 172 170
f 171 173 174
f 171 174 172
f 173 175 176
f 173 176 174
f 175 177 178
f 175 178 176
f 177 179 180
f 177 180 178
f 179 181 182
f 179 182 180
f 181 183 184
f 181 184 182
f 183 185 186
f 183 186 184
f 185 187 188
f 185 188 186
f 187 189 190
f 187 190 188
f 189 191 192
f 189 192 190
f 191 193 194
f 191 194 192
f 193 195 196
f 193 196 194
f 195 197 198
f 195 198 196
f 197 199 200
f 197 200 198
f 199 201 202
f 199 202 200
f 201 203 204
f 201 204 202
f 203 205 206
f 203 206 204
f 205 207 208
f 205 208 206
f 207 209 210
f 207 210 208
f 209 211 212
f 209 212 210
f 211 213 214
f 211 214 212
f 213 167 168
f 213 168 214
f 215 169 167
f 216 168 170
f 215 171 169
f 216 170 172
f 215 173 171
f 216 172 174
f 215 175 173
f 216 174 176
f 215 177 175
f 216 176 178
f 215 179 177
f 216 178 180
f 215 181 179
f 216 180 182
f 215 183 181
f 216 182 184
f 215 185 183
f 216 184 186
f 215 187 185
f 216 186 188
f 215 189 187
f 216 188 190
f 215 191 189
f 216 190 192
f 215 193 191
f 216 192 194
f 215 195 193
f 216 194 196
f 215 197 195
f 216 196 198
f 215 199 197
f 216 198 200
f 215 201 199
f 216 200 202
f 215 203 201
f 216 202 204
f 215 205 203
f 216 204 206
f 215 207 205
f 216 206 208
f 215 209 207
f 216 208 210
f 215 211 209
f 216 210 212
f 215 213 211
f 216 212 214
f 215 167 213
f 216 214 168
