v 0.075000 -0.000000 -0.054999
v 0.075000 -0.000000 0.054999
v 0.072444 0.019411 -0.054999
v 0.072444 0.019411 0.054999
v 0.064952 0.037500 -0.054999
v 0.064952 0.037500 0.054999
v 0.053033 0.053033 -0.054999
v 0.053033 0.053033 0.054999
v 0.037500 0.064952 -0.054999
v 0.037500 0.064952 0.054999
v 0.019411 0.072444 -0.054999
v 0.019411 0.072444 0.054999
v 0.000000 0.075000 -0.054999
v 0.000000 0.075000 0.054999
v -0.019411 0.072444 -0.054999
v -0.019411 0.072444 0.054999
v -0.037500 0.064952 -0.054999
v -0.037500 0.064952 0.054999
v -0.053033 0.053033 -0.054999
v -0.053033 0.053033 0.054999
v -0.064952 0.037500 -0.054999
v -0.064952 0.037500 0.054999
v -0.072444 0.019411 -0.054999
v -0.072444 0.019411 0.054999
v -0.075000 0.000000 -0.054999
v -0.075000 0.000000 0.054999
v -0.072444 -0.019411 -0.054999
v -0.072444 -0.019411 0.054999
v -0.064952 -0.037500 -0.054999
v -0.064952 -0.037500 0.054999
v -0.053033 -0.053033 -0.054999
v -0.053033 -0.053033 0.054999
v -0.037500 -0.064952 -0.054999
v -0.037500 -0.064952 0.054999
v -0.019411 -0.072444 -0.054999
v -0.019411 -0.072444 0.054999
v -0.000000 -0.075000 -0.054999
v -0.000000 -0.075000 0.054999
v 0.019411 -0.072444 -0.054999
v 0.019411 -0.072444 0.054999
v 0.037500 -0.064952 -0.054999
v 0.037500 -0.064952 0.054999
v 0.053033 -0.053033 -0.054999
v 0.053033 -0.053033 0.054999
v 0.064952 -0.037500 -0.054999
v 0.064952 -0.037500 0.054999
v 0.072444 -0.019411 -0.054999
v 0.072444 -0.019411 0.054999
v 0.000000 0.000000 -0.054999
v 0.000000 0.000000 0.054999
f 1 3 4
f 1 4 2
f 3 5 6
f 3 6 4
f 5 7 8
f 5 8 6
f 7 9 10
f 7 10 8
f 9 11 12
f 9 12 10
f 11 13 14
f 11 14 12
f 13 15 16
f 13 16 14
f 15 17 18
f 15 18 16
f 17 19 20
f 17 20 18
f 19 21 22
f 19 22 20
f 21 23 24
f 21 24 22
f 23 25 26
f 23 26 24
f 25 27 28
f 25 28 26
f 27 29 30
f 27 30 28
f 29 31 32
f 29 32 30
f 31 33 34
f 31 34 32
f 33 35 36
f 33 36 34
f 35 37 38
f 35 38 36
f 37 39 40
f 37 40 38
f 39 41 42
f 39 42 40
f 41 43 44
f 41 44 42
f 43 45 46
f 43 46 44
f 45 47 48
f 45 48 46
f 47 1 2
f 47 2 48
f 49 3 1
f 50 2 4
f 49 5 3
f 50 4 6
f 49 7 5
f 50 6 8
f 49 9 7
f 50 8 10
f 49 11 9
f 50 10 12
f 49 13 11
f 50 12 14
f 49 15 13
f 50 14 16
f 49 17 15
f 50 16 18
f 49 19 17
f 50 18 20
f 49 21 19
f 50 20 22
f 49 23 21
f 50 22 24
f 49 25 23
f 50 24 26
f 49 27 25
f 50 26 28
f 49 29 27
f 50 28 30
f 49 31 29
f 50 30 32
f 49 33 31
f 50 32 34
f 49 35 33
f 50 34 36
f 49 37 35
f 50 36 38
f 49 39 37
f 50 38 40
f 49 41 39
f 50 40 42
f 49 43 41
f 50 42 44
f 49 45 43
f 50 44 46
f 49 47 45
f 50 46 48
f 49 1 47
f 50 48 2
v 0.094999 0.007000 -0.009999
v 0.094999 0.007000 0.004001
v 0.094999 -0.007000 -0.009999
v 0.094999 -0.007000 0.004001
v 0.065000 0.007000 -0.009999
v 0.065000 0.007000 0.004001
v 0.065000 -0.007000 -0.009999
v 0.065000 -0.007000 0.004001
f 51 52 54
f 51 54 53
f 55 57 58
f 55 58 56
f 51 55 56
f 51 56 52
f 53 54 58
f 53 58 57
f 51 53 57
f 51 57 55
f 52 56 58
f 52 58 54
v 0.094999 0.007000 0.040001
v 0.094999 0.007000 0.054001
v 0.094999 -0.007000 0.040001
v 0.094999 -0.007000 0.054001
v 0.065000 0.007000 0.040001
v 0.065000 0.007000 0.054001
v 0.065000 -0.007000 0.040001
v 0.065000 -0.007000 0.054001
f 59 60 62
f 59 62 61
f 63 65 66
f 63 66 64
f 59 63 64
f 59 64 60
f 61 62 66
f 61 66 65
f 59 61 65
f 59 65 63
f 60 64 66
f 60 66 62
v 0.099000 0.007000 -0.005998
v 0.099000 0.007000 0.052002
v 0.099000 -0.007000 -0.005998
v 0.099000 -0.007000 0.052002
v 0.085000 0.007000 -0.005998
v 0.085000 0.007000 0.052002
v 0.085000 -0.007000 -0.005998
v 0.085000 -0.007000 0.052002
f 67 68 70
f 67 70 69
f 71 73 74
f 71 74 72
f 67 71 72
f 67 72 68
f 69 70 74
f 69 74 73
f 67 69 73
f 67 73 71
f 68 72 74
f 68 74 70
v 0.013001 -0.000000 0.069000
v 0.013001 -0.000000 0.087001
v 0.012558 0.003365 0.069000
v 0.012558 0.003365 0.087001
v 0.011259 0.006500 0.069000
v 0.011259 0.006500 0.087001
v 0.009193 0.009193 0.069000
v 0.009193 0.009193 0.087001
v 0.006500 0.011259 0.069000
v 0.006500 0.011259 0.087001
v 0.003365 0.012558 0.069000
v 0.003365 0.012558 0.087001
v 0.000000 0.013001 0.069000
v 0.000000 0.013001 0.087001
v -0.003365 0.012558 0.069000
v -0.003365 0.012558 0.087001
v -0.006500 0.011259 0.069000
v -0.006500 0.011259 0.087001
v -0.009193 0.009193 0.069000
v -0.009193 0.009193 0.087001
v -0.011259 0.006500 0.069000
v -0.011259 0.006500 0.087001
v -0.012558 0.003365 0.069000
v -0.012558 0.003365 0.087001
v -0.013001 0.000000 0.069000
v -0.013001 0.000000 0.087001
v -0.012558 -0.003365 0.069000
v -0.012558 -0.003365 0.087001
v -0.011259 -0.006500 0.069000
v -0.011259 -0.006500 0.087001
v -0.009193 -0.009193 0.069000
v -0.009193 -0.009193 0.087001
v -0.006500 -0.011259 0.069000
v -0.006500 -0.011259 0.087001
v -0.003365 -0.012558 0.069000
v -0.003365 -0.012558 0.087001
v -0.000000 -0.013001 0.069000
v -0.000000 -0.013001 0.087001
v 0.003365 -0.012558 0.069000
v 0.003365 -0.012558 0.087001
v 0.006500 -0.011259 0.069000
v 0.006500 -0.011259 0.087001
v 0.009193 -0.009193 0.069000
v 0.009193 -0.009193 0.087001
v 0.011259 -0.006500 0.069000
v 0.011259 -0.006500 0.087001
v 0.012558 -0.003365 0.069000
v 0.012558 -0.003365 0.087001
v 0.000000 0.000000 0.069000
v 0.000000 0.000000 0.087001
f 75 77 78
f 75 78 76
f 77 79 80
f 77 80 78
f 79 81 82
f 79 82 80
f 81 83 84
f 81 84 82
f 83 85 86
f 83 86 84
f 85 87 88
f 85 88 86
f 87 89 90
f 87 90 88
f 89 91 92
f 89 92 90
f 91 93 94
f 91 94 92
f 93 95 96
f 93 96 94
f 95 97 98
f 95 98 96
f 97 99 100
f 97 100 98
f 99 101 102
f 99 102 100
f 101 103 104
f 101 104 102
f 103 105 106
f 103 106 104
f 105 107 108
f 105 108 106
f 107 109 110
f 107 110 108
f 109 111 112
f 109 112 110
f 111 113 114
f 111 114 112
f 113 115 116
f 113 116 114
f 115 117 118
f 115 118 116
f 117 119 120
f 117 120 118
f 119 121 122
f 119 122 120
f 121 75 76
f 121 76 122
f 123 77 75
f 124 76 78
f 123 79 77
f 124 78 80
f 123 81 79
f 124 80 82
f 123 83 81
f 124 82 84
f 123 85 83
f 124 84 86
f 123 87 85
f 124 86 88
f 123 89 87
f 124 88 90
f 123 91 89
f 124 90 92
f 123 93 91
f 124 92 94
f 123 95 93
f 124 94 96
f 123 97 95
f 124 96 98
f 123 99 97
f 124 98 100
f 123 101 99
f 124 100 102
f 123 103 101
f 124 102 104
f 123 105 103
f 124 104 106
f 123 107 105
f 124 106 108
f 123 109 107
f 124 108 110
f 123 111 109
f 124 110 112
f 123 113 111
f 124 112 114
f 123 115 113
f 124 114 116
f 123 117 115
f 124 116 118
f 123 119 117
f 124 118 120
f 123 121 119
f 124 120 122
f 123 75 121
f 124 122 76
v 0.046000 -0.000000 0.055001
v 0.046000 -0.000000 0.069001
v 0.044433 0.011906 0.055001
v 0.044433 0.011906 0.069001
v 0.039837 0.023000 0.055001
v 0.039837 0.023000 0.069001
v 0.032527 0.032527 0.055001
v 0.032527 0.032527 0.069001
v 0.023000 0.039837 0.055001
v 0.023000 0.039837 0.069001
v 0.011906 0.044433 0.055001
v 0.011906 0.044433 0.069001
v 0.000000 0.046000 0.055001
v 0.000000 0.046000 0.069001
v -0.011906 0.044433 0.055001
v -0.011906 0.044433 0.069001
v -0.023000 0.039837 0.055001
v -0.023000 0.039837 0.069001
v -0.032527 0.032527 0.055001
v -0.032527 0.032527 0.069001
v -0.039837 0.023000 0.055001
v -0.039837 0.023000 0.069001
v -0.044433 0.011906 0.055001
v -0.044433 0.011906 0.069001
v -0.046000 0.000000 0.055001
v -0.046000 0.000000 0.069001
v -0.044433 -0.011906 0.055001
v -0.044433 -0.011906 0.069001
v -0.039837 -0.023000 0.055001
v -0.039837 -0.023000 0.069001
v -0.032527 -0.032527 0.055001
v -0.032527 -0.032527 0.069001
v -0.023000 -0.039837 0.055001
v -0.023000 -0.039837 0.069001
v -0.011906 -0.044433 0.055001
v -0.011906 -0.044433 0.069001
v -0.000000 -0.046000 0.055001
v -0.000000 -0.046000 0.069001
v 0.011906 -0.044433 0.055001
v 0.011906 -0.044433 0.069001
v 0.023000 -0.039837 0.055001
v 0.023000 -0.039837 0.069001
v 0.032527 -0.032527 0.055001
v 0.032527 -0.032527 0.069001
v 0.039837 -0.023000 0.055001
v 0.039837 -0.023000 0.069001
v 0.044433 -0.011906 0.055001
v 0.044433 -0.011906 0.069001
v 0.000000 0.000000 0.055001
v 0.000000 0.000000 0.069001
f 125 127 128
f 125 128 126
f 127 129 130
f 127 130 128
f 129 131 132
f 129 132 130
f 131 133 134
f 131 134 132
f 133 135 136
f 133 136 134
f 135 137 138
f 135 138 136
f 137 139 140
f 137 140 138
f 139 141 142
f 139 142 140
f 141 143 144
f 141 144 142
f 143 145 146
f 143 146 144
f 145 147 148
f 145 148 146
f 147 149 150
f 147 150 148
f 149 151 152
f 149 152 150
f 151 153 154
f 151 154 152
f 153 155 156
f 153 156 154
f 155 157 158
f 155 158 156
f 157 159 160
f 157 160 158
f 159 161 162
f 159 162 160
f 161 163 164
f 161 164 162
f 163 165 166
f 163 166 164
f 165 167 168
f 165 168 166
f 167 169 170
f 167 170 168
f 169 171 172
f 169 172 170
f 171 125 126
f 171 126 172
f 173 127 125
f 174 126 128
f 173 129 127
f 174 128 130
f 173 131 129
f 174 130 132
f 173 133 131
f 174 132 134
f 173 135 133
f 174 134 136
f 173 137 135
f 174 136 138
f 173 139 137
f 174 138 140
f 173 141 139
f 174 140 142
f 173 143 141
f 174 142 144
f 173 145 143
f 174 144 146
f 173 147 145
f 174 146 148
f 173 149 147
f 174 148 150
f 173 151 149
f 174 150 152
f 173 153 151
f 174 152 154
f 173 155 153
f 174 154 156
f 173 157 155
f 174 156 158
f 173 159 157
f 174 158 160
f 173 161 159
f 174 160 162
f 173 163 161
f 174 162 164
f 173 165 163
f 174 164 166
f 173 167 165
f 174 166 168
f 173 169 167
f 174 168 170
f 173 171 169
f 174 170 172
f 173 125 171
f 174 172 126
v -0.059220 0.013001 -0.003268
v -0.051185 0.013001 0.021460
v -0.059220 -0.013000 -0.003268
v -0.051185 -0.013000 0.021460
v -0.144816 0.013000 0.024544
v -0.136782 0.013000 0.049272
v -0.144816 -0.013001 0.024544
v -0.136781 -0.013001 0.049272
f 175 176 178
f 175 178 177
f 179 181 182
f 179 182 180
f 175 179 180
f 175 180 176
f 177 178 182
f 177 182 181
f 175 177 181
f 175 181 179
f 176 180 182
f 176 182 178
