# https://github.com/mikedh/trimesh
v -3.18067890 2.36427995 -0.34073865
v -3.18067890 2.36357253 -0.34073865
v -3.18067890 2.47075543 -0.34261728
v -3.68215921 2.47075543 -0.32101310
v -3.65910267 2.36427995 -0.32101310
v -3.18067890 2.32556152 -0.34355659
v -3.65910267 2.32556152 -0.32101310
v -3.18067890 2.54134193 -0.38206838
v -3.72606840 2.53918265 -0.32101310
v -4.87499738 2.17824567 -0.32101310
v -3.18067890 2.21569823 -3.59028580
v -3.71284481 2.55254792 -0.46519749
v -3.81931187 2.54875057 -0.32101310
v -3.74997265 2.54342679 -0.32101310
v -3.18067890 2.55846738 -0.89117516
v -4.91246440 2.17824567 -0.32101310
v -4.87465844 2.17824567 -0.35858558
v -3.18067890 2.21569823 -5.11854546
v -4.87313257 2.17824567 -2.17051699
v -4.91246440 2.54171422 -0.32101310
v -3.18067890 2.55857903 -1.10439867
v -4.91246440 2.54618167 -5.04762725
v -4.91246440 2.17824567 -2.45982477
v -4.13888268 2.21569823 -5.11901496
v -3.18067890 2.36491280 -5.11854546
v -4.87550595 2.17824567 -2.28229496
v -4.87686234 2.17824567 -2.31141363
v -3.18067890 2.55857903 -2.48941309
v -3.39310449 2.55727601 -3.76875508
v -3.81931187 2.55135654 -4.94101518
v -3.71267526 2.55165443 -4.94101518
v -3.92594848 2.54633065 -5.04762725
v -4.91246440 2.53471513 -5.09177491
v -4.91246440 2.21569823 -5.11901496
v -4.13888268 2.36424270 -5.11901496
v -3.18067890 2.47075543 -5.11572721
v -3.18067890 2.55850454 -2.59602500
v -3.18067890 2.55697820 -3.76875508
v -3.18067890 2.54618167 -5.04762725
v -3.60620820 2.54633065 -5.04762725
v -3.18067890 2.53069438 -5.10680390
v -4.91246440 2.53069438 -5.10680390
v -4.91246440 2.36424270 -5.11901496
v -4.91246440 2.47075543 -5.11572721
f 1 2 6
f 1 6 11
f 1 11 18
f 1 18 25
f 1 25 36
f 1 36 41
f 1 41 39
f 1 39 38
f 1 38 37
f 1 37 28
f 1 28 21
f 1 21 15
f 1 15 8
f 1 8 3
f 1 3 4
f 1 4 5
f 1 5 7
f 1 7 2
f 2 7 6
f 3 8 9
f 3 9 4
f 4 9 14
f 4 14 13
f 4 13 20
f 4 20 16
f 4 16 10
f 4 10 7
f 4 7 5
f 6 7 10
f 6 10 11
f 8 12 13
f 8 13 14
f 8 14 9
f 8 15 12
f 10 16 23
f 10 23 27
f 10 27 26
f 10 26 19
f 10 19 17
f 10 17 11
f 11 17 19
f 11 19 18
f 12 20 13
f 12 15 20
f 15 21 22
f 15 22 20
f 16 20 22
f 16 22 33
f 16 33 42
f 16 42 44
f 16 44 43
f 16 43 34
f 16 34 23
f 18 24 35
f 18 35 25
f 18 19 26
f 18 26 27
f 18 27 23
f 18 23 24
f 21 28 29
f 21 29 22
f 22 29 30
f 22 30 31
f 22 31 32
f 22 32 33
f 23 34 24
f 24 34 43
f 24 43 35
f 25 35 36
f 28 37 29
f 29 38 31
f 29 31 30
f 29 37 38
f 31 38 39
f 31 39 40
f 31 40 32
f 32 40 33
f 33 40 41
f 33 41 42
f 35 43 44
f 35 44 36
f 36 44 42
f 36 42 41
f 39 41 40

