# https://github.com/mikedh/trimesh
v -3.18033972 -0.05862340 -3.17526793
v -3.18033972 -0.05862340 -1.10869530
v -3.18033972 0.04856108 -3.17526793
v -0.52555527 -0.05862340 -3.17526793
v -3.18033972 0.06816712 -1.10869530
v -0.52555527 -0.05862340 -1.10869530
v -3.18033972 0.11612349 -3.13663098
v -3.18003890 0.15116853 -3.17526793
v -0.10745534 -0.05855511 -3.17526793
v -2.93308919 0.42387745 -1.10869530
v -2.92135835 0.50660560 -1.24422814
v -3.01610767 0.38466531 -1.27618960
v -3.02543218 0.40147056 -1.34719263
v -3.18033972 0.09767873 -1.31765862
v -0.10745534 -0.05855511 -1.85048478
v -0.51502748 -0.05855511 -1.10869530
v -3.18033972 0.14645482 -1.74408141
v -3.07295717 0.15116853 -3.17526793
v -3.07596507 0.33896335 -1.63727343
v -3.03445587 0.41130768 -1.63727343
v -2.93038211 0.51364187 -2.06369622
v -2.91323697 0.49909103 -2.22350362
v -2.85969611 0.51056774 -2.24049581
v -2.75291520 0.55141947 -2.16989732
v -2.75291520 0.52170289 -2.25465593
v -0.10745534 0.03401017 -3.17526793
v -2.89157998 0.47688902 -1.10869530
v -2.92978055 0.51371024 -1.31765862
v -2.98873564 0.44040944 -1.31421975
v -2.84164866 0.51897040 -1.10869530
v -2.83833994 0.52122474 -1.10869530
v -2.74449308 0.57075232 -1.10869530
v -2.85969611 0.55340062 -1.31765862
v -2.98602857 0.45769284 -1.42426434
v -3.18033972 0.14508857 -1.73032583
v -0.10745534 -0.04844464 -1.76532163
v -0.44253687 -0.04625860 -1.10869530
v -2.00695273 0.55230756 -2.16989732
v -1.79399241 0.55005315 -2.16989732
v -1.47455200 0.51425669 -2.24676676
v -2.93248762 0.51555472 -1.42426434
v -2.98512610 0.46459252 -1.63727343
v -2.85969611 0.55592822 -1.42426434
v -2.85969611 0.54574945 -2.06369622
v -2.85969611 0.52928576 -2.16989732
v -2.75291520 0.56576542 -2.06369622
v -2.64643504 0.56952267 -2.06369622
v -2.22021372 0.58270723 -2.06369622
v -2.11373364 0.58462004 -2.06369622
v -2.64643504 0.55203430 -2.16989732
v -2.11373364 0.55251245 -2.16989732
v -1.36807191 0.51002129 -2.24150723
v -1.30731206 0.50332651 -2.23179741
v -1.36807191 0.54615931 -2.06369622
v -1.36807191 0.57205027 -1.74408141
v -1.36807191 0.57546596 -1.63727343
v -0.10745534 0.05218174 -1.90712542
v -2.64643504 0.58810402 -1.10869530
v -2.75291520 0.58537146 -1.31765862
v -0.10745534 -0.04625860 -1.74731802
v -0.38929690 0.01925436 -1.10869530
v -0.10745534 -0.02945343 -1.70321928
v -0.10745534 -0.02583278 -1.69391399
v -1.79399241 0.57990636 -2.06369622
v -1.68721150 0.54786719 -2.16989732
v -1.58103208 0.54458810 -2.16989732
v -1.47455200 0.54117241 -2.16989732
v -2.75291520 0.58714764 -1.42426434
v -2.75291520 0.58687437 -1.53087002
v -2.75291520 0.58496160 -1.63727343
v -2.75291520 0.58052119 -1.74408141
v -2.64643504 0.59336418 -1.74408141
v -2.32669389 0.61850373 -1.63727343
v -2.22021372 0.62342229 -1.63727343
v -2.11373364 0.62465194 -1.63727343
v -2.00695273 0.62335399 -1.63727343
v -1.36807191 0.52880761 -2.16989732
v -1.47455200 0.56112001 -2.06369622
v -1.47455200 0.59138312 -1.74408141
v -1.47455200 0.59575519 -1.63727343
v -1.56148076 0.62745280 -1.10869530
v -1.36807191 0.57683228 -1.53087002
v -0.10745534 0.05218174 -1.68521567
v -1.36807191 0.57710546 -1.42426434
v -2.33180729 0.63237140 -1.10869530
v -2.32428755 0.63332779 -1.10869530
v -0.36824132 0.05218174 -1.10869530
v -0.10745534 0.02745206 -1.68602482
v -1.62344375 0.60620722 -1.69876890
v -1.68721150 0.57614908 -2.06369622
v -1.90017183 0.62089469 -1.63727343
v -1.58103208 0.56870288 -2.06369622
v -2.64643504 0.59985400 -1.53087002
v -2.64643504 0.59814615 -1.63727343
v -2.51589164 0.60777843 -1.60955999
v -2.32669389 0.62328566 -1.53087002
v -2.22021372 0.62820426 -1.53087002
v -2.11373364 0.62970717 -1.53087002
v -2.00695273 0.62868245 -1.53087002
v -1.58524326 0.59999063 -1.73841735
v -1.58103208 0.62916064 -1.10869530
v -1.47425118 0.59773626 -1.10869530
v -1.36807191 0.57368978 -1.31765862
v -2.43317405 0.61652258 -1.53087002
v -2.53514229 0.60921301 -1.53087002
v -2.58838233 0.60504587 -1.53087002
v -1.90017183 0.63920282 -1.10869530
v -1.90017183 0.62581329 -1.53087002
v -1.63848322 0.63271300 -1.10869530
v -1.89596065 0.63920282 -1.10869530
v -1.68721150 0.63476241 -1.10869530
f 1 2 5
f 1 5 14
f 1 14 35
f 1 35 17
f 1 17 7
f 1 7 3
f 1 3 8
f 1 8 18
f 1 18 26
f 1 26 9
f 1 9 4
f 1 4 6
f 1 6 2
f 2 6 16
f 2 16 37
f 2 37 61
f 2 61 87
f 2 87 102
f 2 102 81
f 2 81 101
f 2 101 109
f 2 109 111
f 2 111 110
f 2 110 107
f 2 107 86
f 2 86 85
f 2 85 58
f 2 58 32
f 2 32 31
f 2 31 30
f 2 30 27
f 2 27 10
f 2 10 5
f 3 7 8
f 4 9 15
f 4 15 6
f 5 10 11
f 5 11 12
f 5 12 13
f 5 13 14
f 6 15 16
f 7 17 8
f 8 17 19
f 8 19 20
f 8 20 21
f 8 21 22
f 8 22 23
f 8 23 24
f 8 24 25
f 8 25 18
f 9 26 57
f 9 57 83
f 9 83 88
f 9 88 63
f 9 63 62
f 9 62 60
f 9 60 36
f 9 36 15
f 10 27 11
f 11 28 29
f 11 29 12
f 11 27 30
f 11 30 31
f 11 31 32
f 11 32 33
f 11 33 28
f 12 29 13
f 13 29 28
f 13 28 34
f 13 34 20
f 13 20 19
f 13 19 14
f 14 19 35
f 15 36 37
f 15 37 16
f 17 35 19
f 18 25 38
f 18 38 39
f 18 39 40
f 18 40 26
f 20 34 41
f 20 41 42
f 20 42 21
f 21 42 41
f 21 41 43
f 21 43 44
f 21 44 22
f 22 44 45
f 22 45 23
f 23 45 24
f 24 46 47
f 24 47 48
f 24 48 49
f 24 49 50
f 24 50 25
f 24 45 44
f 24 44 46
f 25 50 51
f 25 51 38
f 26 40 52
f 26 52 53
f 26 53 54
f 26 54 55
f 26 55 56
f 26 56 57
f 28 33 41
f 28 41 34
f 32 58 59
f 32 59 33
f 33 43 41
f 33 59 43
f 36 60 37
f 37 60 62
f 37 62 63
f 37 63 61
f 38 51 49
f 38 49 39
f 39 64 65
f 39 65 40
f 39 49 64
f 40 65 66
f 40 66 67
f 40 67 52
f 43 59 68
f 43 68 69
f 43 69 44
f 44 69 70
f 44 70 71
f 44 71 46
f 46 71 72
f 46 72 73
f 46 73 74
f 46 74 47
f 47 74 48
f 48 74 49
f 49 51 50
f 49 74 75
f 49 75 76
f 49 76 64
f 52 67 77
f 52 77 53
f 53 77 54
f 54 77 78
f 54 78 79
f 54 79 55
f 55 79 80
f 55 80 56
f 56 80 81
f 56 81 82
f 56 82 57
f 57 82 84
f 57 84 83
f 58 85 59
f 59 85 86
f 59 86 68
f 61 63 87
f 63 88 87
f 64 89 90
f 64 90 67
f 64 67 66
f 64 66 65
f 64 76 91
f 64 91 89
f 67 78 77
f 67 90 92
f 67 92 78
f 68 86 93
f 68 93 69
f 69 93 94
f 69 94 70
f 70 94 71
f 71 94 72
f 72 94 95
f 72 95 73
f 73 95 96
f 73 96 97
f 73 97 74
f 74 97 98
f 74 98 75
f 75 98 99
f 75 99 76
f 76 99 91
f 78 92 100
f 78 100 79
f 79 100 89
f 79 89 101
f 79 101 81
f 79 81 80
f 81 102 103
f 81 103 84
f 81 84 82
f 83 87 88
f 83 84 103
f 83 103 102
f 83 102 87
f 86 98 97
f 86 97 96
f 86 96 104
f 86 104 105
f 86 105 106
f 86 106 93
f 86 107 98
f 89 100 90
f 89 91 108
f 89 108 109
f 89 109 101
f 90 100 92
f 91 99 108
f 93 106 94
f 94 106 105
f 94 105 104
f 94 104 95
f 95 104 96
f 98 107 110
f 98 110 99
f 99 110 111
f 99 111 108
f 108 111 109

