# https://github.com/mikedh/trimesh
v -3.18033980 -0.05860037 3.09824266
v -3.18033980 -0.05860037 3.15929477
v -3.18033980 0.02580175 3.09824266
v -1.22218710 -0.05860037 3.09824266
v -3.18033980 -0.04813945 3.26592113
v -2.53995337 -0.05860037 3.47901249
v -2.53995337 -0.05226391 3.58558485
v -3.18033980 0.05446577 3.11366682
v -3.17976484 0.05031820 3.09824266
v -1.22218710 0.04133192 3.09824266
v -1.22218710 -0.05860037 3.47901249
v -3.18033980 -0.03585811 3.32138374
v -2.60186441 -0.03797800 3.64287494
v -1.22218710 -0.05629625 3.51792231
v -2.53995337 -0.03995954 3.64486348
v -1.22218710 -0.05226391 3.58558485
v -1.22218710 -0.04777073 3.60724335
v -3.18033980 0.12310726 3.16697984
v -3.15254695 0.05123989 3.09824266
v -1.25783871 0.04209231 3.09824266
v -2.64652474 0.17677161 3.21534885
v -2.55701250 0.17677161 3.22684994
v -1.22218710 0.10988129 3.26097680
v -3.18033980 0.01891224 3.33207862
v -2.60933976 0.01928088 3.64604580
v -2.54167840 0.01589378 3.64701338
v -1.22218710 -0.03995954 3.64486348
v -3.18033980 0.17640297 3.22244277
v -3.18014817 0.17677161 3.22249645
v -3.07300181 0.05123989 3.09824266
v -2.64652474 0.05103253 3.09824266
v -2.72606988 0.05107860 3.09824266
v -2.53995337 0.17677161 3.23109543
v -1.22218710 0.11571085 3.32562954
v -2.48398425 0.17677161 3.25345277
v -3.18033980 0.12506585 3.34110770
v -2.61240654 0.12584928 3.64722843
v -3.18033980 0.12584928 3.34116139
v -2.57752168 0.12584928 3.64722843
v -1.22218710 -0.01611128 3.64486348
v -3.18033980 0.17677161 3.22319530
v -1.22218710 0.10709321 3.36803295
v -2.45159117 0.17677161 3.27801306
v -2.45791644 0.17677161 3.35411354
v -2.58078016 0.17677161 3.64722843
v -3.18033980 0.17677161 3.34121507
v -2.61240654 0.17677161 3.64722843
v -1.22218710 -0.00371479 3.62325898
v -1.22218710 0.01789836 3.58558485
f 1 2 5
f 1 5 12
f 1 12 24
f 1 24 36
f 1 36 38
f 1 38 46
f 1 46 41
f 1 41 28
f 1 28 18
f 1 18 8
f 1 8 3
f 1 3 9
f 1 9 19
f 1 19 30
f 1 30 32
f 1 32 31
f 1 31 20
f 1 20 10
f 1 10 4
f 1 4 11
f 1 11 6
f 1 6 2
f 2 6 7
f 2 7 5
f 3 8 9
f 4 10 23
f 4 23 34
f 4 34 42
f 4 42 49
f 4 49 48
f 4 48 40
f 4 40 27
f 4 27 17
f 4 17 16
f 4 16 14
f 4 14 11
f 5 7 13
f 5 13 12
f 6 11 14
f 6 14 7
f 7 15 13
f 7 14 16
f 7 16 17
f 7 17 15
f 8 18 9
f 9 18 19
f 10 20 21
f 10 21 22
f 10 22 23
f 12 13 24
f 13 15 25
f 13 25 24
f 15 26 25
f 15 17 27
f 15 27 26
f 18 28 29
f 18 29 21
f 18 21 19
f 19 21 30
f 20 31 21
f 21 31 32
f 21 32 30
f 21 29 41
f 21 41 46
f 21 46 47
f 21 47 45
f 21 45 44
f 21 44 43
f 21 43 35
f 21 35 33
f 21 33 22
f 22 33 23
f 23 33 35
f 23 35 34
f 24 25 36
f 25 26 37
f 25 37 38
f 25 38 36
f 26 39 37
f 26 27 39
f 27 40 39
f 28 41 29
f 34 35 43
f 34 43 44
f 34 44 45
f 34 45 42
f 37 46 38
f 37 39 45
f 37 45 47
f 37 47 46
f 39 40 45
f 40 48 45
f 42 45 49
f 45 48 49

