# https://github.com/mikedh/trimesh
v -4.07015399 0.92850499 1.81908015
v -4.03386930 0.90560244 1.77954868
v -4.13801968 0.90589238 1.77954868
v -4.10190302 0.92850499 1.81908015
v -4.07166580 0.92850499 1.88019134
v -3.71268288 0.90550583 1.95066071
v -3.71268288 0.90550583 1.88019134
v -3.81918508 0.88936774 1.77362851
v -3.92585525 0.89709856 1.77362851
v -3.92585525 0.85100358 1.69208276
v -4.56520437 0.85100358 1.69208276
v -4.56520437 0.89796826 1.77362851
v -4.10005521 0.92850499 1.88019134
v -4.08241683 0.92628239 1.94139846
v -3.18033996 0.80094654 1.95066071
v -3.18033996 0.80635810 1.88086001
v -3.18033996 0.80935381 1.77429686
v -4.07267373 0.92290013 1.95066071
v -3.18033996 0.80925716 1.77362851
v -3.18033996 0.75968332 1.66458271
v -3.18033996 0.66865296 1.56040675
v -3.18033996 0.65879618 1.54971219
v -3.18033996 0.04013777 0.97526477
v -3.60601272 0.05830514 0.97526477
v -4.89646973 0.05482623 0.97526477
v -4.67187457 0.84491556 1.69752549
v -4.67187457 0.88492252 1.77362851
v -4.56520437 0.89081728 1.88019134
v -4.08846430 0.92628239 1.94139846
v -3.18033996 -0.05852684 1.95066071
v -4.09820740 0.92106408 1.95066071
v -3.18033996 -0.05852684 0.97526477
v -4.89646973 -0.05185898 0.97526477
v -4.89646973 0.09734575 1.45775856
v -4.74125215 0.84530211 1.77362851
v -4.73402879 0.83206307 1.70879295
v -4.73638056 0.83786119 1.88019134
v -4.67187457 0.87235994 1.88019134
v -4.45870221 0.87912441 1.95066071
v -3.49951052 -0.05852684 1.95066071
v -3.49951052 -0.05852684 0.97526477
v -4.89646973 -0.04963641 1.95066071
v -4.89646973 0.06448984 1.95066071
v -4.75821869 0.76538479 1.77362851
v -4.75435503 0.76538479 1.88019134
v -4.72747743 0.82220629 1.93595572
v -4.65558004 0.83389913 1.95066071
v -4.56167663 0.85854110 1.95066071
v -4.73688453 0.72450812 1.95066071
v -4.73402879 0.76538479 1.94493144
v -4.72546158 0.76422518 1.95066071
v -4.67069861 0.82336590 1.95066071
f 1 2 3
f 1 3 4
f 1 4 13
f 1 13 5
f 1 5 6
f 1 6 7
f 1 7 8
f 1 8 9
f 1 9 2
f 2 9 10
f 2 10 3
f 3 11 12
f 3 12 4
f 3 10 11
f 4 12 13
f 5 13 29
f 5 29 14
f 5 14 6
f 6 15 16
f 6 16 17
f 6 17 7
f 6 14 18
f 6 18 31
f 6 31 39
f 6 39 48
f 6 48 47
f 6 47 52
f 6 52 51
f 6 51 49
f 6 49 43
f 6 43 42
f 6 42 40
f 6 40 30
f 6 30 15
f 7 17 19
f 7 19 8
f 8 10 9
f 8 19 20
f 8 20 10
f 10 20 21
f 10 21 22
f 10 22 23
f 10 23 24
f 10 24 11
f 11 25 26
f 11 26 12
f 11 24 25
f 12 26 27
f 12 27 28
f 12 28 29
f 12 29 13
f 14 29 18
f 15 30 32
f 15 32 23
f 15 23 22
f 15 22 21
f 15 21 20
f 15 20 19
f 15 19 17
f 15 17 16
f 18 29 31
f 23 32 41
f 23 41 33
f 23 33 25
f 23 25 24
f 25 33 42
f 25 42 43
f 25 43 34
f 25 34 35
f 25 35 36
f 25 36 26
f 26 36 27
f 27 36 35
f 27 35 37
f 27 37 38
f 27 38 28
f 28 39 29
f 28 38 39
f 29 39 31
f 30 40 41
f 30 41 32
f 33 40 42
f 33 41 40
f 34 43 44
f 34 44 35
f 35 44 45
f 35 45 37
f 37 45 46
f 37 46 38
f 38 47 48
f 38 48 39
f 38 46 47
f 43 49 50
f 43 50 46
f 43 46 45
f 43 45 44
f 46 50 51
f 46 51 52
f 46 52 47
f 49 51 50

