# https://github.com/mikedh/trimesh
v -6.57511365 1.26439349 -5.12138976
v -5.91113411 1.26439349 -5.10902782
v -6.57511365 1.26439349 -4.97797267
v -6.57511365 2.04435138 -5.12718129
v -5.91113411 2.15095988 -5.12707614
v -5.91113411 1.26439349 -4.99178790
v -5.91113411 2.32694182 -4.91334026
v -6.57511365 2.32694182 -4.91205565
v -6.57511365 2.15095988 -5.12595990
v -6.48386189 2.15095988 -5.12703389
v -6.37727174 2.15095988 -5.12707614
v -5.91113411 2.32694182 -5.11903116
v -6.57511365 2.32694182 -5.11903116
f 1 2 6
f 1 6 3
f 1 3 8
f 1 8 13
f 1 13 9
f 1 9 4
f 1 4 5
f 1 5 2
f 2 5 12
f 2 12 7
f 2 7 6
f 3 6 7
f 3 7 8
f 4 9 10
f 4 10 11
f 4 11 5
f 5 11 13
f 5 13 12
f 7 12 13
f 7 13 8
f 9 13 10
f 10 13 11

