# https://github.com/mikedh/trimesh
v -5.11044576 1.36691763 4.33783145
v -5.11044576 0.12586492 4.33935239
v -5.11044576 1.36691763 4.22644309
v -6.59031831 1.36691763 4.34365156
v -5.11044576 0.09037770 4.33558085
v -6.48375166 0.76538443 4.34365156
v -6.48375166 0.23245150 4.34365156
v -6.48375166 0.12586492 4.34302292
v -5.11044576 0.09112745 4.13650865
v -6.44112494 1.36691763 4.13650865
v -6.69705045 1.36691763 4.34075167
v -6.69705045 0.44574965 4.34221162
v -6.59031831 0.23245150 4.34365156
v -5.11044576 0.09037770 4.13650865
v -6.48375166 0.09037770 4.33825743
v -6.59031831 0.12586492 4.34302292
v -6.72464215 1.36691763 4.13650865
v -6.77999072 1.36691763 4.30814417
v -6.78147767 0.44574965 4.30960413
v -6.69705045 0.33916300 4.34221162
v -6.79221702 0.09037770 4.13650865
v -6.59031831 0.09037770 4.33825743
v -6.62584063 0.09037770 4.33795311
v -6.69705045 0.12586492 4.34065034
v -6.69705045 0.09037770 4.33637150
v -6.77817308 0.65892281 4.13650865
v -6.77999072 1.36691763 4.24420679
v -6.79254738 0.65892281 4.22518580
v -6.79816483 0.12586492 4.22518580
v -6.79833001 0.09037770 4.22518580
v -6.78147767 0.33916300 4.30960413
v -6.79816483 0.09037770 4.18969874
v -6.78015590 0.12586492 4.30836717
v -6.77833827 0.09037770 4.30646123
v -6.72282451 0.09037770 4.32799679
v -6.78626889 0.09037770 4.28066715
f 1 2 5
f 1 5 14
f 1 14 9
f 1 9 3
f 1 3 10
f 1 10 17
f 1 17 27
f 1 27 18
f 1 18 11
f 1 11 4
f 1 4 2
f 2 4 6
f 2 6 7
f 2 7 8
f 2 8 5
f 3 9 10
f 4 11 12
f 4 12 20
f 4 20 13
f 4 13 7
f 4 7 6
f 5 8 15
f 5 15 22
f 5 22 23
f 5 23 25
f 5 25 35
f 5 35 34
f 5 34 36
f 5 36 30
f 5 30 32
f 5 32 21
f 5 21 14
f 7 13 16
f 7 16 8
f 8 16 22
f 8 22 15
f 9 14 21
f 9 21 26
f 9 26 17
f 9 17 10
f 11 18 19
f 11 19 12
f 12 19 31
f 12 31 20
f 13 20 16
f 16 23 22
f 16 20 24
f 16 24 25
f 16 25 23
f 17 26 27
f 18 27 28
f 18 28 29
f 18 29 30
f 18 30 19
f 19 30 31
f 20 31 24
f 21 32 28
f 21 28 27
f 21 27 26
f 24 31 33
f 24 33 34
f 24 34 35
f 24 35 25
f 28 32 29
f 29 32 30
f 30 36 31
f 31 36 33
f 33 36 34

