# https://github.com/mikedh/trimesh
v -3.48966718 -0.05862340 1.95075600
v -3.48966718 0.59317073 1.95075600
v -3.18037012 -0.05862340 1.95075600
v -3.48966718 -0.05862340 3.09507721
v -3.35000808 0.73945889 1.95075600
v -3.48966718 0.59784585 3.09507721
v -3.18037012 0.80091521 1.95075600
v -3.18037012 -0.05862340 3.09507721
v -3.35000808 0.73945889 2.30665519
v -3.32844753 0.75492922 1.95075600
v -3.18037012 0.04958394 3.09507721
v -3.18037012 0.65870712 2.73100058
v -3.18037012 0.75322920 2.63241983
v -3.18037012 0.79853516 2.51983613
v -3.28626515 0.78476489 2.41318943
v -3.34891794 0.73690885 2.41318943
v -3.25044193 0.79046000 1.95075600
v -3.18037012 0.80967039 2.41318943
v -3.28626515 0.78331982 1.95075600
f 1 2 5
f 1 5 10
f 1 10 19
f 1 19 17
f 1 17 7
f 1 7 3
f 1 3 8
f 1 8 4
f 1 4 6
f 1 6 2
f 2 6 5
f 3 7 18
f 3 18 14
f 3 14 13
f 3 13 12
f 3 12 11
f 3 11 8
f 4 8 11
f 4 11 6
f 5 9 10
f 5 6 9
f 6 11 12
f 6 12 13
f 6 13 14
f 6 14 15
f 6 15 16
f 6 16 9
f 7 17 18
f 9 16 15
f 9 15 10
f 10 15 19
f 14 18 15
f 15 18 19
f 17 19 18

