# https://github.com/mikedh/trimesh
v -3.18002747 -0.05860323 -4.90305325
v -2.00696711 -0.05909671 -3.87578550
v -3.18002747 -0.05860323 -3.17526809
v -3.18002747 0.15068633 -4.90305325
v 0.01283473 -0.05860323 -4.90305325
v -1.38371033 -0.05919948 -3.87578550
v -3.18002747 0.04841631 -3.17526809
v 0.01283473 -0.05860323 -3.17526809
v -3.18002747 0.15085079 -3.85819651
v -2.73524600 0.15085079 -4.30705518
v -2.06260387 0.15085079 -4.90305325
v 0.01283473 0.05937532 -4.90305325
v -0.40850436 -0.05909671 -3.87578550
v -3.17971489 0.15085079 -3.17526809
v -3.18002747 0.15085079 -3.19218063
v 0.01283473 0.05269301 -3.17526809
v -1.38371033 0.15085079 -4.90305325
v 0.01283473 0.14069371 -3.87730772
v -0.28222741 0.14069371 -4.90305325
v -3.07187968 0.15085079 -3.17526809
v 0.01283473 0.14069371 -3.54869702
v -1.38371033 0.15085079 -3.56341090
v -2.96623234 0.15085079 -3.19928392
f 1 2 3
f 1 3 7
f 1 7 15
f 1 15 9
f 1 9 4
f 1 4 11
f 1 11 17
f 1 17 19
f 1 19 12
f 1 12 5
f 1 5 6
f 1 6 2
f 2 6 3
f 3 6 8
f 3 8 16
f 3 16 20
f 3 20 14
f 3 14 7
f 4 9 10
f 4 10 11
f 5 12 18
f 5 18 21
f 5 21 16
f 5 16 8
f 5 8 13
f 5 13 6
f 6 13 8
f 7 14 15
f 9 15 14
f 9 14 20
f 9 20 23
f 9 23 22
f 9 22 17
f 9 17 11
f 9 11 10
f 12 19 18
f 16 21 20
f 17 22 21
f 17 21 18
f 17 18 19
f 20 21 23
f 21 22 23

