# https://github.com/mikedh/trimesh
v -0.54732050 0.15913823 1.34914621
v -1.17431459 0.03959982 1.34914621
v -0.54732050 -0.05688614 1.34914621
v -0.54732050 0.16891595 0.45982391
v -1.17431459 0.11341205 0.45982391
v -1.17431459 0.01846292 1.34914621
v -0.61961878 -0.05857893 1.34914621
v -0.54732050 -0.05860117 0.81442101
v -0.54732050 -0.05860117 0.45982391
v -1.17431459 -0.05860117 0.45982391
v -1.17431459 -0.05860117 1.34879805
v -1.15442958 -0.05860117 1.34914621
v -0.62158269 -0.05860117 1.34914621
f 1 2 6
f 1 6 12
f 1 12 13
f 1 13 7
f 1 7 3
f 1 3 8
f 1 8 9
f 1 9 4
f 1 4 5
f 1 5 2
f 2 5 10
f 2 10 11
f 2 11 6
f 3 7 8
f 4 9 10
f 4 10 5
f 6 11 12
f 7 13 8
f 8 13 12
f 8 12 11
f 8 11 10
f 8 10 9

