# https://github.com/mikedh/trimesh
v -6.69862381 1.26439349 -4.09049278
v -6.69779314 1.26426401 -4.83466740
v -6.69805139 1.26439349 -4.80086773
v -6.80976535 1.26439349 -4.09049278
v -6.69673788 0.22719284 -4.09049278
v -6.80976535 1.26439349 -4.83466740
v -6.69673788 0.23004191 -4.83219063
v -6.69673788 0.23004191 -4.83466740
v -6.81142670 0.12592035 -4.09049278
v -6.69673788 -0.05862340 -4.09049278
v -6.81142670 0.12592035 -4.83466740
v -6.69673788 -0.05797586 -4.83466740
v -6.81123579 0.12410724 -4.09049278
v -6.69706348 -0.05862340 -4.09049278
v -6.69673788 -0.05862340 -4.83430305
v -6.80009936 0.01933822 -4.83466740
v -6.69706348 -0.05862340 -4.83466740
v -6.80009936 0.01933822 -4.09049278
v -6.76873263 -0.04632055 -4.09049278
v -6.76877774 -0.04619094 -4.83466740
v -6.76873263 -0.04632055 -4.72816937
v -6.79957174 0.01817274 -4.09049278
f 1 2 3
f 1 3 6
f 1 6 4
f 1 4 9
f 1 9 13
f 1 13 18
f 1 18 22
f 1 22 19
f 1 19 14
f 1 14 10
f 1 10 5
f 1 5 2
f 2 6 3
f 2 5 7
f 2 7 8
f 2 8 12
f 2 12 17
f 2 17 20
f 2 20 16
f 2 16 11
f 2 11 6
f 4 6 11
f 4 11 9
f 5 10 15
f 5 15 12
f 5 12 8
f 5 8 7
f 9 11 13
f 10 14 17
f 10 17 15
f 11 16 13
f 12 15 17
f 13 16 18
f 14 19 21
f 14 21 17
f 16 20 21
f 16 21 22
f 16 22 18
f 17 21 20
f 19 22 21

