# https://github.com/mikedh/trimesh
v -5.91113411 2.45860417 -2.69596199
v -6.57511365 2.48289112 -2.69596199
v -5.91113411 2.35628579 -2.69596199
v -5.91113411 2.55860945 -3.76898506
v -6.57511365 2.35136489 -2.69596199
v -6.27068127 2.55860945 -3.76898506
v -6.57511365 2.55858674 -3.76898506
v -5.91113411 2.32694182 -3.62525095
v -5.91113411 2.54620518 -5.04788391
v -6.57511365 2.32694182 -3.62501398
v -6.57511365 2.54620518 -5.04788391
v -5.91113411 2.32694182 -5.11903942
v -5.91113411 2.53073949 -5.10694304
v -6.57511365 2.54398285 -5.05642254
v -6.57511365 2.32694182 -5.11880213
v -6.55314576 2.32694182 -5.11903942
v -5.91113411 2.36422269 -5.11880213
v -5.91113411 2.47078163 -5.11595592
v -6.57511365 2.52209961 -5.10836614
v -6.57511365 2.53073949 -5.10694304
v -6.57511365 2.36422269 -5.11880213
v -6.57511365 2.47078163 -5.11595592
f 1 2 5
f 1 5 3
f 1 3 8
f 1 8 12
f 1 12 17
f 1 17 18
f 1 18 13
f 1 13 9
f 1 9 4
f 1 4 2
f 2 4 6
f 2 6 7
f 2 7 11
f 2 11 14
f 2 14 20
f 2 20 19
f 2 19 22
f 2 22 21
f 2 21 15
f 2 15 10
f 2 10 5
f 3 5 8
f 4 9 11
f 4 11 6
f 5 10 8
f 6 11 7
f 8 10 15
f 8 15 16
f 8 16 12
f 9 13 14
f 9 14 11
f 12 16 21
f 12 21 17
f 13 18 19
f 13 19 20
f 13 20 14
f 15 21 16
f 17 21 22
f 17 22 18
f 18 22 19

