# https://github.com/mikedh/trimesh
v -3.81312260 1.23284141 -4.28350059
v -3.71747017 1.23284141 -4.28350059
v -3.83003796 1.23284141 -4.24957704
v -3.83487095 2.06301342 -4.88882539
v -3.82433240 2.03925020 -4.88882539
v -3.71122762 2.01510223 -4.88882539
v -3.62416710 2.06214756 -4.88882539
v -3.42527720 1.23284141 -4.06872184
v -3.85695495 1.23284141 -4.19508710
v -3.86440575 2.15094685 -4.88882539
v -3.62752335 2.13593851 -4.88882539
v -3.18040697 2.21569426 -3.82786407
v -3.18040697 1.23284141 -3.82235145
v -3.86601675 2.21569426 -4.88882539
v -3.86500986 2.15893196 -4.88882539
v -3.85541106 1.23284141 -3.34275612
v -3.86239197 2.21569426 -2.72280179
v -3.62859731 2.15796993 -4.88882539
v -3.66471031 2.21569426 -4.88882539
v -3.18040697 2.21569426 -3.59039857
v -3.18040697 1.23284141 -3.20854585
v -3.83903266 1.23284141 -3.30777239
v -3.85762616 2.15094685 -2.72280179
v -3.86198926 2.20992180 -2.72280179
v -3.67222826 2.21569426 -2.72280179
v -3.18040697 2.11814018 -3.25413059
v -3.18040697 1.93784787 -3.20854585
v -3.67222826 2.17076548 -2.72280179
v -3.67229541 2.15094685 -2.72280179
v -3.70860973 2.07119102 -2.72280179
v -3.71686607 2.05348887 -2.72280179
v -3.49944977 1.23284141 -3.20324526
v -3.81292124 1.23284141 -3.25222242
v -3.81379385 2.05348887 -2.72280179
v -3.18040697 2.04444541 -3.21384627
v -3.60597639 1.23284141 -3.20324526
v -3.77425753 1.23284141 -3.23547268
v -3.71257012 1.23284141 -3.20918180
v -3.67148991 1.23284141 -3.20684956
f 1 2 8
f 1 8 13
f 1 13 21
f 1 21 32
f 1 32 36
f 1 36 39
f 1 39 38
f 1 38 37
f 1 37 33
f 1 33 22
f 1 22 16
f 1 16 9
f 1 9 3
f 1 3 4
f 1 4 5
f 1 5 6
f 1 6 2
f 2 6 7
f 2 7 8
f 3 9 4
f 4 10 15
f 4 15 14
f 4 14 19
f 4 19 18
f 4 18 11
f 4 11 7
f 4 7 6
f 4 6 5
f 4 9 10
f 7 11 12
f 7 12 13
f 7 13 8
f 9 14 15
f 9 15 10
f 9 16 17
f 9 17 14
f 11 18 12
f 12 18 19
f 12 19 14
f 12 14 17
f 12 17 25
f 12 25 20
f 12 20 26
f 12 26 35
f 12 35 27
f 12 27 21
f 12 21 13
f 16 22 23
f 16 23 24
f 16 24 17
f 17 24 23
f 17 23 34
f 17 34 31
f 17 31 30
f 17 30 29
f 17 29 28
f 17 28 25
f 20 25 26
f 21 27 25
f 21 25 28
f 21 28 29
f 21 29 30
f 21 30 31
f 21 31 32
f 22 33 23
f 23 33 34
f 25 27 35
f 25 35 26
f 31 34 36
f 31 36 32
f 33 37 34
f 34 37 38
f 34 38 39
f 34 39 36

