# https://github.com/mikedh/trimesh
v -0.10741150 1.18954419 -1.68146906
v 0.12453821 1.18954419 -1.68160637
v -0.10741150 1.18954419 -1.79886035
v -0.10741150 0.12586500 -1.68146906
v 0.18528472 1.18954419 -1.68593127
v 0.12453821 0.12586500 -1.68160637
v 0.20249189 1.18954419 -2.10311675
v -0.10741150 0.03410943 -2.38272780
v -0.10741150 0.02751185 -1.68599988
v 0.12453821 0.02751185 -1.68606857
v 0.18654487 1.18954419 -1.68606857
v 0.18654487 0.12586500 -1.68606857
v 0.18363354 0.04253973 -1.68751018
v 0.20357828 1.18954419 -2.10359728
v 0.17285734 0.50449374 -2.38272780
v -0.10741150 -0.05862340 -2.38272780
v -0.10741150 -0.02587979 -1.69375738
v 0.12453821 -0.02587979 -1.69375738
v 0.22048145 1.18954419 -1.74380315
v 0.22030737 0.12586500 -1.74380315
v 0.22048145 0.23252615 -1.74380315
v 0.19154193 -0.04212938 -1.76371167
v 0.20301348 0.01187312 -1.73446673
v 0.25576489 1.18954419 -2.12590848
v 0.23082309 0.52721877 -2.38272780
v 0.12453821 -0.05862340 -2.38272780
v -0.10741150 -0.05862340 -1.85041649
v -0.10741150 -0.04628346 -1.74702975
v 0.12453821 -0.04628346 -1.74702975
v 0.30977612 1.18954419 -1.96904346
v 0.31203594 0.44572623 -1.96835700
v 0.33641262 0.44572623 -2.06350570
v 0.23256099 0.01932599 -1.85041649
v 0.12453821 -0.05862340 -1.85041649
v 0.19840746 -0.04628346 -1.85041649
v 0.29461149 1.18954419 -2.12590848
v 0.30278036 0.52184298 -2.38272780
v 0.19840746 -0.04628346 -2.38272780
v -0.10741150 -0.04848268 -1.76535920
v 0.31977025 1.18954419 -2.06151487
v 0.23316931 0.01932599 -1.95696106
v 0.23316931 0.01932599 -2.27666369
v 0.23295235 0.01895941 -2.38272780
v 0.31429543 0.35995746 -2.38272780
v 0.33293650 0.44523751 -2.38272780
v 0.31994433 1.18954419 -2.06350570
v 0.29513277 1.18954419 -2.12467280
v 0.30330195 0.52147640 -2.38272780
f 1 2 5
f 1 5 11
f 1 11 19
f 1 19 30
f 1 30 40
f 1 40 46
f 1 46 47
f 1 47 36
f 1 36 24
f 1 24 14
f 1 14 7
f 1 7 3
f 1 3 8
f 1 8 16
f 1 16 27
f 1 27 39
f 1 39 28
f 1 28 17
f 1 17 9
f 1 9 4
f 1 4 6
f 1 6 2
f 2 6 5
f 3 7 8
f 4 9 10
f 4 10 6
f 5 6 12
f 5 12 11
f 6 10 13
f 6 13 12
f 7 14 15
f 7 15 8
f 8 15 25
f 8 25 37
f 8 37 48
f 8 48 45
f 8 45 44
f 8 44 43
f 8 43 38
f 8 38 26
f 8 26 16
f 9 17 18
f 9 18 10
f 10 18 13
f 11 12 21
f 11 21 19
f 12 13 20
f 12 20 21
f 13 18 22
f 13 22 23
f 13 23 20
f 14 24 15
f 15 24 25
f 16 26 34
f 16 34 27
f 17 28 29
f 17 29 18
f 18 29 22
f 19 21 31
f 19 31 30
f 20 32 31
f 20 31 21
f 20 23 33
f 20 33 32
f 22 29 34
f 22 34 35
f 22 35 33
f 22 33 23
f 24 36 25
f 25 36 37
f 26 38 35
f 26 35 34
f 27 34 39
f 28 39 29
f 29 39 34
f 30 31 32
f 30 32 40
f 32 33 41
f 32 41 42
f 32 42 43
f 32 43 44
f 32 44 45
f 32 45 46
f 32 46 40
f 33 35 41
f 35 38 42
f 35 42 41
f 36 47 45
f 36 45 48
f 36 48 37
f 38 43 42
f 45 47 46

