# https://github.com/mikedh/trimesh
v -4.85484013 2.32745595 0.43698532
v -4.74139240 1.92964493 -0.32101298
v -4.74143274 1.93782492 -0.32101298
v -4.74580243 2.04435289 -0.32101298
v -4.84525133 2.32745595 -0.03829409
v -5.15452195 2.32745595 0.43698532
v -4.93276475 1.36701166 0.43698532
v -4.74119005 1.36701166 -0.32101298
v -4.74119005 1.72476894 -0.32101298
v -4.84525133 2.32745595 -0.32101298
v -5.13582974 2.32745595 -0.32101298
v -5.12717152 1.36701166 0.43698532
v -4.91055258 1.36701166 -0.32101298
v -5.11297034 2.15097489 -0.32101298
v -5.09035363 1.36701166 -0.03829409
v -5.11337488 1.36701166 0.06818925
v -5.05442566 1.36701166 -0.10040319
v -5.07752791 1.36701166 -0.06048124
f 1 2 3
f 1 3 4
f 1 4 5
f 1 5 10
f 1 10 11
f 1 11 6
f 1 6 12
f 1 12 7
f 1 7 8
f 1 8 9
f 1 9 2
f 2 9 8
f 2 8 13
f 2 13 14
f 2 14 11
f 2 11 10
f 2 10 4
f 2 4 3
f 4 10 5
f 6 11 12
f 7 12 16
f 7 16 15
f 7 15 18
f 7 18 17
f 7 17 13
f 7 13 8
f 11 14 15
f 11 15 16
f 11 16 12
f 13 17 14
f 14 17 18
f 14 18 15

