# https://github.com/mikedh/trimesh
v -5.11044576 0.04689434 3.48730969
v -5.31147171 0.39955683 3.22693031
v -5.31147171 0.33900345 3.27702070
v -6.28063410 0.18290081 3.48730969
v -5.11044576 -0.04960933 3.48730969
v -5.11044576 0.10267556 3.26634076
v -5.20689249 0.33900345 3.15924076
v -5.25293942 0.39542094 3.21910864
v -5.41811269 0.40279130 3.23249598
v -5.31147171 0.41912268 3.15924076
v -5.41811269 0.42940937 3.15924076
v -6.28063410 0.18300690 3.37238771
v -6.28063410 -0.05862340 3.48730969
v -5.52463931 0.40305638 3.23294737
v -5.63128044 0.40130665 3.23008941
v -5.70344356 0.39738287 3.22256824
v -5.72085434 0.40798769 3.15924076
v -5.73036150 0.41891057 3.05259216
v -5.73230874 0.42214503 2.94609381
v -5.63128044 0.48052445 2.41330156
v -5.73391243 0.43545407 2.41330156
v -5.73333969 0.43587830 2.30665296
v -6.05750097 -0.05862340 3.48730969
v -5.11044576 -0.04960933 1.95075600
v -5.11044576 0.11911296 3.15924076
v -5.20208157 0.33900345 3.05259216
v -5.24205760 0.40687414 3.05259216
v -5.24675400 0.40104148 3.15924076
v -5.31147171 0.43730990 3.05259216
v -5.41811269 0.45337620 3.05259216
v -5.52463931 0.42983352 3.15924076
v -6.28063410 0.18300690 1.98685710
v -6.28063410 -0.05862340 1.95075600
v -5.63128044 0.42649304 3.15924076
v -5.63128044 0.44945242 3.05259216
v -5.63128044 0.45682270 2.94609381
v -5.52463931 0.48248638 2.41330156
v -5.63128044 0.48126681 2.30665296
v -5.52463931 0.46164791 2.94609381
v -6.28063410 0.18290081 1.95075600
v -6.28063410 0.18295385 1.96158652
v -6.05750097 -0.05862340 1.95075600
v -5.11044576 0.06174099 1.95075600
v -5.20059239 0.33900345 2.94609381
v -5.11044576 0.11943109 3.05259216
v -5.19807242 0.33900345 2.41330156
v -5.24056858 0.40899514 2.94609381
v -5.31147171 0.45947395 2.41330156
v -5.31147171 0.44367281 2.94609381
v -5.41811269 0.46164791 2.94609381
v -5.52463931 0.45348222 3.05259216
v -5.41811269 0.48158495 2.41330156
v -5.52463931 0.48306960 2.30665296
v -5.52463931 0.45814829 2.20000436
v -5.63128044 0.45602737 2.20000436
v -5.71054526 0.40432900 2.11652027
v -5.63128044 0.38921717 2.04416783
v -5.57377895 0.39218647 2.04025684
v -5.50276131 0.39271672 2.03980545
v -5.45316345 0.39271672 2.03980545
v -5.41776914 0.34913100 2.02401154
v -5.31147171 0.33301172 2.02055162
v -5.31147171 0.12499867 1.95075600
v -5.17012352 0.08820000 1.95075600
v -5.23930844 0.31413519 2.02717032
v -5.22682325 0.34541933 2.09245298
v -5.11044576 0.08411716 1.99708597
v -5.23804861 0.41530492 2.41330156
v -5.11044576 0.11948414 2.96068476
v -5.11044576 0.11948414 2.30665296
v -5.11044576 0.11937812 2.21459499
v -5.11044576 0.11932508 2.20000436
v -5.19841613 0.33900345 2.30665296
v -5.31147171 0.45973903 2.30665296
v -5.41811269 0.48211519 2.30665296
v -5.41811269 0.45756507 2.20000436
v -5.38214581 0.39139114 2.04130987
v -5.31147171 0.38630084 2.05289229
v -5.20872505 0.10442537 1.95075600
v -5.29142644 0.12187022 1.95075600
v -5.25133573 0.39732982 2.12720022
v -5.24320307 0.40756346 2.20000436
v -5.20334156 0.33900345 2.20000436
v -5.11044576 0.10193319 2.05274172
v -5.23839216 0.41530492 2.30665296
v -5.11044576 0.11577248 2.10719449
v -5.11044576 0.11481800 2.09350601
v -5.31147171 0.43980200 2.20000436
v -5.31147171 0.40613178 2.10629171
f 1 2 3
f 1 3 4
f 1 4 13
f 1 13 23
f 1 23 5
f 1 5 24
f 1 24 43
f 1 43 67
f 1 67 84
f 1 84 87
f 1 87 86
f 1 86 72
f 1 72 71
f 1 71 70
f 1 70 69
f 1 69 45
f 1 45 25
f 1 25 6
f 1 6 7
f 1 7 8
f 1 8 2
f 2 9 4
f 2 4 3
f 2 8 10
f 2 10 11
f 2 11 9
f 4 12 32
f 4 32 41
f 4 41 40
f 4 40 33
f 4 33 13
f 4 9 14
f 4 14 15
f 4 15 16
f 4 16 17
f 4 17 18
f 4 18 19
f 4 19 20
f 4 20 21
f 4 21 22
f 4 22 12
f 5 23 42
f 5 42 24
f 6 25 7
f 7 25 26
f 7 26 27
f 7 27 28
f 7 28 8
f 8 28 29
f 8 29 10
f 9 11 14
f 10 29 30
f 10 30 11
f 11 30 31
f 11 31 14
f 12 22 32
f 13 33 42
f 13 42 23
f 14 31 15
f 15 31 34
f 15 34 16
f 16 34 17
f 17 34 35
f 17 35 18
f 18 35 36
f 18 36 20
f 18 20 19
f 20 37 38
f 20 38 21
f 20 36 39
f 20 39 37
f 21 38 22
f 22 38 40
f 22 40 41
f 22 41 32
f 24 42 33
f 24 33 40
f 24 40 63
f 24 63 80
f 24 80 79
f 24 79 64
f 24 64 43
f 25 44 26
f 25 45 46
f 25 46 44
f 26 44 47
f 26 47 27
f 27 47 48
f 27 48 49
f 27 49 29
f 27 29 28
f 29 49 50
f 29 50 30
f 30 50 51
f 30 51 31
f 31 51 34
f 34 51 35
f 35 51 39
f 35 39 36
f 37 52 53
f 37 53 38
f 37 39 50
f 37 50 52
f 38 53 54
f 38 54 55
f 38 55 40
f 39 51 50
f 40 56 57
f 40 57 58
f 40 58 59
f 40 59 60
f 40 60 61
f 40 61 62
f 40 62 63
f 40 55 56
f 43 64 62
f 43 62 65
f 43 65 66
f 43 66 67
f 44 46 68
f 44 68 47
f 45 69 46
f 46 70 71
f 46 71 72
f 46 72 73
f 46 73 85
f 46 85 68
f 46 69 70
f 47 68 48
f 48 68 74
f 48 74 75
f 48 75 52
f 48 52 49
f 49 52 50
f 52 75 53
f 53 75 76
f 53 76 54
f 54 76 60
f 54 60 59
f 54 59 58
f 54 58 55
f 55 58 57
f 55 57 56
f 60 77 62
f 60 62 61
f 60 76 77
f 62 77 78
f 62 78 65
f 62 64 79
f 62 79 80
f 62 80 63
f 65 78 81
f 65 81 66
f 66 81 82
f 66 82 83
f 66 83 67
f 67 83 84
f 68 85 74
f 72 86 73
f 73 86 87
f 73 87 83
f 73 83 85
f 74 85 82
f 74 82 88
f 74 88 75
f 75 88 76
f 76 88 89
f 76 89 78
f 76 78 77
f 78 89 81
f 81 89 88
f 81 88 82
f 82 85 83
f 83 87 84

