# https://github.com/mikedh/trimesh
v -5.91113411 1.26439349 -5.10903735
v -5.73774544 1.26439349 -5.12225220
v -5.91113411 1.26439349 -4.99174311
v -5.91113411 2.15097894 -5.12708250
v -5.70382999 1.26439349 -5.12384716
v -5.73774544 1.26439349 -4.99174311
v -5.91113411 2.37645217 -4.66392068
v -5.91113411 2.47068165 -5.11596386
v -5.73774544 2.15097894 -5.12717366
v -5.73774544 2.04432764 -5.12945222
v -5.63111224 1.26439349 -5.12726483
v -5.66082494 1.26439349 -4.99320115
v -4.91263402 2.37645217 -4.66392068
v -5.91113411 2.50719403 -4.66392068
v -5.91113411 2.50832330 -5.11040455
v -4.91263402 2.48624018 -5.11368531
v -4.91263402 2.47068165 -5.11596386
v -4.91263402 2.39175975 -5.11819667
v -4.91263402 2.36415590 -5.11897144
v -4.91263402 1.26439349 -5.11897144
v -4.91263402 1.26439349 -5.02505390
v -4.91263402 2.50719403 -4.66392068
v -5.91113411 2.53956583 -4.97506484
v -5.91113411 2.53065729 -5.10707804
v -4.91263402 2.53065729 -5.10707804
v -4.91263402 2.53956583 -4.97506484
v -5.91113411 2.54621582 -5.04797508
v -5.31150634 2.54621582 -5.04797508
v -4.91263402 2.53467240 -5.09181240
v -4.91263402 2.54445918 -5.02910943
v -4.91263402 2.54609035 -5.04797508
f 1 2 5
f 1 5 11
f 1 11 20
f 1 20 21
f 1 21 12
f 1 12 6
f 1 6 3
f 1 3 7
f 1 7 14
f 1 14 23
f 1 23 27
f 1 27 24
f 1 24 15
f 1 15 8
f 1 8 4
f 1 4 2
f 2 4 5
f 3 6 13
f 3 13 7
f 4 8 9
f 4 9 10
f 4 10 11
f 4 11 5
f 6 12 13
f 7 13 22
f 7 22 14
f 8 15 16
f 8 16 17
f 8 17 9
f 9 17 18
f 9 18 19
f 9 19 10
f 10 20 11
f 10 19 20
f 12 21 13
f 13 21 20
f 13 20 19
f 13 19 18
f 13 18 17
f 13 17 16
f 13 16 25
f 13 25 29
f 13 29 31
f 13 31 30
f 13 30 26
f 13 26 22
f 14 22 26
f 14 26 23
f 15 24 25
f 15 25 16
f 23 26 28
f 23 28 27
f 24 27 28
f 24 28 25
f 25 28 29
f 26 30 28
f 28 30 31
f 28 31 29

