# https://github.com/mikedh/trimesh
v -1.05294084 -0.05851143 -1.10864342
v -0.51498428 -0.05870631 -0.57901593
v -1.05294084 -0.05851143 -0.57901593
v -1.05294084 -0.05422179 -1.10864342
v -0.51498428 -0.05851143 -1.10864342
v -0.44557049 -0.04681244 -1.10864342
v -0.44816670 -0.04720252 -0.57901593
v -1.05294084 0.62587345 -0.57901593
v -1.05294084 0.07973039 -1.10817674
v -1.05253090 0.07992543 -1.10864342
v -0.44249589 -0.04622763 -1.10864342
v -0.44249589 -0.04622763 -1.10418405
v -0.44297428 -0.04622763 -0.57901593
v -0.93317475 0.97235549 -0.57901593
v -0.89430035 1.93322405 -0.72373790
v -0.89430035 1.93322405 -0.74629399
v -0.48055057 1.93322405 -1.10864342
v -0.38920605 0.01928612 -1.10864342
v -0.38920605 0.01928612 -1.10418405
v -0.35511382 0.07271112 -1.05087907
v -0.40129862 0.01928612 -0.57901593
v -0.49558115 1.93322405 -0.57901593
v -0.35504553 1.93322405 -1.10864342
v -0.35654868 0.07037126 -1.10864342
v -0.35511382 0.07271112 -1.10864342
v -0.35504553 0.12594108 -1.10418405
v -0.35511382 0.12594108 -1.05082721
v -0.37704487 0.45331489 -0.57901593
v -0.37731805 0.23259587 -0.57901593
v -0.37779645 0.12594108 -0.57901593
v -0.39644800 1.93322405 -0.57901593
v -0.35504553 0.12594108 -1.10864342
v -0.35504553 1.93322405 -1.10439146
v -0.35504553 1.83124878 -1.10418405
v -0.35511382 1.93322405 -1.05082721
v -0.37704487 0.55236546 -0.57901593
v -0.37847973 1.08505476 -0.57901593
v -0.37779645 0.97839991 -0.57901593
v -0.37731805 0.87973931 -0.57901593
f 1 2 3
f 1 3 8
f 1 8 9
f 1 9 4
f 1 4 10
f 1 10 17
f 1 17 23
f 1 23 32
f 1 32 25
f 1 25 24
f 1 24 18
f 1 18 11
f 1 11 6
f 1 6 5
f 1 5 2
f 2 5 6
f 2 6 7
f 2 7 13
f 2 13 21
f 2 21 30
f 2 30 29
f 2 29 28
f 2 28 36
f 2 36 39
f 2 39 38
f 2 38 37
f 2 37 31
f 2 31 22
f 2 22 14
f 2 14 8
f 2 8 3
f 4 9 10
f 6 11 12
f 6 12 13
f 6 13 7
f 8 14 15
f 8 15 16
f 8 16 9
f 9 16 10
f 10 16 17
f 11 18 19
f 11 19 12
f 12 19 13
f 13 19 20
f 13 20 21
f 14 22 15
f 15 22 31
f 15 31 35
f 15 35 33
f 15 33 23
f 15 23 17
f 15 17 16
f 18 24 19
f 19 24 20
f 20 24 25
f 20 25 32
f 20 32 26
f 20 26 27
f 20 27 28
f 20 28 29
f 20 29 30
f 20 30 21
f 23 33 34
f 23 34 26
f 23 26 32
f 26 34 35
f 26 35 27
f 27 35 36
f 27 36 28
f 31 37 35
f 33 35 34
f 35 37 38
f 35 38 39
f 35 39 36

