# https://github.com/mikedh/trimesh
v -6.78513994 2.47077377 2.10920558
v -6.77983380 2.23966554 4.24440850
v -6.79433770 2.47077377 4.22513911
v -6.77346604 2.54135741 2.10920558
v -6.76497570 2.40737935 2.10920558
v -6.77983380 2.23966554 4.30812956
v -6.76143827 2.39654907 2.10920558
v -6.71014301 2.23966554 2.10920558
v -6.77983380 2.36421380 4.30812956
v -6.77664960 2.47077377 4.30484499
v -6.76568344 2.53559988 4.29389630
v -6.77346604 2.54135741 4.22513911
v -6.69705427 2.55760279 4.22513911
v -6.69705427 2.55657581 2.10920558
v -6.69705427 2.23966554 4.34053757
v -6.58951146 2.23966554 2.10920558
v -6.69705427 2.36421380 4.34053757
v -6.69705427 2.47077377 4.33287346
v -6.69705427 2.54135741 4.30177928
v -3.49942992 2.54135741 4.30177928
v -3.39294856 2.55175195 4.22513911
v -3.28646721 2.54988468 3.26581948
v -3.92606283 2.51359696 2.10920558
v -6.60826085 2.23966554 4.34316523
v -3.18069343 2.35627777 2.10920558
v -3.18069343 2.23966554 3.19771888
v -6.59021920 2.36421380 4.34360328
v -6.59021920 2.47077377 4.33440647
v -3.49942992 2.47077377 4.33440647
v -3.39294856 2.53920997 4.29893275
v -3.33104085 2.53276781 4.29039286
v -3.32679568 2.53709374 4.22513911
v -3.18069343 2.54537204 3.26581948
v -3.18069343 2.54014365 3.19312048
v -3.18069343 2.45935225 2.10920558
v -6.59021920 2.23966554 4.34360328
v -3.18069343 2.23966554 3.34114614
v -4.45882332 2.23966554 4.34601207
v -6.48373769 2.36421380 4.34360328
v -3.49942992 2.36421380 4.34250832
v -3.39294856 2.47077377 4.32696123
v -3.32467325 2.47077377 4.29893275
v -3.30981532 2.47077377 4.22513911
v -3.18069343 2.52934450 3.32450408
v -3.18069343 2.54530978 3.26647639
v -3.30592402 2.23966554 4.22513911
v -3.18069343 2.36421380 3.34114614
v -3.71274641 2.23966554 4.34601207
v -3.63173568 2.23966554 4.34557402
v -3.52136303 2.23966554 4.34469793
v -3.41099021 2.23966554 4.33681495
v -3.39294856 2.36421380 4.33331151
v -3.32290438 2.36421380 4.30134155
v -3.30592402 2.36421380 4.22513911
v -3.18069343 2.47077377 3.33545277
v -3.32290438 2.23966554 4.30134155
v -3.39294856 2.23966554 4.33287346
f 1 2 3
f 1 3 4
f 1 4 14
f 1 14 23
f 1 23 35
f 1 35 25
f 1 25 16
f 1 16 8
f 1 8 7
f 1 7 5
f 1 5 2
f 2 6 3
f 2 5 7
f 2 7 8
f 2 8 16
f 2 16 26
f 2 26 37
f 2 37 46
f 2 46 56
f 2 56 57
f 2 57 51
f 2 51 50
f 2 50 49
f 2 49 48
f 2 48 38
f 2 38 36
f 2 36 24
f 2 24 15
f 2 15 6
f 3 6 9
f 3 9 10
f 3 10 11
f 3 11 12
f 3 12 4
f 4 12 13
f 4 13 14
f 6 15 17
f 6 17 9
f 9 17 10
f 10 17 18
f 10 18 11
f 11 18 19
f 11 19 13
f 11 13 12
f 13 19 20
f 13 20 21
f 13 21 14
f 14 21 22
f 14 22 23
f 15 24 17
f 16 25 26
f 17 24 27
f 17 27 18
f 18 27 28
f 18 28 19
f 19 28 29
f 19 29 20
f 20 29 30
f 20 30 21
f 21 30 31
f 21 31 32
f 21 32 33
f 21 33 22
f 22 33 23
f 23 33 34
f 23 34 35
f 24 36 27
f 25 35 34
f 25 34 33
f 25 33 45
f 25 45 44
f 25 44 55
f 25 55 47
f 25 47 37
f 25 37 26
f 27 36 38
f 27 38 48
f 27 48 39
f 27 39 29
f 27 29 28
f 29 40 41
f 29 41 30
f 29 39 40
f 30 41 31
f 31 42 43
f 31 43 44
f 31 44 45
f 31 45 32
f 31 41 42
f 32 45 33
f 37 47 54
f 37 54 46
f 39 48 40
f 40 48 49
f 40 49 50
f 40 50 51
f 40 51 52
f 40 52 41
f 41 52 42
f 42 52 53
f 42 53 54
f 42 54 43
f 43 54 44
f 44 54 55
f 46 54 53
f 46 53 56
f 47 55 54
f 51 57 52
f 52 57 56
f 52 56 53

