# https://github.com/mikedh/trimesh
v 0.24285943 1.18954427 -5.22377223
v 0.18717987 1.88936180 -5.66103388
v 0.22720720 1.87262616 -5.66103388
v 0.24044619 1.86713689 -5.66103388
v 0.30015969 1.18954427 -5.22377223
v 0.19069665 1.18954427 -5.19951053
v 0.18959342 1.18954427 -5.19895908
v 0.14680787 1.92925953 -5.66103388
v 0.30105612 1.86713689 -5.66103388
v 0.32856840 1.18954427 -5.15429554
v 0.15597863 1.18954427 -5.14574898
v 0.13343102 1.94251417 -5.66103388
v 0.31977660 2.04426688 -5.66103388
v 0.33201593 2.04426688 -5.15429554
v 0.32860271 1.18954427 -2.91643205
v 0.13415496 1.18954427 -5.04787502
v 0.08723256 2.04426688 -5.66103388
v 0.31746692 2.11054000 -5.66103388
v 0.31667373 2.13236328 -5.66103388
v 0.31667373 2.13236328 -5.36768804
v 0.33198131 2.04440078 -2.91643205
v 0.32346587 2.04440078 -2.84447414
v 0.30019400 1.18954427 -2.84695552
v -0.02019653 1.18954427 -3.83534299
v 0.08609471 2.34738282 -5.66103388
v -0.02019653 2.37804244 -4.33436130
v 0.23889476 2.47069102 -5.66103388
v 0.23889476 2.47069102 -2.84447414
v 0.31619121 2.13182779 -2.84447414
v 0.31164013 1.83339781 -2.84447414
v 0.30036648 1.72963683 -2.84447414
v 0.24285943 1.18954427 -2.84695552
v -0.02019653 1.18954427 -3.58831505
v 0.08609471 2.51165981 -5.66103388
v -0.02019653 2.48582000 -4.33436130
v 0.20390102 2.54124846 -5.66103388
v 0.22751755 2.49371926 -2.84447414
v 0.24534192 1.72963683 -2.84447414
v 0.24148049 1.73070793 -2.84447414
v 0.20493531 1.78278924 -2.84447414
v 0.14742858 1.90127760 -2.84447414
v 0.09840297 2.00972453 -2.84447414
v 0.08723256 2.04440078 -2.84447414
v -0.02019653 2.37804244 -2.84447414
v 0.18955880 1.18954427 -2.87176851
v 0.15597863 1.18954427 -2.92497877
v 0.09871300 2.51875580 -5.66103388
v -0.02019653 2.55704689 -3.76889898
v 0.13877496 2.54124846 -5.66103388
v 0.12463954 2.55731468 -3.76889898
v 0.20390102 2.54124846 -4.33436130
v 0.20386671 2.54124846 -2.84447414
v -0.02019653 2.48582000 -2.84447414
v 0.13880927 2.54124846 -2.84447414
f 1 2 3
f 1 3 4
f 1 4 9
f 1 9 5
f 1 5 10
f 1 10 15
f 1 15 23
f 1 23 32
f 1 32 45
f 1 45 46
f 1 46 33
f 1 33 24
f 1 24 16
f 1 16 11
f 1 11 7
f 1 7 6
f 1 6 2
f 2 6 7
f 2 7 8
f 2 8 12
f 2 12 17
f 2 17 25
f 2 25 34
f 2 34 47
f 2 47 49
f 2 49 36
f 2 36 27
f 2 27 19
f 2 19 18
f 2 18 13
f 2 13 9
f 2 9 4
f 2 4 3
f 5 9 10
f 7 11 12
f 7 12 8
f 9 13 10
f 10 13 14
f 10 14 15
f 11 16 17
f 11 17 12
f 13 18 14
f 14 18 19
f 14 19 20
f 14 20 21
f 14 21 15
f 15 21 22
f 15 22 23
f 16 24 17
f 17 24 26
f 17 26 25
f 19 27 28
f 19 28 20
f 20 28 29
f 20 29 21
f 21 29 22
f 22 29 28
f 22 28 37
f 22 37 52
f 22 52 54
f 22 54 53
f 22 53 44
f 22 44 43
f 22 43 42
f 22 42 41
f 22 41 40
f 22 40 39
f 22 39 38
f 22 38 31
f 22 31 30
f 22 30 23
f 23 30 31
f 23 31 38
f 23 38 32
f 24 33 44
f 24 44 53
f 24 53 48
f 24 48 35
f 24 35 26
f 25 26 35
f 25 35 34
f 27 36 37
f 27 37 28
f 32 38 39
f 32 39 40
f 32 40 41
f 32 41 42
f 32 42 43
f 32 43 44
f 32 44 45
f 33 46 44
f 34 35 48
f 34 48 47
f 36 49 50
f 36 50 51
f 36 51 37
f 37 51 52
f 44 46 45
f 47 48 49
f 48 53 54
f 48 54 50
f 48 50 49
f 50 54 52
f 50 52 51

