# https://github.com/mikedh/trimesh
v -6.79009285 0.09038294 3.48746026
v -6.79223290 0.09038294 4.13644512
v -6.78614183 0.12585865 3.48746026
v -6.23926467 0.09038294 3.48746026
v -6.78811734 0.12585865 4.13644512
v -5.11044576 0.09038294 4.13644512
v -6.78597728 0.14378959 4.13644512
v -6.78383723 0.13288498 3.48746026
v -5.11044576 0.09038294 4.13555568
v -6.26741512 0.14442983 3.48746026
v -5.11044576 0.09111308 4.13644512
v -6.78564787 0.14442983 4.13631806
v -6.77988621 0.14442983 3.48746026
v -6.74399826 0.14442983 4.13644512
v -6.25078831 0.14442983 4.13644512
f 1 2 3
f 1 3 8
f 1 8 13
f 1 13 10
f 1 10 4
f 1 4 9
f 1 9 6
f 1 6 2
f 2 5 3
f 2 6 11
f 2 11 15
f 2 15 14
f 2 14 7
f 2 7 5
f 3 5 7
f 3 7 8
f 4 10 9
f 6 9 11
f 7 12 13
f 7 13 8
f 7 14 12
f 9 10 11
f 10 13 12
f 10 12 14
f 10 14 15
f 10 15 11

