# https://github.com/mikedh/trimesh
v -1.17617670 2.34523069 -3.53906137
v -1.17617670 1.18954419 -3.59525396
v -1.17617670 2.34523069 -3.91671848
v -3.18033988 2.34523069 -3.53906137
v -3.07303008 2.11807538 -3.25417506
v -3.07303008 2.04443087 -3.21377988
v -3.07303008 1.93775392 -3.20858460
v -3.07303008 1.18954419 -3.20826663
v -1.17617670 1.18954419 -3.93728741
v -1.18480855 2.34523069 -3.91693067
v -2.32676568 1.29837061 -4.27412526
v -2.43348694 1.29837061 -4.29130130
v -2.43348694 1.39011510 -4.26988454
v -3.18033988 2.34523069 -3.88544164
v -3.18033988 2.11807538 -3.25417506
v -3.18033988 2.04443087 -3.21377988
v -3.18033988 2.04375220 -3.21367378
v -3.18033988 1.93775392 -3.20858460
v -3.18033988 1.18954419 -3.20837272
v -2.32460775 1.18954419 -4.27317102
v -2.32676568 1.19180670 -4.27412526
v -1.26112202 2.34523069 -3.91852118
v -2.43348694 1.19180670 -4.29130130
v -2.52235596 1.29837061 -4.26797606
v -2.51038910 1.37597443 -4.26150856
v -2.00719034 2.34523069 -3.91873306
v -1.47436855 2.34523069 -3.91873306
v -2.52235596 1.19180670 -4.26797606
v -2.57571667 1.19180670 -4.23394228
v -3.18033988 1.18954419 -3.82246327
v -2.32676568 1.18954419 -4.27370119
v -2.42995579 1.18954419 -4.29024096
v -2.43348694 1.18954419 -4.29066503
v -2.52196365 1.18954419 -4.26776386
v -2.57355871 1.18954419 -4.23479042
f 1 2 9
f 1 9 3
f 1 3 10
f 1 10 22
f 1 22 27
f 1 27 26
f 1 26 14
f 1 14 4
f 1 4 15
f 1 15 5
f 1 5 6
f 1 6 7
f 1 7 8
f 1 8 2
f 2 8 19
f 2 19 30
f 2 30 35
f 2 35 34
f 2 34 33
f 2 33 32
f 2 32 31
f 2 31 20
f 2 20 9
f 3 9 11
f 3 11 12
f 3 12 13
f 3 13 10
f 4 14 30
f 4 30 19
f 4 19 18
f 4 18 17
f 4 17 16
f 4 16 15
f 5 15 16
f 5 16 6
f 6 16 17
f 6 17 7
f 7 17 18
f 7 18 8
f 8 18 19
f 9 20 21
f 9 21 11
f 10 13 22
f 11 21 23
f 11 23 12
f 12 23 28
f 12 28 24
f 12 24 25
f 12 25 13
f 13 25 14
f 13 14 26
f 13 26 27
f 13 27 22
f 14 25 24
f 14 24 28
f 14 28 29
f 14 29 30
f 20 31 21
f 21 31 23
f 23 31 32
f 23 32 33
f 23 33 34
f 23 34 28
f 28 34 29
f 29 34 35
f 29 35 30

