# https://github.com/mikedh/trimesh
v 0.25022431 0.15137874 2.09360385
v 0.24979167 0.12584848 2.09360385
v 0.24993588 0.12584848 1.98700798
v 0.25022431 0.15137874 1.74840463
v -0.94719105 0.15154329 3.26728070
v 0.24402682 0.15137874 3.15888594
v 0.24460305 0.12584848 3.15888594
v 0.23336117 0.01928390 3.05251497
v 0.23364960 0.01928390 1.98700798
v 0.24993588 0.12584848 1.77404146
v 0.25008010 0.15137874 1.66744591
v -0.95627112 0.15154329 3.36353143
v 0.24013521 0.15137874 1.56085004
v -1.18990266 0.15154329 1.79495600
v 0.22557825 0.15137874 3.26548149
v 0.23278462 0.01928390 3.15888594
v 0.22543404 0.12584848 3.26548149
v 0.19833821 -0.04630061 3.15888594
v 0.23364960 0.01928390 1.77404146
v 0.23350539 0.01928390 1.66744591
v 0.24964745 0.12584848 1.66744591
v 0.23999099 0.12584848 1.56085004
v -1.04779241 0.15154329 3.38714447
v -0.22957797 0.15137874 3.64688727
v 0.19141995 0.15137874 3.32620069
v 0.19963520 0.15137874 3.31180797
v 0.20410305 0.12584848 1.49001124
v 0.20410305 0.15137874 1.49001124
v -1.20662143 0.15154329 1.78753458
v 0.21347139 0.01928390 3.26548149
v 0.18969031 -0.04105467 3.26548149
v 0.19141995 0.12584848 3.32620069
v 0.18623134 0.01928390 3.32350219
v 0.12440034 -0.05862340 3.15888594
v 0.19833821 -0.04630061 1.66744591
v 0.19574358 -0.04471654 1.56085004
v 0.22658713 0.01928390 1.56085004
v 0.19862632 0.01928390 1.49383424
v -1.12619796 0.15154329 3.37320155
v -0.26215084 0.15137874 3.64688727
v -0.22957797 0.12584848 3.64688727
v -0.41997082 0.12354436 1.34968273
v -0.41982693 0.12584848 1.34968273
v -0.42861872 0.01928390 1.34968273
v -0.41997082 0.15137874 1.34968273
v -1.22204321 0.15154329 1.78168747
v 0.17988964 -0.03519151 3.31990377
v 0.12440034 -0.04811094 3.26548149
v -0.23246039 0.01928390 3.64553786
v -0.23981097 -0.03796879 3.64261446
v 0.12440034 -0.05862340 1.66744591
v -0.30178587 -0.05224596 3.58526878
v -0.30178587 -0.05862340 3.47867291
v 0.12440034 -0.05541412 1.56085004
v 0.18810488 -0.04006715 1.50080570
v -0.44966128 -0.04385251 1.34968273
v -1.14897032 0.15154329 3.36780456
v -1.22204321 0.01790559 3.58549369
v -1.22204321 -0.01612105 3.64486316
v -0.26373627 0.12584848 3.64688727
v -0.30005655 0.01588950 3.64666237
v -0.64985513 -0.05862340 1.34945783
v -0.64985513 0.06676482 1.34945783
v -0.55646013 0.15137874 1.34968273
v -1.22204321 0.15154329 1.87389061
v -1.22204321 0.05065667 1.34945783
v -0.30178587 -0.03994374 3.64463826
v -0.62146182 -0.05862340 1.34968273
v -0.64985513 -0.05222539 3.58549369
v -0.64971091 -0.05224596 3.58526878
v -0.64985513 -0.05395353 3.55715804
v -1.22204321 -0.05862340 3.47867291
v -0.61944407 -0.05858227 1.34968273
v -0.51480703 -0.05613416 1.34968273
v -0.51307770 -0.05594897 1.34968273
v -1.15401472 0.15154329 3.26930481
v -1.22204321 0.15074096 2.41069201
v -1.22204321 0.11570633 3.32552599
v -1.22204321 0.10710711 3.36780456
v -1.22204321 -0.03992317 3.64486316
v -0.64985513 -0.03992317 3.64486316
v -1.22204321 -0.05862340 1.34945783
v -1.22204321 -0.05222539 3.58549369
f 1 2 3
f 1 3 10
f 1 10 4
f 1 4 5
f 1 5 6
f 1 6 7
f 1 7 2
f 2 7 8
f 2 8 3
f 3 8 9
f 3 9 19
f 3 19 10
f 4 10 11
f 4 11 5
f 5 12 6
f 5 11 13
f 5 13 14
f 5 14 29
f 5 29 46
f 5 46 65
f 5 65 76
f 5 76 57
f 5 57 39
f 5 39 23
f 5 23 12
f 6 12 15
f 6 15 7
f 7 16 8
f 7 15 17
f 7 17 16
f 8 16 18
f 8 18 9
f 9 18 35
f 9 35 19
f 10 19 20
f 10 20 21
f 10 21 11
f 11 21 22
f 11 22 13
f 12 23 24
f 12 24 25
f 12 25 26
f 12 26 15
f 13 22 27
f 13 27 28
f 13 28 14
f 14 28 29
f 15 26 17
f 16 17 30
f 16 30 31
f 16 31 18
f 17 26 32
f 17 32 33
f 17 33 30
f 18 31 34
f 18 34 51
f 18 51 35
f 19 35 20
f 20 35 36
f 20 36 37
f 20 37 21
f 21 37 22
f 22 37 38
f 22 38 27
f 23 39 40
f 23 40 24
f 24 40 60
f 24 60 41
f 24 41 32
f 24 32 25
f 25 32 26
f 27 42 43
f 27 43 28
f 27 38 44
f 27 44 42
f 28 43 45
f 28 45 46
f 28 46 29
f 30 33 47
f 30 47 31
f 31 48 34
f 31 47 48
f 32 41 49
f 32 49 33
f 33 49 50
f 33 50 47
f 34 48 52
f 34 52 53
f 34 53 72
f 34 72 82
f 34 82 62
f 34 62 68
f 34 68 51
f 35 51 36
f 36 54 55
f 36 55 37
f 36 51 54
f 37 55 38
f 38 55 56
f 38 56 44
f 39 57 40
f 40 58 59
f 40 59 60
f 40 57 58
f 41 60 61
f 41 61 49
f 42 44 62
f 42 62 43
f 43 62 63
f 43 63 45
f 44 56 62
f 45 63 64
f 45 64 46
f 46 64 66
f 46 66 82
f 46 82 72
f 46 72 83
f 46 83 80
f 46 80 59
f 46 59 58
f 46 58 79
f 46 79 78
f 46 78 77
f 46 77 65
f 47 50 52
f 47 52 48
f 49 61 67
f 49 67 50
f 50 67 52
f 51 68 54
f 52 69 83
f 52 83 70
f 52 70 71
f 52 71 53
f 52 67 81
f 52 81 69
f 53 71 72
f 54 68 73
f 54 73 74
f 54 74 55
f 55 74 75
f 55 75 56
f 56 75 62
f 57 76 77
f 57 77 78
f 57 78 79
f 57 79 58
f 59 80 60
f 60 80 61
f 61 80 81
f 61 81 67
f 62 75 74
f 62 74 73
f 62 73 68
f 62 82 66
f 62 66 63
f 63 66 64
f 65 77 76
f 69 81 80
f 69 80 83
f 70 83 71
f 71 83 72

