# https://github.com/mikedh/trimesh
v -0.62286412 2.31818695 0.20142059
v -0.62286412 1.62449893 0.13130502
v -0.62286412 2.31818695 0.00579973
v -2.11989873 2.31818695 0.80794557
v -2.15995314 1.26188694 0.76887153
v -0.62286412 1.62387855 0.13113761
v -0.62286412 1.76480818 -0.00942819
v -0.63237700 1.77804293 -0.00942819
v -1.58041551 2.31818695 0.00579973
v -2.13491906 2.31818695 0.81346773
v -1.60494880 1.26188694 0.36750585
v -0.62286412 1.57124968 0.11616071
v -2.22028512 2.31818695 0.84107896
v -2.18048102 1.26188694 0.77472849
v -0.62286412 1.54467673 -0.00942819
v -0.71749274 1.77804293 -0.00942819
v -1.60544959 1.77266631 -0.00942819
v -1.64725628 1.72313932 -0.00942819
v -1.64975973 1.71952045 -0.00942819
v -1.64375157 2.31818695 0.00948122
v -1.58542226 1.26188694 0.31086116
v -0.62286412 1.55294846 0.06160772
v -0.62286412 1.55315525 0.06286278
v -2.23505514 2.31818695 0.84225032
v -2.32693006 1.26188694 0.79531140
v -2.25658443 1.26188694 0.78920349
v -2.22028512 1.26188694 0.78602390
v -1.57540876 1.26188694 0.28140926
v -1.57540876 1.26188694 -0.00942819
v -1.67003721 1.65541451 -0.00942819
v -1.69106580 1.54043748 -0.00942819
v -3.17983917 2.31818695 0.68511775
v -2.32693006 2.31818695 0.84501139
v -2.34144977 2.31818695 0.84509509
v -2.43332462 2.31818695 0.84526234
v -3.18033988 1.26188694 0.79531140
v -1.69056517 1.26188694 -0.00942819
v -1.69181690 1.51158981 -0.00942819
v -3.17983917 1.26188694 0.69791933
v -3.18033988 1.29838594 0.69791933
v -3.18033988 2.25821695 0.69063990
v -3.18033988 2.31818695 0.73858293
v -3.18033988 2.31818695 0.84526234
v -3.18033988 1.26188694 0.76226156
f 1 2 6
f 1 6 12
f 1 12 23
f 1 23 22
f 1 22 15
f 1 15 7
f 1 7 3
f 1 3 9
f 1 9 20
f 1 20 32
f 1 32 42
f 1 42 43
f 1 43 35
f 1 35 34
f 1 34 33
f 1 33 24
f 1 24 13
f 1 13 10
f 1 10 4
f 1 4 5
f 1 5 2
f 2 5 6
f 3 7 8
f 3 8 16
f 3 16 9
f 4 10 5
f 5 11 12
f 5 12 6
f 5 10 13
f 5 13 14
f 5 14 27
f 5 27 26
f 5 26 25
f 5 25 36
f 5 36 44
f 5 44 39
f 5 39 37
f 5 37 29
f 5 29 28
f 5 28 21
f 5 21 11
f 7 15 29
f 7 29 37
f 7 37 38
f 7 38 31
f 7 31 30
f 7 30 19
f 7 19 18
f 7 18 17
f 7 17 16
f 7 16 8
f 9 17 18
f 9 18 19
f 9 19 20
f 9 16 17
f 11 21 15
f 11 15 22
f 11 22 23
f 11 23 12
f 13 24 25
f 13 25 26
f 13 26 27
f 13 27 14
f 15 21 28
f 15 28 29
f 19 30 20
f 20 30 31
f 20 31 32
f 24 33 25
f 25 33 34
f 25 34 35
f 25 35 43
f 25 43 36
f 31 38 32
f 32 39 40
f 32 40 41
f 32 41 42
f 32 38 37
f 32 37 39
f 36 43 42
f 36 42 41
f 36 41 40
f 36 40 44
f 39 44 40

