# https://github.com/mikedh/trimesh
v -1.17617670 2.55860254 -1.10869530
v -3.17955519 2.55860254 -1.10869530
v -1.17617670 2.46105521 -1.10869530
v -1.17617670 2.55860254 -5.79396193
v -3.18033988 2.55856077 -1.10869530
v -3.17955519 2.55860254 -2.59653564
v -3.18033988 2.41957142 -1.10869530
v -1.17617670 2.34523069 -3.53920924
v -1.17617670 2.54824208 -6.22008112
v -2.43348694 2.55196017 -6.22008112
v -1.90066523 2.55860254 -5.79396193
v -3.18033988 2.55856077 -2.59602469
v -3.18033988 2.55703602 -3.76861880
v -3.18033988 2.34523069 -3.53920924
v -1.17617670 2.34523069 -6.32584441
v -1.17617670 2.54049259 -6.27475117
v -1.17617670 2.53850827 -6.28854638
v -2.43348694 2.53850827 -6.28854638
v -2.51823626 2.53370394 -6.28343719
v -2.53706944 2.53988682 -6.22008112
v -3.18033988 2.54619501 -5.04748684
v -3.18033988 2.34523069 -5.11850671
v -1.26112202 2.34523069 -6.32788821
v -1.17617670 2.36421801 -6.32635520
v -1.17617670 2.47078902 -6.31613681
v -1.26112202 2.47078902 -6.31613681
v -1.79414012 2.47078902 -6.31562602
v -2.43348694 2.47078902 -6.30694000
v -2.54825168 2.46656966 -6.28752416
v -2.59376511 2.42826085 -6.27424038
v -2.59023392 2.50506636 -6.22008112
v -3.18033988 2.53073790 -5.10675530
v -3.18033988 2.36490732 -5.11850671
v -2.59415746 2.34523069 -6.27424038
v -1.26112202 2.36421801 -6.32839901
v -1.79414012 2.34523069 -6.32533362
v -1.17617670 2.38592074 -6.32431140
v -1.79414012 2.36421801 -6.32584441
v -2.43348694 2.36421801 -6.30847238
v -2.54001213 2.36421801 -6.29365558
v -2.58454472 2.34523069 -6.27781656
v -2.59415746 2.36421801 -6.27424038
v -3.18033988 2.47078902 -5.11595211
v -2.43348694 2.34523069 -6.30796159
v -2.54001213 2.34523069 -6.29365558
f 1 2 5
f 1 5 7
f 1 7 3
f 1 3 8
f 1 8 15
f 1 15 24
f 1 24 37
f 1 37 25
f 1 25 17
f 1 17 16
f 1 16 9
f 1 9 4
f 1 4 11
f 1 11 6
f 1 6 2
f 2 6 12
f 2 12 5
f 3 7 8
f 4 9 10
f 4 10 11
f 5 12 13
f 5 13 21
f 5 21 32
f 5 32 43
f 5 43 33
f 5 33 22
f 5 22 14
f 5 14 7
f 6 11 13
f 6 13 12
f 7 14 8
f 8 14 22
f 8 22 34
f 8 34 41
f 8 41 45
f 8 45 44
f 8 44 36
f 8 36 23
f 8 23 15
f 9 16 10
f 10 16 17
f 10 17 18
f 10 18 19
f 10 19 20
f 10 20 21
f 10 21 13
f 10 13 11
f 15 23 35
f 15 35 24
f 17 25 26
f 17 26 18
f 18 26 27
f 18 27 28
f 18 28 19
f 19 28 29
f 19 29 30
f 19 30 31
f 19 31 32
f 19 32 21
f 19 21 20
f 22 33 42
f 22 42 34
f 23 36 38
f 23 38 35
f 24 35 37
f 25 37 35
f 25 35 26
f 26 35 27
f 27 35 38
f 27 38 28
f 28 38 39
f 28 39 40
f 28 40 29
f 29 40 30
f 30 40 41
f 30 41 42
f 30 42 33
f 30 33 43
f 30 43 32
f 30 32 31
f 34 42 41
f 36 44 39
f 36 39 38
f 39 44 45
f 39 45 40
f 40 45 41

