# https://github.com/mikedh/trimesh
v -6.69704791 -0.05862340 -2.84151310
v -6.76870182 -0.04632055 -2.84151310
v -6.41890928 -0.05862340 -2.84151310
v -6.69704791 -0.05862340 -1.74377376
v -6.79990273 0.01933822 -2.84151310
v -6.76870182 -0.04632055 -1.74377376
v -6.41890928 0.03410173 -2.84151310
v -6.41890928 -0.05862340 -1.74377376
v -6.41890928 -0.05681038 -1.67883933
v -6.69704791 -0.05564481 -1.63725675
v -6.76668883 -0.04476641 -1.63725675
v -6.80783844 0.09380323 -2.84151310
v -6.79990273 0.01933822 -1.85029069
v -6.81205820 0.12592035 -1.74377376
v -6.79982554 0.01933822 -1.74377376
v -6.69859617 1.26439349 -2.84151310
v -6.41890928 1.26439349 -0.96497072
v -6.41890928 -0.05564481 -1.63725675
v -6.41890928 -0.04813357 -1.59833709
v -6.69704791 -0.04334188 -1.57355142
v -6.75987572 -0.04023376 -1.57703373
v -6.79432849 0.01933822 -1.63725675
v -6.81124500 0.12592035 -2.84151310
v -6.80590296 0.12592035 -1.63725675
v -6.81008396 0.65870144 -0.99774522
v -6.81387742 0.65870144 -1.21098402
v -6.81434215 0.76528353 -1.21098402
v -6.81434215 0.76528353 -1.31750099
v -6.80973549 1.26439349 -2.84151310
v -6.41890928 1.26439349 -0.74927385
v -6.41890928 -0.04334188 -1.57355142
v -6.41890928 0.11866816 -0.92543654
v -6.59047650 0.12488431 -0.99774522
v -6.64668465 0.17448448 -0.94202865
v -6.65845289 0.15790794 -0.99774522
v -6.77036634 0.58579045 -0.91437517
v -6.78019910 0.65870144 -0.89942186
v -6.78004408 1.26439349 -0.89962667
v -6.78948962 1.26439349 -0.93076238
v -6.80973549 1.26439349 -0.99774522
v -6.81383867 0.97844780 -1.21098402
v -6.81279358 1.08502993 -1.31750099
v -6.81283233 1.08502993 -1.21098402
v -6.81008396 1.26439349 -1.31750099
v -6.69704791 1.26439349 -0.85742958
v -6.69704791 0.65870144 -0.85476666
v -6.41890928 0.75505271 -0.74927385
v -6.41890928 0.13278405 -0.89901216
v -6.41890928 0.23250248 -0.84677790
v -6.41890928 0.65870144 -0.75050287
v -6.72344871 1.26439349 -0.87074417
v -6.81008396 1.26439349 -1.13826568
f 1 2 5
f 1 5 12
f 1 12 23
f 1 23 29
f 1 29 16
f 1 16 7
f 1 7 3
f 1 3 8
f 1 8 4
f 1 4 6
f 1 6 2
f 2 6 13
f 2 13 5
f 3 7 17
f 3 17 30
f 3 30 47
f 3 47 50
f 3 50 49
f 3 49 48
f 3 48 32
f 3 32 31
f 3 31 19
f 3 19 18
f 3 18 9
f 3 9 8
f 4 8 9
f 4 9 10
f 4 10 11
f 4 11 6
f 5 13 14
f 5 14 12
f 6 11 15
f 6 15 13
f 7 16 17
f 9 18 10
f 10 18 19
f 10 19 20
f 10 20 21
f 10 21 11
f 11 21 22
f 11 22 15
f 12 14 23
f 13 15 14
f 14 15 22
f 14 22 24
f 14 24 25
f 14 25 26
f 14 26 27
f 14 27 28
f 14 28 23
f 16 29 44
f 16 44 52
f 16 52 40
f 16 40 39
f 16 39 38
f 16 38 51
f 16 51 45
f 16 45 30
f 16 30 17
f 19 31 20
f 20 31 32
f 20 32 21
f 21 32 33
f 21 33 34
f 21 34 35
f 21 35 36
f 21 36 22
f 22 36 25
f 22 25 24
f 23 28 29
f 25 36 37
f 25 37 38
f 25 38 39
f 25 39 40
f 25 40 27
f 25 27 26
f 27 40 41
f 27 41 28
f 28 41 29
f 29 41 42
f 29 42 43
f 29 43 44
f 30 45 46
f 30 46 47
f 32 48 33
f 33 48 34
f 34 48 49
f 34 49 50
f 34 50 46
f 34 46 37
f 34 37 36
f 34 36 35
f 37 46 38
f 38 46 51
f 40 52 43
f 40 43 41
f 41 43 42
f 43 52 44
f 45 51 46
f 46 50 47

