# https://github.com/mikedh/trimesh
v -5.87865812 0.15826062 -0.02033439
v -5.87865812 0.33903863 -0.05055811
v -5.84433972 0.33903863 -0.04807824
v -5.85173128 0.15826062 -0.01707952
v -5.87865812 0.15826062 0.67233062
v -5.87865812 0.44504453 -0.02389922
v -5.84433972 0.44504453 -0.02265932
v -5.75847796 0.42753464 -0.00777995
v -5.75280223 0.33903863 -0.01211978
v -5.20450085 0.15826062 0.45983487
v -5.72950526 0.15826062 1.45411694
v -5.87865812 1.36691763 0.65280154
v -5.20483089 1.36691763 0.47548917
v -5.87865812 1.36691763 0.47610907
v -5.20450085 1.36644440 0.47533415
v -5.20450085 0.15826062 1.48139574
v -5.71175220 0.15826062 1.46698142
v -5.66364049 0.33903863 1.49441524
v -5.70185257 0.44563609 1.42652811
v -5.69373500 0.55223355 1.40947882
v -5.68700337 0.60783938 1.40219415
v -5.20450085 1.36691763 0.65280154
v -5.20450085 1.36691763 0.47641911
v -5.20450085 0.15837895 1.49333012
v -5.20483089 0.15826062 1.49333012
v -5.65143102 0.15826062 1.50588456
v -5.61031508 0.33903863 1.51781910
v -5.59513583 0.39985003 1.51285936
v -5.52465122 0.40552895 1.51704418
v -5.41806647 0.40671198 1.51766424
v -5.31141564 0.40683031 1.51781910
v -5.67736788 0.60783938 1.40219415
v -5.20483089 0.40659373 1.51781910
v -5.20450085 0.40671198 1.51750923
v -5.20450085 0.25551166 1.52138401
v -5.63117006 0.15826062 1.51425419
v -5.52465122 0.33903863 1.53083859
v -5.41806647 0.33903863 1.53254346
v -5.31141564 0.33903863 1.53285349
v -5.20483089 0.33903863 1.53207857
v -5.20450085 0.33915696 1.53192355
f 1 2 3
f 1 3 4
f 1 4 10
f 1 10 16
f 1 16 25
f 1 25 36
f 1 36 26
f 1 26 17
f 1 17 11
f 1 11 5
f 1 5 12
f 1 12 14
f 1 14 6
f 1 6 2
f 2 6 7
f 2 7 3
f 3 7 8
f 3 8 9
f 3 9 4
f 4 9 10
f 5 11 12
f 6 13 7
f 6 14 13
f 7 13 15
f 7 15 8
f 8 15 9
f 9 15 10
f 10 15 23
f 10 23 22
f 10 22 34
f 10 34 41
f 10 41 35
f 10 35 24
f 10 24 16
f 11 17 18
f 11 18 19
f 11 19 12
f 12 19 20
f 12 20 21
f 12 21 32
f 12 32 22
f 12 22 23
f 12 23 13
f 12 13 14
f 13 23 15
f 16 24 25
f 17 26 18
f 18 26 27
f 18 27 28
f 18 28 21
f 18 21 20
f 18 20 19
f 21 28 29
f 21 29 30
f 21 30 31
f 21 31 32
f 22 32 33
f 22 33 34
f 24 35 25
f 25 35 36
f 26 36 27
f 27 36 37
f 27 37 28
f 28 37 29
f 29 37 38
f 29 38 30
f 30 38 39
f 30 39 31
f 31 39 33
f 31 33 32
f 33 39 40
f 33 40 41
f 33 41 34
f 35 41 40
f 35 40 36
f 36 40 39
f 36 39 38
f 36 38 37

