# https://github.com/mikedh/trimesh
v -1.17431459 -0.05854693 0.38798449
v -1.17431459 -0.05854693 0.45977785
v -1.17431459 -0.04492873 0.28578348
v -1.04555245 -0.04630593 -0.00942819
v -0.94127850 -0.05854693 -0.00942819
v -0.54732050 -0.05854693 0.45977785
v -1.17431459 0.11343968 0.45977785
v -1.09882498 -0.02832686 -0.00942819
v -1.17431459 0.01834213 0.23447622
v -0.54732050 -0.05854693 -0.00942819
v -0.54732050 0.16898345 0.45977785
v -0.54732050 0.72296712 0.42996732
v -1.17431459 0.72296712 0.40272902
v -1.10600561 0.02499815 -0.00942819
v -1.17431459 0.65013292 -0.00942819
v -0.54732050 0.72296712 -0.00942819
v -1.17431459 0.72296712 -0.00942819
f 1 2 7
f 1 7 13
f 1 13 17
f 1 17 15
f 1 15 9
f 1 9 3
f 1 3 4
f 1 4 5
f 1 5 10
f 1 10 6
f 1 6 2
f 2 6 11
f 2 11 7
f 3 8 4
f 3 9 8
f 4 8 14
f 4 14 15
f 4 15 17
f 4 17 16
f 4 16 10
f 4 10 5
f 6 10 16
f 6 16 12
f 6 12 11
f 7 11 12
f 7 12 13
f 8 9 14
f 9 15 14
f 12 16 17
f 12 17 13

