# https://github.com/mikedh/trimesh
v 0.24508653 2.34770381 -6.11381752
v 0.23889222 2.34770381 -6.22040481
v 0.24243187 2.34770381 -5.66103356
v 0.31661433 2.13253275 -5.66103356
v 0.31661433 2.13253275 -5.79412108
v 0.31617183 2.13196597 -6.00723022
v 0.20924877 2.34770381 -6.28024219
v 0.30584829 2.12085599 -6.09011712
v 0.31322207 2.04444644 -6.10320428
v 0.08566079 2.34770381 -5.66103356
v 0.31971117 2.04444644 -5.66103356
v 0.33047720 2.04444644 -6.00723022
v 0.20379206 2.34770381 -6.29124583
v 0.24995335 1.93776790 -6.22040481
v 0.24980596 2.04444644 -6.22040481
v 0.30968273 1.18954423 -6.10157660
v 0.24995335 1.18954423 -6.22040481
v 0.08713567 2.04444644 -5.66103356
v -1.17602931 2.34770381 -6.14272685
v 0.31985888 1.18954423 -6.00723022
v 0.30098147 1.86702674 -5.66103356
v 0.30997752 1.18954423 -6.09962333
v 0.20482445 1.18954423 -6.28974840
v 0.20379206 1.18954423 -6.29124583
v 0.12444799 2.34770381 -6.30036132
v 0.12179333 1.96792356 -5.66103356
v -1.17602931 1.18954423 -6.20718710
v -1.17602931 2.34770381 -6.32614555
v 0.31941638 1.18954423 -6.00599327
v 0.29463976 1.18954423 -5.94485381
v 0.24036710 1.86702674 -5.66103356
v 0.12444799 1.18954423 -6.30036132
v -0.62150518 2.25757687 -6.32464811
v -0.08866052 2.34770381 -6.30726338
v 0.13329665 1.94264266 -5.66103356
v 0.25570517 1.18954423 -5.94485381
v 0.18712682 1.88936010 -5.66103356
v -1.17602931 1.18954423 -6.23069214
v -1.17602931 1.18999769 -6.32380124
v -0.72798559 2.34770381 -6.32601531
v -0.72592081 1.18954423 -6.32497339
v -0.72798559 1.18954423 -6.32497339
v 0.22709380 1.87258173 -5.66103356
v -0.62150518 1.18954423 -6.32464811
v -0.71161529 2.34770381 -6.32594987
v -0.62150518 2.34770381 -6.32373644
v -1.15434985 1.18954423 -6.32295500
f 1 2 7
f 1 7 13
f 1 13 25
f 1 25 34
f 1 34 46
f 1 46 45
f 1 45 40
f 1 40 28
f 1 28 19
f 1 19 10
f 1 10 3
f 1 3 4
f 1 4 5
f 1 5 6
f 1 6 2
f 2 6 8
f 2 8 9
f 2 9 7
f 3 10 18
f 3 18 26
f 3 26 35
f 3 35 37
f 3 37 43
f 3 43 31
f 3 31 21
f 3 21 11
f 3 11 4
f 4 11 12
f 4 12 5
f 5 12 6
f 6 12 8
f 7 9 13
f 8 12 9
f 9 14 15
f 9 15 13
f 9 12 16
f 9 16 17
f 9 17 14
f 10 19 18
f 11 20 12
f 11 21 20
f 12 20 22
f 12 22 16
f 13 15 14
f 13 14 23
f 13 23 24
f 13 24 32
f 13 32 25
f 14 17 23
f 16 22 20
f 16 20 29
f 16 29 30
f 16 30 36
f 16 36 27
f 16 27 38
f 16 38 47
f 16 47 42
f 16 42 41
f 16 41 44
f 16 44 32
f 16 32 24
f 16 24 23
f 16 23 17
f 18 19 27
f 18 27 26
f 19 28 39
f 19 39 38
f 19 38 27
f 20 21 29
f 21 30 29
f 21 31 36
f 21 36 30
f 25 32 44
f 25 44 33
f 25 33 34
f 26 27 35
f 27 36 37
f 27 37 35
f 28 40 41
f 28 41 42
f 28 42 39
f 31 43 36
f 33 44 45
f 33 45 46
f 33 46 34
f 36 43 37
f 38 39 47
f 39 42 47
f 40 45 44
f 40 44 41

