# https://github.com/mikedh/trimesh
v -2.06259069 0.15086477 -4.90322224
v -2.06442087 0.15086477 -4.37893558
v -2.06340413 0.27663148 -4.69836074
v -2.06340413 0.29316085 -4.69836074
v -2.06442087 1.14673216 -4.04094717
v -2.06442087 1.18944151 -4.01058233
v -2.03818827 0.33905285 -4.90322224
v -1.38359343 0.14070070 -4.90322224
v -2.06442087 0.52262100 -4.29341086
v -2.06442087 0.15086477 -3.56346696
v -1.40575891 0.59212639 -4.90322224
v -1.47428914 0.59089440 -4.90322224
v -1.51231618 0.58997038 -4.90322224
v -1.58084641 0.58740371 -4.90322224
v -1.68740353 0.58298903 -4.90322224
v -1.79396064 0.57364634 -4.90322224
v -1.90051808 0.53843167 -4.90322224
v -1.92146335 0.52641970 -4.90322224
v -1.95888042 0.50475700 -4.90322224
v -1.99182368 0.44572361 -4.90322224
v -2.06442087 1.18944151 -3.59621836
v -1.38359343 1.18954419 -3.93752184
v -0.29768587 1.18954419 -3.98605222
v -0.94129962 0.59151038 -4.90322224
v -1.15421071 0.59305038 -4.90322224
v -1.26097129 0.59305038 -4.90322224
v -0.28223122 0.14070070 -4.90322224
v -1.38359343 0.14070070 -3.55962173
v 0.01263143 0.14070070 -3.54861618
v 0.01263143 1.18954419 -3.58508019
v -1.38359343 1.18954419 -3.59555541
v -0.23098614 1.18954419 -3.97319028
v -0.24176361 1.14519215 -4.03988620
v -0.62162812 0.57949837 -4.90322224
v -0.72818523 0.58586371 -4.90322224
v -0.83474251 0.58976505 -4.90322224
v -0.31659790 0.33905285 -4.90322224
v 0.01263143 1.18954419 -3.83475946
v 0.01263143 0.14070070 -3.87732296
v -0.42722198 0.52652230 -4.90322224
v -0.45894512 0.54027972 -4.90322224
v -0.51527430 0.56461169 -4.90322224
v -0.55330135 0.57005300 -4.90322224
v -0.34547420 0.41369154 -4.90322224
v -0.37414688 0.46707826 -4.90322224
v -0.40831027 0.50537301 -4.90322224
f 1 2 3
f 1 3 4
f 1 4 5
f 1 5 6
f 1 6 7
f 1 7 20
f 1 20 19
f 1 19 18
f 1 18 17
f 1 17 16
f 1 16 15
f 1 15 14
f 1 14 13
f 1 13 12
f 1 12 11
f 1 11 26
f 1 26 25
f 1 25 24
f 1 24 36
f 1 36 35
f 1 35 34
f 1 34 43
f 1 43 42
f 1 42 41
f 1 41 40
f 1 40 46
f 1 46 45
f 1 45 44
f 1 44 37
f 1 37 27
f 1 27 8
f 1 8 2
f 2 9 4
f 2 4 3
f 2 8 28
f 2 28 10
f 2 10 21
f 2 21 6
f 2 6 5
f 2 5 9
f 4 9 5
f 6 11 12
f 6 12 13
f 6 13 14
f 6 14 15
f 6 15 16
f 6 16 17
f 6 17 18
f 6 18 19
f 6 19 20
f 6 20 7
f 6 21 31
f 6 31 22
f 6 22 23
f 6 23 24
f 6 24 25
f 6 25 26
f 6 26 11
f 8 27 39
f 8 39 29
f 8 29 28
f 10 28 29
f 10 29 21
f 21 29 30
f 21 30 31
f 22 31 30
f 22 30 38
f 22 38 32
f 22 32 23
f 23 32 33
f 23 33 34
f 23 34 35
f 23 35 36
f 23 36 24
f 27 37 38
f 27 38 39
f 29 39 38
f 29 38 30
f 32 38 33
f 33 38 40
f 33 40 41
f 33 41 42
f 33 42 43
f 33 43 34
f 37 44 38
f 38 44 45
f 38 45 46
f 38 46 40

