# https://github.com/mikedh/trimesh
v -0.02019684 2.30868583 -3.55785460
v -0.02019684 1.18954431 -3.58819260
v -0.02019684 2.30868583 -3.86664111
v -1.17617670 2.30868583 -3.56011727
v -0.02019684 1.18954431 -3.83517146
v -1.17617670 1.18954431 -3.59519042
v -0.23088926 1.18954431 -3.97303400
v -0.29753689 1.18954431 -3.98589815
v -0.40842780 2.30868583 -3.89333352
v -1.17617670 2.30868583 -3.89195075
v -1.17617670 1.18954431 -3.93729027
v -0.94126929 2.30868583 -3.89333352
f 1 2 5
f 1 5 3
f 1 3 9
f 1 9 12
f 1 12 10
f 1 10 4
f 1 4 2
f 2 4 6
f 2 6 11
f 2 11 8
f 2 8 7
f 2 7 5
f 3 5 7
f 3 7 8
f 3 8 9
f 4 10 11
f 4 11 6
f 8 11 10
f 8 10 12
f 8 12 9

