# https://github.com/mikedh/trimesh
v -0.62152710 2.36423452 3.33414244
v -0.62177757 2.33329202 3.33936885
v -0.62152710 2.33329202 3.28742969
v -0.62152710 2.47077091 3.33054910
v -3.18033988 2.47077091 3.33544896
v -3.18033988 2.36423452 3.34100224
v -3.18033988 2.33329202 3.34100224
v -2.34126172 2.31818695 0.84529792
v -2.32673431 2.31818695 0.84497137
v -2.23481150 2.31818695 0.84235800
v -2.22028416 2.31818695 0.84137803
v -2.13487348 2.31818695 0.81361162
v -2.11984520 2.31818695 0.80805834
v -0.62302994 2.31818695 0.20144561
v -0.62152710 2.33329202 3.12703796
v -0.62152710 2.52926874 3.32336243
v -3.18033988 2.52931448 3.32434240
v -3.18033988 2.31818695 0.84529792
v -0.62302994 2.31818695 0.00610111
v -0.62152710 2.34892345 1.34966542
v -0.62152710 2.54535791 3.26554312
v -3.18033988 2.54531209 3.26619622
v -3.18033988 2.31818695 0.73880592
v -1.58058101 2.31818695 0.00610111
v -0.62302994 2.36423452 0.00381446
v -0.62152710 2.50127854 1.34966542
v -3.18033988 2.54538078 3.26554312
v -0.62302994 2.54405337 0.06849373
v -2.11358347 2.55199496 0.38829674
v -3.18033988 2.36423452 0.68098662
v -3.17983894 2.31818695 0.68523321
v -1.58108195 2.36423452 0.00414117
v -0.94162919 2.36423452 0.00381446
v -1.64395010 2.31818695 0.00969445
v -0.62302994 2.47145753 0.00675453
v -0.62302994 2.52739202 0.01230781
v -0.62302994 2.52762089 0.01296108
v -3.18033988 2.54132986 0.73129270
v -1.58108195 2.54435086 0.06849373
v -3.18033988 2.47077091 0.68980652
v -1.63768829 2.52629348 0.01328779
v -1.64169585 2.47077091 0.01100113
v -1.64395010 2.36423452 0.00969445
v -1.58108195 2.47077091 0.00675453
v -1.58108195 2.52739202 0.01230781
f 1 2 3
f 1 3 15
f 1 15 20
f 1 20 26
f 1 26 21
f 1 21 16
f 1 16 4
f 1 4 2
f 2 4 5
f 2 5 6
f 2 6 7
f 2 7 8
f 2 8 9
f 2 9 10
f 2 10 11
f 2 11 12
f 2 12 13
f 2 13 14
f 2 14 3
f 3 14 19
f 3 19 15
f 4 16 5
f 5 16 17
f 5 17 22
f 5 22 27
f 5 27 38
f 5 38 40
f 5 40 30
f 5 30 23
f 5 23 18
f 5 18 7
f 5 7 6
f 7 18 8
f 8 18 23
f 8 23 31
f 8 31 34
f 8 34 24
f 8 24 19
f 8 19 14
f 8 14 13
f 8 13 12
f 8 12 11
f 8 11 10
f 8 10 9
f 15 19 20
f 16 21 17
f 17 21 22
f 19 24 33
f 19 33 25
f 19 25 20
f 20 25 26
f 21 27 22
f 21 26 28
f 21 28 29
f 21 29 27
f 23 30 31
f 24 32 33
f 24 34 32
f 25 33 35
f 25 35 26
f 26 35 36
f 26 36 37
f 26 37 28
f 27 29 38
f 28 37 39
f 28 39 29
f 29 39 38
f 30 40 41
f 30 41 42
f 30 42 43
f 30 43 34
f 30 34 31
f 32 44 33
f 32 34 43
f 32 43 42
f 32 42 44
f 33 44 35
f 35 44 45
f 35 45 36
f 36 45 37
f 37 45 39
f 38 39 41
f 38 41 40
f 39 45 41
f 41 45 44
f 41 44 42

