# https://github.com/mikedh/trimesh
v -5.87043684 1.26439349 -0.96465280
v -5.11064493 1.26439349 -1.10454781
v -5.87043684 1.26439349 -0.78740642
v -5.87043684 2.35187099 -1.10454781
v -4.93447898 1.26439349 -1.10454781
v -5.06114220 1.26439349 -0.72236752
v -4.91263402 1.85563969 -0.32101302
v -5.87043684 2.35617826 -0.32101302
v -5.87043684 2.47006953 -1.10454781
v -4.93279143 1.26452016 -1.10454781
v -4.93279143 1.26439349 -1.10416432
v -5.00854550 1.26439349 -0.72236752
v -4.95529267 1.26439349 -0.74967160
v -4.93072872 1.26439349 -0.80297589
v -4.92791619 1.26439349 -0.89102384
v -4.91263402 2.21897677 -1.10454781
v -4.91263402 2.54164744 -0.32101302
v -5.87043684 2.45854104 -0.32101302
v -5.87043684 2.54126736 -0.96933131
v -4.99166965 2.55811668 -1.10454781
v -4.91263402 2.54164744 -1.10454781
v -4.91263402 2.54177418 -0.89102384
v -4.93869795 2.54709494 -0.32101302
v -4.99166965 2.55811668 -0.32101302
v -5.87043684 2.55862343 -0.89102384
v -5.87043684 2.54557471 -0.95015709
v -5.20486885 2.55862343 -0.89102384
v -4.99166965 2.55824343 -0.99763244
v -4.91263402 2.54177418 -0.99456456
v -4.99166965 2.55824343 -0.78441525
f 1 2 5
f 1 5 11
f 1 11 15
f 1 15 14
f 1 14 13
f 1 13 12
f 1 12 6
f 1 6 3
f 1 3 8
f 1 8 18
f 1 18 25
f 1 25 26
f 1 26 19
f 1 19 9
f 1 9 4
f 1 4 2
f 2 4 9
f 2 9 20
f 2 20 21
f 2 21 16
f 2 16 10
f 2 10 5
f 3 6 7
f 3 7 8
f 5 10 11
f 6 12 7
f 7 12 13
f 7 13 14
f 7 14 15
f 7 15 16
f 7 16 21
f 7 21 29
f 7 29 22
f 7 22 17
f 7 17 23
f 7 23 24
f 7 24 18
f 7 18 8
f 9 19 20
f 10 15 11
f 10 16 15
f 17 22 23
f 18 24 25
f 19 26 20
f 20 26 25
f 20 25 27
f 20 27 28
f 20 28 21
f 21 28 29
f 22 29 28
f 22 28 30
f 22 30 23
f 23 30 24
f 24 30 27
f 24 27 25
f 27 30 28

