# https://github.com/mikedh/trimesh
v -3.60597802 0.05831109 0.97513771
v -3.87689436 0.05426446 0.97513771
v -3.18033988 0.04017097 0.97513771
v -3.18033988 1.36691767 0.79533888
v -3.71252159 1.36691767 0.79533888
v -3.96283387 0.05063642 0.97513771
v -3.18033988 -0.05862340 0.97513771
v -3.18033988 1.36691767 0.69788963
v -3.74300635 1.36691767 0.78924828
v -3.96283387 0.05189227 0.95788115
v -3.96283387 -0.05178600 0.97513771
v -3.79800153 1.36691767 0.77820906
v -3.81523538 1.36691767 0.75308556
v -3.84633297 1.36691767 0.70765996
v -3.85537115 1.36691767 0.60107489
v -3.49943444 -0.05862340 0.97513771
v -3.18033988 -0.05862340 0.92019574
v -3.64205421 0.87196914 -0.32101298
v -3.64335633 0.97843817 -0.32101298
v -3.65836896 1.36691767 -0.32101298
v -3.18033988 0.12598809 0.68964198
v -3.96283387 0.05775297 0.85383368
v -3.96283387 -0.05262318 0.95635846
v -3.85100523 1.36691767 -0.32101298
v -3.88171981 1.06690656 -0.03830878
v -3.96283387 0.06305546 0.70765996
v -3.96283387 -0.05569302 0.88377906
v -3.96283387 -0.05862340 0.81424503
v -3.92576193 -0.05862340 -0.32101298
v -3.18033988 -0.05848395 0.81373742
v -3.64205421 0.23245706 -0.32101298
v -3.18033988 0.01937944 0.69738217
v -3.64450526 0.12598809 -0.32101298
v -3.96283387 0.06291593 -0.32101298
v -3.96283387 0.06445093 -0.23434910
v -3.96283387 0.06556717 -0.14489385
v -3.96283387 0.06556717 0.60107489
v -3.96283387 -0.05862340 -0.32101298
v -3.81914176 -0.05415810 -0.32101298
v -3.72952566 -0.04397179 -0.32101298
v -3.18033988 -0.04578577 0.73684391
v -3.68624953 0.01937944 -0.32101298
v -3.68801117 0.01561186 -0.32101298
f 1 2 6
f 1 6 11
f 1 11 16
f 1 16 7
f 1 7 3
f 1 3 4
f 1 4 5
f 1 5 2
f 2 5 6
f 3 7 17
f 3 17 30
f 3 30 41
f 3 41 32
f 3 32 21
f 3 21 8
f 3 8 4
f 4 8 20
f 4 20 24
f 4 24 15
f 4 15 14
f 4 14 13
f 4 13 12
f 4 12 9
f 4 9 5
f 5 9 6
f 6 10 22
f 6 22 26
f 6 26 37
f 6 37 36
f 6 36 35
f 6 35 34
f 6 34 38
f 6 38 28
f 6 28 27
f 6 27 23
f 6 23 11
f 6 9 12
f 6 12 13
f 6 13 14
f 6 14 15
f 6 15 10
f 7 16 28
f 7 28 38
f 7 38 29
f 7 29 17
f 8 18 19
f 8 19 20
f 8 21 18
f 10 15 22
f 11 23 16
f 15 24 25
f 15 25 26
f 15 26 22
f 16 23 27
f 16 27 28
f 17 29 30
f 18 21 31
f 18 31 33
f 18 33 42
f 18 42 43
f 18 43 40
f 18 40 39
f 18 39 29
f 18 29 38
f 18 38 34
f 18 34 24
f 18 24 20
f 18 20 19
f 21 32 33
f 21 33 31
f 24 34 25
f 25 34 35
f 25 35 36
f 25 36 37
f 25 37 26
f 29 39 30
f 30 39 40
f 30 40 41
f 32 41 33
f 33 41 42
f 40 43 41
f 41 43 42

