# https://github.com/mikedh/trimesh
v -4.91246440 0.26837740 -5.11899241
v -3.18067890 0.26837740 -5.11899241
v -4.91246440 0.26837740 -5.02507804
v -4.91246440 1.23288634 -5.11901496
v -3.18067890 0.26837740 -4.92170004
v -4.13888268 1.23288634 -5.11901496
v -3.18067890 1.23288634 -5.11899241
v -3.71267526 0.26837740 -4.92863989
v -3.83507854 2.06301215 -4.88882539
v -3.86457737 2.15088539 -4.88882539
v -4.91246440 2.21569426 -5.00606087
v -4.91246440 2.21569426 -5.11901496
v -3.18067890 0.97803486 -4.91307025
v -3.62434829 2.06205902 -4.88882539
v -3.71148853 2.01497731 -4.88882539
v -3.60620820 0.26837740 -4.92176770
v -4.13888268 2.21569426 -5.11901496
v -3.18067890 2.21569426 -5.11896985
v -3.67690370 0.26837740 -4.92631909
v -3.82456743 2.03918532 -4.88882539
v -3.86508594 2.15812868 -4.88882539
v -3.86627270 2.21569426 -4.88882539
v -3.18067890 0.97860670 -4.91307025
v -3.62773896 2.13582685 -4.88882539
v -3.18067890 2.21569426 -5.00306409
v -3.66486680 2.21569426 -4.88882539
v -3.18067890 1.93777846 -4.92178994
v -3.62875617 2.15793809 -4.88882539
v -3.18067890 2.14764489 -4.96329437
v -3.18067890 2.04433192 -4.92681464
f 1 2 5
f 1 5 16
f 1 16 19
f 1 19 8
f 1 8 3
f 1 3 11
f 1 11 12
f 1 12 4
f 1 4 6
f 1 6 2
f 2 6 17
f 2 17 7
f 2 7 18
f 2 18 25
f 2 25 29
f 2 29 30
f 2 30 27
f 2 27 23
f 2 23 13
f 2 13 5
f 3 8 9
f 3 9 10
f 3 10 11
f 4 12 17
f 4 17 6
f 5 13 14
f 5 14 15
f 5 15 16
f 7 17 18
f 8 19 9
f 9 20 15
f 9 15 14
f 9 14 24
f 9 24 28
f 9 28 26
f 9 26 22
f 9 22 21
f 9 21 10
f 9 19 16
f 9 16 20
f 10 21 11
f 11 21 22
f 11 22 26
f 11 26 25
f 11 25 18
f 11 18 17
f 11 17 12
f 13 23 14
f 14 23 24
f 15 20 16
f 23 27 28
f 23 28 24
f 25 26 29
f 26 28 30
f 26 30 29
f 27 30 28

