# https://github.com/mikedh/trimesh
v -6.69861110 1.26439349 -2.84171799
v -6.36153787 0.87186566 -3.12164106
v -6.36153787 0.94529468 -3.16112361
v -6.36153787 1.26439349 -3.63943751
v -6.80972628 1.26439349 -2.84171799
v -6.36153787 0.03410173 -2.84171799
v -6.36153787 1.26439349 -3.83281698
v -6.81389775 1.26439349 -3.34264590
v -6.81283265 0.87186566 -3.12946416
v -6.81123515 0.12592035 -2.84171799
v -6.36153787 -0.05862340 -2.84171799
v -6.69861110 1.26439349 -4.09049278
v -6.36153787 0.03410173 -4.09049278
v -6.81465219 1.26439349 -3.58968717
v -6.81487391 0.87186566 -3.44923668
v -6.81261092 0.33908461 -3.12946416
v -6.81385328 0.12592035 -3.76888691
v -6.79991957 0.01933822 -2.84171799
v -6.69705808 -0.05862340 -2.84171799
v -6.36153787 -0.05862340 -4.09012621
v -6.80972628 1.26439349 -4.09049278
v -6.36153787 0.02153982 -4.09049278
v -6.81474081 1.26439349 -3.69627780
v -6.81141272 0.12592035 -4.09049278
v -6.81123515 0.12410724 -4.09049278
v -6.80009714 0.01933822 -4.09049278
v -6.80018577 0.01933822 -3.76888691
v -6.81434152 0.97844780 -3.76888691
v -6.76872374 -0.04632055 -2.84171799
v -6.69705808 -0.05862340 -4.09049278
v -6.37733527 -0.05862340 -4.09049278
v -6.81438567 1.26439349 -3.76888691
v -6.79956443 0.01817274 -4.09049278
v -6.76872374 -0.04632055 -4.09049278
f 1 2 3
f 1 3 4
f 1 4 7
f 1 7 12
f 1 12 21
f 1 21 32
f 1 32 23
f 1 23 14
f 1 14 8
f 1 8 5
f 1 5 10
f 1 10 18
f 1 18 29
f 1 29 19
f 1 19 11
f 1 11 6
f 1 6 2
f 2 6 11
f 2 11 20
f 2 20 22
f 2 22 13
f 2 13 7
f 2 7 4
f 2 4 3
f 5 8 9
f 5 9 10
f 7 13 12
f 8 14 15
f 8 15 9
f 9 15 10
f 10 16 17
f 10 17 18
f 10 15 16
f 11 19 30
f 11 30 31
f 11 31 20
f 12 13 22
f 12 22 31
f 12 31 30
f 12 30 34
f 12 34 33
f 12 33 26
f 12 26 25
f 12 25 24
f 12 24 21
f 14 23 15
f 15 23 17
f 15 17 16
f 17 24 25
f 17 25 26
f 17 26 27
f 17 27 18
f 17 23 28
f 17 28 24
f 18 27 29
f 19 29 34
f 19 34 30
f 20 31 22
f 21 24 32
f 23 32 28
f 24 28 32
f 26 33 27
f 27 33 34
f 27 34 29

