# https://github.com/mikedh/trimesh
v -4.87518352 2.17824567 -0.32101302
v -4.91260099 2.17824567 -0.32101302
v -4.80929271 2.13400668 -0.32101302
v -4.71472747 2.10750145 -0.39294313
v -4.60327923 2.11017104 -0.59666936
v -4.59966143 2.11245928 -0.67781280
v -4.87515001 2.17824567 -0.32547507
v -4.91260099 2.17824567 -0.57105382
v -4.91260099 1.85541562 -0.32101302
v -4.78782036 2.11570089 -0.32101302
v -4.74578019 2.04438465 -0.32101302
v -4.70829586 2.04438465 -0.38187064
v -4.59396663 2.04438465 -0.58084556
v -4.57768655 2.04438465 -0.67781280
v -4.60867241 2.10464119 -0.73726564
v -4.88513239 2.17824567 -0.49437243
v -4.87541796 2.17824567 -0.37013702
v -4.87494909 2.17824567 -0.35819689
v -4.91260099 2.07088988 -0.54771063
v -4.62860380 2.10464119 -0.73726564
v -4.63493487 2.04438465 -0.74123193
v -4.63630826 1.93760097 -0.74214086
v -4.64026118 1.08523819 -0.74209955
v -4.64026118 0.97864518 -0.74209955
v -4.63694484 0.23020582 -0.74304980
v -4.68916830 0.23020582 -0.68880268
v -4.73147657 0.23020582 -0.63463820
v -4.84634153 0.23020582 -0.43570458
v -4.88908515 0.23020582 -0.36055188
v -4.91149554 0.23020582 -0.32101302
v -4.74534469 2.03389697 -0.32101302
v -4.59229179 1.93760097 -0.57894505
v -4.74142543 1.93760097 -0.32101302
v -4.61017985 1.05777952 -0.50854363
v -4.57467182 1.93760097 -0.67781280
v -4.60234119 2.04438465 -0.74123193
v -4.60103482 1.93760097 -0.74214086
v -4.60036488 0.23020582 -0.74304980
v -4.74031999 0.23020582 -0.32101302
v -4.58907598 1.09019600 -0.56365836
v -4.74139192 1.92959220 -0.32101302
v -4.61017985 1.00267151 -0.50854363
v -4.58907598 0.97178051 -0.56246020
v -4.74129154 1.83119863 -0.32101302
v -4.74122452 1.72441491 -0.32101302
v -4.57041744 1.08523819 -0.67781280
v -4.57041744 0.97864518 -0.67781280
v -4.57390135 0.23020582 -0.67781280
v -4.70601795 0.23020582 -0.37976354
v -4.59155482 0.23020582 -0.57861453
v -4.57430334 0.23020582 -0.67529255
f 1 2 9
f 1 9 30
f 1 30 39
f 1 39 45
f 1 45 44
f 1 44 41
f 1 41 33
f 1 33 31
f 1 31 11
f 1 11 10
f 1 10 3
f 1 3 4
f 1 4 5
f 1 5 6
f 1 6 7
f 1 7 18
f 1 18 17
f 1 17 16
f 1 16 8
f 1 8 2
f 2 8 19
f 2 19 9
f 3 10 4
f 4 11 12
f 4 12 13
f 4 13 5
f 4 10 11
f 5 13 14
f 5 14 6
f 6 14 15
f 6 15 8
f 6 8 16
f 6 16 17
f 6 17 18
f 6 18 7
f 8 15 20
f 8 20 21
f 8 21 22
f 8 22 23
f 8 23 24
f 8 24 25
f 8 25 26
f 8 26 27
f 8 27 28
f 8 28 29
f 8 29 30
f 8 30 19
f 9 19 30
f 11 31 12
f 12 32 13
f 12 31 33
f 12 33 34
f 12 34 32
f 13 32 35
f 13 35 14
f 14 35 36
f 14 36 15
f 15 36 21
f 15 21 20
f 21 36 37
f 21 37 22
f 22 37 38
f 22 38 25
f 22 25 23
f 23 25 24
f 25 38 48
f 25 48 51
f 25 51 50
f 25 50 49
f 25 49 39
f 25 39 30
f 25 30 29
f 25 29 28
f 25 28 27
f 25 27 26
f 32 34 40
f 32 40 35
f 33 41 34
f 34 39 42
f 34 42 43
f 34 43 40
f 34 41 44
f 34 44 45
f 34 45 39
f 35 37 36
f 35 40 46
f 35 46 37
f 37 46 38
f 38 46 47
f 38 47 48
f 39 49 42
f 40 43 46
f 42 49 50
f 42 50 43
f 43 47 46
f 43 50 51
f 43 51 47
f 47 51 48

