# https://github.com/mikedh/trimesh
v -3.18033988 2.33324739 3.12623333
v -2.64658593 1.93469481 3.21803464
v -3.18033988 1.93469481 3.23224503
v -3.18033988 2.33324739 3.34124302
v -0.62177757 2.33324739 3.12638772
v -1.04807942 1.93469481 3.25242801
v -3.18033988 1.93469481 3.34124302
v -2.61552756 2.04444803 3.64928971
v -2.61001716 2.10941033 3.64723034
v -2.53988523 2.11526277 3.65134940
v -0.62152710 2.11526277 3.65134940
v -0.62177757 2.33324739 3.33959534
v -0.62152710 2.33324739 3.12731464
v -0.62152710 2.33316941 3.12669680
v -0.62152710 2.04444803 3.23296580
v -0.62152710 1.96653222 3.28373216
v -0.94463486 1.93469481 3.27935580
v -2.61227142 1.93469481 3.64717888
v -2.54589657 2.04850570 3.65222454
v -0.62152710 2.08120143 3.65134940
v -0.62152710 2.33324739 3.28769652
v -0.62152710 1.96653222 3.34726707
v -0.94463486 1.93469481 3.34963553
v -2.58321675 1.93469481 3.64717888
v -0.62152710 2.05303160 3.58560042
v -0.94688912 1.93469481 3.35030483
f 1 2 3
f 1 3 7
f 1 7 4
f 1 4 12
f 1 12 21
f 1 21 13
f 1 13 5
f 1 5 2
f 2 5 6
f 2 6 17
f 2 17 23
f 2 23 26
f 2 26 24
f 2 24 18
f 2 18 7
f 2 7 3
f 4 7 8
f 4 8 9
f 4 9 10
f 4 10 11
f 4 11 12
f 5 13 14
f 5 14 15
f 5 15 6
f 6 15 16
f 6 16 17
f 7 18 8
f 8 18 19
f 8 19 10
f 8 10 9
f 10 19 11
f 11 20 25
f 11 25 22
f 11 22 16
f 11 16 15
f 11 15 14
f 11 14 13
f 11 13 21
f 11 21 12
f 11 19 20
f 16 22 23
f 16 23 17
f 18 24 19
f 19 24 20
f 20 24 25
f 22 25 26
f 22 26 23
f 24 26 25

