# https://github.com/mikedh/trimesh
v -3.10948448 0.15115590 -3.17533527
v -3.18010434 0.15115590 -3.17533527
v -3.07304747 0.15105425 -3.17533527
v -3.07304747 1.04994697 -3.17755935
v -3.18033984 0.15085079 -3.19184788
v -3.18010434 0.15085079 -3.17533527
v -3.13841877 1.04384660 -3.17931186
v -3.18033984 1.08177069 -3.19858777
v -3.07213907 0.15085079 -3.17533527
v -3.01191538 1.04394825 -3.17924436
v -3.07304747 1.18944262 -3.20822581
v -3.17966694 1.18944262 -3.20829331
v -3.18033984 0.15085079 -3.61720152
v -3.18033984 1.18944262 -3.20836065
v -2.96649526 0.15085079 -3.19912700
v -3.01191538 1.01893665 -3.17924436
v -2.88598394 0.15085079 -3.25210251
v -2.90977060 1.18944262 -3.28054473
v -2.91101543 1.18944262 -3.27939894
v -2.96662984 1.18944262 -3.23983586
v -2.96915317 1.18944262 -3.23902711
v -3.18017162 0.15085079 -3.85795001
v -3.18033984 0.23249438 -3.82249821
v -3.18033984 1.18944262 -3.82243087
v -2.83662741 0.15085079 -3.56321506
v -2.83662741 1.18944262 -3.59570138
v -2.83662741 0.15085079 -3.86381364
v -3.18033984 0.23320609 -3.82249821
v -2.83662741 1.18944262 -3.82499182
f 1 2 6
f 1 6 9
f 1 9 3
f 1 3 4
f 1 4 2
f 2 5 6
f 2 4 7
f 2 7 8
f 2 8 5
f 3 9 4
f 4 10 11
f 4 11 12
f 4 12 7
f 4 9 10
f 5 13 22
f 5 22 27
f 5 27 25
f 5 25 17
f 5 17 15
f 5 15 9
f 5 9 6
f 5 8 14
f 5 14 24
f 5 24 28
f 5 28 23
f 5 23 13
f 7 12 14
f 7 14 8
f 9 15 16
f 9 16 10
f 10 16 15
f 10 15 17
f 10 17 18
f 10 18 19
f 10 19 20
f 10 20 21
f 10 21 11
f 11 21 20
f 11 20 19
f 11 19 18
f 11 18 26
f 11 26 29
f 11 29 24
f 11 24 14
f 11 14 12
f 13 23 22
f 17 25 26
f 17 26 18
f 22 23 28
f 22 28 24
f 22 24 27
f 24 29 27
f 25 27 29
f 25 29 26

