# https://github.com/mikedh/trimesh
v -0.37394962 2.34739965 -1.10869522
v -0.56176659 2.34739965 -1.10869522
v -0.35688953 2.26336276 -1.10869522
v -0.02878375 2.34739965 -1.68152751
v -0.48043145 1.18975801 -1.10869522
v -0.56176659 2.34739965 -1.63713017
v -0.52519441 0.05233914 -1.10877698
v -0.35600263 2.25886878 -1.10869522
v -0.35595053 2.25662183 -1.10869522
v -0.35501154 2.20561548 -1.10869522
v -0.35495913 1.18953331 -1.10877698
v -0.02878375 1.18975801 -1.68152751
v -0.02878375 2.34739965 -1.87211723
v -0.35501154 1.18975801 -1.10869522
v -0.56020150 2.34739965 -1.66157729
v -0.52519441 0.05233914 -1.94284239
v -0.36810632 0.05233914 -1.10877698
v -0.35495913 0.12603995 -1.10877698
v -0.02878375 1.18975801 -1.80556212
v -0.35501154 0.07278665 -1.10877698
v -0.10745820 0.05233914 -1.68479803
v -0.31014406 2.34739965 -1.86778383
v -0.10745820 0.05233914 -1.90686661
v -0.51486452 0.05233914 -1.94398707
v -0.54355881 2.34739965 -1.75993830
v -0.50323033 2.34739965 -1.83851261
v -0.41652139 2.34739965 -1.86410449
f 1 2 5
f 1 5 14
f 1 14 10
f 1 10 9
f 1 9 8
f 1 8 3
f 1 3 4
f 1 4 13
f 1 13 22
f 1 22 27
f 1 27 26
f 1 26 25
f 1 25 15
f 1 15 6
f 1 6 2
f 2 6 16
f 2 16 7
f 2 7 5
f 3 8 4
f 4 8 9
f 4 9 10
f 4 10 11
f 4 11 18
f 4 18 12
f 4 12 19
f 4 19 13
f 5 7 17
f 5 17 14
f 6 15 16
f 7 16 24
f 7 24 23
f 7 23 21
f 7 21 17
f 10 14 18
f 10 18 11
f 12 18 20
f 12 20 21
f 12 21 23
f 12 23 19
f 13 19 23
f 13 23 24
f 13 24 22
f 14 17 20
f 14 20 18
f 15 25 16
f 16 25 26
f 16 26 27
f 16 27 24
f 17 21 20
f 22 24 27

