# https://github.com/mikedh/trimesh
v 0.14675641 1.29566167 2.41352996
v 0.13243167 1.29566167 2.41352996
v 0.23848625 1.29521361 2.41352996
v 0.23848625 1.29566167 2.41311319
v -0.48404194 1.29566167 2.26267811
v -0.50707907 0.15141551 2.28716025
v 0.10864074 0.15175151 2.41352996
v 0.24971162 1.29566167 2.19996211
v 0.24208848 0.15141551 2.41352996
v -0.53313203 1.29566167 2.19996211
v -0.56144671 0.15141551 2.21933951
v 0.10855688 0.15141551 2.41311319
v 0.24016157 0.15141551 2.41352996
v 0.25130308 1.29566167 2.09599105
v 0.24326127 0.15141551 2.38758913
v 0.24971162 0.23250741 2.19996211
v -0.56295463 1.29566167 2.09338658
v -0.57007507 0.15141551 2.19996211
v 0.25130308 1.29566167 1.66708458
v 0.25130308 0.23250741 2.09338658
v 0.24661192 0.15141551 2.28101391
v 0.24912522 0.15141551 2.19996211
v 0.24954389 0.15141551 2.17443837
v -0.56312204 1.29566167 2.09119887
v -0.59947884 0.15141551 1.98868648
v -0.58448384 0.15141551 2.13630872
v 0.24091569 1.29566167 1.56050904
v 0.25130308 0.23250741 1.66708458
v 0.25021415 0.15141551 2.09338658
v 0.25029801 0.15141551 1.98681104
v -0.56722680 1.29566167 2.00889710
v -0.60425386 0.15141551 1.89825872
v 0.20506142 1.29566167 1.49143816
v 0.24091569 0.23250741 1.56050904
v 0.25029801 0.15141551 1.74813621
v 0.25013029 0.15141551 1.66708458
v 0.24024543 0.15141551 1.56050904
v -0.56890228 1.29566167 1.95566158
v -0.60442127 0.15141551 1.88023550
v 0.20413990 1.29566167 1.48966706
v 0.20413990 0.15141551 1.48966706
v -0.56957238 1.29566167 1.88023550
v -0.59956254 0.15141551 1.78386977
v -0.56957238 1.29566167 1.87846456
v -0.56881858 1.29566167 1.80689324
v -0.56705939 1.29566167 1.75490771
v -0.55181281 1.18309631 1.34923324
v -0.42288882 1.29566167 1.34923324
v -0.41970558 0.55228247 1.34923324
v -0.41995685 0.15141551 1.34923324
v -0.41970558 0.44330131 1.34923324
v -0.55658783 0.15141551 1.34923324
v -0.56236824 1.29566167 1.66708458
v -0.55147800 1.19172074 1.34923324
v -0.53489121 1.29566167 1.34923324
f 1 2 7
f 1 7 13
f 1 13 9
f 1 9 3
f 1 3 4
f 1 4 8
f 1 8 14
f 1 14 19
f 1 19 27
f 1 27 33
f 1 33 40
f 1 40 48
f 1 48 55
f 1 55 53
f 1 53 46
f 1 46 45
f 1 45 44
f 1 44 42
f 1 42 38
f 1 38 31
f 1 31 24
f 1 24 17
f 1 17 10
f 1 10 5
f 1 5 2
f 2 5 6
f 2 6 7
f 3 8 4
f 3 9 8
f 5 10 11
f 5 11 6
f 6 11 18
f 6 18 26
f 6 26 25
f 6 25 32
f 6 32 39
f 6 39 43
f 6 43 52
f 6 52 50
f 6 50 41
f 6 41 37
f 6 37 36
f 6 36 35
f 6 35 30
f 6 30 29
f 6 29 23
f 6 23 22
f 6 22 21
f 6 21 15
f 6 15 9
f 6 9 13
f 6 13 12
f 6 12 7
f 7 12 13
f 8 9 15
f 8 15 16
f 8 16 14
f 10 17 18
f 10 18 11
f 14 16 20
f 14 20 28
f 14 28 19
f 15 21 16
f 16 21 22
f 16 22 23
f 16 23 20
f 17 24 25
f 17 25 26
f 17 26 18
f 19 28 34
f 19 34 27
f 20 23 29
f 20 29 30
f 20 30 35
f 20 35 28
f 24 31 32
f 24 32 25
f 27 34 33
f 28 35 36
f 28 36 37
f 28 37 34
f 31 38 32
f 32 38 39
f 33 34 41
f 33 41 40
f 34 37 41
f 38 42 39
f 39 42 44
f 39 44 45
f 39 45 46
f 39 46 47
f 39 47 43
f 40 41 51
f 40 51 49
f 40 49 48
f 41 50 51
f 43 47 52
f 46 53 54
f 46 54 47
f 47 54 55
f 47 55 48
f 47 48 49
f 47 49 51
f 47 51 50
f 47 50 52
f 53 55 54

