# https://github.com/mikedh/trimesh
v -2.28317606 0.17068213 0.57775521
v -2.25604060 0.12595855 0.38794811
v -2.28274182 0.12595855 0.57775521
v -2.28002823 1.26188694 0.57775521
v -2.25495516 1.26188694 0.38794811
v -2.20991036 0.12595855 0.31172638
v -2.20285519 0.01931980 0.31643993
v -2.24203867 0.01931980 0.38794811
v -2.20991036 1.26188694 0.31172638
v -2.25267582 0.01414945 0.57775521
v -2.14120351 1.26188694 0.57775521
v -1.69053864 0.97855111 -0.00942819
v -2.18624832 -0.04156125 0.32563714
v -1.67783935 0.90086645 -0.00942819
v -1.67306353 0.87191244 -0.00942819
v -1.65254908 0.80779995 -0.00942819
v -1.64484256 0.78375775 -0.00942819
v -1.61662175 0.73050302 -0.00942819
v -2.19688538 -0.04582675 0.38794811
v -1.69053864 1.26188694 -0.00942819
v -2.24507785 0.00367947 0.57775521
v -1.17431459 0.87191244 0.39501853
v -1.60479077 1.26188694 0.36748433
v -1.17431459 0.04051832 0.57775521
v -2.11374253 -0.04530976 0.32115349
v -2.11374253 -0.05758927 0.38794811
v -1.56332794 0.70154902 -0.00942819
v -2.19786226 -0.04621453 0.49457813
v -2.11374253 -0.05862340 0.49457813
v -1.57537604 1.26188694 -0.00942819
v -2.19873057 -0.04621453 0.57775521
v -1.17431459 0.92891565 0.36598983
v -1.58536191 1.26188694 0.31080668
v -1.17431459 0.94184155 0.35937931
v -1.17431459 -0.05862340 0.57775521
v -1.58091169 0.01931980 0.25935981
v -1.17431459 0.01828574 0.23452737
v -1.17431459 -0.04492190 0.28574425
v -1.58091169 -0.04621453 0.30431115
v -1.58091169 -0.05862340 0.38794811
v -1.47432376 0.68836458 -0.00942819
v -2.11374253 -0.05862340 0.57775521
v -1.37620219 1.16377930 -0.00942819
v -1.57537604 1.26188694 0.28143309
v -1.17431459 0.95321633 0.29591865
v -1.17431459 -0.05862340 0.38794811
v -1.17431459 0.65010389 -0.00942819
v -1.17431459 0.95528448 0.28143309
v -1.17431459 0.94507304 0.20021040
v -1.17431459 0.94158302 0.18664453
v -1.17431459 0.88522608 -0.00942819
f 1 2 3
f 1 3 10
f 1 10 21
f 1 21 31
f 1 31 42
f 1 42 35
f 1 35 24
f 1 24 11
f 1 11 4
f 1 4 5
f 1 5 2
f 2 6 7
f 2 7 8
f 2 8 3
f 2 5 9
f 2 9 6
f 3 8 10
f 4 11 23
f 4 23 33
f 4 33 44
f 4 44 30
f 4 30 20
f 4 20 9
f 4 9 5
f 6 9 20
f 6 20 12
f 6 12 7
f 7 13 8
f 7 12 14
f 7 14 15
f 7 15 16
f 7 16 17
f 7 17 18
f 7 18 13
f 8 13 19
f 8 19 10
f 10 19 21
f 11 22 23
f 11 24 22
f 12 20 30
f 12 30 43
f 12 43 51
f 12 51 47
f 12 47 41
f 12 41 27
f 12 27 18
f 12 18 17
f 12 17 16
f 12 16 15
f 12 15 14
f 13 25 26
f 13 26 19
f 13 18 27
f 13 27 25
f 19 28 21
f 19 26 29
f 19 29 28
f 21 28 31
f 22 32 23
f 22 24 35
f 22 35 46
f 22 46 38
f 22 38 37
f 22 37 47
f 22 47 51
f 22 51 50
f 22 50 49
f 22 49 48
f 22 48 45
f 22 45 34
f 22 34 32
f 23 32 34
f 23 34 33
f 25 36 37
f 25 37 38
f 25 38 39
f 25 39 26
f 25 27 36
f 26 40 29
f 26 39 38
f 26 38 40
f 27 41 37
f 27 37 36
f 28 29 31
f 29 42 31
f 29 40 46
f 29 46 35
f 29 35 42
f 30 44 43
f 33 34 44
f 34 45 43
f 34 43 44
f 37 41 47
f 38 46 40
f 43 48 49
f 43 49 50
f 43 50 51
f 43 45 48

