# https://github.com/mikedh/trimesh
v -4.91504028 2.20598428 -2.69596199
v -5.11384946 2.20598428 -2.69596199
v -4.92810567 1.26448565 -2.69596199
v -4.92781327 1.26448565 -2.70306829
v -4.91650277 2.20598428 -3.55571295
v -5.11189952 1.26448565 -2.69596199
v -5.59883098 2.20598428 -3.13362055
v -4.93278587 1.26448565 -3.66230755
v -4.91689285 2.20598428 -3.66230755
v -5.59327325 1.29840690 -3.14241885
v -5.59268829 1.26448565 -3.14264455
v -5.91113411 2.20598428 -3.64313187
v -5.91113411 1.26448565 -3.63963510
v -4.93561350 1.26448565 -3.73179155
v -4.92410812 2.20598428 -3.74938816
v -5.91113411 2.20598428 -3.84831261
v -5.91113411 1.26448565 -3.83285923
v -4.95735665 1.26448565 -3.76811278
v -4.96749706 1.26448565 -3.78503246
v -4.95930674 2.20598428 -3.79552277
v -5.15333836 2.20598428 -3.84831261
v -5.09824900 1.26448565 -3.83285923
v -4.98095253 2.20598428 -3.81842108
v -5.02083136 1.26448565 -3.82755785
v -5.00581587 2.20598428 -3.83827370
v -5.09824900 2.20598428 -3.84774877
v -5.06080771 2.20598428 -3.84504138
f 1 2 6
f 1 6 3
f 1 3 4
f 1 4 5
f 1 5 9
f 1 9 15
f 1 15 20
f 1 20 23
f 1 23 25
f 1 25 27
f 1 27 26
f 1 26 21
f 1 21 16
f 1 16 12
f 1 12 7
f 1 7 2
f 2 7 6
f 3 6 11
f 3 11 13
f 3 13 17
f 3 17 22
f 3 22 24
f 3 24 19
f 3 19 18
f 3 18 14
f 3 14 8
f 3 8 4
f 4 8 9
f 4 9 5
f 6 7 10
f 6 10 11
f 7 12 13
f 7 13 10
f 8 14 9
f 9 14 15
f 10 13 11
f 12 16 17
f 12 17 13
f 14 18 15
f 15 18 19
f 15 19 20
f 16 21 22
f 16 22 17
f 19 23 20
f 19 24 25
f 19 25 23
f 21 26 22
f 22 26 24
f 24 26 27
f 24 27 25

