# https://github.com/mikedh/trimesh
v -6.69701901 1.26439349 -5.12524136
v -6.69701901 1.93785192 -5.12524136
v -6.59047841 2.04439418 -5.12774989
v -6.59047841 1.26439349 -5.12273282
v -6.74299574 1.26439349 -5.11478853
v -6.69701901 2.04439418 -5.12482300
v -6.76444045 2.36402090 -5.10977114
v -6.57511365 2.15080970 -5.12565939
v -6.57511365 2.04439418 -5.12691382
v -6.69701901 2.36402090 -5.11855150
v -6.57511365 1.26439349 -5.12106004
v -6.76444045 1.26439349 -5.10977114
v -6.76213108 2.47068983 -5.10809899
v -6.79625413 2.36402090 -5.04747287
v -6.69701901 2.47068983 -5.11562492
v -6.57511365 2.47068983 -5.11562492
v -6.57511365 1.26439349 -3.61251735
v -6.78548460 1.26439349 -5.06754181
v -6.79022150 2.47068983 -5.04747287
v -6.75664038 2.52833157 -5.10475406
v -6.79533514 1.26439349 -5.04747287
v -6.81437614 2.36402090 -4.94127248
v -6.69701901 2.53073854 -5.10684425
v -6.57511365 2.53073854 -5.10684425
v -6.57511365 2.35135234 -2.69643704
v -6.69237645 1.26439349 -0.85800493
v -6.80655257 2.47068983 -4.94127248
v -6.76679715 2.53593263 -5.04747287
v -6.69701901 2.54708096 -5.04747287
v -6.81091209 1.26439349 -4.94127248
v -6.81484755 2.36402090 -4.83465469
v -6.57511365 2.54619414 -5.04747287
v -6.57511365 2.48272491 -2.69643704
v -6.69237645 2.20604447 -0.85675066
v -6.69704251 1.26439349 -0.85758690
v -6.77379609 2.54112672 -4.94127248
v -6.80655257 2.47068983 -2.69643704
v -6.69701901 2.55860929 -3.76889072
v -6.57511365 2.55860929 -3.76889072
v -6.81470619 1.26439349 -3.69613930
v -6.81583737 1.40501405 -3.55565419
v -6.81583737 1.61822520 -3.55565419
v -6.81484755 2.36402090 -2.69643704
v -6.65309243 2.51870346 -2.69643704
v -6.69704251 2.20604447 -0.85633263
v -6.70635114 2.54112672 -2.69643704
v -6.78004091 1.26439349 -0.89981607
v -6.77379609 2.54112672 -2.69643704
v -6.81027583 2.20604447 -0.99807201
v -6.81465918 1.26439349 -3.58952120
v -6.81586087 1.40501405 -3.34241798
v -6.81586087 1.51155627 -3.34241798
v -6.81583737 1.61822520 -3.44903608
v -6.81081775 2.20604447 -1.10469028
v -6.73719850 2.20604447 -0.87723812
v -6.78004091 2.20604447 -0.89981607
v -6.80975741 1.26439349 -0.99807201
v -6.81008714 1.26439349 -1.13855713
v -6.81484755 1.29834512 -3.34241798
f 1 2 3
f 1 3 4
f 1 4 11
f 1 11 17
f 1 17 26
f 1 26 35
f 1 35 47
f 1 47 57
f 1 57 58
f 1 58 50
f 1 50 40
f 1 40 30
f 1 30 21
f 1 21 18
f 1 18 12
f 1 12 5
f 1 5 2
f 2 6 3
f 2 5 7
f 2 7 6
f 3 8 9
f 3 9 4
f 3 6 10
f 3 10 8
f 4 9 11
f 5 12 7
f 6 7 13
f 6 13 10
f 7 12 14
f 7 14 13
f 8 10 15
f 8 15 16
f 8 16 24
f 8 24 32
f 8 32 39
f 8 39 33
f 8 33 25
f 8 25 17
f 8 17 11
f 8 11 9
f 10 13 15
f 12 18 14
f 13 14 19
f 13 19 20
f 13 20 15
f 14 18 21
f 14 21 22
f 14 22 19
f 15 20 23
f 15 23 24
f 15 24 16
f 17 25 26
f 19 22 27
f 19 27 28
f 19 28 20
f 20 28 29
f 20 29 23
f 21 30 22
f 22 30 31
f 22 31 27
f 23 29 24
f 24 29 32
f 25 33 34
f 25 34 26
f 26 34 45
f 26 45 35
f 27 36 28
f 27 31 43
f 27 43 37
f 27 37 48
f 27 48 36
f 28 36 29
f 29 36 38
f 29 38 39
f 29 39 32
f 30 40 41
f 30 41 31
f 31 41 42
f 31 42 53
f 31 53 43
f 33 44 34
f 33 39 44
f 34 44 46
f 34 46 45
f 35 45 47
f 36 48 38
f 37 43 49
f 37 49 48
f 38 48 46
f 38 46 39
f 39 46 44
f 40 50 51
f 40 51 41
f 41 51 52
f 41 52 42
f 42 52 53
f 43 53 52
f 43 52 51
f 43 51 54
f 43 54 49
f 45 46 48
f 45 48 55
f 45 55 47
f 47 56 49
f 47 49 57
f 47 55 56
f 48 49 56
f 48 56 55
f 49 54 57
f 50 58 59
f 50 59 51
f 51 59 58
f 51 58 57
f 51 57 54

