# https://github.com/mikedh/trimesh
v -0.54730271 -0.05854693 -0.00929533
v -0.54730271 0.72296712 -0.00929533
v -0.51495029 -0.05854693 -0.00929533
v -0.54730271 -0.05854693 0.81433334
v -0.36431190 0.72296712 -0.00929533
v -0.54730271 0.72296712 0.43011519
v -0.49339980 -0.05525719 -0.00929533
v -0.51495029 -0.05854693 0.81433334
v -0.54730271 -0.05686382 1.34923324
v -0.36431190 0.72296712 0.06823992
v -0.37362688 0.12591027 -0.00929533
v -0.54730271 0.15919056 1.34923324
v -0.52618233 0.72296712 1.34923324
v -0.43560940 -0.04630593 -0.00929533
v -0.43560940 -0.04630593 0.81433334
v -0.51321239 -0.05594571 1.34923324
v -0.51495029 -0.05609875 1.34923324
v -0.36432969 0.72296712 0.17490067
v -0.37362688 0.12591027 0.17490067
v -0.39157673 0.01933671 -0.00929533
v -0.42348157 0.72296712 1.34923324
v -0.40352540 0.00151067 -0.00929533
v -0.39474758 0.01933671 0.81433334
v -0.44961808 -0.04385775 1.34923324
v -0.39157673 0.01933671 0.17490067
v -0.36490274 0.72296712 0.28142848
v -0.37484509 0.12591027 0.28142848
v -0.42203051 0.65877816 1.34923324
v -0.39161262 0.12591027 0.81433334
v -0.41982693 0.12591027 1.34923324
v -0.41997051 0.12361503 1.34923324
v -0.42851548 0.01933671 1.34923324
v -0.41971956 0.55220456 1.34923324
v -0.41971956 0.44555453 1.34923324
f 1 2 5
f 1 5 11
f 1 11 20
f 1 20 22
f 1 22 14
f 1 14 7
f 1 7 3
f 1 3 8
f 1 8 4
f 1 4 9
f 1 9 12
f 1 12 6
f 1 6 2
f 2 6 13
f 2 13 21
f 2 21 26
f 2 26 18
f 2 18 10
f 2 10 5
f 3 7 8
f 4 8 9
f 5 10 19
f 5 19 11
f 6 12 13
f 7 14 15
f 7 15 8
f 8 15 16
f 8 16 17
f 8 17 9
f 9 17 16
f 9 16 24
f 9 24 32
f 9 32 31
f 9 31 30
f 9 30 34
f 9 34 33
f 9 33 28
f 9 28 21
f 9 21 13
f 9 13 12
f 10 18 19
f 11 19 25
f 11 25 20
f 14 22 15
f 15 23 24
f 15 24 16
f 15 22 25
f 15 25 23
f 18 26 19
f 19 26 27
f 19 27 23
f 19 23 25
f 20 25 22
f 21 28 26
f 23 29 30
f 23 30 31
f 23 31 32
f 23 32 24
f 23 27 29
f 26 28 33
f 26 33 29
f 26 29 27
f 29 33 34
f 29 34 30

