# https://github.com/mikedh/trimesh
v -3.74944716 2.23966554 4.34601080
v -3.74944716 2.12946148 4.41382201
v -3.74944716 2.23966554 4.21374094
v -4.45878822 2.23966554 4.34601080
v -3.74944716 2.03771020 4.41480103
v -4.45878822 2.12946148 4.41382201
v -4.55479658 2.03386584 4.41896107
v -4.56551838 1.83122702 4.42757466
v -3.74944716 2.04437370 4.17769416
v -4.56551838 2.04437370 4.17762078
v -4.54748625 2.23966554 4.21374094
v -4.56551838 2.23966554 4.34593742
v -3.74944716 1.83071444 4.40268750
v -4.56551838 1.36700304 4.42757466
v -6.23884186 2.23966554 4.34030886
v -4.56551838 2.12903431 4.41343003
v -3.74944716 1.97466321 4.19996351
v -4.67200481 1.36700304 4.22644182
v -6.23884186 1.47900115 4.20994779
v -4.56551838 2.23966554 4.21376539
v -6.23884186 1.59279326 4.20502919
v -6.23884186 1.61816580 4.20495581
v -6.23884186 2.04437370 4.20427062
v -6.23884186 2.14799963 4.20980103
v -6.23884186 2.23966554 4.21623708
v -3.74944716 1.72999305 4.33174355
v -4.51921986 1.36700304 4.40956350
v -4.49363385 1.36700304 4.39957954
v -6.23884186 1.36700304 4.33920754
v -3.74944716 1.86625312 4.24543199
v -4.56551838 1.36700304 4.24619056
v -4.63399127 1.36700304 4.23348968
v -6.23884186 1.36700304 4.22208579
v -4.48924772 1.36700304 4.35592170
v -4.48705469 1.36700304 4.33174355
v -4.50557402 1.36700304 4.27222859
v -4.54407478 1.36700304 4.25546519
f 1 2 5
f 1 5 13
f 1 13 26
f 1 26 30
f 1 30 17
f 1 17 9
f 1 9 3
f 1 3 11
f 1 11 20
f 1 20 25
f 1 25 15
f 1 15 12
f 1 12 4
f 1 4 6
f 1 6 2
f 2 6 7
f 2 7 8
f 2 8 5
f 3 9 10
f 3 10 11
f 4 12 6
f 5 8 14
f 5 14 13
f 6 12 15
f 6 15 16
f 6 16 7
f 7 16 15
f 7 15 8
f 8 15 14
f 9 17 18
f 9 18 19
f 9 19 10
f 10 20 11
f 10 19 21
f 10 21 22
f 10 22 23
f 10 23 24
f 10 24 25
f 10 25 20
f 13 14 27
f 13 27 28
f 13 28 26
f 14 15 29
f 14 29 33
f 14 33 18
f 14 18 32
f 14 32 31
f 14 31 37
f 14 37 36
f 14 36 35
f 14 35 34
f 14 34 28
f 14 28 27
f 15 25 24
f 15 24 23
f 15 23 22
f 15 22 21
f 15 21 19
f 15 19 33
f 15 33 29
f 17 30 31
f 17 31 32
f 17 32 18
f 18 33 19
f 26 28 34
f 26 34 35
f 26 35 36
f 26 36 37
f 26 37 31
f 26 31 30

