# https://github.com/mikedh/trimesh
v -6.81163667 0.12592035 -4.94140907
v -6.79530687 0.23250248 -5.04798016
v -6.79521253 0.12592035 -5.04798016
v -6.78426289 0.01933822 -5.04798016
v -6.79964893 0.01933822 -4.94140907
v -6.80002662 0.01933822 -4.83483830
v -6.80002662 0.01933822 -4.83466740
v -6.81135364 0.12592035 -4.83466740
v -6.81088160 1.26439349 -4.94140907
v -6.79530687 1.26439349 -5.04798016
v -6.76444077 0.12592035 -5.11019616
v -6.78549000 1.26439349 -5.06777878
v -6.75981536 0.01933822 -5.10720510
v -6.75349113 -0.03596016 -5.10324551
v -6.76189221 -0.04165829 -5.04798016
v -6.76868848 -0.04632055 -4.94140907
v -6.76868848 -0.04632055 -4.83483830
v -6.76868848 -0.04619094 -4.83466740
v -6.80974883 1.26439349 -4.83466740
v -6.81012653 1.26439349 -4.86876662
v -6.69704474 0.23250248 -5.12569338
v -6.69704474 0.12592035 -5.12557934
v -6.76444077 1.26439349 -5.11019616
v -6.74301353 1.26439349 -5.11512461
v -6.69704474 0.01933822 -5.11825830
v -6.69704474 -0.03855018 -5.10615112
v -6.69704474 -0.05085319 -5.04798016
v -6.69704474 -0.05862340 -4.94140907
v -6.69704474 -0.05862340 -4.83466740
v -6.69770546 1.26426401 -4.83466740
v -6.69770546 1.26439349 -4.83483830
v -5.84732824 0.01933822 -5.11820112
v -6.69704474 1.26439349 -5.12569338
v -6.59038184 0.01933822 -5.12087897
v -6.59038184 -0.04191734 -5.11011071
v -6.59038184 -0.05422020 -5.04798016
v -6.48381329 -0.05603331 -5.04798016
v -5.84732824 -0.05862340 -4.94140907
v -5.84732824 -0.05862340 -4.83466740
v -5.84732824 1.26439349 -4.99174628
v -5.84732824 0.03630333 -4.83466740
v -5.84732824 -0.04373037 -5.11210496
v -5.84732824 1.26439349 -5.10908532
v -6.48381329 -0.04373037 -5.11210496
v -5.84732824 -0.05603331 -5.04798016
f 1 2 3
f 1 3 4
f 1 4 5
f 1 5 6
f 1 6 7
f 1 7 8
f 1 8 9
f 1 9 10
f 1 10 2
f 2 11 3
f 2 10 12
f 2 12 11
f 3 11 13
f 3 13 4
f 4 13 14
f 4 14 15
f 4 15 5
f 5 15 16
f 5 16 6
f 6 16 17
f 6 17 7
f 7 17 18
f 7 18 29
f 7 29 39
f 7 39 41
f 7 41 30
f 7 30 19
f 7 19 8
f 8 19 20
f 8 20 9
f 9 20 19
f 9 19 31
f 9 31 40
f 9 40 43
f 9 43 33
f 9 33 24
f 9 24 23
f 9 23 12
f 9 12 10
f 11 21 22
f 11 22 13
f 11 12 23
f 11 23 24
f 11 24 21
f 13 25 14
f 13 22 25
f 14 26 27
f 14 27 15
f 14 25 26
f 15 27 28
f 15 28 16
f 16 28 29
f 16 29 17
f 17 29 18
f 19 30 31
f 21 32 22
f 21 24 33
f 21 33 32
f 22 32 34
f 22 34 25
f 25 34 35
f 25 35 26
f 26 35 27
f 27 35 36
f 27 36 28
f 28 36 37
f 28 37 45
f 28 45 38
f 28 38 39
f 28 39 29
f 30 40 31
f 30 41 40
f 32 42 34
f 32 33 43
f 32 43 40
f 32 40 41
f 32 41 39
f 32 39 38
f 32 38 45
f 32 45 42
f 34 42 44
f 34 44 35
f 35 44 36
f 36 44 37
f 37 44 42
f 37 42 45

