# https://github.com/mikedh/trimesh
v -4.85494686 2.32745595 0.43708871
v -4.85571496 2.32745595 0.49459830
v -4.93276919 1.36701166 0.49459830
v -4.93276919 1.36701166 0.43708871
v -5.15458850 2.32745595 0.43708871
v -4.86454678 2.32745595 0.60081044
v -4.93558523 1.36701166 0.55897739
v -5.12732511 1.36701166 0.43708871
v -6.16243898 2.32745595 0.45649343
v -4.89795398 2.32745595 0.69489825
v -4.99177606 1.36701166 0.61140812
v -6.16243898 1.36701166 0.47560463
v -6.16243898 2.32745595 0.73696637
v -4.90460985 2.32745595 0.69997695
v -5.02966318 1.36701166 0.62614518
v -6.16243898 1.36701166 0.65268353
v -5.09826965 1.36701166 0.65274229
v -5.20489141 2.32745595 0.73696637
v -4.99177606 2.32745595 0.72663283
v -4.99932772 2.32745595 0.72818871
v -5.09826965 2.32745595 0.73561585
f 1 2 3
f 1 3 4
f 1 4 8
f 1 8 5
f 1 5 9
f 1 9 13
f 1 13 18
f 1 18 21
f 1 21 20
f 1 20 19
f 1 19 14
f 1 14 10
f 1 10 6
f 1 6 2
f 2 6 7
f 2 7 3
f 3 7 11
f 3 11 15
f 3 15 17
f 3 17 16
f 3 16 12
f 3 12 8
f 3 8 4
f 5 8 9
f 6 10 7
f 7 10 11
f 8 12 9
f 9 12 16
f 9 16 13
f 10 14 11
f 11 14 15
f 13 16 17
f 13 17 18
f 14 19 17
f 14 17 15
f 17 19 20
f 17 20 21
f 17 21 18

