# https://github.com/mikedh/trimesh
v -5.84732840 0.03410173 -2.84171799
v -6.36148768 0.03410173 -2.84171799
v -5.84732840 -0.05862340 -2.84171799
v -5.84732840 0.87186566 -3.12151892
v -6.36148768 -0.05862340 -2.84171799
v -5.95096545 0.87186566 -3.12151892
v -6.36148768 0.87186566 -3.12164106
v -5.84732840 -0.05862340 -4.09049278
v -5.84732840 0.94529468 -3.16112361
v -6.36148768 -0.05862340 -4.09012621
v -6.36148768 0.94529468 -3.16112361
v -5.84732840 0.03410173 -4.09049278
v -6.27249763 -0.05862340 -4.09049278
v -5.84732840 1.26439349 -3.63699283
v -6.36148768 0.02153982 -4.09049278
v -6.36148768 1.26439349 -3.63943751
v -5.84732840 1.26439349 -3.83281698
v -6.36148768 0.03410173 -4.09049278
v -6.36148768 1.26439349 -3.83281698
f 1 2 5
f 1 5 3
f 1 3 8
f 1 8 12
f 1 12 17
f 1 17 14
f 1 14 9
f 1 9 4
f 1 4 6
f 1 6 2
f 2 6 7
f 2 7 11
f 2 11 16
f 2 16 19
f 2 19 18
f 2 18 15
f 2 15 10
f 2 10 5
f 3 5 10
f 3 10 13
f 3 13 8
f 4 9 11
f 4 11 6
f 6 11 7
f 8 13 15
f 8 15 18
f 8 18 12
f 9 14 11
f 10 15 13
f 11 14 16
f 12 18 19
f 12 19 17
f 14 17 19
f 14 19 16

