# https://github.com/mikedh/trimesh
v -2.47867263 -0.05291320 -5.63822610
v -2.47867263 0.22806608 -5.63822610
v -2.43349099 -0.05862340 -5.63822610
v -2.47867263 -0.05862340 -4.94142559
v -2.47867263 0.22806608 -5.15460272
v -1.90053713 0.53831826 -4.90329403
v -1.90053713 0.53825259 -4.94142559
v -1.89060193 0.52105646 -5.47433251
v -1.87498941 0.51291785 -5.58088486
v -1.85535550 0.50254769 -5.63822610
v -0.06204753 -0.05862340 -5.63822610
v -2.47867263 -0.05862340 -4.90329403
v -2.47867263 0.21894297 -5.08697321
v -1.95896579 0.50464796 -4.90329403
v -1.92159041 0.52624158 -4.90329403
v -1.79385184 0.57349807 -4.90329403
v -1.79385184 0.57330120 -4.94142559
v -1.79385184 0.56188087 -5.26122718
v -1.79385184 0.54980419 -5.47433251
v -1.79385184 0.52952329 -5.58088486
v -1.79385184 0.50642009 -5.63822610
v -0.06204753 0.05361080 -5.63822610
v -0.06204753 -0.05862340 -4.90329403
v -2.47867263 0.05282325 -4.90329403
v -1.68740289 0.58294940 -4.90329403
v -1.43760308 0.60821847 -5.30374748
v -1.43760308 0.60821847 -5.32015129
v -1.68740289 0.57717360 -5.26122718
v -1.68740289 0.57349807 -5.36770774
v -1.68740289 0.56115892 -5.47433251
v -1.58071760 0.56588454 -5.47433251
v -1.68740289 0.53365823 -5.58088486
v -1.68740289 0.50799527 -5.63822610
v -0.06204753 0.05361080 -4.90329403
v -0.45732761 0.50156311 -5.63822610
v -0.44715592 0.50917672 -5.58088486
v -0.37074922 0.47163402 -5.26122718
v -1.58071760 0.58728121 -4.90329403
v -1.51235383 0.58977530 -4.90329403
v -1.04800032 0.61071259 -5.07956258
v -1.04800032 0.61071259 -5.14496183
v -0.84409163 0.61189400 -5.16323632
v -1.41110921 0.60821847 -5.32015129
v -1.58071760 0.53385510 -5.58088486
v -0.62173199 0.53247679 -5.58088486
v -1.58071760 0.50825782 -5.63822610
v -0.37098588 0.47156842 -5.15460272
v -0.37406080 0.46690839 -4.90329403
v -0.51504654 0.50569814 -5.63822610
v -0.51504654 0.52617590 -5.58088486
v -0.42397362 0.52827617 -5.26122718
v -0.43887650 0.51501812 -5.47433251
v -0.51504654 0.54179685 -5.47433251
v -0.51504654 0.56969135 -5.26122718
v -0.42444693 0.52886693 -5.15460272
v -1.47403215 0.59082547 -4.90329403
v -1.26113456 0.59286014 -4.90329403
v -1.19277079 0.59299137 -4.90329403
v -0.94131503 0.61077823 -5.07963469
v -1.40566838 0.59200688 -4.90329403
v -1.36758336 0.59226942 -4.90329403
v -0.74757804 0.61117200 -5.15460272
v -0.75041678 0.61058132 -5.21769958
v -0.62173199 0.50779841 -5.63822610
v -0.52167001 0.50602628 -5.63822610
v -0.42728551 0.52630717 -4.90329403
v -0.40812444 0.50517305 -4.90329403
v -0.51504654 0.57481071 -5.15460272
v -0.62173199 0.58570603 -5.26122718
v -0.62173199 0.59463223 -5.15460272
v -1.15468577 0.59292574 -4.90329403
v -0.94131503 0.59141615 -4.90329403
v -0.83486608 0.60959678 -5.08366354
v -0.76744860 0.60795592 -5.09121806
v -0.62173199 0.57940514 -4.90329403
v -0.45874691 0.54009031 -4.90329403
v -0.51504654 0.56457183 -4.90329403
v -0.55336806 0.56995381 -4.90329403
v -0.83486608 0.58970970 -4.90329403
v -0.72818079 0.58570603 -4.90329403
f 1 2 10
f 1 10 21
f 1 21 33
f 1 33 46
f 1 46 64
f 1 64 65
f 1 65 49
f 1 49 35
f 1 35 22
f 1 22 11
f 1 11 3
f 1 3 4
f 1 4 12
f 1 12 24
f 1 24 13
f 1 13 5
f 1 5 2
f 2 5 6
f 2 6 7
f 2 7 8
f 2 8 9
f 2 9 10
f 3 11 23
f 3 23 12
f 3 12 4
f 5 13 14
f 5 14 15
f 5 15 6
f 6 16 7
f 6 15 14
f 6 14 24
f 6 24 12
f 6 12 23
f 6 23 34
f 6 34 48
f 6 48 67
f 6 67 66
f 6 66 76
f 6 76 77
f 6 77 78
f 6 78 75
f 6 75 80
f 6 80 79
f 6 79 72
f 6 72 71
f 6 71 58
f 6 58 57
f 6 57 61
f 6 61 60
f 6 60 56
f 6 56 39
f 6 39 38
f 6 38 25
f 6 25 16
f 7 16 17
f 7 17 18
f 7 18 8
f 8 18 19
f 8 19 9
f 9 19 20
f 9 20 10
f 10 20 21
f 11 22 34
f 11 34 23
f 13 24 14
f 16 25 26
f 16 26 27
f 16 27 17
f 17 27 28
f 17 28 29
f 17 29 18
f 18 29 19
f 19 29 27
f 19 27 30
f 19 30 20
f 20 30 31
f 20 31 32
f 20 32 21
f 21 32 33
f 22 35 36
f 22 36 37
f 22 37 34
f 25 38 26
f 26 38 39
f 26 39 40
f 26 40 41
f 26 41 27
f 27 41 42
f 27 42 43
f 27 43 31
f 27 31 30
f 27 29 28
f 31 44 32
f 31 43 45
f 31 45 44
f 32 44 46
f 32 46 33
f 34 37 47
f 34 47 48
f 35 49 50
f 35 50 36
f 36 51 52
f 36 52 37
f 36 50 53
f 36 53 54
f 36 54 51
f 37 52 51
f 37 51 55
f 37 55 47
f 39 56 40
f 40 57 58
f 40 58 59
f 40 59 42
f 40 42 41
f 40 56 60
f 40 60 61
f 40 61 57
f 42 59 62
f 42 62 63
f 42 63 43
f 43 63 45
f 44 45 64
f 44 64 46
f 45 63 50
f 45 50 49
f 45 49 65
f 45 65 64
f 47 55 66
f 47 66 67
f 47 67 48
f 50 63 53
f 51 54 68
f 51 68 55
f 53 63 69
f 53 69 54
f 54 69 63
f 54 63 70
f 54 70 68
f 55 68 66
f 58 71 59
f 59 71 72
f 59 72 73
f 59 73 62
f 62 73 74
f 62 74 75
f 62 75 70
f 62 70 63
f 66 68 76
f 68 70 77
f 68 77 76
f 70 75 78
f 70 78 77
f 72 79 73
f 73 79 74
f 74 79 80
f 74 80 75

