# https://github.com/mikedh/trimesh
v -4.91263402 0.11724387 -2.59412494
v -4.91263402 -0.05862340 -2.59412494
v -4.91263402 0.14991633 -2.61128509
v -4.93010929 0.23238082 -2.63675992
v -4.99168410 0.23238082 -2.59872461
v -4.99168410 0.21879343 -2.59412494
v -5.84732824 -0.05862340 -2.59412494
v -4.91263402 -0.05862340 -4.40142697
v -4.91263402 0.19500830 -2.70310085
v -4.92708996 0.23238082 -2.70310085
v -5.08189633 0.23238082 -2.61181590
v -5.84732824 0.03403875 -2.59412494
v -5.84732824 -0.05862340 -4.40142697
v -4.91263402 0.03403875 -4.40142697
v -4.91263402 0.18424092 -3.66230120
v -4.93230510 0.23238082 -3.66230120
v -5.62536583 0.23238082 -3.14236580
v -5.84732824 0.23238082 -3.59259914
v -5.84732824 0.03027873 -4.40142697
v -5.84714527 0.03403875 -4.40142697
v -5.09827362 0.23238082 -3.83354918
v -5.02077895 0.23238082 -3.82788821
v -4.96752993 0.23238082 -3.78507630
v -4.93532427 0.23238082 -3.73164955
v -4.91263402 0.18045238 -3.69786005
v -5.84732824 0.23238082 -3.83354918
f 1 2 8
f 1 8 14
f 1 14 25
f 1 25 15
f 1 15 9
f 1 9 3
f 1 3 4
f 1 4 5
f 1 5 6
f 1 6 12
f 1 12 7
f 1 7 2
f 2 7 13
f 2 13 8
f 3 9 4
f 4 9 10
f 4 10 16
f 4 16 24
f 4 24 23
f 4 23 22
f 4 22 21
f 4 21 26
f 4 26 18
f 4 18 17
f 4 17 11
f 4 11 5
f 5 11 12
f 5 12 6
f 7 12 18
f 7 18 26
f 7 26 19
f 7 19 13
f 8 13 19
f 8 19 20
f 8 20 14
f 9 15 10
f 10 15 16
f 11 17 12
f 12 17 18
f 14 20 26
f 14 26 21
f 14 21 22
f 14 22 23
f 14 23 24
f 14 24 25
f 15 25 16
f 16 25 24
f 19 26 20

