# https://github.com/mikedh/trimesh
v -3.82662839 0.14743376 -2.59870905
v -3.81180301 1.26350516 -2.57106272
v -3.71945629 1.26350516 -2.57106272
v -3.70691709 0.14743376 -2.59826322
v -3.88807740 0.14743376 -2.48968469
v -3.84145372 1.26350516 -2.51621620
v -3.70483874 1.26350516 -2.54453120
v -3.65087170 0.14743376 -2.52245880
v -3.85579415 1.26350516 -2.48968469
v -3.88502916 0.14743376 -0.32101298
v -3.85357726 1.26350516 -0.46481825
v -3.67463384 1.26350516 -2.48968469
v -3.63833250 0.14743376 -2.48968469
v -3.64408253 0.14743376 -0.32101298
v -3.85101401 1.26350516 -0.32101298
v -3.18033986 0.55227461 -0.92298828
v -3.18033986 1.26350516 -0.45902140
v -3.18033986 0.56855564 -0.92008990
v -3.18033986 0.49097481 -0.88686976
v -3.18033986 0.14743376 -0.54708818
v -3.64207347 0.23255410 -0.32101298
v -3.18033986 0.14743376 -0.32903938
v -3.18033986 0.97787655 -0.32814756
v -3.65835367 1.26350516 -0.32101298
v -3.18033986 1.26350516 -0.34576093
v -3.64207347 0.87188584 -0.32101298
v -3.18033986 0.97853217 -0.32814756
v -3.64789275 1.08506924 -0.32101298
v -3.18033986 1.08506924 -0.32903938
v -3.64262770 0.91865288 -0.32101298
v -3.64338972 0.97853217 -0.32101298
f 1 2 3
f 1 3 4
f 1 4 8
f 1 8 13
f 1 13 20
f 1 20 22
f 1 22 14
f 1 14 10
f 1 10 5
f 1 5 2
f 2 5 6
f 2 6 9
f 2 9 11
f 2 11 15
f 2 15 24
f 2 24 25
f 2 25 17
f 2 17 12
f 2 12 7
f 2 7 3
f 3 7 8
f 3 8 4
f 5 9 6
f 5 10 11
f 5 11 9
f 7 12 8
f 8 12 13
f 10 14 21
f 10 21 26
f 10 26 30
f 10 30 31
f 10 31 28
f 10 28 24
f 10 24 15
f 10 15 11
f 12 16 13
f 12 17 18
f 12 18 16
f 13 16 19
f 13 19 20
f 14 22 23
f 14 23 21
f 16 18 17
f 16 17 25
f 16 25 29
f 16 29 27
f 16 27 23
f 16 23 22
f 16 22 20
f 16 20 19
f 21 23 27
f 21 27 26
f 24 28 27
f 24 27 29
f 24 29 25
f 26 27 30
f 27 28 31
f 27 31 30

