# https://github.com/mikedh/trimesh
v -0.39067553 1.93322405 -0.46467780
v -0.39669895 1.93322405 -0.57890832
v -0.39201414 1.93322405 -0.46077539
v 0.18492736 1.67483872 -0.00948402
v 0.18492736 1.67483872 -0.25154785
v -0.37862775 1.08513507 -0.57890832
v -0.49575618 1.93322405 -0.57890832
v 0.18258464 1.67366863 -0.31025199
v 0.19664001 1.61809143 -0.32552732
v 0.20768368 1.51142214 -0.33751344
v -0.42347140 1.93322405 -0.37525579
v 0.21604981 1.61809143 -0.00948402
v -0.21565220 1.77136756 -0.00948402
v 0.21604981 1.61809143 -0.14495500
v 0.21571532 1.61809143 -0.25154785
v -0.37795845 0.98607111 -0.57890832
v -2.71383393 0.93341899 -0.57890832
v -3.18033972 1.93322405 -0.44616904
v 0.23813683 1.51142214 -0.25154785
v 0.20734887 0.97846580 -0.33701170
v -0.37728915 0.23256093 -0.57890832
v -0.37728915 0.87199154 -0.57890832
v -0.51516598 1.93322405 -0.34381314
v 0.23847164 1.51142214 -0.00948402
v -0.63262922 1.77780282 -0.00948402
v 0.23847164 1.51142214 -0.14495500
v -3.18033972 0.66528326 -0.57890832
v -3.18033972 1.93322405 -0.34844033
v 0.23679822 0.97846580 -0.25154785
v 0.19730931 0.90046266 -0.32625206
v -0.40138439 0.01941732 -0.57890832
v -0.37795845 0.12589168 -0.57890832
v -0.71763108 1.77780282 -0.00948402
v 0.23679822 0.97846580 -0.00948402
v -3.18033972 -0.05858576 -0.57890832
v -3.18033972 1.08513507 -0.32881654
v -1.69080087 1.54028331 -0.00948402
v -1.66971765 1.65533791 -0.00948402
v -1.64963855 1.71930047 -0.00948402
v -1.64696133 1.72300562 -0.00948402
v -1.60512971 1.77253757 -0.00948402
v 0.20734887 0.88798216 -0.25154785
v -0.44020399 -0.04162002 -0.57890832
v 0.20734887 0.88798216 -0.00948402
v -3.18033972 -0.05878080 -0.46534679
v -0.51516598 -0.05858576 -0.57890832
v -0.62158555 -0.05897569 -0.46467780
v -3.18033972 0.97846580 -0.32792456
v -1.69147017 1.51142214 -0.00948402
v -0.43585336 -0.04630022 -0.25154785
v -0.44321602 -0.04630022 -0.57890832
v -0.43585336 -0.04630022 -0.00948402
v -3.18033972 -0.05878080 -0.46467780
v -0.44823563 -0.04727526 -0.57890832
v -0.51516598 -0.05878080 -0.46467780
v -0.51516598 -0.05878080 -0.35808499
v -0.51516598 -0.05858576 -0.00948402
v -0.94151356 -0.05858576 -0.00948402
v -3.18033972 0.97788078 -0.32792456
v -1.69046622 0.97846580 -0.00948402
v -0.49374827 -0.05527053 -0.00948402
v -3.18033972 -0.04669030 -0.38785514
v -1.04559057 -0.04630022 -0.00948402
v -3.17933577 -0.04649526 -0.38735340
v -3.18033972 0.12589168 -0.32892804
v -1.67272952 0.87199154 -0.00948402
v -3.18033972 0.01902739 -0.34637762
v -1.06031525 -0.04142497 -0.00948402
v -3.17933577 0.01941732 -0.34609888
v -1.09913501 -0.02835958 -0.00948402
v -1.61650787 0.73061087 -0.00948402
v -1.64461877 0.78404301 -0.00948402
v -1.65231576 0.80783398 -0.00948402
f 1 2 7
f 1 7 18
f 1 18 28
f 1 28 23
f 1 23 11
f 1 11 3
f 1 3 4
f 1 4 5
f 1 5 2
f 2 6 16
f 2 16 22
f 2 22 21
f 2 21 32
f 2 32 31
f 2 31 43
f 2 43 51
f 2 51 54
f 2 54 46
f 2 46 35
f 2 35 27
f 2 27 17
f 2 17 7
f 2 5 8
f 2 8 9
f 2 9 10
f 2 10 6
f 3 11 4
f 4 12 14
f 4 14 5
f 4 11 13
f 4 13 25
f 4 25 33
f 4 33 41
f 4 41 40
f 4 40 39
f 4 39 38
f 4 38 37
f 4 37 49
f 4 49 60
f 4 60 66
f 4 66 73
f 4 73 72
f 4 72 71
f 4 71 70
f 4 70 68
f 4 68 63
f 4 63 58
f 4 58 57
f 4 57 61
f 4 61 52
f 4 52 44
f 4 44 34
f 4 34 24
f 4 24 12
f 5 14 15
f 5 15 8
f 6 10 16
f 7 17 18
f 8 15 9
f 9 15 19
f 9 19 10
f 10 19 20
f 10 20 21
f 10 21 22
f 10 22 16
f 11 23 13
f 12 24 26
f 12 26 14
f 13 23 25
f 14 26 19
f 14 19 15
f 17 27 18
f 18 27 35
f 18 35 45
f 18 45 53
f 18 53 62
f 18 62 67
f 18 67 65
f 18 65 59
f 18 59 48
f 18 48 36
f 18 36 28
f 19 26 29
f 19 29 20
f 20 29 30
f 20 30 31
f 20 31 32
f 20 32 21
f 23 33 25
f 23 28 33
f 24 34 29
f 24 29 26
f 28 36 37
f 28 37 38
f 28 38 39
f 28 39 40
f 28 40 41
f 28 41 33
f 29 34 44
f 29 44 42
f 29 42 30
f 30 42 31
f 31 42 43
f 35 46 47
f 35 47 45
f 36 48 37
f 37 48 49
f 42 44 52
f 42 52 50
f 42 50 51
f 42 51 43
f 45 47 53
f 46 54 50
f 46 50 55
f 46 55 47
f 47 55 56
f 47 56 57
f 47 57 58
f 47 58 53
f 48 59 49
f 49 59 60
f 50 52 56
f 50 56 55
f 50 54 51
f 52 61 56
f 53 58 62
f 56 61 57
f 58 63 64
f 58 64 62
f 59 65 60
f 60 65 66
f 62 64 67
f 63 68 67
f 63 67 64
f 65 67 69
f 65 69 70
f 65 70 71
f 65 71 72
f 65 72 73
f 65 73 66
f 67 68 70
f 67 70 69

