# https://github.com/mikedh/trimesh
v -5.11031965 -0.05862340 4.22518294
v -5.11031965 -0.05694888 4.18565020
v -3.82295484 -0.05862340 4.22518294
v -5.11031965 -0.04620444 4.29677427
v -3.82295484 -0.05694888 4.18565020
v -5.11031965 0.12947660 4.18565020
v -3.82295484 -0.04620444 4.29677427
v -5.11031965 0.01184429 4.32441552
v -3.82295484 0.12947660 4.18565020
v -5.11031965 1.36691767 4.22644499
v -3.82295484 0.01937944 4.32798313
v -5.11031965 0.01937944 4.32798313
v -4.67182915 1.36691767 4.22644499
v -4.63376541 1.36691767 4.23348269
v -4.56520000 1.36691767 4.24619914
v -3.82295484 0.44567429 4.24229195
v -5.11031965 1.36691767 4.33781176
v -3.82295484 0.36208982 4.41241225
v -4.56520000 0.44567429 4.43354979
v -5.11031965 0.11370858 4.33805445
v -4.54389935 1.36691767 4.25546964
v -4.50545736 1.36691767 4.27221462
v -3.82295484 0.51725831 4.26830743
v -4.56520000 1.36691767 4.42757974
v -5.11031965 0.12598809 4.33936478
v -3.82295484 0.44288351 4.42651178
v -3.82295484 0.44567429 4.42699716
v -4.48692962 1.36691767 4.33174482
v -3.82295484 0.55284107 4.33174482
v -3.82295484 0.53204962 4.40056936
v -4.51894357 1.36691767 4.40954826
v -4.48919832 1.36691767 4.35591567
v -3.82295484 0.55256193 4.33405006
v -4.49335765 1.36691767 4.39957446
v -3.82295484 0.53456133 4.39962274
f 1 2 5
f 1 5 3
f 1 3 7
f 1 7 4
f 1 4 8
f 1 8 12
f 1 12 20
f 1 20 25
f 1 25 17
f 1 17 10
f 1 10 6
f 1 6 2
f 2 6 9
f 2 9 5
f 3 5 9
f 3 9 16
f 3 16 23
f 3 23 29
f 3 29 33
f 3 33 35
f 3 35 30
f 3 30 27
f 3 27 26
f 3 26 18
f 3 18 11
f 3 11 7
f 4 7 8
f 6 10 13
f 6 13 9
f 7 11 8
f 8 11 12
f 9 13 14
f 9 14 15
f 9 15 16
f 10 17 24
f 10 24 31
f 10 31 34
f 10 34 32
f 10 32 28
f 10 28 22
f 10 22 21
f 10 21 15
f 10 15 14
f 10 14 13
f 11 18 19
f 11 19 12
f 12 19 20
f 15 21 16
f 16 21 22
f 16 22 23
f 17 25 19
f 17 19 24
f 18 26 19
f 19 25 20
f 19 26 27
f 19 27 24
f 22 28 29
f 22 29 23
f 24 27 30
f 24 30 31
f 28 32 29
f 29 32 34
f 29 34 33
f 30 35 34
f 30 34 31
f 33 34 35

