# https://github.com/mikedh/trimesh
v -4.89647004 0.06444600 1.95075600
v -4.99424648 0.15826062 1.45886560
v -5.31141946 0.12495102 1.95075600
v -4.89647004 -0.04964316 1.95075600
v -4.89647004 0.09730977 1.45753128
v -5.09827235 0.15826062 1.51001157
v -4.91041058 0.15826062 0.58538184
v -5.39775516 0.12524819 1.95075600
v -5.87856203 -0.05110804 1.95075600
v -4.89647004 -0.05862340 0.81442673
v -4.89647004 0.14407906 0.49465342
v -4.90223854 0.15826062 0.49465342
v -5.63109207 0.15826062 1.51423656
v -5.41794496 0.12531188 1.95075600
v -5.87856203 0.06529518 1.95075600
v -5.87856203 -0.05862340 0.81442673
v -4.89647004 -0.05862340 -0.32079074
v -4.89647004 0.15826062 0.06458273
v -5.65147422 0.15826062 1.50578641
v -5.63109207 0.12531188 1.95075600
v -5.84298936 0.09047371 1.95075600
v -5.87856203 0.15826062 0.67232998
v -5.87856203 -0.05862340 -0.32079074
v -4.89647004 0.15826062 -0.32079074
v -5.71175537 0.15826062 1.46687103
v -5.73771383 0.11913400 1.95075600
v -5.72944554 0.15826062 1.45419572
v -5.87856203 0.15826062 -0.02014157
v -5.87856203 0.03402359 -0.32079074
v -4.92800450 0.15826062 -0.32079074
f 1 2 3
f 1 3 8
f 1 8 14
f 1 14 20
f 1 20 26
f 1 26 21
f 1 21 15
f 1 15 9
f 1 9 4
f 1 4 10
f 1 10 17
f 1 17 24
f 1 24 18
f 1 18 11
f 1 11 5
f 1 5 2
f 2 6 3
f 2 5 7
f 2 7 12
f 2 12 18
f 2 18 24
f 2 24 30
f 2 30 28
f 2 28 22
f 2 22 27
f 2 27 25
f 2 25 19
f 2 19 13
f 2 13 6
f 3 6 8
f 4 9 10
f 5 11 12
f 5 12 7
f 6 13 14
f 6 14 8
f 9 15 22
f 9 22 28
f 9 28 29
f 9 29 23
f 9 23 16
f 9 16 10
f 10 16 23
f 10 23 17
f 11 18 12
f 13 19 20
f 13 20 14
f 15 21 22
f 17 23 29
f 17 29 30
f 17 30 24
f 19 25 20
f 20 25 27
f 20 27 26
f 21 26 27
f 21 27 22
f 28 30 29

