# https://github.com/mikedh/trimesh
v -3.48985605 0.67807118 3.66936659
v -4.56517245 0.65576844 3.66936659
v -3.48985605 -0.05822157 3.66936659
v -3.48985605 0.71202769 3.62108081
v -3.71259787 0.85860308 3.45805221
v -3.82650720 0.85669428 3.48211124
v -3.86696242 0.82223552 3.53493983
v -3.92582086 0.82404382 3.53611739
v -4.56517245 0.82404382 3.53611739
v -4.66686592 0.64170365 3.66936659
v -4.63672280 0.82223552 3.53493983
v -3.49953355 -0.05862340 3.66936659
v -3.48985605 -0.05862340 3.15925125
v -3.48985605 0.72006473 3.58558136
v -3.62343768 0.85528782 3.37241630
v -3.63644681 0.84192625 3.44577063
v -3.71259787 0.90200306 3.37241630
v -3.92582086 0.86895076 3.47891465
v -4.35210809 0.87045769 3.47891465
v -4.45856093 0.86995539 3.47891465
v -4.56517245 0.86895076 3.47891465
v -4.67194255 0.64029715 3.66936659
v -4.67210122 0.85116884 3.48631733
v -4.73603638 0.62271614 3.65573878
v -4.68098546 0.63658000 3.66936659
v -5.11044576 -0.04958177 3.66936659
v -3.49953355 -0.05862340 1.95075600
v -3.48985605 -0.05862340 1.95075600
v -3.48985605 0.74236747 3.47891465
v -3.62169255 0.85689520 3.26574960
v -3.71259787 0.90551925 3.26574960
v -4.35210809 0.94610629 3.35693783
v -3.81000777 0.95364100 2.40736964
v -3.83761253 0.93977714 2.92757981
v -4.35210809 0.95896553 3.26574960
v -4.35210809 0.91827806 3.41010282
v -4.42651402 0.94088223 3.34532905
v -4.67178388 0.88813916 3.37241630
v -4.73730558 0.83931419 3.45569710
v -5.11044576 0.04686273 3.66936659
v -5.11044576 -0.04958177 1.95075600
v -3.48985605 0.59318002 1.95075600
v -3.51285998 0.64331104 1.95075600
v -3.62169255 0.85689520 1.95075600
v -3.71259787 0.90762897 2.94608651
v -3.71735733 0.91255166 2.40736964
v -3.75606746 0.93073546 2.48711745
v -3.75606746 0.93073546 2.43899971
v -3.71259787 0.90551925 1.95075600
v -3.92582086 0.96770582 2.41325836
v -4.45856093 0.87909753 1.95075600
v -4.56168219 0.85850263 1.95075600
v -4.74206504 0.84704986 3.37241630
v -4.65560180 0.83388920 1.95075600
v -5.11044576 0.11919595 3.15925125
v -5.11044576 0.06183168 1.95075600
v -4.07288759 0.92289934 1.95075600
v -4.09842992 0.92109100 1.95075600
v -5.11044576 0.11949740 3.05258486
v -4.67067335 0.82334061 1.95075600
v -4.72540694 0.76416792 1.95075600
v -5.11044576 0.11477559 2.09342692
v -5.11044576 0.11578026 2.10722276
v -5.11044576 0.11929649 2.20009331
v -5.11044576 0.11939687 2.21473063
v -5.11044576 0.11949740 2.30659166
v -5.11044576 0.08413439 1.99719143
v -5.11044576 0.10191636 2.05271186
f 1 2 10
f 1 10 22
f 1 22 25
f 1 25 40
f 1 40 26
f 1 26 12
f 1 12 3
f 1 3 13
f 1 13 28
f 1 28 42
f 1 42 29
f 1 29 14
f 1 14 4
f 1 4 5
f 1 5 6
f 1 6 7
f 1 7 8
f 1 8 9
f 1 9 2
f 2 9 11
f 2 11 10
f 3 12 13
f 4 14 15
f 4 15 16
f 4 16 17
f 4 17 5
f 5 17 18
f 5 18 6
f 6 18 7
f 7 18 8
f 8 18 19
f 8 19 9
f 9 19 20
f 9 20 21
f 9 21 11
f 10 11 22
f 11 21 23
f 11 23 24
f 11 24 25
f 11 25 22
f 12 26 41
f 12 41 27
f 12 27 28
f 12 28 13
f 14 29 15
f 15 17 16
f 15 29 30
f 15 30 31
f 15 31 17
f 17 32 18
f 17 31 33
f 17 33 34
f 17 34 35
f 17 35 32
f 18 32 36
f 18 36 19
f 19 36 20
f 20 36 21
f 21 36 32
f 21 32 37
f 21 37 23
f 23 37 38
f 23 38 39
f 23 39 24
f 24 40 25
f 24 39 40
f 26 40 55
f 26 55 59
f 26 59 66
f 26 66 65
f 26 65 64
f 26 64 63
f 26 63 62
f 26 62 68
f 26 68 67
f 26 67 56
f 26 56 41
f 27 41 56
f 27 56 61
f 27 61 60
f 27 60 54
f 27 54 52
f 27 52 51
f 27 51 58
f 27 58 57
f 27 57 49
f 27 49 44
f 27 44 43
f 27 43 42
f 27 42 28
f 29 42 43
f 29 43 44
f 29 44 30
f 30 45 31
f 30 44 46
f 30 46 45
f 31 45 47
f 31 47 33
f 32 35 37
f 33 47 48
f 33 48 49
f 33 49 50
f 33 50 34
f 34 50 35
f 35 38 37
f 35 50 51
f 35 51 52
f 35 52 38
f 38 53 39
f 38 52 54
f 38 54 53
f 39 53 40
f 40 53 55
f 44 49 46
f 45 46 47
f 46 49 48
f 46 48 47
f 49 57 50
f 50 57 58
f 50 58 51
f 53 59 55
f 53 54 60
f 53 60 61
f 53 61 62
f 53 62 63
f 53 63 64
f 53 64 65
f 53 65 66
f 53 66 59
f 56 67 61
f 61 67 68
f 61 68 62

