# https://github.com/mikedh/trimesh
v -3.07305676 0.15078917 -4.90329403
v -3.18027119 0.15078917 -4.90329403
v -2.96646045 0.13600573 -4.90329403
v -3.07305676 0.97854325 -4.90494871
v -3.18033988 0.15201104 -4.90458912
v -3.18033988 0.00845211 -4.90329403
v -3.17965303 1.08508226 -4.91415791
v -3.18033988 1.08508226 -4.91422970
v -3.18033988 0.97854325 -4.91307883
v -2.47867255 0.05280268 -4.90329403
v -3.07305676 1.08508226 -4.90674760
v -3.18033988 -0.05862340 -4.90329403
v -3.17965303 1.18954419 -4.92156853
v -3.18033988 1.18954419 -4.92164032
v -2.47867255 -0.05862340 -4.90329403
v -2.47867255 0.21896441 -5.08697321
v -2.48128250 1.18954419 -5.15460272
v -2.48409853 1.18954419 -5.09186544
v -2.54014396 1.18954419 -5.04265401
v -2.64674031 1.18954419 -5.01401945
v -2.96646045 1.18954419 -4.93617345
v -2.96865832 1.18954419 -4.93566996
v -3.07305676 1.18954419 -4.92142463
v -3.18033988 -0.05862340 -4.94142559
v -3.18033988 1.18954419 -5.11906134
v -2.47867255 -0.05862340 -4.94142559
v -2.47867255 0.22800557 -5.15460272
v -2.48128250 1.18954419 -5.63822610
v -2.47867255 0.22812771 -5.26122718
v -3.18033988 -0.04933789 -5.04840995
v -2.47867255 -0.05288104 -5.63822610
v -2.59852473 1.18954419 -5.63822610
v -3.18033988 0.12586500 -5.11906134
v -2.47867255 0.22812771 -5.63822610
v -3.18033988 -0.03712009 -5.10424009
v -2.53142126 -0.04628346 -5.63822610
v -2.59852473 0.12586500 -5.63822610
v -2.59598343 0.04522767 -5.63822610
v -3.18033988 0.01932599 -5.11316149
v -2.58471939 -0.00804184 -5.63822610
f 1 2 6
f 1 6 12
f 1 12 15
f 1 15 10
f 1 10 3
f 1 3 4
f 1 4 2
f 2 5 6
f 2 4 7
f 2 7 8
f 2 8 9
f 2 9 5
f 3 10 4
f 4 11 7
f 4 10 11
f 5 9 8
f 5 8 14
f 5 14 25
f 5 25 33
f 5 33 39
f 5 39 35
f 5 35 30
f 5 30 24
f 5 24 12
f 5 12 6
f 7 11 13
f 7 13 14
f 7 14 8
f 10 15 26
f 10 26 31
f 10 31 34
f 10 34 29
f 10 29 27
f 10 27 16
f 10 16 17
f 10 17 18
f 10 18 19
f 10 19 20
f 10 20 21
f 10 21 22
f 10 22 11
f 11 22 23
f 11 23 13
f 12 24 26
f 12 26 15
f 13 23 22
f 13 22 21
f 13 21 20
f 13 20 19
f 13 19 18
f 13 18 17
f 13 17 28
f 13 28 32
f 13 32 25
f 13 25 14
f 16 27 17
f 17 27 29
f 17 29 34
f 17 34 28
f 24 30 31
f 24 31 26
f 25 32 37
f 25 37 33
f 28 34 31
f 28 31 36
f 28 36 40
f 28 40 38
f 28 38 37
f 28 37 32
f 30 35 36
f 30 36 31
f 33 37 38
f 33 38 39
f 35 39 38
f 35 38 40
f 35 40 36

