# https://github.com/mikedh/trimesh
v -2.48127376 1.18954419 -5.63822673
v -2.45276785 1.18954419 -6.07606556
v -2.59850741 1.18954419 -5.63822673
v -2.45276785 0.17218782 -5.63822673
v -2.45276785 1.18954419 -6.30416685
v -2.59850741 1.18954419 -6.11384198
v -2.59850741 0.12597205 -5.63822673
v -2.45276785 -0.05620826 -5.63822673
v -2.53791456 1.18954419 -6.29406663
v -2.45276785 0.12597205 -6.30816743
v -2.59670975 1.18954419 -6.22041593
v -2.59850741 0.12597205 -6.11384198
v -2.59713780 0.08256095 -5.63822673
v -2.53140871 -0.04620905 -5.63822673
v -2.45276785 -0.05620826 -6.11384198
v -2.54012601 1.18954419 -6.29380424
v -2.45276785 0.03854011 -6.30652768
v -2.54012601 0.12597205 -6.29465684
v -2.59417020 1.18954419 -6.27471941
v -2.59670975 0.12597205 -6.22041593
v -2.59505476 0.05439247 -6.22041593
v -2.59595361 0.04524697 -6.11384198
v -2.59595361 0.04524697 -5.63822673
v -2.55604826 -0.02864952 -5.63822673
v -2.53140871 -0.04620905 -6.11384198
v -2.52942558 -0.04596517 -6.22041593
v -2.45276785 -0.05608628 -6.13522220
v -2.59305737 1.18954419 -6.27511330
v -2.45276785 0.02049282 -6.30560965
v -2.54570447 0.02634605 -6.28823000
v -2.59391338 0.06658669 -6.27445702
v -2.59417020 0.12597205 -6.27471941
v -2.58271362 0.00110415 -6.22041593
v -2.58469676 -0.00804144 -6.11384198
v -2.58469676 -0.00804144 -5.63822673
v -2.51391716 -0.04181919 -6.28331140
v -2.45276785 -0.05559852 -6.22041593
v -2.45276785 -0.04474576 -6.28691807
v -2.45276785 -0.05413523 -6.23543476
f 1 2 5
f 1 5 9
f 1 9 16
f 1 16 28
f 1 28 19
f 1 19 11
f 1 11 6
f 1 6 3
f 1 3 7
f 1 7 13
f 1 13 23
f 1 23 35
f 1 35 24
f 1 24 14
f 1 14 8
f 1 8 4
f 1 4 2
f 2 4 8
f 2 8 15
f 2 15 27
f 2 27 37
f 2 37 39
f 2 39 38
f 2 38 29
f 2 29 17
f 2 17 10
f 2 10 5
f 3 6 12
f 3 12 7
f 5 10 9
f 6 11 20
f 6 20 12
f 7 12 13
f 8 14 25
f 8 25 15
f 9 10 16
f 10 17 18
f 10 18 16
f 11 19 32
f 11 32 20
f 12 20 21
f 12 21 22
f 12 22 13
f 13 22 23
f 14 24 25
f 15 25 26
f 15 26 27
f 16 18 28
f 17 29 18
f 18 29 30
f 18 30 31
f 18 31 32
f 18 32 19
f 18 19 28
f 20 32 31
f 20 31 21
f 21 31 33
f 21 33 34
f 21 34 22
f 22 34 35
f 22 35 23
f 24 35 34
f 24 34 25
f 25 34 26
f 26 34 33
f 26 33 36
f 26 36 37
f 26 37 27
f 29 38 36
f 29 36 30
f 30 36 31
f 31 36 33
f 36 38 39
f 36 39 37

