# https://github.com/mikedh/trimesh
v -5.87052928 2.45861815 -0.32101298
v -6.29439818 2.54133478 -0.32101298
v -5.87052928 2.35630080 -0.32101298
v -5.87052928 2.55858896 -0.89127042
v -6.35467361 2.54133478 -0.32101298
v -6.28090093 2.20608577 -0.32101298
v -5.87052928 2.20608577 -0.78131048
v -6.27073178 2.55858896 -0.89127042
v -5.87052928 2.45861815 -2.69596199
v -6.70634129 2.54133478 -2.69596199
v -6.39682925 2.47076512 -0.32101298
v -6.77373510 2.54133478 -0.99774328
v -6.76596965 2.53557185 -0.91916726
v -6.39165207 2.20608577 -0.32101298
v -5.87052928 2.20608577 -0.97821551
v -6.68877644 2.54478557 -1.00611235
v -6.77373510 2.54133478 -2.69596199
v -5.87052928 2.35630080 -2.69596199
v -6.40551939 2.36423770 -0.32101298
v -6.77844976 2.47076512 -0.90219671
v -6.80655384 2.47076512 -0.99774328
v -6.78002153 2.20608577 -0.89963949
v -6.69339867 2.20608577 -2.69596199
v -6.80655384 2.47076512 -2.69596199
v -6.78150054 2.36423770 -0.89870959
v -6.81376465 2.36423770 -0.99774328
v -6.81478147 2.36423770 -1.10444862
v -6.81431928 2.37131192 -2.69596199
v -6.81025168 2.20608577 -0.99774328
v -6.81080631 2.20608577 -2.69596199
v -6.81080631 2.20608577 -1.10444862
v -6.81478147 2.36423770 -2.69596199
f 1 2 5
f 1 5 11
f 1 11 19
f 1 19 14
f 1 14 6
f 1 6 3
f 1 3 7
f 1 7 15
f 1 15 18
f 1 18 9
f 1 9 4
f 1 4 2
f 2 4 8
f 2 8 5
f 3 6 7
f 4 9 10
f 4 10 17
f 4 17 8
f 5 8 12
f 5 12 13
f 5 13 11
f 6 14 22
f 6 22 29
f 6 29 31
f 6 31 30
f 6 30 23
f 6 23 15
f 6 15 7
f 8 16 12
f 8 17 16
f 9 18 23
f 9 23 30
f 9 30 32
f 9 32 28
f 9 28 24
f 9 24 17
f 9 17 10
f 11 13 20
f 11 20 19
f 12 21 13
f 12 16 17
f 12 17 24
f 12 24 21
f 13 21 20
f 14 19 22
f 15 23 18
f 19 20 25
f 19 25 22
f 20 21 26
f 20 26 25
f 21 27 26
f 21 24 28
f 21 28 27
f 22 25 26
f 22 26 29
f 26 27 29
f 27 31 29
f 27 28 32
f 27 32 30
f 27 30 31

