# https://github.com/mikedh/trimesh
v -6.69673788 -0.05797364 -4.83466740
v -6.69673788 -0.05862340 -4.83430305
v -6.69673788 0.23000189 -4.83466740
v -6.59039518 -0.05862340 -4.83466740
v -6.69673788 -0.05862340 -4.09049278
v -6.69673788 0.22714837 -4.09049278
v -5.84741115 0.03401580 -4.09049278
v -5.84741115 0.03624774 -4.83466740
v -5.84741115 -0.05862340 -4.83466740
v -5.84741115 -0.05862340 -4.09049278
f 1 2 5
f 1 5 6
f 1 6 3
f 1 3 8
f 1 8 9
f 1 9 4
f 1 4 2
f 2 4 9
f 2 9 10
f 2 10 5
f 3 6 7
f 3 7 8
f 5 10 7
f 5 7 6
f 7 10 9
f 7 9 8

