# https://github.com/mikedh/trimesh
v -5.84732824 -0.05862340 -4.94133792
v -5.84732824 -0.05862340 -4.40149813
v -5.84732824 -0.05603331 -5.04798461
v -4.91263402 -0.05862340 -4.94133792
v -4.91263402 -0.05862340 -4.40149813
v -5.84732824 0.03034615 -4.40149813
v -5.84732824 -0.04373037 -5.11207193
v -5.73771939 -0.05603331 -5.04798461
v -4.91263402 -0.04929906 -5.04798461
v -4.91263402 0.03410173 -4.40149813
v -5.84714527 0.03410173 -4.40149813
v -5.84732824 1.26439349 -4.99171261
v -5.84732824 -0.04191734 -5.11228508
v -5.73771939 0.01933822 -5.12358192
v -5.73771939 -0.04373037 -5.11207193
v -4.91263402 -0.04619094 -5.06247867
v -4.91263402 1.26439349 -5.02503516
v -5.66086512 1.26439349 -4.99320465
v -5.68529390 1.26439349 -4.99270751
v -5.73771939 1.26439349 -4.99171261
v -5.84732824 1.26439349 -5.10908786
v -5.84732824 0.01933822 -5.11818206
v -5.63112987 0.23250248 -5.12720543
v -5.63112987 0.12592035 -5.12713459
v -4.91263402 0.12592035 -5.11896382
v -4.91263402 0.01933822 -5.11306651
v -4.91263402 -0.03699620 -5.10418514
v -5.73771939 1.26439349 -5.12223219
v -5.70377551 1.26439349 -5.12386622
v -5.63112987 1.26439349 -5.12720543
v -4.91263402 1.26439349 -5.11896382
f 1 2 6
f 1 6 12
f 1 12 21
f 1 21 22
f 1 22 13
f 1 13 7
f 1 7 3
f 1 3 8
f 1 8 4
f 1 4 5
f 1 5 2
f 2 5 10
f 2 10 11
f 2 11 6
f 3 7 15
f 3 15 8
f 4 8 9
f 4 9 16
f 4 16 27
f 4 27 26
f 4 26 25
f 4 25 31
f 4 31 17
f 4 17 10
f 4 10 5
f 6 11 12
f 7 13 14
f 7 14 15
f 8 15 9
f 9 15 16
f 10 17 18
f 10 18 19
f 10 19 20
f 10 20 12
f 10 12 11
f 12 20 19
f 12 19 18
f 12 18 17
f 12 17 31
f 12 31 30
f 12 30 29
f 12 29 28
f 12 28 21
f 13 22 14
f 14 23 24
f 14 24 25
f 14 25 26
f 14 26 27
f 14 27 15
f 14 22 28
f 14 28 29
f 14 29 30
f 14 30 23
f 15 27 16
f 21 28 22
f 23 25 24
f 23 30 31
f 23 31 25

