# https://github.com/mikedh/trimesh
v -6.69703266 -0.05862340 1.95075600
v -6.72130325 -0.05443716 1.95075600
v -6.28063442 -0.05862340 1.95075600
v -6.69703266 -0.05862340 3.48730969
v -6.76872946 -0.04620444 1.95075600
v -6.76872946 -0.04620444 3.48730969
v -6.28063442 0.18292034 1.95075600
v -6.28063442 -0.05862340 3.48730969
v -6.79821883 0.01937944 1.95075600
v -6.77106011 -0.04104140 3.48730969
v -6.29862175 0.55228286 1.95075600
v -6.29857124 0.55228286 1.98685710
v -6.28063442 0.18305995 1.98685710
v -6.28063442 0.18292034 3.48730969
v -6.77526589 0.65875195 1.95075600
v -6.79821883 0.01937944 3.48730969
v -6.30287804 0.58256305 1.95075600
v -6.31128896 0.64214666 1.98685710
v -6.29857124 0.55228286 3.37238771
v -6.28063442 0.18305995 3.42187646
v -6.29862175 0.55228286 3.48730969
v -6.70488642 1.36691767 1.95075600
v -6.77526589 0.65875195 3.48730969
v -6.70777456 1.36691767 3.48730969
v -6.31133979 0.64200713 1.95075600
v -6.60218026 1.36691767 1.95075600
v -6.31128896 0.64214666 3.37238771
v -6.31133979 0.64214666 3.48730969
v -6.60263610 1.36691767 3.48730969
v -6.60218026 1.36691767 3.15924076
f 1 2 5
f 1 5 9
f 1 9 15
f 1 15 22
f 1 22 26
f 1 26 25
f 1 25 17
f 1 17 11
f 1 11 7
f 1 7 3
f 1 3 8
f 1 8 4
f 1 4 2
f 2 4 6
f 2 6 5
f 3 7 13
f 3 13 20
f 3 20 14
f 3 14 8
f 4 8 14
f 4 14 21
f 4 21 28
f 4 28 29
f 4 29 24
f 4 24 23
f 4 23 16
f 4 16 10
f 4 10 6
f 5 6 10
f 5 10 9
f 7 11 12
f 7 12 13
f 9 10 16
f 9 16 23
f 9 23 15
f 11 17 12
f 12 17 18
f 12 18 27
f 12 27 19
f 12 19 20
f 12 20 13
f 14 20 19
f 14 19 21
f 15 23 24
f 15 24 22
f 17 25 18
f 18 25 26
f 18 26 30
f 18 30 27
f 19 27 28
f 19 28 21
f 22 24 29
f 22 29 30
f 22 30 26
f 27 30 28
f 28 30 29

