# https://github.com/mikedh/trimesh
v 0.08606803 2.51174788 -4.33436130
v 0.08606803 2.34753680 -4.33436130
v 0.08606803 2.51174788 -5.66103388
v -0.02031342 2.55700870 -3.76889898
v -0.02031342 2.48603489 -2.84447414
v 0.08606803 2.34753680 -5.38616012
v -0.02031342 2.37828966 -2.84447414
v -0.02031342 2.30868591 -3.55798786
v 0.08606803 2.34756126 -5.66103388
v -0.40840175 2.55859897 -5.66103388
v -0.40852532 2.55862343 -4.30155304
v -0.51503034 2.55862343 -4.19540825
v -1.17617670 2.55700870 -3.76889898
v -1.17617670 2.49887920 -2.84447414
v -1.13898636 2.49883020 -2.84447414
v -1.02877476 2.49809625 -2.84447414
v -0.40852532 2.55862343 -4.33436130
v -0.02031342 2.30868591 -3.86677262
v -1.17617670 2.38142128 -2.84447414
v -1.17617670 2.30868591 -3.56019351
v -0.30189673 2.38139682 -5.66103388
v -0.40852532 2.30868591 -3.89351585
v -0.94117383 2.30868591 -3.89351585
v -1.17617670 2.30868591 -3.89186149
v -1.17605313 2.55859897 -5.66103388
v -1.17617670 2.55862343 -4.19540825
v -1.17617670 2.55862343 -4.33436130
v -1.17605313 2.46098239 -5.66103388
v -1.17617670 2.39947667 -4.17445495
v -1.17617670 2.46073779 -4.33436130
f 1 2 6
f 1 6 9
f 1 9 3
f 1 3 4
f 1 4 5
f 1 5 7
f 1 7 2
f 2 7 8
f 2 8 18
f 2 18 6
f 3 9 21
f 3 21 28
f 3 28 25
f 3 25 10
f 3 10 4
f 4 11 12
f 4 12 26
f 4 26 13
f 4 13 14
f 4 14 15
f 4 15 16
f 4 16 5
f 4 10 17
f 4 17 11
f 5 16 15
f 5 15 14
f 5 14 19
f 5 19 7
f 6 18 9
f 7 19 20
f 7 20 8
f 8 20 24
f 8 24 23
f 8 23 22
f 8 22 18
f 9 18 22
f 9 22 23
f 9 23 24
f 9 24 21
f 10 25 27
f 10 27 17
f 11 17 27
f 11 27 26
f 11 26 12
f 13 26 27
f 13 27 30
f 13 30 29
f 13 29 24
f 13 24 20
f 13 20 19
f 13 19 14
f 21 24 28
f 24 29 28
f 25 28 30
f 25 30 27
f 28 29 30

