# https://github.com/mikedh/trimesh
v -4.91263402 0.23164147 -2.17717873
v -5.07617946 0.23164147 -1.93554223
v -4.91263402 1.26439349 -2.17660886
v -4.91263402 0.23164147 -1.85005769
v -5.11000914 0.23164147 -1.85119745
v -5.11005187 1.26439349 -1.85034263
v -5.07594423 1.26439349 -1.93525729
v -4.91263402 1.26439349 -1.85219473
v -4.92694003 0.23164147 -0.89106295
v -5.11024437 0.23164147 -1.85034263
v -5.13109379 0.44565245 -1.71171510
v -5.13109379 0.55230407 -1.70701345
v -5.13109379 0.66026995 -1.64104783
v -5.13109379 1.26439349 -1.02783831
v -4.92792365 1.26439349 -0.89106295
v -4.93072491 1.26439349 -0.80315628
v -4.93001924 0.23164147 -0.80287134
v -5.13109379 0.23164147 -1.67837611
v -5.13109379 0.23214694 -1.71128769
v -5.13109379 0.28653421 -1.71157263
v -5.13109379 0.33910185 -1.71171510
v -5.13109379 1.26439349 -0.75770693
v -4.95525249 1.26439349 -0.74987089
v -4.95516704 0.23164147 -0.74972842
v -5.13109379 0.23164147 -0.75742200
v -5.06140300 0.23164147 -0.72180342
v -5.06112505 1.26439349 -0.72251585
v -4.97221013 1.26439349 -0.74103748
v -5.00837063 0.23164147 -0.72166095
v -5.00854169 1.26439349 -0.72251585
f 1 2 3
f 1 3 8
f 1 8 4
f 1 4 9
f 1 9 17
f 1 17 24
f 1 24 29
f 1 29 26
f 1 26 25
f 1 25 18
f 1 18 10
f 1 10 5
f 1 5 2
f 2 5 6
f 2 6 7
f 2 7 3
f 3 7 6
f 3 6 14
f 3 14 22
f 3 22 27
f 3 27 30
f 3 30 28
f 3 28 23
f 3 23 16
f 3 16 15
f 3 15 8
f 4 8 9
f 5 10 6
f 6 10 11
f 6 11 12
f 6 12 13
f 6 13 14
f 8 15 9
f 9 15 16
f 9 16 17
f 10 18 19
f 10 19 20
f 10 20 21
f 10 21 11
f 11 21 20
f 11 20 19
f 11 19 18
f 11 18 25
f 11 25 22
f 11 22 14
f 11 14 13
f 11 13 12
f 16 23 17
f 17 23 24
f 22 25 26
f 22 26 27
f 23 28 29
f 23 29 24
f 26 29 27
f 27 29 30
f 28 30 29

