# https://github.com/mikedh/trimesh
v -6.41885337 -0.05861372 -2.84147133
v -6.41885337 -0.05861372 -1.74358174
v -6.41885337 0.03402335 -2.84147133
v -5.84729488 -0.05861372 -2.84147133
v -3.18033972 -0.05895504 -0.46583566
v -3.60639323 -0.05895504 -0.46509552
v -6.27049544 -0.05861372 -0.32150634
v -6.34847835 -0.04629815 -0.32150634
v -6.41885337 -0.05574106 -1.63700008
v -6.41885337 0.05347794 -1.78601707
v -5.84729488 0.23161304 -1.66438570
v -4.99138407 0.21875706 -2.59376773
v -4.91244994 0.19244783 -2.72280052
v -5.84729488 0.03402335 -2.84147133
v -3.18033972 -0.05858529 -2.72280052
v -3.18033972 -0.05895504 -0.46509552
v -5.84729488 -0.05861372 -0.32150634
v -5.84729488 -0.05858529 -0.32101294
v -6.38905491 0.01929017 -0.32150634
v -6.41885337 -0.04823221 -1.59801888
v -6.41885337 0.05347794 -1.50377308
v -5.84729488 0.23161304 -0.78706091
v -4.91244994 0.23161304 -2.17706311
v -4.65948071 0.23004874 -2.57699099
v -4.58213184 0.23004874 -2.57699099
v -3.18033972 0.06317688 -2.72280052
v -3.18033972 -0.04669633 -0.38811991
v -3.92593331 -0.05858529 -0.32101294
v -5.84729488 0.03408021 -0.32101294
v -6.39127375 0.05347794 -0.32150634
v -6.41885337 -0.04342542 -1.57359390
v -6.41885337 0.01929017 -1.52795131
v -5.06112489 0.23161304 -0.72192771
v -4.91118201 0.23004874 -0.32101294
v -4.91244994 0.23161304 -1.84966999
v -4.56913458 0.23004874 -2.48940642
v -3.18033972 0.14631409 -1.74333508
v -3.65109084 0.14728120 -2.52221976
v -3.70720052 0.14728120 -2.59796192
v -3.18033972 0.01889191 -0.34667145
v -3.72970779 -0.04399434 -0.32101294
v -3.81941995 -0.05417668 -0.32101294
v -6.41885337 -0.00519880 -1.54571493
v -5.00850230 0.23161304 -0.72192771
v -4.74031681 0.23004874 -0.32101294
v -4.57388959 0.23004874 -0.67801209
v -4.92671513 0.23161304 -0.89117540
v -3.18033972 0.14728120 -0.32915457
v -3.18033972 0.14728120 -0.54725221
v -3.18033972 0.12583554 -0.32915457
v -3.68849727 0.01564951 -0.32101294
v -4.95524550 0.23161304 -0.75005338
v -3.64443370 0.14728120 -0.32101294
v -4.70576334 0.23004874 -0.37997828
v -4.92988519 0.23161304 -0.80309751
v -4.59164186 0.23004874 -0.57883193
v -3.64506775 0.12583554 -0.32101294
v -3.68659530 0.01931860 -0.32101294
f 1 2 9
f 1 9 20
f 1 20 31
f 1 31 43
f 1 43 32
f 1 32 21
f 1 21 10
f 1 10 3
f 1 3 14
f 1 14 4
f 1 4 5
f 1 5 6
f 1 6 2
f 2 6 7
f 2 7 8
f 2 8 9
f 3 10 11
f 3 11 12
f 3 12 13
f 3 13 14
f 4 14 26
f 4 26 15
f 4 15 5
f 5 15 26
f 5 26 37
f 5 37 49
f 5 49 48
f 5 48 50
f 5 50 40
f 5 40 27
f 5 27 16
f 5 16 6
f 6 16 17
f 6 17 7
f 7 17 28
f 7 28 18
f 7 18 8
f 8 18 19
f 8 19 9
f 9 19 20
f 10 21 22
f 10 22 11
f 11 22 33
f 11 33 44
f 11 44 52
f 11 52 55
f 11 55 47
f 11 47 35
f 11 35 23
f 11 23 24
f 11 24 12
f 12 24 13
f 13 24 25
f 13 25 26
f 13 26 14
f 16 27 28
f 16 28 17
f 18 29 30
f 18 30 19
f 18 28 42
f 18 42 41
f 18 41 51
f 18 51 58
f 18 58 57
f 18 57 53
f 18 53 45
f 18 45 34
f 18 34 29
f 19 30 31
f 19 31 20
f 21 32 30
f 21 30 22
f 22 30 34
f 22 34 33
f 23 35 36
f 23 36 25
f 23 25 24
f 25 36 37
f 25 37 38
f 25 38 39
f 25 39 26
f 26 39 38
f 26 38 37
f 27 40 41
f 27 41 42
f 27 42 28
f 29 34 30
f 30 32 43
f 30 43 31
f 33 34 45
f 33 45 44
f 35 46 36
f 35 47 46
f 36 46 48
f 36 48 49
f 36 49 37
f 40 50 41
f 41 50 51
f 44 45 52
f 45 53 48
f 45 48 54
f 45 54 52
f 46 47 55
f 46 55 56
f 46 56 48
f 48 56 54
f 48 53 50
f 50 53 57
f 50 57 58
f 50 58 51
f 52 54 56
f 52 56 55

