# https://github.com/mikedh/trimesh
v -6.60220694 1.36691767 1.95075600
v -6.32360739 1.36691767 1.18801370
v -6.70482543 1.36691767 1.95075600
v -5.87865812 0.06542772 1.95075600
v -6.32360739 1.36691767 1.18502486
v -5.87865812 0.08803315 0.72941185
v -6.71238662 1.36691767 1.66693925
v -6.77521792 0.65875195 1.95075600
v -5.87865812 -0.05108826 1.95075600
v -6.33377940 1.36691767 1.13170469
v -6.28183993 1.17449193 0.72941185
v -6.28733095 1.18691101 0.72941185
v -6.31883649 1.24175026 0.72941185
v -5.87865812 -0.05862340 0.72941185
v -6.73075006 1.36691767 0.72941185
v -6.77989860 0.65875195 0.72941185
v -6.79826204 0.01937944 1.95075600
v -6.05760992 -0.05862340 1.95075600
v -5.87865812 -0.05862340 0.81441339
v -6.37338616 1.36691767 1.02757479
v -6.37644678 1.29338006 0.72941185
v -6.69699391 -0.05862340 0.72941185
v -6.52830402 1.36691767 0.72941185
v -6.79817214 0.01937944 0.72941185
v -6.77467790 -0.03294814 0.72941185
v -6.78827013 -0.00280740 1.95075600
v -6.69699391 -0.05862340 1.95075600
v -6.41371336 1.36691767 0.94663799
v -6.38337806 1.29742673 0.72941185
v -6.72129849 -0.05443716 1.95075600
v -6.76864687 -0.04620444 0.72941185
v -6.76864687 -0.04620444 1.95075600
f 1 2 5
f 1 5 10
f 1 10 20
f 1 20 28
f 1 28 23
f 1 23 15
f 1 15 7
f 1 7 3
f 1 3 8
f 1 8 17
f 1 17 26
f 1 26 32
f 1 32 30
f 1 30 27
f 1 27 18
f 1 18 9
f 1 9 4
f 1 4 2
f 2 4 6
f 2 6 5
f 3 7 8
f 4 9 19
f 4 19 14
f 4 14 6
f 5 6 11
f 5 11 12
f 5 12 13
f 5 13 10
f 6 14 22
f 6 22 31
f 6 31 25
f 6 25 24
f 6 24 16
f 6 16 15
f 6 15 23
f 6 23 29
f 6 29 21
f 6 21 13
f 6 13 12
f 6 12 11
f 7 15 8
f 8 15 16
f 8 16 17
f 9 18 19
f 10 13 21
f 10 21 20
f 14 19 18
f 14 18 27
f 14 27 22
f 16 24 17
f 17 24 25
f 17 25 26
f 20 21 29
f 20 29 28
f 22 27 30
f 22 30 31
f 23 28 29
f 25 31 32
f 25 32 26
f 30 32 31

