# https://github.com/mikedh/trimesh
v 0.20387910 2.54132787 2.54740844
v 0.20387910 2.54132787 1.66707330
v 0.12450009 2.55177911 1.56057940
v 0.14047824 2.54132787 2.54740844
v 0.24062091 2.47075114 2.54740844
v 0.20123016 2.53936062 1.56057940
v 0.24062091 2.47075114 1.66707330
v -0.51489089 2.54710685 1.34923324
v -0.51489089 2.54759858 1.45396796
v -0.40833981 2.54833634 1.56057940
v 0.19166042 2.53296682 1.49818424
v 0.12450009 2.53751623 1.49372735
v -0.51489089 2.54231150 1.56057940
v -0.62152710 2.45857852 2.54740844
v 0.24967794 2.36414844 2.54740844
v 0.23275985 2.47075114 1.56057940
v 0.24967794 2.36414844 1.66707330
v -0.44559431 2.53837692 1.34923324
v -0.51608687 2.54686082 1.34923324
v -0.57931683 2.53284389 1.34923324
v -0.57931683 2.53284389 1.45396796
v -0.57547191 2.52977000 1.56057940
v 0.20140106 2.47075114 1.49173358
v -0.62152710 2.35615627 2.54740844
v -0.62152710 2.49780147 1.56057940
v 0.23848466 1.29566167 2.54740844
v 0.24967794 1.29566167 2.19989541
v 0.25138694 1.29566167 2.09340150
v 0.25138694 1.61817497 2.09340150
v 0.24002276 2.36414844 1.56057940
v 0.25138694 1.61817497 1.77368473
v 0.25130149 1.61817497 1.66707330
v -0.44491072 2.53677855 1.34923324
v -0.62152710 2.50124423 1.34923324
v -0.62152710 2.50124423 1.45396796
v 0.20413545 2.36414844 1.48962243
v -0.42517278 2.47075114 1.34923324
v -0.62152710 2.34890185 1.45396796
v -0.56957603 1.29566167 1.88029617
v -0.56897788 1.29566167 1.95371593
v -0.56726905 1.29566167 2.00754928
v -0.56299688 1.29566167 2.09340150
v -0.53385978 1.29566167 2.19731508
v -0.53309073 1.29566167 2.19989541
v -0.48404480 1.29566167 2.26264253
v 0.13406983 1.29566167 2.54740844
v 0.25138694 1.29566167 1.77368473
v 0.24087694 1.61817497 1.56057940
v 0.25130149 1.29566167 1.66707330
v 0.24121874 1.29566167 1.56315957
v -0.62152710 2.36377956 1.34923324
v -0.41884981 2.36414844 1.34923324
v 0.20507540 1.29566167 1.49138161
v 0.20413545 1.29566167 1.48962243
v -0.41842256 1.51157223 1.34923324
v -0.62152710 2.34890185 1.34935046
v -0.56957603 1.29566167 1.87853667
v 0.24087694 1.29566167 1.56057940
v -0.53488518 1.29566167 1.34923324
v -0.42286563 1.29566167 1.34923324
v -0.41953341 1.40496946 1.34923324
v -0.41842256 1.50911309 1.34923324
v -0.56239873 1.29566167 1.66707330
v -0.56692725 1.29566167 1.75269078
v -0.56701270 1.29566167 1.75491914
v -0.56880699 1.29566167 1.80687609
f 1 2 3
f 1 3 4
f 1 4 14
f 1 14 24
f 1 24 46
f 1 46 26
f 1 26 15
f 1 15 5
f 1 5 7
f 1 7 2
f 2 6 3
f 2 7 6
f 3 8 9
f 3 9 10
f 3 10 4
f 3 6 11
f 3 11 12
f 3 12 8
f 4 10 9
f 4 9 13
f 4 13 14
f 5 15 17
f 5 17 7
f 6 7 16
f 6 16 11
f 7 17 16
f 8 12 11
f 8 11 18
f 8 18 33
f 8 33 37
f 8 37 52
f 8 52 55
f 8 55 62
f 8 62 61
f 8 61 60
f 8 60 59
f 8 59 51
f 8 51 34
f 8 34 20
f 8 20 19
f 8 19 9
f 9 19 20
f 9 20 21
f 9 21 22
f 9 22 13
f 11 16 23
f 11 23 18
f 13 22 14
f 14 22 21
f 14 21 25
f 14 25 35
f 14 35 34
f 14 34 51
f 14 51 56
f 14 56 38
f 14 38 24
f 15 26 27
f 15 27 28
f 15 28 29
f 15 29 31
f 15 31 17
f 16 17 30
f 16 30 23
f 17 31 32
f 17 32 30
f 18 23 33
f 20 34 35
f 20 35 21
f 21 35 25
f 23 30 36
f 23 36 37
f 23 37 33
f 24 38 39
f 24 39 40
f 24 40 41
f 24 41 42
f 24 42 43
f 24 43 44
f 24 44 45
f 24 45 46
f 26 46 45
f 26 45 44
f 26 44 43
f 26 43 42
f 26 42 41
f 26 41 40
f 26 40 39
f 26 39 57
f 26 57 66
f 26 66 65
f 26 65 64
f 26 64 63
f 26 63 59
f 26 59 60
f 26 60 54
f 26 54 53
f 26 53 58
f 26 58 50
f 26 50 49
f 26 49 47
f 26 47 28
f 26 28 27
f 28 47 31
f 28 31 29
f 30 32 48
f 30 48 36
f 31 47 49
f 31 49 32
f 32 49 50
f 32 50 48
f 36 52 37
f 36 48 53
f 36 53 54
f 36 54 62
f 36 62 55
f 36 55 52
f 38 56 57
f 38 57 39
f 48 50 58
f 48 58 53
f 51 59 56
f 54 60 61
f 54 61 62
f 56 59 63
f 56 63 64
f 56 64 65
f 56 65 66
f 56 66 57

