# https://github.com/mikedh/trimesh
v -3.07306383 1.18954419 -4.92147260
v -3.17959490 1.18954419 -4.92157901
v -2.96861870 1.18954419 -4.93572365
v -2.54458036 2.34523069 -4.94763452
v -2.64671609 2.34523069 -4.93721219
v -3.07306383 1.93775392 -4.92179184
v -3.18026539 1.93775392 -4.92179184
v -3.18026539 1.18954419 -4.92168543
v -2.96645827 1.18954419 -4.93614899
v -2.47574494 2.34523069 -4.97975219
v -2.64671609 1.18954419 -5.01399657
v -2.54234548 1.18954419 -5.04207270
v -2.54018502 1.18954419 -5.04271087
v -2.75332164 2.34523069 -4.93678684
v -3.18026539 2.34523069 -4.93593616
v -3.18026539 1.18954419 -5.11906960
v -2.43678287 2.34523069 -5.04760279
v -2.48408860 1.18954419 -5.09184416
v -3.18026539 2.34523069 -5.11906960
v -2.59851639 1.18954419 -6.00782964
v -2.42143646 2.34523069 -5.15310115
v -2.48133221 1.18954419 -5.15331398
v -2.59851639 2.34523069 -6.00719147
v -2.59851639 2.34477819 -6.00782964
v -2.48148119 1.18954419 -6.00782964
v -2.42061691 2.34523069 -5.25976945
v -2.48088519 1.18954419 -6.00506444
v -2.48066172 1.18965732 -6.00782964
v -2.41927600 2.34523069 -6.00782964
v -2.42478886 2.34523069 -6.00782964
v -2.48088519 1.18954419 -6.00719147
f 1 2 8
f 1 8 16
f 1 16 20
f 1 20 25
f 1 25 31
f 1 31 27
f 1 27 22
f 1 22 18
f 1 18 13
f 1 13 12
f 1 12 11
f 1 11 9
f 1 9 3
f 1 3 4
f 1 4 5
f 1 5 6
f 1 6 7
f 1 7 2
f 2 7 8
f 3 9 4
f 4 10 17
f 4 17 21
f 4 21 26
f 4 26 29
f 4 29 30
f 4 30 23
f 4 23 19
f 4 19 15
f 4 15 14
f 4 14 5
f 4 9 11
f 4 11 12
f 4 12 13
f 4 13 10
f 5 14 6
f 6 14 15
f 6 15 7
f 7 15 19
f 7 19 16
f 7 16 8
f 10 13 18
f 10 18 17
f 16 19 24
f 16 24 20
f 17 18 21
f 18 22 21
f 19 23 24
f 20 24 30
f 20 30 29
f 20 29 28
f 20 28 25
f 21 22 26
f 22 27 28
f 22 28 29
f 22 29 26
f 23 30 24
f 25 28 31
f 27 31 28

