# https://github.com/mikedh/trimesh
v -4.03243206 0.65584610 3.66953463
v -3.92580291 0.64642566 3.67943664
v -3.82295484 0.64635590 3.67943664
v -3.92580291 0.65556696 3.66953463
v -4.54642012 0.65584610 3.66953463
v -3.82295484 0.12948812 4.18564988
v -4.45882284 0.64642566 3.67943664
v -3.82295484 0.65200813 3.66998920
v -3.91332502 0.65228727 3.66953463
v -4.56520000 0.65570653 3.66953463
v -4.56520000 0.64642566 3.67938613
v -3.82295484 -0.05689694 4.18564988
v -5.11031965 0.12948812 4.18564988
v -3.82295484 0.51802863 3.66953463
v -4.66678761 0.64175035 3.66953463
v -3.82295484 -0.04963967 3.66953463
v -5.11031965 -0.05689694 4.18564988
v -4.67182915 0.63888933 3.67185861
v -4.67195526 0.64035472 3.66953463
v -4.68090398 0.63658655 3.66953463
v -5.11031965 0.04686742 3.66953463
v -5.11031965 -0.04963967 3.66953463
f 1 2 3
f 1 3 4
f 1 4 9
f 1 9 14
f 1 14 16
f 1 16 22
f 1 22 21
f 1 21 20
f 1 20 19
f 1 19 15
f 1 15 10
f 1 10 5
f 1 5 7
f 1 7 2
f 2 6 3
f 2 7 13
f 2 13 6
f 3 6 12
f 3 12 16
f 3 16 14
f 3 14 8
f 3 8 4
f 4 8 9
f 5 10 11
f 5 11 7
f 6 13 17
f 6 17 12
f 7 11 13
f 8 14 9
f 10 15 13
f 10 13 11
f 12 17 22
f 12 22 16
f 13 15 18
f 13 18 19
f 13 19 20
f 13 20 21
f 13 21 22
f 13 22 17
f 15 19 18

