# https://github.com/mikedh/trimesh
v -6.38775982 1.36701166 -0.32077525
v -6.40206297 2.32745595 -0.32077525
v -6.29152720 1.36701166 -0.32077525
v -6.76030201 1.36701166 0.54195081
v -6.23515196 2.32745595 -0.32077525
v -6.76030201 2.32745595 0.54195081
v -6.16243898 1.36701166 0.47582509
v -6.77131360 1.36701166 0.60117845
v -6.77382722 2.32745595 0.60117845
v -6.76999723 2.32745595 0.58096021
v -6.16243898 2.32745595 0.45655823
v -6.16243898 1.36701166 0.65279455
v -6.70488451 1.36701166 2.10898671
v -6.72948134 2.32745595 2.10898671
v -6.16243898 2.32745595 0.73699782
v -6.24694180 2.32745595 1.13565476
v -6.27141887 2.32745595 1.23983834
v -6.32360453 1.36701166 1.18774655
v -6.60218852 1.36701166 2.10898671
v -6.54683074 2.32745595 2.10898671
f 1 2 5
f 1 5 3
f 1 3 7
f 1 7 12
f 1 12 18
f 1 18 19
f 1 19 13
f 1 13 8
f 1 8 4
f 1 4 2
f 2 4 6
f 2 6 10
f 2 10 9
f 2 9 14
f 2 14 20
f 2 20 17
f 2 17 16
f 2 16 15
f 2 15 11
f 2 11 5
f 3 5 7
f 4 8 9
f 4 9 10
f 4 10 6
f 5 11 7
f 7 11 15
f 7 15 12
f 8 13 14
f 8 14 9
f 12 15 16
f 12 16 17
f 12 17 18
f 13 19 20
f 13 20 14
f 17 20 19
f 17 19 18

