# https://github.com/mikedh/trimesh
v -6.52830085 1.36691767 0.72941185
v -5.87865812 1.36691767 0.65260411
v -6.73074593 1.36691767 0.72941185
v -6.38337552 1.29742673 0.72941185
v -5.87865812 1.36691767 0.47595676
v -6.37644456 1.29338006 0.72941185
v -6.31883459 1.24175026 0.72941185
v -6.28732904 1.18691101 0.72941185
v -6.28183802 1.17449193 0.72941185
v -5.87865812 0.08803315 0.72941185
v -6.76135124 1.36691767 0.67234587
v -6.77989447 0.65875195 0.72941185
v -6.29155960 1.36691767 -0.32091022
v -5.87865812 0.03403113 -0.32091022
v -5.87865812 -0.05862340 0.72941185
v -6.77125292 1.36691767 0.60109046
v -6.79825759 0.01937944 0.72941185
v -6.38769629 1.36691767 -0.32091022
v -5.87865812 -0.05862340 -0.32091022
v -6.69699010 -0.05862340 0.72941185
v -6.76738227 1.36691767 0.58001201
v -6.78313489 0.55228286 0.60109046
v -6.79825759 0.01937944 0.70771651
v -6.76873232 -0.04620444 0.72941185
v -6.76027088 1.36691767 0.54186536
v -6.39651795 0.12598809 -0.32091022
v -6.27076608 -0.05862340 -0.32091022
v -6.69699010 -0.05862340 0.70771651
v -6.78628541 0.12598809 0.60109046
v -6.77962446 0.01937944 0.60109046
v -6.75991098 -0.04034367 0.60109046
v -6.76873232 -0.04620444 0.70771651
v -6.38922676 0.01937944 -0.32091022
v -6.32153499 -0.05053014 -0.32091022
v -6.34853966 -0.04620444 -0.32091022
v -6.75081932 -0.03420399 0.54752045
v -6.36267190 -0.02345940 -0.32091022
f 1 2 5
f 1 5 13
f 1 13 18
f 1 18 25
f 1 25 21
f 1 21 16
f 1 16 11
f 1 11 3
f 1 3 12
f 1 12 17
f 1 17 24
f 1 24 20
f 1 20 15
f 1 15 10
f 1 10 9
f 1 9 8
f 1 8 7
f 1 7 6
f 1 6 4
f 1 4 2
f 2 4 6
f 2 6 7
f 2 7 8
f 2 8 9
f 2 9 10
f 2 10 15
f 2 15 19
f 2 19 14
f 2 14 5
f 3 11 12
f 5 14 13
f 11 16 12
f 12 16 17
f 13 14 19
f 13 19 27
f 13 27 34
f 13 34 35
f 13 35 37
f 13 37 33
f 13 33 26
f 13 26 18
f 15 20 28
f 15 28 27
f 15 27 19
f 16 21 22
f 16 22 23
f 16 23 17
f 17 23 32
f 17 32 24
f 18 26 25
f 20 24 32
f 20 32 28
f 21 25 22
f 22 25 29
f 22 29 23
f 23 29 30
f 23 30 31
f 23 31 32
f 25 26 29
f 26 33 30
f 26 30 29
f 27 28 34
f 28 32 31
f 28 31 35
f 28 35 34
f 30 33 36
f 30 36 31
f 31 36 35
f 33 37 36
f 35 36 37

