# https://github.com/mikedh/trimesh
v -3.48966720 -0.05842836 3.09518902
v -3.18032852 -0.05842836 3.09518902
v -3.48966720 -0.05842836 3.15939260
v -3.48966720 0.59794627 3.09518902
v -3.18032852 -0.05842836 3.15939260
v -3.18032852 0.04966669 3.09518902
v -2.55722621 0.17688311 3.22691284
v -2.54034948 0.17688311 3.23112942
v -2.48426506 0.17688311 3.25350519
v -2.45174651 0.17688311 3.27801719
v -3.48966720 -0.05803812 3.66953463
v -3.48966720 0.71540685 3.37443470
v -3.40939966 1.36690354 3.37252335
v -3.37770428 1.36690354 3.26935913
v -3.18012272 1.93449976 3.23225393
v -2.64685828 1.93449976 3.21803020
v -2.45802381 0.17688311 3.35408304
v -3.18032852 -0.04808712 3.26519878
v -3.33005834 -0.04262381 3.66953463
v -3.34343622 -0.04535550 3.66953463
v -3.39272874 -0.05491619 3.66953463
v -2.54024656 1.93449976 3.23855053
v -2.43836854 1.93449976 3.28150285
v -2.43836854 1.93449976 3.34851737
v -3.48966720 0.67813947 3.66953463
v -3.48966720 0.74252817 3.47889178
v -3.40271072 1.36690354 3.66953463
v -3.18012272 1.93449976 3.34126494
v -2.58110064 0.17688311 3.64721509
v -3.31318157 0.01942343 3.66953463
v -2.58336462 1.93449976 3.64721509
v -3.48966720 0.68028572 3.66655501
v -3.48966720 0.72008967 3.58559788
v -3.48966720 0.71208987 3.62112909
v -3.30566934 1.36690354 3.66953463
v -2.61269315 1.93449976 3.64721509
v -3.30566934 0.12615264 3.66953463
v -3.31153504 0.04205705 3.66953463
f 1 2 5
f 1 5 3
f 1 3 11
f 1 11 25
f 1 25 32
f 1 32 34
f 1 34 33
f 1 33 26
f 1 26 12
f 1 12 4
f 1 4 6
f 1 6 2
f 2 6 7
f 2 7 8
f 2 8 9
f 2 9 10
f 2 10 5
f 3 5 11
f 4 12 13
f 4 13 14
f 4 14 15
f 4 15 16
f 4 16 6
f 5 10 17
f 5 17 18
f 5 18 19
f 5 19 20
f 5 20 21
f 5 21 11
f 6 16 22
f 6 22 7
f 7 22 8
f 8 22 9
f 9 22 23
f 9 23 10
f 10 23 24
f 10 24 17
f 11 21 20
f 11 20 19
f 11 19 30
f 11 30 38
f 11 38 37
f 11 37 35
f 11 35 27
f 11 27 25
f 12 26 13
f 13 26 27
f 13 27 28
f 13 28 15
f 13 15 14
f 15 28 36
f 15 36 31
f 15 31 24
f 15 24 23
f 15 23 22
f 15 22 16
f 17 29 19
f 17 19 18
f 17 24 29
f 19 29 30
f 24 31 29
f 25 27 32
f 26 33 27
f 27 33 34
f 27 34 32
f 27 35 31
f 27 31 36
f 27 36 28
f 29 37 38
f 29 38 30
f 29 31 35
f 29 35 37

