# https://github.com/mikedh/trimesh
v -6.44120912 1.36691763 4.13644512
v -6.32130564 1.36691763 3.75042124
v -6.72463135 1.36691763 4.13644512
v -6.30664482 1.15942017 4.13644512
v -6.32130564 1.36691763 3.73822321
v -6.71970957 1.36691763 3.79883314
v -6.77526335 0.65886555 3.48746026
v -6.77819532 0.65886555 4.13644512
v -6.25088170 0.14442983 4.13644512
v -6.60263356 1.36691763 3.48746026
v -6.26753233 0.14442983 3.48746026
v -6.29863382 0.55224483 3.48746026
v -6.31130485 0.64223223 3.48746026
v -6.71908124 1.36691763 3.76084071
v -6.77997547 0.14442983 3.48746026
v -6.78573523 0.14442983 4.13631806
v -6.71792942 1.36691763 3.69228904
v -6.70777170 1.36691763 3.48746026
v -6.77463502 0.54446667 4.13644512
v -6.74400462 0.14442983 4.13644512
v -6.76175434 0.23549418 4.13644512
f 1 2 5
f 1 5 10
f 1 10 18
f 1 18 17
f 1 17 14
f 1 14 6
f 1 6 3
f 1 3 8
f 1 8 19
f 1 19 21
f 1 21 20
f 1 20 9
f 1 9 4
f 1 4 2
f 2 4 5
f 3 6 7
f 3 7 8
f 4 9 5
f 5 9 11
f 5 11 12
f 5 12 13
f 5 13 10
f 6 14 7
f 7 15 16
f 7 16 8
f 7 14 17
f 7 17 18
f 7 18 10
f 7 10 13
f 7 13 12
f 7 12 11
f 7 11 15
f 8 16 19
f 9 20 16
f 9 16 15
f 9 15 11
f 16 20 21
f 16 21 19

