# https://github.com/mikedh/trimesh
v -2.14122400 1.26178624 0.57781271
v -2.14977469 1.26178624 0.70775256
v -2.14040961 0.23310540 0.57781271
v -2.28017309 1.26178624 0.57781271
v -2.14896030 0.23310540 0.70775256
v -2.16005590 1.26178624 0.76890584
v -2.28017309 0.23310540 0.57781271
v -3.18023811 1.19240191 0.69795951
v -3.17983091 1.26178624 0.69795951
v -2.15964875 0.23310540 0.76862789
v -2.18072013 1.26178624 0.77478599
v -2.22041988 0.23310540 0.78658901
v -2.16005590 0.33904499 0.76890584
v -3.18023811 0.23310540 0.69795951
v -3.18023811 1.26178624 0.76225600
v -2.22041988 1.26178624 0.78607584
v -2.32699852 0.23310540 0.79625373
v -3.18023811 0.23310540 0.79625373
v -3.18023811 1.26178624 0.79535571
v -2.32699852 1.26178624 0.79535571
f 1 2 5
f 1 5 3
f 1 3 7
f 1 7 4
f 1 4 9
f 1 9 15
f 1 15 19
f 1 19 20
f 1 20 16
f 1 16 11
f 1 11 6
f 1 6 2
f 2 6 5
f 3 5 10
f 3 10 12
f 3 12 17
f 3 17 18
f 3 18 14
f 3 14 7
f 4 7 14
f 4 14 8
f 4 8 9
f 5 6 10
f 6 11 12
f 6 12 13
f 6 13 10
f 8 15 9
f 8 14 18
f 8 18 19
f 8 19 15
f 10 13 12
f 11 16 12
f 12 16 17
f 16 20 17
f 17 20 19
f 17 19 18

