# https://github.com/mikedh/trimesh
v -5.11185902 1.26439353 -2.69596199
v -5.13629129 2.32773890 -2.69596199
v -4.92806835 1.26439353 -2.69596199
v -5.11061110 1.26439353 -1.10454781
v -5.13629129 2.32748557 -1.10454781
v -5.13629129 2.32748557 -1.10517089
v -5.13629129 2.53126386 -2.69596199
v -4.91265578 2.21502122 -2.69596199
v -4.91265578 1.26439353 -2.17660266
v -4.93441736 1.26439353 -1.10454781
v -5.13629129 2.53291028 -1.10454781
v -5.09821977 2.54291560 -2.69596199
v -4.91265578 2.54164910 -2.69596199
v -4.91265578 1.26439353 -1.85243147
v -4.93277539 1.26452020 -1.10454781
v -5.09821977 2.54392877 -1.10454781
v -4.99166711 2.55811351 -2.69596199
v -4.91574278 2.54240902 -2.69596199
v -4.91265578 2.54164910 -1.10454781
v -4.91265578 2.21907397 -1.10454781
v -4.99166711 2.55811351 -1.10454781
f 1 2 7
f 1 7 12
f 1 12 17
f 1 17 18
f 1 18 13
f 1 13 8
f 1 8 3
f 1 3 9
f 1 9 14
f 1 14 10
f 1 10 4
f 1 4 5
f 1 5 6
f 1 6 2
f 2 6 5
f 2 5 11
f 2 11 7
f 3 8 9
f 4 10 15
f 4 15 20
f 4 20 19
f 4 19 21
f 4 21 16
f 4 16 11
f 4 11 5
f 7 11 12
f 8 13 19
f 8 19 20
f 8 20 14
f 8 14 9
f 10 14 15
f 11 16 12
f 12 16 17
f 13 18 19
f 14 20 15
f 16 21 17
f 17 21 18
f 18 21 19

