# https://github.com/mikedh/trimesh
v -4.91263402 0.23020582 -1.84650208
v -4.91263402 0.23020582 -2.00942903
v -4.60476396 0.23020582 -2.41324194
v -4.59527300 0.97864518 -2.40136919
v -4.91263402 1.93760097 -1.85236690
v -4.91232447 0.23020582 -2.17829236
v -4.91263402 0.23268474 -2.17693342
v -4.56975751 0.23020582 -2.48741011
v -4.56886346 0.23020582 -2.48955572
v -4.56136707 0.97864518 -2.48977030
v -4.56979198 1.93760097 -2.48984193
v -4.60658651 2.04438465 -2.41553066
v -4.91263402 2.04438465 -1.85451252
v -4.91160227 0.23020582 -2.18029495
v -4.91263402 2.07088988 -2.45122007
v -4.58179322 0.23020582 -2.57416623
v -4.58230894 0.23020582 -2.57695557
v -4.58282481 1.93760097 -2.57638347
v -4.58591958 2.04438465 -2.57323644
v -4.57388403 2.04438465 -2.48984193
v -4.61129753 2.10483186 -2.42361265
v -4.91263402 2.17824567 -1.89914222
v -4.74492681 0.23020582 -2.46917198
v -4.91263402 2.12447244 -2.45715629
v -4.71126151 0.23020582 -2.52402946
v -4.65919910 0.23020582 -2.57709868
v -4.65864892 1.93760097 -2.57638347
v -4.59888365 2.11131516 -2.56114927
v -4.65572600 2.04438465 -2.57323644
v -4.59829916 2.11341265 -2.48984193
v -4.87546116 2.17824567 -2.05863610
v -4.91263402 2.17824567 -2.45973122
v -4.72866165 1.02135866 -2.54663028
v -4.67683987 0.98303093 -2.57023252
v -4.67663355 1.08066175 -2.57023252
v -4.72866165 1.04214334 -2.54663028
v -4.64138648 2.11131516 -2.56114927
v -4.87714617 2.17824567 -2.31139473
v -4.87577071 2.17824567 -2.28228527
v -4.87343228 2.17824567 -2.17013882
v -4.87467035 2.17824567 -2.08767409
f 1 2 6
f 1 6 14
f 1 14 23
f 1 23 25
f 1 25 26
f 1 26 17
f 1 17 16
f 1 16 9
f 1 9 8
f 1 8 3
f 1 3 4
f 1 4 5
f 1 5 13
f 1 13 22
f 1 22 32
f 1 32 24
f 1 24 15
f 1 15 7
f 1 7 2
f 2 7 6
f 3 8 4
f 4 8 9
f 4 9 10
f 4 10 11
f 4 11 12
f 4 12 13
f 4 13 5
f 6 7 15
f 6 15 14
f 9 16 10
f 10 16 17
f 10 17 18
f 10 18 11
f 11 18 19
f 11 19 20
f 11 20 12
f 12 20 21
f 12 21 13
f 13 21 22
f 14 15 23
f 15 24 25
f 15 25 23
f 17 26 18
f 18 27 29
f 18 29 19
f 18 26 27
f 19 28 20
f 19 29 37
f 19 37 28
f 20 28 30
f 20 30 21
f 21 30 22
f 22 31 41
f 22 41 40
f 22 40 39
f 22 39 38
f 22 38 32
f 22 30 31
f 24 32 26
f 24 26 25
f 26 32 33
f 26 33 34
f 26 34 27
f 27 32 29
f 27 34 35
f 27 35 36
f 27 36 32
f 28 37 32
f 28 32 38
f 28 38 30
f 29 32 37
f 30 38 39
f 30 39 40
f 30 40 41
f 30 41 31
f 32 36 33
f 33 36 34
f 34 36 35

