# https://github.com/mikedh/trimesh
v -2.64934013 0.93393943 -0.57901593
v -2.22016742 0.82405410 -0.84948165
v -2.32678386 0.82395694 -0.84735568
v -2.71410128 0.93325933 -0.57901593
v -1.47426897 0.93053891 -0.57901593
v -1.79411820 0.82405410 -0.84735568
v -2.22016742 0.79578123 -0.90278663
v -2.38259081 0.82045926 -0.84019995
v -2.32449324 0.63333355 -1.10864342
v -2.33198971 0.63236199 -1.10864342
v -2.64663306 0.58815524 -1.10864342
v -2.74492009 0.57076400 -1.10864342
v -3.18033988 0.61293043 -0.88354913
v -3.18033988 0.66500698 -0.57901593
v -1.36786083 0.88118283 -0.57901593
v -1.47426897 0.59777386 -1.10864342
v -1.49946537 0.62371497 -1.08551693
v -1.56110307 0.62750410 -1.10864342
v -1.73810287 0.82065359 -0.84045921
v -1.58088532 0.62915580 -1.10864342
v -1.90073464 0.79422670 -0.90123104
v -2.11396743 0.74584217 -0.97854400
v -2.22016742 0.74253881 -0.97444761
v -1.90073464 0.63926015 -1.10864342
v -2.83862591 0.52131074 -1.10864342
v -3.18033988 0.56843223 -0.91984630
v -3.18033988 -0.05852636 -0.57901593
v -1.05300914 0.62585240 -0.57901593
v -1.30851375 0.50294794 -1.10864342
v -1.35141016 0.53063787 -1.10864342
v -1.63835823 0.63275061 -1.10864342
v -2.00735108 0.74516206 -0.97792176
v -1.89656992 0.63926015 -1.10864342
v -2.84174943 0.51897898 -1.10864342
v -3.18033988 0.06807015 -1.10864342
v -2.89151764 0.47690967 -1.10864342
v -2.93066586 0.42716497 -1.10864342
v -2.93316471 0.42395877 -1.10864342
v -1.05300914 -0.05852636 -0.57901593
v -3.18033988 -0.05852636 -1.10864342
v -1.05300914 0.07972904 -1.10817674
v -1.25978658 0.44445901 -1.10864342
v -1.26082786 0.44572210 -1.10864342
v -1.68750168 0.63479092 -1.10864342
v -1.05300914 -0.05852636 -1.10864342
v -1.05300914 -0.05425141 -1.10864342
v -1.07466557 0.08808461 -1.10864342
v -1.21272553 0.36090337 -1.10864342
v -1.25874562 0.44261303 -1.10864342
f 1 2 3
f 1 3 4
f 1 4 14
f 1 14 27
f 1 27 39
f 1 39 28
f 1 28 15
f 1 15 5
f 1 5 6
f 1 6 2
f 2 7 3
f 2 6 7
f 3 8 4
f 3 7 9
f 3 9 10
f 3 10 11
f 3 11 8
f 4 8 12
f 4 12 13
f 4 13 14
f 5 15 16
f 5 16 17
f 5 17 18
f 5 18 19
f 5 19 6
f 6 19 18
f 6 18 20
f 6 20 21
f 6 21 7
f 7 21 22
f 7 22 23
f 7 23 9
f 8 11 12
f 9 23 22
f 9 22 24
f 9 24 33
f 9 33 44
f 9 44 31
f 9 31 20
f 9 20 18
f 9 18 16
f 9 16 30
f 9 30 29
f 9 29 43
f 9 43 42
f 9 42 49
f 9 49 48
f 9 48 47
f 9 47 46
f 9 46 45
f 9 45 40
f 9 40 35
f 9 35 38
f 9 38 37
f 9 37 36
f 9 36 34
f 9 34 25
f 9 25 12
f 9 12 11
f 9 11 10
f 12 25 13
f 13 26 35
f 13 35 40
f 13 40 27
f 13 27 14
f 13 25 26
f 15 28 29
f 15 29 30
f 15 30 16
f 16 18 17
f 20 31 21
f 21 31 32
f 21 32 22
f 22 32 33
f 22 33 24
f 25 34 26
f 26 34 36
f 26 36 37
f 26 37 38
f 26 38 35
f 27 40 45
f 27 45 39
f 28 39 45
f 28 45 46
f 28 46 41
f 28 41 42
f 28 42 43
f 28 43 29
f 31 44 32
f 32 44 33
f 41 46 47
f 41 47 48
f 41 48 49
f 41 49 42

