# https://github.com/mikedh/trimesh
v -6.57511365 1.26439349 -3.84580820
v -5.91113411 1.26439349 -3.83288496
v -6.57511365 1.26439349 -3.61262980
v -6.57511365 2.32694182 -3.90815095
v -5.91113411 2.32694182 -3.90724785
v -5.91113411 1.26439349 -3.63972182
v -6.57511365 1.29840420 -3.59360293
v -6.57511365 2.32694182 -3.62502351
v -5.91113411 2.32694182 -3.62514803
v -6.57511365 1.40501266 -3.59002183
v -6.57511365 1.35248850 -3.59139204
v -6.57511365 1.61812554 -3.59671693
v -6.57511365 1.45940897 -3.59170334
f 1 2 6
f 1 6 3
f 1 3 7
f 1 7 11
f 1 11 10
f 1 10 13
f 1 13 12
f 1 12 8
f 1 8 4
f 1 4 5
f 1 5 2
f 2 5 9
f 2 9 6
f 3 6 7
f 4 8 9
f 4 9 5
f 6 10 11
f 6 11 7
f 6 9 10
f 8 12 9
f 9 12 13
f 9 13 10

