# https://github.com/mikedh/trimesh
v -5.13109379 0.23164147 -0.75731508
v -5.84732824 0.23164147 -0.78674645
v -5.13109379 0.23164147 -1.67837643
v -5.13109379 1.26439349 -0.75768885
v -5.84732824 0.23164147 -1.66482859
v -5.84732824 1.26439349 -0.78749394
v -5.14048850 0.23164147 -1.68033852
v -5.13109379 0.23214694 -1.71135821
v -5.13109379 1.26439349 -1.02789672
v -5.84732824 0.44565245 -1.66464173
v -5.13109379 0.33910185 -1.71182540
v -5.13109379 0.28653421 -1.71163854
v -5.84732824 1.26439349 -0.96473609
v -5.13109379 0.66026995 -1.64100328
v -5.84732824 0.63216647 -1.61960709
v -5.84732824 0.44868520 -1.66454834
v -5.13109379 0.44565245 -1.71173193
v -5.13109379 0.55230407 -1.70706031
v -5.84732824 0.55452814 -1.65894233
v -5.84732824 0.55230407 -1.66006358
f 1 2 5
f 1 5 7
f 1 7 3
f 1 3 8
f 1 8 12
f 1 12 11
f 1 11 17
f 1 17 18
f 1 18 14
f 1 14 9
f 1 9 4
f 1 4 2
f 2 4 6
f 2 6 13
f 2 13 15
f 2 15 19
f 2 19 20
f 2 20 16
f 2 16 10
f 2 10 5
f 3 7 8
f 4 9 13
f 4 13 6
f 5 8 7
f 5 10 11
f 5 11 12
f 5 12 8
f 9 14 15
f 9 15 13
f 10 16 17
f 10 17 11
f 14 18 15
f 15 18 19
f 16 20 17
f 17 20 18
f 18 20 19

