# https://github.com/mikedh/trimesh
v -1.09693047 0.72645202 2.30635373
v -1.09693047 0.70584410 2.30635373
v -1.09693047 0.72645202 1.88007730
v -1.15484825 0.77230463 1.88007730
v -1.15484825 0.77093076 2.30635373
v -1.15484825 0.76998621 2.41292292
v -1.09795015 0.72318913 2.41292292
v -1.09693047 0.70584410 1.88007730
v -1.09795015 0.70730385 2.41292292
v -1.17463003 -0.05853748 1.34920529
v -1.17442609 -0.05862333 0.91059456
v -1.09856196 0.72164353 1.81717199
v -1.26150670 0.80854017 2.41267610
v -1.22255495 0.79497331 2.37394608
v -1.15158528 0.75513137 1.77868879
v -1.22255495 0.78964962 1.77572854
v -1.26150670 0.80845432 1.77424826
v -1.22255495 0.79462985 2.41292292
v -1.22255495 0.78595737 2.48051526
v -1.22255495 0.77582514 2.51628504
v -1.15933484 0.74439806 2.51061137
v -1.09998951 0.71726434 2.46941442
v -1.09856196 0.70790490 1.81717199
v -1.17442609 -0.05862333 0.57781271
v -1.09998951 0.70979396 2.46941442
v -1.22255495 -0.05845155 3.09797456
v -3.08347035 -0.05862333 0.91059456
v -1.17442609 0.04046639 0.57781271
v -1.52682739 0.81858655 1.40100976
v -1.52682739 0.81858655 1.40150308
v -1.90125377 0.81171722 2.41267610
v -1.36816515 0.80287301 2.51899878
v -1.47502769 0.77264810 2.83919935
v -1.26150670 0.79497331 2.51899878
v -1.30168206 0.73177571 1.48735039
v -1.36653366 0.75470202 1.45281407
v -1.30780014 0.72567924 2.79726258
v -1.22255495 0.04149671 3.09797456
v -2.11395894 -0.05862333 0.57781271
v -3.18013595 -0.05845155 3.09797456
v -3.17952414 -0.05862333 0.81438623
v -2.14026666 0.23315026 0.57781271
v -1.40099882 0.73984718 1.38694851
v -2.91399958 0.81858655 1.40100976
v -2.91399958 0.81858655 1.40150308
v -2.53957321 0.81180310 2.41267610
v -1.90125377 0.80527728 2.51899878
v -1.79439139 0.80484792 2.51899878
v -1.58168614 0.77625446 2.83919935
v -1.37550684 0.74371116 2.83500564
v -1.58168614 0.75504549 2.91073858
v -1.47502769 0.74019061 2.90383144
v -1.41568236 0.72009793 2.89519753
v -1.25844766 0.04226957 3.09797456
v -2.19859231 -0.04625860 0.57781271
v -3.18033988 -0.05853748 0.81389275
v -3.17952414 -0.04625860 0.73741967
v -3.18013595 0.02604078 3.09797456
v -3.18033988 -0.05853748 0.91059456
v -3.18013595 -0.05853748 1.34969861
v -2.27996280 0.23315026 0.57781271
v -3.04329491 0.74122101 1.38596171
v -3.07612858 0.75590415 1.45034731
v -3.18013595 0.80905537 1.77424826
v -3.17932020 0.80931299 1.77424826
v -3.17932020 0.80965646 2.41267610
v -3.18033988 0.23315026 0.69819632
v -2.64623170 0.80536312 2.51899878
v -2.53957321 0.80536312 2.51899878
v -2.85934470 0.77651208 2.83919935
v -2.22000558 0.75521722 2.91073858
v -3.07266167 0.05145724 3.09797456
v -2.64623170 0.05119970 3.09797456
v -2.24488583 0.00362976 0.57781271
v -3.18033988 -0.04582929 0.73717285
v -3.18033988 0.01934330 0.69745618
v -3.17972807 0.05051277 3.09797456
v -3.18013595 0.65853177 2.73041005
v -3.18033988 0.04999753 0.91059456
v -2.28302183 0.17063964 0.57781271
v -3.18033988 0.12590328 0.68980891
v -3.14179601 0.73417998 1.48340334
v -3.18013595 0.80914126 1.77474158
v -3.18013595 0.75942467 1.66521230
v -3.18013595 0.80948472 2.41267610
v -3.17932020 0.79857971 2.51899878
v -2.96600323 0.77462301 2.83919935
v -3.18033988 0.23315026 0.79637809
v -2.85934470 0.75435855 2.90999876
v -3.15219673 0.05145724 3.09797456
v -2.25263539 0.01419130 0.57781271
v -2.96600323 0.74388290 2.90531173
v -3.02942727 0.72482057 2.89692431
v -3.13730942 0.73117467 2.80268943
v -3.18013595 0.75307057 2.63173496
v -2.28261396 0.12590328 0.57781271
v -3.18013595 0.79832209 2.51899878
v -3.06797115 0.74929244 2.83845921
f 1 2 8
f 1 8 3
f 1 3 4
f 1 4 5
f 1 5 6
f 1 6 7
f 1 7 9
f 1 9 2
f 2 9 10
f 2 10 11
f 2 11 24
f 2 24 8
f 3 8 23
f 3 23 12
f 3 12 4
f 4 13 14
f 4 14 5
f 4 12 15
f 4 15 16
f 4 16 17
f 4 17 13
f 5 14 18
f 5 18 6
f 6 19 20
f 6 20 21
f 6 21 22
f 6 22 7
f 6 18 19
f 7 22 25
f 7 25 9
f 8 24 23
f 9 25 26
f 9 26 10
f 10 26 11
f 11 27 41
f 11 41 39
f 11 39 24
f 11 26 40
f 11 40 27
f 12 23 24
f 12 24 28
f 12 28 15
f 13 18 14
f 13 17 29
f 13 29 30
f 13 30 31
f 13 31 32
f 13 32 33
f 13 33 34
f 13 34 18
f 15 28 35
f 15 35 36
f 15 36 29
f 15 29 16
f 16 29 17
f 18 34 19
f 19 34 20
f 20 34 37
f 20 37 21
f 21 37 22
f 22 37 38
f 22 38 26
f 22 26 25
f 24 39 55
f 24 55 74
f 24 74 91
f 24 91 96
f 24 96 80
f 24 80 61
f 24 61 42
f 24 42 28
f 26 38 54
f 26 54 73
f 26 73 72
f 26 72 90
f 26 90 77
f 26 77 58
f 26 58 40
f 27 40 41
f 28 42 29
f 28 29 43
f 28 43 35
f 29 44 45
f 29 45 30
f 29 36 43
f 29 42 61
f 29 61 44
f 30 45 46
f 30 46 31
f 31 46 69
f 31 69 47
f 31 47 48
f 31 48 32
f 32 49 33
f 32 48 49
f 33 50 34
f 33 49 51
f 33 51 52
f 33 52 50
f 34 50 37
f 35 43 36
f 37 50 53
f 37 53 38
f 38 53 52
f 38 52 51
f 38 51 54
f 39 41 56
f 39 56 57
f 39 57 55
f 40 58 79
f 40 79 59
f 40 59 60
f 40 60 41
f 41 60 59
f 41 59 56
f 44 62 63
f 44 63 64
f 44 64 65
f 44 65 66
f 44 66 45
f 44 61 67
f 44 67 62
f 45 66 46
f 46 66 68
f 46 68 69
f 47 69 70
f 47 70 49
f 47 49 48
f 49 70 71
f 49 71 51
f 50 52 53
f 51 71 72
f 51 72 73
f 51 73 54
f 55 57 75
f 55 75 76
f 55 76 74
f 56 59 79
f 56 79 88
f 56 88 67
f 56 67 81
f 56 81 76
f 56 76 75
f 56 75 57
f 58 77 78
f 58 78 79
f 61 80 81
f 61 81 67
f 62 82 63
f 62 67 82
f 63 82 64
f 64 83 65
f 64 82 84
f 64 84 67
f 64 67 83
f 65 83 85
f 65 85 66
f 66 85 86
f 66 86 87
f 66 87 70
f 66 70 68
f 67 88 85
f 67 85 83
f 67 84 82
f 68 70 69
f 70 87 89
f 70 89 71
f 71 89 90
f 71 90 72
f 74 76 91
f 76 81 91
f 77 90 89
f 77 89 92
f 77 92 93
f 77 93 94
f 77 94 78
f 78 94 95
f 78 95 88
f 78 88 79
f 80 96 81
f 81 96 91
f 85 97 86
f 85 88 97
f 86 97 98
f 86 98 87
f 87 98 92
f 87 92 89
f 88 95 97
f 92 98 93
f 93 98 94
f 94 98 97
f 94 97 95

