# https://github.com/mikedh/trimesh
v -3.71257861 0.44567429 4.42877032
v -3.82282889 0.44567429 4.42698636
v -3.82282889 0.36208982 4.41241988
v -3.71257861 0.36208982 4.41241988
v -3.39286311 0.01937944 4.32115731
v -3.60597305 0.44567429 4.41256854
v -3.60597305 1.36691767 4.40937291
v -3.64282437 1.36691767 4.40714359
v -3.70928832 1.36691767 4.40305598
v -3.74851881 1.36691767 4.33171052
v -3.82282889 0.53204962 4.40052934
v -3.82282889 0.01937944 4.32792023
v -3.60597305 0.01937944 4.32792023
v -3.49946871 0.01937944 4.32777157
v -3.39286311 -0.04452991 4.29417965
v -3.33328345 -0.03978555 4.28726807
v -3.32639912 0.01937944 4.29655795
v -3.39286311 0.12598809 4.33260218
v -3.54355866 0.55228286 4.39131347
v -3.54355866 1.36691767 4.39131347
v -3.56578082 1.36691767 4.39777970
v -3.40283524 1.36691767 3.66960865
v -3.82282889 0.65205403 3.66998030
v -3.82282889 0.55256193 4.33401448
v -3.82282889 0.53456133 4.39956302
v -3.82282889 0.01714686 4.32687991
v -3.49946871 -0.04620444 4.29670661
v -3.49946871 -0.05862340 4.22513815
v -3.39286311 -0.05499544 4.22513815
v -3.33014500 -0.04271593 4.22513815
v -3.31323794 0.01937944 4.22513815
v -3.30569557 0.12598809 4.22513815
v -3.32265325 0.12598809 4.30146289
v -3.39286311 0.23245706 4.33289951
v -3.39286311 1.36691767 4.33289951
v -3.30569557 1.36691767 3.66960865
v -3.81832368 0.65233309 3.66960865
v -3.82282889 0.51823511 3.66960865
v -3.82282889 -0.04620444 4.29670661
v -3.82282889 -0.05862340 4.22513815
v -3.49946871 -0.05862340 3.66960865
v -3.39286311 -0.05499544 3.66960865
v -3.34350867 -0.04536710 3.66960865
v -3.33014500 -0.04271593 3.66960865
v -3.31323794 0.01937944 3.66960865
v -3.31161810 0.04198495 3.66960865
v -3.30569557 0.12598809 3.66960865
v -3.30569557 1.36691767 4.22513815
v -3.32265325 1.36691767 4.30146289
v -3.34765950 1.36691767 4.31268508
v -3.82282889 -0.04955334 3.66960865
f 1 2 3
f 1 3 4
f 1 4 5
f 1 5 6
f 1 6 7
f 1 7 2
f 2 7 8
f 2 8 9
f 2 9 10
f 2 10 11
f 2 11 25
f 2 25 24
f 2 24 23
f 2 23 38
f 2 38 51
f 2 51 40
f 2 40 39
f 2 39 26
f 2 26 12
f 2 12 3
f 3 12 13
f 3 13 4
f 4 13 14
f 4 14 5
f 5 14 15
f 5 15 16
f 5 16 17
f 5 17 18
f 5 18 6
f 6 18 19
f 6 19 20
f 6 20 21
f 6 21 7
f 7 21 20
f 7 20 35
f 7 35 50
f 7 50 49
f 7 49 48
f 7 48 36
f 7 36 22
f 7 22 10
f 7 10 9
f 7 9 8
f 10 22 23
f 10 23 24
f 10 24 25
f 10 25 11
f 12 26 13
f 13 26 27
f 13 27 14
f 14 27 15
f 15 27 28
f 15 28 29
f 15 29 16
f 16 29 30
f 16 30 31
f 16 31 17
f 17 31 32
f 17 32 33
f 17 33 18
f 18 33 34
f 18 34 19
f 19 34 35
f 19 35 20
f 22 36 47
f 22 47 46
f 22 46 45
f 22 45 44
f 22 44 43
f 22 43 42
f 22 42 41
f 22 41 51
f 22 51 38
f 22 38 37
f 22 37 23
f 23 37 38
f 26 39 27
f 27 39 40
f 27 40 28
f 28 40 41
f 28 41 42
f 28 42 29
f 29 42 43
f 29 43 30
f 30 43 44
f 30 44 45
f 30 45 31
f 31 45 46
f 31 46 32
f 32 46 47
f 32 47 36
f 32 36 48
f 32 48 49
f 32 49 33
f 33 49 50
f 33 50 34
f 34 50 35
f 40 51 41

