# https://github.com/mikedh/trimesh
v -0.06197955 -0.05862340 -5.63822610
v -0.06197955 0.05365789 -5.63822610
v 0.12458840 -0.05862340 -5.63822610
v -0.10736798 -0.05862340 -3.17557018
v 0.01288301 1.18954419 -3.83489160
v 0.13413685 1.18954419 -5.04773684
v 0.15593734 1.18954419 -5.14588621
v 0.18955372 1.18954419 -5.19910330
v 0.17276713 0.50461588 -5.63822610
v -0.10736798 0.03410943 -3.17557018
v 0.19836108 -0.04628346 -5.63822610
v 0.12458840 -0.05862340 -3.17557018
v -0.10736798 -0.05862340 -2.38304625
v 0.01288301 1.18954419 -3.58537561
v 0.24283370 1.18954419 -5.22364072
v 0.23110517 0.52734091 -5.63822610
v -0.10736798 0.03410943 -2.38304625
v 0.23306734 0.01944813 -5.63822610
v 0.22068443 -0.00413219 -4.90306214
v 0.23293646 0.01895941 -2.38304625
v 0.19836108 -0.04628346 -2.38304625
v 0.12454488 -0.05862340 -2.38304625
v 0.13409333 1.18954419 -3.02292897
v 0.30012538 1.18954419 -5.22364072
v 0.26977897 0.52453083 -5.63822610
v 0.17281097 0.50461588 -2.38304625
v 0.18955372 1.18954419 -2.87156219
v 0.15593734 1.18954419 -2.92477960
v 0.31425191 0.35995746 -5.63822610
v 0.33797073 0.44597058 -5.15417134
v 0.23311086 0.01944813 -4.90274353
v 0.23311086 0.01944813 -2.38336502
v 0.31425191 0.35995746 -2.38304625
v 0.33295683 0.44597058 -5.63822610
v 0.30309008 0.52196512 -5.63822610
v 0.32855315 1.18954419 -5.15417134
v 0.23079990 0.52734091 -2.38304625
v 0.24283370 1.18954419 -2.84702493
v 0.24174382 1.18954419 -2.84734369
v 0.32432386 0.40601846 -5.63822610
v 0.33801457 0.44584844 -2.91617554
v 0.33286948 0.44523751 -2.38304625
v 0.32855315 1.18954419 -2.91617554
v 0.30274129 0.52196512 -2.38304625
v 0.30012538 1.18954419 -2.84702493
v 0.33295683 0.44584844 -2.38336502
v 0.30326447 0.52147640 -2.38304625
f 1 2 9
f 1 9 16
f 1 16 25
f 1 25 35
f 1 35 34
f 1 34 40
f 1 40 29
f 1 29 18
f 1 18 11
f 1 11 3
f 1 3 12
f 1 12 22
f 1 22 13
f 1 13 4
f 1 4 10
f 1 10 2
f 2 5 6
f 2 6 7
f 2 7 8
f 2 8 9
f 2 10 5
f 3 11 21
f 3 21 12
f 4 13 17
f 4 17 10
f 5 14 23
f 5 23 28
f 5 28 27
f 5 27 39
f 5 39 38
f 5 38 45
f 5 45 43
f 5 43 36
f 5 36 24
f 5 24 15
f 5 15 8
f 5 8 7
f 5 7 6
f 5 10 17
f 5 17 14
f 8 15 9
f 9 15 16
f 11 18 19
f 11 19 20
f 11 20 21
f 12 21 22
f 13 22 21
f 13 21 20
f 13 20 33
f 13 33 42
f 13 42 47
f 13 47 44
f 13 44 37
f 13 37 26
f 13 26 17
f 14 17 23
f 15 24 16
f 16 24 25
f 17 26 27
f 17 27 28
f 17 28 23
f 18 29 30
f 18 30 31
f 18 31 19
f 19 31 20
f 20 32 33
f 20 31 32
f 24 34 35
f 24 35 25
f 24 36 34
f 26 37 38
f 26 38 39
f 26 39 27
f 29 40 30
f 30 40 34
f 30 34 36
f 30 36 41
f 30 41 31
f 31 41 32
f 32 41 33
f 33 41 42
f 36 43 41
f 37 44 45
f 37 45 38
f 41 43 46
f 41 46 42
f 42 46 47
f 43 45 46
f 44 47 45
f 45 47 46

