# https://github.com/mikedh/trimesh
v -2.45275364 -0.05617983 -6.11383181
v -2.45275364 -0.05617983 -5.63829376
v -2.45275364 -0.05605769 -6.13521426
v -2.43352236 -0.05862340 -6.11383181
v -2.43352236 -0.05862340 -5.63829376
v -2.45275364 0.17217035 -5.63829376
v -2.45275364 -0.05556897 -6.22040640
v -2.43352236 -0.05801255 -6.22040640
v -1.23999798 -0.05813469 -6.19936130
v -1.23999798 -0.05862340 -6.11383181
v -1.23999798 -0.05862340 -5.63829376
v -1.85551655 0.50266102 -5.63829376
v -2.45275364 1.18954419 -6.07605857
v -2.45275364 -0.05410283 -6.23544810
v -2.43352236 -0.04567253 -6.28806100
v -1.23999798 -0.04811610 -6.27470543
v -1.23999798 -0.05801255 -6.22040640
v -1.23999798 0.50742595 -5.63829376
v -1.79402401 0.50644852 -5.63829376
v -1.68753996 0.50815903 -5.63829376
v -1.59019665 0.50828124 -5.63829376
v -1.58093710 0.50828124 -5.63829376
v -1.23999798 1.18954419 -6.20475734
v -2.45275364 1.18954419 -6.30418210
v -2.45275364 -0.04469509 -6.28691426
v -2.43352236 0.01932599 -6.30917376
v -1.79402401 0.01932599 -6.31490684
v -1.23999798 0.00649733 -6.30964580
v -1.23999798 -0.04567253 -6.28806100
v -1.23999798 1.18954419 -6.32637363
v -2.43352236 1.18954419 -6.30640824
v -2.43352236 0.12586500 -6.31119724
v -2.45275364 0.12586500 -6.30822905
v -2.45275364 0.02054770 -6.30559885
v -2.45275364 0.03850787 -6.30654293
v -1.79402401 0.12586500 -6.32556423
v -1.23999798 0.01932599 -6.31490684
v -1.26112869 0.12586500 -6.32731834
v -1.23999798 0.12586500 -6.32684630
v -1.25887300 1.18954419 -6.32711567
v -1.79402401 1.18954419 -6.32381077
v -1.26112869 1.18954419 -6.32718302
v -1.23999798 0.10485040 -6.32482219
f 1 2 6
f 1 6 13
f 1 13 24
f 1 24 33
f 1 33 35
f 1 35 34
f 1 34 25
f 1 25 14
f 1 14 7
f 1 7 3
f 1 3 4
f 1 4 5
f 1 5 2
f 2 5 11
f 2 11 18
f 2 18 22
f 2 22 21
f 2 21 20
f 2 20 19
f 2 19 12
f 2 12 6
f 3 7 8
f 3 8 4
f 4 8 9
f 4 9 10
f 4 10 11
f 4 11 5
f 6 12 13
f 7 14 8
f 8 14 15
f 8 15 16
f 8 16 17
f 8 17 9
f 9 17 16
f 9 16 29
f 9 29 28
f 9 28 37
f 9 37 43
f 9 43 39
f 9 39 30
f 9 30 23
f 9 23 18
f 9 18 11
f 9 11 10
f 12 19 13
f 13 19 20
f 13 20 21
f 13 21 22
f 13 22 18
f 13 18 23
f 13 23 30
f 13 30 40
f 13 40 42
f 13 42 41
f 13 41 31
f 13 31 24
f 14 25 15
f 15 25 26
f 15 26 27
f 15 27 28
f 15 28 29
f 15 29 16
f 24 31 32
f 24 32 33
f 25 34 26
f 26 34 35
f 26 35 33
f 26 33 32
f 26 32 36
f 26 36 27
f 27 37 28
f 27 36 38
f 27 38 37
f 30 39 40
f 31 41 32
f 32 41 36
f 36 41 42
f 36 42 38
f 37 38 43
f 38 39 43
f 38 42 39
f 39 42 40

