# https://github.com/mikedh/trimesh
v 0.25578236 1.18954427 -2.12601299
v 0.29460577 1.18954427 -2.12601299
v 0.20246997 1.18954427 -2.10324905
v 0.24150463 1.73060886 -2.84432818
v 0.24533780 1.72958863 -2.84432818
v 0.29513340 1.18954427 -2.12476095
v 0.30033790 1.72958863 -2.84432818
v 0.15598022 1.18954427 -2.04998153
v 0.20496676 1.78264086 -2.84432818
v -0.02878343 1.18954427 -1.80572476
v 0.31996084 1.18954427 -2.06363983
v 0.31162616 1.83331252 -2.84432818
v 0.14739967 1.90144155 -2.84432818
v -0.02878343 1.18954427 -1.68154760
v -0.02878343 2.34762432 -1.87230918
v 0.08719476 2.04438783 -2.84432818
v 0.09837788 2.00969984 -2.84432818
v 0.33044035 2.04438783 -2.06363983
v 0.31974960 1.18954427 -2.06159110
v 0.32344205 2.04438783 -2.84432818
v 0.12457664 1.18954427 -1.68154760
v -0.02878343 2.34762432 -1.68154760
v 0.08585869 2.34762432 -2.84432818
v 0.31619788 2.13201465 -2.84432818
v 0.31669025 2.13246811 -2.70296426
v 0.31669025 2.13246811 -2.27659627
v 0.31619788 2.13201465 -2.06363983
v 0.30596456 2.12090539 -1.98066542
v 0.31324399 2.04438783 -1.96746232
v 0.30979772 1.18954427 -1.96905585
v 0.12457664 2.34762432 -1.68154760
v 0.18527361 1.18954427 -1.68598654
v 0.24252462 2.34762432 -2.84432818
v 0.24407193 2.34762432 -1.85045588
v 0.24073113 2.34762432 -1.83383812
v 0.22047509 2.34762432 -1.74380696
v 0.22051035 2.25761690 -1.74380696
v 0.22051035 1.18954427 -1.74380696
v 0.18657505 2.34762432 -1.68610042
v 0.18657505 1.18954427 -1.68610042
v 0.21520040 2.34762432 -1.73481520
f 1 2 6
f 1 6 11
f 1 11 19
f 1 19 30
f 1 30 38
f 1 38 40
f 1 40 32
f 1 32 21
f 1 21 14
f 1 14 10
f 1 10 8
f 1 8 3
f 1 3 4
f 1 4 5
f 1 5 7
f 1 7 2
f 2 7 6
f 3 8 4
f 4 9 13
f 4 13 17
f 4 17 16
f 4 16 23
f 4 23 33
f 4 33 24
f 4 24 20
f 4 20 12
f 4 12 7
f 4 7 5
f 4 8 10
f 4 10 9
f 6 7 11
f 7 12 11
f 9 10 13
f 10 14 22
f 10 22 15
f 10 15 16
f 10 16 17
f 10 17 13
f 11 18 19
f 11 12 20
f 11 20 18
f 14 21 31
f 14 31 22
f 15 23 16
f 15 22 31
f 15 31 39
f 15 39 41
f 15 41 36
f 15 36 35
f 15 35 34
f 15 34 33
f 15 33 23
f 18 20 24
f 18 24 25
f 18 25 26
f 18 26 27
f 18 27 28
f 18 28 29
f 18 29 30
f 18 30 19
f 21 32 31
f 24 33 25
f 25 33 34
f 25 34 26
f 26 34 27
f 27 34 28
f 28 34 35
f 28 35 36
f 28 36 29
f 29 36 37
f 29 37 38
f 29 38 30
f 31 32 39
f 32 40 39
f 36 41 37
f 37 41 39
f 37 39 40
f 37 40 38

