# https://github.com/mikedh/trimesh
v -6.69235739 1.26439349 -1.08910102
v -5.87043684 1.26439349 -0.96468701
v -6.69235739 1.26439349 -0.85758677
v -6.69235739 2.20562485 -1.10365686
v -5.87043684 1.26439349 -0.78741236
v -5.87043684 2.20608577 -0.97809369
v -6.38767723 1.26439349 -0.32101302
v -6.39161936 2.20608577 -0.32101302
v -6.69235739 2.20608577 -0.85643762
v -6.69235739 2.20608577 -1.06221107
v -6.67924323 2.20608577 -1.06366665
v -6.29145382 1.26439349 -0.32101302
v -5.87043684 2.20608577 -0.78120699
v -6.28091427 2.20608577 -0.32101302
f 1 2 5
f 1 5 12
f 1 12 7
f 1 7 3
f 1 3 9
f 1 9 10
f 1 10 4
f 1 4 2
f 2 4 6
f 2 6 13
f 2 13 5
f 3 7 8
f 3 8 9
f 4 10 11
f 4 11 6
f 5 13 14
f 5 14 12
f 6 11 10
f 6 10 9
f 6 9 8
f 6 8 14
f 6 14 13
f 7 12 14
f 7 14 8

