# https://github.com/mikedh/trimesh
v -3.28629541 1.36700304 3.22420926
v -3.31710163 2.23966554 3.20811961
v -3.28629541 2.23966554 3.19822745
v -3.18033982 2.23966554 3.19763185
v -3.24852575 1.36700304 3.22706976
v -3.37782275 1.36700304 3.26937915
v -3.39403362 2.23966554 3.26449263
v -3.18033982 1.36700304 3.23231365
v -3.18033982 2.23966554 3.34124588
v -3.74850015 1.36700304 4.33164730
v -3.74944716 2.04437370 4.17766430
v -3.74944716 2.23966554 4.21365739
v -3.18033982 1.36700304 3.34124588
v -3.30573731 2.23966554 4.22509876
v -3.72326468 1.36700304 4.37765167
v -3.74944716 1.83071444 4.40267987
v -3.74944716 1.72999305 4.33164730
v -3.74944716 1.86625312 4.24535957
v -3.74944716 1.97466321 4.19983232
v -3.74944716 2.23966554 4.34594918
v -3.30573731 1.36700304 4.22509876
v -3.30857839 2.23966554 4.23797023
v -3.70928213 1.36700304 4.40303756
v -3.74944716 2.03771020 4.41471717
v -3.74944716 2.12946148 4.41376357
v -3.71256884 2.23966554 4.34594918
v -3.32261666 1.36700304 4.30149434
v -3.32261666 2.23966554 4.30149434
v -3.60600049 1.36700304 4.40935385
v -3.72198341 2.03437846 4.41507485
v -3.71256884 2.12946148 4.41376357
v -3.63157018 2.23966554 4.34559150
v -3.34768502 1.36700304 4.31269747
v -3.39286377 2.23966554 4.33283915
v -3.60600049 2.04437370 4.41328708
v -3.56577970 1.36700304 4.39779304
v -3.60600049 2.11621987 4.40113034
v -3.41080156 2.23966554 4.33677206
v -3.52115804 2.23966554 4.34487645
v -3.39286377 1.36700304 4.33283915
v -3.54349672 1.93784310 4.39135730
v -3.54349672 1.36700304 4.39135730
f 1 2 3
f 1 3 4
f 1 4 5
f 1 5 8
f 1 8 13
f 1 13 21
f 1 21 27
f 1 27 33
f 1 33 40
f 1 40 42
f 1 42 36
f 1 36 29
f 1 29 23
f 1 23 15
f 1 15 10
f 1 10 6
f 1 6 2
f 2 6 7
f 2 7 12
f 2 12 20
f 2 20 26
f 2 26 32
f 2 32 39
f 2 39 38
f 2 38 34
f 2 34 28
f 2 28 22
f 2 22 14
f 2 14 9
f 2 9 4
f 2 4 3
f 4 8 5
f 4 9 13
f 4 13 8
f 6 10 11
f 6 11 7
f 7 11 12
f 9 14 21
f 9 21 13
f 10 15 16
f 10 16 17
f 10 17 18
f 10 18 19
f 10 19 11
f 11 19 18
f 11 18 17
f 11 17 16
f 11 16 24
f 11 24 25
f 11 25 20
f 11 20 12
f 14 22 21
f 15 23 16
f 16 23 24
f 20 25 31
f 20 31 26
f 21 22 27
f 22 28 27
f 23 29 24
f 24 29 30
f 24 30 25
f 25 30 31
f 26 31 32
f 27 28 33
f 28 34 33
f 29 35 30
f 29 36 35
f 30 35 31
f 31 35 37
f 31 37 38
f 31 38 39
f 31 39 32
f 33 34 40
f 34 38 37
f 34 37 35
f 34 35 41
f 34 41 42
f 34 42 40
f 35 36 42
f 35 42 41

