<svg xmlns="http://www.w3.org/2000/svg"  viewBox="0 0 72 72" width="64px" height="64px"><path d="M 36.191406 10.107422 C 35.131406 10.052172 34.00825 10.337453 33.21875 11.126953 L 16.761719 27.060547 C 15.174719 28.596547 15.133922 31.129797 16.669922 32.716797 C 18.208922 34.304797 20.741172 34.344594 22.326172 32.808594 L 32 23.441406 L 32 58 C 32 60.209 33.791 62 36 62 C 38.209 62 40 60.209 40 58 L 40 23.441406 L 49.673828 32.808594 C 50.466828 33.576594 51.495531 33.949594 52.519531 33.933594 C 53.542531 33.917594 54.561078 33.510797 55.330078 32.716797 C 56.866078 31.129797 56.825281 28.597547 55.238281 27.060547 L 38.78125 11.126953 C 38.24675 10.558453 37.251406 10.162672 36.191406 10.107422 z"/></svg>