v 0.059001 0.000000 0.015999
v 0.059001 0.000000 0.028000
v 0.056990 0.015270 0.015999
v 0.056990 0.015270 0.028000
v 0.051096 0.029500 0.015999
v 0.051096 0.029500 0.028000
v 0.041720 0.041720 0.015999
v 0.041720 0.041720 0.028000
v 0.029500 0.051096 0.015999
v 0.029500 0.051096 0.028000
v 0.015270 0.056990 0.015999
v 0.015270 0.056990 0.028000
v -0.000000 0.059001 0.015999
v -0.000000 0.059001 0.028000
v -0.015270 0.056990 0.015999
v -0.015270 0.056990 0.028000
v -0.029500 0.051096 0.015999
v -0.029500 0.051096 0.028000
v -0.041720 0.041720 0.015999
v -0.041720 0.041720 0.028000
v -0.051096 0.029500 0.015999
v -0.051096 0.029500 0.028000
v -0.056990 0.015270 0.015999
v -0.056990 0.015270 0.028000
v -0.059001 -0.000000 0.015999
v -0.059001 -0.000000 0.028000
v -0.056990 -0.015270 0.015999
v -0.056990 -0.015270 0.028000
v -0.051096 -0.029500 0.015999
v -0.051096 -0.029500 0.028000
v -0.041720 -0.041720 0.015999
v -0.041720 -0.041720 0.028000
v -0.029500 -0.051096 0.015999
v -0.029500 -0.051096 0.028000
v -0.015270 -0.056990 0.015999
v -0.015270 -0.056990 0.028000
v 0.000000 -0.059001 0.015999
v 0.000000 -0.059001 0.028000
v 0.015270 -0.056990 0.015999
v 0.015270 -0.056990 0.028000
v 0.029500 -0.051096 0.015999
v 0.029500 -0.051096 0.028000
v 0.041720 -0.041720 0.015999
v 0.041720 -0.041720 0.028000
v 0.051096 -0.029500 0.015999
v 0.051096 -0.029500 0.028000
v 0.056990 -0.015270 0.015999
v 0.056990 -0.015270 0.028000
v 0.000000 -0.000000 0.015999
v 0.000000 -0.000000 0.028000
f 1 3 4
f 1 4 2
f 3 5 6
f 3 6 4
f 5 7 8
f 5 8 6
f 7 9 10
f 7 10 8
f 9 11 12
f 9 12 10
f 11 13 14
f 11 14 12
f 13 15 16
f 13 16 14
f 15 17 18
f 15 18 16
f 17 19 20
f 17 20 18
f 19 21 22
f 19 22 20
f 21 23 24
f 21 24 22
f 23 25 26
f 23 26 24
f 25 27 28
f 25 28 26
f 27 29 30
f 27 30 28
f 29 31 32
f 29 32 30
f 31 33 34
f 31 34 32
f 33 35 36
f 33 36 34
f 35 37 38
f 35 38 36
f 37 39 40
f 37 40 38
f 39 41 42
f 39 42 40
f 41 43 44
f 41 44 42
f 43 45 46
f 43 46 44
f 45 47 48
f 45 48 46
f 47 1 2
f 47 2 48
f 49 3 1
f 50 2 4
f 49 5 3
f 50 4 6
f 49 7 5
f 50 6 8
f 49 9 7
f 50 8 10
f 49 11 9
f 50 10 12
f 49 13 11
f 50 12 14
f 49 15 13
f 50 14 16
f 49 17 15
f 50 16 18
f 49 19 17
f 50 18 20
f 49 21 19
f 50 20 22
f 49 23 21
f 50 22 24
f 49 25 23
f 50 24 26
f 49 27 25
f 50 26 28
f 49 29 27
f 50 28 30
f 49 31 29
f 50 30 32
f 49 33 31
f 50 32 34
f 49 35 33
f 50 34 36
f 49 37 35
f 50 36 38
f 49 39 37
f 50 38 40
f 49 41 39
f 50 40 42
f 49 43 41
f 50 42 44
f 49 45 43
f 50 44 46
f 49 47 45
f 50 46 48
f 49 1 47
f 50 48 2
v 0.072500 0.000000 -0.028000
v 0.072500 0.000000 0.028000
v 0.070029 0.018764 -0.028000
v 0.070029 0.018764 0.028000
v 0.062786 0.036250 -0.028000
v 0.062786 0.036250 0.028000
v 0.051265 0.051265 -0.028000
v 0.051265 0.051265 0.028000
v 0.036250 0.062786 -0.028000
v 0.036250 0.062786 0.028000
v 0.018764 0.070029 -0.028000
v 0.018764 0.070029 0.028000
v -0.000000 0.072500 -0.028000
v -0.000000 0.072500 0.028000
v -0.018764 0.070029 -0.028000
v -0.018764 0.070029 0.028000
v -0.036250 0.062786 -0.028000
v -0.036250 0.062786 0.028000
v -0.051265 0.051265 -0.028000
v -0.051265 0.051265 0.028000
v -0.062786 0.036250 -0.028000
v -0.062786 0.036250 0.028000
v -0.070029 0.018764 -0.028000
v -0.070029 0.018764 0.028000
v -0.072500 -0.000000 -0.028000
v -0.072500 -0.000000 0.028000
v -0.070029 -0.018764 -0.028000
v -0.070029 -0.018764 0.028000
v -0.062786 -0.036250 -0.028000
v -0.062786 -0.036250 0.028000
v -0.051265 -0.051265 -0.028000
v -0.051265 -0.051265 0.028000
v -0.036250 -0.062786 -0.028000
v -0.036250 -0.062786 0.028000
v -0.018764 -0.070029 -0.028000
v -0.018764 -0.070029 0.028000
v 0.000000 -0.072500 -0.028000
v 0.000000 -0.072500 0.028000
v 0.018764 -0.070029 -0.028000
v 0.018764 -0.070029 0.028000
v 0.036250 -0.062786 -0.028000
v 0.036250 -0.062786 0.028000
v 0.051265 -0.051265 -0.028000
v 0.051265 -0.051265 0.028000
v 0.062786 -0.036250 -0.028000
v 0.062786 -0.036250 0.028000
v 0.070029 -0.018764 -0.028000
v 0.070029 -0.018764 0.028000
v 0.000000 -0.000000 -0.028000
v 0.000000 -0.000000 0.028000
f 51 53 54
f 51 54 52
f 53 55 56
f 53 56 54
f 55 57 58
f 55 58 56
f 57 59 60
f 57 60 58
f 59 61 62
f 59 62 60
f 61 63 64
f 61 64 62
f 63 65 66
f 63 66 64
f 65 67 68
f 65 68 66
f 67 69 70
f 67 70 68
f 69 71 72
f 69 72 70
f 71 73 74
f 71 74 72
f 73 75 76
f 73 76 74
f 75 77 78
f 75 78 76
f 77 79 80
f 77 80 78
f 79 81 82
f 79 82 80
f 81 83 84
f 81 84 82
f 83 85 86
f 83 86 84
f 85 87 88
f 85 88 86
f 87 89 90
f 87 90 88
f 89 91 92
f 89 92 90
f 91 93 94
f 91 94 92
f 93 95 96
f 93 96 94
f 95 97 98
f 95 98 96
f 97 51 52
f 97 52 98
f 99 53 51
f 100 52 54
f 99 55 53
f 100 54 56
f 99 57 55
f 100 56 58
f 99 59 57
f 100 58 60
f 99 61 59
f 100 60 62
f 99 63 61
f 100 62 64
f 99 65 63
f 100 64 66
f 99 67 65
f 100 66 68
f 99 69 67
f 100 68 70
f 99 71 69
f 100 70 72
f 99 73 71
f 100 72 74
f 99 75 73
f 100 74 76
f 99 77 75
f 100 76 78
f 99 79 77
f 100 78 80
f 99 81 79
f 100 80 82
f 99 83 81
f 100 82 84
f 99 85 83
f 100 84 86
f 99 87 85
f 100 86 88
f 99 89 87
f 100 88 90
f 99 91 89
f 100 90 92
f 99 93 91
f 100 92 94
f 99 95 93
f 100 94 96
f 99 97 95
f 100 96 98
f 99 51 97
f 100 98 52
